<svg version="1.2" xmlns="http://www.w3.org/2000/svg" viewBox="0 0 1587 838" width="1587" height="838">
	<title>Logo (71)-svg</title>
	<style>
		.s0 { fill: #ff0000 } 
	</style>
	<g id="Page-1">
		<g id="Trifecta-3M-001-Lockup-CMYK-Pos">
			<path id="Shape" fill-rule="evenodd" class="s0" d="m1586.9 18.6v801.3h-227.8v-505.1l-124 504.6h-199.5l-123.5-505.1v505h-228.4v-155c-35.7 101.1-157 174.5-330.8 172.9-362.9 2.1-351.9-289.9-352.9-334.7h231.4c0 66.5 16.3 144 116.6 147.6 56.1-0.5 101.9-29.6 99.2-95.4-2.1-55.4-55.9-76.4-94.6-76.4h-68.1v-155.5h75c75.2 0 98.5-27.6 100.9-67.1-1.7-45.6-33.2-74.9-101.4-74.4-55.6-0.9-105 36.2-105 100.8h-223c6.2-214.1 175.3-284.2 336.5-282.1 132.3 2.2 275.2 40.2 315.7 191.5v-172.9h337.1l115 468.2 114.6-468.2zm-903.1 267.2c-18.9 57.1-43.8 85.7-91 106.8 22.6 8.1 62.6 34 91 93.1z"/>
		</g>
	</g>
</svg>