<svg version="1.2" baseProfile="tiny-ps" xmlns="http://www.w3.org/2000/svg" viewBox="0 0 1557 391" width="1557" height="391">
	<title>Abbott_Laboratories_logo-svg</title>
	<style>
		tspan { white-space:pre }
		.shp0 { fill: #159bd7 } 
		.shp1 { fill: #000000 } 
	</style>
	<g id="layer1">
		<g id="g6645">
			<path id="path6497" class="shp0" d="M422.54 0.86L0.85 0.86L0.85 65.71L401.49 65.71L401.49 65.77C413.09 65.77 422.35 75.07 422.35 86.63L422.35 304.4L422.3 304.59C422.23 316.09 412.87 325.34 401.4 325.34L86.55 325.34C75.02 325.34 65.59 316.02 65.59 304.4L65.59 216.42C65.59 204.87 75.02 195.49 86.55 195.49L357.43 195.49L357.43 130.72L65.47 130.72C29.78 130.72 0.85 159.62 0.85 195.31L0.85 325.52C0.85 361.23 29.78 390.17 65.47 390.17L422.54 390.17C458.26 390.17 487.15 361.23 487.15 325.52L487.15 65.53C487.15 29.82 458.26 0.86 422.54 0.86" />
			<path id="path6499" fill-rule="evenodd" class="shp1" d="M726.54 92.79L777.06 244.02C783.05 262.47 787.3 266.74 797.83 266.74L808.1 266.74L808.1 293.36L697.79 293.36L697.79 266.74L706.83 266.74C715.9 266.74 723.44 265.53 723.44 262.25C723.44 259.14 723.14 255.81 721.93 251.27L715.62 229.54L653.95 229.54L650.27 241.64C646.97 252.2 645.74 256.69 645.74 260.93C645.74 265.81 656.36 266.74 664.58 266.74L673.27 266.74L673.27 293.36L584.41 293.36L584.41 266.74L594.7 266.74C605.28 266.74 609.44 262.47 615.58 244.02L666.05 92.79L726.54 92.79ZM662.66 202.94L706.51 202.94L684.79 137.8L684.19 137.8L662.66 202.94Z" />
			<path id="path6501" fill-rule="evenodd" class="shp1" d="M825.63 130.02C825.63 121.47 823.53 116.98 814.76 116.98L800.87 116.98L800.87 92.79L875.86 92.79L875.86 168.08C887.02 155.37 901.26 147.21 914.8 147.21C960.16 147.21 977.06 182.67 977.06 222.52C977.06 262.47 960.16 297.85 914.8 297.85C895.76 297.85 878.81 291.2 868.27 274.56L859.54 293.38L825.63 293.38L825.63 130.02ZM875.86 222.52C875.86 253.43 882.79 271.85 899.7 271.85C916.72 271.85 923.6 253.43 923.6 222.52C923.6 191.69 916.72 173.25 899.7 173.25C882.79 173.25 875.86 191.69 875.86 222.52Z" />
			<path id="path6503" fill-rule="evenodd" class="shp1" d="M995.23 130.02C995.23 121.47 993.1 116.98 984.42 116.98L970.48 116.98L970.48 92.79L1045.44 92.79L1045.44 168.08C1056.65 155.37 1070.84 147.21 1084.44 147.21C1129.8 147.21 1146.74 182.67 1146.74 222.52C1146.74 262.47 1129.8 297.85 1084.44 297.85C1065.4 297.85 1048.45 291.2 1037.89 274.56L1029.09 293.38L995.23 293.38L995.23 130.02ZM1045.44 222.52C1045.44 253.43 1052.45 271.85 1069.34 271.85C1086.28 271.85 1093.2 253.43 1093.2 222.52C1093.2 191.69 1086.28 173.25 1069.34 173.25C1052.45 173.25 1045.44 191.69 1045.44 222.52Z" />
			<path id="path6505" fill-rule="evenodd" class="shp1" d="M1317.23 222.53C1317.23 270.95 1284.25 297.85 1239.24 297.85C1194.12 297.85 1161.23 270.95 1161.23 222.53C1161.23 174.13 1194.12 147.21 1239.24 147.21C1284.25 147.21 1317.23 174.13 1317.23 222.53ZM1214.75 222.53C1214.75 258.21 1221.09 273.65 1239.24 273.65C1257.35 273.65 1263.68 258.21 1263.68 222.53C1263.68 186.84 1257.35 171.42 1239.24 171.42C1221.09 171.42 1214.75 186.84 1214.75 222.53Z" />
			<path id="path6507" class="shp1" d="M1532.76 224.98L1532.76 248.57C1532.76 262.47 1529.77 270.7 1518.27 270.7C1511.33 270.7 1508.03 265.51 1508.03 259.14L1508.03 175.96L1545.14 175.96L1545.14 151.75L1508.03 151.75L1508.03 95.55L1478.05 95.55C1475.6 120.62 1467.77 151.75 1437.54 151.75L1390.4 151.75L1390.4 95.55L1360.5 95.55C1358.06 120.62 1350.18 151.75 1319.99 151.75L1319.99 175.96L1340.23 175.96L1340.23 251.88C1340.23 282.75 1357.46 297.84 1388.54 297.84C1424.9 297.84 1439.32 281.55 1439.32 251.88L1439.32 224.98L1415.21 224.98L1415.21 248.57C1415.21 262.47 1412.16 270.69 1400.71 270.69C1393.69 270.69 1390.4 265.51 1390.4 259.14L1390.4 175.96L1457.89 175.96L1457.89 251.88C1457.89 282.75 1475.04 297.84 1506.18 297.84C1542.44 297.84 1556.99 281.55 1556.99 251.88L1556.99 224.98L1532.76 224.98L1532.76 224.98Z" />
		</g>
	</g>
</svg>