<svg version="1.2" baseProfile="tiny-ps" xmlns="http://www.w3.org/2000/svg" viewBox="0 0 1655 451" width="1655" height="451">
	<title>Adobe_Corporate_logo-svg</title>
	<style>
		tspan { white-space:pre }
		.shp0 { fill: #fa0c00 } 
	</style>
	<g id="Layer">
		<path id="Layer" class="shp0" d="M180.43 0L0 0L0 431.15L180.43 0Z" />
		<path id="Layer" class="shp0" d="M307.37 0L487.57 0L487.57 431.15L307.37 0Z" />
		<path id="Layer" class="shp0" d="M243.9 158.91L358.74 431.15L283.4 431.15L249.07 344.47L165.03 344.47L243.9 158.91Z" />
	</g>
	<g id="Layer">
		<path id="Layer" fill-rule="evenodd" class="shp0" d="M694.59 274.18L674.49 334.44C673.66 336.67 672.61 337.37 670.37 337.37L633.82 337.37C631.7 337.37 630.88 336.31 631.23 333.73L706.58 119.62C708.1 115.98 709.16 112.22 709.87 99.89C709.87 98.37 710.69 97.31 712.1 97.31L762.88 97.31C764.76 97.31 765.11 97.66 765.47 99.54L849.98 334.08C850.33 336.31 849.98 337.37 847.75 337.37L806.84 337.37C804.96 337.37 803.9 336.67 803.2 335.14L781.92 274.18L694.59 274.18ZM770.28 234.37C762.53 210.18 745.37 159.44 738.08 133.83L737.73 133.83C731.85 158.26 717.27 201.01 706.22 234.37L770.28 234.37Z" />
		<path id="Layer" fill-rule="evenodd" class="shp0" d="M958.63 341.01C905.61 341.01 865.06 310.36 865.06 248.93C865.06 195.96 904.56 153.57 968.85 153.57C974.02 153.57 978.37 153.92 984.6 154.62L984.6 79.81C984.6 77.93 985.31 77.22 986.84 77.22L1026.68 77.22C1028.45 77.22 1028.45 77.93 1028.45 79.34L1028.45 300.14C1028.45 307.42 1029.27 316.94 1029.97 323.51C1029.97 325.27 1029.62 326.1 1027.74 326.8C1004 337.02 980.61 341.01 958.63 341.01ZM984.6 193.03C979.78 191.15 974.02 190.44 967.44 190.44C934.88 190.44 910.32 211.35 910.32 246.7C910.32 286.63 934.18 303.08 963.33 303.08C970.73 303.08 978.02 302.25 984.6 300.14L984.6 193.03Z" />
		<path id="Layer" fill-rule="evenodd" class="shp0" d="M1244.08 246.35C1244.08 303.08 1207.87 341.01 1156.27 341.01C1095.27 341.01 1068.23 293.92 1068.23 247.52C1068.23 195.61 1102.2 153.57 1157.09 153.57C1213.4 153.57 1244.08 196.32 1244.08 246.35ZM1154.86 190.44C1130.29 190.44 1112.78 212.05 1112.78 246.7C1112.78 280.41 1129.24 303.78 1157.09 303.78C1179.66 303.78 1199.06 285.11 1199.06 247.52C1199.06 217.1 1185.89 190.44 1154.86 190.44Z" />
		<path id="Layer" fill-rule="evenodd" class="shp0" d="M1323.59 77.22C1326.18 77.22 1326.88 77.58 1326.88 80.16L1327.35 158.73C1337.23 155.44 1348.51 153.57 1360.62 153.57C1413.28 153.57 1446.89 190.8 1446.89 239.77C1446.89 307.42 1394.23 341.01 1340.05 341.01C1321.12 341.01 1302.79 338.43 1285.27 333.03C1283.74 332.67 1282.69 330.79 1282.69 329.74L1282.69 79.81C1282.69 77.93 1283.74 77.22 1285.27 77.22L1323.59 77.22ZM1352.86 191.15C1340.05 191.15 1333.11 193.03 1327.35 195.26L1327.35 301.9C1332.41 303.43 1337.93 303.78 1344.16 303.78C1374.13 303.78 1401.87 284.75 1401.87 244.24C1401.87 209.47 1381.77 191.15 1352.86 191.15Z" />
		<path id="Layer" fill-rule="evenodd" class="shp0" d="M1521.31 257.39C1522.37 282.88 1539.3 303.43 1576.56 303.43C1593.02 303.43 1608.06 300.49 1621.93 294.62C1622.99 293.92 1624.05 294.27 1624.05 296.03L1624.05 326.45C1624.05 328.56 1623.34 329.74 1621.93 330.44C1608.06 337.02 1591.96 341.01 1567.04 341.01C1500.51 341.01 1476.77 294.27 1476.77 249.29C1476.77 198.55 1507.44 153.57 1562.69 153.57C1616.76 153.57 1637.68 195.96 1637.68 230.73C1637.68 240.95 1637.21 249.29 1636.15 253.28C1635.8 254.81 1635.1 255.51 1633.21 255.86C1628.16 257.04 1613.47 257.39 1595.6 257.39L1521.31 257.39ZM1575.85 225.91C1589.72 225.91 1594.43 225.91 1595.95 225.56C1595.95 224.5 1595.95 222.98 1595.95 222.62C1595.95 212.05 1588.67 188.68 1560.81 188.68C1535.54 188.68 1524.25 208.06 1521.31 225.91L1575.85 225.91Z" />
	</g>
</svg>