<svg version="1.2" xmlns="http://www.w3.org/2000/svg" viewBox="0 0 1536 777" width="1536" height="777">
	<title>AIG_new_logo-svg</title>
	<style>
		.s0 { fill: #233776 } 
	</style>
	<g id="navyblue">
		<path id="Layer" fill-rule="evenodd" class="s0" d="m0.9 0.3c305.5-0.4 611 0 916.4-0.1q259.6 0 519.2 0 0 388.2 0 776.3c-478.5 0-957 0.1-1435.5 0 0-258.7 0-517.5-0.1-776.2zm60 59.8q0 328.1 0 656.2 657.7 0.1 1315.4 0 0-328.1 0-656.2c-438.5-0.1-877 0-1315.4 0zm946.6 103.9c40.7-5.6 83.2-1.4 121.3 14.5 36.6 15.2 66.4 42.5 92.6 71.6-15.6 15.3-31.6 30.2-47.3 45.5-18.3-24.4-41.3-46-69.4-58.7-29.3-13.5-62.8-15.8-94.3-10-56.3 10.2-104.4 54-121.7 108.2-8.8 28.2-10.1 58.6-4.8 87.6 5.4 28.8 19.4 56 40 77 22.2 22.8 49.9 41 81.1 48.6 27.7 6.7 57.8 5.2 84.2-6 21.8-9.2 40.9-24.2 55.7-42.5 13.4-16.7 21.7-37.3 23.9-58.5-36.2-0.2-72.4 0.1-108.6-0.2 0.1-20.7 0-41.4 0-62.1 60.2 0 120.4 0 180.6 0 0.2 31-1.2 62.5-9.2 92.7-7.6 30.3-24.5 57.7-45.9 80.3-19.6 20.6-43.3 37.4-69.7 48-32.3 13-67.8 16.5-102.3 13.5-35.3-3.1-69.8-15.4-99-35.5-45.8-31.5-81.4-79.1-94.2-133.7-9.1-39.2-8.4-80.7 2.2-119.5 14.5-52.4 50.4-97.5 95.3-127.4 26.8-17.8 57.7-29 89.5-33.4zm-850.3 442.2c67.6-145.4 135.2-290.8 203-436q12.7 0 25.5 0c65.3 145.3 130.5 290.7 195.8 436-24.3-0.1-48.6 0.3-72.9-0.2-14.8-35.3-30.3-70.3-45.3-105.4q-93.1 0-186.1 0c-16.2 35.1-32.4 70.2-48.3 105.4-23.9 0.5-47.8 0.1-71.7 0.2zm214.5-314.6c-22.2 49-44.9 97.8-66.9 146.8 39.4-0.1 78.7 0 118.1 0 4.5-0.1 9 0.3 13.4-0.4-21.4-48-42-96.4-63.3-144.5-0.3-0.5-1-1.4-1.3-1.9zm277.9 314.6c0.1-145.4-0.1-290.7 0-436 22 0 44 0 65.9 0q0 218 0 436c-22 0-43.9 0.1-65.9 0z"/>
		<path id="Layer" fill-rule="evenodd" class="s0" d="m1496.2 715.4c10.8-3.1 23 0.1 30.8 8.2 11.5 11.6 11 33-1.4 43.8-9.8 9.5-26.2 10.6-37.6 3.3-9.1-5.6-14.6-16.3-13.9-27-0.2-13 9.6-25.1 22.1-28.3zm1.5 4.8c-14.6 3.8-21.9 21.9-15.7 35.2 4.5 11.4 18.1 18 29.8 14.2 14.7-4.1 21.9-22.7 15.2-36.1-4.7-10.9-18-16.9-29.3-13.3zm-5.2 6.8c7.3 0.5 15-1.2 21.9 1.3 8.4 4.1 5.5 18.8-4.1 19 3.3 5.1 6.7 10.2 9.9 15.4-1.7-0.1-5-0.1-6.7-0.2-2.9-4.6-5.7-9.2-8.7-13.8-1.2-2.1-4.2-0.9-6.1-1.3q0 7.6 0 15.2-3.1 0-6.2 0 0.1-17.8 0-35.6zm6.2 4.9q0 5.3 0 10.6c3.8-0.1 7.7 0.5 11.4-0.5 4.3-1.2 4.4-8.4 0-9.5-3.7-1.1-7.6-0.5-11.4-0.6z"/>
	</g>
</svg>