<svg version="1.2" xmlns="http://www.w3.org/2000/svg" viewBox="0 0 1630 347" width="1630" height="347">
	<title>Logo_Air_Products-svg</title>
	<style>
		.s0 { fill: #2b9969 } 
	</style>
	<g id="layer1">
		<path id="path5635" fill-rule="evenodd" class="s0" d="m339.1 345c-19-4-37.1-16.8-44.2-31.4-5.8-11.9-7.3-20.9-6.5-37.3 0.3-8.1 1-16.1 1.4-17.8 0.6-2.3 0.2-2-1.7 1.3-5.3 9.6-16.7 17.6-29.7 20.8l-5.7 1.4 12.1 30.2c6.7 16.6 12.1 30.4 12.1 30.6 0 0.2-11.4 0.2-25.4 0l-25.4-0.3-13.5-38.2c-7.4-21.1-13.8-38.5-14.1-38.9-0.4-0.3-4.2 17.1-8.6 38.6l-7.9 39.1h-23.6c-19.6 0-23.6-0.3-23.6-1.7 0-1 3.3-17.9 7.3-37.7 4.1-19.8 7.6-37.4 8-39 0.3-1.8-0.8-0.4-2.6 3-3.8 7.4-12.7 16.9-19.5 20.8-10.9 6.4-15.5 7.2-44.1 8l-27 0.6-3.3 16.6c-1.9 9.1-4 19.4-4.7 23l-1.3 6.4h-23.8c-13.1 0-23.8-0.4-23.8-0.9 0-0.5 6.8-34.3 15.1-75.1l15.1-74.2h89.2l8.2 3.9c4.4 2.1 10.3 5.9 13.1 8.4 6.8 6.1 12.6 18.2 13.6 27.9l0.7 7.6 9.9-47.8h47.1c46.8 0 47.2 0 54.9 3 16.6 6.3 27.5 21.4 27.6 38.5l0.1 8.5 2.1-4.9c4.1-9.6 12.4-21.2 20.9-29.1 15.6-14.4 34.9-21.5 58.6-21.5 30.3 0 51.5 11.5 62 33.6 9.7 20.4 10.3 42 1.8 66.7-4.9 14.2-10.2 22.6-21.5 34-10.7 10.7-20.7 16.8-35.6 21.4-11 3.5-31.9 4.4-43.8 1.9zm35.7-40.3c17.7-11.6 28.2-51.7 18.4-69.6-7.2-13.3-26.8-14.3-38.9-2.2-9.8 9.8-16.3 28.7-16.6 47.7-0.1 13.7 3.3 21.3 11.5 25.5 7.7 4 18.5 3.4 25.6-1.4zm-138.6-47.8c8.7-4.6 11.8-17 5.9-23.3-3-3.2-3.2-3.3-20.1-3.3h-17l-2.7 13.2c-1.4 7.3-2.6 13.9-2.6 14.9 0 2.6 31.1 1.3 36.5-1.5zm-137.5-0.3c5.7-2.7 8.3-7.3 8.3-14.5 0-5-0.5-6.5-3.3-8.9-3.2-2.7-4.4-2.9-18.4-2.9h-14.9l-2.8 12.6c-1.5 7-2.7 13.3-2.7 14.1 0 2.4 28.5 2.1 33.8-0.4zm545.3 88.5c-23.9-4.7-38.7-15.5-45.5-33.2-4.3-11.5-3.3-21.9 7.3-70.5 5.3-24 9.8-44.8 10.2-46.3 0.7-2.8 0.8-2.8 24.4-2.8 13.1 0 23.8 0.4 23.8 0.9 0 0.5-4.5 22.9-10 49.8-9.7 47-10 48.9-8.3 53.8 2.8 8 6.8 10.2 18.8 10.2 8.9 0 10.7-0.4 15.1-3.3 3-2 5.9-5.4 7.5-8.6 1.9-4 22.3-97.2 22.3-101.9 0-0.5 11-0.9 24.5-0.9 18.8 0 24.5 0.4 24.5 1.5 0 3.1-22 103.5-23.7 108.3-7.6 21.5-22.8 35.7-44.4 41.6-10.1 2.8-35.6 3.5-46.5 1.4zm154-0.1c-32.9-7.5-53.5-35.9-51.2-70.6 1.5-23 11.5-47 25.9-62.2 14.4-15.3 28.8-22.2 51.2-24.7 29.2-3.3 57.1 7 68.4 25.2 1.4 2.3 2.9 4.1 3.4 4.1 0.5 0 2-5.5 3.2-12.2l2.3-12.3h128.5l-0.6 3.4c-0.4 1.8-1.1 5.6-1.6 8.3l-0.9 4.9 5.6-5.2c12-11 28.9-16.5 51.1-16.5 16.6-0.1 27.8 2.2 38.2 7.8 13.2 7 21.3 19.4 22.7 34.6l0.8 8.1h-44.1l-1.7-5.8c-2.2-7.4-7-10.2-17.7-10.2-9 0-15.4 2.9-17.1 7.8-2.4 6.9 2 9.7 26 16.1 19 5 28.4 9.5 35.5 16.8 8.2 8.5 10.8 15.4 10.7 29.2 0 10.1-0.4 12.7-3.3 18.8-4.5 9.6-16.1 21.6-25.8 26.4-27.8 14.1-71.2 11-91.3-6.5-9.3-8.1-14.9-21.2-14.9-34.7l-0.1-6.5 48.4 0.7 0.4 4.3c0.9 10.9 5.8 14.9 18.5 15.2 9.2 0.1 15.1-1.9 17.9-6.1 4.8-7.4 0.7-12.5-13.4-16.6-4.7-1.4-12.5-3.6-17.2-5-16.4-4.8-28.5-13.1-33.7-23.1-3.1-5.9-5.2-18.2-4.2-24.4l0.8-5h-17.2c-9.5 0-17.5 0.4-17.9 0.9-0.3 0.6-5.7 26.2-12 57l-11.4 56.1h-24.2c-18.6 0-24.2-0.3-24.2-1.5 0-0.8 5.2-26.2 11.4-56.4 6.3-30.2 11.1-55.2 10.8-55.5-0.3-0.3-8-0.6-17-0.6h-16.5l0.3 7.7c0.2 4.2 0.2 9.1 0.1 11l-0.2 3.4h-46.5v-6.6c0-7.2-2.9-12.7-9-17.2-2.8-2.1-5.2-2.6-12.3-2.6-16.7 0.1-25.7 8.3-33.4 30.7-2.8 8.2-3.4 11.9-3.5 23.3 0 12 0.3 14 2.9 18.5 4 7.1 10.6 10.6 20.3 10.6 13.6 0 20.6-4.8 26.5-18.1l2.5-5.5h24.4c13.5 0 24.5 0.2 24.5 0.5 0 1.5-7.6 18.6-10.5 23.6-5 8.7-20.7 23.7-29.6 28.4-15.7 8.2-42.6 12-59 8.2zm-362.5-4.7c0.9-3.7 30.2-146.6 30.2-147.4 0-0.3 18.1-0.6 40.2-0.6 36.3 0 41.2 0.3 49.8 2.5 30.1 7.7 45.3 32.1 41.2 66.2-4.2 33.9-20.8 60.3-45.5 72.1-18.8 8.9-20.8 9.2-71.5 9.7l-45.2 0.5zm92.1-40.2c12.7-6.5 20.8-24.4 20.8-46.1 0-10.7-0.3-12.9-2.5-15.8-5.6-7.6-8-8.5-24.2-8.9l-14.9-0.4-7.3 36c-4 19.7-7.5 36.7-7.8 37.6-0.5 1.4 2.2 1.6 14.6 1.2 13.4-0.4 16-0.8 21.3-3.6zm665.1 40.3c3.1-4.7 55-95.5 55.8-97.3 0.5-1.5-4.4-1.7-30.8-1.7-17.2 0-31.4-0.3-31.4-0.5 0-0.3 12.7-22.5 28.2-49.4l28.2-48.8 32.2-0.7 32.1-0.6 40.6-70.5 40.6-70.5 33.3-0.3c18.3-0.2 33.2-0.1 33.2 0.2 0 0.8-80.8 140.9-82.3 142.7-1 1.1-9.1 1.5-32.8 1.5h-31.6l-11.1 19.3-11.1 19.3 31.6 0.6 31.6 0.6-55.8 96.9 164.2 0.3c100.9 0.2 164.1 0.8 163.8 1.5-0.2 0.6-7.8 14.4-16.9 30.6l-16.6 29.5h-396.7zm171.6-99.9c0.3-0.5 7.8-13.5 16.8-28.8l16.2-27.9h59 59l15.3 25.9c8.5 14.3 16.1 27.3 16.9 28.8l1.6 2.9h-92.6c-51 0-92.4-0.4-92.2-0.9zm226.3-7.8c-2.9-5-10.4-17.8-16.7-28.5-6.3-10.7-11.4-19.6-11.4-19.9 0-0.3 15.2-0.5 33.7-0.5 18.5 0 33.7 0.2 33.7 0.5 0 1-30.9 54.1-32.5 55.7-1.3 1.4-2.5 0.1-6.8-7.3zm-828.4-58.4c0-0.5 20.3-34.7 45-76l45.1-75.1h22.9c20.7 0 22.9 0.2 23.5 2.1 0.4 1.2 6.3 32.2 13.1 69 6.9 36.7 12.9 67.2 13.3 67.7 0.5 0.5 7-29.6 14.6-66.8 7.6-37.3 14.1-68.7 14.5-69.9 0.5-1.9 2.8-2.1 24.4-2.1 13.1 0 23.8 0.4 23.8 0.9 0 0.9-28.7 142.5-30 148.3l-0.7 2.8h-90.4l-2.2-12.3-2.1-12.2h-25.8-25.9l-13.5 24.5h-24.8c-13.6 0-24.8-0.4-24.8-0.9zm109.9-60.1c-0.4-1.2-1.9-9.7-3.4-19-1.5-9.3-3-16.8-3.4-16.8-0.6 0-19.6 33.7-20.8 36.9-0.2 0.6 6 1.1 13.9 1.1 13 0 14.2-0.2 13.7-2.2zm115.6 59.5c0-1.3 28-138.9 30.1-147.8l0.6-2.7h42c44.1 0 52.2 0.8 63.8 5.9 7.8 3.5 16.1 11.6 20.1 19.6 2.9 6.1 3.3 8.3 3.3 18-0.1 8.4-0.8 12.7-2.9 18.1-5.3 13.5-19.4 25.2-33 27.4-2.8 0.4-5.1 1.1-5.1 1.6 0 0.4 5.2 13.9 11.6 29.9 6.4 16 11.7 29.6 11.7 30.3 0 0.8-8.6 1.1-25.3 0.9l-25.2-0.3-13.7-38.9c-7.5-21.4-13.9-38.5-14.4-38-0.4 0.5-4.3 18.1-8.5 39.2l-7.8 38.3h-23.7c-18.1 0-23.6-0.3-23.6-1.5zm101.8-85.6c9.1-4.6 11.6-16.7 4.9-23.4l-3.6-3.6-16.3 0.3-16.3 0.4-2.7 12.9c-1.5 7-2.8 13.5-2.8 14.4 0 1.1 4 1.5 16 1.5 13.5 0 16.7-0.4 20.8-2.5zm330.8 55.7c0-1.5 34.9-61.8 35.7-61.8 0.7 0 36.7 60.8 36.7 62 0 0.3-16.3 0.6-36.2 0.6-19.9 0-36.2-0.4-36.2-0.8z"/>
	</g>
</svg>