<svg version="1.2" xmlns="http://www.w3.org/2000/svg" viewBox="0 0 1576 644" width="1576" height="644">
	<title>akamai-logo1-svg</title>
	<style>
		.s0 { fill: #009bde } 
		.s1 { fill: #f38b00 } 
	</style>
	<g id="Layer">
		<g id="Layer">
			<path id="Layer" class="s0" d="m324.3 643.5c-178.8 0-323.5-143.6-323.5-321.1 0-177.5 145-321.5 323.5-321.5 16.5 0 20.3 9.2 6.5 13-134.3 38.8-232.5 162.1-232.5 308.5 0 144.4 96.3 266.6 228.3 306.9 15 4.6 14.2 14.2-2.3 14.2zm-175.4-246.6c-11.1-28.4-17.3-59.5-17.3-92.2 0-141 114-255.1 254.9-255.1 156.2 0 209.9 118 204.5 122.2-5 3.8-44.9-55.7-178-55.7-140.9 0-254.9 114.1-254.9 255.1 0 8.8 0.8 17.6 1.6 26.1 1.1 11.9-6.2 11.9-10.8-0.4zm113.6-188.6c62.2-48.8 147.4-64.5 226.8-34.6 65.7 24.6 101.7 82.2 97.5 84.1-2.7 1.2-34.5-26.1-89.4-45.3-81.8-28.4-165-27.6-231 1.2-8.1 3.4-10.8 0-3.9-5.4z"/>
			<path id="Layer" fill-rule="evenodd" class="s1" d="m390.7 521.7l-22.3 44.6h-72.1l133.2-260h105.1l23.4 260h-70.6l-3.8-44.6zm81.7-163.2h-0.7l-55.7 112.5h64.5zm184.6 94.2h10.3l50.7-68.4h65.2l-69.8 87.6 43 94.5h-69.5l-28-73.8h-10.4l-15.7 73.8h-59.5l54.9-260.1h59.9zm226 86.8h-1.9c-9.6 25-37.6 29.2-58.3 29.2-41.5 0-63.7-10-53.8-56.5 9.2-43.7 35-57.2 77.9-57.2 16.9 0 43-0.4 45.3 20.4h2.7l6.2-28.8c3.8-16.9 4.9-27.7-21.2-27.7-14.9 0-24.9 3.1-28.4 19.6h-59.4c12.2-56.5 53.3-56.1 95.9-56.1 61 0 85.2 7.7 71.8 70.3l-24.2 113.7h-59.5zm-53.3-29.2c-4.3 19.6 12.6 19.6 21.8 19.6 25 0 33-3.1 37.3-22.3 3-15-9.6-16.5-29.2-16.5-14.6 0-26.5 2.7-29.9 19.2zm226.4-126l-5.4 25.8h2.3c11.9-21.6 35.3-27.7 55.7-27.7 25.7 0 51 4.6 47.6 35.7h2.7c8.8-26.1 35.3-35.7 58.3-35.7 41.8 0 59.9 17.3 50.6 59.5l-26.4 124.5h-59.5l22.2-105.3c3.1-19.2 6.2-33-16.8-33-23.1 0-31.1 15.4-35 35l-21.8 103.3h-59.5l23.4-110.3c2.7-16.5 4.2-28-16.5-28-24.6 0-31.9 13.1-36.5 35l-21.9 103.3h-59.4l38.7-182.1zm330.1 155.2h-2c-9.9 25-37.9 29.2-58.7 29.2-41.4 0-63.7-10-53.7-56.5 9.2-43.8 34.9-57.2 77.9-57.2 16.9 0 43-0.4 45.3 20.4h2.7l5.4-28.9c3.8-16.9 4.9-27.6-21.2-27.6-14.9 0-24.9 3.1-28.4 19.6h-59.4c11.9-56.5 53.3-56.1 95.9-56.1 61 0 85.2 7.7 71.8 70.3l-24.2 113.7h-59.5zm-54.5-29.2c-4.2 19.6 13.1 19.6 21.9 19.6 24.9 0 33.4-3.1 37.2-22.3 3.1-15-10-16.5-29.2-16.5-14.5 0-26.4 2.7-29.9 19.2zm191.9 56.1h-59.5l38.4-182.1h59.5zm18.4-199c-18.5 0-33.4-14.9-33.4-33.4 0-18.5 14.9-33.4 33.4-33.4 18.5 0 33.4 14.9 33.4 33.4 0 18.5-14.9 33.4-33.4 33.4z"/>
		</g>
	</g>
</svg>