<svg version="1.2" xmlns="http://www.w3.org/2000/svg" viewBox="0 0 1567 475" width="1567" height="475">
	<title>Alaska_Airlines_logo-svg</title>
	<style>
		.s0 { fill: #00385f } 
	</style>
	<g id="layer1">
		<path id="path6811" class="s0" d="m768.5 19.2l-178.7 300c-18.7 30.8-28.9 62-31.7 92.1h-70c4.8-38 19.8-73.9 50.3-125.7l124.9-209.5c24.9-41.5 49.8-56.6 94.9-56.6h10.3c0 0 0-0.3 0-0.3z"/>
		<path id="path6815" fill-rule="evenodd" class="s0" d="m912.8 185.2l-79.5 132.4c-20.9 37.6-30.4 68.4-32.8 93.3h-63.7c-0.8-7.9 0.4-21 2.8-30.5-28.1 19.4-68 32.5-91.7 32.9-41.9 0.3-34.8-35.6-22.5-64.5 49-115.4 104.7-168.3 195.2-168.3 31.3 0 62.1 1.6 92.2 4.7zm-88.6 35.5h-8.7c-48.6-0.3-88.5 38-126.1 110.3-9.9 19-9.1 32.8 5.6 33.6 21.3-0.4 46.6-18.5 59.6-30.8z"/>
		<path id="path6819" fill-rule="evenodd" class="s0" d="m1566.4 185.2l-79.1 132.4c-21 37.6-30.5 68.4-32.8 93.3h-63.7c-0.8-7.9 0.4-21 2.8-30.5-28.1 19.4-68 32.5-91.7 32.9-42 0.3-34.8-35.6-22.6-64.5 49.1-115.4 104.8-168.3 195.3-168.3 30.9 0 61.7 1.6 91.8 4.7zm-88.2 35.5h-8.7c-48.6-0.3-88.5 38-126.1 110.3-9.9 19-9.2 32.8 5.5 33.6 21.4-0.4 46.7-18.5 59.7-30.8z"/>
		<path id="path6823" class="s0" d="m1267.8 474.9h-20.9c-26.9 0-50.6-18.2-57.7-43.9l-31.6-119.3-59 99.2h-67.6l189-320.2c24.5-41.5 49.8-56.5 94.9-56.5h7.1l-125.7 212.3 94.1-64.9h75.5l-158.5 109.5z"/>
		<path id="path6827" class="s0" d="m654.6 0.6c0 0-10.3 15.8-22.1 35.2l-169.7 283c-18.5 30.8-28.8 62-31.6 92.1h-72c4.4-35.6 17.4-68.8 43.9-115l124.6-201.6-167.6 121h79.4c0 0-26.9 42.6-75.1 43.8-0.5 0-28.1 0.8-68.4 2.4l-207.6 149.8h-87.8l202.9-146.3c-94.9 3.6-196.9 7.6-196.9 7.6l35.1-32.5c24.6-23.3 56.1-24.8 95.3-24.8h135.7l211.9-152.6c62.4-45.1 95.7-62.1 159.3-62.1 0 0 10.7 0 10.7 0z"/>
		<path id="path6831" class="s0" d="m981.6 245.3c-0.8 5.9 1.6 9.9 13.8 17.7l19.4 12.7c21 13.8 29.6 34.8 26.9 51.8-7.1 47.4-41.9 85.7-116.2 85.7-32.5 0-47.1-1.1-85.9-7.5l28.9-48.6c26.9 4.8 41.9 7.2 62.1 7.2 28.1 0 39.2-12.7 40.7-23 0.8-5.9-2-13-15.4-22.2l-15.4-11c-24.5-17.7-31.3-31.6-28.1-53.3 6.3-41.9 54.9-74.4 122.2-74.4 21.3 0 44.3 1.2 69.6 4l-27.3 45.9c-16.7-1.2-43.5-2.8-62.5-2-19 0.4-31.6 7.1-32.8 17z"/>
	</g>
</svg>