<svg version="1.2" xmlns="http://www.w3.org/2000/svg" viewBox="0 0 1555 593" width="1555" height="593">
	<title>Altria_logo-svg</title>
	<style>
		.s0 { fill: #355778 } 
		.s1 { fill: #004c7d } 
		.s2 { fill: #0082c2 } 
		.s3 { fill: #75cccc } 
		.s4 { fill: #73bf42 } 
		.s5 { fill: #00a84c } 
		.s6 { fill: #c2d72e } 
		.s7 { fill: #d7a86e } 
		.s8 { fill: #eee1c5 } 
		.s9 { fill: #e1c297 } 
		.s10 { fill: #00b3c2 } 
		.s11 { fill: #de9c87 } 
		.s12 { fill: #eb1c23 } 
		.s13 { fill: #66c2ee } 
		.s14 { fill: #f57f1e } 
		.s15 { fill: #c2262b } 
		.s16 { fill: #faa619 } 
		.s17 { fill: #8c1719 } 
	</style>
	<g id="Layer">
		<path id="Layer" fill-rule="evenodd" class="s0" d="m1006.3 220.2v237.7h27.5v16h-91.7v-16h28.8v-222h-28.8v-15.7zm-178.7 16.8l81.5 217.4h20.1v19.5h-80.7v-19.5h22.1l-22.1-61.7h-77.2l-20.8 61.7h20.8v19.5h-60v-19.5h20l76.6-217.4zm520.9 43.5c-10.8 0-19.6-8.7-19.6-19.6 0-10.8 8.8-19.5 19.6-19.5 10.8 0 19.6 8.7 19.6 19.5 0 10.9-8.8 19.6-19.6 19.6zm-253.7 32.2h45.3v15.6h-45.3v93.4c0 25.4 7.1 37.4 21.8 37.4 15.4 0 23.1-12.2 26.9-12.2 2.4 0 3.8 3 3.8 4.9 0 4.3-14.2 26.7-42.3 26.7-29.4 0-45.6-18.9-45.6-53.6v-96.6h-22.3l57.7-59.7c0 0 0 44.1 0 44.1zm-315.7 60.9h61.8l-31.3-85h-0.9c0 0-29.6 85-29.6 85zm510.1-50.2c-3.1 16.2-7.9 29.3-14.5 39.7-9.3-16.9-14.8-22.9-25.6-22.9-10.4 0-18.3 7.1-27.2 19.4v98.3h28.7v16h-93.1v-16h28.7v-129.6h-28.7v-15.6h64.4v26.9h0.6c19.3-23.8 29-31.6 39.4-31.6 9.7 0 18 4.6 27.3 15.4zm232.7 41.2v66.1c0 16.2 6.8 26.1 16.5 26.1 3.1 0 13-1.6 16.5-2.4v10.8c-11.9 8.5-23.9 13.3-35.1 13.3-12.3 0-20.8-7.1-29.3-24.1-19.3 14.3-33.1 24.1-47 24.1-21.2 0-37.4-19.1-37.4-42.6 0-23.9 13-37.2 44.7-44.9l35.4-9v-21.5c0-18.9-5.8-32.2-27-32.2-12.3 0-26.3 5.5-45.6 17.4l-3.7-11c19.3-17 41.9-26.7 61.2-26.7 31.2 0 50.8 21.5 50.8 56.6zm-152.1-51.9v145.2h27.3v16h-91.1v-16h28.4v-129.6h-28.4v-15.6c0 0 63.8 0 63.8 0zm69.4 118.5c0 12.4 8.9 21.8 20.9 21.8 7.7 0 16-3.8 26.1-11.9v-43.2c-33.6 8.1-47 17.5-47 33.3z"/>
		<path id="Layer" class="s1" d="m0.3 0.3h118.4v118.3h-118.4z"/>
		<path id="Layer" class="s2" d="m0.3 118.6h118.4v118.4h-118.4z"/>
		<path id="Layer" class="s3" d="m0.3 237h118.4v118.4h-118.4z"/>
		<path id="Layer" class="s4" d="m0.3 355.4h118.4v118.4h-118.4z"/>
		<path id="Layer" class="s5" d="m0.3 473.8h118.4v118.3h-118.4z"/>
		<path id="Layer" class="s4" d="m118.7 473.8h118.5v118.3h-118.5z"/>
		<path id="Layer" class="s6" d="m237.2 473.8h118.4v118.3h-118.4z"/>
		<path id="Layer" class="s7" d="m355.6 473.8h118.5v118.3h-118.5z"/>
		<path id="Layer" class="s8" d="m474.1 473.8h118.5v118.3h-118.5z"/>
		<path id="Layer" class="s6" d="m118.7 355.4h118.5v118.4h-118.5z"/>
		<path id="Layer" class="s8" d="m237.2 355.4h118.4v118.4h-118.4z"/>
		<path id="Layer" class="s9" d="m355.6 355.4h118.5v118.4h-118.5z"/>
		<path id="Layer" class="s7" d="m474.1 355.4h118.5v118.4h-118.5z"/>
		<path id="Layer" class="s10" d="m118.7 237h118.5v118.4h-118.5z"/>
		<path id="Layer" class="s9" d="m237.2 237h118.4v118.4h-118.4z"/>
		<path id="Layer" class="s11" d="m355.6 237h118.5v118.4h-118.5z"/>
		<path id="Layer" class="s12" d="m474.1 237h118.5v118.4h-118.5z"/>
		<path id="Layer" class="s13" d="m118.7 118.6h118.5v118.4h-118.5z"/>
		<path id="Layer" class="s14" d="m237.2 118.6h118.4v118.4h-118.4z"/>
		<path id="Layer" class="s12" d="m355.6 118.6h118.5v118.4h-118.5z"/>
		<path id="Layer" class="s15" d="m474.1 118.6h118.5v118.4h-118.5z"/>
		<path id="Layer" class="s2" d="m118.7 0.3h118.5v118.3h-118.5z"/>
		<path id="Layer" class="s16" d="m237.2 0.3h118.4v118.3h-118.4z"/>
		<path id="Layer" class="s15" d="m355.6 0.3h118.5v118.3h-118.5z"/>
		<path id="Layer" class="s17" d="m474.1 0.3h118.5v118.3h-118.5z"/>
	</g>
</svg>