<svg version="1.2" xmlns="http://www.w3.org/2000/svg" viewBox="0 0 1582 305" width="1582" height="305">
	<title>American_Water_(company)_Logo-svg</title>
	<style>
		.s0 { opacity: 1;fill: #005e9c } 
		.s1 { opacity: 1;fill: #a6265f } 
	</style>
	<g id="layer1">
		<path id="path3067" class="s0" d="m303 124.4v2.2q0 0 0 0v0.4c-1.2 0.9-3.4 2.3-6.1 3.7-3.1 1.8-7 3.3-11 3.3-4.3 0-8.5-1.8-11.8-3.8-3.8-2-6.4-4.2-6.4-4.2 0 0-2.2 1.8-5.5 3.6-2.7 1.7-6.1 3.5-9.8 4.1q0 0 0 0-0.7 0.2-1.5 0.2 0 0 0 0-0.8 0.1-1.5 0.1c-4.2 0-8.3-1.7-11.6-3.6-3.9-2.1-6.7-4.4-6.7-4.4 0 0-2.8 2.4-6.8 4.5-3.3 1.8-7.4 3.5-11.5 3.5-4.3 0-8.5-1.9-11.9-3.8-3.7-2-6.3-4.2-6.3-4.2 0 0-2.8 2.4-6.8 4.5-3.3 1.8-7.4 3.5-11.5 3.5-9.1 0-18.1-8.3-18.2-8.3 0 0.1 0 0.3 0 0.3v-0.4q0 0 0 0v13.7c0 0 0-0.7 0-0.7 0 0 9.1 8.3 18.2 8.3 9.2 0 18.3-7.6 18.3-7.6 0 0 9.1 7.6 18.3 7.6 9.1 0 18.2-7.6 18.2-7.6 0 0 9.1 7.6 18.3 7.6q0.7 0 1.5 0 0 0 0 0 0.8-0.1 1.5-0.2 0 0 0 0c6.9-1.3 13.1-5.8 14.8-7.1v14.7l-6.6 4.8c-2.4 1.3-5.2 2.5-8.2 3.1q0 0 0 0-0.7 0.1-1.5 0.2 0 0 0 0-0.8 0.1-1.5 0.1c-9.2-0.1-18.2-8.4-18.2-8.4h-0.1c0 0-9.1 8.4-18.2 8.4-9.2 0-18.3-8.4-18.3-8.4 0 0-9.1 8.4-18.3 8.4-9.1 0-18.2-8.4-18.2-8.4q0 0 0 0v13.6c0 0 0-0.7 0-0.7 0 0 9.1 8.4 18.2 8.4 9.2 0 18.3-7.7 18.3-7.7 0 0 9.1 7.7 18.3 7.7 7.9 0 15.8-5.8 17.8-7.3v14.5c-1.9 1.6-9.9 8-17.9 8-9.1 0-18.2-8.4-18.2-8.4 0 0-9.2 8.4-18.3 8.4-9.1 0-18.2-8.4-18.2-8.4q0 0-0.1 0v13.6c0 0 0.1-0.7 0.1-0.7 0 0 9.1 8.4 18.2 8.4 9.1 0 18.3-7.7 18.3-7.7 0 0 9.1 7.7 18.2 7.7 3.9 0 7.7-1.4 10.9-3l34.6 104.2-98.6-72.7-98.5 72.7 38.6-116.3-99.6-71.4 122.5 0.8 37-116.8 33 104.4c0.6 1.9 1.7 4 3.2 6 1.6 2 3.5 3.6 5.3 4.7 3.3 1.9 7.5 3.6 11.7 3.6 9.1 0 18.2-8.3 18.2-8.3h0.1c0 0 9.1 8.3 18.2 8.3q0.7 0 1.5 0h0.1q0.7-0.1 1.4-0.2h0.1c7-1.4 13.5-6.6 14.9-7.9 0.2-0.1 0.3-0.2 0.3-0.2 0 0 9.1 8.3 18.2 8.3 7.3 0 14.4-5.1 17.1-7.3v12c0 0 0 0 0 0z"/>
		<path id="path3015" fill-rule="evenodd" class="s1" d="m362.1 131.7c1.7-4.8 2.3-5.6 3.2-5.6 0.8 0 1.4 0.7 3.2 5.2 2.1 5.5 24.8 65.3 33.7 87.3 5.2 12.9 9.4 15.2 12.4 16.1 2.2 0.7 4.4 0.9 5.8 0.9q0.3 0 0.6 0 0.1 0 0.3 0c1 0 1.9-0.2 3.8-0.5 4.1-0.7 4.3-5.2 4.9-9.8l9.2-80.4c0.2-1.3 0.7-2.2 1.5-2.2 0.8 0 1.9 0.5 2.6 1.9l38.5 76.5 37-76.3c0.6-1.2 1.2-2.1 2-2.1 0.9 0 1.6 1 1.9 3.4 0 0 8.7 75.6 8.7 75.6 0.4 4.3 1.3 11 6.5 12.7 3.6 1.2 6.9 1.2 8.2 1.2 0.6 0 1.1 0.2 1.1 0.8 0 0.8-1.2 1.2-2.6 1.2-2.9 0-17.1-0.3-21.7-0.7-3.1-0.3-3.7-0.8-3.7-1.3 0-0.5 0.3-0.9 0.9-1.1 0.7-0.1 0.9-2 0.6-4.3l-6.1-62.3h-0.3l-30.7 62.9c-2.6 5.3-3.3 6.5-4.4 6.5-1.2 0-1.9-1.2-4.4-5.7-3.3-6-11.7-21.8-14.9-28.5-3.7-7.8-14-28.5-16.2-33.6h-0.6l-4.9 55.6c-0.1 1.9-0.1 4.2-0.1 6.3 0 1.8 1.1 3 3 3.4 2.2 0.6 4 0.8 4.9 0.8 0.5 0 1 0.4 1 0.8 0 0.9-0.8 1.2-2.3 1.2-4.8 0-10.8-0.4-11.8-0.4-1.2 0-7.3 0.4-10.8 0.4q-0.8 0-1.3-0.2c-0.5 0.1-1.2 0.2-1.8 0.2-2.2 0-12.8 0-22.8-0.3-2.7-0.1-4.3-0.1-4.3-1 0-0.6 0.4-0.9 1-1 0.9-0.3 1.7-1.6 0.9-3.9l-13.5-35.7c-0.3-0.5-0.6-0.8-1.3-0.8h-31.1c-0.7 0-1.1 0.4-1.4 1.1l-8.7 25.7c-1.3 3.6-2 7-2 9.7 0 2.9 3 4.2 5.5 4.2h1.4c1 0 1.4 0.2 1.4 0.8 0 0.9-0.8 1.2-2.1 1.2-3.5 0-9.7-0.4-11.3-0.4-1.6 0-9.5 0.4-16.4 0.4-1.8 0-2.7-0.3-2.7-1.2 0-0.6 0.6-0.8 1.3-0.8 1 0 3-0.2 4.2-0.3 6.7-0.9 9.6-6.4 12.1-13.6 0 0 32.9-90 32.9-90zm15 58c0.8 0 0.8-0.5 0.6-1.1l-13.7-39.1q-1.1-3.2-2.2 0l-12.7 39.1c-0.3 0.8 0 1.1 0.4 1.1 0 0 27.6 0 27.6 0zm259.8-9.6c0-19.1 0-22.6-0.3-26.5-0.3-4.2-1-6.2-5.2-6.8-1-0.2-3.2-0.3-4.4-0.3-0.4 0-1-0.6-1-1 0-0.7 0.6-1 2-1 5.8 0 14.4 0.3 15.1 0.3 1.3 0 12-0.3 15.9-0.3 8.1 0 17.1 0.7 23.8 5.3 3.1 2.4 8.8 8.3 8.8 16.8 0 9.1-3.8 18-15.7 28.1 10.5 13 19.3 24.2 26.7 31.9 6.8 6.9 11 8.1 14.1 8.5 2.5 0.5 3.8 0.5 4.5 0.5q0.2 0 0.3 0 0.1 0 0.2 0c1.1 0 2.7-0.3 3.9-0.6 2.4-0.6 2.9-2.9 3.3-6.6 0.6-5 0.7-14.7 0.7-26.6v-21.7c0-19.1 0-22.6-0.3-26.5-0.3-4.2-1.3-6.1-4-6.7-1.5-0.3-3.1-0.4-3.9-0.4-0.6 0-1-0.6-1-1 0-0.7 0.5-1 2-1 4.2 0 12.1 0.3 12.9 0.3 0.5 0 8.8-0.3 12.7-0.3 1.5 0 2 0.3 2 1 0 0.4-0.5 1-1 1-0.9 0-1.7 0-3.1 0.3-3.6 0.7-4.3 2.4-4.6 6.8-0.1 3.9-0.1 7.4-0.1 26.5 0 0 0 21.7 0 21.7 0 11.9 0 21.6 0.6 26.6 0.4 3.7 0.8 6 4.6 6.6 1.9 0.3 4.6 0.6 5.8 0.6 0.7 0 1 0.5 1 1 0 0.6-0.6 1-2 1-7.1 0-15.4-0.4-15.9-0.4-0.8 0-8.7 0.4-12.6 0.4q-0.8 0-1.3-0.2-0.7 0.2-2 0.2h-8c-7.2 0-10.4-0.7-13.6-2.5-5.5-2.9-10.1-8.8-17.4-18.1-5.3-6.6-11-14.6-13.7-17.9-0.6-0.6-0.9-0.8-1.8-0.8l-16.2-0.3c-0.5 0-0.8 0.3-0.8 1.1v2.9c0 11.8 0 21.4 0.6 26.5 0.4 3.6 1.1 5.9 5 6.5 1.8 0.3 4.5 0.6 5.7 0.6 0.8 0 1 0.5 1 1 0 0.6-0.6 1-2 1-7 0-15.1-0.4-15.7-0.4-0.1 0-8.7 0.4-12.6 0.4-1.3 0-2-0.3-2-1 0-0.5 0.3-1 1-1 1.2 0 2.8-0.3 3.9-0.6 2.5-0.6 2.8-2.9 3.4-6.5 0.7-5.1 0.7-14.8 0.7-26.7 0 0 0-21.7 0-21.7zm11 10.4c0 0.7 0.3 1.2 0.8 1.6 1.9 1 8.4 1.9 14.1 1.9 3 0 6.5-0.2 9.5-2.2 4.4-2.9 7.7-9.4 7.7-18.8 0-15.4-8.4-24.2-22-24.2-3.8 0-7.8 0.4-9.1 0.7-0.6 0.3-1 0.8-1 1.5 0 0 0 39.5 0 39.5zm-84.6-10.4c0-19.1 0-22.6-0.3-26.5-0.3-4.2-1.1-6.2-5.2-6.8-1.1-0.2-3.2-0.3-4.4-0.3-0.4 0-1-0.6-1-1 0-0.7 0.6-1 2-1 5.8 0 14.1 0.3 14.8 0.3 0.9 0 27.5 0.1 30.4 0 2.4-0.2 4.7-0.6 5.8-0.8 0.5-0.1 1.1-0.5 1.7-0.5 0.4 0 0.6 0.5 0.6 1.1 0 0.9-0.7 2.3-1.1 5.8-0.1 1.2-0.4 6.7-0.7 8.1-0.1 0.6-0.5 1.3-1.1 1.3-0.7 0-1-0.6-1-1.6 0-0.8-0.2-2.9-0.8-4.3-0.8-2-2.1-2.9-9.1-3.8-2.2-0.3-16.9-0.4-18.4-0.4-0.5 0-0.7 0.4-0.7 1.3v33.4c0 0.9 0 1.4 0.7 1.4 1.6 0 18.4 0 21.3-0.3 3.1-0.3 4.9-0.5 6.2-1.8 0.9-0.9 1.5-1.6 1.9-1.6 0.5 0 0.7 0.3 0.7 1 0 0.8-0.7 2.8-1 6.8-0.3 2.5-0.5 7.1-0.5 8 0 1-0.3 2.3-1.2 2.3-0.6 0-0.9-0.4-0.9-1.1 0-1.2 0-2.5-0.5-4.1-0.5-1.7-1.6-3.2-6.6-3.8-3.4-0.4-17-0.5-19.2-0.5-0.7 0-0.9 0.4-0.9 0.8v10.3c0 4.2-0.1 18.6 0 21 0.3 8.3 2.6 9.9 15.2 9.9 3.4 0 9.4 0 12.8-1.3 3.3-1.5 5-3.7 5.7-8.6 0.3-1.4 0.6-1.9 1.3-1.9 0.8 0 0.9 1 0.9 1.9 0 0.9-1 9.3-1.7 11.9-0.9 3.2-2.2 3.2-7.1 3.2-9.6 0-16.9-0.3-22.1-0.5-5.4-0.2-8.7-0.2-10.6-0.2-0.3 0-2.8 0-5.5 0.1-2.5 0.1-5.4 0.3-7.4 0.3-1.3 0-2-0.3-2-1 0-0.5 0.3-1 1-1 1.2 0 2.7-0.5 3.9-0.6 2.5-0.5 2.7-2.9 3.3-6.5 0.8-5.1 0.8-14.8 0.8-26.7 0 0 0-21.7 0-21.7zm215.1 45.9c-12.4-10.7-15.5-24.8-15.5-36.5 0-8.2 3.1-22.6 14.3-33.6 7.7-7.4 19.3-13.1 38.8-13.1 5.1 0 12.3 0.4 18.5 1.4 4.8 0.9 8.9 1.7 13.1 1.9 1.3 0 1.6 0.5 1.6 1.3 0 1-0.3 2.4-0.6 6.9-0.2 4.1-0.2 10.9-0.3 12.6-0.2 1.9-0.7 2.6-1.4 2.6-0.9 0-1.1-0.8-1.1-2.6 0-4.8-2-9.7-5.3-12.3-4.5-3.8-13.8-6.8-25.1-6.8-16.3 0-24.1 4.4-28.6 8.6-9.4 8.6-11.4 19.6-11.4 32.1 0 23.6 18.6 44.6 45.8 44.6 9.6 0 16-0.7 21-5.8 2.8-2.7 4.5-8 4.9-10.3 0.3-1.3 0.5-1.7 1.3-1.7 0.6 0 1.2 0.8 1.2 1.7 0 0.9-1.7 11.6-3 15.8-0.8 2.3-1.1 2.8-3.2 3.6-5.2 2.1-14.8 2.8-23 2.8-19.1 0-32-4.5-42-13.2zm116.7-79.1c1.6-4 2.2-4.8 3.1-4.8 1.3 0 1.7 1.8 3 4.5 2.3 5.3 22.7 56.1 30.6 74.8 4.6 11 8.1 12.5 10.8 13.4 1.9 0.6 3.8 0.8 5.1 0.8q0 0 0 0 0.1 0 0.1 0c1 0 3.3-0.2 5.2-0.8 3.2-0.9 3.6-4.2 3.6-15.3v-70.5c0-5 0.7-6.3 1.7-6.3 1.5 0 3.6 2.5 4.9 3.8 2.1 2 20.6 21.7 40.2 42 12.6 13 26.2 27.6 30.2 31.7l-1.4-61.7c-0.1-7.9-0.8-10.7-4.7-11.4-2.3-0.5-5.2-0.6-6.3-0.6-0.8 0-1-0.7-1-1.2 0-0.7 1-0.8 2.5-0.8 5.8 0 11.9 0.2 13.3 0.2 1.4 0 5.6-0.2 10.9-0.2 1.3 0 2.3 0.1 2.3 0.8 0 0.5-0.6 1.2-1.5 1.2-0.6 0-1.6 0-3 0.3-4.2 0.9-4.5 3.3-4.5 10.7l-0.3 72.1c0 8.1-0.1 8.9-1 8.9-1.3 0-2.6-1.1-9.7-7.6-1.3-1.2-19.7-19.3-33.1-33.3-14.8-15.5-29.1-30.5-33-34.9 0 0 1.4 58.1 1.4 58.1 0.3 10.1 1.5 13.1 5 14 2.3 0.6 5.2 0.8 6.3 0.8 0.6 0 1 0.4 1 1 0 0.7-0.8 1-2.3 1-7.2 0-12.3-0.4-13.4-0.4-1.2 0-6.5 0.4-12.3 0.4q-0.7 0-1.1-0.1-0.6 0.1-1.3 0.1c-1.9 0-11.3 0-20.2-0.3-2.4-0.1-4.4-0.1-4.4-0.9 0-0.6 0.3-0.6 0.8-0.8 0.7-0.3 2-1.4 1.2-3.4l-11.5-28.2c-0.2-0.6-0.4-0.7-1.1-0.7h-29.4c-0.6 0-1 0.2-1.3 1l-7.2 19.7c-1.2 3-1.9 6-1.9 8.2 0 2.5 2.2 3.4 4.3 3.4h1.2c1 0 1.3 0.4 1.3 1 0 0.7-0.7 1-1.9 1-3 0-10-0.4-11.4-0.4-1.3 0-7.7 0.4-12.9 0.4-1.6 0-2.5-0.3-2.5-1 0-0.6 0.6-1 1.2-1 0.9 0 2.8-0.2 3.8-0.3 5.8-0.8 8.2-5.1 10.7-11.3 0 0 29.9-77.1 29.9-77.1zm14.2 51.3c0.6 0 0.6-0.3 0.4-0.9l-12.6-33.7q-1-2.8-2.1 0l-11.9 33.7q-0.2 0.9 0.5 0.9c0 0 25.7 0 25.7 0zm302.9 19.4h0.5c3.9-13.3 17.2-55.3 22.3-73.9 1.5-5.3 1.6-7.3 1.6-9.2 0-2.6-1.6-4.4-8.3-4.4-0.7 0-1.3-0.4-1.3-1 0-0.7 0.8-1 2.5-1 7.4 0 13.5 0.5 14.8 0.5 1 0 7.2-0.5 11.7-0.5 1.3 0 2 0.3 2 0.9 0 0.7-0.4 1.1-1.3 1.1-0.6 0-3.3 0.2-4.9 0.8-4.3 1.6-6.7 7.6-9.4 15.6-6.4 18.4-21 64.4-26.6 80.7-3.8 10.7-4.5 12.4-6.1 12.4-1.5 0-2.3-1.9-4.3-7.5l-28.4-80.5h-0.3c-5.2 13.9-25 66.9-30.2 80.3-2.3 6.1-3.1 7.7-4.8 7.7-1.5 0-2.2-1.6-5.1-11.4l-25.7-85.9c-2.3-7.7-4.2-9.8-8-11.3-1.9-0.7-5.5-0.9-6.5-0.9-0.7 0-1.3-0.1-1.3-1 0-0.7 0.9-1 2.3-1 7.5 0 15.5 0.5 17.1 0.5 1.3 0 7.7-0.5 14.9-0.5 2 0 2.6 0.5 2.6 1 0 0.9-0.7 1-1.5 1-1.1 0-3.9 0-5.6 0.9-0.9 0.4-1.9 1.6-1.9 3.5 0 1.9 1.3 6.9 2.8 13.3 2.1 9.3 17.2 62.4 19.3 70.1h0.3l30.7-82.5c2.2-6 2.8-6.7 3.6-6.7 1.1 0 1.9 1.9 3.7 6.8 0 0 28.8 82.1 28.8 82.1zm71.4-70.7c1.5-4 2.1-4.8 3-4.8 1.3 0 1.7 1.8 3 4.5 2.3 5.3 22.8 56.1 30.6 74.8 4.6 11 8 12.5 10.8 13.4 1.9 0.6 3.8 0.8 5.1 0.8 0.7 0 1.6 0.2 1.6 1 0 0.7-1.5 1-2.9 1-1.9 0-11.3 0-20.1-0.3-2.5-0.1-4.5-0.1-4.5-0.9 0-0.6 0.3-0.6 0.8-0.8 0.8-0.3 2.1-1.4 1.2-3.4l-11.4-28.2c-0.3-0.6-0.5-0.7-1.2-0.7h-29.4c-0.5 0-1 0.2-1.3 1l-7.2 19.7c-1.2 3-1.9 6-1.9 8.2 0 2.5 2.2 3.4 4.4 3.4h1.1c1 0 1.3 0.4 1.3 1 0 0.7-0.7 1-1.9 1-3 0-9.9-0.4-11.4-0.4-1.3 0-7.7 0.4-12.9 0.4-1.5 0-2.4-0.3-2.4-1 0-0.6 0.5-1 1.1-1 0.9 0 2.8-0.2 3.8-0.3 5.8-0.8 8.3-5.1 10.7-11.3 0 0 30-77.1 30-77.1zm14.1 51.3c0.6 0 0.6-0.3 0.5-0.9l-12.6-33.7q-1.1-2.8-2.2 0l-11.9 33.7c-0.1 0.6 0 0.9 0.5 0.9 0 0 25.7 0 25.7 0zm73.6 3.6c0 11.9 0 21.6 0.6 26.6 0.4 3.7 1 6 4.9 6.6 1.7 0.3 4.6 0.6 5.8 0.6 0.8 0 1 0.5 1 1 0 0.6-0.6 1-2.1 1-6.9 0-15-0.4-15.7-0.4-0.6 0-9.4 0.4-13.2 0.4-1.4 0-2-0.3-2-1 0-0.5 0.3-0.9 1-0.9 1.2 0 2.6-0.3 3.8-0.6 2.6-0.6 3.3-3 3.7-6.7 0.6-5 0.6-14.7 0.6-26.6v-51.7l-18.4 0.3c-7.9 0.2-11 1-12.9 3.9-1.4 2.2-1.6 3.1-2 3.9-0.3 1-0.7 1.2-1.3 1.2-0.3 0-0.9-0.3-0.9-1 0-1.3 2.6-12.3 2.8-13.3 0.3-0.8 0.8-2.4 1.3-2.4 0.9 0 2.2 1 5.6 1.5 3.7 0.4 8.6 0.6 10 0.6h48.1c4.2 0 7.1-0.3 9.1-0.6 1.9-0.3 3-0.6 3.6-0.6 0.6 0 0.6 0.7 0.6 1.5 0 3.7-0.4 12.6-0.4 14 0 1-0.6 1.6-1.2 1.6-0.6 0-0.9-0.4-1-2.2l-0.2-1.3c-0.4-3.7-3.2-6.5-15.3-6.8l-15.9-0.3zm53.2-21.7c0-19.1 0-22.6-0.3-26.5-0.3-4.2-1-6.2-5.2-6.8-1-0.1-3.2-0.3-4.4-0.3-0.4 0-1-0.6-1-1 0-0.7 0.6-1 2-1 5.8 0 14.1 0.3 14.8 0.3 0.9 0 27.5 0.1 30.4 0 2.5-0.2 4.8-0.6 5.8-0.8 0.6-0.1 1.2-0.5 1.7-0.5 0.5 0 0.6 0.5 0.6 1.1 0 0.9-0.7 2.3-1 5.8-0.1 1.2-0.4 6.7-0.7 8.1-0.2 0.6-0.6 1.3-1.2 1.3-0.7 0-1-0.5-1-1.6 0-0.8-0.2-2.9-0.7-4.3-0.9-2-2.2-2.9-9.1-3.8-2.2-0.3-17-0.4-18.4-0.4-0.6 0-0.7 0.4-0.7 1.3v33.4c0 0.9 0 1.4 0.7 1.4 1.6 0 18.4 0 21.3-0.3 3-0.3 4.9-0.5 6.2-1.8 0.8-0.8 1.4-1.6 1.9-1.6 0.4 0 0.7 0.3 0.7 1 0 0.8-0.7 2.8-1 6.8-0.3 2.5-0.6 7.1-0.6 8 0 1-0.3 2.3-1.2 2.3-0.6 0-0.8-0.4-0.8-1.1 0-1.2 0-2.5-0.6-4.1-0.4-1.7-1.6-3.2-6.5-3.7-3.5-0.5-17.1-0.6-19.3-0.6-0.7 0-0.8 0.4-0.8 0.8v10.3c0 4.2-0.2 18.6 0 21 0.2 8.3 2.6 9.9 15.1 9.9 3.4 0 9.4 0 12.8-1.3 3.3-1.5 5-3.7 5.8-8.6 0.3-1.4 0.6-1.9 1.3-1.9 0.7 0 0.9 1 0.9 1.9 0 0.9-1.1 9.3-1.8 11.9-0.9 3.2-2.2 3.2-7.1 3.2-9.5 0-16.9-0.3-22.1-0.5-5.4-0.2-8.7-0.2-10.6-0.2-0.3 0-2.7 0-5.5 0.1-2.4 0.1-5.3 0.3-7.4 0.3-1.3 0-2-0.3-2-1 0-0.5 0.3-1 1-1 1.2 0 2.8-0.5 3.9-0.6 2.5-0.5 2.8-2.9 3.4-6.5 0.7-5.1 0.7-14.8 0.7-26.7 0 0 0-21.7 0-21.7zm71.2 0c0-19.1 0-22.6-0.3-26.5-0.2-4.2-1-6.2-5.2-6.8-1-0.1-3.2-0.3-4.3-0.3-0.4 0-1-0.6-1-1 0-0.7 0.6-1 2-1 5.8 0 14.3 0.3 15 0.3 1.4 0 12.1-0.3 16-0.3 8.1 0 17 0.7 23.7 5.3 3.2 2.4 8.8 8.3 8.8 16.8 0 9.2-3.7 18-15.6 28.1 10.4 13.1 19.2 24.2 26.6 31.9 6.8 6.9 11 8.1 14.2 8.5 2.5 0.5 3.8 0.5 4.5 0.5 0.7 0 1.1 0.5 1.1 1 0 0.7-0.7 1-3 1h-7.9c-7.3 0-10.5-0.7-13.7-2.5-5.4-2.9-10.1-8.8-17.3-18.1-5.4-6.6-11-14.6-13.8-17.9-0.5-0.6-0.8-0.8-1.7-0.8l-16.2-0.2c-0.6 0-0.9 0.2-0.9 1v2.9c0 11.8 0 21.4 0.6 26.5 0.4 3.6 1.2 5.9 5.1 6.5 1.7 0.3 4.5 0.6 5.6 0.6 0.9 0 1 0.5 1 1 0 0.6-0.5 1-2 1-7 0-15.1-0.4-15.6-0.4-0.2 0-8.7 0.4-12.6 0.4-1.3 0-2-0.3-2-1 0-0.5 0.2-1 1-1 1.1 0 2.7-0.3 3.9-0.6 2.4-0.6 2.7-2.9 3.3-6.5 0.7-5.1 0.7-14.8 0.7-26.7 0 0 0-21.7 0-21.7zm11 10.4c0 0.8 0.3 1.2 0.9 1.6 1.9 1 8.4 1.9 14 1.9 3.1 0 6.5-0.2 9.6-2.2 4.3-2.9 7.7-9.4 7.7-18.8 0-15.3-8.5-24.2-22-24.2-3.8 0-7.8 0.4-9.2 0.7-0.5 0.3-1 0.8-1 1.5 0 0 0 39.5 0 39.5z"/>
	</g>
</svg>