<svg version="1.2" xmlns="http://www.w3.org/2000/svg" viewBox="0 0 1540 236" width="1540" height="236">
	<title>American_Airlines_logo_2013-svg</title>
	<defs>
		<linearGradient id="g1" x1="1453.6" y1="133.9" x2="1453.6" y2="287" gradientUnits="userSpaceOnUse">
			<stop offset="0" stop-color="#ed1c24"/>
			<stop offset=".1" stop-color="#e81b23"/>
			<stop offset=".3" stop-color="#db1a21"/>
			<stop offset=".4" stop-color="#c4171d"/>
			<stop offset=".6" stop-color="#a41317"/>
			<stop offset=".7" stop-color="#7b0e10"/>
			<stop offset=".8" stop-color="#780e0f"/>
		</linearGradient>
		<linearGradient id="g2" x1="1383.9" y1="146.7" x2="1439.7" y2="146.7" gradientUnits="userSpaceOnUse">
			<stop offset="0" stop-color="#69231d"/>
			<stop offset=".3" stop-color="#8d2922"/>
			<stop offset=".6" stop-color="#b22f26"/>
			<stop offset=".8" stop-color="#c93329"/>
			<stop offset="1" stop-color="#d1342a"/>
		</linearGradient>
		<linearGradient id="g3" x1="1377.8" y1="138.5" x2="1440" y2="101.1" gradientUnits="userSpaceOnUse">
			<stop offset=".1" stop-color="#e7ebee"/>
			<stop offset=".4" stop-color="#d5dce0"/>
			<stop offset=".9" stop-color="#a5b4bb"/>
			<stop offset="1" stop-color="#96a7b0"/>
		</linearGradient>
		<linearGradient id="g4" x1="1343.5" y1="107" x2="1343.5" y2="1.2" gradientUnits="userSpaceOnUse">
			<stop offset="0" stop-color="#1c2f72"/>
			<stop offset=".1" stop-color="#174687"/>
			<stop offset=".4" stop-color="#0d72af"/>
			<stop offset=".7" stop-color="#0692cc"/>
			<stop offset=".9" stop-color="#02a6de"/>
			<stop offset="1" stop-color="#00ade4"/>
		</linearGradient>
	</defs>
	<style>
		.s0 { fill: url(#g1) } 
		.s1 { fill: url(#g2) } 
		.s2 { fill: url(#g3) } 
		.s3 { fill: url(#g4) } 
		.s4 { fill: #36495a } 
	</style>
	<path id="Layer" class="s0" d="m1386.2 172.4c-4.1-10.1 15.8-34.3 53.6-35.9l81.7 99.4h-69.3c-5.7 0-27.3 0.4-40.8-21.8z"/>
	<path id="Layer" class="s1" d="m1386.2 172.5c-0.1-0.2-2.2-5.2-2.2-11.2 0-22.7 20.1-35.7 42.8-40.4l13 15.7c-37.8 1.5-57.7 25.7-53.6 35.9z"/>
	<path id="Layer" class="s2" d="m1461.8 120.6c-4.1-1.5-9.3-1.8-14.9-1.8-6.6 0-13.4 0.7-20.1 2-22.7 4.7-42.8 17.7-42.8 40.4 0 6.1 2.1 11.1 2.2 11.2l-22.9-37.6c-4.2-7.6-5.8-11.9-5.8-16.9 0-13.5 25.7-19.2 60.2-19.2 35.4 0 41.7 13.2 44.1 21.9z"/>
	<path id="Layer" class="s3" d="m1281.4 0.1h32.2c12 0.2 19.6 3.2 32.7 19.4l59.4 75.2h-43.1c-22.6 0-26.1-3.9-35.5-19.5z"/>
	<path id="Layer" fill-rule="evenodd" class="s4" d="m668.5 188.8v-56.7c0-10.8-4.9-17.4-14.2-17.4-12.2 0-20.3 13-20.3 30.6v43.5h-19.9c0 0 0-62.7 0-64.4 0-7.1-0.6-17.5-1-23.3h16c1.8 0 2.3 0.8 2.4 2.4 0 1.8 0.2 10.9 0.2 10.9h0.5c2.4-4.1 8.5-15.1 26.8-15.1 18.9 0 29.5 12.9 29.5 27.4v62.1c0 0-20 0-20 0zm-155.4-19.3c0.5 0 1.3 0.4 1.4 1.9 0.4 4.2 0.5 11 0.6 13.1-4 2.1-12.6 5.9-23.2 5.9-26.5 0-42.8-15.4-42.8-45.5 0-28.3 14.5-45.7 42.8-45.7 9.4 0 18.1 3.3 23.2 5.9 0 3.1-0.3 10.2-0.6 13.2-0.1 1.3-0.7 1.9-1.4 1.9-0.8 0-1.1-0.2-1.6-0.4-6.4-3.2-12.4-4.7-17.8-4.7-16.9 0-23.8 11.1-23.8 29.8 0 16.7 5.5 29.8 23.8 29.8 7 0 13.3-2.5 17.3-4.4 1-0.6 1.2-0.8 2.1-0.8zm68.7 19.3c-1.6 0-3-0.5-3.1-2.9-0.2-2.8-0.6-8.3-0.6-8.3-1.4 1.6-8.7 12.9-26.9 12.9-17.4 0-27.4-13.5-27.4-28.2 0-20.5 19.8-30.7 49.3-30.7h3.9v-3.3c0-9.2-6.5-14.1-18.7-14.1-10.9 0-20.1 3.9-23.6 5.7-0.2 0.1-0.9 0.5-1.5 0.5-0.9 0-1.5-0.6-1.5-1.6-0.2-3.3-0.6-9.6-0.6-13.7 3.6-1.4 15.5-5.8 28.6-5.8 26 0 37.2 12.1 37.2 31.4v34.2c0 12.5 1.1 20.7 1.5 23.9 0 0-15.2 0-16.6 0zm16.6 0q0 0 0 0 0 0 0 0zm-21.4-44.5c0 0-3 0-3.4 0-24.9 0-29.9 8.7-29.9 17.5 0 7.2 4.8 14.1 14.1 14.1 12.4 0 19.2-12 19.2-24.6zm-249.4 25.2c1.1 0 1.4 1 1.5 2 0.3 3.7 0.6 12.2 0.6 14.3-2.1 0.7-12.8 4.6-27.2 4.6-27.9 0-44.6-14.4-44.6-45.6 0-26.6 14.3-45.6 40-45.6 25.2 0 37.3 16.9 37.3 37.9 0 2.5-0.3 6.6-0.8 12.1h-56.1c0 15 9.5 25.8 27.1 25.8 9.7 0 17.5-3.5 20.5-5 0.6-0.3 1-0.5 1.7-0.5zm-49.1-33.6h36.8c0.8-14.1-6.6-22.1-17.8-22.1-11.7 0-18.4 8.5-19 22.1zm-55 52.9v-56.1c0-10.1-4.3-18-14.5-18-11.7 0-18.3 12.8-18.3 30.6v43.5h-19.9v-56.3c0-9.2-3.9-17.8-14.5-17.8-11.8 0-18.4 12.6-18.4 31.1v42.9h-19.9c0 0 0-55.4 0-63.9 0-8.2-0.7-19.9-1-23.8h15.9c1.9 0 2.4 0.6 2.5 2.4 0 2.4 0.2 10.9 0.2 10.9h0.4c1.3-2.5 7.8-15.1 26-15.1 17 0 23.5 12.2 25.1 15.9 1.6-3.3 9.2-15.9 26.3-15.9 17.8 0 30 9.5 30 28.8v60.7c0 0-19.9 0-19.9 0.1zm146.9-42.8v42.8h-19.9c0 0 0-59.1 0-65.2 0-6.3-0.8-18.2-1-22.6h16.1c1.7 0 2.2 0.7 2.2 2.4 0.1 2.6 0.2 10.9 0.2 10.9h0.5c1.6-3.8 7.2-15.1 23.7-15.1 5.5 0 9.7 1.7 10.3 2 0 3.8-0.4 12.1-0.6 14.3-0.1 1.5-0.7 1.9-1.4 1.9-0.7 0-1-0.1-1.4-0.3-1.3-0.5-4.1-1.4-8.1-1.4-10.7 0.1-20.6 7.7-20.6 30.3zm42.6-44.9h19.9v87.7h-19.9zm-0.2-32.1h20.3v19.2h-20.3zm-324.9 119.8l-9.1-25.9h-48.7l-9.2 25.9h-20.7l43.6-115.2h23.2l42.9 115.2zm-33.3-94.2h-0.3l-18.6 52.7h37.6zm1145.8 90.2c0-3 0.5-12.1 0.6-13 0-0.4 0-2.3 1.5-2.3 0.7 0 1.1 0.3 1.7 0.5 2.8 1.3 9.9 5.1 20.1 5.1 12.5 0 19.8-3.3 19.8-10.2 0-5.2-3.2-8.6-14.4-12.3-2.7-0.9-7.2-2.4-9.7-3.2-10.8-3.6-20.5-10.1-20.5-24.4 0-14.7 13.1-25.8 34.5-25.8 14 0 22.7 4.5 25.1 5.6 0 5.1-0.3 10.5-0.5 13.4-0.1 1.6-0.9 2-1.5 2-0.9 0-1.3-0.4-1.8-0.6-2.9-1.4-10.5-5.2-19.7-5.2-10.4 0-15.3 3.9-15.3 9.3 0 5.2 4.2 8.7 12.1 11.3 3.1 1.1 6.3 2.1 9.7 3.2 11.7 3.9 22.7 10.4 22.7 25.9 0 15.7-12.4 26.3-38.3 26.3-13.7 0-23.8-4.5-26.1-5.6zm-20.5-15.3c1.1 0 1.5 1 1.5 2 0.4 3.7 0.7 12.2 0.7 14.3-2.2 0.7-12.9 4.6-27.2 4.6-27.9 0-44.7-14.4-44.7-45.5 0-26.7 14.4-45.7 40-45.7 25.3 0 37.3 16.9 37.3 37.9 0 2.5-0.3 6.6-0.7 12.2h-56.2c0 14.9 9.6 25.7 27.1 25.7 9.7 0 17.4-3.5 20.5-5 0.7-0.2 1-0.5 1.7-0.5zm-49-33.6h36.7c0.8-14.1-6.6-22-17.8-22-11.7 0-18.4 8.4-18.9 22zm-55.1 52.9v-56.7c0-10.8-4.9-17.4-14.1-17.4-12.3 0-20.4 13-20.4 30.6v43.5h-19.9c0 0 0-62.7 0-64.4 0-7.1-0.6-17.5-1-23.3h16c1.8 0 2.3 0.7 2.3 2.4 0.1 1.8 0.2 10.9 0.2 10.9h0.5c2.4-4.1 8.5-15.1 26.8-15.1 18.9 0 29.5 12.9 29.5 27.4v62.1c0 0-19.9 0-19.9 0zm-181-42.8v42.8h-20c0 0 0-59.1 0-65.2 0-6.3-0.7-18.2-0.9-22.5h16c1.8 0 2.3 0.7 2.3 2.4 0.1 2.6 0.2 10.9 0.2 10.9h0.4c1.6-3.8 7.3-15.2 23.7-15.2 5.6 0 9.7 1.8 10.3 2.1 0 3.8-0.4 12-0.6 14.2-0.2 1.5-0.8 1.9-1.4 1.9-0.7 0-1-0.1-1.4-0.3-1.2-0.5-4.1-1.4-8.2-1.4-10.4 0.1-20.4 7.7-20.4 30.3zm43.5-76.9h19.9v119.7h-19.9zm-104.9 32h19.8v87.7h-19.8zm-0.3-32.1h20.4v19.2h-20.4zm146.8 32.1h19.9v87.7h-19.9zm-0.3-32.1h20.4v19.3h-20.4zm-176.4 119.7l-9.1-25.8h-48.7l-9.2 25.8h-20.7l43.6-115.1h23.1l42.9 115.1zm-33.3-94.1h-0.3l-18.6 52.6h37.6zm764.6 141.3c-2.9 0-5.2-2.3-5.2-5.2 0-2.9 2.3-5.3 5.2-5.3 2.9 0 5.3 2.4 5.3 5.3 0 2.9-2.4 5.2-5.3 5.2zm-4.2-5.2c0 2.3 1.9 4.2 4.2 4.2 2.4 0 4.3-1.9 4.3-4.2 0-2.4-1.9-4.3-4.3-4.3-2.3 0-4.2 1.9-4.2 4.3zm4.1 0.3h-0.5v2.2h-0.9v-5.3h1.5c1.2 0 1.9 0.6 1.9 1.5 0 1.1-0.9 1.4-1 1.4l1.3 2.4h-1.1zm-0.1-0.7c0.7 0 1.2-0.3 1.2-0.8 0-0.6-0.5-0.9-1.2-0.9-0.3 0-0.4 0-0.4 0v1.7c0 0 0.2 0 0.4 0z"/>
</svg>