<svg version="1.2" xmlns="http://www.w3.org/2000/svg" viewBox="0 0 1558 523" width="1558" height="523">
	<title>Ameriprise_Financial_logo-svg</title>
	<style>
		.s0 { fill: #0b3865 } 
	</style>
	<g id="layer1">
		<g id="g9081">
			<path id="path5014" fill-rule="evenodd" class="s0" d="m1377.4 360.8c-99.6 0-180.1-80.5-180.1-180.1 0-99.6 80.5-180.1 180.1-180.1 99.5 0 180 80.5 180 180.1 0 99.6-80.5 180.1-180 180.1zm77-148.3l77.1-32-77.1-31.9 31.9-77-77.4 32 0.4-0.2-31.9-76.9-32 76.9-77-31.8 32 77-77.1 31.9 77.1 32-32 77 77-31.9 32 77.1 31.9-77.1 77 31.9z"/>
			<path id="path5018" class="s0" d="m1404.5 246l-27.1-65.5-65.5-27.1 158.1-65.5z"/>
			<path id="path5030" fill-rule="evenodd" class="s0" d="m1510.9 353.9c0-10.6 9-19.3 20.1-19.3 11 0 20 8.7 20 19.3 0 10.9-9 19.6-20 19.6-11.1 0-20.1-8.7-20.1-19.6zm3.8 0c0 8.9 7.2 15.8 16.3 15.8 8.9 0 16.1-6.9 16.1-15.8 0-8.6-7.2-15.5-16.1-15.5-9.1 0-16.3 6.9-16.3 15.5zm26.3 11h-3.8l-6.5-10h-3.9v10h-3.3v-21.8h9.8c1.9 0 3.7 0.1 5.5 1.1 1.6 0.9 2.4 2.8 2.4 4.7 0 4.3-3.1 5.9-7 6zm-10.5-12.8c3.1 0 7.4 0.6 7.4-3.3 0-2.9-2.4-3.2-5.3-3.2h-5.8v6.5z"/>
			<path id="path5034" class="s0" d="m905 221.5c0 8.1-7.2 14.7-15.7 14.7-8.3 0-15.7-6.6-15.7-14.7 0-8.1 7.4-15 15.7-15 8.5 0 15.7 6.9 15.7 15zm14.2 139v4.5h-58.7v-4.5l16-3.8v-87.2l-16-4.1v-4.3l43-3v98.6z"/>
			<path id="path5038" fill-rule="evenodd" class="s0" d="m1099.2 355.8c17.5 0 29.7-9 33.1-11.2l3.9 6.4c-4.1 3.6-19.9 16.4-45.4 16.4-33 0-55.8-21.6-55.8-54.7 0-28.5 21.4-54.6 52.5-54.6 31.2 0 46.4 18.8 46.6 47.5h-69.9c-1.6 25.7 6.7 50.2 35 50.2zm-11.7-89.9c-12.6 0-21 13.4-22.6 31.4h42.6c-0.6-17-5.7-31.4-20-31.4z"/>
			<path id="path5042" fill-rule="evenodd" class="s0" d="m406.5 355.8c17.5 0 29.8-9 33.1-11.2l3.9 6.4c-4.1 3.6-19.9 16.4-45.4 16.4-33 0-55.8-21.6-55.8-54.7 0-28.5 21.5-54.6 52.5-54.6 31.2 0 46.5 18.8 46.6 47.5h-69.9c-1.6 25.7 6.7 50.2 35 50.2zm-11.7-89.9c-12.6 0-21 13.4-22.6 31.3l42.6 0.1c-0.6-17-5.7-31.4-20-31.4z"/>
			<path id="path5046" fill-rule="evenodd" class="s0" d="m0.6 360.7l9.6-3.8c0 0 47.5-122.8 49.1-126.9-2.1-7.1-12.3-8.1-21.2-9.3v-5.6h45.2l47.4 141.6 9.5 3.8v4.5h-58.9v-4.5l19.2-4.3-11.6-39.9h-51.8l-13.3 39.9 24.9 4.1v4.7h-48.1zm85.4-53.2l-21.4-66.3h-0.5l-24 66.3z"/>
			<path id="path5050" class="s0" d="m290 258.1c17.5 0 25.6 9.9 25.6 28.5v70.1l13.3 3.8v4.5h-53v-4.5l12.9-3.6v-66.2c0-9.7-1.4-18.1-11.6-18.1-7.9 0-17.6 7.4-21.9 10.7v73.4l13 3.8v4.5h-52.7v-4.5l12.8-3.6v-66.2c0-10.2-1.6-18.1-11.5-18.1-8.8 0-18.2 7.3-22.2 10.5v73.6l13.7 3.8v4.5h-56.8v-4.5l16-3.8v-88.2l-16-4v-4.3l42.2-2.2 0.4 15.9c5.7-4.7 18-15.8 35.6-15.8 15.5 0 22.3 7.8 24.6 16.6 6.4-5.9 18.9-16.6 35.6-16.6z"/>
			<path id="path5054" fill-rule="evenodd" class="s0" d="m691.4 414v5.7h-70.3v-4.6l16.2-4.5v-141.4l-16-4v-4.3l42.6-2.9 0.4 12.4c7-4.4 19.6-12.3 36.2-12.3 28.5 0 45.6 18.8 45.6 52.5 0 39.4-23.3 56.8-47.5 56.8-17.8 0-29.7-7.4-34-10.3v52.6zm-3.1-59.2c14.5 0 28-14.3 28-43.7 0-28.2-11.9-39.5-26.9-39.5-12.1 0-20.7 5.9-24.9 8.4v67.9c5.3 2.7 13.4 6.9 23.8 6.9z"/>
			<path id="path5058" class="s0" d="m832.2 258.1c9.1 0 15.2 4.8 17.8 6.5l-7.5 20.3c-3.1-1.8-7.8-4.7-15.6-4.7-10 0-16.1 6.9-22.2 12.8v63l23 3.8v5.2h-66v-4.5l15.9-3.8v-87.5l-15.9-4v-4.3l41.1-2.8 0.4 25h0.6c4.9-8.8 12.1-25 28.4-25z"/>
			<path id="path5062" class="s0" d="m597.9 221.5c0 8.1-7.1 14.7-15.6 14.7-8.4 0-15.7-6.6-15.7-14.7 0-8.1 7.3-15 15.7-15 8.5 0 15.6 6.9 15.6 15zm14.3 139v4.5h-58.7v-4.5l15.9-3.8v-87.2l-15.9-4.1v-4.3l43-3v98.6z"/>
			<path id="path5066" class="s0" d="m525.2 258.1c9.1 0 15.2 4.8 17.7 6.5l-7.4 20.3c-3.1-1.8-7.8-4.7-15.6-4.7-10 0-16.1 6.9-22.2 12.8v63l23 3.8v5.2h-66.1v-4.5l16-3.8v-87.5l-16-4v-4.3l41.2-2.8 0.4 25h0.6c4.9-8.8 12.1-25 28.4-25z"/>
			<path id="path5070" class="s0" d="m1008.3 263.1l-2.5 26.3h-7l-3-18.4c-2-1.1-9.8-5.1-19.2-5.1-10.6 0-18.7 5.7-18.7 13.8-0.1 10.6 12.3 14.7 24.9 20.2 12.2 4.9 32.3 12.7 32.3 33.6-0.1 21.1-19.7 33.8-43.8 33.8-18.1 0-29.5-3.4-32.7-4.5l-2.4-29.9h7.9l6.3 22.3c1.1 0.5 9.3 4.3 19.1 4.3 14.2 0 24.6-6.8 24.6-17 0-11.3-17.2-17.3-29-22.4-11-4.7-28-11.9-28-33.2 0-17.2 15.9-28.9 39-28.9 16.6 0 29.9 4.4 32.2 5.1z"/>
			<path id="path5074" class="s0" d="m842.7 419.9l-3 21.2h-5.8l-0.9-15.7h-28.4l-5.8 40.9h18.6l4.7-13.9h4.8l-4.7 33.3h-4.8l-1.1-13.9h-18.2l-6.1 43.7 15.9 2.5-0.4 3.1h-44.2l0.4-3.1 10.8-2.4 12.7-90.1-10.1-2.6 0.5-3z"/>
			<path id="path5086" class="s0" d="m1154.3 459c-10.8 0-19.6 12.6-19.6 36 0 12.3 5.5 20.2 15.1 20.2 8.6 0 15.1-6.7 18.3-9.6l2.7 3.2c-3.5 4.1-11.2 13.8-27.3 13.8-14.8 0-25.2-10-25.2-29 0-20.7 13.8-39.2 36.3-39.2 9.8 0 17.2 1.5 19 1.9l-3.5 17.9h-5.3l-0.4-12c-0.6-0.4-4.3-3.2-10.1-3.2z"/>
			<path id="path5090" class="s0" d="m873.5 428.3c-0.7 4.3-4 8.2-9.2 8.2-4.7 0-7.4-4-6.7-8.2 0.8-4.7 4.9-8.4 9.2-8.4 4.5 0 7.2 4 6.7 8.4zm-19.3 32.3l-10.6-2.8 0.3-2.1 26.2-1.3-8.7 61.7 10.1 2.6-0.3 2.4h-25.3z"/>
			<path id="path5094" class="s0" d="m1213.3 428.3c-0.7 4.3-4 8.2-9.2 8.2-4.7 0-7.3-4-6.7-8.2 0.9-4.7 4.8-8.4 9.2-8.4 4.5 0 7.2 4 6.7 8.4zm-19.3 32.3l-10.6-2.8 0.3-2.1 26.2-1.3-8.7 61.7 10.2 2.6-0.3 2.4h-25.4z"/>
			<path id="path5098" class="s0" d="m1332.3 414.1l-14.4 102.2 10.4 2.5-0.3 2.5h-25.6l13.9-100.4-9.7-2.7 0.3-2.2z"/>
			<path id="path5110" class="s0" d="m932.1 476.8c1.4-9.1 1.3-12.4-2.2-12.4-10.4 0-20.5 23.7-24.2 32.1l-3.5 24.6h-14.9l8.5-60.5-10.8-2.8 0.3-2.1 26.3-1.4-3.8 26.9c6.9-12.7 15.3-26.9 29.6-26.9 14.2 0 10.7 13.7 10 19.4l-5.9 42.4 10.2 2.6-0.3 2.4h-25.5z"/>
			<path id="path5114" class="s0" d="m1087.2 476.8c1.4-9.1 1.3-12.4-2.1-12.4-10.4 0-20.5 23.7-24.3 32.1l-3.5 24.6h-14.9l8.5-60.5-10.8-2.8 0.4-2.1 26.2-1.4-3.7 26.9c6.8-12.7 15.3-26.9 29.5-26.9 14.3 0 10.8 13.7 10 19.4l-5.9 42.4 10.3 2.6-0.4 2.4h-25.4z"/>
			<path id="path5118" fill-rule="evenodd" class="s0" d="m1025.7 456.9l-8.4 59.2 10.9 2.6-0.1 2.4h-26.3l3-21.7c-4.1 8.5-12.1 23.2-25.9 23.2-12.5 0-15.7-9.8-15.7-21.2 0-23 16.9-47 42.1-47 9.5 0 17.6 1.9 20.4 2.5zm-24.6 2.1c-11.8 0-21.5 22.9-21.5 41.9 0 7.5 3 10.5 7.1 10.5 9.8 0 18.2-23.3 20.6-29.5l2.5-20.5c-0.7-0.3-4-2.4-8.7-2.4z"/>
			<path id="path5122" fill-rule="evenodd" class="s0" d="m1285.4 456.9l-8.4 59.2 10.9 2.6-0.1 2.4h-26.3l3.1-21.7c-4.2 8.5-12.2 23.2-26 23.2-12.5 0-15.7-9.8-15.7-21.2 0-23 17-47 42.1-47 9.5 0 17.6 1.9 20.4 2.5zm-24.6 2.1c-11.8 0-21.5 22.9-21.5 41.9 0 7.5 3 10.5 7.1 10.5 9.8 0 18.2-23.3 20.6-29.5l2.5-20.5c-0.7-0.3-4-2.4-8.7-2.4z"/>
		</g>
	</g>
</svg>