<svg version="1.2" xmlns="http://www.w3.org/2000/svg" viewBox="0 0 1587 606" width="1587" height="606">
	<title>ameran-svg</title>
	<style>
		.s0 { fill: #d2332f } 
		.s1 { fill: #218737 } 
		.s2 { fill: #08060d } 
	</style>
	<g id="Layer">
		<path id="Layer" class="s0" d="m341.1 258.6l172.2-64.9q1.2 5 2.1 10.2 0.9 5.1 1.6 10.2 0.7 5.1 1.2 10.3 0.5 5.2 0.8 10.4l-176.9 26.6q0.1-0.4 0-0.8 0-0.4-0.1-0.7-0.2-0.4-0.4-0.7-0.2-0.4-0.4-0.7z"/>
		<path id="Layer" class="s1" d="m204.6 281.2h-203q-0.6-5.7-1-11.4-0.4-5.8-0.5-11.5-0.1-5.7 0-11.5 0.2-5.7 0.6-11.4l203.9 42.3zm2.7-23.5l-203.7-48.7q1.5-7.3 3.4-14.6 1.9-7.3 4.2-14.5 2.2-7.2 4.9-14.2 2.6-7 5.6-13.9l187.6 102.2q-0.4 0.4-0.7 0.8-0.4 0.4-0.6 0.9-0.3 0.5-0.4 1.1-0.1 0.5-0.1 1.1zm112.8-32.5l113.8-161.9q5.3 4.5 10.3 9.3 5 4.9 9.7 10 4.6 5.2 9 10.6 4.3 5.5 8.3 11.2l-148.2 123.7zm-98.4 7.6l-182.8-114.5q5.4-8.3 11.5-16.2 6-7.9 12.6-15.3 6.6-7.5 13.7-14.4 7.2-6.9 14.8-13.2l132 170.8c-1 1-1.9 1.9-1.9 2.9zm65-22.8l5.7-210q9.3 1.3 18.6 3.1 9.3 1.9 18.4 4.4 9.1 2.5 18 5.7 8.9 3.1 17.6 6.9l-74.6 190.8c-0.9-0.9-1.9-0.9-3.7-0.9zm-37.4 3.8l-116.6-182.2q10.6-6.2 21.9-11.3 11.2-5.1 22.9-9.1 11.7-4 23.7-6.8 12-2.8 24.2-4.4l27.7 211.9q-0.5 0.1-1 0.2-0.5 0.2-1 0.4-0.5 0.3-0.9 0.6-0.5 0.3-0.9 0.7zm-230.5 132.5c0 0-3.8-9.5-7.6-20.9-3.9-11.4-5.8-22.9-5.8-22.9 66-8.6 169.3-9.6 240.1-9.6 0 0-136.5 13.4-226.7 53.4zm146.4 143.2q-4.8-1.5-9.4-3.3-4.7-1.8-9.2-3.8-4.6-2.1-9-4.3-4.5-2.3-8.8-4.8-4.5-2.7-8.9-5.6-4.4-3-8.7-6.1-4.2-3.1-8.4-6.3-4.1-3.3-8.1-6.8c40.2-50.6 169.3-148.9 290.7-155.5 0 0-125.3 43.9-220 196.6zm162.6 8.6q-8.3 2.1-16.8 3.7-8.5 1.7-17 2.7-8.6 1.1-17.2 1.6-8.6 0.5-17.2 0.5-6.7 0-13.5-0.3-6.7-0.4-13.4-1.1-6.7-0.7-13.4-1.8-6.7-1.1-13.3-2.5c7.7-25.6 94.7-176.6 199-208 0 0-80.3 85.2-77.4 205.2zm-261.1-75.4q-2.9-3-5.6-6.1-2.8-3.2-5.4-6.4-2.6-3.2-5.2-6.4-2.5-3.3-4.9-6.7-2.5-3.5-4.8-7.1-2.3-3.6-4.4-7.3-2.1-3.7-4.1-7.5-2-3.8-3.8-7.7c32.5-20.9 148.2-74.4 311.8-74.4-24.8 5.5-49.4 12.5-73.4 20.7-24.1 8.3-47.7 17.9-70.7 28.8-23 10.9-45.3 23.1-67 36.4-21.6 13.4-42.5 28-62.5 43.7z"/>
		<path id="Layer" fill-rule="evenodd" class="s2" d="m355.5 600.2l144.9-307.2h82.3l-15.8 307.2h-65.1l5.7-62h-60.2l-25.6 62zm169.3-241.4l-58.3 135.4h45.2l13.4-135.5zm57.3 241.4l59.7-234.7h64.1l-4.8 17q6.1-4.9 12.9-8.8 6.7-3.9 14-6.7 7.4-2.8 15-4.4 7.7-1.6 15.5-2.1c28.6 0 34.1 19.1 36.3 24.8 6.7-3.8 36.3-24.8 62.2-24.8 44 0 35.3 34.1 32.4 45.9l-49.1 193.8h-64.3l45.8-185.1c1.9-4.8 0-11.4-12.4-11.4q-2.8 0.3-5.5 1-2.6 0.7-5.2 1.8-2.5 1.1-4.9 2.5-2.4 1.4-4.5 3.2l-46.9 188h-63.7l46.9-185.2c0-1.9 2.9-11.4-13.3-11.4q-2.5 0.3-4.9 0.9-2.5 0.6-4.8 1.6-2.3 1-4.4 2.3-2.2 1.3-4.1 2.8l-47.8 189zm363.4 4.8c-60.3 0-77.4-22.9-66-69.7l26.8-105.9c8.5-36.3 42-68.7 99.4-68.7 71.7 0 69.8 49.6 66.9 61.1l-18.1 71.6h-103.3l-12.5 50.6c-2.9 11.4 0 21 13.4 21 3.2 0 6.3-0.4 9.3-1.4 3-0.9 5.8-2.4 8.3-4.3 2.5-1.9 4.6-4.2 6.3-6.8 1.8-2.6 3.1-5.5 3.8-8.5l5.8-22.9h61.2l-5.7 22.9c-7.7 23.9-33.5 61.1-95.7 61.1zm24.9-186.1l-9.6 35.3h41.1l8.6-35.3c1.8-4.8 4.7-17-14.4-17-2.7-0.3-5.5-0.1-8.2 0.5-2.7 0.7-5.3 1.8-7.6 3.4-2.3 1.5-4.4 3.5-6 5.7-1.7 2.2-2.9 4.7-3.7 7.4zm80.3 181.3l59.7-234.7h60.3l-5.8 22.9c25.6-18.2 44-27.7 80.4-27.7l-10.5 44.8q-3.1-0.4-6.2-0.7-3.1-0.3-6.2-0.5-3.2-0.3-6.3-0.4-3.1-0.2-6.2-0.3c-47.9 0-55.4 29.6-59.7 44.9l-38.4 151.7zm219 4.8c-60.3 0-77.4-22.9-66-69.7l26.8-105.9c8.5-36.3 42-68.7 98.5-68.7 72.6 0 70.7 49.6 68.2 61.1l-18.2 71.6h-103.6l-12.4 50.6c-2.9 11.4 0 21 13.3 21 3.2 0 6.3-0.4 9.3-1.4 3-0.9 5.8-2.4 8.3-4.3 2.5-1.9 4.6-4.2 6.4-6.8 1.7-2.6 3-5.5 3.8-8.5l5.7-22.9h61.2l-6.7 22.8c-7.7 23.9-32.5 61.1-94.6 61.1zm23.9-186.1l-8.6 35.3h41.1l8.6-35.3c1.8-4.8 4.7-17-14.4-17-2.8-0.3-5.7-0.1-8.4 0.6-2.8 0.7-5.4 1.8-7.8 3.4-2.4 1.5-4.6 3.4-6.4 5.6-1.7 2.2-3.1 4.7-4.1 7.4zm82.3 181.3l59.6-234.7h63.1l-5.2 18c7.7-5.8 27.8-23 55.5-23 46.9 0 38.2 39.1 32.5 62.1l-44.9 177.6h-64l42-165.6c4.8-20 6.7-29.6-6.7-29.6q-2.8 0.4-5.6 1-2.7 0.7-5.4 1.7-2.7 0.9-5.2 2.2-2.5 1.2-4.9 2.8l-46.9 188z"/>
	</g>
</svg>