<svg version="1.2" baseProfile="tiny-ps" xmlns="http://www.w3.org/2000/svg" viewBox="0 0 1515 360" width="1515" height="360">
	<title>amgen-blue-svg</title>
	<style>
		tspan { white-space:pre }
		.shp0 { fill: #0063c3 } 
	</style>
	<g id="Layer">
		<g id="Layer">
			<path id="Layer" class="shp0" d="M886.43 121.13C869.02 96.77 845.34 82.15 812.62 82.15C759 82.15 715.13 126 715.13 180.3C715.13 234.6 759 278.46 812.62 278.46C851.61 278.46 885.04 255.49 900.36 222.07L800.08 222.07L800.08 141.32L983.91 141.32L983.91 16.01L1147.55 16.01L1147.55 96.77L1061.9 96.77L1061.9 141.32L1147.55 141.32L1147.55 222.07L1061.9 222.07L1061.9 263.84L1147.55 263.84L1147.55 342.51C1150.34 342.51 983.91 342.51 983.91 342.51L983.91 224.16C964.42 313.27 892.7 359.22 812.62 359.22C733.24 359.22 666.39 311.88 647.59 229.03L647.59 343.9L567.51 343.9L567.51 153.15C567.51 153.15 520.86 194.23 520.86 343.9L437.99 343.9C437.99 194.23 391.34 153.15 391.34 153.15L391.34 343.9L310.56 343.9L310.56 12.53C403.18 12.53 464.45 116.95 479.08 178.22C493.7 116.95 554.98 12.53 647.59 12.53L647.59 122.52C663.6 49.43 736.72 0 813.31 0C891.3 0 960.24 59.17 974.86 121.13L886.43 121.13Z" />
			<path id="Layer" class="shp0" d="M1325.12 343.9C1313.28 254.1 1254.09 190.05 1254.09 190.05L1254.09 343.9L1168.44 343.9L1168.44 17.4C1187.24 17.4 1255.48 54.3 1325.12 154.55L1325.12 17.4L1408.68 17.4L1408.68 343.2L1325.12 343.2L1325.12 343.9Z" />
			<path id="Layer" fill-rule="evenodd" class="shp0" d="M105.84 261.75C103.75 270.8 89.13 320.93 83.56 343.9L0 343.9C11.14 302.83 32.73 232.52 55.71 185.18C77.99 138.53 105.84 87.02 152.5 52.21C174.08 36.2 215.17 4.87 291.76 11.83L291.76 343.9L210.99 343.9L210.99 261.75L105.84 261.75ZM210.99 185.87L210.99 108.6C185.22 126.7 157.37 160.12 140.66 185.87L210.99 185.87Z" />
		</g>
		<path id="Layer" fill-rule="evenodd" class="shp0" d="M1444.19 37.59C1444.19 18.1 1460.2 2.78 1479.7 2.78C1499.2 2.78 1514.52 18.8 1514.52 37.59C1514.52 57.08 1498.5 73.1 1479.7 73.1C1460.2 72.4 1444.19 57.08 1444.19 37.59ZM1508.25 37.59C1508.25 21.58 1495.72 9.05 1479.7 9.05C1463.69 9.05 1451.15 21.58 1451.15 37.59C1451.15 53.6 1463.69 66.13 1479.7 66.13C1495.72 66.13 1508.25 52.91 1508.25 37.59ZM1497.11 56.39L1488.75 56.39L1480.4 40.38L1472.74 40.38L1472.74 56.39L1465.08 56.39L1465.08 18.8L1483.18 18.8C1486.67 18.8 1490.84 18.8 1493.63 20.88C1497.11 22.97 1497.81 26.45 1497.81 30.63C1497.81 37.59 1494.32 40.38 1487.36 41.07L1497.11 56.39ZM1483.88 34.81C1488.06 34.81 1490.84 34.11 1490.84 29.24C1490.84 24.37 1485.27 24.37 1481.79 24.37L1472.74 24.37L1472.74 34.81L1483.88 34.81Z" />
	</g>
</svg>