<svg version="1.2" baseProfile="tiny-ps" xmlns="http://www.w3.org/2000/svg" viewBox="0 0 1632 657" width="1632" height="657">
	<title>Analog_Devices_Logo-svg</title>
	<style>
		tspan { white-space:pre }
		.shp0 { fill: #231f20 } 
	</style>
	<g id="g10">
		<g id="g12">
			<path id="path14" fill-rule="evenodd" class="shp0" d="M57.69 655.54L51.38 634.54L21.13 634.54L14.41 655.54L0 655.54L29.65 568.05L44.36 568.05L72.27 655.54C72.27 655.54 57.69 655.54 57.69 655.54ZM37.04 585.93L24.97 623.14L48.08 623.14L37.04 585.93Z" />
			<path id="path16" class="shp0" d="M130.61 655.54L130.61 617.56L94.96 617.56L94.96 655.54L81.46 655.54L81.46 568.05L94.96 568.05L94.96 606.16L130.61 606.16L130.61 568.05L144.12 568.05L144.12 655.54L130.61 655.54Z" />
			<path id="path18" class="shp0" d="M161.23 655.54L161.23 568.05L214.35 568.05L214.35 579.45L174.73 579.45L174.73 606.16L203.9 606.16L203.9 617.56L174.73 617.56L174.73 644.14L214.35 644.14L214.35 655.54L161.23 655.54" />
			<path id="path20" fill-rule="evenodd" class="shp0" d="M276.89 655.54L270.59 634.54L240.34 634.54L233.62 655.54L219.21 655.54L248.86 568.05L263.57 568.05L291.48 655.54L276.89 655.54ZM256.25 585.93L244.18 623.14L267.29 623.14L256.25 585.93Z" />
			<path id="path22" fill-rule="evenodd" class="shp0" d="M300.66 655.54L300.66 568.05L335.48 568.05C337.91 568.05 340.15 568.22 342.16 568.56C344.19 568.9 346.03 569.39 347.69 570.03C349.35 570.67 350.86 571.43 352.22 572.31C353.58 573.2 354.84 574.2 356 575.31C357.44 576.72 358.65 578.45 359.63 580.5C360.61 582.56 361.39 585.07 361.98 588.01C362.55 590.95 362.97 594.37 363.23 598.3C363.49 602.22 363.63 606.72 363.63 611.8C363.63 616.88 363.49 621.38 363.23 625.3C362.97 629.22 362.55 632.65 361.98 635.59C361.39 638.53 360.61 641.04 359.63 643.12C358.65 645.2 357.44 646.92 356 648.28C354.84 649.4 353.58 650.41 352.22 651.31C350.86 652.21 349.35 652.97 347.69 653.59C346.03 654.21 344.19 654.7 342.16 655.03C340.15 655.38 337.91 655.54 335.48 655.54L300.66 655.54ZM335.71 644.14C338.43 644.14 340.64 643.77 342.31 643.03C344 642.29 345.36 641.18 346.4 639.7C347 638.9 347.5 637.94 347.9 636.82C348.3 635.7 348.64 634.12 348.92 632.08C349.2 630.04 349.4 627.4 349.52 624.16C349.64 620.92 349.7 616.8 349.7 611.8C349.7 606.8 349.64 602.68 349.52 599.44C349.4 596.2 349.2 593.55 348.92 591.52C348.64 589.48 348.3 587.89 347.9 586.78C347.5 585.66 347 584.7 346.4 583.89C345.36 582.42 344 581.31 342.31 580.56C340.64 579.82 338.43 579.45 335.71 579.45L314.16 579.45L314.16 644.14L335.71 644.14Z" />
			<path id="path24" fill-rule="evenodd" class="shp0" d="M468.55 648.28C467.35 649.52 465.98 650.63 464.43 651.61C462.89 652.6 461.09 653.43 459.03 654.13C456.97 654.83 454.59 655.36 451.89 655.72C449.19 656.08 446.1 656.26 442.61 656.26C439.09 656.26 435.99 656.08 433.31 655.72C430.63 655.36 428.26 654.83 426.2 654.13C424.13 653.43 422.34 652.6 420.8 651.61C419.25 650.63 417.88 649.52 416.68 648.28C415.29 646.88 414.11 645.14 413.17 643.06C412.23 640.98 411.46 638.47 410.86 635.53C410.26 632.59 409.83 629.17 409.57 625.27C409.31 621.37 409.18 616.88 409.18 611.8C409.18 606.72 409.31 602.23 409.57 598.33C409.83 594.43 410.26 591.01 410.86 588.07C411.46 585.12 412.23 582.61 413.17 580.53C414.11 578.45 415.29 576.72 416.68 575.31C417.88 574.08 419.25 572.97 420.8 571.98C422.34 571 424.13 570.17 426.2 569.49C428.26 568.81 430.63 568.28 433.31 567.9C435.99 567.52 439.09 567.33 442.61 567.33C446.1 567.33 449.19 567.52 451.89 567.9C454.59 568.28 456.97 568.81 459.03 569.49C461.09 570.17 462.89 571 464.43 571.98C465.98 572.97 467.35 574.08 468.55 575.31C469.9 576.72 471.06 578.45 472.03 580.53C472.99 582.61 473.77 585.12 474.37 588.07C474.96 591.01 475.4 594.43 475.66 598.33C475.92 602.23 476.04 606.72 476.04 611.8C476.04 616.88 475.92 621.37 475.66 625.27C475.4 629.17 474.96 632.59 474.37 635.53C473.77 638.47 472.99 640.98 472.03 643.06C471.06 645.14 469.9 646.88 468.55 648.28ZM460.17 636.31C460.63 635.17 461 633.59 461.28 631.57C461.56 629.55 461.77 626.96 461.91 623.8C462.05 620.64 462.12 616.64 462.12 611.8C462.12 606.96 462.05 602.95 461.91 599.77C461.77 596.59 461.56 594 461.28 591.99C461 589.99 460.63 588.43 460.17 587.29C459.71 586.15 459.18 585.18 458.58 584.38C457.18 582.54 455.24 581.13 452.76 580.18C450.28 579.22 446.9 578.73 442.61 578.73C438.29 578.73 434.9 579.22 432.44 580.18C429.98 581.13 428.05 582.54 426.65 584.38C426.05 585.18 425.51 586.15 425.06 587.29C424.6 588.43 424.22 589.99 423.92 591.99C423.62 594 423.39 596.59 423.26 599.77C423.12 602.95 423.05 606.96 423.05 611.8C423.05 616.64 423.12 620.64 423.26 623.8C423.39 626.96 423.62 629.55 423.92 631.57C424.22 633.59 424.6 635.17 425.06 636.31C425.51 637.45 426.05 638.42 426.65 639.22C428.05 641.06 429.98 642.46 432.44 643.42C434.9 644.38 438.29 644.86 442.61 644.86C446.9 644.86 450.28 644.38 452.76 643.42C455.24 642.46 457.18 641.06 458.58 639.22C459.18 638.42 459.71 637.45 460.17 636.31Z" />
			<path id="path26" class="shp0" d="M492.01 655.54L492.01 568.05L545.14 568.05L545.14 579.45L505.52 579.45L505.52 606.16L534.69 606.16L534.69 617.56L505.52 617.56L505.52 655.54L492.01 655.54Z" />
			<path id="path28" class="shp0" d="M648.14 655.54L633.25 603.94L617.65 655.54L603 655.54L580.38 568.05L594.65 568.05L610.5 637L627.01 584.25L640.15 584.25L655.4 636.22L672.09 568.05L686.37 568.05L662.48 655.54L648.14 655.54" />
			<path id="path30" class="shp0" d="M745.43 655.54L745.43 617.56L709.78 617.56L709.78 655.54L696.28 655.54L696.28 568.05L709.78 568.05L709.78 606.16L745.43 606.16L745.43 568.05L758.94 568.05L758.94 655.54L745.43 655.54Z" />
			<path id="path32" fill-rule="evenodd" class="shp0" d="M825.86 655.54L819.56 634.54L789.31 634.54L782.59 655.54L768.18 655.54L797.83 568.05L812.53 568.05L840.45 655.54L825.86 655.54ZM805.21 585.93L793.15 623.14L816.26 623.14L805.21 585.93Z" />
			<path id="path34" class="shp0" d="M857.62 655.54L857.62 579.45L835.35 579.45L835.35 568.05L893.39 568.05L893.39 579.45L871.12 579.45L871.12 655.54L857.62 655.54Z" />
			<path id="path36" class="shp0" d="M901.2 591.03C902.52 590.95 903.59 590.77 904.41 590.5C905.23 590.22 905.87 589.79 906.33 589.21C906.79 588.62 907.1 587.85 907.26 586.89C907.42 585.93 907.5 584.74 907.5 583.29L907.5 580.72L901.86 580.72L901.86 568.05L913.86 568.05L913.86 581.91C913.86 584.39 913.67 586.47 913.29 588.12C912.91 589.79 912.29 591.16 911.43 592.24C910.57 593.32 909.45 594.18 908.07 594.82C906.69 595.45 904.98 595.96 902.94 596.32L901.2 591.03" />
			<path id="path38" class="shp0" d="M970.46 589.53C970.38 588.38 970.17 587.16 969.83 585.88C969.5 584.6 968.78 583.42 967.7 582.37C966.62 581.31 965.04 580.43 962.96 579.76C960.88 579.08 958.02 578.73 954.38 578.73C948.7 578.73 944.35 579.72 941.32 581.68C938.3 583.64 936.79 586.76 936.79 591.03C936.79 593.23 937.32 594.99 938.38 596.29C939.44 597.59 940.88 598.61 942.67 599.35C944.48 600.09 946.55 600.64 948.92 601C951.27 601.36 953.76 601.68 956.36 601.96C958.39 602.2 960.54 602.5 962.79 602.86C965.02 603.22 967.21 603.74 969.35 604.42C971.49 605.1 973.53 606 975.48 607.12C977.41 608.24 979.11 609.7 980.58 611.5C982.03 613.3 983.19 615.5 984.06 618.1C984.92 620.7 985.35 623.8 985.35 627.4C985.35 632.12 984.62 636.28 983.16 639.88C981.7 643.48 979.61 646.49 976.89 648.91C974.16 651.33 970.85 653.16 966.96 654.4C963.05 655.64 958.66 656.26 953.78 656.26C948.82 656.26 944.62 655.66 941.17 654.43C937.73 653.21 934.88 651.67 932.62 649.81C930.36 647.95 928.59 645.91 927.3 643.69C926.02 641.47 925.08 639.33 924.48 637.27C923.89 635.21 923.52 633.39 923.38 631.81C923.24 630.23 923.17 629.16 923.17 628.6L936.55 628.6C936.55 630.52 936.83 632.44 937.4 634.36C937.95 636.28 938.89 638.02 940.21 639.58C941.53 641.14 943.29 642.41 945.5 643.39C947.69 644.37 950.45 644.86 953.78 644.86C956.5 644.86 958.95 644.52 961.13 643.84C963.31 643.16 965.17 642.14 966.71 640.78C968.26 639.42 969.44 637.72 970.26 635.68C971.07 633.64 971.48 631.28 971.48 628.6C971.48 625.8 971.01 623.58 970.04 621.94C969.09 620.3 967.66 619.02 965.78 618.1C963.9 617.18 961.55 616.48 958.73 616C955.91 615.52 952.62 615.02 948.85 614.5C945.61 614.02 942.46 613.4 939.4 612.64C936.34 611.88 933.62 610.72 931.24 609.16C928.86 607.6 926.93 605.51 925.48 602.89C924.01 600.27 923.29 596.87 923.29 592.72C923.29 591.88 923.38 590.66 923.55 589.06C923.74 587.46 924.15 585.71 924.82 583.83C925.48 581.95 926.45 580.04 927.73 578.07C929.01 576.12 930.76 574.35 933.01 572.76C935.25 571.18 938.04 569.88 941.38 568.86C944.73 567.84 948.78 567.33 953.54 567.33C957.66 567.33 961.1 567.55 963.86 567.99C966.62 568.43 968.92 569.02 970.76 569.76C972.6 570.51 974.09 571.34 975.21 572.25C976.32 573.17 977.33 574.12 978.2 575.07C980.13 577.12 981.5 579.38 982.32 581.88C983.14 584.39 983.54 586.93 983.54 589.53L970.46 589.53" />
			<path id="path40" fill-rule="evenodd" class="shp0" d="M1030.07 655.54L1030.07 568.05L1063.5 568.05C1067.58 568.05 1071.23 568.71 1074.45 570.03C1077.68 571.35 1080.4 573.24 1082.65 575.7C1084.89 578.17 1086.6 581.13 1087.78 584.59C1088.96 588.05 1089.56 591.92 1089.56 596.2C1089.56 600.48 1088.89 604.35 1087.57 607.81C1086.25 611.27 1084.43 614.22 1082.11 616.66C1079.78 619.1 1077.04 620.99 1073.85 622.33C1070.68 623.67 1067.22 624.34 1063.5 624.34L1043.57 624.34L1043.57 655.54C1043.57 655.54 1030.07 655.54 1030.07 655.54ZM1059.36 612.94C1061.12 612.94 1062.96 612.66 1064.88 612.1C1066.8 611.54 1068.56 610.61 1070.16 609.33C1071.76 608.05 1073.09 606.34 1074.12 604.19C1075.17 602.05 1075.69 599.39 1075.69 596.23C1075.69 593.94 1075.37 591.79 1074.76 589.76C1074.13 587.74 1073.24 585.96 1072.06 584.42C1070.87 582.87 1069.42 581.66 1067.7 580.78C1065.98 579.9 1064.02 579.45 1061.82 579.45L1043.57 579.45L1043.57 612.94L1059.36 612.94Z" />
			<path id="path42" fill-rule="evenodd" class="shp0" d="M1160.26 648.28C1159.06 649.52 1157.69 650.63 1156.15 651.61C1154.61 652.6 1152.81 653.43 1150.74 654.13C1148.69 654.83 1146.31 655.36 1143.61 655.72C1140.9 656.08 1137.81 656.26 1134.32 656.26C1130.81 656.26 1127.71 656.08 1125.03 655.72C1122.34 655.36 1119.98 654.83 1117.91 654.13C1115.85 653.43 1114.05 652.6 1112.52 651.61C1110.97 650.63 1109.6 649.52 1108.4 648.28C1107 646.88 1105.83 645.14 1104.89 643.06C1103.95 640.98 1103.18 638.47 1102.58 635.53C1101.98 632.59 1101.55 629.17 1101.29 625.27C1101.02 621.37 1100.9 616.88 1100.9 611.8C1100.9 606.72 1101.02 602.23 1101.29 598.33C1101.55 594.43 1101.98 591.01 1102.58 588.07C1103.18 585.12 1103.95 582.61 1104.89 580.53C1105.83 578.45 1107 576.72 1108.4 575.31C1109.6 574.08 1110.97 572.97 1112.52 571.98C1114.05 571 1115.85 570.17 1117.91 569.49C1119.98 568.81 1122.34 568.28 1125.03 567.9C1127.71 567.52 1130.81 567.33 1134.32 567.33C1137.81 567.33 1140.9 567.52 1143.61 567.9C1146.31 568.28 1148.69 568.81 1150.74 569.49C1152.81 570.17 1154.61 571 1156.15 571.98C1157.69 572.97 1159.06 574.08 1160.26 575.31C1161.62 576.72 1162.78 578.45 1163.74 580.53C1164.71 582.61 1165.48 585.12 1166.09 588.07C1166.69 591.01 1167.12 594.43 1167.38 598.33C1167.63 602.23 1167.76 606.72 1167.76 611.8C1167.76 616.88 1167.63 621.37 1167.38 625.27C1167.12 629.17 1166.69 632.59 1166.09 635.53C1165.48 638.47 1164.71 640.98 1163.74 643.06C1162.78 645.14 1161.62 646.88 1160.26 648.28ZM1151.89 636.31C1152.35 635.17 1152.72 633.59 1153 631.57C1153.28 629.55 1153.49 626.96 1153.63 623.8C1153.76 620.64 1153.84 616.64 1153.84 611.8C1153.84 606.96 1153.76 602.95 1153.63 599.77C1153.49 596.59 1153.28 594 1153 591.99C1152.72 589.99 1152.35 588.43 1151.89 587.29C1151.43 586.15 1150.9 585.18 1150.29 584.38C1148.89 582.54 1146.96 581.13 1144.47 580.18C1141.99 579.22 1138.62 578.73 1134.32 578.73C1130 578.73 1126.62 579.22 1124.16 580.18C1121.7 581.13 1119.76 582.54 1118.36 584.38C1117.76 585.18 1117.23 586.15 1116.77 587.29C1116.31 588.43 1115.93 589.99 1115.64 591.99C1115.33 594 1115.11 596.59 1114.97 599.77C1114.84 602.95 1114.76 606.96 1114.76 611.8C1114.76 616.64 1114.84 620.64 1114.97 623.8C1115.11 626.96 1115.33 629.55 1115.64 631.57C1115.93 633.59 1116.31 635.17 1116.77 636.31C1117.23 637.45 1117.76 638.42 1118.36 639.22C1119.76 641.06 1121.7 642.46 1124.16 643.42C1126.62 644.38 1130 644.86 1134.32 644.86C1138.62 644.86 1141.99 644.38 1144.47 643.42C1146.96 642.46 1148.89 641.06 1150.29 639.22C1150.9 638.42 1151.43 637.45 1151.89 636.31Z" />
			<path id="path44" class="shp0" d="M1227.96 589.53C1227.88 588.38 1227.67 587.16 1227.33 585.88C1226.99 584.6 1226.28 583.42 1225.2 582.37C1224.12 581.31 1222.54 580.43 1220.46 579.76C1218.38 579.08 1215.52 578.73 1211.88 578.73C1206.19 578.73 1201.85 579.72 1198.82 581.68C1195.8 583.64 1194.29 586.76 1194.29 591.03C1194.29 593.23 1194.82 594.99 1195.88 596.29C1196.94 597.59 1198.38 598.61 1200.17 599.35C1201.98 600.09 1204.05 600.64 1206.42 601C1208.77 601.36 1211.25 601.68 1213.86 601.96C1215.89 602.2 1218.04 602.5 1220.28 602.86C1222.52 603.22 1224.71 603.74 1226.85 604.42C1228.99 605.1 1231.03 606 1232.98 607.12C1234.91 608.24 1236.61 609.7 1238.08 611.5C1239.53 613.3 1240.69 615.5 1241.56 618.1C1242.42 620.7 1242.85 623.8 1242.85 627.4C1242.85 632.12 1242.12 636.28 1240.66 639.88C1239.2 643.48 1237.11 646.49 1234.39 648.91C1231.66 651.33 1228.35 653.16 1224.46 654.4C1220.55 655.64 1216.16 656.26 1211.28 656.26C1206.31 656.26 1202.12 655.66 1198.67 654.43C1195.23 653.21 1192.38 651.67 1190.12 649.81C1187.86 647.95 1186.09 645.91 1184.8 643.69C1183.52 641.47 1182.58 639.33 1181.98 637.27C1181.38 635.21 1181.02 633.39 1180.88 631.81C1180.74 630.23 1180.67 629.16 1180.67 628.6L1194.05 628.6C1194.05 630.52 1194.33 632.44 1194.89 634.36C1195.45 636.28 1196.39 638.02 1197.71 639.58C1199.03 641.14 1200.79 642.41 1203 643.39C1205.19 644.37 1207.95 644.86 1211.28 644.86C1214 644.86 1216.45 644.52 1218.63 643.84C1220.81 643.16 1222.67 642.14 1224.21 640.78C1225.76 639.42 1226.93 637.72 1227.75 635.68C1228.57 633.64 1228.98 631.28 1228.98 628.6C1228.98 625.8 1228.51 623.58 1227.54 621.94C1226.58 620.3 1225.16 619.02 1223.28 618.1C1221.4 617.18 1219.05 616.48 1216.23 616C1213.41 615.52 1210.11 615.02 1206.35 614.5C1203.11 614.02 1199.96 613.4 1196.9 612.64C1193.84 611.88 1191.12 610.72 1188.74 609.16C1186.36 607.6 1184.43 605.51 1182.98 602.89C1181.51 600.27 1180.79 596.87 1180.79 592.72C1180.79 591.88 1180.88 590.66 1181.05 589.06C1181.24 587.46 1181.65 585.71 1182.31 583.83C1182.98 581.95 1183.94 580.04 1185.22 578.07C1186.5 576.12 1188.26 574.35 1190.51 572.76C1192.75 571.18 1195.54 569.88 1198.88 568.86C1202.23 567.84 1206.27 567.33 1211.04 567.33C1215.16 567.33 1218.6 567.55 1221.36 567.99C1224.12 568.43 1226.42 569.02 1228.26 569.76C1230.1 570.51 1231.59 571.34 1232.71 572.25C1233.82 573.17 1234.83 574.12 1235.7 575.07C1237.63 577.12 1239 579.38 1239.82 581.88C1240.64 584.39 1241.04 586.93 1241.04 589.53L1227.96 589.53" />
			<path id="path46" class="shp0" d="M1301.07 589.53C1300.99 588.38 1300.79 587.16 1300.45 585.88C1300.1 584.6 1299.4 583.42 1298.31 582.37C1297.23 581.31 1295.65 580.43 1293.57 579.76C1291.48 579.08 1288.63 578.73 1284.98 578.73C1279.3 578.73 1274.95 579.72 1271.93 581.68C1268.91 583.64 1267.4 586.76 1267.4 591.03C1267.4 593.23 1267.93 594.99 1269 596.29C1270.05 597.59 1271.48 598.61 1273.28 599.35C1275.08 600.09 1277.16 600.64 1279.52 601C1281.88 601.36 1284.37 601.68 1286.97 601.96C1289.01 602.2 1291.14 602.5 1293.39 602.86C1295.63 603.22 1297.82 603.74 1299.96 604.42C1302.1 605.1 1304.14 606 1306.08 607.12C1308.03 608.24 1309.73 609.7 1311.18 611.5C1312.65 613.3 1313.81 615.5 1314.67 618.1C1315.53 620.7 1315.96 623.8 1315.96 627.4C1315.96 632.12 1315.23 636.28 1313.76 639.88C1312.31 643.48 1310.22 646.49 1307.5 648.91C1304.77 651.33 1301.46 653.16 1297.56 654.4C1293.66 655.64 1289.27 656.26 1284.38 656.26C1279.42 656.26 1275.22 655.66 1271.79 654.43C1268.34 653.21 1265.49 651.67 1263.23 649.81C1260.96 647.95 1259.2 645.91 1257.92 643.69C1256.64 641.47 1255.7 639.33 1255.1 637.27C1254.49 635.21 1254.12 633.39 1253.98 631.81C1253.85 630.23 1253.77 629.16 1253.77 628.6L1267.16 628.6C1267.16 630.52 1267.44 632.44 1268 634.36C1268.56 636.28 1269.5 638.02 1270.82 639.58C1272.14 641.14 1273.9 642.41 1276.1 643.39C1278.31 644.37 1281.07 644.86 1284.38 644.86C1287.11 644.86 1289.56 644.52 1291.74 643.84C1293.93 643.16 1295.78 642.14 1297.32 640.78C1298.86 639.42 1300.04 637.72 1300.86 635.68C1301.68 633.64 1302.09 631.28 1302.09 628.6C1302.09 625.8 1301.62 623.58 1300.66 621.94C1299.69 620.3 1298.27 619.02 1296.39 618.1C1294.51 617.18 1292.16 616.48 1289.34 616C1286.52 615.52 1283.22 615.02 1279.47 614.5C1276.22 614.02 1273.07 613.4 1270.01 612.64C1266.95 611.88 1264.22 610.72 1261.85 609.16C1259.46 607.6 1257.55 605.51 1256.08 602.89C1254.62 600.27 1253.89 596.87 1253.89 592.72C1253.89 591.88 1253.98 590.66 1254.17 589.06C1254.34 587.46 1254.77 585.71 1255.42 583.83C1256.08 581.95 1257.06 580.04 1258.34 578.07C1259.61 576.12 1261.38 574.35 1263.62 572.76C1265.86 571.18 1268.65 569.88 1271.99 568.86C1275.33 567.84 1279.38 567.33 1284.14 567.33C1288.27 567.33 1291.71 567.55 1294.47 567.99C1297.23 568.43 1299.53 569.02 1301.38 569.76C1303.21 570.51 1304.69 571.34 1305.81 572.25C1306.94 573.17 1307.93 574.12 1308.82 575.07C1310.73 577.12 1312.1 579.38 1312.93 581.88C1313.74 584.39 1314.16 586.93 1314.16 589.53L1301.07 589.53" />
			<path id="path48" class="shp0" d="M1330.18 655.54L1343.69 655.54L1343.69 568.05L1330.18 568.05L1330.18 655.54Z" />
			<path id="path50" fill-rule="evenodd" class="shp0" d="M1361.04 655.54L1361.04 568.05L1396.58 568.05C1400.42 568.05 1403.69 568.53 1406.41 569.49C1409.14 570.45 1411.44 571.67 1413.32 573.15C1415.2 574.63 1416.69 576.28 1417.78 578.1C1418.89 579.92 1419.74 581.69 1420.34 583.41C1420.94 585.14 1421.33 586.7 1421.51 588.1C1421.69 589.49 1421.78 590.52 1421.78 591.16C1421.78 592.68 1421.63 594.32 1421.33 596.08C1421.03 597.84 1420.46 599.6 1419.65 601.36C1418.83 603.12 1417.72 604.81 1416.32 606.43C1414.92 608.05 1413.13 609.46 1410.98 610.66C1414.94 612.54 1417.92 615.15 1419.95 618.49C1421.97 621.83 1422.98 625.66 1422.98 629.98C1422.98 630.94 1422.9 632.24 1422.74 633.88C1422.58 635.52 1422.2 637.28 1421.6 639.16C1421 641.04 1420.13 642.96 1418.99 644.92C1417.85 646.88 1416.3 648.64 1414.34 650.2C1412.38 651.76 1409.95 653.04 1407.05 654.04C1404.15 655.04 1400.65 655.54 1396.58 655.54C1396.58 655.54 1361.04 655.54 1361.04 655.54ZM1393.39 606.16C1396.03 606.16 1398.27 605.72 1400.11 604.84C1401.95 603.96 1403.45 602.86 1404.59 601.54C1405.72 600.22 1406.56 598.79 1407.07 597.24C1407.59 595.71 1407.86 594.3 1407.86 593.02C1407.86 588.25 1406.5 584.8 1403.8 582.66C1401.11 580.52 1397.21 579.45 1392.13 579.45L1374.54 579.45L1374.54 606.16L1393.39 606.16ZM1396.34 644.14C1398.41 644.14 1400.25 643.72 1401.85 642.88C1403.45 642.04 1404.8 640.96 1405.88 639.64C1406.95 638.32 1407.76 636.86 1408.3 635.26C1408.85 633.66 1409.12 632.1 1409.12 630.58C1409.12 628.54 1408.82 626.72 1408.24 625.12C1407.66 623.52 1406.84 622.16 1405.78 621.04C1404.73 619.92 1403.45 619.06 1401.97 618.46C1400.49 617.86 1398.85 617.56 1397.05 617.56L1374.54 617.56L1374.54 644.14L1396.34 644.14Z" />
			<path id="path52" class="shp0" d="M1436.97 655.54L1436.97 568.05L1450.47 568.05L1450.47 644.14L1484.56 644.14L1484.56 655.54L1436.97 655.54Z" />
			<path id="path54" class="shp0" d="M1495.19 655.54L1495.19 568.05L1548.31 568.05L1548.31 579.45L1508.69 579.45L1508.69 606.16L1537.87 606.16L1537.87 617.56L1508.69 617.56L1508.69 644.14L1548.31 644.14L1548.31 655.54L1495.19 655.54Z" />
			<path id="path56" class="shp0" d="M1571.58 609.99L1571.58 573.44L1560.88 573.44L1560.88 567.96L1588.77 567.96L1588.77 573.44L1578.07 573.44L1578.07 609.99L1571.58 609.99" />
			<path id="path58" class="shp0" d="M1625.4 609.99L1625.4 579.23L1615.07 600.54L1609.85 600.54L1599.82 579.52L1599.82 609.99L1593.68 609.99L1593.68 567.96L1600.89 567.96L1612.65 592.64L1624.45 567.96L1631.54 567.96L1631.54 609.99L1625.4 609.99" />
			<path id="path60" fill-rule="evenodd" class="shp0" d="M4.74 5.58L435.16 5.58L435.16 438.19L4.74 438.19L4.74 5.58ZM93.33 72.92L93.33 383.31L363.21 224.66L93.33 72.92ZM505.76 433.6L505.76 240.79L580.48 240.79C635.85 240.79 669.06 284.61 669.06 340.41C669.06 396.23 639.55 433.6 580.03 433.6L505.76 433.6ZM645.99 197L631.25 154.1L560.19 154.1L547.26 197L508.52 197L573.57 3.75L612.78 3.75L685.67 197L645.99 197ZM546.35 273.55L546.35 403.61L579.12 403.61C622.47 403.61 628.94 366.7 628.47 338.58C628.47 316.43 617.86 273.55 576.8 273.55L546.35 273.55ZM593.41 44.33L571.74 114.91L570.33 126.87L618.33 126.87C618.33 120.43 618.79 119.05 617.86 115.35L593.41 44.33ZM682.92 433.6L682.92 240.79L825.01 240.79L825.01 273.09L721.65 273.09L721.65 314.13L813 314.13L813 349.19L722.12 349.19L722.12 400.84L828.24 400.84L828.24 433.6L682.92 433.6ZM816.69 197L731.81 66.46L731.81 197L693.07 197L693.07 3.75L732.75 3.75L814.38 132.42L814.38 3.75L853.14 3.75L853.14 197L816.69 197ZM938.02 433.13L901.11 433.13L837.47 250.95L837.47 240.79L876.19 240.79L919.57 381.92L962.01 241.26L999.84 241.26L999.84 251.4L938.02 433.13ZM999.39 197L984.61 154.1L913.57 154.1L900.67 197L861.9 197L926.95 3.75L966.18 3.75L1039.05 197L999.39 197ZM971.69 116.26L947.25 43.41L922.78 116.26L922.78 126.87L972.62 126.87C972.62 120.43 972.62 119.5 971.69 116.26ZM1011.84 241.26L1052.89 241.26L1052.89 433.13L1011.84 433.13L1011.84 241.26ZM1047.35 197L1047.35 3.75L1085.66 3.75L1085.66 164.25L1171.91 164.25L1171.91 197L1047.35 197ZM1155.3 238.03C1224.51 238.03 1236.5 295.68 1239.27 304.44L1200.97 304.44C1194.98 292.47 1179.28 269.41 1159.94 268C1091.66 263.41 1091.66 407.75 1159.94 407.75C1192.68 407.75 1200.53 375.01 1202.35 371.33L1239.74 371.33C1239.74 371.79 1235.1 437.28 1154.85 438.19C1049.22 440.51 1030.73 236.65 1155.3 238.03ZM1260.96 200.21C1136.85 200.21 1141.48 0.05 1262.34 0.98C1379.06 1.9 1382.29 200.21 1260.96 200.21ZM1260.96 33.72C1191.3 33.25 1188.98 167.47 1259.57 167.94C1331.07 168.39 1331.07 34.64 1260.96 33.72ZM1246.65 433.6L1246.65 240.79L1383.65 240.79L1383.65 275.87L1283.56 275.87L1283.56 315.51L1372.12 315.51L1372.12 350.1L1284.01 350.1L1284.01 400.84L1388.29 400.84L1388.29 433.6L1246.65 433.6ZM1506.85 192.37L1506.85 173.94C1502.71 177.61 1484.23 201.15 1449.63 200.21C1331.56 197.45 1331.07 3.75 1455.18 1.43C1485.14 1.43 1510.06 20.35 1519.76 33.72C1531.3 48.94 1532.22 61.86 1532.68 65.1L1499.92 65.1C1492.54 53.09 1481 32.8 1453.8 32.8C1381.82 31.89 1377.23 167.94 1453.33 169.31C1487.01 170.22 1504.07 135.19 1504.07 134.74L1504.07 124.58L1457.95 124.58L1457.95 94.6L1537.28 94.6L1537.28 192.37L1506.85 192.37ZM1390.12 375.93L1427.03 375.93C1427.03 375.93 1424.25 406.37 1465.34 409.14C1475.49 409.6 1508.7 405.46 1508.7 382.39C1508.7 355.65 1475 357.01 1453.8 351.04C1432.56 345.49 1392.43 336.26 1392.43 298.91C1392.43 266.17 1419.18 238.03 1470.85 238.03C1540.07 238.5 1539.6 292 1540.07 295.23L1504.56 295.23C1502.22 287.37 1499.92 268.47 1469.03 267.56C1453.8 267.56 1430.72 272.64 1430.72 290.6C1430.72 313.22 1456.55 316.43 1483.78 320.57C1524.85 328.44 1548.38 340.9 1546.98 378.69C1546.06 411.9 1516.53 438.66 1470.85 438.66C1389.2 438.66 1390.12 375.93 1390.12 375.93Z" />
		</g>
	</g>
</svg>