<svg version="1.2" xmlns="http://www.w3.org/2000/svg" viewBox="0 0 1589 601" width="1589" height="601">
	<title>new-aon-logo-svg</title>
	<style>
		.s0 { fill: #eb0017 } 
	</style>
	<path id="Layer" class="s0" d="m255.7 0h95l255.4 589h-121.7l-181.2-435.1-95.9 229.9h128.2l45.5 103.9h-216.9l-42.2 101.3h-121.9l255.7-589z"/>
	<path id="Layer" class="s0" d="m1477.2 84.1h111.8v504.9h-87.8l-251.2-311.4v311.4h-111.8v-504.9h97.3l241.7 299.7v-299.7z"/>
	<path id="Layer" fill-rule="evenodd" class="s0" d="m930.8 91.7c32.1 13.3 61.3 32.9 85.9 57.5 24.5 24.6 44 53.8 57.3 86 13.3 32.1 20.1 66.6 20.1 101.3-0.2 107.1-64.8 203.5-163.7 244.4-99 40.9-212.9 18.1-288.5-57.7-75.6-75.8-98.2-189.7-57.1-288.6 41-98.8 137.6-163.3 244.7-163.2 34.8 0.1 69.2 7 101.3 20.3zm-101.3 397.6c20 0 39.9-4 58.3-11.7 18.5-7.7 35.3-19 49.5-33.2 14.1-14.2 25.4-31 33-49.5 7.7-18.5 11.6-38.3 11.7-58.4 0.2-61.9-37-117.8-94.1-141.6-57.1-23.8-123-10.8-166.8 33-43.8 43.7-56.8 109.5-33.1 166.7 23.7 57.2 79.6 94.4 141.5 94.2z"/>
</svg>