<svg version="1.2" baseProfile="tiny-ps" xmlns="http://www.w3.org/2000/svg" viewBox="0 0 1678 423" width="1678" height="423">
	<title>Applied_Materials_Inc</title>
	<style>
		tspan { white-space:pre }
		.shp0 { fill: #569bbe } 
	</style>
	<path id="Layer" class="shp0" d="M274.29 58.72L86.96 58.56L57.99 87.81L274.29 87.92C307.35 87.92 334.06 114.12 334.06 146.4L334.06 420.36L364.05 420.36L364.15 146.4C364.15 97.97 323.91 58.72 274.29 58.72ZM424.11 420.36L424.08 146.4C424.08 65.71 357.01 0.02 274.28 0.02L144.9 0L115.94 29.25L274.29 29.29C340.45 29.29 394.09 81.83 394.09 146.4L394.09 420.36L424.11 420.36L424.11 420.36ZM274.29 117.17L29.06 117.11L0 146.34L0.39 146.34L0 146.4L0.01 274.02C0.01 348.45 56.8 410.08 130.61 419.25L158.29 391.17L149.82 391.12C83.63 391.12 29.98 338.56 29.98 274.02L29.98 146.35L60.01 146.35L59.94 274.02C59.94 322.41 100.18 361.67 149.82 361.67L187.46 361.67L216.38 332.45L149.82 332.45C116.74 332.45 90.04 306.27 90.04 274.02L90.04 146.35L119.76 146.35L119.79 274.02C119.88 290.16 133.26 303.19 149.82 303.19L245.29 303.19L274.18 274.05L149.82 274.02L149.82 146.37L274.28 146.4L274.28 420.36L304.32 420.36L304.31 146.4C304.22 130.24 290.83 117.17 274.29 117.17Z" />
	<path id="Layer" fill-rule="evenodd" class="shp0" d="M1386.66 219.42L1386.66 242.84L1251.45 242.84L1251.45 59.75L1385.39 59.75L1385.39 83.2L1276.71 83.2L1276.71 138.83L1373.94 138.83L1373.94 162.25L1276.71 162.25L1276.71 219.42L1386.66 219.42ZM636.52 282.7L654.28 282.7L654.28 420.6L634.15 420.6L634.15 318.84L590.42 383.07L589.66 384.17L586.17 384.17L585.41 383.07L541.69 319L541.69 420.59L521.93 420.59L521.93 282.69L541.05 282.69L541.81 283.83L588.1 353.09L634.4 283.83L635.15 282.69L636.52 282.69L636.52 282.7ZM1409.71 401.62L1462.17 401.62L1462.17 420.59L1389.6 420.59L1389.6 282.69L1409.71 282.69L1409.71 401.62ZM511.63 242.85L513.28 239.24L594.48 59.99L595.15 58.48L617.33 58.48L617.99 59.99L699.18 239.24L700.83 242.85L673.53 242.85L672.87 241.34L652.67 195.83L559.02 195.83L538.58 241.35L537.9 242.85L511.63 242.85ZM569.23 172.64L642.51 172.64L605.99 90.73L569.23 172.64ZM747 242.84L724.31 242.84L724.31 59.75L793.56 59.75C835.64 59.75 862.83 82.92 862.83 118.76L862.83 119.27C862.83 161.27 826.39 180.06 790.26 180.06L749.55 180.06L749.55 242.85L747 242.85L747 242.84ZM749.55 83.44L749.55 156.62L791.02 156.62C819.16 156.62 837.33 142.26 837.33 120.04L837.33 119.53C837.33 96.59 820.82 83.44 792.05 83.44L749.55 83.44ZM1211.94 242.84L1186.69 242.84L1186.69 59.75L1211.94 59.75L1211.94 242.84ZM1580.43 382L1580.43 382.39C1580.43 406.01 1560.71 422.5 1532.49 422.5C1511.01 422.5 1493.2 415.54 1476.46 400.61L1474.6 398.94L1476.2 397.04L1485.49 386.03L1487.22 384.01L1489.2 385.77C1503.46 398.65 1516.16 403.89 1533.05 403.89C1549.24 403.89 1560.11 395.85 1560.11 383.88L1560.11 383.51C1560.11 372.99 1555.07 366.57 1527.57 360.79C1499.56 354.72 1480.92 345.47 1480.92 319.98L1480.92 319.61C1480.92 297.12 1500.39 280.8 1527.17 280.8C1546.29 280.8 1560.74 285.85 1575.47 297.68L1577.43 299.25L1575.92 301.23L1567.2 312.79L1565.57 314.93L1563.51 313.23C1551.92 303.8 1540.25 299.4 1526.77 299.4C1511.63 299.4 1501.04 307.15 1501.04 318.27L1501.04 318.64C1501.04 329.24 1506.32 335.75 1535.11 341.91C1566.87 348.85 1580.43 360.83 1580.43 382ZM1482.12 242.84L1417.7 242.84L1417.7 59.74L1482.12 59.74C1538.49 59.74 1579.38 98.03 1579.38 150.79L1579.38 151.3C1579.38 204.38 1538.49 242.85 1482.12 242.85L1482.12 242.84ZM1442.96 219.16L1482.12 219.16C1524.07 219.16 1553.38 191.47 1553.38 151.82L1553.38 151.3C1553.38 111.35 1524.07 83.44 1482.12 83.44L1442.96 83.44L1442.96 219.16ZM813.93 416.96L815.58 420.59L793.78 420.59L793.1 419.06L778.22 385.5L709.19 385.5L694.14 419.07L693.45 420.59L672.43 420.59L674.06 416.96L734.63 283.25L735.32 281.74L752.69 281.74L753.38 283.25L813.93 416.96ZM770.04 366.9L743.79 308.05L717.4 366.9L770.04 366.9ZM1158.03 242.84L1052.25 242.84L1052.25 59.75L1077.5 59.75L1077.5 219.18L1158.03 219.18L1158.03 242.84ZM1166.1 416.48L1169.2 420.59L1144.35 420.59L1143.58 419.56L1105.78 369L1071.66 369L1071.66 420.59L1051.54 420.59L1051.54 282.69L1111.25 282.69C1127.74 282.69 1141.81 287.67 1150.87 296.72C1157.97 303.81 1161.88 313.74 1161.88 324.71L1161.88 325.09C1161.88 345.31 1149.07 360.04 1127.61 365.32L1166.1 416.48ZM1071.67 350.4L1109.95 350.4C1129.16 350.4 1141.56 340.7 1141.56 325.67L1141.56 325.29C1141.56 310.27 1130.11 301.68 1110.13 301.68L1071.67 301.68L1071.67 350.4ZM944.26 401.83L1026.29 401.83L1026.29 420.61L924.13 420.61L924.13 282.71L1025.33 282.71L1025.33 301.5L944.26 301.5L944.26 341.68L1016.8 341.68L1016.8 360.48L944.26 360.48L944.26 401.83ZM1209.52 282.69L1209.52 420.59L1189.37 420.59L1189.37 282.69L1209.52 282.69ZM954.6 180.05L913.9 180.05L913.9 242.84L888.65 242.84L888.65 59.74L957.9 59.74C999.98 59.74 1027.16 82.91 1027.16 118.75L1027.16 119.27C1027.16 161.27 990.72 180.06 954.6 180.05ZM913.89 83.44L913.89 156.62L955.35 156.62C983.48 156.62 1001.66 142.26 1001.66 120.04L1001.66 119.53C1001.66 96.59 985.14 83.44 956.37 83.44L913.89 83.44ZM903.64 282.69L903.64 301.68L859.04 301.68L859.04 420.59L838.66 420.59L838.66 301.68L794.05 301.68L794.05 282.69L903.64 282.69ZM1369.81 416.96L1371.46 420.59L1349.65 420.59L1348.99 419.06L1334.09 385.5L1265.07 385.5L1250.01 419.07L1249.31 420.59L1228.3 420.59L1229.95 416.96L1290.52 283.25L1291.19 281.74L1308.54 281.74L1309.24 283.25L1369.81 416.96ZM1325.91 366.9L1299.66 308.05L1273.27 366.9L1325.91 366.9Z" />
	<g id="Layer">
		<path id="Layer" fill-rule="evenodd" class="shp0" d="M1612.63 390.35L1612.63 390.16C1612.63 372.67 1626.86 358.02 1644.92 358.02C1662.96 358.02 1677.03 372.49 1677.03 390.01L1677.03 390.16C1677.03 407.67 1662.78 422.36 1644.74 422.36C1626.69 422.35 1612.63 407.88 1612.63 390.35ZM1674.1 390.16L1674.1 390.01C1674.1 373.91 1661.55 360.78 1644.93 360.78C1628.2 360.78 1615.55 374.09 1615.55 390.16L1615.55 390.35C1615.55 406.42 1628.1 419.56 1644.74 419.56C1661.45 419.56 1674.1 406.25 1674.1 390.16ZM1646.97 372.76C1651.14 372.76 1654.59 374.09 1656.74 376.23C1658.35 377.72 1659.41 379.96 1659.41 382.6L1659.41 382.79C1659.41 388.12 1655.83 391.3 1650.89 392.46L1661.11 405.72L1655.05 405.72L1645.54 393.28L1637.07 393.28L1637.07 405.72L1632.18 405.72L1632.18 372.76L1646.97 372.76ZM1646.51 388.91C1651.15 388.91 1654.38 386.8 1654.38 383.07L1654.38 382.9C1654.38 379.42 1651.52 377.18 1646.81 377.18L1637.09 377.18L1637.09 388.91L1646.51 388.91Z" />
	</g>
</svg>