<svg version="1.2" xmlns="http://www.w3.org/2000/svg" viewBox="0 0 1518 1137" width="1518" height="1137">
	<title>Archer_Daniels_Midland_logo (1)-svg</title>
	<defs>
		<linearGradient id="g1" x1="219.5" y1="294.4" x2="1325.1" y2="294.4" gradientUnits="userSpaceOnUse">
			<stop offset="0" stop-color="#a6ce39"/>
			<stop offset="1" stop-color="#11b04b"/>
		</linearGradient>
	</defs>
	<style>
		.s0 { fill: #27245f } 
		.s1 { fill: url(#g1) } 
	</style>
	<path id="path1156" fill-rule="evenodd" class="s0" d="m321.2 1060.5h-165.4l-30.7 76.5h-125.1l163.7-426.5c1.7-4.3 3.9-8.3 6.8-11.9 2.8-3.6 6.2-6.8 9.9-9.4 3.8-2.6 8-4.6 12.3-6 4.4-1.3 9-2 13.5-2h97.9l171.5 455.8h-126.4zm-31.4-90.2l-51.3-147.6-49.8 147.6zm193.8 103v-392.1h155c45.8 0 122.3 6.2 181.1 62.9 53.3 51.3 63.6 116.9 63.6 166.1 0 60.1-15.1 113.4-59.5 157.8-36.2 36.3-97 69-174.9 69h-101.7c-8.3 0-16.6-1.7-24.3-4.9-7.7-3.2-14.8-7.9-20.7-13.8-5.9-5.9-10.6-12.9-13.8-20.6-3.2-7.8-4.8-16-4.8-24.4zm118.2-36.7h23.9c28.8 0 69-2.7 99.8-32.8 15.1-14.4 34.9-43.1 34.9-93.6 0-42.4-13-78.6-35.6-99.8-28-26-64.9-28.7-94.3-28.7h-28.7zm281.7 100.4l77.2-455.8h116.9l92.2 205.1 97.8-205.1h79.1c5.4 0 10.8 1 15.8 2.8 5.1 1.9 9.8 4.7 13.9 8.2 4.1 3.5 7.6 7.8 10.2 12.5 2.6 4.8 4.3 9.9 5.1 15.3l62.5 417h-118.3l-33.5-262.4-104 189.3c-2.9 4.9-6.9 8.9-11.8 11.7-4.9 2.9-10.5 4.3-16.1 4.3-5.6 0-11.2-1.4-16-4.3-4.9-2.8-9-6.8-11.8-11.7l-102.6-189.2-39.1 262.3z"/>
	<path id="path1158" fill-rule="evenodd" class="s1" d="m1323.2 40.6l-93.5 226.4c-74.6 195.4-260.6 321.7-473.6 321.7h-510c-18.2 0-31.4-18.6-25-35.3l99.1-259.6c75.2-196.7 257.9-293.8 472.4-293.8h501.8c21 0 36 21.5 28.8 40.6zm-133.4 60.6h-391.8c-174.2 0-321.8 73.2-382.8 233l-2.2 5.7c21.8-15.5 44.8-29.3 68.7-41.3 24-11.9 48.8-22 74.3-30.1 25.6-8.1 51.7-14.2 78.1-18.2 26.5-4 53.2-6 80-5.8h229.5c-20.4 68.5-98.5 101.2-154.4 101.2h-69.8c-29.7-0.1-59.4 2.9-88.4 9.1-29.1 6.2-57.4 15.5-84.5 27.7-27.1 12.2-52.8 27.3-76.7 45-23.9 17.7-45.8 37.9-65.4 60.2h345c173.6 0 325-102.9 385.8-262.1z"/>
	<path id="path1160" fill-rule="evenodd" class="s0" d="m1517.1 716.3q0 1.8-0.2 3.5-0.2 1.7-0.5 3.5-0.4 1.7-0.9 3.3-0.5 1.7-1.2 3.3-1.3 3.1-3.2 6-1.9 2.8-4.3 5.2-2.4 2.4-5.2 4.2-2.8 1.9-5.9 3.2-3.3 1.4-6.7 2.1-3.4 0.7-6.9 0.7-3.5 0-6.9-0.7-3.5-0.7-6.7-2.1-1.6-0.6-3-1.4-1.5-0.8-2.9-1.8-1.4-0.9-2.8-2-1.3-1-2.5-2.2-1.1-1.2-2.2-2.5-1.1-1.4-2-2.8-1-1.4-1.8-2.8-0.8-1.5-1.4-3.1-1.4-3.2-2.1-6.6-0.7-3.5-0.7-7 0-3.5 0.7-6.9 0.7-3.4 2.1-6.7 0.6-1.5 1.4-3 0.8-1.5 1.8-2.9 0.9-1.4 2-2.7 1-1.3 2.2-2.5 1.2-1.2 2.5-2.3 1.3-1.1 2.8-2 1.4-0.9 2.9-1.7 1.4-0.8 3-1.5 3.2-1.4 6.7-2.1 3.4-0.6 6.9-0.6 3.5 0 6.9 0.6 3.4 0.7 6.7 2.1 3.1 1.3 5.9 3.2 2.8 1.9 5.2 4.3 2.4 2.4 4.3 5.2 1.9 2.8 3.2 5.9 0.7 1.6 1.2 3.3 0.5 1.6 0.9 3.3 0.3 1.7 0.5 3.5 0.2 1.7 0.2 3.4zm-35-28.7q-1.5 0-2.9 0.1-1.4 0.2-2.8 0.5-1.4 0.3-2.8 0.7-1.4 0.4-2.7 1-2.6 1.1-4.9 2.6-2.3 1.6-4.2 3.5-2 2-3.5 4.3-1.6 2.3-2.7 4.9-1.1 2.6-1.7 5.4-0.5 2.8-0.5 5.7 0 2.9 0.5 5.7 0.6 2.8 1.7 5.5 1.1 2.6 2.7 4.9 1.5 2.3 3.5 4.2 1.9 2 4.2 3.6 2.3 1.5 4.9 2.6 2.7 1.1 5.5 1.7 2.8 0.5 5.7 0.5 2.8 0 5.7-0.5 2.8-0.6 5.4-1.7 2.6-1.1 4.9-2.6 2.3-1.6 4.3-3.6 2-1.9 3.5-4.2 1.6-2.3 2.6-4.9 1.2-2.7 1.7-5.5 0.6-2.8 0.6-5.7 0-2.9-0.6-5.7-0.5-2.8-1.7-5.4-1-2.6-2.6-4.9-1.5-2.3-3.5-4.3-2-2-4.3-3.5-2.3-1.5-4.9-2.6-1.3-0.6-2.6-1-1.4-0.5-2.8-0.8-1.4-0.3-2.9-0.4-1.4-0.2-2.8-0.2zm7.7 32.3l8 14.6q0.1 0.1 0.1 0.3 0.1 0.2 0.1 0.3 0 0.2-0.1 0.3 0 0.2-0.1 0.3-0.1 0.2-0.2 0.3-0.1 0.1-0.2 0.2-0.2 0.1-0.3 0.1-0.2 0.1-0.3 0h-5.9q-0.2 0.1-0.3 0-0.2 0-0.4-0.1-0.1-0.1-0.2-0.2-0.1-0.2-0.2-0.3l-7.6-14.3h-6v13.7q0 0.1 0 0.2-0.1 0.2-0.1 0.3 0 0.1-0.1 0.2-0.1 0.1-0.2 0.2-0.1 0.1-0.2 0.2-0.1 0-0.2 0.1-0.1 0-0.2 0-0.1 0.1-0.2 0h-5.3q-0.1 0.1-0.2 0-0.2 0-0.3 0-0.1-0.1-0.2-0.1-0.1-0.1-0.2-0.2-0.1-0.1-0.1-0.2-0.1-0.1-0.2-0.2 0-0.1 0-0.3-0.1-0.1-0.1-0.2v-37.6q0-0.2 0.1-0.3 0-0.1 0-0.2 0.1-0.2 0.2-0.3 0-0.1 0.1-0.1 0.1-0.1 0.2-0.2 0.1-0.1 0.2-0.1 0.1-0.1 0.3-0.1 0.1 0 0.2 0h11.5q0.9 0 1.9 0 0.9 0 1.8 0.2 1 0.1 1.9 0.3 0.9 0.2 1.8 0.4 0.8 0.3 1.6 0.8 0.7 0.4 1.4 0.9 0.6 0.6 1.2 1.2 0.6 0.7 1 1.4 0.5 0.8 0.9 1.6 0.4 0.9 0.6 1.8 0.2 0.9 0.4 1.8 0.1 0.9 0.1 1.8 0 0.9-0.1 1.7-0.1 0.8-0.3 1.7-0.3 0.8-0.6 1.6-0.3 0.7-0.7 1.5-0.4 0.7-0.9 1.3-0.5 0.6-1 1.2-0.6 0.5-1.3 0.9-0.6 0.5-1.3 0.8zm-2-11.1q0-0.7-0.1-1.4-0.1-0.7-0.4-1.3-0.3-0.6-0.8-1.1-0.5-0.5-1.1-0.9-0.5-0.2-1.1-0.4-0.6-0.1-1.1-0.2-0.6-0.1-1.2-0.1-0.6-0.1-1.2 0h-4.8v11h6.4q0.5 0 1-0.1 0.6-0.1 1.1-0.3 0.5-0.1 1-0.4 0.4-0.3 0.8-0.7 0.4-0.4 0.7-0.9 0.3-0.5 0.5-1 0.1-0.5 0.2-1.1 0.1-0.5 0.1-1.1z"/>
</svg>