<svg version="1.2" xmlns="http://www.w3.org/2000/svg" viewBox="0 0 1541 572" width="1541" height="572">
	<title>arch-capital-blue-svg</title>
	<style>
		.s0 { fill: #0853a6 } 
	</style>
	<g id="Layer">
		<path id="Layer" fill-rule="evenodd" class="s0" d="m776.6 286.7h-104.5l-22 65.5c-10.8 32-16.4 56.5 17.5 57.1v9.7h-83.6v-9.7c30.5-4.6 37.8-21.1 48-51.3l89.2-269.2h33.4l93.8 281.1c9.6 30.2 17.5 39.4 46.3 39.4v9.7h-114.1v-9.7c22 0 32.7-9.7 25.4-32 0 0-29.4-90.6-29.4-90.6zm-52-158.6h-1.1l-45.2 138.6h91c0 0-44.7-138.6-44.7-138.6zm263.2 252.7c0 22.2 6.8 28.5 33.4 28.5v9.7h-105.7v-9.7c30.5 0 33.9-8 33.9-38.8v-110c0-29.7-7.3-33.1-41.2-33.1v-9.7l70-6.3h9.6v43.9c37.3-32.5 54.8-43.9 68.4-43.9 11.3 0 26.6 6.9 36.7 16l-15.2 35.9c-16.4-9.1-33.9-17.7-47.5-17.7-13 0-24.3 6.9-42.4 24.5 0 0 0 110.7 0 110.7zm291-98.1h-9.6c-8.5-36.5-33.9-59.9-67.3-59.9-39.5 0-67.2 34.2-67.2 83.8 0 55.3 34.5 101.5 75.2 101.5 24.3 0 53.6-13.1 74.5-42.1v14.8c-21.4 29.6-51.9 44.4-88.1 44.4-59.3 0-100.6-41.6-100.6-102 0-62.2 46.3-111.8 103.4-111.8 30 0 46.3 11.4 56.5 11.4 5.1 0 10.2-4 13.6-11.4h9.6zm229.3 87.8c0 30.8 5.7 38.8 32.2 38.8v9.7h-103.9v-9.7c27.1 0 33.3-6.3 33.3-32.5v-99.8c0-26.8-15.8-43.9-40.1-43.9-22.6 0-39 10.8-58.2 38.2v110.6c0 21.1 8.5 27.4 33.3 27.4v9.7h-107.3v-9.7c29.9-0.6 35.6-6.3 35.6-38.8v-262.9c0-26.2-7.4-30.2-35.6-30.2v-9.7l64.4-6.8h9.6v191c25.4-29.7 44.1-40.5 70-40.5 33.4 0 66.7 22.3 66.7 70.2 0 0 0 88.9 0 88.9z"/>
		<g id="Layer">
			<path id="Layer" fill-rule="evenodd" class="s0" d="m230.1 347.4l-230.1 68.9 87.8-120-1.4 55.6c0 0 143.7-4.5 143.7-4.5zm61.9-3.5l-93.1 228-35-146 41 36.2zm25-47.4l111.9 218.6-131.5-64.3 52.9-9.9zm-17.9-62.3l235.9 43-130 67.8 25-49.3zm-42.9-15.5l183.4-159.4-33.2 146.4-20.5-51.3zm-48.9 28.3l-10.3-247.1 92.1 116.4-52-14.5zm-5.6 57.8q0 0 0 0zm-195.3-143.3l145.6-3.6-43 33.4c0 0 92.7 113.4 92.7 113.5z"/>
		</g>
	</g>
</svg>