<svg version="1.2" xmlns="http://www.w3.org/2000/svg" viewBox="0 0 1511 238" width="1511" height="238">
	<title>Arista-networks-logo-svg</title>
	<style>
		.s0 { fill: #16325b } 
	</style>
	<g id="Layer">
		<g id="Layer">
			<g id="Layer">
				<path id="Layer" class="s0" d="m507 137.9l100.5 97.8h-54.5l-139.6-134.2h117.3c23.7 0 36.3-11.2 36.3-30.7 0-23.8-12.6-32.2-37.7-32.2-18.2 0-106.1 0-141 0v198.5h-44.7v-236.2c0 0 143.8 0 182.9 1.4 53.1 0 78.2 33.5 78.2 68.5 0 34.9-25.1 69.9-75.4 69.9-1.4 0-12.6 0-22.3-2.8z"/>
				<path id="Layer" class="s0" d="m650.8 0.9h43.3v236.2h-43.3z"/>
				<path id="Layer" class="s0" d="m1150.6 37.2v199.9h-43.2v-199.9h-102l25.2-36.3h76.8 43.2 92.2v36.3z"/>
				<path id="Layer" class="s0" d="m997 165.8c0 37.8-25.1 71.3-71.2 71.3-46 0-180.1 0-180.1 0l22.4-37.7h152.2c23.7 0 39.1-12.6 39.1-30.8 0-20.9-14-32.1-39.1-32.1-15.4 0-86.6 0-110.4 0-41.8 0-72.6-29.4-72.6-65.7 0-40.5 32.2-69.9 71.3-69.9 25.1 0 171.7 0 171.7 0l-19.6 36.3c0 0-120 0-150.7 0-19.6 0-35 9.8-35 32.2 0 19.6 12.6 29.3 35 29.3 32.1 0 87.9 0 110.3 0 47.4 0 76.8 32.2 76.7 67.1z"/>
				<path id="Layer" class="s0" d="m187.2 14.9c11.2 18.1 139.7 220.8 139.7 220.8h-46.1l-117.3-187.3-50.3 81.1h92.2l-23.8 37.7h-92.1l-43.3 69.9h-46.1c0 0 129.9-205.5 139.7-220.8 12.5-18.2 34.9-19.6 47.4-1.4z"/>
				<path id="Layer" class="s0" d="m1348.9 47l-50.3 81.1h92.2l-23.7 37.7h-93.6l-43.3 69.9h-46.1c0 0 129.9-205.4 139.7-220.8 12.5-18.2 34.9-19.6 47.4 1.4 11.2 18.2 139.7 220.8 139.7 220.8h-46.1z"/>
			</g>
		</g>
	</g>
</svg>