<svg version="1.2" xmlns="http://www.w3.org/2000/svg" viewBox="0 0 1586 681" width="1586" height="681">
	<title>atmos-svg</title>
	<style>
		.s0 { fill: #231f20 } 
		.s1 { fill: #007cc3 } 
	</style>
	<path id="Layer" fill-rule="evenodd" class="s0" d="m487.7 520.5l-0.7 16.3q0.2 5.8 1.1 11.6 1 5.7 2.7 11.3 1.7 5.6 4.2 10.9 2.5 5.2 5.7 10.1c8.8 13 24.7 19.7 40.2 19.7 21.5 0 36.4-10.5 46.5-29.2l10.5 5.3c-11.5 25-37.7 38-64.6 38-21.3 0-39.9-5.7-55.4-20.5-3.8-4-7.2-8.2-10.2-12.8-3-4.6-5.5-9.5-7.5-14.5-2.1-5.1-3.6-10.3-4.6-15.7-1-5.3-1.5-10.8-1.5-16.2 0-45.9 28.8-78.8 75.7-79.2 38-0.3 68.7 25.4 68.1 65h-110.2m76.6-13.1c0-23.4-14.9-38.9-36.4-38.9-22.5 0-37.4 18.6-39.6 38.9zm241.5 64.6c0 17.1 2.8 29.2 22.5 30.4h4.1v9.5h-84.2v-9.5h4.4c19.9-1.3 22.7-13 22.7-30.7v-65.2q0.2-3 0-6-0.3-2.9-0.9-5.9-0.7-2.9-1.7-5.7-1-2.8-2.4-5.5-1.9-2.7-4.3-4.9-2.5-2.1-5.4-3.6-2.9-1.5-6-2.2-3.2-0.7-6.5-0.7c-20.9 0-41.2 12.1-56.4 25.3v74.4c0 17.7 2.9 29.5 22.8 30.7h4.4v9.5h-85.7v-9.5h3.5c20.9-0.9 24.7-10.8 24.7-30.7v-65.8c0-17.8-3.2-29.5-23.1-30.7h-5.1v-9.5l48.5-7h10.1v25.1c19-17.7 41.2-28.2 67.5-28.2q4.6 0 9.2 0.8 4.6 0.9 9 2.5 4.4 1.6 8.4 4 4 2.3 7.6 5.4c10.7 9.2 12.3 19.5 12.3 32.9zm88.7-51.6l-0.7 16.3q0.2 5.8 1.1 11.6 1 5.7 2.7 11.3 1.7 5.6 4.2 10.9 2.5 5.2 5.7 10.1c8.8 13 24.7 19.7 40.2 19.7 21.5 0 36.4-10.5 46.5-29.2l10.5 5.4c-11.4 24.9-37.7 37.9-64.6 37.9-21.2 0-39.9-5.7-55.5-20.5-3.7-4-7.1-8.2-10.1-12.8-3-4.6-5.5-9.5-7.5-14.5-2-5.1-3.6-10.3-4.6-15.7-1-5.3-1.5-10.8-1.5-16.2 0-45.9 28.8-78.8 75.7-79.2 38-0.3 68.7 25.4 68.2 65h-110.3zm76.6-13c0-23.4-14.9-39-36.4-39-22.5 0-37.4 18.7-39.6 39zm137.9 64.2c0.6 18.1 3.2 29.5 23.4 30.4l5.4 0.4v9.4h-86.9v-9.4h3.2c20.9-1.3 24.4-11.1 24.4-30.8v-65.8c0-17.7-3.2-29.4-23.1-30.7h-5.1v-9.5l48.5-6.9h10.1v23.7c13.9-14.2 32-26.9 53.2-26.9 10.4 0 23.4 4.1 23.4 16.8 0.1 2.3-0.3 4.5-1.2 6.6-0.8 2.2-2.1 4.1-3.8 5.7-1.6 1.6-3.5 2.9-5.7 3.7-2.1 0.8-4.4 1.2-6.7 1.1-14.9 0-18.4-10.5-28.1-10.5-10.8 0-24.1 9.8-31.1 17.4v75.3zm208.9 22.8c24 3.3 51 6.3 51 35.8 0 43.3-51.4 50-85.2 50-25.7 0-77-3.5-77-37.7 0-18 15.2-22.7 30.1-27.5v-0.7c-12.4-3.2-23.1-11.7-23.1-25.6 0-17.4 15.2-29.4 31-32.3-3.9-2.2-7.5-5-10.7-8.2-3.2-3.3-5.9-6.9-8.1-10.9-2.2-4-3.9-8.2-4.9-12.6-1-4.5-1.5-9-1.3-13.5 1.3-35.2 31-55.7 63.6-55.7q3.7 0 7.4 0.3 3.6 0.4 7.2 1 3.7 0.6 7.2 1.6 3.6 0.9 7 2.1c7.7-14.5 19.5-25.3 36.5-25.3 8.5 0 18.7 3.5 18.7 13.6 0 1.6-0.3 3.1-0.8 4.6-0.6 1.5-1.5 2.8-2.6 3.9-1.1 1.1-2.4 2-3.8 2.6-1.5 0.6-3 0.9-4.6 0.9-7.2 0-13.3-5.6-19.9-5.6-6.7 0-9.8 4.4-13.9 9.1 16.2 11.7 26.2 26.9 26.2 47.5 0 3.8-0.5 7.6-1.4 11.3-0.9 3.7-2.2 7.3-3.8 10.8-1.7 3.4-3.7 6.6-6.1 9.6-2.3 3-5 5.8-8 8.2-12.6 10.4-30.1 13.3-46.2 13.3q-3.7 0-7.3-0.3-3.6-0.3-7.2-0.9-3.6-0.7-7.1-1.6-3.5-1-6.9-2.3c-6.5 2.6-15.2 9.5-15.2 16.8 0 11.1 17.4 12.3 25 13.3 0 0 54.2 4.4 54.2 4.4zm-69.4 23.5c-12 3.8-22.8 8.8-22.8 22.4 0 27.9 39.6 29.8 59.9 29.8 20.3 0 61.1-1.6 61.1-29.3 0-17.7-22.8-16.7-35.8-18.3l-62.3-4.7zm1.9-107c0 23.7 6.5 43.7 34.2 43.7 10.7 0 22.4-5.1 27.5-14.9 4.1-7.9 5.1-20.9 5.1-29.8 0-23.1-5.7-43-32.5-43-26.3 0-34.2 21.8-34.2 44zm270.1 0.3c2.9-7.9 7.3-19.5 7.3-27.9 0-12-12.3-13.9-21.5-15.1v-9.5h70.3v9.5c-21.2 3.5-27.2 13.9-34.8 32.3l-50.7 121.8c-5.7 13.6-11.1 26.6-20.6 37.6q-4 4.6-8.8 8.2-4.8 3.6-10.3 6.2-5.4 2.5-11.3 4-5.8 1.4-11.9 1.6c-11.7 0-28.4-5.7-28.4-19.5 0-2.1 0.4-4.2 1.3-6.2 0.8-1.9 2-3.7 3.6-5.2 1.5-1.4 3.3-2.6 5.3-3.3 2-0.8 4.1-1.2 6.2-1.1 14.6 0 14.6 16.5 29.3 16.5 15.8 0 26.3-26.3 31-38l1.3-2.6-53.8-128.8c-7.4-16.8-8.6-21.5-28.5-23.4v-9.5h75.3v9.5c-6.9 0.3-17.4 2.2-17.4 11q0.1 1.4 0.3 2.7 0.2 1.3 0.5 2.6 0.4 1.3 0.9 2.5 0.5 1.2 1.2 2.4l37 92.7 27.2-70.9z"/>
	<path id="Layer" fill-rule="evenodd" class="s1" d="m389.1 62.7h258.8v103.2l-67.7 0.1v236.3h-123.5v-236.3l-67.6-0.1zm384.5 216.2l-17.4 123.2h-123.1l47.7-339.2h106.3l51 111.3 50.9-111.3h106.4l47.7 339.2h-123.2l-17.3-123.2-64.5 128.1zm503.2-207.6c21.3 8.8 40.6 21.7 56.9 38 16.2 16.2 29.1 35.5 37.9 56.7 8.8 21.3 13.3 44 13.3 67 0 70.8-42.6 134.6-108.1 161.7-65.4 27.1-140.7 12.1-190.8-37.9-50.1-50.1-65.1-125.4-38-190.8 27.2-65.4 91-108 161.8-108 23 0 45.8 4.5 67 13.3zm-44.5 215.9c7.1-2.9 13.5-7.2 19-12.6 5.4-5.5 9.8-11.9 12.7-19 3-7.1 4.5-14.7 4.5-22.4 0-23.7-14.2-45-36.1-54-21.8-9.1-47-4.1-63.7 12.6-16.7 16.7-21.8 41.8-12.8 63.6 9 21.9 30.3 36.2 53.9 36.2 7.7 0.1 15.4-1.4 22.5-4.4zm-1163.7-101.6l288.4-13.9 10.2 28.2-298.6-13.8zm-11.9 33.9l312.6-13.9 10.2 28.1-322.8-13.8zm-11.8 33.9l336.6-13.9 10.2 28.2-346.8-13.8zm43.6-92.9l58.1-160.4h148.3l60.2 166.1zm128.9 115.3l-42.6 126.6h-174l44.8-124.2zm176-2.5l46.6 129.1h-174.1l-42.7-126.6zm1045.2 43.8c15.5 0.9 25.7-2.8 28.5-16.5q0.3-1.4 0.4-2.8 0-1.4-0.2-2.8-0.2-1.4-0.6-2.8-0.4-1.4-1-2.6c-6.1-13.9-24.5-27.4-24.5-27.4-38.7-27.1-55.8-63.3-55.8-97.2 0-61.6 55.5-107.4 117.3-107.4 52.8 0 67.4 10.7 67.4 10.7l3.8 96.8q-5.1-3.9-10.7-6.8-5.6-3-11.6-5-6.1-2-12.3-3-6.3-1-12.7-1c-17.9 0-29.7 8.8-29.7 23.9 0 10.1 17.8 21 26 27.1q5.4 3.7 10.4 7.8 5.1 4.2 9.8 8.7 4.7 4.6 9.1 9.5 4.3 4.9 8.2 10.1 5.2 7.1 9.2 14.9 3.9 7.8 6.7 16.1 2.7 8.3 4 16.9 1.4 8.7 1.4 17.4c0 61.7-51.4 111.8-113.1 111.8-52.9 0-83.2-17.6-83.2-17.6v-97.8c0 0 25.1 19.1 53.1 19.1z"/>
	<path id="Layer" fill-rule="evenodd" class="s0" d="m1548.7 595.8c-0.1-7.6 4.5-14.4 11.4-17.3 7-2.9 15-1.4 20.4 4 5.3 5.3 7 13.3 4.1 20.3-2.9 7-9.7 11.5-17.3 11.5-2.4 0-4.8-0.4-7.1-1.3-2.3-1-4.3-2.3-6.1-4-1.7-1.8-3.1-3.8-4-6.1-1-2.3-1.4-4.7-1.4-7.1zm34.4 0c0.1-6.4-3.7-12.2-9.6-14.7-5.9-2.4-12.8-1.1-17.3 3.4-4.5 4.5-5.9 11.3-3.5 17.2 2.5 5.9 8.2 9.8 14.6 9.8 2.1 0 4.1-0.5 6.1-1.2 1.9-0.8 3.6-2 5.1-3.4 1.4-1.5 2.6-3.2 3.4-5.1 0.8-1.9 1.2-4 1.2-6zm-10.3 10l-6.1-9.3h-3.5v9.3h-2.8v-20.3h8.8c3.7 0 7.3 1 7.3 5.4 0 4.3-2.8 5.5-6.5 5.6l6.1 9.3zm-6.1-12.2c2.5 0 7 0.5 7-2.8 0-2.1-2.8-2.4-5-2.4h-5.4v5.2z"/>
</svg>