<svg version="1.2" baseProfile="tiny-ps" xmlns="http://www.w3.org/2000/svg" viewBox="0 0 1600 658" width="1600" height="658">
	<title>AT&amp;T_logo_2016-svg</title>
	<style>
		tspan { white-space:pre }
		.shp0 { fill: #000000 } 
		.shp1 { fill: #00a8e0 } 
	</style>
	<g id="g3">
		<path id="path5" fill-rule="evenodd" class="shp0" d="M1480.08 460.79C1475.81 460.79 1472.86 457.82 1472.86 453.56L1472.86 241.57L1400.88 241.57C1396.6 241.57 1393.65 238.62 1393.65 234.35L1393.65 205.11C1393.65 200.83 1396.6 197.86 1400.88 197.86L1592.48 197.86C1596.75 197.86 1599.7 200.83 1599.7 205.11L1599.7 234.35C1599.7 238.62 1596.75 241.57 1592.48 241.57L1520.5 241.57L1520.5 453.55C1520.5 457.82 1517.54 460.79 1513.28 460.79L1480.08 460.79ZM1012.51 452.23C1014.16 456.51 1011.53 460.79 1006.93 460.79L972.76 460.79C967.82 460.79 964.86 458.5 963.21 453.87L943.83 398.02L837.69 398.02L818.28 453.87C816.65 458.5 813.68 460.79 808.76 460.79L776.57 460.79C772.29 460.79 769.33 456.51 770.97 452.23L860.03 204.45C861.68 199.83 864.63 197.87 869.55 197.87L913.59 197.87C918.52 197.87 921.81 199.84 923.45 204.45L1012.51 452.23ZM928.71 354.96L890.92 246.51L852.8 354.96L928.71 354.96ZM1428.16 451.59C1432.43 456.19 1429.81 460.79 1424.53 460.79L1382.8 460.79C1377.21 460.79 1374.26 459.47 1370.64 455.19L1345.67 427.6C1328.91 449.95 1305.56 466.7 1266.79 466.7C1218.81 466.7 1181.01 437.79 1181.01 388.17C1181.01 350.03 1201.4 329.65 1232.29 312.57C1217.16 295.15 1210.27 276.74 1210.27 260.65C1210.27 219.88 1238.86 191.95 1281.9 191.95C1325.94 191.95 1352.89 217.93 1352.89 256.37C1352.89 289.24 1329.24 307.62 1304.25 321.44L1341.07 361.22L1361.77 325.05C1364.39 320.79 1367.35 319.14 1372.6 319.14L1404.47 319.14C1409.74 319.14 1412.7 322.76 1409.42 328.34L1372.61 391.44L1428.16 451.59ZM1282.57 232.7C1265.48 232.7 1255.63 243.55 1255.63 258.01C1255.63 269.19 1261.53 279.05 1275.01 293.51C1298.34 280.03 1308.2 271.81 1308.2 257.36C1308.2 243.87 1299.66 232.7 1282.57 232.7ZM1267.78 425.29C1288.81 425.29 1302.94 415.12 1314.45 397.69L1261.22 340.5C1240.83 352.01 1227.68 363.5 1227.68 386.51C1227.69 409.19 1246.08 425.29 1267.78 425.29ZM1100.2 460.79L1067 460.79C1062.73 460.79 1059.76 457.82 1059.76 453.55L1059.76 241.57L987.8 241.57C983.53 241.57 980.58 238.62 980.58 234.35L980.58 205.11C980.58 200.83 983.53 197.86 987.8 197.86L1179.4 197.86C1183.67 197.86 1186.63 200.83 1186.63 205.11L1186.63 234.35C1186.63 238.62 1183.67 241.57 1179.4 241.57L1107.44 241.57L1107.44 453.56C1107.44 457.82 1104.47 460.79 1100.2 460.79Z" />
		<path id="path9" class="shp1" d="M127.62 588.66C183.35 631.82 253.3 657.75 329.2 657.75C412.26 657.75 487.97 626.9 545.76 576.26C546.46 575.64 546.12 575.23 545.43 575.64C519.49 592.97 445.59 630.79 329.2 630.79C228.06 630.79 164.14 608.21 128.05 588.05C127.36 587.71 127.1 588.23 127.62 588.66ZM351.52 605.46C432.41 605.46 521.31 583.4 574.47 539.73C589.02 527.83 602.88 511.99 615.29 490.71C622.44 478.46 629.43 463.91 635.12 449.61C635.37 448.91 634.94 448.58 634.42 449.36C584.97 522.15 441.8 567.55 293.97 567.55C189.48 567.55 77.05 534.12 33.03 470.29C32.59 469.7 32.16 469.95 32.42 470.63C73.43 557.83 197.83 605.46 351.52 605.46ZM263.13 460.81C94.88 460.81 15.55 382.41 1.16 328.91C0.98 328.14 0.47 328.31 0.47 329C0.47 347.01 2.27 370.26 5.37 385.68C6.85 393.19 12.96 404.98 21.92 414.37C62.66 456.86 164.23 516.39 340.13 516.39C579.8 516.39 634.6 436.52 645.79 410.25C653.79 391.47 657.94 357.52 657.94 329.01C657.94 322.11 657.76 316.59 657.5 311.18C657.5 310.3 657 310.23 656.82 311.09C644.84 375.36 440.08 460.81 263.13 460.81ZM32.16 187.97C22.52 207.11 11.83 239.41 8.66 256.12C7.26 263.28 7.86 266.72 10.37 272.06C30.53 314.87 132.54 383.36 370.47 383.36C515.62 383.36 628.38 347.68 646.65 282.57C650.01 270.59 650.19 257.93 645.87 240.88C641.04 221.83 632 199.61 624.35 184.01C624.09 183.5 623.65 183.58 623.74 184.18C626.58 269.57 388.56 324.6 268.46 324.6C138.37 324.6 29.85 272.75 29.85 207.28C29.85 200.99 31.15 194.69 32.77 188.14C32.93 187.55 32.42 187.45 32.16 187.97ZM546.29 83.13C547.68 85.29 548.36 87.61 548.36 90.72C548.36 127.24 436.62 191.86 258.74 191.86C128.05 191.86 103.58 143.35 103.58 112.5C103.58 101.48 107.8 90.19 117.11 78.74C117.62 78.05 117.19 77.79 116.6 78.3C99.62 92.69 84.02 108.89 70.34 126.38C63.8 134.65 59.74 141.97 59.74 146.36C59.74 210.29 219.96 256.64 369.78 256.64C529.41 256.64 600.65 204.51 600.65 158.69C600.65 142.32 594.28 132.76 577.98 114.23C567.4 102.17 557.4 92.35 546.81 82.69C546.29 82.27 545.94 82.61 546.29 83.13ZM497.36 46.61C448.09 17.07 390.88 0.26 329.2 0.26C267.1 0.26 208.16 17.65 158.72 47.98C143.89 57.11 135.54 64.43 135.54 73.83C135.54 101.56 200.32 131.38 315.24 131.38C428.97 131.38 517.18 98.72 517.18 67.29C517.18 59.78 510.62 54.53 497.36 46.61Z" />
	</g>
</svg>