<svg version="1.2" xmlns="http://www.w3.org/2000/svg" viewBox="0 0 1570 714" width="1570" height="714">
	<title>logo-adp-fy19-svg</title>
	<style>
		.s0 { fill: #d0271d } 
	</style>
	<path id="Layer" fill-rule="evenodd" class="s0" d="m1570 280.5c0 36.8-7.3 73.3-21.3 107.3-14.1 34-34.8 64.9-60.8 91-26 26-57 46.7-91 60.8-34 14.1-70.4 21.3-107.3 21.3v152.6h-242.2v-118.9c-16.6 18.9-35.2 35.9-55.5 50.8-20.2 14.9-42 27.5-65 37.8-22.9 10.2-46.9 17.9-71.5 23-24.7 5.1-49.7 7.6-74.9 7.3h-228.8v-152.6h-179.4l-89.7 152.6h-282.6l414.9-713.5h367.9c25 0.2 50 3 74.5 8.3 24.5 5.3 48.4 13.2 71.3 23.4 22.9 10.2 44.7 22.7 65 37.4 20.4 14.6 39.1 31.3 56.1 49.8v-118.9h242.2c36.6 0.2 72.9 7.7 106.7 21.9 33.7 14.2 64.4 34.9 90.2 60.9 25.8 26 46.3 56.9 60.2 90.8 13.9 33.9 21.1 70.2 21 106.9zm-787.2 343.3c25.2 0 50.3-3.5 74.5-10.4 24.2-7 47.3-17.4 68.7-30.8 21.3-13.4 40.6-29.8 57.4-48.7 16.7-18.8 30.7-39.9 41.6-62.7h114.4v152.6h62.8v-152.6h89.7c25 0 49.8-4.9 73-14.5 23.1-9.5 44.1-23.6 61.9-41.3 17.7-17.7 31.7-38.8 41.3-61.9 9.5-23.2 14.5-48 14.4-73-0.2-25.2-5.4-50.1-15.2-73.3-9.8-23.1-24-44.2-41.9-61.9-17.9-17.7-39.1-31.7-62.4-41.2-23.3-9.5-48.2-14.4-73.4-14.3h-152.5v228.8h-89.7c-4.8-31.5-15.1-61.8-30.4-89.7-15.4-27.9-35.6-52.8-59.7-73.6-24-20.8-51.6-37.2-81.4-48.4-29.8-11.2-61.3-17-93.1-17.1h-314l-311.8 534h74l89.7-152.6h320.8v152.6zm204.1-267c-0.1 26.7-5.5 53.3-15.8 78-10.2 24.7-25.3 47.2-44.2 66.1-19 19-41.4 34-66.1 44.3-24.8 10.3-51.3 15.6-78 15.7h-78.5v-89.7h78.5c30.3 0 59.4-12.1 80.8-33.5 21.5-21.5 33.5-50.6 33.5-80.9 0-30.4-12-59.5-33.5-81-21.4-21.4-50.5-33.5-80.8-33.5h-78.5v-89.7h78.5c26.7 0.1 53.2 5.4 78 15.7 24.7 10.3 47.1 25.3 66.1 44.3 18.9 18.9 34 41.4 44.2 66.1 10.3 24.8 15.7 51.3 15.8 78.1zm-345.4-204.2v255.8h-282.6l51.5-89.8h141.3v-166zm696.9 10.1c15.5 6.5 29.5 15.9 41.3 27.7 11.9 11.9 21.3 25.9 27.8 41.3 6.5 15.5 9.9 32 10.1 48.8 0 16.8-3.3 33.4-9.8 48.9-6.4 15.5-15.8 29.6-27.7 41.5-11.8 11.9-25.9 21.3-41.4 27.7-15.6 6.5-32.2 9.8-49 9.8h-89.7v-89.8h89.7c5-0.1 9.9-1.2 14.5-3.2 4.5-1.9 8.7-4.8 12.2-8.3 3.5-3.5 6.3-7.6 8.3-12.2 1.9-4.6 3-9.5 3.2-14.4 0-5-1-10-2.9-14.7-1.9-4.6-4.7-8.8-8.2-12.4-3.6-3.5-7.8-6.3-12.4-8.2-4.7-1.9-9.7-2.9-14.7-2.9h-89.7v-89.7h89.7c16.8 0.1 33.3 3.6 48.7 10.1z"/>
	<path id="Layer" fill-rule="evenodd" class="s0" d="m1420.8 685.8c-2.3 5.5-5.6 10.4-9.7 14.6-4.2 4.1-9.1 7.4-14.6 9.7-5.4 2.3-11.3 3.4-17.1 3.4-18.2 0-34.5-10.9-41.5-27.7-6.9-16.8-3.1-36.1 9.7-48.9 12.9-12.8 32.2-16.7 48.9-9.7 16.8 6.9 27.7 23.3 27.7 41.4 0 5.9-1.1 11.8-3.4 17.2zm-8.2-31c-1.7-4.4-4.4-8.3-7.7-11.7-3.4-3.3-7.4-6-11.7-7.8-4.4-1.7-9.1-2.6-13.8-2.6-14.6 0-27.6 8.8-33.2 22.2-5.6 13.4-2.5 28.9 7.8 39.1 10.2 10.3 25.7 13.4 39.1 7.8 13.4-5.6 22.1-18.6 22.1-33.2 0.1-4.7-0.8-9.4-2.6-13.8z"/>
	<path id="Layer" fill-rule="evenodd" class="s0" d="m1394.8 649.2q0.8 1.6 1.1 3.4 0.3 1.8 0.1 3.6-0.2 1.8-0.9 3.5 0.1 1.1 0 2.3-0.1 1.2-0.4 2.3-0.3 1.2-0.7 2.3-0.5 1.1-1.2 2c-2.2 2.3-4.5 4.5-6.7 4.5l13.4 22.5h-8.9l-11.2-20.2h-9v20.2h-6.7v-53.9h17.9q1.5 0 3.1 0.3 1.5 0.4 2.9 0.9 1.5 0.6 2.8 1.4 1.3 0.9 2.4 1.9 1.2 1.3 2 3zm-22.2-0.8v18h9c2.4 0 4.7-1 6.3-2.6 1.7-1.7 2.7-4 2.7-6.4 0-2.4-1-4.6-2.7-6.3-1.6-1.7-3.9-2.7-6.3-2.7z"/>
</svg>