<svg version="1.2" xmlns="http://www.w3.org/2000/svg" viewBox="0 0 1555 166" width="1555" height="166">
	<title>az-logo-full-svg</title>
	<defs>
		<clipPath clipPathUnits="userSpaceOnUse" id="cp1">
			<path d="m1527.09 0.54h27.49v27.21h-27.49z"/>
		</clipPath>
	</defs>
	<style>
		.s0 { fill: #d52b1e } 
		.s1 { fill: #f37f00 } 
	</style>
	<g id="Layer">
		<g id="Layer">
			<g id="Clip-Path" clip-path="url(#cp1)">
				<path id="Layer" fill-rule="evenodd" class="s0" d="m1540.8 27.7c-7.6 0-13.7-6-13.7-13.6 0-7.5 6.1-13.6 13.7-13.6 7.6 0 13.8 6.1 13.8 13.6 0 7.6-6.2 13.6-13.8 13.6zm11-13.6c0-6.2-4.9-11.3-11-11.3-6 0-11 5.1-11 11.3 0 6.3 5 11.4 11 11.4 6.1 0 11-5.1 11-11.4zm-13.8 1q0 0 0 0zm0 0c0 0 0 6.9 0 6.9h-2.3v-15.7h5.9c3.7 0 5.5 1.3 5.5 4.5 0 2.7-1.8 4-4.1 4.2l4.5 7h-2.7l-4.1-6.9zm2.8-1.9c2 0 3.9-0.2 3.9-2.6 0-1.9-1.8-2.3-3.5-2.3h-3.2v4.9z"/>
			</g>
		</g>
		<path id="Layer" fill-rule="evenodd" class="s1" d="m576.3 0l-91.2 160.1h-30.5l91.1-160.1zm34.4 0q0 0 0 0zm0 0c0 0-58.3 102.5-58.3 102.5l-32.9 57.6h-18.9l91.2-160.1zm58.1 0l-91 160.1h-5.4l91.1-160.1zm-27.2 0l-91.1 160.1h-11.1l91.1-160.1zm-318.8 0l-91.1 160.1h-230.8v-160.1zm211.7 0l-91.2 160.1h-47.9l91.1-160.1zm-128.4 0l-91.1 160.1h-77.1l91.1-160.1zm71.2 0l-91.2 160.1h-63.4l91.1-160.1z"/>
		<path id="Layer" fill-rule="evenodd" class="s0" d="m893.1 40l-53.9 92.5-0.1 0.1c-16 27-50.1 28.9-66.3 26.9-28.6-3.5-40.1-19.4-31.3-35.2 0 0 49.3-84.3 49.3-84.3h43.3l-43.6 73.9c-2 3.7-5 9.1 2.1 10.5 5.8 1.1 9.5-0.7 13.1-7.1l44.3-77.3c0 0 43.1 0 43.1 0zm8.1 84.7c-0.4 0.9-0.2 1.8 0.2 2.7 0.6 1.4 2.4 1.2 3.9 1.2h20l-18.4 31.5h-26.5c-10.1 0-15.6-3.4-21-10.2-7.4-9.3-7.9-19.6-2.8-28.8l56.1-96.1h46.8l-10.4 17.7h23.8l-19.6 33.7h-23.8zm-126.9-80.1l-65.5 115.5h-46l19.9-35.1h-22.6l-19.8 35.1h-46.3l71.1-125.8c17.4-33.6 57.1-36 75.7-33.6 33.9 4.3 44.4 23.5 33.5 43.9zm-56.3-1.9c-8.2-0.8-13.4 3.4-16 8.2l-20.3 36h22.5l18.5-32.8c4.3-7.2 2.1-10.7-4.7-11.4zm334.9 50.7c-17.8 52-49.7 73.4-83 71.5-33-1.8-37.6-28.1-26.8-59.5 15-43.8 47.8-72.2 82.6-70.3 30.3 1.7 38 27 27.2 58.3zm-40.9-20.6c-7.8-1.4-17.2 11.2-25.9 28.6-6.3 12.4-8.6 21.7-2.3 23 8.8 1.7 15.8-8.5 26.2-29.1 6.3-12.4 9.3-21.2 2-22.5zm417.3 0.6l-49.1 86.7h-42.9l40.9-72.2c1.7-3.2 0.2-8-5-9.1-5.8-1.2-9.7 4.6-12.5 9.6l-40.7 71.6h-43.2l67.7-118.8h39.3l-4.5 8.1c0 0 13.6-13.2 34.3-8.1 11.3 2.8 22.4 19.6 15.7 32.2zm-307.2 49h60.2l-21.4 37.7h-128.3l24.4-42.6 108.3-79.6h-63.1l21.6-37.9h128.1l-25.1 44.1zm408.7-29q-3.2 8.9-6.9 16.7h-63.6c-4 10-5.7 19.6-0.6 20.5 5.4 1.1 11-4.5 17-13.7h43.7c-18.9 34.9-44.3 49.6-72.8 48-33.9-1.8-36.4-28.1-25.4-59.5 15.5-43.8 47-72.2 82.8-70.3 31.1 1.7 36.8 26.9 25.8 58.3zm-42.7-20.6c-6.4-1.2-13.8 7.3-21 20.1h20.1c5.4-11.1 7.6-18.9 0.9-20.1z"/>
		<path id="Layer" fill-rule="evenodd" class="s0" d="m1302.2 93.4c-17.8 52-49.7 73.4-83.1 71.6-32.9-1.8-37.5-28.2-26.7-59.6 15-43.8 47.7-72.2 82.6-70.3 30.3 1.7 37.9 27 27.2 58.3zm-40.9-20.6c-7.8-1.4-17.2 11.2-25.9 28.6-6.3 12.4-8.6 21.7-2.3 23 8.7 1.8 15.8-8.5 26.2-29.1 6.2-12.4 9.3-21.2 2-22.5z"/>
	</g>
</svg>