<svg version="1.2" xmlns="http://www.w3.org/2000/svg" viewBox="0 0 1506 1506" width="1506" height="1506">
	<title>2023-Citi-Presentation-(FINAL)-2-pdf-svg</title>
	<defs>
		<clipPath clipPathUnits="userSpaceOnUse" id="cp1">
			<path d="m-17456-12849.3h19324.8v14934.78h-19324.8z"/>
		</clipPath>
	</defs>
	<style>
		.s0 { fill: #25346e } 
	</style>
	<g id="Clip-Path: Page 1" clip-path="url(#cp1)">
		<g id="Page 1">
			<path id="Path 3" fill-rule="evenodd" class="s0" d="m1 0.2h1504.2v1505.7h-1504.2zm43.9 1458.1h1416.4v-1417.8h-1416.4zm186.7-134.3c-4.9 17.1-19.6 35.4-44 35.4-29.2 0-43.9-23.2-43.9-47.6 0-25.6 14.7-46.3 43.9-46.3 33 0 39.1 20.7 41.5 26.8l-12.2 2.5c0-2.5-2.4-6.1-4.9-12.2-3.6-2.5-12.2-8.6-24.4-8.6-8.5 0-17 3.7-23.1 12.2-6.1 6.1-6.1 14.7-6.1 25.6 0 20.8 9.7 35.4 29.2 35.4 14.7 0 26.9-6.1 29.3-23.2zm58.6 35.4c-29.3 0-46.4-20.7-46.4-47.6 0-34.1 26.9-46.3 46.4-46.3 24.4 0 43.9 17.1 43.9 46.3 0 26.9-14.6 47.6-43.9 47.6zm32.9-46.9c0-21.3-14.4-38.5-32.3-38.5-17.9 0-32.3 17.2-32.3 38.5 0 21.2 14.4 38.4 32.3 38.4 17.9 0 32.3-17.2 32.3-38.4zm117.1-44.6v87.9h-12.2v-75.7l-25.6 75.7h-9.7l-25.7-73.2v73.2h-12.2v-87.9h14.7l29.3 73.2 26.8-73.2zm108.6 0v87.9h-12.2l2.4-75.7-29.3 75.7h-8.5l-25.6-73.2v73.2h-9.8v-87.9h14.7l26.8 73.2 26.8-73.2zm92.8 0v56.1c0 2.5 0 8.6-2.5 12.2 0 11-12.2 23.2-31.7 23.2-9.8 0-20.7-3.6-26.8-12.2-6.1-8.5-6.1-14.6-6.1-23.2v-56.1h12.2v53.7c0 8.5 0 14.6 2.4 19.5 6.1 6.1 14.6 6.1 18.3 6.1 11 0 17.1-2.4 19.5-14.6 3.7-2.5 3.7-6.1 3.7-11v-53.7zm93.9 0v87.9h-12.2l-46.3-73.2v73.2h-12.2v-87.9h12.2l46.3 70.8v-70.8zm23.2 0h12.2v87.9h-12.2zm67.1 9.7v78.1h-11v-78.1h-26.8v-9.7h64.6v9.7zm41.5-9.7h11v87.8h-11zm48.8 47.6v31.7h50v8.6h-61v-87.9h61v9.8h-50v25.6h43.9v12.2zm100.1 0c-12.2-3.7-31.7-6.1-31.7-26.8 0-8.6 4.8-14.7 8.5-17.1 8.5-6.1 17.1-6.1 23.2-6.1 6.1 0 14.6 0 23.2 6.1 8.5 6.1 12.2 14.6 12.2 20.7h-12.2c0-3.6 0-9.7-8.6-14.6-2.4-3.7-8.5-3.7-14.6-3.7-8.6 0-20.8 3.7-20.8 14.7 0 8.5 12.2 12.2 18.3 12.2l11 2.4c6.1 3.7 8.6 3.7 12.2 6.1 14.7 6.1 14.7 14.6 14.7 20.8 0 8.5-3.7 17-8.6 23.1-9.7 6.1-20.7 6.1-26.8 6.1-6.1 0-35.4-3.6-35.4-32.9h12.2c0 3.7 0 12.2 6.1 18.3 4.9 2.4 11 6.1 19.5 6.1 12.2 0 20.8-6.1 20.8-18.3 0-11-8.6-14.7-17.1-14.7zm-788.1-412.4l47.5 307.5h-41.4l-6.1-56.1h-46.4l-6.1 56.1h-41.5l43.9-307.5zm-25.6 58.6c-3.6 40.3-3.6 43.9-3.6 50l-14.7 105h39.1l-14.7-105c-3.6-12.2-3.6-24.4-3.6-50zm179.3 17.1l-35.4 231.8h-43.9l-32.9-231.8h35.3l14.7 117.1c3.6 26.9 3.6 47.6 3.6 70.8h2.5c2.4-14.7 2.4-41.5 2.4-58.6l18.3-129.3zm14.7 43.9c0-12.2 0-50 50-50 52.4 0 52.4 35.4 52.4 50v148.9c0 14.6 0 26.8 6.1 37.8h-39c-2.4-8.5-2.4-8.5-4.9-17.1-6.1 8.6-14.6 20.8-35.4 20.8-32.9 0-32.9-26.9-32.9-37.9v-43.9c0-14.6 0-29.3 20.7-41.5l35.4-23.2c8.6-3.6 14.7-8.5 14.7-12.2v-35.4c0-8.5-2.5-17-14.7-17-17.1 0-17.1 12.2-17.1 17v33h-35.3zm67.1 69.5c-2.5 3.7-14.7 12.2-20.8 18.3-11 6.1-14.6 11-14.6 23.2v23.2c0 12.2 0 29.3 14.6 29.3 20.8 0 20.8-31.7 20.8-35.4zm61-190.3h35.3v307.4h-35.3zm58.5 137.9c0-23.2 0-64.6 56.1-64.6 50.1 0 50.1 35.3 50.1 53.6v131.8c0 14.7 0 52.5-52.5 52.5-53.7 0-53.7-37.8-53.7-64.7zm73.2-14.6c0-12.2-2.4-23.2-17.1-23.2-17 0-17 14.6-17 25.6v137.9c0 8.5 0 20.7 14.6 20.7 17.1 0 19.5-14.6 19.5-23.1zm91.5-33c6.1-8.5 14.7-19.5 35.4-19.5 34.2 0 34.2 31.7 34.2 48.8v187.9h-37.9v-181.8c0-8.5 0-23.2-14.6-23.2-17.1 0-17.1 17.1-17.1 29.3v175.7h-35.4v-231.8h35.4zm96.4-90.3h73.2c46.4 0 46.4 17.1 46.4 79.3 0 43.9 0 64.7-31.8 64.7v2.4c12.2 0 29.3 2.4 31.8 23.2 0 3.6 0 6.1 0 62.2 0 61-2.5 75.7-58.6 75.7h-61zm41.5 129.3c29.3 0 31.7 0 34.1-9.8 3.7-4.8 3.7-29.3 3.7-40.2 0-6.1 0-14.7 0-23.2 0-12.2-3.7-14.7-6.1-18.3-2.4 0-2.4 0-31.7 0zm0 35.4v104.9h19.5c12.2 0 14.6 0 18.3-4.9 2.4-6.1 2.4-41.5 2.4-47.6 0-46.3-2.4-52.4-20.7-52.4zm102.5-44c0-12.2 0-50 50-50 50 0 50 35.4 50 50v148.9c0 14.6 0 26.8 8.6 39h-37.9c-2.4-9.7-2.4-9.7-6.1-18.3-6.1 8.6-14.6 20.8-35.3 20.8-31.8 0-31.8-26.9-31.8-37.8v-44c0-14.6 0-29.2 23.2-41.4l33-23.2c4.8-2.5 14.6-8.6 14.6-12.2v-34.2c0-9.8-3.7-18.3-18.3-18.3-14.6 0-14.6 12.2-14.6 18.3v31.7h-35.4zm68.3 70.8c-6.1 2.4-14.6 11-24.4 17.1-8.5 6.1-11 12.2-11 23.2v23.1c0 12.2 0 29.3 14.7 29.3 20.7 0 20.7-31.7 20.7-34.1zm87.8-114.7l14.7 137.8c0 6.1 2.4 37.9 2.4 46.4h2.5c3.6-43.9 3.6-52.5 9.7-87.8l11-96.4h35.4l-43.9 257.4c-6.1 29.3-20.8 35.4-44 35.4-2.4 0-2.4 0-17 0v-35.4c10.9 3.7 29.2 3.7 29.2-20.7 0-2.5-3.6-4.9-3.6-11l-35.4-225.7z"/>
		</g>
	</g>
</svg>