<svg version="1.2" xmlns="http://www.w3.org/2000/svg" viewBox="0 0 1518 298" width="1518" height="298">
	<title>logo-black-svg</title>
	<style>
		.s0 { fill: #000000 } 
	</style>
	<path id="Layer" class="s0" d="m308.3 237.8c1 1 2.7-0.2 2.1-1.5l-114-197-21.6-37.2c-0.8-1.7-2.3-1.7-3.1-1.7-0.9 0-2.1 0.4-2.8 2.1l-30.8 103.6c-4.9 16.3 7.1 32.5 24.1 32.5h31c18 0 35.1 7.9 47 21.4zm-191.6-124.9l24.1-80.5c0.5-1.5-1.5-2.4-2.3-1.1l-138.1 239c-0.8 1.7-0.2 3 0.5 3.8 0.6 0.9 1.9 1.7 3.8 0.9l0.4-0.2 122.4-45c14.6-5.5 20.9-22.7 13.1-36.4l-18.2-31.7c-8.6-14.8-10.7-32.5-5.7-48.8zm171.3 180.1h36.6c1.6 0 2.5-1.3 2.9-2 0.2-0.6 0.6-2.1-0.4-3.3l-92.2-105.7c-11.4-13.1-32.1-11-40.8 4l-17.5 30.4c-7.4 12.7-18.9 22.2-32.6 27.3l-128.3 46.9c-1.3 0.4-1.1 2.4 0.4 2.4z"/>
	<path id="Layer" fill-rule="evenodd" class="s0" d="m546.5 29l116.7 262.7h-30l-44.1-99.2-9.6 21.6c-1.3 3-4.2 4.9-7.6 4.9h-125.4l-32.3 72.7h-30l116.7-262.7c3.8-9.3 12.9-15.3 22.8-15.3 10.1 0 19 6 22.8 15.3zm43.4 161.6h-1.6l0.8 1.9zm-1.7 0l-62.4-140.4c-0.8-1.9-3.6-1.9-4.4 0l-62.4 140.4zm487.4 107.3c-82.4 0-149-66.6-149-149 0-82.4 66.6-149 149-149 82.5 0 149.1 66.6 149.1 149 0 82.4-66.6 149-149.1 149zm122-149c0-67.5-54.5-122.1-122.1-122.1-67.5 0-122.1 54.6-122.1 122.1 0 67.6 54.6 122.2 122.1 122.2 67.6 0 122.1-54.6 122.1-122.2zm-372.5-2.9c-1.3 1.9-1.3 4.2 0 6.1l93.7 139.3h-32.6l-83.5-124.1c-1.7-2.5-5.7-2.5-7.4 0l-83.5 124.1h-32.6l93.9-139.3c1.3-1.9 1.3-4.2 0-6.1l-93.9-139.3h32.6l83.7 124.3c1.7 2.5 5.7 2.5 7.4 0l83.5-124.3h32.6zm692.8-139.3v284.5h-27.5l-194.3-257.4v257.4h-26.8v-258.9c0-13.5 9.9-25.2 23-26.7 9.1-1 18 2.6 23.7 9.8l175.1 231.8v-240.5z"/>
</svg>