<svg version="1.2" xmlns="http://www.w3.org/2000/svg" viewBox="0 0 1579 255" width="1579" height="255">
	<title>Baker_Hughes_logo-svg</title>
	<style>
		.s0 { fill: #1ca18a } 
		.s1 { fill: #61c799 } 
		.s2 { fill: #0c2e21 } 
	</style>
	<g id="layer1">
		<g id="g16691">
			<path id="path12565" class="s0" d="m1557.8 135c8.2 3 15.2 9.6 18.4 18.5 5.8 16-2.5 33.8-18.4 39.6l-159.4 58.1c-27.3 9.9-57.4-4.2-67.3-31.5-9.9-27.2 4.2-57.4 31.4-67.4-18 6.6-27.2 26.4-20.7 44.4 6.6 17.9 26.4 27.1 44.3 20.6l146.1-53.3-169.7-61.7c-18-6.6-27.2-26.4-20.7-44.4 6.6-17.9 26.4-27.1 44.3-20.6-8.6-3.2-18 1.3-21.2 9.9-3.1 8.5 1.3 18 9.9 21.2z"/>
			<path id="path12567" class="s1" d="m1532.2 90.5l-146.1-53.2c-17.9-6.5-37.7 2.7-44.3 20.6-6.5 18 2.7 37.8 20.7 44.3-27.2-9.9-41.3-40.1-31.4-67.4 9.9-27.3 40.1-41.4 67.3-31.4l159.4 58.1c15.9 5.8 24.2 23.5 18.4 39.6-3.3 8.9-10.2 15.4-18.4 18.4l-183 66.7c-8.6 3.1-13 12.6-9.9 21.2 3.2 8.6 12.7 13 21.2 9.9-17.9 6.5-37.7-2.7-44.3-20.6-6.5-18 2.7-37.8 20.7-44.3z"/>
			<path id="path12569" fill-rule="evenodd" class="s2" d="m0.2 43.3h50.4c30.2 0 50.6 12.1 50.6 36.8 0 16.3-11.8 27.3-26.2 30.6v0.5c22.3 3 33.8 18.9 33.8 36.3 0 27-21.8 42-50.9 42h-57.7zm48.9 22.9h-20v35.4h21.1c14.3 0 20.7-7.1 20.7-18.5 0-10.9-8.1-16.9-21.8-16.9zm4.5 57.9h-24.5v42.2h25.8c15 0 23.2-7.9 23.2-21.5 0-12.2-8.9-20.7-24.5-20.7zm397.1 13.2c0 2.4 0 5-0.4 7.8h-76.3c0 14.1 12 26.4 26.6 26.4 9.4 0 16.1-4.1 20.6-10.8l23.8 8.7c-8 13.5-22.3 23.7-44.6 23.7-30.6 0-54.6-22.2-54.6-55.8 0-29.3 19.2-54 52.6-54 33.9 0 52.3 25.3 52.3 54zm-76.4-11.9h47.9c-1.2-12-10.4-21.9-23.9-21.9-14.2 0-23 10.5-24 21.9zm863.2-11c-0.6-7.3-5.3-11.5-11.7-11.5-6.9 0-10.5 4.5-10.5 9 0 5.7 3.1 9.4 20.5 15.4 21.7 7 29.6 18 29.6 32.8 0 18.9-14.4 33-39.6 33-26.1 0-38.6-13.7-39.7-33.6h25.9c0.7 8.1 4.9 13.9 14.4 13.9 7.3 0 11.7-4.9 11.7-10.9 0-7.2-4.8-11.4-20.3-16.5-19.3-6.3-29.3-15.9-29.3-32 0-18.5 15-30.7 37.1-30.7 22.6 0 35.3 13.1 37.4 31.1zm-59.7 22.9c0 2.4 0 5-0.4 7.8h-76.2c0 14.1 11.9 26.4 26.5 26.4 9.4 0 16.1-4.1 20.6-10.8l23.8 8.7c-8 13.5-22.3 23.7-44.7 23.7-30.6 0-54.5-22.2-54.5-55.8 0-29.3 19.2-54 52.7-54 33.8 0 52.2 25.3 52.2 54zm-76.5-11.9h48c-1.3-12-10.5-21.9-24-21.9-14.1 0-22.9 10.5-24 21.9zm-140.6-90.3h28.9v64.5h0.8c7.1-11.4 18.7-16.1 30.3-16.1 22.9 0 38.9 15.2 38.9 47v58.9h-28.9v-57.2c0-15.2-7.2-23.1-19.2-23.1-12.7 0-21.9 8.8-21.9 26.1v54.2h-28.9zm-20.3 151.2c0 38.2-17.1 58.4-55 58.4-25 0-42.6-11.8-49.3-31.6l26.5-9.7c2.2 9.9 9.4 17.7 24.5 17.7 17.3 0 26.3-11 26.3-30.9v-13.1h-0.6c-6.9 8.1-16.9 14.8-32.8 14.8-26.5 0-48.4-20.8-48.4-54.1 0-30.8 21.2-54.2 49.7-54.2 16.3 0 25.9 8.4 31 15.6h1.1v-12.4h27zm-53.3-19.7c14.3 0 26.1-11.8 26.1-28.7 0-17.6-11.4-29.2-26-29.2-17.2 0-26.2 14.6-26.2 28.9 0 14.2 8.1 29 26.1 29zm-70.5 22.9h-28.6v-12.8h-0.7c-8.3 12.2-18.8 16.3-30 16.3-16.7 0-37.2-10.3-37.2-45.2v-61h28.9v57.3c0 15 7.1 23.2 18.2 23.2 12.6 0 20.5-8.8 20.5-26v-54.5h28.9zm-145.8-62.1h-56.2v62.1h-30.7v-146.2h30.7v57.5h56.2v-57.5h30.6v146.2h-30.6zm-136.4-15.6c-3.7-0.7-8-1.3-13.7-1.3-17.2 0-25.7 10.7-25.7 29.1v50h-29v-102.7h28.3v15.9h0.7c5.5-10.1 16.2-18.9 29.9-18.9 4.1 0 6.7 0.2 9.5 0.9zm-248.6 35.6l-6.6 6.4v35.8h-28.9v-154.4h28.9v86.5l32.5-34.8h35.2l-41.1 42.3 47.3 60.4h-35zm-56.6 42.2h-27.9v-12.8h-0.8c-6.7 8.7-16.7 16.2-33.4 16.2-19.9 0-46.7-16-46.7-54.8 0-33.1 22.6-54.1 48.8-54.1 16.1 0 25.7 8 31.3 16.1h0.8v-13.3h27.9zm-53.1-21.7c13.7 0 25.7-12 25.7-29.3 0-18.1-11.2-29.8-25.5-29.8-18 0-26.6 14.7-26.6 29.6 0 15 8.4 29.5 26.4 29.5z"/>
		</g>
	</g>
</svg>