<svg version="1.2" baseProfile="tiny-ps" xmlns="http://www.w3.org/2000/svg" viewBox="0 0 1516 147" width="1516" height="147">
	<title>Logos-main-svg</title>
	<style>
		tspan { white-space:pre }
		.shp0 { fill: #005699 } 
	</style>
	<path id="Layer" fill-rule="evenodd" class="shp0" d="M76.78 54.39C92.02 56.74 101.1 67.62 100.81 82.03C100.81 105.84 80.88 114.66 63.3 114.66L0 114.66L0 0.88L64.76 0.88C87.04 0.88 96.41 13.52 96.41 29.69C96.41 40.57 90.26 50.86 76.78 54.1L76.78 54.39ZM11.72 50.27L58.61 50.27C74.43 50.27 84.69 45.28 84.69 29.99C84.69 16.17 75.31 11.76 62.42 11.76L11.72 11.76L11.72 50.27ZM88.21 82.32C88.21 65.86 77.95 61.15 64.18 61.15L11.72 61.15L11.72 104.08L61.54 104.08C76.78 104.08 88.21 97.9 88.21 82.32ZM191.95 97.31C191.95 104.08 193.71 106.43 198.69 106.13C200.74 106.13 202.79 106.13 204.84 105.84L204.84 113.78C202.5 114.07 198.69 114.95 194.88 114.95C182.86 114.95 182.28 106.72 181.98 100.25L181.69 100.25C178.17 105.55 170.26 116.72 143.01 116.72C128.94 116.72 110.77 110.25 110.77 91.73C110.77 69.38 133.92 66.74 152.09 65.86C177.88 64.68 181.11 63.21 181.11 54.98C181.11 43.22 172.9 38.81 153.56 38.81C134.8 38.81 126.01 43.81 125.13 57.04L114.29 57.04C116.05 39.69 125.43 29.11 153.85 29.11C181.69 29.11 191.95 37.93 191.95 53.8L191.95 97.31ZM181.11 82.91L181.11 70.27C175.83 73.5 167.92 74.09 144.18 76.44C130.41 77.62 122.49 81.73 122.49 91.73C122.49 104.66 133.63 108.49 146.53 108.49C162.35 108.49 181.11 99.96 181.11 82.91ZM232.68 32.05L256.13 32.05L256.13 40.87L232.68 40.87L232.68 95.55C232.68 102.9 234.73 106.13 244.4 106.13C250.26 106.13 253.78 105.84 256.13 105.25L256.13 115.25C251.73 115.84 247.04 116.13 243.23 116.13C225.06 116.13 220.96 109.07 220.96 95.55L220.96 40.87L202.79 40.87L202.79 32.05L220.96 32.05L220.96 5.88L232.68 5.88L232.68 32.05ZM318.84 29.4C346.39 29.4 354.59 43.81 354.59 63.5L354.59 114.95L342.87 114.95L342.87 61.45C342.87 45.28 332.91 39.4 317.96 39.4C294.81 39.4 284.26 51.16 284.26 69.97L284.26 114.95L272.54 114.95L272.54 0L284.26 0L284.26 48.22L284.55 48.22C288.07 39.4 300.38 29.4 318.84 29.4ZM487.64 65.56C487.64 71.74 484.71 82.91 478.84 92.02L503.17 114.95L487.05 114.95L472.1 100.84C463.9 111.13 448.07 117.6 429.9 117.6C400.89 117.6 386.83 102.9 386.83 83.5C386.83 67.62 396.2 58.8 418.18 49.39C409.98 41.75 403.82 34.99 403.82 24.4C403.82 10.58 414.96 0.88 431.66 0.88C452.47 0.88 459.5 13.52 459.5 24.11C459.5 38.81 447.49 46.75 435.77 51.74L470.64 84.67C474.16 79.97 476.21 70.27 476.79 65.56L487.64 65.56ZM428.73 45.57C442.51 39.4 448.66 32.93 448.66 24.7C448.66 17.35 443.68 10.88 430.78 10.88C422.87 10.88 414.96 15.88 414.96 24.11C414.96 28.81 416.13 32.93 428.73 45.57ZM464.19 93.79L424.92 56.45C407.05 63.21 398.55 71.44 398.55 84.08C398.55 96.14 408.22 107.6 430.49 107.6C443.97 107.6 454.23 104.37 464.19 93.79ZM639.44 82.03C639.44 105.84 619.51 114.66 601.93 114.66L538.63 114.66L538.63 0.88L603.39 0.88C625.66 0.88 635.04 13.52 635.04 29.69C635.04 40.57 628.89 50.86 615.41 54.1L615.41 54.39C630.35 56.74 639.44 67.62 639.44 82.03ZM550.35 50.27L597.24 50.27C613.06 50.27 623.32 45.28 623.32 29.99C623.32 16.17 613.94 11.76 601.05 11.76L550.35 11.76L550.35 50.27ZM626.83 82.32C626.83 65.86 616.58 61.15 602.8 61.15L550.35 61.15L550.35 104.08L599.87 104.08C615.11 104.08 626.54 97.9 626.83 82.32ZM743.76 73.5C743.76 96.73 728.52 117.6 696.58 117.6C664.64 117.6 649.4 96.73 649.4 73.5C649.4 50.27 664.64 29.4 696.58 29.4C728.52 29.4 743.76 50.27 743.76 73.5ZM731.75 73.5C731.75 53.51 718.85 39.4 696.58 39.4C674.31 39.4 661.41 53.51 661.41 73.5C661.41 93.49 674.31 107.6 696.58 107.6C719.15 107.6 732.04 93.2 731.75 73.5ZM835.78 0L847.5 0L847.5 114.95L835.78 114.95L835.78 98.49L835.49 98.49C832.56 105.55 822.01 117.6 801.79 117.6C767.79 117.6 756.66 93.79 756.66 73.5C756.66 50.27 770.72 29.4 801.79 29.4C817.32 29.4 829.92 37.93 835.49 48.51L835.78 48.51L835.78 0ZM836.66 73.5C836.66 56.45 825.82 39.4 801.79 39.4C783.03 39.4 768.38 52.33 768.38 73.5C768.38 89.96 777.76 107.6 801.79 107.6C821.13 107.6 836.37 94.96 836.66 73.5ZM904.06 100.84L935.42 31.75L948.31 31.75L903.18 130.24C897.03 143.47 892.04 147 878.86 147C875.05 147 870.95 147 867.43 146.71L867.43 136.71C870.07 136.71 872.7 137 875.93 137C884.43 137 888.53 134.95 892.34 126.71L897.91 115.25L857.46 31.75L870.36 31.75L904.06 100.84ZM1127.36 1.18L1140.26 1.18L1101.87 114.95L1088.1 114.95L1053.81 17.64L1053.52 17.64L1019.81 114.66L1006.04 114.66L968.24 0.88L981.43 0.88L1012.78 99.08L1013.07 99.08L1046.78 0.88L1061.43 0.88L1095.13 99.08L1095.42 99.08L1127.36 0.88L1127.36 1.18ZM1186.27 29.4C1218.21 29.4 1233.45 50.27 1233.45 73.5C1233.45 96.73 1218.21 117.6 1186.27 117.6C1154.32 117.6 1139.09 96.73 1139.09 73.5C1139.09 50.27 1154.32 29.4 1186.27 29.4ZM1221.43 73.5C1221.43 53.51 1208.54 39.4 1186.27 39.4C1164 39.4 1151.1 53.51 1151.1 73.5C1151.1 93.49 1164 107.6 1186.27 107.6C1208.54 107.6 1221.43 93.2 1221.43 73.5ZM1262.46 50.86C1266.56 40.87 1274.48 29.4 1294.11 29.4C1297.33 29.4 1299.38 29.69 1301.14 29.99L1301.14 42.04C1297.33 41.45 1294.11 41.16 1290.3 41.16C1277.7 41.16 1262.17 49.1 1262.17 72.62L1262.17 114.66L1250.45 114.66L1250.45 31.75L1262.17 31.75L1262.17 50.86L1262.46 50.86ZM1390.52 31.75L1349.79 63.5L1393.45 114.95L1377.92 114.95L1341 71.15L1322.24 85.26L1322.24 114.95L1310.52 114.95L1310.52 0L1322.24 0L1322.24 72.03L1372.94 31.75L1390.52 31.75ZM1473.75 91.14C1473.75 107.6 1460.56 117.6 1434.48 117.6C1408.11 117.6 1392.57 109.07 1392.57 89.08L1403.42 89.08C1405.47 102.9 1413.38 107.6 1434.48 107.6C1450.89 107.6 1462.03 104.08 1462.03 91.73C1462.03 83.5 1456.17 79.97 1430.38 77.32C1404.59 74.97 1395.51 68.8 1395.51 54.1C1395.51 39.69 1407.23 29.4 1431.26 29.4C1458.22 29.4 1469.06 39.1 1470.53 56.45L1459.68 56.45C1456.75 42.92 1448.55 39.1 1431.26 39.1C1418.66 39.1 1407.23 41.75 1407.23 53.21C1407.23 62.03 1412.79 63.8 1438 67.03C1463.2 70.56 1473.75 74.97 1473.75 91.14ZM1501.3 28.52C1509.21 28.52 1515.66 34.99 1515.66 42.92C1515.66 50.86 1509.21 57.33 1501.3 57.33C1493.38 57.33 1486.94 50.86 1486.94 42.92C1486.94 34.99 1493.38 28.52 1501.3 28.52ZM1513.9 42.92C1513.9 35.87 1508.33 30.28 1501.3 30.28C1494.26 30.28 1488.69 35.87 1488.69 42.92C1488.69 49.98 1494.26 55.57 1501.3 55.57C1508.33 55.57 1513.6 49.98 1513.9 42.92ZM1508.04 39.1C1508.04 42.04 1505.98 43.51 1503.64 43.81L1508.92 51.45L1506.57 51.45L1501.59 43.81L1498.07 43.81L1498.07 51.45L1496.02 51.45L1496.02 34.4L1502.47 34.4C1506.28 34.4 1508.04 36.16 1508.04 39.1ZM1502.18 42.04C1504.52 42.04 1506.28 41.16 1506.28 38.81C1506.28 36.46 1504.23 35.87 1502.18 35.87L1497.78 35.87L1497.78 42.04L1502.18 42.04Z" />
</svg>