<svg version="1.2" xmlns="http://www.w3.org/2000/svg" viewBox="0 0 1527 242" width="1527" height="242">
	<title>baxter-svg</title>
	<style>
		.s0 { fill: #252969 } 
	</style>
	<path id="Layer" fill-rule="evenodd" class="s0" d="m903.2 29.9c28.9-4.9 61-3.2 91-6.6-0.2 12.4-5.8 24.6-8.7 37l2.8 1.8 73.1-0.5-8.1 30.9-75.8 1.2c-10.4 30.8-18.3 62.8-27.1 94.3 0.1 8.1 6.5 12.8 13.1 16.3 23.1 0 50.1 3.6 70.4-4.4l-9.6 35.2-125.8 1c-17.2-2.7-34.7-18.5-38.1-34.5l0.7-22.7c14.7-49.2 27.9-99.4 42.1-149zm-177.5 34.7c2.3 17.8 15.1 31.5 24.4 46.7 21.1-15.3 46.8-25.6 63.6-46.3l67.5-2.2 0.1 1.8-111.9 76.4 55.1 90.4c2 1.5 4 4.4 6.5 5l-113.4 1.2c-5.4-16.1-15-30.5-25-44.6l-66.8 45-59 1v-1.9c35.8-24 71.8-48 107.2-73.3-18.9-33.8-39.9-66.3-62.8-98.4 0 0 114.5-0.8 114.5-0.8zm700.7-3.8c0.4 7-1.3 14.7 1.9 20.5 19.3-35.4 64.6-15 98.1-20.2l-13.2 50.2c-20.5-12.1-53.6-4.6-75.9-4.9-5.8 2.6-10.7 8.5-11.8 14.4l-26.3 101.3 2.3 11.9h-107.1l9.8-14.8 40.6-149.8-1.3-8.7zm-1102.7-28.4c-0.6 25.6-5.6 51.7-22 72.4-7.6 7.4-17.4 10.9-27.1 13.6 9.9 6.4 17.8 16.1 21.2 26.6 2.8 27.1-9.6 49.9-16.6 74.2-9.5 16.6-27.3 23.1-48.2 22.6l-230.5 0.1 15.2-27.9 55.4-195.7-0.4-16.8 215.8-1c16.9 2.7 33.5 16.3 37.2 31.9zm-175.3 65.4l64.9-0.3c11.5-7.9 11.2-23.6 16.2-35.4 1.8-5.8 4.6-16.8-3.2-21.1l-56.6-0.5zm-27.8 102.8l65.4 0.1c16.2-7.6 7.5-28.7 15.1-42.3 2.2-6.3 4.3-17.6-4-21.2l-60.1 0.3c-5.5 20.9-13.7 42.2-16.4 63.1zm451.6-111.5c8.9 11.2 4.9 28.8 0.8 41.3l-26.3 96.9 2.9 12-89.1-0.4c-1.7-5.5-3.8-11.3-6.7-16.4-3.7 6.3-8.9 14.1-16.8 16.1-34.3 1-74.9 5.2-103.9-3.4-13-7.5-23.1-20.5-24.2-34.8 1.6-24.5 5.4-47.9 23.1-66.2l21.7-10.1 124.5-2.8c6.7-3 6.1-10.4 8-15.8-0.5-4-2.5-8-6.5-9.8-45.6 1.2-94.9-3.2-140.6 3.4l13.4-32 189.2-0.6c11.9 4.2 24.5 11.3 30.5 22.6zm-100.7 66.3c0 0-55.5 0.2-55.5 0.2l-7.3 4.5c-1.7 15.4-20.5 36.9-1.1 47.5l44.9-0.7 5.7-4.5zm838.9-69.6c12.6 26.5-4.5 50.9-8.7 75.5l-154.7 2.4c-1.3 12.2-13.6 24.4-3.3 36.3l6.8 3.2 128.5-1 9.3-3.9-14.6 36.1-187.5 0.5c-19.7-4.1-34.1-21.7-37.1-39.6 6.7-38.8 17.7-75.9 29.6-112.7 7.9-11 19.5-18.5 32.4-20.9l170.8 0.9c11.4 3 23.2 12.7 28.5 23.2zm-153.2 42.7l61-1c3.4-8.1 5.2-16.6 5.5-25.3-1.4-4-5.7-7.6-9.6-8.6l-41.4 0.7c-12.1 7.1-10.2 22.8-15.5 34.2z"/>
</svg>