<svg version="1.2" xmlns="http://www.w3.org/2000/svg" viewBox="0 0 1500 878" width="1500" height="878">
	<title>Best_Buy_logo_2018-svg</title>
	<style>
		.s0 { fill: #1c252c } 
		.s1 { fill: #ffed31 } 
	</style>
	<g id="Layer">
		<path id="path2998" fill-rule="evenodd" class="s0" d="m183.9 10.9c79.2 0 138.1 40.2 138.1 99.6 0 46.3-29.7 68.5-56 79 43.1 13 82.2 37.8 82.2 92.2 0 80.5-72 107.9-150 107.9h-198.2v-378.7zm-62.5 144.7h44.6c17.7 0 32.1-14.4 32.1-27.8 0-14.5-13.9-28.7-32.1-28.7h-44.6zm0 146.8h55.4c25.2 0 41.4-15.8 41.4-34.7 0-17.9-17.3-33.5-37.9-33.5h-58.9zm160.7 128.5c79.3 0 138.1 40.2 138.1 99.6 0 46.3-29.7 68.5-56 79 43.1 13 82.2 37.8 82.2 92.2 0 80.5-72 107.9-150 107.9h-198.2v-378.7zm-62.5 144.7h44.7c17.6 0 32-14.4 32-27.8 0-14.5-13.9-28.7-32-28.7h-44.7zm0 146.8h55.4c25.2 0 41.4-15.8 41.4-34.7 0-17.9-17.3-33.5-37.9-33.5h-58.9zm138.2-332.9v-378.7h305.3v91.5h-184.3v49.6h149.7v85.8h-149.7v60.7h184.3v91.1zm311.2-51.7l72.1-68.8c17.5 14.5 39.9 31.6 68.2 31.6 24.9 0 38.6-14.4 38.6-28.7 0-40.7-164.4-21.9-164.4-151.8 0-65.7 60-120.1 151.7-120.1 61.1 0 106.4 23 135.1 50.3l-71.7 68.3c0 0-20.8-18.9-49.4-18.9-16.6 0-32.9 8.2-32.9 23.7 0 39.9 166.8 20.2 166.8 148.4 0 79.5-68.7 128.5-154.7 128.5-83.7 0-130.4-34.1-159.4-62.5zm407.5 51.7v-287.6h-99.9v-91.1h321.3v91.1h-100v287.6zm-625.9 41.1h121.1v226.9c0 23 22.9 44.2 46.8 44.2 22.5 0 45.3-19.2 45.3-45.5v-225.6h120.7v224.1c0 88.9-73.8 159.9-169.2 159.9-96 0-164.7-77.2-164.7-164.7zm483.1 378.6v-135.3l-142.2-243.3h122.4l80.5 130.4 80.8-130.4h122.7l-142.8 244.7v133.9z"/>
		<path id="path3017" class="s1" d="m1500 637.9v239.3h-302.1l-71.4-71.4v-96.5l71.4-71.4z"/>
		<circle id="path3024" class="s0" cx="1170.1" cy="757.5" r="16.1"/>
	</g>
</svg>