<svg version="1.2" xmlns="http://www.w3.org/2000/svg" viewBox="0 0 1502 522" width="1502" height="522">
	<title>Biogen-svg</title>
	<defs>
		<clipPath clipPathUnits="userSpaceOnUse" id="cp1">
			<path d="m175.64 274.43c-75.88 0-137.22-61.34-137.22-137.22 0-75.88 61.34-137.21 137.22-137.21 75.89 0 137.23 61.33 137.23 137.21 0 75.88-61.34 137.22-137.23 137.22z"/>
		</clipPath>
		<linearGradient id="g1" x1="33.2" y1="181.9" x2="323.5" y2="181.9" gradientUnits="userSpaceOnUse">
			<stop offset="0" stop-color="#d6e6a6"/>
			<stop offset="1" stop-color="#d3deaa"/>
		</linearGradient>
		<linearGradient id="g2" x1="323.4" y1="146" x2="158.8" y2="146" gradientUnits="userSpaceOnUse">
			<stop offset="0" stop-color="#cdd894"/>
			<stop offset=".3" stop-color="#bfcf83"/>
			<stop offset="1" stop-color="#9eba56"/>
		</linearGradient>
		<linearGradient id="g3" x1="295.1" y1="219.9" x2="171.8" y2="6.5" gradientUnits="userSpaceOnUse">
			<stop offset="0" stop-color="#cfe294"/>
			<stop offset=".2" stop-color="#b9d187"/>
			<stop offset=".5" stop-color="#87b268"/>
			<stop offset="1" stop-color="#338d45"/>
		</linearGradient>
		<clipPath clipPathUnits="userSpaceOnUse" id="cp2">
			<path d="m175.64 274.43c-75.88 0-137.22-61.34-137.22-137.22 0-75.88 61.34-137.21 137.22-137.21 75.89 0 137.23 61.33 137.23 137.21 0 75.88-61.34 137.22-137.23 137.22z"/>
		</clipPath>
		<clipPath clipPathUnits="userSpaceOnUse" id="cp3">
			<path d="m212.12 132.79c-55.02-169.02-171.65-186.14-206.98-53.02-71.52 269.59 228.84 120.15 206.98 53.02z"/>
		</clipPath>
		<radialGradient id="g4" cx="114.8" cy="120.3" r="115.8" gradientUnits="userSpaceOnUse">
			<stop offset="0" stop-color="#010101"/>
			<stop offset=".1" stop-color="#1f2428"/>
			<stop offset=".2" stop-color="#35404a"/>
			<stop offset=".3" stop-color="#46596b"/>
			<stop offset=".5" stop-color="#536f8a"/>
			<stop offset=".6" stop-color="#5c80a4"/>
			<stop offset=".7" stop-color="#618db8"/>
			<stop offset=".9" stop-color="#6595c6"/>
			<stop offset="1" stop-color="#6699cc"/>
		</radialGradient>
		<clipPath clipPathUnits="userSpaceOnUse" id="cp4">
			<path d="m88.21 4.84c23.98 23.38 47.29 60.32 62.94 111.79 10.88 35.79-62.17 90.38-126.78 100.56-15.39-22.84-24.37-50.36-24.37-79.97 0-59.63 36.41-110.76 88.21-132.38z"/>
		</clipPath>
		<radialGradient id="g5" cx="45.4" cy="100.4" r="156.4" gradientUnits="userSpaceOnUse">
			<stop offset="0" stop-color="#e7f2f8"/>
			<stop offset=".1" stop-color="#cadbed"/>
			<stop offset=".3" stop-color="#a5c1e1"/>
			<stop offset=".5" stop-color="#89aed7"/>
			<stop offset=".7" stop-color="#76a2d1"/>
			<stop offset=".8" stop-color="#6a9bcd"/>
			<stop offset="1" stop-color="#6699cc"/>
		</radialGradient>
	</defs>
	<style>
		.s0 { fill: #2473bb } 
		.s1 { fill: url(#g1) } 
		.s2 { fill: url(#g2) } 
		.s3 { fill: url(#g3) } 
		.s4 { fill: url(#g4) } 
		.s5 { fill: url(#g5) } 
	</style>
	<g id="Layer">
		<g id="Layer">
			<path id="Layer" fill-rule="evenodd" class="s0" d="m355.3 443.4v-291h113.5q28.7 0 47.7 6 19 6 32.9 24.9 13.8 19 13.8 44.6 0 24.1-14.1 41.9-14 17.8-38.8 22.7 30.7 5.3 46.5 24.9 15.8 19.6 15.8 46.5 0 33.7-22.1 56.6-22 22.9-67.9 22.9c0 0-127.3 0-127.3 0zm49.7-168.8h64q19.6 0 31-11.7 11.4-11.8 11.4-29.9 0-20-13-29.5-13-9.5-30.5-9.5h-62.9zm0 125.1h67.8q21.5 0 34-11.3 12.5-11.3 12.5-30.5 0-18.3-12.7-30-12.7-11.7-33.6-11.7h-68z"/>
			<path id="Layer" class="s0" d="m600.1 152.4h48.6v50.5h-48.6zm0 75.7h48.6v215.3h-48.6z"/>
			<path id="Layer" fill-rule="evenodd" class="s0" d="m773.9 447.9q-47.8 0-72.9-34.3-25.2-34.4-25.2-78.7 0-47.7 27.8-79.5 27.9-31.8 73.5-31.8 43.3 0 71.1 30.9 27.8 31 27.8 80.4 0 51-28.9 82-28.9 31-73.2 31zm1.7-40.1q49 0 49-73.1 0-33.1-11.7-52.1-11.7-19.1-36-19.1-25.2 0-37.4 19.7-12.1 19.7-12.1 52.3 0 35.2 12.9 53.8 12.9 18.5 35.3 18.5z"/>
			<path id="Layer" fill-rule="evenodd" class="s0" d="m1248.7 374.8l44 5.9q-8.6 29.2-33.3 48.2-24.8 19-62 19-44.8 0-72.1-30.1-27.3-30-27.3-81.4 0-48.8 27.5-80.8 27.5-32 74.6-32 46.1 0 71.2 31.6 25.2 31.5 25.2 81l-0.2 5.5h-147.8q0 22 4.2 35.2 4.1 13.2 16.5 23 12.4 9.8 30.9 9.8 36.1 0 48.6-34.9zm-2.9-64.4q-0.3-23.2-14-37.9-13.8-14.8-34-14.8-20.1 0-33.5 13.8-13.4 13.7-15.8 38.9c0 0 97.3 0 97.3 0z"/>
			<path id="Layer" class="s0" d="m1501.6 443.4h-48.6v-134.5q0-21.3-9.8-32.1-9.8-10.8-23.7-10.8-19 0-33.2 16.7-14.3 16.6-14.3 50.1v110.6h-48.6v-215.3h44.3v49.9q23.3-54.4 65.3-54.4 28.3 0 48.5 17.9 20.1 17.9 20.1 62.9z"/>
			<path id="Layer" fill-rule="evenodd" class="s0" d="m1052.5 241.3q25.7 21 25.7 46.7 0 28.6-24.1 47.5-24.1 18.8-63.7 18.8-17.1 0-40-5.5-15 6.8-15 21.1 0 8 7.3 14.6 7.2 6.6 22 6.6h64.3q32.9 0 51.7 17.1 18.7 17 18.7 42.2 0 30.7-28.4 50.8-28.3 20.1-84 20.1-104.7 0-104.7-58.5 0-28.8 31.5-43.8-20.2-17.2-20.1-35.8 0-28.3 34.4-44.9-30-18.2-29.9-50.1-0.1-27 22-46.1 22-19 67-19 20.6 0 41.8 4.5m-94.2 204.4q-10.5 9.7-10.5 18.6 0 14.8 17.5 26.1 17.6 11.2 55.9 11.2 56.3 0 56.3-28.9 0-10.7-9.9-16.2-9.8-5.4-22.4-5.4h-51.8q-14.8 0-35.1-5.4zm53.5-106.6q39.8 0 39.8-37.4 0-14.4-10-24.2-9.9-9.9-29-9.9-19.2 0-29.8 10.3-10.6 10.3-10.6 25.7 0 15.8 10.4 25.7 10.6 9.8 29.2 9.8z"/>
			<path id="Layer" class="s0" d="m1024.6 229.3l63.3-21.3 6.9 41.4-34.9 3.1"/>
		</g>
		<g id="circle_1_">
			<g id="Clip-Path" clip-path="url(#cp1)">
				<g id="Layer">
					<path id="_x33__2_" class="s1" d="m323.5 63.8v113.6c-8.3 14.6-17.8 29-28.3 42.6-57.5 75-145.3 125.2-232.5 20.2-49.4-59.4-33.3-65.1 22.8-77.5 19.8-4.3 44.6-9.5 73.3-18.2 57.5 64.7 131.7 110.5 155.7 40.3 13.3-38.7 11.2-78.6-3-112.8q5.9-4 12-8.2z"/>
					<path id="_x32__2_" class="s2" d="m158.8 144.5c43.3-13.1 95.5-34.2 152.7-72.5 14.2 34.2 16.3 74.1 3 112.8-24 70.2-98.2 24.4-155.7-40.3z"/>
					<path id="_x31__2_" class="s3" d="m158.8 144.5c-40.8-45.8-73.2-101.1-73.3-131.1v-0.1c0-10.3 3.8-17.7 12.4-20.6 105-36.2 184.6 9.7 213.6 79.3-57.2 38.3-109.4 59.4-152.7 72.5z"/>
				</g>
			</g>
			<g id="Clip-Path" clip-path="url(#cp2)">
				<g id="Layer" style="opacity: .9">
					<g id="Layer">
						<g id="Layer">
							<g id="Clip-Path" clip-path="url(#cp3)">
								<path id="Layer" class="s4" d="m-55.3-46.3h300.3v402.7h-300.3z"/>
							</g>
						</g>
					</g>
				</g>
			</g>
		</g>
		<g id="outer_1_">
			<g id="Clip-Path" clip-path="url(#cp4)">
				<path id="Layer" class="s5" d="m-23.8 214.6l25.8-227 184.1 19.8-25.7 227.1z"/>
			</g>
		</g>
	</g>
</svg>