<svg version="1.2" xmlns="http://www.w3.org/2000/svg" viewBox="0 0 1595 204" width="1595" height="204">
	<title>bny_horizontal_white-svg</title>
	<style>
		.s0 { fill: #4f4c4d } 
		.s1 { fill: #ae8639 } 
		.s2 { fill: #a7a8ab } 
		.s3 { fill: #a59875 } 
	</style>
	<g id="Page-1">
		<g id="BNYM_Homepage_Desktop">
			<g id="Nav/Main_Desktop_Blue">
				<g id="[Header]">
					<g id="Logos-/-bny_horizontal_white">
						<g id="bny_horizontal_2014">
							<path id="Wordmark" fill-rule="evenodd" class="s0" d="m558.4 49.8h41.2v9h-14.4v113.5h-10l-71.6-92.3v81.1h14.4v9h-41.6v-9h14.4v-96.4l-4.4-6.3h-14v-9h33.2l67.2 85.2v-76.6h-14.4zm-105.5 88.9c0 18.7-16 31.7-40.4 31.7h-62.8v-9.3h14.4v-102.7h-14.4v-9h59.6c22.8 0 37.6 11.6 37.6 30.3 0 14.6-11.2 23.1-23.6 26.5 15.6 3 30 12.7 29.6 32.5zm-66-78.8v42.2h14.8c11.6 0 23.2-6.7 23.2-21.7 0-17.9-14-20.5-22.4-20.5zm44.4 76.9c0-15.3-11.2-24.6-28.4-24.6h-16.4v47h16.4c13.2 0 28.4-5.9 28.4-22.4zm256.2-87.4h40.8v9h-10.4l-36.4 55.3v47h14.4v9.4h-50.4v-9.4h14.4v-46.3l-39.2-56.4h-11.5v-8.9h51.9v8.9h-14.8l29.6 43 28-43h-16.4zm610.9 94.5h11.2v26.2h-89.6v-9.4h14.4v-102.7h-14.4v-8.9h50.4v8.9h-14.4v101.2h42.8zm-110 0h11.2v26.2h-89.5v-9.4h14.4v-102.7h-14.4v-8.9h50.3v8.9h-14.4v101.2h42.4zm-263-94.1h34v9h-14.4v102.7h14.4v9.3h-50.4v-9.3h14.4v-81.4l-46 93.7-48-96.3v83.6h14.4v9.4h-41.2v-9.4h14.4v-102.7h-14.4v-8.9h36l43.6 86.6zm461.5 122.9c-35.4 0-64.1-28.1-64.1-62.8 0-34.7 28.7-62.7 64.1-62.7 35.5 0 64.2 28 64.2 62.7 0 34.7-28.7 62.8-64.2 62.8zm40.2-63.3c0-28.2-18-51-40.4-51-22.3 0-40.3 22.8-40.3 51 0 28.2 18 51 40.3 51 22.4 0 40.4-22.8 40.4-51zm167.9-59.6v9h-14.4v113.5h-10l-71.5-92.2v81h14.4v9.3h-41.2v-9.3h14.4v-96.4l-4.8-6.3h-14v-9h33.6l66.7 85.2v-76.6h-14.4v-8.9zm-528.1 93.3h11.2v26.2h-91.9v-9.4h14.4v-102.7h-14.4v-8.9h78.7v-4.9h11.2v31h-11.2v-15.3h-42.7v43.7h33.9v-13.5h11.6v37.8h-11.2v-13.9h-33.9v46h44.7z"/>
							<g id="Icon">
								<path id="Path" class="s1" d="m132.7 150.4c-26.2-14.6-47.6-31.5-65.1-48.5 17.5-17 38.9-34 65.1-48.5l122.3 48.5z"/>
								<path id="Path" class="s2" d="m124.4 50.5c-27 11.4-49.6 25.1-68.3 39.7-42.8-46.5-55.5-89.4-55.5-89.4z"/>
								<path id="Path" class="s3" d="m0.6 203.4c0 0 12.7-42.9 55.5-89.4 18.7 14.6 41.3 28.3 68.3 39.6z"/>
							</g>
						</g>
					</g>
				</g>
			</g>
		</g>
	</g>
</svg>