<svg version="1.2" baseProfile="tiny-ps" xmlns="http://www.w3.org/2000/svg" viewBox="0 0 1649 378" width="1649" height="378">
	<title>Boeing_full_logo-svg</title>
	<style>
		tspan { white-space:pre }
		.shp0 { fill: #0033a1 } 
	</style>
	<path id="Layer" fill-rule="evenodd" class="shp0" d="M458.23 267.59C458.23 267.59 287.04 272.16 229.69 276.83L225.02 268.08C213.97 278.99 201.08 287.86 186.94 294.27C172.81 300.69 157.64 304.55 142.16 305.68C126.68 306.81 111.12 305.2 96.19 300.9C81.27 296.61 67.23 289.71 54.71 280.53C41.4 316.12 41.4 341.02 57.63 347.14C83.97 357.06 131.99 313.79 131.99 313.79C100.6 360.56 48.88 389.35 25.06 373.5C3.29 358.71 7.28 314.95 32.45 260.4C12.52 237.18 1.28 207.75 0.69 177.15C0.09 146.55 10.16 116.7 29.18 92.73C48.2 68.75 74.97 52.16 104.89 45.79C134.81 39.42 166.01 43.67 193.14 57.82C199.38 52.54 205.74 47.39 212.19 42.37C218.65 37.36 225.21 32.47 231.87 27.73C238.53 22.98 245.28 18.37 252.13 13.9C258.98 9.44 265.92 5.11 272.95 0.93C248.84 21.45 226 42.94 204.9 64.63C217.92 73.27 229.31 84.17 238.51 96.8C247.72 109.43 254.6 123.6 258.84 138.65C263.08 153.7 264.6 169.38 263.34 184.97C262.08 200.55 258.06 215.78 251.47 229.96C344.49 267.3 457.84 259.52 458.23 267.59ZM16.41 174.43C16.4 180.73 16.9 187.02 17.92 193.23C18.93 199.45 20.45 205.57 22.47 211.54C24.48 217.51 26.98 223.31 29.94 228.87C32.9 234.43 36.31 239.73 40.13 244.74C49.06 228.16 58.73 211.99 69.11 196.27C79.48 180.55 90.55 165.31 102.29 150.59C114.03 135.86 126.42 121.67 139.43 108.05C152.43 94.43 166.04 81.41 180.21 69.01C162.57 60.99 143.2 57.53 123.88 58.93C104.55 60.34 85.89 66.57 69.59 77.06C53.3 87.55 39.89 101.95 30.6 118.96C21.31 135.97 16.43 155.04 16.41 174.43ZM132.19 290.25C140.1 290.25 148 289.44 155.75 287.83C163.5 286.21 171.06 283.81 178.32 280.65C185.57 277.48 192.49 273.58 198.94 269C205.4 264.42 211.37 259.19 216.76 253.39L181.86 187.85C185.95 191.53 190.17 195.05 194.53 198.4C198.88 201.75 203.37 204.94 207.97 207.94C212.58 210.94 217.3 213.76 222.12 216.4C226.94 219.03 231.87 221.48 236.88 223.73C242.85 211.05 246.47 197.38 247.56 183.4C248.64 169.42 247.19 155.36 243.25 141.9C239.32 128.45 232.97 115.81 224.53 104.62C216.09 93.43 205.68 83.87 193.82 76.4C130.15 144.28 83.49 213.72 60.55 265.45C65.6 269.44 70.98 273.01 76.63 276.1C82.29 279.19 88.18 281.8 94.27 283.91C100.36 286.02 106.61 287.61 112.96 288.67C119.32 289.74 125.75 290.26 132.19 290.25Z" />
	<path id="Layer" class="shp0" d="M1036.53 162.37L1057.91 133.87L983.26 133.87L1001.63 109.46L1076.38 109.46L1097.87 80.97L948.75 80.97L846.19 217.12L995.31 217.12L1016.7 188.62L942.04 188.62L961.77 162.37L1036.53 162.37L1036.53 162.37L1036.53 162.37Z" />
	<path id="Layer" class="shp0" d="M1140.06 80.97L1037.5 217.12L1111.96 217.12L1214.42 80.97L1140.06 80.97L1140.06 80.97L1140.06 80.97Z" />
	<path id="Layer" class="shp0" d="M1387.94 80.97L1335.93 150.02L1319.99 80.97L1261.86 80.97L1159.3 217.12L1208.49 217.12L1260.01 148.75L1275.86 217.12L1334.57 217.12L1437.13 80.97L1387.94 80.97L1387.94 80.97L1387.94 80.97Z" />
	<path id="Layer" class="shp0" d="M1631.16 80.97L1511.59 80.97C1506.75 80.96 1501.93 81.52 1497.21 82.63C1492.5 83.74 1487.94 85.39 1483.61 87.55C1479.28 89.71 1475.21 92.37 1471.49 95.47C1467.78 98.57 1464.43 102.09 1461.53 105.96L1399.8 187.94C1399.2 188.73 1398.67 189.56 1398.21 190.43C1397.75 191.29 1397.36 192.2 1397.04 193.13C1396.73 194.07 1396.49 195.02 1396.34 195.99C1396.18 196.97 1396.1 197.95 1396.1 198.93C1396.1 201.33 1396.57 203.7 1397.49 205.91C1398.4 208.12 1399.74 210.13 1401.42 211.83C1403.11 213.52 1405.11 214.87 1407.32 215.8C1409.53 216.72 1411.89 217.2 1414.28 217.22L1533.85 217.22C1538.7 217.23 1543.53 216.67 1548.25 215.57C1552.97 214.46 1557.54 212.81 1561.88 210.65C1566.22 208.49 1570.29 205.83 1574.02 202.73C1577.74 199.62 1581.1 196.1 1584.01 192.22L1598.88 172.77L1616.19 172.77L1637.77 143.6L1546.2 143.6L1517.03 182.01C1516.28 183.02 1515.41 183.94 1514.44 184.75C1513.48 185.56 1512.42 186.25 1511.29 186.81C1510.16 187.38 1508.98 187.81 1507.75 188.1C1506.52 188.38 1505.27 188.53 1504.01 188.53L1482.91 188.53C1482.29 188.53 1481.67 188.4 1481.09 188.16C1480.51 187.93 1479.99 187.57 1479.54 187.13C1479.1 186.69 1478.75 186.16 1478.51 185.59C1478.27 185.01 1478.15 184.39 1478.15 183.76C1478.15 183.51 1478.17 183.26 1478.21 183.01C1478.25 182.75 1478.31 182.51 1478.39 182.27C1478.48 182.03 1478.58 181.8 1478.7 181.57C1478.82 181.35 1478.96 181.14 1479.12 180.94L1527.73 115.78C1528.48 114.77 1529.35 113.85 1530.31 113.04C1531.28 112.23 1532.34 111.54 1533.46 110.97C1534.59 110.41 1535.78 109.98 1537.01 109.69C1538.23 109.41 1539.49 109.26 1540.75 109.27L1561.85 109.27C1562.47 109.27 1563.09 109.39 1563.67 109.63C1564.25 109.87 1564.77 110.22 1565.21 110.66C1565.66 111.11 1566.01 111.63 1566.25 112.21C1566.49 112.79 1566.61 113.41 1566.61 114.03C1566.6 114.29 1566.58 114.54 1566.53 114.79C1566.49 115.04 1566.42 115.28 1566.34 115.52C1566.26 115.76 1566.16 115.99 1566.04 116.21C1565.92 116.44 1565.79 116.65 1565.64 116.85L1557.67 127.45L1631.93 127.45L1645.06 109.95C1647.11 107.25 1648.36 104.02 1648.67 100.64C1648.99 97.26 1648.35 93.86 1646.83 90.83C1645.32 87.79 1642.98 85.24 1640.09 83.46C1637.2 81.69 1633.87 80.76 1630.48 80.77L1631.16 80.97Z" />
	<path id="Layer" fill-rule="evenodd" class="shp0" d="M887.7 99.25C887.71 100.23 887.64 101.21 887.49 102.18C887.34 103.15 887.11 104.11 886.8 105.04C886.5 105.97 886.12 106.88 885.66 107.75C885.21 108.62 884.69 109.46 884.1 110.24L822.38 192.22C819.46 196.1 816.11 199.62 812.38 202.73C808.66 205.83 804.59 208.49 800.25 210.65C795.91 212.81 791.33 214.46 786.61 215.57C781.89 216.67 777.06 217.23 772.22 217.22L652.65 217.22C649.27 217.2 645.96 216.24 643.1 214.46C640.23 212.68 637.91 210.13 636.4 207.11C634.89 204.09 634.24 200.71 634.54 197.34C634.83 193.97 636.05 190.76 638.07 188.04L699.79 106.06C702.71 102.18 706.06 98.66 709.79 95.56C713.51 92.46 717.58 89.8 721.92 87.63C726.26 85.47 730.84 83.82 735.56 82.72C740.28 81.61 745.11 81.06 749.95 81.07L869.52 81.07C871.91 81.07 874.27 81.54 876.48 82.45C878.68 83.36 880.69 84.7 882.38 86.39C884.06 88.08 885.4 90.09 886.32 92.29C887.23 94.5 887.7 96.86 887.7 99.25ZM804.2 116.95C804.35 116.75 804.48 116.53 804.6 116.31C804.72 116.09 804.82 115.86 804.9 115.62C804.98 115.38 805.05 115.13 805.09 114.88C805.14 114.64 805.16 114.38 805.17 114.13C805.17 113.51 805.05 112.89 804.81 112.31C804.57 111.73 804.22 111.2 803.77 110.76C803.33 110.32 802.81 109.97 802.23 109.73C801.65 109.49 801.03 109.37 800.41 109.37L779.31 109.37C778.05 109.37 776.8 109.52 775.57 109.81C774.35 110.11 773.16 110.54 772.04 111.1C770.91 111.66 769.85 112.35 768.89 113.16C767.92 113.96 767.05 114.88 766.29 115.88L717.68 181.04C717.16 181.75 716.85 182.58 716.77 183.46C716.7 184.33 716.87 185.21 717.26 185.99C717.65 186.78 718.25 187.44 719 187.9C719.74 188.37 720.6 188.62 721.47 188.62L742.96 188.62C744.22 188.63 745.47 188.49 746.7 188.2C747.93 187.91 749.12 187.48 750.24 186.92C751.37 186.36 752.43 185.66 753.4 184.85C754.36 184.04 755.23 183.12 755.98 182.11L804.59 117.05L804.2 116.95Z" />
	<path id="Layer" fill-rule="evenodd" class="shp0" d="M606.47 152.35C606.56 152.33 606.66 152.31 606.75 152.29C606.69 152.24 606.63 152.2 606.57 152.16L606.47 152.35ZM606.75 152.29C607.59 152.94 608.37 153.68 609.05 154.49C609.79 155.36 610.42 156.32 610.93 157.34C611.44 158.35 611.83 159.43 612.1 160.54C612.36 161.65 612.5 162.78 612.5 163.92C612.51 164.71 612.45 165.49 612.32 166.26C612.2 167.04 612.02 167.8 611.77 168.54C611.52 169.28 611.21 170.01 610.85 170.7C610.48 171.39 610.06 172.05 609.58 172.68L595.1 192.13C592.19 196 588.83 199.53 585.11 202.63C581.38 205.73 577.31 208.39 572.97 210.55C568.63 212.71 564.06 214.36 559.34 215.47C554.62 216.57 549.79 217.13 544.94 217.12L388.82 217.12L491.38 80.97L642.25 80.97C645.64 80.95 648.97 81.88 651.86 83.66C654.75 85.44 657.09 87.99 658.6 91.02C660.12 94.06 660.76 97.46 660.44 100.84C660.13 104.22 658.88 107.44 656.83 110.14L642.64 128.91C640.43 131.85 637.98 134.58 635.29 137.09C632.61 139.59 629.72 141.85 626.64 143.85C623.56 145.84 620.31 147.56 616.93 148.99C613.64 150.38 610.23 151.48 606.75 152.29ZM537.16 170.15C537.32 169.95 537.46 169.74 537.58 169.51C537.7 169.29 537.8 169.06 537.89 168.82C537.97 168.58 538.03 168.33 538.07 168.08C538.11 167.83 538.14 167.58 538.14 167.33C538.14 166.7 538.01 166.08 537.77 165.5C537.53 164.93 537.18 164.4 536.74 163.96C536.3 163.51 535.77 163.16 535.19 162.92C534.62 162.69 534 162.56 533.37 162.56L504.21 162.56L484.77 188.82L515.19 188.82C516.45 188.82 517.71 188.68 518.94 188.39C520.16 188.1 521.35 187.67 522.48 187.1C523.61 186.54 524.66 185.85 525.63 185.04C526.6 184.23 527.47 183.31 528.22 182.3L537.45 170.05L537.16 170.15ZM577.31 117.15C577.46 116.94 577.6 116.73 577.71 116.51C577.83 116.28 577.93 116.05 578.01 115.81C578.1 115.57 578.16 115.33 578.21 115.08C578.25 114.83 578.28 114.58 578.28 114.33C578.28 113.7 578.16 113.08 577.92 112.5C577.68 111.92 577.33 111.4 576.89 110.96C576.45 110.51 575.92 110.16 575.34 109.92C574.76 109.68 574.15 109.56 573.52 109.56L544.36 109.56L525.98 133.97L556.41 133.97C557.67 133.97 558.92 133.83 560.14 133.55C561.36 133.27 562.55 132.84 563.68 132.29C564.8 131.73 565.86 131.05 566.83 130.25C567.8 129.46 568.67 128.55 569.44 127.55L577.31 117.15Z" />
</svg>