<svg version="1.2" xmlns="http://www.w3.org/2000/svg" viewBox="0 0 1551 289" width="1551" height="289">
	<title>bkng_global-desktop-logowhite-svg</title>
	<style>
		.s0 { fill: #000000 } 
		.s1 { fill: #ffffff } 
	</style>
	<path id="Layer" class="s0" d="m0 0h221.7v289h-221.7z"/>
	<path id="Layer" class="s1" d="m70.2 132.8c-1.7 0-3.1-1.4-3.1-3.1 0-1.7 1.4-3 3.1-3 1.7 0 3.1 1.3 3.1 3 0 1.7-1.4 3.1-3.1 3.1z"/>
	<path id="Layer" class="s1" d="m70.2 118.1c-1.7 0-3.1-1.4-3.1-3.1 0-1.7 1.4-3.1 3.1-3.1 1.7 0 3.1 1.4 3.1 3.1 0 1.7-1.4 3.1-3.1 3.1z"/>
	<path id="Layer" class="s1" d="m70.2 102.7c-1.7 0-3.1-1.4-3.1-3.1 0-1.7 1.4-3.1 3.1-3.1 1.7 0 3.1 1.4 3.1 3.1 0 1.7-1.4 3.1-3.1 3.1z"/>
	<path id="Layer" class="s1" d="m70.2 87.9c-1.7 0-3.1-1.3-3.1-3 0-1.7 1.4-3.1 3.1-3.1 1.7 0 3.1 1.4 3.1 3.1 0 1.7-1.4 3-3.1 3z"/>
	<path id="Layer" class="s1" d="m81.9 132.8c-1.7 0-3.1-1.4-3.1-3.1 0-1.7 1.4-3 3.1-3 1.7 0 3.1 1.3 3.1 3 0 1.7-1.4 3.1-3.1 3.1z"/>
	<path id="Layer" class="s1" d="m81.9 118.1c-1.7 0-3.1-1.4-3.1-3.1 0-1.7 1.4-3.1 3.1-3.1 1.7 0 3.1 1.4 3.1 3.1 0 1.7-1.4 3.1-3.1 3.1z"/>
	<path id="Layer" class="s1" d="m81.9 102.7c-1.7 0-3.1-1.4-3.1-3.1 0-1.7 1.4-3.1 3.1-3.1 1.7 0 3.1 1.4 3.1 3.1 0 1.7-1.4 3.1-3.1 3.1z"/>
	<path id="Layer" class="s1" d="m81.9 87.9c-1.7 0-3.1-1.3-3.1-3 0-1.7 1.4-3.1 3.1-3.1 1.7 0 3.1 1.4 3.1 3.1 0 1.7-1.4 3-3.1 3z"/>
	<path id="Layer" class="s1" d="m93.6 132.8c-1.7 0-3.1-1.4-3.1-3.1 0-1.7 1.4-3 3.1-3 1.7 0 3.1 1.3 3.1 3 0 1.7-1.4 3.1-3.1 3.1z"/>
	<path id="Layer" class="s1" d="m93.6 118.1c-1.7 0-3.1-1.4-3.1-3.1 0-1.7 1.4-3.1 3.1-3.1 1.7 0 3.1 1.4 3.1 3.1 0 1.7-1.4 3.1-3.1 3.1z"/>
	<path id="Layer" class="s1" d="m93.6 102.7c-1.7 0-3.1-1.4-3.1-3.1 0-1.7 1.4-3.1 3.1-3.1 1.7 0 3.1 1.4 3.1 3.1 0 1.7-1.4 3.1-3.1 3.1z"/>
	<path id="Layer" class="s1" d="m93.6 87.9c-1.7 0-3.1-1.3-3.1-3 0-1.7 1.4-3.1 3.1-3.1 1.7 0 3.1 1.4 3.1 3.1 0 1.7-1.4 3-3.1 3z"/>
	<path id="Layer" class="s1" d="m105.3 132.8c-1.7 0-3.1-1.4-3.1-3.1 0-1.7 1.4-3 3.1-3 1.7 0 3.1 1.3 3.1 3 0 1.7-1.4 3.1-3.1 3.1z"/>
	<path id="Layer" class="s1" d="m116.4 132.8c-1.7 0-3.1-1.4-3.1-3.1 0-1.7 1.4-3 3.1-3 1.7 0 3.1 1.3 3.1 3 0 1.7-1.4 3.1-3.1 3.1z"/>
	<path id="Layer" class="s1" d="m116.4 118.1c-1.7 0-3.1-1.4-3.1-3.1 0-1.7 1.4-3.1 3.1-3.1 1.7 0 3.1 1.4 3.1 3.1 0 1.7-1.4 3.1-3.1 3.1z"/>
	<path id="Layer" class="s1" d="m116.4 102.7c-1.7 0-3.1-1.4-3.1-3.1 0-1.7 1.4-3.1 3.1-3.1 1.7 0 3.1 1.4 3.1 3.1 0 1.7-1.4 3.1-3.1 3.1z"/>
	<path id="Layer" class="s1" d="m116.4 87.9c-1.7 0-3.1-1.3-3.1-3 0-1.7 1.4-3.1 3.1-3.1 1.7 0 3.1 1.4 3.1 3.1 0 1.7-1.4 3-3.1 3z"/>
	<path id="Layer" class="s1" d="m128.1 132.8c-1.7 0-3.1-1.4-3.1-3.1 0-1.7 1.4-3 3.1-3 1.7 0 3.1 1.3 3.1 3 0 1.7-1.4 3.1-3.1 3.1z"/>
	<path id="Layer" class="s1" d="m128.1 118.1c-1.7 0-3.1-1.4-3.1-3.1 0-1.7 1.4-3.1 3.1-3.1 1.7 0 3.1 1.4 3.1 3.1 0 1.7-1.4 3.1-3.1 3.1z"/>
	<path id="Layer" class="s1" d="m128.1 102.7c-1.7 0-3.1-1.4-3.1-3.1 0-1.7 1.4-3.1 3.1-3.1 1.7 0 3.1 1.4 3.1 3.1 0 1.7-1.4 3.1-3.1 3.1z"/>
	<path id="Layer" class="s1" d="m128.1 87.9c-1.7 0-3.1-1.3-3.1-3 0-1.7 1.4-3.1 3.1-3.1 1.7 0 3.1 1.4 3.1 3.1 0 1.7-1.4 3-3.1 3z"/>
	<path id="Layer" class="s1" d="m139.8 132.8c-1.7 0-3.1-1.4-3.1-3.1 0-1.7 1.4-3 3.1-3 1.7 0 3.1 1.3 3.1 3 0 1.7-1.4 3.1-3.1 3.1z"/>
	<path id="Layer" class="s1" d="m139.8 118.1c-1.7 0-3.1-1.4-3.1-3.1 0-1.7 1.4-3.1 3.1-3.1 1.7 0 3.1 1.4 3.1 3.1 0 1.7-1.4 3.1-3.1 3.1z"/>
	<path id="Layer" class="s1" d="m139.8 102.7c-1.7 0-3.1-1.4-3.1-3.1 0-1.7 1.4-3.1 3.1-3.1 1.7 0 3.1 1.4 3.1 3.1 0 1.7-1.4 3.1-3.1 3.1z"/>
	<path id="Layer" class="s1" d="m139.8 87.9c-1.7 0-3.1-1.3-3.1-3 0-1.7 1.4-3.1 3.1-3.1 1.7 0 3.1 1.4 3.1 3.1 0 1.7-1.4 3-3.1 3z"/>
	<path id="Layer" class="s1" d="m151.5 132.8c-1.7 0-3.1-1.4-3.1-3.1 0-1.7 1.4-3 3.1-3 1.7 0 3.1 1.3 3.1 3 0 1.7-1.4 3.1-3.1 3.1z"/>
	<path id="Layer" class="s1" d="m151.5 118.1c-1.7 0-3.1-1.4-3.1-3.1 0-1.7 1.4-3.1 3.1-3.1 1.7 0 3.1 1.4 3.1 3.1 0 1.7-1.4 3.1-3.1 3.1z"/>
	<path id="Layer" class="s1" d="m151.5 102.7c-1.7 0-3.1-1.4-3.1-3.1 0-1.7 1.4-3.1 3.1-3.1 1.7 0 3.1 1.4 3.1 3.1 0 1.7-1.4 3.1-3.1 3.1z"/>
	<path id="Layer" class="s1" d="m105.3 118.1c-1.7 0-3.1-1.4-3.1-3.1 0-1.7 1.4-3.1 3.1-3.1 1.7 0 3.1 1.4 3.1 3.1 0 1.7-1.4 3.1-3.1 3.1z"/>
	<path id="Layer" class="s1" d="m105.3 102.7c-1.7 0-3.1-1.4-3.1-3.1 0-1.7 1.4-3.1 3.1-3.1 1.7 0 3.1 1.4 3.1 3.1 0 1.7-1.4 3.1-3.1 3.1z"/>
	<path id="Layer" class="s1" d="m105.3 87.9c-1.7 0-3.1-1.3-3.1-3 0-1.7 1.4-3.1 3.1-3.1 1.7 0 3.1 1.4 3.1 3.1 0 1.7-1.4 3-3.1 3z"/>
	<path id="Layer" class="s1" d="m70.2 147.6c-1.7 0-3.1-1.4-3.1-3.1 0-1.7 1.4-3.1 3.1-3.1 1.7 0 3.1 1.4 3.1 3.1 0 1.7-1.4 3.1-3.1 3.1z"/>
	<path id="Layer" class="s1" d="m70.2 162.3c-1.7 0-3.1-1.3-3.1-3 0-1.7 1.4-3.1 3.1-3.1 1.7 0 3.1 1.4 3.1 3.1 0 1.7-1.4 3-3.1 3z"/>
	<path id="Layer" class="s1" d="m70.2 177.1c-1.7 0-3.1-1.4-3.1-3.1 0-1.7 1.4-3.1 3.1-3.1 1.7 0 3.1 1.4 3.1 3.1 0 1.7-1.4 3.1-3.1 3.1z"/>
	<path id="Layer" class="s1" d="m70.2 192.5c-1.7 0-3.1-1.4-3.1-3.1 0-1.7 1.4-3.1 3.1-3.1 1.7 0 3.1 1.4 3.1 3.1 0 1.7-1.4 3.1-3.1 3.1z"/>
	<path id="Layer" class="s1" d="m70.2 207.2c-1.7 0-3.1-1.4-3.1-3.1 0-1.7 1.4-3 3.1-3 1.7 0 3.1 1.3 3.1 3 0 1.7-1.4 3.1-3.1 3.1z"/>
	<path id="Layer" class="s1" d="m81.9 147.6c-1.7 0-3.1-1.4-3.1-3.1 0-1.7 1.4-3.1 3.1-3.1 1.7 0 3.1 1.4 3.1 3.1 0 1.7-1.4 3.1-3.1 3.1z"/>
	<path id="Layer" class="s1" d="m81.9 162.3c-1.7 0-3.1-1.3-3.1-3 0-1.7 1.4-3.1 3.1-3.1 1.7 0 3.1 1.4 3.1 3.1 0 1.7-1.4 3-3.1 3z"/>
	<path id="Layer" class="s1" d="m81.9 177.1c-1.7 0-3.1-1.4-3.1-3.1 0-1.7 1.4-3.1 3.1-3.1 1.7 0 3.1 1.4 3.1 3.1 0 1.7-1.4 3.1-3.1 3.1z"/>
	<path id="Layer" class="s1" d="m81.9 192.5c-1.7 0-3.1-1.4-3.1-3.1 0-1.7 1.4-3.1 3.1-3.1 1.7 0 3.1 1.4 3.1 3.1 0 1.7-1.4 3.1-3.1 3.1z"/>
	<path id="Layer" class="s1" d="m81.9 207.2c-1.7 0-3.1-1.4-3.1-3.1 0-1.7 1.4-3 3.1-3 1.7 0 3.1 1.3 3.1 3 0 1.7-1.4 3.1-3.1 3.1z"/>
	<path id="Layer" class="s1" d="m93.6 147.6c-1.7 0-3.1-1.4-3.1-3.1 0-1.7 1.4-3.1 3.1-3.1 1.7 0 3.1 1.4 3.1 3.1 0 1.7-1.4 3.1-3.1 3.1z"/>
	<path id="Layer" class="s1" d="m93.6 162.3c-1.7 0-3.1-1.3-3.1-3 0-1.7 1.4-3.1 3.1-3.1 1.7 0 3.1 1.4 3.1 3.1 0 1.7-1.4 3-3.1 3z"/>
	<path id="Layer" class="s1" d="m93.6 177.1c-1.7 0-3.1-1.4-3.1-3.1 0-1.7 1.4-3.1 3.1-3.1 1.7 0 3.1 1.4 3.1 3.1 0 1.7-1.4 3.1-3.1 3.1z"/>
	<path id="Layer" class="s1" d="m93.6 192.5c-1.7 0-3.1-1.4-3.1-3.1 0-1.7 1.4-3.1 3.1-3.1 1.7 0 3.1 1.4 3.1 3.1 0 1.7-1.4 3.1-3.1 3.1z"/>
	<path id="Layer" class="s1" d="m93.6 207.2c-1.7 0-3.1-1.4-3.1-3.1 0-1.7 1.4-3 3.1-3 1.7 0 3.1 1.3 3.1 3 0 1.7-1.4 3.1-3.1 3.1z"/>
	<path id="Layer" class="s1" d="m105.3 147.6c-1.7 0-3.1-1.4-3.1-3.1 0-1.7 1.4-3.1 3.1-3.1 1.7 0 3.1 1.4 3.1 3.1 0 1.7-1.4 3.1-3.1 3.1z"/>
	<path id="Layer" class="s1" d="m105.3 162.3c-1.7 0-3.1-1.3-3.1-3 0-1.7 1.4-3.1 3.1-3.1 1.7 0 3.1 1.4 3.1 3.1 0 1.7-1.4 3-3.1 3z"/>
	<path id="Layer" class="s1" d="m116.4 162.3c-1.7 0-3.1-1.3-3.1-3 0-1.7 1.4-3.1 3.1-3.1 1.7 0 3.1 1.4 3.1 3.1 0 1.7-1.4 3-3.1 3z"/>
	<path id="Layer" class="s1" d="m116.4 177.1c-1.7 0-3.1-1.4-3.1-3.1 0-1.7 1.4-3.1 3.1-3.1 1.7 0 3.1 1.4 3.1 3.1 0 1.7-1.4 3.1-3.1 3.1z"/>
	<path id="Layer" class="s1" d="m116.4 192.5c-1.7 0-3.1-1.4-3.1-3.1 0-1.7 1.4-3.1 3.1-3.1 1.7 0 3.1 1.4 3.1 3.1 0 1.7-1.4 3.1-3.1 3.1z"/>
	<path id="Layer" class="s1" d="m116.4 207.2c-1.7 0-3.1-1.4-3.1-3.1 0-1.7 1.4-3 3.1-3 1.7 0 3.1 1.3 3.1 3 0 1.7-1.4 3.1-3.1 3.1z"/>
	<path id="Layer" class="s1" d="m128.1 162.3c-1.7 0-3.1-1.3-3.1-3 0-1.7 1.4-3.1 3.1-3.1 1.7 0 3.1 1.4 3.1 3.1 0 1.7-1.4 3-3.1 3z"/>
	<path id="Layer" class="s1" d="m128.1 177.1c-1.7 0-3.1-1.4-3.1-3.1 0-1.7 1.4-3.1 3.1-3.1 1.7 0 3.1 1.4 3.1 3.1 0 1.7-1.4 3.1-3.1 3.1z"/>
	<path id="Layer" class="s1" d="m128.1 192.5c-1.7 0-3.1-1.4-3.1-3.1 0-1.7 1.4-3.1 3.1-3.1 1.7 0 3.1 1.4 3.1 3.1 0 1.7-1.4 3.1-3.1 3.1z"/>
	<path id="Layer" class="s1" d="m128.1 207.2c-1.7 0-3.1-1.4-3.1-3.1 0-1.7 1.4-3 3.1-3 1.7 0 3.1 1.3 3.1 3 0 1.7-1.4 3.1-3.1 3.1z"/>
	<path id="Layer" class="s1" d="m139.8 162.3c-1.7 0-3.1-1.3-3.1-3 0-1.7 1.4-3.1 3.1-3.1 1.7 0 3.1 1.4 3.1 3.1 0 1.7-1.4 3-3.1 3z"/>
	<path id="Layer" class="s1" d="m139.8 177.1c-1.7 0-3.1-1.4-3.1-3.1 0-1.7 1.4-3.1 3.1-3.1 1.7 0 3.1 1.4 3.1 3.1 0 1.7-1.4 3.1-3.1 3.1z"/>
	<path id="Layer" class="s1" d="m139.8 192.5c-1.7 0-3.1-1.4-3.1-3.1 0-1.7 1.4-3.1 3.1-3.1 1.7 0 3.1 1.4 3.1 3.1 0 1.7-1.4 3.1-3.1 3.1z"/>
	<path id="Layer" class="s1" d="m139.8 207.2c-1.7 0-3.1-1.4-3.1-3.1 0-1.7 1.4-3 3.1-3 1.7 0 3.1 1.3 3.1 3 0 1.7-1.4 3.1-3.1 3.1z"/>
	<path id="Layer" class="s1" d="m151.5 162.3c-1.7 0-3.1-1.3-3.1-3 0-1.7 1.4-3.1 3.1-3.1 1.7 0 3.1 1.4 3.1 3.1 0 1.7-1.4 3-3.1 3z"/>
	<path id="Layer" class="s1" d="m151.5 177.1c-1.7 0-3.1-1.4-3.1-3.1 0-1.7 1.4-3.1 3.1-3.1 1.7 0 3.1 1.4 3.1 3.1 0 1.7-1.4 3.1-3.1 3.1z"/>
	<path id="Layer" class="s1" d="m116.4 147.6c-1.7 0-3.1-1.4-3.1-3.1 0-1.7 1.4-3.1 3.1-3.1 1.7 0 3.1 1.4 3.1 3.1 0 1.7-1.4 3.1-3.1 3.1z"/>
	<path id="Layer" class="s1" d="m128.1 147.6c-1.7 0-3.1-1.4-3.1-3.1 0-1.7 1.4-3.1 3.1-3.1 1.7 0 3.1 1.4 3.1 3.1 0 1.7-1.4 3.1-3.1 3.1z"/>
	<path id="Layer" class="s1" d="m139.8 147.6c-1.7 0-3.1-1.4-3.1-3.1 0-1.7 1.4-3.1 3.1-3.1 1.7 0 3.1 1.4 3.1 3.1 0 1.7-1.4 3.1-3.1 3.1z"/>
	<path id="Layer" class="s1" d="m151.5 192.5c-1.7 0-3.1-1.4-3.1-3.1 0-1.7 1.4-3.1 3.1-3.1 1.7 0 3.1 1.4 3.1 3.1 0 1.7-1.4 3.1-3.1 3.1z"/>
	<path id="Layer" class="s1" d="m105.3 177.1c-1.7 0-3.1-1.4-3.1-3.1 0-1.7 1.4-3.1 3.1-3.1 1.7 0 3.1 1.4 3.1 3.1 0 1.7-1.4 3.1-3.1 3.1z"/>
	<path id="Layer" class="s1" d="m105.3 192.5c-1.7 0-3.1-1.4-3.1-3.1 0-1.7 1.4-3.1 3.1-3.1 1.7 0 3.1 1.4 3.1 3.1 0 1.7-1.4 3.1-3.1 3.1z"/>
	<path id="Layer" class="s1" d="m105.3 207.2c-1.7 0-3.1-1.4-3.1-3.1 0-1.7 1.4-3 3.1-3 1.7 0 3.1 1.3 3.1 3 0 1.7-1.4 3.1-3.1 3.1z"/>
	<path id="Layer" fill-rule="evenodd" class="s0" d="m348 111.9h24c13.5 0 22.8 5.5 22.8 17.2q0 2.1-0.6 4.1-0.5 2-1.6 3.8-1 1.8-2.5 3.2-1.5 1.5-3.3 2.5c1.6 0.4 3.1 1.1 4.4 2 1.4 0.9 2.5 2.1 3.5 3.4 0.9 1.4 1.6 2.9 2.1 4.5 0.4 1.5 0.6 3.2 0.4 4.8 0 14.2-11.7 19.1-25.2 19.1h-24zm24.6 25.2q1.2 0 2.3-0.5 1.1-0.5 1.9-1.3 0.7-0.9 1.1-2.1 0.4-1.1 0.2-2.3 0.1-1.1-0.4-2.2-0.5-1.1-1.4-1.9-0.9-0.8-2-1.2-1.1-0.3-2.3-0.2h-8v11.7zm1.2 26.4c1.8 0 3.5-0.7 4.8-2 1.3-1.2 2-2.9 2-4.7 0-1.8-0.7-3.6-2-4.8-1.3-1.3-3-2-4.8-2h-9.8v13.5zm82.5-52.9c9 0 17.6 3.6 23.9 10 6.4 6.3 10 14.9 10 23.9 0 8.9-3.6 17.5-10 23.9-6.3 6.3-14.9 9.9-23.9 9.9-4.5 0.1-9-0.8-13.2-2.5-4.2-1.7-8-4.2-11.2-7.4-3.2-3.3-5.6-7.1-7.3-11.3-1.6-4.2-2.4-8.7-2.2-13.3-0.1-4.4 0.7-8.8 2.4-12.9 1.7-4.1 4.2-7.8 7.4-10.9 3.2-3.2 6.9-5.6 11.1-7.2 4.1-1.6 8.5-2.3 13-2.2zm0 52.9c2.5-0.1 4.9-0.6 7.2-1.7 2.2-1 4.2-2.5 5.9-4.3 1.7-1.9 2.9-4 3.8-6.4 0.8-2.3 1.1-4.8 0.9-7.3 1-5.2-0.4-10.5-3.8-14.6-3.4-4.1-8.4-6.5-13.7-6.5-5.3 0-10.4 2.4-13.8 6.5-3.3 4.1-4.7 9.4-3.8 14.6-0.1 2.5 0.2 4.9 1 7.2 0.7 2.3 2 4.4 3.6 6.3 1.6 1.8 3.5 3.3 5.7 4.4 2.2 1 4.6 1.7 7 1.8zm93.6-52.9c13.7 0.3 25.9 8.8 30.9 21.5 5 12.7 1.9 27.2-8 36.7-9.9 9.5-24.5 12.1-37 6.7-12.6-5.5-20.6-18-20.4-31.7 0-4.4 0.9-8.8 2.7-12.9 1.7-4.2 4.3-7.9 7.5-11 3.2-3.1 7-5.5 11.2-7.1 4.2-1.6 8.6-2.3 13.1-2.2zm0 52.9c2.5-0.1 4.9-0.6 7.2-1.7 2.2-1 4.2-2.5 5.9-4.3 1.7-1.9 3-4 3.8-6.4 0.8-2.3 1.1-4.8 1-7.3 0-4.7-1.9-9.2-5.3-12.6-3.3-3.3-7.9-5.2-12.6-5.2-4.7 0-9.3 1.9-12.6 5.2-3.4 3.4-5.3 7.9-5.3 12.6-0.1 2.5 0.2 5 1 7.3 0.8 2.4 2.1 4.5 3.8 6.4 1.6 1.8 3.7 3.3 5.9 4.3 2.3 1.1 4.7 1.6 7.2 1.7zm63.4-51.6h16v25.2h6.8l13.6-25.2h17.2l-17.8 31.3 19 33.9h-18.4l-13.6-26.5h-6.8v26.5h-16zm81.9 0h16.1v65.1h-16.1zm49.9 0h16l18.5 30.2c2.5 4.3 5.6 11.6 5.6 11.6 0 0-0.7-7.3-0.7-11.6v-30.2h16.1v65.2h-16.1l-18.4-30.1c-2.5-4.3-5.6-11.7-5.6-11.7 0 0 0.6 7.4 0.6 11.7v30.1h-16zm118.9-1.2q3.4-0.2 6.8 0.3 3.4 0.5 6.6 1.6 3.3 1.1 6.2 2.8 3 1.7 5.6 3.9l-7.3 12.3q-1.7-1.4-3.6-2.5-1.9-1.1-3.9-1.9-2.1-0.8-4.2-1.2-2.2-0.5-4.4-0.6c-14.1 0-19.7 8.6-19.7 18.5-0.1 2.6 0.2 5.1 1.1 7.6 0.9 2.4 2.3 4.6 4.1 6.5 1.8 1.8 4 3.3 6.4 4.2 2.4 1 4.9 1.5 7.5 1.4q1.8-0.1 3.5-0.5 1.7-0.3 3.4-0.9 1.6-0.7 3.2-1.5 1.5-0.9 2.9-2.1v-4.9h-9.3v-13.5h24v36.9h-13.5v-4.3q-1.9 1.3-3.9 2.4-2.1 1-4.3 1.7-2.2 0.7-4.5 1.1-2.2 0.3-4.6 0.3c-4.4 0.1-8.8-0.7-12.8-2.4-4.1-1.7-7.8-4.2-10.9-7.4-3.1-3.1-5.4-6.9-7-11.1-1.5-4.1-2.2-8.5-1.9-12.9-0.1-4.5 0.8-9 2.5-13.2 1.7-4.2 4.2-8 7.5-11.1 3.2-3.2 7-5.7 11.2-7.3 4.3-1.6 8.8-2.4 13.3-2.2zm99.8 2.4h6.7v28.9h37v-28.9h6.8v64h-6.8v-29.5h-37v29.5h-6.7zm115.7-1.2c4.4-0.1 8.6 0.7 12.6 2.3 4 1.6 7.7 4 10.7 7 3.1 3.1 5.5 6.7 7.1 10.7 1.6 4 2.4 8.2 2.3 12.5 0 8.7-3.4 17-9.6 23.1-6.1 6.1-14.4 9.5-23.1 9.5-8.6 0-16.9-3.4-23-9.5-6.2-6.1-9.6-14.4-9.6-23.1-0.1-4.3 0.7-8.5 2.3-12.5 1.6-4 4-7.6 7.1-10.7 3-3 6.7-5.4 10.7-7 4-1.6 8.2-2.4 12.5-2.3zm0 60.2c3.6 0 7.2-0.7 10.5-2.1 3.3-1.4 6.2-3.5 8.7-6.1 2.5-2.5 4.4-5.6 5.7-9 1.2-3.3 1.8-6.9 1.6-10.5 0-7-2.8-13.7-7.7-18.6-5-5-11.7-7.8-18.8-7.8-7 0-13.7 2.8-18.7 7.8-4.9 4.9-7.7 11.6-7.7 18.6-0.2 3.6 0.4 7.2 1.6 10.5 1.3 3.4 3.2 6.5 5.7 9 2.4 2.6 5.4 4.7 8.7 6.1 3.3 1.4 6.9 2.1 10.4 2.1zm65.3-59h6.8v58.4h29.6v5.5h-36.4zm65.9 0h21c19.1 0 32.6 11.7 32.6 32 0 20.3-13.5 32-32.6 32h-21zm20.4 58.4c3.5 0.4 7.1 0 10.5-1.2 3.4-1.2 6.5-3.1 9-5.7 2.6-2.5 4.5-5.6 5.7-9 1.2-3.4 1.6-7 1.2-10.5 0.4-3.6 0-7.2-1.2-10.6-1.2-3.4-3.1-6.5-5.7-9-2.5-2.5-5.6-4.5-9-5.7-3.4-1.2-7-1.6-10.5-1.2h-13.6v52.9zm65.9-58.4h6.2v63.9h-6.2zm43.7 0h6.2l32.6 46.2q0.8 1 1.5 2 0.7 1.1 1.4 2.2 0.7 1 1.4 2.1 0.7 1.1 1.3 2.3c0 0-0.6-5.6-0.6-8.6v-46.2h6.1v64h-6.1l-32.7-46.1q-0.7-1.1-1.5-2.1-0.7-1.1-1.4-2.1-0.7-1.1-1.3-2.2-0.7-1.1-1.3-2.2 0.1 1 0.2 2.1 0.1 1.1 0.2 2.2 0.1 1 0.1 2.1 0.1 1.1 0.1 2.2v46.1h-6.2zm115.2-1.2q3.1-0.1 6.1 0.3 3 0.4 5.9 1.3 3 1 5.7 2.4 2.7 1.5 5.1 3.3l-3.1 5q-2-1.7-4.3-2.9-2.2-1.3-4.7-2.2-2.4-0.8-4.9-1.3-2.6-0.4-5.2-0.4c-3.6 0-7.1 0.7-10.4 2.1-3.3 1.4-6.3 3.5-8.8 6.1-2.4 2.6-4.4 5.6-5.6 9-1.3 3.3-1.8 6.9-1.7 10.5-0.1 3.5 0.4 6.9 1.6 10.2 1.3 3.3 3.1 6.3 5.6 8.8 2.4 2.6 5.3 4.6 8.5 5.9 3.2 1.4 6.7 2.1 10.2 2.1q2.9-0.1 5.7-0.7 2.8-0.7 5.4-1.9 2.6-1.1 4.9-2.8 2.4-1.7 4.3-3.8v-11.1h-11.1v-5.5h16.7v30.7h-5.6v-7.3q-2 2-4.4 3.7-2.5 1.6-5.2 2.7-2.7 1.1-5.5 1.6-2.9 0.6-5.8 0.6c-4.3 0-8.6-0.9-12.6-2.6-3.9-1.7-7.5-4.1-10.5-7.2-3-3.1-5.3-6.8-6.9-10.8-1.5-4-2.2-8.3-2-12.6-0.1-4.4 0.7-8.7 2.3-12.7 1.6-4 4-7.7 7-10.8 3-3.1 6.7-5.5 10.7-7.2 4-1.7 8.3-2.5 12.6-2.5zm58.5 53.5q1.8 1.5 3.8 2.8 2 1.2 4.2 2.1 2.2 0.9 4.6 1.3 2.3 0.5 4.7 0.5c1.5 0.2 3.1 0 4.7-0.4 1.5-0.5 2.9-1.3 4.1-2.3 1.2-1.1 2.2-2.3 2.9-3.8 0.7-1.4 1.1-3 1.2-4.6 0-15.9-32.7-12.3-32.7-31.9 0.3-2.5 1-4.9 2.1-7 1.2-2.2 2.7-4.2 4.6-5.8 1.9-1.6 4-2.8 6.4-3.5 2.3-0.8 4.8-1.1 7.3-0.9q2.3-0.1 4.6 0.3 2.4 0.3 4.6 1.1 2.2 0.8 4.2 2 2 1.2 3.8 2.7l-3.1 5.5q-1.4-1.3-3.1-2.3-1.6-1-3.4-1.7-1.9-0.7-3.8-1.1-1.9-0.4-3.8-0.4c-1.7-0.2-3.3 0-4.8 0.5-1.6 0.4-3.1 1.2-4.3 2.2-1.3 1-2.3 2.3-3.1 3.7-0.8 1.5-1.2 3.1-1.4 4.7 0 14.7 32 10.4 32 31.9 0 2.4-0.6 4.8-1.6 7-1 2.2-2.5 4.1-4.2 5.7-1.8 1.6-3.9 2.8-6.2 3.6-2.2 0.8-4.7 1.1-7 1q-2.9 0-5.8-0.5-2.8-0.4-5.5-1.5-2.7-1-5.1-2.5-2.5-1.6-4.6-3.5z"/>
</svg>