<svg version="1.2" xmlns="http://www.w3.org/2000/svg" viewBox="0 0 1572 131" width="1572" height="131">
	<title>q2-2023-earnings-call-presentation-2 (1)-pdf-svg</title>
	<defs>
		<clipPath clipPathUnits="userSpaceOnUse" id="cp1">
			<path d="m-9040.43-5809.5h11062.86v6210h-11062.86z"/>
		</clipPath>
	</defs>
	<style>
		.s0 { fill: #051729 } 
	</style>
	<g id="Clip-Path: Page 1" clip-path="url(#cp1)">
		<g id="Page 1">
			<path id="Path 3" fill-rule="evenodd" class="s0" d="m1067.1 73.9c53.6 53.5 53.6 53.5 53.6 53.5-24.8 0-24.8 0-24.8 0-52.4-53.5-52.4-53.5-52.4-53.5 0-15.5 0-15.5 0-15.5 31.7 0 31.7 0 31.7 0 14.4 0 22.4-6.4 22.4-19.6 0-13.2-8-19.5-22.4-19.5-61.1 0-61.1 0-61.1 0 0 108.1 0 108.1 0 108.1-19 0-19 0-19 0 0-124.8 0-124.8 0-124.8 80.1 0 80.1 0 80.1 0 25.3 0 40.3 14.4 40.3 36.2 0 21.9-15 35.1-40.3 35.1zm238.5-71.3c0 0 0 0 106 0 0 0 0 0 0 16.7 0 0 0 0-88.1 0 0 0 0 0 0 38.5 0 0 0 0 85.3 0 0 0 0 0 0 15.5 0 0 0 0-85.3 0 0 0 0 0 0 38.5 0 0 0 0 88.1 0 0 0 0 0 0 15.6 0 0 0 0-106 0zm-56.5 0c0 0 0 0 17.9 0 0 0 0 0 0 124.2 0 0 0 0-17.9 0 0 0 0 0-81.8-97.2 0 0 0 0 0 97.2 0 0 0 0-18.4 0 0 0 0 0 0-124.2 0 0 0 0 18.4 0 0 0 0 0 81.8 97.1zm-367.6 1.2c0 0 0 0-111.2 123.6 0 0 0 0-19 0 0 0 0 0 0-98.3 0 0 0 0-87.6 98.3 0 0 0 0-19 0 0 0 0 0 0-123.6 0 0 0 0 19 0 0 0 0 0 0 98.3 0 0 0 0 88.2-98.3 0 0 0 0 18.4 0 0 0 0 0 0 98.3 0 0 0 0 88.2-98.3zm55.9 0c17.8 0 17.8 0 17.8 0 0 123.6 0 123.6 0 123.6-17.8 0-17.8 0-17.8 0 0-28.7 0-28.7 0-28.7-62.2 0-62.2 0-62.2 0-26.6 28.7-26.6 28.7-26.6 28.7-22.4 0-22.4 0-22.4 0zm-48.4 78.8c48.4 0 48.4 0 48.4 0 0-53.5 0-53.5 0-53.5zm-499-7.5c0 0 0 0 53.6 52.9 0 0 0 0-24.8 0 0 0 0 0-52.4-53.4 0 0 0 0 0-15.6 0 0 0 0 32.2 0 13.9 0 21.9-6.9 21.9-19.5 0-13.2-8-20.1-21.9-20.1 0 0 0 0-61.6 0 0 0 0 0 0 108.6 0 0 0 0-19 0 0 0 0 0 0-124.2 0 0 0 0 80.6 0 25.4 0 39.8 13.3 39.8 35.7 0 21.8-14.4 35.6-39.8 35.6zm154.5-15.5c0 0 0 0 58.7 0 0 0 0 0 0 58.1-8.6 4.6-17.8 7.5-27.6 9.2-9.8 2.3-20.2 3.4-32.9 3.4-21.3 0-39.7-5.1-53-14.9-8-5.8-13.8-12.1-17.8-19.6-4.1-9.2-7-18.9-7-30.4 0-10.4 2.9-21.3 7.5-29.4 4.1-8 9.8-14.9 17.9-20.7 14.4-8.6 32.3-13.8 52.4-13.8 8.7 0 16.7 0 24.8 1.8 6.3 0 13.8 2.3 21.9 5.1 2.9 0.6 4 1.2 6.9 2.3 0 0 0 0 0.6 0 0 0 0 0 0.6 0.6 1.1 0 1.7 1.2 3.4 1.2 0 0 0 0 0 0.5 0 0 0 0 0 17.3-8.6-4-17.8-7.5-27.6-9.2-9.3-2.3-19-2.9-28.8-2.9-17.9 0-32.9 4-42.7 11.5q-17.3 12.1-17.3 36.8c0 14.4 5.8 27.6 17.3 35.7 11 7.4 25.4 11.5 42.7 11.5 14.9 0 27.6-2.3 40.3-6.4 0 0 0 0 0-32.2 0 0 0 0-40.3 0zm-253 5.8c0 48.3-37.4 65.5-73.7 65.5-19.6 0-37.5-5.7-50.7-15.5-14.5-11.5-22.5-28.7-22.5-50 0-21.3 8-38.5 22.5-48.9 13.2-9.8 31.1-15.5 50.7-15.5 20.7 0 38.6 5.7 51.8 15.5 14.4 10.4 21.9 27.6 21.9 48.9zm-128.5 0c0 15.5 5.8 28.7 16.7 36.8 8.7 8.6 22.5 12.6 38.1 12.6q24.7 0 39.7-12.6c10.4-8.1 15.6-21.3 15.6-36.8 0-29.3-20.8-48.3-55.3-48.3-33.5 0-54.8 19-54.8 48.3zm-38.6 28.2c0 21.2-14.4 34.5-38 34.5-85.9 0-85.9 0-85.9 0 0-124.2 0-124.2 0-124.2 82.4 0 82.4 0 82.4 0 23.1 0 37.5 12.6 37.5 32.7 0 11.5-5.8 20.2-14.4 25.9 12.1 5.8 18.4 16.1 18.4 31.1zm-22.5-55.8c0-12.1-6.9-17.8-19.5-17.8-64 0-64 0-64 0 0 35.6 0 35.6 0 35.6 62.8 0 62.8 0 62.8 0 13.3 0 20.7-6.3 20.7-17.8zm-83.5 74.7c66.8 0 66.8 0 66.8 0 13.9 0 21.4-6.9 21.4-20.1 0-6.3-2.4-21.3-21.9-21.3-66.3 0-66.3 0-66.3 0zm1553.4 15.6c0 0 0 0-24.8 0 0 0 0 0-52.4-52.9 0 0 0 0 0-15.6 0 0 0 0 32.3 0 13.8 0 21.9-6.9 21.9-19.5 0-13.2-8.1-20.1-21.9-20.1 0 0 0 0-61.7 0 0 0 0 0 0 108.1 0 0 0 0-18.4 0 0 0 0 0 0-124.2 0 0 0 0 80.1 0 25.3 0 39.7 13.8 39.7 36.2 0 21.8-14.4 35.1-39.7 35.1 0 0 0 0-8.1 0z"/>
		</g>
	</g>
</svg>