<svg version="1.2" xmlns="http://www.w3.org/2000/svg" viewBox="0 0 1499 511" width="1499" height="511">
	<title>bsc-logo-blue-svg</title>
	<style>
		.s0 { fill: #003c71 } 
	</style>
	<g id="Layer">
		<path id="Layer" fill-rule="evenodd" class="s0" d="m1047.9 336.7h-29v-10.1h34c13.8 0 27.7 0 35.3-8.8v175.1h26.4v10.1h-100.8v-10.1h34.1zm-633.5 0h-26.5v-10.1h32.8c13.8 0 27.7 0 35.2-8.8v175.2h26.5v10h-100.8v-10h34zm751.9 156.2v-156.2h-36.5v-10.1h36.5v-27.7c0-54.2 25.2-110.9 95.7-110.9 40.3 0 59.2 23.9 59.2 42.8 0 15.1-10.1 26.5-23.9 26.5-10.1 0-20.2-7.6-20.2-18.9 0-7.6 3.8-13.9 10.1-16.4 3.8-2.5 7.6-3.8 7.6-8.8 0-7.6-12.6-15.1-30.3-15.1-45.3 0-59.2 31.5-59.2 70.5v58h75.6c13.9 0 27.7 0 36.5-8.8v175.1h31.5v10.1h-99.5v-10.1h26.5v-155h-71.8v155h28.9v10.1h-102v-10.1zm-1085.6-124.7c-54.1-13.9-80.6-40.4-80.6-93.3 0-49.1 35.3-81.9 80.6-81.9 45.4 0 56.7 21.4 71.8 21.4 8.8 0 11.3-6.3 12.6-11.3h11.3v89.5h-12.6c-6.3-47.9-35.2-87-83.1-87-31.5 0-56.7 22.7-56.7 55.5 0 23.9 15.2 47.8 66.8 59.2l22.7 5c57.9 13.9 79.3 46.6 79.3 90.7 0 56.7-32.7 93.3-93.2 93.3-40.3 0-57.9-16.4-74.3-16.4-8.8 0-11.3 5-12.6 12.6h-11.3v-108.4h11.3c6.3 68.1 46.6 100.8 86.9 100.8 40.3 0 66.8-26.4 66.8-59.2 0-29-20.2-55.4-63-64.2zm831.2-30.3h-34v-10.1c39 0 57.9-11.3 65.5-52.9h8.8v52.9h46.6v10.1h-46.6v136.1c0 17.6 7.6 22.7 18.9 22.7 13.8 0 22.7-11.4 27.7-20.2l7.6 5.1c-5.1 11.3-16.4 28.9-47.9 28.9-26.5 0-46.6-11.3-46.6-40.3zm-127.2 155h30.2v-129.8c0-20.1-11.3-29-25.2-29-26.4 0-45.3 25.2-54.1 37.8v122.3h30.2v8.8h-102v-10.1h31.5v-155h-31.5v-10.1h32.7c20.2 0 30.3 0 36.6-8.8v35.3h1.2c8.8-10.1 29-35.3 64.3-35.3 37.7 0 56.6 24 56.6 54.2v121h31.5v8.8h-100.7zm-425.7-49.2h10c-5 34.1-30.2 65.6-69.2 65.6-58 0-84.4-42.9-84.4-94.5 0-58 39-95.8 88.2-95.8 39 0 64.2 22.7 64.2 44.1 0 15.1-10.1 23.9-21.4 23.9h-1.3c-10.1 0-18.9-7.5-18.9-17.6 0-5 1.3-8.8 5.1-12.6 2.5-2.5 5-5 5-8.8 0-7.6-11.3-17.7-30.2-17.7-32.8 0-46.6 27.8-46.6 66.8v40.3c0 40.4 15.1 58 45.3 58 31.5 0 50.4-27.7 54.2-50.4zm1139.7 0c-5 34-30.2 65.5-69.2 65.5-58 0-84.4-42.8-84.4-94.5 0-57.9 39-95.7 88.2-95.7 39 0 64.2 22.6 64.2 44.1 0 15.1-10.1 23.9-21.4 23.9-11.4 0-18.9-8.8-18.9-17.6 0-5.1 2.5-8.9 5-12.6 2.5-2.6 5.1-5.1 5.1-8.9 0-7.5-11.4-17.6-30.3-17.6-32.7 0-46.6 27.7-46.6 66.8v40.3c0 40.3 15.2 58 45.4 58 31.5 0 50.4-27.8 54.1-50.4zm-850.1 0c-7.5 39-35.2 65.5-71.8 65.5-46.6 0-81.8-35.3-81.8-94.5 0-49.2 32.7-94.5 79.3-94.5 52.9 0 76.8 42.8 76.8 69.3q0 3.8 0 7.5c0 1.3-1.2 2.6-3.7 2.6h-108.3v41.5c0 35.3 16.3 54.2 45.3 54.2 29 0 47.9-26.4 52.9-51.6zm-35.3-69.3c0-29-13.8-45.4-35.2-45.4-21.4 0-35.3 17.6-35.3 45.4v13.8h68c1.3 0 2.5-1.2 2.5-2.5zm-389.1-365.4h-27.7v-8.8h100.7c52.9 0 81.9 23.9 81.9 57.9 0 40.4-29 59.3-59.2 61.8v2.5c35.2 1.3 70.5 22.7 70.5 63 0 50.4-45.3 71.8-83.1 71.8h-110.8v-10.1h27.7zm40.3 107.1h12.6c32.7 0 60.4-13.8 60.4-54.1 0-29-21.4-51.7-61.7-51.7h-11.3zm0 132.3h22.6c37.8 0 59.2-26.5 59.2-63 0-34-22.6-60.5-62.9-60.5h-18.9zm220.4 15.1c-43.2 0-78.1-37.1-78.1-83.1 0-46 34.9-83.2 78.1-83.2 43.1 0 78 37.2 78 83.2 0 46-34.9 83.1-78 83.1zm37.7-93.2c0-31.5-2.5-63-39-63-36.5 0-39 31.5-39 63v18.9c0 31.5 3.7 63 39 63 35.3 0 39-31.5 39-63zm360.2 93.2c-43.1 0-78-37.1-78-83.1 0-46 34.9-83.2 78-83.2 43.2 0 78.1 37.2 78.1 83.2 0 46-34.9 83.1-78.1 83.1zm36.6-93.2c0-31.5-2.6-63-39.1-63-36.5 0-39 31.5-39 63v18.9c0 31.5 3.8 63 39 63 35.3 0 39.1-31.5 39.1-63zm149.8 76.9h21.4v-109.7c0-18.9-11.3-25.2-23.9-25.2-16.4 0-34 16.4-41.5 32.8v102.1h26.4v10h-93.2v-10h29v-133.6h-29v-10.1h27.7c16.4 0 30.2 0 36.5-7.5v28.9h1.3c13.8-17.6 34-30.2 56.7-30.2 35.2 0 47.8 25.2 47.8 46.6v105.9h21.4v10h-80.6zm-443.3-54.1c-23.9-3.8-46.6-16.4-46.6-50.4 0-27.8 20.2-46.7 47.9-46.7 20.1 0 28.9 8.9 35.2 8.9 2.6 0 5.1-2.6 5.1-6.3h7.5l1.3 45.3h-7.6c-5-22.7-17.6-36.5-40.3-36.5-20.1 0-31.4 11.3-31.4 25.2 0 13.8 7.5 21.4 31.4 25.2l17.7 2.5c28.9 5 42.8 25.2 42.8 49.1 0 32.8-20.2 54.2-55.4 54.2-24 0-32.8-10.1-40.3-10.1-3.8 0-5.1 1.3-6.3 7.6h-7.6l-1.2-56.7h8.8c1.2 18.9 13.8 47.9 46.6 47.9 17.6 0 32.7-10.1 32.7-29 0-13.9-8.8-26.5-30.2-29zm178.8 50.4c-6.3 10.1-18.9 21.4-41.5 21.4-25.2 0-42.8-10-42.8-35.2v-116h-26.5v-10c30.2 0 50.4-16.4 56.7-53h7.5v53h41.6v10h-41.6v116c0 15.1 8.8 18.9 18.9 18.9 11.4 0 18.9-8.9 22.7-15.2z"/>
	</g>
</svg>