<svg version="1.2" baseProfile="tiny-ps" xmlns="http://www.w3.org/2000/svg" viewBox="0 0 1737 239" width="1737" height="239">
	<title>bms-rebrand-logo-svg</title>
	<style>
		tspan { white-space:pre }
		.shp0 { fill: #595454 } 
		.shp1 { fill: #be2bbb } 
	</style>
	<g id="Page-1">
		<g id="Home">
			<g id="homepage">
				<g id="Nav-/-header">
					<g id="Group">
						<path id="Fill-3" fill-rule="evenodd" class="shp0" d="M1733.06 96.72L1733.06 73.42L1732.86 73.42L1725.48 96.72L1722.23 96.72L1714.89 73.42L1714.7 73.42L1714.7 96.72L1711.3 96.72L1711.3 69.68L1717.29 69.68L1723.9 90.62L1724.09 90.62L1730.77 69.68L1736.5 69.68L1736.5 96.72L1733.06 96.72ZM1697.23 96.72L1697.23 72.77L1690.05 72.77L1690.05 69.68L1708.02 69.68L1708.02 72.77L1700.75 72.77L1700.75 96.72L1697.23 96.72ZM273.29 131.97C292.72 135.98 302.94 148.69 302.94 166.05L302.94 167.39C302.94 189.63 283.96 203.52 256.31 203.52L214.1 203.52L214.1 69.67L253.45 69.67C281.9 69.67 295.85 83.78 295.85 100.93L295.85 103.22C295.85 118.16 287.23 126.53 273.31 131.31L273.29 131.97ZM231.32 126.21L248.6 126.21C266.04 126.21 279.32 121.28 279.32 105.94L279.32 104.59C279.32 91.88 269.75 84.78 251 84.78L231.32 84.78L231.32 126.21ZM285.3 163.74C285.3 146.58 272.27 140.35 253.52 140.35L231.32 140.35L231.32 188.6L253.21 188.6C272.25 188.6 285.3 182.41 285.3 165.85L285.3 163.74ZM364.19 102.18L364.19 117.86L360.17 117.86C344.1 117.86 333.58 125.89 333.58 147.12L333.58 203.52L317.51 203.52L317.51 102.18L333.58 102.18L333.58 120.34L334.34 120.34C337.21 111.17 344.68 102.18 359.22 102.18L364.19 102.18ZM378.48 102.18L394.56 102.18L394.56 203.52L378.48 203.52L378.48 102.18ZM386.52 90.94C380.28 90.94 376.71 87.27 376.71 79.44C376.71 71.62 380.28 67.73 386.52 67.73C392.76 67.73 396.32 71.62 396.32 79.44C396.32 87.27 392.76 90.94 386.52 90.94ZM447.92 205.43C426.49 205.43 412.34 196.25 411.19 175.6L427.26 175.6C427.83 188.03 437.01 192.05 447.92 192.05C458.82 192.05 467.62 187.27 467.62 176.75C467.62 152.08 412.34 169.11 412.34 129.15C412.34 112.5 424.58 100.27 446.96 100.27C467.43 100.27 481.01 110.4 482.54 130.09L466.47 130.09C465.52 118.24 457.29 113.65 446.96 113.65C435.29 113.65 428.02 119 428.02 129.15C428.02 153.04 483.69 138.32 483.69 175.6C483.69 195.11 469.15 205.43 447.92 205.43ZM520.76 102.18L542.57 102.18L542.57 116.33L520.76 116.33L520.76 172.35C520.76 187.07 524.59 190.13 534.35 190.13C537.02 190.13 540.09 189.75 542.57 189.56L542.57 203.33C539.51 203.9 535.49 204.28 532.63 204.28C512.73 204.28 504.7 196.44 504.7 174.83L504.7 116.33L487.67 116.33L487.67 102.18L504.7 102.18L504.7 69.67L520.76 69.67L520.76 102.18ZM590.04 100.27C615.1 100.27 628.49 117.48 628.49 145.39L628.49 160.31C628.49 188.22 615.1 205.43 590.04 205.43C564.98 205.43 551.59 188.22 551.59 160.31L551.59 145.39C551.59 117.48 564.98 100.27 590.04 100.27ZM612.23 146.35C612.23 122.25 603.81 114.42 590.04 114.42C576.26 114.42 567.86 122.25 567.86 146.35L567.86 159.35C567.86 183.44 576.26 191.28 590.04 191.28C603.81 191.28 612.23 183.44 612.23 159.35L612.23 146.35ZM645.47 69.67L661.54 69.67L661.54 203.51L645.47 203.51L645.47 69.67ZM816.54 69.67L843.81 69.67L843.81 203.52L826.78 203.52L826.78 88.23L825.83 88.23L791.58 181.36L770.73 181.36L736.88 88.23L735.92 88.23L735.92 203.52L719.09 203.52L719.09 69.67L747.69 69.67L781.45 162.64L782.41 162.64L816.54 69.67ZM921.95 102.18L938.21 102.18L893.26 236.02L876.62 236.02L887.91 204.28L855 102.18L872.03 102.18L896.32 181.15L897.09 181.15L921.95 102.18ZM981.38 100.27C1006.45 100.27 1017.92 118.24 1017.92 145.39L1017.92 158.01L959.2 158.01L959.2 159.35C959.2 183.44 967.62 191.28 981.38 191.28C991.52 191.28 998.03 187.07 1000.9 175.41L1017.35 175.41C1013.33 194.34 1001.47 205.43 981.38 205.43C956.33 205.43 942.94 188.22 942.94 160.31L942.94 145.39C942.94 118.24 956.33 100.27 981.38 100.27ZM981.38 114.42C967.8 114.42 959.44 122.07 959.22 145.39L1001.64 145.39C1001.45 122.07 994.4 114.42 981.38 114.42ZM1082.47 102.18L1082.47 117.86L1078.45 117.86C1062.39 117.86 1051.87 125.89 1051.87 147.12L1051.87 203.52L1035.8 203.52L1035.8 102.18L1051.87 102.18L1051.87 120.34L1052.63 120.34C1055.5 111.17 1062.96 102.18 1077.5 102.18L1082.47 102.18ZM1127.8 205.43C1106.38 205.43 1092.23 196.25 1091.07 175.6L1107.15 175.6C1107.72 188.03 1116.91 192.05 1127.8 192.05C1138.71 192.05 1147.51 187.27 1147.51 176.75C1147.51 152.08 1092.23 169.11 1092.23 129.15C1092.23 112.5 1104.47 100.27 1126.85 100.27C1147.31 100.27 1160.91 110.4 1162.43 130.09L1146.36 130.09C1145.41 118.24 1137.18 113.65 1126.85 113.65C1115.18 113.65 1107.91 119 1107.91 129.15C1107.91 153.04 1163.58 138.32 1163.58 175.6C1163.58 195.11 1149.04 205.43 1127.8 205.43ZM1249.58 205.43C1225.86 205.43 1206.35 193.96 1203.87 168.33L1221.65 168.33C1223.76 183.44 1234.48 190.52 1249.39 190.52C1266.42 190.52 1274.08 180.38 1274.08 169.11C1274.08 131.05 1205.97 153.04 1205.97 103.14C1205.97 81.72 1223 67.77 1246.72 67.77C1269.67 67.77 1288.8 79.04 1289.95 105.43L1272.16 105.43C1270.63 89.18 1260.3 82.68 1246.53 82.68C1230.27 82.68 1223.19 92.24 1223.19 102.37C1223.19 136.02 1291.29 116.14 1291.29 168.14C1291.29 192.05 1274.84 205.43 1249.58 205.43ZM1363.9 102.18L1379.97 102.18L1379.97 236.02L1363.9 236.02L1363.9 191.28L1363.11 191.28C1358.77 200.22 1350.51 205.43 1339.98 205.43C1314.92 205.43 1303.44 188.22 1303.44 160.31L1303.44 145.39C1303.44 117.48 1314.92 100.27 1339.98 100.27C1350.51 100.27 1358.77 105.47 1363.11 114.42L1363.9 114.42L1363.9 102.18ZM1341.89 191.28C1355.66 191.28 1364.09 183.44 1364.09 159.35L1364.09 146.35C1364.09 122.25 1355.66 114.42 1341.89 114.42C1328.13 114.42 1319.7 122.25 1319.7 146.35L1319.7 159.35C1319.7 183.44 1328.13 191.28 1341.89 191.28ZM1453.76 102.18L1469.84 102.18L1469.84 203.52L1453.76 203.52L1453.76 190.52L1453 190.52C1449.17 198.73 1440.95 205.43 1428.13 205.43C1409.2 205.43 1397.52 194.72 1397.52 170.82L1397.52 102.18L1413.79 102.18L1413.79 168.53C1413.79 184.78 1420.49 191.86 1432.54 191.86C1444.2 191.86 1453.76 184.01 1453.76 164.32L1453.76 102.18ZM1490.47 102.18L1506.54 102.18L1506.54 203.52L1490.47 203.52L1490.47 102.18ZM1568.06 100.27C1593.12 100.27 1604.6 117.48 1604.6 145.39L1604.6 160.31C1604.6 188.22 1593.12 205.43 1568.06 205.43C1557.37 205.43 1549.22 200.22 1544.92 191.28L1544.16 191.28L1544.16 203.52L1528.09 203.52L1528.09 69.67L1544.16 69.67L1544.16 114.42L1544.92 114.42C1549.22 105.47 1557.37 100.27 1568.06 100.27ZM1588.35 146.35C1588.35 122.25 1579.93 114.42 1566.16 114.42C1552.38 114.42 1543.97 122.25 1543.97 146.35L1543.97 159.35C1543.97 183.44 1552.38 191.28 1566.16 191.28C1579.93 191.28 1588.35 183.44 1588.35 159.35L1588.35 146.35ZM1660.35 100.27C1685.41 100.27 1696.89 117.48 1696.89 145.39L1696.89 160.31C1696.89 188.22 1685.41 205.43 1660.35 205.43C1649.65 205.43 1641.5 200.22 1637.2 191.28L1636.44 191.28L1636.44 203.52L1620.37 203.52L1620.37 69.67L1636.44 69.67L1636.44 114.42L1637.2 114.42C1641.5 105.47 1649.65 100.27 1660.35 100.27ZM1680.63 146.35C1680.63 122.25 1672.22 114.42 1658.43 114.42C1644.67 114.42 1636.25 122.25 1636.25 146.35L1636.25 159.35C1636.25 183.44 1644.67 191.28 1658.43 191.28C1672.22 191.28 1680.63 183.44 1680.63 159.35L1680.63 146.35ZM1498.5 90.94C1492.27 90.94 1488.7 87.27 1488.7 79.44C1488.7 71.62 1492.27 67.73 1498.5 67.73C1504.74 67.73 1508.31 71.62 1508.31 79.44C1508.31 87.27 1504.74 90.94 1498.5 90.94Z" />
						<path id="Fill-1" fill-rule="evenodd" class="shp1" d="M56.84 238.81C55.2 238.81 53.63 238.45 52.15 237.72C18.33 221.34 0.47 192.47 0.47 154.22L0.47 111.02C0.47 105.07 5.3 100.24 11.24 100.24C17.18 100.24 22.02 105.07 22.02 111.02L22.02 154.22C22.02 184.05 35.32 205.62 61.56 218.34C66.9 220.94 69.14 227.39 66.55 232.73C64.76 236.43 60.95 238.81 56.84 238.81ZM34.66 44.45C34.66 38.34 39.61 33.39 45.71 33.39C51.82 33.39 56.78 38.34 56.78 44.45L56.78 132.61C56.78 138.72 51.82 143.66 45.71 143.66C39.61 143.66 34.66 138.72 34.66 132.61L34.66 44.45ZM68.88 11.52C68.88 5.41 73.83 0.47 79.93 0.47C86.04 0.47 90.99 5.41 90.99 11.52L90.99 130.05C90.99 136.15 86.04 141.1 79.93 141.1C73.83 141.1 68.88 136.15 68.88 130.05L68.88 11.52ZM103.09 31.8C103.09 25.69 108.04 20.74 114.15 20.74C120.26 20.74 125.21 25.69 125.21 31.8L125.21 138.2C125.21 144.31 120.26 149.25 114.15 149.25C108.04 149.25 103.09 144.31 103.09 138.2L103.09 31.8ZM137.31 80.37C137.31 74.45 142.11 69.65 148.03 69.65C153.96 69.65 158.76 74.45 158.76 80.37L158.76 152.28C158.76 158.21 153.96 163 148.03 163C142.11 163 137.31 158.21 137.31 152.28L137.31 80.37Z" />
					</g>
				</g>
			</g>
		</g>
	</g>
</svg>