<svg version="1.2" xmlns="http://www.w3.org/2000/svg" viewBox="0 0 1568 319" width="1568" height="319">
	<title>Broadridge_Financial_Solutions_Logo-svg</title>
	<style>
		.s0 { fill: #00578e } 
	</style>
	<g id="Layer">
		<g id="Layer">
			<path id="Layer" fill-rule="evenodd" class="s0" d="m444.6 247.7h-54.9v-167.5h55.6c31 0 57.9 10 57.9 41.7 0 21.6-11.6 33.6-29.6 38.3v0.3c20 3 36.6 16.3 36.6 40.3 0 34.6-27.3 46.9-65.6 46.9zm-3-140.1h-20.6v41.6h19.6c19 0 27.3-6.7 27.3-21.7 0.4-13.6-8.6-19.9-26.3-19.9zm-0.3 66.9h-20v45.9h18.7c20.3 0 31.3-6.3 31.3-22.3-0.4-15.6-9.4-23.6-30-23.6zm160.2-19.7c-2-1.3-5.7-2.6-13-2.6-15 0-23.6 13-26.6 18.6v76.9h-33.4v-122.5h33.4v16.7c5.3-9 15.3-19.7 30.9-19.7 9 0 13.7 1.7 16.7 3.3zm67.6 95.9c-42.6 0-61.3-32.3-61.3-63.9 0-31.3 18.3-64.6 61-64.6 42.6 0 61.9 32.3 61.9 63.6 0 31-18.6 64.9-61.6 64.9zm-0.7-103.5c-19 0-25.3 16-25.3 38.6 0 22.6 7.7 39.3 26.3 39.3 19 0 26-15.7 26-38.6 0-22.7-8-39.3-27-39.3zm144.6 100.5c-1-3-1.7-9.3-2-12.9-5.7 6.6-17 15.9-34.3 15.9-21 0-37-12.6-37-34.3 0-31.9 33-43.6 65.3-43.6h4.3v-7c0-10.6-4.3-17-20-17-15.6 0-26.6 8.4-31.3 11.7l-14.6-20.3c7.3-6.7 23.3-17.7 49.6-17.7 33.3 0 49.3 13 49.3 45.3v44c0 16.6 1.6 28.3 3.6 36.3h-32.9zm-11.4-54.3c-19.6 0-33.3 5.7-33.3 20 0 9 7.4 12.6 14.7 12.6 12 0 19-7 22.6-11v-21.6zm112.9-71.3c15 0 24 5.4 28.4 8.7v-63.3h33.3v145.2c0 16 2 28.3 3.6 35h-32.6c-1-3-2.3-9.7-2.7-13.3-7.6 8.9-18 16.6-34.3 16.6-30.6 0-50.3-23-50.3-63.9 0-39.7 23.3-65 54.6-65zm5.7 101.9c12 0 20-8.6 23-12.3v-55.3c-4.3-3.6-10.7-8-21.3-8-17 0-26.3 14.4-26.3 38.3-0.4 23.3 7.3 37.3 24.6 37.3zm154.5-69.2c-2-1.4-5.6-2.7-12.6-2.7-15 0-23.7 13-26.7 18.7v76.9h-33.3v-122.6h33.3v16.7c5.4-9 15.4-19.7 31-19.7 9 0 14 1.7 16.7 3.4zm37.6-45.3c-10.5 0-19-8.3-19-18.5 0-10.2 8.5-18.5 19-18.5 10.5 0 19 8.3 19 18.5 0 10.2-8.5 18.5-19 18.5zm-16.6 15.6h33.6v122.6h-33.6zm106.9-3c14.9 0 23.9 5.3 28.3 8.6v-63.2h33.3v145.1c0 16 2 28.3 3.6 35h-32.9c-1-3-2.4-9.6-2.7-13.3-7.7 9-18 16.6-34.3 16.6-30.6 0-50.3-22.9-50.3-63.9 0-39.6 23.7-64.9 55-64.9zm5.6 101.9c12 0 20-8.7 23-12.4v-55.2c-4.3-3.7-10.7-8-21.3-8-17 0-26.3 14.3-26.3 38.3-0.4 23.3 7.3 37.3 24.6 37.3zm193.9-101.9v24.9h-16.4c3 5.7 4.7 12.7 4.7 19.7 0 26-18.6 44.3-53 44.3-5.3 0-9.9-0.7-14.6-1.4-2 1.7-4.7 3.7-4.7 7.4 0 6.6 7 7.6 24.7 8.6 25.3 1.4 57.6 1.7 57.6 37.7 0 25.9-27 44.2-66.9 44.2-33.7 0-54-10.6-54-32.6 0-13.6 8.3-23.3 20.6-30-6.6-4-10.6-9.6-10.6-18.6 0-11.7 6.6-18.6 13.6-23-13.6-7.6-21.9-20.6-21.9-36.6 0-26.3 20.3-44.6 54.2-44.6 8.7 0 66.7 0 66.7 0zm-93.6 146.5c0 10 6.6 16.6 24 16.6 20.3 0 31.9-7.6 31.9-17.9 0-13-11.6-12.7-29.3-14-5.6-0.4-11.3-1-16.6-1.7-6.7 4.3-10 9.7-10 17zm49.6-101.9c0-14.3-8.3-22.7-22-22.7-13.6 0-22 8.4-22 22.7 0 14 8.4 22.6 22 22.6 13.7 0 22-8.6 22-22.6zm116.9 58.9c16.6 0 26-5.6 32-8.6l10.6 21.6c-8 4.7-20.6 11.7-45.6 11.7-41 0-63.9-26-63.9-65 0-38.6 26.6-63.6 60.6-63.6 38.3 0 56.9 26.7 52.9 72h-77.6c1 19.3 10.7 31.9 31 31.9zm14-54.2c-0.3-13.7-5.7-25-21-25-14 0-22 9-24.3 25zm61.1-14.4c-9.5 0-17.1-7.7-17.1-17.3 0-9.6 7.6-17.3 17.1-17.3 9.5 0 17.2 7.7 17.2 17.3 0 9.6-7.7 17.3-17.2 17.3zm14.2-17.3c0-8.1-6.4-14.6-14.4-14.6-7.9 0-14.3 6.5-14.3 14.6 0 8.1 6.4 14.7 14.3 14.7 8 0 14.4-6.6 14.4-14.7zm-9.7 10l-4.7-7c-1-1.3-1.6-2-3-2v9h-3.3v-20.6h6.7c4.3 0 6.3 2.6 6.3 5.6 0 3-2 5-5.3 5.4 0.6 0.6 1.6 1.3 2.3 2.6l4.7 6.7zm-5-17.7h-3v6.4h2c2.3 0 4.6-0.4 4.6-3 0-2-1-3.4-3.6-3.4z"/>
		</g>
		<g id="Layer">
			<path id="Layer" fill-rule="evenodd" class="s0" d="m283.1 318h-282.1v-317l282.1 0.3zm-130.9-158.5h126.2v-153.8h-272.7v8.6c75.6 0.7 110.9 40.3 127.5 73 3.7 7.3 6.7 14.6 9 21.6 25-61.3 93.3-62.3 94.3-62.3v19.4c-3.4 0-84 0.6-84 93.2h-20.6c0 92.6-80.9 95.2-84.3 95.2v19.3c1 0 69.3-0.6 94.3-62.2 2.3 7 5.3 14.3 9 21.6 16.6 33.3 51.9 72.9 127.5 73.6v-17.3c-53.9-0.7-90.9-22-111.9-63.6-3-5.7-5.3-11.7-7.3-17.3 12.3 12.3 31.6 22.3 62.6 22.3v-13.3c-68.3 0-69.6-55.6-69.6-58zm-146.5-0.3h126.2c0-2.3-1.3-55.6-69.6-55.6v-13.3c31 0 50.3 10 62.6 22.3-2-5.7-4.3-11.3-7.3-17.3-21-41.7-58.3-63-111.9-63.6z"/>
		</g>
	</g>
</svg>