<svg version="1.2" xmlns="http://www.w3.org/2000/svg" viewBox="0 0 1590 280" width="1590" height="280">
	<title>Brown-Brown-Insurance-2020-Annual-Report-1-pdf-svg</title>
	<defs>
		<clipPath clipPathUnits="userSpaceOnUse" id="cp1">
			<path d="m-420.71-286.96h4951.92v6402.93h-4951.92z"/>
		</clipPath>
	</defs>
	<style>
		.s0 { fill: #2c2e35 } 
		.s1 { fill: #002856 } 
		.s2 { fill: none;stroke: #002856;stroke-width: 1.6 } 
		.s3 { fill: #ffffff } 
		.s4 { fill: #c50d3c } 
	</style>
	<g id="Clip-Path: Page 1" clip-path="url(#cp1)">
		<g id="Page 1">
			<path id="Path 28" fill-rule="evenodd" class="s0" d="m337.1 259.6c0 10.9 0.4 14.9 3.2 14.9h6.5v3.2h-26.3v-3.2h5.2c1.2 0 2-0.8 2-1.6v-44.9c0-10.9-0.4-14.9-3.2-14.9h-6.5v-3.3h25.9v3.3h-5.2c-1.2 0-1.6 0.8-1.6 1.6zm84.9 3.2h0.4v-38.4c0-4.8-0.4-11.3-3.6-11.3h-6.1v-3.2h20.6v3.2h-4.4c-1.2 0-2.4 0.4-2.4 2v61.9c0 1.2 0 2-0.8 2-0.5 0-0.9-0.4-1.7-1.2l-1.2-1.6-48.5-55.8h-0.4v43.2c0 4.9 0.4 10.9 3.6 10.9h6.1v3.3h-20.7v-3.3h4.5c1.2 0 2.4-0.4 2.4-2v-46.9c0-8.9-0.8-12.5-6-12.5h-3.7v-3.2h16.2zm36.4-38.8c0 8.9 8.5 11.3 15.4 14.1 14.1 4.9 21 9.3 21 20.6 0 9.3-8.5 21-26.7 21-5.6 0-12.5-0.8-17.8-2.8-1.2-6.9-1.6-8.9-1.6-10.1 0-0.4 0.4-1.2 1.6-1.2 0.8 0 1.2 1.2 1.6 2 1.7 6.1 11.8 8.5 17.4 8.5 8.9 0 18.2-4.4 18.2-14.1 0-8.1-6.4-11.8-17.8-15.8-4.8-1.6-18.6-5.7-18.6-18.6 0-12.9 13.4-19.8 25.5-19.8 4.5 0 8.9 0.4 12.6 2 0 2.4 0.4 5.3 0.4 7.7 0 0.8-0.4 1.6-1.3 1.6-1.2 0-1.2-0.8-1.2-1.6-0.8-4.5-10.1-5.7-13.7-5.7-7.3 0-15 4.1-15 12.2zm47.3-14.2h25.9v3.2h-5.2c-1.2 0-1.6 0.9-1.6 1.7v40.8c0 15.8 10.9 19.8 19 19.8 23 0 23.4-17 23.4-25.5v-25.4c0-4.9 0-11.4-3.6-11.4h-5.7v-3.2h20.3v3.2h-4.1c-1.2 0-2.4 0.5-2.4 2.1v38.4c0 16.1-10.9 26.2-28.3 26.2-26.7 0-28-16.5-28-27.8v-23.9c0-10.9-0.4-15-3.2-15h-6.5zm96.3 18.2c0-10.9-0.4-14.9-3.2-14.9h-6.5v-3.3h31.2c10.1 0 22.6 4.9 22.6 18.6 0 9.3-7.7 15.4-17.4 17 18.2 25.9 22.3 29.1 25.5 29.1h2.8v3.3h-12.9c-2.4 0-3.6 0-24.3-30.8h-8.1v12.6c0 10.9 0 14.9 2.9 14.9h6.4v3.3h-25.9v-3.3h5.3c1.2 0 1.6-0.8 1.6-1.6zm15 15.8c9.7 0 19.4-3.7 19.4-13.8 0-10.1-7.7-16.5-16.6-16.5h-5.6c-1.2 0-2.5 0.4-2.5 1.6v28.7zm64.8 8.5c-2.5 6-6.5 16.5-6.5 19.4 0 2.4 0.8 2.8 2.8 2.8h6.9v3.2h-22.7v-3.2h2.5c1.6 0 3.2-0.4 4-1.6l28.3-64.3c2.5-0.8 5.7-1.2 6.5-1.2 0.4 0 1.2 0 1.2 0.8 0 1.6-2 1.2-2 3.2 0 4.9 13.8 40.5 19 55 2.9 6.5 4.1 8.1 6.9 8.1h3.6v3.2h-25v-3.2h6q1.2 0 1.2-1.2c0-0.8-2.8-8.1-7.6-21zm14.1-32.4l-12.5 28.3h22.2zm109.7 42.9h0.4v-38.4c0-4.9-0.4-11.4-3.7-11.4h-6v-3.2h20.6v3.2h-4.1c-1.6 0-2.8 0.4-2.8 2.1v61.8c0 1.2 0 2-0.8 2-0.4 0-0.8-0.4-1.6-1.2l-1.2-1.6-48.6-55.8v43.3c0 4.8 0 10.9 3.7 10.9h5.6v3.2h-20.2v-3.2h4c1.3 0 2.5-0.4 2.5-2v-46.9c0-8.9-0.8-12.6-6.1-12.6h-3.6v-3.2h16.1zm91.5-42.4c-1.2 0-1.2-0.4-1.6-2.1-0.4-3.6-9.8-6.4-16.6-6.4-20.3 0-32.4 14.9-32.4 33.5 0 19.8 15.8 30.8 29.5 30.8 10.2 0 21.5-4.5 21.9-10.6 0.4-0.8 0.4-2 1.6-2 0.8 0 1.2 0.8 1.2 1.6 0 0.8-0.4 2.5-0.8 9.3-7.3 3.3-17 5.3-25.5 5.3-22.2 0-38-10.9-38-33.2 0-23 20.2-38.8 43.3-38.8 6.9 0 13.3 1.7 19.4 3.7-0.8 8.9-1.2 8.9-2 8.9zm23.4 7.6c0-10.9 0-14.9-3.2-14.9h-6.5v-3.2h56.3c-1.2 9.3-1.7 9.7-2.5 10.1-0.8 0-1.2-0.8-1.6-2.1 0-1.2-2-4-19.8-4h-10.9c-1.6 0-2.1 0.8-2.1 1.6v23.5h13c11.3 0 15-0.4 15-3.7v-4h2.8v17.8h-2.8v-3.7c0-2.8-1.2-2.8-14.2-2.8h-13.8v18.2c0 13.3 1.3 13.3 4.5 13.3h7.3c19 0 23.4-2.8 25.5-5.6 0.4-0.8 0.4-1.2 1.2-1.2 0.4 0 0.8 0.4 0.8 1.2 0 0.8-1.2 5.2-2.4 9.3h-53.4v-3.3h5.2c1.2 0 1.6-0.8 1.6-1.6z"/>
			<path id="Path 29" fill-rule="evenodd" class="s1" d="m333 43.3c0-25.5-0.8-34.8-6.9-34.8h-14.5v-7.2h73.6c24.3 0 41.3 13.3 41.3 34.7 0 17.4-14.6 28.3-29.6 34v0.4c21.5 4 39.3 19 39.3 41.6 0 20.6-13.8 45.3-62.3 45.3h-56.3v-7.3h11.8c2.4 0 3.6-1.6 3.6-4zm74-3.3c0-21.8-17-29.9-29.1-29.9h-19.4c-3.6 0-4.9 0-4.9 4.5v51.3c23.1 0 27.1 0.4 34.8 2 11.4-6 18.6-14.5 18.6-27.9zm-53.4 33.2v44.8c0 30.4 2.9 30.4 10.2 30.4h15.3c27.5 0 36-18.6 36-34.4 0-12.9-7.7-40.8-47.7-40.8zm659.8 8.1c0 5.2-6.4 8-12.1 8-5.7 0-10.5-1.6-17.4-3.6l-0.4 0.4c6.1 5.7 8.1 11.7 8.1 20.2 0 10.5-4.9 21-12.5 28.3 4.4 3.7 11.7 8.1 17.8 8.1 4 0 7.6-1.6 10.9-4l2.4 3.2c-4.4 3.2-15.8 11.3-21 11.3-6.1 0-16.2-6-20.7-9.3-10.5 6.9-22.6 9.3-35.2 9.3-22.6 0-46.9-10.1-46.9-36.4 0-15.3 11.3-27.9 26.3-31.1-3.6-5.6-7.3-12.1-7.3-18.6 0-14.1 14.6-23.8 27.9-23.8 5.3 0 11.8 1.2 16.2 4.4-2.4 12.1-2.4 12.9-4 12.9-1.6 0-1.6-1.2-1.6-2.4-0.8-5.6-9.3-8.1-14.2-8.1-7.3 0-14.2 3.7-14.2 11.8 0 16.1 45.4 61 59.1 69.5 6.1-5.7 8.5-13.4 8.5-23.1 0-11.3-8.1-25.4-22.2-25.4-3.7 0-6.1 1.2-9.4 3.6l-2-3.2c4.1-5.3 10.9-7.3 17.8-7.3 4.5 0 8.9 1.2 13 1.6 4.8 0.8 8.9 1.6 13.3 1.6 9.3 0 12.6-2.8 14.2-5.6 1.6-3.2 2-5.3 4-5.3 1.6 0 1.6 1.2 1.6 2.9zm-114 30.3c0 18.2 13.7 35.5 40.8 35.5 8.1 0 16.6-2 23.5-6.4-21.5-18.2-37.6-37.2-48.2-50.5-10.9 0-16.1 11.7-16.1 21.4zm-426.9 6.4c0 21.1 0.4 30.8 6.1 30.8h8.9v5.2h-40v-5.2h6.8c1.6 0 3.7-0.8 3.7-3.3v-46.1c0-23.4-1.2-23.4-7.7-23.4h-6.9v-5.3c2.8 0 8.9-0.8 15-1.6 6-0.8 12.1-1.6 14.1-1.6v17c7.7-8.1 16.2-17 24.3-17 3.2 0 6.9 1.6 8.9 4.1-2.4 14.9-2.4 15.3-4 15.3-2.9 0-1.2-6-11-6-7.6 0-13.3 5.2-18.2 10.5z"/>
			<path id="Path 30" fill-rule="evenodd" class="s1" d="m595.2 110.4c0 15.8-9.7 46.9-42.5 46.9-24.3 0-38-18.6-38-43.3 0-15.7 9.7-46.5 42.4-46.5 24.3 0 38.1 18.6 38.1 42.9zm-15.4 4.8c0-16.9-6.9-42-27.1-42-18.6 0-23.1 20.6-23.1 36 0 17.4 7.3 42 27.1 42 19 0 23.1-20.2 23.1-36zm114.1-44.8v5.2h-8.5c-1.2 0-3.3 0-3.3 1.6 0 1.7 4.1 11.4 21.1 57 17.8-44.4 20.2-51.3 20.2-55.3 0-2.9-1.6-3.3-4-3.3h-8.5v-5.2h30.7v5.2c-6.5 0-7.3 0-8.1 0.8-2.4 3.3-10.9 25.5-31.9 78.5-0.8 1.6-2.1 2.4-2.9 2.4-1.2 0-2-0.4-2.8-2.8l-20.6-55-22.3 55.4c-0.4 1.6-1.6 2.4-2.4 2.4-1.2 0-2-0.4-2.8-2.8-29.6-78.9-30.8-78.9-34.4-78.9h-4.9v-5.2h36.4v5.2h-8.5c-1.2 0-2.8 0-2.8 1.6 0 1.3 2.4 7.7 21 57l17.8-42c-6.8-16.6-7.2-16.6-9.7-16.6h-5.2v-5.2zm137.5 48.5c0 21 0.4 29.9 5.7 29.9h8.1v5.3h-38.1v-5.3h6.5c1.6 0 3.7-0.8 3.7-2.8v-45.3c0-17.4-6.1-21.4-14.6-21.4-9.3 0-16.6 4.8-23.5 10.9v28.7c0 21 0.4 29.9 5.7 29.9h8.1v5.3h-38v-5.3h6.4c1.7 0 3.7-0.8 3.7-2.8v-45.3c0-23-1.2-23-7.3-23h-7.3v-4.9c2.8 0 9.3-0.8 15-1.6 6-0.8 11.7-1.6 13.7-1.6v14.5c9.3-7.3 17.8-14.5 30.4-14.5 19 0 21.8 12.9 21.8 27.1zm245.6-75.6c0-25.1-0.8-34.8-6.9-34.8h-14.5v-7.3h73.6c24.3 0 41.3 13.8 41.3 34.8 0 17.4-14.6 28.3-29.6 33.9v0.4c21.5 4.1 39.3 19 39.3 41.7 0 20.6-13.8 45.3-62.3 45.3h-56.3v-7.3h11.8c2.4 0 3.6-1.6 3.6-4.1zm74-3.2c0-21.8-17-29.9-29.1-29.9h-19.4c-3.7 0-4.9 0-4.9 4.4v51.4c23.1 0 27.1 0.4 34.8 2 11.3-6.1 18.6-14.6 18.6-27.9zm-53.4 33.1v44.9c0 30.7 2.9 30.7 10.1 30.7h15.4c27.1 0 36-19 36-34.7 0-13-7.7-40.9-48.1-40.9zm119.3 44.9c0 21 0.4 30.3 5.7 30.3h9.3v5.3h-40.1v-5.3h6.5c2 0 4.1-0.8 4.1-2.8v-46.1c0-23.4-1.7-23.4-7.7-23.4h-6.9v-5.3c2.8 0 8.9-0.8 15-1.6 6-0.8 12.1-1.6 14.1-1.6v17c7.7-8.1 16.2-17 24.3-17 3.2 0 6.9 1.6 8.9 4-2.4 15-2.4 15.4-4 15.4-2.9 0-1.3-6.5-11.4-6.5-7.3 0-12.9 5.7-17.8 10.9zm122.2-7.2c0 15.7-9.7 46.4-42.5 46.4-24.2 0-38-18.5-38-42.8 0-15.8 9.7-46.9 42.5-46.9 24.3 0 38 18.6 38 43.3zm-15 4.8c0-17-7.2-42-27.1-42-19 0-23 20.2-23 35.9 0 17 6.8 42.1 27.1 42.1 18.6 0 23-20.2 23-36zm113.7-45.3v5.3h-8.5c-1.2 0-2.8 0-2.8 2 0 1.2 4 10.9 20.6 57 17.8-44.5 20.7-51.3 20.7-55.4 0-3.2-1.7-3.6-4.1-3.6h-8.9v-5.3h30.8v5.3c-6.5 0-7.3 0-8.1 0.8-2.5 3.2-11 25.9-32 78.8-0.8 1.6-1.6 2.5-2.8 2.5-0.8 0-1.6-0.5-2.9-2.9l-20.6-55-21.8 55.4c-0.8 1.6-1.7 2.5-2.9 2.5-1.2 0-1.6-0.5-2.8-2.9-29.5-79.2-30.3-79.2-34.4-79.2h-4.8v-5.3h36.4v5.3h-8.5c-0.8 0-2.9 0-2.9 2 0 1.2 2.9 7.7 21.1 57l17.8-42c-6.9-17-7.3-17-9.7-17h-5.3v-5.3zm138 49c0 20.6 0 29.9 5.6 29.9h8.1v5.2h-38.4v-5.2h6.5c1.6 0 3.6-0.8 3.6-3.3v-44.8c0-17.8-6.1-21.5-14.2-21.5-9.7 0-16.9 4.9-23.4 11v28.7c0 20.6 0 29.9 5.6 29.9h8.1v5.2h-38.4v-5.2h6.5c1.6 0 3.6-0.8 3.6-3.3v-44.8c0-23.1-1.2-23.1-7.3-23.1h-6.8v-5.2c2.8 0 8.9-0.8 14.5-1.2 6.1-0.9 12.2-1.7 14.2-1.7v14.2c9.3-7.3 17.4-14.2 29.9-14.2 19 0 22.3 13 22.3 27.1z"/>
			<path id="Path 31" fill-rule="evenodd" class="s0" d="m989.2 230.9c-6.2 0-11.3-5.2-11.3-11.6 0-6.3 5.1-11.5 11.3-11.5 6.3 0 11.3 5.2 11.3 11.5 0 6.4-5 11.6-11.3 11.6zm8.9-11.6c0-5-3.9-9.1-8.7-9.1-4.8 0-8.7 4.1-8.7 9.1 0 5.1 3.9 9.1 8.7 9.1 4.8 0 8.7-4 8.7-9.1zm-10.9 6.7h-2.4v-12.5c0.8-0.4 2-0.4 4-0.4 2 0 3.2 0.4 4.1 0.8q1.2 0.8 1.2 2.8c0 1.6-0.8 2.4-2.5 2.8q1.7 0.4 2.1 3.3c0.4 2 0.4 2.8 0.8 3.2h-2.9q-0.4-0.8-0.8-3.2c0-1.6-0.8-2.1-2.4-2.1h-1.2zm0-7.2h1.2c1.6 0 2.8-0.4 2.8-2 0-0.9-0.8-1.7-2.4-1.7q-1.2 0-1.6 0zm-650.1 40.9c0 10.9 0.4 14.9 3.2 14.9h6.5v3.3h-26.3v-3.3h5.2c1.2 0 2-0.8 2-1.6v-44.9c0-10.9-0.4-14.9-3.2-14.9h-6.5v-3.3h25.9v3.3h-5.2c-1.2 0-1.6 0.8-1.6 1.6zm84.9 3.2h0.4v-38.4c0-4.8-0.4-11.3-3.6-11.3h-6.1v-3.2h20.6v3.2h-4.4c-1.2 0-2.4 0.4-2.4 2v61.9c0 1.2 0 2-0.8 2-0.5 0-0.9-0.4-1.7-1.2l-1.2-1.6-48.5-55.8h-0.4v43.2c0 4.9 0.4 10.9 3.6 10.9h6.1v3.3h-20.7v-3.3h4.5c1.2 0 2.4-0.4 2.4-2v-46.9c0-8.9-0.8-12.5-6-12.5h-3.7v-3.2h16.2zm36.4-38.8c0 8.9 8.5 11.3 15.4 14.1 14.1 4.9 21 9.3 21 20.6 0 9.3-8.5 21.1-26.7 21.1-5.6 0-12.5-0.9-17.8-2.9-1.2-6.9-1.6-8.9-1.6-9.7 0-0.8 0.4-1.6 1.6-1.6 0.8 0 1.2 1.2 1.6 2 1.7 6.1 11.8 8.5 17.4 8.5 8.9 0 18.2-4.4 18.2-14.1 0-8.1-6.4-11.8-17.8-15.8-4.8-1.6-18.6-5.7-18.6-18.6 0-12.9 13.4-19.8 25.5-19.8 4.5 0 8.9 0.4 12.6 2 0 2.8 0.4 5.3 0.4 7.7 0 0.8-0.4 1.6-1.3 1.6-1.2 0-1.2-0.8-1.2-1.6-0.8-4.4-10.1-5.7-13.7-5.7-7.3 0-15 4.5-15 12.2zm47.3-14.2h25.9v3.3h-5.2c-1.2 0-1.6 0.8-1.6 1.6v40.8c0 15.8 10.9 19.8 19 19.8 23 0 23.4-17 23.4-25.5v-25.4c0-4.9 0-11.3-3.6-11.3h-5.7v-3.3h20.3v3.3h-4.1c-1.2 0-2.4 0.4-2.4 2v38.4c0 16.1-10.9 26.3-28.3 26.3-26.7 0-28-16.6-28-27.9v-23.9c0-10.9-0.4-14.9-3.2-14.9h-6.5z"/>
			<path id="Path 32" fill-rule="evenodd" class="s0" d="m602 228c0-10.9-0.4-14.9-3.2-14.9h-6.5v-3.3h31.2c10.1 0 22.6 4.9 22.6 18.2 0 9.7-7.6 15.8-17.4 17.4 18.3 25.5 22.3 29.1 25.5 29.1h2.9v3.2h-13c-2.4 0-4 0-24.3-30.7h-8.5v12.6c0 10.9 0.5 14.9 3.3 14.9h6.5v3.2h-25.9v-3.2h5.2c1.2 0 1.6-0.8 1.6-1.6zm15 15.4c9.7 0 19.4-3.3 19.4-13.8 0-10.1-7.7-16.2-16.6-16.2h-5.6c-1.2 0-2.9 0-2.9 1.7v28.3zm65.2 8.8c-2.4 5.7-6.5 16.2-6.5 19.5 0 2 0.8 2.8 2.8 2.8h6.9v3.2h-22.6v-3.2h2.4c1.6 0 3.2-0.4 4-2l28.4-63.9c2.4-0.8 5.6-1.6 6.4-1.6 0.4 0 1.2 0.4 1.2 1.2 0 1.6-2 1.2-2 3.2 0 4.9 13.8 40.4 19 54.6 2.9 6.9 4.1 8.5 6.9 8.5h3.7v3.2h-25.1v-3.2h6q1.3 0 1.3-1.2c0-0.8-2.9-8.1-7.7-21.1zm14.1-32.3l-12.5 28.3h22.2zm109.7 42.9h0.4v-38.4c0-4.9-0.4-11.4-3.7-11.4h-6v-3.2h20.6v3.2h-4c-1.7 0-2.9 0.4-2.9 2.1v61.8c0 1.2 0 1.6-0.8 1.6-0.4 0-0.8 0-1.6-0.8l-1.2-1.6-48.6-55.8v42.9c0 5.2 0 11.3 3.7 11.3h5.6v3.2h-20.2v-3.2h4.1c1.2 0 2.4-0.4 2.4-2v-47.3c0-8.5-0.8-12.2-6.1-12.2h-3.6v-3.2h16.2zm91.4-42.4c-1.2 0-1.2-0.4-1.6-2.1-0.4-3.6-9.7-6.8-16.6-6.8-20.2 0-32.4 14.9-32.4 33.9 0 19.8 15.8 30.7 29.6 30.7 10.1 0 21-4.4 21.8-10.5 0.4-0.8 0.4-2 1.6-2 0.8 0 1.2 0.8 1.2 1.6 0 0.8-0.4 2.5-0.8 9.3-7.3 3.3-17 5.3-25.5 5.3-22.2 0-38-10.9-38-33.6 0-22.6 20.2-38.4 43.3-38.4q10.3 0 19.4 3.7c-0.8 8.5-1.2 8.9-2 8.9zm23.5 7.6c0-10.9 0-14.9-3.3-14.9h-6.5v-3.3h56.3c-1.2 9.3-1.6 9.7-2.4 10.2-1.3 0-1.3-0.9-1.7-2.1 0-1.2-2-4.4-19.8-4.4h-10.9c-1.6 0-2 1.2-2 2v23.5h12.9c11.3 0 15-0.5 15-3.7v-4.4h2.8v18.2h-2.8v-3.7c0-2.8-1.2-3.2-14.2-3.2h-13.7v18.6c0 13.3 1.2 13.3 4.4 13.3h7.3c19 0 23.5-2.8 25.5-6 0.4-0.4 0.4-0.9 1.2-0.9 0.4 0 0.8 0.5 0.8 0.9 0 1.2-1.2 5.2-2.4 9.7h-53.4v-3.3h5.2c1.3 0 1.7-0.8 1.7-1.6z"/>
			<path id="Path 33" fill-rule="evenodd" class="s1" d="m333 43.3c0-25.5-0.8-34.8-6.9-34.8h-14.5v-7.2h73.6c24.3 0 41.3 13.3 41.3 34.7 0 17.4-14.6 28.3-29.6 34v0.4c21.5 4 39.3 19 39.3 41.6 0 20.6-13.8 45.3-62.3 45.3h-56.3v-7.3h11.8c2.4 0 3.6-1.6 3.6-4zm74-3.3c0-21.8-17-29.9-29.1-29.9h-19.4c-3.6 0-4.9 0-4.9 4.5v51.3c23.1 0 27.1 0.4 34.8 2 11.4-6 18.6-14.5 18.6-27.9zm-53.4 33.2v44.8c0 30.4 2.9 30.4 10.2 30.4h15.3c27.5 0 36-18.6 36-34.4 0-12.9-7.7-40.8-47.7-40.8zm659.8 8.1c0 5.2-6.4 8-12.1 8-5.7 0-10.5-1.6-17.4-3.6l-0.4 0.4c6.1 5.7 8.1 11.7 8.1 20.2 0 10.5-4.9 21-12.5 28.3 4.4 3.7 11.7 8.1 17.8 8.1 4 0 7.6-1.6 10.9-4l2.4 3.2c-4.4 3.2-15.8 11.3-21 11.3-6.1 0-16.2-6-20.7-9.3-10.5 6.9-22.6 9.3-35.2 9.3-22.6 0-46.9-10.1-46.9-36.4 0-15.3 11.3-27.9 26.3-31.1-3.6-5.6-7.3-12.1-7.3-18.6 0-14.1 14.6-23.8 27.9-23.8 5.3 0 11.8 1.2 16.2 4.4-2.4 12.1-2.4 12.9-4 12.9-1.6 0-1.6-1.2-1.6-2.4-0.8-5.6-9.3-8.1-14.2-8.1-7.3 0-14.2 3.7-14.2 11.8 0 16.1 45.4 61 59.1 69.5 6.1-5.7 8.5-13.4 8.5-23.1 0-11.3-8.1-25.4-22.2-25.4-3.7 0-6.1 1.2-9.4 3.6l-2-3.2c4.1-5.3 10.9-7.3 17.8-7.3 4.5 0 8.9 1.2 13 1.6 4.8 0.8 8.9 1.6 13.3 1.6 9.3 0 12.6-2.8 14.2-5.6 1.6-3.2 2-5.3 4-5.3 1.6 0 1.6 1.2 1.6 2.9zm-114 30.3c0 18.2 13.7 35.5 40.8 35.5 8.1 0 16.6-2 23.5-6.4-21.5-18.2-37.6-37.2-48.2-50.5-10.9 0-16.1 11.7-16.1 21.4zm-426.9 6.4c0 21.1 0.4 30.8 6.1 30.8h8.9v5.2h-40v-5.2h6.8c1.6 0 3.7-0.8 3.7-3.3v-46.1c0-23.4-1.2-23.4-7.7-23.4h-6.9v-5.3c2.8 0 8.9-0.8 15-1.6 6-0.8 12.1-1.6 14.1-1.6v17c7.7-8.1 16.2-17 24.3-17 3.2 0 6.9 1.6 8.9 4.1-2.4 14.9-2.4 15.3-4 15.3-2.9 0-1.2-6-11-6-7.6 0-13.3 5.2-18.2 10.5z"/>
			<path id="Path 34" fill-rule="evenodd" class="s1" d="m595.2 110.4c0 15.8-9.7 46.9-42.5 46.9-24.3 0-38-18.6-38-43.3 0-15.7 9.7-46.5 42.4-46.5 24.3 0 38.1 18.6 38.1 42.9zm-15.4 4.8c0-16.9-6.9-42-27.1-42-18.6 0-23.1 20.6-23.1 36 0 17.4 7.3 42 27.1 42 19 0 23.1-20.2 23.1-36zm114.1-44.8v5.2h-8.5c-1.2 0-3.3 0-3.3 1.6 0 1.7 4.1 11.4 21.1 57 17.8-44.4 20.2-51.3 20.2-55.3 0-2.9-1.6-3.3-4-3.3h-8.5v-5.2h30.7v5.2c-6.5 0-7.3 0-8.1 0.8-2.4 3.3-10.9 25.9-31.9 78.5-0.8 1.6-2.1 2.4-2.9 2.4-1.2 0-2-0.4-2.8-2.8l-20.6-55-22.3 55.4c-0.4 1.6-1.6 2.4-2.4 2.4-1.2 0-2-0.4-2.8-2.8-29.6-78.9-30.8-78.9-34.4-78.9h-4.9v-5.2h36.4v5.2h-8.5c-1.2 0-2.8 0-2.8 1.6 0 1.3 2.4 7.7 21 57l17.8-42c-6.8-16.6-7.2-16.6-9.7-16.6h-5.2v-5.2zm137.5 48.5c0 21 0.4 29.9 5.7 29.9h8.1v5.3h-38.1v-5.3h6.5c1.6 0 3.7-0.8 3.7-2.8v-45.3c0-17.4-6.1-21.4-14.6-21.4-9.3 0-16.6 4.8-23.5 10.9v28.7c0 21 0.4 29.9 5.7 29.9h8.1v5.3h-38v-5.3h6.4c1.7 0 3.7-0.8 3.7-2.8v-45.3c0-23-1.2-23-7.3-23h-7.3v-4.9c2.8 0 9.3-0.8 15-1.6 6-0.8 11.7-1.6 13.7-1.6v14.5c9.3-7.3 17.8-14.5 30.4-14.5 19 0 21.8 12.9 21.8 27.1zm245.6-75.6c0-25.1-0.8-34.8-6.9-34.8h-14.5v-7.3h73.6c24.3 0 41.3 13.8 41.3 34.8 0 17.4-14.6 28.3-29.6 33.9v0.4c21.5 4.1 39.3 19 39.3 41.7 0 20.6-13.8 45.3-62.3 45.3h-56.3v-7.3h11.8c2.4 0 3.6-1.6 3.6-4.1zm74-3.2c0-21.8-17-29.9-29.1-29.9h-19.4c-3.7 0-4.9 0-4.9 4.4v51.4c23.1 0 27.1 0.4 34.8 2 11.3-6.1 18.6-14.6 18.6-27.9zm-53.4 33.1v44.9c0 30.7 2.9 30.7 10.1 30.7h15.4c27.1 0 36-19 36-34.7 0-13-7.7-40.9-48.1-40.9zm119.3 44.9c0 21 0.4 30.3 5.7 30.3h9.3v5.3h-40.1v-5.3h6.5c2 0 4.1-0.8 4.1-2.8v-46.1c0-23.4-1.7-23.4-7.7-23.4h-6.9v-5.3c2.8 0 8.9-0.8 15-1.6 6-0.8 12.1-1.6 14.1-1.6v17c7.7-8.1 16.2-17 24.3-17 3.2 0 6.9 1.6 8.9 4-2.4 15-2.4 15.4-4 15.4-2.9 0-1.3-6.5-11.4-6.5-7.3 0-12.9 5.7-17.8 10.9zm122.2-7.2c0 15.7-9.7 46.4-42.5 46.4-24.2 0-38-18.5-38-42.8 0-15.8 9.7-46.9 42.5-46.9 24.3 0 38 18.6 38 43.3zm-15 4.8c0-17-7.2-42-27.1-42-19 0-23 20.2-23 35.9 0 17 6.8 42.1 27.1 42.1 18.6 0 23-20.2 23-36zm113.7-45.3v5.3h-8.5c-1.2 0-2.8 0-2.8 2 0 1.6 4 10.9 20.6 57 17.8-44.5 20.7-51.3 20.7-55.4 0-3.2-1.7-3.6-4.1-3.6h-8.9v-5.3h30.8v5.3c-6.5 0-7.3 0-8.1 0.8-2.5 3.2-11 25.9-32 78.8-0.8 1.6-1.6 2.5-2.8 2.5-0.8 0-1.6-0.5-2.9-2.9l-20.6-55-21.8 55.4c-0.8 1.6-1.7 2.5-2.9 2.5-1.2 0-1.6-0.5-2.8-2.9-29.5-79.2-30.3-79.2-34.4-79.2h-4.8v-5.3h36.4v5.3h-8.5c-0.8 0-2.9 0-2.9 2 0 1.2 2.9 7.7 21.1 57l17.8-42c-6.9-17-7.3-17-9.7-17h-5.3v-5.3zm138 49c0 20.6 0 29.9 5.6 29.9h8.1v5.2h-38.4v-5.2h6.5c1.6 0 3.6-0.8 3.6-3.3v-44.8c0-17.8-6.1-21.5-14.2-21.5-9.7 0-16.9 4.9-23.4 11v28.7c0 20.6 0 29.9 5.6 29.9h8.1v5.2h-38.4v-5.2h6.5c1.6 0 3.6-0.8 3.6-3.3v-44.8c0-23.1-1.2-23.1-7.3-23.1h-6.8v-5.2c2.8 0 8.9-0.8 14.5-1.2 6.1-0.9 12.2-1.7 14.2-1.7v14.2c9.3-7.3 17.4-14.2 29.9-14.2 19 0 22.3 13 22.3 27.1z"/>
			<path id="Path 35" fill-rule="evenodd" class="s0" d="m989.2 230.9c-6.2 0-11.3-5.2-11.3-11.6 0-6.3 5.1-11.5 11.3-11.5 6.3 0 11.3 5.2 11.3 11.5 0 6.4-5 11.6-11.3 11.6zm8.9-11.6c0-5-3.9-9.1-8.7-9.1-4.8 0-8.7 4.1-8.7 9.1 0 5.1 3.9 9.1 8.7 9.1 4.8 0 8.7-4 8.7-9.1zm-10.9 6.7h-2.4v-12.5c0.8-0.4 2-0.4 4-0.4 2 0 3.2 0.4 4.1 0.8q1.2 0.8 1.2 2.8c0 1.6-0.8 2.4-2.5 2.8q1.7 0.4 2.1 3.3c0.4 2 0.4 2.8 0.8 3.2h-2.9q-0.4-0.8-0.8-3.2c0-1.6-0.8-2.1-2.4-2.1h-1.2zm0-7.2h1.2c1.6 0 2.8-0.4 2.8-2 0-0.9-0.8-1.7-2.4-1.7q-1.2 0-1.6 0z"/>
			<path id="Path 36" class="s1" d="m2.1 2.5h248v269.2h-248z"/>
			<path id="Path 37" fill-rule="evenodd" class="s2" d="m2.1 2.5h248v269.2h-248z"/>
			<path id="Path 38" fill-rule="evenodd" class="s3" d="m197.1 209.4c0 17-11.4 37.2-51 37.2h-46.5v-6h9.7c2 0 2.8-1.3 2.8-3.3v-76.4q-0.4 0-0.8 0h-46.1v-6h9.3c2.4 0 2.8-1.3 2.8-3.3v-84.5c0-20.6 0-28.3-5.2-28.3h-12.2v-6h60.7c20.2 0 33.6 10.9 33.6 28.3 0 14.5-11.7 23.4-23.9 27.9v0.4c15.8 3.2 29.1 13.7 31.6 29.5 16.6 2.4 27.1 12.5 27.1 27.9 0 14.5-11.8 23.4-23.9 27.9v0.4c17 3.6 32 15.7 32 34.3zm-68-50.1v12.1c19 0 22.7 0.4 28.7 1.7 9.3-4.9 15.4-11.8 15.4-23.1 0-10.5-4.9-17-11.3-20.6-1.6 12.5-10.5 25.5-32.8 29.9zm-17-5.7v-0.8c0-20.6-0.4-28.3-5.7-28.3h-11.7v4.1c0 25 2 25 8.1 25zm21.4-27.8c-3.2 0-4 0-4 3.6v21.8c11.7-4.8 15.8-15.7 15.8-25.4zm-38.5-34v26.7h49.8c-2.4-11.3-11.7-26.7-38.8-26.7zm0-6.1c19 0 22.6 0.4 28.7 1.7 9.3-4.9 15.4-11.8 15.4-23.1 0-17.8-14.2-24.2-23.9-24.2h-16.2c-2.8 0-4 0-4 3.6zm85.3 124.9c0-10.5-6.4-33.1-39.6-33.1h-10.9v36.7c0 25.1 2 25.1 8.1 25.1h12.9c22.3 0 29.5-15.8 29.5-28.7z"/>
			<path id="Path 39" class="s4" d="m250.1 279l-248 0.8v-7.7l247.6-1.2z"/>
		</g>
	</g>
</svg>