<svg version="1.2" xmlns="http://www.w3.org/2000/svg" viewBox="0 0 1538 238" width="1538" height="238">
	<title>Brown forman-svg</title>
	<style>
		.s0 { fill: #a2674f } 
		.s1 { fill: #ffffff } 
		.s2 { fill: #776e64 } 
	</style>
	<g id="Layer">
		<ellipse id="Layer" class="s0" cx="108.9" cy="118.7" rx="108.9" ry="118.7"/>
		<path id="Layer" class="s1" d="m145.6 50.6h6.8c0 6.9 1 28.3 1.2 30.6q0 1.2 0.2 2.3 0.2 1.2 0.6 2.3 0.4 1.1 1 2.1 0.5 1 1.3 1.8 1 1 1.9 2 0.9 0.9 1.7 1.9 0.9 1 1.7 2.1 0.9 1 1.7 2 1.2 1.7 2.2 3.6 0.9 1.9 1.5 3.9 0.7 2 1 4.1 0.3 2.1 0.2 4.2c0 2.5-0.8 66.7-0.8 69.3h-6.2c0-0.7 0.8-67 0.8-69.3q0-1.6-0.1-3.1-0.2-1.5-0.7-2.9-0.5-1.5-1.2-2.8-0.7-1.4-1.6-2.6-0.8-0.9-1.6-1.8-0.8-0.9-1.6-1.8-0.8-0.8-1.6-1.7-0.8-0.8-1.7-1.7-1.2-1.3-2.2-2.9-1-1.6-1.7-3.3-0.7-1.7-1.1-3.5-0.3-1.8-0.4-3.7c-0.3-2.8-1.3-24.7-1.3-31.4z"/>
		<path id="Layer" class="s1" d="m66.3 50h6.2c0 6.7-1 28.6-1.2 31.5q0 1.8-0.4 3.6-0.4 1.9-1.1 3.6-0.7 1.7-1.7 3.3-1 1.5-2.3 2.9-0.8 0.8-1.7 1.6-0.8 0.9-1.6 1.8-0.8 0.8-1.6 1.7-0.8 0.9-1.5 1.9-0.9 1.2-1.7 2.5-0.7 1.4-1.1 2.8-0.5 1.5-0.7 3-0.2 1.5-0.1 3c0 2.6 0.8 68.9 0.8 69.4h-6.3c0-2.6-0.7-66.8-0.7-69.4q-0.1-2.1 0.2-4.2 0.3-2.1 1-4.1 0.6-2 1.6-3.9 1-1.9 2.3-3.5 0.8-1.1 1.7-2.1 0.8-1.1 1.7-2.1 0.8-1 1.8-1.9 0.9-1 1.8-1.9 0.8-0.9 1.5-1.9 0.6-0.9 1.1-2 0.4-1.1 0.6-2.3 0.2-1.2 0.2-2.3c0.2-2.6 1.2-24 1.2-30.7z"/>
		<path id="Layer" class="s1" d="m130.9 180.5c-0.3 2.1-1.6 2.6-3.6 2.6h-37.5c-2 0-3.6-0.5-3.6-2.6 0-2.1 1.8-2.6 3.6-2.8 2.1-0.3 9.6-1.3 11.4-1.6q0.7-0.1 1.4-0.5 0.7-0.3 1.2-0.9 0.5-0.6 0.9-1.3 0.3-0.7 0.4-1.4c0-2.1 0.5-50.8 0.5-58.3 0-7.7-3.6-11.9-9.8-18q-1.3-1.4-2.3-3-1-1.5-1.7-3.3-0.6-1.7-1-3.5-0.4-1.8-0.5-3.6c-0.2-2.9-1.2-20.4-1.2-27.4v-4.1h40v4.1c0 7-1 24.5-1.3 27.3q-0.1 1.9-0.4 3.6-0.4 1.8-1.1 3.5-0.7 1.7-1.7 3.2-1 1.6-2.2 2.9-2.2 1.6-3.9 3.5-1.8 2-3.1 4.3-1.3 2.3-2.1 4.8-0.8 2.6-1 5.2c0.3 8.8 0.5 56.5 0.5 58.3q0.1 0.7 0.4 1.5 0.3 0.7 0.8 1.2 0.5 0.6 1.2 1 0.7 0.3 1.5 0.4c2.1 0.3 9 1.3 11.1 1.5 1.8 0.3 3.6 0.8 3.1 3.4z"/>
		<path id="Layer" fill-rule="evenodd" class="s2" d="m277.6 116.3c0-20.1 0-23.7-0.2-27.9-0.3-4.3-1.3-6.7-5.7-7.4q-0.6-0.2-1.3-0.3-0.6 0-1.3-0.1-0.6-0.1-1.3-0.1-0.6 0-1.3 0c-1.5 0-2.3-0.3-2.3-1.3 0-1 1-1.3 2.8-1.3 7 0 15.3 0.5 18.1 0.5 6.5 0 11.6-0.2 16-0.2 24 0 28.2 12.9 28.2 19.8q-0.2 3.5-1.2 6.9-1 3.3-2.7 6.4-1.8 3-4.2 5.5-2.4 2.5-5.4 4.4c10.9 3.6 24 13.2 24 28.7 0 14.1-11.1 28.8-35.3 28.6-3.1 0-15.3-0.8-19.1-0.8-3.1 0-11.4 0.3-16.5 0.3-1.8 0-2.6-0.5-2.6-1.3 0-0.8 0.5-1 2-1q0.6 0 1.2-0.1 0.6 0 1.2-0.1 0.6 0 1.1-0.1 0.6-0.1 1.2-0.3c2.6-0.5 3.3-3.3 3.9-7.2q0.2-3.5 0.4-7 0.2-3.5 0.3-7 0.1-3.5 0.1-7 0-3.6-0.1-7.1zm15.8 2.1q0 0.2 0 0.5 0.1 0.2 0.2 0.4 0.2 0.3 0.4 0.4 0.2 0.2 0.4 0.2 0.8 0.2 1.6 0.3 0.7 0.1 1.5 0.1 0.8 0.1 1.6 0.1 0.7 0.1 1.5 0 1.3 0.2 2.5 0.1 1.3-0.1 2.5-0.4 1.3-0.4 2.4-0.9 1.1-0.6 2.1-1.3 1.5-1.4 2.5-3 1.1-1.6 1.8-3.4 0.7-1.8 1-3.7 0.3-2 0.2-3.9c0-8.8-5.2-20.4-16.5-20.4q-0.6 0-1.1 0-0.6 0-1.1 0.1-0.6 0-1.1 0.1-0.6 0-1.1 0.1c-1.1 0.3-1.3 0.8-1.3 2.3zm17.6 10.6q-1.2-0.8-2.5-1.4-1.3-0.6-2.7-1-1.4-0.4-2.8-0.6-1.5-0.2-2.9-0.1-0.7-0.1-1.4-0.1-0.7-0.1-1.4-0.1-0.7-0.1-1.4-0.1-0.8 0-1.5 0c-0.5 0-0.7 0.3-0.7 1.1v31.2c0 8.7 0.2 10.8 4.6 12.6q1.1 0.5 2.3 0.8 1.2 0.3 2.4 0.5 1.2 0.2 2.4 0.3 1.2 0 2.4 0c2.2 0.1 4.4-0.3 6.5-1.1 2-0.8 3.9-2.1 5.4-3.7 1.5-1.6 2.7-3.5 3.4-5.5 0.7-2.1 1-4.3 0.7-6.5q0.1-3.8-0.7-7.6-0.8-3.7-2.5-7.1-1.7-3.4-4.2-6.4c-1.6-1.9-3.4-3.7-5.4-5.2z"/>
		<path id="Layer" fill-rule="evenodd" class="s2" d="m366.4 116.3c0-20.1 0-23.7-0.2-27.9-0.3-4.3-1.3-6.7-5.7-7.4-1-0.3-3.4-0.3-5.2-0.5-1.5 0-2.3-0.3-2.3-1.3 0-1 1-1.3 2.8-1.3 7 0 15.3 0.5 18.1 0.5 4.4 0 14.5-0.2 18.6-0.2q3.2-0.3 6.3 0 3.2 0.2 6.3 1 3.1 0.7 6 1.9 2.9 1.1 5.7 2.7 2 1.6 3.7 3.7 1.7 2 2.8 4.3 1.2 2.4 1.8 4.9 0.7 2.6 0.7 5.2c0 9.8-4.1 18.8-17.5 29.6 11.6 14.7 20.9 26.6 28.6 34.9q1.4 1.6 3.1 3.1 1.7 1.4 3.5 2.6 1.9 1.1 3.9 1.9 2.1 0.9 4.2 1.4 0.5 0.1 0.9 0.2 0.5 0 0.9 0.1 0.5 0.1 0.9 0.1 0.5 0.1 0.9 0.1c1.1 0 1.6 0.5 1.6 1 0 1.1-1 1.3-2.6 1.3h-12.6q-1.9 0.2-3.7 0.1-1.8-0.1-3.6-0.4-1.8-0.4-3.6-0.9-1.7-0.6-3.3-1.4-2.8-1.9-5.3-4.1-2.5-2.2-4.8-4.6-2.2-2.5-4.3-5.1-2-2.7-3.7-5.5c-5.2-7.2-11.4-16.3-13.2-18.3q-0.2-0.3-0.5-0.5-0.2-0.2-0.5-0.3-0.3-0.1-0.7-0.2-0.3-0.1-0.6-0.1l-11.6-0.2c-0.8 0-1.1 0.2-1.1 1v1.8c0 12.4 0 22.7 0.5 28.4 0.3 3.9 1.3 6.7 5.2 7.2q0.8 0.1 1.6 0.2 0.8 0.1 1.6 0.1 0.8 0.1 1.6 0.1 0.9 0.1 1.7 0.1c1 0 1.5 0.5 1.5 1 0 1.1-1 1.3-2.6 1.3-7.7 0-17.5-0.5-19.3-0.5-2.6 0-10.9 0.3-16 0.3-1.9 0-2.6-0.6-2.6-1.3 0-0.8 0.5-1 2-1q0.6 0 1.2-0.1 0.6 0 1.2-0.1 0.6 0 1.1-0.1 0.6-0.1 1.2-0.3c2.6-0.5 3.3-3.3 3.9-7.2q0.2-3.5 0.4-7 0.2-3.5 0.3-7 0.1-3.5 0.1-7 0-3.6-0.1-7.1zm15.5 10.6c0 1.5 0.3 2.1 1.3 2.3q1.2 0.4 2.5 0.6 1.2 0.3 2.5 0.5 1.2 0.1 2.5 0.2 1.3 0 2.6 0 1.2 0.2 2.4 0.1 1.2-0.1 2.4-0.4 1.2-0.3 2.4-0.8 1.1-0.5 2.1-1.2 2-1.9 3.6-4.2 1.6-2.3 2.6-4.8 1-2.6 1.4-5.4 0.4-2.7 0.1-5.5c0-18.8-12.4-24.2-20.1-24.2q-0.9-0.1-1.8 0-0.9 0-1.7 0.1-0.9 0-1.8 0.1-0.9 0.1-1.7 0.3c-1.1 0.2-1.3 0.8-1.3 1.8z"/>
		<path id="Layer" fill-rule="evenodd" class="s2" d="m451.6 127.9c0-22.7 15-51.8 54.8-51.6 32.7 0 53.4 19.1 53.4 49.5 0.3 7.3-1 14.5-3.6 21.2-2.7 6.7-6.7 12.8-11.9 17.9-5.1 5.1-11.3 9.1-18 11.7-6.8 2.6-14 3.7-21.2 3.4-7 0.3-14-0.7-20.6-3.2-6.6-2.5-12.6-6.3-17.6-11.2-5-4.9-8.9-10.7-11.6-17.2-2.6-6.5-3.9-13.5-3.7-20.5zm89.6 2.6c0-29.7-17-48-38.7-48-15.3 0-32.6 8.5-32.6 41.3 0 27.3 15.3 49.2 40.6 49.2 9.3 0.3 30.7-4.4 30.7-42.5z"/>
		<path id="Layer" class="s2" d="m575 91.3q-0.2-1.3-0.7-2.6-0.4-1.2-1.1-2.4-0.6-1.2-1.4-2.3-0.7-1.1-1.7-2-0.6-0.3-1.2-0.6-0.6-0.2-1.3-0.4-0.6-0.1-1.3-0.2-0.7-0.1-1.3-0.1c-1.3 0-2.1-0.2-2.1-1.2 0-1.1 1-1.3 2.8-1.3 7 0 14.2 0.5 15.3 0.5 1.3 0 7-0.5 14.7-0.5 1.8 0 2.8 0.5 2.8 1.3 0 1-1 1.2-2.3 1.2q-0.4 0-0.8 0-0.5 0-0.9 0.1-0.4 0.1-0.8 0.2-0.5 0.1-0.9 0.2c-1.2 0.5-1.5 1.6-1.5 2.9q0.2 1.5 0.5 3 0.3 1.6 0.7 3.1 0.4 1.5 0.8 3 0.4 1.5 0.8 3c2.4 8.8 14.5 48.7 16.8 55.9h0.5l25.6-68.8c1.5-3.6 2.3-4.6 3.4-4.6 1.5 0 2 2 3.8 6.2l27.4 66.2h0.5c2.3-8.7 12.9-43.6 17.6-59q0.3-1 0.5-1.9 0.3-1 0.4-1.9 0.2-1 0.3-2 0-1 0-2c0-2-1.2-3.8-6.4-3.8-1.3 0-2.3-0.5-2.3-1.3 0-1 1-1.3 3.1-1.3 6.9 0 12.6 0.5 13.6 0.5 1.1 0 6.8-0.5 10.9-0.5 1.5 0 2.3 0.3 2.3 1.1 0 1-0.8 1.2-1.8 1.2q-0.6 0-1.2 0.1-0.6 0.1-1.2 0.1-0.5 0.1-1.1 0.3-0.6 0.1-1.1 0.3c-3.1 1.3-4.7 6.5-7.5 14-6.2 16.4-20.2 58.5-26.6 78.3-1.6 4.7-2.1 6.2-3.9 6.2-1.3 0-2.1-1.5-4.1-6.4l-27.4-66h-0.3c-2.5 6.7-20.1 53.4-25.8 65.5-2.6 5.4-3.1 7-4.6 7-1.3 0-2.1-1.6-3.1-4.9z"/>
		<path id="Layer" class="s2" d="m734.1 160.1c0.2 10.3 2 13.7 4.6 14.7q0.9 0.3 1.7 0.5 0.9 0.2 1.8 0.3 0.8 0.2 1.7 0.2 0.9 0.1 1.8 0.1c1.5 0 2.3 0.2 2.3 1 0 1-1.3 1.3-3.1 1.3-8.5 0-13.9-0.5-16.2-0.5-1.3 0-7.5 0.2-14.2 0.2-1.8 0-2.9-0.2-2.9-1.3 0-0.7 0.8-1 2.1-1q0.7 0 1.5 0 0.7 0 1.5-0.1 0.7 0 1.5-0.1 0.7-0.1 1.4-0.3c3.4-1 3.9-4.9 4.2-16.2l1.2-78.2c0-2.6 0.5-4.4 1.8-4.4 1.6 0 2.6 1.9 4.9 4.2 1.6 1.8 21.7 23.2 40.8 42.3 9.1 9 26.9 28.1 28.9 30.1h0.8l-1.2-59.3c-0.3-8-1.3-10.5-4.4-11.8q-0.9-0.3-1.8-0.4-0.8-0.2-1.7-0.3-0.9-0.1-1.8-0.1-0.8 0-1.7 0c-1.6 0-2.1-0.5-2.1-1.3 0-1 1.6-1.2 3.4-1.2 7 0 13.1 0.5 16 0.5 1.5 0 6.4-0.5 12.9-0.3 1.8 0 3.1 0.3 3.1 1.3 0 0.8-0.8 1.2-2.3 1.2q-0.5 0-1 0-0.5 0.1-1 0.1-0.5 0.1-1 0.2-0.4 0.1-0.9 0.3c-3.6 1-4.7 3.8-4.9 11l-1.6 83.3c0 2.9-0.5 4.2-1.8 4.2-1.5 0-3.1-1.6-4.4-2.9-8.2-8-25.3-25.2-38.9-38.9-14.5-14.2-29-30.7-31.5-33.3h-0.6z"/>
		<path id="Layer" class="s2" d="m838.9 132c4.9-9.5 6.4-10.5 10-10.5 4.2 0 8.8 0.5 17.9 0.5 9.5 0 10 0 11.8-3.1l1.8 1.2c-4.9 9.8-5.4 10.6-8.2 10.6-8.5 0-18.6-0.2-26.3-0.2q-0.8-0.2-1.6 0-0.7 0.1-1.4 0.5-0.7 0.4-1.2 1-0.5 0.6-0.7 1.3z"/>
		<path id="Layer" class="s2" d="m927.7 140c0 12.6 0 22.7 0.5 28.1 0.5 3.9 1.3 6.7 5.2 7.2q0.8 0.2 1.6 0.2 0.9 0.1 1.7 0.2 0.8 0.1 1.7 0.1 0.8 0 1.7 0.1c1.8 0 2.3 0.5 2.3 1 0 1-1 1.3-2.8 1.3-8.3 0-16.8-0.6-20.2-0.6-3.3 0-11.9 0.3-16.8 0.3-1.8 0-2.8-0.3-2.8-1.3 0-0.7 0.5-1 2.1-1q0.5 0 1.1 0 0.6-0.1 1.2-0.1 0.6-0.1 1.2-0.2 0.5-0.1 1.1-0.2c2.6-0.5 3.4-3.4 3.9-7.2q0.3-3.5 0.5-7 0.1-3.6 0.2-7.1 0.1-3.5 0.1-7 0-3.5 0-7v-23.2c0-20.2 0-23.8-0.3-27.9-0.3-4.4-1.3-6.7-5.7-7.5q-0.6-0.1-1.3-0.2-0.6-0.1-1.2-0.2-0.7 0-1.3-0.1-0.7 0-1.3 0c-1.3 0-2.4-0.2-2.4-1 0-1.1 1.1-1.3 3.1-1.3 7 0 15.3 0.5 19.1 0.5h34.9q0.7 0.1 1.4 0.1 0.6 0 1.3-0.1 0.7-0.1 1.4-0.2 0.7-0.1 1.3-0.3 0.3-0.1 0.5-0.2 0.3-0.1 0.5-0.2 0.3-0.1 0.5-0.2 0.3-0.1 0.6-0.2 0.2 0.1 0.4 0.2 0.2 0.1 0.4 0.3 0.1 0.1 0.2 0.4 0 0.2 0 0.4c0 1-0.8 2.6-1 5.9-0.3 1.3-0.5 9.1-0.8 10.6-0.3 1-0.5 1.8-1.3 1.8-1 0-1.2-0.8-1.2-2q0-0.7 0-1.3-0.1-0.6-0.2-1.2-0.1-0.6-0.2-1.2-0.2-0.7-0.4-1.2-0.7-1.1-1.7-1.9-1-0.8-2.2-1.3-1.1-0.5-2.4-0.7-1.2-0.2-2.5 0l-20.4-0.5c-0.8 0-1.3 0.5-1.3 1.8v33c0 0.7 0.3 1.2 1.1 1.2h16.8q0.7 0.1 1.5 0 0.7 0 1.4 0 0.8 0 1.5-0.1 0.8 0 1.5-0.1 0.8 0 1.6-0.2 0.8-0.1 1.5-0.4 0.7-0.3 1.4-0.7 0.6-0.5 1.2-1c0.8-0.8 1-1.3 1.8-1.3 0.5 0 0.8 0.5 0.8 1.3 0 0.7-0.8 4.1-1.1 8.2-0.2 2.6-0.5 8.8-0.5 9.5 0 1.3 0 2.6-1.3 2.6-0.7 0-1-1-1-1.8q0-0.5-0.1-1.1 0-0.5-0.1-1-0.1-0.5-0.3-1-0.1-0.5-0.3-1-0.4-1-1.1-1.9-0.7-0.8-1.6-1.4-0.9-0.6-1.9-1-1-0.3-2.1-0.4c-3.3-0.5-17.3-0.5-19.6-0.5-0.8 0-1 0.3-1 1.3z"/>
		<path id="Layer" fill-rule="evenodd" class="s2" d="m976.7 128.4c0-22.7 15-51.8 54.8-51.6 32.8 0 53.4 19.1 53.4 49.5 0.3 7.3-1 14.5-3.6 21.2-2.7 6.7-6.7 12.8-11.9 17.9-5.1 5.1-11.2 9.1-18 11.7-6.8 2.6-14 3.7-21.2 3.4-38.2-0.3-53.5-28.6-53.5-52.1zm89.4 2.6c0-29.7-17.1-48-38.8-48-15.2 0-32.5 8.5-32.5 41.3 0 27.6 15.2 49.2 40.5 49.2 9.3 0 30.7-4.3 30.8-42.5z"/>
		<path id="Layer" fill-rule="evenodd" class="s2" d="m1110.2 117.1c0-20.1 0-23.8-0.3-27.9-0.2-4.4-1.2-6.7-5.6-7.5q-0.7-0.1-1.3-0.2-0.7-0.1-1.3-0.1-0.7-0.1-1.3-0.1-0.7-0.1-1.3-0.1c-1.6 0-2.3-0.2-2.3-1.2 0-1.1 1-1.3 2.8-1.3 7 0 15.3 0.5 18.1 0.5 4.4 0 14.4-0.5 18.6-0.3q3.1-0.2 6.3 0.1 3.2 0.2 6.2 0.9 3.1 0.8 6.1 1.9 2.9 1.2 5.6 2.8 2.1 1.6 3.8 3.6 1.6 2.1 2.8 4.4 1.2 2.4 1.8 4.9 0.6 2.5 0.7 5.2c0 9.8-4.2 18.8-17.6 29.6 11.9 14.7 20.9 26.6 28.7 34.8q1.4 1.7 3.1 3.1 1.6 1.5 3.5 2.6 1.9 1.2 3.9 2 2.1 0.9 4.2 1.4 0.4 0.1 0.9 0.1 0.4 0.1 0.9 0.2 0.4 0 0.9 0.1 0.5 0 0.9 0.1c1 0 1.6 0.5 1.6 1 0 1-1.1 1.3-2.6 1.3h-12.7q-1.8 0.1-3.6 0-1.8 0-3.6-0.4-1.8-0.3-3.6-0.9-1.7-0.5-3.4-1.3-2.7-1.9-5.2-4.1-2.5-2.2-4.8-4.7-2.3-2.4-4.3-5.1-2-2.6-3.7-5.4c-5.2-7.3-11.4-16.3-13.2-18.4q-0.2-0.2-0.5-0.4-0.3-0.2-0.6-0.3-0.3-0.1-0.6-0.2-0.3-0.1-0.6-0.1l-11.4-0.2c-0.8 0-1 0.2-1 1v1.8c0 12.4 0 22.7 0.5 28.4 0.5 3.8 1.2 6.7 5.1 7.2q0.8 0.1 1.6 0.2 0.9 0 1.7 0.1 0.8 0.1 1.6 0.1 0.8 0.1 1.6 0.1c1 0 1.5 0.5 1.5 1 0 1.1-1 1.3-2.5 1.3-7.8 0-17.6-0.5-19.4-0.5-2.6 0-10.8 0.2-16 0.2-1.8 0-2.6-0.5-2.6-1.2 0-0.8 0.5-1.1 2.1-1.1q0.6 0 1.1 0 0.6 0 1.2-0.1 0.6 0 1.2-0.1 0.5-0.1 1.1-0.3c2.6-0.5 3.4-3.3 3.9-7.2q0.3-3.5 0.5-7 0.2-3.5 0.2-7 0.1-3.6 0.1-7.1 0.1-3.5 0-7zm15.7 10.3c0 1.6 0.3 2.1 1.3 2.3q1.2 0.4 2.5 0.6 1.2 0.3 2.5 0.5 1.2 0.1 2.5 0.2 1.3 0 2.6 0 1.2 0.2 2.4 0.1 1.2 0 2.4-0.3 1.2-0.3 2.3-0.9 1.2-0.5 2.1-1.2 2.1-1.9 3.7-4.2 1.6-2.2 2.6-4.8 1-2.6 1.4-5.4 0.4-2.7 0.1-5.5c0-18.8-12.4-24.2-20.1-24.2q-0.9 0-1.8 0-0.9 0-1.7 0.1-0.9 0-1.8 0.1-0.9 0.1-1.7 0.3c-1.1 0.3-1.3 0.8-1.3 1.8z"/>
		<path id="Layer" class="s2" d="m1214.2 79.4c0.5-2.3 1.3-3.3 2.4-3.3 1 0 1.8 0.7 3.6 4.1l36.1 74.5 35.9-75.3c1-2 1.8-3.1 2.8-3.1 1.3 0 2.1 1.3 2.4 4.2l11.8 81.4c1.3 8.3 2.6 12.2 6.5 13.4q1 0.4 2 0.6 1 0.3 2 0.4 1.1 0.2 2.1 0.3 1.1 0 2.1 0c1.3 0 2.1 0.3 2.1 1 0 1.1-1.6 1.6-3.4 1.6-3.3 0-21.4-0.5-26.8-0.8-3.1-0.2-3.9-0.8-3.9-1.5 0-0.8 0.5-1.1 1.6-1.6 0.7-0.2 1.2-2 0.7-5.6l-8-58.1h-0.5l-28.9 59.3c-3.1 6.2-3.6 7.5-4.9 7.5-1.3 0-2.6-2.6-4.6-6.7-3.1-6.2-13.7-26.3-15.3-29.9-1.3-2.8-9-19.3-13.7-29.4h-0.5l-7 52.6q-0.1 0.8-0.2 1.6 0 0.7-0.1 1.5-0.1 0.8-0.1 1.6-0.1 0.7-0.1 1.5c0 2.6 1.8 3.6 3.9 4.1q0.7 0.2 1.4 0.3 0.7 0.2 1.4 0.3 0.7 0.1 1.4 0.1 0.8 0.1 1.5 0.1c1 0 2 0.3 2 1 0 1.3-1.2 1.6-3.1 1.6-5.6 0-11.6-0.5-13.9-0.5-2.6 0-8.8 0.5-13.2 0.2-1.3 0-2.3-0.2-2.3-1.5 0-0.8 0.7-1 2-1q0.5 0 1-0.1 0.5 0 1 0 0.5-0.1 1-0.2 0.4-0.1 0.9-0.3c3.6-0.7 4.7-5.9 5.4-10.3z"/>
		<path id="Layer" fill-rule="evenodd" class="s2" d="m1353.7 144.1c-0.8 0-1.1 0.3-1.3 1.1l-7.2 18.8q-0.4 1-0.8 1.9-0.3 1-0.6 2-0.2 1-0.4 2-0.2 1.1-0.3 2.1c0 2.3 1.3 4.1 5.4 4.1h2.1c1.5 0 2 0.3 2 1.1 0 1-0.7 1.2-2.3 1.2-4.1 0-9.8-0.5-13.9-0.5-1.6 0-8.8 0.3-15.5 0.3-1.8 0-2.6-0.3-2.6-1.3 0-0.8 0.5-1 1.5-1 1.3 0 3.1-0.3 4.2-0.3 6.2-0.8 8.5-5.1 11.3-11.9l33.3-82.7c1.6-3.9 2.3-5.4 3.6-5.4 1.3 0 2.1 1.2 3.4 4.1 3.1 7.2 24.3 61.1 32.8 81.2 4.9 11.9 8.8 13.7 11.6 14.5q0.7 0.1 1.3 0.2 0.7 0.1 1.4 0.2 0.7 0 1.4 0.1 0.6 0 1.3 0c1.1 0 1.8 0.2 1.8 1 0 1-1.2 1.3-6.2 1.3-4.6 0-14.4 0-25-0.3-2.3-0.3-3.9-0.3-3.9-1 0-0.8 0.5-1.1 1.8-1.3q0.5-0.2 0.8-0.5 0.4-0.3 0.5-0.8 0.2-0.4 0.2-0.9 0-0.5-0.2-0.9l-10.6-27.3q0-0.2-0.2-0.4-0.1-0.2-0.2-0.4-0.2-0.1-0.4-0.2-0.2-0.1-0.5-0.1zm27.1-6.4c0.8 0 0.8-0.5 0.8-0.8l-11.9-32.5c-0.2-0.5-0.2-1.2-0.7-1.2-0.5 0-0.8 0.7-0.8 1.2l-12.1 32.5c0 0.5 0 1.1 0.5 1.1z"/>
		<path id="Layer" class="s2" d="m1448.9 160.9c0.3 10.3 2.1 13.7 4.7 14.7q0.8 0.3 1.7 0.5 0.8 0.2 1.7 0.3 0.9 0.1 1.8 0.2 0.9 0 1.7 0c1.6 0 2.4 0.3 2.4 1.1 0 1-1.3 1.2-3.1 1.2-8.5 0-14-0.5-16.3-0.5-1.3 0-7.5 0.5-14.2 0.3-1.8 0-2.8-0.3-2.8-1.3 0-0.8 0.7-1 2-1q0.8 0 1.5-0.1 0.8 0 1.5-0.1 0.8-0.1 1.5-0.3 0.7-0.1 1.5-0.3c3.3-1 3.8-4.9 4.1-16.2l1.3-78.2c0-2.6 0.5-4.4 1.8-4.4 1.5 0 2.6 1.9 4.9 4.2 1.5 1.8 21.7 23.2 40.8 42.3 9 9 26.8 28.1 29.2 30.1h0.5l-1.3-59.3c-0.3-8-1.3-10.5-4.4-11.8q-0.8-0.3-1.7-0.4-0.9-0.2-1.7-0.3-0.9-0.1-1.8-0.1-0.9 0-1.8 0c-1.5 0-2-0.5-2-1.3 0-1 1.5-1.2 3.3-1.2 7 0 13.2 0.5 16 0.5 1.6 0 6.5-0.5 12.9-0.3 1.9 0 3.1 0.3 3.1 1.3 0 0.8-0.7 1.2-2.3 1.2q-0.5 0-1 0-0.5 0.1-0.9 0.1-0.5 0.1-1 0.2-0.5 0.1-1 0.3c-3.6 1-4.6 3.8-4.9 11.3l-1.5 83.3c0 2.8-0.5 4.1-1.8 4.1-1.6 0-3.1-1.5-4.4-2.8-8.3-8-25.3-25.3-39-38.9-14.4-14.2-29.2-30.7-31.5-33.3h-0.5z"/>
	</g>
</svg>