<svg version="1.2" baseProfile="tiny-ps" xmlns="http://www.w3.org/2000/svg" viewBox="0 0 1571 360" width="1571" height="360">
	<title>logo (2)-svg</title>
	<style>
		tspan { white-space:pre }
		.shp0 { fill: #005b9d } 
	</style>
	<g id="Layer">
		<path id="Layer" class="shp0" d="M1149.3 112.94C1160.44 112.94 1171.62 112.74 1182.38 113.42C1189.89 113.9 1197.44 114.55 1204.78 115.14C1211.07 115.62 1217.42 116.36 1223.58 117.52C1229.8 118.7 1235.98 119.42 1242.09 120.88C1252.01 123.22 1262.05 125.35 1271.37 128.91C1274.58 130.18 1277.86 131.33 1280.98 132.73C1282.14 133.21 1283.27 133.67 1284.41 134.17C1283.01 137.12 1281.63 140.02 1280.24 142.92C1277.22 149.47 1274.36 156.06 1271.83 162.76C1270.8 165.55 1269.76 168.26 1268.73 171.07C1267.2 169.85 1265.56 168.41 1264.06 167.21C1261.11 164.83 1258.29 162.35 1255.24 160.25C1245.41 153.31 1234.39 147.64 1222.9 143.75C1213.82 140.67 1204.32 137.82 1194.48 136.2C1138.54 127.19 1070.59 136.03 1040 182.49C1034.63 190.67 1030.86 199.66 1028.43 209.29C1027.76 211.97 1027.04 215.01 1026.73 217.82C1026.01 224.39 1025.16 230.81 1025.38 237.92C1025.81 251.6 1028.06 264.89 1033.06 276.31C1037.52 286.5 1043.48 295.64 1051.6 304.05C1065.55 318.38 1084.39 326.83 1103.02 332.2C1122.8 337.72 1144.46 339.49 1167.18 339.49C1177.14 339.2 1184.65 338.68 1190.24 338.09C1193.75 337.72 1205.57 335.95 1208.8 335.34C1211.24 334.82 1213.69 334.27 1216.13 333.73C1220.33 332.74 1224.61 331.63 1228.71 330.36C1229.65 330.04 1232.49 328.95 1232.49 328.95C1232.49 328.95 1232.51 325.45 1232.51 324.21C1232.51 319.71 1232.51 315.11 1232.51 310.66C1232.51 293.24 1232.73 275.96 1232.73 258.67C1227.84 258.67 1223.75 258.78 1218.99 259.22C1216.51 259.33 1213.6 259.44 1210.81 259.77C1206.27 260.14 1202.66 260.46 1197.53 260.94C1197.82 258.74 1198.93 254.55 1198.93 247.96C1198.93 241.37 1197.29 235.24 1197.29 235.24C1197.29 235.24 1203.6 236 1206.11 236.13C1209.89 236.37 1214.1 236.87 1217.82 236.94C1224.15 237.4 1228.19 237.51 1235.41 237.48C1250.7 237.48 1265.98 237.48 1281.28 237.48L1281.28 337.39C1281.28 338.66 1281.2 343 1281.2 343C1281.2 343 1278.1 343.87 1277.03 344.14C1272.77 345.1 1268.53 346.08 1264.28 347.08C1248.34 350.57 1232.12 353.21 1215.5 355.31C1194.69 358.01 1173.38 359.39 1151.07 359.39C1131.14 359.39 1112.16 358.45 1094.02 355.09C1085.37 353.54 1076.82 352.17 1068.72 349.68C1057.82 346.12 1047.23 342.87 1037.25 337.76C1023.78 330.93 1011.23 322.77 1000.14 311.03C990.18 300.4 983.02 288.18 978.26 275.02C973.67 262.3 971.36 247.65 972.08 232.44C972.58 221.68 974.31 212.12 977.23 202.74C978.61 198.4 980.49 194.14 982.56 190.02C998.17 158.74 1028.39 139.52 1059.76 128.26C1068.8 125.03 1078.15 122.32 1087.75 120.25C1094.3 118.83 1106.97 116.6 1117.32 115.4C1127.64 114.18 1144.63 113.13 1149.3 112.94L1149.3 112.94Z" />
		<path id="Layer" class="shp0" d="M559.19 117.48C559.19 117.48 567.6 118.59 577.29 118.59C586.2 118.59 593.36 117.41 593.36 117.41C593.36 117.41 593.19 178.56 593.19 209.13C593.19 220.72 593.19 232.29 593.19 244.12C593.19 255.23 593.16 265.96 591.33 275.98C589.52 285.78 586.09 294.57 581.77 303.09C577.75 310.94 571.85 317.95 565.28 324.32C556.33 333.01 546.2 338.88 535.52 344.03C528.06 347.69 519.93 350.44 511.77 352.45C495.92 356.4 479.24 358.87 461.64 359.43C454.15 359.65 446.14 359.46 438.82 359.24C415.55 358.5 393.15 355.44 373.35 347.89C367.73 345.66 362.45 343.2 357.15 340.53C350.44 337.02 343.61 332.77 338 327.31C319.53 309.46 313.74 287.92 312.91 261.18C312.91 252.37 312.91 243.59 312.89 234.71L312.89 117.59C312.89 117.59 324.33 118.59 337.98 118.59C351.6 118.59 360.55 117.48 361.88 117.48C361.88 156.95 361.88 196.43 361.88 236.02C361.91 243.09 361.91 250.05 361.91 257.19C362.54 277.79 367.19 300.4 381.64 313.93C402.43 333.44 433.76 336.32 464.57 336.32C468.89 336.26 476.94 336.15 484.87 334.99C492.32 333.92 503.25 331.17 506.35 330.08C519.11 325.37 531.99 318.93 540.96 307.36C546.75 299.99 550.98 292.28 553.93 283.38C558.99 268.12 559.19 251.12 559.19 233.32C559.19 223.67 559.19 214.02 559.19 204.36C559.19 175.4 559.19 117.48 559.19 117.48L559.19 117.48Z" />
		<path id="Layer" class="shp0" d="M892.67 117.65C897.45 118.09 900.56 118.72 910.27 118.72C919.97 118.72 926.43 117.74 926.71 117.65C926.71 196.98 926.71 354.87 926.71 354.87L902.69 354.94C902.69 354.94 901.65 353.98 900.93 353.34C897.98 350.9 895.12 348.35 892.17 345.75C889.18 343.33 886.25 340.91 883.22 338.4C875.18 332.09 867.15 325.69 859.05 319.43C817.98 287.24 776.87 255.23 735.76 222.95C722.37 212.52 708.99 202.09 695.61 191.63C691.68 188.62 687.75 185.5 683.82 182.38C683.31 182.01 681.61 180.48 681.11 180.48C681.11 180.18 681.17 180.24 680.87 180.24C680.87 238.73 680.87 355 680.87 355C680.87 355 672.9 353.78 664.73 353.78C656.13 353.78 646.96 355 646.87 355L646.87 117.65L674.27 117.65C674.27 117.65 676.7 119.53 677.72 120.36C680.8 122.76 683.9 125.18 686.98 127.58C699.14 137.07 711.28 146.54 723.42 156.02C761.52 185.74 799.69 215.55 837.78 245.27C851.5 255.97 865.23 266.66 878.96 277.36C880.32 278.32 892.48 287.9 892.48 287.94C892.54 287.94 892.63 287.94 892.67 287.94C892.67 231.07 892.67 174.57 892.67 117.65L892.67 117.65Z" />
		<path id="Layer" class="shp0" d="M1328.47 117.63C1408.25 117.63 1488.02 117.63 1567.83 117.63C1567.26 122.41 1566.14 127.01 1566.21 132.45C1566.28 137.99 1567.91 145.91 1568.02 146.83C1562.98 146.17 1557.89 145.52 1552.8 144.89C1536.89 143.12 1517.26 142.57 1513.92 142.55C1501.74 142.18 1488.92 142.35 1476.54 142.35C1475.08 142.29 1473.57 142.2 1472.06 142.14C1459.36 142.14 1446.28 142.09 1433.83 141.92C1415.04 141.92 1396.26 141.92 1377.44 141.92C1377.44 167.43 1377.44 190.56 1377.44 216.21C1424.12 216.21 1470.82 216.21 1517.48 216.21C1519.22 216.14 1529.97 215.79 1531.36 215.79C1532.67 215.73 1555.64 214.39 1557.3 214.39C1556.91 216.62 1555.73 221.47 1555.73 227.49C1555.73 233.42 1556.73 236.04 1557.08 240.43C1552.54 240.3 1548.61 240.04 1544.03 239.75C1535.97 239.34 1528.85 238.97 1519.73 238.73C1507.87 238.71 1496.02 238.71 1484.16 238.68C1448.59 238.68 1413.01 238.68 1377.44 238.68C1377.44 268.82 1377.44 300.49 1377.44 330.71C1395.65 330.71 1413.86 330.71 1432.04 330.71C1437.28 330.74 1448.22 330.5 1453.75 330.5C1458.88 330.5 1466.41 330.43 1471.39 330.28C1476.54 330.23 1482.96 330.04 1486.61 330.04C1492.02 330.04 1496.98 329.82 1500.25 329.82C1503.68 329.71 1518.72 329.51 1523.09 329.34C1524.62 329.32 1528.63 329.1 1530.23 329.1C1532.19 329.06 1544.01 328.47 1549.03 327.94C1554.05 327.44 1568.26 325.98 1568.94 325.89C1569.53 325.83 1570.12 325.76 1570.73 325.67C1570.31 328.58 1569.16 333.18 1569.16 340.8C1569.16 349.02 1570.14 349.9 1570.73 354.59C1489.97 354.59 1409.23 354.59 1328.47 354.59C1328.47 275.63 1328.47 196.61 1328.47 117.63L1328.47 117.63Z" />
		<path id="Layer" fill-rule="evenodd" class="shp0" d="M159.16 117.65C184.6 118.46 212.02 120.73 232.46 131.55C239.59 135.35 246.08 141.46 250.03 148.6C257.89 162.8 254.62 183.23 245.77 195.41C238.35 205.77 226.45 213.3 215.53 218.74C211.1 220.85 204.99 222.75 200.29 224.63C199.01 225.09 197.81 225.52 196.06 226.07C196.06 226.16 196.06 226.14 196.06 226.2C197.78 226.48 199.53 226.66 201.26 226.94C206.15 227.6 214.99 229.19 219.55 230.22C242.74 235.72 268.11 250.14 268.33 284.3C268.39 297.04 264.83 306.88 261.1 314.13C255.4 325.04 245.77 333.4 230.42 341.32C200.91 356.44 144.58 354.63 100.32 354.63C67.22 354.63 34.1 354.63 1 354.63C1 276.92 1 117.69 1 117.69C1 117.69 155.43 117.65 159.16 117.65ZM57.22 216.31L94.34 216.36C94.34 216.36 105.6 216.14 109.34 216.14C121.93 216.1 138 215.2 146.69 214.33C155.38 213.37 165.71 212.58 175.64 209.51C182.09 207.41 189.38 203.96 194.92 200.08C204.49 193.2 210.6 183.93 210.01 171.36C209.7 164.72 208.02 159.92 203.98 155.12C200.6 151.19 195.97 148.66 191.43 146.92C177.85 141.63 158.16 141.02 139.99 141.18C130.67 141.24 120.1 141.15 110.23 141.15C92.55 141.15 74.88 141.15 57.22 141.15C57.22 166.99 57.22 216.31 57.22 216.31ZM57.22 331.04C88.68 331.04 120.14 331.04 151.61 331.04C165.62 330.58 173.02 328.77 181.02 326.37C187.78 324.43 194.07 321.85 203.2 315.2C209.55 310.72 214.97 302.98 217.3 295.8C220.91 284.84 218.7 269.74 212.57 261.03C209.03 256.08 203.83 252.28 198.77 249.44C191.82 245.71 184.16 243.9 176.26 241.78C169.92 240.3 163.05 239.54 156.3 239.03C143.16 238.05 129.51 237.77 115.6 237.77C96.13 237.77 76.67 237.77 57.22 237.77C57.22 268.12 57.22 300.62 57.22 331.04Z" />
		<path id="Layer" class="shp0" d="M377.3 117.61C379.74 124.57 383.06 131.09 387.1 137.16L533.41 137.16C537.42 131.09 540.74 124.57 543.21 117.61L377.3 117.61L377.3 117.61Z" />
		<path id="Layer" class="shp0" d="M404.94 156.67C420.05 168.94 439.3 176.23 460.24 176.23C481.2 176.23 500.44 168.94 515.55 156.67L404.94 156.67L404.94 156.67Z" />
		<path id="Layer" class="shp0" d="M372.28 88.3C372.28 91.59 372.47 94.87 372.82 98.07L547.66 98.07C548.03 94.87 548.21 91.59 548.21 88.3C548.21 85 548.03 81.73 547.66 78.52L372.82 78.52C372.47 81.73 372.28 85 372.28 88.3Z" />
		<path id="Layer" class="shp0" d="M387.1 39.46C383.06 45.5 379.74 52.03 377.3 58.99L543.21 58.99C540.74 52.03 537.42 45.5 533.41 39.46L387.1 39.46L387.1 39.46Z" />
		<path id="Layer" class="shp0" d="M515.55 19.92C500.44 7.7 481.2 0.37 460.24 0.37C439.3 0.37 420.07 7.7 404.96 19.92L515.55 19.92Z" />
	</g>
</svg>