<svg version="1.2" xmlns="http://www.w3.org/2000/svg" viewBox="0 0 1513 466" width="1513" height="466">
	<title>2021-Annual-Report-Final-IR-Site-1-pdf-svg</title>
	<defs>
		<clipPath clipPathUnits="userSpaceOnUse" id="cp1">
			<path d="m-2744.84-156h4445.05v5746.6h-4445.05z"/>
		</clipPath>
	</defs>
	<style>
		.s0 { fill: #77c547 } 
		.s1 { fill: #1b204f } 
	</style>
	<g id="Clip-Path: Page 1" clip-path="url(#cp1)">
		<g id="Page 1">
			<path id="Path 3" fill-rule="evenodd" class="s0" d="m1406.1 346.8c-8-6.1-13.5-15.9-13.8-26.8-3 7.6-9.1 14.5-15.7 18.5-7.2-7.3-10.1-16.7-9-27.6-3.7 7.6-10.2 12.3-18.2 15.6-4.7-7.2-6.9-16.7-5.4-26.1-5.1 6.2-11.7 10.1-19.3 11.6-2.9-6.9-4-14.5-2.2-21.8-11.2 9.5-25.4 6.2-26.8 6.2 13.8-11.6 22.8-27.9 24.6-46.8 0 0 19.3 26.1 65.8 41.4 1.1-2.2 17-23.3 22.1-53.4 25.8 52.3 1.5 102.3-2.1 109.2zm84.6-302.5h9.8c0.3 21.7-16 32.6-21.8 34.8h4c-0.4 20.3-16.4 28.6-22.2 28.6 3.7 15.6-15.2 25.8-16.7 26.5-6.5 34.9-39.2 47.6-47.6 49.4 10.9 40.2-2.9 75.8-14.8 93.9-38.9-12.7-69.8-46-81.8-87.8-3.2-9.4-12.3-17-24.6-19.9-8-1.8-14.9-5.5-19.7-10.5-4-4-10.1-7.3-17-8.7q-3.3-0.4-7.7-0.4c-0.7 0-70.4 4.3-70.4 4.3q-1.1 0-1.1-1c0-0.4 0.4-1.1 1.1-1.1l75.2-9.5c14.1-2.9 23.9-10.5 28.3-19.9 4.7-10.9 18.2-18.9 34.1-18.9 2.2 0 4.4 0 6.2 0 18.2 1.5 35.2 7.6 49.8 17.8 16.7-9.1 34.1-20 52.3-32.3 47.5-31.9 86-64.9 105.6-88.9 6.9 21.1-17.4 41-21 43.6zm-142.4 61.3c-10.2-6.2-21.1-10.2-32.7-12.4 6.6-27.5 10.2-51.5 10.9-69.3 8 3.7 13.5 17.1 12.4 33.1-0.4 5.4-1.5 10.1-2.9 14.5q0.3 0 0.7 0c8 0.7 14.2 11.9 13.1 25q-0.4 4.7-1.5 9.1z"/>
			<path id="Path 4" fill-rule="evenodd" class="s1" d="m213.4 217.3h0.4v35.9l-1.8-1.8c-21.1-20.7-49.4-32.6-77.4-32.6-57 0-105.3 49.3-105.3 107.7 0 58.4 48.7 107.8 105.7 107.8 27.2 0 55.2-12 77-33.1l1.8-1.4v35.5l-0.4 0.4c-22.8 16-50.1 25-77.3 25-35.6 0-69.4-13.7-95.2-38.8-26.1-25.4-40.3-59.1-40.3-94.3 0-74.7 60.7-135.7 135.5-135.7 29 0 54.5 8.4 77.3 25.4zm105.4 21.1l92.9 216.5h-27.6c0 0-23.2-56.6-23.9-57.6h-85.4c-0.3 1-24.7 57.6-24.7 57.6h-26.9l94.5-214.4zm-33.8 135.7h65.7c-1.1-2.5-30.8-73.3-32.3-77.6-1.8 4.3-32.3 75.1-33.4 77.6zm332.6-138.2l42.2 219.1h-25.4c0 0-24.7-131.3-25.8-136-1.8 4.3-65.4 145.8-65.4 145.8 0 0-63.6-141.5-65.4-145.8-0.7 4.7-25.8 136-25.8 136h-25.4l41.8-215.8 0.4-3.3c0 0 72.6 166.9 74.4 171.2 1.8-4.3 74.4-171.2 74.4-171.2zm221.6 116.8c0 30.5-11.6 57-33.4 76.6-24.4 21.4-49.1 25.7-81 25.7h-38.9v-205.3h39.2c30.9 0 56 4.3 80.3 25 22.2 18.9 33.8 46.1 33.8 78zm-24.7-0.4c0-23.5-9.5-45.7-25.8-60.2-18.5-15.9-38.5-19.2-62.5-19.2h-15.6v158.9h15.6c24.7 0 45.1-3.3 63.2-20.7 16.4-14.9 25.1-35.9 25.1-58.8zm158.7-102.6v23.2h-82.8v58.4h80.2v22.9h-80.2v77.6h82.8v23.2h-107.5v-205.3zm221.1 0v215.8c0 0-155-161.8-158.7-165.4v154.9h-24.6v-215.5c0 0 155 162.5 158.7 166.2v-156zm25.7 198.4v0.7c0 3 2.2 4 4 4 2.2 0 4-1 4-3.6 0-5.1-10.1-4.7-10.1-11.6 0-4 2.9-6.2 6.9-6.2 4 0 6.5 2.2 6.1 6.9h-2.9c0-2.5-0.7-4.3-3.6-4.3-1.8 0-3.6 1.1-3.6 3.2 0 5.1 10.5 4.4 10.5 12 0 4.7-3.6 6.2-7.3 6.2-6.9 0-6.9-5.1-6.9-7.3zm16.4 6.9h-2.6v-23.2h4.8l5.8 19.6 5.8-19.6h5.1v23.2h-2.9v-20.7h-0.4l-6.2 20.7h-2.9l-6.2-20.7h-0.3z"/>
		</g>
	</g>
</svg>