<svg version="1.2" xmlns="http://www.w3.org/2000/svg" viewBox="0 0 1530 506" width="1530" height="506">
	<title>Cardinal_Health_Logo-svg</title>
	<defs>
		<clipPath clipPathUnits="userSpaceOnUse" id="cp1">
			<path d="m-117.03-43.57h1901.72v611.22h-1901.72z"/>
		</clipPath>
		<clipPath clipPathUnits="userSpaceOnUse" id="cp2">
			<path d="m-53.11-107.74h1727.32v718.88h-1727.32z"/>
		</clipPath>
		<clipPath clipPathUnits="userSpaceOnUse" id="cp3">
			<path d="m-53.11-107.74h1727.32v718.88h-1727.32z"/>
		</clipPath>
		<clipPath clipPathUnits="userSpaceOnUse" id="cp4">
			<path d="m-53.11-107.74h1727.32v718.88h-1727.32z"/>
		</clipPath>
		<clipPath clipPathUnits="userSpaceOnUse" id="cp5">
			<path d="m-53.11-107.74h1727.32v718.88h-1727.32z"/>
		</clipPath>
		<clipPath clipPathUnits="userSpaceOnUse" id="cp6">
			<path d="m-53.11-107.74h1727.32v718.88h-1727.32z"/>
		</clipPath>
		<clipPath clipPathUnits="userSpaceOnUse" id="cp7">
			<path d="m-53.11-107.74h1727.32v718.88h-1727.32z"/>
		</clipPath>
		<clipPath clipPathUnits="userSpaceOnUse" id="cp8">
			<path d="m-53.11-107.74h1727.32v718.88h-1727.32z"/>
		</clipPath>
		<clipPath clipPathUnits="userSpaceOnUse" id="cp9">
			<path d="m-53.11-107.74h1727.32v718.88h-1727.32z"/>
		</clipPath>
		<clipPath clipPathUnits="userSpaceOnUse" id="cp10">
			<path d="m-53.11-107.74h1727.32v718.88h-1727.32z"/>
		</clipPath>
		<clipPath clipPathUnits="userSpaceOnUse" id="cp11">
			<path d="m-53.11-107.74h1727.32v718.88h-1727.32z"/>
		</clipPath>
		<clipPath clipPathUnits="userSpaceOnUse" id="cp12">
			<path d="m-53.11-107.74h1727.32v718.88h-1727.32z"/>
		</clipPath>
		<clipPath clipPathUnits="userSpaceOnUse" id="cp13">
			<path d="m-53.11-107.74h1727.32v718.88h-1727.32z"/>
		</clipPath>
		<clipPath clipPathUnits="userSpaceOnUse" id="cp14">
			<path d="m-53.11-107.74h1727.32v718.88h-1727.32z"/>
		</clipPath>
		<clipPath clipPathUnits="userSpaceOnUse" id="cp15">
			<path d="m-53.11-107.74h1727.32v718.88h-1727.32z"/>
		</clipPath>
		<clipPath clipPathUnits="userSpaceOnUse" id="cp16">
			<path d="m-53.11-107.74h1727.32v718.88h-1727.32z"/>
		</clipPath>
	</defs>
	<style>
		.s0 { fill: #f04e44 } 
		.s1 { fill: #000000 } 
	</style>
	<g id="Layer">
		<g id="Clip-Path" clip-path="url(#cp1)">
			<g id="Layer">
				<g id="Clip-Path" clip-path="url(#cp2)">
					<path id="Layer" fill-rule="evenodd" class="s0" d="m449.9 238.7c6.8 12.9 11.5 25.9 13.8 38.9l-4.4 2.8c-6.4-12.1-13.6-23.3-21.4-34.2-50.3 33.8-92.4 72.5-118.6 116.7l-4.8-3.3c9.2-41.6 50.2-86.8 112.3-127.7-5-6.3-10.2-12.1-15.8-18.3-30.5 20.3-56.2 41.4-74.6 62.7l-4.3-3.6c10.6-23.6 34.4-48.1 67.5-70.8-4.8-4.7-9.6-9.3-14.6-13.6-13.3 9.7-25.3 19.6-35.7 29.8l-4.1-4.3c7.2-11.6 17.4-23 30.1-33.9-96.3-81-238.1-129-374.3-150.8l1.1-0.7c164.7 21.3 287.8 67.6 365.6 122.7 5.2-5.9 11.3-11.3 18.3-16.6-70-55-174-99.9-298.3-122.5l1.2-0.7c141 20.8 247.9 65.5 308.4 115.2q10-6.4 21.2-12.1c-51.4-48.2-135-87-248.9-112.8l1.1-0.8c126 24.5 212.8 59.1 255.5 109.8 52-24.9 119.9-40.4 171-49.4l1.3 0.8c-49.9 9.8-114 30.7-165.8 56.9 2.3 3.2 4.4 6.4 6.4 9.8l-3.5 3.3c-2.9-3.3-6-6.6-9.1-9.8-7.2 3.8-14 7.6-20.6 11.6 5.5 5 10.4 9.7 15 14.8 62.9-35.7 154-63.8 254.7-79.1l1.2 0.9c-86.3 15.8-176.7 48.4-246.9 88.8 4.5 5.6 8.4 11.4 11.6 17.1 80.3-43.5 193.1-78.6 308.5-90.1l1.5 0.8c-107.8 14.1-234.4 60.8-325.1 116.8 5.3 6.5 10.1 12.7 14.3 19.2 101.1-62.4 251.4-112.5 411.7-119l1.2 1c-104.9 6.4-277.2 53.5-403.7 133.7zm-59.8-70.4c6.2-4.7 12.8-9 19.9-13.4-5-4.6-10.3-9.1-15.7-13.8q-10.9 7.4-20 14.8c5.5 4.2 10.8 8.1 15.8 12.4zm25.2 23.2c6.1-3.6 12.4-7.6 19-11.2-4.4-5.3-9.1-10.3-14.1-15.5-6.8 4.2-13.3 8.2-19.6 12.6 5.2 4.6 10.1 9.4 14.7 14.1z"/>
				</g>
				<g id="Clip-Path" clip-path="url(#cp3)">
					<path id="Layer" class="s1" d="m760.9 399.1h25.2v104.6h-25.2zm-0.4-44.4h26v24.6h-26z"/>
				</g>
				<g id="Clip-Path" clip-path="url(#cp4)">
					<path id="Layer" class="s1" d="m1020.1 351.4h25.4v152.3h-25.4z"/>
				</g>
				<g id="Clip-Path" clip-path="url(#cp5)">
					<path id="Layer" class="s1" d="m1073 351.4h12.7v65.1h55.8v-65.1h12.8v152.3h-12.8v-76h-55.8v76h-12.7v-152.3"/>
				</g>
				<g id="Clip-Path" clip-path="url(#cp6)">
					<path id="Layer" fill-rule="evenodd" class="s1" d="m1190.8 455.4c0 38.7 25.4 39.1 30 39.1 6.9 0 16.7-3.4 22.7-8.6l0.6 13.3c-5 2.7-11.9 5.9-24.5 5.9-41.1 0-42.4-43.2-42.4-53.7 0-35.7 13.5-53.7 36.9-53.7 25.8 0 37.1 20.5 37.1 57.7zm46.7-11.1c0-22.5-9.1-35.6-23.3-35.6-16 0-23.4 15-23.4 35.6z"/>
				</g>
				<g id="Clip-Path" clip-path="url(#cp7)">
					<path id="Layer" class="s1" d="m1365.3 351.4h12.4v152.3h-12.4z"/>
				</g>
				<g id="Clip-Path" clip-path="url(#cp8)">
					<path id="Layer" class="s1" d="m1422.5 374.6v24.4h21.4v10.4h-21.4v68.9c0 8.4 1.1 16.4 12.1 16.4 5 0 7.4-1.1 9.3-1.7v10.7c-1.2 0.6-4.5 1.4-12 1.4-18.1 0-21.8-11.8-21.8-23.5v-72.2h-15.8v-10.4h15.8v-20.9z"/>
				</g>
				<g id="Clip-Path" clip-path="url(#cp9)">
					<path id="Layer" fill-rule="evenodd" class="s1" d="m486.8 405.3c7.2-3.3 17-7.7 31.6-7.7 31.4 0 41.7 15.4 41.7 39.4v48.3c0 7.5 0.8 14.4 1.4 18.4h-22.7c-1.3-4-1.5-9-1.5-11.9h-0.4c-3.3 3.8-12.3 13.6-29.1 13.6-18.4 0-31.5-11.1-31.5-30.6 0-28.3 25-35.6 50.5-35.6h9.7v-3.9c0-10.4-5.1-19.8-19.5-19.8-12.7 0-23.9 6-28.7 10.1zm49.6 47.3h-9.2c-12 0-27.4 3.6-27.4 19.6 0 9.6 6.2 16.1 16.1 16.1 13.4 0 20.5-11 20.5-24.4z"/>
				</g>
				<g id="Clip-Path" clip-path="url(#cp10)">
					<path id="Layer" fill-rule="evenodd" class="s1" d="m922 405.3c7.1-3.3 17-7.7 31.6-7.7 31.4 0 41.5 15.4 41.5 39.4v48.3c0 7.5 0.9 14.4 1.6 18.4h-22.7c-1.3-4-1.5-9-1.5-11.9h-0.4c-3.3 3.8-12.3 13.6-29 13.6-18.5 0-31.7-11.1-31.7-30.6 0-28.3 25.2-35.6 50.5-35.6h9.8v-3.9c0-10.4-5.1-19.8-19.6-19.8-12.6 0-23.8 6-28.6 10.1zm49.6 47.3h-9.2c-12 0-27.3 3.6-27.3 19.6 0 9.6 6.2 16.1 15.9 16.1 13.6 0 20.6-11 20.6-24.4 0 0 0-11.3 0-11.3z"/>
				</g>
				<g id="Clip-Path" clip-path="url(#cp11)">
					<path id="Layer" class="s1" d="m585 416.5c0-6.6-0.3-12.6-0.9-17.4h22.8c0.2 6.4 0.7 8.1 0.7 14.5h0.4c2-4.5 6.9-16 26.8-16 1.6 0 2.9 0.3 4.3 0.5v23.4c-1.1-0.2-3.7-0.8-7.2-0.8-10.3 0-21.7 6.4-21.7 25.9v57.1h-25.2z"/>
				</g>
				<g id="Clip-Path" clip-path="url(#cp12)">
					<path id="Layer" fill-rule="evenodd" class="s1" d="m735.3 351.4v134.5c0 7.5 0.2 14 0.9 17.8h-23.7c-0.4-2.9-0.8-8.4-0.8-13.6h-0.6c-1.4 3-8 15.3-27.9 15.3-26.1 0-36.8-24.8-36.8-53.8 0-34.2 12.8-54.1 38.8-54.1 16.9 0 22.9 10.2 24.5 12.3h0.5v-58.4zm-25.2 100.1c0-19.6-8.6-35.4-19.3-35.4-10.6 0-19.3 15.8-19.3 35.4 0 19.6 8.7 35.4 19.3 35.4 10.7 0 19.3-15.8 19.3-35.4z"/>
				</g>
				<g id="Clip-Path" clip-path="url(#cp13)">
					<path id="Layer" class="s1" d="m462.7 500.8c-2.7 1-10.7 5.1-30.8 5.1-43.2 0-65.3-31.6-65.3-73.1 0-41.4 22.1-72.9 64.5-72.9 18.6 0 28.3 4 31.6 5.3l-1.4 23.6c-2.5-1.6-10.2-7.4-26.9-7.4-21.6 0-40.1 14.8-40.1 51.4 0 36.9 18.5 51.5 40.1 51.5 12.6 0 21-3.1 26.8-7.3z"/>
				</g>
				<g id="Clip-Path" clip-path="url(#cp14)">
					<path id="Layer" class="s1" d="m811.8 416.5c0-6.6-0.2-12.6-0.8-17.4h23.7c0.1 3.3 0.7 10.6 0.7 13.2h0.4c2.1-3.2 8.7-14.7 27.4-14.7 21.8 0 31.5 13.9 31.5 34.4v71.7h-25.3v-67.7c0-12.9-7.6-17.8-16.2-17.8-8.3 0-16.2 4.7-16.2 17.8v67.7h-25.2z"/>
				</g>
				<g id="Clip-Path" clip-path="url(#cp15)">
					<path id="Layer" class="s1" d="m1461.1 351.4h12.5v57.3h0.2c2.9-3.7 9.3-11 25.3-11 19.6 0 30.4 16 30.4 30.6v75.4h-12.6v-72.5c0-13.9-8.1-23.3-21.4-23.3-13.3 0-21.9 8.9-21.9 23.3v72.5h-12.5c0 0 0-152.3 0-152.3z"/>
				</g>
				<g id="Clip-Path" clip-path="url(#cp16)">
					<path id="Layer" fill-rule="evenodd" class="s1" d="m1325.3 432.3c0-14.5-5.1-23.6-22.8-23.6-14.1 0-24.1 9.9-25.3 10.9l-1.9-12.6c6-3.7 14.6-9.3 28.3-9.3 29.2 0 34.2 21.2 34.2 32.3v50.3c0 7.9 0.6 15.7 1.2 23.4h-12l-0.7-12.6h-0.4c-2.7 3.5-8.4 14-28.4 14-19.6 0-30.7-12.2-30.7-30.8 0-26.7 22.7-33.6 49.6-33.6h8.9c0 0 0-8.4 0-8.4zm-9.9 18.7c-22 0-35.5 6.6-35.5 23 0 10.4 6.6 20.1 20.4 20.1 5.6 0 25-2.2 25-30.8v-12.3c0 0-9.9 0-9.9 0z"/>
				</g>
			</g>
		</g>
	</g>
</svg>