<svg version="1.2" xmlns="http://www.w3.org/2000/svg" viewBox="0 0 1529 298" width="1529" height="298">
	<title>carmax-svg</title>
	<style>
		.s0 { fill: #053361 } 
	</style>
	<path id="Layer" fill-rule="evenodd" class="s0" d="m1355 5.3c2.4 1 4.7 2.5 6.5 4.3 1.9 1.9 3.4 4.1 4.4 6.6 1 2.4 1.5 5 1.5 7.6 0.1 8.2-4.8 15.6-12.4 18.7-7.5 3.1-16.2 1.4-22-4.4-5.8-5.7-7.5-14.4-4.4-22 3.2-7.5 10.6-12.4 18.7-12.4 2.7 0 5.3 0.6 7.7 1.6zm-0.9 35.2c2.2-0.9 4.1-2.2 5.8-3.9 1.6-1.6 2.9-3.6 3.8-5.8 0.9-2.1 1.3-4.4 1.3-6.8 0-7.2-4.4-13.7-11.1-16.4-6.6-2.8-14.3-1.2-19.4 3.9-5.1 5.2-6.6 12.9-3.8 19.5 2.8 6.7 9.4 11 16.6 10.9 2.4 0 4.7-0.5 6.8-1.4zm-3.1-17q0.1 0 0.1 0-0.1 0-0.1 0zm0 0c2.2 0.6 2.9 1.5 3.1 4.1q0.1 0.9 0.2 1.7 0.1 0.9 0.3 1.7 0.1 0.9 0.4 1.7 0.2 0.9 0.4 1.7h-3.1q-0.2-0.7-0.3-1.4-0.2-0.7-0.4-1.4-0.1-0.7-0.2-1.4-0.1-0.7-0.1-1.4c-0.3-3.2-1.1-4.2-4.7-4.2h-3.7v9.8h-3v-21.6h7.7c1.6 0 7.3 0 7.3 5.5q0 0.8-0.2 1.7-0.3 0.9-0.8 1.6-0.6 0.7-1.3 1.2-0.8 0.5-1.6 0.7zm0.9-4.7c0-3.5-2.7-3.5-4.3-3.5h-4.7v6.8h4.7c1.5-0.1 4.3 0.1 4.3-3.3z"/>
	<path id="Layer" fill-rule="evenodd" class="s0" d="m603.9 254h150.6v44h-150.6zm193.5 0h150.5v44h-150.5zm193.4 0h150.6v44h-150.6zm193.4 0h150.5v44h-150.5zm193.4 0h150.6v44h-150.6z"/>
	<path id="Layer" fill-rule="evenodd" class="s0" d="m604.6 197.6v-191.9h75.8l1.8 29.1h0.7c13.2-27.5 32.6-34.8 50.7-34.8 24.7 0 42.7 11.1 52.6 34.8 13.2-27.5 32.7-34.8 50.7-34.8 32.6 0 55.9 19.1 55.9 69.8v127.8h-77.8v-120.4c0-13.4-6-20.6-13.4-20.6-7.3 0-14 6-14 21.4v119.6h-77.8v-120.4c0-13.4-6-20.6-13.5-20.6-7.4 0-13.9 6-13.9 21.4v119.6zm644.1 0l-34.9-69.9-33 69.9h-79l0.1-0.2h-77.7l-2.4-18c-12.9 17.5-32.6 23.9-52.9 23.9-37.7 0-64.3-20.4-64.3-58.2 0-47.1 37-66.5 106.5-66.5l10.7 0.1v-19.7c0-9.3-4.7-15.2-17.4-15.2-11 0-17 3.8-18 19.8h-73.9c3-51.2 48.9-62.4 95.8-62.4 71.4 0 94.3 23.3 94.3 67.7v127l51.2-100.8-47.4-88.4h81.4l26 60.5 21.7-60.5h81.3l-43.6 88.4 53.5 102.5zm-226.9-66.2v-15.9h-12.2c-23.7 0-28.8 11.4-28.8 22 0 12.2 7 19.8 20.6 19.8 15.6 0 20.4-10.2 20.4-25.9z"/>
	<path id="Layer" fill-rule="evenodd" class="s0" d="m118.3 126.5h71.4c0 53-42.4 76.1-90 76.1-67.5-0.1-98.7-41-98.7-102-1.8-59.9 33.9-100.3 98.9-100.3 48.4 0 89.5 19.7 89.8 76.2h-69.9c-1-21.8-9-26.1-18.3-26.1-19.7 0-21.6 20.2-21.6 51.2 0 29.3 1.6 51.2 20.8 51.2 9.8 0 16.5-5.8 17.6-26.1zm289.6 71v-191.8h113.7c41.2 0 65.2 12.4 65.2 48.6 0 22.1-9.3 38.9-38.1 46.3 18.6 1.5 28.7 9.8 32.6 24.4 4.2 16.5 6.1 37.6 9.7 72.6h-74.6c-7-43-4.1-38.6-6.7-55-1.7-9.6-6.4-13.3-18.7-13.3h-8.8v68.3zm74.5-111.7h6.4c14.7 0 25.3-5.1 25.3-19.5 0-14.3-9.8-17-24.7-17h-7c0 0 0 36.4 0 36.5zm-301.1 111.9l61.9-192.3h98.6l61.8 192.3h-78.9l-7.5-30.9h-55l-7.8 30.9zm92.3-77.8h32.6l-15.9-72.4z"/>
</svg>