<svg version="1.2" xmlns="http://www.w3.org/2000/svg" viewBox="0 0 1568 619" width="1568" height="619">
	<title>carnival-corp-logo-svg</title>
	<style>
		.s0 { fill: #231f20 } 
		.s1 { fill: none;stroke: #231f20;stroke-width: 28.7 } 
		.s2 { fill: #ffffff;stroke: #231f20;stroke-width: 3.6 } 
		.s3 { fill: #e03a3e;stroke: #e03a3e;stroke-width: 3.6 } 
		.s4 { fill: #ffffff } 
		.s5 { fill: #485e87 } 
		.s6 { fill: #005a9c } 
	</style>
	<g id="Layer">
		<g id="Layer">
			<path id="Layer" fill-rule="evenodd" class="s0" d="m154.4 468.8c0-2.3-1-4.2-3.7-4.2-1.9 0-3.7 1.4-5.6 4.9-13.3 24.2-26.3 33.7-46.5 33.7-34.4 0-61.2-33.4-61.2-76.3 0-35.3 22.6-73.4 62.9-73.4 35.7 0 41.3 30.3 49.4 30.3 3 0 3.5-2.1 3.5-4.5-2-14.9 0-24.8-12.1-27.7-10.8-2.6-28-4.7-39.3-4.7-22.8 0-43.5 5.5-59.9 15.4-24.4 14.7-39.9 40-39.9 65.3 0 23.9 14.3 49.5 36.2 64.7 16.2 11.3 36.6 17.3 59.4 17.3 14.1 0 53.1-4.1 54.6-19.5z"/>
			<path id="Layer" fill-rule="evenodd" class="s0" d="m251.4 482.3c-1.5 4.8-2.4 9-2.4 11.2 0 10.6 22.6 3.3 22.6 10.6 0 2.4-2 3.6-6.4 3.6-9.6 0-19-1-28.5-1-7.4 0-14.8 1-22.1 1-3.3 0-4.8-1.2-4.8-3.6 0-6.9 15.3-0.9 22-10.9 12.7-22.2 26.2-59.6 35.8-84.2l15-38.6c2.7-7.4 5.2-15 8.4-22 1.2-1.7 2.4-2.7 3.9-2.7 2.7 0 3.7 1.5 7.6 12.6 2.5 6.6 4.9 13 7.6 19.2l41.1 96.1c4.4 10.2 8.3 24.6 21.6 26.5 3 0.5 7.4 0.5 7.4 4.3 0 2.1-2 3.5-5.9 3.5-10.1 0-20.2-1.2-30.3-1.2-10.3 0-20.8 1.2-31.2 1.2-4.4 0-5.9-1-5.9-3.3 0-8.3 18.7-0.5 18.7-10.4 0-1.7-0.5-4.3-1.7-7.4l-11.3-30.3c-2.5-6.1-4-7.6-7.1-7.6h-35.4c-10.6 0-8.4 1.7-9.9 6.4zm16.2-50.2c-0.7 2.2-1.2 3.8-1.2 5 0 2.1 1.2 2.6 6.4 2.6h25.1c4.4 0 5.9-0.5 5.9-1.9 0-0.9-0.3-1.9-1.5-4.7l-18.4-43.6z"/>
			<path id="Layer" fill-rule="evenodd" class="s0" d="m553.8 440.6l25.3 43.4c7.9 13.5 9.1 15.1 23.6 17 2 0.2 3.5 1.9 3.5 3.6 0 2.1-1.5 3.1-4.2 3.1-8.4 0-16.5-0.8-24.8-0.8-4.7 0-9.4 0.5-14 0.5-4 0-5.2-0.9-8.9-7.3l-31.4-57.6c-5.9-10.9-7.4-11.8-19-11.8-4.4 0-5.1 0.9-5.1 5.7v45.7c0 10.2 0.5 17.5 13.2 18 7.4 0.4 9.4 1.4 9.4 4.2 0 2.6-1.7 3.6-5.7 3.6h-0.7c-10.1 0-20.2-1.2-30.2-1.2-10.4 0-20.9 1.2-31.2 1.2-3.7 0-5.2-1-5.2-3.6 0-2.8 2-3.8 9.3-4.2 13.1-0.7 13.3-8.1 13.3-18v-107.7c0-9.7-0.3-10.9-2-13.3-6.4-8.3-20.6-1.9-20.6-9 0-2.6 1.5-3.5 5.4-3.5 9.8 0 19.4 0.9 29.2 0.9 14.5 0 29-0.9 43.5-0.9 26.1 0 50.7 11.6 50.7 40.2 0 21.6-15.8 33.4-36.2 37.7 5.2 2.8 8.1 6.1 12.8 14.1zm-42.5-16.5c23.1 0 36.1-9 36.1-32.2 0-21.6-14-36.2-36.3-36.2-10.1 0-12.3 2.8-12.3 16.5v42.7c0 8.9 0.2 9.2 12.5 9.2z"/>
			<path id="Layer" fill-rule="evenodd" class="s0" d="m802.2 466.5l-88.7-110.6c-2.7-3.8-4.7-6.9-9.9-7.3l-17.4 0.7c-7.9-0.2-15.5-0.7-23.4-0.7-4.9 0-6.8 1.2-6.8 3.5 0 2.9 2.2 3.8 9.8 3.8 5.4 0.2 9.3 1.2 10.8 3.1 2 2.1 3 8.5 3 18.9v84.6c0 7.5-0.3 15.6-0.8 24.6 0 19.1-24.1 10.1-24.1 18 0 2.1 1.7 3.3 4.7 3.3 9.6 0 18.9-1.7 28.5-1.7 7.6 0 15 0.8 22.6 0.8 4.4 0 6.4-1 6.4-3.6 0-3.8-4.7-3.6-11.8-4-8.6-0.7-12.3-3.8-13.5-11.2-1-4.5-1.7-18.2-2-29.1v-88.1l110.4 135.2c3.9 4.6 6.1 6.2 8.6 6.2 2.9 0 4.4-1.7 4.4-6.2v-1.2-132.5c0-12.6 2-14.7 13.5-15.7 8.1-0.7 10.6-1.6 10.6-4.5 0-2.6-1.7-3.8-4.9-3.8-8.4 0-17 1-25.4 1-7.8 0-15.9-0.7-23.8-0.7-4.7 0-6.6 0.9-6.6 3.5 0 8.1 21.6-2.3 24.3 13.8 0.7 3.7 1.2 14.2 1.5 21.5v78.4z"/>
			<path id="Layer" fill-rule="evenodd" class="s0" d="m941.9 374.6c0-9.5 0.3-10.6 2-13.2 1.9-2.7 6.1-4.5 11.3-4.8 7.4-0.5 9.3-1.4 9.3-4.2 0-2.6-1.4-3.8-5.1-3.8-10.6 0-20.9 1.2-31.5 1.2-10.1 0-20.1-1-30.2-1-0.5-0.2-0.8-0.2-1-0.2-3.9 0-5.4 1.2-5.4 3.5 0 3.1 2 4 9.3 4.5 12.8 0.5 13.3 7.6 13.3 18v107.5c0 9.9-0.2 17.3-13.3 18-7.3 0.5-9.3 1.4-9.3 4.3 0 2.3 1.5 3.5 5.2 3.5 10.3 0 20.9-1.2 31.2-1.2 10.5 0 20.9 1.2 31.4 1.2 4 0 5.4-0.9 5.4-3.5 0-2.9-1.9-3.8-9.3-4.3-12.8-0.5-13.3-7.8-13.3-18v-107.5z"/>
			<path id="Layer" fill-rule="evenodd" class="s0" d="m1132 466l-42-94.5c-2.4-5.4-3.4-7.8-3.4-9.2 0-10.2 20.4-3.6 20.4-10.2 0-2.4-1.8-3.5-5-3.5-11 0-22.3 1.4-33.4 1.4-10.5-0.5-21.4-1.4-31.9-1.4-2.5 0-4 1.2-4 3.3 0 2.8 1.5 3.5 8.4 4 8.8 0.7 11.5 3.3 17.2 16.8l57.8 132.8c1.7 4.1 2.9 5.5 4.9 5.5 1.4 0 3.2-1.9 4.4-4.8l52.8-126.8c7.4-17.3 10.6-21.8 17.2-22.8l7.4-0.9c2.5-0.5 3.9-1.9 3.9-3.8 0-2.1-1.4-3.3-4.6-3.3-7.9 0-15.5 0.9-23.4 0.9-7.4 0-15-0.7-22.3-0.7-5.4 0-7.2 0.9-7.2 3.6 0 8.2 22.1-1 22.1 11.6 0 3.3-1.2 8.5-3.7 14.2z"/>
			<path id="Layer" fill-rule="evenodd" class="s0" d="m1265.4 482.3c-1.5 4.8-2.4 9-2.4 11.2 0 10.6 22.6 3.3 22.6 10.6 0 2.4-2 3.6-6.4 3.6-9.6 0-19-1-28.5-1-7.4 0-14.8 1-22.2 1-3.2 0-4.7-1.2-4.7-3.6 0-6.9 15.3-0.9 22-10.9 12.7-22.2 26.2-59.6 35.8-84.2l15-38.6c2.7-7.4 5.2-15 8.4-22 1.2-1.7 2.4-2.7 3.9-2.7 2.7 0 3.7 1.5 7.6 12.6 2.5 6.6 4.9 13 7.6 19.2l41.1 96.1c4.4 10.2 8.3 24.6 21.6 26.5 2.9 0.5 7.4 0.5 7.4 4.3 0 2.1-2 3.5-5.9 3.5-10.1 0-20.2-1.2-30.3-1.2-10.3 0-20.8 1.2-31.2 1.2-4.4 0-5.9-1-5.9-3.3 0-8.3 18.7-0.5 18.7-10.4 0-1.7-0.5-4.3-1.7-7.4l-11.3-30.3c-2.5-6.1-4-7.6-7.1-7.6h-35.4c-10.6 0-8.4 1.7-9.9 6.4zm16.2-50.2c-0.7 2.2-1.2 3.8-1.2 5 0 2.1 1.2 2.6 6.4 2.6h25.1c4.4 0 5.9-0.5 5.9-1.9 0-0.9-0.3-1.9-1.5-4.7l-18.5-43.6z"/>
			<path id="Layer" fill-rule="evenodd" class="s0" d="m1546.9 507.2c3.5 0 6.7 0.3 10.1 0.3 4.4 0 5.9-1.3 6.4-6 0.5-8.5 3.7-23.2 3.7-28.4 0-2.6-1.3-4-3.5-4-1.4 0-2.4 0.7-3.7 3-10.8 19.2-25 28-45.4 28-15 0-20.4-6.6-20.4-24.6v-101.1c0-9.5 0-10.7 1.7-13.3 2-2.6 6.1-4.5 11.3-4.7 7.4-0.5 9.4-1.4 9.4-4.3 0-2.6-1.5-3.5-5.2-3.5-10.6 0-20.9 1.2-31.5 1.2-10.5 0-21.1-1.2-31.7-1.2-3.9 0-5.4 0.9-5.4 3.5 0 7.1 14.3 0.7 20.7 9 1.7 2.4 1.9 3.6 1.9 13.3v107.7c0 9.9-0.2 17.3-13.2 18-7.4 0.5-9.4 1.4-9.4 4.3 0 2.3 1.5 3.5 5.2 3.5 5.6 0 11.5-0.7 17.2-0.7z"/>
		</g>
		<g id="Layer">
			<g id="Layer">
				<g id="Layer">
					<path id="Layer" class="s0" d="m72.9 562.1c0 1.1 0 1.8-1.5 1.8-0.9 0-1.7-0.2-3.1-1.9-4.5-5.8-9.2-10.9-20.9-10.9-20.7 0-30.3 17.3-30.3 31.1 0 15 10.3 32.3 29.5 32.3 11.6 0 17.2-6.1 22.5-14.4 0.2-0.4 1.3-2 2.5-2 1.9 0 1.9 1 1.9 1.7l-1 9.2c-0.1 1.5-0.4 2.4-3 3.7-2.1 1.1-10.5 4.4-23.3 4.4-32.1 0-46.1-20.8-46.1-34.5 0-15 15.2-34.3 48.2-34.3 5.8 0 8 0.3 16.6 1.5 5.7 0.9 6.3 1.9 6.8 4.8z"/>
					<path id="Layer" fill-rule="evenodd" class="s0" d="m153.7 617.2c-23.9 0-43.2-15.4-43.2-34.5 0-19 19.3-34.4 43.2-34.4 23.9 0 43.2 15.4 43.2 34.4 0 19.1-19.3 34.5-43.2 34.5zm28-34.5c0-17.4-12.5-31.6-28-31.6-15.5 0-28 14.2-28 31.6 0 17.5 12.5 31.7 28 31.7 15.5 0 28-14.2 28-31.7z"/>
					<path id="Layer" fill-rule="evenodd" class="s0" d="m243.1 559.9c0-4.4 0-7.4-6.2-7.7-2.8-0.1-4.5-0.2-4.5-1.7 0-1.5 0.5-1.5 4.6-1.5 1.3 0 7.5 0.4 9 0.4 3.5 0 20.3-0.4 24.1-0.4 22.4 0 24.3 13.1 24.3 16.9 0 12.6-13.1 15.2-17.4 15.9 1.7 0.9 3.2 1.5 6.1 6.1l12.3 18.5c2.5 3.8 4.3 6.4 7.9 6.9 4.1 0.4 5.1 0.5 5.1 1.9 0 1.2-1.2 1.3-2.1 1.3-1.7 0-9.9-0.4-11.8-0.4-1 0-5.7 0.4-6.8 0.4-2.3 0-2.8-1-4.2-3.2l-15.3-24.6c-2.8-4.6-3.4-5-9.1-5-2.2 0-2.4 0.6-2.4 2.4v19.4c0 4.6 0 7.5 6.3 7.8 2.8 0.1 4.6 0.2 4.6 1.8 0 1.5-1.7 1.4-2.7 1.4-2.4 0-14.7-0.4-15.2-0.4-2.1 0-12.4 0.4-14.7 0.4-1 0-2.6 0.1-2.6-1.5 0-1.5 1.9-1.6 4.5-1.7 6.2-0.5 6.2-3.2 6.2-7.8 0 0 0-45.6 0-45.6zm13.6 17c0 3.8 0 4 6.3 4 4.6 0 17.1 0 17.1-13.5 0-3.9-1.8-15.4-17.5-15.4-5.8 0-5.9 2.6-5.9 6.8z"/>
					<path id="Layer" fill-rule="evenodd" class="s0" d="m348.3 560c0-4.4 0-7.3-6.4-7.7-2.7-0.2-4.5-0.2-4.5-1.8 0-1.5 0.5-1.5 4.7-1.5 1.9 0 11.1 0.4 13.2 0.4 3 0 17.6-0.4 20.9-0.4 20.8 0 26.4 11.4 26.4 19 0 13.2-13.8 19.1-24.2 19.1-3.1 0-5.8-0.4-11.1-2-0.8-0.2-3.8-1.1-4.3-1.1-1.1 0-1.1 0.5-1.1 1.9v19.5c0 4.6 0 7.5 6.9 7.8 2.8 0.1 4.6 0.2 4.6 1.8 0 1.5-1.7 1.5-2.7 1.5-4.3 0-11.1-0.4-15.4-0.4-2.2 0-12.8 0.4-15.2 0.4-1 0-2.7 0-2.7-1.6 0-1.5 1.8-1.6 4.5-1.7 6.4-0.4 6.4-3.2 6.4-7.7 0 0 0-45.5 0-45.5zm13.6 18.6c0 1.8 0 2.3 1.5 2.8 2.1 1 5.8 1.2 8.5 1.2 6.8 0 16.4-4.4 16.4-15 0-9.5-8.3-15.9-18.5-15.9-7.3 0-7.9 3.1-7.9 8.4z"/>
					<path id="Layer" fill-rule="evenodd" class="s0" d="m480.5 617.2c-23.9 0-43.2-15.4-43.2-34.5 0-19 19.3-34.4 43.2-34.4 23.9 0 43.3 15.4 43.3 34.4 0 19.1-19.4 34.5-43.3 34.5zm28.1-34.5c0-17.4-12.6-31.6-28.1-31.6-15.5 0-28 14.2-28 31.6 0 17.5 12.5 31.7 28 31.7 15.5 0 28.1-14.2 28.1-31.7z"/>
					<path id="Layer" fill-rule="evenodd" class="s0" d="m569.9 559.9c0-4.4 0-7.4-6.2-7.7-2.7-0.1-4.5-0.2-4.5-1.7 0-1.5 0.5-1.5 4.7-1.5 1.2 0 7.4 0.4 9 0.4 3.4 0 20.2-0.4 24-0.4 22.4 0 24.3 13.1 24.3 16.9 0 12.6-13 15.2-17.3 15.9 1.6 0.9 3.1 1.5 6.1 6.1l12.2 18.5c2.6 3.8 4.3 6.4 7.9 6.9 4.2 0.4 5.2 0.5 5.2 1.9 0 1.2-1.3 1.3-2.2 1.3-1.6 0-9.9-0.4-11.8-0.4-1 0-5.7 0.4-6.8 0.4-2.3 0-2.8-1-4.2-3.2l-15.3-24.6c-2.8-4.6-3.4-5-9.1-5-2.2 0-2.4 0.6-2.4 2.4v19.4c0 4.6 0 7.5 6.3 7.8 2.8 0.1 4.6 0.2 4.6 1.8 0 1.5-1.7 1.4-2.7 1.4-2.4 0-14.7-0.4-15.2-0.4-2.1 0-12.4 0.4-14.7 0.4-1 0-2.6 0.1-2.6-1.5 0-1.5 1.9-1.6 4.5-1.7 6.2-0.5 6.2-3.2 6.2-7.8zm13.6 17.1c0 3.7 0 3.9 6.3 3.9 4.6 0 17.1 0 17.1-13.4 0-3.9-1.8-15.4-17.5-15.4-5.8 0-5.9 2.6-5.9 6.8z"/>
				</g>
				<g id="Layer">
					<path id="Layer" fill-rule="evenodd" class="s0" d="m688.3 591.4c-3.8 0-3.8 0-4.8 2.8l-4.3 11.5c0 0.4-1.2 3.3-1.2 4.6 0 2.7 3.2 2.9 6.1 3 3.3 0.1 4.8 0.4 4.8 1.7 0 1.5-1.5 1.5-4.4 1.5-1.3 0-8.7-0.4-12.4-0.4-1.4 0-8.9 0.4-10.5 0.4-0.8 0-2.4 0-2.4-1.6 0-1.4 1.8-1.6 3.8-1.8 4.2-0.4 5.3-0.5 7.7-4.2 4.1-6.7 15.2-31.9 23.5-50.5 4.7-10.5 4.7-10.6 6-10.6 1.4 0 1.8 0.7 3.7 5.2 1.2 3 2.6 6 3.6 8l19.8 41c4 8.3 5.3 10.6 10.5 11.3 2.1 0.2 3.5 0.4 3.5 1.8 0 1.4-2.1 1.4-2.9 1.4-2.1 0-12.6-0.4-14.8-0.4-7.7 0-14.3 0.4-14.7 0.4-1.2 0-2.9 0-2.9-1.5 0-1.4 2.1-1.7 4.6-1.9 3.3-0.3 4.4-0.8 4.4-2.4 0-1.1-0.6-2.7-0.9-3.1l-5.4-13c-1.4-3.2-1.8-3.2-5.2-3.2 0 0-15.2 0-15.2 0zm13.3-3.9c2.9 0 2.9-0.4 2.9-0.7 0-0.6-0.4-1.4-0.8-2.1l-8.8-18.5-7.9 18.2c-0.1 0.2-0.5 1.3-0.5 2.1 0 1 0.8 1 3.1 1z"/>
				</g>
			</g>
			<g id="Layer">
				<g id="Layer">
					<path id="Layer" class="s0" d="m805.8 605.4c0 4.4 0 7.3 6.3 7.7 2.6 0.1 4.4 0.2 4.4 1.8 0 1.6-1.6 1.6-2.6 1.6-4.2 0-10.8-0.4-15-0.4-2.1 0-12.4 0.4-14.8 0.4-1 0-2.6 0-2.6-1.6 0-1.5 1.7-1.6 4.4-1.8 6.3-0.4 6.3-3.3 6.3-7.5v-50c0-2.8-1-2.8-3.5-2.8-7.6 0-16 0-22.4 10.2-1.2 1.7-1.8 2.1-2.9 2.1-1 0-1.7-0.7-1.7-1.4 0-0.5 0.3-1.1 0.4-1.7l5.2-15.2c0.4-1.3 0.7-1.9 1.9-1.9 1 0 1.4 0.5 1.5 1.5 0.6 2.9 2.9 3 5.7 3h40.6c13.1 0 13.7-1.4 14.6-3.3 0.4-0.9 0.8-1.5 1.8-1.5 1.7 0 1.7 1.7 1.7 4.3l-0.9 13.1c-0.1 2.2-0.3 3.5-2 3.5-0.6 0-1.5-0.1-2-2.4-2.2-10.3-8.4-10.3-16.6-10.3-7.2 0-7.9 0-7.9 3.5 0 0 0 49.1 0.1 49.1z"/>
					<path id="Layer" class="s0" d="m891.7 605.4c0 4.5 0 7.4 6.3 7.8 2.8 0.1 4.6 0.2 4.6 1.8 0 1.5-1.7 1.5-2.7 1.5-2.6 0-6.8-0.4-15.2-0.4-7.2 0-13.5 0.4-14.8 0.4-1 0-2.6 0-2.6-1.6 0-1.5 1.9-1.6 4.5-1.7 6.4-0.5 6.4-3.3 6.4-7.7v-45.4c0-4.5 0-7.3-6.4-7.8-2.8-0.1-4.5-0.2-4.5-1.8 0-1.5 1.6-1.5 2.6-1.5 2.7 0 7.3 0.4 15 0.4 9.1 0 13.1-0.4 15-0.4 1 0 2.7 0 2.7 1.6 0 1.5-1.9 1.6-4.6 1.7-6.3 0.5-6.3 3.3-6.3 7.5z"/>
					<path id="Layer" fill-rule="evenodd" class="s0" d="m981.3 617.2c-23.9 0-43.3-15.4-43.3-34.5 0-19 19.4-34.4 43.3-34.4 23.9 0 43.2 15.4 43.2 34.4 0 19.1-19.3 34.5-43.2 34.5zm28-34.5c0-17.4-12.5-31.6-28-31.6-15.5 0-28.1 14.2-28.1 31.6 0 17.5 12.6 31.7 28.1 31.7 15.5 0 28-14.2 28-31.7z"/>
					<path id="Layer" class="s0" d="m1131.3 598.6l-0.5-33.1c-0.2-13.1-1.6-13.1-6.7-13.3-3.8-0.1-5.7-0.2-5.7-1.7 0-1.5 2.3-1.5 3.2-1.5 1.3 0 8.4 0.4 10.1 0.4 1.9 0 11.4-0.4 13.5-0.4 0.7 0 2.3 0 2.3 1.6 0 1.3-1.3 1.6-4.9 1.8-4.7 0.5-6.6 0.7-6.5 6.6l0.3 56.3c0 1.1 0 3.2-1.9 3.2-1 0-1.9-0.2-4.1-2.5l-53.9-57.1-0.3 0.2 0.6 37.1c0.1 15.6 1.6 16.6 7.3 17.1 5.1 0.3 5.7 0.3 5.7 1.7 0 1.5-2 1.5-3.1 1.5-1.5 0-6.3-0.4-10.2-0.4-6.5 0-12.1 0.4-14.4 0.4-0.4 0-2.2 0-2.2-1.4 0-1.3 0.5-1.4 5.8-1.9 5.6-0.7 6.1-1.1 6.1-15.7v-35.9c0-8.3-0.9-9.4-6.6-9.4-2.6-0.1-4.6-0.1-4.6-1.7 0-1.4 1.6-1.5 3.9-1.5 1.4 0 7.1 0.4 11.1 0.4 3.6 0 6.6-0.4 8.3-0.4 2.2 0 3.4 2.3 4.2 3.2l43 46.6z"/>
					<path id="Layer" fill-rule="evenodd" class="s0" d="m1239.7 592.8c0.5 0.6 0.7 0.6 0.9 0.6 0.5 0 0.7-0.3 1-0.6l4.3-4.6c1.7-1.8 3.9-5.4 3.9-6.9 0-2.2-3.1-2.5-4.8-2.6-3.6-0.2-4.7-0.5-4.7-1.7 0-1.6 2.1-1.6 4.4-1.6 3.7 0 9.4 0.4 13.1 0.4 1.4 0 8.3-0.4 10-0.4 1 0 1.9 0.3 1.9 1.4 0 1.6-4.3 1.8-5.5 1.8-5.3 0.7-11.5 7.3-12.9 8.8l-5.9 6.5c-0.3 0.2-1.8 1.5-1.8 2.4 0 0.4 0.4 0.8 1.3 1.6l6.2 5.9c2.9 2.8 10.1 8.6 13.9 9.2 4.8 0.6 5.3 0.7 5.3 1.9 0 1.6-2 1.6-3.8 1.6-3.2 0-15.4-0.4-19.1-0.4-8.9 0-8.9 0.4-10.6 0.4-0.8 0-2.8 0-2.8-1.5 0-1.1 1-1.6 3.7-1.9 0.8-0.1 2.4-0.5 2.4-1.5 0-0.8-0.6-1.4-1.6-2.5l-3-3.1c-0.4-0.5-1-0.9-1.4-0.9-0.5 0-0.9 0.3-1 0.4-7.5 5.7-15.3 11.7-28.5 11.7-16.3 0-22.4-10-22.4-17.3 0-6.3 2.9-13.2 21.4-20.8 0.5-0.1 1.6-0.5 1.6-1.1 0-0.7-1-1.7-1.5-2.2-3.4-3.5-6.4-8.1-6.4-12.6 0-8.2 9.6-14.9 23-14.9 14.4 0 20.4 7.3 20.4 13.3 0 4.6-1.9 8.6-14.8 12.3-1.2 0.3-3.9 1-3.9 1.8 0 0.2 0.3 0.6 0.5 0.9zm-32.2-10.9c-1.2-1.1-1.5-1.4-2.4-1.4-1.4 0-12.1 5.5-12.1 15.1 0 6.3 5.7 14.7 17.7 14.7 10.5 0 17.6-7.3 17.6-8 0-0.3-0.5-0.8-0.8-1.2zm22-19.8c0-5.9-4.4-11.1-11-11.1-5.7 0-9.3 4-9.3 8 0 6 9.5 14.3 10.3 14.3 3.6 0 10-4.7 10-11.2z"/>
					<path id="Layer" fill-rule="evenodd" class="s0" d="m1311.6 560c0-4.4 0-7.3-6.5-7.7-2.7-0.2-4.4-0.2-4.4-1.8 0-1.5 0.5-1.5 4.6-1.5 1.9 0 11.2 0.4 13.2 0.4 3.1 0 17.6-0.4 20.9-0.4 20.9 0 26.5 11.4 26.5 19 0 13.2-13.8 19.1-24.2 19.1-3.2 0-5.8-0.4-11.1-2-0.8-0.2-3.9-1.1-4.4-1.1-1.1 0-1.1 0.5-1.1 1.9v19.5c0 4.6 0 7.5 7 7.8 2.8 0.1 4.5 0.2 4.5 1.8 0 1.5-1.6 1.5-2.6 1.5-4.3 0-11.2-0.4-15.5-0.4-2.1 0-12.8 0.4-15.2 0.4-1 0-2.6 0-2.6-1.6 0-1.5 1.8-1.6 4.4-1.7 6.5-0.4 6.5-3.2 6.5-7.7 0 0 0-45.5 0-45.5zm13.5 18.6c0 1.8 0 2.3 1.5 2.8 2.2 1 5.8 1.2 8.5 1.2 6.8 0 16.5-4.4 16.5-15 0-9.5-8.4-15.9-18.5-15.9-7.4 0-8 3.1-8 8.4z"/>
				</g>
				<g id="Layer">
					<path id="Layer" class="s0" d="m1410 560c0-4.4 0-7.3-6.4-7.7-2.7-0.1-4.4-0.2-4.4-1.8 0-1.5 1.6-1.5 2.6-1.5 2.2 0 8.9 0.4 15.5 0.4 7.9 0 12.4-0.4 14.8-0.4 1 0 2.6 0 2.6 1.5 0 1.6-1.9 1.7-4.4 1.8-6.5 0.4-6.7 3.3-6.7 7.3v43c0 6.8 2.3 10.5 10.1 10.5 6.1 0 15.1-1.1 21.9-11.9 0.5-0.8 1-1.3 1.8-1.3 1.2 0 1.6 0.9 1.6 1.7 0 0.9-1.6 10.5-1.7 12.3-0.3 2.1-0.9 2.6-3.2 2.6-1.1 0-1-0.4-29.7-0.4-21.4 0-21.4 0.4-22.7 0.4-0.9 0-2.5 0-2.5-1.5 0-1.5 1.9-1.6 4.4-1.8 6.5-0.4 6.5-3.3 6.5-7.8 0 0 0-45.4-0.1-45.4z"/>
				</g>
			</g>
			<g id="Layer">
				<g id="Layer">
					<path id="Layer" class="s0" d="m1564.6 562.1c0 1.1 0 1.8-1.5 1.8-0.9 0-1.7-0.2-3.1-1.9-4.5-5.8-9.2-10.9-20.8-10.9-20.8 0-30.4 17.3-30.4 31.1 0 15 10.4 32.3 29.5 32.3 11.6 0 17.2-6.1 22.5-14.4 0.3-0.4 1.3-2 2.5-2 1.9 0 1.9 1 1.9 1.7l-1 9.2c-0.1 1.5-0.4 2.4-3 3.7-2 1.1-10.5 4.4-23.3 4.4-32 0-46.1-20.8-46.1-34.5 0-15 15.2-34.3 48.2-34.3 5.9 0 8 0.3 16.6 1.5 5.7 0.9 6.3 1.9 6.9 4.8z"/>
				</g>
			</g>
		</g>
		<g id="Layer">
			<path id="Layer" class="s0" d="m620.5 61.2l29.4-10-28.8-51z"/>
			<g id="Layer">
				<path id="Layer" fill-rule="evenodd" class="s0" d="m639.2 85.3c-9.1 0-16.4-7.6-16.4-17.1 0-9.5 7.3-17.2 16.4-17.2 9 0 16.3 7.7 16.3 17.2 0 9.5-7.3 17.1-16.3 17.1z"/>
			</g>
			<path id="Layer" class="s1" d="m643.8 82.8l69 209.7"/>
			<path id="Layer" fill-rule="evenodd" class="s0" d="m639.2 85.3c-9.1 0-16.4-7.6-16.4-17.1 0-9.5 7.3-17.2 16.4-17.2 9 0 16.3 7.7 16.3 17.2 0 9.5-7.3 17.1-16.3 17.1z"/>
			<path id="Layer" fill-rule="evenodd" class="s2" d="m645.8 55c-0.3 0 6.9 5.3 6.2 12.8-0.6 8-7.8 11.1-7.8 11.1 0 0 4.2-13.5 1.1-16.7 3.1-2.2 0.7-7.2 0.5-7.2z"/>
			<path id="Layer" fill-rule="evenodd" class="s3" d="m659.3 78.6c8.3-5.5 12.2-8.9 24.5-15 12.3-6.1 23.2-8.3 34.6-11 5.5-1.5 22.2-2.8 23.5 1.5 2.5 5.8-3.7 6.8-1.5 13.1 2.1 6.4 70.2-9.4 93.1-6.4 27.8 0.6 73.1 9.8 73.1 9.8-3.8 5.6-5 46.9 4.5 81.7 8 41.6 32.7 80.7 32.7 80.7 0 1.2-32-8.3-58.9-7.4-26.9 1.1-43.2 18.4-78.3 18.5-35-0.1-40.6-12.7-54.7-15.4-14-2.7-39.1 4.1-39.1 4.1-0.6 0.2-8.2-44.5-14.1-67.4-10.3-42.8-39.4-86.8-39.4-86.8z"/>
			<path id="Layer" fill-rule="evenodd" class="s4" d="m792.8 84.7c34.6-1.8 64.7 25.9 67.1 61.7 2.4 35.7-23.8 66.4-58.4 68.2-34.5 1.8-64.7-25.9-67.1-61.6-2.4-35.8 23.8-66.5 58.4-68.3z"/>
			<path id="Layer" fill-rule="evenodd" class="s5" d="m798.3 206.9c-24.5 0-44.2-25.5-44.2-57.1 0-31.6 19.7-57.1 44.2-57.1 24.4 0 44.2 25.5 44.2 57.1 0 31.6-19.8 57.1-44.2 57.1z"/>
			<path id="Layer" class="s1" d="m643.8 82.8l69 209.7"/>
			<path id="Layer" fill-rule="evenodd" class="s2" d="m645.8 55c-0.3 0 6.9 5.3 6.2 12.8-0.6 8-7.8 11.1-7.8 11.1 0 0 4.2-13.5 1.1-16.7 3.1-2.2 0.7-7.2 0.5-7.2z"/>
			<path id="Layer" fill-rule="evenodd" class="s4" d="m792.8 84.7c34.6-1.8 64.7 25.9 67.1 61.7 2.4 35.7-23.8 66.4-58.4 68.2-34.5 1.8-64.7-25.9-67.1-61.6-2.4-35.8 23.8-66.5 58.4-68.3z"/>
			<path id="Layer" fill-rule="evenodd" class="s6" d="m798.3 206.9c-24.5 0-44.2-25.5-44.2-57.1 0-31.6 19.7-57.1 44.2-57.1 24.4 0 44.2 25.5 44.2 57.1 0 31.6-19.8 57.1-44.2 57.1z"/>
			<path id="Layer" class="s4" d="m634.5 52.2l-9.3-40.1 19.1 36.6z"/>
		</g>
	</g>
</svg>