<svg version="1.2" xmlns="http://www.w3.org/2000/svg" viewBox="0 0 1509 602" width="1509" height="602">
	<title>Carrier-March-2020-Investor-Meetings-v2_tcm26-76291-1-pdf-svg</title>
	<defs>
		<clipPath clipPathUnits="userSpaceOnUse" id="cp1">
			<path d="m-265.17-262.49h7071.22v3977.56h-7071.22z"/>
		</clipPath>
		<clipPath clipPathUnits="userSpaceOnUse" id="cp2">
			<path d="m-219.21-218.29h1948.6v1045.18h-1948.6z"/>
		</clipPath>
	</defs>
	<style>
		.s0 { fill: #152c73 } 
		.s1 { fill: #ffffff } 
	</style>
	<g id="Clip-Path: Page 1" clip-path="url(#cp1)">
		<g id="Page 1">
			<g id="Clip-Path: Mask" clip-path="url(#cp2)">
				<g id="Mask">
					<ellipse id="Path 5" class="s0" cx="754.6" cy="301" rx="754.3" ry="300.9"/>
					<path id="Path 6" fill-rule="evenodd" class="s1" d="m754.8 567.6c-404 0-730.5-119.1-730.5-266.6 0-147.5 326.5-266.6 730.5-266.6 404 0 730.5 119.1 730.5 266.6 0 147.5-326.5 266.6-730.5 266.6zm720.9-267c0-137.9-322.1-249.3-720.7-249.3-398.6 0-720.7 111.4-720.7 249.3 0 137.9 322.1 249.4 720.7 249.4 398.6 0 720.7-111.5 720.7-249.4zm-487.6-107.5c0 14.4-12.1 28.3-26.1 28.3-8.1 0-14-5.1-14-15.4 0-14.8 11.8-28.7 25.8-28.7 8.4 0 14.3 5.1 14.3 15.8zm-48.6 43.4h33.5l-40.5 112.7c-0.4 1.9-2.2 7.8-2.2 12.6 0 3.7 1.5 5.1 4.1 5.1 8.8 0 24.6-14.3 34.2-27.2h8.8c-15.1 25-41.6 50.8-65.5 50.8-11.8 0-19.2-7-19.2-18.1 0-6.6 1.9-16.9 7.8-32.7zm-515.3-49.4c-4.8-1.8-12.1-2.9-19.1-2.9-67 0-125.6 64.8-125.6 130.7 0 47.9 29.8 60.8 53.8 60.8 28.3 0 48.2-11.1 66.6-28h10.3c-14 19.5-44.5 44.2-88 44.2-59.6 0-82.8-36.1-82.8-77.4 0-77.3 82.4-142.8 169-142.8 33.9 0 52.7 12.1 52.7 29.4 0 11.1-8.1 20.3-21.8 20.3-11 0-19.5-6.7-19.5-18.4 0-4.5 1.9-11.1 4.4-15.9zm225.8 198.9h-33.9c0 0 28.4-79.9 36.8-107.5 1.5-5.2 2.6-10.7 2.6-13.7 0-1.8-1.1-3.7-3.7-3.7-3.6 0-11.7 3.7-27.6 26.2h-8.8c18.4-30.6 41.6-51.2 57.8-51.2 10.7 0 14.7 5.9 14.7 15.5 0 6.2-2.5 18.8-9.5 43.8 30.2-54.5 48.9-61.9 61.1-61.5 12.5 0 19.5 8.8 19.5 19.1 0 11.1-8.5 24-21.3 24-8.9 0-14.8-6.6-14.8-17.7v-3.3c-8.5 4.8-30.5 24.3-57.4 89.1zm469.5-43.4h8.9c-14.4 21.7-46.4 47.5-79.2 47.5-34.3 0-54.9-17.7-54.9-51.6 0-47.5 41.3-104.6 101.7-104.6 26.9 0 43.4 14 43.4 34.3 0 28.3-32.4 54.1-105.7 57-1.1 4.1-1.8 12.6-1.8 17.7 0 15.9 8.8 29.5 28 29.5 25.8 0 47.1-17.3 59.6-29.8zm-83.2-28c52.3-1.1 71.5-37.2 71.5-52.7 0-9.9-4.5-18.8-15.5-18.8-26.9 0-51.2 40.9-56 71.5zm-439.4 24.6c-8.1 12.6-32.7 49.4-60.7 49.4-12.6 0-19.2-9.6-19.2-22.1 0-4.8 1.1-10.3 1.5-14h-1.1c-13.3 20.6-32.1 37.6-52.7 37.6-20.6 0-35.7-14.4-35.7-39.4 0-58.2 64.8-114.9 104.6-114.9 9.9 0 18 3.3 24.3 12.8l4-12.5h34.3l-40.5 115.7c0 0-1.5 4.8-1.5 8.8 0 3 1.5 4.4 4.1 4.4 9.2 0 23.2-16.5 29.1-25.8zm-46.8-76.6c0-9.2-5.2-16.9-14-16.9-25.4 0-71.5 59.3-71.5 101.6 0 12.6 5.9 20.7 16.2 20.7 14.4 0 35-26.2 44.2-42.8 10.7-21.3 21.8-47.8 21.8-47.8 1.8-5.6 3.3-10 3.3-14.8zm641.5 123.4h-33.8c0 0 28.3-80.3 36.8-107.9 1.5-5.1 2.6-10.7 2.6-13.3 0-2.2-1.1-4-3.7-4-3.7 0-12.2 4-27.6 26.1h-8.9c18.4-30.5 41.6-51.1 57.9-51.1 10.3 0 14.7 5.8 14.7 15.4 0 6.3-2.6 18.8-10 44.2 30.2-54.5 49.4-62.2 61.5-61.5 12.6 0 19.6 8.5 19.6 19.2 0 10.6-8.5 23.9-21.4 23.9-8.8 0-14.7-7-14.7-17.7v-3.7c-8.5 4.8-30.6 24.3-57.5 89.2zm-394.4 0h-33.5c0 0 28-80 36.8-107.9 1.1-5.2 2.2-10.7 2.2-13.3 0-1.8-1.1-4.1-3.3-4.1-3.7 0-12.2 4.1-27.6 26.2h-8.9c18.4-30.6 41.6-51.2 57.5-51.2 10.7 0 15.1 5.9 15.1 15.8 0 6.3-3.3 18.8-10 43.9 29.9-54.5 49.4-61.9 61.5-61.5 12.6 0 19.6 8.4 19.6 19.1 0 11.1-8.9 24-21.8 24-8.4 0-14.7-6.7-14.7-17.7v-3.7c-8.5 4.8-30.6 24.3-57.1 89.1z"/>
				</g>
			</g>
		</g>
	</g>
</svg>