<svg version="1.2" xmlns="http://www.w3.org/2000/svg" viewBox="0 0 1537 329" width="1537" height="329">
	<title>sdsdfsdf-1-pdf-svg</title>
	<defs>
		<clipPath clipPathUnits="userSpaceOnUse" id="cp1">
			<path d="m-443-910h5333v6946h-5333z"/>
		</clipPath>
	</defs>
	<style>
		.s0 { fill: #094d8c } 
	</style>
	<g id="Clip-Path: Page 1" clip-path="url(#cp1)">
		<g id="Page 1">
			<path id="Path 8" fill-rule="evenodd" class="s0" d="m151.6 328.5c-91.6 0-150.7-64.1-150.7-163.6 0-100 60-164.6 151.7-164.6 38.7 0 67.5 9.8 92.5 26.6l-6.6 44.9c-23.6-17.7-51.5-31.3-86.4-31.3-66.1 0-105.4 46.4-105.4 123.9 0 77.6 39.7 123.4 105.4 123.4 34.9 0 65.6-13.5 91.6-32.2l6.6 41.6c-25 18.2-61.4 31.3-98.7 31.3zm266.6-6l-4.7-30c-17.9 18.3-42.5 34.6-79.3 34.6-40.7 0-66.2-24.3-66.2-62.2 0-55.6 48.2-77.5 142.2-87.3v-9.4c0-28-17-37.8-43-37.8-27.4 0-53.3 8.4-77.9 19.1l-5.7-36c26.9-10.7 52.5-18.6 87.4-18.6 54.8 0 81.3 21.9 81.3 71.5v156.1zm-8.1-113.2c-83.1 8-100.6 30.4-100.6 53.3 0 18.2 12.3 29.9 33.5 29.9 24.6 0 48.2-12.1 67.1-31.3zm156.2 116.8c-39.7 0-65.7-14-65.7-58.8v-132.8h-34v-35h34v-71.6l41.2-6.1v77.7h48.6v35h-48.6v125.3c0 18.2 7.5 29.4 31.1 29.4 7.6 0 14.2-0.5 19.4-1.4l5.7 35.5c-7.1 1.4-17.1 2.8-31.7 2.8zm267.4-3.7v-294l42.1-6.6v300.6zm270.2-107h-153.1c1.5 51.9 26.5 76.1 65.7 76.1 32.6 0 56.2-12.6 80.8-31.7l6.1 37.4c-24.1 18.6-52.9 29.9-90.2 29.9-58.6 0-104.4-35.1-104.4-116.8 0-71.5 42.5-115.5 99.2-115.5 65.7 0 95.9 50 95.9 111.7zm-96.4-87.9c-26 0-48.2 18.2-54.8 56.6h108.7c-5.2-36-21.3-56.6-53.9-56.6zm272.1 194.9v-151.9c0-22.9-10-38.3-34.6-38.3-22.2 0-44.8 14.5-65.2 35.9v154.3h-42v-223h33.6l5.1 32.3c21.3-19.1 47.8-36.9 79.9-36.9 42.5 0 65.2 25.2 65.2 65.4v162.2z"/>
			<path id="Path 9" fill-rule="evenodd" class="s0" d="m758.6 322.5l-4.7-30c-18 18.3-42.6 34.6-79.4 34.6-40.6 0-66.1-24.3-66.1-62.2 0-55.6 48.1-77.5 142.2-87.3v-9.4c0-28-17.1-37.8-43-37.8-27.4 0-53.4 8.4-78 19.1l-5.7-36c27-10.7 52.5-18.6 87.4-18.6 54.8 0 81.3 21.9 81.3 71.5v156.1m-42-113.2c-83.2 8-100.7 30.4-100.7 53.3 0 18.2 12.3 29.9 33.6 29.9 24.5 0 48.2-12.1 67.1-31.3zm685.5 116.8c-39.7 0-65.7-14-65.7-58.8v-132.8h-34v-35h34v-71.6l41.1-6.1v77.7h48.7v35h-48.7v125.3c0 18.2 7.6 29.4 31.2 29.4 7.6 0 14.1-0.5 19.4-1.4l5.6 35.5c-7.1 1.4-17 2.8-31.6 2.8zm76.7 0.1c-13.1 0-23.7-10.8-23.7-24.1 0-13.3 10.6-24 23.7-24 13.2 0 23.8 10.7 23.8 24 0 13.3-10.6 24.1-23.8 24.1zm21.1-24.1c0-12-9.4-21.6-21-21.6-11.6 0-21 9.6-21 21.6 0 12 9.4 21.7 21 21.7 11.6 0 21-9.7 21-21.7zm-14 12.8l-8-11.4h-2.9v11.1h-3.9v-26.7h7.4c5.6 0 9.2 2.9 9.2 7.8 0 3.9-2.4 6.4-5.6 7.3l7.9 11zm-7.6-23.5h-3.4v9h3.3c3.5 0 5.7-1.5 5.7-4.5 0-2.9-2-4.5-5.6-4.5z"/>
		</g>
	</g>
</svg>