<svg version="1.2" xmlns="http://www.w3.org/2000/svg" viewBox="0 0 1530 527" width="1530" height="527">
	<title>cboe_logo-svg</title>
	<style>
		.s0 { fill: #002051 } 
		.s1 { fill: #00a82d } 
	</style>
	<path id="Layer" fill-rule="evenodd" class="s0" d="m866.1 350.6c0 51.9-15.8 96-45.1 127.5-28.9 30.4-69.2 46.7-116.4 47.2h-1.1c-41.4 0-77.1-11-104.3-33l-4.2 26.7h-56.1v-470.7h64.5v159c27.2-20.4 60.8-31.5 99.6-31.5h7.9c94.9 3.7 155.7 71.4 155.2 174.8zm-70.3-0.5c0-70.9-32.5-116-85.5-119.2h-5.7c-57.2 0-92.3 45.7-92.3 119.7 0 74 34.6 119.6 91.2 119.6h2.6c55.1-1.5 89.2-47.2 89.7-120.1zm414.8 1.5c0 52-15.8 96.1-45.1 127.5-29.4 31-70.3 47.3-118 47.3-111.7 0-163.6-68.8-163.6-175.3 0-51.9 15.7-96 45.1-127.5 29.4-31.5 70.2-47.8 118-47.8 99.1 0 163.6 68.8 163.6 175.8zm-71.4-1c0-74-34.6-119.7-91.2-119.7-57.1 0-92.3 45.7-92.3 119.7 0 74 34.6 119.6 91.3 119.6 56.6 0 92.2-45.6 92.2-119.6zm255.9 119.6c61.9 0 98.1-34.1 101.2-37.8l27.8 45.7c0 0-44.6 47.2-137.4 47.2-92.8 0-158.8-64-158.8-173.7 0-110.7 69.2-175.2 158.8-175.2 90.2 0 143.2 67.7 143.2 163.7l-0.5 26.8h-232.3c0.5 67.6 35.1 103.3 98 103.3zm-10.5-242.4c-58.7 0-84.4 48.3-87.5 89.2h168.3c0-45.7-22.6-89.2-80.8-89.2z"/>
	<path id="Layer" class="s1" d="m416.2 206.8l-42-42 18.4-18.9 23.6-23.6 42.5 42.5zm0-122.2l-42-42 24.1-24.2 17.9-18.3 42.4 42.5zm61.4 61.4l-42.5-42.5 23.6-23.1 18.9-18.9 41.9 42z"/>
	<path id="Layer" class="s0" d="m230 460.8c-94.3 0-155.7-76.1-155.7-187.4 0-111.2 64.5-187.3 157.8-187.3 68.7 0 99.1 34.6 122.7 59.8l42-42.5c-22-23.1-66.6-79.2-166.8-79.2-123.2 0-229.1 92.9-229.1 249.8 0 157.4 94.9 250.8 226 250.8 97.5 0 150.5-51.4 170.9-78.2l-43.5-43.5c-18.9 22-59.8 57.7-124.3 57.7z"/>
</svg>