<svg version="1.2" xmlns="http://www.w3.org/2000/svg" viewBox="0 0 1538 1421" width="1538" height="1421">
	<title>CDW_logo-svg</title>
	<style>
		.s0 { fill: #cc0000 } 
	</style>
	<g id="layer1">
		<g id="g2235">
			<path id="path2129" fill-rule="evenodd" class="s0" d="m1474.1 34.6c0-16.8 13.7-32.1 32-32.1 18.2 0 31.9 13.7 31.9 32.1 0 16.8-13.7 32.1-31.9 32.1-18.3 0-32-15.3-32-32.1zm59.3-1.5c0-15.3-12.1-27.6-27.3-27.6-15.3 0-27.4 12.3-27.4 27.6 0 15.3 12.1 27.5 27.4 27.5 15.2 0 27.3-12.2 27.3-27.5zm-33.4 3v15.3h-6.1v-38.2h12.2c6 0 13.6 1.5 13.6 10.7 0 4.6-3 7.6-7.6 9.2 4.6 1.5 6.1 3 6.1 7.6 1.5 3.1 1.5 7.7 3.1 10.7h-7.7c0-1.5-1.5-4.6-1.5-6.1 0-3.1 0-6.1-1.5-7.6-1.5-1.6-4.5-1.6-6.1-1.6zm6.1-6.1c6.1-1.5 7.6-3 7.6-6.1 0-3.1-1.5-4.6-6.1-4.6h-7.6v10.7z"/>
			<path id="path2131" fill-rule="evenodd" class="s0" d="m1414.8 0.9v195.8c-168.7-59.6-454.5-30.5-741.9 90.3-48.6 19.9-97.3 44.4-142.9 68.8-7.6-1.5-15.2-1.5-22.8-1.5h-165.7l-30.4 145.3c-27.4 21.5-51.7 44.4-74.5 67.3h-91.2c-18.3 47.5-31.9 58.2-50.2 58.2-35 0-28.9-39.8-18.2-93.3 12.1-56.6 22.8-93.4 59.3-93.4 16.7 0 28.8 7.7 21.2 65.8h127.7c22.9-120.8-44-157.5-133.7-157.5-60.9 0-112.5 19.9-150.6 53.5v-399.3zm-1140.2 567.6h-19.7c15.2-16.9 30.4-30.6 48.6-45.9l-39.5 186.6h174.8c108 0 191.6-65.8 214.4-172.8 19.7-91.8 0-162.2-100.4-177.5 30.4-15.3 60.8-29.1 92.8-42.8 346.6-146.9 662.8-130.1 741.9 24.4 57.8 114.8-21.3 269.3-225 407-68.4 45.8-147.5 88.7-235.7 125.4-348.1 146.8-710 149.9-787.5-4.6-22.8-45.9-13.7-104 16.7-163.7 54.8-19.9 100.4-62.7 118.6-136.1zm409-212.7l1.5 354.9h149l82.1-230.9h1.5l-15.2 230.9h152l150.5-354.9h-124.6l-77.6 223.4h-1.5l13.7-223.4h-144.4l-79.1 223.4 16.7-223.4zm594.5 417.7c51.7-33.7 95.8-68.9 133.8-105.6v752.6h-1410.9v-711.3c19.8 6.1 44.1 10.7 71.5 10.7 18.2 0 38-3 57.7-6.1-30.4 68.8-33.4 133.1-4.5 188.2 89.7 174.3 485 185 880.2 18.3 97.3-41.3 194.6-94.8 272.2-146.8zm-798.2-166.8c-10.6 15.3-25.8 23-48.6 23h-13.7l41-194.3h13.7c22.8 0 33.5 9.2 39.6 22.9 6 15.3 4.5 39.8-3.1 75-7.6 35.2-15.2 59.6-28.9 73.4z"/>
		</g>
	</g>
</svg>