<svg version="1.2" xmlns="http://www.w3.org/2000/svg" viewBox="0 0 1536 298" width="1536" height="298">
	<title>Logo_Celanese-svg</title>
	<defs>
		<clipPath clipPathUnits="userSpaceOnUse" id="cp1">
			<path d="m-44.02-72.58h1639.95v403.51h-1639.95z"/>
		</clipPath>
		<radialGradient id="g1" cx="113.6" cy="108.1" r="189.2" gradientUnits="userSpaceOnUse">
			<stop offset="0" stop-color="#fce1ce"/>
			<stop offset=".7" stop-color="#e75113"/>
			<stop offset="1" stop-color="#e75113"/>
		</radialGradient>
	</defs>
	<style>
		.s0 { fill: #000000 } 
		.s1 { fill: url(#g1) } 
	</style>
	<g id="g2413">
		<g id="g11">
			<g id="g3060">
				<g id="g177">
					<g id="Clip-Path: g179" clip-path="url(#cp1)">
						<g id="g179">
							<g id="g211">
								<path id="path187" fill-rule="evenodd" class="s0" d="m552.7 248.6c-8.4 4.2-26.9 8.8-50.5 8.8-61.7 0-99.3-38.8-99.3-98 0-63.9 44.7-102.5 104.1-102.5 23.5 0 40 4.7 47.2 8.6l-7.7 28.3c-9.1-4.1-22.1-7.6-38-7.6-39.7 0-68.2 24.7-68.2 71.5 0 42.8 25 69.9 67.8 69.9 14.3 0 29.3-2.8 38.7-7zm52.4-54.7c1 25.5 20.7 36.6 43.5 36.6 16.3 0 28-2.6 38.8-6.5l5.2 24.5c-12 5-28.7 8.9-49.1 8.9-45.7 0-72.4-28.2-72.4-71.3 0-38.7 23.5-75.4 68.8-75.4 45.7 0 60.5 37.5 60.5 68.3 0 6.6-0.5 11.9-1.2 14.9zm61.8-24.7c0.2-13-5.5-34.2-29.3-34.2-21.9 0-31 19.8-32.6 34.2zm67.9-119.7h35.5v204.8h-35.5zm188.9 171c0 12.8 0.6 25.2 2.1 33.8h-32l-2.5-15.6h-0.8c-8.5 11.1-23.2 18.8-41.4 18.8-28.6 0-44.3-20.4-44.3-41.8 0-35.4 31.5-53.3 83.3-53.1v-2.3c0-9.3-3.6-24.6-28.5-24.5-13.8 0-28.2 4.4-37.8 10.4l-7-23c10.6-6.5 28.8-12.5 50.9-12.5 45.1 0 58 28.4 58 59.2zm-34.6-34.9c-25.1-0.3-49.1 5-49.1 26.3 0 13.8 9.1 20.3 20.3 20.3 14.2 0 24.4-9.2 27.8-19.5 0.8-2.4 1-5.2 1-7.7zm76.5-29.9c0-16.2-0.5-29.6-1.2-41.7h31.1l1.7 21h0.9c6.2-10.9 21.4-24.2 44.7-24.2 24.6 0 50 15.7 50 60.2v83.4h-35.5v-79.2c0-20.2-7.5-35.6-26.9-35.6-14.1 0-23.9 10-27.6 20.9-1.1 2.9-1.6 7.2-1.6 11.2v82.7h-35.6zm193.2 38.2c1 25.5 20.7 36.6 43.4 36.6 16.4 0 28.1-2.5 38.8-6.5l5.3 24.5c-12.1 5.1-28.8 8.9-49.1 8.9-45.7 0-72.4-28.2-72.4-71.2 0-38.8 23.5-75.5 68.7-75.5 45.7 0 60.6 37.6 60.6 68.3 0 6.7-0.6 11.9-1.2 14.9zm61.8-24.7c0.1-13-5.5-34.2-29.3-34.2-21.9 0-31 19.8-32.6 34.2zm67.5 52.5c7.9 4.8 23.2 10.2 35.9 10.2 15.6 0 22.7-6.5 22.7-15.7 0-9.5-5.9-14.4-23.2-20.5-27.5-9.4-38.9-24.4-38.8-41 0-24.7 20.5-44 53.3-44 15.5 0 29.1 3.9 37.3 8.4l-7 25c-5.9-3.4-17.3-8.1-29.8-8.1-12.6 0-19.7 6.2-19.7 14.8 0 9 6.9 13.3 24.6 19.7 25.6 9.1 37.4 22.1 37.5 42.8 0 25.6-20 44.1-57.1 44.1-17 0-32.5-4.1-42.8-9.9zm152.1-27.7c1 25.4 20.7 36.6 43.4 36.6 16.4 0 28.1-2.6 38.8-6.5l5.3 24.4c-12 5.1-28.8 8.9-49.1 8.9-45.7 0-72.4-28.2-72.4-71.2 0-38.7 23.5-75.4 68.7-75.4 45.7 0 60.6 37.5 60.6 68.3 0 6.6-0.6 11.9-1.2 14.9zm61.8-24.8c0.1-13-5.5-34.2-29.3-34.2-21.9 0-31 19.9-32.6 34.2z"/>
							</g>
						</g>
					</g>
				</g>
				<g id="g215">
					<g id="g217">
						<g id="g223">
							<g id="g225">
								<path id="path235" class="s1" d="m0.6 148.7c0 9 0.8 17.8 2.3 26.4 41.4-104.2 170.8-137 232.9-147-24.4-17.5-54.3-27.8-86.6-27.8-82.1 0-148.6 66.4-148.6 148.4zm265.5-91.6c-44.6 5.5-152.9 37.4-173.5 98.3-14.4 42.8 21.3 56.4 82.4 39.4 24.6-6.9 49.4-16.9 68.9-28.2v49.8c-1.5 1.3-33.2 23.5-86.2 37.5-36.7 9.6-74.1 13-103.8 8.7 25.8 21.5 59 34.5 95.3 34.5 82.1 0 148.6-66.4 148.6-148.4 0-34.6-11.8-66.4-31.7-91.6z"/>
							</g>
						</g>
					</g>
				</g>
			</g>
		</g>
	</g>
</svg>