<svg version="1.2" xmlns="http://www.w3.org/2000/svg" viewBox="0 0 1596 387" width="1596" height="387">
	<title>centene_logo_white-svg</title>
	<style>
		.s0 { fill: #225388 } 
		.s1 { fill: #9e9b98 } 
	</style>
	<g id="Layer">
		<path id="Layer" fill-rule="evenodd" class="s0" d="m1415.8 48.9v-30.2h13.4q0.8-0.1 1.6 0 0.8 0 1.5 0.1 0.8 0.1 1.6 0.3 0.7 0.1 1.5 0.4 0.5 0.2 1 0.5 0.4 0.3 0.9 0.6 0.4 0.4 0.8 0.8 0.3 0.4 0.6 0.9 0.3 0.6 0.6 1.1 0.2 0.6 0.4 1.2 0.1 0.6 0.2 1.2 0.1 0.6 0.1 1.2 0 0.8-0.1 1.5-0.2 0.7-0.4 1.4-0.3 0.7-0.7 1.3-0.4 0.7-0.9 1.2-0.7 0.6-1.4 1.1-0.8 0.5-1.6 0.9-0.8 0.3-1.7 0.6-0.8 0.2-1.7 0.2 0.3 0.2 0.6 0.3 0.3 0.2 0.6 0.4 0.3 0.2 0.6 0.4 0.3 0.2 0.6 0.4 0.5 0.5 0.9 1 0.5 0.4 0.9 0.9 0.4 0.5 0.8 1.1 0.4 0.5 0.7 1.1l5.2 8h-4.8l-4.1-6.3q-1.7-2.7-2.9-4-0.2-0.3-0.4-0.6-0.2-0.2-0.5-0.5-0.2-0.2-0.5-0.5-0.3-0.2-0.6-0.4-0.2-0.2-0.4-0.3-0.2-0.1-0.5-0.2-0.2-0.1-0.4-0.2-0.3-0.1-0.5-0.1-0.3 0-0.5-0.1-0.3 0-0.6 0-0.3 0-0.6 0-0.2 0.1-0.5 0.1h-4.8v13.4h-4zm4-16.9h8.6q0.6 0 1.1 0 0.5 0 1.1-0.1 0.5-0.1 1-0.2 0.6-0.1 1.1-0.3 0.3-0.1 0.7-0.3 0.3-0.1 0.6-0.4 0.3-0.2 0.6-0.5 0.2-0.3 0.4-0.6 0.2-0.3 0.4-0.6 0.1-0.3 0.2-0.7 0.1-0.3 0.2-0.7 0-0.3 0-0.7 0-0.5 0-1-0.1-0.4-0.3-0.9-0.2-0.4-0.5-0.8-0.3-0.4-0.7-0.8-0.5-0.4-1.1-0.6-0.6-0.3-1.2-0.5-0.6-0.2-1.2-0.3-0.7 0-1.3 0h-9.7c0 0 0 10 0 10z"/>
		<path id="Layer" fill-rule="evenodd" class="s0" d="m1427.7 59.3c-10 0-19.1-6.1-23-15.4-3.8-9.3-1.7-20 5.4-27.2 7.1-7.1 17.9-9.2 27.2-5.4 9.3 3.9 15.3 13 15.3 23 0 3.3-0.6 6.6-1.9 9.6-1.2 3-3.1 5.7-5.4 8.1-2.3 2.3-5 4.1-8 5.4-3.1 1.2-6.3 1.9-9.6 1.9zm0-45.7c-8.4 0-15.9 5-19.1 12.8-3.3 7.8-1.5 16.7 4.5 22.6 5.9 6 14.8 7.7 22.6 4.5 7.7-3.2 12.8-10.8 12.8-19.2 0-2.7-0.6-5.4-1.6-7.9-1.1-2.5-2.6-4.8-4.5-6.7-1.9-1.9-4.2-3.4-6.7-4.5-2.6-1-5.2-1.6-8-1.6z"/>
		<path id="Layer" fill-rule="evenodd" class="s0" d="m230.7 11.7h170v48h-103v33.8h87.4v48h-87.4v35.1h103v50h-170zm245.9 101v113.8h-63.2v-215.2h63.2l72.7 114.4v-114.4h65.3v215.2h-71.7zm592.2 0v113.9h-63.2v-215.3h63.2l72.7 114.4v-114.4h65.3v215.3h-71.8zm-244.1-101.1h170v48.1h-102.9v33.7h87.4v48.1h-87.4v35.1h102.9v49.9h-170zm-605.7 82.5h-68.2c-2.1-22.8-16.3-40.6-38.8-40.6-25.1 0-40.3 21.6-40.3 63.8 0 30.7 6.8 59.5 43.1 59.5 23.1 0 34-16 36.8-37h68.8c-6.3 56.4-46.7 90.3-104.4 90.3-72.3 0-115.8-44.6-115.8-115.4 0-70.8 47.8-114.8 108.8-114.8 66.9 0 104.2 37.9 110 94.1zm596.5-28.7h-60.1v156.5h-0.5c-4.7-0.2-9.4 0.2-14 1.1-4.7 0.8-9.2 2.2-13.5 4.1-4.3 1.8-8.4 4.2-12.3 6.9-3.8 2.8-7.3 6-10.4 9.5q-3.7 3.9-6.8 8.2-3.1 4.4-5.6 9.1-2.5 4.7-4.2 9.8-1.8 5-2.9 10.3v-215.5h-60.4v-54.3h190.8zm-60.2 165.8h0.3v49.7h-55.8c5.1-28.4 26.7-49.9 52.4-49.9 1 0 2 0.1 3.1 0.2zm633.1-4.8h-170v-214.9h170v48.1h-102.9v33.8h87.4v48h-87.4v35.1h102.9c0 0 0 46.4 0 49.9z"/>
	</g>
	<g id="Layer">
		<path id="Layer" fill-rule="evenodd" class="s1" d="m870.7 297.1c0 27.9-20.9 51.4-45.6 51.4-21.1 0-35.3-15.5-35.3-38.9 0-28.9 20.6-50.8 48-50.8 18.9 0 32.9 16.2 32.9 38.3zm-68.5 14.6c0 16.8 9.5 27.9 23.9 27.9 18.2 0 32.2-19.1 32.2-43.9 0-17.1-8.6-27.9-22.1-27.9-19.3-0.1-33.9 18.8-33.9 43.9zm141.4-34.8h-3.1c-0.1-1.1-0.3-2.2-0.8-3.3-0.5-1-1.2-1.9-2.1-2.7-0.8-0.7-1.8-1.3-2.9-1.6-1-0.4-2.2-0.5-3.3-0.5q-1.5 0.1-2.9 0.4-1.4 0.2-2.8 0.8-1.3 0.5-2.6 1.2-1.2 0.7-2.4 1.7-0.9 0.6-1.7 1.3-0.8 0.8-1.6 1.6-0.7 0.8-1.4 1.6-0.7 0.9-1.3 1.8c-2.5 4.1-3.4 6.4-5.3 16.2l-10.1 51.5h-12.9l13.8-70 0.8-3.5q0.1-0.4 0.2-0.8 0-0.4 0.1-0.8 0-0.4 0.1-0.8 0-0.4 0-0.8c0-4.1-1.6-5.3-6.2-5.3h-1.2l0.9-3.7 21.8-2.4-3.7 18.1c5.5-11.4 14.8-18.1 24.9-18.1q1.3 0 2.6 0.1 1.3 0.2 2.5 0.5 1.3 0.3 2.5 0.8 1.2 0.4 2.4 1zm14.9 96.4q-0.1 0.6-0.2 1.2-0.2 0.6-0.3 1.3-0.1 0.6-0.2 1.2-0.1 0.7-0.1 1.3c0 3.2 0.7 3.8 5.6 5.3l-0.7 2.9h-26.1l0.5-2.9q0.5-0.1 1-0.1 0.4-0.1 0.9-0.2 0.4-0.2 0.9-0.3 0.4-0.2 0.8-0.4c2.8-1.3 3.6-2.6 4.5-7.1l19.2-98.6 0.7-3.6q0.1-0.4 0.2-0.7 0.1-0.4 0.1-0.8 0.1-0.4 0.1-0.8 0-0.4 0-0.8c0-4.1-1.4-5.3-6-5.3h-1.2l0.6-3.7 22-2.5-2.8 13.6q0.7-0.9 1.4-1.7 0.8-0.8 1.5-1.6 0.8-0.8 1.6-1.6 0.8-0.7 1.7-1.4 2.4-1.8 5-3.1 2.6-1.4 5.3-2.3 2.8-0.9 5.7-1.4 2.9-0.5 5.8-0.5c17.3 0 29.9 13.8 29.9 33.1 0 32.7-26.3 56.4-62.7 56.4q-1.2 0-2.4 0-1.3-0.1-2.5-0.2-1.2-0.1-2.4-0.2-1.2-0.2-2.5-0.4zm8.1-34q3.9 0 6.7 0c30.2 0 48.9-17.7 48.9-46.2 0-15.8-8.1-25.5-21.3-25.5-9.1 0-17.3 5-24.7 14.7l-11.2 56.8h1.6zm164.8-42.2c0 27.9-20.9 51.4-45.6 51.4-21.1 0-35.4-15.5-35.4-38.9 0-28.9 20.6-50.8 48.1-50.8 18.9 0 32.9 16.2 32.9 38.3zm-68.5 14.6c0 16.8 9.5 27.8 23.9 27.8 18.2 0 32.2-19 32.2-43.9 0-17-8.6-27.8-22.1-27.8-19.3-0.1-33.9 18.8-33.9 43.9zm141.4-34.8h-3.1c0-1.1-0.3-2.2-0.8-3.3-0.5-1-1.2-1.9-2-2.7-0.9-0.7-1.9-1.3-2.9-1.6-1.1-0.4-2.3-0.5-3.4-0.5q-1.4 0.1-2.9 0.4-1.4 0.2-2.7 0.8-1.4 0.5-2.7 1.2-1.2 0.7-2.3 1.7-0.9 0.6-1.8 1.3-0.8 0.8-1.6 1.6-0.7 0.8-1.4 1.7-0.7 0.8-1.3 1.8c-2.6 4-3.4 6.4-5.3 16.1l-10.1 51.6h-12.8l13.7-70.1 0.8-3.5q0.1-0.4 0.2-0.8 0-0.4 0-0.8 0.1-0.4 0.1-0.8 0-0.4 0-0.8c0-4.1-1.5-5.3-6.1-5.3h-1.2l0.8-3.7 21.8-2.4-3.5 18.1c5.5-11.4 14.7-18.1 24.8-18.1q1.3 0 2.6 0.1 1.3 0.2 2.6 0.5 1.2 0.3 2.4 0.8 1.2 0.4 2.4 1zm21.1-11.3q3.5-1.8 7.1-3.1 3.7-1.4 7.5-2.2 3.9-0.9 7.8-1.3 3.8-0.4 7.8-0.3c17.7 0 27.4 6.3 27.4 17.9q0 0.9-0.1 1.8 0 0.9-0.1 1.8-0.1 0.9-0.3 1.7-0.1 0.9-0.3 1.8l-8.1 42q-0.2 0.9-0.4 1.8-0.1 0.9-0.3 1.8-0.1 0.9-0.2 1.7-0.1 0.9-0.1 1.8-0.2 1.3 0.2 2.4 0.3 1.2 1.1 2.2 0.8 1 1.8 1.5 1.1 0.6 2.4 0.7c2.6 0 4.5-1 9.1-4.7l2.9 3.2c-6.5 6.7-12.5 10.3-18 10.3-8 0-12.7-5.5-13-14.8q-2.9 3.5-6.4 6.2-3.6 2.8-7.6 4.7-4.1 1.9-8.5 2.9-4.4 1-8.9 1c-13.2 0-22.7-8.8-22.7-21 0-22.6 24.2-38.5 63.4-41.1q0.2-0.8 0.3-1.6 0.2-0.8 0.3-1.6 0.1-0.8 0.2-1.7 0-0.8 0-1.6c0-7.7-7.2-12.6-18.9-12.6q-1.6 0-3.2 0.2-1.7 0.1-3.3 0.4-1.6 0.3-3.2 0.8-1.6 0.4-3.1 1.1-1.9 0.7-3.7 1.7-1.8 1-3.4 2.2-1.6 1.3-2.9 2.8-1.4 1.5-2.5 3.2h-3.1zm24.9 31.4c-19.9 5.1-31.3 15.1-31.3 27.9 0.1 1.7 0.4 3.5 1.2 5.1 0.7 1.6 1.7 3 3 4.2 1.3 1.2 2.8 2.2 4.4 2.8 1.7 0.6 3.4 0.9 5.2 0.8q4.2-0.2 8.3-1.2 4.1-1.1 7.9-3 3.7-2 7-4.7 3.2-2.7 5.8-6.1l5.5-28.6q-2.2 0.3-4.3 0.6-2.1 0.3-4.3 0.6-2.1 0.4-4.2 0.8-2.1 0.4-4.2 0.8zm85.7-37h17.4l-1.3 6.1h-17.3l-10.8 55.1q-0.3 1.3-0.5 2.6-0.2 1.3-0.3 2.6-0.2 1.3-0.3 2.7-0.1 1.3-0.1 2.6c-0.1 1.1 0.1 2.2 0.5 3.2 0.4 1 1.1 2 1.9 2.7 0.8 0.8 1.7 1.4 2.7 1.8 1.1 0.3 2.2 0.5 3.3 0.4q2.2 0.1 4.3-0.5 2.2-0.5 4.1-1.7 1.8-1.2 3.2-2.9 1.5-1.7 2.3-3.7h2.7l-2.7 14.4q-2 0.8-4.1 1.4-2 0.7-4.2 1.1-2.1 0.4-4.3 0.5-2.2 0.2-4.3 0.2c-12.6 0-18.6-5.1-18.6-15.2q0.1-1.4 0.2-2.8 0.1-1.3 0.2-2.7 0.2-1.4 0.4-2.8 0.3-1.4 0.6-2.7l11-56.1h-10.1l1.2-6.2q1 0.1 2 0.1 1-0.1 1.9-0.2 1-0.2 2-0.5 0.9-0.3 1.8-0.7c2.9-1.3 5-5.2 6.4-12.1l2.4-12.1 12.1-3.2zm154.8 37.1c0 27.8-21 51.4-45.7 51.4-21.1 0-35.3-15.5-35.3-38.9 0-29 20.6-50.8 48-50.8 18.9-0.1 33 16.2 33 38.3zm-68.5 14.6c0 16.8 9.4 27.8 23.8 27.8 18.2 0 32.3-19 32.3-43.9 0-17-8.6-27.8-22.2-27.8-19.3-0.1-33.9 18.8-33.9 43.8zm111.8-40q3-3 6.5-5.4 3.6-2.4 7.5-4.1 3.9-1.6 8.1-2.5 4.2-0.8 8.4-0.9c14.1 0 23.5 8.1 23.5 20.2q-0.1 1.7-0.3 3.4-0.1 1.7-0.4 3.4-0.3 1.7-0.6 3.4-0.3 1.7-0.7 3.4l-5.9 30.1q-0.3 1.3-0.6 2.7-0.2 1.4-0.4 2.8-0.3 1.4-0.4 2.8-0.2 1.5-0.3 2.9 0 1.1 0.4 2.1 0.5 1.1 1.3 1.8 0.8 0.8 1.8 1.3 1 0.4 2.2 0.4 1.2-0.2 2.5-0.5 1.2-0.4 2.4-0.9 1.2-0.6 2.2-1.4 1.1-0.8 2-1.7l2.5 3.3q-0.6 0.8-1.2 1.6-0.7 0.7-1.4 1.4-0.7 0.6-1.5 1.3-0.7 0.6-1.5 1.2-1.5 1-3.1 1.9-1.7 0.8-3.4 1.4-1.7 0.6-3.5 0.9-1.8 0.4-3.6 0.5c-1.6 0-3.1-0.4-4.6-1-1.4-0.6-2.7-1.5-3.8-2.7-1-1.2-1.8-2.5-2.4-4-0.5-1.5-0.6-3.1-0.5-4.7q0.1-1.1 0.2-2.2 0.1-1.2 0.2-2.3 0.2-1.1 0.4-2.2 0.2-1.2 0.4-2.3l7-36.2q0.3-1.2 0.5-2.4 0.2-1.2 0.3-2.4 0.2-1.2 0.3-2.4 0.1-1.2 0.1-2.4c0-1.9-0.5-3.9-1.3-5.6-0.8-1.8-2-3.4-3.5-4.8-1.4-1.3-3.1-2.3-5-2.9-1.9-0.6-3.9-0.9-5.8-0.7q-2.4 0.1-4.8 0.7-2.3 0.5-4.5 1.4-2.3 0.8-4.3 2.1-2.1 1.2-3.9 2.7-1.4 1.2-2.8 2.4-1.3 1.2-2.6 2.5-1.3 1.2-2.4 2.6-1.2 1.4-2.3 2.8l-12.1 62.6h-13.1l13.9-70.1 0.6-3.6q0.1-0.4 0.2-0.7 0-0.4 0.1-0.8 0-0.4 0.1-0.8 0-0.4 0-0.8c0-4.1-1.5-5.3-6-5.3h-1.3l0.7-3.7 22-2.5zm-154 49.7l-1.3 6.7q-0.1 0.5-0.2 0.9-0.1 0.5-0.1 1-0.1 0.4-0.1 0.9 0 0.5 0 1c0 4.8 2.1 7.8 5.5 7.8q1.3-0.2 2.5-0.6 1.2-0.4 2.3-0.9 1.2-0.6 2.2-1.3 1-0.8 1.9-1.7l2.3 2.9q-1.7 2.1-3.8 3.9-2.1 1.8-4.5 3.2-2.3 1.3-5 2.2-2.6 0.8-5.3 1.1c-6.8 0-11.5-5.2-11.5-13.2q0.1-1.5 0.2-2.9 0.1-1.5 0.3-3 0.3-1.4 0.5-2.8 0.3-1.5 0.7-2.9l9.1-46.7 0.7-3.5q0.1-0.4 0.2-0.8 0.1-0.4 0.1-0.8 0.1-0.4 0.1-0.8 0-0.4 0-0.8c0-4-1.4-5.2-6-5.2h-1.2l0.6-3.8 22-2.4zm-607.2 7.6h3.5l-3.6 17.5q-3.4 1.5-6.9 2.5-3.5 1.1-7.1 1.7-3.7 0.7-7.3 1-3.7 0.2-7.4 0c-17.6 0-29.8-3.6-40.3-12.1-13.1-10.2-20.1-26-20.1-44.8q0-1.7 0.1-3.5 0.1-1.7 0.3-3.4 0.2-1.7 0.4-3.4 0.3-1.7 0.6-3.4 1.1-5.3 2.8-10.3 1.8-5 4.3-9.8 2.4-4.7 5.6-9.1 3.1-4.3 6.8-8.2c3.1-3.5 6.6-6.7 10.4-9.4 3.8-2.8 7.9-5.1 12.3-7 4.3-1.8 8.8-3.2 13.5-4.1 4.6-0.9 9.3-1.3 14-1.1h0.5c16.3 0.1 27.2 5.7 35.3 18.7l-15.3 14.6-2.4-2.6q0.6-0.5 1.1-1.2 0.4-0.6 0.7-1.4 0.4-0.7 0.5-1.5 0.2-0.7 0.1-1.5c0-8.8-8-15-20.1-16.2-1 0-2.3 0-3.4 0-25.5 0-47.2 21.7-52.4 50q-0.3 1.6-0.5 3.2-0.2 1.6-0.4 3.3-0.1 1.6-0.2 3.3-0.1 1.6-0.1 3.3c0 28.2 19.6 48.3 47.2 48.3 14.1 0 23.5-4.6 27.5-13.4zm624.1-103c0 1.7-0.3 3.3-0.9 4.8-0.6 1.5-1.5 2.9-2.6 4.1-1.1 1.1-2.4 2.1-3.9 2.8-1.5 0.7-3 1.1-4.7 1.2-1 0-2.1-0.2-3.1-0.6-1-0.4-1.9-1.1-2.7-1.8-0.7-0.8-1.3-1.8-1.7-2.8-0.4-1-0.6-2.1-0.5-3.2 0-1.6 0.4-3.2 1-4.7 0.6-1.5 1.5-2.9 2.6-4 1.1-1.2 2.4-2.2 3.8-2.9 1.5-0.7 3.1-1.1 4.7-1.3 1.1 0 2.2 0.2 3.2 0.6 1 0.4 2 1 2.7 1.8 0.8 0.8 1.4 1.8 1.7 2.8 0.4 1 0.5 2.1 0.4 3.2z"/>
	</g>
</svg>