<svg version="1.2" xmlns="http://www.w3.org/2000/svg" viewBox="0 0 1532 536" width="1532" height="536">
	<title>CenterPoint_Energy_logo-svg</title>
	<style>
		.s0 { fill: #1e9cd6 } 
		.s1 { fill: #231f20 } 
	</style>
	<g id="layer1">
		<path id="path2926" class="s0" d="m157.4 239.7h155.9c-2.3-84.3-71.3-151.9-156.1-151.9-86.5 0-156.4 70.1-156.4 156.5 0 86.4 69.9 156.5 156.4 156.5 84.6 0 153.5-67.4 156.1-151.5h-155.9z"/>
		<path id="path2928" class="s0" d="m1107.1 239.7h-793.8c0.2 1.5 0.2 3.1 0.2 4.6 0 1.7 0 3.3-0.2 5h788.3z"/>
		<path id="path2892" fill-rule="evenodd" class="s1" d="m395.3 474.2l42-195h93.9l-6.9 32.3h-55.4l-9.4 44.3h54l-7.1 32.3h-54l-11.5 54h57.7l-6.9 32.1zm552.4-148c0 0-28.5 131.4-35.5 162.9-6.5 28.6-27.6 46.2-60.9 46.2-25.9 0-40.8-11.3-40.8-32.6 0-2.8 0.7-7.1 1.4-11.3h34.6c-1.4 6.3-1.7 11.5 0 15.1 1.5 3.8 5.5 5.7 11.3 5.7 9.4 0 15.8-9.5 19-24.6l5.2-24.9h-0.6c-8 11.5-19 13.8-31.2 13.8-20.4 0-28-15.7-28-32.8 0-13.8 9.8-66.3 17.1-83.6 9.5-22.2 23-36.1 43.6-36.1 13.2 0 23.3 4.8 25.7 18.7h1.6l3-16.5c0 0 34.5 0 34.5 0zm-89.6 109.1c0 9.5 3.4 15.4 11.1 15.4 13.6 0 18.6-15.5 25.4-47.1 3.3-15.4 6.7-28.5 6.7-37.6-0.2-9.4-1.7-16-11.6-16-13.8 0-17.9 15.4-25 48-1.5 7.8-6.4 25.1-6.6 37.3zm99.4 45.2l-4-154.3h37l-4.1 107.9h0.6l41.5-108h37.9l-97.5 204.8h-37.1c0 0 25.7-50.4 25.7-50.4zm-565.1-323.5c0-24.3 10-81.5 24.1-115.4 11.9-28.5 34.9-40.7 69.9-40.7 28.5 0 44.7 13.9 44.7 38.6 0 9.8-2.5 23.6-5.1 34h-36.5c2.4-11.6 3.5-22 3.5-27.4 0-8.6-5.5-13.5-14.6-13.5-15.4 0-21.5 9.8-27.2 25.4-7.5 21-18.5 72.1-18.5 95.6 0 11.4 5.3 16.6 17 16.6 19.9 0 23.7-22.7 28.3-43.5h37.5c-8.1 51.3-30 75-72.9 75-32.9 0-50.2-15.1-50.2-44.7zm169.2-26.6c-1.7 8.2-4.5 18-4.5 26.5 0.2 9.9 3.5 17.8 12.4 17.8 13.3 0 18.8-14.1 21.4-26.5h36.5c-10.8 40.4-32 52.6-63.6 52.6-29.5 0-42.5-16.7-42.5-38.7 0-16.4 1.8-24.1 4.7-38.5 8.8-40.7 21.5-75.5 70.7-75.5 26.7 0 42.1 12.8 42.1 39.5 0 12.6-3 26.5-7 42.8zm39.3-22.5c1.4-6.6 3.1-13.5 3.1-20.7 0-7.1-3.2-14.3-12.9-14.3-17.9 0-22 22.4-24.6 35zm256.5 22.5c-1.8 8.2-4.4 18-4.4 26.5 0.1 9.9 3.5 17.8 12.3 17.8 13.4 0 18.9-14.1 21.5-26.5h36.2c-10.7 40.4-31.8 52.6-63.3 52.6-29.7 0-42.6-16.7-42.6-38.7 0-16.4 1.7-24.1 4.8-38.5 8.7-40.7 21.4-75.5 70.7-75.5 26.5 0 42.1 12.8 41.9 39.5 0 12.6-2.9 26.5-6.9 42.8zm39.4-22.5c1.3-6.6 3-13.5 3-20.7 0-7.1-3.2-14.3-12.8-14.3-18.1 0-22.1 22.4-24.8 35zm-226.5 298.8c-1.9 8.2-4.5 18.1-4.5 26.5 0 9.9 3.6 17.8 12.4 17.8 13.2 0 18.7-14 21.5-26.4h36.2c-10.7 40.4-32 52.5-63.3 52.5-29.7 0-42.7-16.7-42.7-38.7 0-16.3 1.8-24.1 4.9-38.5 8.5-40.7 21.2-75.5 70.7-75.5 26.5 0 41.9 12.9 41.9 39.5 0 12.7-3 26.6-6.9 42.8zm39.2-22.4c1.4-6.6 3.2-13.6 3.2-20.7 0-7.2-3.3-14.3-13-14.3-17.9 0-21.9 22.4-24.6 35zm-15.2-318.3h1.1c10.2-13.2 20.2-17.9 34.3-17.9 15.3 0 26.6 9 26.8 24.6q0 3.8-1 8.2l-24.8 116.8h-36.7l21.9-100.3c0.9-4.5 1.5-8.7 1.5-12.2 0-6.8-2.4-11.2-10.4-11.2-12.5 0-16.2 9.4-19.1 23.4l-21.7 100.3h-36l31.7-147.1h35.6zm663 0h1.1c10.2-13.2 20.2-17.9 34.3-17.9 15.3 0 26.6 9 26.7 24.6q0 3.8-0.9 8.1l-24.8 116.9h-36.7l21.9-100.3c0.9-4.5 1.5-8.7 1.5-12.2 0-6.8-2.4-11.2-10.4-11.2-12.5 0-16.2 9.4-19.1 23.4l-21.8 100.3h-35.9l31.7-147.1h35.6zm-789.2 276.6h1.1c10.2-13.3 20.2-18 34.2-18 15.3 0 26.7 9 26.8 24.6q0 3.8-0.9 8.1l-24.6 116.9h-36.8l21.8-100.3c0.9-4.6 1.6-8.7 1.5-12.2 0-6.8-2.5-11.2-10.3-11.2-12.5 0-16.2 9.4-19.2 23.4l-21.8 100.3h-35.9l31.8-147.1h35.7zm216.5-315l40.4-18.1-8.9 41h18.6l-5.4 25.2h-18.7l-18.5 85.9q-0.5 2.3-0.5 4.1c0.2 5.1 3.6 7.4 11.5 7.4 2.3 0 4.8-0.2 6.8-0.8l-5.5 25.4c-5.1 0.5-11.4 1.5-20.4 1.5-19.9 0-30-9.4-30-26.7 0-2.8 0.5-6.6 1.1-9.2zm661.1 0l40.3-18-8.9 41h18.7l-5.4 25.1h-18.7l-18.6 86q-0.5 2.3-0.5 4.1c0.1 5.1 3.7 7.4 11.5 7.4 2.4 0 4.7-0.2 6.7-0.8l-5.3 25.4c-5.3 0.5-11.4 1.5-20.4 1.5-20.1 0-30-9.4-30-26.7 0-2.8 0.5-6.6 0.9-9.2zm-454.5 23.1l-4.3 19.6h1.2c7.2-13.2 16.7-21.5 37.1-21.5l-7.7 35.4c-1.7-0.1-3.4-0.1-4.9-0.1-19 0-28.3 9.2-31.8 26.3l-18.5 87.5h-36.6l31.7-147.2zm-189.5 295.7h1.4c7-13.1 16.5-21.4 37-21.4l-7.6 35.4c-1.7-0.1-3.4-0.2-5.1-0.2-18.8 0-28.1 9.4-31.8 26.4l-18.5 87.4h-36.5l31.7-147.2c0 0 33.8 0 33.8 0zm243.5-343.5h55.4c31.4 0 45 17.5 45 41.3 0 12.3-1 16.6-4.1 28.2-8.3 31.5-25.9 54.6-60.9 54.6h-23.3l-15.1 70.8h-38.4zm18 93.5h13.6c20.7 0 30.8-24.9 30.8-45.8 0-13-5.2-18.1-16.4-18.1h-13.4zm67 67.2c0-6.4 2.3-32.4 8.7-53.6 12.1-39.7 25.1-61.8 64.6-61.8 31.8 0 43.8 13.8 43.8 38.4 0 7.5-2.3 25.6-7.1 45-10.4 43.2-24.9 69.2-67.9 69.2-27.4 0-42.1-12.8-42.1-37.2zm73.6-29.6c5.2-19.9 8.7-36.3 8.7-44.4 0-6.5-1.4-15.6-12.2-15.6-18.8 0-21 21.1-27.4 44-3.5 12.3-7.2 26.6-7.2 40.6 0 11.2 4.3 15.8 12.7 15.8 16.4 0 20.7-21.9 25.4-40.4zm114.6-130.7l-6.9 32.2h-36.4l7.1-32.2zm-42 194.8h-36.1l31.7-147.5h36.1zm231.6 1c-12.7 0-23-10.3-23-23.1 0-12.8 10.3-23.1 23-23.1 12.8 0 23.1 10.3 23.1 23.1 0 12.8-10.3 23.1-23.1 23.1zm19.1-23.1c0-10.6-8.5-19.1-19.1-19.1-10.5 0-19 8.5-19 19.1 0 10.5 8.5 19 19 19 10.6 0 19.1-8.5 19.1-19zm-23.9 1.5v11.7h-4.3v-27.2h8.9c4.9 0 10.1 1.4 10.1 7.5 0 3.2-2 5.7-5.5 6.3v0.2c3.7 0.7 4.1 2.4 4.6 5.3 0.3 2.6 0.6 5.4 1.5 7.9h-5.3c-0.4-1.5-0.8-3.3-1-4.9-0.3-2.3-0.3-4.5-1.5-5.7-1.1-1.1-2.4-1.1-4-1.1zm4.5-4.3c3.9-0.1 4.9-1.8 4.9-3.8 0-2.1-1-3.1-4.3-3.1h-5.1v6.9z"/>
	</g>
</svg>