<svg version="1.2" xmlns="http://www.w3.org/2000/svg" viewBox="0 0 1555 681" width="1555" height="681">
	<title>cfi_logo_tm_rgb_color_pos-svg</title>
	<style>
		.s0 { fill: #015846 } 
		.s1 { fill: #00c7b1 } 
		.s2 { fill: #3fa9f5 } 
		.s3 { fill: #54ce32 } 
	</style>
	<g id="Layer">
		<path id="Layer" fill-rule="evenodd" class="s0" d="m963.2 580.8c43.5 0 80.1-14.3 118.2-40.8v109.4c-41.5 23.8-85 31.9-123 31.9-143.9 0-244.4-105.3-244.4-246.6 0-139.3 107.9-246.7 245.8-246.7 41.4 0 82.8 10.9 120.8 31.9v110.1c-35.9-27.2-73.3-42.1-117.5-42.1-82.8 0-143.9 64.5-143.9 146.8 0.1 80.8 59.1 146.1 144 146.1zm310.3-291.5v96.5h195v93h-195v193.6h-101.8v-475.5h310.4v92.4zm223.5-92.4h23.4v3.7h-9.5v22.3h-4.5v-22.3h-9.4zm53.2 25.9l-0.1-18.2-9.7 15.1h-2.1l-9.8-14.8v17.9h-4.3v-25.9h3.6l11.6 17.7 11.4-17.7h3.6l0.1 25.9z"/>
		<g id="Layer">
			<path id="Layer" class="s1" d="m337.7 46.4l294.3 125.3c9.2 3.9 19.6 1.7 26.5-5.4l119.4-125.4c14.4-15.2 3.6-40.2-17.3-40.2h-413.7c-25.8 0-33 35.6-9.2 45.7z"/>
			<path id="Layer" class="s2" d="m607.4 260.1l-250.7 190.2c-7 5.3-10.5 13.9-9.2 22.5l29 188.2c3.2 20.7 33.4 26.5 43.9 8.5l222.7-378.1c13.2-22.4-14.9-47.1-35.7-31.3z"/>
			<path id="Layer" class="s3" d="m236.7 49.6l-207.1-48.2c-20.8-4.8-37 18-25.4 36l240.2 374c13.5 21 47 9.4 44.4-15.5l-33.1-324.5c-1-10.7-8.7-19.3-19-21.8z"/>
			<path id="Layer" class="s0" d="m403.8 352.7l133.3-131.1c13-12.9 7.4-35-10.3-39.9l-180.1-50c-17.7-4.9-34 11.2-29.4 28.9l46.8 181.1c4.6 17.8 26.7 23.8 39.7 11z"/>
		</g>
	</g>
</svg>