<svg version="1.2" xmlns="http://www.w3.org/2000/svg" viewBox="0 0 1584 355" width="1584" height="355">
	<title>CHR_Logo_Horz_2C_RGB-svg</title>
	<style>
		.s0 { fill: #00a3e0 } 
		.s1 { fill: #101820 } 
	</style>
	<path id="Layer" fill-rule="evenodd" class="s0" d="m308.3 88.8v177.4l-153.7 88.7-153.6-88.7v-177.4l153.6-88.8zm-15.2 8.7l-138.4-80-138.6 80v160l138.6 80.1 138.4-80.1z"/>
	<path id="Layer" class="s0" d="m114 84.5l33-19.1v79.5l7.6 4.3 7.5-4.3v-79.5l33.1 19.1 7.5-13.1-48.1-27.8-48.1 27.8 7.5 13.1zm-19.6 174.6l-33-19.1 68.8-39.7v-8.7l-7.6-4.4-68.8 39.7v-38.1h-15.1v55.6l48.2 27.8 7.5-13.1zm120.4-163.3l33 19.1-93.2 53.8-93.2-53.8 33-19.1-7.5-13.1-48.2 27.8v55.6h15.1v-38.1l93.2 53.8v107.7l-33-19.1-7.5 13.1 48.1 27.8 48.1-27.8-7.5-13.1-33.1 19.1v-107.7l93.3-53.8v38.1h15.1v-55.6l-48.2-27.8-7.5 13.1zm40.6 93v38.1l-68.8-39.7-7.6 4.3v8.8l68.8 39.7-33 19.1 7.5 13.1 48.2-27.8v-55.6h-15.1z"/>
	<path id="Layer" fill-rule="evenodd" class="s0" d="m295.1 287.3h4.2q3.9 0 3.9 3.2 0 0.3-0.1 0.6 0 0.3-0.1 0.6-0.1 0.3-0.3 0.6-0.2 0.2-0.4 0.4-0.2 0.2-0.4 0.3-0.3 0.2-0.5 0.3-0.3 0.1-0.6 0.2-0.2 0-0.5 0.1l3.2 4.9h-1.8l-3-4.8h-1.9v4.8h-1.6zm1.6 4.9h2.9q0.1 0 0.2 0 0.2 0 0.3 0 0.1-0.1 0.2-0.1 0.1 0 0.2-0.1 0.1 0 0.2-0.1 0.1 0 0.2-0.1 0.1-0.1 0.2-0.2 0 0 0.1-0.1 0.1-0.2 0.1-0.3 0.1-0.1 0.1-0.2 0-0.2 0-0.3 0.1-0.2 0-0.3 0.1-0.1 0-0.2 0-0.1 0-0.3 0-0.1-0.1-0.2 0-0.1-0.1-0.2 0-0.1-0.1-0.2-0.1 0-0.1-0.1-0.1-0.1-0.2-0.1-0.1-0.1-0.2-0.1-0.1-0.1-0.2-0.1-0.1 0-0.2-0.1-0.1 0-0.2 0-0.1 0-0.2 0-0.1-0.1-0.2-0.1-0.1 0-0.2 0-0.1 0-0.2 0-0.1 0-0.2 0.1h-2.3z"/>
	<path id="Layer" fill-rule="evenodd" class="s0" d="m298.7 304.2c-4.6 0-8.7-2.8-10.4-7-1.8-4.2-0.8-9.1 2.4-12.3 3.3-3.2 8.1-4.2 12.3-2.4 4.3 1.7 7 5.8 7 10.4 0 1.5-0.3 3-0.9 4.3-0.5 1.4-1.4 2.6-2.4 3.7-1.1 1-2.3 1.9-3.7 2.4-1.4 0.6-2.8 0.9-4.3 0.9zm0-20.7c-3.8 0-7.2 2.3-8.7 5.8-1.4 3.5-0.6 7.6 2.1 10.3 2.7 2.6 6.7 3.4 10.2 2 3.5-1.5 5.8-4.9 5.8-8.7 0-1.2-0.2-2.4-0.7-3.6-0.5-1.1-1.2-2.2-2.1-3-0.8-0.9-1.9-1.6-3-2.1-1.1-0.4-2.4-0.7-3.6-0.7z"/>
	<path id="Layer" fill-rule="evenodd" class="s1" d="m477.5 222.6c-5.4 7.2-14.6 17-26 17h-25.6q-1.7 0-3.3-0.3-1.7-0.3-3.3-0.7-1.6-0.5-3.1-1.2-1.6-0.6-3-1.5-2.1-1.5-4.2-3.2-2-1.7-3.8-3.5-1.9-1.8-3.7-3.8-1.7-1.9-3.3-4-0.8-1.3-1.4-2.7-0.6-1.4-1.1-2.9-0.4-1.5-0.6-3-0.2-1.6-0.1-3.1v-64.5q-0.1-1.5 0.1-3 0.2-1.5 0.6-3 0.5-1.4 1.1-2.8 0.6-1.4 1.4-2.7c2.5-3.5 10.7-12.3 15-14.7q1.4-0.9 3-1.5 1.5-0.7 3.1-1.1 1.6-0.5 3.3-0.8 1.6-0.2 3.3-0.3h25.6c11.4 0 20.6 10.1 26 17q0.6 0.8 1.1 1.7 0.6 0.9 1.1 1.8 0.6 0.9 1.1 1.8 0.5 0.9 1 1.9l-20.9 5.9c0 0-6.1-7.6-9.2-9.4q-0.1-0.1-0.2-0.1-0.1-0.1-0.2-0.1-0.1 0-0.2 0-0.1 0-0.2 0h-24.2q-0.1 0-0.2 0-0.1 0-0.2 0-0.1 0-0.2 0.1-0.1 0-0.2 0.1-1.4 0.8-2.7 1.9-1.2 1-2.4 2.1-1.1 1.1-2.2 2.4-1 1.2-1.9 2.6-0.1 0.3-0.1 0.5-0.1 0.3-0.1 0.6 0 0.3 0 0.6-0.1 0.3 0 0.5v62.3c0 2.5 6.3 7.8 9.4 9.4 0.2 0.2 1.2 0.2 1.4 0.2h23.3q0.2 0 0.3 0 0.1 0 0.3 0 0.1 0 0.2-0.1 0.2 0 0.3-0.1c4.3-2 9.2-9.6 9.2-9.6l20.9 5.5q-0.5 1-0.9 2.1-0.5 1-1.1 1.9-0.5 1-1.1 2-0.6 0.9-1.2 1.8zm23.1-9.8h25.2v25.8h-25.2zm112.8 25.8v-50.6h-44.6v50.6h-21.5v-122.5h21.5v51.4h44.6v-51.4h21.5v122.5zm42.9-25.8h25.2v25.8h-25.2zm176.5-37.9q-1.2 1.5-2.5 3-1.3 1.4-2.7 2.8-1.4 1.4-2.9 2.7-1.4 1.3-2.9 2.5-0.6 0.4-1.3 0.8-0.6 0.4-1.3 0.8-0.6 0.4-1.3 0.7-0.7 0.3-1.5 0.5l24.3 50h-23.3l-22.7-48.3h-23.5v48.3h-21.5v-122.6h57.5q1.9 0 3.9 0.3 1.9 0.3 3.7 0.9 1.9 0.6 3.6 1.4 1.8 0.9 3.4 1.9 1.5 1.3 3 2.6 1.4 1.4 2.8 2.8 1.4 1.4 2.7 2.9 1.3 1.4 2.5 3 0.9 1.4 1.6 2.9 0.7 1.5 1.2 3.1 0.4 1.6 0.7 3.2 0.2 1.6 0.2 3.3v18q0 1.7-0.2 3.3-0.2 1.6-0.7 3.2-0.5 1.6-1.2 3.1-0.7 1.5-1.6 2.9zm-17.8-30.3q0-0.2 0-0.4 0-0.2-0.1-0.4 0-0.1 0-0.3-0.1-0.2-0.1-0.4c-1.2-2.2-4.5-6.3-6.6-6.5h-37v33.1h36c1.8 0 6-3.9 7.6-6.7q0-0.1 0.1-0.2 0-0.1 0-0.2 0.1-0.1 0.1-0.2 0-0.1 0-0.2zm135.3 76.6c-2.7 3.5-10.6 12.3-15 14.7q-1.4 0.9-2.9 1.5-1.6 0.7-3.2 1.2-1.6 0.4-3.2 0.7-1.7 0.3-3.4 0.3h-31q-1.7 0-3.4-0.3-1.6-0.2-3.2-0.7-1.6-0.5-3.2-1.1-1.5-0.7-2.9-1.6c-4.3-2.4-12.5-11.2-15-14.7q-0.8-1.3-1.4-2.7-0.7-1.4-1.1-2.9-0.4-1.5-0.6-3-0.2-1.5-0.2-3.1v-64.1q0-1.5 0.2-3.1 0.2-1.5 0.6-3 0.4-1.5 1.1-2.9 0.6-1.4 1.4-2.7c2.5-3.4 10.7-12.2 15-14.7q1.4-0.9 2.9-1.5 1.6-0.7 3.2-1.2 1.6-0.4 3.2-0.7 1.7-0.3 3.4-0.3h31q1.7 0.1 3.4 0.3 1.6 0.3 3.2 0.7 1.6 0.5 3.2 1.2 1.5 0.6 2.9 1.5c4.4 2.5 12.3 11.3 15 14.7q0.8 1.3 1.5 2.7 0.6 1.4 1 2.9 0.4 1.5 0.6 3 0.2 1.6 0.2 3.1v64.1q0 1.6-0.2 3.1-0.2 1.5-0.6 3-0.4 1.5-1 2.9-0.7 1.4-1.5 2.7zm-68.2-11.9c0 0 0 0.6 0.2 0.8q0.9 1.3 2 2.5 1 1.3 2.1 2.4 1.1 1.1 2.4 2.1 1.2 1 2.5 1.8 0.2 0.1 0.3 0.1 0.1 0.1 0.2 0.1 0.2 0 0.3 0 0.1 0 0.3 0h29.4q0.2 0 0.3 0 0.1 0 0.3 0 0.1 0 0.2-0.1 0.1 0 0.3-0.1 1.3-0.8 2.5-1.8 1.3-1 2.4-2.1 1.1-1.1 2.1-2.4 1.1-1.2 2-2.5 0-0.1 0-0.2 0.1-0.1 0.1-0.2 0-0.1 0.1-0.2 0-0.1 0-0.2v-63.3c0 0 0-0.8-0.2-1q-0.9-1.3-2-2.6-1-1.2-2.1-2.3-1.1-1.2-2.4-2.2-1.2-1-2.5-1.9-0.2-0.1-0.3-0.1-0.1-0.1-0.2-0.1-0.2 0-0.3 0-0.1 0-0.3 0h-29.4c0 0-0.8 0-1.1 0.2q-1.3 0.9-2.5 1.9-1.2 1-2.3 2.2-1.2 1.1-2.2 2.3-1 1.3-1.9 2.6 0 0.1-0.1 0.3 0 0.1 0 0.2-0.1 0.1-0.1 0.3 0 0.1 0 0.2zm181 13.7q-1.2 1.6-2.5 3-1.3 1.5-2.7 2.9-1.3 1.4-2.8 2.7-1.4 1.3-2.9 2.5-1.6 1.1-3.4 1.9-1.8 0.9-3.6 1.4-1.9 0.6-3.8 0.9-2 0.3-3.9 0.3h-57.6v-122.5h57.6q1.9 0.1 3.9 0.4 1.9 0.3 3.8 0.9 1.9 0.6 3.6 1.4 1.8 0.9 3.4 2 1.5 1.3 3 2.6 1.4 1.3 2.8 2.7 1.3 1.4 2.6 2.8 1.3 1.5 2.5 3 0.9 1.4 1.5 3 0.7 1.5 1.2 3.1 0.4 1.6 0.6 3.3 0.2 1.6 0.2 3.3v15.2c0 8.6-3.3 13.1-8.1 17.8 4.7 4.7 8.1 9 8.1 17.6v15.6q0 1.6-0.2 3.2-0.2 1.6-0.7 3.2-0.4 1.5-1.1 3-0.7 1.5-1.5 2.8zm-18.1-63.6v-14.6q0-0.1 0-0.2 0-0.2 0-0.3-0.1-0.1-0.1-0.3 0-0.1-0.1-0.2c-1.8-3.3-5.7-7.2-7.5-7.2h-35.9v30.9h36.1c1.8 0 5.9-3.7 7.3-6.7q0.1-0.2 0.1-0.4 0.1-0.1 0.1-0.3 0-0.2 0-0.4 0.1-0.2 0-0.3zm0 50.5v-14.5q0-0.1 0-0.3 0-0.1 0-0.2 0-0.2-0.1-0.3 0-0.1-0.1-0.2c-1.8-3.3-5.7-7-7.5-7h-35.9v30.7h36.1c1.8 0 5.9-3.7 7.3-6.7q0.1-0.2 0.1-0.4 0.1-0.2 0.1-0.3 0-0.2 0-0.4 0-0.2 0-0.4zm50.6-93.8h21.5v122.5h-21.5zm116.9 122.5l-42.5-81.3v81.3h-21.4v-122.5h23.1l42 82.3v-82.3h21.5v122.5zm138.4-17.4c-2.5 3.6-10.7 12.3-15 14.7q-1.4 0.8-3 1.5-1.5 0.6-3.1 1.1-1.6 0.5-3.3 0.7-1.6 0.3-3.3 0.4h-35.6c-12.1 0-20.6-9.8-26-17q-0.5-0.7-1-1.5-0.5-0.8-0.9-1.6-0.5-0.8-0.9-1.6-0.5-0.8-0.8-1.6l20.2-6.8q0.9 1.3 2 2.6 1 1.2 2.2 2.4 1.1 1.2 2.3 2.3 1.2 1.1 2.5 2.1 0.1 0.1 0.3 0.1 0.2 0.1 0.4 0.1 0.2 0 0.3 0 0.2 0 0.4 0h33.6q0.1 0 0.3 0 0.1 0 0.3 0 0.2 0 0.3-0.1 0.2 0 0.3-0.1c3.1-1.6 9.2-7.8 9.2-9.4v-12.1q0-0.6-0.2-1.2-0.1-0.5-0.5-1-0.3-0.4-0.8-0.8-0.4-0.3-1-0.5l-53.2-15.2c-10.4-2.8-15.9-12.9-15.9-22.2v-11.1q-0.1-1.5 0.1-3.1 0.2-1.5 0.6-3 0.4-1.4 0.9-2.9 0.6-1.4 1.4-2.7 1.6-2.1 3.4-4.1 1.8-2 3.7-3.8 1.9-1.9 3.9-3.6 2-1.7 4.2-3.2 1.4-0.9 3-1.5 1.5-0.7 3.1-1.1 1.6-0.5 3.3-0.8 1.6-0.2 3.3-0.3h30.3c12.3 0 20.7 10.1 26 17q0.6 0.8 1.1 1.7 0.6 0.9 1.1 1.8 0.5 0.9 1 1.8 0.4 0.9 0.8 1.9l-20.6 5.9q-0.9-1.3-1.9-2.6-1.1-1.3-2.2-2.5-1.1-1.2-2.4-2.2-1.2-1.1-2.5-2.1c-0.8-0.7-0.2-0.2-1.2-0.2h-28.9q-0.1 0-0.3 0-0.1 0-0.3 0-0.1 0-0.3 0.1-0.1 0-0.3 0.1c-3.3 1.6-8.8 7.4-8.8 9v10.2q0 0.6 0.1 1.1 0.2 0.6 0.5 1 0.3 0.5 0.7 0.9 0.4 0.3 0.9 0.5l53.5 15.6c10.4 2.8 15.9 13.1 15.9 22.2v12.9q0.1 1.6-0.1 3.1-0.2 1.6-0.6 3.1-0.4 1.5-1 2.9-0.7 1.4-1.5 2.7zm116 0c-2.6 3.4-10.6 12.3-14.9 14.7q-1.4 0.9-3 1.5-1.5 0.7-3.1 1.2-1.6 0.4-3.3 0.7-1.6 0.2-3.3 0.3h-31.1q-1.7 0-3.3-0.3-1.7-0.2-3.3-0.7-1.6-0.5-3.1-1.2-1.6-0.6-3-1.5c-4.3-2.4-12.5-11.3-14.9-14.7q-0.9-1.3-1.5-2.7-0.6-1.4-1.1-2.9-0.4-1.5-0.6-3-0.2-1.6-0.1-3.1v-64.1q-0.1-1.5 0.1-3.1 0.2-1.5 0.6-3 0.5-1.5 1.1-2.9 0.6-1.4 1.5-2.7c2.4-3.5 10.6-12.3 14.9-14.7q1.4-0.9 3-1.6 1.5-0.6 3.1-1.1 1.6-0.5 3.3-0.7 1.6-0.3 3.3-0.3h31.1q1.7 0 3.3 0.3 1.7 0.3 3.3 0.7 1.6 0.5 3.1 1.2 1.6 0.6 3 1.5c4.3 2.4 12.3 11.2 14.9 14.7q0.9 1.3 1.5 2.7 0.6 1.4 1 2.9 0.5 1.5 0.7 3 0.1 1.6 0.1 3.1v64.1q0 1.5-0.1 3.1-0.2 1.5-0.7 3-0.4 1.5-1 2.9-0.6 1.4-1.5 2.7zm-68.1-11.9c0 0 0 0.6 0.2 0.8q0.9 1.3 1.9 2.5 1 1.2 2.2 2.3 1.1 1.2 2.3 2.2 1.3 1 2.6 1.8 0.1 0.1 0.2 0.1 0.2 0.1 0.3 0.1 0.1 0 0.2 0 0.2 0 0.3 0h29.4q0.1 0 0.3 0 0.1 0 0.2 0 0.1-0.1 0.3-0.1 0.1 0 0.2-0.1 1.4-0.8 2.6-1.8 1.2-1 2.4-2.1 1.1-1.1 2.2-2.4 1-1.2 1.9-2.5 0.1-0.1 0.1-0.2 0-0.1 0.1-0.2 0-0.1 0-0.2 0-0.1 0-0.2v-63.3c0 0 0-0.8-0.2-1q-0.9-1.3-1.9-2.6-1-1.2-2.2-2.3-1.1-1.2-2.3-2.2-1.3-1-2.6-1.9-0.1-0.1-0.2-0.1-0.2-0.1-0.3-0.1-0.1 0-0.3 0-0.1 0-0.2 0h-29.5c0 0-0.8 0-1 0.2q-1.3 0.9-2.6 1.9-1.2 1-2.3 2.2-1.2 1.1-2.2 2.3-1 1.3-1.9 2.6-0.1 0.1-0.1 0.2-0.1 0.2-0.1 0.3 0 0.1 0 0.2 0 0.2 0 0.3zm161.7 29.3l-42.5-81.3v81.3h-21.4v-122.5h23.1l42 82.3v-82.3h21.5v122.5z"/>
</svg>