<svg version="1.2" xmlns="http://www.w3.org/2000/svg" viewBox="0 0 1567 502" width="1567" height="502">
	<title>charter-logo-svg</title>
	<defs>
		<clipPath clipPathUnits="userSpaceOnUse" id="cp1">
			<path d="m298.12 0.15h231.48v373.57h-231.48z"/>
		</clipPath>
		<clipPath clipPathUnits="userSpaceOnUse" id="cp2">
			<path d="m0 0.16h1566.06v501.35h-1566.06z"/>
		</clipPath>
	</defs>
	<style>
		.s0 { fill: #00629b } 
		.s1 { fill: #787878 } 
	</style>
	<g id="Layer">
		<g id="Layer">
			<g id="Clip-Path" clip-path="url(#cp1)">
				<path id="Layer" fill-rule="evenodd" class="s0" d="m529.6 210.8v162.9h-45.8v-158.8c0-45.8-24.9-73-66.4-73-42.6 0-73.5 32.5-73.5 77.1v154.7h-45.8v-373.5h45.8v127.4c20.3-19.6 46.1-30 77-30 65.1 0 108.7 45.5 108.7 113.2z"/>
			</g>
		</g>
		<path id="Layer" fill-rule="evenodd" class="s0" d="m782.9 207.7v166h-45.5v-23.7c-17.8 15.5-44.3 29.7-82.3 29.7-51.4 0-105.6-31.3-105.6-89.2v-0.9c0-56 46.5-92.1 118.1-92.1 29.6 0 51.1 3.5 69.5 7.6-1.9-49.6-38.3-60.4-69.2-60.4-24 0-46.7 6-71.3 18.7l-10.9 5.7-17.5-42.4 9.7-4.8c23.4-11 52.6-22.4 91.3-22.4 70.7 0 113.1 40.8 113.7 108.2zm-186 80.6v1c0 30 29.9 45.5 59.5 45.5 46.1 0 81-27.8 81-64.8v-19.3c-18.7-4.4-42.1-8.9-71.7-8.9-43.3 0-69.1 17.4-69.1 46.5 0 0 0.3 0 0.3 0zm355.1-188.8h10.9v49.3h-13.7c-47.3 0-94.7 34.8-94.7 112.6v113h-45.8v-270.8h45.8v42.1c25-30.4 60.5-46.2 97.5-46.2zm171.7 226.1l15.9-7.2v47.1l-6.6 3.2c-14.6 6.6-28.3 9.8-44.5 9.8-49.2 0-79.8-30.4-79.8-79.4v-150.6h-30.8v-49h30.8v-75.3h45.8v75.3h85.7v49h-85.7v148c0 25.3 11.9 36.7 37.7 36.7 10.3 0 18.7-1.9 31.5-7.6z"/>
		<path id="Layer" fill-rule="evenodd" class="s0" d="m1387.2 238.7v0.9l-0.6 10.1-0.6 10.2h-200.3c9 51.5 48 74.9 83.2 74.9 29.6 0 53.5-11.1 75.7-35.1l7.4-8.2 33.1 29.7-7.8 8.6c-21.5 23.4-53.3 50.2-109.4 50.2-74.4 0-130.8-60.4-130.8-140.7v-1c0-79 55.8-140.7 127.1-140.7 72.6 0 123.4 58.2 123 141.1zm-200.6-23.1h151.7c-5.9-37.4-28-73.4-75-73.4-38 0-68.9 30.4-76.7 73.4zm379.5-115.5v48.7h-13.7c-47.4 0-94.8 34.8-94.8 112.6v113h-45.7v-270.8h45.7v42.1c25-30.4 60.2-47.8 97.6-46.2zm-1316.3 197l31.8 32.3-8.7 7.9c-19.9 18.4-53 42.7-109.7 42.7-93.1 0-163.2-80.3-163.2-186.6 0-106.9 70.7-187.6 164.5-187.6 55.4 0 87.2 21.8 106.5 38.3l9.4 7.9-34 34.5-7.8-6.4c-23.3-18.9-46.4-27.5-74.7-27.5-66.7 0-117.2 60.1-117.2 139.8 0 79.1 51.4 140.8 117.2 140.8 29.6 0 53.5-9.2 77.8-29.7z"/>
		<path id="Layer" fill-rule="evenodd" class="s1" d="m27.4 465.1c0-20.2 14.7-36.7 35.8-36.7 12.8 0 20.6 4.5 27.1 11.1l-7.7 9.2c-5.6-5.4-11.6-8.9-19.4-8.9-13 0-23 11.1-23 25v0.3c0 14 9.7 25 23 25 8.5 0 14.1-3.5 20-9.1l7.8 7.9c-7.2 7.6-15.3 12.3-28.1 12.3-20.5 0.3-35.5-15.8-35.5-36.1zm106.9 0c0-19.9 14.9-36.7 36.4-36.7 21.2 0 36.2 16.5 36.2 36.4v0.3c0 20-15 36.4-36.5 36.4-21.2 0-36.1-16.4-36.1-36.4zm59.8 0c0-13.9-10-25.3-23.7-25.3-13.7 0-23.4 11.1-23.4 25v0.3c0 13.6 10 25 23.7 25 13.7 0 23.4-11 23.4-25zm63.5-35.4h-0.3zm12.8 0l21.2 33.2 21.2-33.2h13.1v70.6h-12.2v-50.7l-21.8 33.3h-0.3l-21.8-32.9v50.3h-12.2v-70.6zm109.1 0h-0.4zm12.8 0l21.2 33.2 21.2-33.2h13.1v70.6h-12.2v-50.6l-21.8 33.2h-0.3l-21.8-32.9v50.3h-12.2v-70.6zm107.5 40.8v-40.5h12.2v40.2c0 13 6.5 19.9 17.4 19.9 10.9 0 17.5-6.6 17.5-19.6v-40.5h12.1v39.9c0 21.2-11.8 31.6-29.9 31.6-17.7 0-29.3-10.7-29.3-31zm111.9-40.8h11.2l37 48.7v-48.7h12.2v70.6h-10.3l-38.3-50.3v50.3h-12.1v-70.6z"/>
		<g id="Clip-Path" clip-path="url(#cp2)">
			<path id="Layer" fill-rule="evenodd" class="s1" d="m726.2 429.7h12.1v70.5h-12.1zm63.5 35.5c0-20.3 14.7-36.7 35.9-36.7 12.7 0 20.5 4.4 27.1 11l-7.8 9.2c-5.6-5.4-11.5-8.8-19.3-8.8-13.1 0-23.1 11-23.1 24.9v0.4c0 13.9 9.7 25 23.1 25 8.4 0 14-3.5 19.9-9.2l7.8 7.9c-7.2 7.6-15.3 12.3-28 12.3-20.6 0.3-35.6-15.8-35.6-36zm136.5-35.8h11.2l30.5 70.9h-12.7l-7.2-17.1h-32.7l-7.2 17.1h-12.4zm17.4 43l-12.2-28.2-11.8 28.2zm80.1-31h-22.1v-11.4h56.4v11.4h-22.2v59.2h-12.1zm83.8-11.7h12.1v70.5h-12.1zm63.2 35.4c0-19.9 15-36.7 36.5-36.7 21.2 0 36.1 16.5 36.1 36.4v0.3c0 19.9-14.9 36.4-36.4 36.4-21.2 0-36.2-16.5-36.2-36.4zm59.8 0c0-13.9-9.9-25.3-23.6-25.3-13.7 0-23.4 11.1-23.4 25v0.3c0 13.6 10 25 23.7 25 13.7 0 23.3-11.1 23.3-25zm63.3-35.4h11.2l37.1 48.7v-48.7h12.1v70.5h-10.3l-38.3-50.3v50.3h-12.1v-70.5zm109.3 60.4l7.5-8.9c6.5 5.7 13.4 9.2 21.8 9.2 7.5 0 12.2-3.5 12.2-8.9v-0.3c0-5-2.9-7.9-15.6-10.7-14.7-3.5-23.1-7.9-23.1-21.2v-0.3c0-12.1 10-20.6 23.7-20.6 10 0 18.1 3.2 25.2 8.9l-6.5 9.4c-6.2-4.7-12.5-7.2-18.7-7.2-7.2 0-11.2 3.8-11.2 8.2v0.3c0 5.4 3.1 7.9 16.5 11.1 14.6 3.5 22.1 8.8 22.1 20.5v0.4c0 13.2-10.3 21.1-24.9 21.1-10.6 0-20.6-3.7-29-11z"/>
		</g>
	</g>
</svg>