<svg version="1.2" xmlns="http://www.w3.org/2000/svg" viewBox="0 0 1411 1575" width="1411" height="1575">
	<title>2021-Annual-Report (1)-1-pdf-svg-svg</title>
	<style>
		.s0 { fill: #0073bd } 
		.s1 { fill: #00aeef } 
		.s2 { fill: #98002e } 
		.s3 { fill: #e31837 } 
	</style>
	<path id="Path 8" fill-rule="evenodd" class="s0" d="m202.6 267.6c-10.3 5.2-30.8 12-63.4 12-89.1 0-138.8-59.9-138.8-138.7 0-92.5 63.4-140.5 143.9-140.5 32.6 0 48 5.2 58.3 10.3l-8.6 56.5c-12-5.1-25.7-10.2-46.2-10.2-39.4 0-78.8 22.2-78.8 83.9 0 53.1 32.5 82.2 78.8 82.2 18.8 0 30.8-3.4 46.2-10.3zm301.6-75.3c1.7 25.7 22.2 39.4 54.8 39.4 20.5 0 42.8-5.2 58.2-15.5l8.6 48c-22.3 10.3-49.7 15.4-75.4 15.4-71.9 0-109.6-42.8-109.6-109.6 0-63.4 41.1-104.5 102.8-104.5 63.4 0 92.5 48 92.5 106.2 0 5.1-1.7 15.4-1.7 20.6zm71.9-42.9c0-13.7-6.8-41.1-34.2-41.1-25.7 0-36 22.3-37.7 41.1zm130.2 121.7l-66.8-197h66.8l35.9 138.7 37.7-138.7h65.1l-66.8 197zm157.6-131.9c0-29.2-1.7-48-1.7-65.1h56.6l1.7 37.7c10.3-29.2 29.1-41.2 49.7-41.2 8.5-1.7 13.7 0 18.8 0v58.3c-5.1-1.7-15.4-3.4-24-1.7-22.2 1.7-35.9 18.8-41.1 37.7 0 4.5 0 101.6 0 106.2h-60zm234.8 140.4c-55.9 0-101.1-47.8-101.1-107 0-59.2 45.2-107.1 101.1-107.1 55.9 0 101 47.9 101 107.1 0 59.2-45.1 107-101 107zm39.4-106.2c0-33.1-17.6-59.9-39.4-59.9-21.8 0-39.4 26.8-39.4 59.9 0 33.2 17.6 60 39.4 60 21.8 0 39.4-26.8 39.4-60zm89.1-36q0-37.6-1.8-63.3h56.6l1.7 27.4c8.6-12 29.1-32.6 61.7-32.6 39.4 0 65.1 25.7 65.1 84v118.1h-60v-109.6c0-24-8.6-41.1-30.8-41.1-15.4 0-25.7 10.3-30.9 22.3-1.7 3.4-1.7 10.3-1.7 15.4v113h-59.9zm-813.8 17.2v118.2h-60v-109.7c0-25.7-8.6-42.8-30.8-42.8-20.6 0-32.6 17.1-32.6 34.3v118.2h-60v-250.1l60-22.3v95.9h1.7c12-17.1 34.3-27.4 58.3-27.4 37.7 0 63.4 27.4 63.4 85.7z"/>
	<path id="Path 9" class="s0" d="m706.3 558.8l-704.2 234.7v-469.3z"/>
	<path id="Path 10" class="s1" d="m706.3 558.8l704.1-234.6v469.3l-704.1 234.7-704.2-234.7z"/>
	<path id="Path 11" class="s2" d="m706.3 1103.5l-704.2 234.7v-469.3z"/>
	<path id="Path 12" class="s3" d="m706.3 1103.5l704.1-234.6v469.3l-704.1 236.4-704.2-236.4z"/>
</svg>