<svg version="1.2" xmlns="http://www.w3.org/2000/svg" viewBox="0 0 1664 173" width="1664" height="173">
	<title>CB_BIG-svg</title>
	<defs>
		<clipPath clipPathUnits="userSpaceOnUse" id="cp1">
			<path d="m-2463.85-191.23h4330.72v2728.87h-4330.72z"/>
		</clipPath>
	</defs>
	<style>
		.s0 { fill: #000000 } 
	</style>
	<g id="Clip-Path: Clip-Path: Page 1" clip-path="url(#cp1)">
		<g id="Clip-Path: Page 1">
			<g id="Page 1">
				<path id="Path 23" fill-rule="evenodd" class="s0" d="m34.1 31.5v110.4h201.2v30.7h-190.4c-29.3 0-44-15-44-39.3v-93.3c0-24.3 14.7-39.2 44-39.2h190.4v30.7zm501.7 39.5v-70.2h32.4v171.8h-32.4v-71.4h-173.3v71.4h-32.4v-171.8h32.4v70.2zm380-70.2v132.5c0 24.3-14.8 39.3-44 39.3h-147.7c-29.3 0-44-15-44-39.3v-132.5h32.4v141.1h170.8v-141.1zm111.9 171.8v-171.8h199.5c32 0 46.7 13.2 46.7 36v17.7c0 6.4-2.2 9.3-6.9 13.3l-20.6 17.6 20.6 17.7c4.7 3.9 6.9 6.9 6.9 13.3v20.1c0 22.8-14.7 36.1-46.7 36.1zm32.5-100.9h180.6v-41.7h-180.6zm180.6 28.7h-180.6v43h180.6zm135.9 72.1v-171.8h199.6c32 0 46.7 13.3 46.7 36.1v17.7c0 6.3-2.2 9.3-6.9 13.2l-20.6 17.7 20.6 17.7c4.7 3.9 6.9 6.8 6.9 13.2v20.1c0 22.9-14.7 36.1-46.7 36.1zm32.4-100.9h180.7v-41.7h-180.7zm180.7 28.8h-180.7v42.9h180.7zm70.2-76.6q-4 4.1-9.7 4.1-5.6 0-9.6-4.1-4-4-4-9.7 0-5.6 4-9.6 4-4 9.6-4 5.7 0 9.7 4 4 4 4 9.6 0 5.7-4 9.7zm-18-18q-3.4 3.5-3.4 8.4 0 4.9 3.4 8.3 3.4 3.5 8.3 3.5 4.9 0 8.4-3.5 3.4-3.4 3.4-8.3 0-4.9-3.4-8.4-3.5-3.4-8.4-3.4-4.8 0-8.3 3.4zm8.1 0.8q2.8 0 4.1 0.6 2.3 0.9 2.3 3.7 0 2-1.5 3-0.7 0.5-2.1 0.7 1.7 0.3 2.5 1.5 0.9 1.2 0.9 2.3v1.1q0 0.5 0 1.1 0 0.6 0.1 0.8l0.1 0.2h-2.5q0-0.1 0-0.1 0-0.1 0-0.2l-0.1-0.5v-1.2q0-2.6-1.4-3.4-0.8-0.5-3-0.5h-2v5.9h-2.7v-15zm2.9 2.4q-1-0.6-3.2-0.6h-2.3v5.4h2.4q1.7 0 2.5-0.3 1.6-0.6 1.6-2.3 0-1.7-1-2.2z"/>
			</g>
		</g>
	</g>
</svg>