<svg version="1.2" xmlns="http://www.w3.org/2000/svg" viewBox="0 0 1510 805" width="1510" height="805">
	<title>cigna-logo-svg</title>
	<style>
		.s0 { fill: none } 
		.s1 { fill: #0033ff } 
		.s2 { fill: #03cc54 } 
	</style>
	<g id="Layer">
		<path id="Layer" class="s0" d="m1430.3 746.4c-9.5 0-16.2 7.3-17.6 17.8h34.8c-1.1-10-7-17.8-17.2-17.8z"/>
		<path id="Layer" class="s0" d="m967.9 782.4v0.2c0 6.4 5.7 10 13.1 10 10.2 0 17.9-5.8 17.9-14.2v-3.9c-3.9-1.6-9.5-2.7-15.5-2.7-9.8 0-15.5 4-15.5 10.6z"/>
		<path id="Layer" class="s0" d="m1294.9 405.1c-52.4 0-74.2 51.8-74.2 114.8 0 62.9 21.8 114.7 74.2 114.7 52.3 0 74.1-51.7 74.1-114.7 0.1-63-21.7-114.8-74.1-114.8z"/>
		<path id="Layer" class="s0" d="m606.4 766.3c48.6 0 75.6-28.7 75.6-56.8 0-22.3-13.5-44.1-52.8-44.1h-65.7c-17 8.7-28.7 29.4-28.7 49.9 0 30.5 25.8 51 71.6 51z"/>
		<path id="Layer" class="s0" d="m908.8 746.4c-9.5 0-16.2 7.3-17.6 17.8h34.8c-1-10-7-17.8-17.2-17.8z"/>
		<path id="Layer" class="s0" d="m603.4 402.3c-32.8 0-53.9 27.6-53.9 73.3 0 45.7 21.1 73.3 53.9 73.3 32.3 0 53.4-27.6 53.4-73.3 0-45.8-21.1-73.3-53.4-73.3z"/>
		<path id="Layer" class="s0" d="m1285.6 782.4v0.2c0 6.4 5.8 10 13.1 10 10.3 0 18-5.8 18-14.2v-3.9c-4-1.6-9.5-2.7-15.5-2.7-9.8 0-15.6 4-15.6 10.6z"/>
		<path id="Layer" class="s1" d="m836.6 733.7c-10.6 0-16.8 5.5-21.2 11.9v-36.4h-15.5v93.7h15.5v-38.3c0-10.5 6.3-16.8 15.3-16.8 9.2 0 14.5 6.1 14.5 16.6v38.5h15.5v-43.2c0-15.8-8.8-26-24.1-26z"/>
		<path id="Layer" fill-rule="evenodd" class="s1" d="m941.4 770.2c0 1.4-0.1 2.8-0.3 4.3h-49.8c1.7 11.1 9.5 17.2 19.5 17.2 7.6 0 13-2.8 18.4-8l9.1 8c-6.4 7.7-15.3 12.7-27.7 12.7-19.7 0-34.8-14.2-34.8-35.1v-0.3c0-19.4 13.7-35.3 33.1-35.3 21.6 0 32.5 16.9 32.5 36.5zm-15.4-6c-1.1-10-7-17.8-17.2-17.8-9.5 0-16.2 7.3-17.6 17.8z"/>
		<path id="Layer" class="s1" d="m936.6 647.3c0-13-4.7-13.7-4.7-13.7h-7.1c-11.8 0-23.5-11.8-23.5-23.6v-119.5c0-48.3 28.8-77.1 65.9-77.1 31.8 0 55.3 17.6 55.3 56.5v140.1c0 11.8-11.7 23.6-23.5 23.6h-7.1c0 0-4.7 1.2-4.7 13.2 0 12 4.7 18.5 4.7 18.5h138.9c0 0 4.7-5.2 4.7-17.2 0-12-4.7-14.5-4.7-14.5h-7c-11.8 0-23.6-11.8-23.6-23.5v-143.1c0-67.7-42.4-100.6-103.6-100.6-45.3 0-80.1 21.1-101.3 52.3 0 0-0.1-30.8-0.1-34.6 0-10-9.7-13.6-21.3-8.9-7.8 3.2-47.4 17.1-80.9 17.1-1.9 2.5-4.8 7.5-4.8 15.7 0 7.2 1.7 10.9 4.7 15.9h7.1c11.8 0 23.5 11.8 23.5 23.5v162.6c0 11.8-11.7 23.6-23.5 23.6h-7.1c0 0-4.7 0.7-4.7 13.4 0 12.8 4.7 18.2 4.7 18.2h138.9c0.1 0.1 4.8-4.9 4.8-17.9z"/>
		<path id="Layer" fill-rule="evenodd" class="s1" d="m679.8 387.8h78.2c2 2.9 4.6 10.6 4.6 17.7 0 9-2.4 14.5-4.7 18.4h-42.8c9.2 15.3 14.5 32.9 14.5 51.6 0 60.4-54 109.7-126.1 109.7-17.6 0-27.6-1.8-39.9-5.9l-21.7 29.4h110.8c73.4 0 102.7 33.3 102.7 82.6 0 69.1-77.4 113.1-160.7 113.1-82.7 0-119.7-34.6-119.7-76.8 0-21.7 11.8-47 37.6-62.3h-35.1c0 0-7.2-7.6-7.2-18.9 0-11.3 6.3-22.7 6.3-22.7l49.4-61.4c-28.1-18.7-48.6-49.2-48.6-86.7 0-61 53.3-109.6 126-109.6 29 0 55.3 8.1 76.4 21.8zm-145 327.6c0 30.5 25.9 51 71.6 51 48.7 0 75.6-28.7 75.6-56.9 0-22.2-13.5-44.1-52.7-44.1h-65.7c-17 8.8-28.8 29.5-28.8 50zm122-239.8c0-45.7-21.1-73.2-53.4-73.2-32.8 0-53.9 27.5-53.9 73.2 0 45.8 21.1 73.3 53.9 73.3 32.3 0 53.4-27.5 53.4-73.3z"/>
		<path id="Layer" class="s1" d="m260.1 566.8c-9.4-3.3-17.2-0.4-17.2-0.4-21.8 37.9-41.5 55.3-72.2 55.3-55.3 0-90.6-50-90.6-109.4 0-55.4 24.7-109.5 81.8-109.5 35.9 0 63.5 22.4 63.5 56.5l0.8 10.6c0 0-1.1 4.7 13.9 4.7 14.9 0 19-4.7 19-4.7l-3-77.1c0 0-0.3-2-1.4-3.4-1-1.4-2.7-2.5-2.7-2.5-23-12.9-53.6-20.6-89.5-20.6-84.2 0-162.5 56.5-162.5 158.3 0 91.2 68.9 148.9 147.8 148.9 74.2 0 108.6-46.5 123.9-98.3 0 0-4.2-5.8-11.6-8.4z"/>
		<path id="Layer" class="s1" d="m365.6 345.4c-26.9 0-48.7-22.3-48.7-49.9 0-27.7 21.8-50 48.7-50 26.9 0 48.7 22.3 48.7 50 0 27.6-21.8 49.9-48.7 49.9z"/>
		<path id="Layer" class="s1" d="m404.5 436.8c0-11.8 11.8-23.6 23.5-23.6h7.1c0 0 4.7-3 4.7-14.4 0-11.4-4.7-17.3-4.7-17.3h-138.9c0 0-4.7 7.2-4.7 18.3 0 11.1 4.7 13.4 4.7 13.4h7c11.8 0 23.6 11.8 23.6 23.6v117.6 55.6c0 11.8-11.8 23.6-23.6 23.6h-7c0 0-4.7 2.3-4.7 13.4 0 11.1 4.7 18.2 4.7 18.2h138.9c0 0 4.7-5.8 4.7-17.3 0-11.4-4.7-14.3-4.7-14.3h-7.1c-11.7 0-23.5-11.8-23.5-23.6v-40.5z"/>
		<path id="Layer" fill-rule="evenodd" class="s1" d="m1331.7 762.7v40.2h-15.4v-8.3c-4.6 5.5-11.7 9.7-21.9 9.7-12.9 0-24.2-7.3-24.2-20.9v-0.3c0-15 11.7-22.2 27.5-22.2 8.2 0 13.5 1.2 18.8 2.8v-1.3c0-9.3-5.9-14.5-16.7-14.5-7.6 0-13.3 1.7-19.4 4.3l-4.3-12.5c7.5-3.3 14.8-5.7 25.9-5.7 20 0 29.7 10.6 29.7 28.7zm-15 11.8c-4-1.5-9.5-2.7-15.5-2.7-9.8 0-15.6 4-15.6 10.6v0.2c0 6.4 5.8 10 13.1 10 10.3 0 18-5.8 18-14.2 0 0 0-3.9 0-3.9z"/>
		<path id="Layer" class="s1" d="m1365.8 750.4v-15.3h-15.5v67.8h15.5v-25.8c0-18 9.5-26.8 23.1-26.8h0.9v-16.5c-12-0.5-19.8 6.4-24 16.6z"/>
		<path id="Layer" fill-rule="evenodd" class="s1" d="m1477.4 636.4l-81.2 34.7c0 0-6.2 2.6-14.3 0.8-9-2-9.3-10-9.3-10v-35c-21.8 28.3-49.5 46.5-93 46.5-76.6 0-139-55.9-139-150.6 0-101.2 72.4-156.5 148.4-156.5 50.6 0 78.7 24.1 95.4 43.8 0 0 3.4 3.8 6.3 0l25-32.6c0 0 2.7-3 6.2-3h17.9c6.5 0 7 6.1 7 6.1v206.9c0 11.8 11.7 23.6 23.5 23.6h7.1c0 0 4.7 2.7 4.7 11.9 0 9.1-4.7 13.4-4.7 13.4zm0 0q0 0 0 0zm-108.4-116.5c0-63-21.8-114.8-74.1-114.8-52.4 0-74.2 51.8-74.2 114.8 0 63 21.8 114.7 74.2 114.7 52.4 0 74.2-51.7 74.1-114.7z"/>
		<g id="Layer">
			<path id="Layer" class="s1" d="m1480.3 746.8l-3.6-0.9q-2.2-0.5-2.8-0.9-1-0.5-1-1.7 0-1.2 1-1.9c0.7-0.4 1.6-0.7 2.7-0.7q1.6 0 2.6 0.5 1.6 0.8 1.7 2.7h4.2q-0.1-3.3-2.4-5.1-2.4-1.8-5.8-1.8-4 0-6.1 1.9-2 1.9-2 4.7 0 3.1 2.1 4.6 1.3 0.9 4.6 1.7l2.3 0.5q1.9 0.4 2.9 0.9 0.9 0.6 0.9 1.7 0 1.8-1.8 2.4-1 0.4-2.6 0.4-2.6 0-3.7-1.3-0.6-0.8-0.8-2.2h-4.2q0 3.3 2.4 5.2 2.3 1.9 6.5 1.9 4 0 6.3-1.9c1.5-1.3 2.2-2.9 2.2-4.8q0-2.9-1.9-4.4c-0.9-0.6-2.1-1.2-3.7-1.5z"/>
			<path id="Layer" class="s1" d="m1503.2 737.6l-3.8 16.7-3.9-16.7h-6.4v21.2h4.1v-14.3q0-0.6 0-1.7 0-1.2 0-1.8l4 17.8h4.3l4-17.8q0 0.6 0 1.8 0 1.1 0 1.7v14.3h4.1v-21.2z"/>
		</g>
		<path id="Layer" fill-rule="evenodd" class="s1" d="m1013.9 762.7v40.2h-15.4v-8.3c-4.6 5.5-11.7 9.7-21.9 9.7-12.9 0-24.2-7.3-24.2-20.9v-0.3c0-15 11.7-22.2 27.5-22.2 8.2 0 13.5 1.2 18.8 2.8v-1.3c0-9.3-5.9-14.5-16.7-14.5-7.6 0-13.2 1.7-19.4 4.3l-4.2-12.5c7.4-3.3 14.7-5.7 25.8-5.7 20 0 29.8 10.6 29.7 28.7zm-15 11.8c-4-1.5-9.5-2.7-15.5-2.7-9.8 0-15.5 4-15.5 10.6v0.2c0 6.4 5.7 10 13.1 10 10.2 0 17.9-5.8 17.9-14.2 0 0 0-3.9 0-3.9z"/>
		<path id="Layer" fill-rule="evenodd" class="s1" d="m1462.9 770.2c0 1.4-0.2 2.8-0.3 4.3h-49.8c1.6 11.1 9.5 17.2 19.5 17.2 7.6 0 13-2.8 18.4-8l9.1 8c-6.4 7.7-15.3 12.7-27.8 12.7-19.6 0-34.8-14.2-34.8-35.1v-0.3c0-19.4 13.8-35.3 33.2-35.3 21.6 0 32.5 16.9 32.5 36.5zm-15.4-6c-1.1-10-7-17.8-17.3-17.8-9.5 0-16.1 7.3-17.5 17.8z"/>
		<path id="Layer" class="s1" d="m1233.6 790.9c-11.9 0-20.3-9.7-20.3-21.8v-0.2c0-11.8 8.3-21.6 19.6-21.6 7.8 0 12.8 3.5 17.5 8.5l9.7-10.4c-6.3-7-14.3-11.7-27.1-11.7-20.3 0-35.2 16.2-35.2 35.4v0.3c0 19.2 14.9 35 35 35 13.2 0 21.1-5.3 27.8-12.7l-9.4-9.2c-4.9 5-10.3 8.4-17.6 8.4z"/>
		<path id="Layer" class="s1" d="m1033.4 709.2h15.5v93.7h-15.5z"/>
		<path id="Layer" class="s1" d="m1087.9 716.5h-15.5v18.6h-8.6v13.3h8.6v35.7c0 14.9 8.1 19.9 19.5 19.9 5.8 0 10.2-1.3 14-3.4v-12.8c-3.1 1.6-6.1 2.4-9.6 2.4-5.3 0-8.3-2.5-8.3-8.5v-33.3h18.2v-13.3h-18.2c0 0 0-18.6-0.1-18.6z"/>
		<path id="Layer" class="s1" d="m1158.6 733.7c-10.5 0-16.8 5.5-21.2 11.9v-36.4h-15.5v93.7h15.5v-38.3c0-10.5 6.3-16.8 15.3-16.8 9.2 0 14.5 6.1 14.5 16.6v38.5h15.5v-43.2c0-15.8-8.8-26-24.1-26z"/>
		<path id="Layer" fill-rule="evenodd" class="s2" d="m329.6 125.1c0-31.4 14.2-59.4 36.4-78.1 22.2 18.8 36.3 46.9 36.2 78.3-0.1 31.3-14.2 59.3-36.5 78.1-22.1-18.9-36.2-46.9-36.1-78.3zm158.6-124.4c10.1 19.7 11.8 43.5 2.7 65.4-9.2 22-27.3 37.5-48.3 44.3-10.1-19.7-11.8-43.5-2.6-65.4 9.1-22 27.2-37.6 48.2-44.3zm-244.4-0.5c21 6.8 39 22.4 48.1 44.4 9 22 7.2 45.8-2.9 65.4-21-6.8-39-22.4-48.1-44.4-9.1-22-7.3-45.8 2.9-65.4zm-173.3 172.4c19.6-10 43.4-11.7 65.4-2.6 22 9.2 37.5 27.2 44.2 48.3-19.6 10-43.4 11.7-65.4 2.6-22-9.2-37.5-27.3-44.2-48.3zm590.3 1.3c-6.8 21-22.4 39-44.4 48.1-22.1 9.1-45.8 7.3-65.5-2.9 6.8-21 22.4-39 44.5-48 22-9.1 45.7-7.3 65.4 2.8zm-46.8 122.2c-18.9 22.2-47 36.3-78.4 36.2-31.4 0-59.4-14.2-78.2-36.4 18.9-22.2 47-36.3 78.4-36.2 31.4 0.1 59.4 14.2 78.2 36.4zm-72.3-175.9c2.3 29-7.6 58.8-29.9 81-22.2 22.1-52.1 31.9-81.1 29.5-2.3-29 7.6-58.8 29.9-81 22.2-22.1 52-31.9 81.1-29.5zm-267.6 175.7c-18.8 22.2-46.9 36.4-78.3 36.4-31.3 0.1-59.4-14-78.3-36.2 18.8-22.2 46.8-36.3 78.2-36.4 31.4-0.1 59.5 14 78.4 36.2zm26.6-65.2c-29 2.4-58.8-7.4-81.1-29.5-22.2-22.2-32.1-52-29.8-81 29-2.4 58.9 7.4 81.1 29.5 22.3 22.2 32.2 51.9 29.8 81z"/>
	</g>
</svg>