<svg version="1.2" xmlns="http://www.w3.org/2000/svg" viewBox="0 0 1569 586" width="1569" height="586">
	<title>cintas-logo-svg</title>
	<style>
		.s0 { fill: #c3002f } 
		.s1 { fill: #022169 } 
	</style>
	<g id="Layer">
		<g id="Layer">
			<path id="Layer" fill-rule="evenodd" class="s0" d="m0.8 504h30.6q6 0 11.4 1.1 5.5 1.2 9.5 3.9 4.1 2.8 6.5 7.4 2.4 4.6 2.4 11.6 0 8.3-4.3 14.2-4.4 5.9-12.8 7.4l20.1 33.4h-20.9l-16.5-31.6h-8.6v31.6h-17.4c0 0 0-79 0-79zm17.4 32.7h10.3q2.3 0 5-0.2 2.6-0.2 4.7-1 2.1-0.8 3.5-2.6 1.4-1.8 1.4-5 0-3.1-1.2-4.8-1.2-1.8-3.1-2.8-1.9-0.9-4.4-1.3-2.5-0.3-4.8-0.3h-11.4c0 0 0 18 0 18z"/>
			<path id="Layer" class="s0" d="m76.2 504h53.7v16h-36.3v14.8h34.3v16.1h-34.3v16.1h38.3v16h-55.7z"/>
			<path id="Layer" fill-rule="evenodd" class="s0" d="m175 504h14.4l34.4 79h-19.7l-6.8-16.7h-30.7l-6.6 16.7h-19.2zm6.7 23l-9.6 24.6h19.3z"/>
			<path id="Layer" fill-rule="evenodd" class="s0" d="m232.8 504h26.2q9.5 0 18 2.1 8.6 2.1 14.9 6.8 6.4 4.8 10.1 12.4 3.8 7.6 3.8 18.4 0 9.6-3.7 16.9-3.6 7.4-9.7 12.3-6.2 5-14.2 7.6-8.1 2.5-16.9 2.5h-28.5c0 0 0-79 0-79zm17.5 62.9h9q6 0 11.2-1.2 5.2-1.2 9-4.1 3.8-2.8 6-7.4 2.2-4.7 2.2-11.4 0-5.8-2.2-10.1-2.2-4.3-5.9-7.1-3.7-2.8-8.6-4.2-5-1.4-10.5-1.4h-10.3c0 0 0 46.9 0.1 46.9z"/>
			<path id="Layer" class="s0" d="m331.7 549.3l-29.7-45.3h21.7l16.7 29.6 17.8-29.6h20.6l-29.7 45.3v33.7h-17.4c0 0 0-33.7 0-33.7z"/>
			<path id="Layer" class="s0" d="m425.1 504h53v16h-35.6v16.1h32.9v16.1h-32.9v30.8h-17.4c0 0 0-79 0-79z"/>
			<path id="Layer" fill-rule="evenodd" class="s0" d="m486.8 543.5q0-9.5 3.2-17.2 3.2-7.7 8.9-13.1 5.7-5.4 13.5-8.3 7.8-3 17.1-3 9.2 0 17 3 7.9 2.9 13.6 8.3 5.7 5.4 8.8 13.1 3.2 7.7 3.2 17.2 0 9.5-3.2 17.2-3.1 7.7-8.8 13.1-5.7 5.4-13.6 8.3-7.8 2.9-17 2.9-9.3 0-17.1-2.9-7.8-2.9-13.5-8.3-5.7-5.4-8.9-13.1-3.2-7.7-3.2-17.2zm18.1 0q0 5.6 1.7 10.2 1.8 4.6 5 8.1 3.2 3.4 7.8 5.3 4.5 1.9 10.1 1.9 5.5 0 10.1-1.9 4.5-1.9 7.7-5.3 3.3-3.5 5-8.1 1.7-4.6 1.7-10.2 0-5.5-1.7-10.2-1.7-4.7-5-8.1-3.2-3.4-7.7-5.3-4.6-1.9-10.1-1.9-5.6 0-10.1 1.9-4.6 1.9-7.8 5.3-3.3 3.4-5 8.1-1.7 4.7-1.7 10.2z"/>
			<path id="Layer" fill-rule="evenodd" class="s0" d="m583.9 504h30.6q6 0 11.4 1.1 5.4 1.2 9.5 3.9 4.1 2.8 6.5 7.4 2.4 4.6 2.4 11.6 0 8.3-4.4 14.2-4.3 5.9-12.7 7.4l20.1 33.4h-20.9l-16.5-31.6h-8.6v31.6h-17.4c0 0 0-79 0-79zm17.4 32.7h10.3q2.3 0 4.9-0.2 2.7-0.2 4.8-1 2.1-0.8 3.5-2.6 1.4-1.8 1.4-5 0-3.1-1.2-4.8-1.3-1.8-3.2-2.8-1.9-0.9-4.3-1.3-2.5-0.3-4.8-0.3h-11.4c0 0 0 18 0 18z"/>
			<path id="Layer" class="s0" d="m711.3 519.4h-22.6v-15.4h62.6v15.4h-22.6v63.6h-17.4z"/>
			<path id="Layer" class="s0" d="m761.6 504h17.5v29.4h33.8v-29.4h17.4v79h-17.4v-34.1h-33.8v34.1h-17.5z"/>
			<path id="Layer" class="s0" d="m844.2 504h53.7v16h-36.3v14.8h34.3v16.1h-34.3v16.1h38.3v16h-55.7c0 0 0-79 0-79z"/>
			<path id="Layer" class="s0" d="m945.4 504h19l12.6 50.7h0.2l16.5-50.7h16.2l16.4 52h0.3l13.3-52h17.6l-23.1 79h-15.5l-17.5-54.7h-0.2l-17.4 54.7h-15z"/>
			<path id="Layer" fill-rule="evenodd" class="s0" d="m1059.2 543.5q0-9.5 3.1-17.2 3.2-7.7 8.9-13.1 5.7-5.4 13.5-8.3 7.9-3 17.1-3 9.3 0 17.1 3 7.8 2.9 13.5 8.3 5.7 5.4 8.9 13.1 3.2 7.7 3.2 17.2 0 9.5-3.2 17.2-3.2 7.7-8.9 13.1-5.7 5.4-13.5 8.3-7.8 2.9-17.1 2.9-9.2 0-17.1-2.9-7.8-2.9-13.5-8.3-5.7-5.4-8.9-13.1-3.1-7.7-3.1-17.2zm18.1 0q-0.1 5.6 1.7 10.2 1.7 4.6 5 8.1 3.2 3.4 7.7 5.3 4.5 1.9 10.1 1.9 5.6 0 10.1-1.9 4.5-1.9 7.8-5.3 3.2-3.5 5-8.1 1.7-4.6 1.7-10.2 0-5.5-1.7-10.2-1.8-4.7-5-8.1-3.2-3.4-7.8-5.3-4.5-1.9-10.1-1.9-5.6 0-10.1 1.9-4.5 1.9-7.7 5.3-3.3 3.4-5 8.1-1.7 4.7-1.7 10.2z"/>
			<path id="Layer" fill-rule="evenodd" class="s0" d="m1156.2 504h30.6q6 0 11.5 1.1 5.4 1.2 9.5 3.9 4 2.8 6.4 7.4 2.4 4.6 2.4 11.6 0 8.3-4.3 14.2-4.4 5.9-12.8 7.4l20.2 33.4h-20.9l-16.6-31.6h-8.6v31.6h-17.4c0 0 0-79 0-79zm17.4 32.7h10.3q2.4 0 5-0.2 2.6-0.2 4.7-1 2.2-0.8 3.6-2.6 1.3-1.8 1.3-5 0-3.1-1.2-4.8-1.2-1.8-3.1-2.8-1.9-0.9-4.4-1.3-2.4-0.3-4.8-0.3h-11.4c0 0 0 18 0 18z"/>
			<path id="Layer" class="s0" d="m1231.6 504h17.4v32.8l30.7-32.8h22.8l-35.2 36.7 38.2 42.3h-24.3l-32.2-37.5v37.5h-17.4c0 0 0-79 0-79z"/>
			<path id="Layer" fill-rule="evenodd" class="s0" d="m1314.6 504h26.1q9.5 0 18 2.1 8.6 2.1 14.9 6.8 6.4 4.8 10.2 12.4 3.7 7.6 3.7 18.4 0 9.6-3.6 16.9-3.7 7.4-9.8 12.3-6.2 5-14.2 7.6-8 2.5-16.9 2.5h-28.4c0 0 0-79 0-79zm17.4 62.9h9q6.1 0 11.2-1.2 5.2-1.2 9-4.1 3.8-2.8 6-7.4 2.2-4.7 2.2-11.4 0-5.8-2.2-10.1-2.2-4.3-5.9-7.1-3.6-2.8-8.6-4.2-5-1.4-10.5-1.4h-10.2c0 0 0 46.9 0 46.9z"/>
			<path id="Layer" fill-rule="evenodd" class="s0" d="m1420.8 504h14.4l34.4 79h-19.7l-6.8-16.7h-30.7l-6.6 16.7h-19.2zm6.7 23l-9.6 24.6h19.3z"/>
			<path id="Layer" class="s0" d="m1482.9 549.3l-29.7-45.3h21.7l16.7 29.6 17.8-29.6h20.6l-29.7 45.3v33.7h-17.4c0 0 0-33.7 0-33.7z"/>
		</g>
		<g id="Layer">
			<path id="Layer" fill-rule="evenodd" class="s1" d="m1425.7 438c-19.8 0-35.7-15.8-35.7-35.3 0-19.5 15.9-35.3 35.7-35.3 19.7 0 35.7 15.8 35.7 35.3 0 19.5-16 35.3-35.7 35.3zm28.6-35.3c0-16.3-12.8-29.4-28.6-29.4-15.9 0-28.7 13.1-28.7 29.4 0 16.2 12.8 29.4 28.7 29.4 15.8 0 28.6-13.2 28.6-29.4zm-36 20.3h-6.1v-40.6h15.4c9.7 0 14.4 3.5 14.4 11.5 0 7.3-4.6 10.4-10.5 11.2l11.6 17.9h-7l-10.7-17.6h-7.1zm7.4-22.9c5.2 0 9.9-0.3 9.9-6.6 0-5.1-4.6-6-8.9-6h-8.4v12.6z"/>
			<path id="Layer" class="s1" d="m332.1 222.2c-26.9-18.5-41.5-28.9-77.1-28.9-43.3 0-78.4 38.4-78.4 85.8 0 47.4 35.1 85.7 78.4 85.7 34 0 42.5-3.3 78.6-27.6v85.1c-23.2 11.7-50.7 18.3-78.6 18.3-92.5 0-167.5-72.3-167.5-161.5 0-89.2 75-161.5 167.5-161.5 27.7 0 54 6.5 77.1 18z"/>
			<path id="Layer" class="s1" d="m360.1 122.2h83.9v312.2h-83.9z"/>
			<ellipse id="Layer" class="s1" cx="402" cy="58.3" rx="47.5" ry="47.5"/>
			<path id="Layer" class="s1" d="m1386.2 330.5c0 74.7-63 111.2-125.1 111.2-62.2 0-117.6-27.2-147-106.2l-46.4-129-34.4 101.6h50.4l22.4 65.5h-93.8l-19.4 60.8h-167.7v-240h-36.8v240h-81.7l-145.9-189.5v189.5h-83.9v-312.2h83.9v0.2l143.6 186v-186.2h270.3v72.2h-65.5v225.2l158.5-418.8 124.4 315.4c21 45.4 56.4 49.6 70.7 49.6 44.1 0 44-46 11.7-57.2-16.2-5.5-20.2-7.2-47.3-17.1-30.7-11.3-57-48.6-56.9-82.5 0.2-48.2 33.8-96 99.2-96 24.3 0 39.5 3.3 68.8 12.3v74.2c-15.1-10.1-32.3-19.3-54.5-19.3-30.1 0-44.9 30.9-4.3 47.6 5.1 2.1 36.2 11.3 47.4 15.8 28 11.4 59.3 33.4 59.3 86.9z"/>
		</g>
		<path id="Layer" fill-rule="evenodd" class="s0" d="m1553.2 533.8c-8.5 0-15.4-6.8-15.4-15.2 0-8.5 6.9-15.3 15.4-15.3 8.6 0 15.5 6.8 15.5 15.3 0 8.4-6.9 15.2-15.5 15.2zm12.4-15.3c0-7-5.5-12.6-12.4-12.6-6.8 0-12.4 5.6-12.4 12.6 0 7.1 5.6 12.7 12.4 12.7 6.9 0 12.4-5.6 12.4-12.7zm-15.6 8.8h-2.6v-17.5h6.7c4.1 0 6.2 1.5 6.2 5 0 3.1-2 4.5-4.6 4.8l5 7.7h-3l-4.6-7.6h-3c0 0 0 7.6-0.1 7.6zm3.2-9.8c2.3 0 4.3-0.2 4.3-2.9 0-2.2-2-2.6-3.8-2.6h-3.7v5.5z"/>
	</g>
</svg>