<svg version="1.2" baseProfile="tiny-ps" xmlns="http://www.w3.org/2000/svg" viewBox="0 0 1616 853" width="1616" height="853">
	<title>Cisco_logo_blue_2016-svg</title>
	<style>
		tspan { white-space:pre }
		.shp0 { fill: #049fd9 } 
	</style>
	<path id="path10" fill-rule="evenodd" class="shp0" d="M796.63 630.4C795.57 630.07 765.74 621.83 741.24 621.83C712.83 621.83 697.4 631.34 697.4 644.85C697.4 661.94 718.22 667.91 729.89 671.59L749.43 677.81C795.42 692.43 816.37 723.94 816.37 758.15C816.37 828.7 754.34 852.39 700.12 852.39C662.42 852.39 627.13 845.47 623.64 844.72L623.64 780.1C629.9 781.68 659.59 790.54 690.56 790.54C725.81 790.54 742.02 780.23 742.02 764.32C742.02 750.09 727.99 741.87 710.42 736.34C706.12 734.92 699.68 732.9 695.3 731.45C655.82 718.98 622.92 695.79 622.92 649.3C622.92 596.77 662.25 561.5 727.56 561.5C762.06 561.5 794.52 569.87 796.63 570.45L796.63 630.4ZM1470.55 706.95C1470.55 787.29 1408.52 852.39 1322.16 852.39C1235.8 852.39 1173.86 787.29 1173.86 706.95C1173.86 626.74 1235.8 561.59 1322.16 561.59C1408.52 561.59 1470.55 626.74 1470.55 706.95ZM1322.16 633.1C1280.13 633.1 1248.91 666.17 1248.91 706.95C1248.91 747.81 1280.13 780.87 1322.16 780.87C1364.16 780.87 1395.45 747.81 1395.45 706.95C1395.45 666.17 1364.16 633.1 1322.16 633.1ZM527.9 847.4L457.04 847.4L457.04 566.56L527.9 566.56L527.9 847.4Z" />
	<path id="path12" class="shp0" d="M359.63 571.65C352.98 569.68 328.36 561.59 295.02 561.59C208.79 561.59 145.49 623.08 145.49 706.95C145.49 797.44 215.37 852.39 295.02 852.39C326.67 852.39 350.83 844.9 359.63 842.4L359.63 767.01C356.59 768.7 333.43 781.92 300.1 781.92C252.9 781.92 222.45 748.69 222.45 706.95C222.45 663.94 254.21 632.04 300.1 632.04C334 632.04 356.78 645.55 359.63 647.04" />
	<path id="path12" class="shp0" d="M1099.25 571.65C1092.6 569.68 1067.98 561.59 1034.64 561.59C948.41 561.59 885.11 623.08 885.11 706.95C885.11 797.44 954.99 852.39 1034.64 852.39C1066.29 852.39 1090.45 844.9 1099.25 842.4L1099.25 767.01C1096.21 768.7 1073.05 781.92 1039.72 781.92C992.52 781.92 962.07 748.69 962.07 706.95C962.07 663.94 993.83 632.04 1039.72 632.04C1073.62 632.04 1096.4 645.55 1099.25 647.04" />
	<g id="g22">
		<path id="path16" class="shp0" d="M456.83 35.61C456.83 16.25 441.02 0.55 421.64 0.55C402.27 0.55 386.46 16.25 386.46 35.61L386.46 408.53C386.46 428 402.27 443.69 421.64 443.69C441.02 443.69 456.83 428 456.83 408.53L456.83 35.61ZM263.59 167.99C263.59 148.64 247.79 132.92 228.41 132.92C209.03 132.92 193.23 148.64 193.23 167.99L193.23 338.48C193.23 357.94 209.03 373.64 228.41 373.64C247.79 373.64 263.59 357.94 263.59 338.48L263.59 167.99ZM70.36 264.75C70.36 245.39 54.55 229.7 35.18 229.7C15.82 229.7 0 245.39 0 264.75L0 338.48C0 357.94 15.82 373.64 35.18 373.64C54.55 373.64 70.36 357.94 70.36 338.48" />
		<path id="path16" class="shp0" d="M386.46 35.61C386.46 16.25 402.27 0.55 421.65 0.55C441.02 0.55 456.83 16.25 456.83 35.61L456.83 408.53C456.83 428 441.02 443.69 421.65 443.69C402.27 443.69 386.46 428 386.46 408.53L386.46 35.61ZM579.7 167.99C579.7 148.64 595.5 132.92 614.88 132.92C634.26 132.92 650.06 148.64 650.06 167.99L650.06 338.48C650.06 357.94 634.26 373.64 614.88 373.64C595.5 373.64 579.7 357.94 579.7 338.48L579.7 167.99ZM772.93 264.75C772.93 245.39 788.74 229.7 808.11 229.7C827.47 229.7 843.29 245.39 843.29 264.75L843.29 338.48C843.29 357.94 827.47 373.64 808.11 373.64C788.74 373.64 772.93 357.94 772.93 338.48" />
	</g>
	<g id="g22">
		<path id="path16" class="shp0" d="M1159.17 35.61C1159.17 16.25 1174.98 0.55 1194.36 0.55C1213.73 0.55 1229.54 16.25 1229.54 35.61L1229.54 408.53C1229.54 428 1213.73 443.69 1194.36 443.69C1174.98 443.69 1159.17 428 1159.17 408.53L1159.17 35.61ZM1352.41 167.99C1352.41 148.64 1368.21 132.92 1387.59 132.92C1406.97 132.92 1422.77 148.64 1422.77 167.99L1422.77 338.48C1422.77 357.94 1406.97 373.64 1387.59 373.64C1368.21 373.64 1352.41 357.94 1352.41 338.48L1352.41 167.99ZM1545.64 264.75C1545.64 245.39 1561.45 229.7 1580.82 229.7C1600.18 229.7 1616 245.39 1616 264.75L1616 338.48C1616 357.94 1600.18 373.64 1580.82 373.64C1561.45 373.64 1545.64 357.94 1545.64 338.48" />
		<path id="path16" class="shp0" d="M1229.54 35.61C1229.54 16.25 1213.73 0.55 1194.35 0.55C1174.98 0.55 1159.17 16.25 1159.17 35.61L1159.17 408.53C1159.17 428 1174.98 443.69 1194.35 443.69C1213.73 443.69 1229.54 428 1229.54 408.53L1229.54 35.61ZM1036.3 167.99C1036.3 148.64 1020.5 132.92 1001.12 132.92C981.74 132.92 965.94 148.64 965.94 167.99L965.94 338.48C965.94 357.94 981.74 373.64 1001.12 373.64C1020.5 373.64 1036.3 357.94 1036.3 338.48L1036.3 167.99ZM843.07 264.75C843.07 245.39 827.26 229.7 807.89 229.7C788.53 229.7 772.71 245.39 772.71 264.75L772.71 338.48C772.71 357.94 788.53 373.64 807.89 373.64C827.26 373.64 843.07 357.94 843.07 338.48" />
	</g>
</svg>