<svg version="1.2" xmlns="http://www.w3.org/2000/svg" viewBox="0 0 1519 245" width="1519" height="245">
	<title>cbds-logos-citizens-svg</title>
	<style>
		.s0 { fill: #3a8359 } 
	</style>
	<path id="Layer" fill-rule="evenodd" class="s0" d="m59.3 126.4c1.9 0 3.9 0.3 5.8 0.8 1.9 0.6 3.7 1.5 5.3 2.6 1.6 1.1 3.1 2.4 4.3 3.9 1.2 1.6 2.2 3.3 3 5.1q1.8 4.8 4.6 9.1 2.8 4.4 6.4 8 3.7 3.7 8 6.5 4.3 2.8 9.1 4.6c1.9 0.7 3.6 1.7 5.1 3 1.5 1.2 2.9 2.7 4 4.3 1.1 1.6 1.9 3.4 2.5 5.3 0.6 1.9 0.8 3.8 0.8 5.8v39.6c0 2.6-0.5 5.2-1.5 7.6-1 2.4-2.5 4.6-4.3 6.4-1.9 1.8-4 3.2-6.4 4.2-2.5 1-5 1.5-7.6 1.4-2.6 0.2-5.2-0.2-7.6-1.1-2.5-1-4.7-2.4-6.5-4.3-1.8-1.8-3.3-4.1-4.1-6.5-0.9-2.4-1.3-5.1-1.1-7.7v-31.6l-45.5 45.6c-1.9 1.8-4 3.2-6.4 4.2-2.3 1-4.9 1.5-7.4 1.5-2.6 0-5.1-0.5-7.5-1.5-2.4-1-4.5-2.4-6.4-4.2v-0.1c-1.8-1.9-3.2-4-4.2-6.4-0.9-2.4-1.4-4.9-1.4-7.5 0-2.5 0.5-5.1 1.4-7.4 1-2.4 2.4-4.6 4.2-6.4l45.6-45.6h-31.7c-2.6 0.1-5.2-0.2-7.6-1.1-2.4-0.9-4.7-2.3-6.5-4.1-1.9-1.9-3.3-4.1-4.2-6.5-1-2.4-1.4-5-1.2-7.6-0.1-2.6 0.4-5.2 1.4-7.6 1-2.4 2.4-4.6 4.2-6.5 1.8-1.8 4-3.3 6.4-4.3 2.4-1 4.9-1.5 7.5-1.5zm165.7 0.1c2.6 0 5.2 0.5 7.6 1.5 2.3 1 4.5 2.5 6.3 4.3 1.9 1.9 3.3 4 4.3 6.5 0.9 2.4 1.4 4.9 1.4 7.5 0.1 2.6-0.3 5.2-1.2 7.7-0.9 2.4-2.4 4.6-4.2 6.4-1.9 1.8-4.1 3.3-6.6 4.2-2.4 0.9-5 1.2-7.6 1h-31.6l45.6 45.7c1.7 1.8 3.2 4 4.1 6.3 1 2.4 1.5 5 1.5 7.5 0 2.6-0.5 5.1-1.5 7.5-0.9 2.3-2.4 4.5-4.1 6.3-1.9 1.8-4 3.2-6.4 4.2-2.4 0.9-4.9 1.4-7.5 1.4-2.5 0-5-0.5-7.4-1.4-2.4-1-4.5-2.4-6.4-4.2l-45.6-45.7v31.7c0.2 2.6-0.1 5.2-1 7.7-0.9 2.4-2.3 4.6-4.1 6.5-1.8 1.8-4 3.3-6.5 4.2-2.4 1-5 1.3-7.6 1.2-2.6 0-5.1-0.5-7.6-1.4-2.4-1-4.6-2.4-6.4-4.2-1.9-1.9-3.3-4-4.3-6.4-1-2.4-1.5-5-1.5-7.6v-39.4c0-2 0.2-4 0.8-5.8 0.6-1.9 1.4-3.7 2.5-5.4 1.1-1.6 2.4-3 4-4.3 1.5-1.2 3.2-2.2 5.1-2.9q4.8-1.9 9.1-4.7 4.3-2.8 7.9-6.4 3.7-3.7 6.5-8 2.8-4.3 4.6-9.1c0.8-1.9 1.8-3.6 3-5.1 1.2-1.6 2.7-2.9 4.3-4 1.6-1.1 3.4-1.9 5.3-2.5 1.9-0.6 3.9-0.8 5.8-0.8zm422-116.8v61.9h40v32.7h-40v72.3c0 21.2 4.9 27.1 19.4 27.1q2.7 0 5.3-0.1 2.6-0.2 5.2-0.5 2.6-0.3 5.2-0.8 2.5-0.5 5.1-1.2v34q-4.3 1.1-8.5 1.9-4.3 0.8-8.7 1.4-4.3 0.5-8.6 0.8-4.4 0.3-8.8 0.3v-0.2c-36.4 0-47.6-13.3-47.6-51.6v-83.4h-28.4v-32.7h28.1v-50.7zm734.6 58.4c10 0.2 20.1 1.2 30 3l-1.3 33.4q-3.7-1.1-7.5-1.8-3.7-0.8-7.6-1.4-3.8-0.5-7.6-0.8-3.9-0.3-7.7-0.3c-16.5 0-24.5 6.9-24.5 16.9 0 26.7 67.5 14.8 67.5 68.1 0 32.4-28.4 54.3-73.4 54.3l0.2-0.1q-4.3-0.1-8.7-0.3-4.3-0.2-8.6-0.6-4.3-0.3-8.7-0.9-4.3-0.5-8.5-1.2l0.9-34.6q4.4 1.2 8.7 2 4.4 0.9 8.9 1.5 4.4 0.7 8.9 1 4.4 0.3 8.9 0.4c16.2 0 26.8-6.9 26.8-17.5 0-29.1-66.5-12.6-66.5-68.5 0-28.7 23.5-52.6 69.8-52.6zm-353.4-0.1c47.9 0 69.1 32.8 69.1 73.4q0 2.4 0 4.8-0.1 2.4-0.3 4.8-0.2 2.4-0.4 4.8-0.3 2.4-0.6 4.8h-101.8c-0.4 30.8 14.8 45.6 45.2 45.6q6.2 0 12.3-0.6 6.2-0.7 12.2-2 6.1-1.2 12-3.2 5.8-1.9 11.5-4.4l3.9 32.8q-7 2.6-14.3 4.6-7.2 2-14.6 3.4-7.4 1.3-14.9 2-7.5 0.6-15 0.6c-52.2 0-81.3-26.2-81.3-84.1 0-50.3 27.6-87.3 77-87.3zm-608.9-57q6 0 12 0.4 5.9 0.4 11.9 1.1 5.9 0.8 11.7 1.9 5.9 1.1 11.7 2.7l-4.6 39q-5.5-1.7-11.1-3-5.5-1.2-11.2-2.1-5.6-0.9-11.3-1.3-5.7-0.5-11.4-0.5c-41.5 0-62.2 31.4-62.2 74.7 0 48.4 20.2 76.1 65.1 76.1q5.5-0.2 11.1-0.8 5.5-0.7 10.9-1.9 5.4-1.2 10.7-2.9 5.3-1.7 10.5-3.9l4.9 38.3q-6.9 2.5-14 4.4-7.1 1.8-14.3 3.1-7.3 1.2-14.6 1.9-7.3 0.6-14.6 0.6v0.1c-78 0-102.9-51.8-102.9-107.4 0-70.8 37-120.5 111.7-120.5zm807.1 56.7c37.1 0 49 23.8 49 52.6v115.5l-42 0.2v-105.2c0-17.2-4.6-27.6-20.1-27.6-21.5 0-38.4 24.5-38.4 53.2v79.4h-42.3v-164.2h40q0 3.7-0.1 7.3-0.2 3.7-0.5 7.3-0.3 3.7-0.7 7.3-0.4 3.6-1 7.3h0.3c2.6-5.2 5.9-9.9 9.8-14.1 3.9-4.2 8.4-7.8 13.3-10.7 4.9-2.9 10.2-5.1 15.8-6.5 5.5-1.4 11.2-2 16.9-1.8zm-303.3 3.9v30.1l-64.8 95.7c5.5-0.2 18-0.3 29-0.3h37.2v38.7l-118.3 0.2v-30l66-97.4c-5.9 0.4-17.8 0.7-32.5 0.7h-31.6v-37.7c0 0 115 0 115 0zm-196.9 0h42.3v164.4h-42.3zm-221.5 0h42.2v164.5h-42.2zm522.1 27.4c-17.4 0-29.7 12.9-31.9 32.7h60.4c0.6-20.7-10.6-32.7-28.5-32.7zm-928.6-99c2.6 0 5.2 0.5 7.6 1.4 2.4 1 4.6 2.4 6.4 4.3 1.8 1.8 3.3 4 4.3 6.4 1 2.3 1.5 4.9 1.5 7.5v39.4c0 2-0.2 4-0.8 5.8-0.6 1.9-1.4 3.7-2.5 5.4-1.1 1.6-2.4 3-4 4.3-1.5 1.2-3.2 2.2-5 2.9q-4.9 1.9-9.2 4.7-4.3 2.8-7.9 6.4-3.7 3.7-6.5 8-2.8 4.3-4.6 9.2c-0.8 1.8-1.8 3.5-3 5-1.2 1.6-2.7 2.9-4.3 4-1.6 1.1-3.4 1.9-5.3 2.5-1.9 0.6-3.8 0.8-5.8 0.8h-39.5c-2.6 0-5.1-0.5-7.5-1.5-2.4-1-4.6-2.5-6.4-4.3-1.8-1.9-3.2-4-4.2-6.4-0.9-2.5-1.4-5-1.3-7.6-0.2-2.6 0.2-5.2 1.1-7.6 0.9-2.5 2.4-4.7 4.2-6.5 1.9-1.8 4.1-3.2 6.5-4.1 2.4-0.9 5-1.3 7.6-1.1h31.7l-45.6-45.7c-1.7-1.8-3.2-4-4.1-6.3-1-2.4-1.5-4.9-1.5-7.5 0-2.6 0.5-5.1 1.5-7.5 0.9-2.3 2.4-4.5 4.1-6.3h0.3c1.9-1.8 4-3.2 6.4-4.1 2.4-1 4.9-1.5 7.4-1.5 2.6 0 5.1 0.5 7.5 1.5 2.4 0.9 4.5 2.3 6.4 4.1l45.6 45.7-0.4-31.7c-0.2-2.6 0.2-5.2 1.1-7.7 0.9-2.4 2.3-4.6 4.1-6.5 1.8-1.8 4-3.3 6.5-4.2 2.4-0.9 5-1.3 7.6-1.2zm140.8 5.6c1.8 1.9 3.2 4 4.2 6.4 0.9 2.4 1.4 4.9 1.4 7.5 0 2.5-0.5 5.1-1.4 7.4-1 2.4-2.4 4.6-4.2 6.4l-45.6 45.7h31.6c2.6-0.2 5.2 0.1 7.7 1 2.4 0.9 4.6 2.3 6.5 4.1 1.8 1.8 3.3 4 4.2 6.5 1 2.4 1.4 5 1.2 7.6 0 2.6-0.4 5.2-1.4 7.6-1 2.4-2.4 4.6-4.2 6.4-1.8 1.9-4 3.3-6.4 4.3-2.4 1-5 1.5-7.6 1.5h-39.3c-2 0.1-4-0.2-5.8-0.8-1.9-0.5-3.7-1.4-5.4-2.5-1.6-1.1-3-2.4-4.3-4-1.2-1.5-2.2-3.2-2.9-5q-1.9-4.9-4.7-9.2-2.8-4.3-6.4-8-3.6-3.6-8-6.4-4.3-2.8-9.1-4.7c-1.8-0.7-3.5-1.7-5.1-2.9-1.5-1.3-2.8-2.7-3.9-4.3-1.1-1.7-2-3.5-2.6-5.4-0.5-1.8-0.8-3.8-0.8-5.8v-39.4c0-2.6 0.5-5.2 1.5-7.6 1-2.4 2.5-4.5 4.3-6.4 1.9-1.8 4.1-3.2 6.5-4.2 2.4-0.9 5-1.4 7.6-1.4 2.6-0.1 5.2 0.3 7.6 1.2 2.4 0.9 4.6 2.4 6.4 4.2 1.9 1.9 3.3 4.1 4.1 6.6 0.9 2.4 1.3 5 1.1 7.6v31.7l45.6-45.7c1.8-1.8 4-3.2 6.3-4.1 2.4-1 4.9-1.5 7.5-1.5 2.5 0 5.1 0.5 7.4 1.5 2.4 0.9 4.6 2.3 6.4 4.1zm1249.2 63.7l6.9 20.7q0.9 2.4 1.4 4.8l0.6 2.5q0.2-0.9 0.4-1.8 0.2-0.8 0.5-1.7 0.2-0.9 0.5-1.7 0.2-0.9 0.5-1.7l6.9-20.8h6.9l5.4 35.4-6.1-0.5-2.7-18.8c-0.6-3.3-0.8-5.6-1-7.7l-0.1-1q-0.2 0.9-0.4 1.8-0.2 0.8-0.4 1.7-0.2 0.9-0.5 1.7-0.2 0.9-0.5 1.7l-6.9 20.8h-6l-6.3-19.1q-0.2-0.8-0.5-1.5-0.3-0.8-0.5-1.6-0.2-0.8-0.4-1.6-0.2-0.8-0.4-1.6l-0.4-2.1c0 3.1-0.6 5.8-0.9 9.2l-2.3 18.3h-5.8l5.2-35.4zm-13-0.2v4.8h-9.8v30.6h-5.8v-30.6h-9.7v-4.8zm-727-60.6c3.2 0 6.4 0.6 9.4 1.9 2.9 1.2 5.6 3 7.9 5.3 2.3 2.2 4.1 4.9 5.3 7.9 1.2 2.9 1.9 6.1 1.9 9.3 0 3.2-0.7 6.3-1.9 9.3-1.2 2.9-2.9 5.6-5.2 7.9-2.2 2.3-4.8 4.1-7.7 5.4-2.9 1.3-6 2-9.2 2.2h-1.3c-6.5-0.1-12.8-2.8-17.3-7.5-4.5-4.7-7-11-6.9-17.5 0.1-6.6 2.8-12.8 7.5-17.3 4.7-4.6 11-7 17.5-6.9zm-221.5 0c3.2 0 6.4 0.6 9.4 1.9 2.9 1.2 5.6 3 7.9 5.3 2.3 2.2 4.1 4.9 5.3 7.9 1.2 2.9 1.9 6.1 1.9 9.3 0 3.3-0.7 6.5-2 9.6-1.3 3-3.2 5.7-5.5 8-2.4 2.3-5.2 4.2-8.2 5.4-3.1 1.2-6.3 1.8-9.6 1.8-6.6-0.1-12.8-2.8-17.3-7.5-4.5-4.7-7-11-6.9-17.5 0.1-6.6 2.8-12.8 7.5-17.3 4.7-4.6 11-7 17.5-6.9z"/>
</svg>