<svg version="1.2" xmlns="http://www.w3.org/2000/svg" viewBox="0 0 1540 180" width="1540" height="180">
	<title>The_Clorox_Company_logo,_2021-svg</title>
	<defs>
		<clipPath clipPathUnits="userSpaceOnUse" id="cp1">
			<path d="m0 0h1540v179.61h-1540z" />
		</clipPath>
	</defs>
	<style>
		.s0 { fill: #a7e0ff } 
		.s1 { fill: #5db8fd } 
		.s2 { fill: #1e3896 } 
		.s3 { fill: #196eef } 
		.s4 { fill: #000000 } 
	</style>
	<g id="Clip-Path" clip-path="url(#cp1)">
		<g id="Layer">
			<path id="Layer" class="s0" d="m177.1 70.1h-43.6l-39.6-31.8l-38.9-31.3c10.7-4.5 22.4-7 34.6-7c14.5 0 28.1 3.4 40.1 9.5c23.7 11.9 41.4 34 47.4 60.6z" />
			<path id="Layer" class="s1" d="m93.9 38.3l-64.1 51.5l-27.1 21.8c-1.8-7-2.7-14.3-2.7-21.8c0-7.5 0.9-14.9 2.7-21.8c6.9-27.7 26.5-50.2 52.3-61z" />
			<path id="Layer" class="s2" d="m129.7 170.1l-35.8-28.8l39.6-31.8h43.6c-6 26.6-23.7 48.7-47.4 60.6z" />
			<path id="Layer" class="s3" d="m129.7 170.1c-12.1 6.1-25.7 9.5-40.1 9.5c-12.3 0-24-2.5-34.6-7c-25.8-10.8-45.4-33.3-52.3-61l27.1-21.8l64.1 51.5z" />
			<path id="Layer" fill-rule="evenodd" class="s4" d="m259.7 54.4h-27.2v-9.3h64.7v9.3h-27.3v80.4h-10.2zm50.4-16.5h10v41.2q3.5-5.6 9.4-8.8q5.9-3.3 13.5-3.3q6.5 0 11.7 2q5.2 2.1 8.9 5.9q3.7 3.9 5.7 9.5q1.9 5.5 1.9 12.5v37.8h-10.3v-37.3q0-9.7-5.1-15.5q-5.1-5.8-14.9-5.8q-4.4 0-8.1 1.6q-3.8 1.6-6.6 4.5q-2.8 2.9-4.4 6.9q-1.6 4-1.6 8.8v36.8h-10.1zm110.6 98.2q-8 0-14.5-2.6q-6.4-2.7-11-7.3q-4.6-4.6-7.1-10.8q-2.4-6.3-2.4-13.6q0-7.3 2.6-13.7q2.7-6.3 7.3-11q4.6-4.6 10.9-7.3q6.3-2.7 13.8-2.7q7.2-0.1 13.4 2.5q6.2 2.5 10.7 7q4.5 4.5 7 10.7q2.6 6.2 2.6 13.6v4.5h-58.5q0.5 4.8 2.6 8.7q2.1 4 5.3 6.9q3.3 2.8 7.6 4.4q4.4 1.6 9.7 1.6q7.9 0 13.3-3.3q5.4-3.3 8.9-9.4l8.6 5q-5.2 8-12.6 12.4q-7.3 4.4-18.2 4.4zm-0.4-60.1q-4.8 0-8.9 1.6q-4.1 1.5-7.3 4.3q-3.2 2.7-5.3 6.5q-2.2 3.7-3 8.2h47.9q-1.2-9.5-7.4-15q-6.3-5.6-16-5.6zm125.1 60q-9.8 0-18.2-3.6q-8.4-3.7-14.5-9.9q-6.2-6.3-9.7-14.6q-3.6-8.4-3.6-18q0-9.7 3.6-18.1q3.7-8.4 9.8-14.7q6.2-6.2 14.7-9.7q8.4-3.6 17.9-3.6q6.3 0 12.2 1.7q5.9 1.6 10.9 4.6q5 2.9 9.3 7.1q4.2 4.2 7.1 9.2l-8.8 5.4q-4.7-8.2-12.6-13.2q-7.9-5.1-18.1-5.1q-7.6 0-14.1 2.9q-6.5 2.9-11.3 7.8q-4.7 4.9-7.5 11.6q-2.8 6.6-2.8 14.1q0 7.5 2.7 14.1q2.7 6.6 7.5 11.5q4.8 4.9 11.3 7.7q6.5 2.8 14.1 2.8q11.2 0.1 19.3-5.4q8.2-5.4 12.5-14.1l9.1 4.8q-3 5.5-7.1 10.1q-4.2 4.5-9.4 7.8q-5.2 3.2-11.4 5c-4.1 1.2-8.4 1.8-12.9 1.8zm55.3-98.1h10.1v96.9h-10.1zm60.9 98.2q-7.4 0-13.6-2.7q-6.3-2.6-10.9-7.3q-4.6-4.7-7.2-10.9q-2.6-6.3-2.7-13.7q0-7.2 2.7-13.5q2.6-6.4 7.3-11q4.6-4.7 10.9-7.4q6.3-2.6 13.5-2.6q7.2 0 13.6 2.6q6.3 2.7 10.9 7.4q4.7 4.6 7.3 11q2.7 6.3 2.7 13.5q0 7.3-2.7 13.6q-2.6 6.2-7.3 10.9q-4.6 4.7-10.9 7.4q-6.3 2.7-13.6 2.7zm0-9.6q5.1 0 9.6-1.9q4.5-1.9 7.8-5.3q3.2-3.4 5.1-7.9q1.8-4.6 1.8-9.9q0-5.2-1.8-9.9q-1.9-4.6-5.2-7.9q-3.3-3.4-7.7-5.3q-4.4-1.9-9.6-1.9q-5.2 0-9.6 1.9q-4.4 1.9-7.6 5.3q-3.3 3.3-5.1 7.9q-1.9 4.7-1.9 9.9q0 5.4 1.9 10q1.8 4.5 5.1 7.9q3.2 3.3 7.6 5.2q4.4 1.9 9.6 1.9zm50.8-58.1h9.7v12.5q2.1-6.6 6.9-10.1q4.8-3.4 12-3.4q7.1 0 11 2.4l-4.2 9.6q-1.3-1-3.3-1.5q-2.1-0.6-4.8-0.6q-8.3 0-12.8 5q-4.6 5-4.6 16.1v36.3h-9.9zm77.5 67.8q-7.3 0-13.6-2.7q-6.3-2.6-10.9-7.3q-4.6-4.7-7.2-10.9q-2.6-6.3-2.6-13.7q0-7.2 2.6-13.6q2.6-6.3 7.3-11q4.7-4.6 10.9-7.3q6.3-2.6 13.5-2.6q7.2 0 13.6 2.6q6.3 2.7 10.9 7.3q4.7 4.7 7.3 11q2.7 6.4 2.7 13.6q0 7.3-2.7 13.5q-2.6 6.3-7.3 11q-4.6 4.7-10.9 7.3q-6.2 2.8-13.6 2.8zm0-9.6q5.2 0 9.6-1.9q4.5-1.9 7.8-5.3q3.2-3.4 5.1-8q1.8-4.5 1.8-9.8q0-5.3-1.8-9.9q-1.9-4.6-5.2-8q-3.3-3.3-7.7-5.2q-4.4-2-9.6-2q-5.1 0-9.6 2q-4.4 1.9-7.6 5.2q-3.3 3.4-5.1 8q-1.9 4.6-1.9 9.9q0 5.4 1.9 10q1.8 4.5 5.1 7.8q3.2 3.4 7.6 5.3q4.5 1.9 9.6 1.9zm65.1-25.7l-24.9-32.5h12.3l19 25.1l19-25.1h12.2l-25.1 32.5l26.5 33.9h-12.5l-20.2-26.2l-19.9 26.2h-12.5zm124.8 35.2q-9.9 0-18.3-3.7q-8.4-3.6-14.5-9.9q-6.1-6.2-9.7-14.6q-3.5-8.4-3.5-17.9q-0.1-9.7 3.6-18.2q3.6-8.4 9.8-14.6q6.2-6.2 14.6-9.8q8.4-3.5 18-3.5q6.2 0 12.1 1.6q5.9 1.7 10.9 4.6q5.1 3 9.3 7.2q4.2 4.1 7.2 9.2l-8.9 5.4q-4.6-8.2-12.5-13.3q-8-5-18.1-5q-7.6 0-14.1 2.9q-6.5 2.9-11.3 7.8q-4.8 4.9-7.6 11.5q-2.7 6.7-2.7 14.2q0 7.5 2.7 14q2.7 6.6 7.5 11.5q4.7 4.9 11.2 7.8q6.6 2.8 14.2 2.8q11.1 0 19.3-5.4q8.1-5.4 12.4-14.1l9.1 4.7q-2.9 5.6-7.1 10.1q-4.2 4.6-9.4 7.8q-5.2 3.3-11.4 5.1q-6.1 1.8-12.8 1.8zm86 0.1q-7.4 0-13.7-2.7q-6.2-2.6-10.8-7.3q-4.6-4.6-7.2-10.9q-2.7-6.3-2.7-13.7q0-7.2 2.7-13.5q2.6-6.4 7.3-11q4.6-4.7 10.9-7.3q6.2-2.7 13.5-2.7q7.2 0 13.5 2.7q6.3 2.6 11 7.3q4.7 4.6 7.3 11q2.6 6.3 2.6 13.5q0 7.3-2.6 13.6q-2.6 6.2-7.3 10.9q-4.7 4.7-10.9 7.4q-6.3 2.7-13.6 2.7zm0-9.6q5.1 0 9.6-1.9q4.5-1.9 7.7-5.3q3.3-3.4 5.1-7.9q1.9-4.6 1.9-9.9q0-5.2-1.9-9.8q-1.8-4.7-5.1-8q-3.3-3.4-7.8-5.3q-4.4-1.9-9.5-1.9q-5.2 0-9.6 1.9q-4.4 1.9-7.7 5.3q-3.2 3.4-5.1 8q-1.8 4.6-1.8 9.8q0 5.5 1.8 10q1.9 4.5 5.1 7.9q3.3 3.3 7.7 5.2q4.4 1.9 9.6 1.9zm58.9-58.1v9.7q3.2-5.2 8.5-8.1q5.3-3 12.7-3q8.8 0 14.6 3.8q5.8 3.7 8.5 10q3.2-6.3 9.3-10q6.1-3.8 14.5-3.8q13.8 0 21 7.8q7.1 7.8 7.1 20.9v39h-10.2v-38.9q0-8.9-4.9-14.3q-4.8-5.5-14-5.5q-4.2 0-7.7 1.3q-3.5 1.4-6 4q-2.6 2.7-4.1 6.5q-1.5 3.8-1.5 8.7v38.2h-10v-39.9q0-8.6-4.7-13.7q-4.8-5.1-13.6-5.1q-8.6 0-14 5.6q-5.4 5.7-5.4 15.8v37.3h-10v-66.3zm149.5 67.7q-7.4 0-14.1-3.3q-6.7-3.2-10.7-9.5v39.6h-9.9v-94.5h9.8v12.1q2-3.2 4.7-5.7q2.8-2.5 6.1-4.2q3.3-1.7 6.9-2.7q3.7-0.9 7.3-0.9q6.9 0 13 2.5q6.2 2.6 10.8 7.2q4.6 4.6 7.2 10.9q2.6 6.3 2.6 13.9q0 7.7-2.6 14q-2.6 6.3-7.2 10.9q-4.5 4.6-10.7 7.1q-6.2 2.6-13.2 2.6zm-0.9-9.5q5.2 0 9.7-1.9q4.5-1.9 7.8-5.3q3.3-3.4 5.1-8q1.9-4.6 1.9-10q0-5.3-1.9-9.9q-1.8-4.6-5.1-8q-3.3-3.3-7.8-5.3q-4.5-2-9.7-2q-5.2 0-9.8 2.1q-4.5 2-7.8 5.4q-3.3 3.4-5.2 8q-1.9 4.6-1.9 9.7q0 5.3 1.9 9.9q1.9 4.6 5.2 8q3.3 3.4 7.8 5.3q4.6 2 9.8 2zm79.9 9.5q-7 0-13.1-2.5q-6.2-2.6-10.8-7.2q-4.5-4.6-7.1-10.9q-2.7-6.3-2.7-13.9q0-7.7 2.7-14q2.6-6.3 7.2-10.9q4.6-4.6 10.7-7.1q6.2-2.6 13.1-2.6q7.3 0 14.1 3.5q6.9 3.4 10.8 9.7v-11.8h9.9v66.3h-10v-11.8q-1.9 3.1-4.7 5.6q-2.8 2.4-6 4.1q-3.3 1.7-6.9 2.6q-3.6 0.9-7.2 0.9zm0.9-9.5q5.3 0 9.8-2q4.5-1.9 7.9-5.3q3.3-3.4 5.1-8q1.9-4.6 1.9-9.9q0-5.1-1.9-9.7q-1.8-4.7-5.1-8q-3.3-3.4-7.9-5.4q-4.5-2.1-9.8-2.1q-5.2 0-9.6 2q-4.5 2-7.8 5.3q-3.3 3.4-5.2 8q-1.8 4.6-1.8 9.9q0 5.4 1.8 10q1.9 4.6 5.2 8q3.3 3.4 7.8 5.3q4.5 1.9 9.6 1.9zm52.4-58.2h9.8v11q3.4-5.5 9.4-8.9q5.9-3.5 13.7-3.5q6.5 0 11.7 2.1q5.2 2 8.9 5.9q3.7 3.8 5.6 9.4q2 5.5 2 12.5v37.8h-10.2v-37.3q0-9.7-5.2-15.5q-5.1-5.8-14.8-5.8q-4.4 0-8.2 1.6q-3.8 1.6-6.6 4.5q-2.9 2.9-4.5 6.9q-1.5 4-1.5 8.8v36.8h-10.1zm82.6 94.6l13.4-31.4l-27.7-63.2h10.9l22.2 51.4l21.1-51.4h11l-41 94.6z" />
		</g>
	</g>
</svg>