<svg version="1.2" xmlns="http://www.w3.org/2000/svg" viewBox="0 0 1581 374" width="1581" height="374">
	<title>cms-energy-svg</title>
	<style>
		.s0 { fill: #91bc50 } 
		.s1 { fill: #3893ce } 
	</style>
	<g id="Layer">
		<path id="Layer" fill-rule="evenodd" class="s0" d="m1580.3 188.2c0 95.6-216.9 158.2-816.5 184.7l-193.5 0.3c822.5-43.8 914.5-104.8 914.5-181.3 0-89.3-283.7-180.7-822.1-183.7-246.7-1.4-509 8.9-662.7 36.5 176-34.8 399.4-44 705.4-44 536.9 0 874.9 91.5 874.9 187.5z"/>
		<path id="Layer" fill-rule="evenodd" class="s1" d="m538.8 153.9h-67.3c-15.1 0-18.4 19.7-4.7 19.7h27.8c40.8 0 39.2 69.4-14.3 69.4h-106l15.1-66.8-45 66.8h-30.3l9.3-67.3-38.7 67.3h-74.3c-66.6 0-56.8-114.1 26.3-114.1h67.7l-14.7 25.4h-55.8c-43.3 0-50.7 63.9-14.7 63.9h49l52.2-89.3h32.8l-9.2 74.6 49.6-74.6h33.7l-19.8 89.3h78.3c13 0 13.7-19.3 1.4-19.3h-28.4c-40.5 0-38.3-70 21.9-70h71.6zm333.9-24.8l-66.8 114h-32.6l-18.1-77.2-42.8 77.2h-84c-65.1 0-47.6-114 34.1-114h66.5l-15.1 25.4h-61.5c-12.7 0-22.6 6.9-28.9 16.2h80.6l-14.2 25.3h-74.2c0.4 12.1 7.1 22.2 21.9 22.2h59.1l51.1-89.1h28l20.3 83.9 47.7-83.9z"/>
		<path id="Layer" fill-rule="evenodd" class="s1" d="m916.7 154.6c-12.7 0-22.6 6.7-28.9 16h80.6l-14.2 25.4h-74.2c0.4 12.1 7.1 22.1 21.9 22.1h51.5l-13.9 24.9h-46.8c-65.1 0-47.6-114 34.2-114h150.2c50.7 0 34.4 69.4-0.3 69.4h-14.8l29.9 44.6h-33.9c0 0-24.3-37.8-28.9-45.5-4.6-7.7-3.1-20.9 9.8-20.9h26.2c18.6 0 21.4-22 4.6-22h-31.4l-51.1 88.4h-33.2l51.7-88.4h-89z"/>
		<path id="Layer" fill-rule="evenodd" class="s1" d="m1304.8 202.4l-22.5 40.6h-32.3l27.1-47.6-27.7-40.6h-74.1c-39 0-51.7 62.4-16.6 62.4h30.4l10.5-19.4h-45.6l14.2-24.6h76l-39.4 69.8h-56.3c-65.3 0-47.4-114 37.8-114h76l33.3 48.5 56.3-48.5h41.2z"/>
	</g>
</svg>