<svg version="1.2" xmlns="http://www.w3.org/2000/svg" viewBox="0 0 1576 204" width="1576" height="204">
	<title>Colgate-Palmolive_logo-svg</title>
	<style>
		.s0 { fill: #000000 } 
		.s1 { fill: #007ac2 } 
	</style>
	<g id="Layer">
		<g id="Layer">
			<g id="Layer">
				<path id="Layer" fill-rule="evenodd" class="s0" d="m919.6 90.2l-5.8 23h-20.1l18.4-65.6h26.9c8.9 0 29.4 1 29.4 13.7 0 26.8-28.5 28.9-48.8 28.9zm26.5-24.2c0-6-6.7-7.6-11.7-7.6h-5.5l-4.4 19.6h7c5.1 0 11.4-2.9 13.7-7.4z"/>
				<path id="Layer" class="s0" d="m856.8 80.8h27.6l-3.7 13.7h-27.4z"/>
				<path id="Layer" class="s0" d="m1187.1 47.6h29.1l-15.4 65.6h-17.9l10.6-46.9-25.7 46.9h-19l-2.4-46.9-12 46.9h-16.1l15.5-65.6h28.7l2.5 41.5z"/>
				<path id="Layer" fill-rule="evenodd" class="s0" d="m1026.6 47.6c0.6 6.2 11.9 64.2 13.2 65.6h-23.4l-2.9-18.7h-25.4l-12.6 18.7h-23.9c16.8-21.5 32-44.2 48.9-65.6zm-14.4 32.8l-2.6-18.3-13.3 18.3z"/>
				<path id="Layer" class="s0" d="m1076.5 99.1h31.6l-3.5 14.1h-53.7l15.5-65.6h22.1z"/>
				<path id="Layer" class="s0" d="m621.8 74.9l-8.4 37.2c-8.7 1.1-18.1 2.8-27 2.8h-11c-15.5 0-27.9-9.8-27.9-25.4 0-27.1 25.4-43.2 50.9-43.2 8.7 0 16.8 2.6 25.2 3l-2.4 15.9c-7.4-1.4-13.7-3.7-21.5-3.7-15.7 0-30.7 9.4-30.7 26.3 0 10.2 8.1 13 17 13 1.9 0 7.5-0.5 8.9-1.7l2.4-10h-8.4l3.1-14.2c0 0 29.8 0 29.8 0z"/>
				<path id="Layer" class="s0" d="m350.8 86c0 7.1 5.4 13.7 13 13.7h7.8c5.3 0 10.9-1.2 16.1-2.4l-5.3 15.9c-4.8 0.9-11.2 1.7-16.1 1.7h-7.8c-15.5 0-29.4-10.1-29.4-26 0-26.9 25-42.6 50.2-42.6 5.9 0 12.1 1.7 17.9 2.4l-1.7 15.2c-5.4-0.5-10.5-2.4-16.2-2.4-14.4 0-28.5 9.4-28.5 24.5z"/>
				<path id="Layer" class="s0" d="m794.9 47.6h56.6l-3.5 13.9h-34.7l-2.9 11.7h29.2l-2.9 14.1h-29.4l-2.9 11.8h34.5l-2.9 14.1h-56.8z"/>
				<path id="Layer" class="s0" d="m779.4 61.5h-21.4l-12.4 51.7h-21.4l11.9-51.7h-21.4l2.8-13.9h65.7z"/>
				<path id="Layer" fill-rule="evenodd" class="s0" d="m480.6 68.9v7.4c0 2.9-1.7 6.5-2.7 9.3-6.3 17.5-23.8 29.3-42.9 29.3h-8.6c-14.9 0-30.3-9.4-30.3-25.2 0-27 25.4-43.4 50.9-43.4 13.3 0 33.6 6.6 33.6 22.6zm-22.1 4.1c-1.1-2.4-1.3-3.8-2-4.8-3.8-4.6-7.2-6.7-13.3-6.7-13.7 0-25.2 10.8-25.2 24.5 0 7.1 5.5 13.7 13 13.7h6.2c2 0 4.5-0.9 6.3-1.6 8.2-3.2 11.4-8.2 13.8-16.3 0.2-0.6 1.2-3.8 1.2-4.2 0 0 0-4.6 0-4.6z"/>
				<path id="Layer" fill-rule="evenodd" class="s0" d="m706 104.1c0.5 2.2 2 6.8 2.3 9.1h-23l-3.1-18.7h-25.7l-12.6 18.7h-23.8c16.5-21.2 33.3-43.4 48.4-65.6h26.3c0.5 10.6 8.6 44.3 11.2 56.5zm-24.9-23.7l-3.6-18.3-12.6 18.3z"/>
				<path id="Layer" class="s0" d="m509.5 99.1h31.4l-3.5 14.1h-52.9l15.5-65.6h21.2z"/>
				<path id="Layer" class="s0" d="m1391.3 47.6h21.5l-15.5 65.6h-21.5z"/>
				<path id="Layer" class="s0" d="m1507.6 47.6c-16.8 21-31 44.1-47.1 65.6h-25.6l-1.8-15.2c-1.7-16.8-8.8-33.5-9.5-50.4h22.5l6 49.1 32.3-49.1z"/>
				<path id="Layer" class="s0" d="m1332.7 99.1h31.7l-2.9 14.1h-53.7l15.4-65.6h21.5z"/>
				<path id="Layer" class="s0" d="m1518.9 47.6h56.6l-3.6 13.9h-34.7l-2.9 11.7h29.2l-2.9 14.1h-29.3l-2.9 11.8h35.1l-3.5 14.1h-56.6z"/>
				<path id="Layer" fill-rule="evenodd" class="s0" d="m1304.2 68.9v7.3c0 21.4-25.4 38.7-45.3 38.7h-8.6c-16.5 0-30.1-10-30.1-26.7 0-26 26.4-41.9 50.4-41.9 13.5 0 33.6 6.3 33.6 22.6zm-21.9 7.1c0-1.4-0.6-3.2-0.4-4.5-4-7.8-9.4-10-15-10-3.4 0-7.6 0.6-10.6 1.9-6.3 2.8-14.2 13.3-14.2 20.2v4.8c0 5.7 7.3 11.3 12.8 11.3h6c12 0 21.4-12.8 21.4-23.7z"/>
			</g>
		</g>
		<g id="Layer">
			<g id="Layer">
				<path id="Layer" fill-rule="evenodd" class="s1" d="m1 76.7c0 0 2-75.2 87.9-76.3h64.5l-14.5 63.7-53.1 0.2c-17.7 0.2-21.1 14.7-21.1 14.7 0 0-1 15.3 15.9 17.1h51.1l-14.7 64.8-29.8 0.1c-89-1.9-86.2-84.3-86.2-84.3zm285 0c0 0-3.8-75.2-89.7-76.3h-27.3l-14.3 63.7 44.8 0.2c17.7 0.2 21.1 14.7 21.1 14.7 0 0 1 15.3-16 17.1h-57.3l-24.8 107.7 60.7 0.1 10-43 4.9 0.1c89-1.9 87.9-84.3 87.9-84.3z"/>
			</g>
		</g>
	</g>
</svg>