<svg version="1.2" baseProfile="tiny-ps" xmlns="http://www.w3.org/2000/svg" viewBox="0 0 1500 531" width="1500" height="531">
	<title>Comcast_Logo-svg</title>
	<style>
		tspan { white-space:pre }
		.shp0 { fill: #ffffff } 
		.shp1 { fill: #645faa } 
		.shp2 { fill: #c9234a } 
		.shp3 { fill: #0089cf } 
		.shp4 { fill: #f36f21 } 
		.shp5 { fill: #0db14b } 
		.shp6 { fill: #fdb913 } 
		.shp7 { fill: #000000 } 
	</style>
	<g id="Layer">
		<path id="Layer" class="shp0" d="M749.82 26.64C755.35 17.61 764.52 8.15 774.4 4.16C791.41 -3.58 814.2 -0.25 828.08 11.99C841.5 24.16 848.31 40.84 845.1 59.48C848.39 58.88 851.72 56.77 855.2 55.57C876.05 49.68 898.09 56.06 911.45 73.94C921.49 86.7 924.11 106.52 918.09 121.94C915.1 129.69 910 136.67 903.37 142.61L904.04 143.29C923.43 144.23 942.48 159.29 948.36 177.76C954.74 196.39 949.13 216.29 935.51 229.92C924.39 240.92 910.08 244.73 894.17 244.41L605.45 244.41C581.74 244.92 563.42 234.41 553.56 213.32C545.82 195.22 549.64 172.07 564.09 158.27C573.2 148.74 584.62 144.84 596.92 142.87C582.99 129.93 576.27 112.23 580.19 93.25C582.99 77.87 596.09 62.3 611.15 56.92C624.42 51.65 642.38 52.57 654.53 59.74L654.97 59.21C651.31 38.28 660.58 19.39 677.93 7.82C693.41 -2.65 718.15 -2.38 733.3 8.75C740.11 12.92 745.72 20.08 749.82 26.64Z" />
		<path id="Layer" class="shp1" d="M831.56 34.46C837.76 46.98 834.12 63.38 827.64 74.63L777.55 187.37L777.12 187.9L759.01 73.52C757.56 62.54 769.29 57.85 776.19 52.58C775.84 50.96 774.06 51.04 772.95 50.29L756.02 50.11L755.51 49.6C755.6 35.4 763.24 22.29 776.19 15.4C789.72 7.58 808.77 9.71 820.5 19.73C825.26 23.98 829.28 28.92 831.56 34.46Z" />
		<path id="Layer" class="shp2" d="M739.27 30.54C743.36 38.12 745.73 46.72 744.29 56.25L723.86 187.21C723.97 187.37 723.78 187.55 723.62 187.62L718.33 177.09L667.13 62.71C662.36 47.98 666.78 32.59 677.5 22.03C688.31 11.06 706.08 8.09 720.21 14.04C727.69 17.27 734.84 23.22 739.27 30.54Z" />
		<path id="Layer" class="shp3" d="M905.67 85.67C912.55 97.42 911.01 115.21 903.35 126.11C898.6 133.77 890.77 137.59 884.13 142.61L778.05 215.46L777.8 215.46L778.99 211.98L835.22 85C843.65 70.03 859.73 62.46 876.73 64.74C888.39 66.87 900.04 74.45 905.67 85.67Z" />
		<path id="Layer" class="shp4" d="M664.67 85L723.19 215.45L722.24 215.45L604.26 134.11C592.26 123.99 587.34 108.83 591.41 93.51C594.46 82.03 603.99 71.3 615.32 67.04C633.88 60.25 654.79 67.48 664.67 85Z" />
		<path id="Layer" class="shp5" d="M936.45 177.76C942.33 190.18 940.02 207.19 931.61 217.76C923.27 227.89 912.11 233.42 899.02 233.07L773.22 233.15L878.6 159.8C888.9 153.17 904.55 151.97 915.78 157.34C924.46 160.74 932.63 169.25 936.45 177.76Z" />
		<path id="Layer" class="shp6" d="M563.93 177.76C558.07 190.18 560.37 207.19 568.79 217.76C577.14 227.89 588.26 233.42 601.37 233.07L727.17 233.15L621.78 159.8C611.49 153.17 595.84 151.97 584.62 157.34C575.94 160.74 567.77 169.25 563.93 177.76Z" />
		<path id="Layer" fill-rule="evenodd" class="shp7" d="M448.88 419.35C448.88 480.48 399.17 530.24 338.04 530.24C276.92 530.24 227.24 480.48 227.24 419.35C227.24 358.2 276.92 308.48 338.04 308.48C399.17 308.48 448.88 358.2 448.88 419.35ZM427.07 419.35C427.07 370.28 387.13 330.32 338.04 330.32C288.95 330.32 249.01 370.28 249.01 419.35C249.01 468.44 288.95 508.39 338.04 508.39C387.13 508.39 427.07 468.44 427.07 419.35ZM1328.17 472.29C1328.17 500.77 1304.21 530.24 1264.12 530.24C1228.36 530.24 1202.18 507.05 1195.01 499.95L1193.13 498.06L1209.26 483.35L1210.97 484.99C1216.69 490.5 1237.42 508.41 1264.12 508.41C1291.56 508.41 1306.39 489.8 1306.39 472.29C1306.39 459.23 1298.4 447.87 1283.95 440.31C1278.47 437.42 1241.88 418.55 1236.64 415.88C1217.94 406.32 1198.82 392.6 1198.82 363.51C1198.82 331.1 1225.15 308.49 1262.88 308.49C1282.69 308.49 1301.06 316.72 1311.83 322.74C1315.07 324.62 1317.28 328.16 1317.28 332.19C1317.28 338.17 1312.37 343.08 1306.39 343.08C1304.48 343.08 1302.64 342.6 1301.09 341.75C1292.53 336.94 1277.96 330.3 1262.88 330.3C1237.2 330.3 1220.64 343.33 1220.64 363.51C1220.64 378.03 1227.37 386.6 1246.34 396.31C1251.54 399.01 1287.71 417.64 1293.66 420.76C1315.6 432.23 1328.17 451.03 1328.17 472.29ZM21.79 419.33C21.79 468.42 61.73 508.4 110.8 508.4C137.05 508.4 160.64 496.98 176.95 478.88L192.37 494.33C172.12 516.39 143.06 530.24 110.81 530.24C49.71 530.24 0 480.48 0 419.33C0 358.22 49.71 308.48 110.81 308.48C139.72 308.48 167.1 319.52 187.85 339.61L189.19 340.98C191.27 343.01 192.37 345.78 192.37 348.67C192.37 351.6 191.27 354.33 189.19 356.36C185.26 360.35 177.75 360.35 173.75 356.36C156.97 339.59 134.61 330.32 110.81 330.32C61.73 330.32 21.79 370.29 21.79 419.33ZM773.07 419.33C773.07 468.42 813.04 508.39 862.12 508.39C888.34 508.39 911.96 496.98 928.27 478.88L943.71 494.32C923.42 516.39 894.36 530.24 862.12 530.24C801.02 530.24 751.29 480.48 751.29 419.33C751.29 358.22 801.02 308.48 862.12 308.48C891.02 308.48 918.37 319.52 939.17 339.61L940.5 340.98C942.57 343.01 943.72 345.78 943.72 348.67C943.72 351.6 942.57 354.33 940.5 356.36C936.56 360.35 929.05 360.35 925.07 356.36C908.29 339.59 885.89 330.32 862.12 330.32C813.04 330.32 773.07 370.29 773.07 419.33ZM684.04 316.42C685.31 320.88 723.01 529.02 723.01 529.02L703 529.02L670.79 353.3C670.79 353.3 610.99 501.07 609.24 504.59C607.49 508.09 604.25 510.83 600.09 510.83C595.94 510.83 592.68 508.09 590.92 504.59C589.17 501.07 529.38 353.3 529.38 353.3L498.38 522.29C497.52 526.82 493.52 530.24 488.73 530.24C483.33 530.24 478.9 525.84 478.9 520.4C478.9 519.72 478.96 519.05 479.09 518.4C479.09 518.4 514.88 320.88 516.14 316.42C517.4 311.99 521 308.48 525.78 308.48C529.87 308.48 533.1 311.11 534.87 314.52C536.65 317.92 600.07 474.86 600.07 474.86C600.09 474.86 663.52 317.92 665.31 314.52C667.06 311.11 670.29 308.48 674.39 308.48C679.16 308.48 682.76 311.99 684.04 316.42ZM1077.58 314.69C1079.34 318.19 1164.79 529.02 1164.79 529.02L1143.55 529.02L1110.3 447.3L1026.59 447.3L995.42 524C993.96 527.66 990.42 530.25 986.28 530.25C980.84 530.25 976.44 525.84 976.44 520.4C976.44 519.03 976.72 517.73 977.2 516.57C977.2 516.57 1057.49 318.2 1059.28 314.69C1061.08 311.18 1064.29 308.48 1068.43 308.49C1072.59 308.48 1075.83 311.18 1077.58 314.69ZM1101.43 425.47L1068.43 344.4L1035.47 425.47L1101.43 425.47ZM1499.89 320.58C1499.89 326.58 1494.96 331.47 1488.95 331.47L1437.26 331.47L1437.26 529L1417.28 529L1417.28 331.47L1365.55 331.47C1359.54 331.47 1354.67 326.57 1354.67 320.58C1354.67 314.55 1359.54 309.66 1365.55 309.66L1488.95 309.66C1494.96 309.66 1499.89 314.55 1499.89 320.58Z" />
	</g>
</svg>