<svg version="1.2" xmlns="http://www.w3.org/2000/svg" viewBox="0 0 1536 555" width="1536" height="555">
	<title>comerica-new-logo-svg</title>
	<style>
		.s0 { fill: #002f6c } 
		.s1 { fill: #3e87cb } 
		.s2 { fill: #9adbe8 } 
		.s3 { fill: #000000 } 
	</style>
	<g id="New_Co_logo">
		<path id="Layer" class="s0" d="m300.9 254.5c79.4-58.4 301.4-132.5 561.4-26.8l110.5-24.1c-313.2-116.4-578.6-31.1-671.9 50.9z"/>
		<path id="Layer" class="s1" d="m300.9 254.5c113.2-107.2 455.8-209.2 847.3-24.1l113.1-24.7c-445.1-196.3-832.8-82.6-960.4 48.8z"/>
		<path id="Layer" class="s2" d="m300.9 254.5c129.8-139.4 509.4-255.8 957.2-95.4l109.4-23.6c-499.8-172.2-922.3-43-1066.6 119z"/>
		<path id="Layer" fill-rule="evenodd" class="s0" d="m749.7 485.2v8h-90.6v-8c18.8-2.2 26.3-7.5 26.3-27.4v-88.5c0.5-40.8-6.4-50.9-32.2-50.9-18.2 0-34.8 9.6-43.4 25.7v113.7c-0.6 19.9 7.5 25.8 26.3 27.4v8h-91.7v-8c19.3-2.2 26.8-7.5 27.3-27.4v-90.1c0-22.5-1.6-49.3-29-49.3-18.7 0.5-37 9.6-48.2 24.6v114.8c0.5 19.9 8 25.8 27.3 27.4v8h-92.2v-8.6c20.9-2.1 26.8-9.1 26.3-27.3v-104.6c0-23.6-2.7-27.4-26.3-27.4v-9.6l64.4-23.1v34.9c21.4-23.6 46.1-34.4 65.9-34.4 20.9 0.6 39.2 15.6 43.4 36 15.6-18.3 41.9-36 65.5-36 51.4 0 54.7 45.1 54.7 83.2v81.5c0 19.9 6.9 25.8 26.2 27.4zm170.6-62.8c-13.4 38.6-45.6 75.1-90.1 74.6-49.4 0.5-81.5-45.6-81.5-97.7 0-61.6 33.7-106.2 86.8-106.2 48.3 0 74.6 35.4 75.6 80.5h-131.9c1.1 40.8 21.5 92.8 67.6 92.8 28.4 0 51.5-23.6 64.3-46.1zm-139.4-64.9h84.8c-1.1-24.2-12.9-47.2-39.2-47.2-28.4 0-41.3 21.4-45.6 47.2zm-353.4 31.1c0 56.8-36.4 108.9-95.9 108.3-54.7 0.6-92.3-46.1-92.3-99.2-1.1-67.1-20.4-120.2-92.2-123.9-65.4-3.2-96 56.8-96 134.6 0 60.6 30.6 125 99.2 125 41.8-0.5 64.4-11.8 93.8-41.3l8.1 10.2c-25.2 32.7-64.4 52-105.6 52.5-83.2-0.5-147-54.7-145.9-149.6 0-86.9 60.1-150.7 145.9-150.7 12.8 0 25.2 1.6 37.5 4.8 10.2 2.7 18.8 6.4 25.7 8.6 15 4.8 22.5 3.7 29-12.9h10.2l2.7 87.4c14.4-31.1 46.1-50.4 80.4-49.3 56.3 0.5 95.4 38.6 95.4 95.5zm-92.7-81c-30.6-2.2-48.8 25.2-52.6 62.7-5.3 60.6 10.7 108.9 49.9 112.1 31.6 2.7 49.9-31.1 53.1-68.1 3.2-39.1-3.8-102.4-50.4-106.7zm824.7 178.6v8h-101.9v-8.5c26.3-1.7 32.2-9.7 32.7-27.4v-101.9c0-11.8 0.6-27.9-13.4-26.8-12.3 0.5-19.3 10.2-30 9.6-18.8-0.5-13.9-18.7-32.7-17.7-11.8 0.6-25.2 20.9-25.2 32.7v103.6c0 22.5 10.7 25.7 31.6 27.3v8.1h-101.3v-8.1c25.7-2.1 31.6-9.6 31.6-27.3v-95c0-30.5 1.1-47.2-31.6-37.5v-9.1l69.7-23.6v36.4c9.1-14.4 26.8-35.9 47.2-35.9 13.9 0 26.3 8 28.4 21.5l63.3-25.8 0.5 169c0 22.5 11.3 25.7 31.1 28.4zm376.5 52v10.2h-110.5v-10.2c40.2-2.1 33.2-14.5 19.3-47.2l-15-35.9h-110c-5.3 16.6-23 49.3-22.5 65.4 0.6 16.1 18.8 17.7 29 17.7v10.2h-85.3v-11.8c15-1.1 23.6-10.7 30.6-22.5 9.1-16.1 16.6-32.7 23-49.9-15 20.4-38.6 31.6-63.8 31.6-46.1 0.6-79.9-43.4-79.9-97.6 0-56.3 32.2-106.2 96-106.2 24.1 0 62.2 13.4 64.4 43.5-0.6 11.2-9.1 19.8-20.4 19.8-10.7-0.5-19.9-9.1-20.4-19.8 0-16.7-9.6-29-31.6-29-36 0.5-53.6 39.2-53.6 74.6 0 39.7 21.9 84.2 64.8 83.1 32.7 0 51.5-17.2 63.3-46.1l68.7-164.2h10.1l103 242.5c8 17.1 15.5 42.4 40.8 41.8zm-112.7-102.4l-47.7-115.9-46.6 115.9z"/>
		<path id="®" class="s3" aria-label="®"  d="m1308.9 24.9q0 6.6-3.3 12.4-3.3 5.7-9 9-5.7 3.2-12.3 3.2-6.7 0-12.5-3.4-5.7-3.4-8.9-9.1-3.2-5.6-3.2-12.1 0-6.5 3.3-12.3 3.3-5.7 9-9 5.7-3.3 12.3-3.3 6.6 0 12.3 3.4 5.8 3.3 9 8.9 3.3 5.7 3.3 12.3zm-3.1 0q0-5.7-2.9-10.6-2.8-5-7.8-7.9-5-2.9-10.8-2.9-5.7 0-10.7 2.9-5 2.9-7.8 7.9-2.9 4.9-2.9 10.6 0 5.8 2.9 10.8 2.9 4.9 7.8 7.8 5 2.8 10.7 2.8 5.8 0 10.8-2.8 5-2.9 7.8-7.8 2.9-5 2.9-10.8zm-9.7 14.3h-5l-6.7-11.5h-5.5v11.5h-4.3v-28.3h10.4q4.9 0 7.4 2.1 2.6 2.2 2.6 5.9 0 3.5-1.8 5.6-1.7 2.1-4.6 2.7zm-5.5-20.1q0-2.4-1.6-3.6-1.6-1.2-4.3-1.2h-5.8v10.2h6.2q2.7 0 4.1-1.4 1.4-1.5 1.4-4z"/>
	</g>
</svg>