<svg version="1.2" baseProfile="tiny-ps" xmlns="http://www.w3.org/2000/svg" viewBox="0 0 1544 348" width="1544" height="348"><title>ConocoPhillips_Logo-svg</title><defs><clipPath clipPathUnits="userSpaceOnUse" id="cp1"><path d="M0.33 125.38L147.92 125.38L147.92 303.18L0.33 303.18L0.33 125.38Z" /></clipPath><clipPath clipPathUnits="userSpaceOnUse" id="cp2"><path d="M1303.32 169.83L1445.53 169.83L1445.53 347.39L1303.32 347.39L1303.32 169.83Z" /></clipPath><clipPath clipPathUnits="userSpaceOnUse" id="cp3"><path d="M1445.53 169.83L1543.5 169.83L1543.5 303.18L1445.53 303.18L1445.53 169.83Z" /></clipPath><clipPath clipPathUnits="userSpaceOnUse" id="cp4"><path d="M707.84 0.33L965.59 0.33L965.59 125.38L707.84 125.38L707.84 0.33Z" /></clipPath></defs><style>tspan { white-space:pre }.shp0 { fill: #211e1e } .shp1 { fill: #d11e0f } </style><g id="layer1"><g id="g246875"><g id="Clip-Path: g218930" clip-path="url(#cp1)"><g id="g218930"><path id="path218928" fill-rule="evenodd" class="shp0" d="M139.38 266.65C129.86 270.99 114.62 273.81 100.08 273.81C57.41 273.81 34.18 247.8 34.18 213.38C34.18 174.63 60.95 151.57 100.67 151.57C116.43 151.57 130.04 155.08 139.2 159.24L146.49 134C139.31 130.25 122.75 125.49 99.35 125.49C40.57 125.49 0.33 162.44 0.33 214.8C0.33 265.96 36.47 300.3 95.01 300.3C118.58 300.3 137.05 295.58 145.14 291.52L139.38 266.65Z" /></g></g><path id="path218932" fill-rule="evenodd" class="shp0" d="M212.28 300.3C175.03 300.3 145.45 275.85 145.45 237.45C145.45 198.8 173.37 172.37 214.75 172.37C254.57 172.37 281.13 198.97 281.13 234.84C281.13 278.22 247.66 300.3 212.53 300.3L212.28 300.3ZM213.05 277.31C232.18 277.31 247.52 262.59 247.52 236.02C247.52 216.37 237.25 195.36 213.5 195.36C189.41 195.36 178.54 215.36 178.54 236.54C178.54 260.99 193.02 277.31 212.81 277.31L213.05 277.31Z" /><path id="path218934" fill-rule="evenodd" class="shp0" d="M291.89 297.28L324.11 297.28L324.11 226.79C324.11 223.59 324.56 219.87 325.57 217.44C329.07 208.14 338.38 198.28 352.54 198.28C371.12 198.28 378.79 212.1 378.79 231.33L378.79 297.28L411.01 297.28L411.01 227.34C411.01 185.36 385.21 172.37 363.62 172.37C340.88 172.37 326.71 185.63 321.44 195.01L320.67 195.01L319.08 175.36L290.89 175.36C291.51 185.84 291.89 198.07 291.89 212.27L291.89 297.28Z" /><path id="path218936" fill-rule="evenodd" class="shp0" d="M488.08 300.3C450.86 300.3 421.29 275.85 421.29 237.45C421.29 198.8 449.16 172.37 490.55 172.37C530.4 172.37 556.96 198.97 556.96 234.84C556.96 278.22 523.49 300.3 488.36 300.3L488.08 300.3ZM488.88 277.31C508.01 277.31 523.35 262.59 523.35 236.02C523.35 216.37 513.08 195.36 489.33 195.36C465.24 195.36 454.37 215.36 454.37 236.54C454.37 260.99 468.81 277.31 488.64 277.31L488.88 277.31Z" /><path id="path218938" fill-rule="evenodd" class="shp0" d="M669.24 269.64C662.54 272.38 653.75 275.09 641.33 275.09C618.76 275.09 600.22 261.06 600.22 236.02C600.08 213.69 615.63 196.99 641.19 196.99C653.86 196.99 662.23 199.59 667.99 202.44L673.89 178.59C665.63 175.11 652.85 172.37 640.04 172.37C593.66 172.37 567.13 201.16 567.13 237.65C567.13 274.74 593.55 300.3 634.87 300.3C652.26 300.3 666.63 296.62 673.89 293.25L669.24 269.64Z" /><path id="path218940" fill-rule="evenodd" class="shp0" d="M741.35 300.3C704.13 300.3 674.55 275.85 674.55 237.45C674.55 198.8 702.43 172.37 743.81 172.37C783.67 172.37 810.23 198.97 810.23 234.84C810.23 278.22 776.76 300.3 741.63 300.3L741.35 300.3ZM742.15 277.31C761.27 277.31 776.62 262.59 776.62 236.02C776.62 216.37 766.34 195.36 742.6 195.36C718.5 195.36 707.64 215.36 707.64 236.54C707.64 260.99 722.08 277.31 741.9 277.31L742.15 277.31Z" /><path id="path218942" fill-rule="evenodd" class="shp0" d="M951.6 297.28L983.78 297.28L983.78 225.78C983.78 222.27 984.02 219.18 985.24 216.44C988.85 207.65 998.19 198.38 1011.94 198.38C1030.89 198.38 1038.5 212.3 1038.5 231.44L1038.5 297.28L1070.71 297.28L1070.71 227.24C1070.71 185.36 1045.09 172.37 1023.88 172.37C1015.82 172.37 1007.87 174.52 1001.28 178.13C994.3 181.61 988.5 187.02 984.3 193.24L983.78 193.24L983.78 117.99L951.6 117.99L951.6 297.28Z" /><path id="path218944" fill-rule="evenodd" class="shp0" d="M1105.92 156.5C1117.72 156.5 1124.87 148.37 1124.87 138.72C1124.73 129 1117.62 121.11 1106.02 121.11C1094.43 121.11 1087.07 129.1 1087.07 138.72C1087.07 148.37 1094.22 156.5 1105.67 156.5L1105.92 156.5ZM1121.99 175.39L1089.77 175.39L1089.77 297.32L1121.99 297.32L1121.99 175.39Z" /><path id="path218946" fill-rule="evenodd" class="shp0" d="M1144.14 297.28L1176.36 297.28L1176.36 117.99L1144.14 117.99L1144.14 297.28Z" /><path id="path218948" fill-rule="evenodd" class="shp0" d="M1200.97 297.28L1233.16 297.28L1233.16 117.99L1200.97 117.99L1200.97 297.28Z" /><path id="path218950" fill-rule="evenodd" class="shp0" d="M1271.42 156.5C1283.22 156.5 1290.37 148.37 1290.37 138.72C1290.23 129 1283.12 121.11 1271.52 121.11C1259.92 121.11 1252.56 129.1 1252.56 138.72C1252.56 148.37 1259.72 156.5 1271.17 156.5L1271.42 156.5ZM1287.49 175.39L1255.27 175.39L1255.27 297.32L1287.49 297.32L1287.49 175.39Z" /><g id="Clip-Path: g218954" clip-path="url(#cp2)"><g id="g218954"><path id="path218952" fill-rule="evenodd" class="shp0" d="M1312.14 216.47C1312.14 200.88 1311.76 187.27 1311.13 175.36L1339.43 175.36L1340.99 195.43L1341.51 195.43C1351.51 180.88 1367.31 172.37 1388.66 172.37C1417.82 172.37 1444.66 195.57 1444.66 234.11C1444.66 278.32 1414.04 300.3 1383.66 300.3C1366.72 300.3 1352 293.95 1344.84 282.87L1344.36 282.87L1344.36 347.39L1312.14 347.39L1312.14 216.47ZM1344.36 244.11C1344.36 246.79 1344.57 249.36 1345.02 251.93C1348.18 264.67 1360.54 275.89 1376.54 275.89C1398.1 275.89 1411.85 260.61 1411.85 235.88C1411.85 215.15 1399.8 197.2 1377.44 197.2C1362.79 197.2 1349.22 207.06 1345.47 222.41C1344.88 224.84 1344.36 227.41 1344.36 229.81L1344.36 244.11Z" /></g></g><g id="Clip-Path: g218958" clip-path="url(#cp3)"><g id="g218958"><path id="path218956" fill-rule="evenodd" class="shp0" d="M1450.11 291.24C1460.28 296.52 1474.45 300.3 1490.94 300.3C1526.21 300.3 1543.5 283.15 1543.5 261.76C1543.36 242.86 1532.6 231.79 1508.43 224.56C1491.8 219.53 1484.96 215.85 1484.96 207.72C1484.96 199.91 1491.6 194.73 1503.12 194.73C1515.31 194.73 1526.66 199.49 1531.94 202.37L1538.26 180.11C1530.69 175.91 1517.56 172.37 1502.95 172.37C1472.36 172.37 1453.68 189.49 1453.68 211.09C1453.55 226.23 1464.62 239.63 1490.38 246.93C1506.59 251.65 1512.11 255.57 1512.11 264.01C1512.11 271.76 1506 277.63 1491.08 277.63C1479.06 277.63 1464.17 272.56 1456.6 267.9L1450.11 291.24Z" /></g></g><path id="path218960" fill-rule="evenodd" class="shp0" d="M821.51 124.86C833.56 122.95 850.33 121.32 873.97 121.32C898.06 121.32 915.18 126.53 926.22 135.49C936.56 143.65 943.72 156.95 943.72 173.27C943.72 188.9 938.65 202.58 928.68 211.64C915.46 224.11 895.46 230.08 871.05 230.08C864.28 230.08 858.17 229.7 853.42 228.59L853.42 297.21L821.51 297.21L821.51 124.86ZM853.42 203.55C858.03 204.8 863.9 205.29 871.4 205.29C896.29 205.29 911.78 193.97 911.78 174.07C911.78 154.55 896.57 145.7 874.11 145.7C864.07 145.7 856.99 146.5 853.42 147.23L853.42 203.55Z" /><g id="Clip-Path: g218964" clip-path="url(#cp4)"><g id="g218964"><path id="path218962" class="shp1" d="M964.16 0.33C920.56 15.47 909.14 30.48 885.6 49.4C818.91 66.97 760.44 38.81 709.58 15.54C733.6 32.91 757.39 69.82 767.45 122.15C805.89 110.63 852.2 79.51 892.96 50.44C915.8 40.3 940.87 25.34 964.16 0.33" /></g></g></g></g></svg>