<svg version="1.2" xmlns="http://www.w3.org/2000/svg" viewBox="0 0 1521 252" width="1521" height="252">
	<title>Constellation-2023-Sustainability-Report-14-pdf-svg</title>
	<defs>
		<clipPath clipPathUnits="userSpaceOnUse" id="cp1">
			<path d="m-7851.06-507.28h12100.37v7555.56h-12100.37z"/>
		</clipPath>
		<linearGradient id="g1" x1="200.4" y1="230.4" x2="76.1" y2="105.6" gradientUnits="userSpaceOnUse">
			<stop offset="0" stop-color="#b8c746"/>
			<stop offset="1" stop-color="#169244"/>
		</linearGradient>
		<linearGradient id="g2" x1="285" y1="151.5" x2="32.6" y2="151.5" gradientUnits="userSpaceOnUse">
			<stop offset="0" stop-color="#b8c746"/>
			<stop offset=".8" stop-color="#169244"/>
			<stop offset="1" stop-color="#169244"/>
		</linearGradient>
		<linearGradient id="g3" x1="216" y1="-18.6" x2="305.8" y2="71.2" gradientUnits="userSpaceOnUse">
			<stop offset="0" stop-color="#1f9cd7"/>
			<stop offset="1" stop-color="#09409c"/>
		</linearGradient>
		<linearGradient id="g4" x1="116.3" y1="45.2" x2="368.2" y2="45.2" gradientUnits="userSpaceOnUse">
			<stop offset="0" stop-color="#1f9cd7"/>
			<stop offset=".8" stop-color="#09409c"/>
			<stop offset="1" stop-color="#09409c"/>
		</linearGradient>
		<linearGradient id="g5" x1="163.5" y1="63.1" x2="252.9" y2="152.5" gradientUnits="userSpaceOnUse">
			<stop offset="0" stop-color="#ff521c"/>
			<stop offset=".9" stop-color="#ff9836"/>
			<stop offset="1" stop-color="#ff9836"/>
		</linearGradient>
	</defs>
	<style>
		.s0 { fill: #146cbb } 
		.s1 { fill: url(#g1) } 
		.s2 { fill: url(#g2) } 
		.s3 { fill: url(#g3) } 
		.s4 { fill: url(#g4) } 
		.s5 { fill: url(#g5) } 
	</style>
	<g id="Clip-Path: Page 1" clip-path="url(#cp1)">
		<g id="Page 1">
			<path id="Path 8" fill-rule="evenodd" class="s0" d="m1508.1 251.1c-7 0-12.6-5.6-12.6-12.5 0-6.9 5.6-12.5 12.6-12.5 6.9 0 12.5 5.6 12.5 12.5 0 6.9-5.6 12.5-12.5 12.5zm11.1-12.3c0-6-4.9-10.8-10.9-10.8-6 0-10.9 4.8-10.9 10.8 0 6 4.9 10.9 10.9 10.9 6 0 10.9-4.9 10.9-10.9zm-7.6 7.1l-3.8-6.1h-1.9v6.1h-1.9v-14.1h4.8c2.3 0 4.2 1.8 4.2 4.2 0 1.9-1.4 3.3-3.3 3.8l3.8 6.1zm-3.3-12.7h-2.9v5.2h2.9c1.9 0 2.8-1 2.8-2.4 0-1.4-0.9-2.8-2.8-2.8zm-53 17v-61.4c0-15.6-8.9-22.2-20.3-22.2-10.9 0-20.3 7.1-20.3 22.2v61.4h-20.3v-100.1h19.8v9.9c6.6-7.6 16.6-11.4 26.5-11.4 10.4 0 18.9 3.3 24.6 9 8 7.6 10.4 17 10.4 28.3v64.3zm-91.7-10.9c-6.6 6.6-16.6 11.8-29.8 11.8-13.7 0-23.6-5.2-29.8-11.8-9.9-9.9-12.3-22.7-12.3-39.7 0-16.5 2.4-29.2 12.3-39.2 6.2-6.6 16.1-11.8 29.8-11.8 13.2 0 23.2 5.2 29.8 11.8 9.4 10 11.8 22.7 11.8 39.2 0 17-2.4 29.8-11.8 39.7zm-15.2-67c-3.7-3.8-8.9-5.7-14.6-5.7q-9 0-14.7 5.7c-6.1 6.1-7.1 16.5-7.1 27.3 0 10.9 1 21.3 7.1 27.4 3.8 3.8 8.5 6.2 14.7 6.2 5.7 0 10.9-2.4 14.6-6.2 6.2-6.1 7.1-16.5 7.1-27.4 0-10.8-0.9-21.2-7.1-27.3zm-95-22.2h20.4v100.1h-20.4zm-0.4-41.1h21.2v21.2h-21.2zm-27 141.2c-18.9 0-27.4-13.7-27.4-27.8v-57.2h-11.8v-15.1h11.8v-28.8h19.9v28.8h19.3v15.1h-19.3v56.2c0 7.1 3.7 11.4 11.3 11.4h8v17.4zm-70.9 0v-9.4c-7.5 7.5-14.6 10.4-26.9 10.4-12.3 0-20.8-2.9-26.9-9-5.2-5.2-7.6-13.2-7.6-21.7 0-16.5 11.3-28.8 34.5-28.8h26.5v-7.1c0-12.8-6.2-18.4-22.2-18.4-10.4 0-16.1 2.3-21.8 9.4l-13.2-12.3c9.4-10.8 18.9-14.6 35.9-14.6 27.4 0 41.1 11.8 41.1 34.5v67zm0-44.4h-23.1c-12.3 0-18.5 5.2-18.5 14.7 0 8.9 5.7 14.1 18.9 14.1 7.1 0 12.8-0.9 18-6.1 3.3-2.8 4.7-7.5 4.7-14.6zm-83.6 44.4c-19 0-27.5-12.8-27.5-27.9v-112.9h20.4v112c0 7.5 2.8 11.3 10.8 11.3h9v17.5zm-53.4 0c-18.9 0-27.4-12.8-27.4-27.9v-112.9h20.3v112c0 7.5 2.9 11.3 10.9 11.3h9v17.5zm-109.2-44.4c0 17.4 8.5 27.8 25.5 27.8 10.9 0 17-2.8 24.1-9.9l12.8 11.8c-10.4 10.4-19.9 15.6-37.4 15.6-25 0-45.3-13.2-45.3-51 0-32.6 17-51.5 42.5-51.5 26.9 0 42.5 19.4 42.5 48.7v8.5zm42.6-27.4c-3.8-7.6-10.4-12.8-19.9-12.8-9.9 0-16.5 5.2-19.8 12.8-2.4 4.2-2.4 7.1-2.9 13.2h44.9c0-6.1-0.4-9-2.3-13.2zm-84.6 71.8c-18.5 0-27.4-13.7-27.4-27.9v-57.1h-11.4v-15.2h11.4v-28.8h20.3v28.8h19.4v15.2h-19.4v56.2c0 7 3.3 11.3 10.9 11.3h8.5v17.5zm-89.8 0.9c-16.1 0-30.3-2.8-42.1-14.2l13.2-13.2c8.1 8 18.9 10.4 28.9 10.4 12.7 0 22.2-4.2 22.2-13.7 0-7.1-3.8-10.9-13.7-11.8l-16.1-1.4c-18.9-1.9-29.3-10.4-29.3-27.9 0-19.8 16.5-30.7 37.8-30.7 15.1 0 27.9 3.3 36.9 11.4l-12.8 12.7c-6.1-5.2-15.1-7.1-24.6-7.1-12.3 0-17.9 5.2-17.9 12.8 0 7.1 3.7 10.4 13.7 11.3l14.2 1.4c20.7 1.9 31.6 10.9 31.6 28.4 0 20.7-17.9 31.6-42 31.6zm-76.1-0.9v-61c0-15.5-8.6-22.6-19.9-22.6-11.3 0-20.8 7.1-20.8 22.6v61h-20.3v-100.2h19.8v10c7.1-7.6 16.6-11.4 27-11.4 9.9 0 18.4 3.3 24.6 9.5 7.5 7.1 9.9 16.5 9.9 27.8v64.3zm-88.9-10.9c-6.1 6.6-16.1 11.8-29.8 11.8-13.7 0-23.1-5.2-29.7-11.8-9.5-9.9-11.9-22.7-11.9-39.2 0-17 2.4-29.7 11.9-39.7 6.6-6.6 16-11.8 29.7-11.8 13.7 0 23.7 5.2 29.8 11.8 9.9 10 12.3 22.7 12.3 39.7 0 16.5-2.4 29.3-12.3 39.2zm-51.5-39.2c0 10.9 0.9 21.3 7.1 27.4 3.8 3.8 8.5 5.7 14.6 5.7 5.7 0 10.9-1.9 14.7-5.7 6.1-6.1 7.1-16.5 7.1-27.4 0-10.9-1-21.7-7.1-27.9-3.8-3.7-9-5.6-14.7-5.6q-8.9 0-14.6 5.6c-6.2 6.2-7.1 17-7.1 27.9zm-85.1 51c-15.1 0-26.9-5.2-36.4-14.2-13.2-13.7-14.2-27.8-14.2-57.1 0-29.3 1-43.4 14.2-57.1 9.5-9.5 21.3-14.2 36.4-14.2 26 0 45.4 15.1 50.1 43h-21.7c-2.9-14.2-12.8-24.1-28.4-24.1-8.5 0-15.6 2.8-20.8 8.5-7.1 7.5-8.5 16-8.5 43.9 0 27.9 1.4 36.4 8.5 43.9 5.2 5.2 12.3 8.5 20.8 8.5 15.6 0 25.5-9.9 28.8-24.1h21.3c-4.7 27.9-24.1 43-50.1 43z"/>
			<path id="Path 8" class="s1" d="m32.6 151c-0.9 0.5-1.9 0.9-3.3 1.9 0 0-5.7 7.5-11.3 17-5.7 8.5-11.4 18.9-15.2 26.4-0.9 1-1.9 3.3-1.9 3.3 10-7 22.3-10.8 38.3-13.2 19.9-2.3 43-1.9 67.2-0.9 20.7 0.9 43 2.3 65.7 3.8 37.8 1.8 86.5-17.5 112.9-44 0 0-0.9 1-1.4 1-49.2 28.8-93.6 22.2-133.8 15.1-30.2-5.7-60.5-17-87.4-17-10.4 0-20.3 1.9-29.8 6.6z"/>
			<path id="Path 9" fill-rule="evenodd" class="s2" d="m33.6 150.5c32.6-15.6 74.6 3.3 116.2 10.9 40.2 7.1 84.6 13.7 133.8-15.1 0.5 0 1.4-1 1.4-1 0 0-9.9 1-25 1.4-15.2 0-46.4-0.9-65.3-2.8-39.7-3.3-69.4-5.7-93.5-5.7-28.9 0-49.7 3.4-67.6 12.3zm-1 0.5q0.5-0.5 1-0.5-0.5 0-1 0.5z"/>
			<path id="Path 10" class="s3" d="m362.1 13.6c-19.9 2.3-43 1.9-67.2 0.9-20.8-0.9-43-2.3-65.7-3.7-37.8-1.9-86.5 17.4-112.9 43.9 0 0 0.9-1 1.4-1 49.2-28.8 93.6-22.2 133.8-15.1 42 7.6 84.1 26.5 116.7 10.4 1.4-0.5 2.4-0.9 3.8-1.9 0 0 5.2-7.5 11.3-17 5.7-8.5 11.4-18.9 15.2-26.4 0.4-1 1.9-3.3 1.9-3.3-10 7-22.3 10.8-38.3 13.2z"/>
			<path id="Path 11" fill-rule="evenodd" class="s4" d="m117.7 53.7c-0.5 0-1.4 1-1.4 1 0 0 9.9-1 25-1.5 15.2 0 46.4 1 65.3 2.9 87.9 7.5 128.1 9.4 161.1-6.6-32.6 15.6-74.6-3.3-116.2-10.9-17.5-3.3-35.5-6.1-54.9-6.1-24.5 0-51 5.2-78.9 21.2zm250-4.2q0.5 0 0.5-0.5 0 0.5-0.5 0.5z"/>
			<path id="Path 12" class="s5" d="m212.2 78.8c-40.6-3.4-82.2-6.2-120-1q-23.7 23.6-44 49.1c38.3-13.7 88.4-9.4 140.4-5.6 41.1 3.3 82.7 6.1 120.5 0.9 9.5-9 36.9-40.1 43.5-49.1-37.8 13.7-88.4 9.9-140.4 5.7z"/>
		</g>
	</g>
</svg>