<svg version="1.2" xmlns="http://www.w3.org/2000/svg" viewBox="0 0 1524 294" width="1524" height="294">
	<title>ConEd_logo-svg</title>
	<style>
		.s0 { fill: #0099d8 } 
	</style>
	<g id="layer1">
		<path id="path2858" fill-rule="evenodd" class="s0" d="m524.7 185.7c-1.2 12.9-11.2 48.6-56.7 48.6-46.7 0-57.4-35.7-57.4-61.9 0-40.1 17.5-68.9 59.5-68.9 19.6 0 51.8 8.9 54.8 47.7h-33.1c-1.4-8.2-6.5-21-21.7-20.1-20.5 0-25.9 20.5-25.9 35.9 0 13.6 0.5 40.4 25.2 40.4 16.6 0 22.1-15.8 22.1-21.7zm72.1 48.6c-33.3 0-63.4-20.6-63.4-65.4 0-44.8 30.1-65.4 63.4-65.4 33.4 0 63.5 20.6 63.5 65.4 0 44.8-30.1 65.4-63.5 65.4zm0-103.2c-25.2 0-29.8 21.9-29.8 37.8 0 15.9 4.6 37.9 29.8 37.9 25.2 0 29.9-22 29.9-37.9 0-15.9-4.7-37.8-29.9-37.8zm191.5 99.9h-32.6v-75.4c0-9.1-0.5-24.5-21.3-24.5-14.4 0-25.6 9.8-25.6 28.7v71.2h-32.7v-124.2h31.3v18.2h0.4c4.5-7.5 13.8-21.5 37.4-21.5 24.2 0 43.1 14.3 43.1 41.6 0 0 0 85.9 0 85.9zm149.1-138h-88.9v35.3h81.6v29.6h-81.6v43.5h92.8v29.6h-127.1v-167.6h123.2zm136.2 138h-32v-15.7h-0.4c-8 14-22.4 18.9-36 18.9-36.8 0-52.2-32.7-52.2-66.7 0-43 24.3-64 51.6-64 20.9 0 30.8 11.4 35.9 19.4h0.5v-59.6h32.6zm-60.2-23.6c20.8 0 28.9-17.2 28.9-35.7 0-19.8-5.6-39.9-28-39.9-20.7 0-27.7 18.4-27.7 38.1 0 14.7 5.8 37.5 26.8 37.5zm83.3-145.6h32.6v30.3h-32.6zm0 45.1h32.6v124.2h-32.6zm127.1 37.8c-1.4-7.9-4.2-16.3-21.9-16.3-17.7 0-20.1 6.7-20.1 12.1 0 19.6 77.7 5.4 77.7 51.1 0 36.2-35 42.8-54.3 42.8-28.3 0-58.8-9.8-59.8-43h33.6c0 10.5 6.6 18.2 27.1 18.2 16.8 0 20.7-8.2 20.7-12.8 0-20.8-76.9-5.2-76.9-51.6 0-18.2 11.4-41.6 50.1-41.6 24.3 0 53.2 6.1 55.8 41.1zm108.7 89.7c-33.4 0-63.4-20.6-63.4-65.4 0-44.8 30-65.4 63.4-65.4 33.3 0 63.4 20.6 63.4 65.4 0 44.8-30.1 65.4-63.4 65.4zm0-103.2c-25.2 0-29.9 21.9-29.9 37.8 0 15.9 4.7 37.8 29.9 37.8 25.2 0 29.9-21.9 29.9-37.8 0-15.9-4.7-37.8-29.9-37.8zm191.5 99.9h-32.7v-75.4c0-9.1-0.4-24.5-21.2-24.5-14.5 0-25.7 9.8-25.7 28.7v71.2h-32.6v-124.2h31.3v18.2h0.4c4.4-7.5 13.8-21.5 37.3-21.5 24.3 0 43.2 14.3 43.2 41.6z"/>
		<path id="path2892" class="s0" d="m350 293.9h-203.1c-81 0-146.8-65.9-146.8-146.9 0-80.9 65.8-146.8 146.8-146.8h203.1v37.9h-203.1c-60.1 0-108.9 48.9-108.9 108.9 0 60.1 48.8 109 108.9 109h203.1zm-200-231h199.8v37.9h-199.8c-25.6 0-46.5 20.9-46.5 46.5 0 25.7 20.9 46.5 46.5 46.5h199.8v37.9h-199.8c-46.5 0-84.3-37.8-84.3-84.4 0-46.5 37.8-84.4 84.3-84.4zm200 103.2h-201.2c-10.5 0-19-8.4-19-18.9 0-10.5 8.5-19 19-19h201.2z"/>
	</g>
</svg>