<svg version="1.2" xmlns="http://www.w3.org/2000/svg" viewBox="0 0 1524 207" width="1524" height="207">
	<title>2021-Annual-Report-1-pdf-svg</title>
	<defs>
		<clipPath clipPathUnits="userSpaceOnUse" id="cp1">
			<path d="m-680.52-1143.78h6134.59v7815.65h-6134.59z"/>
		</clipPath>
	</defs>
	<style>
		.s0 { fill: #ffffff } 
		.s1 { fill: #11386d } 
		.s2 { fill: #43454b } 
	</style>
	<g id="Clip-Path: Page 1" clip-path="url(#cp1)">
		<g id="Page 1">
			<path id="Path 6" class="s0" d="m0.8 0.7h205.4v205.6h-205.4z"/>
			<path id="Path 8" fill-rule="evenodd" class="s1" d="m0.8 170.9v-170.2h205.4v205.6h-151c0.9-46.1 19.9-90.7 58.5-122.8q12.1-9.8 24.7-17.3-14 5.2-27.5 12.1c-50.6 28-79.4 75.9-85.5 128h-12.5c4.6-34.4 19.5-67.5 46-94.9q10.7-11.2 22.8-20-13.5 6.5-26.1 15.3c-24.6 17.7-42.7 39.6-54.8 64.2zm125.5-119.1l22.3 9.8-2.8 24.7 16.7-18.2 22.3 10.2-12.5-21.4 16.7-18.1-24.2 5.1-11.6-21.8-2.8 24.6z"/>
			<path id="Path 9" fill-rule="evenodd" class="s2" d="m249.9 104.4c0-28.4 21.8-48.4 51.1-48.4 9.3 0 17.7 1.4 25.1 4.7l2.8-3.8h3.2l1.9 32.1h-4.2c-1.4-6.5-4.2-17.2-6.9-20.9-3.8-3.7-11.2-7-21-7-26 0-34.3 21.4-34.3 42.4 0 25.6 13 43.2 32 43.2 7.9 0 16.3-3.2 20.5-6 3.2-3.3 7.9-15.4 9.7-21.4h4.2l-5.1 27.4c-6 2.4-17.7 5.1-29.7 5.1-32.1 0-49.3-22.3-49.3-47.4zm96.2 11.2c0-21.4 14.9-36.8 35.3-36.8 20 0 34.4 14.4 34.4 36.3 0 21.4-14.4 36.7-34.4 36.7-20.4 0-35.3-13.4-35.3-36.2zm55.3-0.5c0-15.8-7-30.7-20-30.7-12.1 0-20.4 10.7-20.4 30.7 0 16.7 6.9 32.1 20.4 32.1 11.6 0 20-10.2 20-32.1zm20.4 31.6l5.6-1.4c3.3-0.4 4.7-0.9 4.7-2.8v-48.3c0-3.3-0.5-4.2-6.1-6.6l-3.7-1.3v-3.3l19.1-4.2h4.1v15.4c4.2-7.9 11.7-15.4 22.8-15.4 15.4 0 23.7 9.8 23.7 24.7v39c0 1.9 2.3 2.4 4.7 2.8l5.1 1.4v3.8h-33.5v-3.8l5.6-1.4c4.2-0.9 4.6-0.9 4.6-2.8v-35.3c0-10.2-2.3-19.6-15.3-19.6-8.8 0-14.9 6.1-17.7 11.2v43.7c0 1.9 2.4 2.4 4.7 2.8l5.6 1.4v3.8h-34zm87.4-21h3.7c1.9 7.5 4.7 12.1 7 15.8 3.7 3.3 7.4 5.2 12.1 5.2 7.9 0 13.9-3.8 13.9-11.7 0-7.9-4.6-10.2-8.8-11.6l-11.6-4.7c-7.9-3.2-14.9-9.3-14.9-18.6 0-13.5 12.1-21.4 25.1-21.4 6.5 0 12.1 1.9 14.9 3.8l1.8-3.8h3.8v22.4h-3.8c-0.9-5.2-2.8-8.9-4.1-12.1-1.9-2.4-7-5.6-12.1-5.6-6.5 0-13 4.6-13 11.6 0 6.5 2.3 10.2 7.9 12.1l13.4 5.6c7.5 2.8 14.9 8.8 14.9 17.7 0 14.4-12.5 21.4-25.6 21.4q-11.8 0-18.1-4.2l-1.8 4.2h-3.8zm64.2 7.9v-44.7h-7.9v-4.6c2.3-1 6-2.4 9.3-4.2 1.8-3.3 6-14 6.9-17.7h4.7v20h20.9v6.5h-20.9v41.4c0 9.8 3.7 13 12.5 13 5.2 0 8.9-2.3 11.2-4.6l1.4 1.9c-3.7 6.5-10.7 11.1-19.5 11.1-11.2 0-18.6-6.5-18.6-18.1zm39-18.6c0-20.5 13-36.3 33.5-36.3 14.9 0 25.5 8.8 25.5 23.7 0 1.9-0.4 6.1-0.9 7.9l-44.6-0.9v2.8c0 19.5 9.3 29.8 25.1 29.8 7.9 0 14.4-3.8 18.6-9.4l1.4 1.4c-5.1 10.7-13.5 17.7-27.4 17.7-19.6 0-31.2-15.8-31.2-36.7zm45.1-11.2c0.5-0.9 0.9-2.8 0.9-4.2 0-10.2-5.1-15.8-13.5-15.8-11.1 0-17.6 10.2-18.5 21.4zm18.1 42.3l5.1-0.9c2.3-0.9 4.6-0.9 4.6-3.3v-81.4c0-4.2-0.4-5.1-3.7-6.5l-5.6-2.3v-2.8l19.6-3.7h4.2c-0.5 5.1-0.5 14.4-0.5 21.4v75.3c0 2.4 2.3 2.4 4.2 3.3l5.5 0.9v3.8h-33.4zm42.3 0l5.6-1.4c1.8-0.5 4.6-1 4.6-2.8v-81.4c0-4.7-0.9-5.2-4.2-7l-5.6-2.3v-2.8l19.6-3.8h4.6c-0.5 5.6-0.9 14.5-0.9 21.4v75.9c0 1.8 2.3 2.3 4.6 2.8l5.1 1.4v3.2h-33.4zm39.5-12.1c0-13 14.9-17.7 28.8-21.4l13-3.2v-7.9c0-11.7-6-16.3-15.8-16.3-3.7 0-8.4 0.9-11.6 2.8l2.3 3.7c0.9 1.8 1.4 3.7 1.4 5.1 0 4.2-2.3 8.4-7.9 8.4-4.6 0-7-3.3-7-7.9 0-5.6 4.7-9.8 8.4-11.7l4.2-2.8c5.1-3.2 10.7-4.1 15.3-4.1 14.9 0 23.7 5.5 23.7 20.9v31.6c0 6.1 0 8.4 0.9 11.7 2.8 0.9 7 1.4 11.2 1.4v2.7c-4.6 2.8-10.7 4.2-13.9 4.2-7.9 0-10.7-4.2-11.2-11.6-5.1 7.4-12.5 11.6-21.8 11.6-12.6 0-20-6.5-20-17.2zm41.8 0.9v-20.9l-13 3.7c-7.4 2.4-15.8 5.6-15.8 14.5 0 7.9 5.1 11.1 12.5 11.1 7.5 0 13.5-4.6 16.3-8.4zm31.1-1.3v-44.7h-7.9v-4.7c2.4-1.4 6.1-2.3 8.9-4.6 2.3-3.3 6-13.5 7.4-17.2h4.7v20h20.9v6.5h-20.9v41.4c0 9.8 3.2 13 12 13 5.6 0 9.3-2.3 11.7-4.6l1.4 1.4c-3.8 6.9-10.7 11.1-20 11.1-11.2 0-18.2-6-18.2-17.6zm41.4 12.5l5.6-1.4c2.3 0 4.6-0.9 4.6-3.2v-48c0-3.2 0-4.1-6-6.5l-4.2-1.4v-3.2l19.1-3.7h4.6v62.8c0 2.3 0.5 2.8 4.7 3.2l5.5 1.4v3.7h-33.9zm17.4-82.8c-4.7 0-8.6-4.1-8.6-9.3 0-5.1 3.9-9.3 8.6-9.3 4.8 0 8.6 4.2 8.6 9.3 0 5.2-3.8 9.3-8.6 9.3zm18.9 51.2c0-20.9 14.8-36.3 34.8-36.3 20 0 34.9 14.4 34.9 36.3 0 21.4-14.9 36.8-34.9 36.8-20 0-34.8-14-34.8-36.8zm54.8 0c0-16.3-7-31.2-20-31.2-12.1 0-20 10.7-20 31.2 0 16.3 7 31.6 20 31.6 12.1 0 20-10.2 20-31.6zm20.9 31.6l5.1-1.4c3.3-0.9 5.1-1.4 5.1-2.8v-48.8c0-2.8-0.4-3.7-6-6l-4.2-1.9v-2.8l19.1-4.2h4.6v15.4c3.7-8.4 11.2-15.4 22.8-15.4 15.3 0 23.2 9.3 23.2 24.2v39.5c0 1.9 2.3 2.4 4.7 2.8l5.5 1.4v3.3h-33.9v-3.3l5.6-1.4c4.2-0.9 4.6-0.9 4.6-2.8v-35.3c0-10.2-2.3-20-15.3-20-8.8 0-14.9 6-17.2 11.6v43.7c0 1.9 1.9 2.4 4.2 2.8l5.6 1.4v3.3h-33.5zm111.1-0.9l8.3-1.4c3.8-0.5 4.2-1 4.2-3.3v-73.5c0-1.9-0.4-2.3-4.2-3.3l-8.3-1.3v-4.7h42.7c20.5 0 32.6 8.4 32.6 22.8 0 10.7-8.9 18.1-18.6 20.9 12.5 3.3 22.8 11.2 22.8 23.8 0 18.6-18.2 24.6-34 24.6h-45.5zm37.6-45.6c14 0 22.8-5.1 22.8-19.1 0-13-7.9-17.6-20.9-17.6h-2.8c-3.3 0-6.5 0-8.8 0.9v35.8zm5.1 44.7c13.5 0 20.9-7 20.9-20 0-13-12.1-19.6-26.5-19.6h-8.8v38.7c1.8 0.4 6 0.9 10.2 0.9zm45.1 1.4l5.6-1c2.7-0.9 4.6-0.9 4.6-3.2v-48.4c0-2.8-0.5-4.2-6-6.5l-4.2-1.4v-3.3l19-3.7h4.7v16.3c3.2-9.3 10.7-16.3 19-16.3 4.2 0 8.4 3.3 8.4 7 0 7-7 10.2-7 10.2-0.4-1.4-2.3-5.1-6.9-5.1-5.6 0-12.1 4.2-13.5 8.4v42.3c0 1.9 1.8 2.8 4.6 3.3l10.7 1.4v3.7h-39zm54.4-12.1c0-13 14.8-17.7 28.3-21.4l13-3.3v-7.9c0-11.6-6-16.2-15.3-16.2-3.7 0-8.9 0.4-12.1 2.7l2.3 3.8c0.9 1.8 1.4 3.7 1.4 5.1 0 4.2-2.3 8.4-7.4 8.4-4.7 0-7.5-3.3-7.5-8.4 0-5.6 4.7-9.3 8.9-11.6l4.2-2.4c5.1-3.2 10.2-4.6 14.8-4.6 14.9 0 23.7 6 23.7 21.4v31.6c0 5.6 0.5 8.4 1 11.2 2.7 1.4 7.4 1.8 11.1 1.8v2.8c-4.6 2.8-10.7 4.2-13.9 4.2-7.9 0-10.3-4.2-11.2-11.6-4.6 7.4-12.5 11.6-21.8 11.6-12.1 0-19.5-6.5-19.5-17.2zm41.3 0.9v-20.9l-13 3.7c-7 1.9-15.3 5.6-15.3 14 0 7.9 4.6 11.6 12.5 11.6 7 0 13-4.6 15.8-8.4zm27 11.2l5.5-1.4c3.3-0.5 4.7-0.9 4.7-2.8v-48.4c0-3.2 0-4.2-6-6.5l-3.8-1.8v-2.8l19.1-4.2h4.2v15.3c4.2-8.3 11.6-15.3 22.7-15.3 15.4 0 23.7 9.7 23.7 24.2v39.5c0 1.9 2.4 2.3 4.7 2.8l5.6 1.4v3.3h-34v-3.3l5.6-1.4c4.2-0.9 4.7-0.9 4.7-2.8v-35.3c0-10.3-2.4-19.6-15.4-19.6-8.8 0-14.8 5.6-17.6 11.2v43.7c0 1.9 2.3 2.3 4.6 2.8l5.6 1.4v3.3h-33.9zm134.7-6.6c-4.6 7-12.5 12.1-22.7 12.1-18.2 0-28.8-15.3-28.8-36.2 0-20.5 14.4-36.8 34.8-36.8 6.1 0 13 2.8 16.7 7v-25.6c0-5.1 0-5.6-6.5-7.5l-5.5-1.3v-2.8l21.8-3.3h4.6c-0.9 5.6-1.3 14.4-1.3 21.4v74.4c0 2.4 0.4 2.4 4.1 3.3l6.5 1.4v3.2l-23.7 3.3zm0-3.7v-47c-2.3-1.4-7.4-4.2-14.4-4.2-13.4 0-22.7 12.1-22.7 29.3 0 19.1 8.8 28.4 22.7 28.4 5.1 0 11.2-3.3 14.4-6.5zm33.5-10.3h4.2c1.8 7.5 4.2 12.1 6.5 15.9 3.7 3.2 7.9 5.1 12.5 5.1 7.9 0 13.5-4.2 13.5-11.6 0-8.4-4.6-10.3-8.8-12.1l-11.6-4.2c-7.9-3.3-14.9-9.3-14.9-19.1 0-13.5 12.1-20.9 25.1-20.9 6.5 0 12.1 1.8 14.9 3.7l1.8-3.7h3.7v22.3h-3.7c-0.9-5.6-2.8-8.8-4.2-12.1-1.8-2.8-6.9-6.1-11.6-6.1-6.9 0-13 5.2-13 12.1 0 6.6 1.9 10.3 7.4 12.1l14 5.6c7 2.8 14.4 8.4 14.4 17.7 0 14.4-12.6 21.4-25.1 21.4-8.4 0-14.4-1.9-18.6-4.2l-1.8 4.2h-3.8z"/>
		</g>
	</g>
</svg>