<svg version="1.2" xmlns="http://www.w3.org/2000/svg" viewBox="0 0 1558 229" width="1558" height="229">
	<title>Corning_Incorporated_Logo-svg</title>
	<style>
		.s0 { fill: #005ed1 } 
	</style>
	<g id="layer1">
		<path id="path3023" class="s0" d="m185.7 149.5h11.4c0 0-4.8 58.5-5 58.6-20.3 10.3-41.7 20.6-80.6 20.6-68.8 0-110.6-44.4-111.5-111.9-0.9-69.8 46.7-116.8 116-116.8 28.4 0 61.9 9.5 74.2 16.6v54.8h-11c-4.7-29-17.9-56.2-62.5-56.2-52.7 0-82.7 39.5-82.4 100.3 0.4 57.3 32.3 98 80.3 98 50.7 0 60.7-29.6 67.5-52z"/>
		<path id="path3009" fill-rule="evenodd" class="s0" d="m338.5 228.7c-69.4 0-110.9-42.3-110.9-113 0-70.3 47.2-115.7 120.1-115.7 68.2 0 110.5 42.5 110.5 110.9 0 72.6-45.9 117.8-119.7 117.8zm85.4-114.1c0-62.3-30.5-99.4-81.7-99.4-49.5 0-80.2 37.8-80.2 98.8 0 61.4 30.7 99.5 80.2 99.5 51.2 0 81.7-36.9 81.7-98.9zm411-109.8h98.8v9.1l-28.9 8.2-2.6 206.4h-4.2l-157.7-195.2 5.3 172.9 42.9 8.4v9.3h-86.1c-58.4 0-70.9-12.8-88.1-35.2l-51.5-67-12.2-3.9v-9.2c4.9 0 10.4-0.3 15.1-0.9 13.7-1.8 47.2-7.8 47.2-49.4 0-26.8-16.9-39.8-51.8-39.8-6.3 0-15.6 1-25 2.5v185.4l31.5 8.3v9.2h-97.4v-9.3l35.6-8.2v-184.2l-35.6-8.2v-9.2h98.2c62.9 0 76 28.9 76 53.2 0 37.2-31.6 51.6-51.2 57.1 6.2 7.7 55.6 68.9 55.6 68.9 19 23.7 33.3 27.5 42.4 30.1l31.9-7.7 1.4-184.2-35.8-8.2v-9.2h66.7l132.2 161.6-5.3-144.1-47.4-8.2c0 0 0-9.3 0-9.3zm220.7 219.1h-101.5v-9.2l35.6-8.3v-184.2l-35.6-8.2v-9.2h101.6v9.2l-35.8 8.2 0.1 184.2 35.6 8.3c0 0 0 9.2 0 9.2zm120.3 0h-99.8v-9.3l34.3-8.2 1.3-184.2-35.6-8.2v-9.2h66.7l132.1 161.6-5.3-144.1-47.4-8.2 0.1-9.3h98.8v9.1l-28.9 8.2-2.7 206.4h-4.2l-157.6-195.1 5.3 172.9 42.9 8.3c0 0 0 9.3 0 9.3zm353.4-18.4c-18.9 11.2-42.9 24.1-88.6 23.3-66.8-1-110-45.6-110.3-111.7-0.4-71.3 44-117 113.3-117 35.4 0 66 9 80.2 17v54.1h-10.1c-4.7-25.1-18-55.9-65.5-55.9-53.9 0-83.6 37.1-83.6 100.4 0 57.3 32.2 96.5 77.9 98 25.5 0.8 41.9-6 56.6-17.7v-56.9l-41.9-8.2v-9.2h100.3v9.1l-28.2 8.2c0 0-0.2 66.4-0.1 66.5zm0 0q0 0 0 0 0 0 0 0z"/>
	</g>
</svg>