<svg version="1.2" baseProfile="tiny-ps" xmlns="http://www.w3.org/2000/svg" viewBox="0 0 1576 464" width="1576" height="464">
	<title>Costco_Wholesale_logo_2010-10-26-svg</title>
	<style>
		tspan { white-space:pre }
		.shp0 { fill: #ffffff } 
		.shp1 { fill: #005daa } 
		.shp2 { fill: #e31837 } 
	</style>
	<path id="Layer" fill-rule="evenodd" class="shp0" d="M1551.83 105.3C1572.64 130.52 1580.11 162.09 1573.48 196.61C1568.05 224.75 1554.09 249.78 1533.95 270.46C1535.81 271.88 1537.53 273.47 1539.03 275.27C1544.8 282.23 1547.13 291.39 1545.43 300.38C1543.99 307.96 1539.82 314.61 1534.09 319.79L1541.12 319.79L1528.48 386.26L1525.16 386.26L1523.42 395.39L1528.06 395.39L1515.43 461.86L1261.57 461.86L1259.89 448.89L1254.4 448.89L1248.3 461.86L1165.99 461.86C1159.73 462.96 1153.45 463.51 1147.35 463.51C1137.3 463.51 1126.79 462.18 1116.78 459.92L1116.41 461.85L900.52 461.85L902.18 453.09C887.72 459.75 870.94 463.5 852.86 463.5C832.63 463.5 815.06 458.74 801.53 449.98L799.27 461.85L645.29 461.85L648.15 446.8L638.91 461.85L570.81 461.85L570.7 460.11L569.82 461.85L4.02 461.85L4.02 319.79L115.1 319.79C79.07 310.68 48.75 292.83 28.21 267.81C4.13 238.43 -4.9 200.95 2.83 162.25C20.98 71.3 123.02 0.04 235.13 0.04C265.69 0.04 296.49 4.28 324.2 12.29L340.43 16.99L326.15 103.8C362.83 72.87 414.7 53.96 472.04 53.96C527.9 53.96 575.38 72.67 602.3 105.3C604.56 108.03 606.59 110.87 608.53 113.75C638.13 74.4 695.14 53.96 747.81 53.96C775.98 53.96 800.99 58.51 823.72 67.65L826.76 57.64L1082.6 57.64L1073.08 88.98C1106.14 67.19 1147.05 53.96 1189.84 53.96C1214.74 53.96 1239.85 57.53 1262.46 64.27L1278.44 69.02L1272.43 106.67C1309.27 74.05 1362.47 53.96 1421.57 53.96C1477.43 53.96 1524.91 72.67 1551.83 105.3ZM1416.91 327.46C1414.27 327.88 1411.6 328.27 1408.92 328.61L1397.15 390.42L1404.95 390.42L1416.91 327.46ZM1223.25 189.37C1223.81 186.43 1224.66 183.58 1225.43 180.7C1213.08 171.01 1200.5 166.28 1187.1 166.28C1165.69 166.28 1144.21 180.16 1141.15 195.99C1140.23 200.69 1141.23 204.72 1144.21 208.33C1149.45 214.68 1159.51 218.47 1171.12 218.47C1188.3 218.47 1204.35 213.05 1221.48 201.6C1221.89 197.58 1222.45 193.5 1223.25 189.37ZM1240.6 319.79L1304.65 319.78C1279.5 311.18 1258.67 297.79 1244.21 280.27C1242.78 278.54 1241.55 276.69 1240.25 274.89L1230.67 316.89L1220.92 320.43C1217.9 321.52 1214.44 322.51 1210.73 323.4C1215.8 325.12 1220.71 327.1 1225.29 329.67L1232.24 333.56L1240.6 319.79ZM1325.38 325.6C1322.68 325.01 1320.05 324.34 1317.43 323.66L1322.06 343.08L1325.38 325.6ZM1363.91 197.82C1362.75 203.83 1363.59 208.59 1366.38 211.98C1370.43 216.89 1378.85 219.7 1389.51 219.7C1411.43 219.7 1429.01 207.74 1432.33 190.61C1433.15 186.46 1433.28 180.55 1429.47 175.92C1425.3 170.89 1417.27 168.12 1406.84 168.12C1382.42 168.12 1366.75 183.06 1363.91 197.82ZM926.08 327.11L915.37 327.11C918.77 328.72 922.03 330.52 925.03 332.55L926.08 327.11ZM859.89 392.61C862.5 392.46 864.75 391.63 866.13 390.4C863.32 390.52 861.23 391.46 859.89 392.61ZM817.46 170.91C820.77 174.11 823.77 177.48 826.28 181.18C832.38 190.21 835.86 200.37 836.68 211.54L849.39 169.72L817.46 170.91ZM479.94 175.92C475.78 170.89 467.74 168.12 457.31 168.12C432.89 168.12 417.23 183.05 414.38 197.82C413.21 203.83 414.04 208.59 416.84 211.98C420.89 216.89 429.32 219.7 439.97 219.7C461.87 219.7 479.48 207.74 482.79 190.6C483.59 186.47 483.74 180.55 479.94 175.92ZM629.63 326.58C629.46 326.56 629.3 326.53 629.13 326.51L629.21 327.46L629.63 326.58ZM746.85 319.79L803.84 319.79L818.68 270.91C802.1 294.06 775.98 310.17 746.85 319.79ZM824.57 328.64C825.71 328.11 826.86 327.6 828.04 327.11L824.86 327.11L824.57 328.64ZM211.8 198.89C233.97 198.89 254.64 192.24 276.52 178.24C279.26 168.58 283.03 159.31 287.76 150.47C269.85 135.29 251.51 127.86 231.71 127.86C202.38 127.86 174.01 145.83 169.76 167.11C168.44 173.71 169.87 179.44 174.12 184.61C181.45 193.55 195.54 198.89 211.8 198.89ZM546.98 299.61C532.96 307.88 517.5 314.68 500.85 319.79L560.38 319.79L560.86 327.18L564.55 319.79L598.98 319.79C587.09 316.47 575.72 312.54 565.49 307.94L546.98 299.61ZM998.14 390.42L1005.94 390.41L1019.38 319.78L1076.82 319.78C1054.73 311.49 1035.86 298.83 1022.12 282.18C1001.25 256.91 993.36 224.49 999.85 190.9C1001.26 183.68 1003.43 176.68 1006 169.81L992.07 169.28L946.39 319.79L1011.57 319.79L998.14 390.42ZM272.12 314.5C266.24 316.57 259.01 318.31 251.15 319.79L355.11 319.79C329.97 311.19 309.14 297.8 294.69 280.28C293.17 278.45 291.89 276.52 290.52 274.6L281.94 311.05L272.12 314.5ZM1450.39 319.79L1480.62 319.79C1480.19 319.33 1479.65 318.96 1479.24 318.47C1477.31 316.14 1475.92 313.48 1474.77 310.74C1466.96 314.17 1458.83 317.18 1450.39 319.79Z" />
	<path id="Layer" class="shp1" d="M542.53 338.81L546.46 400.89L547.45 400.89C549.48 394.55 551.74 387.92 554.91 381.72L576.31 338.81L611.08 338.81L616.34 400.89L617.33 400.89C619.15 394.82 621.18 388.46 623.97 382.54L644.86 338.81L692.05 338.81L628.24 442.83L588.66 442.83L585.17 386.26L583.68 386.26C582.17 391.66 580.83 396.89 578.37 401.99L558.03 442.83L519.44 442.83L495.5 338.81L542.53 338.81Z" />
	<path id="Layer" class="shp1" d="M688.74 338.81L732.46 338.81L725.8 373.85L753.61 373.85L760.28 338.81L803.99 338.81L784.22 442.83L740.51 442.83L747.38 406.69L719.56 406.69L712.69 442.83L668.98 442.83L688.74 338.81Z" />
	<path id="Layer" fill-rule="evenodd" class="shp1" d="M852.83 444.48C814.74 444.48 787.57 424.47 793.92 391.09C800.13 358.4 835.31 337.15 873.22 337.15C911.14 337.15 938.22 358.4 932.02 391.09C925.67 424.48 890.9 444.48 852.83 444.48ZM839.52 391.64C837.25 403.5 845.32 411.65 859.06 411.65C872.81 411.65 883.96 403.5 886.23 391.64C888.31 380.59 881.14 371.36 866.73 371.36C852.3 371.37 841.61 380.6 839.52 391.64ZM941.96 338.81L987.33 338.81L973.9 409.44L1012 409.44L1005.64 442.82L922.19 442.82L941.96 338.81ZM1121.35 407.1C1128.47 412.34 1137.42 416.62 1147.86 416.62C1152.34 416.62 1159.74 415.09 1160.63 410.41C1161.53 405.73 1155.65 405.31 1151.65 404.61L1142.8 403.24C1125.57 400.61 1112.34 391.92 1115.41 375.65C1120.12 350.96 1149.72 337.16 1176.88 337.16C1191.12 337.16 1203.66 340.06 1214.73 346.26L1197.41 372.89C1190.47 368.48 1182.35 365.03 1172.57 365.03C1168.61 365.03 1162.56 366.26 1161.77 370.54C1161.03 374.39 1166.55 374.95 1169.9 375.64L1179.81 377.57C1198.32 381.17 1210.62 389.71 1207.27 407.37C1202.54 432.2 1173.05 444.48 1146.06 444.48C1130.34 444.48 1112.79 440.89 1099.85 434.96L1119.33 405.57L1121.35 407.1Z" />
	<path id="Layer" fill-rule="evenodd" class="shp1" d="M1187.69 442.83L1250.85 338.81L1301.02 338.81L1325.79 442.83L1277.77 442.83L1276.1 429.86L1241.83 429.86L1235.71 442.83L1187.69 442.83ZM1273.4 386.81C1272.91 382.4 1272.94 377.85 1272.97 373.43L1271.31 373.43L1257.01 405.16L1275.21 405.16L1273.4 386.81Z" />
	<path id="Layer" class="shp1" d="M1341.77 338.81L1387.14 338.81L1373.71 409.44L1411.81 409.44L1405.45 442.82L1322 442.82L1341.77 338.81ZM1433.65 338.81L1517.62 338.81L1512.21 367.23L1473.95 367.23L1472.06 377.17L1506.99 377.17L1501.86 404.21L1466.92 404.21L1464.99 414.41L1504.57 414.41L1499.16 442.83L1413.88 442.83L1433.65 338.81Z" />
	<g id="Layer">
		<path id="Layer" fill-rule="evenodd" class="shp2" d="M840.86 76.67L1056.93 76.67L1034.11 151.87L978.12 149.72L930.06 308.09L827.28 308.09L875.35 149.72L818.06 151.87L840.86 76.67ZM605.24 192.99C590.86 267.25 512.11 311.77 425.83 311.77C339.56 311.77 278.03 267.26 292.4 192.99C306.48 120.24 386.14 72.99 472.04 72.99C557.93 72.99 619.31 120.25 605.24 192.99ZM395.69 194.22C390.59 220.61 408.85 238.72 439.96 238.72C471.1 238.72 496.36 220.62 501.46 194.22C506.22 169.67 489.94 149.11 457.3 149.11C424.67 149.09 400.44 169.67 395.69 194.22Z" />
		<path id="Layer" fill-rule="evenodd" class="shp2" d="M573.29 290.59L617.44 225.21L622.03 228.59C638.15 240.25 658.44 249.76 682.07 249.76C692.21 249.76 708.98 246.38 711 235.95C713.03 225.52 699.7 224.61 690.61 223.06L670.58 220C631.57 214.17 601.55 194.83 608.56 158.61C619.19 103.68 686.27 72.98 747.79 72.98C780.05 72.98 808.43 79.42 833.52 93.23L794.31 152.46C778.59 142.64 760.18 134.97 738.06 134.97C729.05 134.97 715.38 137.74 713.55 147.25C711.89 155.85 724.4 157.07 731.98 158.61L754.41 162.91C796.39 170.89 824.2 189.92 816.6 229.2C805.92 284.45 739.12 311.77 677.97 311.77C642.34 311.77 602.62 303.77 573.29 290.59ZM1257 82.5L1242.99 170.62C1228.9 158.02 1210.36 147.28 1187.1 147.28C1156.35 147.28 1127.34 167.22 1122.47 192.4C1117.54 217.86 1140.38 237.5 1171.12 237.5C1194.76 237.5 1215.1 229.21 1234.17 216.02L1214.42 302.57C1196.65 309.01 1157.86 311.77 1139.49 311.77C1058.84 311.77 1005.74 260.52 1018.51 194.53C1031.58 127 1106.92 72.99 1189.81 72.99C1213.08 72.99 1236.44 76.35 1257 82.5ZM1554.77 192.99C1540.41 267.26 1461.64 311.77 1375.38 311.77C1289.1 311.77 1227.57 267.25 1241.93 192.99C1256.01 120.24 1335.68 72.99 1421.57 72.99C1507.46 72.99 1568.83 120.25 1554.77 192.99ZM1406.84 149.09C1374.21 149.09 1349.97 169.67 1345.22 194.2C1340.11 220.6 1358.36 238.71 1389.49 238.71C1420.63 238.71 1445.9 220.59 1450.99 194.2C1455.76 169.65 1439.48 149.09 1406.84 149.09ZM318.9 30.56L301.39 137.01C283.84 121.81 260.7 108.82 231.7 108.82C193.34 108.82 157.18 132.94 151.1 163.36C144.96 194.16 173.43 217.91 211.79 217.91C241.28 217.91 266.66 207.89 290.43 191.93L265.8 296.56C243.67 304.34 195.28 307.68 172.35 307.68C71.78 307.68 5.55 245.73 21.47 165.97C37.75 84.35 131.73 19.06 235.12 19.06C264.13 19.06 293.25 23.14 318.9 30.56Z" />
		<path id="Layer" fill-rule="evenodd" class="shp2" d="M1491.52 296.84C1493.06 288.76 1502.07 282.25 1511.88 282.25C1521.61 282.25 1528.21 288.76 1526.67 296.84C1525.12 304.97 1516.07 311.48 1506.32 311.48C1496.52 311.48 1489.99 304.96 1491.52 296.84ZM1522.09 296.84C1523.32 290.33 1518.65 286.06 1511.14 286.06C1503.5 286.06 1497.34 290.33 1496.11 296.84C1494.88 303.35 1499.41 307.66 1507.05 307.66C1514.56 307.66 1520.85 303.36 1522.09 296.84ZM1515.83 304.48L1511.29 304.48L1508.43 298L1505.46 298L1504.23 304.48L1500.37 304.48L1503.28 289.18L1512.18 289.18C1516.11 289.18 1518.23 290.27 1517.56 293.86C1517.04 296.48 1515 297.83 1512.63 298.02L1515.83 304.48ZM1514.11 293.44C1514.36 292.09 1512.7 292.09 1510.77 292.09L1506.59 292.09L1506.04 295.08L1510.2 295.08C1512.13 295.08 1513.79 295.08 1514.11 293.44Z" />
	</g>
	<path id="Layer" fill-rule="evenodd" class="shp1" d="M28.65 416.37L503.19 416.37L509.27 442.83L509.67 442.83L509.7 443L28.65 443L28.65 416.37ZM28.65 378.57L494.48 378.57L500.61 405.19L28.65 405.19L28.65 378.57ZM28.65 339.01L485.38 339.01L489.63 357.52L491.72 367.22L28.65 367.22L28.65 339.01ZM1033.85 338.81L1117.81 338.81L1112.41 367.23L1074.15 367.23L1072.26 377.17L1107.19 377.17L1102.06 404.21L1067.13 404.21L1065.19 414.41L1104.76 414.41L1099.36 442.83L1014.07 442.83L1033.85 338.81Z" />
</svg>