<svg version="1.2" baseProfile="tiny-ps" xmlns="http://www.w3.org/2000/svg" viewBox="0 0 1576 307" width="1576" height="307">
	<title>Coterra-svg</title>
	<defs>
		<linearGradient id="grd1" gradientUnits="userSpaceOnUse"  x1="123.001" y1="219.523" x2="115.494" y2="236.324">
			<stop offset="0.1" stop-color="#00999e"  />
			<stop offset="0.75" stop-color="#003946"  />
		</linearGradient>
		<linearGradient id="grd2" gradientUnits="userSpaceOnUse"  x1="265.039" y1="58.037" x2="150.185" y2="325.265">
			<stop offset="0.1" stop-color="#00999e"  />
			<stop offset="0.75" stop-color="#003946"  />
		</linearGradient>
		<linearGradient id="grd3" gradientUnits="userSpaceOnUse"  x1="170.715" y1="70.674" x2="163.209" y2="87.474">
			<stop offset="0.1" stop-color="#00999e"  />
			<stop offset="0.75" stop-color="#003946"  />
		</linearGradient>
		<linearGradient id="grd4" gradientUnits="userSpaceOnUse"  x1="138.408" y1="94.135" x2="23.557" y2="361.333">
			<stop offset="0.1" stop-color="#00999e"  />
			<stop offset="0.75" stop-color="#003946"  />
		</linearGradient>
	</defs>
	<style>
		tspan { white-space:pre }
		.shp0 { fill: #003a46 } 
		.shp1 { fill: url(#grd1) } 
		.shp2 { fill: url(#grd2) } 
		.shp3 { fill: #00999e } 
		.shp4 { fill: url(#grd3) } 
		.shp5 { fill: url(#grd4) } 
	</style>
	<path id="Layer" fill-rule="evenodd" class="shp0" d="M390.56 153.51C390.33 143.5 392.13 133.55 395.84 124.25C399.56 114.96 405.12 106.51 412.19 99.41C419.26 92.31 427.69 86.71 436.98 82.95C446.26 79.18 456.22 77.33 466.24 77.51C471.58 77.3 476.92 77.65 482.18 78.54C487.45 79.44 492.6 80.88 497.56 82.85C502.53 84.81 507.27 87.29 511.72 90.24C516.17 93.18 520.3 96.59 524.05 100.39L507.44 119.49C504.76 116.7 501.82 114.19 498.64 111.98C495.47 109.77 492.09 107.88 488.54 106.33C485 104.79 481.31 103.59 477.53 102.77C473.75 101.95 469.9 101.5 466.03 101.44C438.28 101.44 417.67 124.32 417.67 153.08L417.67 153.5C417.67 182.27 438.06 205.56 466.24 205.56C484.32 205.56 495.88 198.42 508.49 186.67L525.1 203.47C521.42 207.7 517.27 211.51 512.74 214.83C508.22 218.15 503.33 220.96 498.19 223.2C493.04 225.45 487.66 227.11 482.14 228.17C476.63 229.23 471.01 229.68 465.4 229.5C455.46 229.63 445.6 227.76 436.41 224C427.21 220.24 418.87 214.66 411.88 207.61C404.9 200.55 399.4 192.16 395.74 182.94C392.08 173.71 390.31 163.85 390.56 153.93L390.56 153.51ZM563.19 153.51C563.38 133.28 571.54 113.95 585.9 99.7C600.27 85.45 619.68 77.42 639.93 77.37C660.18 77.31 679.63 85.23 694.08 99.4C708.52 113.58 716.78 132.87 717.08 153.08L717.08 153.51C716.89 173.73 708.74 193.06 694.37 207.31C680.01 221.57 660.59 229.59 640.34 229.65C620.09 229.7 600.64 221.78 586.2 207.61C571.75 193.43 563.49 174.15 563.19 153.93L563.19 153.51ZM689.96 153.93L689.96 153.51C690.22 146.78 689.11 140.07 686.72 133.77C684.32 127.48 680.68 121.73 676.01 116.87C671.34 112.01 665.74 108.14 659.54 105.49C653.34 102.84 646.67 101.46 639.93 101.44C610.7 101.44 590.32 124.53 590.32 153.08L590.32 153.51C590.06 160.23 591.17 166.95 593.56 173.24C595.96 179.53 599.6 185.28 604.27 190.14C608.94 195 614.54 198.87 620.74 201.52C626.94 204.17 633.61 205.55 640.35 205.57C669.57 205.57 689.96 182.48 689.96 153.93ZM795.05 103.96L748.16 103.96L748.16 80.02L867.78 80.02L867.78 103.96L820.91 103.96L820.91 226.98L795.05 226.98L795.05 103.96ZM916.17 80.02L1025.28 80.02L1025.28 103.12L942.03 103.12L942.03 141.33L1015.83 141.33L1015.83 164.64L942.03 164.64L942.03 203.89L1026.33 203.89L1026.33 226.99L916.17 226.99L916.17 80.02ZM1486.87 78.97L1510.83 78.97L1575.58 226.98L1548.26 226.98L1533.33 191.49L1463.74 191.49L1448.61 226.98L1422.12 226.98L1486.87 78.97ZM1523.87 168.61L1498.43 109.83L1473.2 168.61L1523.87 168.61ZM1206.81 226.98L1176.12 226.98L1139.95 175.75L1123.8 152.87L1145.44 152.87C1163.94 152.87 1175.71 143.21 1175.71 128.3L1175.71 127.89C1175.71 112.15 1164.36 103.54 1145.23 103.54L1107.6 103.54L1107.6 226.98L1081.74 226.98L1081.74 80.02L1147.32 80.02C1151.15 79.81 1155.01 79.98 1158.81 80.51C1162.62 81.04 1166.37 81.94 1170 83.2C1173.63 84.46 1177.13 86.06 1180.46 88C1183.78 89.93 1186.9 92.18 1189.79 94.72C1191.79 96.83 1193.58 99.13 1195.13 101.59C1196.68 104.04 1197.99 106.65 1199.03 109.36C1200.08 112.07 1200.85 114.88 1201.35 117.75C1201.84 120.61 1202.05 123.52 1201.98 126.42L1201.98 126.84C1201.98 150.99 1187.47 165.47 1167.08 171.35L1206.81 226.98ZM1387.58 226.98L1356.89 226.98L1320.73 175.75L1304.58 152.87L1326.22 152.87C1344.71 152.87 1356.49 143.21 1356.49 128.3L1356.49 127.89C1356.49 112.15 1345.13 103.54 1326.01 103.54L1288.37 103.54L1288.37 226.98L1262.51 226.98L1262.51 80.02L1328.11 80.02C1331.95 79.81 1335.8 79.98 1339.6 80.51C1343.41 81.04 1347.16 81.94 1350.79 83.2C1354.42 84.46 1357.92 86.06 1361.24 88C1364.56 89.93 1367.69 92.18 1370.57 94.72C1372.58 96.83 1374.37 99.13 1375.92 101.59C1377.47 104.04 1378.78 106.65 1379.82 109.36C1380.87 112.07 1381.64 114.88 1382.14 117.75C1382.63 120.61 1382.84 123.52 1382.77 126.42L1382.77 126.84C1382.77 150.99 1368.26 165.47 1347.87 171.35L1387.58 226.98Z" />
	<g id="Layer">
		<path id="Layer" class="shp1" d="M119.32 227.95L119.17 227.9L119.32 227.95Z" />
		<path id="Layer" class="shp2" d="M126.66 230.7C140.48 235.74 155.03 238.51 169.74 238.9C184.45 239.29 199.12 237.3 213.19 233C227.26 228.7 240.54 222.15 252.52 213.61C264.49 205.07 275 194.65 283.63 182.75C286.59 167.67 286.97 152.2 284.76 136.99C282.54 121.79 277.76 107.06 270.61 93.45C263.47 79.84 254.07 67.54 242.8 57.07C231.54 46.59 218.58 38.1 204.48 31.96L181.37 85.04C199.64 93.05 214.14 107.74 221.89 126.09C229.65 144.45 230.07 165.08 223.06 183.73C216.05 202.38 202.15 217.64 184.22 226.38C166.29 235.11 145.69 236.65 126.66 230.68L126.66 230.7Z" />
	</g>
	<path id="Layer" class="shp3" d="M283.63 182.75C274.88 194.82 264.2 205.36 252.01 213.97C239.83 222.58 226.32 229.13 212.01 233.36C197.7 237.59 182.8 239.44 167.89 238.84C152.98 238.24 138.27 235.2 124.34 229.83C122.64 229.23 120.88 228.64 119.17 227.9L84.73 307L127.26 290.27C144.58 293.25 162.31 292.85 179.47 289.08C196.64 285.32 212.91 278.27 227.38 268.32C241.85 258.36 254.25 245.7 263.9 231.03C273.54 216.37 280.24 199.97 283.63 182.75L283.63 182.75Z" />
	<g id="Layer">
		<path id="Layer" class="shp4" d="M166.89 79.05L167.04 79.1L166.89 79.05Z" />
		<path id="Layer" class="shp5" d="M159.54 76.3C145.72 71.26 131.17 68.49 116.46 68.1C101.75 67.71 87.08 69.71 73.01 74.01C58.94 78.3 45.66 84.85 33.68 93.39C21.71 101.93 11.2 112.36 2.57 124.26C-0.39 139.33 -0.77 154.8 1.45 170.01C3.67 185.21 8.45 199.93 15.6 213.54C22.74 227.15 32.14 239.45 43.4 249.92C54.66 260.39 67.62 268.88 81.72 275.03L104.83 221.94C86.55 213.94 72.03 199.25 64.27 180.89C56.51 162.53 56.08 141.9 63.1 123.24C70.11 104.57 84.01 89.31 101.95 80.58C119.9 71.85 140.51 70.32 159.54 76.3L159.54 76.3Z" />
	</g>
	<path id="Layer" class="shp3" d="M2.57 124.25C11.33 112.18 22.01 101.64 34.19 93.03C46.37 84.42 59.89 77.87 74.19 73.64C88.5 69.41 103.41 67.56 118.32 68.16C133.23 68.76 147.94 71.8 161.86 77.17C163.57 77.77 165.33 78.36 167.04 79.1L201.48 0L158.94 16.73C144.05 14.2 128.84 14.16 113.94 16.61C99.03 19.06 84.64 23.97 71.35 31.14C58.06 38.31 46.06 47.64 35.83 58.74C25.61 69.84 17.3 82.57 11.26 96.39C10.29 98.63 9.38 100.89 8.53 103.17C7.68 105.46 6.89 107.76 6.17 110.09C5.44 112.41 4.78 114.76 4.18 117.12C3.58 119.48 3.04 121.86 2.57 124.25L2.57 124.25Z" />
</svg>