<svg version="1.2" baseProfile="tiny-ps" xmlns="http://www.w3.org/2000/svg" viewBox="0 0 1604 431" width="1604" height="431">
	<title>crown c-svg</title>
	<style>
		tspan { white-space:pre }
		.shp0 { fill: #5a6771 } 
		.shp1 { fill: #481776 } 
	</style>
	<g id="1.0-Direction">
		<g id="Our-Expertise">
			<g id="Navigation">
				<g id="Group-11">
					<g id="Logo-Desktop">
						<path id="shape" fill-rule="evenodd" class="shp0" d="M595.39 378.03C554.19 378.03 514.91 362.54 484.76 334.41C474.25 324.59 457.8 325.17 448.01 335.73C438.22 346.27 438.81 362.77 449.32 372.58C489.12 409.73 540.99 430.19 595.39 430.19C650.34 430.19 702.6 409.38 742.54 371.55C752.99 361.67 753.46 345.15 743.61 334.69C733.74 324.22 717.29 323.74 706.84 333.62C676.58 362.25 637.01 378.03 595.39 378.03ZM706.5 98.74C708.42 100.63 710.58 102.18 712.86 103.36C722.9 108.55 735.77 107.13 743.96 98.76C754.01 88.46 753.17 71.59 742.93 61.51C702.6 21.84 649.29 0 592.79 0C537.12 0 484.36 21.31 444.22 59.98C404.4 98.36 381.12 149.87 378.61 205.08L375.81 233.2C366.7 315.7 297.33 377.89 214.43 377.89C124.88 377.89 52.03 304.83 52.03 215.02C52.03 125.22 124.88 52.16 214.43 52.16C257.21 52.16 297.58 68.7 328.12 98.74C338.38 108.84 354.86 108.68 364.91 98.39C374.97 88.11 374.81 71.59 364.54 61.51C324.23 21.84 270.9 0 214.43 0C185.49 0 157.4 5.69 130.95 16.91C105.42 27.74 82.49 43.23 62.81 62.97C43.13 82.71 27.66 105.71 16.86 131.33C5.68 157.85 0 186 0 215.02C0 244.05 5.68 272.2 16.86 298.72C27.66 324.34 43.13 347.34 62.81 367.08C82.49 386.82 105.42 402.31 130.95 413.16C157.4 424.38 185.49 430.05 214.43 430.05C267.55 430.05 318.54 410.41 357.96 374.77C397.08 339.38 421.8 291.09 427.54 238.79L430.44 209.52L430.54 208.03C434.2 120.64 505.49 52.16 592.79 52.16C635.57 52.16 675.96 68.7 706.5 98.74Z" />
						<path id="Fill-20" fill-rule="evenodd" class="shp1" d="M937.78 170.84C937.84 170.9 937.84 171.01 937.78 171.07C929.73 179.53 922.11 185.3 913.81 189.24C904.3 193.77 893.62 195.97 881.17 195.97C861.6 195.97 843.58 188.5 830.42 174.96C817.36 161.54 810.17 143.32 810.17 123.69L810.17 123.28C810.17 103.66 817.31 85.44 830.32 71.98C843.61 58.2 862.01 50.61 882.16 50.61C910.26 50.61 925.54 61.68 936.79 72.49C936.86 72.56 936.86 72.66 936.79 72.72L921.08 90.96C921.06 90.98 921 91 920.96 91.02C920.92 91.02 920.88 91 920.83 90.96C907.98 78.94 896 73.59 881.95 73.59C856.28 73.59 836.17 95.24 836.17 122.89L836.17 123.28C836.17 151.51 855.85 172.78 881.95 172.78C899.23 172.78 910.01 165.92 921.84 154.81C921.9 154.75 922.01 154.75 922.07 154.81L937.78 170.84ZM1224 71.91C1237.11 85.31 1244.34 103.42 1244.34 122.88L1244.34 123.3C1244.34 142.75 1237.04 160.93 1223.82 174.46C1210.24 188.33 1191.55 195.96 1171.13 195.96C1150.76 195.96 1132.11 188.39 1118.67 174.66C1105.57 161.26 1098.36 143.17 1098.36 123.69L1098.36 123.3C1098.36 103.82 1105.65 85.64 1118.88 72.12C1132.44 58.24 1151.15 50.61 1171.54 50.61C1191.94 50.61 1210.57 58.18 1224 71.91ZM1124.36 123.3C1124.36 151.5 1144.64 172.8 1171.54 172.8C1198.2 172.8 1218.33 151.69 1218.33 123.69L1218.33 123.3C1218.33 95.42 1197.61 73.58 1171.13 73.58C1144.47 73.58 1124.36 94.78 1124.36 122.88L1124.36 123.3ZM1603.25 53.02C1603.35 53.02 1603.41 53.1 1603.41 53.18L1603.41 193.4C1603.41 193.49 1603.35 193.57 1603.25 193.57L1582.75 193.57C1582.71 193.57 1582.64 193.55 1582.62 193.51L1506.13 94.15L1506.13 193.4C1506.13 193.49 1506.05 193.57 1505.95 193.57L1481.9 193.57C1481.79 193.57 1481.71 193.49 1481.71 193.4L1481.71 53.18C1481.71 53.1 1481.79 53.02 1481.9 53.02L1504.57 53.02C1504.61 53.02 1504.68 53.04 1504.7 53.08L1579.01 149.63L1579.01 53.18C1579.01 53.1 1579.07 53.02 1579.17 53.02L1603.25 53.02ZM1083.06 193.27C1083.1 193.29 1083.12 193.35 1083.12 193.39C1083.12 193.49 1083.04 193.56 1082.95 193.56L1053.89 193.56C1053.83 193.56 1053.79 193.54 1053.75 193.49L1019.59 144.69L989.21 144.69L989.21 193.39C989.21 193.49 989.13 193.56 989.03 193.56L964.56 193.56C964.46 193.56 964.4 193.49 964.4 193.39L964.4 53.19C964.4 53.09 964.46 53.02 964.56 53.02L1026.63 53.02C1043.66 53.02 1057.59 57.88 1066.93 67.09C1074.53 74.92 1078.54 85.43 1078.54 97.44L1078.54 97.86C1078.54 119.05 1066.85 134.17 1045.61 140.41L1083.06 193.27ZM989.21 122.53L1024.85 122.53C1042.14 122.53 1053.32 113.39 1053.32 99.26L1053.32 98.85C1053.32 84.19 1042.88 75.79 1024.64 75.79L989.21 75.79L989.21 122.53ZM1459.29 53.02C1459.35 53.02 1459.4 53.04 1459.44 53.08C1459.46 53.14 1459.48 53.18 1459.46 53.24L1411.11 194.46C1411.09 194.52 1411.02 194.56 1410.94 194.56L1389.66 194.56C1389.58 194.56 1389.52 194.52 1389.5 194.46L1355.44 94.17L1321.39 194.46C1321.37 194.52 1321.29 194.56 1321.22 194.56L1300.13 194.56C1300.07 194.56 1300.01 194.52 1299.97 194.46L1251.43 53.24C1251.41 53.18 1251.41 53.14 1251.45 53.08C1251.49 53.04 1251.53 53.02 1251.59 53.02L1278.05 53.02C1278.11 53.02 1278.19 53.06 1278.21 53.14L1311.28 156.6L1345.34 52.73C1345.36 52.66 1345.42 52.62 1345.5 52.62L1366.19 52.62C1366.25 52.62 1366.33 52.66 1366.35 52.73L1400.41 156.6L1433.47 53.14C1433.49 53.06 1433.56 53.02 1433.62 53.02L1459.29 53.02ZM1095.9 385.31C1095.92 385.35 1095.94 385.39 1095.94 385.43C1095.94 385.51 1095.86 385.59 1095.78 385.59L1069.63 385.59C1069.57 385.59 1069.51 385.55 1069.49 385.49L1055.26 351.39L988.95 351.39L974.53 385.49C974.51 385.55 974.43 385.59 974.37 385.59L949.04 385.59C948.98 385.59 948.94 385.57 948.9 385.51C948.88 385.47 948.88 385.41 948.9 385.35L1010.81 242.71C1010.83 242.64 1010.89 242.6 1010.95 242.6L1033.85 242.6C1033.93 242.6 1034 242.64 1034.02 242.71L1095.9 385.31ZM1022 272.96L998.13 329L1046.07 329L1022 272.96ZM1205.71 317.81C1213.39 324.47 1217.13 333.28 1217.13 344.76L1217.13 345.15C1217.13 370.96 1197.33 387.63 1166.71 387.63C1144.77 387.63 1124.44 379.77 1107.92 364.92C1107.84 364.86 1107.84 364.75 1107.9 364.67L1122.77 346.87C1122.79 346.83 1122.83 346.81 1122.89 346.81C1122.94 346.81 1122.98 346.83 1123.02 346.85C1137.58 359.56 1151.26 365.23 1167.3 365.23C1182.11 365.23 1192.07 358.14 1192.07 347.59L1192.07 347.18C1192.07 337.6 1187.33 331.94 1160.44 325.69C1143.21 321.52 1132.84 317.28 1125.73 311.57C1117.37 304.87 1113.49 295.85 1113.49 283.24L1113.49 282.85C1113.49 271.08 1118.31 260.51 1127.08 253.07C1135.79 245.67 1148.08 241.59 1161.69 241.59C1181.25 241.59 1197.99 247.42 1212.84 259.44C1212.9 259.5 1212.92 259.6 1212.88 259.67L1199.61 278.48C1199.59 278.52 1199.55 278.55 1199.51 278.55C1199.45 278.57 1199.41 278.55 1199.36 278.52C1186.34 268.74 1173.89 263.99 1161.28 263.99C1154.42 263.99 1148.61 265.68 1144.5 268.87C1140.66 271.85 1138.55 276.02 1138.55 280.61L1138.55 281.01C1138.55 292.09 1145.73 296.85 1171.96 303.11C1187.9 307.02 1198.62 311.69 1205.71 317.81ZM1347.19 243.62C1347.29 243.62 1347.35 243.7 1347.35 243.78L1347.35 266.86C1347.35 266.94 1347.29 267.03 1347.19 267.03L1302.74 267.03L1302.74 385.43C1302.74 385.51 1302.66 385.6 1302.58 385.6L1277.66 385.6C1277.56 385.6 1277.48 385.51 1277.48 385.43L1277.48 267.03L1233.03 267.03C1232.95 267.03 1232.86 266.94 1232.86 266.86L1232.86 243.78C1232.86 243.7 1232.95 243.62 1233.03 243.62L1347.19 243.62ZM1603.03 362.99C1603.13 362.99 1603.2 363.08 1603.2 363.16L1603.2 385.43C1603.2 385.51 1603.13 385.59 1603.03 385.59L1497.72 385.59C1497.62 385.59 1497.56 385.51 1497.56 385.43L1497.56 243.78C1497.56 243.7 1497.62 243.62 1497.72 243.62L1602.03 243.62C1602.13 243.62 1602.19 243.7 1602.19 243.78L1602.19 266.05C1602.19 266.13 1602.13 266.22 1602.03 266.22L1522.6 266.22L1522.6 302.69L1592.99 302.69C1593.07 302.69 1593.15 302.78 1593.15 302.86L1593.15 325.13C1593.15 325.21 1593.07 325.3 1592.99 325.3L1522.6 325.3L1522.6 362.99L1603.03 362.99ZM1472 362.59C1472.1 362.59 1472.16 362.67 1472.16 362.76L1472.16 385.42C1472.16 385.52 1472.1 385.59 1472 385.59L1373.3 385.59C1373.22 385.59 1373.14 385.52 1373.14 385.42L1373.14 243.79C1373.14 243.69 1373.22 243.61 1373.3 243.61L1398.03 243.61C1398.14 243.61 1398.2 243.69 1398.2 243.79L1398.2 362.59L1472 362.59ZM939.05 362.64C939.11 362.71 939.11 362.81 939.05 362.87C930.92 371.41 923.22 377.24 914.84 381.23C905.22 385.8 894.44 388.02 881.85 388.02C862.09 388.02 843.89 380.49 830.58 366.8C817.39 353.23 810.14 334.85 810.14 315L810.14 314.61C810.14 294.78 817.37 276.37 830.48 262.77C843.91 248.85 862.52 241.2 882.85 241.2C911.24 241.2 926.69 252.36 938.04 263.28C938.11 263.34 938.11 263.45 938.07 263.53L922.19 281.93C922.15 281.98 922.11 282 922.07 282C922 282 921.96 281.98 921.94 281.96C908.94 269.82 896.84 264.4 882.65 264.4C856.73 264.4 836.39 286.28 836.39 314.19L836.39 314.61C836.39 343.12 856.3 364.61 882.65 364.61C900.11 364.61 910.99 357.66 922.95 346.45C923.01 346.39 923.11 346.39 923.17 346.45L939.05 362.64ZM829.58 173.82L829.56 173.82L829.58 173.82ZM825.28 360.39C825.32 360.45 825.36 360.49 825.4 360.56C825.36 360.49 825.32 360.45 825.28 360.39ZM826.31 361.69C826.43 361.86 826.56 362 826.68 362.15C826.56 362 826.43 361.86 826.31 361.69ZM827.38 363C827.52 363.18 827.68 363.37 827.85 363.55C827.68 363.37 827.52 363.18 827.38 363ZM828.49 364.3C828.63 364.46 828.79 364.63 828.94 364.79C828.79 364.63 828.63 364.46 828.49 364.3ZM829.68 365.58C829.76 365.68 829.86 365.79 829.96 365.89C829.86 365.79 829.76 365.68 829.68 365.58ZM830.91 366.88L830.93 366.9L830.91 366.88Z" />
					</g>
				</g>
			</g>
		</g>
	</g>
</svg>