<svg version="1.2" baseProfile="tiny-ps" xmlns="http://www.w3.org/2000/svg" viewBox="0 0 1631 640" width="1631" height="640">
	<title>Proxy-Revised-1-pdf-svg</title>
	<defs>
		<clipPath clipPathUnits="userSpaceOnUse" id="cp1">
			<path d="M-6130.66 -443.81L2075.06 -443.81L2075.06 10242.39L-6130.66 10242.39L-6130.66 -443.81Z" />
		</clipPath>
	</defs>
	<style>
		tspan { white-space:pre }
		.shp0 { fill: #003b70 } 
	</style>
	<g id="Clip-Path: Page 1" clip-path="url(#cp1)">
		<g id="Page 1">
			<path id="Path 7" class="shp0" d="M1361 493.51L1405.41 493.51C1385.59 468.59 1366.59 444.85 1346.97 420.2C1327.43 444.78 1308.5 468.45 1288.75 493.31L1334.26 493.31L1334.26 625.37L1038.98 625.37L1038.98 526.99C1010.73 581.05 968.39 617.7 909.2 632.89C849.86 648.15 794.95 636.82 744.12 600.58L744.12 625.16L611.64 625.16L611.64 431.8L609.84 431.38C608.74 433.8 607.56 436.15 606.59 438.63C590.09 478.53 568.81 515.6 539.66 547.63C494.01 597.75 437.3 627.02 370.3 635.93C302.47 644.97 236.92 636.96 175.1 606.86C97.95 569.31 45.66 508.84 19 427.73C-9.94 340.05 -5.59 253.14 37.03 170.65C86.21 75.39 165.29 19.26 271.53 3.59C339.42 -6.42 403.45 7.6 463.62 40.25C467 42.11 470.45 43.91 473.84 45.63C474.18 45.84 474.67 45.56 476.05 45.43L476.05 30.45L476.05 14.71L599.2 14.71L599.2 215.87C596.92 215.93 594.78 216.14 592.71 216.14C544.43 216.21 496.15 216.14 447.87 216.28C443.52 216.28 440.82 214.83 438.06 211.59C377.9 140.76 271.8 135.58 205.29 200.06C152.59 251.07 141.53 334.05 179.18 400.25C204.53 444.78 241.69 473.56 293.08 482.19C353.17 492.27 419.13 460.31 448.35 406.74C450.77 402.18 453.25 400.39 458.57 400.39C557.97 400.6 657.36 400.53 756.76 400.53L764.08 400.53C765.04 410.61 765.67 420.2 766.98 429.73C769.88 450.64 775.96 470.53 789.29 487.51C807.52 510.77 837.92 516.36 863.47 501.38C896.28 482.12 898.91 434.49 867.34 411.5C854.98 402.53 840.54 395.9 826.31 390.03C785.42 373.12 745.43 354.69 709.93 327.77C676.98 302.85 650.52 272.89 637.26 232.85C603.69 131.51 672.07 19.19 777.13 2.97C825.21 -4.49 868.1 7.46 906.43 36.73C908.16 38.04 909.89 39.28 911.61 40.52C911.89 40.73 912.44 40.52 913.83 40.52L913.83 14.77L1034.63 14.77L1034.63 215.8L900.08 215.8C898.84 205.99 898.08 196.33 896.35 186.87C893.59 171.82 887.99 157.88 877.49 146.42C863.82 131.51 846.76 126.26 827.07 130.82C808.28 135.17 795.78 146.83 790.95 165.61C784.94 189.01 794.19 207.58 812.77 220.77C826.17 230.22 841.09 238.03 856.15 244.72C881.71 255.97 908.3 265.02 933.79 276.41C966.18 290.9 995.12 310.65 1018.05 338.19C1053.9 381.27 1062.54 430.63 1050.93 484.47C1050.38 486.96 1049.76 489.51 1049.21 491.99C1049.21 492.2 1049.27 492.41 1049.34 493.17C1050.86 493.31 1052.45 493.65 1054.11 493.65C1072.21 493.72 1090.3 493.86 1108.4 493.51C1111.09 493.44 1114.62 491.72 1116.34 489.65C1160.89 434.42 1205.17 379.06 1249.72 323.9C1252.97 319.83 1252.62 317.34 1249.51 313.48C1205.52 259.22 1161.72 204.82 1117.72 150.63C1115.93 148.35 1112.13 146.63 1109.23 146.56C1094.59 146.14 1080.01 146.35 1064.89 146.35L1064.89 14.64L1334.33 14.64L1334.33 146.07L1288.26 146.07C1308.29 171.27 1327.22 195.02 1346.97 219.8C1366.59 195.23 1385.52 171.48 1405.48 146.42L1361 146.42L1361 14.77L1630.44 14.77L1630.44 146.35C1616.42 146.35 1602.47 146.63 1588.59 146.21C1582.72 146.01 1579.19 148.08 1575.6 152.43C1532.5 205.72 1489.26 258.87 1445.75 311.82C1441.33 317.21 1441.33 320.31 1445.75 325.77C1489.47 379.33 1532.98 433.11 1576.36 486.96C1580.16 491.65 1583.89 494.2 1590.31 493.86C1603.64 493.24 1616.98 493.72 1630.58 493.72L1630.58 625.23L1361 625.23L1361 493.51Z" />
		</g>
	</g>
</svg>