<svg version="1.2" xmlns="http://www.w3.org/2000/svg" viewBox="0 0 1592 1470" width="1592" height="1470">
	<title>cummins-icon-svg</title>
	<style>
		.s0 { fill: #000000 } 
	</style>
	<g id="Layer">
		<path id="Layer" fill-rule="evenodd" class="s0" d="m1549.1 1469.6c-23.5 0-42.4-18.9-42.4-42.4 0-23.4 18.9-42.4 42.4-42.4 23.4 0 42.4 19 42.4 42.4 0 23.5-19 42.4-42.4 42.4zm35.9-44c0-19.9-16.1-35.9-35.9-35.9-19.9 0-35.9 16-35.9 35.9 0 19.8 16 35.9 35.9 35.9 19.8 0 35.9-16.1 35.9-35.9zm-45.7 26.1h-6.5v-48.9h16.3c11.4 0 16.3 4.8 16.3 13 0 8.2-4.9 11.4-11.4 13.1l14.6 21.2h-6.5l-13-21.2h-9.8zm8.2-27.8c8.1 0 14.6 0 14.6-8.1 0-6.6-4.9-8.2-11.4-8.2h-11.4v16.3zm-1405.6-779.6l-70.1 48.9c-50.6 34.2-75 102.7-29.4 168 44.1 65.2 115.8 66.9 168 31l70.1-49-39.1-57-65.2 45.6c-24.5 18-55.5 8.2-70.2-14.6-16.3-22.9-14.6-53.9 11.5-71.8l65.2-45.7zm1048.5-644.3c-4.9 0-9.8 3.3-13.1 4.9-27.7 19.6-48.9 48.9-24.4 83.2 35.8 50.6 109.2-21.2 125.5 3.3 6.5 8.1 1.6 17.9-9.8 26.1-4.9 3.2-11.4 3.2-17.9 1.6-4.9-1.6-9.8-4.9-13.1-9.8l-47.2 34.3c29.3 42.4 68.4 26.1 102.7 3.2 32.6-22.8 60.3-57.1 34.2-93-16.3-22.8-34.2-26-55.4-19.5-40.8 13-62 27.7-68.5 17.9-4.9-8.1-3.3-16.3 3.3-21.2 6.5-4.9 13-6.5 17.9-4.9 4.9 1.7 6.5 3.3 9.8 8.2l53.8-34.3h182.6v536.7h-635.9c-89.7 0-220.1 40.7-220.1 195.7 0 148.4 133.7 189.2 220.1 189.2h634.3v544.8h-697.9c-384.8 0-771.3-257.7-771.3-734 0-476.3 401.1-732.4 771.3-732.4zm-802.3 768.3l53.8-37.5c-11.4-14.7-17.9-22.9-26-34.3l-73.4-106-53.8 37.5 55.4 81.6c1.6 1.6 24.5 27.7-1.6 47.3-16.3 11.4-31-1.7-40.8-14.7l-57.1-83.2-53.8 37.5 65.3 94.6c21.1 31 57 35.9 88 14.7 17.9-13.1 27.7-27.7 31-50.6zm19.6-223.4l-52.2 35.8c11.4 14.7 17.9 22.9 26.1 34.3l73.3 104.4 53.9-37.5-55.5-81.6c-1.6-1.6-24.4-27.7 1.6-47.3 16.3-11.4 31 1.7 40.8 14.7l57.1 83.2 53.8-37.5-55.5-81.6c-1.6-1.6-24.4-27.7 1.7-47.3 16.3-11.4 31 1.6 40.7 14.7l57.1 83.2 53.8-37.5-68.5-88.1c-21.2-31-57-35.9-88-14.7-21.2 14.7-32.6 37.5-31 62-17.9-13.1-44-8.2-60.3 3.2-21.2 14.7-34.3 34.3-31 60.4zm265.8-184.3l-52.2 35.9c11.4 14.6 17.9 22.8 26.1 34.2l73.4 104.4 53.8-37.5-55.5-81.6c-1.6-1.6-24.4-27.7 1.7-47.3 16.3-11.4 30.9 1.7 40.7 14.7l57.1 83.2 53.8-37.5-55.4-81.6c-1.7-1.6-24.5-27.7 1.6-47.3 16.3-11.4 31 1.7 40.8 14.7l57 83.2 53.9-37.5-65.3-94.6c-21.2-31-57-35.9-88-14.7-21.2 14.7-32.6 37.5-31 62-17.9-13.1-44-8.2-60.3 3.2-21.2 14.7-34.3 34.3-31 60.4zm365.2-44l-97.8-140.3-53.8 35.9 97.8 140.2zm-114.1-164.7l-26.1-37.5-53.8 37.5 26.1 37.5zm89.7-26.1l-53.9 37.5c11.5 14.7 18 22.9 26.1 34.3l73.4 104.4 53.8-37.5-55.4-81.6c-1.6-1.6-24.5-27.7 1.6-47.3 16.3-11.4 31 1.6 40.8 14.7l57 83.2 53.9-37.5-65.3-94.7c-21.2-30.9-57-35.8-88-14.6-18 13-27.7 27.7-31 50.5z"/>
	</g>
</svg>