<svg version="1.2" xmlns="http://www.w3.org/2000/svg" viewBox="0 0 1506 185" width="1506" height="185">
	<title>CVS_Health_Logo-svg</title>
	<style>
		.s0 { fill: #cc0000 } 
		.s1 { fill: #000000 } 
	</style>
	<g id="Layer">
		<path id="Layer" class="s0" d="m43.9 7.9c4.5-4.4 10.9-7.4 17.8-7.4 6.9 0 13.8 2.5 18.7 7.4 9.9 9.9 20.3 20.3 30.1 30.2 9.9-9.9 20.3-20.3 30.1-30.2 4.5-4.4 11.4-7.4 17.8-7.4 6.9 0 13.3 2.5 18.3 7.4q18.5 18.6 37 37.1c4.9 5 7.9 12.4 7.4 19.3-0.5 6.4-3 12.4-7.4 16.8-34.6 34.2-68.6 68.8-103.2 102.9-34.5-34.1-68.6-68.7-103.1-102.9-4.4-4.4-6.9-10.4-7.4-16.3v-3.9c0.5-6 3-11.9 7.4-16.4 12.3-11.8 24.2-24.2 36.5-36.6z"/>
		<path id="Layer" class="s0" d="m326.2 0.5h7.4c16.3 0.5 33 4 47.3 12.9 11.9 7.4 20.8 18.3 25.7 31.1 3.5 8.4 5.4 17.8 5.9 26.7q-26.6 0-53.3 0c-0.5-7.4-2.9-15.3-8.9-20.2-5.9-5.5-14.3-7-22.2-6.5-6.9 0-13.8 2.5-18.7 7.4-5.9 6-8.9 13.9-10.4 21.8-1.9 9.4-1.9 19.3-1 28.7 1 9.4 3 19.3 8.9 26.7 4.5 6 10.9 9.4 18.3 10.4 7.4 1 15.3 0.5 22.2-3 5.4-2.9 9.4-7.9 11.3-13.3 1.5-3.5 2-7.4 2.5-11.4 17.8 0 35 0 52.8 0-1 15.3-5.4 30.7-14.3 43.1-8.4 11.3-20.2 19.2-33.6 24.2-9.8 3.5-20.7 4.9-31.1 5.4h-8.3c-14.4-0.5-28.7-3.4-41.5-9.9-12.8-6.4-23.2-16.3-30.6-28.7-8.9-14.8-12.8-32.6-13.3-49.4-1-18.8 2-37.1 10.4-53 6.4-12.8 16.2-23.7 28.6-30.6 13.8-8.4 29.6-12.4 45.9-12.4zm310.3 0h7.9c15.8 0.5 32.1 3.5 45.4 12.4 6.9 4.4 12.9 10.4 16.8 17.3 4.5 7.9 6.9 16.3 7.9 25.2-17.8 0-35 0-52.8 0-0.5-3.9-2.5-7.4-4.9-9.9-3.5-3.4-8.9-4.4-13.8-4.9-4.5-0.5-9.4 0-13.9 1-2.9 0.9-5.9 2.9-6.9 6.4-1 3-1 6.9 1 9.4 1.5 2.5 4.5 3.9 7.4 4.9 5 2 9.9 3 14.8 4.5 10.4 3 20.7 4.9 31.1 7.9 6.9 2 13.3 4.5 19.3 7.9 6.4 4 12.3 9.4 16.7 15.9 4.5 6.4 6.4 14.3 6.9 22.2 0.5 9.4-0.9 19.3-4.9 28.2-3 6.9-7.9 13.4-13.8 18.3-11.4 8.9-25.2 13.4-39.5 15.4-5.4 0.5-10.3 0.9-15.8 0.9h-7.9c-12.8-0.4-25.6-2.4-37.5-7.9-11.3-4.9-21.7-13.8-27.6-24.7-4.4-7.9-6.9-17.3-7.9-26.2 18.3 0 36 0 54.3 0 1 3.9 2.4 8.4 5.4 11.4 2.5 2.4 5.4 4.4 8.9 4.9 4.4 1 9.4 1.5 13.8 1 4.4-0.5 9.4-1 13.3-3.5 2.5-1.5 4.5-4.4 5-7.4 0.5-3 0-6.4-2.5-8.9-2-2.5-5.4-3.5-8.4-4.5-5.4-1.4-10.4-2.9-15.8-4.4-9.9-2.5-19.2-5-29.1-8.4-6.9-2.5-13.8-4.5-20.2-8.4-6.9-4.5-12.9-10.4-16.8-17.8-4-8-5.4-17.4-5.4-26.3 0.5-8.4 2.4-16.3 6.4-23.7 3.9-6.9 9.8-12.9 16.8-17.3 13.8-7.9 30.1-10.4 46.3-10.9zm-235.3 4.4c18.7 0 38 0 56.7 0 9.9 37.6 19.3 74.8 29.1 112.4 10.4-37.6 20.8-74.8 31.1-112.4q27.4 0 54.8 0c-19.3 57.9-39 115.8-58.7 173.7-18.8 0-37 0-55.8 0-18.2-57.4-37.5-115.3-57.2-173.7z"/>
	</g>
	<g id="Layer">
		<g id="Layer">
			<path id="Layer" fill-rule="evenodd" class="s1" d="m735.2 21.3q0-8.2 0-16.4c18.3 0 36.5 0 55.3 0q0 8.2 0 16.4c-5.9 0-11.4 0-17.3 0q0 28.2 0 56.4 43.7 0 87.4 0 0-28.2 0-56.4c-6 0-11.9 0-17.3 0q0-8.2 0-16.4c18.3 0 36.5 0 55.3 0q0 8.2 0 16.4c-6 0-11.9 0-17.3 0 0 47 0 94.5 0 141.5 5.9 0 11.8 0 17.3 0q0 8.1 0 16.3c-18.3 0-36.6 0-55.3 0q0-8.2 0-16.3c5.9 0 11.8 0 17.3 0 0-23.3 0-46 0-69.3q-43.7 0-87.4 0c0 23.3 0 46 0 69.3 5.9 0 11.9 0 17.3 0q0 8.1 0 16.3c-18.3 0-36.5 0-55.3 0q0-8.2 0-16.3c6 0 11.9 0 17.3 0 0-47 0-94.5 0-141.5-5.9 0-11.8 0-17.3 0zm453.5-16.4c11.8 0 23.7 0 36 0 0 44.1 0 88.6 0 132.6 0 4 0 8 0 12.4 0.5 3.5 1 7.9 3 10.9 2 2.5 4.9 3.5 7.9 3.5 3.4 0 6.4 0 9.8-1 0 5.4 0 10.4 0 15.8-5.9 2-12.3 2-18.2 1-4.9-1-10.4-3-13.8-6.4-4-3.5-5.9-9-6.9-13.9-1.5-6.4-1-13.4-1-19.8 0-39.6 0-79.6 0-119.2q-8.2 0-16.3 0c-0.5-5-0.5-10.4-0.5-15.9zm129.3 0q17.7 0 35.5 0c0 22.3 0 45.1 0 67.3 5.4-7.4 13.8-12.3 22.7-14.8 8.9-2.5 18.3-2.5 27.6-0.5 9.4 2 17.8 6.9 24.2 13.8 7.9 8.5 11.9 19.3 13.3 30.7 0.5 5.5 0.5 10.9 0.5 15.9q0 23 0 46 8.2 0 16.3 0c0 5.4 0 10.4 0 15.8-17.2 0-34.5 0-52.3 0 0-5.4 0-10.4 0-15.8q8.2 0 16.3 0c0-18.3 0-36.6 0-55.4 0-9.4-2.5-18.8-8.4-26.3-5.4-5.9-13.3-9.4-21.2-9.9-8.4-0.5-17.3 0.5-24.7 5-5.4 3.4-9.4 8.9-11.8 14.8-2 5.5-2.5 10.9-2.5 16.8 0 18.4 0 36.2 0 54.5q8.2 0 16.3 0c0 5.4 0 10.4 0 15.8q-25.9 0-51.8 0c0-5.4 0-10.4 0-15.8q8.1 0 16.3 0 0-71.3 0-142.5-8.2 0-16.3 0c0-4.5 0-9.9 0-15.4zm-54.8 23.3c6.4 0 12.8 0 19.8 0 0 10.4 0 20.3 0 30.7 7.8 0 16.2 0 24.1 0 0 5.4 0 10.4 0 15.8-7.9 0-16.3 0-24.1 0 0 24.7 0 49 0 73.7 0 4 0.4 7.9 2.4 11.4 2 2.5 5 4 7.9 4 4.5 0.5 9.4 0 13.8-0.5 0 5.4 0 10.4 0 15.8-6.4 2-12.8 2-19.2 1-6.4-1-12.8-3-17.3-7.9-6.4-6.5-7.4-16.4-7.4-25.3q0-36.3 0-72.7c-6.4 0-12.3 0-18.7 0 0-5.4 0-10.4 0-15.8 6.4 0 12.3 0 18.7 0 0-9.4 0-19.8 0-30.2zm-312.8 29.7c10.8-3 22.7-3 33.5-1 12.9 2.5 24.7 9.4 32.6 19.3 5.9 7.4 9.4 15.8 11.3 24.7 2 7.9 1.5 16.4 1.5 24.3-34.5 0-69.1 0-103.1 0 0.5 9.9 3.9 19.8 10.4 27.2 5.4 6.4 13.3 10.9 21.7 12.3 8.8 2 18.2 1.5 26.6-0.9 9.4-2.5 17.8-8.9 22.2-17.4 6.4 0 12.8 0 19.8 0-5.5 12.4-14.8 22.8-27.2 28.7-8.9 4.5-18.7 6.5-28.6 7-15.3 0.5-30.6-4-42.4-13.4-11.4-8.9-18.8-22.8-21.3-37.1-2.9-17.3 0-36.1 9.9-50.5 6.9-11.3 19.3-19.8 33.1-23.2zm8.4 14.8c-8.4 1.5-16.8 5.5-22.7 11.9-6.5 6.9-9.9 16.3-10.9 25.2 28.1 0 55.8 0 83.9 0-1-8.9-4-17.8-9.9-24.7-3.9-5-9.8-8.9-15.8-11.4-7.4-2.5-16.3-2.5-24.6-1zm116.4-10.4c12.8-6.9 28.1-8.4 42.4-4.9 11.4 3 21.8 9.9 29.2 19.3q0-8.9 0-17.8 17.7 0 35.5 0c0 5.4 0 10.4 0 15.8q-8.2 0-16.3 0c0 29.7 0 58.9 0 88.6q8.1 0 16.3 0c0 5.4 0 10.4 0 15.8q-17.8 0-35.5 0 0-8.9 0-17.8c-7.4 9.9-18.3 16.8-30.6 19.8-16.3 3.9-34.6 0.5-47.9-9.4-11.8-8.9-20.2-22.3-23.2-36.6-3.4-15.4-2-31.7 4.9-45.6 5-11.8 13.9-21.2 25.2-27.2zm25.2 9.9c-11.4 1-22.2 7.5-28.6 17.3-8.4 12.4-10.4 28.2-7.4 42.6 2.4 11.9 9.8 23.2 21.2 29.2 13.3 6.9 30.6 6.4 42.4-2.5 6.4-4.4 10.9-10.4 14.3-17.8 5-11.9 5.9-25.7 2.5-38.1-3-11.4-10.9-22.3-21.7-27.7-6.9-2.5-14.8-4-22.7-3zm375.5 76.2c6.4-5.9 17.8-5.4 23.7 1 2.9 3 4.4 6.9 5.4 10.9v4c-0.5 3.9-2 7.9-4.9 10.8-5 5.5-12.9 7-19.8 4.5-4.9-2-8.9-5.9-9.8-10.9-2-7.9 0-15.8 5.4-20.3zm8.9-1c-2.5 0.5-4.5 1.5-6.4 3.5-6 5.4-6 15.8-0.5 21.8 4.4 4.9 13.3 5.4 18.2 1 6.9-6 6.9-17.9 0-23.3-3.4-2.5-7.9-3.5-11.3-3zm-4 5c3 0 6.4 0 9.4 0 2 0 4.4 1 4.9 3.4 0.5 2 0.5 4-0.5 6-0.9 1.5-2.4 2-3.9 2 2 2.9 3.9 5.9 5.4 8.4-1 0-2.4 0-3.4 0-2-3-3.5-5.5-5-8.4q-1.5 0-2.9 0c0 2.9 0 5.4 0 8.4-1 0-2 0-3.5 0-0.5-6.5-0.5-12.9-0.5-19.8zm3 2.9q0 3 0 6c2 0 4.4 0 6.4-0.5 2.5-0.5 2.5-4.5 0-5-2-0.9-4-0.5-6.4-0.5z"/>
		</g>
	</g>
</svg>