<svg version="1.2" xmlns="http://www.w3.org/2000/svg" viewBox="0 0 1553 410" width="1553" height="410">
	<title>darden-logo-svg</title>
	<style>
		.s0 { fill: #1b1a19 } 
		.s1 { fill: #761f21 } 
	</style>
	<g id="Layer">
		<g id="Layer">
			<g id="Layer">
				<path id="Layer" fill-rule="evenodd" class="s0" d="m154.7 12.2c65.4 32.9 104.8 80.1 112.5 135 1.6 11.8 1.1 32-1.2 43.5-5.9 30-19 57.1-41.4 84.9-8.9 11.1-27 29.5-38.7 39.6-40.3 34.2-92.6 62.9-151.2 83-12.5 4.3-33.6 10.8-34.7 10.8-0.3-0.1 1.4-0.9 3.9-2 35.4-15.1 78.8-41.1 109.1-65.3 19.3-15.5 42.3-37.8 57.3-55.7 47.7-57 67.9-110.4 58.8-155.9-2.2-11-7.8-27.8-12.8-38.4-16.4-34.2-43.4-63.3-80-85.9-4.1-2.6-8-4.9-8.6-5.3-3.2-2.2 16.2 6.3 27 11.7zm397.9 95.6c19.6 3.6 29.9 8.8 42.1 20.8 15.5 15.2 24.3 34.3 28.2 61 1.7 11.6 1.1 34-1.2 44.5-6.7 31.6-24.7 57.7-48.8 70.7-10.6 5.6-29 10.7-45.2 12.5-4.2 0.5-23.7 0.8-45.7 0.8h-38.5v-210.6h6.9c3.7-0.1 12.1-0.4 18.6-0.7 21.1-0.9 76.9-0.3 83.6 1zm-76.7 15.9l-7.2 0.2v88.6c0 83.9 0 88.6 1.3 88.6 20.2 0.3 48.4-0.1 53.2-0.7 27.5-3.4 43.7-11.6 54.8-27.7 12.7-18.3 19.6-47.4 17.3-72.6-2.5-25.5-10.3-44.3-24.6-58.6-10.2-10.2-19.9-14.9-36.2-17.4-6.6-1-34.3-1.2-58.6-0.4zm462.3-10.1c6.9 3.3 15.8 12.3 19.8 20.2 9.8 19 9.8 40.6 0.1 58.8-6.6 12.3-25.3 26.4-39.3 29.5-2.4 0.6-4.4 1.1-4.5 1.4-0.2 0.2 14.6 21.6 32.8 47.3 18.2 25.8 32.9 47 32.6 47.2-0.3 0.1-6.3 0.9-13.4 1.9-12.9 1.8-12.9 1.8-14 0.3-0.6-0.8-14.6-21.8-31.1-46.7-20.2-30.4-30.4-45.1-31.3-45.1l-16 0.2-14.8 0.1v89.4h-25.1v-210.6h4.6c2.5-0.1 14.1-0.4 25.7-0.6 44.6-1 61.1 0.4 73.9 6.7zm-77.4 11.3l-1.7 0.4v85.5l8 0.6c4.4 0.3 12.9 0.3 19 0.1 29.5-1.2 44-9.8 49.7-29.5 1.4-4.8 1.7-7.7 1.7-15.3 0-5.4-0.4-11.4-1-14.3-1.4-6.3-5.1-13.2-9.2-17.4-3.9-3.8-12-7.9-19-9.4-7.5-1.5-41.6-2-47.5-0.7zm217.9-18.6c38.7 0.4 41 0.5 54.2 4.6 20.1 6.3 36.6 21.5 46.4 42.7 11.1 24.1 14.5 55.2 8.8 81.7-6.8 31.3-25.4 57.4-49.9 69.9-12 6.1-29 10.6-46.5 12.2-4.4 0.4-24.7 0.7-44.9 0.7h-36.8v-210.6h2.4c6.8 0 29.8-0.9 30.1-1.2 0.2-0.2 16.5-0.2 36.2 0zm-6.5 16.9c-13.3 0.1-27 0.3-30.6 0.4l-6.5 0.3v177.4l27.6-0.4c24.2-0.2 28.5-0.4 35.6-1.8 27.2-5.3 41.6-15.3 52-36 19.5-38.9 14.7-91.6-10.8-120.2-8.7-9.7-21-16.1-36.6-18.7-5.2-0.9-11.9-1.1-30.7-1zm-360.8-15.7l10.1 0.2 10 0.2 38.7 104.6c21.2 57.5 38.6 104.7 38.6 105 0 0.4-6 0.6-13.4 0.6h-13.6l-23.6-67.9h-87.4l-13.3 33.7-13.4 33.9-12.7 0.2c-7.4 0.1-12.6-0.1-12.6-0.5 0-0.4 2.8-7 6.2-14.7 7.2-16.1 68.2-153.7 79-178.5zm5.8 28.8c-0.3-0.4-35.6 86.2-39 95.6-0.4 1.2 1.7 1.3 36.7 1.3 35.1 0 37.1-0.1 36.6-1.3-0.2-0.7-8-22.4-17.1-48.2-9.3-25.8-17-47.1-17.2-47.4zm499.8-28.7h129.5v18.5h-104.3l-0.2 35.1c-0.1 19.4 0 35.3 0.1 35.5 0.2 0.1 21.1 0.3 46.4 0.3h46.1v18.5h-46.2c-30.3 0-46.2 0.2-46.2 0.7v82.4l52.5 0.2 52.5 0.2v19.2h-130.2v-105.3c0 0 0-105.3 0-105.3zm161.3 0h18.4l68.2 83c37.6 45.7 68.4 82.9 68.6 82.8 0.3-0.3 0.2-7.1-0.7-38-0.4-14-0.9-31.8-1.1-39.5-0.2-7.8-0.5-19.1-0.7-25.1-0.3-6.2-0.6-18.1-0.8-26.6-0.2-8.6-0.6-20.3-0.8-26.1l-0.4-10.5h23v104.8c0 83-0.2 105-0.8 105.5-2.2 1.7-9.7 4-10.5 3.3-0.6-0.4-33.2-39.8-72.7-87.5-39.4-47.7-71.8-86.7-71.9-86.5-0.2 0.2 0.8 45.4 1.8 76 0.1 6.1 0.5 17.6 0.7 25.5 0.4 16 0.8 29.3 1.5 53.4l0.6 16.1h-22.4z"/>
				<path id="Layer" fill-rule="evenodd" class="s1" d="m423.9 60.7c-0.2 0.2-3.8 0.8-8.1 1.5-34.2 5-72.1 15.8-102 29-53.8 23.7-92 55-108.5 88.9-5.7 11.7-8.3 22.9-8.3 35.2 0 6.9 0 6.9-3.5 13-4 7-16.9 26.8-17.8 27.4-0.9 0.5-6.2-10.8-8.2-17.4-11.9-39.1 12.9-84.4 65.7-119.5 4.7-3.1 9.3-6.1 10.4-6.6 1-0.5 2.8-1.5 4-2.3 1.3-0.9 3.4-2 4.8-2.7 1.4-0.7 3.1-1.6 3.8-2.2 1.9-1.7 24.3-11.8 37.3-16.9 34.3-13.5 75.4-23 115.3-26.6 11.9-1.1 15.6-1.3 15.1-0.8zm-179.4 219.8c0.3 0 3.3 1.6 6.7 3.5 8 4.5 19.9 9.8 30.8 13.6 4.9 1.7 8.8 3.4 8.7 3.7-0.1 0.3-3.7 4.4-8.2 9.1l-7.9 8.4-8.3-2.1c-10.6-2.8-21.9-6.7-31.2-10.8-10.7-4.6-10.2-3.9-5.7-8.9 2.1-2.4 6.2-7 9.2-10.3 2.9-3.4 5.6-6.1 5.9-6.2z"/>
			</g>
		</g>
	</g>
</svg>