<svg version="1.2" xmlns="http://www.w3.org/2000/svg" viewBox="0 0 1521 809" width="1521" height="809">
	<title>Davita_Kidney_Care-svg</title>
	<style>
		.s0 { fill: #ffa81e } 
		.s1 { fill: #0069b1 } 
	</style>
	<g id="Layer">
		<g id="Layer">
			<path id="Layer" class="s0" d="m854.1 183.6c0 0-37.3 54.1-105.1 108.1 0 0 58.1-84.5 65-138.5 0 0-56.7-22.2-81.6-47.1 0 0 47 24.9 94-6.9 0 0 11.1-33.3 7-81.7 0 0 27.6 36 30.4 74.8 0 0 54-20.8 69.2-91.4 0 0 20.7 70.6-44.3 131.5 0 0 55.3 18 73.3 94.2 0 2.7-23.5-51.3-107.9-43z"/>
		</g>
		<g id="Layer">
		</g>
		<path id="Layer" fill-rule="evenodd" class="s1" d="m299.3 402.4c0 101.1-63.7 167.6-178.5 167.6h-119v-328.2c23.5-2.8 51.2-5.5 105.2-5.5 125.9-1.4 192.3 59.5 192.3 166.1zm-78.9 0c0-73.4-34.6-113.5-107.9-113.5-11.1 0-22.1 0-33.2 1.4v227.1h30.4c58.2 0 110.7-23.6 110.7-115zm774.8 81.7v-250.6c5.6-1.4 15.3-2.8 26.3-2.8 24.9 0 49.8 8.3 49.8 43v37.3h78.9v54.1h-78.9v114.9c0 24.9 15.3 37.4 34.6 37.4 22.2 0 38.8-12.5 42.9-15.3 4.2 5.6 15.2 20.8 15.2 33.3 0 4.1-1.3 9.7-5.5 13.8-4.2 4.2-24.9 24.9-74.7 24.9-73.3-1.3-88.6-44.3-88.6-90zm-152.2-181.4l-52.5 151-40.2 116.3h-84.4l-37.3-108c-77.5-217.4-164.7-344.8-312.7-344.8-81.6 0-138.4 34.6-184 73.4-1.4 1.4-2.8 1.4-4.2 1.4q-4.1 0-4.1-4.2c0-1.4 0-2.8 2.7-5.5 44.3-48.5 110.7-91.4 209-91.4 119 0 269.8 63.7 355.5 318.5l23.6 67.8c0 0 16.6-56.8 26.3-90 13.8-51.2 42.8-80.3 102.3-84.5zm22.2 2.8c45.6 11.1 76.1 40.2 76.1 83.1v180h-33.2c-27.7 0-42.9-13.8-42.9-42.9zm-305.8 199.4c0 27.7 4.2 48.5 12.5 60.9-7 2.8-18 6.9-37.4 6.9-36 0-41.5-19.3-44.3-29-8.3 8.3-30.4 29-81.6 29-41.5 0-85.8-24.9-85.8-81.7 0-65 66.4-87.2 149.4-87.2h12.5v-5.5c0-27.7-22.1-41.6-55.3-41.6-36 0-69.2 18-76.1 22.2-5.6-8.3-12.5-19.4-12.5-31.9 0-23.5 42.9-41.5 99.6-41.5 76.1 0 117.6 26.3 117.6 98.3v101.1zm-78.8-62.3c-41.5 0-84.4 11.1-84.4 45.7 0 22.1 15.2 37.4 41.5 37.4 27.6 0 42.9-15.3 45.6-19.4q4.2-4.2 4.2-16.6v-47.1zm943.6 62.3c0 27.7 4.1 48.5 12.4 60.9-6.9 2.8-18 6.9-37.3 6.9-36 0-41.5-19.3-44.3-29-8.3 8.3-30.4 29-81.6 29-41.5 0-85.8-24.9-85.8-81.7 0-65 66.4-87.2 149.4-87.2h12.5v-5.5c0-27.7-22.2-41.6-55.4-41.6-35.9 0-69.2 18-76.1 22.2-5.5-8.3-12.4-19.4-12.4-31.9 0-23.5 42.9-41.5 99.6-41.5 76.1 0 117.6 26.3 117.6 98.3v101.1zm-80.2-62.3c-41.6 0-84.4 11.1-84.4 45.7 0 22.1 15.2 37.4 41.5 37.4 27.6 0 42.9-15.3 45.6-19.4q4.2-4.2 4.2-16.6v-47.1zm-1317.2 267.2c2.8 0 4.1 0 5.5-1.4 1.4 0 2.8-1.3 4.2-2.7l37.3-44.3q2.1-2.1 4.2-4.2c1.4 0 2.8-1.4 5.5-1.4h16.6l-44.2 52.6q-2.1 2.1-4.2 4.2c-1.4 1.4-2.8 1.4-4.2 2.8 1.4 0 2.8 1.4 4.2 2.7q2.1 2.1 4.2 4.2l45.6 58.2c-1.4 0-20.7 0-20.7 0-1.4 0-1.4 0-2.8-1.4l-2.8-2.8-38.7-47.1c0-1.4-1.4-1.4-1.4-1.4l-1.4-1.4c-1.4 0-1.4 0-2.8-1.3-1.3 0-2.7 0-2.7 0h-6.9v55.4h-20.8v-123.3h19.4v52.6zm107.9-42.9c0 1.4 0 2.8-1.4 4.2 0 1.3-1.4 2.7-2.8 4.1-1.3 1.4-2.7 1.4-4.1 2.8-1.4 0-2.8 1.4-4.2 1.4-1.3 0-2.7 0-4.1-1.4-1.4 0-2.8-1.4-4.2-2.8-1.3-1.4-1.3-2.8-2.7-4.1 0-1.4-1.4-2.8-1.4-4.2 0-1.4 0-2.8 1.4-4.1 0-1.4 1.4-2.8 2.7-4.2 1.4-1.4 2.8-1.4 4.2-2.8 1.4 0 2.8-1.4 4.1-1.4 1.4 0 2.8 0 4.2 1.4 1.4 0 2.8 1.4 4.1 2.8 1.4 1.4 1.4 2.8 2.8 4.2 1.4 0 1.4 1.3 1.4 4.1zm-20.8 26.3h18v87.3h-18zm114.9 85.8h-11.1q-4.1 0-4.1-4.1l-1.4-9.7c-4.2 4.1-8.3 8.3-12.5 9.7q-6.2 4.1-16.6 4.1c-5.5 0-9.7-1.4-13.8-2.8-4.2-1.3-6.9-4.1-9.7-8.3-2.8-4.1-5.5-8.3-6.9-13.8-1.4-5.6-2.8-12.5-2.8-19.4 0-6.9 1.4-12.5 2.8-18 1.4-5.5 4.1-9.7 6.9-13.9 2.8-4.1 6.9-6.9 12.5-9.6 4.1-2.8 9.6-4.2 15.2-4.2 5.5 0 9.7 1.4 12.4 2.8 4.2 1.4 6.9 4.1 9.7 6.9v-47.1h19.4zm-18-65.1c-2.8-2.7-5.5-5.5-8.3-6.9-2.8-1.4-6.9-1.4-9.7-1.4q-10.4 0-16.6 8.3c-4.1 5.6-5.5 12.5-5.5 23.6 0 5.5 0 9.7 1.4 13.8 1.3 4.2 2.7 6.9 4.1 9.7 1.4 2.8 4.2 4.2 6.9 5.5 2.8 1.4 5.6 1.4 8.3 1.4 4.2 0 8.3-1.4 12.5-2.7 2.7-1.4 6.9-5.6 9.7-8.3v-43zm58.1-9.7c1.4-1.3 4.1-4.1 5.5-5.5 1.4-1.4 4.2-2.8 6.9-4.2 2.8-1.3 4.2-1.3 6.9-2.7 2.8 0 5.6-1.4 8.3-1.4 4.2 0 8.3 1.4 12.5 2.8 4.1 1.3 6.9 4.1 9.7 6.9 2.7 2.8 4.1 6.9 5.5 11.1 1.4 4.1 1.4 8.3 1.4 13.8v55.4h-18v-55.4c0-5.5-1.4-11.1-4.1-13.8-2.8-2.8-7-5.6-12.5-5.6-4.1 0-8.3 1.4-11.1 2.8-4.1 1.4-6.9 4.1-9.6 8.3v63.7h-18v-87.2h9.7q4.1 0 4.1 4.1zm91.3 34.6h0.1q-0.1-0.6-0.1-1.4zm2.8 11.1c1.4 4.2 2.8 6.9 5.5 9.7 2.8 2.8 4.2 4.2 8.3 5.6 2.8 1.3 6.9 1.3 9.7 1.3 4.2 0 6.9 0 9.7-1.3 2.8-1.4 5.5-1.4 6.9-2.8 1.4-1.4 4.2-1.4 5.5-2.8 1.4-1.4 2.8-1.4 4.2-1.4 1.4 0 2.8 0 2.8 1.4l5.5 6.9c-2.8 2.8-4.2 4.2-6.9 7q-4.2 2-8.3 4.1c-2.8 1.4-6.9 1.4-9.7 2.8-2.8 0-6.9 1.4-9.7 1.4-5.5 0-11.1-1.4-16.6-2.8-5.5-1.4-9.7-5.5-13.8-8.3-4.2-4.2-6.9-8.3-8.3-15.2-2.8-5.6-2.8-12.5-2.8-20.8 0-5.5 1.4-11.1 2.8-16.6 1.4-5.6 4.1-9.7 8.3-13.9 4.1-4.1 8.3-6.9 12.4-9.7 5.6-2.7 11.1-2.7 18-2.7 5.5 0 9.7 1.3 15.2 2.7q6.3 2.1 12.5 8.3 4.1 4.2 8.3 12.5c1.4 5.5 2.8 11.1 2.8 16.6 0 2.8 0 4.2-1.4 5.6 0 1.3-1.4 1.3-2.8 1.3h-60.8c0.2 4.9 1.4 8.6 2.7 11.1zm41.5-23.5c0-2.8 0-5.6-1.4-8.3-1.4-2.8-2.8-5.6-4.1-6.9-1.4-1.4-4.2-4.2-7-4.2-2.7-1.4-5.5-1.4-8.3-1.4-6.9 0-12.4 1.4-15.2 5.6-4.1 4.1-6.9 9.6-6.9 16.6h42.9zm109.3-33.3l-48.4 110.8c0 1.4-1.4 2.8-2.8 2.8-1.4 1.4-2.8 1.4-4.1 1.4h-13.9l16.6-34.7-35.9-80.3h16.6c1.3 0 2.7 0 4.1 1.4 1.4 1.4 1.4 1.4 1.4 2.8l20.7 49.8c0 1.4 1.4 2.8 1.4 4.2 0 1.4 1.4 2.8 1.4 4.1 0-1.3 1.4-2.7 1.4-4.1 0-1.4 1.4-2.8 1.4-4.2l19.3-49.8c0-1.4 1.4-1.4 1.4-2.8 1.4 0 1.4-1.4 2.8-1.4zm138.4 59.6c1.3 0 1.3 0 2.7 1.4l8.3 8.3c-5.5 5.5-11 11-18 13.8-6.9 2.8-16.6 5.6-26.3 5.6-9.6 0-16.6-1.4-24.9-4.2-6.9-2.8-13.8-6.9-17.9-12.5-5.6-5.5-9.7-12.4-12.5-19.3q-4.1-12.5-4.1-25 0-14.5 4.1-24.9c2.8-8.3 6.9-13.8 12.5-19.4 5.5-5.5 11-9.7 19.3-12.4 8.3-2.8 15.2-4.2 24.9-4.2 8.3 0 16.6 1.4 23.6 4.2 6.9 2.7 12.4 6.9 17.9 11l-6.9 9.7-1.4 1.4c0 0-1.3 0-2.7 0-1.4 0-2.8 0-4.2-1.4-1.4-1.4-2.7-2.7-5.5-4.1q-4.2-2.1-8.3-4.2c-2.8-1.4-8.3-1.4-12.5-1.4-5.5 0-11 1.4-16.6 2.8-5.5 1.4-9.7 5.5-12.4 8.3-4.2 4.2-6.9 8.3-8.3 13.9-1.4 5.5-2.8 12.4-2.8 19.3 0 7 1.4 13.9 2.8 19.4 1.4 5.6 5.5 11.1 8.3 13.9q6.2 6.2 12.4 8.3c5.6 1.4 9.7 2.8 15.2 2.8 2.8 0 7 0 9.7 0 2.8 0 5.6-1.4 7-1.4 2.7-1.4 4.1-1.4 6.9-2.8 1.4-1.4 4.1-2.8 5.5-4.2 1.4-2.7 2.8-2.7 4.2-2.7zm22.1-48.5c9.7-9.7 22.1-13.8 34.6-13.8 5.5 0 9.7 1.3 13.8 2.7 4.2 1.4 6.9 4.2 9.7 7 2.8 2.7 4.2 6.9 5.5 11 1.4 4.2 2.8 8.3 2.8 13.9v55.4h-8.3c-1.4 0-2.8 0-4.1-1.4-1.4 0-1.4-1.4-2.8-2.8l-1.4-6.9c-2.8 1.4-4.1 4.1-6.9 5.5-2.8 1.4-4.2 2.8-6.9 4.2-2.8 1.4-4.2 1.4-7 2.8-2.7 0-5.5 1.3-8.3 1.3-4.1 0-6.9 0-9.6-1.3q-4.2-2.1-8.3-4.2c-2.8-1.4-4.2-4.2-5.6-6.9-1.4-2.8-1.4-6.9-1.4-9.7 0-2.8 1.4-6.9 2.8-9.7q2.1-4.2 8.3-8.3c4.2-2.8 9.7-4.2 16.6-6.9 6.9-1.4 15.2-2.8 24.9-2.8v-5.5c0-7-1.4-11.1-4.1-13.9q-4.2-4.1-12.5-4.1c-4.1 0-6.9 0-8.3 1.3-1.4 1.4-4.1 1.4-6.9 2.8-1.4 1.4-2.8 1.4-4.2 2.8-1.3 1.4-2.7 1.4-4.1 1.4-1.4 0-2.8 0-2.8-1.4-1.4 0-1.4-1.4-2.7-2.8zm49.8 37.4c-6.9 0-12.5 1.4-16.6 1.4-4.2 0-8.3 1.4-11.1 2.7-2.8 1.4-4.2 2.8-5.5 4.2-1.4 1.4-1.4 4.2-1.4 5.5 0 1.4 0 4.2 1.4 5.6 0 1.4 1.3 2.7 2.7 4.1 1.4 1.4 2.8 1.4 4.2 1.4 1.4 0 2.7 0 5.5 0 4.2 0 8.3-1.4 12.5-2.8 2.7-1.3 6.9-4.1 9.7-8.3v-13.8zm56.7-33.2c2.7-5.6 5.5-9.7 9.7-12.5 4.1-2.8 8.3-4.2 13.8-4.2 1.4 0 4.2 0 5.5 0 1.4 0 2.8 1.4 4.2 1.4l-1.4 13.9c0 1.4 0 1.4-1.4 1.4-1.4 0-2.7 0-5.5 0-1.4 0-2.8 0-5.5 0-2.8 0-4.2 0-7 1.3-1.4 1.4-4.1 1.4-5.5 2.8-1.4 1.4-2.8 2.8-4.2 5.6-1.3 1.3-2.7 4.1-2.7 6.9v54h-18v-85.9h11.1c1.3 0 2.7 0 4.1 1.4 1.4 1.4 1.4 1.4 1.4 4.2zm55.3 30.4h0.1q-0.1-0.6-0.1-1.4zm2.8 11.1c1.4 4.2 2.8 6.9 5.5 9.7 2.8 2.8 4.2 4.2 8.3 5.6 2.8 1.3 7 1.3 9.7 1.3 4.2 0 6.9 0 9.7-1.3 2.8-1.4 5.5-1.4 6.9-2.8 1.4-1.4 4.2-1.4 5.6-2.8 1.3-1.4 2.7-1.4 4.1-1.4 1.4 0 2.8 0 2.8 1.4l5.5 6.9c-2.7 2.8-4.1 4.2-6.9 7q-4.2 2-8.3 4.1c-2.8 1.4-6.9 1.4-9.7 2.8-2.8 0-6.9 1.4-9.7 1.4-5.5 0-11-1.4-16.6-2.8-5.5-1.4-9.7-5.5-13.8-8.3-4.2-2.8-6.9-8.3-8.3-15.2-2.8-5.6-2.8-12.5-2.8-20.8 0-5.5 1.4-11.1 2.8-16.6 1.4-5.6 4.1-9.7 8.3-13.9 4.1-4.1 8.3-6.9 12.4-9.7 5.6-2.7 11.1-2.7 18-2.7 5.6 0 9.7 1.3 15.2 2.7q6.3 2.1 12.5 8.3 4.2 4.2 8.3 12.5c1.4 5.5 2.8 11.1 2.8 16.6 0 2.8 0 4.2-1.4 5.6 0 1.3-1.4 1.3-2.8 1.3h-60.8c0.2 4.9 1.4 8.6 2.7 11.1zm41.5-23.5c0-2.8 0-5.6-1.4-8.3-1.4-2.8-2.7-5.6-4.1-6.9-1.4-1.4-4.2-4.2-6.9-4.2-2.8-1.4-5.6-1.4-8.3-1.4-7 0-12.5 1.4-15.3 5.6-2.7 4.1-6.9 9.6-6.9 16.6h42.9zm612.9-153.7c-15.3 0-27.6-12.4-27.6-27.7 0-15.4 12.3-27.7 27.6-27.7 15.3 0 27.7 12.3 27.7 27.7 0 15.3-12.4 27.7-27.7 27.7zm22.2-27c0-12.7-9.9-22.9-22.2-22.9-12.2 0-22.1 10.2-22.1 22.9 0 12.6 9.9 22.8 22.1 22.8 12.3 0 22.2-10.2 22.2-22.8zm-27.7 15.9h-4.1v-31.9h12.4c6.9 0 11.1 2.8 11.1 9.7 0 5.6-4.2 8.3-8.3 8.3l8.3 13.9h-5.6l-8.3-13.9h-5.5zm5.5-18c4.2 0 8.3 0 8.3-5.5 0-2.8-4.1-4.2-6.9-4.2h-6.9v9.7z"/>
	</g>
</svg>