<svg version="1.2" xmlns="http://www.w3.org/2000/svg" viewBox="0 0 1540 1024" width="1540" height="1024">
	<title>John_Deere_logo-svg</title>
	<defs>
		<radialGradient id="g1" cx="802.7" cy="320.5" r="381.1" gradientUnits="userSpaceOnUse">
			<stop offset="0" stop-color="#5aad35"/>
			<stop offset=".7" stop-color="#438e2f"/>
			<stop offset="1" stop-color="#2c702a"/>
		</radialGradient>
	</defs>
	<style>
		.s0 { fill: #247218 } 
		.s1 { fill: #fcdf17 } 
		.s2 { fill: url(#g1) } 
	</style>
	<path id="Layer" class="s0" d="m785.9 0c119.8 0 241.8 25.8 356.5 81.2 40.4 97 58.9 196.8 58.9 294.2 0 97.1-18.2 195.8-58.7 293.6-115.1 55.7-236.7 81.3-356.7 81.3-119.8 0-241.4-25.6-356.6-81.3-40.5-97.8-58.7-196.5-58.7-293.6 0-97.4 18.4-197.2 58.9-294.2 114.7-55.4 236.8-81.2 356.4-81.2z"/>
	<path id="Layer" class="s1" d="m454.4 645.7c-33.5-83.9-51.8-175.1-51.8-270.3 0-95.5 18.3-186.7 52-270.8 99.6-46.7 213-72.9 331.3-72.9 118.3 0 231.8 26.2 331.4 72.9 33.6 84.1 52 175.3 52 270.8 0 95.2-18.3 186.4-51.8 270.3-99.6 46.7-213.2 72.9-331.6 72.9-118.4 0-231.9-26.2-331.5-72.9z"/>
	<path id="Layer" class="s2" d="m1098.4 628.3c-96.3 43.5-204.1 66.5-312.5 66.5-108.3 0-216.2-23-312.5-66.5-31-81-46.8-165.9-46.8-252.9 0-87.2 15.9-172.3 47-253.3 96.3-43.5 204-66.6 312.3-66.6 108.2 0 216.1 23.1 312.3 66.6 31.2 80.9 47.1 166.1 47.1 253.3 0 77.1-12.5 152.7-37 225.2-11.2-18.6-26.7-42.6-35.8-55.4-10.8-5.1-47-22.3-56.5-30.6-8.3-7.1-14.5-19.2-19.7-38.1-6.5-24-14.7-53.8-38.3-78.6l-0.8-0.8c0 0 25.5-10.4 26.8-10.9-7.5-47.9-63.4-79.6-66.8-81.5-0.3 0.2-0.3 0.3-0.5 0.5 20.7 25.9 26.9 48.8 26.9 64.2 0 8.1-1.7 14.2-3.8 17.5l-0.4 0.5-2-0.5c-34.5-10.2-84.2-14.2-147.9-11.8-15 0.5-36.4-0.1-49.4-12.6-7.3-7-10.9-17.1-10.9-30.1 0-35.1 15.2-82.8 16.9-88.1l0.2-0.7 0.7 0.1c0 0 25.8 3.2 25.8 3.3 25.1-13.8 37.6-27 43.4-34.3-3.8 0.4-61.1 7.3-61.1 7.3l1.4-4.6c3.1-11 7.9-28.4 7.9-46.7 0-26-9.9-54-48.7-68.8-0.4 0.3-0.5 0.7-0.8 1.1 13.5 13.1 24.5 33.9 24.5 53.3 0 6.2-1.2 12.2-3.6 17.9l-0.2 0.5-0.7-0.1c-6.5-1.1-16.1-2-24-2.2l-0.6-0.1-0.2-0.6c-6.2-21.5-33.5-47-63.1-49.3-0.2 0.3-0.3 0.5-0.5 0.9 8.5 5.3 33.6 22.8 38.5 49.1l0.2 0.9h-0.9c-14.9 1.8-28.8 6.2-32.7 7.5l-0.6 0.2-0.3-0.5c-6.2-10.3-26.6-24.6-57.2-22.5-0.1 0.4-0.1 0.8-0.2 1.3 3.4 1.2 33.5 13.1 38.1 28.8l0.2 0.6-0.6 0.4c-17 7.8-39.9 22.1-52.7 31.7 0.2 0.2 0.2 0.3 0.3 0.5 61.7-23.6 122.7-31.5 142.1-18.4 3.9 2.7 5.9 6.2 5.9 10.2 0 4.9-1.3 8.9-5.9 16.2-27.4 6-75.1 19.4-113.8 33.8 0.4 1.3 5.5 16.9 5.8 17.8 2.7 0.5 53.7 9.4 53.7 9.4 0.1 0 2.6 0.3 3.7 2.3 0.2 0.5 0.4 1.2 0.4 1.8 0 0.9-0.3 1.9-0.8 3-18.5 36.4-28.3 69.6-33 111.1l-0.3 0.7-0.6 0.1c-8.9 0.8-87.9 8.4-122.9 21.5 0.3 3 1.8 17 1.8 17.9v0.1c58.9 71.6 131.9 108.7 155.4 119.4-3.9-8-18.4-37.5-18.4-37.6-2.6-2-8.7-4.2-17.1-6.2-37.9-12.5-68.1-57.7-75.8-72.6l-0.6-1.2h1.4c33.7 0 63.2 9.6 92 19.1 18.7 6.1 36.4 11.9 54.5 14.8 27.3 4.4 55.2 0.7 82.2-2.7l14.1-1.9c22.2-2.7 45.3-3.1 73.2-1 2.8 3.4 27.8 33.4 51.6 45.7 17.3 9 56.4 22.8 116.1 41.1 0 0 5.5 1.7 5.8 1.9 0.3 0.3 28.5 28.1 49.4 62.6 0 0-0.1 0.1-0.1 0.1z"/>
	<path id="Layer" fill-rule="evenodd" class="s0" d="m0 986.3c0 0 18.9 6.7 40 6.7 22.5 0 36.5-3.1 44.4-11 6.5-6.5 9.1-17.4 8.7-33.4v-106.9h33.3v111.5c-0.5 49.4-24.5 70.4-80.4 70.4-27.1 0-46-4.3-46-4.3 0 0 0-33 0-33zm231.3-112.6c53.4 0 85.3 28.5 85.3 76.1 0 34-22.3 73.8-85.3 73.8-62.9 0-85.2-39.8-85.2-73.8 0-47.6 31.8-76.1 85.2-76.1zm52.1 74.6c0-28.8-19-45.3-52.1-45.3-33.1 0-52.1 16.5-52.1 45.3 0 40.1 32.7 46.1 52.1 46.1 19.5 0 52.1-6 52.1-46.1zm205.8-71.2v143.2h-33.2v-57h-86.5v57h-33.2v-143.2h33.2v57h86.5v-57zm574 113.9v29.3h-132.3v-143.2h132.3v29.3h-99.1v27.7h76.7v29.2h-76.7v27.7c0 0 99.1 0 99.1 0zm-251-149.5c63.7 0 101.7 34 101.7 90.7 0 40.7-26.6 88.1-101.7 88.1h-80.3v-178.8h38.4c0 0 41.9 0 41.9 0zm-47 29.6v119.7h47c25.5 0 68.3-7.9 68.3-60.4 0-37.8-24.9-59.3-68.3-59.3 0 0-47 0-47 0zm627.1 149.2q0 0 0 0h-40.1l-40.1-52.4h-39v52.4h-33.2v-143.2h93.9c32.3 0 51.6 17.2 51.6 46 0 17.2-9.6 36.6-34.8 42.6 0 0 41.7 54.6 41.7 54.6zm-56.7-81.6c6.9 0 18.4-2.2 18.4-16.3 0-10.2-6.7-16-18.4-16h-60.7v32.2c0 0 60.7 0.1 60.7 0.1zm-699.8 81.6l-86.4-97.6v97.6h-33.2v-143.2h33l86.6 96.6v-96.6h33.3v143.2c0 0-33.3 0-33.3 0zm581.9-29.3v29.3h-132.3v-143.2h132.3v29.3h-99.1v27.7h76.7v29.2h-76.7v27.7c0 0 99.1 0 99.1 0zm322.1 0v29.3h-132.3v-143.2h132.3v29.3h-99.1v27.7h76.7v29.2h-76.7v27.7c0 0 99.1 0 99.1 0z"/>
</svg>