<svg version="1.2" xmlns="http://www.w3.org/2000/svg" viewBox="0 0 1523 424" width="1523" height="424">
	<title>Dentsply_sirona_logo-svg</title>
	<style>
		.s0 { fill: #5d5d5f } 
	</style>
	<path id="path4905" class="s0" d="m0.2 0.4c32.3-0.1 64.6 0 96.9-0.1 46.7-0.5 94.1 9.9 134.6 33.4 37.5 21.5 68 55.3 83.9 95.6 17.5 44.1 19 94.1 5.3 139.4-7.4-19.6-20.5-36.9-37.3-49.4-24.1-18.1-53-28.2-81.7-36.4-26.1-7.5-53.1-11.7-79.2-19.2-28.2-7.9-56.7-16.8-81.1-33.3-12.2-8.3-22.8-19.2-29.5-32.4-8.7-16.6-10.8-35.5-11.9-53.9zm0 197.2c21.2 12.6 43.4 23.6 66.6 31.7 44.5 15.9 91.8 21.3 136.4 36.6 18.8 6.6 38.4 14.1 52.1 29.2 12.7 13.9 14.5 34.3 12.1 52.2-4.2 25.3-23.6 45.4-45.8 56.8-33.6 17.3-72.6 21.3-109.9 19.5-25.9-2.6-51.2-9.8-75.4-19.2-12.4-5.1-24.9-10.3-36.1-17.8z"/>
	<path id="path4907" fill-rule="evenodd" class="s0" d="m519.4 0.6c32.2 0.4 65.4 14.6 84.1 41.5 16 22.6 19.9 52.9 11.4 79.1-11.5 35.6-46.3 59.2-82 65.7-25.6 3.8-51.6-1.1-76.1-8.4 0.2-59.3 0.1-118.6 0.2-177.9 20.9 0 41.5-0.1 62.4 0zm-37.7 161.2c20.9 4.8 43.8 6.3 64.2-1.6 19.6-7.3 35.9-23.4 42.9-43.2 7.1-19.9 5.5-43.2-6.1-61.2-9-14-23.5-24-39.3-28.7-20-6.3-41-3.5-61.5-4.1 0 46.3 0 92.5-0.2 138.8zm477.6-154.5q12.5-0.1 25 0c0.1 13.6-0.1 27.2 0.1 40.8q12.2-0.1 24.5-0.1 0 10.6 0 21.1-12.3 0-24.6 0c0 26.3 0 52.6 0.1 79 0 6.3 1.1 14.2 7.6 17 5.4 1.5 11.2 0.8 16.3-1.5 2.7 6.5 5.2 13 7.7 19.5-13.3 5.4-29.9 7.4-42.5-1-10.5-6.9-14.1-20.2-14.2-32.2-0.1-47.5 0-95.1 0-142.6zm369.7 1.4c0.3-0.3 1.1-1 1.5-1.3 7.8-0.4 15.6 0 23.4-0.2 0.2 59.4 0 118.8 0.1 178.2-8.4 0-16.8 0.1-25.2 0 0.1-58.9-0.1-117.8 0.2-176.7zm-591.2 41.9c15.8 6 28.4 19.5 33.8 35.4 4.9 13.2 5 27.4 4.4 41.3-37.5 0.3-74.9 0-112.5 0.2 2.7 14 10.8 27.5 23.8 33.8 22.7 11.8 52 4.5 68.8-14.1 5.4 4.5 10.8 9.2 16.2 13.7-11.6 12.3-26.2 22.3-43.2 25.3-24.5 4.8-51.9-1-70.3-18.5-15.1-13.6-21.8-34.4-21.1-54.3 0.7-13.9 3.5-28.3 11.2-40.2 8-13 21.6-21.9 36.4-25.4 6.4-1.4 13.2-2.3 19.8-2.5 11.2-0.2 22.3 1.4 32.7 5.3zm-50 18.9c-15.5 5.1-23.8 21.6-24 37 28.9 0 57.8 0.1 86.8 0-1.1-13.6-6.5-28.3-19.4-34.9-8.4-4-17.7-5.8-27-5.3-5.6 0.3-11.2 1.6-16.4 3.2zm356.6-5.1c8.5-12 23.5-17.7 37.8-18.8 20.9-1.1 42.4 4.5 59.9 16.1-4.1 5.9-7.9 12-11.9 18-13.1-8.6-28.6-13.8-44.3-13.9-9.5 0.6-21.3 4.3-23.7 14.8-2.2 7.1 3.8 13.1 9.7 15.9 19.7 9.8 43.8 10.1 61.1 24.7 12.6 10.1 14 29 7.1 42.7-6.8 13.2-21.2 20.7-35.5 23-26.3 3.8-53.6-4.3-74.6-20.2 4.4-5.5 8.7-11.1 12.8-16.9 17 11.2 37.2 20.1 57.9 17 9.3-1.5 19.9-8 19.6-18.6 0.6-8.3-7.2-13.6-14-16.2-19.3-7.8-41.8-8.8-58.2-22.7-13.1-10.8-13.1-31.6-3.7-44.9zm-245-4.1c23.1-11 49-15.8 74.6-15.3 14.9 0.3 30.4 5.8 40.4 17.3 8.9 9.8 12.9 23.5 13.1 36.6q0 43.2 0 86.5-12.4 0-24.8 0c-0.1-27 0.1-54-0.1-80.9-0.2-11.3-3.8-23.2-13.1-30.3-8.9-7.1-20.9-8.1-31.9-7.3-11.5 0.6-22.9 3.2-33.5 7.9 0 36.9 0 73.8 0 110.7-8.2-0.1-16.5-0.1-24.7-0.1 0-41.7 0-83.4 0-125.1zm445.7-15c18 1.7 36.1 9.6 47.5 24.2 13.3 16.9 16 39.5 13.7 60.3-2.2 18.8-11.3 37.6-27.7 48-12.5 8.4-27.9 10.8-42.7 10-15.1 0.4-29.9-3.9-44.1-8.6 0 15.7-0.1 31.5 0 47.2-8.3 0.1-16.4 0-24.7 0 0.1-55.4 0.1-110.8 0-166.2 21.2-10 44.5-15.6 67.9-15.3q5 0 10.1 0.4zm-53.1 29.7c-0.5 26.4 0.2 52.8-0.2 79.3 15.1 8.4 32.3 12.6 49.6 12.5 10.9-0.4 22.4-4.1 29.5-13 11.2-13.8 11.5-32.7 9.8-49.5-1.8-15.2-11.5-29.9-26.5-34.5-7.6-2.4-15.6-3.5-23.5-3.5-13.3 0.1-26.6 3.4-38.7 8.7zm304.4-27c8.8 0 17.6 0 26.5 0.2v3.2-2.4c-21 47.1-40.9 94.6-61.6 141.8-5.9 13-14.1 26.1-27.4 32.5-17.1 7.6-37.1 4.4-53.6-3.4q4.4-9.6 8.8-19.2c9.3 4.7 20.2 7.1 30.6 4.6 10.2-3.2 15.3-13.4 20-22.2-22.3-44.9-43.8-90.1-65.8-135.1 9.1 0.1 18.2 0.1 27.4-0.1 17.2 36.1 33.7 72.4 50.6 108.7q22.2-54.3 44.5-108.6zm-1020.9 198.9c17.1-12.7 39.6-15 60.2-12.7 19.9 1.9 39.1 9.9 54.6 22.3l0.2 1.5c-4.3 6.3-9.6 11.8-14.2 17.9-14.7-11.6-32.5-19.6-51.4-20.4-13-0.6-27.4 1.7-36.9 11.3-10.5 9.8-9 29.7 4 36.8 22.9 13.7 51.1 12.2 74.8 23.9 11.9 5.4 23.2 14.5 27.2 27.4 5.6 17.4 1 38.1-12.7 50.6-15 14-36.4 18.7-56.4 17.8-28.7 0.2-56.4-11.8-78-30.3 5.4-5.9 10.9-11.8 16-17.9 14.9 12.9 32.8 23.2 52.7 25.6 15.9 1.8 34.5 1.4 47-10.2 8-7 9.6-19 6.2-28.6-5.2-11.1-18-15-28.8-18.3-22.4-6-46.8-8.2-66.3-21.8-11.3-7.7-18.3-21-18-34.8-1.1-15.7 7.1-31.1 19.8-40.1zm151-0.7q12.5 0 25 0 0 11.7 0 23.4-12.5 0-25 0 0-11.7 0-23.4zm629.7 49.9c0.1 41.6 0.3 83.3 0.3 124.9-8.4 0.1-16.8 0-25.2 0q0-5.1 0-10.3c-20.5 10.2-44.1 15.9-66.9 11.7-16.7-3.6-31.4-14.8-39.3-29.9-8.2-15.4-10.3-33.4-8.7-50.5 1.6-15.5 7.9-31.1 19.2-42 12.5-12.3 30-18.4 47.3-19.2 3.2-0.2 6.2-0.3 9.4-0.2 22.1 0.4 44 5.9 63.9 15.5zm-82.4 8c-15 3.2-27.2 15.4-30.4 30.3-3.6 16.3-3 34.4 5 49.4 5.8 11.2 18.3 18.1 30.8 18 18.8 1.4 36.4-6.5 52.1-15.7 0-25.2 0.1-50.3 0-75.4-11.1-5.1-23.3-8.2-35.6-8.7-7.4-0.3-14.8 0.5-21.9 2.1zm-485.3-10.3c18.6-11.8 41.6-14.9 63.1-12.5 11.1 1.4 21.4 5.7 31.1 10.9-3.6 6.6-7.3 13.1-11 19.6-17-11.2-40.4-14.5-58.2-3.2 0.2 37.4 0 74.9 0.1 112.4-8.3 0-16.7 0-25.1 0 0-42.4 0.1-84.8 0-127.2zm206.3-5.5c16 7.6 28.6 22.1 34 39.1 6.5 20.7 5.1 44.3-5.9 63.2-6.8 12-17.9 21.1-30.4 26.5-15.6 6.9-33.1 7.6-49.8 6-22.4-2.6-44.2-15.5-54.2-36.1-12.9-26.6-10.3-61.6 10.1-83.8 11-12.1 26.7-19.3 42.7-21.7 4.5-0.6 8.9-0.9 13.5-0.9 13.7-0.3 27.6 1.8 40 7.7zm-51 14.4c-15.2 2.5-29 13.1-34 27.9-5.5 16.2-5.2 35 3.2 50.2 6.4 11.9 19.1 19.3 32.2 21.2 16.5 2.8 35.3-0.1 48-11.8 12.9-12.8 16.2-32.5 13-49.8-2-13.4-9.9-26-21.9-32.4-9.2-5.1-19.8-6.4-30.2-6-3.5 0.1-6.9 0.3-10.3 0.7zm115.8-6.6c22.7-11 48.3-15.8 73.6-15.5 14.2 0 28.9 4.7 39.3 14.7 11 10.6 15.5 26.2 15.6 41.2 0.1 28.1 0 56.3 0 84.5-8.3 0-16.7 0-25.1 0 0.1-27 0.1-53.9 0.1-80.9-0.1-10.7-3.6-22-11.8-29.3-7-6-16.4-8.5-25.5-8.5-14.1-0.3-28.3 2.5-41.3 8 0.1 36.9 0 73.8 0.1 110.7-8.4 0-16.7 0-25.1 0 0.1-41.6 0-83.3 0.1-124.9zm-333.1-12.4q12.5 0 25 0c0 45.8 0 91.5 0 137.3q-12.5 0-25 0c0.1-45.8 0-91.5 0-137.3z"/>
</svg>