<svg version="1.2" xmlns="http://www.w3.org/2000/svg" viewBox="0 0 1587 696" width="1587" height="696">
	<title>Q4-2021-DVN-Earnings-Presentation-13-pdf-svg</title>
	<defs>
		<clipPath clipPathUnits="userSpaceOnUse" id="cp1">
			<path d="m-12843.49-7147.03h15495.75v8714.48h-15495.75z"/>
		</clipPath>
	</defs>
	<style>
		.s0 { fill: #505050 } 
		.s1 { fill: #f54123 } 
	</style>
	<g id="Clip-Path: Page 1" clip-path="url(#cp1)">
		<g id="Page 1">
			<path id="Path 3" fill-rule="evenodd" class="s0" d="m267.4 644.4h39.5v45.1h-100.1v-45.1c-20.1 35.5-46.8 51.6-91.2 51.6-79.1 0-115.4-61.3-115.4-132.3 0-88.8 47.6-137.2 118.7-137.2 41.1 0 71 18.6 83.9 46.8v-105.7h-37.9v-45.2h102.5zm-62.2-85.5c0-45.2-20.2-86.4-69.4-86.4-50 0-67.8 42.8-67.8 89.6 0 54.1 24.2 88.8 63.8 88.8 54.9 0 73.4-38 73.4-92zm353.5 21h-193.7c0 43.5 23.4 68.5 66.2 71.8h3.2c29.9-1.6 51.7-17 61.4-42h61.3c-9.7 62.9-64.6 86.3-121.1 86.3-88.7 0-137.2-51.6-137.2-137.1 0-81.5 53.3-132.4 135.6-132.4 64.6 0 109.8 36.4 121.1 96.1 3.2 19.3 3.2 37.9 3.2 57.3zm-62.9-42.8c-1.6-41.2-24.2-66.2-64.6-66.2-39.5 0-66.2 26.7-66.2 66.2zm367.2-58.1h-29l-88 211.4h-76.7l-86.3-211.4h-29.9v-46h138v46h-40.3l59.7 155.7 62.1-155.7h-40.3v-46h130.7zm260.7 83.1c0 83.9-53.2 134-135.6 134-82.3 0-137.2-50.1-137.2-134 0-84.7 54.9-135.5 137.2-135.5 82.4 0 135.6 50.8 135.6 135.5zm-66.2 0c0-45.2-18.5-89.6-69.4-89.6-50 0-69.4 44.4-69.4 89.6 0 44.4 19.4 88 69.4 88 50.9 0 69.4-43.6 69.4-88zm384.2 82.3v46h-138.8v-46h36.3v-115.4c0-29.8-16.1-56.5-49.2-56.5-44.4 0-61.4 36.4-61.4 74.3v97.6h36.4v46h-138.9v-46h38v-165.4h-38v-46h97.7v44.4h1.6c16.2-31.5 49.2-50.8 87.2-50.8 66.2 0 91.2 34.6 91.2 98.4v119.4z"/>
			<path id="Path 6" class="s1" d="m1126.1 178.8h460.8v66.1h-460.8zm156.6-178.3h304.2v69.4h-304.2zm-288.2 91.2h592.4v66.2h-592.4z"/>
		</g>
	</g>
</svg>