<svg version="1.2" xmlns="http://www.w3.org/2000/svg" viewBox="0 0 1515 342" width="1515" height="342">
	<title>desxcom-svg</title>
	<style>
		.s0 { fill: #63a844 } 
	</style>
	<path id="Layer" fill-rule="evenodd" class="s0" d="m396.7 339.9c-15.8 0-28.6-12.8-28.6-28.7 0-15.8 12.8-28.6 28.6-28.6 15.9 0 28.7 12.8 28.7 28.6 0 15.9-12.8 28.7-28.7 28.7zm20.9-28c0-11.9-9.2-21.6-20.6-21.6-11.4 0-20.6 9.7-20.6 21.6 0 11.9 9.2 21.5 20.6 21.5 11.4 0 20.6-9.6 20.6-21.5zm-67.5-28h7.7v36c0 12.2-9 20.6-21.9 20.6-12.9 0-21.9-8.3-21.9-20.6v-36h7.8v36c0 8.4 5.7 13.5 14.1 13.5 8.4 0 14.2-5.1 14.2-13.5zm240 27.7h16v28.3h-7c0-1.3 0-5.8 0-5.8 0 0-5.8 7.1-17.4 7.1-14.8 0-27.7-11.6-27.7-29 0-16 12.2-28.9 28.3-28.9 13.5 0 20.6 6.4 20.6 6.4l-3.2 5.8c0 0-6.4-5.1-15.4-5.1-12.9 0-21.3 9.6-21.3 21.2 0 12.9 9.1 21.9 20.6 21.9 9.7 0 16.1-7.1 16.1-7.1v-8.4h-9v-6.4zm-117.1-27.7h7.7v36.1c0 12.2-9 20.6-21.8 20.6-12.9 0-21.9-8.4-21.9-20.6v-36.1h7.7v36.1c0 8.3 5.8 13.5 14.2 13.5 8.3 0 14.1-5.2 14.1-13.5zm81.7-143.5q0 0 0 0zm-2.5 2.6c-1.3 1.2-34.1 34.1-45.7 66.9-3.9 0-49.6 0-57.3 0 12.9-48.9 75.9-99.1 76.6-99.8l3.2-2.5-3.2-2.6c-0.7-0.7-55.4-46.3-76-97.8 8.4 0 54.1 0 57.9 0 13.6 40.5 42.5 64.3 43.8 65l1.9 1.9 1.9-1.9c1.3-1.3 30.9-25.1 45.1-65 3.8 0 49.5 0 57.9 0-21.9 51.5-76.6 97.1-77.2 97.8l-3.2 2.6 3.2 2.5c0.6 0.7 63.7 50.2 77.8 99.8-7.7 0-52.7 0-57.2 0-11-32.2-45.1-65.7-46.4-66.9 0 0-0.6-2.5-0.6-2.6zm-25.1 182.1c0 8.3-6.4 15.4-18 15.4-11.6 0-18.6-7.1-18.6-7.1l4.5-5.7c0 0 5.7 5.7 14.1 5.7 5.2 0 9.7-3.2 9.7-8.3 0-12.2-27.1-9.7-27.1-26.4 0-8.4 7.8-15.4 18.1-15.4 10.2 0 16 5.7 16 5.7l-3.8 6.5c0 0-5.2-4.5-12.2-4.5-5.8 0-10.3 3.8-10.3 8.3 0.6 10.3 27.6 7.1 27.6 25.8zm-294.6-41.2h7.7v56h-7.7zm-70.2 0h7.8v56h-7.8l-25.1-36.1c-1.9-3.8-4.5-8.3-4.5-8.3 0 0 0.7 5.1 0.7 8.3v36.1h-7.7v-56h7.7l25.1 36c1.9 3.2 4.5 8.4 4.5 8.4 0 0-0.7-5.2-0.7-8.4zm77.2-175.7c0-70.7 32.8-105.5 99.8-105.5 63 0 85.5 38.6 85.5 72.1 0 7.1-1.9 15.4-2.6 18-32.1 20.6-69.4 29.6-119 29.6h-3.2v3.2c0 43.8 12.9 56.6 43.1 56.6 24.5 0 39.3-5.1 43.8-10.2 3.2 1.9 25.7 12.8 32.1 16-9.6 7.8-37.3 25.8-80.4 25.8-69.5 0-99.1-31.6-99.1-105.6zm60.5-10.9h3.2c34.8 0 44.4-5.1 62.4-14.8l2-1.3 0.6-1.2c0-0.7 3.9-8.4 3.9-15.5 0-23.2-12.9-32.2-31.5-32.2-36.1 0-40.6 30.3-40.6 61.2zm326.2 235.4h25.1v7.1h-32.8v-56h7.7c0 0 0 48.9 0 48.9zm-538.5-119c0 0-63.7 0-79.8 0 0-7.1 0-207.2 0-213.6 6.4 0 79.8 0 79.8 0 73.3 0 109.4 34.8 109.4 106.2 0 72-36.1 106.8-109.4 107.4zm-21.2-32.2c0 0 3.8 0 23.1 0l9.7-0.6c23.1-7.1 34.1-26.4 34.1-74 0-43.1-9-61.8-27.7-71.4-5.8-1.9-10.9-2.6-16.1-2.6-19.3 0-23.1 0-23.1 0 0 0 0 148.6 0 148.6zm18.9 158.3c-15.8 0-28.6-12.8-28.6-28.6 0-15.8 12.8-28.6 28.6-28.6 15.9 0 28.7 12.8 28.7 28.6 0 15.8-12.8 28.6-28.7 28.6zm21-28c0-11.9-9.3-21.5-20.6-21.5-11.4 0-20.6 9.6-20.6 21.5 0 12 9.2 21.6 20.6 21.6 11.3 0 20.6-9.6 20.6-21.6zm185.9-28h7.7v56h-7.7l-25.1-36c-1.9-3.2-4.5-8.4-4.5-8.4 0 0 0.6 5.2 0.6 8.4v36h-7.7v-56h7.7l25.1 36.1c2 3.2 4.5 8.3 4.5 8.3 0 0-0.6-5.1-0.6-8.3zm-246.4 42.4l4.5 5.8c0 0-7.8 9-21.9 9-16.7-0.6-28.3-13.5-28.3-29.6 0-16.7 12.2-28.9 28.3-28.9 13.5 0 20.6 7.1 20.6 7.1l-3.9 6.4c0 0-6.4-5.8-16.1-5.8-12.2 0-20.6 9.7-20.6 21.2 0 12.3 8.4 21.9 20.6 21.9 10.3 0 16.8-7.1 16.8-7.1zm132.5-42.4h46.3v7.1h-19.3v48.9h-7.7v-48.9h-19.3c0 0 0-7.1 0-7.1zm1206.4 0h7.7v56h-7.7l-25.1-36.1c-1.9-3.2-4.5-8.3-4.5-8.3 0 0 0.6 5.1 0.6 8.3v36.1h-7.7v-56h7.7l25.1 36c1.9 3.2 4.5 8.4 4.5 8.4 0 0-0.6-5.2-0.6-8.4zm-59.8 0h7.7v56h-7.7zm-91.1 56c-15.8 0-28.6-12.8-28.6-28.7 0-15.8 12.8-28.6 28.6-28.6 15.9 0 28.7 12.8 28.7 28.6 0 15.9-12.8 28.7-28.7 28.7zm20.9-28c0-11.9-9.2-21.6-20.6-21.6-11.4 0-20.6 9.7-20.6 21.6 0 11.9 9.2 21.5 20.6 21.5 11.4 0 20.6-9.6 20.6-21.5zm48.3 6.1l11.6 21.9h-9l-11.6-22.5h-12.2v22.5h-7.8v-56h17.4c5.8 0 8.4 0.6 10.3 1.3 5.8 1.9 9.6 7.7 9.6 14.8 0 7.1-4.5 13.5-10.3 15.4 0.1 0 0.7 0.7 2 2.6zm0.6-18c0-3.9-1.9-7.1-4.5-8.4-1.3-0.6-3.2-1.3-7.7-1.3h-9v20h10.9c5.8 0 9.7-3.9 10.3-10.3zm-147.3-16.1h46.3v7.1h-19.3v48.9h-7.7v-48.9h-19.3c0 0 0-7.1 0-7.1zm283.1 27.7h16.1v28.3h-7.1c0-1.3 0-5.8 0-5.8 0 0-5.8 7.1-17.4 7.1-14.8 0-27.7-11.6-27.7-29 0-16.1 12.3-28.9 28.4-28.9 13.5 0 20.6 6.4 20.6 6.4l-3.9 5.8c0 0-6.4-5.2-15.5-5.2-12.8 0-21.2 9.7-21.2 21.3 0 12.8 9 21.8 20.6 21.8 9.7 0 16.1-7 16.1-7v-8.4h-9c0 0 0-6.4 0-6.4zm75.2-285.1c0 3.9-1.2 7.8-3.2 11.6-2.5 3.9-5.1 7.1-9 9-3.2 1.9-7.7 3.2-11.6 3.2-3.8 0-7.7-1.3-11.5-3.2-3.9-2.6-7.1-5.1-9-9-2-3.2-3.3-7.7-3.3-11.6 0-4.5 1.3-8.3 3.3-12.2 1.9-3.9 5.1-7.1 9-9 3.8-1.9 7.7-3.2 11.5-3.2 3.9 0 7.8 1.3 11.6 3.2 3.9 1.9 7.1 5.1 9 9 2.6 3.9 3.2 7.7 3.2 12.2zm-3.2 0c0-3.8-0.6-7-2.5-10.3-2-2.5-4.5-5.1-7.8-7-3.2-2-6.4-2.6-9.6-2.6-3.2 0-6.4 0.6-9.6 2.6-3.3 1.3-5.8 3.8-7.8 7-1.9 3.3-2.5 7.1-2.5 10.3 0 3.3 0.6 6.5 2.5 9.7 2 2.6 4.5 5.1 7.8 7.1 2.5 1.9 6.4 2.5 9.6 2.5 3.2 0 6.4-0.6 9.6-2.5 2.6-1.3 5.2-3.9 7.1-7.1 2-3.2 2.6-6.4 3.2-9.7zm-12.2 7.8l3.2 4.5h-5.1l-2.6-3.9c-1.9-3.2-3.2-5.1-4.5-5.8-0.6-0.6-1.9-0.6-3.2-0.6h-2.6v10.3h-3.8v-25.8h9c3.2 0 5.1 0 6.4 0.7 1.3 0.6 2.6 1.3 3.2 2.5 0.7 1.3 1.3 2.6 1.3 3.9 0 1.9-0.6 3.9-1.9 5.2-1.3 1.9-3.2 2.5-5.2 2.5 0.7 0 1.3 0.7 2 1.3 0.6 1.3 1.9 3.2 3.8 5.2zm-5.1-10.3c0.6-0.7 1.2-2 1.2-2.6 0-0.7 0-1.3-0.6-1.9-0.6-0.7-1.3-1.3-1.9-1.3-0.7-0.7-2-0.7-3.9-0.7h-4.5v7.8h5.2c2.5-0.1 4.5-0.7 4.5-1.3zm-353.9 259.9h7.7v56h-7.7zm257.4-74.7c0-6.4 0-148.6 0-148.6 0-21.2-2.6-27.6-18.1-27.6-27 0-37.9 18.6-38.6 19.3l-0.6 0.6c0 0 0 149.9 0 156.4-5.8 0-51.5 0-57.3 0 0-6.5 0-148.7 0-148.7 0-21.2-2.5-27.6-18-27.6-27 0-37.9 18.6-38.6 19.3l-0.6 0.6c0 0 0 149.9 0 156.4-5.8 0-51.5 0-56.6 0 0-6.5 0-160.9 0-160.9 0-13.5-13.5-26.4-28.4-34.1 11.6-3.2 43.8-12.9 45.7-13.5 6.5 2.6 21.9 9.7 26.4 16.1l1.9 2.6 2.6-2c0 0 25.7-16 59.2-16 24.4 0 41.8 4.5 52.1 14.1l1.9 1.3 2-0.6c21.2-9.7 40.5-14.8 57.9-14.8 46.3 0 63 18.6 63 36 0 0 0 165.4 0 171.8-4.5 0-50.2 0-55.9-0.1zm-527.6 115.9c0 8.3-6.5 15.4-18 15.4-11.6 0-18.7-7.1-18.7-7.1l4.5-5.8c0 0 5.8 5.8 14.2 5.8 5.1 0 9.6-3.2 9.6-8.3 0-12.3-27-9.7-27-26.4 0-8.4 7.7-15.5 18-15.5 10.3 0 16.1 5.8 16.1 5.8l-3.9 6.5c0 0-5.1-4.5-12.2-4.5-5.8 0-10.3 3.8-10.3 8.3 0.6 10.3 27.7 7.1 27.7 25.8zm-175.7-41.2h7.7v36c0 12.2-9 20.6-21.8 20.6-12.9 0-21.9-8.4-21.9-20.6v-36h7.7v36c0 8.4 5.8 13.5 14.2 13.5 8.3 0 14.1-5.1 14.1-13.5zm103.9 56c-15.8 0-28.6-12.8-28.6-28.6 0-15.9 12.8-28.7 28.6-28.7 15.9 0 28.7 12.8 28.7 28.7 0 15.8-12.8 28.6-28.7 28.6zm20.9-28c0-11.9-9.2-21.6-20.6-21.6-11.3 0-20.5 9.7-20.5 21.6 0 11.9 9.2 21.6 20.5 21.6 11.4 0 20.6-9.7 20.6-21.6zm-59.8 14.5l4.5 5.8c0 0-7.7 9-21.9 9-16.7 0-28.3-12.9-28.3-29 0-16.1 12.2-28.3 28.3-28.3 13.5 0 20.6 7.1 20.6 7.1l-3.9 5.8c0 0-6.4-5.8-16-5.8-12.3 0-20.6 9.6-20.6 21.2 0 12.2 8.3 21.9 20.6 21.9 9.6-0.7 16.7-7.7 16.7-7.7zm-5.8-218.1c0 54 14.8 74 46.3 74 23.8 0 36.1-4.5 40.6-9.7 3.8 1.9 26.3 13.5 32.8 16.7-8.4 7.1-34.1 25.1-74.7 25.1-70.1 0-106.8-36.6-106.8-105.5 0-69.5 36.7-105.5 106.8-105.5 40.6 0 66.3 18 74.7 25.1-6.5 3.2-29 14.8-32.8 16.7-4.5-5.1-16.1-9.6-39.9-9.6-32.2-1.3-47 18-47 72.7zm350-0.7c0 66.3-37.3 105.5-101 105.5-64.3 0-102.3-39.2-102.3-105.5 0-66.2 38.6-105.5 102.3-105.5 63.7 0 101.7 39.9 101 105.5zm-62.4 0.7c0-54.7-11.6-71.4-38.6-71.4-27.7 0-39.9 17.3-39.9 71.4 0 54 12.2 71.4 39.9 71.4 27.7 0 39.2-16.7 38.6-71.4zm-151.8 224.5h25.7v7.1h-33.4v-56h32.1v7.1h-24.4v17.3h19.9v6.5h-19.9c0 0 0 18 0 18zm227.7-48.9h7.8v56h-7.8l-25.1-36c-1.9-3.3-4.5-8.4-4.5-8.4 0 0 0.7 5.1 0.7 8.4v36h-7.7v-56h7.7l25.1 36c1.9 3.3 4.5 8.4 4.5 8.4 0 0-0.7-5.1-0.7-8.4zm-76.8 56c-15.9 0-28.7-12.8-28.7-28.6 0-15.8 12.8-28.6 28.7-28.6 15.8 0 28.6 12.8 28.6 28.6 0 15.8-12.8 28.6-28.6 28.6zm20.9-28c0-11.9-9.2-21.5-20.6-21.5-11.4 0-20.6 9.6-20.6 21.5 0 12 9.2 21.6 20.6 21.6 11.4 0 20.6-9.6 20.6-21.6zm-63.7-28l4.5 56h-7.8l-2.5-35.4c0-3.2 0-8.3 0-8.3 0 0-2 5.1-3.2 8.3l-11 25.1h-7.1l-10.9-25.1c-1.3-3.2-3.2-8.3-3.2-8.3 0 0 0 5.1 0 8.3l-2.6 35.4h-7.7l4.5-56h8.4l12.8 30.3c1.3 3.2 2.6 7.7 2.6 7.7 0 0 1.3-4.5 2.6-7.7l12.8-30.3c0 0 7.8 0 7.8 0z"/>
</svg>