<svg version="1.2" xmlns="http://www.w3.org/2000/svg" viewBox="0 0 1534 563" width="1534" height="563">
	<title>Diamondback_Energy,_Logo_2022-svg</title>
	<style>
		.s0 { fill: #a96c13 } 
		.s1 { fill: #000000 } 
	</style>
	<path id="Layer" class="s0" d="m713 269.9c0.8-1.2 1.1-1.8 1.7-2.4q22.1-22.9 44.1-45.9c13.3-13.7 26.8-27.2 39.6-41.2 7.5-8.3 14.7-16.8 18-28 6.5-21.9 2.6-40.9-13.4-57.6-7.1-7.4-15.3-12.6-25.1-15.2-6.1-1.6-12.5-2.4-18.8-2.6-12.5-0.5-24.8-0.1-37.2-0.1q-3.4 0-7.2 0c24.8-24.7 49.1-49 74.4-74.3 2.7 0.5 7.1 0.6 11 2.1 10.5 3.8 21.3 6.8 31.3 12.1 19.8 10.4 36.1 24.6 49.3 42.6 10.4 14 17 29.5 21.2 46.2 1.7 6.9 2.2 14.1 2.7 21.4 0.5 5.6 0 11.2 0.2 16.9 0.2 11.1-2.5 21.6-5.9 32-3.1 9.4-6.6 18.6-12.1 26.9-4.6 6.9-9.1 13.9-14.6 20-8.3 9.4-17.3 18.4-28.3 24.9-6.9 4.2-13.9 7.9-21.2 11.2-11.8 5.1-24 8.9-36.8 10.3-6 0.6-12.1 1.2-18.1 1.2-16.1 0.1-32.3 0.1-48.4 0-1.8-0.2-3.9-0.4-6.4-0.5z"/>
	<path id="Layer" class="s1" d="m755.2 193.5c-1.3 1.9-1.9 3.3-2.9 4.5-7.5 8-15.1 15.9-22.7 23.9-10.2 10.7-20.3 21.3-30.6 31.9-4 4.3-8.2 8.3-12.4 12.5-2.3 2.4-4.9 4.1-8.4 4.1-17.9-0.2-36-0.2-53.9-0.2-0.5 0-1-0.3-2.1-0.8-0.2-1.3-0.9-3.1-0.9-4.9-0.1-21.3-0.1-42.4 0-63.7 0-2.3 0.6-4.7 0.9-7.3zm0.4-94.1c-24.9 25.6-48.8 50.1-73.1 75.1-19.6 0-39.9 0-60.1 0-1.6-6.3-1.7-68.3-0.2-75.5 5.7-1.5 105.1-2.4 127.7-1 1.4 0 2.9 0.7 5.7 1.4zm0.7-98c-24.6 25.4-49 50.4-73.2 75.4-20.6 0-40.7 0-60.8 0-1.6-6.1-2.2-52.9-0.9-74.7 0.2-0.3 0.3-0.5 0.5-0.6 0.3-0.1 0.5-0.4 0.7-0.4 43.3-0.1 86.6-0.1 129.9-0.2 1.1 0.1 2.1 0.4 3.8 0.5z"/>
	<path id="Layer" fill-rule="evenodd" class="s1" d="m395.5 324.2c-8.8 37.7-19.6 72.9-26.3 109.4-4.7 1.2-51.8 1.6-64.6 0.4-0.3-6-0.3-12.1-1-18.1-0.7-5.7-2.1-11.5-3.2-17.2-6.1-1.6-39-2.1-59.5-0.9-8.5 9.3-18.3 25.7-21.7 36.3-7 0-14.2 0-22.3 0 30-39.5 56.7-80.2 84.9-120-0.4-2.6-0.9-5.1-1.3-7.8 0.8-0.3 1.5-0.8 2.3-0.8h36.8c0.8 0.9 1.6 1.5 1.8 2.2 2.5 11.7 4.8 23.4 7.4 35.2 1.3 6.7 3.1 13.5 4.4 20.3 2.5 11.7 4.5 23.5 6.9 35.3 2 9.6 4.2 19.3 6.5 28.8 0.3 1.5 1.7 2.9 3.4 5.6 8.3-21.7 12.1-42.9 17.4-63.7 5.3-20.9 10.4-41.9 15.8-63.8 7.1-0.3 15-0.1 23.1-0.1h24.7c0.8 1.9 1.8 3.8 2.2 5.8 1.9 14.3 3.5 28.7 5.5 42.9 0.7 5.5 2 11 2.9 16.5 1.4 8.9 2.6 17.9 4.1 27.4 6-4 7.3-10.6 11.2-15.2 4-4.6 6.6-10.3 9.9-15.5 3.3-5.2 6.6-10.3 10.1-15.5 3.2-4.9 6.5-9.8 9.7-14.7 3.4-5.2 6.5-10.5 9.8-15.6 3.4-5.2 6.9-10.3 10.8-16.1h46.3c-12 42.6-22.7 85.1-32.1 128.2-5 1.3-29.8 1.4-38.3-0.1 6.7-17.5 9.9-35.9 14.5-53.8 4.5-18 9.6-35.8 12.2-54.6-23.7 36.5-47.5 72.9-71.2 109.4-4.6 0-8.6 0-12.7 0-4 0-7.9 0-12.3 0-0.9-3.5-2-6.3-2.4-9-1.4-10.8-2.4-21.8-3.9-32.7-0.9-6.9-2.4-13.7-3.4-20.5-1.1-6.9-2-13.8-2.9-20.6-0.7-5.9-1.2-11.7-2.1-17.5-0.5-2.6-1.8-5.4-3.4-9.9zm-109.2 7.9c-11.1 16-21.2 30.5-31.2 45.1-0.7 0.9-0.5 2.4-0.9 4h42.4c-2.9-16.5-5.8-32.3-10.3-49.1zm730.8-26.7h5.5c31.5 0 62.9-0.1 94.4 0.1 4.3 0 8.5 0.8 12.6 1.9 5 1.2 7.4 5.2 7.7 10.1 0.2 4.7-0.4 9.5-1.2 14.2-0.9 5.3-2.5 10.4-3.5 15.5-2.5 11.3-9.2 17.8-20.6 19.4-2.3 0.4-4.5 0.8-6.9 2.5 1 0.3 2.2 0.6 3.2 0.9 2.9 0.5 5.9 0.8 8.6 1.8 5.7 2 8.1 7.2 6.6 12.9-2 7.7-3.7 15.5-5.8 23.2-4.7 17.5-13.9 25.8-33.3 26.5-15.1 0.6-30.1 0.1-45.2 0.1-15.7 0-31.2 0-46.8 0-2.7 0-5.3 0-7.6 0-0.5-1.2-0.9-1.8-0.8-2.1 5.1-9.3 6.5-19.8 9.2-29.8 2.8-10.3 5.2-20.7 7.7-31 5.4-21.6 10.7-43.3 16.2-66.2zm10.1 113.1c15 0 28.5 0.1 42.2-0.2 2.9 0 5.7-1.1 8.5-1.8 5.2-11.7 6.8-23.8 9.4-34.8-1.9-4.1-4.5-4.8-7.8-4.8-12.3 0.1-24.7 0-37 0.1-2.2 0-4.5 1.1-6.4 1.6-1.7 13.7-7.3 25.7-8.9 39.9zm63-58c1.3-1.9 2.7-3.7 3.6-5.8 3.9-8.9 5.1-18.5 6.9-27.8 0.4-1.5-0.9-3.3-1.4-5.1-8.5 0-16.6-0.1-24.7 0-7.9 0.1-16-0.4-23.7 0.4-1.9 6.8-4.4 12.8-5.2 19-0.8 6.5-4.4 12.5-3.2 19.5 15.9-0.2 31.2-0.2 47.7-0.2zm-255.2 73.6c6.3-10.2 7.4-20.2 10-29.7 4.1-15.4 7.9-30.9 11.8-46.4 3.5-13.9 7-27.9 10.4-41.8 0.6-3.1 0.5-6.3 0.8-10 1.8-0.2 3.5-0.6 5.4-0.6h99.9c4.4 0 8.5 0.3 12.4 2.6 3.8 2.1 6 5.1 6.5 9.5 0.6 7-0.4 13.9-2.1 20.7-5.3 20.9-10.5 41.8-16 62.6-1.7 6.4-3.9 12.7-6.7 18.8-3 6.6-8.2 11.3-15.6 12.8-5 1-10 2.2-15 2.2-30.9 0.2-61.7 0.1-92.6 0.1-2.7-0.4-5.2-0.6-9.2-0.8zm44.2-17.3c1.4 0.6 2.6 1.5 3.8 1.5 13.7 0.2 27.4 0.3 41.1 0 5.8-0.1 8.3-2.3 9.9-8.5 3.8-14.7 7.6-29.4 11.2-44.1 3-11.8 5.9-23.8 8.9-35.6 0.8-3 1.5-5.7-1.7-8.2-15.8 0-31.9 0-48.9 0-8.5 31.1-15.8 62.5-24.3 94.9zm-878.9 17.3c11.2-42.6 22.6-84.8 31.8-128.1 1.2-0.1 3.1-0.6 4.9-0.6h98.5c0.8 0 1.6 0.1 2.4 0 11.2-1 20.9 7.2 17.3 22.3-2.3 9.9-4.9 19.6-7.3 29.5-4.4 17.4-8.6 34.7-13 52-4.8 19.1-16.2 24.7-33.2 25.2-15.1 0.6-30.2 0.1-45.2 0.1q-25 0-50.1 0c-1.9 0-3.6-0.2-6.1-0.4zm66.3-112.4c-4.3 16.4-8.5 32.1-12.4 47.8-3.9 15.9-7.5 31.8-11.4 47.9 1.8 0.5 2.9 0.9 3.9 0.9 12.9 0 25.7 0.2 38.6 0 3.1 0 6.2-1.1 9.8-1.8 9.1-29.3 14.6-59.3 23-88.4 0.5-1.4 0-3.1 0-5.9-17-1.2-33.8-0.4-51.5-0.5zm480.1 101.8c-1.1-6.3-0.3-12.7 1.5-19.4 5.5-21.5 10.7-43 16.1-64.5 1.1-4.3 2-8.8 3.5-13.1 4.1-11.3 14.3-21.1 28.3-21.1 27.2 0.2 54.3 0 81.4 0 1.4 0 2.7 0 4.1 0.2 10.3 1.4 13.4 7.3 13.6 14.7 0.3 8.5-2.1 16.5-4 24.4-5 21.3-10.3 42.4-16.1 63.5-1.4 5.1-3.8 10.1-6.6 14.5-2.8 4.3-6.8 7.6-12 9.1-5.4 1.5-10.8 2.9-16.6 2.9-23.3-0.2-46.8 0-70.1-0.2-2.9 0-5.9-0.8-8.8-0.9-6.7-0.2-11.6-3.3-14.3-10.1zm36.7-9.6c4.6 4.4 4.6 4.4 10.2 4.6q15.7 0.1 31.4 0c8.3-0.2 10.8-2 12.9-10.3 3.4-13.1 6.6-26.3 10-39.4 3-11.8 5.9-23.6 8.9-35.6 1-3.7 1.6-7.2-0.1-11.1-16.2 0-32.2 0-48.4 0-1 1.5-2.3 2.6-2.7 4-7.4 29.3-14.9 58.7-22.2 87.8zm900.9-68.6c4 15.5 7.2 30.4 12 44.8 4.8 14.3 6.1 29.9 15.2 43.5-8.4 2.1-15.6 0.8-22.7 1.1-7 0.2-13.9 0-21.5 0-6.6-20.6-9.9-42-16.4-63.3-6.1 4.8-11.9 9.1-17.3 13.6-8.3 6.8-8.3 6.8-10.7 16.9-2.4 10.6-4.7 21.3-7.2 32.4-12.8 0-25.9 0-38.8 0-0.3-0.8-0.8-1.4-0.6-1.7 7.1-15.8 9.5-32.8 14-49.2 5.6-20.6 10.3-41.3 15.3-62.1 1.1-4.9 1.4-9.9 2.1-15 8-1.4 35-1.1 40.4 0.2-7.4 18.9-10.6 38.8-16 59 9.3-5.8 65.8-49.9 72.8-59.8h28.9c-19.2 11.3-33.6 26-49.5 39.6zm-750.8-14.9c-4.8 6.3-4.6 12.1-5.9 17.4-5.6 20.6-10.7 41.2-15.8 62-1.4 6-1.8 12.1-2.8 18.2-0.2 1.8-0.3 3.7-0.4 5.3-6.2 1.8-13.2 1.8-20.4 0.2 7.2-20.7 11.5-42 16.7-63.2 5.2-21.1 12-42 14.8-63.8 5.8-1.2 34-1.6 46.8-0.5 6.4 16.6 12.6 33.6 19.2 50.5 6.6 16.5 12.7 33.1 20.2 49.5 4.5-10.9 6.5-21.9 9.6-32.8 3.1-11 5.7-22.2 8.3-33.4 2.7-11.2 5-22.3 7.6-33.9h19.5c-6.9 13.7-8.7 28.6-12.6 42.8-4.7 17.5-8.5 35.3-12.9 52.9-2.6 10.8-5.7 21.5-8.8 33.1-14.2 0.2-28.1 0.1-42.6 0-7.6-16.8-13.1-34.4-20-51.4-6.9-17.1-13.1-34.4-20.5-52.9zm465.1-17.4c-1.1-2.8-1.8-4.7-2.7-7.1h40.8c10.2 42.5 16.6 85.7 27.4 127.8-7.1 1.4-37.8 1.3-43.7-0.4-0.2-6-0.2-12.1-0.9-18.2-0.7-5.7-2.3-11.3-3.6-17.1-1.7-0.1-3-0.3-4.3-0.3-18.3 0-36.6 0-55 0-7.9 11.9-17.3 22.6-21.3 36.5-7.3 0-14.5 0-22.5 0 30.7-39.6 57.1-81 85.8-121.2zm12.6 68c0.6-7.8-5.7-39.6-9.6-48.4-11.1 16.1-22.5 31.2-32.8 48.4zm183.3-74.6c-0.8 5.8-1.6 11.2-2.3 16.3-20.1-2.2-39.7-0.8-59.2-1.1-1.8 0-3.6 0.7-5.9 1.1-9.1 30.3-15.3 61.1-23.8 92.5 1.1 1 2.5 2.2 3.7 3.3 20.7-0.7 40.8 1.3 61.1-2.3-0.4 6.9-4.2 12.1-6.9 18.1-1.6 0.1-3.2 0.2-4.7 0.2q-33.4 0-66.9 0c-5.7 0-11.1-1-16.3-3.4-4-1.8-6.5-5.1-6.7-9.3-0.3-4-0.3-8.2 0.5-12 3.3-14.4 7.2-28.9 10.8-43.4 2.7-11.1 5.2-22.3 8.3-33.3 2.1-8.1 5.1-15.9 12-21.4 4.5-3.7 9.3-6.2 15.3-6.2 26.1 0 52.2 0 78.2-0.1 0.5 0.1 0.9 0.5 2.8 1zm-587.6 216.2c-6.9 0-13.3 0-20.4 0-3 12.8-6 25.7-9.2 39.6-3.9 0-8.6 0-13.4 0-4.5 0-9.1 0-13.7 0 8.4-30.1 16.1-59.6 22.3-89.9 2.3-0.1 4.4-0.3 6.5-0.3h63.7c9.7 0.1 11.9 2 14.8 11.6-1.9 7.2-4.3 14.6-5.7 22.2-1.6 9.1-6.4 14.3-15.3 16.3-0.7 0.1-1.3 0.8-2.1 1.3 1.7 12.8 1.4 25.9 6.6 38.3-9.3 0-18.4 0-28.3 0-2.7-12.5-3-25.6-5.8-39.1zm-16.8-13c6.1 1.5 25.5 1.7 34.2 0.3 4.9-6 4.2-14.3 7.2-21.2 0.4-1.2-0.4-3-0.6-4.3-8.5-1.9-30-1.6-35.1 0.5-1.8 8.2-3.8 16.4-5.7 24.7zm199.6-0.5c-4.6 17.9-9 35.2-13.3 52.8q-9.7 0-20.7 0c-0.6-1.3-1.2-2.8-1.9-4.3-0.7 0.2-1.6 0.3-2.2 0.8-2.8 2.8-6.2 3.9-10.2 3.8-12.4-0.1-24.7 0-37.1-0.1-6.4 0-7.7-0.8-12.3-6-1.9-7.9 0.4-15.4 2.3-22.9 2.8-11.9 5.9-23.7 8.9-35.6 1.1-4.1 2.2-8.2 3.7-12.2 3.2-8.6 10-13.2 19.9-13.3 16.7-0.1 33.4 0 50 0h16.4c0.3 4.5 0.9 8.4-1.2 12-19.5-1.4-38.7-0.6-57.6-0.6-3.1 5.6-15.1 48.9-16.8 60.5-0.3 2.1 0.1 4.2 0.2 6.6h34.4c6.5-8.6 5.4-19.7 9.1-29.9-9.9-1.5-19.5 0.1-29.4-0.9 0.8-3.8 1.6-7.1 2.4-10.6 18.7-0.1 36.9-0.1 55.4-0.1zm-765.6-202.9c-8.6 20.5-11.6 42.4-17.7 63.5-6 21-10.1 42.4-15.2 63.8-5.4 1.4-31.3 1.5-38.6 0.1 11.5-42 22-84.3 31.7-127.3 4.8-1.1 31.3-1.4 39.8-0.1zm368 166.1h11.7c-7.5 29.9-15 59.6-22.5 89.4-10 0-19.9 0-30.1 0-2.4-5.7-4.9-11.6-7.2-17.4-2.4-6-4.5-12-6.8-18-2.3-5.9-4.2-12-6.8-18-2.4-5.7-4-11.8-8-17-6.5 23.4-13.2 46.5-17.6 70.6-4.5 0-8.6 0-12.9 0 8.2-29.8 16.1-59.2 22.1-89.4h31.8c4.5 11.6 9.1 23.2 13.6 34.8 4.4 11.5 8.9 23 13.3 34.3q1.1-0.1 2.1-0.3c5.8-22.9 11.4-45.7 17.3-69zm-184.8 49.8c-2.4 9.8-4.6 18.7-7 28.7 8.7 0.1 16.4 0.3 24.1 0.1 7.5 0 14.8-0.2 22.8-0.3-0.4 4.1-2 7.6-4.1 10.9-8.1 1.2-66.4 0.9-71.8-0.1 7.5-29.7 14.8-59.2 22.4-89.2h70.7c1.3 6.2 1.3 6.2-0.3 11.4-15.3 0-30.5 0-46.5 0-3.5 8.2-5.4 17.1-7 26.9h41.7c1.4 5-0.4 8.8-2 12.5-14.2-1.9-28-0.6-43-0.9zm251.9 27.6c6.3 1.5 30.7 1.9 47.4 0.8-1.5 3.9-2.9 7.4-4.4 11.4-24.2 0-48.4 0-72.3 0 7.9-29.6 15.6-59.1 22.4-89.1 5.5-1.1 64.5-1.3 73 0-0.6 3.6-1.3 7.1-2 10.8-15.9 0-31.4 0-47.2 0-2.3 8.7-4.5 17.4-7 26.9h44.4c-3.5 4.4-0.8 9.3-4.4 12.4-14.1-1.8-28-0.5-42.8-1-2.4 9.4-4.8 18.6-7.1 27.8zm412.2 12.2c-9.5 0-19.1 0-28.7 0q4.2-15.6 8.3-30.7c1.3-4.7 1.4-9.3-0.7-14.2-6-14-11.7-28.1-17.6-42.1-0.2-0.5-0.2-1.1-0.3-1.5 5-1.9 19.4-2.2 31.4-0.8 2.6 13.3 8.8 25.3 14.2 38.7 11.5-13.3 23.5-24.8 32.9-39.1h14.8c-1.6 1.9-2.8 3.4-4.1 4.9-13.4 14.9-27 29.8-40.2 45-2 2.3-2.9 5.6-3.7 8.6-2 7.3-3.6 14.5-5.2 21.7-0.5 2.9-0.7 5.8-1.1 9.5z"/>
</svg>