<svg version="1.2" xmlns="http://www.w3.org/2000/svg" viewBox="0 0 1563 305" width="1563" height="305">
	<title>digital-realty-vector-logo-svg</title>
	<style>
		.s0 { fill: #000000 } 
		.s1 { fill: #378aca } 
		.s2 { fill: #1d48a4 } 
	</style>
	<path id="Layer" fill-rule="evenodd" class="s0" d="m370 121.8h31.7c26.8 0 45.2 18.4 45.2 42.4v0.2c0 24-18.4 42.7-45.2 42.7h-31.7c0 0 0-85.3 0-85.3zm31.7 71.6c17.9 0 29.5-11.9 29.5-28.7v-0.2c0-16.7-11.6-29-29.5-29h-16.8v57.9zm72.9-71.6h14.9v85.3h-14.8c-0.1 0.1-0.1-85.3-0.1-85.3zm44.6 42.7c-0.1-5.7 0.9-11.5 3.1-16.8 2.1-5.4 5.3-10.2 9.3-14.3 4.1-4.2 8.9-7.4 14.2-9.6 5.3-2.3 11-3.4 16.7-3.4h0.4q4.5-0.2 8.9 0.4 4.5 0.6 8.7 2.1 4.2 1.5 8 3.8 3.9 2.3 7.2 5.3l-9.5 11.3c-5.9-5.7-14-9.1-22.8-9.1h-1c-15.7 0-27.6 13.7-27.6 30v0.3c0 17.6 11.6 30.5 28.9 30.5h0.3q2.7 0 5.4-0.4 2.7-0.4 5.3-1.3 2.6-0.8 5-2 2.4-1.2 4.6-2.8v-15.9h-21.7v-13.1h36.1l0.1 35.7q-3.7 3.2-7.9 5.7-4.1 2.5-8.7 4.2-4.5 1.8-9.3 2.6-4.7 0.9-9.6 0.9c-26.6 0-44.2-19.1-44.2-43.8 0.1-0.1 0.1-0.3 0.1-0.3zm113.5-42.7h15v85.3h-15zm70.7 85.3v-71.4h-27v-13.9h69v13.9h-27v71.3h-14.9zm87.6-86.1h13.9l37.4 86h-15.7l-8.7-20.7h-40.3l-8.7 20.7h-15.3zm21.4 52l-14.6-34.1-14.7 34.1c0 0 29.3 0 29.3 0zm56.4 33.8h0.1v0.2zm0.1 0v-85.2h15v71.6h44.6v13.6zm139.1-85.3h37.8q3.4-0.2 6.7 0.3 3.3 0.4 6.5 1.5 3.2 1.1 6.1 2.8 2.9 1.7 5.4 4c4.3 4.5 7 10.8 7 17.6v0.8 0.4c0 14.1-8.3 22.4-20.3 25.8l23 32.3h-17.6l-20.9-29.9h-18.7v29.8h-15zm36.8 42.3c10.6 0 17.7-5.6 17.7-14.1v-0.3c0-9.2-6.6-14.1-17.7-14.1h-21.6v28.6h21.8zm60.9-42.2h63v13.4h-48.1v22.1h42.6v13.4h-42.6v23h48.7v13.4h-63.7c0.1 0 0.1-85.3 0.1-85.3zm123.4-0.7h13.9l37.4 86h-15.8l-8.6-20.7h-40.3l-8.7 20.7h-15.4zm21.4 52l-14.6-34.1-14.6 34.1zm54.8-51.4h14.9v71.6h44.8v13.6h-59.7c0 0.1 0-85.2 0-85.2zm100.2 13.9h-27v-13.9h69v13.9h-27v71.3h-15c0 0.1 0-71.3 0-71.3zm107.5 71.3v0.1zm0.1 0v-33.5l-33.8-51.6h17.6l23.8 37.7 24.2-37.8h17.1l-33.8 51.2v34z"/>
	<path id="Layer" fill-rule="evenodd" class="s1" d="m269.5 58.3v187.2l-109.7 44.7v-37l-18.3 5.6v38.8l-18.2 7.4v-304l18.2 7v53.5l18.2 4.4v-50.6l54.9 21.5v33.3l18.3 4.3v21.8l18.3 3.6v-25.3l-18.3-5.4v-25.1c0-0.1 36.6 14.3 36.6 14.3zm-91.5 26.9l18.3 3.5v-30.3l-18.3-5.4c0 0 0 32.2 0 32.2zm-36.6 42.2l18.3 1.1v-30.5l-18.3-2.7zm18.3 60.6l-18.3 2v33.2l18.3-3.5c0 0 0-31.7 0-31.7zm36.6-18.2l-18.3 1.2v-26.7l-18.3-0.3v28.2l18.3-1.2v58.1l18.3-4.4zm0-25.1l18.3 0.3v-27l-18.3-2c0 0 0 28.7 0 28.7zm36.6 59.9v0.1zm-18.3 3.7v28.3l18.3-5.6v-26.2l18.4-3.8c0 0 0-68.8 0-68.8l-18.4-1.2v73.6z"/>
	<path id="Layer" class="s2" d="m106.7 4v295.9l-106.7-56.3v-184.3z"/>
</svg>