<svg version="1.2" xmlns="http://www.w3.org/2000/svg" viewBox="0 0 1570 163" width="1570" height="163">
	<title>DT-Logo-Regular-svg</title>
	<style>
		.s0 { fill: #000000 } 
		.s1 { fill: #6fbe4a } 
		.s2 { fill: #00954c } 
	</style>
	<path id="Layer" class="s0" d="m72.5 101.3c0-12.1 0-14.9-1.1-16.5-1.4-1.5-3.8-1.9-5.7-1.1l27.6-27.7v81.7c0 16.2 0.4 16.4 0.6 16.4l0.9 1.9 1.9 1.6 1.4 0.9h0.5v0.4h-32.2v-0.4l0.4-0.2 0.6-0.2 1.3-0.7c0.8-0.2 1.5-1 1.9-1.4l1.2-1.3c0.2-0.4 0.5-0.6 0.5-11.1v-42.5"/>
	<path id="Layer" fill-rule="evenodd" class="s1" d="m0.5 80.6l0.4-8.2 71.4-71.5c6.6-0.7 13.2-0.6 19.7 0.3l-90.8 90.9c-0.3-3.8-0.7-7.6-0.7-11.5zm27.8 60.5q-5.4-4.6-9.9-10.1l43.6-43.7c2-0.7 5.2-0.4 6.3 1.2 1 1.3 1 2.3 1 11.4zm102.5-122.7c3.8 2.9 7.3 6.3 10.3 9.9l-44 43.9v-19.6zm-15.4-10c4.3 2.1 8.5 4.8 12.5 7.7l-111.8 112c-2.9-3.8-5.6-8.2-7.7-12.6zm-18.8-6.3c5.1 1 10.2 2.7 15.2 4.6l-104.8 104.9c-2.1-4.7-3.8-9.9-4.8-15.2zm-94.7 63.9c2.9-16 10.6-30.7 22.1-42.1 11.5-11.5 26.2-19.3 42.1-22.2z"/>
	<path id="Layer" fill-rule="evenodd" class="s2" d="m143.1 129.7c-2.9 3.8-6.3 7.2-9.8 10.5l-36.4-36.3v-20.4zm10.1-14.9c-2.1 4.4-4.2 8.2-7 12.2l-49-49.2 9.5-9.6zm6.3-18.8c-1.1 5.1-2.7 10.3-4.8 15.2l-45.5-45.6 10.1-9.9zm-25-55.7l9.2-9c7.6 9.7 13.3 21.2 15.8 34zm-2.7 2.6l28.6 28.7c0.8 6.6 0.7 13.2-0.2 19.8l-38.3-38.4z"/>
	<path id="Layer" fill-rule="evenodd" class="s2" d="m1143.1 59.5l-20.5 99.4h-43.3l20.4-99.3h-40l7.2-34.3h123.1l-7 34.2zm337.3 67.3h57.2l-6.5 31.9h-101l27.7-133.6h99.1l-6.5 31.9h-55.5l-3.8 17.9h51.5l-6.5 31.9h-51.5zm-120.6 0h57.4l-6.5 32.1h-101l27.6-133.6 99.1-0.2-6.5 31.8h-55.4l-3.8 18h51.4l-6.7 31.8h-51.4zm-131.9-16.2l-10.1 48.3h-43.5l27.9-133.6h63.6c21.6 0 27.8 2.7 33.2 6.7 6.8 5.2 10.7 13.2 10.7 22.5-0.1 8.2-2.5 16.2-7 23-4.6 6.8-11 12.1-18.6 15.2 7.3 4.6 11.1 11.8 10.9 21v2.7l-1.5 20.9v3.5q0 6.7 1.3 13.3l0.9 4.8h-44.6l-0.7-3.2c-0.6-2.3-1.2-4.6-1.2-8.6 0-1.9 0-4.2 0.4-7.3l1.9-21v-1.5c0-4.6-1.9-6.7-8.2-6.7zm6.5-32h16.8c3.8 0.1 7.6-1.3 10.4-3.9 2.9-2.6 4.6-6.2 4.8-10.1 0-2.3-0.7-3.8-1.9-5.1-0.9-1.2-1.9-2.3-7.6-2.3h-17.9zm-711.7 46.4h53.7l-7 33.9h-97.2l27.6-133.6h43.3zm109.6-0.1h53.9l-7.1 34.3h-97.2l27.7-134h43.2zm-242 37.8c-4.3 0.2-8.6-0.1-12.8-1.1l-0.8-0.2c-12-1.5-22.9-7.7-30.5-17.2-7-9.5-10.5-21.2-10.1-33 0-6.1 0.8-12.8 2.3-20.2 8.8-42.4 39.9-68.6 78.9-68.6 21.6 0 34.4 6.3 43.3 16.7 7.3 8.3 11.8 19.6 11.8 34.9 0 6.3-0.7 13.1-2.3 20.8-3.3 17.6-12 33.7-24.9 46.2-7.1 7.1-15.5 12.7-24.8 16.5-9.3 3.7-19.3 5.5-29.4 5.2zm6.3-33.4q0 0-0.1 0 0 0-0.1 0zm30.7-37.6q1.7-8.6 1.7-14.9c0-16.8-8.2-21-16.2-21-10.6 0-25.1 7.7-31.4 37.8-1.3 6-1.9 11.1-1.9 15.3 0 16.2 7.6 20.4 17 20.4 10.1 0 24.7-7.7 30.8-37.6zm-240.7 67.6l27.6-133.6 63.3-0.2c19.5 0 35.7 8.4 43.5 19.5 4.9 7 8.2 17.3 8.2 30.1 0 5.4-0.6 11.3-1.9 17.6-3.4 19.4-13.4 37.1-28.3 50-13.5 11.2-30.6 17.1-48.2 16.6zm50.2-32.1h9.1c11.4-0.2 19.6-4 26.1-10.9 8.7-9.4 13.5-21.8 13.6-34.7 0-15.8-9-23.8-23.9-23.8h-10.6zm672-16.6l-10.1 48.4h-43.2l27.4-133.8h63.8c21.6 0 27.7 2.9 33.2 6.9 6.7 5 10.5 13 10.5 22.5 0 8.2-2.4 16.2-7 23-4.5 6.8-11 12.1-18.5 15.2 7.2 4.6 11 11.8 11 21v2.7l-1.5 21v3.4c0 2.9 0 6.7 1.3 13.2l0.8 4.9h-44.4l-0.8-3.2c-0.6-2.5-1.1-4.6-1.1-8.8 0-1.9 0-4.2 0.4-7.1l1.7-21v-1.5c0-4.6-1.7-6.8-8-6.8zm6.4-32.1h16.6c3.9 0.1 7.6-1.2 10.5-3.8 2.9-2.6 4.6-6.3 4.8-10.1 0-2-0.6-3.9-1.7-5-1-1.1-1.9-2.3-7.7-2.3h-18.1zm-166.2 55l-14.7 25.5h-43.2l81.2-133.5 45.5-0.2 25.2 133.6h-45.2l-4.2-25.4zm18.3-31.9h21l-3.8-32.3c-4.4 9.2-9.9 19.5-17.2 32.3zm798.1 31.5c2.6 2.8 4.2 6.7 4.2 10.7 0 4.2-1.6 8-4.4 10.7-2.9 2.8-6.7 4.4-10.8 4.4-4 0-7.9-1.6-10.8-4.4-2.8-2.9-4.4-6.8-4.4-10.8 0-4.1 1.6-7.9 4.4-10.8 1.4-1.4 3.1-2.6 4.9-3.3 1.9-0.8 3.8-1.1 5.8-1.1 4.2 0 8 1.5 11.1 4.6zm-20 1.3c-2.5 2.5-3.8 5.8-3.8 9.2 0 3.4 1.3 6.7 3.8 9.1 2.2 2.5 5.7 3.9 8.7 3.9 3.8 0 6.9-1.2 9.6-3.9 2.2-2.1 3.8-5.3 3.8-8.7 0-2.6-0.7-5.2-2.1-7.4-1.4-2.2-3.4-3.9-5.8-4.9-2.3-1-5-1.3-7.5-0.8-2.6 0.5-4.9 1.7-6.7 3.5zm9.3 0.6c5 0 7.2 1.7 7.2 4.6 0 2.5-1.3 4.2-3.8 4.7l3.8 7.7h-4l-3.4-7.1h-2.7v7.1h-3.6v-17.2zm-2.8 7.6h2.4c2.7 0 3.8-0.7 3.8-2.6 0-1.9-1.3-2.7-4-2.7h-2.2z"/>
</svg>