<svg version="1.2" xmlns="http://www.w3.org/2000/svg" viewBox="0 0 1607 560" width="1607" height="560">
	<title>dom-dark-logo-svg</title>
	<style>
		.s0 { fill: #0071ce } 
		.s1 { fill: #000000 } 
	</style>
	<g id="Layer">
		<path id="Layer" class="s0" d="m0.3 160.7v-98.4l170.8-51.6c17.7-5.4 36-8.7 54.4-9.9 18.5-1.2 37-0.3 55.3 2.6 18.2 3 36.1 8.1 53.2 15.1 17.1 7.1 33.4 16.1 48.4 26.8zm0 132.8v-98.4l412.2-124.4q8.8 8.7 16.6 18.3 7.8 9.6 14.6 20 6.8 10.3 12.4 21.4 5.7 11 10.1 22.5c0.1 0-465.9 140.6-465.9 140.6zm0 132.9v-98.4l475.7-143.7c7.8 33.1 8.1 66.3 2 97.9 0 0-477.7 144.2-477.7 144.2zm0 132.8v-98.4l467.2-141c-25.1 67.4-80.7 122.8-155.6 145.4z"/>
		<path id="Layer" fill-rule="evenodd" class="s1" d="m600.8 80.7h61.1c50.8 0 81.7 31.2 81.7 79.9 0 48.6-30.9 79.8-81.7 79.8h-61.2c0 0 0-159.7 0.1-159.7zm59 123.5c26.8 0 41.8-16.9 41.8-43.7 0-27.1-15-44-41.8-44h-17.4v87.6h17.4zm155.8 38.8c-33.5 0-60.6-27.3-60.6-61.1 0-33.8 27.1-61.1 60.6-61.1 33.5 0 60.6 27.3 60.6 61.1 0 33.8-27.1 61.1-60.6 61.1zm20-61.2c0-15.2-8.9-27.5-19.8-27.5-11 0-19.9 12.3-19.9 27.5 0 15.1 8.9 27.4 19.9 27.4 10.9 0 19.8-12.3 19.8-27.4zm197.9-61c24.7 0 40.1 16.6 40.1 42.9v76.7h-41.4v-66.8c0-9.9-4.2-16.9-13.4-16.9-7.1 0-13.2 4.4-15.3 12.5v71.2h-41.1v-66.8c0-9.9-4.2-16.9-13.4-16.9-7.1 0-13.4 4.4-15.2 12.5v71.2h-41.4v-117h41.4v9.6c6-7.2 17.3-12.2 30.5-12.2 15.1 0 25.6 5.8 32.7 14.1 7-7.3 19.1-14.1 36.5-14.1zm62.5 2.6h41.3v117h-41.3zm63.7 0.1h41.4v10.1c6.5-7.2 18.2-12.7 31.8-12.7 26.4 0 41.9 16.9 41.9 42.9v76.8h-41.2v-67c0-9.6-5-16.6-15.5-16.6-8.1 0-15 4.7-17.1 12.7v70.8h-41.4v-117.1c0 0 0.1 0 0.1 0.1zm137.5-0.1h41.3v117.1h-41.3zm118 119.6c-33.5 0-60.6-27.3-60.6-61.1 0-33.8 27.1-61.1 60.6-61.1 33.5 0 60.6 27.3 60.6 61.1 0 33.8-27.1 61.1-60.6 61.1zm20-61.2c0-15.2-8.9-27.5-19.9-27.5-11 0-19.9 12.3-19.9 27.5 0 15.1 8.9 27.4 19.9 27.4 11 0 19.9-12.3 19.9-27.4zm56.6-58.4h41.4v10.2c6.5-7.3 18.2-12.8 31.8-12.8 26.4 0 41.9 16.9 41.9 42.9v76.8h-41.1v-66.9c0-9.7-5-16.7-15.5-16.7-8.2 0-15.1 4.7-17.1 12.8v70.7h-41.4c0 0 0-117 0-117zm-194.6-42.7h41.3v29.2h-41.3zm-201.2 0h41.3v29.1h-41.3zm-317 233.9v10.1c6.6-7.2 18.2-12.7 31.9-12.7 26.4 0 41.9 16.9 41.9 42.9v76.8h-41.1v-66.9c0-9.7-5-16.7-15.5-16.7-8.1 0-15 4.7-17.1 12.8v70.7h-41.3v-117zm305.6 35.8q0 0 0 0zm-16.4-3.4c-9.9 0-20.3 5.5-21.8 16v68.7h-41.3v-117.1h41.3v10.4c5.8-7.8 15-13 26.9-13 5.3 0 9.5 1.1 11.3 2 0 0 0 36.4 0 36.4-5.7-2.3-10-3.4-16.4-3.4zm185.3 129.5l18.6-48.1-44.3-114.2h42.9l22.7 66.6 22.2-66.6h41l-62.3 162.3c0 0-40.8 0-40.8 0zm-38.9-59.6c0 43.2-31.5 61.8-69.5 61.8-16.6 0-31.3-2.1-42.7-9.8v-35.5c12.2 10.1 25.1 14.3 41.4 14.3 15.4 0 28.8-7.2 29.4-22.7v-8.8l-1.1 1c-5.5 5.3-14.5 9.7-26.2 9.7-33.4 0-52.4-25.5-52.4-57.7 0-32.2 19-57.5 52.4-57.5 12.9 0 22.6 5.2 27.9 11.5v-8.9h40.8zm-40.8-32.1v-31c-3.1-5.2-11.7-11.1-19.6-11.1-15.4 0-21.9 11.6-21.9 26.5 0 14.8 7 27 23.3 27 8.2 0 15.1-6.2 18.2-11.4zm-531.4 10.7h73.9v36.2h-115.5v-159.7h115.5v35.9h-73.9v24.9h62.8v35.2h-62.8zm346.9-19.6c0 2.7 0 4.3-0.2 7.2h-80.1c0.8 14.8 13.4 23.3 32.2 23.3q4.6 0 9.2-0.6 4.7-0.6 9.2-1.8 4.5-1.1 8.8-2.8 4.3-1.7 8.4-3.9v28.8c-10.9 5.2-25.1 8.8-42.7 8.8-39.6 0-65.3-19.3-65.3-61.9 0-34.4 25-61.7 60.3-61.7 41.2 0 60.2 29.9 60.2 64.6zm-38.7-15.2c-1.7-13.8-12.4-19.9-21.3-19.9-9 0-19.1 6.2-20.6 19.9zm455.2-56.7c2.9 1.2 5.5 2.9 7.7 5.1 2.2 2.2 4 4.8 5.2 7.7 1.2 2.9 1.9 5.9 1.9 9.1 0 13-10.7 23.5-23.9 23.5-13.2 0-23.9-10.5-23.9-23.5 0-13 10.7-23.6 23.9-23.6 3.1 0 6.2 0.6 9.1 1.7zm11.8 21.9c0-11.4-9.4-20.7-20.9-20.7-2.8 0-5.5 0.6-8 1.6-2.5 1-4.8 2.5-6.8 4.4-1.9 2-3.5 4.3-4.5 6.8-1.1 2.5-1.6 5.2-1.7 7.9 0.1 2.8 0.6 5.5 1.7 8 1 2.5 2.6 4.8 4.5 6.7 2 1.9 4.3 3.5 6.8 4.5 2.5 1 5.3 1.5 8 1.5 11.5 0 20.9-9.3 20.9-20.7z"/>
		<path id="Layer" fill-rule="evenodd" class="s1" d="m1399.3 326.7l7.1 10.6h-3.4l-6.7-10.6h-5.5v10.6h-2.6v-23h10.2c6.2 0 8.3 2.3 8.3 6.1 0 4.5-3.2 6.2-7.4 6.3zm4.6-6.4c0-3-3.4-3.4-6.3-3.4h-6.8v7.2h4.6c3.3 0 8.6 0.5 8.5-3.8z"/>
	</g>
</svg>