<svg version="1.2" xmlns="http://www.w3.org/2000/svg" viewBox="0 0 1554 1561" width="1554" height="1561">
	<title>Domino's_pizza_logo-svg</title>
	<style>
		.s0 { fill: #ffffff } 
		.s1 { fill: #006491 } 
		.s2 { fill: #e31837 } 
	</style>
	<path id="path3022" class="s0" d="m500.4 502.5l473.1-473c35.2-35.3 75.3-42 118.2 0l439.6 439.6c31.5 31.5 28.7 79.2 0 107.8l-956.5 955.5c-34.3 34.4-79.1 40.1-119.2 0l-430.1-430.1c-34.3-34.3-31.5-88.7 0-120.1z"/>
	<path id="path3000" class="s1" d="m508.1 551.1l494.9 495-450.1 450.1c-27.7 27.7-56.3 28.6-84.9 0l-412-412c-25.7-25.7-23.8-54.3 0-78.2z"/>
	<path id="path3002" class="s2" d="m1034.5 1016.5l-495-494.9 450.2-450.2c27.6-27.6 56.2-28.6 84.8 0l412 412c25.8 25.8 23.9 54.4 0 78.2z"/>
	<circle id="Layer" class="s0" cx="1031.6" cy="522.5" r="122.1"/>
	<circle id="Layer" class="s0" cx="689.3" cy="1046.1" r="122.1"/>
	<circle id="Layer" class="s0" cx="332.6" cy="1046.1" r="122.1"/>
</svg>