<svg version="1.2" xmlns="http://www.w3.org/2000/svg" viewBox="0 0 1627 551" width="1627" height="551">
	<title>Dover_Corporation_logo-svg</title>
	<style>
		.s0 { fill: #233a7a } 
	</style>
	<g id="layer1">
		<path id="path3860" class="s0" d="m419 197.4h-14.5v152.8h14.5c16.4 0 22.1-7.1 22.1-27.5v-97.7c0-20.6-5.7-27.6-22.1-27.6z"/>
		<path id="path3862" class="s0" d="m656.7 185.8c-13.4 0-19.4 9-19.4 22.4v127.5c0 13.4 6 22.5 19.4 22.5 13.4 0 19.6-9.1 19.6-22.5v-127.5c0-13.4-6.2-22.4-19.6-22.4z"/>
		<path id="path3864" fill-rule="evenodd" class="s0" d="m1626.2 264.2c0 286.9-237.1 286.1-237.1 286.1h-1388.1v-190.7h174.4v-169.8h-174.4v-189.3h1385.1c0 0 240.1 0.5 240.1 263.7zm-1094.4-34.4c0-60.8-25.9-89.1-88.3-89.1h-128l-0.3 0.4v265.8h128.3c62.4 0 88.3-28.2 88.3-89zm236.5 42.2c0-109.2-23.9-141.4-111.6-141.4-87.6 0-111.4 32.2-111.4 141.4 0 109.2 23.8 141.3 111.4 141.3 87.7 0 111.6-32.1 111.6-141.3zm231.4-133.2h-95.8l-23.4 182h-0.7l-22.5-182h-95.4l58.7 266.4h118.6zm180.8 0h-173.5v266.3h173.5v-63.5h-82.8v-43.2h75.1v-56.7h-75.1v-39.6h82.8zm245.7 265.5c-6-2.2-12.4-9.6-12.4-24.2v-60c0-32.9-27.8-46.3-46.7-48.5v-0.8c29.6-3.4 47.8-24.6 47.8-58.1 0-52.2-25.5-73.9-78-73.9h-140.3v266.3h90.7v-109.7h12.6c16.9 0 23.3 9 23.3 31.7v58.6c0 11.8 5 19.4 13.1 19.4h89.7z"/>
		<path id="path3866" class="s0" d="m1299.6 190.3h-12.3v53.7h14.4c16.5 0 22.5-13.4 22.5-28.7 0-19.1-10.8-25-24.6-25z"/>
	</g>
</svg>