<svg version="1.2" xmlns="http://www.w3.org/2000/svg" viewBox="0 0 1529 506" width="1529" height="506">
	<title>header_dow-logo-lockup--desktop-svg</title>
	<style>
		.s0 { fill: #e80033 } 
		.s1 { fill: #ffffff } 
	</style>
	<path id="Fill-1" class="s0" d="m1528.8 250.6l-765 255.4-763.8-254.2 763.8-251.8 171.9 56.5z"/>
	<path id="Fill-2" fill-rule="evenodd" class="s1" d="m878 260.1c-1.2 57.6-51.8 90.6-111.8 90.6-60 0-109.5-34.2-109.5-90.6 0-56.5 47.1-93 110.7-93 61.2 0 110.6 37.7 110.6 93zm-53-0.6c0-24.4-26.3-44.2-58.8-44.2-32.6 0-58.9 19.8-58.9 44.2 0 24.4 26.3 44.1 58.9 44.1 32.5 0 58.8-19.7 58.8-44.1z"/>
	<path id="Fill-4" class="s1" d="m875.6 182.4h94.2v11.8h-4.7c-4.7 0-9.4 3.5-10.6 8.2-2.4 3.5-2.4 8.2 0 11.8l28.2 67 38.9-97.6h51.8l40 97.6 29.4-69.4c1.2-3.5 0-7-2.4-9.4-2.3-3.5-5.8-5.9-9.4-5.9h-5.9v-11.8h93v11.8h-5.9c-4.7 0-9.4 2.4-12.9 5.9-3.5 2.4-7.1 5.9-8.3 10.6l-45.9 105.9q-1.7 5.3 0 10.6c2.4 2.3 4.8 4.7 8.3 4.7h7v11.8h-92.9v-10.6h7c3.6 0 5.9-2.4 7.1-4.7 1.2-2.4 1.2-5.9 0-8.3l-34.1-77.6-33 76.5c-2.3 2.3-2.3 5.8-1.2 8.2 1.2 2.3 3.6 4.7 7.1 4.7h3.5v11.8h-91.8v-11.8h4.7c3.6 0 7.1-2.4 8.3-4.7q3.5-5.3 0-10.6l-45.9-109.4c-1.2-4.7-3.6-8.3-8.3-9.5-3.5-1.1-7-4.7-10.6-4.7h-5.8z"/>
	<path id="Fill-6" fill-rule="evenodd" class="s1" d="m624.9 243.6c-1.1 56.5-45.9 101.2-102.3 102.4h-142.5v-11.8h7.1c4.7 0 8.2-2.4 10.6-5.9 2.4-1.2 3.5-5.9 3.5-9.4v-150.6c-1.1-7.1-8.2-13-15.3-13h-7v-11.7h141.2c44.7 0 102.4 40 104.7 100zm-100 58.8c29.4-3.5 50.6-29.4 48.3-58.8-3.6-41.2-22.4-57.7-54.2-57.7h-68.2v116.5z"/>
	<path id="Fill-8" fill-rule="evenodd" class="s0" d="m1219.3 446c0 20-16.5 37.6-36.5 37.6-20 0-37.7-16.4-37.7-36.4 0-20 16.5-37.7 36.5-37.7h1.2c20 0 36.5 15.3 36.5 35.3 0 0 0 1.2 0 1.2zm-68.3 0c0 17.6 13 31.8 30.6 31.8 17.7 0 31.8-13 31.8-30.6 0-17.7-12.9-31.8-30.6-31.8-16.5-1.2-30.6 10.6-31.8 27.1q0 1.7 0 3.5zm23.6 20h-7.1v-42.4h16.5c5.9 0 10.6 3.6 11.8 9.4v2.4c0 4.7-3.6 8.2-8.3 9.4 5.9 1.2 8.3 2.4 8.3 10.6 0 3.5 1.1 7.1 2.3 10.6h-7.1c-1.1-4.7-2.3-9.4-2.3-14.1 0-2.4-2.4-4.7-4.7-4.7-1.2 0-1.2 0-2.4 0h-7c0 0 0 18.8 0 18.8zm0-23.5h8.2c3.5 0 7.1-2.4 7.1-5.9v-1.2c0-3.5-2.4-7.1-5.9-7.1h-9.4z"/>
</svg>