<svg version="1.2" xmlns="http://www.w3.org/2000/svg" viewBox="0 0 1554 519" width="1554" height="519">
	<title>D</title>
	<style>
		.s0 { fill: #2e4358 } 
	</style>
	<g id="Layer">
		<g id="Group">
			<path id="Layer" fill-rule="evenodd" class="s0" d="m123.6 66.7c40.8 1.4 49.1 39.9 49.1 39.9 0 0 0 97.7 0 138.5 0 40.7-61.8 43.4-61.8 43.4 0 0-97.6 0-101.6 0-4.4 0-10.1-1.4-8.3-5.7 1.8-4.4 9.2-4.4 9.2-4.4l3.1-3.1v-198c-7 0-10.1-1.4-11-5.3-0.9-3.9 6.1-5.3 6.1-5.3 0 0 74.5 0 115.2 0zm-48.1 10.1v201.1c0 0 32.8 1.8 35.9-18.8-0.5-21.5 0-176.6 0-176.6 0 0 0.9-4.4-5.3-5.7-10.5 0-30.6 0-30.6 0zm137.5 111.7c-9.2 0-16.6-7-16.6-15.7 0-8.7 7.4-15.8 16.6-15.8 9.2 0 16.7 7.1 16.7 15.8 0 8.7-7.5 15.7-16.7 15.7zm157.7-120.9c11.4 0 32 19.3 33.7 34.6 1.3 10.1 1.8 22.8 1.8 31.6 0 33.3-31.1 41.2-31.1 41.2 5.2 1.7 17.1 2.2 27.6 8.7 10.5 6.2 13.1 20.6 13.1 20.6v71.4l3.1 2.7c0 0 9.2 0 10.5 0 1.7 0 2.6-0.5 3.1 3.9 0.4 6.2-5.3 5.7-5.3 5.7 0 0-57.8 0-64.8 0-7 0-12.3-12.3-12.3-12.3 0 0 0-77.9 0-84.1 0-6.6-12.7-7.4-12.7-7.4h-21v91.1l1.7 2.2c0 0 6.6 0 7.9 0 1.3 0 4-1.3 4 4.4 0.4 6.6-2.7 4.8-2.7 4.8 0 0-80.6 0-82.8 0-2.1 0-3.9-0.4-3.9-3.9 0-3.1 3.9-5.3 3.9-5.3h5.7l4.4-4.4v-193.7l-3-2.6c0 0-1.8 0-6.6 0-4.8 0-2.6-1.7-2.6-6.1-0.5-4 3.9-3.1 3.9-3.1zm-39.4 9.2h-14.5v95.5h26.7c0 0 6.6-0.4 6.6-8.7 0-8.4 0-80.6 0-80.6 0 0-1.7-6.6-8.8-6.6-6.5 0.4-10 0.4-10 0.4z"/>
		</g>
		<path id="Layer" class="s0" d="m1 0.1h1509.4v15.4h-1509.4z"/>
		<path id="Layer" fill-rule="evenodd" class="s0" d="m209.9 465.9c0.5 0.9 0 2.2-0.4 4.4-4.8 16.2-12.7 30.2-23.7 42.5-2.1 1.7-3.9 3.1-6.1 3.1-2.2 0-4.8-0.9-8.3-3.1-3.1-2.2-6.1-4.8-9.2-8.3-2.6-3.1-4.8-6.2-6.1-9.2-0.9-1.4-1.4-3.5-1.8-6.2-1.3-7-0.9-17.1 1.3-31.1l4.4-28.9-23.6 2.6-33.3 3.5-18.4 22.8c-12.7 16.5-19.3 24-18.7 22.9-6.1 7.2-19.4 22.8-22.5 26.2-4 4.4-7.5 7.4-9.6 9.2-3.1 1.7-5.7 2.6-8.4 2.6-3.5 0-10.9-1.3-15.3-4.8-4.4-3.5-7.9-9.6-6.1-12.7 5.7-8.8 14-3.9 37.2-25.9 0.9-1.3 2.6-2.6 4.8-4.8 2.2-1.7 4.8-4.4 7.5-7 3.5-3.9 7-7 9.2-9.2 2.6-2.2 4.3-3.9 5.7-5.2 3.5-3.1 7-6.6 10-10.1l0.5-0.5h-0.9l-4.4 0.5c-2.6 0.4-3.9 0.4-4.8 0.4-1.8 0-3.9 0-5.7-0.9-2.2-0.8-3.9-1.7-5.3-3-1.3-1.3-2.6-2.2-3.9-4.4q-2-3.3-5.3-9.2c3.1 1.3 5.7 0.9 8.4 1.3 2.6 0 7.4 0 14 0 6.6 0 13.6-0.4 19.7-0.9h1.3c0.9-0.8 1.3-1.3 1.8-1.3l26.2-23.6 23.3-20.2c5.7-5.3 10.9-9.6 15.7-13.6 4.4-3.9 8.4-6.6 11-8.7l2.2-1.8c2.2-1.3 3.5-2.2 4.8-2.2 2.6 0 5.2 1.3 8.7 4 3.6 2.6 5.7 5.2 7.1 8.3q1.3 3.3 0 9.2c-2.7 12.2-4.9 21.9-6.2 29.8l-2.6 15.7-0.4 0.9h1.3q19-0.6 23.6 0c2.2 0.5 4 1.3 4.4 2.7 0.9 1.7-0.4 2.6-3.5 3h-2.2l-12.7 1.3-12.3 1.3v0.9l-0.4 4.4q-3.3 24.3-3.9 44.7c0 5.7 0.4 11 1.3 16.2 3.5-1.7 7-3.9 10.5-7 3.5-3.1 6.6-6.6 9.6-10.1 3.1-3.9 5.3-7.4 6.6-10.9 0.4-1.3 0.9-2.2 1.7-2.2 1.4 0 2.2 0.4 2.2 2.6zm-143.2 14q-0.6 0.8-0.7 1c3.4-4 4.6-5.5 0.7-1zm109.5-117.8c-4.8 3-9.2 5.7-12.7 8.3-3.5 2.6-7.4 6.1-11.8 10.1-16.2 14.9-29.4 27.6-39 39l-0.4 0.8 19.2-0.8 31.6-0.9 2.6-11 2.2-11.4c1.3-6.1 2.6-11.8 3.9-17.5 1.3-5.7 2.7-10.9 4.4-16.6zm270.7-173.6c-9.2 0-16.6-7-16.6-15.7 0-8.7 7.4-15.8 16.6-15.8 9.2 0 16.7 7.1 16.7 15.8 0 8.7-7.5 15.7-16.7 15.7zm539.2-120.9c9.1 0 24.2 12.4 30.7 25.2 0-5.7 0-19.4 0-20.8 0-2.2 3.1-4.8 3.1-4.8h159c0 0 3 2.6 3 4.8 0 1.9 0 17.5 0 22 6.4-14.4 15.5-18.4 26.3-23.3 13.1-6.2 44.2-6.6 44.2-6.6l4.4-0.4c0 0 28.1 0.8 41.2 7 13.6 6.1 24.5 11.4 30.7 36.8 4.8 19.7 7 34.2 7 62.6 0 36 0 42.5-0.9 53.1-0.9 10-3.1 34.6-16.2 47.7-13.2 12.7-23.7 18.4-62.6 18.4h-4.9c-38.5 0-49.9-5.7-63.5-18.4-13.1-12.7-15.3-37.2-16.2-47.7-0.9-10.1-0.9-17.1-0.9-53.1 0-28.4 2.2-42.9 7-62.6q1.1-4.3 2.3-7.9c-0.7 0.5-1.6 0.9-2.7 0.9-4.4 0.4-5.3-1.8-5.3-6.2-0.4-4.8 0-7 0-7h-35.9c0 0-4.3-0.4-4.3 3.5 0 4 0 183.2 0 183.2 0 0-0.5 4.4 7.4 4.4 4.4 0 4.4 1.7 4.4 4.8 0 3.1-1.3 4.8-4.8 4.8-3.5 0-35.5 0-35.5 0 0 0-39 0-42.5 0-3.5 0-4.8-1.7-4.8-4.8 0-3.1-0.5-4.8 3.9-4.8 7.9 0 7.5-4.4 7.5-4.4 0 0 0-179.7 0-183.2 0-3.9-4.4-3.5-4.4-3.5h-35.9c0 0 0.4 2.7 0 7-0.5 4.9-1.4 7.1-5.3 6.2-0.9-0.1-1.6-0.4-2.2-0.7q0.3 1.2 0.5 2.4c1.3 10.1 1.7 22.8 1.7 31.6 0 33.3-30.7 41.2-30.7 41.2 5.3 1.7 17.1 2.2 27.6 8.7 10.6 6.2 13.2 20.6 13.2 20.6v71.4l3 2.7c0 0 9.2 0 10.6 0 1.7 0 2.6-0.5 3 3.9 0.5 6.2-5.2 5.7-5.2 5.7 0 0-57.9 0-64.4 0-7 0-12.3-12.3-12.3-12.3 0 0 0-77.9 0-84.1 0-6.6-13.1-7.4-13.1-7.4h-21.1v91.1l1.8 2.2c0 0 6.6 0 7.9 0 1.3 0 3.9-1.3 3.9 4.4 0.5 6.6-2.6 4.8-2.6 4.8 0 0-80.2 0-82.8 0-2.2 0-3.9-0.4-3.9-3.9 0-3.1 3.9-5.3 3.9-5.3h5.7l4.4-4.4v-193.7l-3.1-2.6c0 0-1.7 0-6.6 0-4.8 0-2.6-1.7-3-6.1-0.5-4 3.9-3.1 3.9-3.1zm-39.4 9.2h-14.5v95.5h26.8c0 0 6.5-0.4 6.5-8.7 0-8.4 0-80.6 0-80.6 0 0-1.7-6.6-8.7-6.6-7 0.4-10.1 0.4-10.1 0.4zm-392.5 108.2l-3 2.7c0 0 0.4 93.3 0 96.8-0.5 3.5-3.1 4-3.1 4 0 0-64 0-67.9 0-3.9 0-5.7-2.7-5.7-4 0-1.3 0.9-6.1 7.5-6.1 6.5 0 6.1-4.8 6.1-4.8 0 0 0.4-190.6 0-193.7-0.5-3.1 0-3.5-5.7-3.5-5.7 0-6.6-1.3-6.6-4.4 0-3.1 4.4-5.3 4.4-5.3 0 0 66.6 0 68.8 0 2.2 0 2.6 4 2.6 4v92.9l3.1 3h31.5l3.1-3v-92.9c0 0 0.4-4 2.6-4 2.2 0 68.8 0 68.8 0 0 0 4.4 2.2 4.4 5.3 0 3.1-0.9 4.4-6.6 4.4-5.7 0-5.3 0.4-5.7 3.5-0.5 3.1 0 193.7 0 193.7 0 0-0.9 4.8 6.1 4.8 7 0 7.5 4.8 7.5 6.1 0 1.3-1.8 4-5.7 4-4 0-67.9 0-67.9 0 0 0-2.7-0.5-3.1-4-0.4-3.5 0-96.8 0-96.8l-3.1-2.7zm207.2 104.3c-38.5 0-49.9-5.7-63.5-18.4-13.1-12.7-15.3-37.2-16.2-47.7-0.9-10.1-0.9-17.1-0.9-53.1 0-28.4 2.2-42.9 7-62.6 6.2-25.9 17.1-30.7 30.7-36.8 13.1-6.2 44.2-6.6 44.2-6.6l4.4-0.4c0 0 28.1 0.8 41.2 7 13.6 6.1 24.5 11.4 30.7 36.8 4.8 19.7 7 34.2 7 62.6 0 36 0 42.5-0.9 53.1-0.9 10-2.6 34.6-16.2 47.7-13.2 12.7-23.7 18.4-62.2 18.4zm2.6-6.5c23.2 0 19.7-12.3 19.7-12.3 0 0 0-177.9 0-182.7 0-16.7-13.6-17.6-18.8-17.6h-3.1c-4.8 0-20.1 0.9-20.1 17.6 0 4.8 0 182.7 0 182.7 0 0-4 12.3 19.2 12.3zm490.2 0c22.8 0 19.7-12.3 19.7-12.3 0 0 0-177.9 0-182.7 0-16.7-14-17.6-18.8-17.6h-3.1c-4.8 0-20.1 0.9-20.1 17.6 0 4.8 0 182.7 0 182.7 0 0-4 12.3 19.2 12.3zm119.6-169.2c0 0-0.4 156.9 0 161.3 0.5 3.5 4.4 3 6.6 3 2.2 0 3.5 1.8 3.5 5.7 0 4.9-4.4 4.9-4.4 4.9 0 0-25 0-28.5 0-3 0-5.7-2.7-5.7-4.4 0-1.8 0-5.7 6.6-5.7 6.6 0 5.3-3.1 5.3-3.1 0 0 0-195 0-196.7 0-1.8-4-2.7-7.5-2.7-3.5 0-3.5-1.7-3.5-4.8 0-3 4.4-4.8 4.4-4.8 0 0 78.8 0 80.6 0 1.8 0 3.9 0.9 3.9 4.4 0 3.5-2.1 5.7-6.1 5.7-3.9 0-5.2 2.2-5.2 2.2l53 128.8c0 0 0.4-122.7 0-127.5-0.5-3.5-4.4-3.1-6.6-3.1-2.2 0-3.5-1.7-3.5-5.7 0-4.8 4.4-4.8 4.4-4.8 0 0 24.9 0 28.4 0 3.1 0 5.7 2.6 5.7 4.4 0 1.7 0 5.7-6.5 5.7-6.6 0-5.3 3-5.3 3v209.1h-49.9zm163.3-10.6c-9.2 0-16.6-7.4-16.6-16.6 0-9.2 7.4-16.7 16.6-16.7 9.3 0 16.7 7.5 16.7 16.7 0 9.2-7.4 16.6-16.7 16.6zm11.9-17.1c0-7-5.3-12.7-11.9-12.7-6.5 0-11.8 5.7-11.8 12.7 0 7.1 5.3 12.8 11.8 12.8 6.6 0 11.9-5.7 11.9-12.8zm-14.9 9.2h-4v-17.9h6.6c4.8 0 7.5 1.3 7.5 5.2 0 3.5-1.8 4.4-4.4 4.9l4.4 7.8h-4.4l-4-7.4h-1.7zm3.5-10.5c1.7 0 2.6-0.5 2.6-2.2 0-1.8-2.2-2.2-3.5-2.2h-2.6v4.4zm-1031.1 363.2c0.4 0.9 0.8 2.2 1.7 3.1-4.4-0.4-7.9-1.8-11.4-3.5-3-1.8-5.2-3.5-6.1-5.7-0.4-1.3 0-4 2.2-7.9q-12.5 5.3-21 13.1c-8.4 7.9-15.8 18-21.9 30.3-2.2 3.9-4 5.7-5.7 5.7-1.8 0-4.4-0.9-7-3.1-2.7-2.2-4.4-3.9-5.3-5.7-0.9-1.7-0.4-3.9 0.4-6.6 4.4-10.9 9.2-21 15.4-31.1-5.3 4-10.1 9.7-13.6 12.3-4 3.5-14.9 13.6-20.6 18-5.3 4.3-12.3 10.5-24.5 13.1-8.3 1.8-18.4 1.8-23.7-0.4-7.4-3.5-10.1-8.8-11.8-12.7-2.2-4.4-1.3-11 1.3-17.6-2.2 0.5-4.8 1.4-7 2.2-4.8 1.8-9.2 4.4-12.7 7.5-3.9 3.5-7.5 8.7-11 16.6-0.4 1.3-0.8 2.2-1.3 3.1-0.4 0.9-0.8 1.3-0.8 1.7-0.5 0.9-0.9 1.8-1.4 2.2-0.4 0.5-1.3 0.5-2.1 0.5-2.2 0-4.9-0.9-7.5-2.7-2.6-1.7-4.4-3.9-5.3-5.7q-1.3-3.2 0-9.2c0.5-3 2.2-7.4 4.4-13.1 2.2-5.7 4.4-10.1 6.2-13.1l0.8-1.4c0.5-0.4 0.5-0.8 0.5-1.3 0-0.4-0.5-0.8-1.3-0.8-0.9 0-1.8 0.4-4 1.3-6.6 2.6-13.6 8.7-21.4 17.5-7.9 9.2-13.2 17.5-16.3 26.3-0.8 1.7-2.1 2.6-3.5 2.6-2.1 0-3.9-0.9-6.5-2.6-3.1-2.2-4.8-4.4-5.7-6.2-0.5-0.8-0.5-2.1-0.5-3.9 0.9-7.4 4.4-17.5 11-29.8l1.7-2.6c0.5-0.9 0.5-1.3 0.5-1.8-0.5-0.4-0.9-0.4-1.3-0.4-0.5 0-1.3 0-3.1 0.9-6.6 3-13.6 8.7-20.1 16.2q-9.9 11.8-17.1 26.3c-0.9 1.7-1.8 3-2.2 3.5-0.5 0.4-1.3 0.4-2.6 0.4q-2.7 0-6.6-2.6c-2.2-1.8-4-4-4.8-5.7-1.4-3.1-0.5-8.8 3-16.7 4.4-9.6 9.2-17.9 14.9-25.4l10.5-13.1c7.5-11-2.2-11-1.7-12.3 0.4-2.2 3.5-1.3 4.8-0.9 1.8 0.5 2.6 1.3 3.5 1.8 1.8 1.7 2.6 3.5 3.1 5.2 0.8 3.5 0 7.9-0.5 8.8-1.3 4.4-0.8 5.3-3 10.1l-2.2 4.4c-3.1 5.2-6.2 10.5-9.7 17.9 7.5-7.9 15.4-15.3 23.3-21.9 10-8.7 17.9-15.3 23.6-19.3q4-2.6 6.6-2.6c2.2 0 3.9 0.9 6.1 2.2 1.8 1.3 3.1 3.1 4 4.8 0.4 1.8 0 4-1.8 6.6-3.5 5.7-6.1 9.6-7 11.4-0.9 1.3-1.8 3.1-2.6 4.4q-1.3 1.9-2.7 5.2c-1.3 3.1-2.6 6.2-3.5 8.4q6.6-7.3 14.5-14.5l14.4-12.3c7.5-6.5 13.2-10.9 16.7-13.6 2.2-1.3 3.9-2.1 5.2-2.1 2.2 0 4.4 0.8 6.2 2.1 2.2 1.8 3.5 3.5 4.4 5.7 0.8 1.8 0.8 3.5-0.5 5.3-7.4 10.5-12.7 20.6-16.6 31.1 7.4-5.2 16.2-8.8 26.7-10.5 1.7-0.4 3.5-0.9 4.8-0.9q5.3-9.2 15.8-17.1c5.7-4.4 11.8-7.9 18.8-10.9 7-3.1 11-3.5 14.9-3.5 1.8 0 4.8 0 7.9 0.8 2.6 0.9 4.8 2.7 7 4.4 1.8 1.8 2.6 4 3.1 5.7 1.3 5.3-0.9 10.1-4.9 15.8-3.5 4.8-8.3 8.8-12.7 11-4.3 2.6-7.8 4.3-16.2 3.9-9.2-0.4-14-3.1-19.2-4.8-1.8-0.5-4 4.4-5.3 7.9-1.3 3.5-0.9 5.2 0.9 7.4 1.3 1.8 4.8 4 7.4 4.4 7 0.9 13.2 0.9 25-4 9.2-3.9 27.2-17.9 31.1-21 14.9-11.4 21.5-20.1 25-25.4l1.7-3.5c1.3-2.2 2.2-3.1 2.6-3.5 0.5-0.4 1.4-0.4 2.7-0.4 2.2 0 4.4 0.8 6.1 2.1 2.2 1.4 3.5 3.5 4.4 5.7 0.9 2.2 0.9 4.4-0.9 6.6l-8.7 12.3c-3.1 3.9-6.2 9.2-8.8 15.8 3.9-4 7.4-7.5 10.1-10.1 2.6-2.7 4.8-4.8 7-6.6l14-12.3c6.1-5.7 10.9-9.6 13.6-11.4 2.6-1.7 5.2-2.6 7.4-2.6 1.8 0 4 0.9 6.1 2.2 2.2 1.8 3.6 3.5 4.4 5.7 0.5 1.8 0 3.5-1.3 5.7l-5.2 6.6c-3.5 4.8-5.7 7.9-6.6 10.5-0.9 2.6-0.9 4.8 0.9 6.1zm-131.4-1.7c3 2.6 14 3.9 21.9 1.3 8.7-3.1 12.2-10.1 14.4-13.6 2.2-3.5 2.6-6.1 2.2-7.4q-0.7-1.4-2.6-1.4c-3.5 0-8.3 1.8-14.9 4.9-6.6 3.5-16.7 12.2-21 16.2zm1129.2-23.3l-5.3 6.6c-3.5 4.8-5.7 7.9-6.5 10.5-0.9 2.7-0.9 4.9 0 7 0.4 0.9 0.8 2.2 1.7 3.1-4.4-0.4-7.9-1.7-11.4-3.5-3-1.7-5.2-3.5-6.1-5.7-0.4-1.3 0-3.9 2.2-7.9-8.3 4-15.3 8.3-21 13.6-8.4 7.9-15.8 18-21.9 30.2-2.2 4-4 5.7-5.7 5.7-1.8 0-4.4-0.8-7-3-2.7-2.2-4.4-4-5.3-5.7-0.9-1.8-0.4-4 0.4-6.6 4.4-11 9.2-21 15.4-31.1-5.3 3.9-10.1 9.6-13.6 12.3-4 3.5-14.9 13.5-20.6 17.9-5.3 4.4-12.3 10.5-24.5 13.2-8.3 1.7-18.4 1.7-23.7-0.5-7.4-3.5-10.1-8.7-11.8-12.7-2.2-4.8-1.3-11.4 1.7-18.4q-11.8 2.7-19.7 7.9c-3.5 2.6-6.5 5.3-8.7 7.9-2.2 3.1-5.3 7.4-9.2 14.5q-2 3.2-2.7 3.9c-0.4 0.4-1.3 0.9-2.1 0.9-1.8 0-4-1.3-7.1-3.1-3.5-1.7-5.2-3.9-6.1-5.7q-0.6-2 0-6.6c1.8-8.3 4.4-16.2 8.8-23.6l0.4-0.9-0.9 0.9c-11.8 13.6-22.7 24.5-33.7 32.4q-5.2 3.9-7.9 5.3c-1.7 0.8-3 1.3-4.8 1.3-2.6 0-6.1-1.8-9.6-4.8-3.5-3.1-5.7-6.6-7.5-10.6q-3.3-8.5 5.3-19.7c-5.7 3.5-10.1 6.6-11.8 7.9-3.5 3.1-8.4 7.5-11.9 11.4-1.3 1.8-3.9 5.7-8.3 11.4-1.3 2.2-2.6 3.1-3.1 3.5-0.4 0.4-1.3 0.9-2.2 0.9-1.7 0-3.9-1.3-7-3.1-3.5-1.7-5.2-3.9-6.1-5.7-0.4-1.7-0.9-3.9 0-6.6 1.8-7.4 4.4-14.9 8.3-22.3 0.9-1.8 2.2-4 3.1-6.1-6.6 4.3-13.6 9.2-22.3 18.4-3.5 3.5-4.9 5.2-8.4 9.6-1.3 1.8-4.8 5.7-9.2 11.4-1.7 2.2-3.5 3.5-3.9 3.9-0.4 0.5-1.3 0.9-2.2 0.9-1.7 0-3.9-1.3-7-3.1-3.5-2.1-5.3-3.9-6.1-5.7q-0.7-1.9 0-6.5c1.3-5.7 2.6-11 4.8-15.4 1.7-3.5 3.9-7.8 7.4-14-6.5 4.8-14 9.7-23.2 19.3-3.5 3.1-4.8 4.8-8.3 9.2-1.3 1.8-4.8 5.7-9.2 11.4-1.3 2.2-3.5 3.5-4 3.9-0.4 0.5-1.3 0.9-2.1 0.9-1.8 0-4-0.9-7-3.1-3.1-2.1-6.2-6.1-6.2-6.1-0.4-1.7-0.4-5.2 1.3-10.5 1.3-5.3 4-11.4 7-18-1.7 1.3-2.6 2.2-3 2.7l-10.1 10.9c-7.4 8.3-14.5 15.3-21 20.6-2.2 1.8-4.4 2.6-6.2 2.6-2.6 0-5.7-1.3-8.7-3.9q-4.6-4-6.6-7.9c-0.9-1.7-0.9-3.5-0.4-5.7 0.4-2.2 1.7-5.7 3.9-10.9 0.9-1.4 1.3-2.7 2.2-4.4h-0.4c-2.7-0.9-7-1.8-12.3-2.7h-0.9q-0.6 4-6.5 10.6c-4 4.3-7.9 8.3-12.7 11.8-6.6 5.2-14.5 9.6-22.8 13.6-8.8 3.9-19.3 7.9-32 11.8-25.8 8.3-47.7 12.3-65.7 12.3-6.6 0-12.7-2.2-19.3-5.7-4.8-3.1-9.6-7-14-11.9-4.4-4.8-7.4-9.6-9.2-14-2.6-6.1 0-11.4 7-15.7 6.6-4 14.9-7.1 25.9-9.7l0.4-0.9c2.6-6.1 6.1-12.7 10.1-19.7 3.9-7 8.3-14 12.7-21 4.8-7.5 10-14.5 16.2-21.9 2.2-2.2 3.9-3.5 5.7-3.5 1.3 0 3 0.4 5.2 1.7 4.9 2.2 7.5 4.4 7.9 6.2 0.5 1.3 0 3.5-1.7 5.7-1.3 1.3-4.4 5.2-8.8 11.3q-0.7 1.4-2.6 4-1.3 2.6-2.7 3.9l-0.4 0.5h0.9q3.9-0.7 15.8-2.7c1.7-0.4 9.6-2.1 13.1-3 6.1-1.8 8.3-2.2 14.9-4.8 14.4-5.7 20.6-17.1 17.9-24.1 0 0-12.2-42.5-99.8 17.9 0 0 33.3-40.7 87.1-39.4 29 0.9 59.6 27.2 11.9 49.1 0 0 26.3-2.7 41.1 12.7 9.2 9.6 5.7 17.9 5.7 19.7 6.6 1.3 11.4 3.1 14.9 4.8 2.2-4.8 4.9-9.6 8.4-14.5l10.5-18.4c1.7-2.1 3.5-3 5.2-3 1.8 0 3.5 0.4 5.7 2.2 2.2 1.3 3.5 3 4.4 5.2 0.4 0.9 0.4 1.8 0.4 2.2 0 0.5 0 1.3-0.4 2.2-0.4 0.9-1.3 2.6-3.1 5.3-1.7 2.6-3.5 5.7-5.7 8.7-4.3 6.2-7.4 11.9-10 17.1-2.2 5.3-3.1 8.8-2.7 10.1 0 0.9 0.9 1.3 1.8 1.3 0.9 0 1.7-0.4 2.6-0.9q3.3-1.3 7.9-5.2 4.6-4 7.9-6.6c3.9-3.5 6.6-6.1 8.3-7.9 1.8-1.7 4-4.4 7-7.9 3.1-3.5 5.7-7 7.9-10 2.2-3.1 4.8-7.5 8.8-13.2 1.3-2.2 2.6-3.1 4.3-3.1 2.2 0 4.4 0.9 7.1 2.7 2.6 1.7 4.3 3.5 4.8 5.2 0.4 0.9 0.4 2.2 0 3.5 0 0-1.8 2.2-4.4 6.6-0.4 0.4-0.9 1.3-1.8 2.6-0.8 0.9-1.7 2.2-2.2 3.1-0.4 0.9-1.3 1.8-1.7 2.6-3.9 5.7-9.2 16.7-9.6 17.6-3.5 6.5-0.5 3.9-0.5 3.9 7-3.5 10.1-6.1 21.9-14.5 9.2-6.5 18.4-13.5 24.1-17.5l8.8-13.6c1.3-1.7 3-2.6 4.4-2.6 1.3 0 3 0.9 4.8 2.2 1.3 1.7 2.6 3.5 3.5 5.2 0.4 1.8 0.4 2.7 0.4 3.6 0 0.8-0.9 2.1-2.2 3.9-0.4 0.9-2.2 3.5-5.7 8.3l-0.8 1.3c-3.1 5.3-9.7 17.6-11.4 24.1-0.5 0.9 10-6.5 21.9-14.4 9.2-5.7 17-11.9 22.7-16.2 1.4-2.2 3.1-4.4 4.9-6.6 25.8-29.8 36.8-37.7 39.8-40.3 2.2-1.8 4-3.1 5.7-3.1 1.8 0 3.1 0 4.8 1.8 0.5 0.8 0.9 1.3 1.3 2.2 0.9 2.1-2.1 4.8-4.3 7l-11.9 12.2c-2.1 2.2-4.8 4.9-7.4 8.4-3.1 3.5-5.7 7-8.8 10.9-3 3.5-5.7 7.5-7.8 11-5.3 7.9-9.2 15.3-11.4 22.3 7.4-3.5 18.8-9.2 24.9-12.3 0.9-0.8 9.7-5.2 18.4-9.2 4.8-3.9 9.7-7.4 14.9-10.5 7-4.4 13.6-7.9 20.2-10q4.6-1.4 7.9-1.4c3.5 0 6.5 0.9 9.2 2.2 2.6 1.3 4.8 3.5 6.1 6.2l0.4-0.5c4.4-6.1 25-24.5 32-31.5 0 0 10.1-9.2 18.4-16.2 2.2-2.2 5.7-4.9 7.4-4.9 2.2 0 4.9 0.5 6.6 3.6 1.3 2.1-1.3 5.6-3.5 7.8l-17.1 19.3c-7.9 8.3-25.8 23.2-33.7 35.1-3.1 4.4-5.3 8.3-7 11.4-1.3 3-3.1 6.5-4.4 10.9 7.5-3.9 14.5-7 21.5-8.7 2.2-0.5 5.2-1.4 9.2-1.8 2.2-0.4 3.9-0.9 5.2-0.9 3.5-5.7 8.8-11.4 15.4-16.2 5.7-4.4 11.8-7.9 18.8-10.9 7-2.7 10.9-3.5 14.9-3.5 1.7 0 4.8 0 7.9 0.8 2.6 0.9 4.8 2.7 7 4.4 1.7 1.8 2.6 4 3 5.7 1.4 5.3-0.8 10.1-4.8 15.8-3.5 4.8-8.3 8.7-12.7 10.9-4.4 2.7-7.9 4.4-16.2 4-9.2-0.5-14-3.1-19.3-4.8-1.7-0.5-3.9 4.3-5.2 7.8-1.3 3.6-0.9 5.3 0.9 7.5 1.3 1.7 4.8 3.9 7.4 4.4 7 0.9 13.2 0.9 25-4 9.2-3.9 27.1-17.9 31.1-21 14.9-11.4 21.4-20.2 24.9-25.4l1.8-3.5c1.3-2.2 2.2-3.1 2.6-3.5 0.5-0.5 1.3-0.5 2.7-0.5 2.1 0 4.3 0.9 6.1 2.2 1.7 1.3 3.5 3.5 4.4 5.7 0.8 2.2 0.8 4.4-0.9 6.6l-8.8 12.3c-3 3.9-6.1 9.2-8.7 15.7 3.9-3.9 7.4-7.4 10-10 2.7-2.7 4.9-4.9 7.1-6.6l14-12.3c6.1-5.7 10.9-9.6 13.5-11.4 2.7-1.7 5.3-2.6 7.5-2.6 1.7 0 3.9 0.9 6.1 2.2 2.2 1.7 3.5 3.5 4.4 5.7q0.7 2.6-1.3 5.2zm-141.9 21.5c3 2.6 14 4 21.9 1.3 8.7-3 12.2-10 14.4-13.6 2.2-3.5 2.7-6.1 2.2-7.4q-0.6-1.3-2.6-1.3c-4 0-8.8 1.7-15.3 4.8-6.2 3.1-16.2 11.8-20.6 16.2zm-349.1-1.3c-1.4 0-3.5 0-6.2 0-12.7 0-25.8 0.9-38.5 2.2-12.7 1.3-25 3.1-36.4 5.7-11.8 2.6-21.9 5.2-31.1 8.8l-0.8 1.7-12.3 22.8-1.3 2.2c-3.1-1.8-4.8-4.4-6.2-7.5-1.7-3.5-1.7-7.9-0.8-12.2v-0.9c-5.3 2.2-8.8 5.2-11.4 8.3-2.7 3.1-3.1 6.1-2.2 8.8 1.7 4.8 8.7 7.4 21.4 7.4 8.4 0 20.2-1.7 34.7-4.8 14.4-3.1 28-7 39.8-11.4 23.7-8.8 40.8-18.8 51.3-31.1zm3.9-15.3c-1.3-3.5-4.8-6.2-10.9-8.4-6.2-2.2-13.6-3-22.8-3-5.7 0-11.8 0.4-19.3 1.3-7.4 0.9-14.9 1.7-22.8 3.5-7.9 1.3-13.6 3.1-17.9 4.4l-2.2 0.9-1.3 0.4-4 6.1c-1.7 2.7-3 4.8-3.9 6.2l-3.1 5.2-0.4 0.9 2.6-0.9c7.4-1.7 15.3-3.1 24.1-4.4 8.3-1.3 17.5-2.2 26.7-2.6 9.2-0.4 18.8-0.9 28.5-0.9 8.7 0 16.6 0.5 24.5 0.9h1.3c1.8-3.5 1.8-7 0.9-9.6zm281.2-1.8c-0.4-0.4-0.9-0.9-2.2-0.9-1.3 0-3.9 0.5-7.9 1.8-3.9 1.3-7 2.6-9.6 3.9-7 3.5-13.1 7.5-18.8 12.7-5.7 5.3-9.7 10.1-11.9 14.9-0.4 1.4-0.4 2.2-0.4 2.7 0 0.8 0.9 1.3 2.2 1.3 2.2 0 5.7-1.3 10.9-3.5q16.5-7.3 29-19.7c5.2-5.3 7.8-9.2 8.7-11.9q0.7-0.6 0-1.3zm-559.8 19.3q0.7 2-3.9 2.6c-5.3 0.9-10.5 1.8-14.9 3.5-4.4 1.8-8.3 3.5-11.4 6.2-3.5 2.6-6.1 5.7-8.3 9.2-2.7 3.5-4.4 8.3-6.2 13.5q-0.6 2-1.3 2.7c-0.4 0.4-1.3 0.9-2.6 0.9-1.8 0-3.5-0.9-6.1-2.2-4-2.2-6.6-4.4-7.5-6.6-0.4-1.8-0.4-4.4 0.9-8.8q2-5.9 6.6-17.1l1.3-3-2.6 2.6c-11.4 12.3-21.5 22.3-31.1 29.8-4.4 3.5-7.9 5.3-10.1 5.3-3.1 0-6.2-1.8-10.1-4.9-3.9-3-6.6-6.5-7.9-10-0.4-0.9-0.9-1.8-0.9-3.1-10 10.1-18.4 13.6-26.2 14.9-1.8 0.4-10.1 2.6-20.6-2.2-7-3.5-10.1-10.1-11.9-14.5-1.7-4.3-1.3-9.6 0.9-15.3 0.9-2.6 2.7-5.3 4.4-7.9-6.1 4-12.7 9.2-21 17.5-3.5 3.1-4.8 4.9-8.3 9.2-1.4 1.8-4.9 5.7-9.2 11.4-1.8 2.2-3.5 3.5-4 4-0.4 0.4-1.3 0.9-2.2 0.9-1.7 0-3.9-1.4-7-3.1-3.5-2.2-5.2-4-6.1-5.7q-0.7-2 0-6.6c1.3-5.7 2.6-10.9 4.8-15.3 2.2-4.4 5.7-11 11-20.2l0.4-0.4 11.4-18.4c1.3-1.8 3-2.6 4.4-2.6 1.3 0 3 0.8 4.8 2.1 1.7 1.8 3 3.1 3.9 5.3 0.5 1.8 0.5 2.6 0.5 3.5 0 0.9-0.9 2.2-2.2 4-0.5 0.8-2.2 3.5-5.7 8.3l-0.9 1.3c-3.1 5.2-8.3 16.6-11.4 24.1 7-3.5 10.1-6.1 21.9-14.5 11.4-8.3 21.9-14 26.7-17.1 1.8-1.3 3.5-3 5.7-4.3 4-2.7 7.5-4.9 11-6.6 3.5-1.8 7.4-3.5 11.8-4.8 3.1-0.9 5.3-1.3 7-1.3 2.6 0 4.8 0.4 7 1.7 2.2 1.3 3.5 2.6 4.4 4.4 0.9 1.7-0.4 3.5-3.1 5.2-4.3 2.7-8.3 6.2-11.8 11-1.3-2.6 4.4-9.2 3.5-10.1-0.4-0.4-1.7 0-2.2 0-1.7 0.9-22.3 6.6-31.5 26.8-2.6 5.6-4.4 9.2-3.1 11.8 3.1 7 18 2.6 23.2 0.9 12.3-3.5 22.4-11.9 31.6-21.5q5.9-5.9 14.4-11.8 10.5-7.9 23.7-13.2c8.7-3.9 15.7-5.7 20.6-5.7 3 0 6.1 0.9 8.7 2.6 2.7 1.4 4.4 3.5 5.3 6.2 0.9 2.2 0.4 4.8-1.8 7.9 2.2 0.8 3.1 2.2 3.5 3 0.9 1.3 0.5 2.7-0.4 4.4l-4.8 8.3c-0.9 1.4-2.7 4.4-4.4 8.8q9.9-5.3 25-7.9c4.3-0.9 7.8-1.3 9.6-1.3 1.8 0 3.1 0.9 4.8 2.2zm-47.7-17.5c-0.5-0.5-0.9-0.9-2.2-0.9-1.8 0-4.4 0.4-7.9 1.7-3.5 1.4-6.6 2.7-9.6 4.4-3.5 1.8-7 3.5-10.5 6.2-3.6 2.6-7.1 5.2-10.1 8.3-3.1 3.1-5.7 5.7-7.5 8.3-2.6 4-3.9 6.1-3.5 7.5 0 0.8 0.9 1.3 2.2 1.3 1.8 0 5.7-1.3 11-3.5 10.9-4.4 20.6-11 28.9-19.3 4.8-5.3 7.9-9.2 8.7-11.8 0-0.9 0-1.4 0.5-2.2zm66.1-24.1c-4.8 3.9-10.5 7.4-17.5 11.4-7 3.9-11.4 5.7-13.6 5.7-1.3 0-2.2-0.9-2.2-2.2 0-1.8 6.6-4.9 12.3-11.4 6.6-7.9 8.8-15.8 14.4-19.7q6-4 10.6-4c1.7 0.4 3.5 0.9 4.8 2.2 1.3 1.3 1.7 2.6 1.7 4.4 0 2.2-0.8 3.9-2.2 6.1-1.7 1.8-4.3 4.4-8.3 7.5zm51.3 19.7c0.8 1.7 0.4 2.2 0 3.1-0.9 0.8-1.8 2.1-7 3l-13.2 2.6c-8.3 1.4-14.9 4.4-19.7 8.4-1.3 0.8-1.7 1.3-1.3 2.2 0.4 0.8 1.3 1.3 2.2 1.7 0.9 0.5 3 0.9 6.1 1.3 3.1 0.5 5.7 0.9 8.3 0.9 5.3 0.4 9.2 0.9 11.4 1.3 2.2 0.9 4 1.8 4.8 2.7 4.9 4.8-2.1 7-2.1 7-8.8 3.5-14.1 6.1-23.7 10.9-11 6.1-18.8 10.1-22.8 13.2q-1.3 1.3-2.6 1.3c-0.9 0-2.6-0.5-4.4-1.8-2.6-1.3-3.9-3-4.4-4.4-0.4-1.3-0.4-2.6 0.9-3.9 0.9-0.9 4-3.1 8.3-5.3 7.5-3.5 15.8-7.4 24.6-10.9 2.6-1.3 7-2.6 12.7-4.8-3.5-0.5-7.9-0.9-14.1-0.9-8.3 0-14-0.4-16.2-1.3-3.5-1.3-5.7-3.1-6.5-5.7-0.9-2.2 0-4.4 2.2-6.6 3-2.6 7.4-5.7 13.1-8.3 6.1-2.6 11.8-4.8 18-6.6 8.3-2.2 14.4-3.5 18.4-3.5 1.7 0 3 0.4 4.3 1.3 1.4 0.9 2.7 2.2 2.7 3.1zm376.2-27.6c-0.8-2.2 0.5-5.3 4-9.7 3.9-4.8 7-7 9.2-7 2.2 0 3.9 0.9 6.1 2.2 2.2 1.3 3.5 3.1 4.4 4.8 0.9 1.4 0 3.1-2.2 4.9-1.3 0.8-2.6 2.2-4.8 3.9-2.7 2.2-4.4 3.5-5.7 4.4-1.3 0.9-2.6 1.3-3.5 1.3-1.8 0-3.1-0.4-4.8-1.8-1.4-0.8-2.7-2.1-2.7-3zm-627.7 2.2c-0.8-2.2 0.5-5.3 4-9.7 3.9-4.8 7-7 9.2-7 2.2 0 3.9 0.9 6.1 2.2 2.2 1.3 3.5 3.1 4.4 4.8 0.9 1.3 0 3.1-2.2 4.9-1.3 0.8-2.6 2.1-4.8 3.9-2.6 2.2-4.4 3.5-5.7 4.4-1.3 0.9-2.6 1.3-3.5 1.3-1.3 0-2.6-0.9-4.4-1.8-1.7-1.3-2.6-2.2-3.1-3z"/>
	</g>
</svg>