<svg version="1.2" xmlns="http://www.w3.org/2000/svg" viewBox="0 0 1510 517" width="1510" height="517">
	<title>DTE_Logo_Blue-svg</title>
	<style>
		.s0 { fill: #1e3575 } 
	</style>
	<path id="Layer" fill-rule="evenodd" class="s0" d="m1008.4 125.8h-145v391.2h-188.3v-391.2h-145.3v-125.5h478.6zm253-2v73h235.7v114.6h-235.7v51.1c0 15.8 12.8 28.7 28.7 28.7h219.1v124.3h-306.2c-67.8 0-122.8-54.9-122.8-122.7v-392.8h426.8v123.8zm-942.7 392.8h-318.7v-515.8h317.7c84 0 152 68 152 151.9v213c0 83.3-67.6 150.9-151 150.9zm-23.1-163.1v-191.9c0-21.8-17.7-39.5-39.5-39.5h-69.7v271h69.7c21.8 0 39.5-17.7 39.5-39.6z"/>
</svg>