<svg version="1.2" xmlns="http://www.w3.org/2000/svg" viewBox="0 0 1515 456" width="1515" height="456">
	<title>DuPont_logo-svg</title>
	<style>
		.s0 { fill: #e4001c } 
	</style>
	<g id="layer1">
		<g id="g9175">
			<path id="path8097" fill-rule="evenodd" class="s0" d="m353.1 127.4v200.4c0 44.7-23.9 72.5-66.1 72.5-18.3 0-50.6-8-92.6-21.8v-301.9c47.8-15.9 74.3-21.7 92.6-21.7 42.2 0 66.1 27.8 66.1 72.5zm-52.3 7.7c0-17.4-9.8-23.3-21.4-23.3-9.1 0-23.1 3.6-34.5 6.8v217.8c11.4 3.4 25.4 6.9 34.5 6.9 11.6 0 21.4-5.8 21.4-23.2z"/>
			<path id="path8101" fill-rule="evenodd" class="s0" d="m975.1 88.1v276.1c0 65.4-28.9 88-84.2 90.6-56.5 2.7-85.3-22.6-85.3-84.1v-289.3c0-58.2 31.8-83.6 85.3-80.9 58.1 3.1 84.2 25.3 84.2 87.6zm-58.3 1.7c0-17.4-5.4-26.8-25.9-27.5-21-0.6-26.7 9.4-26.7 27.5v275.7c0 18.2 5.7 27.9 26.7 27.2 20.5-0.6 25.9-9.7 25.9-27.2z"/>
			<path id="path8105" class="s0" d="m1514.2 226.9c0 41.8-37.7 80.9-103.3 114.4v-227.8c65.6 33.3 103.3 72.1 103.3 113.4z"/>
			<path id="path8109" class="s0" d="m103.6 113.5v227.8c-65.6-33.5-103.3-72.6-103.3-114.4 0-41.3 37.7-80.1 103.3-113.4z"/>
			<path id="path8113" class="s0" d="m500.3 14.7c11.4-1.3 46.9-4.5 57.7-5.2v351.1c0 58.9-31.8 87.1-83.6 80.7-56.6-7-80.5-27.6-80.5-80.7v-332.3c12.6-1.9 42.1-6.3 55.3-7.9v328.6c0 20.7 5.3 29.7 25.2 32.3 20.3 2.7 25.9-8.4 25.9-25.9z"/>
			<path id="path8117" class="s0" d="m1131.2 31.2c12.7 2.1 38.9 6.9 53.3 9.9v372.9c-13.8 2.8-34.9 6.8-49.3 9.3l-67.7-240.4 4.5 250.1c-15 2.1-44.1 5.7-55.5 6.8v-424.4c16.2 1.6 37.3 4.2 54.7 6.6l64 224.9z"/>
			<path id="path8121" fill-rule="evenodd" class="s0" d="m768.9 85.4v130.4c0 56.1-25.1 85.3-85.6 85.5l-22.6 0.1v150.1c-16.2-0.4-46.2-2.1-57.7-2.7v-442.3c33.7-2.1 70.3-3.5 80.3-3.5 57.4 0 85.6 27.5 85.6 82.4zm-58.3 9.1c0-19.4-5.3-29.8-30.6-29.8-5.4 0-10.2 0.2-19.3 0.7v174.5l20.3-0.1c23.4 0 29.6-9.7 29.6-28.7z"/>
			<path id="path8125" class="s0" d="m1213 47.3c51.2 11.5 95.1 24 135.9 39.4v54.4c-13-4-27.1-8.2-42.1-12.4v254.1c-15.6 5-39.1 11.6-51.7 14.8v-282.2c-13.7-3.3-27.8-6.3-42.1-9.1z"/>
		</g>
	</g>
</svg>