<svg version="1.2" xmlns="http://www.w3.org/2000/svg" viewBox="0 0 1558 173" width="1558" height="173">
	<title>Eastman_Chemical_Company_logo-svg</title>
	<style>
		.s0 { fill: #231f20 } 
	</style>
	<g id="Layer">
		<g id="Layer">
			<path id="Layer" class="s0" d="m1348.4 2.9h109.9l35.3 117.2h0.6v-117.2h63.1v166.3h-108l-37.3-120.6h-0.6v120.6h-63c0 0 0-166.3 0-166.3zm-175.3 166.1l26.7-63v-63.5h32.1v63.5l28.9 63h76l-68.3-166.1h-101.1l-67.2 166.1c0 0 72.9 0 72.9 0zm-359-166.1h108.5l25 91h0.5l24.7-91h108.2v166.3h-66.3v-130.6h-1.1l-37.5 130.6h-61.2l-37.4-130.6h-0.1l0.1 130.6h-63.4c0 0 0-166.3 0-166.3zm-13.5 49h-63.1v117.2h-73.5v-117.2h-63.2v-49h199.8c0 0 0 49 0 49zm-213.7-3.5c-16.5-5-36-8.3-56.8-8.3-11.5 0-31.5 0.2-31.5 10.9 0 21.7 100.6 1.2 100.6 65.3 0 44.5-50.7 55.7-93.2 55.7-28.2 0-51.5-2.4-78.9-7.8v-43.2c19.7 7.2 43.8 11 65.7 11 17.3 0 32.9-3.1 32.9-11.4 0-22.4-100.6-2.2-100.6-66.7 0-45.8 54.9-53.9 98.4-53.9 20.6 0 43.3 2.2 63.4 5.8 0 0 0 42.6 0 42.6zm-586.1-45.5h165.8v40h-94v23.6h89.9v40h-89.9v22.6h95.9v40.1h-167.7c0 0 0-166.3 0-166.3z"/>
			<path id="Layer" class="s0" d="m254 169.4l26.7-63v-63.5h32.1v63.5l28.9 63h76l-68.3-166.2h-101.1l-67.2 166.2c0 0 72.9 0 72.9 0z"/>
		</g>
	</g>
</svg>