<svg version="1.2" xmlns="http://www.w3.org/2000/svg" viewBox="0 0 1586 433" width="1586" height="433">
	<title>Eaton_Corporation_logo-svg</title>
	<style>
		.s0 { fill: #1175c7 } 
	</style>
	<path id="path674-5" class="s0" d="m513.3 83.1l38.4 138.2h-79.5zm66.7 235.1l32.8 114.6h-204.3l35-114.6zm230.6-85.3c0 125.2 84.5 192.3 96.8 199.9h-199.2v-309.4h-123.7v-123.1h392.2c-103 26.7-166.1 128.5-166.1 232.6zm234.6 89.1c-45.8 0-82.9-39.9-82.9-89.4 0-49.5 37.1-89.4 82.9-89.4 45.9 0 82.9 39.9 82.9 89.4 0 49.5-37 89.4-82.9 89.4zm411.7-49.8v-271.9h128.4v432.5h-205.6l-78.9-271.1h-0.9v271.1h-127.3v-432.5h203.9l79.6 271.9zm-1456.6 160.6v-432.5h377l-37.2 123.1h-192.7v35.2h182.6l-35.1 116.3h-147.5v36.6h136.4l-36.8 121.3z"/>
</svg>