<svg version="1.2" xmlns="http://www.w3.org/2000/svg" viewBox="0 0 1535 295" width="1535" height="295">
	<title>Ecolab-svg</title>
	<style>
		.s0 { fill: #0098cc } 
	</style>
	<g id="g10">
		<path id="path44" fill-rule="evenodd" class="s0" d="m568.3 1h17.6c53 5.1 89.9 29.7 113.7 66.6 24.2 37.7 33 94.4 10.8 142.1-22 47.3-61.1 77.9-124.5 85.3h-17.6c-42.2-2.9-73.6-22.2-97-46.1-23.6-24-41.1-58.7-41.1-100.9 0-85 61.1-137.7 138.1-147zm9.8 111.7c-5.8-0.5-9.5 1-13.7 2-29.4-17.4-61.8-36.9-91.1-51 25.8 20.5 53.6 39.1 77.4 61.8-2.9 0.4-2.3 4.2-4.9 4.9-28.8-15.1-58.6-34.2-86.3-47.1 27.6 21.1 55.7 41.7 82.4 63.7-0.7 5.6 0.8 8.9 1.9 12.8-16.1 30.5-36.5 62.1-50 92.1 20-26.1 38.4-53.7 60.8-77.4 0.4 2.8 4.2 2.3 4.9 4.9-13.9 29.5-34.2 57.9-46.1 86.2 20.2-28.2 41.7-55 62.7-82.3 5.9 0.6 9.8-0.7 13.8-2 29.3 17.1 61.6 36.3 91.1 50-26.4-19.4-52.4-39-77.4-59.8 2.6-1 2.6-4.5 4.9-5.9 29 14.5 58.3 33.8 86.2 46.1-27.6-20.4-54.7-41.3-81.3-62.7-0.5-4.8-2-8.5-2-13.7 16.4-30 36.1-61.9 50-91.2-20.1 26-39.3 52.9-60.8 77.4-1.7-1.8-4.1-3-5.8-4.9 15.3-28.4 33.9-58.8 47-86.2-21.2 27.5-41.7 55.6-63.7 82.3z"/>
		<path id="path48" fill-rule="evenodd" class="s0" d="m1004.3 8.8h134.2c28.4 93.8 58.3 186.1 87.3 279.3h-102c-2.3-13.3-6.1-25.1-9.7-37.2h-87.3c-3.9 11.7-7.3 24-9.8 37.2h-101.8c30-92.7 57.6-188 89.1-279.3zm40.2 172.5h51.9c-9.1-31.3-15.7-65.3-26.4-95-9 31.2-16.9 63.5-25.5 95z"/>
		<path id="path52" fill-rule="evenodd" class="s0" d="m1 9.8c69.9 0.7 142.4-1.3 210.7 1-0.7 25.8 1.3 54.2-1 78.4h-116.6v23.5h101.9c-0.7 23.9 1.3 50.3-1 72.5h-100.9v22.6c38.9 0.6 80.3-1.3 117.6 1-0.7 26.1 1.3 54.8-1 79.3h-209.7z"/>
		<path id="path56" fill-rule="evenodd" class="s0" d="m426.2 9.8v79.4c-49.3-2.8-90.3 1.3-104.8 33.3-13.6 30-0.2 63.3 23.5 76.5 19.2 10.6 49.2 9.3 81.3 8.8v80.3c-90.6 5.4-153.7-6.9-186.1-57.8-26.1-40.8-28-103.1-7.9-147 28.6-62.2 95-81.6 194-73.5z"/>
		<path id="path68" fill-rule="evenodd" class="s0" d="m736.8 9.8h92.1v197c31.7 2.3 67.6 0.3 100.9 1-8.8 26.7-17.2 53.9-26.4 80.3h-167.5v-275.3c-0.1-1.4-0.2-2.8 0.9-3z"/>
		<path id="path72" fill-rule="evenodd" class="s0" d="m1233.6 9.8c11.1 0.2 153.3-15 199.9 11.8 27.6 15.9 47.5 60.4 25.4 98-6.6 11.3-16.8 18.3-31.3 23.5 24.8 10.8 47.1 27.1 49 60.8 6.4 113.2-141.9 78.9-244 84.2v-275.3c-0.1-1.4-0.1-2.8 1-3zm137.2 99c10.5-9.3 7.7-29.3-3-35.3-11-6.1-36.9-2.9-44.1-2.9v43.1c16.8 0 37.6 3.4 47.1-4.9zm5.8 109.8c8.7-8.7 8.1-26.6 1-35.3-9.6-12-33.7-6.5-52.9-7.9-2.3 14.7-0.3 49.3-1 50 20.7-1.2 42.8 3.3 52.9-6.8z"/>
		<path id="path3138" fill-rule="evenodd" class="s0" d="m1509.1 13.4q6.5 0 12.6 3.3 6.2 3.3 9.6 9.5 3.4 6.2 3.4 12.8 0 6.6-3.4 12.7-3.3 6.1-9.4 9.5-6.1 3.4-12.8 3.4-6.6 0-12.7-3.4-6.1-3.4-9.5-9.5-3.3-6.1-3.3-12.7 0-6.6 3.4-12.8 3.4-6.2 9.6-9.5 6.1-3.3 12.5-3.3zm0 4.3q-5.3 0-10.4 2.7-5.1 2.8-8 7.9-2.9 5.2-2.9 10.7 0 5.6 2.8 10.6 2.9 5.1 7.9 7.9 5.1 2.8 10.6 2.8 5.6 0 10.7-2.8 5-2.8 7.8-7.9 2.9-5 2.9-10.6 0-5.5-2.9-10.7-2.9-5.1-8-7.9-5.1-2.7-10.5-2.7zm-11.2 35.5v-27.6h9.5q4.8 0 7 0.8 2.2 0.8 3.5 2.7 1.2 1.9 1.2 4 0 3-2.1 5.3-2.2 2.2-5.7 2.5 1.4 0.6 2.3 1.4 1.7 1.6 4.1 5.5l3.3 5.4h-5.4l-2.4-4.4q-2.9-5.1-4.7-6.4-1.2-0.9-3.5-0.9h-2.6v11.7zm4.4-15.5h5.4q3.9 0 5.3-1.2 1.4-1.1 1.4-3 0-1.3-0.7-2.2-0.7-1-1.9-1.5-1.2-0.4-4.4-0.4h-5.1z"/>
	</g>
</svg>