<svg version="1.2" xmlns="http://www.w3.org/2000/svg" viewBox="0 0 1549 418" width="1549" height="418">
	<title>Edison_International_Logo-svg</title>
	<style>
		.s0 { fill: #ffffff;stroke: #ffffff;stroke-width: 0 } 
		.s1 { fill: #ffffff } 
		.s2 { fill: none;stroke: #ffffff;stroke-width: 2.3 } 
		.s3 { fill: #ffd046 } 
		.s4 { fill: #006a53 } 
		.s5 { fill: #808285 } 
		.s6 { fill: none;stroke: #808285;stroke-width: 2.3 } 
	</style>
	<g id="layer1">
		<g id="g14569">
			<path id="rect32630" class="s0" d="m0.7 0.7h416.3v416.9h-416.3z"/>
			<path id="path31966" class="s1" d="m513.9 276.8h15.4v81.7h-15.4z"/>
			<path id="path31970" class="s1" d="m560.9 358.5v-81.7h13.7l42.8 56.2h0.2v-56.2h6.6v81.7h-6.8l-49.7-65.2h-0.3v65.2z"/>
			<path id="path31974" class="s1" d="m665.1 358.5v-76.4h-16.2v-5.3h47.9v5.3h-16.3v76.4z"/>
			<path id="path31978" class="s1" d="m721.7 358.5v-81.7h48.3v5.3h-32.9v31.5h31v5.3h-31v34.3h33.4v5.3z"/>
			<path id="path31982" class="s1" d="m798 358.5v-81.7h35.3c14.9 0 23.2 10.9 23.2 24 0 12.5-9.1 18-21.3 19.5l21.7 38.2h-16.9l-22.3-41.9h1c13.6 0 22.4-5.3 22.4-17.5 0-9.1-4.4-18.3-19.4-18.3h-8.3v77.7z"/>
			<path id="path31986" class="s1" d="m883.7 358.5v-81.7h13.7l42.8 56.2h0.2v-56.2h6.6v81.7h-6.8l-49.7-65.2h-0.3v65.2z"/>
			<path id="path31990" fill-rule="evenodd" class="s1" d="m1033.9 358.5h-15.7l-8.7-21.3h-28.1l-8.2 21.3h-7.2l33.3-84h0.2zm-38.5-56.6l-11.9 30h23.8z"/>
			<path id="path31994" class="s1" d="m1059.9 358.5v-76.4h-16.2v-5.3h47.9v5.3h-16.3v76.4z"/>
			<path id="path31996" class="s1" d="m1118.3 276.8h15.4v81.7h-15.4z"/>
			<path id="path32000" fill-rule="evenodd" class="s1" d="m1199.9 360.7c-22.4 0-40.5-19.2-40.5-43.1 0-23.8 18.1-43.1 40.5-43.1 22.4 0 40.5 19.3 40.5 43.1 0 23.9-18.1 43.1-40.5 43.1zm24-43.1c0-20.9-10.7-37.8-24-37.8-13.3 0-24 16.9-24 37.8 0 20.9 10.7 37.8 24 37.8 13.3 0 24-16.9 24-37.8z"/>
			<path id="path32004" class="s1" d="m1265.5 358.5v-81.7h13.7l42.7 56.2h0.3v-56.2h6.6v81.7h-6.9l-49.6-65.2h-0.3v65.2c0 0-6.5 0-6.5 0z"/>
			<path id="path32008" fill-rule="evenodd" class="s1" d="m1415.7 358.5h-15.7l-8.7-21.3h-28.1l-8.2 21.3h-7.2l33.3-84h0.2c0 0 34.4 84 34.4 84zm-38.6-56.6l-11.8 30h23.8z"/>
			<path id="path32012" class="s1" d="m1436.2 358.5v-81.7h15.4v75.2h32.8v6.5z"/>
			<path id="path32016" class="s1" d="m512.7 230v-188.3h111.3v12.2h-75.9v72.6h71.5v12.2h-71.5v79.1h77.1v12.2z"/>
			<path id="path32020" fill-rule="evenodd" class="s1" d="m670.5 41.7h61.3c68 0 100.3 48.2 100.3 97.6 0 60.2-38.7 90.7-93.6 90.7h-68c0 0 0-188.3 0-188.3zm35.5 176.1h22c56.7 0 68.6-41 68.6-77.9 0-47.4-22-86-66.8-86h-23.8z"/>
			<path id="path32024" class="s1" d="m874.4 230v-188.3h35.5v188.3c0 0-35.5 0-35.5 0z"/>
			<path id="path32028" class="s1" d="m974.5 196.3c9.8 15.7 20.3 24.1 38.9 24.1 16.3 0 33.7-13.1 33.7-32.5 0-54.7-88.3-28.8-88.3-96.3 0-30.2 25.3-55.2 60.4-55.2 23.3 0 46.8 12.8 56.7 33.8l-12.2 7.8c-7.3-15.1-18.6-26.7-38.7-26.7-19.4 0-30.8 14.8-30.8 32.8 0 44.2 88.4 25.6 88.4 93.6 0 34.6-30.3 57.5-61.9 57.5-25.6 0-46.2-7.5-59.3-29.3z"/>
			<path id="path32032" fill-rule="evenodd" class="s1" d="m1206.4 235.2c-51.6 0-93.4-44.4-93.4-99.4 0-54.9 41.8-99.3 93.4-99.3 51.7 0 93.5 44.4 93.5 99.3 0 55-41.8 99.4-93.5 99.4zm-0.1-12.2c45.3 0 55.5-50.5 55.5-87.2 0-36.6-10.2-87.1-55.5-87.1-45.4 0-55.2 50.5-55.2 87.1 0 36.7 9.8 87.2 55.2 87.2z"/>
			<path id="path32036" class="s1" d="m1338.3 230v-188.3h31.7l98.5 129.6h0.6v-129.6h15.1v188.3h-15.7l-114.5-150.2h-0.6v150.2c0 0-15.1 0-15.1 0z"/>
			<path id="path32040" class="s2" d="m1504.7 296.3c0-11.6 9.4-21 21-21 11.6 0 21 9.4 21 21 0 11.6-9.4 21-21 21-11.6 0-21-9.4-21-21z"/>
			<path id="path32044" fill-rule="evenodd" class="s1" d="m1515.2 307.9h0.9c1.7 0 2.1-0.3 2.1-2.2v-20.2c0-2-0.4-2.3-2.1-2.3h-0.9v-0.9c1.7 0.1 3.4 0.2 5 0.2 2.2 0 3.9-0.2 5.6-0.2 4.8 0 9.2 1.5 9.2 7.2 0 3.5-2.2 6.3-6.6 7.3 0.6 0.4 1.4 1.1 2.2 2.2l5.2 6.8c1.5 1.9 2.3 2 3.7 2.1v0.9c-1-0.1-2-0.2-3-0.2-1 0-2 0.1-2.9 0.2l-7.2-9.3c-1.3-1.8-1.4-2-4.5-2v8.2c0 1.9 0.4 2.2 2.1 2.2h0.9v0.9c-1.7-0.1-3.4-0.2-4.7-0.2-1.6 0-3.3 0.1-5 0.2zm6.7-11.6c0.5 0 1.1 0.1 1.8 0.1 6.3 0 7.3-3.8 7.3-6.2 0-3.3-0.8-6.6-7.7-6.6-1.2 0-1.4 0-1.4 0.9 0 0 0 11.8 0 11.8z"/>
			<path id="path32046" class="s1" d="m0.7 0.7h416.3v416.7h-416.3z"/>
			<path id="path32050" class="s3" d="m172.8 317l-171.9 38.5h-0.2v-354.8h354.8l-41.5 170.4-55.7-170.2 7.9 169.7-88.8-123.2 53.5 145-177.9-139.6 140.5 178-146.1-53.3 127.4 93.3-173.8-14.8c0 0 171.8 61 171.8 61z"/>
			<path id="path32054" class="s4" d="m0.7 355.7h354.8v-355h61.5v417h-416.3z"/>
			<path id="path32056" class="s5" d="m513.9 276.8h15.4v81.7h-15.4z"/>
			<path id="path32060" class="s5" d="m560.9 358.5v-81.7h13.7l42.8 56.2h0.2v-56.2h6.6v81.7h-6.8l-49.7-65.2h-0.3v65.2z"/>
			<path id="path32064" class="s5" d="m665.1 358.5v-76.4h-16.2v-5.3h47.9v5.3h-16.3v76.4z"/>
			<path id="path32068" class="s5" d="m721.7 358.5v-81.7h48.3v5.3h-32.9v31.5h31v5.3h-31v34.3h33.4v5.3z"/>
			<path id="path32072" class="s5" d="m798 358.5v-81.7h35.3c14.9 0 23.2 10.9 23.2 24 0 12.5-9.1 18-21.3 19.5l21.7 38.2h-16.9l-22.3-41.9h1c13.6 0 22.4-5.3 22.4-17.5 0-9.1-4.4-18.3-19.4-18.3h-8.3v77.7z"/>
			<path id="path32076" class="s5" d="m883.7 358.5v-81.7h13.7l42.8 56.2h0.2v-56.2h6.6v81.7h-6.8l-49.7-65.2h-0.3v65.2z"/>
			<path id="path32080" fill-rule="evenodd" class="s5" d="m1033.9 358.5h-15.7l-8.7-21.3h-28.1l-8.2 21.3h-7.2l33.3-84h0.2zm-38.5-56.6l-11.9 30h23.8z"/>
			<path id="path32084" class="s5" d="m1059.9 358.5v-76.4h-16.2v-5.3h47.9v5.3h-16.3v76.4z"/>
			<path id="path32086" class="s5" d="m1118.3 276.8h15.4v81.7h-15.4z"/>
			<path id="path32090" fill-rule="evenodd" class="s5" d="m1199.9 360.7c-22.4 0-40.5-19.2-40.5-43.1 0-23.8 18.1-43.1 40.5-43.1 22.4 0 40.5 19.3 40.5 43.1 0 23.9-18.1 43.1-40.5 43.1zm24-43.1c0-20.9-10.7-37.8-24-37.8-13.3 0-24 16.9-24 37.8 0 20.9 10.7 37.8 24 37.8 13.3 0 24-16.9 24-37.8z"/>
			<path id="path32094" class="s5" d="m1265.5 358.5v-81.7h13.7l42.7 56.2h0.3v-56.2h6.6v81.7h-6.9l-49.6-65.2h-0.3v65.2c0 0-6.5 0-6.5 0z"/>
			<path id="path32098" fill-rule="evenodd" class="s5" d="m1415.7 358.5h-15.7l-8.7-21.3h-28.1l-8.2 21.3h-7.2l33.3-84h0.2c0 0 34.4 84 34.4 84zm-38.6-56.6l-11.8 30h23.8z"/>
			<path id="path32102" class="s5" d="m1436.2 358.5v-81.7h15.4v75.2h32.8v6.5z"/>
			<path id="path32106" class="s5" d="m512.7 230v-188.3h111.3v12.2h-75.9v72.6h71.5v12.2h-71.5v79.1h77.1v12.2z"/>
			<path id="path32110" fill-rule="evenodd" class="s5" d="m670.5 41.7h61.3c68 0 100.3 48.2 100.3 97.6 0 60.2-38.7 90.7-93.6 90.7h-68c0 0 0-188.3 0-188.3zm35.5 176.1h22c56.7 0 68.6-41 68.6-77.9 0-47.4-22-86-66.8-86h-23.8z"/>
			<path id="path32114" class="s5" d="m874.4 230v-188.3h35.5v188.3c0 0-35.5 0-35.5 0z"/>
			<path id="path32118" class="s5" d="m974.5 196.3c9.8 15.7 20.3 24.1 38.9 24.1 16.3 0 33.7-13.1 33.7-32.5 0-54.7-88.3-28.8-88.3-96.3 0-30.2 25.3-55.2 60.4-55.2 23.3 0 46.8 12.8 56.7 33.8l-12.2 7.8c-7.3-15.1-18.6-26.7-38.7-26.7-19.4 0-30.8 14.8-30.8 32.8 0 44.2 88.4 25.6 88.4 93.6 0 34.6-30.3 57.5-61.9 57.5-25.6 0-46.2-7.5-59.3-29.3z"/>
			<path id="path32122" fill-rule="evenodd" class="s5" d="m1206.4 235.2c-51.6 0-93.4-44.4-93.4-99.4 0-54.9 41.8-99.3 93.4-99.3 51.7 0 93.5 44.4 93.5 99.3 0 55-41.8 99.4-93.5 99.4zm-0.1-12.2c45.3 0 55.5-50.5 55.5-87.2 0-36.6-10.2-87.1-55.5-87.1-45.4 0-55.2 50.5-55.2 87.1 0 36.7 9.8 87.2 55.2 87.2z"/>
			<path id="path32126" class="s5" d="m1338.3 230v-188.3h31.7l98.5 129.6h0.6v-129.6h15.1v188.3h-15.7l-114.5-150.2h-0.6v150.2c0 0-15.1 0-15.1 0z"/>
			<path id="path32130" class="s6" d="m1504.7 296.3c0-11.6 9.4-21 21-21 11.6 0 21 9.4 21 21 0 11.6-9.4 21-21 21-11.6 0-21-9.4-21-21z"/>
			<path id="path32134" fill-rule="evenodd" class="s5" d="m1515.2 307.9h0.9c1.7 0 2.1-0.3 2.1-2.2v-20.2c0-2-0.4-2.3-2.1-2.3h-0.9v-0.9c1.7 0.1 3.4 0.2 5 0.2 2.2 0 3.9-0.2 5.6-0.2 4.8 0 9.2 1.5 9.2 7.2 0 3.5-2.2 6.3-6.6 7.3 0.6 0.4 1.4 1.1 2.2 2.2l5.2 6.8c1.5 1.9 2.3 2 3.7 2.1v0.9c-1-0.1-2-0.2-3-0.2-1 0-2 0.1-2.9 0.2l-7.2-9.3c-1.3-1.8-1.4-2-4.5-2v8.2c0 1.9 0.4 2.2 2.1 2.2h0.9v0.9c-1.7-0.1-3.4-0.2-4.7-0.2-1.6 0-3.3 0.1-5 0.2zm6.7-11.6c0.5 0 1.1 0.1 1.8 0.1 6.3 0 7.3-3.8 7.3-6.2 0-3.3-0.8-6.6-7.7-6.6-1.2 0-1.4 0-1.4 0.9 0 0 0 11.8 0 11.8z"/>
		</g>
	</g>
</svg>