<svg version="1.2" xmlns="http://www.w3.org/2000/svg" viewBox="0 0 1452 1451" width="1452" height="1451">
	<title>Edwards_Lifesciences-svg</title>
	<defs>
		<clipPath clipPathUnits="userSpaceOnUse" id="cp1">
			<path d="m-9163.54-3147.05h10667v5648.36h-10667z"/>
		</clipPath>
		<clipPath clipPathUnits="userSpaceOnUse" id="cp2">
			<path d="m2.02 0.49h1449.84v1450.01h-1449.84z"/>
		</clipPath>
		<clipPath clipPathUnits="userSpaceOnUse" id="cp3">
			<path d="m-13697.44-5702.22h15944.43v8442.84h-15944.43z"/>
		</clipPath>
		<clipPath clipPathUnits="userSpaceOnUse" id="cp4">
			<path d="m0.6 0h1449.11v1449.21h-1449.11z"/>
		</clipPath>
	</defs>
	<style>
		.s0 { fill: none;stroke: #ffffff;stroke-width: 18.1 } 
		.s1 { fill: #ffffff } 
		.s2 { fill: #827a71 } 
	</style>
	<g id="layer1">
		<g id="g112">
			<g id="Clip-Path: g114" clip-path="url(#cp1)">
				<g id="g114">
					<g id="g4428">
						<g id="g4459">
							<g id="g74">
								<g id="Clip-Path: g76" clip-path="url(#cp2)">
									<g id="g76">
										<g id="g82">
											<path id="path84" class="s0" d="m975.4 1455.2c-338.4 0-611.9-273.6-611.9-612 0-338.4 273.5-612 611.9-612 338.4 0 611.9 273.6 611.9 612 0 338.4-273.5 612-611.9 612zm119.7-728.5c-200.3 0-362.2-161.9-362.2-362.1 0-200.3 161.9-362.2 362.2-362.2 200.2 0 362.1 161.9 362.1 362.2 0 200.2-161.9 362.1-362.1 362.1zm-731.6-726.2v1450m222.1-1450l-0.1 224.9m-583.5 0.9h1450m-1450 993.5h1450m-328.1-1223.2l-127.4 1456.8m25.1-532.5h430.4"/>
										</g>
									</g>
								</g>
							</g>
							<g id="g86">
								<g id="Clip-Path: g88" clip-path="url(#cp3)">
									<g id="g88">
										<g id="g94">
											<path id="path96" class="s1" d="m361.8 1222.8v-45.6h80.4c6.5-1 16.4-7.1 17.3-14.9v-879c-0.1-9.4-10.8-16.9-19.8-17.5h-77.9v-45.6h639.9l18.1 245.7h-36.5l-16.3-85.5c-14-66.1-73.7-114.5-142.1-114.5v-0.1h-230.1v419.5h144.6c46.2-7.5 64.7-43.4 73.9-87.8l14.2-70.9h33.7v377.4h-31.2l-16.8-85.4c-10.3-50.5-35.4-87.5-87.6-87.5h-130.8v405.2c0 22.2 17.9 40.4 39.8 40.9h199.7c74.1-3.6 138.7-56.8 156.6-129.3l23.8-136.3h38.6l-27.3 311.2z"/>
										</g>
										<path id="path98" class="s2" d="m0.6 0h1449.1v1449.2h-1449.1z"/>
									</g>
								</g>
							</g>
							<g id="g100">
								<g id="Clip-Path: g102" clip-path="url(#cp4)">
									<g id="g102">
										<g id="g108">
											<path id="path110" class="s0" d="m973.5 1454c-338.2 0-611.6-273.5-611.6-611.7 0-338.3 273.4-611.7 611.6-611.7 338.2 0 611.6 273.4 611.6 611.7 0 338.2-273.4 611.7-611.6 611.7zm119.6-728.1c-200.1 0-361.9-161.8-361.9-362 0-200.2 161.8-362 361.9-362 200.2 0 362 161.8 362 362 0 200.2-161.8 362-362 362zm-731.2-725.9v1449.3m222-1449.3l-0.1 224.8m-583.2 1h1449.3m-1449.3 992.9h1449.3m-327.8-1222.6l-127.4 1456.2m25-532.3h430.2"/>
										</g>
									</g>
								</g>
							</g>
							<g id="g120">
								<path id="path122" class="s1" d="m360.3 1221.7v-45.6h80.2c6.6-1 16.5-7 17.4-14.9v-878.5c-0.1-9.4-10.8-17-19.9-17.5h-77.7v-45.7h639.4l18.2 245.7h-36.5l-16.4-85.5c-13.8-66-73.5-114.5-141.8-114.5h-230.1v419.3h144.6c46.1-7.5 64.6-43.5 73.9-87.8l14.2-70.9h33.5v377.2h-31.1l-16.7-85.3c-10.3-50.5-35.5-87.5-87.6-87.5h-130.8v405.1c0 22.2 17.9 40.3 39.9 40.8h199.5c74.1-3.5 138.7-56.8 156.5-129.2l23.8-136.3h38.6l-27.3 311.1z"/>
							</g>
						</g>
					</g>
				</g>
			</g>
		</g>
	</g>
</svg>