<svg version="1.2" xmlns="http://www.w3.org/2000/svg" viewBox="0 0 1551 659" width="1551" height="659">
	<title>Apex-Header-svg</title>
	<style>
		.s0 { fill: #44b8f3 } 
		.s1 { fill: #1a3673 } 
	</style>
	<g id="Layer">
		<g id="Layer">
			<path id="Layer" class="s0" d="m309.9 144.4l-82.2-82.2-82.2 82.2-31.1-31.1 113.3-113.3 113.3 113.3z"/>
		</g>
		<path id="Layer" fill-rule="evenodd" class="s1" d="m0 173.3h166.1v46.9h-116.1v56.8h100.1v47.3h-100.1v58.4h116.1v47.2h-166.1zm203.2-18.8h48.9v238.9 36.6h-48.9zm78.7 179.7c0-56 41.7-101.7 96.9-101.7 54.8 0 96.5 42.5 96.5 97.7 0 6-0.4 12.8-1.2 16h-142.1c4.8 26.8 25.2 46.1 54.8 46.1 19.2 0 35.6-8.4 46.8-20l25.3 33.2c-14.5 16.8-41.7 30-74.1 30-59.6 0-102.9-45.6-102.9-101.3zm50.9-18.8h92.4c-5.6-27.2-22.8-41.2-45.6-41.2-24.4 0-41.2 16.8-46.8 41.2zm350.3-77.3l-69.2 191.8h-63.3l-69.6-191.8h53.6l48.9 148.2 49.6-148.2zm154.3 171c-14.1 16.4-33.7 26.4-58.5 26.4-50.8 0-92.1-41.6-92.1-101.3 0-58 38.9-101.7 92.1-101.7 25.2 0 44.8 9.2 58.5 24.9v-19.3h49.2v191.8h-49.3zm0.1-75.3c0-30.8-21.3-55.2-50.5-55.2-29.6 0-51.2 24.4-51.2 55.2 0 30.9 21.6 55.7 51.2 55.7 29.2 0 50.5-24.8 50.5-55.7zm136.5 96.1h-48.8v-191.7h48.8v18.8c12-15.6 30.5-24.4 54.1-24.4 44.4 0 72.8 31.2 72.8 81.2v116.1h-48.8v-108.9c0-26-15.2-42.4-38.8-42.4-24.5 0-39.3 16.4-39.3 42.4zm256.1-151.3c-32 0-53.7 24.4-53.7 55.2 0 30.9 22.1 55.7 53.3 55.7 19.6 0 35.2-6.8 47.2-18.8l24.8 36c-15.2 16.8-42.8 28.8-73.2 28.8-56.9 0-100.9-45.6-100.9-101.3 0-56 44-101.6 100.1-101.6 32.8 0 58.8 11.2 75.6 28.8l-28 34.8c-12-11.6-26.4-17.6-45.2-17.6zm84.9 55.7c0-56.1 41.6-101.7 96.8-101.7 54.9 0 96.5 42.4 96.5 97.6 0 6.1-0.4 12.9-1.2 16.1h-142.1c4.8 26.8 25.2 46 54.8 46 19.2 0 35.7-8.4 46.9-20l25.2 33.2c-14.4 16.8-41.6 30-74.1 30-59.6 0-102.8-45.6-102.8-101.2zm50.8-18.9h92.5c-5.6-27.2-22.9-41.2-45.7-41.2-24.4 0-41.2 16.8-46.8 41.2zm-512.9 267.7l-70.7-0.1v72.1h-33.5v-171.8h33.5v68.4h70.7v-68.3h33.8v171.7h-33.8zm55.1 8.1c0-37.5 27.9-68.1 64.9-68.1 36.7 0 64.5 28.4 64.5 65.4 0 4-0.2 8.6-0.8 10.7h-95.1c3.2 18 16.9 30.9 36.7 30.9 12.9 0 23.9-5.7 31.4-13.4l16.9 22.2c-9.7 11.3-27.9 20.1-49.6 20.1-40 0-68.9-30.6-68.9-67.8zm34-12.6h61.9c-3.7-18.2-15.2-27.6-30.5-27.6-16.4 0-27.6 11.2-31.4 27.6zm212.7 62.7c-9.3 11-22.5 17.7-39.1 17.7-34 0-61.6-27.9-61.6-67.8 0-38.9 26-68.1 61.6-68.1 16.9 0 30 6.2 39.2 16.6v-12.8h32.9v128.3h-33zm0.1-50.2c0-20.5-15.3-37.1-34.1-37.1-18.8 0-34 16.6-34 37.1 0 20.5 15.2 37.1 34 37.1 18.8 0 34.1-16.6 34.1-37.1zm60.7-120.2h32.7v166.1 18.3h-32.7zm54.6 56h22.8v-33.2h32.7v33.2h34.8v29h-34.6v54.4c0 12 5.1 17.9 14.8 17.9 5.9 0 11.8-2.7 15-6.4l14.7 24.4c-7.2 6.9-19.3 12.8-35.1 12.8-26 0-42.6-16.3-42.6-47.7v-55.4h-22.5zm153.1 128.3h-32.7v-184.4h32.7v68.6c8-10.4 20.4-16.3 36.2-16.3 29.7 0 48.8 20.9 48.8 54.4v77.7h-32.7v-72.9c0-17.4-10.2-28.4-26-28.4-16.4 0-26.3 11-26.3 28.4zm98-242.6c-1-1.4-3.2-2.7-5.6-2.7-2.7 0-4.4 1.2-4.4 3.1 0 5 12.6 2.7 12.6 10.7 0 4-3.2 6.7-8.3 6.7-4.2 0-7-1.6-8.5-3.8l2.3-2.2c1.5 2 3.7 3 6.3 3 3.1 0 4.8-1.3 4.8-3.4 0-5.6-12.6-3.1-12.6-10.9 0-3.7 3.2-6.2 7.9-6.2 3.5 0 6.4 1.6 7.8 3.5zm9.3-0.2v17.6h-3.1v-22.6h3.6l8.2 12.9 8.1-12.9h3.3v22.6h-3.2v-17.6l-8.4 13.2z"/>
	</g>
</svg>