<svg version="1.2" baseProfile="tiny-ps" xmlns="http://www.w3.org/2000/svg" viewBox="0 0 1631 889" width="1631" height="889">
	<title>lilly-svg</title>
	<style>
		tspan { white-space:pre }
		.shp0 { fill: #d52b1e } 
	</style>
	<path id="Lilly" fill-rule="evenodd" class="shp0" d="M1631 509.33C1568.09 571.95 1371.96 744.05 1320.04 888.89L1255.76 872.34C1276.77 812.36 1340.03 719.07 1410.57 647.06C1395.58 652.74 1379.9 654.83 1367.35 654.83C1348.29 654.83 1333.47 649.09 1324.57 638.28C1318.14 630.51 1314.9 620.35 1314.9 608.3C1314.9 605.69 1315.1 603.03 1315.45 600.09C1253.54 637.78 1203.7 654.83 1154.93 654.83C1116.99 654.83 1085 638.28 1070.28 609.29C1008.78 639.76 949.85 654.83 900.54 654.83C854.65 654.83 817.7 636.68 800.73 603.55C738.56 638.5 685.71 654.83 643.64 654.83C619.42 654.83 600.23 648.11 587.87 635.42C578.81 626.09 574.01 613.46 573.35 598.91C533.48 625.13 475.32 654.83 415.58 654.83C354.56 654.83 313.6 633.86 281.83 613.13C231.14 641.16 175.4 654.83 116.45 654.83C71.88 654.83 0 636.25 0 572.39C0 520.81 53.82 485.91 125.78 485.91C187.02 485.91 246 511.72 283.01 538.46C318.15 510.51 355.03 471.36 398.5 416.1C388.94 416.6 379.61 416.87 370.43 416.87C287.13 416.87 217.58 392.36 179.63 349.36C159.15 326.17 149.45 298.93 149.45 269.64C149.45 153.82 295.72 63.96 423.7 50.76C432.19 69.92 439.77 84.69 447.54 102.26C321.09 116.95 215.79 191.79 215.79 264.89C215.79 312.93 269.86 361.2 384.52 361.2C404.15 361.2 423.9 359.33 443.34 356.61C544.55 216.93 699.71 0 833.16 0C872.67 0 893.29 23.99 893.29 56.14C893.29 122.19 836.51 193.29 799.49 230.38C741.31 288.83 636.14 375.75 489.19 404.54C432.02 484.02 385.04 536.76 338.06 574.83C366.56 590.21 393.22 599.6 425.1 599.6C504.15 599.6 580.87 527.2 640.81 465.87L642.93 463.84L689.66 500.35L687.49 502.88C660.99 533.27 636.58 565.36 636.58 583.32C636.58 597.02 648.09 599.71 658.03 599.71C688.34 599.71 734.99 580.13 789.94 546.34L789.94 545.87C796 410.12 981.26 202.57 1093.73 202.57C1125.47 202.57 1143.73 218.36 1143.73 246.09C1143.73 314.11 1026.29 460.03 855.53 571.65L855.53 571.73C864.38 590.73 884.72 599.9 919.24 599.9C946.2 599.9 998.84 587.87 1061.5 555.15C1068.77 484.82 1108.61 409.32 1159.14 355.51C1209.85 301.62 1266.69 266.57 1315.84 266.57C1346.12 266.57 1364.03 283.29 1364.03 309.45C1364.03 368.77 1295.13 470.24 1129.15 576.48C1136.48 590.73 1150.76 599.71 1172.92 599.71C1222.34 599.71 1309.44 546.94 1377.32 482.07L1426.03 519.93C1405.21 545.16 1384.18 572.94 1384.87 588.86C1385.03 594.02 1388.52 597.45 1396.7 597.45C1446.7 597.45 1525.45 531.49 1584.49 473.23L1631 509.33ZM854.65 506.53C956.88 429.33 1064.24 316.91 1075.69 270.77C1076.08 269.26 1076.43 267.77 1076.38 266.37C1076.24 263.35 1074.59 260.64 1070.75 260.64C1038.4 260.64 888.57 398.75 854.65 506.53ZM227.02 574.39C200.03 555.67 158.29 539.31 121.03 539.31C84.87 539.31 61.73 553.5 61.73 571.4C61.73 592.02 89.81 601.02 121.23 601.02C159.34 601.02 193.91 590.73 227.02 574.39ZM540.18 332.21C613.44 308.71 682.96 259.59 734.8 208.31C782.74 160.85 821.1 104.49 821.1 76.59C821.1 70.22 816.54 66.38 810.78 66.38C788.59 66.38 746.47 95.87 689.85 152.53C645.73 196.78 594.35 257.1 540.18 332.21ZM1125.75 518.91C1135.19 512.19 1145.41 504.33 1154.93 496.79C1228.33 438.06 1284.43 373.71 1295.49 338.11C1295.9 336.96 1296.89 333.69 1296.89 331.05C1296.89 327.37 1295.13 324.79 1291.76 324.79C1258.12 324.79 1149.94 432.44 1123.77 519.57L1123.77 519.93L1125.75 518.91ZM725.82 373.19C747.9 373.19 765.75 391.15 765.75 413.16C765.75 435.26 747.9 453.19 725.82 453.19C703.69 453.19 685.79 435.26 685.79 413.16C685.79 391.15 703.69 373.19 725.82 373.19Z" />
</svg>