<svg version="1.2" xmlns="http://www.w3.org/2000/svg" viewBox="0 0 1588 741" width="1588" height="741">
	<title>Emerson_Electric_Company-svg</title>
	<defs>
		<clipPath clipPathUnits="userSpaceOnUse" id="cp1">
			<path d="m761.78 75.07c-0.6 1.47-1.66 4.38 10.5 18.96l130.52 159.91c3.97 4.96 6.71 8.85 5.75 10.69l-0.24 0.41c-1.08 1.22-4.29 3.02-20.24-3.84l-49.69-20.69c0 0-98.41-120.7-99.77-124.2-0.28-1.27 0-2.16 0.22-2.61z"/>
		</clipPath>
		<linearGradient id="g1" x1="735.4" y1="120" x2="927.7" y2="232.3" gradientUnits="userSpaceOnUse">
			<stop offset="0" stop-color="#949698"/>
			<stop offset=".1" stop-color="#9fa1a3"/>
			<stop offset=".3" stop-color="#bcbebf"/>
			<stop offset=".5" stop-color="#e7e8e9"/>
			<stop offset=".6" stop-color="#dddedf"/>
			<stop offset=".8" stop-color="#c2c3c5"/>
			<stop offset="1" stop-color="#96989a"/>
			<stop offset="1" stop-color="#949698"/>
		</linearGradient>
		<clipPath clipPathUnits="userSpaceOnUse" id="cp2">
			<path d="m676.93 222.81q0.03 0 0.07 0c2.75 0 7.69 1.09 16.76 5.01l49.7 20.69 26.03 31.87-80.97-33.66-9.5-11.67c-3.99-4.95-6.53-9.13-5.47-10.96l0.13-0.24c0.47-0.49 1.33-1.04 3.25-1.04z"/>
		</clipPath>
		<linearGradient id="g2" x1="673.5" y1="223.9" x2="769.6" y2="280" gradientUnits="userSpaceOnUse">
			<stop offset="0" stop-color="#949698"/>
			<stop offset=".2" stop-color="#9fa1a3"/>
			<stop offset=".6" stop-color="#bcbebf"/>
			<stop offset="1" stop-color="#e7e8e9"/>
		</linearGradient>
		<clipPath clipPathUnits="userSpaceOnUse" id="cp3">
			<path d="m699.43 184.45c2.92 0 6.8 1.24 8.86 1.98l179.77 74.77c15.96 6.87 19.16 5.07 20.24 3.84q0.05-0.07 0.11-0.12l-22.39 37.86c-0.13 0.27-0.83 1.11-1.09 1.27-2.58 1.45-8.8-0.51-11.52-1.49l-179.65-74.74c-15.52-6.7-18.93-5.17-20.08-3.97-0.1 0.09-0.14 0.17-0.21 0.26l22.74-38.41c0.09-0.17 0.58-0.66 0.7-0.73 0.65-0.37 1.55-0.52 2.52-0.52z"/>
		</clipPath>
		<linearGradient id="g3" x1="694.3" y1="188.6" x2="887.2" y2="301.3" gradientUnits="userSpaceOnUse">
			<stop offset="0" stop-color="#004786"/>
			<stop offset=".2" stop-color="#004786"/>
			<stop offset=".3" stop-color="#175490"/>
			<stop offset=".4" stop-color="#5076a9"/>
			<stop offset=".5" stop-color="#7289b7"/>
			<stop offset=".6" stop-color="#5b7cad"/>
			<stop offset=".7" stop-color="#1a5691"/>
			<stop offset=".8" stop-color="#004786"/>
			<stop offset="1" stop-color="#004786"/>
		</linearGradient>
		<clipPath clipPathUnits="userSpaceOnUse" id="cp4">
			<path d="m644.43 277.8c2.75 0 7.68 1.11 16.75 5.04l49.71 20.68 26.04 31.87-1.49-0.61-0.54-0.21-78.95-32.86-9.5-11.67c-4-4.93-6.53-9.12-5.49-10.94l0.12-0.21c0.48-0.51 1.35-1.09 3.35-1.09z"/>
		</clipPath>
		<linearGradient id="g4" x1="641" y1="278.7" x2="737.1" y2="334.8" gradientUnits="userSpaceOnUse">
			<stop offset="0" stop-color="#949698"/>
			<stop offset=".2" stop-color="#9fa1a3"/>
			<stop offset=".6" stop-color="#bcbebf"/>
			<stop offset="1" stop-color="#e7e8e9"/>
		</linearGradient>
		<clipPath clipPathUnits="userSpaceOnUse" id="cp5">
			<path d="m611.84 332.8c2.76 0 7.7 1.1 16.76 5.02l49.71 20.69 94.19 115.42c2.74 3.41 4.89 6.31 5.65 8.41 0.5 1.87-0.33 2.97-0.33 2.97l-22.68 38.17c0.99-1.74 0.85-4.58-10.78-18.51l-130.49-159.94c-3.98-4.93-6.54-9.12-5.48-10.94l0.11-0.21c0.47-0.51 1.35-1.08 3.34-1.08z"/>
		</clipPath>
		<linearGradient id="g5" x1="589.1" y1="367.5" x2="781.3" y2="479.7" gradientUnits="userSpaceOnUse">
			<stop offset="0" stop-color="#949698"/>
			<stop offset=".1" stop-color="#9fa1a3"/>
			<stop offset=".3" stop-color="#bcbebf"/>
			<stop offset=".5" stop-color="#e7e8e9"/>
			<stop offset=".6" stop-color="#dddedf"/>
			<stop offset=".8" stop-color="#c2c3c5"/>
			<stop offset="1" stop-color="#96989a"/>
			<stop offset="1" stop-color="#949698"/>
		</linearGradient>
		<clipPath clipPathUnits="userSpaceOnUse" id="cp6">
			<path d="m634.31 294.46c2.89 0 6.75 1.21 8.83 1.97l12.79 5.29 166.97 69.47c16.01 6.9 19.2 5.05 20.26 3.84q0.06-0.05 0.09-0.12l-22.39 37.86c-0.12 0.24-0.82 1.13-1.09 1.27-2.58 1.46-8.81-0.51-11.54-1.49l-179.64-74.72c-15.63-6.76-18.96-5.15-20.09-3.94-0.06 0.09 22.56-38.2 22.56-38.2 0.08-0.15 0.28-0.29 0.43-0.45 0.01-0.02 0.16-0.22 0.26-0.27 0.66-0.38 1.55-0.53 2.56-0.51z"/>
		</clipPath>
		<linearGradient id="g6" x1="629.1" y1="298.6" x2="822" y2="411.3" gradientUnits="userSpaceOnUse">
			<stop offset="0" stop-color="#004786"/>
			<stop offset=".2" stop-color="#004786"/>
			<stop offset=".3" stop-color="#175490"/>
			<stop offset=".4" stop-color="#5076a9"/>
			<stop offset=".5" stop-color="#7289b7"/>
			<stop offset=".6" stop-color="#5b7cad"/>
			<stop offset=".7" stop-color="#1a5691"/>
			<stop offset=".8" stop-color="#004786"/>
			<stop offset="1" stop-color="#004786"/>
		</linearGradient>
		<clipPath clipPathUnits="userSpaceOnUse" id="cp7">
			<path d="m860.76 297.3l9.47 11.64c3.98 4.95 6.73 8.84 5.75 10.69l-0.24 0.4c-1.08 1.21-4.25 3.04-20.24-3.84l-49.7-20.69-26.03-31.89z"/>
		</clipPath>
		<linearGradient id="g7" x1="779.4" y1="264.6" x2="875.5" y2="320.8" gradientUnits="userSpaceOnUse">
			<stop offset="0" stop-color="#e7e8e9"/>
			<stop offset=".2" stop-color="#dddedf"/>
			<stop offset=".5" stop-color="#c2c3c5"/>
			<stop offset="1" stop-color="#96989a"/>
			<stop offset="1" stop-color="#949698"/>
		</linearGradient>
		<clipPath clipPathUnits="userSpaceOnUse" id="cp8">
			<path d="m666.87 239.45c2.91 0 6.79 1.23 8.85 1.96l12.79 5.31 117.27 48.78 49.71 20.69c15.98 6.87 19.16 5.05 20.23 3.84q0.09-0.06 0.13-0.13l-22.4 37.85c-0.14 0.26-0.81 1.14-1.11 1.28-2.55 1.45-8.78-0.5-11.51-1.49l-179.66-74.72c-15.64-6.75-18.95-5.15-20.09-3.93q-0.1 0.1-0.18 0.2l22.75-38.39c0.09-0.18 0.6-0.68 0.67-0.74 0.66-0.37 1.55-0.51 2.55-0.51z"/>
		</clipPath>
		<linearGradient id="g8" x1="661.6" y1="243.5" x2="854.6" y2="356.2" gradientUnits="userSpaceOnUse">
			<stop offset="0" stop-color="#004786"/>
			<stop offset=".2" stop-color="#004786"/>
			<stop offset=".3" stop-color="#175490"/>
			<stop offset=".4" stop-color="#5076a9"/>
			<stop offset=".5" stop-color="#7289b7"/>
			<stop offset=".6" stop-color="#5b7cad"/>
			<stop offset=".7" stop-color="#1a5691"/>
			<stop offset=".8" stop-color="#004786"/>
			<stop offset="1" stop-color="#004786"/>
		</linearGradient>
		<clipPath clipPathUnits="userSpaceOnUse" id="cp9">
			<path d="m795.59 407.3c0 0 14.34 17.93 15.12 20 0.39 1.43 0.03 2.4-0.19 2.84l-22.79 38.36c0.98-1.76 0.86-4.56-10.79-18.53l-62.33-76.36z"/>
		</clipPath>
		<linearGradient id="g9" x1="706.4" y1="388" x2="802.5" y2="444.1" gradientUnits="userSpaceOnUse">
			<stop offset="0" stop-color="#e7e8e9"/>
			<stop offset=".2" stop-color="#dddedf"/>
			<stop offset=".5" stop-color="#c2c3c5"/>
			<stop offset="1" stop-color="#96989a"/>
			<stop offset="1" stop-color="#949698"/>
		</linearGradient>
		<clipPath clipPathUnits="userSpaceOnUse" id="cp10">
			<path d="m828.17 352.3l9.47 11.64c3.99 4.96 6.72 8.84 5.75 10.7l-0.22 0.38c-1.07 1.21-4.25 3.06-20.26-3.84l-49.69-20.69-26.04-31.89z"/>
		</clipPath>
		<linearGradient id="g10" x1="746.5" y1="319.6" x2="842.6" y2="375.7" gradientUnits="userSpaceOnUse">
			<stop offset="0" stop-color="#e7e8e9"/>
			<stop offset="0" stop-color="#e7e8e9"/>
			<stop offset=".2" stop-color="#dddedf"/>
			<stop offset=".6" stop-color="#c2c3c5"/>
			<stop offset="1" stop-color="#96989a"/>
			<stop offset="1" stop-color="#949698"/>
		</linearGradient>
		<clipPath clipPathUnits="userSpaceOnUse" id="cp11">
			<path d="m729.2 130.05c-0.61 1.49-1.66 4.38 10.52 18.97l62.35 76.37-80.97-33.66-9.5-11.67c-2.82-3.51-4.93-6.64-5.58-8.81-0.27-1.25 0.02-2.14 0.24-2.56z"/>
		</clipPath>
		<linearGradient id="g11" x1="714.4" y1="154.8" x2="810.5" y2="210.9" gradientUnits="userSpaceOnUse">
			<stop offset="0" stop-color="#949698"/>
			<stop offset=".2" stop-color="#9fa1a3"/>
			<stop offset=".6" stop-color="#bcbebf"/>
			<stop offset="1" stop-color="#e7e8e9"/>
		</linearGradient>
	</defs>
	<style>
		.s0 { fill: #004685 } 
		.s1 { fill: url(#g1) } 
		.s2 { fill: url(#g2) } 
		.s3 { fill: url(#g3) } 
		.s4 { fill: url(#g4) } 
		.s5 { fill: url(#g5) } 
		.s6 { fill: url(#g6) } 
		.s7 { fill: url(#g7) } 
		.s8 { fill: url(#g8) } 
		.s9 { fill: url(#g9) } 
		.s10 { fill: url(#g10) } 
		.s11 { fill: url(#g11) } 
	</style>
	<g id="Layer">
		<g id="Layer">
			<path id="Layer" fill-rule="evenodd" class="s0" d="m726.2 736.5h-9.1-40.4c-7.4 0-9.2 0-9.2 0v-177.1c0-4.8 1.8-5.6 9.2-5.6h70.3c33.5 0 101.3 1.3 101.3 51.4 0 34.4-33.5 44.3-49.6 49.4l76.5 81.8h-65.6l-62.6-75.4h-20.8c0 0 0 75.5 0 75.5zm11.3-103.5c28.2 0 52.1-2.7 52.1-27.2 0-23.2-24.8-24-47.4-24h-16v51.2z"/>
			<path id="Layer" fill-rule="evenodd" class="s0" d="m1179.1 741c-67.3 0-108.2-31.2-108.2-95.8 0-64.7 41.3-95.9 108.2-95.9 66.9 0 108.2 31.4 108.2 95.9 0 64.6-40.8 95.8-108.2 95.8zm46.5-95.8c0-41.8-13.9-67.9-46.5-67.9-32.6 0-46.4 26.4-46.4 67.9 0 41.6 13.8 67.8 46.4 67.8 32.6 0 46.5-26.2 46.5-67.8z"/>
			<path id="Layer" class="s0" d="m535.1 707.6h102.1v5.6 17.6 5.6h-160.8v-178.4c0.4-3.4 2.4-4.2 8.4-4.2h0.8 153.6l-12.4 28.8h-91.7v44h82.2v28.8h-82.2z"/>
			<path id="Layer" class="s0" d="m1517.3 553.7v182.9l-9.1-0.1h-28.7c0 0-6 0.7-10-3.8-4-4.5-104.2-121.7-104.2-121.7 0 3.5 0.4 11.6 0.4 23.8v101.7c0 0-1.8 0-9.1 0h-31.8c-7.3 0-9.1 0-9.1 0v-178.8c0.4-3.1 2.4-3.9 8.1-3.9h1 35.7c6.5 0 7.4 0.5 9.9 3.5l98 115.3c0-8.5-1.1-118.9-1.1-118.9l9.2 0.1h31.7z"/>
			<path id="Layer" class="s0" d="m58.7 707.6h102.1v5.7 17.5 5.7l-160.8-0.1v-177.5c0.1-4.2 1.9-5.1 8.4-5.1h0.7 153.7l-12.4 28.8h-91.7v44h82.1v28.8h-82.1z"/>
			<path id="Layer" class="s0" d="m317.9 667.4l66.3-108.7c2.6-3 3.4-3.5 10-3.5h35.6l9.1 0.1v182.6c0 0-1.7 0-9.1 0h-31.7c-7.4 0-9.2 0-9.2 0v-101.6c0-12.3 0.4-17.1 0.4-20.6 0 0-65.2 110.3-72.1 118.1h-0.4c-6.8-7.8-75.6-118.1-75.6-118.1 0 3.5 0.3 8.3 0.3 20.6v101.6c0 0-1.7 0-9.1 0h-31.7c-7.4 0-9.2 0-9.2 0v-182.6l9.2-0.1h35.6c6.5 0 7.4 0.5 10 3.5l69.8 108.7z"/>
			<path id="Layer" class="s0" d="m1052.9 684.7c1 39.3-37 56.3-88.7 56.3-33 0-67.3-7.3-80.4-12.5l-6.4-2.4 7.9-14.6 4.5-8.4c0.8-1.6 2.9-2.7 4.5-2.7 2.5 0 32.9 11.8 68.2 11.8 23 0 33.3-8 33.3-24.6 0-23.7-42.1-22.8-84-39.3-21.8-8.5-31.9-22.5-31.9-44.7 0-38.4 42.8-54.4 90.4-54.4 26.5 0 53.5 5.5 68.2 10.3 0.9 0.3 2.7 0.9 5.6 2.1 3.5 1.4 6.1 2.5 7 3 0.4 0.1 0.4 0.1 0.4 0.1q0 0 0 0.1l-14.7 18.7-2.8 3.6c-1.2 1.6-2.9 2.7-4.5 2.7-2.5 0-27.9-11.7-57.5-11.7-18.9 0-35 4.8-35 20.8 0 20.2 49.3 21.8 85.5 39.1 20.9 10.1 29.9 26.5 30.4 46.7z"/>
			<path id="Layer" class="s0" d="m1550.8 715.5v21.1h-3.4v-21.1h-8v-2h19.4v2z"/>
			<path id="Layer" class="s0" d="m1584.9 736.6v-21.1l-8.2 21.1h-3.2l-8.3-21v21h-2.7v-23.1h5l8 19.8 7.7-19.8h4.8v23.1z"/>
		</g>
		<g id="Layer">
			<g id="Clip-Path" clip-path="url(#cp1)">
				<path id="Layer" class="s1" d="m781.9 0.5l211.6 123.7-127.5 218.5-211.7-123.7z"/>
			</g>
		</g>
		<g id="Layer">
			<g id="Clip-Path" clip-path="url(#cp2)">
				<path id="Layer" class="s2" d="m697.2 180.5l97.3 57-49.7 85.1-97.4-56.9z"/>
			</g>
		</g>
		<g id="Layer">
			<g id="Clip-Path" clip-path="url(#cp3)">
				<path id="Layer" class="s3" d="m733.2 82.1l227.9 133.1-112.5 192.7-227.8-133.2z"/>
			</g>
		</g>
		<g id="Layer">
			<g id="Clip-Path" clip-path="url(#cp4)">
				<path id="Layer" class="s4" d="m664.6 235.5l97.4 57-49.7 85.2-97.4-57z"/>
			</g>
		</g>
		<g id="Layer">
			<g id="Clip-Path" clip-path="url(#cp5)">
				<path id="Layer" class="s5" d="m650.9 258.2l210.8 123.1-126.6 216.8-210.8-123.1z"/>
			</g>
		</g>
		<g id="Layer">
			<g id="Clip-Path" clip-path="url(#cp6)">
				<path id="Layer" class="s6" d="m668.2 192.1l227.8 133.1-112.5 192.6-227.8-133.1z"/>
			</g>
		</g>
		<g id="Layer">
			<g id="Clip-Path" clip-path="url(#cp7)">
				<path id="Layer" class="s7" d="m804.5 221.3l98.3 57.4-50.6 86.7-98.3-57.4z"/>
			</g>
		</g>
		<g id="Layer">
			<g id="Clip-Path" clip-path="url(#cp8)">
				<path id="Layer" class="s8" d="m700.7 137.1l227.8 133.1-112.4 192.7-227.9-133.2z"/>
			</g>
		</g>
		<g id="Layer">
			<g id="Clip-Path" clip-path="url(#cp9)">
				<path id="Layer" class="s9" d="m739.1 331.6l113.3 66.2-65.9 112.7-113.2-66.1z"/>
			</g>
		</g>
		<g id="Layer">
			<g id="Clip-Path" clip-path="url(#cp10)">
				<path id="Layer" class="s10" d="m771.9 276.3l98.3 57.4-50.6 86.7-98.3-57.5z"/>
			</g>
		</g>
		<g id="Layer">
			<g id="Clip-Path" clip-path="url(#cp11)">
				<path id="Layer" class="s11" d="m730.2 88.1l113.4 66.2-66 113.1-113.4-66.3z"/>
			</g>
		</g>
	</g>
</svg>