<svg version="1.2" xmlns="http://www.w3.org/2000/svg" viewBox="0 0 1570 281" width="1570" height="281">
	<title>enphase-logoV2-svg</title>
	<style>
		.s0 { fill: #f07330 } 
		.s1 { fill: #4c4d4f } 
	</style>
	<g id="Layer">
		<g id="Layer">
			<g id="Layer">
				<path id="Layer" class="s0" d="m137 281c-53.4 0-102.1-30.8-125.2-79.5-4.1-8.7-0.6-18.6 8.1-22.6 8.1-4.1 18.5 0 22 8.1 18 38.3 56.8 61.5 99.1 59.7 38.9-1.7 73.7-24.3 90.5-60.3 4-8.7 13.9-12.2 22.6-8.1 8.7 4.1 12.1 13.9 8.1 22.6-22 47-67.8 77.2-120 79.5-1.2 0.6-3.5 0.6-5.2 0.6z"/>
			</g>
			<g id="Layer">
				<path id="Layer" class="s0" d="m256.4 156.3h-238.8c-9.3 0-16.9-7.6-16.9-16.9 0-9.2 7.6-16.8 16.9-16.8h220.8c-8.1-49.9-51.6-87.6-103.7-87.6-39.5 0-74.8 21.5-92.8 56.3-4.1 8.1-14.5 11.6-22.6 7-8.1-4.1-11.6-14.5-7-22.7 23.8-46.4 70.8-74.8 122.4-74.8 76.5 0 138.5 62.1 138.5 138.6q0 7-5.2 12.2c-2.9 2.9-7 4.7-11.6 4.7z"/>
			</g>
		</g>
		<path id="Layer" class="s1" d="m492.3 217.2c0 8.1-6.3 15-15 15h-103.8c-8.1 0-15.1-6.3-15.1-15v-152.6c0-8.1 6.4-15.1 15.1-15.1h97.4c8.1 0 15.1 7 15.1 15.1 0 8.1-6.4 15.1-15.1 15.1h-82.3v42.3h63.1c8.2 0 15.1 6.4 15.1 15.1 0 8.1-6.4 15.1-15.1 15.1h-63.1v49.3h88.7c8.7 0 15.6 7 15 15.7z"/>
		<path id="Layer" class="s1" d="m1569.4 217.2c0 8.1-6.4 15-15.1 15h-103.7c-8.1 0-15.1-6.3-15.1-15v-152.6c0-8.1 6.4-15.1 15.1-15.1h97.4c8.1 0 15 7 15 15.1 0 8.1-6.3 15.1-15 15.1h-82.3v42.3h63.1c8.2 0 15.1 6.4 15.1 15.1 0 8.1-6.4 15.1-15.1 15.1h-63.1v49.3h88.6c8.2 0 15.1 7 15.1 15.7z"/>
		<path id="Layer" fill-rule="evenodd" class="s1" d="m1228 230.5c-1.8 0.6-4.1 1.2-5.8 1.2-5.8 0-11.6-3.5-13.9-9.3l-13.9-32.5h-73.1l-13.9 32.5c-2.3 5.8-8.1 9.3-13.9 9.3-1.8 0-4.1-0.6-5.8-1.2-7.6-3.5-11.6-12.8-8.1-20.3l17.9-41.8 46.4-110.7v-0.6c0.6 0 0.6-0.6 0.6-0.6 0.6 0 0.6-0.6 0.6-0.6 0.6 0 0.6-0.6 0.6-0.6l3.4-3.4c0-0.6 0.6-0.6 0.6-0.6l0.6-0.6c0-0.6 0.6-0.6 0.6-0.6 0-0.6 0.6-0.6 0.6-0.6 0-0.5 0.5-0.5 0.5-0.5h2.4c1.1-0.6 2.3-0.6 3.4-0.6 0.6 0 1.2 0 1.2 0 1.1 0 2.3 0.6 3.5 0.6h1.1c0 0.5 0.6 0.5 0.6 0.5h0.6c0 0.6 0.6 0.6 0.6 0.6 0 0.6 0.5 0.6 0.5 0.6 0 0.6 0.6 0.6 0.6 0.6l3.5 3.5c0.6 0 0.6 0.5 0.6 0.5l0.6 0.6c0.5 0 0.5 0.6 0.5 0.6 0.6 0 0.6 0.6 0.6 0.6 0.6 0 0.6 0.6 0.6 0.6v0.5l46.4 110.8 17.9 41.8c3.5 7.5 0 16.8-9.2 19.7zm-45.2-71.3l-23.8-56.3-23.8 56.3z"/>
		<g id="Layer">
			<g id="Layer">
				<path id="Layer" class="s1" d="m665.7 232.2h-4.1c-4.6 0-9.3-2.3-12.2-5.8l-95-121.8v112.6c0 8.7-7 15-15.1 15-8.1 0-15.1-6.9-15.1-15v-153.2c0-8.7 7-15 15.1-15h3.5c4.6 0 9.2 2.3 12.1 5.8l95.7 122.9v-113.7c0-8.7 6.9-15 15.1-15 8.1 0 15 6.9 15 15v152.6c0.6 8.7-6.3 15.6-15 15.6z"/>
			</g>
		</g>
		<path id="Layer" class="s1" d="m1047.7 64v152.6c0 8.1-7 15.1-15.1 15.1-8.1 0-15.1-6.4-15.1-15.1v-64.4h-86.9v63.8c0 8.1-7 15.1-15.1 15.1-8.1 0-15.1-6.4-15.1-15.1v-79.5-73c0-8.2 7-15.1 15.1-15.1 8.1 0 15.1 6.4 15.1 15.1v58h86.9v-58c0-8.2 6.4-15.1 15.1-15.1 8.1 0 15.1 6.9 15.1 15.6z"/>
		<g id="Layer">
			<g id="Layer">
				<path id="Layer" class="s1" d="m1328.8 235.1c-23.1 0-46.9-9.2-63.1-25.5-5.8-5.8-5.8-15.6 0-21.4 5.8-5.8 15.6-5.8 21.4 0 16.2 16.2 41.2 19.1 56.8 13.9 7-2.3 15.7-7 17.4-17.4 1.2-8.7-3.5-16.8-30.1-28.4-2.4-1.2-4.7-1.8-6.4-2.9-1.2-0.6-3.5-1.8-6.4-2.9-17.4-7-52.7-21.5-52.2-54 0.6-20.3 12.8-37.1 32.5-45.2 27.8-11.6 63.2-3.5 85.8 19.1 5.8 5.8 5.8 15.7 0 21.5-5.8 5.8-15.7 5.8-21.5 0-15.6-15.7-38.2-18-52.7-12.2-8.7 3.5-13.3 9.3-13.3 17.4 0 11.6 21.4 20.3 33 24.9q5.2 1.8 8.7 3.5c1.2 0.6 2.9 1.2 5.2 2.3 16.2 7 54.5 23.2 48.7 60.9-2.9 19.8-16.8 34.8-37.7 41.8-8.7 3.5-17.4 4.6-26.1 4.6z"/>
			</g>
		</g>
		<g id="Layer">
			<g id="Layer">
				<path id="Layer" fill-rule="evenodd" class="s1" d="m744.5 232.2c-8.7 0-15.1-6.9-15.1-15v-153.2c0-8.7 7-15 15.1-15h62.6c34.2 0 59.1 23.7 59.1 57.4 0 33-24.9 57.4-59.1 57.4h-47.5v53.9c0.6 7.6-6.4 14.5-15.1 14.5zm15.7-99.7h47.5c17.4 0 28.4-10.5 28.4-26.7 0-16.2-11-26.7-28.4-26.7h-47.5z"/>
			</g>
		</g>
	</g>
</svg>