<svg version="1.2" xmlns="http://www.w3.org/2000/svg" viewBox="0 0 1599 392" width="1599" height="392">
	<title>EOG_Resources_logo-svg</title>
	<style>
		.s0 { fill: #373535 } 
		.s1 { fill: #e43539 } 
	</style>
	<g id="Layer">
		<path id="Layer" fill-rule="evenodd" class="s0" d="m246.6 318.2c-2.1 11.5 5.5 19.1 15.7 19.1 6.1 0 12.2-2.8 16-8.5h36.9c-10.9 24.1-36.8 32-59.5 32-31.1 0-52.1-17.7-46.3-50.4 5.6-31.8 33.1-52.2 64.3-52.2 36 0 53.3 24.8 46.5 60zm38.5-19.6c1.6-8.9-5-16.9-14.1-16.9-11.5 0-19.1 6.5-20.9 16.9z"/>
		<path id="Layer" fill-rule="evenodd" class="s0" d="m398.1 258.2c34.3 0 51.9 20.2 46.6 50.4-6.3 35.6-33.4 52.2-64.5 52.2-31.2 0-52.3-17-46.4-50.2 5.9-33.7 31.5-52.4 64.3-52.4zm8.7 51.3c0-14-7.8-25.4-17.5-25.4-9.7 0-17.5 11.4-17.5 25.4 0 14 7.8 25.4 17.5 25.4 9.7 0 17.5-11.4 17.5-25.4z"/>
		<path id="Layer" fill-rule="evenodd" class="s0" d="m491.8 363.1c-0.2 1.1 0.3 2.7 1.7 4.2 1.3 1.5 4 2.4 7.9 2.4 11.1 0 16.4-4.9 18.9-18.9l1.4-7.9c-6.6 5.5-15.8 10.5-29.7 10.5-26.9 0-38.5-21.1-34.2-45.9 4.3-23.9 20.2-49.3 52.1-49.3 11.7 0 21.6 6.1 26.8 15.6l2.2-12.8h34l-13.8 78.2c-5.2 29.1-12.5 51.8-60.4 51.8-34.3 0-46.3-13.6-45.7-27.9zm4.6-55.2c-1.7 9.6 1.5 18.7 11.9 18.8 11.7 0.6 18-9.6 19.8-20 1.9-10.7-0.4-20.9-12.6-20.9-11.7-0.2-16.9 9.5-19.1 22.1z"/>
		<path id="Layer" class="s0" d="m619.9 260h35.1l-3.5 19.6h0.4c8.1-15.2 18.8-22.4 33.8-22.4 1.7 0 3.3 0.4 4.9 0.6l-6.8 38.5c-2.5-0.4-5.2-1.1-7.7-1.1-15.8 0-25.1 7.4-28.8 28.3l-5.9 33.6h-38.6"/>
		<path id="Layer" fill-rule="evenodd" class="s0" d="m723.6 317.2c-2.1 11.5 5.5 19.1 15.7 19.1 6.1 0 12.2-2.7 16-8.5h36.9c-11 24.1-36.8 32.1-59.5 32.1-31.1 0-52.1-17.8-46.3-50.4 5.6-31.9 33.1-52.3 64.3-52.3 35.9 0 53.3 24.8 46.5 60zm38.5-19.6c1.6-8.9-5-16.9-14.1-16.9-11.5 0-19.1 6.5-20.9 16.9z"/>
		<path id="Layer" class="s0" d="m844.1 326.9c-0.7 3.8 0.2 6.8 2.5 8.8 2.1 1.9 5.2 3.1 8.9 3.1 6 0 12.6-1.9 13.8-8.8 2.8-15.6-59-3.1-52.3-40.7 4.3-24.9 31.4-32.1 51.6-32.1 21.2 0 45.2 4.8 42.8 30.6h-35c0.2-3.2-0.7-5.4-2.5-7.1-1.7-1.6-4.4-2.4-7.3-2.4-6.7 0-11.4 2-12.2 6.9-2.4 13.5 60.6 4.4 54.2 40.7-3.6 20.2-22.7 34-58.3 34-22.3 0-45.5-6.9-42.9-33"/>
		<path id="Layer" fill-rule="evenodd" class="s0" d="m988.4 257.2c34.3 0 51.9 20.2 46.6 50.4-6.3 35.6-33.4 52.3-64.5 52.3-31.2 0-52.3-17.1-46.4-50.3 5.9-33.7 31.5-52.4 64.3-52.4zm8.7 51.3c0-14-7.8-25.4-17.5-25.4-9.7 0-17.5 11.4-17.5 25.4 0 14.1 7.8 25.4 17.5 25.4 9.7 0 17.5-11.3 17.5-25.4z"/>
		<path id="Layer" class="s0" d="m1147.5 357.1h-35.8l2.6-14.3c-12.1 13.4-22.2 17.1-38.1 17.1-21.2 0-32.6-13-27.7-40.8l10.5-59.1h38.5l-9.2 52.4c-2.4 13.4 1.5 17.6 10.8 17.6 11.1 0 16.1-8.3 18.7-23.3l8.3-46.7h38.6"/>
		<path id="Layer" class="s0" d="m1183.4 260h35l-3.4 19.6h0.3c8.1-15.2 18.8-22.4 33.9-22.4 1.6 0 3.2 0.4 4.9 0.6l-6.8 38.5c-2.6-0.4-5.2-1.1-7.8-1.1-15.8 0-25.1 7.4-28.7 28.3l-6 33.6h-38.6"/>
		<path id="Layer" class="s0" d="m1321.7 297c0.6-4.2-0.3-7.5-2.3-10q-2.9-3.8-9.3-3.8c-14.5 0-19.6 15-21.6 26.4-2.6 14.7 1.3 24.3 12.6 24.3 10 0 15.1-6.9 17.6-14.4h38.9c-8.5 29.4-34.2 40.4-61.1 40.4-31.3 0-52.3-17.7-46.5-50.4 5.8-33.2 32.6-52.3 64.6-52.3 26 0 48.5 11.1 46.2 39.8"/>
		<path id="Layer" fill-rule="evenodd" class="s0" d="m1410.7 317.2c-2.1 11.5 5.5 19.1 15.7 19.1 6.1 0 12.2-2.7 16-8.5h36.9c-10.9 24.1-36.8 32.1-59.4 32.1-31.2 0-52.2-17.8-46.4-50.4 5.6-31.9 33.1-52.3 64.3-52.3 36 0 53.3 24.8 46.5 60zm38.5-19.6c1.6-8.9-4.9-16.9-14-16.9-11.6 0-19.2 6.5-21 16.9z"/>
		<path id="Layer" class="s0" d="m1531.2 326.9c-0.7 3.8 0.3 6.8 2.5 8.8 2.1 1.9 5.2 3.1 8.9 3.1 6 0 12.6-1.9 13.8-8.8 2.8-15.6-58.9-3.1-52.3-40.7 4.4-24.9 31.4-32.1 51.6-32.1 21.2 0 45.2 4.8 42.9 30.6h-35.1c0.2-3.2-0.7-5.4-2.5-7.1-1.7-1.6-4.3-2.4-7.3-2.4-6.7 0-11.3 2-12.2 6.9-2.4 13.5 60.6 4.4 54.2 40.7-3.6 20.2-22.7 34-58.3 34-22.2 0-45.5-6.9-42.9-33"/>
		<path id="Layer" class="s1" d="m203.6 257c-9 58.7-61 106.2-116.9 106-55.9-0.3-93.5-48-85.5-106.9 4.2-30.9 19.9-56.5 34.4-71.5 14.5-14.9 17.4-29.9 18.9-40.4 7.3-48.3 37-71.3 37-71.3-10.1 28.6-1.9 52.1 2.5 66.4 2.9 10.5 5.8 23.2 3.8 35.4-5.2 31.9-60.7 47.9-67.4 99.6-5.1 40.3 20.3 73 58.6 73.1 38.3 0.2 74-32.3 80.1-72.5 5.8-39.3-14.6-61.4-34.7-81.6-33.3-33.4-31.7-65.6-28.5-86.3 8.7-54.7 54-99.9 105.5-106.1-26.6 19.6-45.4 49.6-51.3 84.1-4.3 24.9 1.6 45.5 7 57.7 12 26.3 44.3 63.5 36.5 114.3z"/>
		<path id="Layer" class="s0" d="m60.3 314.8c-8.3-9.5-11.9-23-9.9-38 2.8-21.9 18-35.6 33.8-50.4 16-15.2 14.7-33.2 14.2-62.1 1.6 13.3 1 23 21.8 43.2 20.6 20 33.3 35.8 29 64.4-4.5 30.1-31.9 55.5-59.9 55.5h-0.2c-11.7-0.1-21.6-4.4-28.8-12.6z"/>
	</g>
</svg>