<svg version="1.2" xmlns="http://www.w3.org/2000/svg" viewBox="0 0 1589 464" width="1589" height="464">
	<title>eqtttt-svg</title>
	<style>
		.s0 { fill: #ff5703 } 
	</style>
	<g id="Layer">
		<path id="Layer" fill-rule="evenodd" class="s0" d="m818.7 388.2v75.2c-127.3 0-230-104.1-230-231.4 0-127.3 104.2-231.4 231.5-231.4 127.2 0 231.4 104.1 231.4 231.4 0 1.4 0 1.4 0 1.4h-75.2c0-1.4 0-1.4 0-1.4 0-85.3-68-156.2-154.8-156.2-86.8 0-156.2 70.9-156.2 156.2 0 85.3 68 154.8 153.3 156.2zm519.2-219.8h75.2v282h-75.2zm-1337.8-156.2h75.2v438.2h-75.2zm156.2 363h267.6v75.2h-267.6zm0-182.2h267.6v75.2h-267.6zm0-180.8h267.6v75.2h-267.6zm1006.6 0h425.2v75.2h-425.2zm-171.5 446.2l-185.1-185.1 53.2-53.2 185.1 185.1z"/>
	</g>
</svg>