<svg version="1.2" xmlns="http://www.w3.org/2000/svg" viewBox="0 0 1539 741" width="1539" height="741">
	<title>Equinix_logo-svg</title>
	<style>
		.s0 { fill: #ec1e27 } 
		.s1 { fill: #000000 } 
	</style>
	<path id="Layer" class="s0" d="m1101 112.5v202.2l-127.9 44.4v-245.8l-42.6-15.1v276l-127.5 44.5v-365l-21.3-7.5-21.3 7.5v365l-127.9-44.5v-276l-42.7 15.1v245.8l-127.4-44.4v-202.2l42.6-14.7v186.6l42.6 14.7v-216l127.5-44.8v305.7l42.6 14.7v-335.1l64-22.7 63.9 22.7v335.1l42.2-14.7v-305.7l127.9 44.8v216l42.7-14.7v-186.6z"/>
	<path id="Layer" fill-rule="evenodd" class="s1" d="m24.1 708.6h116.8v20h-139.9v-156.8h135.9v20.9h-112.8v44.4h75.5v20.4h-75.5zm597.8-136.5h22.2v95.1c0 30.7-16.9 66.2-68.4 66.2-35.1 0-66.2-23.6-66.2-66.2v-95.1h22.7v94.2c0 27.5 16.8 46.7 43.5 46.7 27.6 0 46.2-18.7 46.2-46.7zm148.8-0.3h22.2v156.9h-22.2zm290.8-0.3h22.7v156.9h-22.2l-111.5-123.5v123.5h-22.2v-156.9h22.2l111 123.2zm159.3 0.2h22.6v156.8h-22.6zm317.5 156.7h-31.1l-61.7-69.8-64.4 69.8h-28.9l78.6-84.9-63.1-72h29.8l50.2 56.4 51.9-56.4h27.6l-65.3 72zm-1142.9-79.6v0.5c0 28.4-11.5 51.5-29.7 65.3l22.2 25.8h-26.2l-12.5-14.7c-10.6 5.3-24.8 8.4-36.8 8.4-46.2 0.5-83.1-34.2-83.1-83.1v-0.4c0-49.8 36-84.9 82.7-85.3 46.6-0.5 83.4 34.6 83.4 83.5zm-23 0.5c0-37.3-27.1-64-60.9-64-33.7 0.4-58.6 26.6-58.6 64.4v0.5c0 36.8 26.7 64 60 64 7.5-0.5 16.9-2.3 22.2-4.9 0 0 0 0-21.3-24.5h26.2c0 0 0 0 11.9 14.2 12.9-12.4 20.5-26.6 20.5-48.8z"/>
	<path id="Layer" fill-rule="evenodd" class="s0" d="m1144.2 272.4v-0.5c0-20.9 16.9-38.6 38.2-38.6 21.8 0 38.7 17.3 38.7 38.6 0 20.9-16.9 38.7-38.7 38.7-21.3 0-38.2-17.3-38.2-38.2zm72.4-0.5c0-19.1-14.6-34.2-34.2-34.2-19.1 0-33.7 15.6-33.7 34.2v0.5c0 18.6 14.6 34.2 33.7 34.2 19.6 0 34.2-16 34.2-34.7zm-49.7-20.8h18.6c9.4 0 16 4.4 16 13.3 0 6.7-3.5 10.7-8.9 12.4 0 0 0 0 10.3 14.2h-11.6c0 0 0 0-8.9-12.4h-5.8v12.4h-9.7zm17.8 19.6c4.4 0 7.1-2.2 7.1-5.3 0-3.6-2.7-5.8-7.1-5.8h-8v11.1z"/>
</svg>