<svg version="1.2" xmlns="http://www.w3.org/2000/svg" viewBox="0 0 1562 200" width="1562" height="200">
	<title>Equity_Residential_logo-svg</title>
	<style>
		.s0 { fill: #9c9c9c } 
	</style>
	<g id="layer1">
		<g id="g14442">
			<path id="path14032" class="s0" d="m144.2 68.7h74.1v49.8h-74.1zm0-68.7c0 0 64.4 0 68.6 0 5.8 0 5.5 3.2 5.5 8.4 0 5.2 0 41.5 0 41.5h-74.1zm37.1 187.2c-21.5 0-38.9-11.5-38.9-25.8 0-14.3 17.4-25.8 38.9-25.8 21.5 0 38.9 11.5 38.9 25.8 0 14.3-17.4 25.8-38.9 25.8z"/>
			<path id="path14030" class="s0" d="m0.1 68.7h130.8v49.7h-130.8zm0-64.5c0-2.2 1.5-4.1 4.4-4.1 1.1 0 126.4 0 126.4 0v49.8h-130.8c0 0 0-44.4 0-45.7zm130.7 182.3c0 0-120.6 0-124.8 0-5.8 0-6-1.5-6-6.7 0-5.3 0-43.1 0-43.1h130.8z"/>
			<path id="path14060" fill-rule="evenodd" class="s0" d="m297.9 158.4v-132.6h82.3v12.7h-68.1v46.7h58.1v12.7h-58.1v47.9h68.1v12.6zm154.2 41v-51.8c-7.5 9.5-15.9 11.9-26 11.9-9.3 0-17.5-3.1-22.3-8-9.3-9.3-11.2-24.5-11.2-38.9 0-14.3 1.9-29.6 11.2-38.9 4.8-4.9 13-8 22.3-8 10.1 0 18.7 2.2 26.1 11.9v-10.8h13.3v132.6zm0-86.8c0-19.4-10.3-35-23-35-12.8 0-23.1 15.6-23.1 35 0 19.4 10.3 35 23.1 35 12.7 0 23-15.6 23-35zm92.7 45.8v-10.2c-6.6 7.4-15.7 11.3-26 11.3-9.8 0-18-2.9-23.6-8.5-6.5-6.4-9.3-15.1-9.3-25.7v-58.5h13.4v56.4c0 16.2 8.6 24.4 22.3 24.4 13.8 0 23-8.4 23-24.4v-56.4h13.4v91.6zm49.7 0h-13.5v-91.6h13.5zm0.9-117.7h-15.1v-15.1h15.1zm49.2 117.7c-15.6 0-23.4-11-23.4-24.6v-56.2h-11.6v-10.3h11.6v-28.6h13.4v28.6h15.7l3.9 10.3h-19.6v55.9c0 8.3 3.9 13.4 12.5 13.4h7.1v11.5zm53 22.7c-1.8 5-3.9 8.4-6.5 10.8-4.8 4.7-11.4 6.3-17.9 6.3h-5.8v-11.9h4.2c9.3 0 12.1-3 15.1-11.4l6.5-17.8-33-89.8h14.5l25.2 73.6 24.9-73.6h14.6zm148.8-22.7l-30.2-58.8h-31.9v58.8h-14.2v-132.6h50.9c23.1 0 39.3 14 39.3 36.9 0 19.4-11.7 32-28.9 35.6l31.5 60.1zm-26.6-119.9h-35.4v48.6h35.4c15.4 0 26.4-8 26.4-24.2 0-16.2-11-24.4-26.4-24.4zm62.5 77.6c0 20.2 9.6 31.7 27.1 31.7 10.6 0 16.7-3.2 24-10.4l9.1 8c-9.3 9.3-17.8 14.1-33.5 14.1-24.2 0-40.1-14.5-40.1-46.9 0-29.6 14.4-46.9 37.7-46.9 23.6 0 37.6 17.1 37.6 44.3v6.1zm45.7-25.3c-3.6-8.4-11.7-13.8-21.4-13.8-9.7 0-17.9 5.4-21.5 13.8-2 5-2.4 7.8-2.8 15.3h48.5c-0.4-7.5-0.8-10.3-2.8-15.3zm63.1 68.7c-15.5 0-27.6-3.5-37.7-13.2l9-8.9c7.2 7.6 17.1 10.6 28.5 10.6 15.1 0 24.4-5.4 24.4-16.2 0-8-4.7-12.5-15.3-13.4l-15.1-1.3c-17.9-1.5-27.4-9.5-27.4-24.6 0-16.8 14.2-26.8 33.8-26.8 13 0 24.7 3.1 32.9 9.8l-8.7 8.8c-6.5-5-14.9-7.3-24.4-7.3-13.4 0-20.5 5.8-20.5 15.1 0 7.8 4.5 12.5 16 13.4l14.7 1.3c16 1.5 27 7.7 27 24.8 0 17.7-15 27.9-37.2 27.9zm67-1.1h-13.5v-91.6h13.5zm0.9-117.7h-15.1v-15.1h15.1zm76.3 117.7v-11c-7.5 9.7-16 12.1-26.1 12.1-9.3 0-17.5-3.1-22.4-8-9.3-9.3-11.1-24.6-11.1-38.9 0-14.4 1.8-29.6 11.1-38.9 4.9-4.9 13.1-8 22.4-8 10.1 0 18.5 2.2 25.9 11.7v-51.6h13.4v132.6zm-0.2-45.8c0-19.4-10.3-35-23-35-12.7 0-23 15.6-23 35 0 19.4 10.3 35 23 35 12.7 0 23-15.6 23-35zm45.3 3.5c0 20.1 9.5 31.7 27 31.7 10.6 0 16.7-3.2 24-10.4l9.2 8c-9.4 9.3-17.9 14.1-33.6 14.1-24.2 0-40-14.5-40-46.9 0-29.6 14.3-46.9 37.6-46.9 23.7 0 37.6 17.1 37.6 44.3v6.1zm45.7-25.3c-3.6-8.4-11.7-13.8-21.5-13.8-9.6 0-17.8 5.4-21.4 13.8-2 5-2.4 7.8-2.8 15.3h48.5c-0.4-7.5-0.8-10.3-2.8-15.3zm92.7 67.6v-56.4c0-16.2-8.7-24.4-22.5-24.4-13.8 0-22.8 8.4-22.8 24.4v56.4h-13.4v-91.6h13.4v10c6.6-7.4 15.5-11.1 25.8-11.1 9.8 0 17.8 2.9 23.4 8.5 6.6 6.4 9.5 14.9 9.5 25.5v58.7zm61.1 0c-15.7 0-23.5-11-23.5-24.6v-56.2h-11.6v-10.3h11.6v-28.6h13.4v28.6h19.6v10.3h-19.6v55.9c0 8.3 3.9 13.4 12.5 13.4h7.1v11.5zm38.9 0h-13.5v-91.6h13.5zm0.9-117.7h-15.1v-15.1h15.1zm73.5 117.7v-8.8c-7.5 7.5-14.2 9.9-26.5 9.9-12.7 0-20.1-2.4-25.9-8.4-4.5-4.4-6.9-11.3-6.9-18.6 0-16 11.2-26.4 31.7-26.4h27.6v-8.8c0-13.4-6.7-20.1-23.5-20.1-11.7 0-17.7 2.8-23.1 10.4l-9.1-8.4c8.2-10.6 17.5-13.5 32.4-13.5 24.6 0 36.7 10.6 36.7 30.5v62.2zm0-42.3h-25.7c-13.8 0-20.5 5.6-20.5 16.2 0 10.6 6.5 15.7 21 15.7 7.9 0 14.8-0.6 20.5-6.2 3.2-3 4.7-8.2 4.7-15.8zm58.3 42.3c-16.1 0-23.3-10.5-23.3-24.4v-108.2h13.4v107.6c0 8.9 3 13.4 12.3 13.4h7.2v11.6z"/>
		</g>
	</g>
</svg>