<svg version="1.2" xmlns="http://www.w3.org/2000/svg" viewBox="0 0 1577 416" width="1577" height="416">
	<title>Essex-logo-svg</title>
	<style>
		.s0 { fill: #000000 } 
	</style>
	<path id="Layer" fill-rule="evenodd" class="s0" d="m541.6 304.6c-0.9 35.8-19.3 69-49.8 88.2-27.1 15.7-56.8 23.6-88.3 21.8-27 0.9-53.2-4.3-78.6-13.9-7.8-3.5-8.7-6.1-8.7-20.1 0-26.2 2.6-48 2.6-55.9 0.9-6.1 1.8-8.7 4.4-8.7 2.6 0 4.4 1.7 4.4 6.1 0 7 0 13.1 1.7 19.2 8.7 39.3 47.2 54.1 86.5 54.1 55.9 0 83-36.6 83-70.7 0-36.6-16.6-57.6-67.3-95.1l-26.2-19.2c-62-46.3-76-78.6-76-115.3 1.7-56.7 48-95.1 122.3-95.1 18.3 0 36.7 1.7 54.1 5.2 7 1.8 14 2.7 20.1 2.7 4.4 0 6.1 0.8 6.1 3.4 0 2.7-2.6 20.1-2.6 55.9 0 8.7-0.8 12.2-4.3 12.2-2.7 0-4.4-2.6-4.4-6.9-0.9-8.8-3.5-18.4-7.9-26.2-3.5-6.1-19.2-28-72.5-28-40.1 0-71.6 22.7-71.6 61.1 0 30.6 16.6 48 71.6 89.1l16.6 11.3c68.2 49.8 84.8 82.9 84.8 124.8zm194.7-123.9l-16.6-11.4c-55-41-70.7-58.4-70.7-89 0-38.4 31.4-61.1 71.6-61.1 54.2 0 69.9 21.8 73.4 27.9 3.5 7.9 6.1 17.5 7.9 26.2 0.8 4.4 1.7 7 4.3 7 2.6 0 4.4-3.5 4.4-12.2 0-35.8 2.6-53.3 2.6-55.9 0-2.6-0.9-3.5-6.1-3.5-7 0-14-0.8-20.1-2.6-17.5-3.5-35.8-5.2-54.1-5.2-74.3 0-120.6 38.4-120.6 95.1 0 36.7 14 69 76 115.2l26.2 19.2c50.7 37.6 67.3 58.5 67.3 95.2 0 34-27.1 70.7-83 70.7-39.3 0-77.8-14.8-86.5-54.1-1.7-6.1-1.7-13.1-1.7-19.2 0-4.4-0.9-6.1-4.4-6.1-2.6 0-4.4 2.6-4.4 8.7-0.8 8.7-2.6 29.7-2.6 55.9 0 13.9 0.9 16.5 8.7 20 24.5 10.5 51.6 14.9 78.7 14 30.5 0.9 61.1-7 88.2-21.8 30.5-19.2 48.9-52.4 49.8-88.2-3.5-42.8-19.3-75.9-88.3-124.8zm-481.2 156.2c-2.7 0-4.4 1.8-5.3 7.9-4.4 21.8-11.3 32.3-26.2 38.4-14.8 6.1-41 6.1-55.9 6.1-56.8 0-66.4-7-68.1-43.6-0.9-11.4 0-72.5 0-90.8v-46.3c0-1.7 0.9-3.5 4.3-3.5 9.7 0 68.2 0.9 83 2.7 22.7 1.7 28 11.3 30.6 18.3 1.7 5.2 2.6 11.3 2.6 17.4 0 2.7 0 4.4 4.4 4.4 4.4 0 4.4-6.1 4.4-9.6 0-3.5 0.8-23.6 2.6-34 1.7-17.5 4.3-26.2 4.3-29.7 0-3.5-0.8-4.4-2.6-4.4-1.7 0-3.5 1.8-8.7 7-6.1 4.4-14.9 6.1-28.8 7-13.1 0.9-85.6 0.9-92.6 0.9-2.6 0-3.5-1.8-3.5-5.3v-146.6c0-3.5 0.9-5.3 3.5-5.3 6.1 0 69.8 0.9 80.3 1.8 31.5 3.5 37.6 9.6 42 18.3 2.6 6.1 3.5 12.2 3.5 19.2 0 4.4 2.6 7 4.3 7 1.8 0 3.5-3.5 4.4-6.1 0.9-6.1 2.6-29.7 2.6-34.9 1.8-14.9 4.4-22.7 4.4-25.3 0-2.7 0.8-4.4-2.6-4.4-2.7 0-5.3 1.7-7.9 2.6-7.9 1.8-16.6 2.6-25.3 2.6h-133.7c-2.6 0-39.3-0.8-65.5-0.8-7 0-9.6 1.7-9.6 3.4 0 1.8 2.6 3.5 4.4 3.5 7 0 13.1 0.9 20.1 1.8 19.2 3.5 23.5 13.1 25.3 29.7 0.9 17.4 0.9 32.3 0.9 115.2v93.4c0 50.6 0 92.5-2.7 115.2-2.6 15.7-5.2 27.1-16.6 28.8-6.1 0.9-11.3 1.8-17.4 1.8-3.5 0-4.4 1.7-4.4 3.5 0 3.5 2.6 4.3 9.6 4.3 17.5 0 54.2-1.7 57.7-1.7 16.6 0 55.9 3.5 144.1 3.5 22.7 0 27.1 0 31.4-14 3.5-16.6 6.2-34 7.9-51.5-1.7-3.5-2.6-7.9-5.2-7.9zm869.1 0c-2.7 0-4.4 1.8-5.3 7.9-4.3 21.8-11.3 32.3-26.2 38.4-14.8 6.1-41 6.1-55.9 6.1-56.8 0-65.5-7-68.1-43.6-0.9-11.4 0-72.5 0-90.8v-46.3c0-1.7 0.9-3.5 4.4-3.5 9.6 0 68.1 0.9 83.8 2.7 22.7 1.7 28 11.3 30.6 18.3 1.7 5.2 2.6 11.3 2.6 17.4 0 2.7 0 4.4 4.4 4.4 4.3 0 4.3-6.1 4.3-9.6 0-3.5 0.9-23.6 2.7-34 1.7-17.5 4.3-26.2 4.3-29.7 0-3.5-0.8-4.4-2.6-4.4-2.6 0-4.4 2.6-8.7 7-5.3 5.2-14 6.1-27.1 7.9-13.1 0.8-85.6 0.8-92.6 0.8-2.6 0-3.5-1.7-3.5-5.2v-147.5c0-3.5 0.9-5.3 3.5-5.3 6.1 0 69.9 0.9 80.4 1.8 31.4 3.5 37.5 9.6 41 18.3 2.6 6.1 3.5 12.2 3.5 19.2 0 4.4 2.6 7 4.4 7 2.6 0 3.5-3.5 4.3-6.1 0.9-6.1 2.7-29.7 2.7-34.9 1.7-14.9 4.3-22.7 4.3-25.3 0-2.7 0.9-4.4-2.6-4.4-2.6 0-5.2 1.7-7.8 2.6-7.9 1.8-16.6 2.6-25.4 2.6h-135.4c-3.5 0-39.3-1.7-65.5-1.7-6.1 0-9.6 1.7-9.6 4.3 0 2.7 2.6 3.5 4.4 3.5 7 0 13.1 0.9 20.1 1.8 19.2 4.3 24.4 13.1 25.3 30.5 0.9 16.6 0.9 31.5 0.9 114.4v93.4c0 50.6 0 92.5-2.6 115.2-2.7 15.7-5.3 27.1-16.6 28.8-6.2 0.9-11.4 1.8-17.5 1.8-3.5 0-4.4 1.7-4.4 3.5 0 3.5 2.6 4.3 9.6 4.3 17.5 0 54.2-1.7 56.8-1.7 16.6 0 55.9 3.5 144.1 3.5 22.7 0 27.1 0 31.5-14 3.5-16.6 6.1-34 7.8-51.5-0.8-3.5-1.7-7.9-4.3-7.9zm445.4 63.8c-6.9 0-13.9-1.8-20-3.5-14-3.5-26.2-12.2-34.1-23.6-12.2-14-111.8-168.5-123.2-185.1l94.4-128.3c16.6-22.7 27.9-38.4 44.5-42.7 6.1-1.8 13.1-2.7 19.2-2.7 4.4 0 6.1-1.7 6.1-3.5 0-1.7-2.6-3.4-9.6-3.4-20.1 0-43.6 1.7-48.9 1.7-5.2 0-29.7-1.7-51.5-1.7-7 0-9.6 0.8-9.6 3.4 0 2.7 1.7 3.5 5.2 3.5 6.1 0 11.4 0 17.5 1.8 6.1 1.7 9.6 6.1 9.6 9.6 0 7-2.6 13.1-6.1 19.2-6.1 11.3-68.2 102.1-85.6 124.8-30.6-45.4-54.2-84.7-78.6-126.6-3.5-5.2-5.3-11.3-6.1-17.4 0-4.4 2.6-7.9 6.9-8.7 5.3-0.9 10.5-1.8 15.8-1.8 3.5 0 5.2-0.9 5.2-3.5 0-2.6-1.7-3.5-9.6-3.5-20.1 0-50.7 1.8-55 1.8-4.4 0-51.6-1.8-68.2-1.8-7.8 0-9.6 1.8-9.6 3.5 0 1.8 1.8 3.5 5.3 3.5 7.8 0 16.6 1.8 24.4 3.5 20.1 6.1 32.3 21.8 45.4 41.9l94.4 142.3-105.7 151.9c-19.2 27-30.6 38.4-48.1 42.7-6.9 1.8-14.8 2.7-21.8 2.7-2.6 0-4.4 1.7-4.4 3.5 0 1.7 0.9 3.5 6.2 3.5 19.2 0 48-1.8 53.2-1.8 5.3 0 42 1.8 55.9 1.8 4.4 0 7-1.8 7-3.5 0-1.8-1.7-3.5-4.3-3.5-3.5 0-7-0.9-11.4-0.9-5.2-0.9-8.7-5.2-9.6-9.6q1.3-13.1 7.9-23.6l90.8-140.5c34.9 53.2 69 105.6 100.5 158l11.3 22.7c29.7 0.9 57.7 0.9 93.5 0.9 5.2 0 7.8-1.8 7.8-4.4 0-2.6-3.5-2.6-7-2.6z"/>
</svg>