<svg version="1.2" xmlns="http://www.w3.org/2000/svg" viewBox="0 0 1533 310" width="1533" height="310">
	<title>Evergy_logo-svg</title>
	<style>
		.s0 { fill: #72808a } 
		.s1 { fill: #307cc0 } 
		.s2 { fill: #76bb40 } 
		.s3 { fill: #003453 } 
	</style>
	<g id="Layer">
		<g id="Layer">
			<path id="Layer" class="s0" d="m3.5 209.8l56.4-69c6-7.4 20.3-13.5 31.8-13.5h57.9c11.4 0 15.8 6.1 9.7 13.5l-56.3 69c-6 7.4-20.4 13.5-31.8 13.5h-57.9c-11.5 0-15.8-6.1-9.8-13.5z"/>
			<path id="Layer" class="s1" d="m145.2 0.9h57.9c11.5 0 25.8 6.1 31.8 13.5l56.3 68.9c6.1 7.5 1.8 13.5-9.7 13.5h-57.9c-11.4 0-25.8-6-31.8-13.5l-56.3-68.9c-6.1-7.4-1.7-13.5 9.7-13.5z"/>
			<path id="Layer" class="s2" d="m13.3 0.9h57.9c11.4 0 25.8 6.1 31.8 13.5l56.3 68.9c6.1 7.5 1.7 13.5-9.7 13.5h-57.9c-11.5 0-25.8-6-31.8-13.5l-56.4-68.9c-6-7.4-1.7-13.5 9.8-13.5z"/>
			<path id="Layer" fill-rule="evenodd" class="s3" d="m1095.6 51.9c-42.9-1.9-71.8 16.4-71.8 63v98.8h-40.9v-195.2h37.3l3.6 32.7c6.8-16.7 26.2-35.9 71.8-34.8zm-637-34.9c54.6 0 88.4 38.9 88.4 98.2 0 4 0 8.6-0.7 13.2h-141.6c2.1 35.8 27.7 55 53.4 55.4 24.2 0 43-11 50.5-30.2h33.4c-4.3 28-29 62.1-83.5 61.8-56.8 0-92.7-43.3-92.7-99.5 0-56.2 33.7-98.8 92.7-98.8zm395.9 0c54.6 0 88.4 38.8 88.4 98.2 0 3.9 0 8.5-0.7 13.1h-141.6c2.1 35.9 27.7 55.1 53.3 55.5 24.2 0 43.1-11 50.6-30.3h33.4c-4.3 28-29.1 62.2-83.5 61.8-56.8 0-92.7-43.3-92.7-99.4 0-56.2 33.7-98.9 92.7-98.9zm351.3 2.4c39.4 0 56.9 21.9 56.9 21.9l8.8-19.7h28.4v200.8c0 42.3-27 74.5-71.1 81.5q0 0 0 0c-6.2 1.1-12.8 1.7-19.6 1.7-59.9 0-87-37.5-92.1-68.5h37c8.3 21.2 29.1 33.3 55.8 33.3 2.9 0 5.7-0.3 8.6-0.8 26.2-3 42.6-21.6 42.6-47.5v-32.7c0 0-17.5 21.9-54.7 21.9-48.1 0-89.7-41.7-89.7-96.4 0-54.8 41.6-96.3 89.7-96.3zm-605 0.7l53.4 147.6 53.4-147.6h43.8l-77.9 194.5h-39.2l-77.3-194.5zm776.2 0l60.1 143.3 55.8-143.3h39.5l-116.2 289h-37.4l38.4-95.1-81-193.9zm-919 28.9q0.1 0 0.2 0 0 0 0.1 0zm0.1 0c-30.9 0.1-47.9 20.7-52.6 50.5h103.3c-3.5-30.5-20.5-50.4-50.7-50.5zm395.7 0q0.1 0 0.1 0 0.1 0 0.1 0zm0.2 0c-30.9 0.1-47.9 20.7-52.5 50.5h103.2c-3.5-30.5-20.6-50.4-50.7-50.5zm411.4 65.6c0-32.6-24.4-59-54.7-59-30.3 0-54.7 26.4-54.7 59 0 32.6 24.4 59 54.7 59 30.3 0 54.7-26.4 54.7-59zm-980.2 6.5c11.4 0 15.8 6.1 9.7 13.5l-56.3 69.2c-6.1 7.5-20.5 13.5-31.9 13.5h-57.8c-11.4 0-15.8-6.1-9.7-13.5l56.3-69.2c6.1-7.4 20.4-13.5 31.9-13.5z"/>
		</g>
	</g>
</svg>