<svg version="1.2" xmlns="http://www.w3.org/2000/svg" viewBox="0 0 1523 185" width="1523" height="185">
	<title>eversource-svg</title>
	<style>
		.s0 { fill: #2caae2 } 
		.s1 { fill: #007749 } 
		.s2 { fill: #07b14c } 
		.s3 { fill: #000000 } 
	</style>
	<g id="Layer">
		<path id="Layer" class="s0" d="m891.8 47.8h-162.8c15.2-28.4 45.3-47.2 81.4-47.2 36.2 0 66.2 18.8 81.4 47.2z"/>
		<path id="Layer" class="s1" d="m729.7 137.2h161.4c-15.4 28.4-45 47.2-80.7 47.2-35.6 0-65.3-18.7-80.7-47.2z"/>
		<path id="Layer" class="s2" d="m900.9 73.6q0.5 2.9 0.9 5.9 0.4 2.9 0.5 5.9 0.2 2.9 0.2 5.9c0 9-1.2 17.7-3.4 25.9h-177.4c-2.3-8.2-3.5-16.9-3.5-25.9q0-3 0.2-5.9 0.2-3 0.6-5.9 0.3-3 0.9-5.9 0.5-2.9 1.3-5.8h178.4q0.7 2.9 1.3 5.8z"/>
		<g id="Layer">
			<path id="Layer" fill-rule="evenodd" class="s3" d="m0.4 3.6h107.3v29.5h-73v43.9h67v29.6h-67v45.3h76.9v29.5h-111.2zm121 0h37.2l37.6 113.4c3.4 10.3 6.8 26.5 6.8 26.5h0.5c0 0 3.4-16.1 6.8-26.5l38.1-113.4h36.5l-64 177.8h-35.2zm180.5 0h107.3v29.5h-73.1v44h69.1v29.5h-69.1v45.3h77v29.5h-111.2zm137.7 0h-0.1c0 0 0.1 0 0.1 0zm58.1 0c18.4 0 26.6 1.4 33.9 4.1 19.1 7.3 31.4 25.3 31.4 49.9 0 20.8-10.7 40.7-29.2 48.3v0.6c0 0 2.2 2.7 6 9.4l36.1 65.5h-38.4l-34.5-65.3h-29.1v65.3h-34.3v-177.8zm-23.9 29.5v53.5h27.3c16.6 0 27-10 27-27.1 0-10.9-3.6-18.8-11.9-23-4.4-2.2-10.1-3.4-20.8-3.4zm129.6 100.9c0 0 19.6 18.8 43.9 18.8 12.8 0 24.7-6.4 24.7-20.1 0-29.8-83.1-25.3-83.1-80 0-30.3 25.8-52.1 60.2-52.1 35.6 0 53.8 19.1 53.8 19.1l-14.9 28.1c0 0-17.2-15.5-39.2-15.5-13.9 0-25.5 7.9-25.5 19.9 0 29.5 83.1 22.6 83.1 79.6 0 28.5-21.9 52.6-59.6 52.6-39.8 0-61.9-24.4-61.9-24.4 0 0 18.5-26 18.5-26zm317-130.4h34.3v113.6c0 22.9 14.9 35.8 37.8 35.8 23 0 38.1-12.9 38.1-36v-113.4h34.2v113.6c0 39.8-28.9 67.2-72.1 67.2-43.4 0-72.3-27.4-72.3-67.2zm171.1 0q0 0 0 0zm58.1 0c18.5 0 26.7 1.4 34 4.2 19.1 7.2 31.4 25.2 31.4 49.9 0 20.7-10.8 40.6-29.3 48.3v0.5c0 0 2.2 2.7 6 9.4l36.2 65.5h-38.4l-34.6-65.3h-29.1v65.3h-34.3v-177.8zm-23.9 29.6v53.4h27.3c16.6 0 27-10 27-27.1 0-10.9-3.6-18.8-11.9-23-4.4-2.2-10.1-3.3-20.8-3.3zm197.8-32.6c43.4 0 65.7 24.3 65.7 24.3l-16.3 25.8c0 0-20.3-18.8-47.9-18.8-36.9 0-58 27.7-58 59.3 0 32.2 21.9 61.9 58.1 61.9 30.2 0 51-22.6 51-22.6l17.9 24.9c0 0-24.7 29-70.3 29-54.5 0-92-40.1-92-92.6-0.1-51.6 39.2-91.2 91.8-91.2zm88 3h107.3v29.6h-73.1v43.9h67.1v29.5h-67.1v45.3h77v29.5h-111.2z"/>
		</g>
	</g>
</svg>