<svg version="1.2" xmlns="http://www.w3.org/2000/svg" viewBox="0 0 1579 326" width="1579" height="326">
	<title>Everest_Investor-Presentation_FINAL-1-pdf-svg</title>
	<defs>
		<clipPath clipPathUnits="userSpaceOnUse" id="cp1">
			<path d="m-333-317.75h6534v5050.94h-6534z"/>
		</clipPath>
	</defs>
	<style>
		.s0 { fill: #235cf4 } 
		.s1 { fill: #000000 } 
	</style>
	<g id="Clip-Path: Page 1" clip-path="url(#cp1)">
		<g id="Page 1">
			<path id="Path 9" class="s0" d="m0.7 325.2l187.3-325.2 30.9 54.1-124.5 216.6h62.2l93.7-162.2 31.3 53.7-62.7 108.5h62.7l31-54.1 62.2 108.6z"/>
			<path id="Path 11" fill-rule="evenodd" class="s1" d="m927.2 155.2c3.7 12.3 5.8 25.1 5.4 37.9v10.8h-123c0.8 11.1 5.8 21.4 14 28.4 8.3 6.6 18.6 10.3 29.3 10.3 8.7 0 17.8-2 25.6-6.6 6.6-4.1 12.8-9.5 17.7-15.2l28.9 21.8c-8.2 10.8-19 19.4-31.3 24.8-11.6 5-24.4 7.4-36.7 7.4-12 0-23.5-2-34.3-6.2-10.7-3.7-20.2-9.5-28-16.9-7.9-7.8-14.5-16.9-18.6-26.8-9.5-22.3-9.5-47.5 0-69.7 4.1-10.4 10.7-19.4 18.6-26.9 7.8-7.4 17.3-13.6 28-17.3 10.8-4.1 22.3-6.2 34.3-5.8 10.3-0.4 21 1.7 30.9 5.8 9.1 3.7 16.9 9.5 23.9 16.9 6.6 7.9 12 17.4 15.3 27.3zm-34.7 18.5c-0.4-11.9-4.1-21-11.5-28-7-7-16.9-10.3-29.7-10.3-12 0-21.9 3.3-28.9 10.3-7.4 7.8-11.9 17.7-12.8 28zm158-68.1q3.7 0.9 7.4 1.7v39.2q-5.3-1.2-9.9-2.1-4.9-0.8-9.9-0.8c-7.4-0.4-15.6 1.2-22.2 5q-8.3 4.5-13.6 11.9c-2.5 4.2-4.6 8.7-5.8 13.6-0.8 3.3-1.7 6.6-1.7 10.4v86.2h-40.4v-161.8h40.4v26h0.9c4.1-9 10.7-16.9 18.9-22.2 8.7-5 18.6-7.9 28.9-7.5q3.3 0 7 0.4zm168.7 49.6c3.7 12.3 5.8 25.1 5.4 37.9v10.8h-122.9c0.8 11.1 5.7 21.4 14 28.4 8.2 6.6 18.5 10.3 29.3 10.3 9 0 17.7-2 25.5-6.6 6.6-4.1 12.8-9.5 17.8-15.2l28.9 21.8c-8.3 10.8-19 19.4-31.4 24.8-11.5 5-23.9 7.4-36.7 7.4-11.6 0-23.1-2-34.2-6.2-10.4-3.7-19.8-9.5-28.1-16.9-7.8-7.8-14.4-16.9-18.6-26.8-9-22.7-9-47.5 0-69.7 4.2-10.4 10.8-19.4 18.6-26.9 8.3-7.4 17.7-13.6 28.1-17.3 11.1-4.1 22.6-6.2 34.2-5.8 10.3-0.4 21 1.7 30.9 5.8 9.1 3.7 17.4 9.5 23.5 16.9 7.1 7.9 12.4 17.4 15.7 27.3zm-34.6 18.5c-0.4-11.9-4.2-21-11.2-28-7.4-7-17.3-10.3-30.1-10.3-11.9 0-21.8 3.3-28.9 10.3-7.4 7.8-11.9 17.3-12.7 28zm179.4 24.4q6.2 9.1 6.2 24.7c0.4 8.7-1.7 17.4-6.2 24.8-4.1 6.2-9.5 12-16.1 15.7-7 4.1-14.4 7-22.3 9.1q-12.3 2.4-24.7 2.4c-12 0-23.5-1.6-34.7-5.3-11.1-4.2-21-10.8-28.4-19.4l26.8-25.6c4.9 5.8 10.7 10.7 16.9 14.4 6.2 4.2 14 5.8 21.5 5.8q4.5 0 9-1.2c3.3-0.4 6.2-1.7 9.1-3.3 2.5-1.7 4.5-3.7 6.6-5.8 4.5-7 2.5-16.1-4.1-20.6-5-3.3-10.3-5.4-16.1-7.1q-9.9-2.4-21-4.5c-7.5-1.2-14.5-3.7-21.1-7-6.2-3.3-11.9-7.9-16.1-13.6-4.5-5.8-6.6-14.1-6.6-24.4 0-8.2 2.1-16.1 5.8-23.5 3.3-6.2 8.3-12 14.4-16.1 6.6-4.5 13.7-7.8 21.1-9.5 18.1-4.5 37.9-4.1 55.7 2.5 10.3 3.3 19.4 10.3 25.5 19l-26.8 24.3c-7-10.7-18.9-16.9-31.7-16.5-5.4 0-10.8 1.3-15.7 4.1-5 2.5-7.8 7.5-7.8 13.2 0 4.6 2.4 8.7 6.6 10.8 4.9 2.5 10.3 4.1 16 5.8 6.6 1.2 13.2 2.8 21.1 4.5q11.1 2.9 21 7.8c6.6 3.3 12 8.3 16.1 14.5zm84.1 16.1c-0.4 6.6 1.7 13.2 4.6 19 3.3 4.9 9.5 7.4 18.1 7.4q6.2 0 12-1.3c3.3-0.8 7-2 9.9-3.7v33.9c-5 2-10.3 3.7-15.7 4.1q-8 1.2-16.1 1.2c-9 0-18.1-0.8-26.4-3.7-6.2-1.6-11.9-5.8-16.1-10.7-4.1-5.4-7-11.6-8.2-17.8-1.7-8.2-2.5-16.9-2.1-25.1v-73.9h-23.5v-34.7h23.5v-25.1l40-13.2v38.3h44.6v34.7h-44.6zm-862.9-59c4.1 12.4 5.8 25.2 5.4 38v10.7h-123c0.9 11.1 5.8 21.4 14.1 28.5 8.6 6.6 18.5 10.3 29.2 10.3 9.1 0 17.8-2.1 25.6-6.6 6.6-4.2 12.8-9.5 18.2-15.3l28.8 21.9c-8.2 10.7-19.3 19.4-31.7 24.7-11.6 5-23.9 7.5-36.7 7.5-11.6 0-23.1-2.1-34.3-6.2-10.3-3.7-19.8-9.5-28-16.9-7.9-7.9-14.5-17-18.6-26.9-9.1-22.2-9.1-47.4 0-70.1 4.1-9.9 10.7-19 18.6-26.4 8.2-7.9 17.7-13.6 28-17.4 11.2-4.1 22.7-6.1 34.3-5.7 10.7-0.4 21 1.6 30.9 5.7 9.1 3.8 17.3 9.5 23.9 17 6.6 7.8 12 17.3 15.3 27.2zm-34.7 18.6c-0.4-12-4.1-21.5-11.1-28.1-7.4-7-17.3-10.3-30.1-10.3-12 0-21.5 3.3-28.5 10.3-7.4 7.8-11.9 17.7-13.2 28.1zm225.3-64.8l-96.2 167.1-95.7-167.1h46.7l47.8 89.1 1.2 2.1 49.5-91.2zm749.6-33h-10.4v-4.2h25.2v4.2h-10.7v28h-4.1zm18.9-3.7h6.6l10.3 24.4 10.4-24.4h6.6v32.2h-4.6v-26.4l-10.7 26.4h-3.3l-10.7-26.4v26.4h-4.6z"/>
		</g>
	</g>
</svg>