<svg version="1.2" xmlns="http://www.w3.org/2000/svg" viewBox="0 0 1545 384" width="1545" height="384">
	<title>new-header-logo-svg</title>
	<defs>
		<linearGradient id="g1" x2="1" gradientUnits="userSpaceOnUse" gradientTransform="matrix(191.759,-329.457,325.822,189.644,113.973,364.941)">
			<stop offset=".17" stop-color="#6e06c1"/>
			<stop offset=".25" stop-color="#5e24bd"/>
			<stop offset=".46" stop-color="#3d67b4"/>
			<stop offset=".64" stop-color="#239dad"/>
			<stop offset=".8" stop-color="#0fc3a9"/>
			<stop offset=".92" stop-color="#04dba6"/>
			<stop offset="1" stop-color="#00e4a5"/>
		</linearGradient>
	</defs>
	<style>
		.s0 { fill: #170d67 } 
		.s1 { fill: url(#g1) } 
	</style>
	<g id="Group 5400">
		<path id="Vector" fill-rule="evenodd" class="s0" d="m1477.4 116.1c2.5 1 6 2 9.9 2 4.8 0 7.6-1.8 7.6-5.6 0-4.2-3.2-5.5-8.4-7.2-6.2-2.1-9.9-4.8-9.9-10.9 0-6.6 4.5-10.3 12.3-10.3 3.4 0 7 0.8 9.3 1.8l-1.1 4.7c-2.5-0.9-5.2-1.5-7.9-1.5-4.7 0-7 1.8-7 5.1 0 3.7 2.4 5 7 6.5 6.4 2.2 11.3 4.4 11.3 11.8 0 7.4-5.7 10.6-12.9 10.6-4.5 0-8.6-0.9-11.2-2.1l1-4.9zm67.6-31.3v37.7h-5.2v-21.8c0-2.3 0.1-4.3 0.3-6.3-3 7-6.9 14.2-11.8 22h-4.5c-5-7.8-8.8-15-11.9-22q0.3 2.8 0.3 6.3v21.8h-5.1v-37.7h5.7c3.6 9 7.8 17.2 13.3 26 5.4-8.8 9.5-17 13.1-26h5.8zm-895.4 189.3l6.1 30c-17 8-38.5 12.8-61.8 12.8-57.2 0-94.9-35.5-94.9-97.2 0-56.9 33.4-96.8 85.8-96.8 47.5 0 75.5 34.7 75.5 81.1 0 9.5-0.7 17.6-1.4 24.5h-122.6c3.6 39 25.5 56.9 60.8 56.9 17.9 0 36.2-4.4 52.4-11.3zm-112.8-69.4h88c0.4-2.2 0.4-3.7 0.4-5.9 0-24.4-12.6-45.6-40.3-45.6-28 0-44.9 20.1-48.1 51.5zm140.7 107.7c10.5-38 27-65.3 57.2-97.5-24.1-27-43.5-52.9-55.7-87.6h39.2c7.1 19.3 25.1 46.3 42.4 67.9 18.3-22.6 32.3-44.9 37-67.9h37c-9.3 35.4-26.2 61.3-54.6 90.2 24.4 28.1 42.8 53.7 60.7 94.9h-39.5c-11.5-26.6-31.6-55.8-47.5-75.2-17.9 23.4-33 45.6-40.5 75.2zm323.4-38.3l6.1 30c-16.9 8-38.4 12.7-61.8 12.7-57.2 0-94.9-35.4-94.9-97.1 0-57 33.4-96.8 85.9-96.8 47.4 0 75.5 34.7 75.5 81.1 0 9.5-0.8 17.5-1.5 24.4h-122.5c3.6 39.1 25.5 57 60.7 57 18 0 36.3-4.4 52.5-11.3zm-112.9-69.5h88c0.4-2.2 0.4-3.6 0.4-5.8 0-24.5-12.6-45.7-40.2-45.7-28.1 0-44.9 20.1-48.2 51.5zm156.4 107.8v-262.2l36.3-2.2v264.4zm149.6 4.4c-53.2 0-85.2-39.5-85.2-97.2 0-57.7 31.3-96.8 85.2-96.8 53.9 0 85.5 39.1 85.5 96.8 0 58.1-32.3 97.2-85.5 97.2zm0-31.1c32.7 0 48.1-26.3 48.1-66.1 0-39.8-16.5-65.7-48.1-65.7-31.6 0-48.2 25.9-48.2 65.7 0 40.2 15.5 66.1 48.2 66.1zm152.2 26.7h-36.3v-172.4c22.2-10.6 50.6-17.2 78.3-17.2 50.3 0 76.9 26 76.9 70.5v119.1h-36.3v-116.5c0-26.6-13.3-42-40.6-42-15.1 0-29.8 3.3-42 9.5z"/>
		<path id="Vector_2" fill-rule="evenodd" class="s1" d="m378.3 231.2c6.3 18.1 7.2 32.9 2.9 45.4-5 14.5-17.3 25.5-36.6 33-15.9 6.1-29.3 7.1-42.3 8-11.4 0.8-22.1 1.5-33.8 5.8-13.1 4.8-25.6 13.4-39.1 26.9-13.9 14-28.3 23.7-42.8 29.1-8.3 3.1-16.5 4.6-24.4 4.6q-7.7 0-15-2c-10.9-2.9-20.4-8.9-28.4-17.9-7.9-9-13.8-20.5-17.6-34.1-4.1-15.3-9.6-27.1-16.6-36-7.4-9.3-16.7-15.6-28.2-19.2-14.6-4.5-27.6-12.6-37.4-23.3-10.2-11-16.6-24.4-18.4-38.5-2.1-16.1 1.7-33.1 10.9-49 10.5-17.9 27.7-34.6 51.1-49.6 9.5-6 16.2-13.8 22.5-25.9 7.6-14.6 14.4-35.5 21.4-65.6 2.7-11.4 7.1-18.4 13.5-21.3 11-5 25.3 2.6 43.3 12.3 23.5 12.6 52.7 28.2 84.4 20 38.9-10.2 62.3 1.6 75.1 13.2 19.5 17.7 28.2 48 23.2 81.1-3.3 22.8-0.4 39.9 9.8 57.4 8 13.7 16.9 29.9 22.4 45.6zm-27.6-0.9c1.4-15.7-0.8-32.9-6.4-51.5-0.6-1.3-1.2-2.6-1.9-3.9 0.5 4 0.9 8.2 1 12.3 0.7 19.1-2.2 37.7-8.7 55.5-6.6 18.5-16.8 35.2-30.2 49.6-5.6 6.2-11.8 11.7-18.3 16.7 9.5-4 18.7-8.6 28.2-15.6 21.7-16 33.9-37.3 36.3-63.1zm-50.4 58.1c25.4-27.5 38.6-63.3 37.3-100.9-1.3-37.6-17.1-72.4-44.3-98-26.1-24.5-59.6-37.8-95-37.8q-2.5 0-5.1 0.1c-37.2 1.4-71.7 17.2-97.1 44.8-25.4 27.4-38.7 63.3-37.4 100.9 1.4 37.6 17.1 72.3 44.4 98 26 24.4 59.6 37.7 94.9 37.7q2.6 0 5.1-0.1c37.3-1.3 71.8-17.2 97.2-44.7zm5.6-194.2c-18.9-34.1-50.9-50.9-89.2-47.1 10.6 1.4 21.1 3.9 31.3 7.7 18.3 6.7 34.8 16.9 49.2 30.4 3 2.9 5.9 5.9 8.7 9zm-136.9-45.3c-0.5 0-1.1-0.1-1.6-0.1-29.6-1.1-52.9-2.1-66.6 23.5-1.8 3.5-3.5 6.8-5.2 10-1.7 4.2-3.3 8.1-5 11.7 0.5-0.5 0.8-1 1.3-1.4 13.3-14.5 29.1-25.9 46.9-33.9 9.7-4.4 19.8-7.7 30.2-9.8zm-116.1 148.7c-0.4-13 0.8-25.8 3.7-38.2-10.9 22.7-14.2 45.9-9.4 67.7 4.7 21.2 17.1 40.1 35.3 53.9-6.7-8.8-12.4-18.4-17-28.7-7.7-17.2-11.9-35.7-12.6-54.7zm75.4 123.3q1.2 1.3 2.3 2.6c12.1 13.6 27.8 22 45.4 24.2q4.5 0.6 9.1 0.6c14.7 0 29.7-4.4 44-12.7q-12.7 2.8-25.8 3.2c-1.7 0.1-3.5 0.1-5.3 0.1-17 0-33.7-2.9-49.7-8.8q-10.4-3.8-20-9.2zm197.6-199.8c-0.3-2.1-0.6-4.3-0.9-6.5-1.5-12.7-4.9-24.5-10.3-34.8-5.6-10.7-12.9-19.4-21.9-25.9-13.8-10.1-31.3-14.2-50.9-12.2 11.4 1.7 22 5.3 31.9 10.9 16.7 9.6 30.6 25 40.1 44.4 2.7 5.6 5.5 11.1 8.2 16.5q1.9 3.8 3.8 7.6zm-158.2-78.1c7.6 0.3 15.4 0.6 23.3 0.5-10.6-1.9-20.6-5-29.5-7.7-12.5-3.9-22.5-6.7-30.6-6.7-10.6 0-17.8 4.9-22.7 19.1-1 2.9-2 5.7-2.9 8.4 5.7-5.6 12.7-9.4 21.3-11.6 12.2-3.1 26.2-2.6 41-2zm-110.2 102.8c1.5-2.6 3-5.3 4.5-8.1-33.2 34.8-37.1 63.9-34.2 82.3 3 19.5 14.8 36.6 32.8 47.7-9.2-11.6-15.7-25-18.9-39.4-5.9-26.6-0.4-55.1 15.8-82.5zm68.9 181.6c-5.2-6-10.4-11.4-15.5-16.3 3.3 4.6 6.1 9.3 8.2 13.9 9.2 19.4 24.3 32.3 42.7 36.4 18.3 4 38.5-1.2 57.7-14.6-11.3 4.8-22.8 7.3-34.3 7.3q-5 0-9.8-0.6c-19.1-2.4-36-11.4-49-26.1zm174-18.7q0.1 0 0.2 0-0.1 0-0.2 0zm0.2-0.1c9-2.1 18-4.9 27.9-10.2 12.2-6.5 21.3-14.7 26.9-24.7 5.1-8.8 7.6-19.2 7.4-30.9-0.1-10.5-2.4-22.3-6.8-35.4 0.9 8 1 15.8 0.4 23.3-2.5 27.6-15.5 50.2-38.6 67.3-5.8 4.3-11.5 7.7-17.2 10.6zm-35.7-272.2c11.6 1.9 22.2 6.1 31.3 12.8 9.7 6.9 17.6 16.3 23.6 27.8 5.7 11 9.4 23.4 11 36.9 1.2 10.1 2.9 19.3 5.2 28 1.1 2.3 2.1 4.7 3.2 7-0.3-6.8 0.1-13.8 1.2-21.6 4.7-31.2-3.3-59.6-21.4-76-9.9-9-27-18-54.1-14.9zm-142.4-29.6c-4.7 2.1-8 7.8-10.3 17.4-0.6 2.8-1.3 5.5-1.9 8.1 4.4-5.3 10-8.2 17.1-8.9 10.2-1.1 22 2.5 35.7 6.7 14.4 4.4 30.1 9.2 46.9 9.5-18.2-4-34.8-12.9-49.3-20.7-13-6.9-24.6-13.2-33-13.2-1.9 0-3.7 0.4-5.2 1.1zm-99.3 240.6c6.5 7.1 14.6 13 23.6 17.3-13.4-11.6-22.2-26.9-24.8-43.9-3.2-20.5 1-52.9 39.2-90.9 4.2-4.2 8-9 11.8-14.9 0.4-0.7 0.7-1.4 1.1-2.1-2.6 2.3-5.4 4.4-8.3 6.3-22.7 14.5-39.3 30.5-49.3 47.6-8.8 15.1-12.2 30.3-10.2 45.3 1.7 13 7.5 25.2 16.9 35.3zm161.4 126.5c9-3.3 18-8.5 26.9-15.4-12.4 6.6-25.1 10-37.3 10q-7 0-13.7-1.5c-20.2-4.4-36.7-18.4-46.6-39.5-4.2-9-10.2-17.4-17-24.9 4 7.4 7.2 15.9 9.9 25.8 3.5 12.8 9 23.5 16.3 31.8 7.2 8.1 15.8 13.6 25.6 16.2 11.2 3 23.3 2.2 35.9-2.5zm188.2-140.8c-2.6-7.4-5.9-14.9-9.6-22.2 3.4 11.6 5.2 22.2 5.3 31.9 0.3 27.1-12.2 47.5-37.3 60.8-5.8 3.1-11.3 5.3-16.6 7.1 8.7-1 17.8-2.7 27.9-6.6 17.8-6.9 28.7-16.5 33.2-29.4 3.9-11.3 3-24.9-2.9-41.6z"/>
	</g>
</svg>