<svg version="1.2" xmlns="http://www.w3.org/2000/svg" viewBox="0 0 1525 448" width="1525" height="448">
	<title>Expeditors_International_logo-svg</title>
	<defs>
		<clipPath clipPathUnits="userSpaceOnUse" id="cp1">
			<path d="m0.1 0.1h1524.2v447.56h-1524.2z"/>
		</clipPath>
	</defs>
	<style>
		.s0 { fill: #100f0d } 
		.s1 { fill: #ef2c30 } 
	</style>
	<g id="layer1">
		<g id="g86">
			<g id="Clip-Path: g88" clip-path="url(#cp1)">
				<g id="g88">
					<g id="g94">
						<path id="path96" fill-rule="evenodd" class="s0" d="m1482.8 195.3c0-11.7 9.4-21.3 20.7-21.3 11.5 0 20.8 9.6 20.8 21.3 0 11.6-9.3 21.1-20.8 21.1-11.3 0-20.7-9.5-20.7-21.1zm38.6 0c0-10-8-19-17.9-19-9.7 0-17.8 9-17.8 19 0 9.8 8.2 18.9 17.8 18.9 9.8 0 17.9-9.1 17.9-18.9zm-27.6-11.7h10.3c3.7 0 7.3 1.7 7.3 5.6 0 3.3-2.3 5.6-5 6.5l3.5 4.9c1.8 2.4 3.8 4.5 5 5.2v0.5h-3.3c-2.1 0-3.4-3.6-7.9-10.1h-3.4v6.1c0 2.9 0 2.8 3.1 3.2v0.8h-9.6v-0.8c3-0.4 3-0.3 3-3.2v-14.6c0-3.1 0-2.9-3-3.2zm6.5 11.5h3c3.1 0 4.7-2 4.7-5.7 0-3.5-2.3-4.7-5-4.7h-2.7z"/>
					</g>
					<g id="g98">
						<path id="path100" class="s1" d="m991.2 0.1l270.4 0.1-122.8 122.8h-151.6l39.3-39.2h-54.3l44.2-44.3h-65.1z"/>
					</g>
					<g id="g102">
						<path id="path104" class="s1" d="m951.2 39.6l0.4 117.2-46.7 47.1v-118z"/>
					</g>
					<g id="g106">
						<path id="path108" fill-rule="evenodd" class="s0" d="m399.3 250.1c0-6.8-1.5-9.1-3.8-10.7-5.3-3.7-17.9-1.5-17.9-7.2 0-5.7 18.3-7.6 28.9-12.9 10.7-5.4 13-12.2 17.9-12.2 3.1 0 4.2 2.7 4.2 5.3 0 4.6-1.9 10.3-1.9 17.1 0 3.1 0 6.9 2.3 6.9 5.3 0 19-12.6 47.9-12.6 66.7 0 70.1 56.8 70.1 65.9 0 43.8-34.3 77.7-78.4 77.7-27.1 0-35.4-9.2-38.5-9.2-2.6 0-3.8 1.5-3.8 3.8v65.9c0 7.6 5.4 9.1 24 10.6 4.9 0.4 8.4 0.8 8.4 4.6 0 4.2-4.6 4.6-13 4.6-9.5 0-17.5-1.2-31.9-1.2-12.6 0-24.8 1.2-37.3 1.2-3.5 0-8.4-0.4-8.4-5 0-2.7 1.9-3.8 5.3-4.2 14.1-1.5 25.9-2.3 25.9-17.5zm25.9 81.9c0 16.7 29.3 26.2 41.1 26.2 30.1 0 57.1-20.9 57.1-58.6 0-25.5-18.7-61.3-68.5-61.3-3.4 0-29.7 2.3-29.7 13.3z"/>
					</g>
					<g id="g110">
						<path id="path112" fill-rule="evenodd" class="s0" d="m595.9 275.6c-0.8 2.3-0.8 7.3-0.8 13.3 0 32 8.8 63.6 55.2 63.6 29.3 0 30.1-15.2 36.2-15.2 1.9 0 3.4 1.1 3.4 3 0 2.7-16 30.4-55.6 30.4-41.8 0-65.8-29.6-65.8-77.2 0-35.8 22.1-80.3 69.2-80.3 43.8 0 58.7 37.3 58.7 53.7 0 6.8-1.2 8.7-7.6 8.7zm75.3-30.1c0-12.9-12.1-23.2-28.1-23.2-27.4 0-43.8 26.7-43.8 38.5 0 2.6 0.7 3.4 33.1 3.4 33.5 0 38.8-5 38.8-18.7z"/>
					</g>
					<g id="g114">
						<path id="path116" fill-rule="evenodd" class="s0" d="m860.5 347.9c0 7.3 1.5 8.4 6.1 8.4 6.5 0 10.7-1.9 14.1-1.9 1.9 0 3.4 1.5 3.4 3.8 0 8.3-40.7 12.6-43 12.6-3.8 0-6.9-1.9-6.9-5 0-5.3 2.3-12.2-1.1-12.2-3.1 0-17.2 12.6-48.3 12.6-36.6 0-72.4-23.2-72.4-68.5 0-43 37.3-74.6 78.4-74.6 24 0 34.7 8.7 39.2 8.7 3.8 0 4.6-3 4.6-7.6v-80.3c0-14.5-22.5-8.8-22.5-17.9 0-5.3 5.4-6.4 10-6.4h35.7c1.9 0 3.8 1.5 3.8 5.3 0 14.8-1.1 33.1-1.1 49.8zm-66.2-115.7c-35.4 0-54.5 28.6-54.5 60.2 0 24.3 12.2 59.3 64.8 59.3 11.7 0 24.3-3.4 28.5-8.7 3.4-4.2 3.4-19 3.4-38.1 0-40.7-1.5-72.7-42.2-72.7z"/>
					</g>
					<g id="g118">
						<path id="path120" fill-rule="evenodd" class="s0" d="m1172.2 370.8c-41.3 0-74.8-35.3-74.8-78.8 0-43.6 33.5-78.8 74.8-78.8 41.4 0 74.8 35.2 74.8 78.8 0 43.5-33.4 78.8-74.8 78.8zm45.9-78.8c0-38.6-20.5-69.7-45.9-69.7-25.3 0-45.8 31.1-45.8 69.7 0 38.5 20.5 69.6 45.8 69.6 25.4 0 45.9-31.1 45.9-69.6z"/>
					</g>
					<g id="g122">
						<path id="path124" class="s0" d="m37.4 158c0-9.9-3.8-11.8-17.9-14.8-11.8-2.3-16.7-3.1-16.7-7.7 0-3.4 5.3-4.5 11-4.5 14.1 0 45.3 1.5 54.8 1.5 11.4 0 65.1-1.5 97.5-1.5 5.7 0 5.7 4.2 5.7 12.2v36.5c0 1.5-1.6 2.3-3.1 2.3-4.9 0-4.2-4.2-10.3-17.2-5.7-13.3-7.6-19.4-72.3-19.4-13.7 0-16 5-16 17.9v65.9c0 7.6 5.7 8.3 19.1 8.3h33.1c28.1 0 19.4-32.7 28.9-32.7 5 0 5.3 3.4 5.3 7.6 0 8.8-1.5 14.1-1.5 32 0 16 1.5 26.3 1.5 36.9 0 3.4-0.3 6.5-4.1 6.5-5.7 0-6.1-6.1-8-17.1-3.5-19.9-6.9-22.5-53.7-22.5-17.9 0-20.6 2.3-20.6 9.9v73.8c0 17.2 1.5 19.1 45.7 19.1 25.9 0 34.6-3.8 42.6-13 18.3-20.9 16.4-30.8 22.9-30.8 3.4 0 3.8 1.9 3.8 3.8 0 1.5-1.2 3.4-1.5 6.1l-7.3 38.8c-1.1 6.1-3.4 8-8.7 8h-108.5c-42.2 0-46 1.5-49.9 1.5-3 0-9.1 0-9.1-4.5 0-5.7 6.8-5 16.4-7.6 9.9-3.1 20.9-1.2 20.9-17.2z"/>
					</g>
					<g id="g126">
						<path id="path128" class="s0" d="m220.5 234.9c-3.8-5-7.2-5.7-11-6.5-4.6-0.8-7.3-1.5-7.3-4.9 0-4.2 5.4-4.2 8.4-4.2 9.9 0 19.4 0.8 28.9 0.8 8.8 0 20.6-0.8 25.5-0.8 2.7 0 8.4 0.4 8.4 4.2 0 3.4-4.2 3.8-8 4.9-3.8 1.1-8.4 2.7-8.4 7.6 0 4.2 25.9 38.8 30.5 38.8 3 0 6.1-3.8 8.4-7.6l12.5-21.7c1.9-3 4.6-7.6 4.6-12.1 0-3.9-4.6-4.2-8.4-5-5.3-1.1-8.4-1.5-8.4-4.9 0-3.1 1.6-4.2 8-4.2 8.8 0 17.2 0.8 25.9 0.8 7.6 0 15.6-0.8 23.3-0.8 4.5 0 11 0.4 11 4.5 0 4.2-4.6 3.5-9.2 4.6-11 2.7-20.1 5.7-27 14.5l-30.8 38.8c-0.4 0.8-1.5 2.3-1.5 3.8 0 5.7 30.8 41.9 35.4 48 8.3 11 12.1 17.1 25.5 22.8 5.3 2.3 8.3 3.4 8.3 6.8 0 2.3-5.3 2.3-9.1 2.3-5.7 0-18.3-1.5-30.8-1.5-9.2 0-18.3 1.5-23.3 1.5-1.8 0-8.3 0-8.3-3.8 0-2.6 3.8-4.1 6.1-5.3 5.7-2.6 9.5-4.9 9.5-8 0-1.9-6.1-8.8-9.9-14.5l-17.2-24.3c-0.7-0.8-1.9-1.5-2.6-1.5-6.5 0-25.2 28.1-25.2 36.9 0 4.5 3.5 9.1 9.6 11.4 3.8 1.5 8 3.1 8 5.7 0 3.4-4.2 3.4-7.6 3.4-6.1 0-14.1-1.5-25.5-1.5-11.5 0-19.4 1.5-25.2 1.5-3.4 0-10.6-0.3-10.6-3.8 0-3 3.8-4.5 6.1-5.3 8-2.6 14.4-5.7 19.4-9.5 3.4-2.7 41.5-46.8 41.5-49.5 0-1.9-1.5-4.2-3.1-6.1z"/>
					</g>
					<g id="g130">
						<path id="path132" class="s0" d="m951.7 342.2c0 11.4 5.7 10.7 15.3 14.1 3 1.1 8.7 1.1 8.7 5 0 4.1-6.1 4.1-9.5 4.1-9.9 0-19.4-1.5-29.3-1.5-10.7 0-21 1.5-31.6 1.5-3.1 0-7.3 0-7.3-4.1 0-1.6 1.2-3.9 6.9-5 15.3-3 20.9-6.5 20.9-21.3v-81.5c0-13.3-18.2-7.2-18.2-14.8 0-5 10.3-3.8 20.2-10.3 18.6-12.2 20.1-15.2 22.8-15.2 1.5 0 2.7 0.4 2.7 2.7 0 6.4-1.6 12.9-1.6 19.4z"/>
					</g>
					<g id="g134">
						<path id="path136" class="s0" d="m1043.5 236.8c-10.6 0-11.8 3-11.8 15.2 0 20.6-1.1 52.1-1.1 73.5 0 15.6 6.1 24.7 26.3 24.7 15.9 0 15.9-4.2 23.6-4.2 2.6 0 4.2 1.2 4.2 3.8 0 3.8-11.1 17.2-38.8 17.2-28.6 0-41.9-10.7-41.9-39.2 0-26.3 0.7-52.6 0.7-82.3 0-5.3-1.9-6.4-8.4-6.4h-8.3c-1.2 0-3.1-0.8-3.1-3.1 0-6.1 18.3-9.1 27.8-19.8 14.5-15.9 11.4-22.4 17.1-22.4 4.6 0 4.6 3 4.6 7.2v14.1c0 3.4 0.8 5 6.1 5h41.1c3.8 0 6.9 0.7 6.9 8.3 0 5-0.4 8.4-6.5 8.4z"/>
					</g>
					<g id="g138">
						<path id="path140" class="s0" d="m1301.5 338c0 12.2 4.5 18.3 32.7 18.3 1.9 0 4.9 0.8 4.9 5 0 3.8-4.5 4.1-8.7 4.1-11.4 0-23.2-1.5-34.6-1.5-11.8 0-23.6 1.5-35.4 1.5-2.7 0-8.4-0.7-8.4-4.5 0-1.9 1.5-4.2 2.7-4.6 14.4-3.4 20.9-3.4 20.9-31.2v-59c0-24-14.9-21-14.9-27.8 0-3.4 8.4-5.3 15.3-11.4 10.3-9.2 15.6-19.8 20.6-19.8 3 0 4.5 1.9 4.5 4.6v11c0 6.1 0 9.9 3 9.9 4.6 0 18.7-19.4 37.7-19.4 8 0 22.1 3 22.1 17.1 0 13.7-12.2 17.1-19.4 17.1-8.8 0-17.9-8.7-25.5-8.7-12.6 0-17.5 12.6-17.5 24z"/>
					</g>
					<g id="g142">
						<path id="path144" class="s0" d="m1378.5 336.5c0-7.2 0.4-11.8 4.6-11.8 3 0 4.5 6.5 6.1 9.9 1.1 2.7 11.4 25.5 33.1 25.5 15.2 0 30.5-7.6 30.5-25.5 0-33.9-72-33.1-72-77.7 0-21.3 12.9-43.7 47.2-43.7 40.3 0 40.7 6.1 40.7 23.2 0 14.9-0.4 17.5-3.4 17.5-11 0-7.6-30.1-37.7-30.1-14.4 0-24.7 8.8-24.7 23.3 0 28.5 75.7 40 75.7 79.1 0 19-12.2 44.6-53.3 44.6-11 0-46.8-1.6-46.8-15.3z"/>
					</g>
				</g>
			</g>
		</g>
	</g>
</svg>