<svg version="1.2" baseProfile="tiny-ps" xmlns="http://www.w3.org/2000/svg" viewBox="0 0 1650 312" width="1650" height="312">
	<title>Exxon_Mobil_Logo-svg</title>
	<style>
		tspan { white-space:pre }
		.shp0 { fill: #fe000c } 
	</style>
	<path id="Layer" fill-rule="evenodd" class="shp0" d="M646.21 225.13L694.38 225.13L694.38 134.48C694.38 111.5 705.8 99.08 724.79 99.08C744.39 99.08 755.22 112.26 755.22 134.48L755.22 225.13L803.4 225.13L803.4 121.66C803.4 81.79 776.1 56.41 741.73 56.41C712.53 56.41 696.72 71.56 691.82 75.82L691.82 60.23L646.21 60.23L646.21 225.13ZM1193.04 228.89C1242.88 228.89 1280.94 190.23 1280.94 142.68C1280.94 95.11 1242.89 56.41 1193.04 56.41C1143.19 56.41 1105.12 95.11 1105.12 142.68C1105.12 190.23 1143.19 228.89 1193.04 228.89ZM1193.33 101.16C1217.01 101.16 1234.04 119.89 1234.04 142.68C1234.04 165.45 1217.01 184.2 1193.33 184.2C1169.68 184.2 1152.68 165.45 1152.68 142.68C1152.68 119.89 1169.69 101.16 1193.33 101.16ZM531.34 228.89C581.21 228.89 619.28 190.25 619.28 142.71C619.28 95.12 581.21 56.42 531.34 56.42C481.53 56.42 443.44 95.12 443.44 142.71C443.44 190.25 481.52 228.9 531.34 228.89ZM531.68 101.18C555.36 101.18 572.37 119.89 572.37 142.7C572.37 165.49 555.36 184.23 531.68 184.23C508.01 184.23 491 165.49 491 142.7C491 119.89 508.01 101.18 531.68 101.18ZM1514.65 41.96L1563.49 41.96L1563.49 0L1514.65 0L1514.65 41.96ZM1514.65 225.13L1563.49 225.13L1563.49 60.23L1514.65 60.23L1514.65 225.13ZM1601.15 225.13L1650 225.13L1650 0L1601.15 0L1601.15 225.13ZM1356.02 212.44C1359.43 215.03 1374.5 228.92 1406.12 228.92C1447.68 228.92 1486.22 191.66 1486.22 142.71C1486.22 93.67 1450.03 56.41 1406.67 56.41C1373.52 56.41 1358.35 71.61 1356.02 73.32L1356.02 0L1309.18 0L1309.18 225.13L1355.49 225.13L1356.02 212.44ZM1395.58 183.89C1371.99 183.89 1354.28 165.9 1354.28 142.72C1354.28 119.23 1372.24 101.41 1395.63 101.41C1419.16 101.41 1436.73 119.4 1436.73 142.58C1436.73 165.84 1418.93 183.89 1395.58 183.89ZM159.39 225.13L215.88 225.13L266.66 159.83L298.32 191.92L225.87 282.68L282.56 282.68L328.95 222.53L416.27 311.45L484.7 311.45L359.2 185.17L458.04 60.23L401.32 60.23L328.28 154.08L296.67 122.28L377.92 19.89L321.35 19.89L265.86 91.34L235.73 60.23L168.23 60.23L236.21 128.91L159.39 225.13ZM0 0L0 225.13L148.18 225.13L148.18 183.12L50.41 183.12L50.41 129.33L143.79 129.33L143.79 88.61L50.41 88.61L50.41 41.94L148.18 41.94L148.18 0L0 0ZM842 0L842 225.13L889.4 225.13L889.4 55.14L891.55 55.14L932.34 225.14L985.6 225.14L1027.34 55.14L1029.5 55.14L1029.5 225.14L1076.9 225.14L1076.9 0L999.49 0L960.95 164.31L959.23 164.31L921.64 0L842 0Z" />
</svg>