<svg version="1.2" xmlns="http://www.w3.org/2000/svg" viewBox="0 0 1578 306" width="1578" height="306">
	<title>factset-logo-svg</title>
	<style>
		.s0 { fill: #00aeef } 
	</style>
	<g id="Layer">
		<g id="Layer">
			<path id="Layer" fill-rule="evenodd" class="s0" d="m59.4 275.6c0 16.3-12.9 30.1-29.3 30.1-16.3-0.9-30.1-13.8-30.1-30.1v-242c0-16.4 12.9-30.2 29.3-30.2h139.4c16.4 0 30.2 13 30.2 29.3 0 16.4-13.8 30.2-30.2 30.2h-109.3zm106.7-155.9c14.7 0 25.9 11.2 25.9 25.8 0 14.7-11.2 25.9-25.9 25.9h-66.2c-13.8 0-25.9-11.2-25.9-25.9 0-14.6 11.2-25.8 26.7-25.8z"/>
		</g>
		<g id="Layer">
			<path id="Layer" fill-rule="evenodd" class="s0" d="m804.1 63.7v211.9c0 16.3-13 30.1-29.3 30.1-16.4 0-30.1-12.9-30.1-30.1v-211.9h-144.7c-49.9-0.8-90.4 38.8-90.4 88.7 0 50 40.5 88.7 90.4 90.4h55.1c16.4 0 29.3 12.9 29.3 29.3 0 16.4-12.9 30.1-29.3 30.1h-55.1c-80.9-1.7-147.2-68-147.2-149.8 0-81.8 65.4-147.2 146.4-148.1h266c17.2 0 29.2 12.9 29.2 30.1 0 16.4-12.9 30.2-29.2 30.2zm-517.4-50c0 0 6.9-13.7 25.8-13.7 19.8 0 25.8 13.7 25.8 13.7l28.5 57.7 91.2 190.3c6.9 14.7 0.9 32.8-13.8 39.6-14.6 6.9-32.7 0.9-39.6-13.7l-92.1-190.3-92.1 190.3c-6.9 14.6-25 20.6-39.6 13.7-14.6-6.8-20.7-24.9-13.8-39.6l92.1-190.3zm44.8 186.9c14.6 0 26.7 11.2 26.7 25.8 0 14.7-12.1 25.9-26.7 25.9h-36.1c-14.7 0-26.7-11.2-26.7-25.9 0-14.6 12-26.7 26.7-25.8zm777.3 25.8c0 41.4-33.6 74.9-74.9 74.9h-104.1c-16.4 0-30.2-13.7-30.2-30.1 0-16.4 13.8-28.4 30.2-30.1h99c9.4 0.8 17.2-6.1 17.2-15.5 0-6.1-2.6-11.2-6.9-13.8l-114.5-77.5c-6.9-6-25-17.2-25-52.5 0-44 35.3-79.3 79.2-79.3h86.1c16.4 0 30.1 13 30.1 30.2 0 16.3-13.7 30.1-30.1 29.3h-87.8c-9.5 0-17.2 8.6-17.2 18 0 6.1 1.7 7.8 5.2 12.1l116.2 80.9c17.2 12.1 27.5 28.5 27.5 53.4zm27.6-192.9c0-16.3 12.9-30.1 29.2-29.2h381.4c17.2 0 29.3 12.9 29.3 30.1 0 16.4-12.9 30.1-29.3 30.1h-62v211c0 16.4-12.9 30.1-29.3 30.1-16.3 0-30.1-12.9-30.1-30.1v-211.8h-229.8v178.2h109.3c16.4 0 30.1 13.8 30.1 30.2 0 16.3-13.7 30.1-30.1 30.1h-139.5c-16.3 0-30.1-13.8-30.1-30.1zm167 85.2c14.6 0 25.8 11.2 25.8 25.8 0 14.7-11.2 25.9-25.8 25.9h-66.3c-14.6 0-25.8-11.2-25.8-25.9 0-14.6 11.2-25.8 26.7-25.8zm244.5 186.9c-16.2 0-29.3-13.5-29.3-30.2 0-16.6 13.1-30.1 29.3-30.1 16.2 0 29.2 13.5 29.2 30.1 0 16.7-13 30.2-29.2 30.2zm25.8-30.6c0-14.5-11.5-26.3-25.8-26.3-14.3 0-25.9 11.8-25.9 26.3 0 14.5 11.6 26.3 25.9 26.3 14.3 0 25.8-11.8 25.8-26.3zm-20.7 3l6.1 12.9h-4.3l-5.2-12h-7.8v12h-3.4v-31.8h11.2c6.9 0 10.3 5.1 10.3 10.3-0.8 3.5-2.6 7.8-6.9 8.6zm-4.3-14.6h-6.9v12h6.9c5.2 0 6.9-3.4 6.9-6 0-3.4-1.7-6-6.9-6z"/>
		</g>
	</g>
</svg>