<svg version="1.2" xmlns="http://www.w3.org/2000/svg" viewBox="0 0 1450 296" width="1450" height="296">
	<title>Fastenal_logo-svg</title>
	<style>
		.s0 { fill: #1a64b7 } 
	</style>
	<g id="layer1">
		<g id="g12260">
			<path id="path11615" fill-rule="evenodd" class="s0" d="m1410.4 247.3l-12.5 43.3h-217.2l2.3-42h-54.1l-20.3 42h-133l-19.1-121.8-1 0.6-28.5 121.2h-233.1l50-174h-46.8l-50 174h-69l50-174h-40.7c-0.1 6.8-1.6 14.1-4.4 21.9h-63.5c2.9-12.7 8.6-30-14-31.2-14-0.9-23.9 4.9-28.3 14.5-5.7 13 1.5 19.6 13.5 26.6 22.5 12.1 42.7 19.6 55.6 30.6 12.9 11 18.1 25.5 10.6 51.8-12 41.6-50 64.8-107.3 64.8-40.6 0-63-10.8-71.6-26.1l0.1 21.1h-69.8l2.3-41.9h-54.1l-20.3 41.9h-69.3l71.2-122.3h-110.4l-35.1 122.3h-91.8l83.2-289.8h216.2l-16.7 58.1h-124.4l-14.7 51.3h114.4l-12.8 44.7 47.6-81.7h83.1l1 160 4.5-15.4 63.9-0.1-4.4 15.3c-3.6 12.5-1.3 23.5 20.5 23.5 16.2 0 26.5-10.7 29.6-21.7 5.2-18.2-13.4-25.1-29.2-33.2-18.7-9-34.3-17.4-44.1-28.4-9.4-11-13-24.2-7.5-43.3 11.7-40.8 51-61.7 104.5-61.7 33.6 0 55.3 9.2 65.4 24.4l5.5-19.4h327.9l-12.5 43.4h-88.9l-11.7 40.4h86.2l-12.4 43.4h-86.2l-13.5 46.9h98.5l50-174.1h71.2l18.9 121.5h1.1l28.2-121.5h65.5l-55.7 193.7 113-193.7h83l1.3 197.8 56.9-197.8h68.9l-50 174.1zm-1086.6-134.6h-0.7l-48.1 97.7h40zm872.4 0h-0.8l-48.1 97.8h40z"/>
			<path id="path11619" fill-rule="evenodd" class="s0" d="m1439.5 103.3h-3.6l-5.6-9.2h-3.7v9.2h-3.2v-21.2h8.1c5 0 7.5 1.8 7.5 6 0 3.8-2.4 5.4-5.5 5.9zm-9.1-11.9c2.7 0 5.2-0.2 5.2-3.5 0-2.6-2.4-3.1-4.7-3.1h-4.4v6.6z"/>
			<path id="path11623" fill-rule="evenodd" class="s0" d="m1449.1 92.7c0 10.6-8.6 18.3-18.6 18.3-10.2 0-18.8-7.7-18.8-18.3 0-10.6 8.6-18.4 18.8-18.4 10 0 18.6 7.8 18.6 18.4zm-3.7 0c0-8.8-6.6-15.3-14.9-15.3-8.5 0-15.1 6.5-15.1 15.3 0 8.8 6.6 15.3 15.1 15.3 8.3 0 14.9-6.5 14.9-15.3z"/>
		</g>
	</g>
</svg>