<svg version="1.2" xmlns="http://www.w3.org/2000/svg" viewBox="0 0 1592 584" width="1592" height="584">
	<title>FedEx_Corporation_-_2016_Logo-svg</title>
	<style>
		.s0 { fill: #ff6600 } 
		.s1 { fill: #652c8f } 
	</style>
	<g id="g15">
		<g id="g17">
			<path id="polygon19" class="s0" d="m922.2 366.3l103.4-116.2-103.4-116.3h109.1l51.3 56.5 49.3-56.5h105.3l-102.9 115.8 104.3 116.7h-109.6l-50.7-56.9-50.3 56.9z"/>
			<path id="polygon21" class="s0" d="m922.2 81.6h-117.1v52.2h117.1v78.5h-117.1v72.1h117.1v81.9h-203.2v-366.3h203.2z"/>
		</g>
		<path id="path23" fill-rule="evenodd" class="s1" d="m719 0v366.3h-85.7v-23.7h-1c-15.7 23.2-41.3 37-69.2 37-64.9 0-112.1-52.3-119.5-113h-169.7c0 27 22.5 49.8 48.7 49.8 22.5 0 31.1-4.8 42.3-20.9h83.4c-21.9 53.7-63.1 83.1-125.7 83.1-74.5 0-132.8-53.7-132.8-130.1 0-12.7 1.5-24.9 4.4-36.2h-96.9v154h-97.3v-366.3h216.3v81.7h-119v52.1h109.1v48c21.7-38.6 63.4-62.3 116.2-62.3 65 0 108.8 34.2 125.8 90 14.9-50.7 57.3-89 113.7-89 27.5 0 51.2 7.6 70.2 29.4h1v-149.9zm-350.1 213.4c-4.5-23.7-21.6-38.4-46.4-38.4-22.5 0-40.5 15.2-45.9 38.4 0 0 94.2 0 92.3 0zm261.8 36.9c0-32.9-14.1-64.5-49.5-64.5-34.2 0-51.2 31.6-51.2 64.5 0 30.8 19.6 60.2 51.2 60.2 34.6 0 49.5-29 49.5-60.2z"/>
	</g>
	<g id="g27">
		<path id="path29" class="s1" d="m766.2 541.8c13.2 0 27.5-7.8 30.3-21.7h13c-4.7 20.1-22.1 31.5-43.7 31.5-39.8 0-56-30.8-56-67.8 0-36.9 16.2-67.8 56-67.8 21.6 0 39 11.4 43.7 31.6h-13c-2.8-14-17.1-21.8-30.3-21.8-32.8 0-43.9 29.9-43.9 58 0 28.1 11.1 58 43.9 58z"/>
		<path id="path31" fill-rule="evenodd" class="s1" d="m863.9 551.6c-28 0-43-21.6-43-48 0-26.5 15-48.1 43-48.1 27.9 0 42.9 21.6 42.9 48.1 0 26.4-15 48-42.9 48zm0-8.3c21.9 0 31.1-20 31.1-39.7 0-19.8-9.2-39.7-31.1-39.7-22 0-31.2 19.9-31.2 39.7 0 19.7 9.2 39.7 31.2 39.7z"/>
		<path id="path33" class="s1" d="m964.4 466.2c-18.3 0-24.6 15.4-24.6 31.4v51.9h-11.1v-64.8c0-8.8-0.2-17.9-0.5-27h10.8l0.8 13.2c5.4-10.5 14.5-15.4 26.6-15.4 1.6 0 3.5 0.2 5.1 0.4v11.1c-2.6-0.4-4.6-0.8-7.1-0.8z"/>
		<path id="path35" fill-rule="evenodd" class="s1" d="m983.9 583.9v-98.8c0-9.1 0-18.3-0.5-27.4h10.8l0.4 13.8c6.9-10.9 15.9-16 29.5-16 28.3 0 40.4 23.4 40.4 48.1 0 24.6-12.1 48-40.4 48-12.7 0-22.6-4.9-29.1-15.4v47.7zm68.8-80.3c0-19.6-8.1-38.8-29.9-38.8-20.4 0-27.9 16.9-27.9 38.8 0 21.9 7.5 38.8 27.9 38.8 21.8 0 29.9-19.2 29.9-38.8z"/>
		<path id="path37" fill-rule="evenodd" class="s1" d="m1121.4 551.6c-27.9 0-42.9-21.6-42.9-48 0-26.5 15-48.1 42.9-48.1 27.9 0 43 21.6 43 48.1 0 26.4-15.1 48-43 48zm0-8.3c22 0 31.2-20 31.2-39.7 0-19.8-9.2-39.7-31.2-39.7-21.9 0-31.1 19.9-31.1 39.7 0 19.7 9.2 39.7 31.1 39.7z"/>
		<path id="path39" class="s1" d="m1222 466.2c-18.3 0-24.6 15.4-24.6 31.4v51.9h-11.1v-64.8c0-8.8-0.2-17.9-0.5-27h10.8l0.8 13.2c5.4-10.5 14.5-15.4 26.6-15.4 1.6 0 3.4 0.2 5.1 0.4v11.1c-2.6-0.4-4.6-0.8-7.1-0.8z"/>
		<path id="path41" fill-rule="evenodd" class="s1" d="m1292.7 537.1c-7 10.7-16.3 14.5-30.6 14.5-16.7 0-31.9-8.5-31.9-27 0-26.6 28.1-30.6 50.6-30.6 4.3 0 7.9 0.2 10.6 0.3v-6.9c0-15.5-6.3-23.5-22.4-23.5-11.8 0-20.1 4.5-21.6 17.5h-11c0.1-19.7 17.4-25.9 32.6-25.9 22.6 0 33.5 6.2 33.5 28.9v31.1c0 14.2 0.5 22.5 2.2 34h-10.5c-0.8-4.4-1.1-7.5-1.5-12.4zm-1.2-34.4c-3.1-0.2-5.6-0.4-8.7-0.4-15.3 0-40.8 0.9-40.8 21.9 0 12.7 10.5 19.1 22.1 19.1 18.5 0 27.4-10.9 27.4-32.1z"/>
		<path id="path43" class="s1" d="m1350.4 551.6c-13.3 0-19.4-7.8-19.4-21v-64.5h-14.9v-8.4h14.9v-18.7l11-4.8v23.5h20.3v8.4h-20.3v59.6c0 12.9 2.2 16.7 11.4 16.7 3.5 0 7.8-1.3 9.8-2.4v9.5c-3.8 1-7.1 2.1-12.8 2.1z"/>
		<path id="path45" class="s1" d="m1376.9 418.4h13.3v13.7h-13.3zm1.1 131.1v-91.7h11.1v91.7z"/>
		<path id="path47" fill-rule="evenodd" class="s1" d="m1454 551.6c-28 0-43-21.6-43-48 0-26.5 15-48.1 43-48.1 27.9 0 42.9 21.6 42.9 48.1 0 26.4-15 48-42.9 48zm0-8.3c21.9 0 31.1-20 31.1-39.7 0-19.8-9.2-39.7-31.1-39.7-22 0-31.2 19.9-31.2 39.7 0 19.7 9.2 39.7 31.2 39.7z"/>
		<path id="path49" class="s1" d="m1529.1 457.7l0.4 13.8c6.3-10.7 16.3-16 29.7-16 24.5 0 32.6 13.4 32.6 36.5v57.5h-11v-53.2c0-17-4-31.5-23.4-31.5-20.7 0-27.5 18.3-27.5 36.4v48.2h-11.1v-64.3c0-9.1-0.2-18.3-0.5-27.4 0 0 10.8 0 10.8 0z"/>
	</g>
</svg>