<svg version="1.2" xmlns="http://www.w3.org/2000/svg" viewBox="0 0 1586 564" width="1586" height="564">
	<title>logo-dark-svg</title>
	<style>
		.s0 { fill: #1f323f } 
	</style>
	<path id="Layer" class="s0" d="m117.5 129.5v117h235v117h-235v195h-117.5v-546h391.6v117z"/>
	<path id="Layer" class="s0" d="m428.3 12.5h117.4v546h-117.4z"/>
	<path id="Layer" class="s0" d="m1046.8 502.3c-41.6 33-91.6 53.6-144.4 59.6-52.8 6-106.2-3-154.2-25.8-47.9-22.9-88.4-58.7-116.8-103.4-28.4-44.8-43.7-96.5-43.9-149.5-0.3-52.9 14.4-104.8 42.4-149.8 28-45 68.1-81.2 115.8-104.5 47.7-23.4 101-32.9 153.9-27.4 52.9 5.4 103.1 25.6 145 58.2-25.5 29.5-45.6 63.2-59.6 99.6-23.9-22.2-53.9-37-86.2-42.4-32.3-5.5-65.5-1.4-95.5 11.7-30.1 13.1-55.6 34.6-73.4 62-17.9 27.3-27.3 59.3-27.2 91.9 0.2 32.6 9.9 64.5 28 91.7 18.1 27.2 43.8 48.5 73.9 61.3 30.2 12.9 63.4 16.6 95.7 10.9 32.2-5.8 62.1-20.8 85.9-43.3 14.3 36.3 34.8 69.8 60.6 99.2z"/>
	<path id="Layer" fill-rule="evenodd" class="s0" d="m1409.8 21.7c34.3 14.2 65.5 34.9 91.8 61.1 26.3 26.2 47.1 57.2 61.4 91.4 14.2 34.2 21.5 70.9 21.5 107.9 0 55.7-16.6 110.2-47.7 156.6-31.1 46.3-75.2 82.5-127 103.8-51.7 21.4-108.6 27-163.5 16.1-54.9-10.9-105.3-37.7-144.9-77.1-39.6-39.5-66.5-89.7-77.5-144.3-10.9-54.7-5.3-111.4 16.1-162.9 21.5-51.5 57.7-95.5 104.3-126.5 46.5-31 101.2-47.5 157.2-47.5 37.2 0 74 7.3 108.3 21.4zm10.5 378.7c31.5-31.4 49.2-73.9 49.2-118.3 0-33.1-9.9-65.5-28.3-93-18.5-27.5-44.8-49-75.5-61.7-30.7-12.6-64.5-15.9-97.1-9.5-32.6 6.5-62.5 22.4-86 45.9-23.5 23.4-39.5 53.2-46 85.7-6.5 32.4-3.1 66.1 9.6 96.7 12.7 30.6 34.3 56.7 61.9 75.1 27.7 18.4 60.2 28.2 93.4 28.2 44.6-0.1 87.3-17.7 118.8-49.1z"/>
	<path id="Layer" fill-rule="evenodd" class="s0" d="m1509.8 521.8c0-3.6 0.5-7.2 1.4-10.6 0.9-3.4 2.1-6.6 3.8-9.6 1.6-2.8 3.6-5.5 5.9-7.9 2.2-2.4 4.8-4.4 7.6-6.1 4.3-2.6 9.1-4.2 14.1-4.9 5-0.7 10.1-0.3 14.9 1 3.2 0.9 6.2 2.2 9 3.9 2.8 1.7 5.4 3.7 7.6 6.1 2.3 2.4 4.3 5 5.9 7.9 1.7 3 3 6.2 3.8 9.6 1.9 7 1.9 14.3 0 21.4-0.8 3.3-2.1 6.5-3.8 9.5-1.6 2.9-3.6 5.6-5.9 8-2.3 2.3-4.8 4.4-7.6 6.1-2.8 1.7-5.8 3-9 3.9-6.5 1.9-13.4 1.9-20 0-3.1-0.9-6.2-2.2-9-3.9q-4.2-2.6-7.6-6.1c-2.3-2.4-4.3-5.1-5.9-8-1.7-3-2.9-6.2-3.8-9.5-0.9-3.5-1.4-7.2-1.4-10.8zm6.1 0c0 4.5 0.9 8.8 2.6 13 1.4 3.9 3.6 7.5 6.4 10.6 2.9 2.9 6.3 5.3 10.1 7 3.9 1.7 8.1 2.5 12.3 2.5 4.2 0 8.4-0.8 12.3-2.5 3.7-1.7 7.1-4.1 10-7 2.8-3.1 5-6.7 6.5-10.6 1.6-4.2 2.5-8.5 2.5-13 0-4.4-0.9-8.8-2.5-12.9-1.5-3.9-3.7-7.5-6.5-10.6-2.9-2.9-6.3-5.3-10-6.9-3.9-1.7-8.1-2.6-12.3-2.6-4.2 0-8.4 0.9-12.3 2.6-3.8 1.6-7.2 4-10.1 6.9-2.8 3.1-5 6.7-6.4 10.6-1.7 4.1-2.6 8.5-2.6 12.9zm23.9 4v17.9h-7.6v-45.2h14.7c2.4 0 4.8 0.3 7.1 0.9 1.9 0.5 3.7 1.3 5.4 2.5 1.4 1.1 2.6 2.5 3.4 4.2 0.8 1.9 1.2 3.9 1.2 6 0 2-0.6 4.1-1.7 5.8-1.3 1.7-3.1 3.2-5.1 4.1q1.7 0.7 3.1 1.9 1.2 1.1 2 2.4 0.7 1.5 1.1 3.2 0.3 1.7 0.3 3.4v3q-0.1 1.8 0 3.7 0.2 1.5 0.7 3v0.8h-7.6q-0.4-0.8-0.5-1.7 0-1.1 0-2.2c0-0.7 0-1.4 0-2.1v-4.4c0.2-2-0.5-4-1.7-5.6-1.7-1.4-3.9-2-6.1-1.8zm0-6.8h8.3q1.6 0 3.2-0.5 1.5-0.4 2.7-1.2c0.8-0.5 1.4-1.2 1.9-2 0.5-0.8 0.7-1.8 0.7-2.8 0-1.2-0.3-2.5-0.7-3.7-0.3-0.9-0.9-1.6-1.7-2.2-0.8-0.6-1.8-1-2.9-1.1q-2.2-0.5-4.5-0.4h-7.2z"/>
</svg>