<svg version="1.2" baseProfile="tiny-ps" xmlns="http://www.w3.org/2000/svg" viewBox="0 0 1610 673" width="1610" height="673">
	<title>FIS_(company)_Fidelity_National_Information_Services_Inc</title>
	<style>
		tspan { white-space:pre }
		.shp0 { fill: #4bcd3e } 
	</style>
	<g id="Layer">
		<g id="Layer">
			<g id="Layer">
				<path id="Layer" class="shp0" d="M866.3 51.72C866.3 23.17 843.15 0 814.57 0C785.99 0 762.84 23.17 762.84 51.72C762.84 80.3 785.99 103.43 814.57 103.43C843.15 103.43 866.3 80.3 866.3 51.72Z" />
				<path id="Layer" class="shp0" d="M649.71 103.43C621.14 103.43 597.99 80.29 597.99 51.72C597.99 23.17 621.14 0 649.71 0C678.29 0 701.44 23.17 701.44 51.72C701.44 80.29 678.29 103.43 649.71 103.43Z" />
				<path id="Layer" class="shp0" d="M484.84 103.43C456.24 103.43 433.11 80.29 433.11 51.72C433.11 23.17 456.24 0 484.84 0C513.4 0 536.56 23.17 536.56 51.72C536.56 80.29 513.4 103.43 484.84 103.43Z" />
				<path id="Layer" class="shp0" d="M319.98 103.43C291.42 103.43 268.25 80.29 268.25 51.72C268.25 23.17 291.42 0 319.98 0C348.56 0 371.7 23.17 371.7 51.72C371.7 80.29 348.56 103.43 319.98 103.43Z" />
				<path id="Layer" class="shp0" d="M155.15 103.43C126.56 103.43 103.39 80.29 103.39 51.72C103.39 23.17 126.56 0 155.15 0C183.7 0 206.85 23.17 206.85 51.72C206.85 80.29 183.7 103.43 155.15 103.43Z" />
				<path id="Layer" class="shp0" d="M1590.37 245.65C1590.37 226 1574.46 210.07 1554.81 210.07L1144.25 210.07C1069.39 210.07 1008.54 267.75 1008.54 342.61C1008.54 417.47 1069.39 475.13 1144.25 475.13L1474 475.13C1506.09 475.13 1532.17 504.46 1532.17 536.51C1532.17 568.6 1506.09 597.92 1474 597.92L1063.47 597.92C1043.85 597.92 1027.91 613.86 1027.91 633.46C1027.91 653.12 1043.85 669.01 1063.47 669.01L1474 669.01C1548.86 669.01 1609.77 611.36 1609.77 536.51C1609.77 461.65 1548.86 404.02 1474 404.02L1144.25 404.02C1112.22 404.02 1086.11 374.66 1086.11 342.61C1086.11 310.54 1112.22 281.23 1144.25 281.23L1554.81 281.23C1574.46 281.23 1590.37 265.3 1590.37 245.65ZM585.07 210.1C583.95 210.1 582.89 210.33 581.83 210.41L581.83 210.1L232.7 210.1C93.99 210.1 0 300.87 0 439.55L0 633.49C0 654.88 17.33 672.24 38.75 672.24C60.2 672.24 77.55 654.88 77.55 633.49L77.55 439.55C77.55 343.4 135.72 281.2 232.7 281.2L581.83 281.2L581.83 280.88C582.89 280.98 583.95 281.2 585.07 281.2C604.69 281.2 620.63 265.26 620.63 245.65C620.63 226.03 604.69 210.1 585.07 210.1ZM116.35 439.56C116.35 459.2 132.28 475.14 151.91 475.14L507.47 475.14C527.15 475.14 543.03 459.2 543.03 439.56C543.03 419.92 527.15 403.99 507.47 403.99L151.91 403.99C132.28 403.99 116.35 419.92 116.35 439.56ZM775.78 245.65L775.78 633.46C775.78 654.88 793.15 672.28 814.57 672.28C835.99 672.28 853.38 654.88 853.38 633.46L853.38 245.65C853.38 224.23 835.99 206.89 814.57 206.89C793.15 206.89 775.78 224.23 775.78 245.65Z" />
			</g>
		</g>
	</g>
</svg>