<svg version="1.2" xmlns="http://www.w3.org/2000/svg" viewBox="0 0 1656 223" width="1656" height="223">
	<title>logo (32)-svg</title>
	<style>
		.s0 { fill: #1b459c } 
		.s1 { fill: #00ae64 } 
		.s2 { fill: #ffffff } 
	</style>
	<g id="Layer">
		<path id="Layer" class="s0" d="m396.5 112.6c0 9.4-8.8 11.8-19.3 11.8h-26.8v24.9c9.3 1.9 13.7 5.6 13.7 8.1v0.6h-31.7v-81.5c-5.6-1.8-10-5.6-10-8.1v-0.6h82.8v22.4h-0.6c-2.5 0-6.3-4.3-8.1-9.9h-46.1v30.5h46.1z" />
		<path id="Layer" class="s0" d="m444.4 158h-33v-0.6c0-2.5 3.7-6.2 8.1-8.1v-58.5c-4.4-1.2-8.1-5.6-8.1-8v-0.7h33v0.7c0 2.4-3.7 6.2-8.1 8v58.5c4.4 1.3 8.1 5.6 8.1 8.1z" />
		<path id="Layer" class="s0" d="m522.8 117c0 9.3-8.7 11.8-19.3 11.8h-24.3v20.5c6.3 1.3 11.2 5.6 11.2 8.1v0.6h-27.3v-67.2c-4.4-1.2-8.1-5.6-8.1-8v-0.7h79.6v20.6h-0.6c-2.5 0-6.2-3.8-8.1-8.1h-46.7v22.4z" />
		<path id="Layer" class="s0" d="m618 82.1v20.6h-0.6c-2.5 0-6.2-3.8-8.1-8.1h-21.8v54.7c6.3 1.3 11.2 5.6 11.2 8.1v0.6h-38.6v-0.6c0-2.5 5-6.2 11.3-8.1v-54.7h-21.2c-1.3 4.3-5.6 8.1-8.1 8.1h-0.6v-20.6z" />
		<path id="Layer" class="s0" d="m651 113.2c7.5-1.8 15.6-2.4 23-1.8c8.1 0 15.6 0.6 23.7 1.8v-22.4c-4.4-1.2-8.1-5.6-8.1-8v-0.7h33v0.7c0 2.4-3.7 6.2-8.1 8v58.5c4.4 1.3 8.1 5.6 8.1 8.1v0.6h-24.3v-31.1c-7.4-1.2-15.5-2.5-23.6-1.8c-7.5 0-15.6 0.6-23.1 1.8v22.4c4.4 1.3 8.1 5.6 8.1 8.1v0.6h-24.9v-67.2c-4.3-1.2-8.1-5.6-8.1-8v-0.7h33v0.7c0 2.4-3.7 6.2-8.1 8z" />
		<path id="Layer" class="s0" d="m865.1 67.8v22.4c-2.5 0-6.8-4.3-8.7-9.9h-27.4v68.4c5.6 1.9 10 5.6 10 8.1h-37.4c0-2.5 4.4-6.8 10-8.1v-67.8h-27.4c-1.9 5.6-5.6 9.9-8.1 9.9h-0.6v-22.4h89.6z" />
		<path id="Layer" class="s0" d="m898.1 113.2c7.5-1.8 15.6-2.4 23-1.8c8.1 0 15.6 0.6 23.7 1.8v-22.4c-4.4-1.2-8.1-5.6-8.1-8v-0.7h33v0.7c0 2.4-3.8 6.2-8.1 8v58.5c4.3 1.3 8.1 5.6 8.1 8.1v0.6h-24.9v-31.1c-7.5-1.2-15.6-2.5-23.7-1.8c-7.4 0-15.5 0.6-23 1.8v22.4c4.4 1.3 8.1 5.6 8.1 8.1v0.6h-24.9v-67.2c-4.4-1.2-8.1-5.6-8.1-8v-0.7h33v0.7c0 2.4-3.7 6.2-8.1 8z" />
		<path id="Layer" class="s0" d="m1012 158h-33v-0.6c0-2.5 3.8-6.2 8.1-8.1v-58.5c-4.3-1.2-8.1-5.6-8.1-8v-0.7h33v0.7c0 2.4-3.7 6.2-8.1 8v58.5c4.4 1.3 8.1 5.6 8.1 8.1z" />
		<path id="Layer" fill-rule="evenodd" class="s0" d="m1054.9 158h-24.2v-67.2c-4.4-1.2-8.1-5.6-8.1-8v-0.7h53.5c18.7 0 30.5 6.3 30.5 22.4c0 12.5-8.1 19.3-20.5 21.2l16.1 23.6c4.4 0.7 9.4 5 9.4 8.1v0.6h-23l-20.6-31.1h-20.5v22.4c4.3 1.3 8.1 5.6 8.1 8.1zm18.6-42.3c13.7 0 16.8-4.3 16.8-10.6c0-6.2-2.4-10.5-16.8-10.5h-26.1v21.1z" />
		<path id="Layer" fill-rule="evenodd" class="s0" d="m1124.7 90.8c-4.4-1.2-8.1-5.6-8.1-8v-0.7h52.9c21.1 0 37.3 12.5 37.3 38c0 25.5-16.2 37.9-37.3 37.9h-44.8zm38.5 54.8c18.1 0 26.8-5.6 26.8-25.5c0-19.9-8.7-25.5-26.8-25.5h-22.4v51z" />
		<path id="Layer" class="s1" d="m249.6 222.1h-183c-36.7-0.6-66.6-29.8-66.6-66.5v-155.6h183c36.7 0 66 29.9 66.6 66.6z" />
		<path id="Layer" class="s2" d="m237.1 66v143.7h-171.1c-29.9 0-54.2-24.3-54.2-54.1v-143.8h171.2c29.9 0 54.1 24.3 54.1 54.2z" />
		<path id="Layer" class="s0" d="m229.7 66.6v135.6h-163.1c-25.5 0-46.7-20.5-46.7-46.6v-135.7h162.5c26.1 0 47.3 21.2 47.3 46.7z" />
		<path id="Layer" fill-rule="evenodd" class="s2" d="m103.3 181.1l37.4-142.5h8.7l-37.4 141.8zm96.5-41.6c4.4 3.1 6.8 8 8.1 13c1.2 6.2-0.6 12.5-5 16.8c-1.2 1.3-6.8 8.7-20.5 8.7h-38.6c0 0 24.9-4.9 20.5-25.5c-1.2-3.7-3.1-8.1-6.2-11.2c-4.4-4.3-8.7-7.4-13.7-9.3c-0.6 0 0 0 0 0c26.1-5.6 19.9-24.9 19.9-24.9c-3.1-10-10.6-17.4-20.5-20.5h39.8c5 0 10 1.8 14.3 4.9c5 3.8 8.7 8.8 10 14.4c1.9 6.2 0 12.4-3.7 17.4c-4.4 5-10 7.4-16.2 8.7c4.3 1.9 8.7 4.3 11.8 7.5zm-110.2-8.8h-46.6c0 0 24.9-4.3 20.5-26.1c-3.7-10.6-11.8-18.7-22.4-21.8h42.3c5.6 0.7 10.6 3.1 15 6.3c4.9 3.7 8.7 9.3 10.5 15.5c1.9 6.9 0.7 14.9-3.1 18.7c-4.3 5-10.6 7.4-16.2 7.4zm11.9-88.3l-0.7 31.7h-60.3v-31.7z" />
		<path id="Layer" fill-rule="evenodd" class="s0" d="m1324.4 68.4c21.2 0 34.9 5.6 34.9 22.4c0 10.6-7.5 17.5-19.9 20.6c14.3 2.5 22.4 9.9 22.4 21.8c0 14.3-12.5 25.5-33.6 25.5h-58.5v-80.9c-5.6-1.9-9.4-5.6-9.4-8.1v-1.3zm-1.8 35.5c11.2 0 19.3-2.5 19.3-11.8c0-8.7-8.1-10-19.3-10h-34.3v21.8zm0.7 39.8c15.5 0 21.1-4.3 21.1-12.4c0-8.1-5.6-13.1-21.1-13.1h-34.9v25.5z" />
		<path id="Layer" class="s0" d="m1468.2 90.8c-4.3-1.2-8.1-5.6-8.1-8v-0.7h23.7l49.8 51.7v-43c-4.4-1.2-8.1-5.6-8.1-8v-0.7h31.1v0.7c0 2.4-3.7 6.2-8.1 8v58.5c4.4 1.3 8.1 5.6 8.1 8.1v0.6h-21.8l-51.6-52.8v44.1c4.3 1.3 8 5.6 8 8.1v0.6h-23z" />
		<path id="Layer" class="s0" d="m1624.4 89.6c-1.8-1.9-3.7-3.7-3.7-6.8v-0.7h31.1v0.7c0 3.7-5 7.4-8.7 8l-27.4 23.1l30.5 35.4c3.8 1.3 9.4 4.4 9.4 8.1v0.6h-23.1l-28.6-34.8l-11.8 9.3v16.8c4.3 1.3 8.1 5.6 8.1 8.1v0.6h-24.3v-67.2c-4.4-1.2-8.1-5.6-8.1-8v-0.7h32.4v0.7c0 2.4-3.8 6.2-8.1 8v26.2z" />
		<path id="Layer" fill-rule="evenodd" class="s0" d="m1393.5 157.4v0.6h-31.7v-0.6c0-3.7 5-7.4 8.7-8.1l27.4-59.1c-3.1-1.2-6.2-4.3-6.2-6.8v-0.6h36.1v0.6c0 2.5-3.8 5.6-6.3 6.8l29.3 59.1c3.7 0.7 8.7 4.4 8.7 8.1v0.6h-34.2v-0.6c0-3.7 4.3-6.8 7.4-7.4l-4.3-9.4c-12.5-1.8-25.5-1.8-38 0l-4.3 9.4c4.3 0 7.4 3.1 7.4 7.4zm14.3-56.6l-11.8 26.1c8.7-0.6 17.4-0.6 25.5 0l-12.4-26.7h-1.3z" />
	</g>
</svg>