<svg version="1.2" xmlns="http://www.w3.org/2000/svg" viewBox="0 0 1549 360" width="1549" height="360">
	<title>FirstEnergy_Logo-svg</title>
	<style>
		.s0 { fill: #1a5dad } 
		.s1 { fill: #231f20 } 
	</style>
	<g id="layer1">
		<path id="path2860" class="s0" d="m0 270.2c400.7-34 1136.2-66.2 1381 46l-7.7 43.1c-261.7-145.9-1318.6-92-1373.3-89.1z"/>
		<path id="path2864" fill-rule="evenodd" class="s1" d="m271.1 65.3h40.2l-22.3 158.9h-40.2z"/>
		<path id="path2868" fill-rule="evenodd" class="s1" d="m325.5 65.3h40.2l-3.1 22h0.6c12.1-18.2 31.7-25.7 55-25.7l-5.4 38.9c-27.4 0-53.8 12.2-58.6 46.8l-10.8 76.9h-40.2c0 0 22.3-158.9 22.3-158.9z"/>
		<path id="path2872" fill-rule="evenodd" class="s1" d="m522.5 112.5c-3.5-10.3-15-22.6-38.7-22.6-18.7-0.3-31.5 6-32.8 15.4-3.9 27.6 104.5 4.1 96.1 64.1-5.4 38.3-43.7 55.6-81.9 55.6-39.2 0-64.1-12.9-76.7-28.9l33.5-22.3c7.4 12.9 23.9 19.8 45.3 19.8 19.1 0 33.7-10.1 34.9-18.6 3.8-27-102.5-4.7-94-65 5-35.8 39.8-51.5 81-51.5 39.9 0 58.2 19.5 64.8 28.9z"/>
		<path id="path2876" fill-rule="evenodd" class="s1" d="m573.1 16.3h40.2l-6.6 47.3h35.9l-3.9 27.6h-35.9l-11.3 80.4c-1.7 12.6-0.1 19.5 15.4 19.5 5.6 0 12-1.3 18.1-1.9l-4.4 31.4c-9.9 1.9-20 3.8-32.5 3.8-33 0-42.2-14.2-38.8-38.3z"/>
		<path id="path2880" fill-rule="evenodd" class="s1" d="m114.4 0.3h166.1l-5.5 39h-121.9l-7.1 50.8h112l-5.2 37.1h-112l-13.8 97.2h-44.3z"/>
		<path id="path2884" fill-rule="evenodd" class="s1" d="m662.8 0.6h166l-5.5 39h-121.9l-7.1 50.8h112l-5.2 37.1h-112l-8.1 57.8h130.4l-5.4 38.9h-174.6z"/>
		<path id="path2888" fill-rule="evenodd" class="s1" d="m837.2 65.3h40.2l-2.2 15.7h0.7c13.8-13.8 32-19.4 48.2-19.4 39.5 0 54.6 19.1 49.7 54l-15.2 108.6h-40.2l13.6-97c2-14.5-2.9-28.6-23.7-28.6-19.4 0-37.3 12.6-41.4 41.8l-11.8 83.8h-40.2c0 0 22.3-158.9 22.3-158.9z"/>
		<path id="path2892" fill-rule="evenodd" class="s1" d="m1017.2 150.9c-2.6 23.5 16 38.9 37.7 38.9 31.7 0 46.6-17.3 51.3-22.6l31.3 18.8c-15.1 18.2-42 39-87.5 39-54 0-80.3-35.8-73.7-83.3 6.7-47.4 43-83.2 97.1-83.2 55.6 0 75 35.5 67.1 92.4zm85.1-26.5c1.2-8.5-6.4-31.4-33.4-31.4-23.4 0-40.9 14.4-47.6 31.4z"/>
		<path id="path2896" fill-rule="evenodd" class="s1" d="m1161.3 65.3h40.2l-3.1 22h0.7c12.1-18.2 31.6-25.7 55-25.7l-5.5 38.9c-27.3 0-53.8 12.2-58.6 46.8l-10.8 76.9h-40.2c0 0 22.3-158.9 22.3-158.9z"/>
		<path id="path2900" fill-rule="evenodd" class="s1" d="m1379.2 220.8c-6.3 45.2-43.8 56.2-94.5 56.2-52.7 0-63.7-29.5-61-49.3h42.2c1.4 11 11.4 19.8 31.5 19.8 26 0 39.6-12.6 42.4-32.1l2.3-16.9c-14.6 13.2-35.4 17.6-49.9 17.6-41.5 0-68.3-29.6-61.6-77.3 6.7-47.7 41.8-77.2 83.3-77.2 24.1 0 35.8 7.8 44.1 19.1h0.7l2.2-15.4h40.1c0 0-21.8 155.5-21.8 155.5zm-61-124.1c-30.3 0-42.7 25.2-45.4 42.1-2.1 17 3.3 42.1 33.6 42.1 30.3 0 42.7-25.1 45.5-42.1 2-16.9-3.4-42.1-33.7-42.1z"/>
		<path id="path2904" fill-rule="evenodd" class="s1" d="m1469.4 238.4c-13.4 29.2-28.5 38.6-57.5 38.6l-24-0.2 4.9-34.8 15.8-0.2c12.8 0 17.9-3.4 24.3-13.5l-37.1-163h43.2l19.7 115.6h0.6l47.5-115.6h41.6c0 0-79 173.1-79 173.1z"/>
		<path id="path2908" fill-rule="evenodd" class="s1" d="m1526.9 271.4q-7.4 7.4-17.8 7.4-10.4 0-17.8-7.4-7.3-7.3-7.3-17.8 0-10.4 7.4-17.7 7.3-7.4 17.7-7.4 10.4 0 17.8 7.4 7.3 7.3 7.3 17.7 0 10.4-7.3 17.8zm-33.1-33.1q-6.3 6.3-6.3 15.3 0 9 6.3 15.4 6.3 6.4 15.3 6.4 9 0 15.3-6.4 6.3-6.4 6.3-15.4 0-9-6.3-15.3-6.4-6.4-15.3-6.4-9 0-15.3 6.4zm14.8 1.4q5.1 0 7.5 1 4.3 1.8 4.3 7 0 3.7-2.7 5.5-1.4 0.9-4 1.3 3.3 0.5 4.8 2.7 1.5 2.2 1.5 4.3v2q0 1 0 2.1 0.1 1 0.3 1.4l0.1 0.3h-4.5q0-0.1-0.1-0.2 0-0.2-0.1-0.4l-0.1-0.8v-2.2q0-4.8-2.6-6.4-1.5-0.9-5.4-0.9h-3.8v10.9h-4.8v-27.6c0 0 9.6 0 9.6 0zm5.2 4.4q-1.8-1-5.8-1h-4.2v10h4.4q3.1 0 4.6-0.7 2.9-1.1 2.8-4.3 0-3-1.8-4z"/>
	</g>
</svg>