<svg version="1.2" xmlns="http://www.w3.org/2000/svg" viewBox="0 0 1615 1424" width="1615" height="1424">
	<title>First_Solar_logo-svg</title>
	<defs>
		<clipPath clipPathUnits="userSpaceOnUse" id="cp1">
			<path d="m28.19 1198.54h155.51v4.34h-155.51zm151.17 4.34h4.34v23.29h-4.34zm-110.44 23.28h114.78v4.42h-114.78zm0 4.42h4.34v59.45h-4.34zm0 59.45h109.77v4.34h-109.77zm105.42 4.34h4.35v23.29h-4.35zm-105.42 23.28h109.77v4.35h-109.77zm0 4.34h4.34v95.24h-4.34zm-40.73-119.13h4.34v214.37h-4.34zm0 214.36h45.07v4.34h-45.07z"/>
		</clipPath>
		<clipPath clipPathUnits="userSpaceOnUse" id="cp2">
			<path d="m196.28 1188.58h47.55v4.34h-47.55zm43.2 4.34h4.35v28.91h-4.35zm-43.2 0h4.34v28.9h-4.34zm0 28.9h47.55v4.34h-47.55zm2.4 35.64h42.75v4.34h-42.75zm38.41 4.35h4.34v155.51h-4.34zm-38.41 0h4.34v155.51h-4.34zm0 155.51h42.75v4.27h-42.75z"/>
		</clipPath>
		<clipPath clipPathUnits="userSpaceOnUse" id="cp3">
			<path d="m257.08 1194.42h421.69v230.01h-421.69z"/>
		</clipPath>
		<clipPath clipPathUnits="userSpaceOnUse" id="cp4">
			<path d="m396.79 1387.89l3.15-1.79c14.75 7.41 35.94 11 46.64 11 17.9 0 36.92-5.76 36.92-20.59 0-5.99-4.57-10.7-12.96-15.27l-14.22-6.29-16.48-6.22c-22.08-8.46-46.34-19.54-46.34-43.65 0-35.19 34.21-51.36 75.47-51.36 18.04 0 33.02 2.92 48.14 6.36l1.88 0.38-3.45 27.7-3.14 1.65c-8.16-3.9-30.55-7.94-39.39-7.94-9.58 0-18.34 1.57-24.63 4.57-6.29 2.99-9.81 7.26-9.81 12.65 0 6.89 4.72 11.91 12.88 16.32l14.08 6.07 16.54 5.76c22.24 8.09 46.42 18.95 46.42 46.13 0 36.23-37.43 51.88-74.57 51.88-19.62 0-39.91-1.57-57.8-8.91l-1.42-0.6zm272.01-130.42v28.22h-54.88v85.13c0 16.93 13.33 26.36 29.95 26.36 11.45 0 19.61-2.7 25.16-5.39l3.14 1.94v26.81l-1.72 0.3c-8.54 1.87-20.67 4.42-33.1 4.42-39.83 0-66.03-14.6-66.03-48.45v-91.12h-46.87v-28.23h46.87v-36.38l39.9-9.81 2.7 2.09v44.1zm-357.07 19.55c11.75-13.93 31.59-23.29 51.44-23.29l14.07 0.68 13.4 1.79v28.23l-2.84 2.02c-6.74-2.02-14.08-2.7-20.52-2.7-32.72 0-54.35 23.81-54.35 63.05v74.8h-42.68v-164.13h40.2v21.42zm-3.14 69.78c0-41.03 23.06-67.39 58.7-67.39 5.02 0 10.71 0.38 16.32 1.5l2.7 0.75v-21.64l-9.51-1.27-13.63-0.68c-21.26 0-42.53 11.61-52.18 27.48l-0.68 1.05h-4.19v-24.78h-31.52v155.44h33.99zm205.53-82.97l-9.21-1.94c-11.23-2.25-22.69-3.82-35.94-3.82-40.96 0-71.13 15.87-71.13 47.02 0 20.66 20.66 30.85 43.58 39.61l16.47 6.21 14.67 6.52v0.07c8.54 4.57 15.28 10.41 15.28 19.02 0 19.54-24.19 24.93-41.26 24.93-8.46 0-22.83-2.09-36.01-6.36l-9.66-3.89-1.65 21.63 11.76 3.82c13.62 3.45 28.3 4.27 42.9 4.27 36.91 0 70.23-15.5 70.23-47.54 0-23.81-20.81-33.85-43.58-42.01l-16.54-5.76c-5.32-2.03-10.34-3.97-14.68-6.37-8.61-4.64-15.12-10.7-15.12-20.14 0-15.5 19.69-21.56 38.78-21.56 6.97 0 21.64 2.39 32.35 5.31l6.14 2.1zm61.54-39.31v37.29h-46.79v19.54h46.79v95.47c0 30.02 22.61 44.1 61.7 44.1 5.99 0 11.9-0.6 17.37-1.43l13.1-2.54v-19.92l-1.94 0.83c-5.62 2.02-12.88 3.66-22.02 3.66-18.27 0-34.29-10.63-34.29-30.69v-89.48h54.96v-19.54h-54.96v-45.67z"/>
		</clipPath>
		<clipPath clipPathUnits="userSpaceOnUse" id="cp5">
			<path d="m755.44 1194.42h421.68v230.01h-421.68z"/>
		</clipPath>
		<clipPath clipPathUnits="userSpaceOnUse" id="cp6">
			<path d="m1061.89 1425.33c-59.62 0-107.81-38.36-107.81-85.81 0-47.45 48.19-85.8 107.81-85.8 59.63 0 107.82 38.35 107.82 85.8 0 47.45-48.19 85.81-107.82 85.81zm103.48-85.81c0-45.05-46.26-81.46-103.48-81.46-57.22 0-103.47 36.41-103.47 81.46 0 45.05 46.25 81.47 103.47 81.47 57.22 0 103.48-36.42 103.48-81.47zm-103.48 61.92c-37.1 0-67.08-27.69-67.08-61.95 0-34.27 29.98-61.96 67.08-61.96 37.1 0 67.09 27.69 67.09 61.96 0 34.26-29.99 61.95-67.09 61.95zm62.75-61.95c0-31.87-28.05-57.62-62.75-57.62-34.69 0-62.74 25.75-62.74 57.62 0 31.86 28.05 57.61 62.74 57.61 34.7 0 62.75-25.75 62.75-57.61zm-202.84-105.39l-2.77 1.65c-20.66-6.14-31.89-8.99-52.71-8.99-23.21 0-47.47 6.44-47.47 26.96 0 9.21 6.59 15.95 17.9 22.01 5.54 3.07 12.13 5.77 19.24 8.54l22.46 8.38c30.4 11.76 62.52 27.7 62.52 65.37 0 48.81-49.11 67.23-105.94 67.23-20.22 0-39.99-4.41-58.7-9.06l-1.95-0.45 4.34-31.07 2.85-1.87c13.77 4.42 37.81 10.56 58.32 10.56 23.36 0 53.54-10.04 53.54-33.47 0-11.08-6.82-18.8-17.97-25.23-5.54-3.3-12.13-6.14-19.24-8.91l-22.39-8.24c-30.18-11.16-62.37-25.23-62.37-60.95 0-40.88 41.85-61.69 93.22-61.69 18.94 0 41.48 2.54 61.24 7.86l1.95 0.52zm-142.48 178.28l12.2 2.92c14.23 3.22 28.75 5.61 43.5 5.61 57.05 0 101.6-18.42 101.6-62.89 0-34.44-28.97-49.49-59.67-61.32l-22.54-8.39c-7.18-2.77-13.92-5.61-19.76-8.76-11.53-6.21-20.14-14-20.14-25.83 0-25.16 29.57-31.3 51.81-31.3 16.1 0 26.73 1.65 39.76 5.17l11.9 3.37 4.79-24.41-12.88-2.99c-15.27-2.92-31.22-4.27-45.22-4.27-51.14 0-88.87 20.51-88.87 57.28 0 32.19 28.75 45.44 59.52 56.75l22.39 8.39c7.26 2.77 14 5.76 19.84 9.13 11.75 6.81 20.29 15.72 20.29 29.05 0 27.93-35.04 37.81-57.95 37.81-15.88 0-33.62-3.52-47.47-7.19l-9.66-2.84z"/>
		</clipPath>
		<clipPath clipPathUnits="userSpaceOnUse" id="cp7">
			<path d="m1186.78 1182.29h42.75v4.34h-42.75zm38.41 4.34h4.34v230.69h-4.34zm-38.41 0h4.34v230.68h-4.34zm0 230.69h42.75v4.27h-42.75z"/>
		</clipPath>
		<clipPath clipPathUnits="userSpaceOnUse" id="cp8">
			<path d="m1234.63 1251.92h383.35v172.51h-383.35z"/>
		</clipPath>
		<clipPath clipPathUnits="userSpaceOnUse" id="cp9">
			<path d="m1617 1390.96c0 19.47-14.97 34.67-34.06 34.67-18.87 0-34.15-15.2-34.15-34.67 0-19.02 15.28-34.52 34.15-34.52h0.15c18.94 0 33.91 15.5 33.91 34.52zm-63.86 0c0 17.07 13.33 30.33 29.8 30.33 16.55 0 29.73-13.26 29.73-30.33 0-16.7-13.18-30.1-29.58-30.1-16.55 0-29.95 13.48-29.95 30.1zm58.02 0.23c0 16.24-12.35 29.57-28.07 29.42-15.65 0-28.16-13.18-28.16-29.65 0-16.1 12.51-29.42 28.01-29.42 15.87 0 28.22 13.32 28.22 29.65zm-42.15-19.39l6.51-0.75 5.77-0.3c5.84 0 9.95 1.2 12.57 3.14 2.85 2.1 4.2 5.24 4.2 9.21 0 3-1.05 5.39-2.62 7.19l-2.32 1.87 1.42 1.35c1.27 1.8 2.1 4.27 2.47 7.11l1.2 5.77 0.97 2.69-1.2 1.72 0.16-0.15c5.31-4.57 8.68-11.53 8.68-19.47 0-14.15-10.63-25.3-23.73-25.3h-0.16c-12.95 0-23.66 11.15-23.66 25.08 0 8.54 3.82 15.8 9.59 20.37l0.15 0.07zm24.71 11.31c0-2.85-0.9-4.65-2.47-5.7-1.65-1.19-4.64-2.32-9.96-2.32l-5.32 0.3-2.62 0.38v31.89h1.43v-15.5h6.14l3.74 0.45 2.02 1.05v-2.54c-1.8 0.67-3.74 0.97-5.61 0.97h-6.29v-16.4l6.14-0.52h0.15c7.34 0 10.93 3.89 10.93 8.53 0 2.03-0.6 3.6-1.5 4.8l-0.67 0.67c2.39-1.2 3.89-3.14 3.89-6.06zm-14.59 4.63h1.94c4.57 0 6.59-1.64 6.59-4.04 0-1.05-0.37-1.95-1.2-2.69-0.9-0.75-2.54-1.5-5.39-1.5l-1.94 0.15zm-196.1-75.54c-2.77-20.07-15.88-30.33-48.52-30.33-21.19 0-44.03 6.14-59 15.95l-3.37-1.65-2.17-26.58 1.34-0.6c19.4-8.9 42.61-15.27 69.26-15.27 60.35 0 85.66 23.21 85.66 68.29v66.03c0 18.2 0.82 26.51 1.57 31.08l-2.17 2.47h-37.96v-18.5l-1.2 1.13c-10.56 9.51-30.55 21.04-61.7 21.04-44.92 0-78.31-15.05-78.31-51.89 0-42.6 59.82-54.81 98.6-54.81l20.37 0.08 18.04 0.52zm40.29 105.05l-0.9-8.31-0.53-20.89v-66.04c0-41.93-22.61-63.94-81.31-63.94-19.47 0-37.06 3.52-52.63 8.91l-13.48 5.39 1.72 20.07 3.22-1.87c15.42-8.24 35.94-13.03 55.11-13.03 39.16 0 53.46 14.82 53.46 43.87v2.18l-22.62-0.53-20.29-0.15c-40.05 0-94.26 12.8-94.26 50.46 0 32.72 29.27 47.55 73.97 47.55 34.29 0 54.06-14.38 62.82-23.81l0.6-0.52h3.82v20.66zm-95.31-15.8c-17.6 0-40.81-9.06-40.81-28.08 0-15.79 14.38-23.88 29.8-28 15.72-4.27 33.99-4.87 44.4-4.87l26.66 0.68v16.17c0 25.53-21.57 44.1-60.05 44.1zm33.39-56.6c-10.41 0-28.15 0.67-43.28 4.72-15.42 4.19-26.58 11.38-26.58 23.81 0 14.82 19.02 23.73 36.47 23.73 37.21 0 55.63-17.6 55.63-39.76v-11.9zm133.94-67.84c11.83-13.92 31.6-23.28 51.44-23.28l14.08 0.67 13.4 1.8v28.22l-2.85 2.03c-6.66-2.03-14.07-2.7-20.51-2.7-32.72 0-54.36 23.81-54.36 63.04v74.8h-42.68v-164.12h40.13v21.41zm-3.14 69.79c0-41.03 23.06-67.39 58.7-67.39 5.02 0 10.71 0.37 16.33 1.5l2.69 0.75v-21.64l-9.51-1.28-13.63-0.67c-21.26 0-42.45 11.61-52.26 27.48l-0.67 1.05h-4.19v-24.79h-31.45v155.44h33.99zm97.41 65.22l-0.53-1.42c-0.9-1.2-1.87-4.94-2.47-9.51-0.67-3.52-2.02-4.49-5.69-4.49h-1.8v15.42h-9.28c3.74 2.7 8.39 4.27 13.25 4.27 4.94 0 9.51-1.5 13.26-4.12l0.15-0.15zm4.42-4.34v-0.08l-1.34-6.36c-0.68-4.95-2.48-6.59-4.2-6.89l-0.82-0.16 1.95 2.4 1.27 3.67 1.12 5.76 0.6 1.65z"/>
		</clipPath>
	</defs>
	<style>
		.s0 { fill: #ee2821 } 
		.s1 { fill: #4a4547 } 
		.s2 { fill: #47453d } 
	</style>
	<g id="Layer">
		<path id="Layer" class="s0" d="m462.7 716.7c-198.1 0-358.3-160.1-358.3-358.2 0-198.2 160.2-358.3 358.3-358.3 198.1 0 358.3 160.1 358.3 358.3 0 198.1-160.2 358.2-358.3 358.2zm0.7 133.1c64.6-1.7 119.1-8.9 170.6-18.4 25.7-4.8 50.8-10.2 75.8-15.8l76.6-17.2c104.6-22.6 259-55.4 357-52.1 90 2.9 269.7 51.7 403.5 193.1 0 0-157.3-132.8-417-129.2 0 0-124.4 2.5-326 53.9-244.4 62-375.4 49.4-375.4 49.4 0 0-257.4-0.3-428.3-194 0 0 256.3 135.7 463.2 130.3zm0 167.2c64.6-1.6 119.1-8.7 170.6-18.3 25.7-4.8 50.8-10.2 75.8-15.7l76.6-17.2c104.6-22.7 259-55.4 357-52.2 90 3 269.7 51.8 403.5 193 0 0-157.3-132.6-417-129.1 0 0-124.4 2.6-326 53.8-244.4 62.2-375.4 49.5-375.4 49.5 0 0-257.4-0.3-428.3-194 0 0 256.3 135.7 463.2 130.2z"/>
		<g id="Clip-Path" clip-path="url(#cp1)">
			<g id="Layer">
				<path id="Layer" class="s1" d="m30.4 1200.7h151.1v27.6h-110.3v63.9h105.3v27.6h-105.3v99.6h-40.8z"/>
			</g>
		</g>
		<g id="Clip-Path" clip-path="url(#cp2)">
			<g id="Layer">
				<path id="Layer" class="s1" d="m241.7 1224h-43.2v-33.3h43.2zm-40.9 35.7h38.5v159.8h-38.5z"/>
			</g>
		</g>
		<g id="Clip-Path" clip-path="url(#cp3)">
			<g id="Layer">
				<g id="Clip-Path" clip-path="url(#cp4)">
					<g id="Layer">
						<path id="Layer" class="s1" d="m272.4 1259.6h35.9v24.8h0.8c10.1-16.6 32.1-28.5 54.1-28.5l13.8 0.7 11.5 1.5v26.3c-7.1-2.2-14.7-2.8-21.2-2.8-34.2 0-56.5 25.1-56.5 65.2v72.6h-38.4zm126.6 128.4c15.1 7.6 36.6 11.3 47.6 11.3 17.5 0 39.1-5.6 39.1-22.8 0-7.3-5.6-12.6-14.1-17.2l-14.5-6.4-16.4-6.2c-22.6-8.7-45-19.3-45-41.6 0-33.2 32.2-49.2 73.3-49.2 17.8 0 32.5 2.8 47.6 6.3l-3.2 25.6c-8.6-4-31.3-8.1-40.4-8.1-19.5 0-36.6 6.3-36.6 19.4 0 8.1 5.6 13.7 14 18.2 4.2 2.3 9.1 4.3 14.4 6.3l16.5 5.7c22.6 8.1 45 18.5 45 44 0 34.2-35.3 49.8-72.4 49.8-19.5 0-39.4-1.6-57-8.8zm267.7-104.5h-54.9v87.3c0 18.5 14.7 28.5 32.2 28.5 11.8 0 20.3-2.8 26.1-5.6v25c-8.6 1.9-20.5 4.3-32.7 4.3-39.4 0-63.8-14.3-63.8-46.2v-93.3h-46.9v-23.9h46.9v-36.8l38.2-9.5v46.3h54.9z"/>
					</g>
				</g>
			</g>
		</g>
		<path id="Layer" fill-rule="evenodd" class="s2" d="m30.4 1200.7h151.1v27.6h-110.3v63.9h105.3v27.6h-105.3v99.6h-40.8zm211.3 23.3h-43.2v-33.2h43.2zm-40.9 35.6h38.5v159.8h-38.5zm71.6 0h35.9v24.8h0.8c10.1-16.7 32.1-28.6 54.1-28.6l13.8 0.7 11.5 1.5v26.4c-7.1-2.3-14.7-2.9-21.2-2.9-34.2 0-56.5 25.1-56.5 65.2v72.7h-38.4zm126.6 128.4c15.1 7.5 36.6 11.2 47.6 11.2 17.5 0 39.1-5.6 39.1-22.8 0-7.3-5.6-12.5-14.1-17.1l-14.5-6.5-16.4-6.2c-22.6-8.7-45-19.2-45-41.6 0-33.2 32.2-49.2 73.3-49.2 17.8 0 32.5 2.9 47.6 6.3l-3.2 25.7c-8.6-4.1-31.3-8.2-40.4-8.2-19.5 0-36.6 6.3-36.6 19.4 0 8.2 5.6 13.7 14 18.2 4.2 2.3 9.1 4.3 14.4 6.3l16.5 5.8c22.6 8 45 18.5 45 44 0 34.1-35.3 49.7-72.4 49.7-19.5 0-39.4-1.6-57-8.8zm267.7-104.5h-54.9v87.3c0 18.5 14.7 28.5 32.2 28.5 11.8 0 20.3-2.7 26.1-5.6v25c-8.6 1.9-20.5 4.4-32.7 4.4-39.4 0-63.8-14.3-63.8-46.3v-93.3h-46.9v-23.9h46.9v-36.8l38.2-9.4v46.2h54.9zm253.1-49.8c-20.8-6.2-32.2-9.1-53.4-9.1-22.8 0-49.6 6.3-49.6 29.1 0 10.5 7.6 17.8 19 24 5.7 3.1 12.4 5.8 19.4 8.6l22.6 8.4c30.5 11.7 61.1 27.3 61.1 63.3 0 46.7-46.8 65.1-103.8 65.1-20 0-39.5-4.4-58.2-9l4.1-29.2c13.8 4.4 38.2 10.6 59 10.6 23.1 0 55.7-9.9 55.7-35.6 0-12.2-7.7-20.5-19.1-27.1-5.7-3.4-12.4-6.3-19.6-9.1l-22.3-8.3c-30.5-11.2-61-24.8-61-58.8 0-38.9 39.8-59.5 91.1-59.5 18.7 0 41.1 2.5 60.6 7.7zm142.2 189.5c-58.4 0-105.7-37.4-105.7-83.7 0-46.2 47.3-83.6 105.7-83.6 58.4 0 105.6 37.4 105.6 83.6 0 46.3-47.2 83.7-105.6 83.7zm64.9-83.7c0-33.1-29-59.8-64.9-59.8-35.9 0-64.9 26.7-64.9 59.8 0 33.1 29 59.8 64.9 59.8 35.9 0 64.9-26.7 64.9-59.8z"/>
		<g id="Clip-Path" clip-path="url(#cp5)">
			<g id="Layer">
				<g id="Clip-Path" clip-path="url(#cp6)">
					<g id="Layer">
						<path id="Layer" fill-rule="evenodd" class="s1" d="m919.7 1233.7c-20.8-6.3-32.2-9.1-53.4-9.1-22.7 0-49.6 6.3-49.6 29.1 0 10.5 7.6 17.8 19 24 5.7 3 12.4 5.8 19.5 8.6l22.5 8.4c30.6 11.7 61.1 27.3 61.1 63.3 0 46.7-46.8 65.1-103.8 65.1-20 0-39.4-4.4-58.2-9l4.1-29.2c13.8 4.4 38.2 10.6 59 10.6 23.1 0 55.7-9.9 55.7-35.6 0-12.2-7.6-20.5-19.1-27.1-5.7-3.4-12.3-6.3-19.5-9.1l-22.4-8.3c-30.5-11.2-61-24.8-61-58.8 0-38.9 39.8-59.5 91.1-59.5 18.8 0 41.1 2.5 60.6 7.7zm142.2 189.5c-58.4 0-105.6-37.4-105.6-83.7 0-46.2 47.2-83.6 105.6-83.6 58.4 0 105.7 37.4 105.7 83.6 0 46.3-47.3 83.7-105.7 83.7zm64.9-83.7c0-33.1-29-59.8-64.9-59.8-35.9 0-64.9 26.7-64.9 59.8 0 33 29 59.8 64.9 59.8 35.9 0 64.9-26.8 64.9-59.8z"/>
					</g>
				</g>
			</g>
		</g>
		<path id="Layer" class="s2" d="m1189 1184.5h38.4v234.9h-38.4z"/>
		<g id="Clip-Path" clip-path="url(#cp7)">
			<g id="Layer">
				<path id="Layer" class="s1" d="m1189 1184.5h38.4v234.9h-38.4z"/>
			</g>
		</g>
		<path id="Layer" fill-rule="evenodd" class="s2" d="m1456 1259.6h35.8v24.8h0.8c10.3-16.6 32.2-28.5 54.2-28.5l13.8 0.7 11.5 1.5v26.3c-7-2.2-14.7-2.8-21.2-2.8-34.2 0-56.5 25.1-56.5 65.2v72.6h-38.4zm158.8 131.3c0 18.3-14 32.5-31.9 32.5-17.6 0-31.9-14.2-31.9-32.5 0-17.8 14.3-32.2 31.9-32.2h0.2c17.7 0 31.7 14.4 31.7 32.2zm-57.7 0c0 15.5 11.6 27.5 26 27.5 14.4 0.2 25.9-12 25.9-27.2 0-15.3-11.5-27.5-25.9-27.5h-0.2c-14.2 0-25.8 12.2-25.8 27.2zm14.1 18.9v-36.1l4.5-0.6 5.6-0.2c5.6 0 9.1 1.2 11.3 2.7 2.2 1.6 3.3 4 3.3 7.4 0 4.8-3.2 7.7-7 8.8v0.3c3.1 0.6 5.3 3.5 5.9 8.8 1 5.6 1.8 7.7 2.4 8.9h-6.1c-0.8-1.2-1.6-4.4-2.4-9.1-0.8-4.7-3.1-6.4-7.8-6.4h-4v15.5zm-298.9-138.9c19.1-8.7 42-15 68.3-15 59.6 0 83.5 22.6 83.5 66.1v66c0 18.2 0.8 26.7 1.6 31.4h-35.8v-20.7h-0.8c-8.9 9.6-29.3 24.4-64.3 24.4-44.7 0-76.1-14.9-76.1-49.8 0-40.1 57-52.6 96.4-52.6l20.4 0.2 20.4 0.5c0-27.6-13.1-41.7-51.3-41.7-21.6 0-44.8 6.2-60.2 16.3zm113.6 72.4l-24.5-0.6c-20.8 0-72 2.5-72 30.7 0 16.9 21.1 25.9 38.7 25.9 37.8 0 57.8-18 57.8-41.9zm195.2 46.6c4.8 0 8.8-1.8 8.8-6.2 0-3.1-2.3-6.4-8.8-6.4l-4.1 0.4v12.2z"/>
		<g id="Clip-Path" clip-path="url(#cp8)">
			<g id="Layer">
				<g id="Clip-Path" clip-path="url(#cp9)">
					<g id="Layer">
						<path id="Layer" fill-rule="evenodd" class="s1" d="m1456 1259.6h35.8v24.8h0.8c10.3-16.6 32.2-28.5 54.2-28.5l13.8 0.7 11.5 1.5v26.3c-7-2.2-14.7-2.8-21.2-2.8-34.2 0-56.5 25.1-56.5 65.2v72.6h-38.4zm158.8 131.3c0 18.3-14 32.5-31.9 32.5-17.6 0-31.9-14.2-31.9-32.5 0-17.8 14.3-32.2 31.9-32.2h0.2c17.7 0 31.7 14.4 31.7 32.2zm-57.7 0c0 15.5 11.6 27.5 26 27.5 14.4 0.2 25.9-12 25.9-27.2 0-15.3-11.5-27.5-25.9-27.5h-0.2c-14.2 0-25.8 12.2-25.8 27.2zm14.1 18.9v-36.1l4.5-0.5 5.6-0.3c5.6 0 9.1 1.2 11.3 2.8 2.2 1.5 3.3 3.9 3.3 7.4 0 4.8-3.2 7.6-7 8.7v0.3c3.1 0.6 5.3 3.5 5.9 8.8 1 5.6 1.8 7.7 2.4 8.9h-6.1c-0.8-1.2-1.6-4.4-2.4-9.1-0.8-4.7-3.1-6.4-7.8-6.4h-4v15.5zm-298.9-138.9c19.1-8.7 42-15 68.3-15 59.6 0 83.5 22.6 83.5 66.1v66c0 18.2 0.8 26.7 1.6 31.4h-35.8v-20.7h-0.8c-8.9 9.6-29.3 24.4-64.3 24.4-44.7 0-76.1-14.9-76.1-49.8 0-40.1 57-52.6 96.4-52.6l20.4 0.2 20.4 0.5c0-27.6-13.1-41.7-51.3-41.7-21.6 0-44.8 6.2-60.2 16.3zm113.6 72.3l-24.5-0.6c-20.8 0-72 2.6-72 30.7 0 17 21.1 25.9 38.7 25.9 37.8 0 57.8-18 57.8-41.9zm195.2 46.7c4.8 0 8.8-1.8 8.8-6.3 0-3.1-2.3-6.3-8.8-6.3l-4.1 0.4v12.2z"/>
					</g>
				</g>
			</g>
		</g>
	</g>
</svg>