<svg version="1.2" xmlns="http://www.w3.org/2000/svg" viewBox="0 0 1566 787" width="1566" height="787">
	<title>fiserv-logo-orange-ff6600-svg</title>
	<style>
		.s0 { fill: #ff6600 } 
	</style>
	<path id="Layer" class="s0" d="m1465 679.2h100v100h-100z"/>
	<path id="Layer" class="s0" d="m1262.4 234.3l59.6 446.5 59.4-446.5h92.6l-86.7 544.7h-131.9l-85.8-544.7h92.8z"/>
	<path id="Layer" class="s0" d="m51.5 234.1v-124.9c0-38.7 5.5-65.8 23.8-83.2 18.4-17.5 57-26 97.2-26h32.7v74.2h-16.3c-16.2 0-28.2 4-36.1 12.5-7.8 8.3-11.1 20.7-11.1 36.9v110.5h63.5v72.4h-63.5v472.7h-90.4v-472.4h-51.3v-72.5h51.3z"/>
	<path id="Layer" class="s0" d="m233.4 234.3h90.6v544.7h-90.6z"/>
	<path id="Layer" fill-rule="evenodd" class="s0" d="m742.3 654.3c0 36.7 13.6 62.5 50.7 62.5 37.1 0 50.9-25.6 50.9-62.5 0-12.8 0-51.7 0-51.7h87.5v43.7c-0.4 100.4-56.5 139.7-140.2 139.7-83.6 0-139.5-47.6-139.7-139.7v-276c0-101.3 48.3-142.4 139.7-142.4 91.5 0 139.8 41.3 140 141.7v167.9h-188.9zm0-190.4h101.3v-112.6c0-31-8.5-62.5-50.8-62.5-42.4 0-50.5 31.9-50.5 62.7z"/>
	<path id="Layer" class="s0" d="m622.3 640.8v9.4c0 114-57.7 136-132.4 136-74.6 0-132.3-22-132.3-110.5v-71.8h91.7v69.7c0 17 2.2 44.9 40.6 44.9 38.5 0 40.7-27.7 40.7-64.2 0.2-59.1-6.4-65-65.3-114.8l-23-19.6c-80.1-68.8-80.3-120.1-80.3-152.4 0 6.7 0 6.7 0-10.7 0.4-103.1 49.1-128.6 127.1-128.6 77.9 0 127.5 32.7 127.7 97.1v82.1h-87.3v-50.2c0-38.7-4.4-61.4-38.5-61.4-34 0-37.3 23-37.3 61 0 44.3 5.7 52.6 74 112.6 79.9 70.5 94.6 91.9 94.6 171.4z"/>
	<path id="Layer" class="s0" d="m1052.4 290.2l0.8-2c24.1-50 44.6-59.4 91.7-60.3v96.5c-24.6 0.3-44.1 4-59.8 14.9-16.6 11.3-26.2 30.8-26.2 60v379.7h-89.1v-544.7h82.6v56.1z"/>
</svg>