<svg version="1.2" xmlns="http://www.w3.org/2000/svg" viewBox="0 0 1555 167" width="1555" height="167">
	<title>download-svg</title>
	<style>
		.s0 { fill: #ef3e42 } 
		.s1 { fill: #231f20 } 
	</style>
	<path id="Layer" class="s0" d="m153.6 127.8h1.2v29.7h-1.2c-84.3 0-152.9-68.8-152.9-153.5h29.7c0 68.3 55.3 123.8 123.2 123.8z"/>
	<path id="Layer" class="s0" d="m59.8 4h29.2c0 35.9 29 65.2 64.8 65.2h1.2v29.1h-1.2c-52 0-94-42.2-94-94.3zm95 0v35.9h-1.2c-19.7 0-35.8-16.1-35.8-35.9z"/>
	<path id="Layer" fill-rule="evenodd" class="s1" d="m323.6 92.3h-58.7v69.3h-20.8v-156.2h88.3v16.9h-67.5v53.8h58.7zm92.3 52.4h81v16.9h-101.9v-156.2h20.9zm156.5 0h73.1v16.9h-94v-156.1h88.3v16.9h-67.4v50h58.6v15.2h-58.6zm155 0h73.1v16.9h-94v-156.1h88.3v16.9h-67.4v50h58.6v15.2h-58.6zm248.1-123.3h-52.2v140.2h-20v-140.2h-52.9v-16h125.1zm147.7 106.4h18.5c0 8.6-3.3 16.7-9.8 24.1-8.5 9.7-21.6 14.5-39.4 14.5-19.7 0-35.8-6.9-48.2-20.9-12.8-14.1-19.2-34.6-19.2-61.9 0-27.9 6.4-48.6 19.2-61.9 12.4-14.1 28.3-21 48.2-21q25.7 0 37.8 12.2c7.6 9 11.1 18.1 11.1 26.6h-18.5c0-7.6-2.4-13.1-7.1-16.9-5.5-3.8-12.8-5.7-22.6-5.7-14 0-24.9 4.5-33 13.6-9.7 12.8-14.4 30.5-14.4 53.1 0 23.1 4.7 40.7 14.4 53 8.1 9.8 18.8 14.6 32.1 14.6 9.7 0 17.3-2.2 23.3-6.5 5.2-4.2 7.6-10 7.6-16.9zm138.8 38.6c-19.2 0-35.1-7.1-47.2-21.7-12.3-14-18.5-34.2-18.5-61.1 0-27.9 6.4-48.6 19.2-61.9 12.4-14.1 27.8-21 46.5-21 19.3 0 35.2 6.9 47.3 21 12.3 15.5 18.5 36.2 18.5 61.9 0 26.9-6.2 47.1-18.5 61.1-11.6 14.6-27.3 21.7-47.3 21.7zm0-15.9c13.3 0 23.5-4.8 30.4-14.6 9.8-12.3 14.5-29.7 14.5-52.3 0-23.1-4.7-40.5-14.5-52.4-6.9-9.8-17.1-14.5-30.4-14.5-12.8 0-23 4.7-30.3 14.5-9.8 11.9-14.5 29.3-14.5 52.4 0 22.6 4.7 40 14.5 52.3 7.3 9.6 17.5 14.6 30.3 14.6zm167.9-55.7h-20.2v66.8h-20.9v-156.1h48.2c14.5 0 26.1 3.8 35.4 11.2 7.6 7.6 11.1 17.4 11.1 29.7 0 10.7-2.6 19.6-8 26.7q-8.9 12.1-25.7 18.6c4.8 2.6 8.1 4.7 9.8 6.4 1.6 1.2 4.9 6.9 10.4 17.6l24.9 45.9h-23.2l-21.9-41.1q-7.1-15-19.9-25.7zm0.7-73.4h-20.9v57.2h19.2c10.7 0 19-2.9 25-8.8 5.4-5.5 8-12.7 8-21.7 0-8.6-2.3-15.2-7.1-20.2-5.9-4.1-14-6.5-24.2-6.5zm123.7 4.8c0 2.9-0.5 5.7-1.7 8.1q-1.4 3.6-4.2 6.4-2.9 2.9-6.5 4.3-3.5 1.4-7.8 1.4-4.3 0-7.8-1.4-3.6-1.4-6.4-4.3c-1.9-1.9-3.4-4-4.5-6.4-1.2-2.4-1.7-5.2-1.7-8.1 0-2.9 0.5-5.7 1.7-8.1 1.1-2.4 2.6-4.5 4.5-6.4 1.6-1.9 4-3.4 6.4-4.3q3.5-1.4 7.8-1.4 4.3 0 7.8 1.4 3.6 1.4 6.5 4.3 2.4 2.8 4.2 6.4c1 2.4 1.5 5.2 1.7 8.1zm-3.8 0c0-2.6-0.2-4.8-1.2-6.9-0.9-2.1-2.1-4-3.6-5.5-1.4-1.4-3-2.6-5.2-3.5-2.1-1-4.3-1.5-6.6-1.5-2.4 0-4.5 0.5-6.7 1.5-1.9 0.7-3.8 2.1-5.2 3.5-1.7 1.7-2.6 3.4-3.6 5.5-0.7 2.1-1.1 4.5-1.1 6.9 0 2.4 0.2 4.8 1.1 6.9 1 2.1 2.2 3.8 3.6 5.5 1.4 1.4 3.1 2.6 5.2 3.5 2.2 1 4.3 1.5 6.7 1.5 2.3 0 4.7-0.5 6.6-1.5 1.9-0.7 3.8-2.1 5.2-3.5 1.5-1.4 2.7-3.4 3.6-5.5 0.7-2.1 1.2-4.5 1.2-6.9z"/>
	<path id="Layer" fill-rule="evenodd" class="s1" d="m1537.2 27.6l6.9 10.4h-4.1l-6.4-10.2h-3.8v10.2h-3.8v-23.8h9.3c2.8 0 4.7 0.5 6.2 1.7q2.1 1.4 2.1 5c0 2.1-0.7 3.8-1.9 4.8-1.2 1.1-2.8 1.6-4.5 1.9zm-1.2-2.9c0.7 0 1.4-0.2 1.9-0.5 0.7-0.2 1.2-0.7 1.4-1.2 0.3-0.4 0.5-1.1 0.5-2.1 0-0.7-0.2-1.4-0.5-1.9-0.2-0.5-0.7-1-1.2-1.2-0.4-0.2-0.9-0.5-1.6-0.5-0.7-0.2-1.2-0.2-1.9-0.2h-5v7.6z"/>
</svg>