<svg version="1.2" xmlns="http://www.w3.org/2000/svg" viewBox="0 0 1602 479" width="1602" height="479">
	<title>FMC_Corporation_logo-svg</title>
	<defs>
		<clipPath clipPathUnits="userSpaceOnUse" id="cp1">
			<path d="m0.85 0.85h554.51v477.59h-554.51z"/>
		</clipPath>
	</defs>
	<style>
		.s0 { fill: #ee2e30 } 
	</style>
	<g id="layer1">
		<g id="g531">
			<g id="Clip-Path: g149" clip-path="url(#cp1)">
				<g id="g149">
					<path id="path147" class="s0" d="m349 326.8v151.6h-172.6v-151.6h-96.4c-61.4 0-79.1-34.5-79.1-77 0-42.5 17.7-76.9 79.1-76.9h98.5v-172h363.2v130.9h-192.7v41.1h86.1c61.3 0 79.5 34.4 79.5 76.9 0 42.5-18.2 77-79.5 77z"/>
				</g>
			</g>
			<path id="path143" class="s0" d="m1601.6 478.4h-174.1c-94.8 0-195.4-65.6-195.6-243.1-0.1-145.3 91.4-234.4 195.6-234.4h174.1v154.7h-127c-22.7 0-76.3 8.9-76.3 82.8 0 73.7 53.6 84.7 76.3 84.7h127zm-796.9 0l-75.9-344v344h-152.2v-477.6h161.1c96.9 0 106 48.6 119.1 107.1l31.8 155 31.8-155c13.2-58.5 22.3-107.1 119.1-107.1h161.1v477.6h-152.1v-344l-75.9 344z"/>
		</g>
	</g>
</svg>