<svg version="1.2" xmlns="http://www.w3.org/2000/svg" viewBox="0 0 1579 592" width="1579" height="592">
	<title>Ford_logo_flat-svg</title>
	<style>
		.s0 { fill: #003478 } 
		.s1 { fill: #ffffff } 
	</style>
	<g id="layer1">
		<ellipse id="path737" class="s0" cx="789.2" cy="296.1" rx="788.9" ry="295.8"/>
		<path id="path741" fill-rule="evenodd" class="s1" d="m1123.8 415.7c-2.3 5.7-2.5 10.1-0.2 13.3c6.1 8.2 19.5 3.4 28-2.5c25-17.2 42.3-38.1 61.6-56.4c1-0.8 2.9-1.1 4.2 0c2.9 2.6 7 6 9.9 9c1.3 1.5 0.8 2.9 0.1 3.8c-18.8 22.9-39.6 44.6-59.4 59.9c-30.9 23.9-61.8 30-77 14.7c-5.7-5.7-8.8-13.9-9.2-20.8c-0.2-3.7-2.1-3.9-3.9-2.2c-18.2 18-49.9 38-78.7 23.8c-24.1-11.9-29.7-40.6-25.2-64.9c0.1-0.5-0.4-3.9-3.4-1.9c-5 3.6-11.6 7.6-19.7 10.6c-10.1 3.8-14.8 5.2-24.1 5.1c-11.7-0.1-22.2-5.1-29.6-16.6c-4.2-6.3-5.9-15.8-6.3-22.8c0-0.8-1-2.1-2.1-0.3c-19.7 30-38.1 59.1-57.6 89.6c-1 1.4-1.9 2.4-3.9 2.4c-12.1 0-25.3 0-38.6 0.1c-2.4 0-3.5-1.9-2.2-4.1c6.8-13.3 44.2-67.8 69.7-114.2c7-12.7 5.6-19.3 1.2-22.2c-5.4-3.5-16.3 1.8-25.4 8.8c-24.9 18.9-45.9 48.3-56.5 61.4c-6.2 7.8-12.1 19.2-28.5 36.9c-25.7 27.9-59.7 43.9-92.6 32.9c-17.9-6.1-30.9-20.5-35.8-38.2c-1-3.4-2.9-4.4-4.8-2.1c-5.3 6.6-16.1 16.4-25.2 22.5c-1 0.7-3.4 2.1-5.6 1.1c-1.9-0.8-8.6-10.4-9.9-13.1c-1-2-0.1-4.2 1-5.2c13-11.4 20.1-17.9 25.7-25c4.2-5.2 7.5-11.2 11.3-20.7c7.8-19.9 25.8-57 61.6-76.1c13.6-7.4 27.5-12.6 42.8-14.4c6.7-0.7 12.1 0.1 14 5.3c0.8 2.1 2.6 6.8 3.7 10.3c0.7 2.1 0.2 3.7-2.3 4.7c-21.1 8-42.2 20.4-56.9 40c-16.6 22.3-21.1 49.1-9.9 64.5c8.1 11.2 21.2 13.1 33.8 9.1c19.1-6 35.3-23.8 43.7-43.6c9.1-21.6 10.6-47.1 3.9-69.6c-1.1-3.8-0.2-6.8 2.4-8.9c5.1-4.1 12.1-7.3 14.1-8.4c4.3-2.5 9.5-0.7 12 2.9c6.9 10.3 10.7 24.9 11.1 39.9c0.4 3.2 1.8 3.3 3.3 1.7c12.5-13.3 24.1-27.5 37.4-38.2c12.1-9.6 27.7-17.5 42.3-17.2c18.7 0.4 28.1 13.2 27.5 35.9c-0.1 2.9 2 2.7 3.4 0.7c5.6-7.9 9.3-11.9 15.8-17.3c13-10.7 26.3-15.5 40.1-14.6c17.1 1.3 30.7 16.9 28 34.6c-1.8 11.5-8 21.5-18.6 26.8c-8.9 4.3-19.3 3.6-26.6-3c-5.9-5.4-7.9-13.2-6.3-21.1c0.3-1.6-1.8-3.2-3.5-1.3c-16.7 17.3-17.9 39.8-7 49.9c12 11.2 30 3.7 43.2-4.9c24.1-15.7 42.7-37 64.4-53.5c14.3-10.9 30.6-20.6 49-23c10.1-1.4 19.9-0.6 29.9 3.4c13.1 5.3 21.4 16.4 22.4 26c0.3 2.8 2.4 3.2 4.2 0.7c10.3-16.2 66.1-99.7 70.6-108.4c1.4-2.8 2.9-3.1 5.9-3.1c12.4 0 28-0.1 39.9-0.1c2.2 0 3.3 1.4 2.3 3.2c-6 10.3-121.6 186.2-128.9 204.4zm-23.5-59.6c6.3-12.9 10.9-29.4-3.4-36.2c-13.7-6.6-34.7 5.5-53.6 28.8c-15.6 19.1-24 38.6-24.3 57.5c-0.1 6.7 2.5 15 8.4 18.1c13.4 7.1 29.6-3.4 41.2-13.1c7.7-6.3 14.1-12.9 19.8-21.4c6.1-9.1 10.7-15.2 15.6-25.7c0.6-1.4 0.3-1.9-0.3-2.1c-1.7-0.6-3.5-1.9-3.7-3.2c-0.2-0.9-0.2-1.7 0.3-2.7z"/>
		<path id="path745" fill-rule="evenodd" class="s1" d="m414.6 458.9c-43.1 0.3-81-26.3-85.4-72.4c-2.4-25.5 4.8-48.3 19.3-67.1c12.8-16.7 34.5-30.5 52.9-33.9c5.9-1.1 14-0.5 17.3 3.5c5.2 6.1 3.7 12.7-1.5 15.4c-14 7.2-30.9 19.4-39.2 36.1c-6.8 13.7-8.2 30.1 2.2 45.8c17.3 26.1 65.5 26.8 110.3-14.8c11.1-10.2 21.1-20 31.2-31.6c19.7-22.6 26.3-30.8 52.6-67.2c0.2-0.4 0.4-1 0.2-1.3c-0.2-0.5-0.5-0.5-1.3-0.6c-17.5 0.5-32.8 5.7-47.7 16.8c-4.2 3.1-10.4 2.7-13.1-1.4c-3-4.7-0.8-10.7 4.1-14.1c23.9-16.6 50-19.6 76.6-24.1c0 0 1.9 0 3.4-2c10.9-14 19.2-26.7 30.9-40.9c11.7-14.4 26.9-27.6 38.5-37.5c16.2-14 26.6-18.6 37.1-24.4c2.8-1.4-0.3-3.2-1.2-3.2c-58.9-11-120.1-25.4-178.6-3.7c-40.5 15.1-58.3 47.2-49.8 68.7c6.1 15.2 26.2 17.7 44.9 8.5c15.6-7.6 30-19.9 40.2-35.7c5.7-8.8 17.8-2.5 11.3 12.8c-17.2 40.2-49.9 72.1-89.7 73.5c-33.9 1.1-55.8-23.9-55.7-54.6c0.1-60.7 67.7-100.7 138.7-106.7c85.5-7 166.5 15.7 251.4 26c65.1 7.9 127.4 8.1 192.8-6.9c7.8-1.7 13.2 3.2 12.7 11c-0.6 11.3-9.4 22.2-30.9 33.9c-24.5 13.4-50.1 17.5-76.9 17.7c-64.7 0.6-125-24.6-187.4-38.2c0.1 2.7 0.8 6-1.5 7.7c-34.5 25.5-65.7 51.4-86.7 87.7c-0.7 0.9-0.3 1.7 0.9 1.6c18.2-1 34.5-1.5 51.5-2.8c2.9-0.3 3.1-1 2.8-3.2c-1.5-12.5 2.2-26.8 13.2-36.6c11.3-10.1 25.4-11.3 34.7-4c10.7 8.3 9.7 23.2 3.9 34.4c-5.9 11.4-15.7 17.4-25.1 20.4c0 0-2 0.4-1.7 2.2c0.4 2.9 13.2 9.9 14.3 11.8c1.1 1.8 0.5 4.6-1.4 6.8c-1.4 1.5-3.5 3-6.2 2.9c-2.2 0-3.6-0.8-6.4-2.3c-5.7-3.1-12.9-8.2-17.7-14.3c-1.6-2-2.4-2-6.5-1.8c-18.4 1-47 3.8-66.3 6.2c-4.7 0.6-5.4 1.5-6.4 3.1c-30.9 51-63.9 105.9-100.1 142.7c-38.9 39.4-71.2 49.8-105.5 50.1zm178.5-210.9q0 0 0 0q0 0 0 0zm116-15.5c0.5 2.6 1.5 3.1 2.7 2.9c5.9-1.2 12.3-6 16.1-11.6c3.5-5.1 5.1-12.5 1.7-15.4c-3.1-2.7-8.1-1.9-11.8 1.4c-7.4 6.5-9.7 15.8-8.7 22.7z"/>
		<path id="path749" fill-rule="evenodd" class="s1" d="m789.2 566.2c-418 0-755.9-120.7-755.9-270c0-149.3 337.9-270 755.9-270c418 0 755.9 120.7 755.9 270c0 149.3-337.9 270-755.9 270zm729.4-270c0-136.9-326.1-247.5-729.4-247.5c-403.3 0-729.4 110.6-729.4 247.5c0 136.9 326.1 247.5 729.4 247.5c403.3 0 729.4-110.6 729.4-247.5z"/>
	</g>
</svg>