<svg version="1.2" xmlns="http://www.w3.org/2000/svg" viewBox="0 0 1520 176" width="1520" height="176">
	<title>fortinet-logo-svg</title>
	<style>
		.s0 { fill: #231f20 } 
		.s1 { fill: #ee3124 } 
	</style>
	<path id="Layer" fill-rule="evenodd" class="s0" d="m0 174.1v-171.1h188.3v38.1h-146.6v29h126.2v36.9h-126.2v67.1zm630 0v-58.3c0-5.2-4.4-7.4-4.4-7.4-1.9-1.2-7.8-1.4-16.6-1.4h-85.8v67.3h-41.7v-171.3h129.9c22.6 0 38 3.4 48.6 13.7 10.5 10.9 11.7 24.9 12 39.4v12.3c0.2 12.3-6.4 23.6-14.3 30.2l1.5 0.7c3.2 1.5 4.9 3.7 4.9 3.7 5.9 7.6 5.9 14 5.9 22.1v49zm-22.6-104c10.3 0 16.2 0 18.7-1.5 0 0 4.1-2.5 4.4-7.4v-11.3c0-5.1-4.4-7.4-4.4-7.4-3.2-1.7-8.8-1.4-21.8-1.4h-81.2v29zm125.5 104v-133h-39.2v-38.1h156.4v38.1h-75.5v133zm658.5 0v-133h-39.2v-38.1h156.4v38.1h-75.5v133zm-520.7 0v-171.1h41.6v171.1zm292.8 0v-171.1h167.9v38.1h-126.3v29h87.8v36.9h-87.8v29h127.3v38.1zm-178 0h-41.9v-171.1h134.6c0 0 24.7-1 40.2 14.5 0 0 15.9 13.5 15.9 46.2v110.4h-41.7v-113.1c0 0 0.5-11.6-3.4-15.5 0 0-3.4-4.4-10-4.4h-93.7zm513.4-0.3c-11.4 0-20.6-9.2-20.6-20.6 0-11.4 9.2-20.7 20.6-20.7 11.4 0 20.6 9.3 20.6 20.7 0 11.4-9.2 20.6-20.6 20.6zm18.1-20.5c0-10.1-8.1-18.3-18.1-18.3-10.1 0-18.2 8.2-18.2 18.3 0 10.1 8.1 18.3 18.2 18.3 10 0 18.1-8.2 18.1-18.3zm-25.7-12.2h10c3.5 0 6.9 0.8 7.4 5.9 0 3-0.8 4-3 5.7 2.5 1.5 2.5 1.9 2.7 5.9 0.3 2.9-0.2 3.4 1 5.4h-3.4l-0.5-3c-0.5-2.7 0.7-6.8-3.9-6.8h-7.4v9.8h-2.9zm2.9 2.7v7.9h7.4c1.9 0 3.9-0.5 4.1-3.5 0.5-3.9-2.4-4.4-4.1-4.4zm-750.5-113.6v-5.6zm658.3 0v-5.7z"/>
	<path id="Layer" fill-rule="evenodd" class="s1" d="m206.7 65.7h69.1v45.4h-69.1zm88.2-64.6h67.9v45.5h-67.9zm0 129h67.9v45.5h-67.9zm86.8-64.4h69.4v45.5h-69.4zm-105.9-64.7v45.7h-69.1v-5.1c2.7-20.7 13.9-36.9 28.4-40.6zm0.3 129.1v45.5h-42.7c-13.7-4.5-24.3-20.2-26.7-39.9v-5.6zm175-83.9h-69.4v-45.4h41c14.4 3.9 25.7 20.1 28.4 40.5zm-69.4 129.6v-45.5h69.4v5.7c-2.7 19.6-13.2 35.1-26.7 39.8z"/>
</svg>