<svg version="1.2" xmlns="http://www.w3.org/2000/svg" viewBox="0 0 1600 316" width="1600" height="316">
	<title>logo (47)-svg</title>
	<style>
		.s0 { fill: #000000 } 
		.s1 { fill: #64be49 } 
	</style>
	<path id="Layer" fill-rule="evenodd" class="s0" d="m661.4 257.3c-54 0-97.6-43.6-97.6-97.6 0-54 43.6-97.7 97.6-97.7 54 0 97.6 43.7 97.6 97.7 0 54-43.6 97.6-97.6 97.6zm55-97.3c0-31.8-24.6-57.5-55-57.5-30.4 0-54.9 25.7-54.9 57.5 0 31.9 24.5 57.6 54.9 57.6 30.4 0 55-25.7 55-57.6zm-309.6-93.5h138.8v38.2h-98.3v34.9h82v38.3h-82v75h-40.5zm1192.9 148.1v38.7h-139.9v-186.8h138.8v38.2h-98.3v34.9h84.2v38.3h-84.2v36.7zm-429.9-148.1h40.5v186.4h-40.5zm215.3 0h44.2l-94.7 189-94.6-189h44.9l50.1 105.1zm-414.6 0h160.4v38.2h-60.2v148.2h-40.4v-148.2h-60.2zm-74.9 111l54.9 75.4h-49.7l-52.4-75h-15.2v75.4h-40.4v-186.8h95.7c30.8 0 55.7 24.9 55.7 55.7 0 28.6-21.5 52-48.6 55.3zm-10-37.8c9.6 0 17.4-7.8 17.4-17.5 0-9.6-7.8-17.4-17.4-17.4h-52.8v34.9z"/>
	<path id="Layer" fill-rule="evenodd" class="s1" d="m315.5 157.8c0 87.3-70.5 157.8-157.8 158.2-20.7 0-40.8-4.1-59-11.5v-47.2c17.5 10.1 37.5 16 59 16 63.9 0 115.5-51.6 115.5-115.5 0-41.9-22.7-79.1-56.4-99.1v49l-117.7 67.9v-49l117.7-68.3c-17.5-10-37.5-16-59.1-16-63.8 0-115.4 51.6-115.4 115.5 0 42 22.7 79.1 56.4 99.2l-40.4 23.4c-35.7-29-58.3-73.2-58.3-122.6 0-87.2 70.9-157.8 157.7-157.8 87.3 0 158.2 70.6 157.8 157.8zm-123.2 45.3l-93.2 53.9v-49.1l93.2-53.8z"/>
</svg>