<svg version="1.2" xmlns="http://www.w3.org/2000/svg" viewBox="0 0 1568 669" width="1568" height="669">
	<title>foxlogo-svg</title>
	<style>
		.s0 { fill: #004c97 } 
	</style>
	<g id="Layer">
		<path id="Layer" fill-rule="evenodd" class="s0" d="m402.7 0l12.4 182.9h-225.4v87.3h183.6v182.5h-185.2l0.5 216.3h-188.6v-669zm934.3 0l-81.2 144.4-79.5-144.4h-219.5l191.9 322.9-203.3 345.7 213.4 0.4 94.4-169.5 95.7 169.1h219.1l-207-347.9 188.1-320.7z"/>
		<path id="Layer" fill-rule="evenodd" class="s0" d="m714.8 645.9c-178.5 0-322.8-144.3-322.8-322.9 0-178.6 144.3-323 322.8-323 178.5 0 322.8 144.4 322.8 323 0 178.6-144.3 322.9-322.8 322.9zm58.1-190.4v-265.3c0-30.3-26.9-57.4-57.2-57.4-30.2 0-54.7 27.1-54.7 57.4l-0.1 264.6c0 7.2 1.5 14.3 4.2 20.9 2.8 6.7 6.8 12.7 11.9 17.8 5.1 5.1 11.1 9.2 17.8 11.9 6.6 2.8 13.7 4.2 20.9 4.2 30.3 0 57.2-23.8 57.2-54.1z"/>
	</g>
</svg>