<svg version="1.2" xmlns="http://www.w3.org/2000/svg" viewBox="0 0 1623 191" width="1623" height="191">
	<title>freeport-mcmoran-logo-allvectorlogo</title>
	<style>
		.s0 { fill: #2c2e35 } 
		.s1 { fill: #040809 } 
		.s2 { fill: #00b9f2 } 
	</style>
	<g id="图层 1">
		<path id="&lt;Path&gt;" class="s0" d="m367.3 53.6v23.2h-35.4v17.7h33.8v21.4h-33.8v42h-37.5v-104.3z"/>
		<g id="&lt;Group&gt;">
			<path id="&lt;Compound Path&gt;" fill-rule="evenodd" class="s0" d="m372.7 73.9h54.2q16.9 2.1 16.9 19.8 0 8.6-3.4 13.1-3.6 4.4-11.7 6.5-0.5 0-0.5 0.5 0.2 0.5 0.5 0.5 6 0.3 10.1 4.5 4.2 3.9 4.7 9.9v28.7h-29.9v-28.7q0-2.1-1.6-3.9-1.5-1.9-3.6-1.9h-5.5v34.5h-30.2zm30 14.8v17.2h4.6q3.9 0 5.2-2.8 0.8-1.6 1.1-5.5 0.2-3.9-1.8-7.1-1.1-1.5-3.7-1.8z"/>
			<path id="&lt;Path&gt;" class="s0" d="m510.1 74.2v19h-27.8v13.8h26.5v17.2h-26.5v14.4h27.8v19h-57.7v-83.4z"/>
			<path id="&lt;Path&gt;" class="s0" d="m577 74.2v19h-27.8v13.8h26.5v17.2h-26.5v14.4h27.8v19h-57.7v-83.4z"/>
			<path id="&lt;Compound Path&gt;" fill-rule="evenodd" class="s0" d="m587.4 74.4h49.5q21.3 0 21.3 25.6 0.3 30-26.5 30h-14.1v27.6h-30.2zm30.2 38.1h3.9q7.3-2.1 7.3-10.7 0.3-9.1-5.7-10.4h-5.5z"/>
			<path id="&lt;Compound Path&gt;" fill-rule="evenodd" class="s0" d="m694.4 73.4h6.8q19.5 0 26.8 9.9 5.7 7.3 5.7 23.7v18.3q0 17.2-7.8 25.3-7.8 8.1-24.7 8.1h-6.8q-16.7 0-24.5-8.1-8-8.1-8-25.3v-18.3q0-16.2 5.7-23.7 7.5-9.9 26.8-9.9zm2.9 16.4q-5 0-5 6.8v38.8q0 6.6 5 6.6h1.3q4.7 0 4.7-6.6v-38.8q0-6.8-4.7-6.8z"/>
			<path id="&lt;Compound Path&gt;" fill-rule="evenodd" class="s0" d="m738.6 73.9h54.2q16.9 2.1 16.9 19.8 0 8.6-3.6 13.1-3.4 4.4-11.5 6.5-0.5 0-0.5 0.5 0 0.5 0.5 0.5 6 0.3 10.2 4.5 4.1 3.9 4.6 9.9v28.7h-29.9v-28.7q0-2.1-1.6-3.9-1.5-1.9-3.6-1.9h-5.5v34.5h-30.2zm30 14.8v17.2h4.7q3.6 0 5.2-2.8 0.7-1.6 1-5.5 0.3-3.9-1.8-7.1-1.1-1.5-3.7-1.8z"/>
			<path id="&lt;Path&gt;" class="s0" d="m886.5 74.2v18.7h-20.6v64.7h-30.2v-64.7h-19.8v-18.7z"/>
			<path id="&lt;Path&gt;" class="s0" d="m889.3 106.8h33.1v17.7h-33.1z"/>
			<path id="&lt;Path&gt;" class="s0" d="m1066.3 53.6v104.3h-33.3l1-64.2-15.3 64.2h-25.5l-15.6-63.4 1 63.4h-33v-104.3h49.9l10.4 53.2 10.4-53.2z"/>
			<path id="&lt;Path&gt;" class="s0" d="m1114.7 96.6q-0.8-4.7-5.4-4.7-4.7 0.3-5.3 4.9v40.5q0.8 4.9 5.8 4.7 3.9-0.3 4.9-4.2v-7.8h29.7q-0.3 7-0.8 9.4-0.8 4.4-3.4 8-4.9 6.6-14 9.4-7.1 1.9-18.8 1.9-31.5 0-32.5-24.8-0.3-6.5-0.3-16.2 0-8.1 0-11.7 0.3-4.5 0.3-3.7 0-26.8 33.1-26.8 12.4 0 19 1.8 17.1 4.9 17.1 24.8v2.3h-29.4z"/>
			<path id="&lt;Path&gt;" class="s0" d="m1273.2 53.6v104.3h-33l1-64.2-15.4 64.2h-25.7l-15.6-63.4 1.3 63.4h-33.3v-104.3h49.9l10.7 53.2 10.1-53.2z"/>
			<path id="&lt;Compound Path&gt;" fill-rule="evenodd" class="s0" d="m1314.3 73.4h6.8q19.5 0 26.8 9.9 5.7 7.3 5.7 23.7v18.3q0 17.2-7.8 25.3-7.8 8.1-24.7 8.1h-6.8q-16.6 0-24.4-8.1-8.1-8.1-8.1-25.3v-18.3q0-16.2 5.7-23.7 7.6-9.9 26.8-9.9zm2.9 16.4q-4.9 0-4.9 6.8v38.8q0 6.6 4.9 6.6h1.3q4.7 0 4.7-6.6v-38.8q0-6.8-4.7-6.8z"/>
			<path id="&lt;Compound Path&gt;" fill-rule="evenodd" class="s0" d="m1362.2 53.6h67.7q21.1 2.6 21.1 24.7 0 10.7-4.5 16.5-4.1 5.4-14.5 8-0.5 0-0.5 0.8 0.2 0.5 0.7 0.5 6.5 0.3 11.7 4.7 7.1 5.8 7.1 13.3v35.8h-37.8v-36q0-2.6-1.8-4.7-2.1-2.4-4.7-2.4h-6.7v43.1h-37.8zm37.5 19.3v21.6h5.7q4.7 0 6.5-3.4 1.1-2.1 1.3-7 0.3-4.7-2.3-8.9-1.3-1.8-4.4-2.3z"/>
			<path id="&lt;Compound Path&gt;" fill-rule="evenodd" class="s0" d="m1476.2 74.2h42.2l20.8 83.4h-30.7l-3.1-14.3h-17.7l-2.6 14.3h-29.7zm14.8 51.7h11.2l-5.7-31.1z"/>
			<path id="&lt;Path&gt;" class="s0" d="m1623 157.9h-39.6l-13.5-43.6 0.5 43.6h-26.5v-83.5h35.9l17.4 43.3-0.7-43.3h26.5z"/>
			<path id="&lt;Path&gt;" class="s1" d="m0.3 0.1h255.1v190.4h-255.1z"/>
			<path id="&lt;Path&gt;" class="s2" d="m95 136.2h46.6v23.5h-46.6z"/>
			<path id="&lt;Path&gt;" class="s2" d="m255.1 89.8v69.6h-47.6v-46.6l-18.3 46.6h-29.9l-17.9-46.6v0.5l-0.3-0.5h-46.1v-23h66.4l13 33.1v-0.2 0.2l13-33.1z"/>
			<path id="&lt;Path&gt;" class="s2" d="m48.4 89.8v23.2h46.4v23.5h-46.4v23.2h-48.4v-93.4h94.8v23.5z"/>
		</g>
	</g>
</svg>