<svg version="1.2" xmlns="http://www.w3.org/2000/svg" viewBox="0 0 1586 228" width="1586" height="228">
	<title>garmin logo-svg</title>
	<style>
		.s0 { fill: #000000 } 
	</style>
	<path id="Layer" fill-rule="evenodd" class="s0" d="m516.4 214.6c2.1 4.2-0.4 8.7-6.4 8.7h-32c-8.5 0-12.9-4.2-15.5-9.4-2.6-5.2-7.8-14.7-9-17-1.7-3.5-5.6-4.6-11.5-4.6l-102.9-0.1c-5.9 0-10.1 1.8-11.5 4.7-1 2.1-6.2 12.7-8.6 17.6-2.4 4.8-6.4 8.8-15.1 8.8h-22.1c-5.9 0-8.8-3.8-6.1-9.1l95.6-199.7c2.6-5.4 9.5-9.7 15.4-9.7h12.1c5.9 0 12.9 4.3 15.6 9.6 0 0 99.9 196 102 200.2zm-91.6-53.2c5.9 0 8.7-4.4 6.3-9.8l-36.7-80.7c-2.4-5.4-6.5-5.4-9 0l-37.7 80.7c-2.5 5.3 0.3 9.7 6.3 9.7zm739.2-156.6h27.1c6 0 9.8 4.8 9.8 10.8v198c0 6-4.9 9.7-10.8 9.7h-26.1c-6 0-10.8-3.7-10.8-9.2v-198.2c0-7.5 4.9-11.1 10.8-11.1zm-396.2 210.1c2.1 2.9 1.1 8.5-4.8 8.5h-33.6c-5.9 0-10.3-2.5-15-8.8l-50.6-71.1c-3.4-4.9-11.1-8.8-17-8.8 0 0-48.6 0-48.6 0.1q0 0.1-0.1 0.1c-0.1 0-0.1 78.7-0.1 78.7 0 6-4.8 9.7-10.8 9.7h-25.6c-6 0-10.8-3.7-10.8-9.7v-198c0-5.9 4.8-10.8 10.8-10.8h108.5c5.9 0 15.6 0.2 21.5 0.5 0 0 14.6 0.7 25.5 3 10.8 2.4 20.1 6.2 27.9 11.3 7.7 5.1 13.7 11.8 17.9 19.9q6.2 12.3 6.2 30.2 0 27.4-16.2 42c-10.8 9.7-33.4 16.5-33.4 16.5-5.7 1.7-7.6 7-4.2 11.9 0 0 50.5 71.8 52.5 74.8zm-57.1-121.6q5.8-4.1 8.3-9.7 2.5-5.7 2.5-12.3 0-6.7-2.5-12.3-2.5-5.6-8.3-9.8-5.8-4.1-15.8-6.4c-6.7-1.6-14.1-1.9-14.1-1.9-6-0.2-15.6-0.4-21.6-0.4h-50.3c-5.9 0-10.8 4.8-10.8 10.7v40.2c0 5.9 4.9 10.7 10.8 10.7h50.3c6 0 15.6-0.2 21.6-0.4 0 0 7.4-0.3 14.1-1.9q10-2.2 15.8-6.5zm763.3-88.6h22.1c5.9 0 10.7 4.9 10.7 10.8v197c0 5.9-4.8 10.8-10.7 10.8h-18c-9.1 0-14.2-3.5-18.4-7.7l-132.2-137.5c-4.1-4.2-7.5-2.9-7.5 3 0 0-0.1 130.8-0.1 133.5 0 5.5-4.2 8.7-10.1 8.7h-23.9c-5.9 0-9.8-3.9-9.8-7.9v-202.6c0-4 3.3-8 10.8-8h23.9c8.1 0 14.1 3.5 18.3 7.7l126.8 131.6c4.1 4.3 7.5 2.9 7.5-3l-0.1-126.7c0-5.7 4.8-9.6 10.7-9.6zm-453.1 9.4c2.9-5.1 7.9-9.3 16.1-9.3h32.2c6 0 10.8 4.8 10.8 10.7v197.1c0 7.8-4.8 10.7-10.8 10.7h-24c-6 0-10.5-3.7-10.5-9.4 0-4.2 0-143.5-0.2-143.5-0.2 0-78 143.5-78 143.5-2.9 5.2-9.8 5.2-12.5-0.1 0 0-77.2-143.8-77.4-143.8-0.3 0-0.3 141.1-0.3 143.9 0 5.7-4.3 9.4-10.3 9.4h-20.9c-6.8 0-10.7-4-10.7-9.9v-197.9c0-5.9 4.8-10.7 10.7-10.7h33.7c7.5 0 12.9 4.3 15.6 9.6l62 113.9c2.8 5.1 7.5 5.2 10.4 0zm-889.1-13.7c59.7 0 98.2 20.9 98.7 21.2 6.9 4.7 7.9 10.6 5 16.2 0 0-6.8 13.9-6.8 13.9-3.6 6.9-10.3 9.2-16.7 5.9-0.4-0.2-36.5-22.4-91.4-17.7-67.8 5.8-71.2 63.2-71.2 74.6 0 13.7 4.3 59.2 59.5 72.4 38 9.1 85.4-4.7 95.8-9 0-2 0-34.3 0-34.3 0-5.1-4.1-9.2-9.2-9.2h-52.6c-6.8 0-11.3-5.6-11.3-12.4v-7.6c0-6.8 4.5-12.3 11.3-12.3h91c6.8 0 12.3 5.5 12.3 12.3v73.7c0 9.6-5.5 14.8-10 17.4-1.3 0.8-31.9 20.4-104.4 20.4-21.9 0-131-5.4-131-112.1 0-11.6 3.7-113.3 131-113.4zm1428.5 227.2c-13.8 0-24.9-11.1-24.9-24.9 0-13.8 11.1-24.9 24.9-24.9 13.8 0 24.9 11.1 24.9 24.9 0 13.8-11.1 24.9-24.9 24.9zm20.2-24.9c0-11.7-9.1-21.2-20.2-21.2-11.2 0-20.2 9.5-20.2 21.2 0 11.7 9 21.2 20.2 21.2 11.1 0 20.2-9.5 20.2-21.2zm-29.7-14.6h11.1c6.7 0 10.1 2.7 10.1 8.2 0 4.7-3 8.1-7.6 8.1l8.3 12.9h-5l-8.2-12.9h-4v12.9h-4.7zm4.7 12.5h5.7c3.7 0 6-0.7 6-4.5 0-3.3-3-4.3-6-4.3h-5.7z"/>
</svg>