<svg version="1.2" xmlns="http://www.w3.org/2000/svg" viewBox="0 0 1543 343" width="1543" height="343">
	<title>logo (46)-svg</title>
	<style>
		.s0 { fill: #640acd } 
	</style>
	<path id="Layer" fill-rule="evenodd" class="s0" d="m1504.4 243c-22.2 0-36.4-13.4-36.4-34.1v-42.1c0-19.8 17-34.1 38.7-34.1 21.7 0 35.4 10.8 35.4 28.4 0 17.6-8.4 23.9-30.9 33.5l-29.2 12.5v1.8c0 13.7 7.7 21.3 22.4 21.3 10.1 0 17-3.9 22.5-11.9 2.1-3 6.2-3.7 9.2-1.6 3.1 2 3.5 6.1 1.5 9.6-6.4 11.2-18.8 16.7-33.2 16.7zm-22.4-49.6l24.9-10.7c12.7-5.5 20.9-10.8 20.9-20.4 0-10.6-7.6-16.8-20.9-16.8-14.5 0-24.9 8.8-24.9 21.3zm-36.4-59.7q0 0 0 0 0 0 0 0zm0 0c2.8 0 5.7 0.2 8.5 1.1 3.9 1 5.8 3.6 5.8 6.7 0 4.1-2.9 6.5-6.6 6.5-1.8 0-5.3-0.8-7.5-0.8-13.9 0-21.1 10.2-21.1 23.9v64c0 3.9-2.9 6.9-6.9 6.9-4.1 0-7-3-7-6.9v-64c0-22.5 14.3-37.4 34.8-37.4zm-93.8-1c22.3 0 36.4 13.5 36.4 34.1v42.1c0 19.9-17 34.2-38.7 34.2-21.6 0-35.3-10.9-35.3-28.5 0-17.5 8.3-23.9 30.8-33.5l29.3-12.4v-1.9c0-13.7-7.8-21.2-22.5-21.2-10 0-17 3.9-22.5 11.8-2 3.1-6.1 3.7-9.2 1.7-3.1-2.1-3.5-6.2-1.4-9.6 6.3-11.3 18.8-16.8 33.1-16.8zm-2.5 97.5c14.5 0 25-8.8 25-21.3v-26.5l-25 10.6c-12.7 5.5-20.8 10.8-20.8 20.4 0 10.7 7.5 16.8 20.8 16.8zm-90.6-0.4c14.1 0 24.6-6.1 30.5-17.6 1.6-3.3 5.5-4.7 9-3.1 3.3 1.7 4.5 5.6 2.9 8.8-7.8 16.2-22.9 25.2-42.4 25.2-26.7 0-47.6-20.9-47.6-48.1v-47c0-27.2 20.9-48 47.6-48 19.5 0 34.6 9 42.4 25.1 1.6 3.3 0.4 7.2-2.9 8.8-3.5 1.7-7.4 0.2-9-3-5.9-11.5-16.4-17.6-30.5-17.6-18.6 0-33.1 15.1-33.1 34.7v47c0 19.7 14.5 34.8 33.1 34.8zm-145.6-120.8c0-4.9 2.9-8 7-8 4 0 6.9 3.1 6.9 7v37.4c6.7-7.2 16.1-11.7 26.6-11.7 20.4 0 36.8 17 36.8 37.7v63.7c0 3.9-2.9 6.9-7 6.9-4.1 0-6.9-3-6.9-6.9v-63.7c0-13.7-11-24.8-24.8-24.8-13.7 0-24.7 11.1-24.7 24.8v63.7c0 3.9-2.9 6.9-6.9 6.9-4.1 0-7-3-7-5.8zm-22.1 25.7c3.7 0 6.4 2.6 6.4 6.3 0 3.9-2.7 6.6-6.4 6.6h-23.3v57c0 13.9 7.4 24.1 22.7 24.1 3.7 0 6.8 2.5 7 6.1 0.2 3.7-2.7 7.2-7.2 7.2-10.8 0-19.6-2.9-26.6-10.4-6.3-7-9.8-16.6-9.8-27v-57h-17c-3.6 0-6.3-2.7-6.3-6.4 0-3.9 2.7-6.5 6.3-6.5h17v-26.8c0-3.9 2.9-6.9 7-6.9 4.1 0 6.9 3 6.9 6.9v26.8zm-56 102c-0.2 3.4-3.1 6.3-7.1 6.3-8.4 0-15.2-3.5-19.9-9.4-4.1-4.9-6.3-11.6-6.3-19.4v-106.3c0-3.9 2.9-6.9 6.9-6.9 4.1 0 7 3 7 6.9v106.3c0 9.6 4.7 14.7 13.1 15.5 3.7 0.4 6.5 3.3 6.3 7zm-93.6-104.1c22.3 0 36.4 13.5 36.4 34.2v42.1c0 19.8-17 34.1-38.7 34.1-21.6 0-35.3-10.8-35.3-28.4 0-17.6 8.4-23.9 30.8-33.5l29.3-12.5v-1.8c0-13.7-7.8-21.3-22.5-21.3-10 0-17 3.9-22.5 11.9-2 3-6.1 3.6-9.2 1.6-3.1-2-3.5-6.1-1.4-9.6 6.3-11.2 18.8-16.8 33.1-16.8zm-2.5 97.5c14.5 0 25-8.8 25-21.2v-26.6l-25 10.6c-12.7 5.6-20.8 10.9-20.8 20.5 0 10.6 7.5 16.7 20.8 16.7zm-87.1 12.9c-22.3 0-36.4-13.5-36.4-34.1v-42.1c0-19.8 17-34.1 38.7-34.1 21.6 0 35.3 10.8 35.3 28.4 0 17.5-8.3 23.9-30.8 33.5l-29.3 12.4v1.9c0 13.7 7.8 21.2 22.5 21.2 10 0 17-3.8 22.5-11.8 2.1-3.1 6.1-3.7 9.2-1.6 3.1 2 3.5 6.1 1.4 9.6-6.3 11.2-18.8 16.7-33.1 16.7zm-22.5-49.7l25-10.6c12.7-5.5 20.8-10.8 20.8-20.4 0-10.7-7.5-16.8-20.8-16.8-14.5 0-25 8.8-25 21.3zm-45.7 48.6c-4.5 0-7.4-3-7.4-7.3v-58.9h-64.5v58.9c0 4.3-3.1 7.3-7.4 7.3-4.3 0-7.4-3.2-7.4-7.3v-126.3c0-4.3 2.9-7.4 7.4-7.4 4.5 0 7.4 3.1 7.4 7.4v54.5h64.5v-54.5c0-4.3 2.9-7.4 7.4-7.4 4.5 0 7.3 3.1 7.3 7.4v126.3c0 4.3-2.8 7.3-7.3 7.3zm-148.1-1h-67.1c-4.3 0-7.2-3.1-7.2-7.2v-124.6c0-4.1 2.9-7.2 7.2-7.2h67.1c3.7 0 6.4 2.7 6.4 6.3 0 3.9-2.7 6.6-6.4 6.6h-60v48h55.1c3.7 0 6.4 2.7 6.4 6.6 0 3.6-2.7 6.3-6.4 6.3h-55.1v52.3h60c3.7 0 6.4 2.7 6.4 6.6 0 3.6-2.7 6.3-6.4 6.3zm-99.9-46c0 26.2-20.4 48.1-46.8 48.1-26.3 0-46.8-21.1-46.8-48.1v-47c0-27.2 20.3-48 46.4-48 19 0 33.6 9 41.3 25.1 1.7 3.3 0.4 7.2-2.8 8.8-3.5 1.6-7.4 0.2-9-3.1-6-11.4-15.8-17.5-29.5-17.5-18 0-31.9 15.1-31.9 34.7v47c0 19.4 14.5 34.8 32.3 34.8 17.8 0 32.5-15.6 32.5-34.8v-16.3h-31.4c-3.7 0-6.4-2.7-6.4-6.6 0-3.7 2.7-6.3 6.4-6.3h38.6c4.3 0 7.2 3.1 7.2 7.1v22.1zm-364.2 148c-94.5 0-171.5-76.5-171.5-171.5 0-95 77-171.5 171.5-171.5 94.6 0 171.6 77 171.6 171.5 0 94.6-77 171.5-171.6 171.5zm163.5-171.5c0-90.4-73.1-163.4-163.5-163.4-90.4 0-163.5 73-163.5 163.4 0 90.4 73.1 163.4 163.5 163.4 90.4 0 163.5-73 163.5-163.4zm-18.1 48.9c-0.1 0.2-0.4 0.4-0.9 0.2-0.4-0.2-0.5-0.4-0.5-0.6 0-0.3 5.7-17.2 5.7-36.6-0.1-20.9-8.6-33.7-19.5-33.7-6.6 0-11.4 4.7-11.4 11.8 0 12.9 15.7 13.8 15.7 41.9 0 11.4-2.4 22.3-6.2 34.2-17.5 59.3-73.6 86.9-128.3 86.9-25.2 0-43.1-5.2-48.4-7.6-0.2-0.1-0.4-0.5-0.2-0.9 0.1-0.4 0.5-0.6 0.7-0.5 2.1 0.9 17.5 5.7 36.5 5.7 20.9 0 33.3-8.6 33.3-19 0-6.7-5.3-11.9-11.9-11.9-12.8 0-13.8 16.1-41.4 16.1-11.8 0-22.3-2.3-34.7-6.1-58.9-18.1-87-73.7-86.9-128.8 0-26.8 7.5-48.2 7.6-48.4 0.1-0.1 0.5-0.3 0.9-0.1 0.4 0.1 0.5 0.5 0.5 0.6-0.7 2.2-5.7 17.5-5.7 36.5 0 20.9 8.6 33.3 19.5 33.3 6.2 0 11.4-4.8 11.4-11.4 0-12.9-15.7-14.3-15.7-41.8 0-11.9 2.4-22.4 6.2-34.7 18-58.9 73.6-86.5 128.3-87 25.4-0.1 47.6 7.4 48.5 8.1 0.1 0.1 0.3 0.5 0.1 0.9-0.2 0.4-0.5 0.5-0.6 0.4-0.3 0-14.7-6-36.6-6-20.4 0-33.3 8.5-33.3 19.5 0 6.1 4.8 11.3 11.9 11.3 12.9 0 13.8-15.6 41.4-15.6 11.8 0 22.3 2.3 34.6 6.1 59.5 18.1 86.5 74.2 87 128.3 0.3 27.8-7.5 48.8-7.6 48.9zm-81.7-40.8c-16.2 0-28.5 11.9-28.5 26.1 0 11.9 7.1 21.4 16.6 21.4 3.3 0 6.6-1.9 6.6-6.2 0-6.1-8.1-7.6-7.5-16.9 0.4-6.1 6.1-10.2 11.8-10.2 11.4 0 16.8 11.1 16.8 22.5-0.5 17.6-13.5 29.8-28.7 29.8-19.9 0-32.7-19-32.7-39.4 0-30.4 19.9-42.3 30.4-45.2 0.1 0 27.3 4.9 26.4-7.1-0.3-5.3-8.2-7.3-13.9-7.5-6.3-0.3-12.6 2-12.6 2-3.3-1.7-5.6-5-7-8.7 19.4-14.8 33.2-29 33.2-45.2 0-8.5-5.7-16.1-16.6-16.1-19.5 0-34.2 24.7-34.2 47 0 3.8 0 7.6 0.9 10.9-12.3 9-21.5 14.6-38.2 24.6 0-2.1 0.5-7.4 1.9-14.4 5.7-6.2 13.5-15.4 13.5-22.5 0-3.4-1.9-6.2-5.7-6.2-9.5 0-16.6 14.2-18.5 24.2-4.3 5.3-12.9 11.9-20 11.9-5.7 0-7.6-5.2-8.1-7.1 18.1-6.2 40.4-30.9 40.4-53.2 0-4.8-1.9-15.2-16.1-15.2-21.4 0-39.5 31.8-39.5 56.5-7.6 0-10.4-8.1-10.4-14.3 0-6.1 2.4-12.3 2.4-14.2 0-1.9-1-4.3-3.9-4.3-7.1 0-11.4 9.5-11.4 20.4 0.5 15.2 10.5 24.7 23.8 25.7 1.9 9 10 17.6 20 17.6 6.2 0 13.8-1.9 19-6.7-0.5 3.3-1 6.2-1.4 9-21 11-36.2 18.6-49.9 30.9-11 10-17.2 23.3-17.2 33.8 0 14.2 9.1 27.5 27.6 27.5 21.9 0 38.5-17.6 46.6-41.8 3.8-11.4 5.3-28 6.3-43.2 21.8-12.4 32.2-19.5 43.6-27.6 1.4 2.4 2.9 4.3 4.7 5.7-9.9 5.2-33.7 20-33.7 54.6 0 24.7 16.6 52.3 49.4 52.3 27.1 0 45.6-22.3 45.6-43.7 0-19.5-10.9-37.5-31.8-37.5zm-115-45.6c0-15.7 15.5-45.5 24.9-42.4 11.2 3.7-9.2 33.8-24.9 42.4zm-15.7 112.1c-7.1 0.3-11.9-4.3-11.9-11.8 0-20.5 28.4-40 49.7-50.4-3.7 28.5-13.4 61.1-37.8 62.2zm105.5-119.3c0-19.4 13.2-38.4 20.4-34.8 8.2 4.1-6.1 22.5-20.4 34.8z"/>
</svg>