<svg version="1.2" xmlns="http://www.w3.org/2000/svg" viewBox="0 0 1497 586" width="1497" height="586">
	<title>download (2)-svg</title>
	<defs>
		<clipPath clipPathUnits="userSpaceOnUse" id="cp1">
			<path d="m0 0h1496.24v586h-1496.24z"/>
		</clipPath>
	</defs>
	<style>
		.s0 { fill: #0400f5 } 
	</style>
	<g id="Clip-Path" clip-path="url(#cp1)">
		<g id="Layer">
			<path id="Layer" class="s0" d="m0 306.5c0-170.6 124.4-306.5 302.1-306.5 120.6 0 237.2 66.4 256.5 179.8h-95.8c-27.1 0-37.9-10-51.8-23.9-16.2-15.4-27-25.4-48.6-33.9-17.1-7-35.6-10.8-58.8-10.8-108.2 0-169.2 81-169.2 182.2 0 113.5 70.3 185.3 158.4 185.3 72.7 0 125.2-42.5 136-99.6h-68.8c-33.9 0-54-14.7-54-51.7v-43.3h188.6c51 0 78 21.6 78 71.8v213.9h-95v-84.9c-46.4 71-117.5 101.1-204.1 101.1-136.7 0-273.5-108.9-273.5-279.5z"/>
			<path id="Layer" fill-rule="evenodd" class="s0" d="m1020.3 362.2c0 11.6-0.7 34.7-3 43.2h-292.9c7.8 61.8 55.7 91.9 106.7 91.9 21.6 0 44.8-6.2 62.6-17.8 16.1-10.8 28.5-19.3 44-19.3 15.4 0 27 5.4 40.2 14.6 6.9 4.7 13.1 9.3 22.3 17-34.7 60.2-106.5 94.2-181.5 94.2-118.2 0-209.4-81.1-209.4-208.5 0-127.4 95.8-216.9 211.7-216.9 115.9 0 199.3 79.5 199.3 201.5zm-115.9-34.1c0-50.2-37.1-83.3-85.8-83.3-48.7 0-84.2 32.4-92.7 84.1h178.5zm153.4 241.6v-396.8h38.6c33.2 0 50.2 7.8 61.8 27.1 4.7 7.7 7.8 14.6 17 14.6 6.2 0 10.1-3.9 24.7-16.2 27.1-24 59.5-37.9 105.9-37.9 89.6 0 146.8 51 146.8 159.1v250.1h-60.2c-38.7 0.8-54.9-19.3-54.9-54v-183c0-56.4-30.9-78.8-75.8-78.8-55.6 0-88.8 41.7-88.8 108.9v206.9zm401.8-409.1v6.1h-9v30.1h-6.9v-30.1h-8.8v-6.1zm5 36.2v-36.2h9.5l6.2 23.7 6.3-23.7h9.6v36.2h-5.7v-28.4h-0.2l-7.3 28.4h-5.2l-7.3-28.4h-0.1v28.4z"/>
		</g>
	</g>
</svg>