<svg version="1.2" xmlns="http://www.w3.org/2000/svg" viewBox="0 0 1534 894" width="1534" height="894">
	<title>General-Mills-logo-svg</title>
	<style>
		.s0 { fill: #19488d } 
		.s1 { fill: #e32227 } 
	</style>
	<g id="Layer">
		<path id="Layer" fill-rule="evenodd" class="s0" d="m286.7 86.2h24.9c24.9 2 49.5 8.8 70.4 23.2 24.9 16.3 42.6 42.6 50.1 71.5 9.1 35.8 5.4 74.4-7.8 108.8-4.3 12.3-8.6 24.3-12.9 36.4 20.1-5.2 39.8-14.6 54.1-30.1 15.5-15.7 23.5-37.2 28.7-58.4 36.6-0.3 73.2 0 109.6 0-18.9 50.1-32.9 103.3-31.8 157.4 0.3 62.5 23.2 121.7 29.2 183.3 4.6 41.7 3.2 84.7-8.6 125-10.9 37.8-30.9 73-58.4 101.4-27.4 28.6-61.8 50.4-98.7 64.7-47.2 18.3-98.5 25.5-149.1 24.3-60.4-1.1-121.4-14.9-173.2-46.6-44.6-27.2-81.6-68.5-100.2-117.7-18.6-49-17.1-105.6 5.2-153.2 17.1-37.2 48.3-67.2 85-85 45.5-21.7 97.3-27.5 146.8-22.3 6.9-18 13.8-36.1 20.9-54.1-41.8-18-79.8-47.5-101.6-88.2-33.5-60.9-26-143.4 22-194.6 24.1-27.2 59.3-43.3 95.4-45.8zm-27.5 127.6c-8.3 18.4-9.2 40.7-0.3 59 9.7 20.3 25.2 39.2 46.1 48.4 4.3-9.7 7.7-19.8 11.7-29.5 6-15.7 13.2-31.2 14.9-48.1 2-14 0-29.5-9.2-40.6-9.4-11.5-26-15.8-40-11.2-10.6 3.4-18.6 12.3-23.2 22zm114.2 213.9c-8.3 22.6-17.2 45.2-25.2 68.1 25.2 11.7 51.2 24.1 71 44.4-12.3 31.8-24.9 63.2-37.8 94.7-19.5-19.4-42.4-35.7-68.1-45.8-14.1 37-27.5 74.2-41.2 111.1q-53.7 0-107.4 0c16-42.9 31.8-85.6 47.8-128.5-35.2-1.2-70.4 16.9-89.6 46.6-8 12.6-12.8 27.5-10.8 42.7 2.2 31.5 18.6 61.2 42.9 81.3 33.2 27.5 77 38.9 119.3 42.1 35 2.3 71 0.2 104.2-10.9 30.1-9.7 58.1-27.8 77.6-53 25.8-32.3 35.5-75.3 32.6-115.9-2.8-31.2-10.3-61.8-16-92.5-6.6-34.6-12-69.8-12-105.3-28.1 10.6-57.3 17.7-87.3 20.9z"/>
		<path id="Layer" class="s1" d="m447.2 101.1c-25.2-43.8-9.7-80.8 22.1-95.4 30-13.4 65.5-0.5 79.2 28.7 14.1-29.5 49.6-42.1 79.3-28.7 32.1 14.6 47.3 51.6 22.1 95.4-17.8 30.9-45.8 54.3-101.1 96.4-55.2-42.1-83.3-65.5-101.6-96.4z"/>
		<path id="Layer" class="s0" d="m695.7 316.9v-0.6c0-44.1 34.3-80.1 81-80.1 27.7 0 44.6 7.4 60.6 21.2l-21.4 25.7c-12.1-10-22.6-15.7-40.4-15.7-24.6 0-44.3 21.7-44.3 48.1v0.5c0 28.4 19.4 49 46.9 49 12.3 0 23.5-3.2 32-9.2v-22h-34.3v-29.5h67.3v67.3c-16.1 13.4-37.8 24.6-66.2 24.6-48 0.3-81.2-33.5-81.2-79.3z"/>
		<path id="Layer" fill-rule="evenodd" class="s0" d="m866.5 335.2v-0.6c0-33.7 24.1-61.5 58.7-61.5 39.5 0 57.8 30.6 57.8 64.4 0 2.6-0.3 5.7-0.5 8.9h-82.5c3.5 15.2 14 23.2 28.9 23.2 11.2 0 19.5-3.5 28.6-12.1l19.2 16.9c-11.1 13.8-26.9 22.1-48.3 22.1-35.5 0-61.9-24.9-61.9-61.3zm83.6-9.7c-2-14.9-10.9-25.2-24.9-25.2-14 0-22.9 10-25.8 25.2z"/>
		<path id="Layer" class="s0" d="m1007.9 275.4h33.5v16.9c7.7-10 17.8-18.9 34.6-18.9 25.5 0 40.4 16.9 40.4 44.1v76.7h-33.5v-66.1c0-16.1-7.4-24.1-20.3-24.1-12.9 0-20.9 8.3-20.9 24.1v66.1h-33.5v-118.8z"/>
		<path id="Layer" fill-rule="evenodd" class="s0" d="m1139.9 335.2v-0.6c0-33.7 24-61.5 58.6-61.5 39.5 0 57.9 30.6 57.9 64.4 0 2.6-0.3 5.7-0.6 8.9h-82.4c3.4 15.2 14 23.2 28.9 23.2 11.1 0 19.4-3.5 28.6-12.1l19.2 16.9c-11.2 13.8-26.9 22.1-48.4 22.1-35.5 0-61.8-24.9-61.8-61.3zm83.5-9.7c-2-14.9-10.8-25.2-24.9-25.2-14 0-22.9 10-25.7 25.2z"/>
		<path id="Layer" class="s0" d="m1281 275.4h33.5v23.7c6.8-16.3 18-26.9 37.7-26v35.2h-1.7c-22.3 0-36 13.5-36 41.8v43.8h-33.5z"/>
		<path id="Layer" fill-rule="evenodd" class="s0" d="m1360.8 359.8v-0.5c0-25.8 19.8-37.8 47.8-37.8 12.1 0 20.6 2 28.9 4.8v-2c0-14-8.5-21.7-25.4-21.7-12.9 0-21.8 2.3-32.7 6.3l-8.3-25.8c13.2-5.7 25.8-9.4 46.1-9.4 18.3 0 31.5 4.8 40.1 13.1 8.9 8.9 12.9 21.8 12.9 37.8v68.7h-32.7v-12.9c-8.3 9.2-19.4 14.9-35.7 14.9-22.6 0.9-41-12-41-35.5zm77.3-7.7v-6c-5.7-2.6-13.2-4.3-21.5-4.3-14.3 0-23.1 5.7-23.1 16.3v0.6c0 9.2 7.4 14.3 18.3 14.3 15.7 0 26.3-8.6 26.3-20.9z"/>
		<path id="Layer" class="s0" d="m1500.2 232.4h33.5v161.5h-33.5z"/>
		<path id="Layer" class="s0" d="m702.5 452.6h37l40.6 65.3 40.6-65.3h36.7v154.6h-33.8v-101.1l-43.5 66.1h-0.9l-43.2-65.2v100.2h-33.5z"/>
		<path id="Layer" class="s0" d="m891.7 445.7h35.5v29.8h-35.5zm0.9 42.9h33.5v118.5h-33.5z"/>
		<path id="Layer" class="s0" d="m959.3 445.7h33.5v161.5h-33.5z"/>
		<path id="Layer" class="s0" d="m1026 445.7h33.4v161.5h-33.4z"/>
		<path id="Layer" class="s0" d="m1081.8 591.4l14.3-22c12.9 9.1 26.3 14 37.5 14 9.7 0 14-3.4 14-8.9v-0.5c0-7.5-11.4-9.8-24.6-13.8-16.6-4.8-35.5-12.6-35.5-35.5v-0.6c0-24 19.5-37.5 43.2-37.5 14.9 0 31.5 5.2 44.1 13.8l-12.9 23.2c-11.7-6.9-23.5-11.2-32-11.2-8.3 0-12.4 3.4-12.4 8.3v0.6c0 6.6 11.2 9.7 24.1 14 16.6 5.5 35.8 13.5 35.8 35.2v0.6c0 26.3-19.8 38.4-45.3 38.4-16 0-34.6-5.5-50.3-18.1z"/>
	</g>
</svg>