<svg version="1.2" xmlns="http://www.w3.org/2000/svg" viewBox="0 0 1549 345" width="1549" height="345">
	<title>generac-logo-2-svg</title>
	<style>
		.s0 { fill: #231f20 } 
		.s1 { fill: #f36c21 } 
	</style>
	<g id="#ffffffff">
		<path id="Layer" fill-rule="evenodd" class="s0" d="m98 0h20.5c13.5 0.9 27.3 0.2 40.6 3.1 10.6 2 21 7.7 26.5 17.3 8.1 13.8 8.5 30.5 8.6 46.1q-22.2 0-44.4 0c-0.5-5.8-0.5-12.9-5.4-16.9-4.4-3.2-10.1-3.8-15.4-4.1-20.3 0.1-40.6-0.5-60.9-0.2-6.9 0.2-13.8 3.7-16.9 10-4 8.3-4 17.7-4.2 26.7 0 10.4-0.1 20.7 0 31 0.4 8 1.1 16.5 5.7 23.4 4.3 6.3 12.1 9.2 19.4 9.8 14.6 1.2 29.3 0.1 43.9 0.8 5.9 0 11.9 0.3 17.8-0.7 5-0.8 10.1-3.2 12.9-7.7 3.5-5.9 3.5-12.9 3.2-19.5-19-0.2-38.1-0.1-57.2-0.1q0-17.6 0-35.3 50.9 0 101.8 0c0 16.5 0 32.9 0 49.3-0.5 11.4-1.5 23.1-5.6 33.8-3.1 8.4-9 15.9-17.1 19.8-11.1 5.6-23.8 4.7-35.9 4.9-16.6 0.2-33.2-0.2-49.9-0.3-16.4-0.6-33.3 0.8-49.3-4-8.4-2.4-16.3-7.2-21.6-14.2-9.3-12.3-11.8-28.1-13-43-1-19-1.1-38-0.5-57 0.5-13.1 1.4-26.4 5.3-39 2.9-9.3 8.2-18.2 16.6-23.6 10.9-7.2 24.5-8.8 37.4-9.3 12.4-0.4 24.8-0.4 37.1-1.1zm1281.5 0h41.4c12.1 0.6 24.3 0.9 36.3 2.9 6.4 1.1 12.8 3.7 17.7 8.2 6.8 5.9 10.4 14.7 12.5 23.4 2.4 10.9 3.1 22.3 3.1 33.5q-22 0-44 0c0.1-5.4-0.4-11.2-3.7-15.7-3.3-4-8.8-5.2-13.8-5.7-16.3-1.3-32.7-0.2-49.1-0.3-7.6 0.2-16 0.3-22.5 5-6.2 4.8-7.6 13.2-8.3 20.6-0.9 14.4-0.8 28.8-0.1 43.1 0.5 7.3 1.2 15.2 5.8 21.1 4.9 6 13 7.5 20.2 8.3 16 1.1 32 1.1 47.9 0.6 6.6 0.1 14.2 0.1 19.1-4.9 5.4-6.1 5.5-14.7 5.8-22.4q22.2 0 44.5 0c0 14.8 0.5 29.9-3.4 44.3-2.1 7.8-6.3 15.3-13.1 19.7-8.3 5.5-18.3 7-27.9 8.1-26.9 2.4-53.9 1.6-80.8 1-12.4-0.4-25.3-0.9-36.7-6.2-8.2-3.7-14.7-10.6-18.5-18.7-7.1-14.9-7.6-31.7-8.4-47.9-0.9-19.3-1.2-38.7 0.5-58 1.4-14 4-28.7 12.7-40.2 6.2-8.1 15.5-13.4 25.3-15.9 12.2-3.2 25-3.2 37.5-3.9zm-1151.5 1.8q82.8 0 165.5 0c0 14.3 0 28.6 0 42.9-40 0.1-80 0-120 0.1q0 15.8 0 31.7 56 0 112 0c0 12.4 0.1 24.9-0.1 37.3-37.3-0.1-74.6 0-111.9 0 0 11 0 22 0 32.9 40 0.1 80 0 120 0.1q0 21.3 0 42.7c-55.1 0-110.3-0.1-165.4 0-0.2-62.6-0.1-125.1-0.1-187.8zm198.3 0.1c23.9-0.1 47.9 0 71.9-0.1 29.7 46.8 59.3 93.6 89 140.3 0.1-46.8 0-93.5 0.1-140.2q21.2 0 42.5 0c-0.1 62.5 0 125.1-0.1 187.7q-35.9 0-71.9 0c-29.5-46.8-59.3-93.5-88.7-140.4-0.2 46.8 0 93.6-0.1 140.4-14.2 0-28.5 0-42.7 0-0.1-62.6 0-125.2 0-187.7zm242 0q82.6 0 165.2 0c0 14.3 0 28.6 0 42.9-40 0.1-80 0-120 0.1q0 15.8 0 31.7 56 0 112 0c0 12.4-0.1 24.8 0.1 37.2-37.4 0.2-74.7 0-112.1 0.1 0 10.9 0.1 21.9 0 32.9 40 0.1 80 0 120 0.1q0 21.3 0 42.7-82.6 0-165.2 0-0.1-93.9 0-187.8zm198.2 187.8c0-62.6 0-125.2 0-187.8q71.2 0 142.5 0.1c12.1 0.3 25.3 3 33.5 12.7 9.2 10.9 10.8 25.8 11.5 39.5 0 15.8 0.7 32.7-6.9 47.1-5 9.2-15.4 12.7-24.6 16.3 8.9 1.4 18.7 4.2 24 12.1 5.8 8.2 5.9 18.8 5.8 28.5q0 15.7 0 31.5c-15.4 0-30.7 0-46 0-0.1-9.1 0-18.3-0.1-27.5-0.3-5.4-0.7-11.5-4.3-15.9-3.3-3.6-8.4-4.5-12.9-4.6q-38.6 0-77.2 0c0 16-0.1 32 0 47.9-15.1 0.2-30.2 0.1-45.3 0.1zm45.3-142q0 24 0 48 36.1 0 72.3 0c6.1 0 12.9 0.4 18.4-3 5.5-3.9 5.5-11.4 5.8-17.5-0.3-7.4 1.1-15.6-3.3-22-3.9-4.7-10.4-5.2-16-5.5q-38.6 0-77.2 0zm241.3-45.7q30.5-0.1 61.1 0 40.5 93.8 80.9 187.7c-16.7 0-33.3 0-50 0.1-4.8-11.3-9.3-22.8-14.1-34.1q-47.7 0-95.4 0c-4.9 11.3-9.6 22.8-14.7 34-16.8-0.1-33.6 0.1-50.4 0q41.3-93.9 82.6-187.7zm-1.7 114.7q31.6 0 63.2 0-15.8-36.8-31.5-73.6c-10.8 24.4-21 49.1-31.7 73.6zm370.9-114c7.2-2.4 15.8-0.5 20.9 5.3 6.1 6.3 6.9 17 1.9 24.3-4.3 6.3-12.5 9.8-20 8.3-8.3-1.5-15.1-9-15.8-17.3-0.9-8.8 4.7-17.8 13-20.6zm0.1 3.1c-5.7 2.4-9.8 8.2-10.3 14.3-0.8 9.3 7.5 18.3 16.8 17.9 9.3 0.2 17.7-8.5 16.6-17.8-0.2-11.1-13.1-18.9-23.1-14.4zm-1.6 3.9c5 0.2 10.4-0.8 15.2 1.4 4.6 2.6 2.8 10.1-2.2 11 1.5 3.4 3.3 6.7 4.9 10.1q-2.5 0-5 0c-1.5-3.1-3-6.3-4.5-9.5q-2 0-3.9 0-0.1 4.7 0 9.5-2.3 0-4.5 0-0.1-11.2 0-22.5zm4.5 3q-0.1 3.5 0 7c2.4-0.1 5.2 0.5 7.5-0.7 2.1-1.3 1.6-5.1-0.8-5.8-2.2-0.7-4.5-0.5-6.7-0.5z"/>
	</g>
	<g id="#f36c21ff">
		<path id="Layer" class="s1" d="m5.1 275.4c495.9-19.7 991.8-39.4 1487.7-59-0.2 42.8 0.1 85.7-0.2 128.6h-3.7c-10.6-1.1-21.2-1-31.8-1.6q-433-17.4-866.1-34.7c-196.8-8-393.7-15.7-590.6-23.8-0.2-3 1-6.3-0.4-9.2v-0.4c1.7 0.1 3.4 0.1 5.1 0.1z"/>
	</g>
</svg>