<svg version="1.2" baseProfile="tiny-ps" xmlns="http://www.w3.org/2000/svg" viewBox="0 0 1623 1623" width="1623" height="1623"><title>General_Motors_(2021)-svg</title><style>tspan { white-space:pre }.shp0 { fill: #0671d8 } </style><g id="Layer"><path id="Layer" fill-rule="evenodd" class="shp0" d="M1413.15 0C1528.77 0 1622.5 93.73 1622.5 209.35L1622.5 1413.15C1622.5 1528.77 1528.77 1622.5 1413.15 1622.5L209.35 1622.5C93.73 1622.5 0 1528.77 0 1413.15L0 209.35C0 93.73 93.73 0 209.35 0L1413.15 0ZM104.68 209.35L104.68 1413.15C104.68 1470.96 151.54 1517.82 209.35 1517.82L1413.15 1517.82C1470.96 1517.82 1517.82 1470.96 1517.82 1413.15L1517.82 209.35C1517.82 151.54 1470.96 104.68 1413.15 104.68L209.35 104.68C151.54 104.68 104.68 151.54 104.68 209.35Z" /><path id="Layer" class="shp0" d="M732.74 1099.11L732.74 1203.79L1308.47 1203.79L1308.47 1099.11L732.74 1099.11Z" /><path id="Layer" class="shp0" d="M732.74 418.71L732.74 981.35L850.5 981.35L850.5 523.39L968.27 523.39L968.27 981.35L1086.03 981.35L1086.03 523.39L1164.54 523.39C1186.22 523.39 1203.79 540.96 1203.79 562.64L1203.79 981.35L1321.55 981.35L1321.55 549.56C1321.55 477.29 1262.97 418.71 1190.71 418.71L732.74 418.71Z" /><path id="Layer" fill-rule="evenodd" class="shp0" d="M654.23 418.71L654.23 1007.52C654.23 1115.92 554.64 1203.79 431.79 1203.79L366.37 1203.79L366.37 1099.11L431.79 1099.11C489.61 1099.11 536.47 1058.11 536.47 1007.52L536.47 981.35L431.79 981.35C359.53 981.35 300.95 922.77 300.95 850.5L300.95 549.56C300.95 477.29 359.53 418.71 431.79 418.71L654.23 418.71ZM418.71 562.64L418.71 837.42C418.71 859.1 436.28 876.67 457.96 876.67L536.47 876.67L536.47 523.39L457.96 523.39C436.28 523.39 418.71 540.96 418.71 562.64Z" /></g></svg>