<svg version="1.2" xmlns="http://www.w3.org/2000/svg" viewBox="0 0 1570 1281" width="1570" height="1281">
	<title>GPC_LOGO-svg</title>
	<style>
		.s0 { fill: #ffffff } 
		.s1 { fill: #ffca38;stroke: #ffca38;stroke-width: 1.1 } 
		.s2 { fill: #1c3a8e } 
	</style>
	<path id="Layer" class="s0" d="m183.5 287.9l-37.2 70.6h70.1l0.5 568.4h-70.6l40.8 70.9h1197l40-70.9h-70.6l0.5-568.4h70.1l-39.4-70.6z"/>
	<path id="Layer" fill-rule="evenodd" class="s1" d="m1353.7 358.8h70.2l118.9 202c35.9 60.5 29.3 108.8-3.5 166.5l-115.2 199.6h-70.6c0 0 0-568.4 0.2-568.1zm30.4 639l-122.8 213.1c-25.7 40.3-72.9 66-120.7 67.1h-710.5c-44.8 0-92.5-23.2-118.2-61.9l-124.8-218.6h1197zm0.6-709.9l-0.2-0.3h0.2zm-0.2-0.3h-1201.2l121.4-209.7c28.7-49.7 72.1-74.6 123.2-74.6h711.9c46.4 0 90.3 22.9 115.9 63.2zm-1167.5 639.3h-70.7l-115.1-199.6c-33.1-57.6-39.8-106.2-3.9-166.7l119-202h70.1c0.6 0 0.6 568.3 0.6 568.3z"/>
	<path id="Layer" fill-rule="evenodd" class="s2" d="m935.5 470.9c0-83.4-54.9-111.6-163.1-111.6h-109.1v571.4h104.1v-219.1h43.3c80.6 0 124.8-38.7 124.8-117.4zm-149.3-43.3c35.3 0 45.2 15.2 45.2 54.7v135.5c0 25.7-33.4 25.7-63.7 25.7v-215.9zm461.8 140.5v-123.7c0-74.5-71.8-96.3-136.6-96.3-63.8 0-135.6 21.8-135.6 96.3v401.4c0 74.5 71.8 96.3 135.6 96.3 64.8 0 136.6-21.8 136.6-96.3v-130.8h-104.1v123.6c0 29-10.7 35.3-31.4 35.3-21.6 0-32.3-6.3-32.3-35.3v-387c0-29 10.7-35.3 32.3-35.3 20.7 0 31.4 6.3 31.4 35.3v116.5zm-637.1 77.8h-145.2v68.2h41.1l0.3 124.5c0 29-10.8 35.3-31.5 35.3-21.5 0-32.3-6.3-32.3-35.3v-387c0-29 10.8-35.3 32.3-35.3 20.7 0 31.5 6.3 31.5 35.3v116.5h104.1v-123.7c0-74.5-71.8-96.3-136.7-96.3-63.7 0-135.5 21.8-135.5 96.3v401.4c0 74.5 71.8 96.3 135.5 96.3 64.9 0 136.7-21.8 136.7-96.3z"/>
	<path id="Layer" fill-rule="evenodd" class="s2" d="m1517.9 1278.8c-28.7 0-51.8-22.8-51.8-50.9 0-28.2 23.1-51 51.8-51 28.6 0 51.7 22.8 51.7 51 0 28.1-23.1 50.9-51.7 50.9zm41.5-50.9c0-23.5-18.6-42.4-41.5-42.4-23 0-41.6 18.9-41.6 42.4 0 23.4 18.6 42.3 41.6 42.3 22.9 0 41.5-18.9 41.5-42.3zm-61 29.1v-58.5h22.4c13.8 0 20.7 5.2 20.7 16.5 0 10.5-6.7 15.2-15.2 16l16.8 26h-9.9l-15.5-25.4h-10.2v25.4zm19.3-32.9c7.5 0 14.4-0.5 14.4-9.6 0-7.2-6.6-8.6-12.7-8.6h-12.2v18.2z"/>
</svg>