<svg version="1.2" xmlns="http://www.w3.org/2000/svg" viewBox="0 0 1537 422" width="1537" height="422">
	<title>Gilead_Sciences_Logo-svg</title>
	<style>
		.s0 { fill: #646569 } 
		.s1 { fill: #c6093b } 
	</style>
	<g id="layer1">
		<path id="path3050" fill-rule="evenodd" class="s0" d="m608.7 112.4l3.4 1.6-9.3 29.1-4.7-1.9c-14.2-6.3-28.8-9.3-47.7-9.3-50.4 0-82.8 28.7-82.8 73.1 0 44.8 31.3 73.7 80 73.7 19.8 0 30.7-2.8 35.6-4.6v-74h34.8v95.4l-3.1 0.9c-12.6 4.6-38.2 12.4-69.5 12.4-36 0-63.8-9.7-84.6-29.1-18.9-17.6-29.4-44.3-29.4-73.4 0-50.2 37.5-104.4 119.9-104.4 25.8 0 47.1 5.7 57.4 10.5zm805.4-10.2c41.5 0 72.6 9.6 92.7 28.5 19.4 17.8 29.4 41.4 29.4 70 0 29.8-11 56.9-31 76.5-21.3 20.3-56.8 31.6-99.8 31.6-20.9 0-37.4-1-52.6-2.5l-4.1-0.3v-119.6h34.7v91.7c7.4 0.8 17.6 0.9 26.7 0.9 30.1 0.2 54.3-7.7 69.7-23.2 13.2-13.2 20.2-31.9 20.2-54.2 0.1-20-5.7-36.3-17.4-48-14.4-14.5-37.2-22-67.6-22l-66.3-0.3v-29.1c0 0 65.4 0 65.4 0zm-735.4 1.5h35v202.9h-35zm397 0v30.4h-89v52h84v30h-84v60.4h93.6v30.1h-128.6v-202.9zm154.7 0l77.5 202.9h-36l-23.6-62h-71.2l-22.3 62h-35.4l76.6-202.9c0 0 34.4 0 34.4 0zm-415 0.3v171.9h92.4v30.7h-127.4v-202.6zm370.6 111.8h53.3c-5.6-14.8-24.9-66-26.9-72.1-1.9 6.1-26.4 72.1-26.4 72.1z"/>
		<path id="path3072" class="s1" d="m315.8 0.9c0.6 0 1.2 0.5 1.2 1.3 0 0.5-0.7 0.8-1.2 0.9v0.3c-83.6 29-166.4 139.7-199.9 267-5 18.9-8.8 38.4-11.5 57.9 0 0-13.6 1.5 1.3-63.8-85.8-57.8-52.6-238.6 209.8-263.6 0 0 0.3 0 0.3 0zm-12.7 42.8v201.3c0 112.2-151.3 176.2-151.3 176.2 0 0-150.9-63-150.9-176.2v-201.3h125.8c0.6 0 1 0.5 1 1.2 0 0.6-0.4 0.9-1 0.9h-0.3l-113.1 10.6v188.6c0 100.7 138.5 163.5 138.5 163.5v-129.5c51.9 3.5 85.5-32.6 104.5-85.8 16.5-46.6 22.6-107.4 44.3-149.9 0.2-0.4 0.8-0.9 1.2-0.9 0.6 0 1.3 0.7 1.3 1.3z"/>
	</g>
</svg>