<svg version="1.2" xmlns="http://www.w3.org/2000/svg" viewBox="0 0 1562 228" width="1562" height="228">
	<title>logoprimary-svg</title>
	<style>
		.s0 { fill: #003c71 } 
	</style>
	<path id="Layer" fill-rule="evenodd" class="s0" d="m134 0h31.3v180.8h-31.3zm-32 57.2c-9.1 0-16.5-7.3-16.5-16.2 0-9 7.4-16.2 16.5-16.2 9.1 0 16.4 7.2 16.4 16.2 0 8.9-7.3 16.2-16.4 16.2zm-96.2 94.1c0-9.2 6.8-18.1 19.6-24.5-12-7.2-18.3-18.9-18.3-34 0-26.5 20.1-45.1 50.1-45.1 12.2 0 24.5 3.9 33.9 11.8 6.2 5.2 11.1 12.1 13.7 19.7 1.9 5.1 2.4 10.7 2.4 16.1 0 25-18.6 41.4-49.3 41.4q-8.3 0-14.3-1.5c-5.8 2.2-8.6 5.2-8.6 8.7 0 7.4 8.8 7.9 25.3 9q4.4 0.3 9.4 0.6c34 2.5 48.3 9 48.3 33.8 0 25.5-21.3 40.1-61.9 40.1-36.9 0-55.8-11.4-55.8-32.5 0-12.1 7.3-18.8 22.9-23.8-11.8-5.7-17.4-10.9-17.4-19.8zm24.2 39.9c0 8.4 9.5 14.4 25.6 14.4 21.9 0 34.3-6.9 34.3-16.1 0-7.2-5.8-9.9-17.6-10.4l-29-1.5c-9 4.2-13.3 8.2-13.3 13.6zm49.3-98.9c0-11.6-9.6-21.1-21.4-21.1-11.8 0-21.4 9.5-21.4 21.1 0 11.7 9.6 21.1 21.4 21.1 11.8 0 21.4-9.4 21.4-21.1zm159.9-44.4c35.4 0 56.6 24.9 56.6 67.7 0 42.7-21.5 67.6-56.6 67.6-35.1 0-56.5-25.1-56.5-67.6 0-42.8 21.2-67.7 56.5-67.7zm0 108.9c16.9 0 25-13.6 25-41.2 0-27.6-8.1-41-25-41-16.6 0-25 13.4-25 41 0 27.6 8.4 41.2 25 41.2zm104.8-156.8v62.9c9.1-10.5 18.6-15 32-15 28.5 0 50.5 25.7 50.5 67.7 0 40.5-21.5 67.6-51.5 67.6-14.1 0-25-5-35.8-16.4l-3.3 13.9h-24.2c1-13.9 1.5-24.1 1.5-30.3v-150.4zm23.4 73.3c-8.5 0-15.6 3.7-23.7 10.9v62c7.8 7.4 14.9 11.1 23.5 11.1 17.4 0 28-14.6 28-41.7 0-27.4-10.8-42.3-27.8-42.3zm143.1 96c-12.1 8.7-25.2 12.9-39.3 12.9-22.2 0-35.4-13.2-35.4-34.8 0-29.1 24.5-44.5 75-50.7v-10.2c0-9.5-6.6-14.9-18.7-14.9-12.1 0-21.9 5.2-29 14.9l-21.2-13.2q16.7-25.4 50.7-25.4c31.1 0 48.5 14.7 48.5 38.6v76.6c0 4.4 0.7 10.4 2 17.6h-29.8zm-43.9-24.4c0 8.8 5.1 14 14.1 14 9.9 0 19.5-4.5 29.1-13.7v-27.9c-29.3 4-43.2 12.2-43.2 27.6zm101-144.9h31.3v180.7h-31.3zm60.9 50.8h11.6l4.1 16.9h1.2c12.4-13 25.5-19.4 39.7-19.4 28.7 0 48.9 24.6 48.9 67.4 0 42.7-20.2 67.3-48.9 67.3-14.2 0-27.3-6.2-39.7-19.1h-1.2v64.1h-15.7zm15.7 95.3c13.1 16.4 25 24.6 39.6 24.6 21.7 0 34.6-19.2 34.6-54.7 0-35.6-12.9-54.7-34.6-54.7-14.6 0-26.5 7.9-39.6 24.4zm99.9 2.4c0-30 25.5-43.5 80.8-53.2v-12.6c0-12.7-10.9-21.4-29-21.4-14.4 0-25 6.9-32.9 20.9l-12.1-7c10.4-17.9 24.3-26.6 47-26.6 25 0 42.4 14.7 42.4 34.1v80.8c0 3.2 0.7 9.2 2.3 17.4h-15.4c-1.3-6-2.3-11.7-2.6-17.2-14.4 13.2-28.7 19.6-44.9 19.6-21.7 0-35.6-14.6-35.6-34.8zm37.6 22.4c14.4 0 27.5-7.7 42.9-23.1v-40c-44.4 9.7-64.8 17.9-64.8 40 0 14.4 8.3 23.1 21.9 23.1zm72.4-120.1h15.7l38.9 110.7 38.6-110.7h14.9l-49.7 140.3c-9.1 25.8-19.7 36.5-42.5 36.5-4 0-8.5-0.2-13.6-1v-12.4c4.1 0.7 7.8 1 11.1 1 19 0 27.5-10.5 32.6-35.1zm138 20.2h1.1c13.8-15 28.5-22.4 42.4-22.4 14.8 0 25.4 7.4 31.5 22.4h1.8c14.4-15 28.2-22.4 42.4-22.4q33.3 0 33.3 41.7v90.6h-14.9v-85.1c0-22.9-4-33.8-22.7-33.8-12.1 0-25.3 8-38.1 24.1v94.8h-15.2v-85.1c0-22.9-4-33.8-22.7-33.8-12.1 0-25 8-38.1 24.1v94.8h-15.2v-130.1h14.4zm276.2 78.6c-11.7 23.4-26.5 33.6-49.8 33.6-32.8 0-53.7-25.7-53.7-66.4 0-43 21.7-68.4 53.2-68.4 31.8 0 49.5 21.6 49.5 62.9v4.2h-87.1c0.3 36.1 14.2 55.2 39.1 55.2 17 0 27.8-8.2 37.1-27.3zm-49.9-88.5c-20.7 0-35.4 15.4-37.9 43.2h72.5c-0.8-28.1-13.9-43.2-34.6-43.2zm85.3 10.2c15.6-15.2 31-22.7 45.7-22.7q35.5 0 35.5 41.8v90.5h-15.4v-85c0-22.9-4.5-33.9-24.7-33.9-13.1 0-27 8-41.1 24.2v94.7h-15.7v-130h15.7zm145.6 99.9c3.5 0 8.1-1 13.9-2.5v12.5c-5.8 1.5-11.9 2.4-17.7 2.4-18.2 0-26-8.9-26-27.8v-92.2h-19.7v-12.7h19.7v-38.6h15.4v38.6h27.5v12.7h-27.5v92.9c0 10 4.6 14.7 14.4 14.7zm66.5-49.8q-1.9-0.7-3.9-1.4c-26.8-9.7-40.7-17.2-40.7-37.1 0-19.8 16.5-34.5 42.7-34.5 17.2 0 32.3 8.2 43.9 23.9l-11.1 7.9c-10.1-13.2-20.9-19.4-35.6-19.4-14.4 0-23.7 8.7-23.7 21.4 0 12.6 10.5 16.4 28.8 23.1q2.9 1.1 6 2.3c26.3 9.7 39.7 17.6 39.7 38.3 0 21.6-17.7 37.2-45 37.2-20.7 0-36.6-8.2-49.7-25.6l11.6-9.2c11.4 15 24.5 22.7 39.9 22.7 16.4 0 27.3-10.2 27.3-23.9 0-14.7-10.9-18.7-30.2-25.7z"/>
</svg>