<svg version="1.2" xmlns="http://www.w3.org/2000/svg" viewBox="0 0 1567 273" width="1567" height="273">
	<title>globe-life-logo-svg</title>
	<style>
		.s0 { fill: #00558c } 
		.s1 { fill: #319b42 } 
		.s2 { fill: #ffffff } 
	</style>
	<g id="Layer">
		<g id="Layer">
			<path id="Layer" class="s0" d="m446.2 237.5c-61.7 0-106.2-41-106.2-102 0-62 45.9-101.7 104.8-101.7 30.3 0 58.4 10.2 74.5 25.7l-29.4 33.7c-9-10.4-24.6-18.1-43.5-18.1-32.7 0-56.7 25.7-56.7 60.4 0 35.6 21 61 59 61 10.9 0 21-1.6 29.2-5.2v-35.3h-36.9v-37.7h79.7v102.5c-18.8 9.9-44.8 16.7-74.5 16.7z"/>
			<path id="Layer" class="s0" d="m537.7 33.8h45.4v198.8h-45.4z"/>
			<path id="Layer" fill-rule="evenodd" class="s0" d="m747.2 164c0 44.5-34.4 72.9-75.6 72.9-40.9 0-75.3-28.4-75.3-72.9 0-44.6 34.3-71.9 75.3-71.9 41.2 0 75.6 27.3 75.6 71.9zm-43.1 0c0-17.5-11.5-34.7-32.5-34.7-21 0-31.9 17.2-31.9 34.7 0 17.4 11.1 35.2 32.2 35.2 21 0 32.2-17.8 32.2-35.2z"/>
			<path id="Layer" fill-rule="evenodd" class="s0" d="m910.3 163.9c0 38-23.8 72.5-64.7 72.5-18 0-35.8-7.9-44.5-21.6h-0.6v17.8h-41.2v-198.8h44.8v77.1h0.5c7.7-9 21.6-18.3 41.5-18.3 39.6 0 64.2 33.3 64.2 71.3zm-43.1 0.1c0-17.5-11-34.7-32.3-34.7-20.2 0-32.7 17.7-32.7 34.9 0 17.8 12.5 35 32.7 35 21.3 0 32.2-17.5 32.3-35.2z"/>
			<path id="Layer" fill-rule="evenodd" class="s0" d="m1060.9 176.8h-98.5c1.3 15.1 16.4 25.7 32.5 25.7 14.2 0 24-6 30-14.2l31.1 19.7c-12.8 18.6-34.1 28.9-61.7 28.9-40.9 0-74.7-25.9-74.7-71.9 0-44.5 32.2-72.9 73.4-72.9 40.1 0 68.2 27.6 68.2 74 0 3.6 0 7.4-0.3 10.7zm-40.9-27.9c0-14.2-9-25.9-26.8-25.9-17.2 0-29.7 12-30.8 25.9z"/>
			<path id="Layer" class="s0" d="m1132.5 232.6v-198.8h46.9v158.1h74.8v40.7z"/>
			<g id="Layer">
				<path id="Layer" class="s0" d="m1289.7 77.6c-14.2 0-25.6-11-25.6-24.6 0-13.6 11.4-24.6 25.6-24.6 14.2 0 25.7 11 25.7 24.6 0 13.6-11.5 24.6-25.7 24.6z"/>
				<path id="Layer" class="s0" d="m1267.3 96.4h44.8v136.2h-44.8z"/>
			</g>
			<path id="Layer" class="s0" d="m1426.5 59c-3.3-1.1-7.9-1.9-12.3-1.9-16.4 0-19.9 13.1-19.9 25.7v13.6h30.3v33.7h-30.3v102.5h-44.8v-102.5h-24.8v-33.7h24.8v-13.1c0-33.3 13.1-62.6 58.4-62.6 7.7 0 15.6 0.8 21.6 2.7z"/>
			<path id="Layer" fill-rule="evenodd" class="s0" d="m1566.5 176.8h-98.5c1.3 15.1 16.3 25.7 32.5 25.7 14.2 0 24-6 30-14.2l31.1 19.7c-12.8 18.6-34.1 28.9-61.7 28.9-40.9 0-74.8-25.9-74.8-71.9 0-44.5 32.2-72.9 73.5-72.9 40.1 0 68.2 27.6 68.2 74 0 3.6 0 7.4-0.3 10.7zm-40.9-27.9c0-14.2-9-25.9-26.8-25.9-17.2 0-29.7 12-30.8 25.9z"/>
		</g>
		<g id="Layer">
			<path id="Layer" class="s1" d="m270.3 112.6c-4.6-26.4-16.8-50.2-34.3-69 0 0.4 0 0.7-0.1 1-1.2 13.8 1.7 27 8.5 39.3 6.4 11.6 15.8 21.3 25.9 28.7zm-66.8 113.4c10.7-10.8 18.3-20.7 22.6-29.6 4.3-8.8 5.2-16 3-22.1-1.2-2.9-3.9-6.5-7.9-10-4.5-4-10.4-7.9-17.1-11.2-7-3.5-14.7-6.4-22.3-8.4-7.9-2.1-15.5-3.1-22.6-3.1-7.3 0-13.7 1.2-18.8 3.5q-3.4 1.5-7.2 1.5c-4.4 0-8.6-1.7-11.9-4.6l-16.4-14.9c-2.3-2.1-3.9-4.8-4.6-7.8-0.7-2.8-0.6-5.7 0.2-8.4 0.8-2.7 2.4-5.2 4.5-7.1 2.3-2 5.1-3.4 8.2-3.8q0.8-0.1 1.7-0.3c8.3-1.1 16.9-2.3 25.5-9 10.9-8.4 19.8-24.4 26.6-47.6 3.3-11.4 5.4-25.2 6.9-37.8-12-3.4-24.6-5.3-37.7-5.3-37.1 0-70.6 14.8-95.2 38.9 3.7 1.6 7.1 3.8 9.9 6.7 3.8 3.9 7.8 10.9 5.1 21.8-1.3 5.2-3.7 10.2-6.3 15.5-5.6 11.4-9 19.4-5.6 25.8 2.2 3.8 8.7 12.2 29 27.1 13.2 9.6 26.5 17.8 33.3 21.8 3.4 2.1 6.1 5.1 7.6 8.8 1.5 3.8 1.9 7.8 0.9 11.7-1.4 5.8-2.5 11.9-1.1 16.7 0.5 1.9 2.2 7.6 14.8 12.1 4.6 1.6 8.2 5.1 10 9.6 1.8 4.5 1.5 9.5-0.7 13.8-4 7.7-12.3 23.6-21.7 41.1q9.8 1.5 20 1.5 5.4 0 10.6-0.4c16.2-11.6 38.9-28.4 56.7-46.5z"/>
			<path id="Layer" class="s0" d="m124.4 219c-28.5-10.2-25.4-30.1-22-44 0.7-2.4-0.4-5-2.6-6.3-12.9-7.7-56.1-34.5-66.9-53.8-12.8-23.3 19.9-49 8.8-60.2-2.8-2.9-6.4-4.6-10.4-5.2-19.6 23.5-31.3 53.8-31.3 86.9 0 63.8 43.8 117.5 103 132.3 10.3-19 19.5-36.7 23.5-44.4 1-2 0-4.5-2.1-5.3zm147.8-89.7c-16.7-9.9-30.6-23.8-39.1-39.1-8.1-14.6-11.4-30.3-10-46.7q0.5-5.3 1.6-10.8c-11.3-9.7-24.2-17.6-38.3-23.2-1.6 12.4-3.7 25.7-7 37.2-17.9 61.2-46.5 63.5-64.4 66-2.3 0.4-3.2 3.2-1.4 4.8l16.3 14.9c0.9 0.8 2.1 1.2 3.3 1.2q1 0 1.9-0.4c7.1-3.1 15.4-4.5 24.1-4.5 33.5 0 74.2 20.5 81.9 41.1 11.8 31.3-30 70.2-65 97.1 55.8-17.1 96.3-69.1 96.3-130.5 0-2.4 0-4.8-0.2-7.1z"/>
			<path id="Layer" fill-rule="evenodd" class="s2" d="m244.4 83.9c-6.8-12.3-9.7-25.5-8.5-39.3 0.1-0.3 0.1-0.7 0.1-1q-5.3-5.8-11.3-10.9-1.1 5.5-1.6 10.8c-1.4 16.4 1.9 32.1 10 46.6 8.5 15.4 22.4 29.2 39.1 39.1q-0.4-8.4-1.9-16.6c-10.1-7.4-19.5-17.1-25.9-28.7zm-106.5 146.4c2.2-4.3 2.5-9.3 0.8-13.8-1.8-4.6-5.4-8-10-9.7-12.7-4.5-14.3-10.2-14.9-12-1.4-4.8-0.2-10.9 1.2-16.7 0.9-3.9 0.6-8-0.9-11.7-1.6-3.7-4.2-6.7-7.7-8.8-6.7-4-20.1-12.2-33.2-21.9-20.3-14.8-26.9-23.3-29-27-3.5-6.5-0.1-14.4 5.5-25.8 2.6-5.3 5.1-10.4 6.4-15.5 2.7-11-1.3-17.9-5.1-21.8-2.9-2.9-6.2-5.2-10-6.7-3.4 3.3-6.6 6.8-9.7 10.5 4.1 0.7 7.6 2.3 10.5 5.2 11 11.2-21.6 37-8.9 60.3 10.8 19.3 54 46.1 67 53.8 2.1 1.3 3.2 3.8 2.6 6.2-3.4 14-6.5 33.9 21.9 44 2.2 0.8 3.2 3.3 2.1 5.4-4 7.7-13.2 25.3-23.5 44.4q6.5 1.6 13.3 2.6c9.4-17.4 17.6-33.3 21.6-41zm103.2-60.5c-7.7-20.6-48.4-41.1-81.9-41.1-8.7 0-17 1.4-24.1 4.5q-0.9 0.4-1.9 0.4c-1.2 0-2.4-0.4-3.3-1.2l-16.3-14.9c-1.8-1.6-0.9-4.5 1.4-4.8 17.9-2.5 46.5-4.8 64.4-66 3.3-11.5 5.4-24.8 7-37.2q-6.1-2.4-12.5-4.2c-1.5 12.6-3.6 26.4-6.9 37.8-6.7 23.1-15.7 39.2-26.6 47.6-8.6 6.6-17.2 7.8-25.5 9q-0.8 0.1-1.7 0.3c-3.1 0.4-5.9 1.7-8.2 3.8-2.1 1.9-3.7 4.3-4.5 7.1-0.8 2.7-0.9 5.6-0.2 8.4 0.7 3 2.3 5.7 4.6 7.7l16.4 14.9c3.3 3 7.5 4.6 11.9 4.6 2.5 0 4.9-0.5 7.2-1.5 5.1-2.2 11.5-3.4 18.8-3.4 7.1 0 14.7 1 22.6 3.1 7.6 2 15.3 4.8 22.3 8.3 6.7 3.4 12.6 7.3 17.1 11.3 4 3.5 6.8 7 7.9 10 2.2 6.1 1.3 13.3-3 22.1-4.3 8.8-11.9 18.8-22.6 29.6-17.8 18.1-40.5 34.9-56.6 46.4 10-0.8 19.8-2.7 29.2-5.6 35-26.8 76.8-65.7 65-97z"/>
		</g>
	</g>
</svg>