<svg version="1.2" xmlns="http://www.w3.org/2000/svg" viewBox="0 0 1594 714" width="1594" height="714">
	<title>2019_HCA_logo-svg</title>
	<style>
		.s0 { fill: #092240 } 
		.s1 { fill: #e75925 } 
	</style>
	<g id="layer4">
		<path id="path970" class="s0" d="m11.2 7h65.4c3 0.4 5.9 1 6.3 6.2v147.2c-0.2 3.4 1.1 5.5 5.3 5.3h167.9c3.5 0.2 6.5-0.3 6.1-6.2v-145.4c-0.2-4.4 1.7-7.2 7.3-7.2h63.4c4.9-0.2 8.4 1.5 8.1 8.1v378.2c0.1 5.8-2.9 7.6-7.5 7.4h-62.8c-4.5-0.1-7.8-1.9-7.7-7.8v-148c0.1-5.2-2.7-6.5-6.5-6.4h-167.3c-3.1 0-6.3-0.1-6 6v149.1c0.3 4-0.6 7.3-7 7h-65.1c-4.2 0.3-6.5-1.7-6.5-6.4v-379.4c-0.1-5.1 2.3-7.4 6.6-7.7z"/>
		<path id="path974" class="s0" d="m689.5 143.5c-44.8-78-125.8-82.8-178.4-47.8-75.8 56.4-62.6 173.9 0 216.6 57.8 35.4 134.2 28.6 177.2-47.3q3-6.9 10-3.1l56.5 26.6c3.3 2.2 3.9 6 1.7 10.1-69.6 138.6-244.3 139.8-328.7 42.3-55.5-69.2-72.5-178.5 0-274.1 71.7-90.4 265.1-97.8 328.2 42.5 1.6 3.1 1.5 5.8-2.4 7.8l-54.1 29.5c-4.4 2.1-7.9 1.3-10-3.1z"/>
		<path id="path978" class="s0" d="m762.2 388.3l146.4-374.8c1.9-4.7 4.8-6.5 8.3-6.6h83.5c3.8-0.4 6.8 1.5 8.6 6.6l146.4 376.4c1.6 5.9 1.4 10-5 10.8h-68.8c-3.3 0-6-1.6-7.7-5.2l-112.7-301.5c-1.3-3.9-6.3-3.7-7.3 0l-51.6 137.2c-1.1 3.9 0.3 6 5.1 5.5h83.8c3 0.1 5.2 1.1 4.8 5.2-4.8 44.4-26.6 66-64.5 66.2h-51.6c-3.8 0.2-6.8 1.8-8.3 5.9l-29.3 79.3c-1.5 4.1-3.6 7.2-7.3 7.1h-68c-6.6-0.8-7.6-5.2-4.8-12.1z"/>
		<path id="path982" class="s1" d="m1370 6v109.1c-1.4 46.7-36 67.1-67.4 67.4h-109.1c-3-0.4-6.1-0.5-5.3-7.4 5-34 27-44.5 55.7-45.8h44.7c15.7-0.2 30.2-13.4 29.5-29.5v-51.6c0.8-26.7 22-44.5 45-47.9 4.4-0.8 6.5 1.5 6.9 5.7z"/>
		<path id="path982-7" class="s1" d="m1193.9 219h109c46.6 1.4 67.1 36 67.3 67.4v109.2c-0.3 2.9-0.4 6-7.3 5.3-34-5-44.5-27.1-45.9-55.8v-44.7c-0.1-15.7-13.3-30.2-29.4-29.5h-51.6c-26.7-0.8-44.4-22-47.9-45-0.7-4.5 1.5-6.5 5.8-6.9z"/>
		<path id="path982-7-9" class="s1" d="m1405.9 395.7v-109.1c1.3-46.6 36-67 67.3-67.3h109.1c3 0.3 6.1 0.5 5.3 7.3-5 34.1-27 44.6-55.7 45.9h-44.7c-15.7 0.2-30.2 13.3-29.4 29.4v51.6c-0.9 26.8-22.1 44.5-45.1 48-4.4 0.7-6.4-1.5-6.8-5.8z"/>
		<path id="path982-7-9-8" class="s1" d="m1580.8 182.2h-109c-46.6-1.4-67.1-36-67.3-67.4v-109.2c0.3-3 0.4-6.1 7.3-5.3 34 5 44.5 27.1 45.9 55.8v44.7c0.1 15.7 13.3 30.2 29.4 29.4h51.6c26.7 0.9 44.4 22.1 47.9 45.1 0.7 4.5-1.5 6.5-5.8 6.9z"/>
		<g id="g932">
			<g id="text848">
				<path id="path883" class="s0" d="m253.5 707.7h-101.5v-12.3q4.1-0.3 11.9-1 7.9-0.7 10.8-2.1 5.2-2.1 7.6-6.2 2.4-4.3 2.4-11v-87.1h-114.9v85.2q0 6 1.9 10.1 2 4.2 7.9 7.3 2.9 1.5 10.3 3.1 7.6 1.5 11.9 1.7v12.3h-101.5v-12.3q4.2-0.3 11.9-1 8-0.7 10.9-2.1 5.2-2.1 7.6-6.2 2.4-4.3 2.4-11v-176.6q0-5.5-2.3-10-2.2-4.6-7.7-7.2-4.7-2.3-11.4-4-6.5-1.7-11.4-2v-12.3h101.5v12.3q-4.8 0.1-11.9 1.5-6.9 1.4-10.3 2.6-5.9 2.1-7.9 6.9-1.9 4.8-1.9 10.5v75.9h114.9v-74.2q0-5.5-2.2-10-2.3-4.6-7.8-7.2-4.6-2.3-11.4-4-6.5-1.7-11.3-2v-12.3h101.5v12.3q-4.9 0.1-11.9 1.5-6.9 1.4-10.4 2.6-5.8 2.1-7.9 6.9-1.9 4.8-1.9 10.5v176.4q0 6 1.9 10.1 2.1 4.2 7.9 7.3 3 1.5 10.4 3.1 7.6 1.5 11.9 1.7z"/>
			</g>
			<g id="text854">
				<path id="path886" fill-rule="evenodd" class="s0" d="m398.1 668.7q-10.7 20.4-28.6 32.5-18 12-41.3 12-20.5 0-36.1-7.2-15.3-7.3-25.4-19.7-10-12.4-15-29-4.8-16.6-4.8-35.1 0-16.6 5.2-32.5 5.3-16 15.5-28.8 9.8-12.3 24.4-19.7 14.6-7.6 32.8-7.6 18.6 0 31.9 5.8 13.3 5.9 21.6 16.1 7.9 9.7 11.7 22.8 4 13.1 4 28.5v11.4h-112.8q0 16.8 3.2 30.4 3.2 13.7 10.1 24 6.8 10.1 17.7 15.9 10.8 5.7 25.9 5.7 15.3 0 26.4-7 11.2-7.3 21.6-26zm-38.2-64.9q0-9.7-1.7-20.7-1.6-11.1-5.2-18.5-4-8-10.9-13-6.9-5-17.8-5-18.1 0-30.2 15.2-11.9 15-12.9 42z"/>
			</g>
			<g id="text860">
				<path id="path889" fill-rule="evenodd" class="s0" d="m570.1 704.4q-8.1 2.9-14.3 4.6-6 1.9-13.8 1.9-13.4 0-21.5-6.2-7.9-6.3-10.1-18.4h-1.1q-11.2 12.4-24.1 19-12.7 6.5-30.8 6.5-19.1 0-31.5-11.7-12.2-11.7-12.2-30.7 0-9.8 2.7-17.6 2.8-7.7 8.3-13.9 4.3-5.2 11.3-9.1 7.1-4.2 13.3-6.6 7.7-2.9 31.3-10.9 23.8-7.9 32.1-12.4v-17q0-2.3-1.1-8.6-0.8-6.4-3.9-12.1-3.5-6.4-9.8-11-6.2-4.8-17.8-4.8-7.9 0-14.8 2.7-6.7 2.6-9.5 5.5 0 3.5 1.6 10.2 1.7 6.7 1.7 12.4 0 6-5.5 11-5.3 5-15 5-8.6 0-12.7-6-4-6.2-4-13.8 0-7.9 5.5-15.2 5.7-7.2 14.7-12.9 7.7-4.8 18.7-8.1 11.1-3.4 21.6-3.4 14.4 0 25.1 2 10.9 1.9 19.6 8.5 8.8 6.4 13.3 17.4 4.6 10.8 4.6 28.1 0 24.6-0.5 43.7-0.5 19-0.5 41.6 0 6.7 2.3 10.7 2.4 3.9 7.2 6.7 2.6 1.5 8.1 1.7 5.7 0.2 11.5 0.2zm-60.1-91q-14.6 4.3-25.6 8.4-11.1 4.2-20.5 10.4-8.6 5.8-13.6 13.9-5 7.9-5 19 0 14.3 7.4 21 7.5 6.7 19.1 6.7 12.2 0 21.5-5.8 9.3-6.1 15.7-14.2z"/>
			</g>
			<path id="text866" class="s0" d="m849.7 484.6v77.7h0.7q5.7-5.7 10.4-10 4.6-4.5 12.2-9.3 6.6-4.2 15.4-6.9 8.9-2.8 20-2.8 22.8 0 35 14.5 12.3 14.3 12.3 41.5v88.5q0 6.1 2.1 9.9 2.2 3.6 7.2 5.7 4 1.5 7.1 2.4 3.3 0.7 8.4 1v11.4h-83.5v-11.4q4-0.3 8.8-0.7 4.8-0.3 7.9-1.3 4.9-1.6 7.1-5.4 2.4-4 2.4-10.2v-87.5q0-18.2-8.6-28-8.4-9.9-20.7-9.9-9 0-16.7 3-7.6 2.7-13.7 6.9-5.8 4.3-9 8.6-3.1 4.3-4.8 7.3v97.9q0 5.9 2.3 9.7 2.4 3.8 7.2 5.8 3.8 1.8 7.8 2.6 4.1 0.9 8.9 1.2v11.4h-83.5v-11.4q4-0.3 8.3-0.7 4.3-0.5 7.2-1.3 4.9-1.6 7.3-5.4 2.4-4 2.4-10.2v-194.6zm-123.4 1v53.1h48.9v16.5h-48.5v95.2q0 10.7 0.7 17.9 0.8 7.1 3.7 12.5 2.8 5 8.3 7.6 5.6 2.6 14.9 2.6 4.3 0 12.6-0.7 8.4-0.9 11.9-2.1v12.6q-11.2 4.7-21.2 7.8-10.1 3.3-24.5 3.3-21.5 0-30.3-10.8-8.6-10.8-8.6-30.5v-115.4h-30.7v-16.5h31.4v-53.1z"/>
			<g id="text872">
				<path id="path892" class="s0" d="m1062.4 713.8q-37.6 0-58.9-25-21.2-24.9-21.2-66.9 0-18.3 5.6-34.1 5.8-16 16.7-29.1 10.3-12.4 26-20 15.6-7.7 34-7.7 25.5 0 41.5 12.3 16 12.1 16 33.2 0 8.8-4.2 15.6-4.2 6.7-13.9 6.7-10.4 0-16.2-5.2-5.6-5.3-5.6-11.8 0-7.9 2.1-16.2 2.1-8.4 2.5-12.3-3.2-5.4-9.5-7.2-6.2-1.9-13.4-1.9-8.4 0-16.1 3.7-7.6 3.5-14.8 13.1-6.5 8.8-10.5 23.8-4.1 14.9-4.1 35.6 0 32.7 14.4 53.5 14.6 20.6 38.2 20.6 17 0 28.4-8.3 11.6-8.3 21.5-24.8l11.2 7.4q-11.6 20.7-30.6 32.9-18.9 12.1-39.1 12.1z"/>
				<path id="path894" fill-rule="evenodd" class="s0" d="m1300.7 706.1q-8.3 2.9-14.6 4.7-6.1 1.9-14 1.9-13.8 0-22-6.3-8.1-6.5-10.4-18.8h-1q-11.4 12.6-24.6 19.3-13 6.7-31.5 6.7-19.5 0-32.1-11.9-12.5-12-12.5-31.3 0-10.1 2.8-18 2.8-7.9 8.5-14.2 4.3-5.3 11.5-9.3 7.2-4.2 13.6-6.7 7.9-3 31.9-11.1 24.3-8.1 32.7-12.6v-17.4q0-2.3-1-8.8-0.9-6.5-4.1-12.3-3.5-6.5-10-11.3-6.3-4.9-18.1-4.9-8.1 0-15.1 2.8-6.8 2.7-9.6 5.6 0 3.6 1.5 10.4 1.8 6.9 1.8 12.7 0 6.1-5.6 11.2-5.5 5.1-15.3 5.1-8.8 0-13-6.1-4.1-6.4-4.1-14.1 0-8.1 5.7-15.5 5.8-7.3 14.9-13.1 7.9-5 19.1-8.3 11.3-3.5 22-3.5 14.8 0 25.7 2.1 11 1.9 20 8.6 8.9 6.5 13.5 17.8 4.8 11 4.8 28.6 0 25.1-0.6 44.7-0.5 19.3-0.5 42.3 0 6.9 2.3 10.9 2.4 4.1 7.4 6.9 2.6 1.5 8.2 1.7 5.8 0.2 11.8 0.2zm-61.3-92.8q-15 4.4-26.2 8.6-11.2 4.2-20.9 10.5-8.8 6-13.9 14.3-5.1 8.1-5.1 19.3 0 14.6 7.6 21.5 7.7 6.8 19.5 6.8 12.5 0 21.9-6 9.5-6.1 16-14.4z"/>
			</g>
			<g id="text878">
				<path id="path897" class="s0" d="m1441 560.4q0 8.8-4.3 15.7-4.3 6.7-13.3 6.7-9.6 0-14.8-5-5-5-5-11 0-3.8 0.5-6.9 0.7-3.1 1.2-6.2-8.1 0-18.9 6.5-10.9 6.6-18.5 18.6v99q0 6 2.3 9.8 2.4 3.8 7.4 5.7 4.3 1.7 11 2.6 6.9 0.9 11.9 1.2v11.4h-89.6v-11.4q4-0.3 8.1-0.7 4.3-0.3 7.4-1.4 4.8-1.5 7.1-5.3 2.4-4 2.4-10.2v-105q0-5.3-2.6-10.5-2.4-5.2-6.9-8.3-3.3-2-7.8-2.9-4.4-1-9.6-1.4v-11.2l56.5-3.8 2.4 2.4v24h0.9q10.7-14 23.8-21.2 13.1-7.2 23.9-7.2 10.9 0 17.6 7 6.9 7.1 6.9 19z"/>
				<path id="path899" fill-rule="evenodd" class="s0" d="m1593.5 668.5q-10.6 20.3-28.6 32.4-17.9 12.1-41.1 12.1-20.5 0-36.1-7.3-15.3-7.2-25.3-19.6-10-12.4-15-29-4.8-16.5-4.8-35 0-16.5 5.2-32.4 5.3-16 15.5-28.8 9.8-12.2 24.3-19.6 14.6-7.6 32.7-7.6 18.6 0 31.9 5.8 13.3 5.9 21.5 16.1 8 9.6 11.7 22.7 4 13.1 4 28.5v11.3h-112.5q0 16.8 3.1 30.4 3.3 13.6 10.2 24 6.7 10 17.5 15.8 10.9 5.7 25.9 5.7 15.3 0 26.3-7.1 11.2-7.2 21.6-25.8zm-38.1-64.8q0-9.7-1.7-20.7-1.6-11.1-5.2-18.5-4-7.9-10.8-12.9-6.9-5-17.8-5-18.1 0-30.2 15.2-11.8 15-12.9 41.9z"/>
			</g>
			<path id="text937" class="s0" d="m637.7 496.5v180.6q0 5.9 2.2 9.9 2.2 3.7 7.1 5.8 3.8 1.7 7.4 2.5 3.7 0.9 8.4 1.2v11.3h-82.2v-11.3q3.9-0.3 8.4-0.7 4.4-0.5 7.3-1.3 4.8-1.6 7.2-5.3 2.4-3.9 2.4-10.1v-182.6z"/>
			<path id="text866-2" class="s0" d="m849.8 462.6v65.3h-32.1v-27.9q0-5.8-2.8-11.7-2.6-5.9-6.9-8.8-3.1-2.3-11-3.1-7.8-1.1-12.6-1.4v-11.1l63-3.9zm-123.4 42.1v23.2h-31.4v-23.2z"/>
			<path id="text937-8" class="s0" d="m637.6 462.5v202.7h-31.8v-164.6q0-6.2-2.7-11.5-2.6-5.5-6.8-8.5-3.1-2.1-11.3-3.8-8.2-1.7-13.1-2v-11l63.3-3.9z"/>
		</g>
		<path id="path1106" class="s1" d="m1353.3 194.6c11-8.1 21-16.9 27.5-27.5 4.6-5.8 9.1-5.7 13.6 0 6.9 10.3 15.1 19.7 26.5 26.5 7.7 5.6 6.3 10.4 0 14.9q-15.3 10.9-25.3 25.2c-5.1 6.1-10.1 6.7-15.2 0-7.6-9.6-15.5-19.1-26.6-26.6-4.7-3.3-7.1-7-0.5-12.5z"/>
	</g>
</svg>