<svg version="1.2" xmlns="http://www.w3.org/2000/svg" viewBox="0 0 1575 437" width="1575" height="437">
	<title>new-logo-horizontal_1b0dc79e-svg</title>
	<style>
		.s0 { fill: #000000 } 
	</style>
	<path id="Healthpeak_properties_4_" fill-rule="evenodd" class="s0" d="m501.5 80.5h21.2v160.8h-21.2v-75.5h-81.2v75.5h-21.1v-160.8h21.1v65.8h81.2zm154.4 95.8c0 3.3 0 8.2-1.6 14.7h-87.8c1.6 21.1 17.9 34.1 39 34.1 11.4 0 24.4-4.9 34.1-14.6l11.4 13c-11.4 13-29.2 19.5-45.5 19.5-34.1 0-58.5-23-58.5-58.5 0-34.4 24.4-60.2 56.9-60.2 30.9 0 52 21.2 52 52zm-87.8-2.4h68.3c-1.6-17.9-13-31.7-32.5-31.7-17.9 0-32.5 13.8-35.8 31.7zm197.9-2.4v69.8h-17.9v-16.2c-8.1 11.4-21.1 17.9-37.4 17.9-24.6 0-39-11.6-39-30.9 0-20.5 14.2-32.5 39-32.5h35.8v-9.8c0-16.8-10.2-27.6-26-27.6-13 0-22.8 6.1-30.9 17.5l-13.4-10c9.7-16.2 26.4-25.4 45.9-25.4 27.4 0 43.9 17.7 43.9 47.2zm-19.5 24.1h-32.5c-14.9 0-22.8 5.7-22.8 16.5 0 9.5 7.9 14.6 22.8 14.6 18.2 0 32.5-12.6 32.5-28.8zm47.5-115.2h19.5v160.9h-19.5c0 0 0-160.9 0-160.9zm115.1 143v16.2c-8.1 3.3-14.6 3.3-19.5 3.3-24.3 0-38.9-13-38.9-37.4v-60.1h-17.9v-17.9h17.9v-30.8h19.4v30.8h35.8v17.9h-35.8v60.1c0 13 6.5 19.5 22.8 19.5 4.9 0 9.7 0 16.2-1.6zm114.2-53.6v71.5h-19.5v-69.9c0-18.3-10.4-29.2-27.6-29.2-16.3 0-27.7 13-27.7 29.2v69.9h-19.5v-160.9h19.5v60.1c8.2-10.3 19.5-16.2 32.5-16.2 25 0 42.3 18.5 42.3 45.5zm143.4 13c0 33.5-24.4 60.1-55.3 60.1-16.2 0-30.8-7.1-40.6-18.5v64h-19.5v-160.9h19.5v17.9c8.1-12.4 24.4-21.1 40.6-21.1 32.7 0 55.3 23.9 55.3 58.5zm-58.5-40.6c-17.9 0-37.4 13-37.4 42.2 0 29.2 21.1 40.6 37.4 40.6 22.5 0 39-17.6 39-42.2 0-24.4-15.7-40.6-39-40.6zm361.3 34.9c0 0 53.8 64.2 53.8 64.2h-22.7l-52-63.4v63.4h-17.9v-160.9h17.9v95.9l47.1-48.8h22.3zm-1070.3 123.7h21.1c13.2 0 21.2 6.7 21.2 17.9 0 12.4-7.8 19.5-21.2 19.5h-13v26h-8.1zm21.7 30.2c8.2 0 12.4-3.8 12.4-11.8 0-7.7-4.8-11.3-12.4-11.3h-13.6v23.1zm140 34.8c-19.5 0-34.2-14.7-34.2-34.2 0-18.2 14.9-32.5 34.2-32.5 19.3 0 34.1 14.3 34.1 32.5 0 19.5-14.6 34.2-34.1 34.2zm119-65h40.6v7.1h-32.5v18.9h26v7.1h-26v23.1h34.1v7.1h-42.2c0 0 0-63.3 0-63.3zm147.4 7.1h-22.7v-7.1h53.6v7.1h-22.7v56.2h-8.2zm51-7.1h8.1v63.4h-8.1zm106 46.5c4.3 6.7 10.6 11.2 17.9 11.2 7.3 0 12.6-3.9 12.6-10.6 0-5.1-3.5-8.1-10-11l-8.3-3.6c-8.5-3.9-14.6-7.9-14.6-17.7 0-9.9 8.7-16.4 18.7-16.4 9.5 0 16.8 4.2 20.3 11.1l-5.7 3.9c-3.3-4.9-8.3-7.7-14.4-7.7-6.5 0-11.2 4-11.2 8.9 0 4.5 2.6 7.5 9.3 10.4l9.6 4c9.5 4.1 14 10 14 17.7 0 11.2-8.3 18.3-20.5 18.3-10.6 0-18.9-5.5-23.8-14.4zm308.3-171c0 3.2 0 8.1-1.6 14.6h-87.7c1.6 21.1 17.8 34.1 39 34.1 11.3 0 24.3-4.9 34.1-14.6l11.4 13c-11.4 13-29.3 19.5-45.5 19.5-34.2 0-58.5-23-58.5-58.5 0-34.3 24.3-60.1 56.8-60.1 30.9 0 52 21.1 52 52zm-87.7-2.5h68.2c-1.6-17.8-13-31.6-32.5-31.6-17.8 0-32.5 13.8-35.7 31.6zm197.8-2.4v69.9h-17.9v-16.3c-8.1 11.4-21.1 17.9-37.3 17.9-24.6 0-39-11.6-39-30.9 0-20.5 14.2-32.5 39-32.5h35.7v-9.7c0-16.9-10.2-27.6-26-27.6-13 0-22.7 6-30.9 17.4l-13.4-9.9c9.8-16.3 26.4-25.4 45.9-25.4 27.5 0 43.9 17.7 43.9 47.1zm-19.5 24.2h-32.5c-14.8 0-22.7 5.7-22.7 16.4 0 9.6 7.9 14.6 22.7 14.6 17.9 0 32.5-13 32.5-29.2zm-822.3 162.9c15.2 0 26-11.2 26-26.8 0-14.9-11-25.2-26-25.2-15.1 0-26 10.3-26 25.2 0 15.6 10.7 26.8 26 26.8zm57.5-57.7h21.1c13.2 0 21.1 6.7 21.1 17.9 0 12.3-7.7 19.5-21.1 19.5h-13v26h-8.1zm21.7 30.2c8.1 0 12.4-3.8 12.4-11.8 0-7.7-4.9-11.3-12.4-11.3h-13.6v23.1zm277-30.2h40.6v7.1h-32.5v18.9h26v7.1h-26v23.1h34.1v7.1h-42.2c0 0 0-63.3 0-63.3zm-170.8 0h21.1c13.2 0 21.1 6.7 21.1 17.8 0 9.4-4.6 15.9-12.6 18.3l19.1 27.2h-9.5l-18.1-26h-13v26h-8.1c0 0 0-63.3 0-63.3zm21.7 30.2c8.1 0 12.4-3.8 12.4-11.8 0-7.7-4.9-11.3-12.4-11.3h-13.6v23.1zm-305.6-30.2h21.1c13.2 0 21.1 6.7 21.1 17.8 0 9.4-4.7 15.9-12.6 18.3l19.1 27.2h-9.5l-18.1-26h-13v26h-8.1c0 0 0-63.3 0-63.3zm21.7 30.2c8.1 0 12.4-3.8 12.4-11.8 0-7.7-4.9-11.3-12.4-11.3h-13.6v23.1zm-402.9-230.6h-81.2v-20h81.2l72.7-80.1c0.2-0.2 0.4-0.4 0.8-0.4 0.4 0 0.6 0.2 0.8 0.4l72.6 80.1h81.2v20h-81.2l-72.2-56c-0.6-0.4-0.8-0.6-1.2-0.6-0.4 0-0.6 0.2-1.3 0.6 0 0-72.2 56-72.2 56zm0.1 37.6h-81.2v-19.9h81.2l72.6-43c0.4-0.2 0.6-0.2 0.8-0.2 0.2 0 0.4 0 0.8 0.2l72.6 43h81.2v19.9h-81.2l-72-30.2c-0.4-0.2-1-0.4-1.4-0.4-0.4 0-1 0.2-1.5 0.4 0 0-71.9 30.2-71.9 30.2zm-0.1 37.7h-81.1l-0.1-19.9h81.2l71.4-20.6c0.6-0.2 1.5-0.2 2.1-0.2 0.6 0 1.2 0 2 0.2l71.4 20.6h81.2v19.9h-81.2l-70.2-12.7c-1.2-0.2-2.4-0.4-3.2-0.4-0.8 0-2.3 0.2-3.3 0.4zm0 113.1h-81.2v-20h81.2l71.4 17.3c0.8 0.2 1.7 0.4 2.1 0.4 0.4 0 1.2-0.2 2-0.4l71.4-17.3h81.2v20h-81.2l-71.2 16.8c-0.8 0.2-1.8 0.4-2.2 0.4-0.4 0-1.3-0.2-2.3-0.4 0 0-71.2-16.8-71.2-16.8zm0 37.7h-81.2v-20h81.2l72.2 46.2q1 0.6 1.3 0.6 0.3 0 1.2-0.6l72.2-46.2h81.2v20h-81.2l-71.6 43.1c-0.8 0.4-1.4 0.8-1.8 0.8-0.4 0-1.3-0.4-1.9-0.8zm0 37.7h-81.2v-20h81.2l72.7 75.4c0.2 0.2 0.4 0.4 0.8 0.4 0.4 0 0.6-0.2 0.8-0.4l72.6-75.4h81.2v20h-81.2l-72.6 71.7c-0.4 0.4-0.6 0.4-0.8 0.4-0.2 0-0.4 0-0.8-0.4zm228-170.7l0.1 19.9h-309.3c0 0 0-19.9 0-19.9zm0 37.6v20h-309.2v-20c0 0 309.2 0 309.2 0zm1243.2-116.9c-12.1 0-21.9-9.9-21.9-22.1 0-12.3 9.8-22.2 21.9-22.2 12.1 0 21.9 9.9 21.9 22.2 0 12.2-9.8 22.1-21.9 22.1zm18.4-22.2c0-10.3-8.2-18.6-18.4-18.6-10.1 0-18.3 8.3-18.3 18.6 0 10.3 8.2 18.6 18.3 18.6 10.2 0 18.4-8.3 18.4-18.6zm-6.8 11.7h-4.6l-6.8-8.8h-4.6v8.8h-3.9l-0.1-23.3h9c4.8 0 8 2.9 8 7.3 0 3-1.5 5.3-4.2 6.4 0 0 7.2 9.6 7.2 9.6zm-11.1-12.2c2.6 0 4.2-1.6 4.2-3.7 0-2.4-1.6-3.9-4.2-3.9h-5v7.6z"/>
</svg>