<svg version="1.2" xmlns="http://www.w3.org/2000/svg" viewBox="0 0 1553 269" width="1553" height="269">
	<title>henry-schein-logo-global-svg</title>
	<defs>
		<clipPath clipPathUnits="userSpaceOnUse" id="cp1">
			<path d="m-1-1h2191.55v910h-2191.55z"/>
		</clipPath>
		<clipPath clipPathUnits="userSpaceOnUse" id="cp2">
			<path d="m-1-1h2191.55v910h-2191.55z"/>
		</clipPath>
		<clipPath clipPathUnits="userSpaceOnUse" id="cp3">
			<path d="m-1-1h2191.55v910h-2191.55z"/>
		</clipPath>
		<clipPath clipPathUnits="userSpaceOnUse" id="cp4">
			<path d="m-1-1h2191.55v910h-2191.55z"/>
		</clipPath>
	</defs>
	<style>
		.s0 { fill: #000000 } 
		.s1 { fill: #eb0029 } 
		.s2 { fill: #0067b1 } 
	</style>
	<g id="Clip-Path" clip-path="url(#cp1)">
		<path id="Layer" fill-rule="evenodd" class="s0" d="m24.8 226.2c-1.9-3.1-4.3-4.7-8-4.7-4 0-8.3 2.7-8.3 7.1 0 3.9 3.8 6 6.9 7.1l3.6 1.4c7 2.8 12.3 6.7 12.3 15 0 9.1-7 15.6-15.9 15.6-8 0-14.3-6-15.4-14l6.3-1.3c-0.1 5.5 4.3 9.5 9.6 9.5 5.4 0 9.2-4.5 9.2-9.8 0-5.3-4.3-7.6-8.6-9.4l-3.4-1.5c-5.7-2.4-10.8-5.7-10.8-12.6 0-8.1 7.1-12.9 14.6-12.9 5.6 0 10.1 2.7 12.8 7.5zm38.1 41.5c-14.4 0-26-11.6-26-26 0-14.4 11.6-26 26-26 14.4 0 26.1 11.6 26.1 26 0 14.4-11.7 26-26.1 26zm19.9-26c0-11.1-8.9-20.2-19.9-20.2-10.9 0-19.8 9.1-19.8 20.2 0 11.2 8.9 20.2 19.8 20.2 11 0 19.9-9 19.9-20.2zm20.6 19.2h15.1v5.7h-21.3v-49.8h6.2zm26.8-44.2v29.4c0 8.2 2.4 15.7 12 15.7 9.6 0 12-7.5 12-15.7v-29.4h6.2v31.5c0 11-6.8 19.4-18.2 19.4-11.4 0-18.2-8.4-18.2-19.4v-31.5zm54.4 49.9h-6.2v-44.2h-11.8v-5.7h29.8v5.7h-11.8zm18.7-49.9h6.2v49.9h-6.2zm40.3 50.9c-14.4 0-26-11.6-26-26 0-14.3 11.6-26 26-26 14.4 0 26.1 11.7 26.1 26 0 14.4-11.7 26-26.1 26zm19.9-26c0-11.1-8.9-20.1-19.9-20.1-10.9 0-19.8 9-19.8 20.1 0 11.2 8.9 20.2 19.8 20.2 11 0 19.9-9 19.9-20.2zm13.8-27.3l37.3 39.2v-36.8h6.2v51.9l-37.3-39.2v37.2h-6.2zm76.7 11.8c-1.8-3.1-4.2-4.7-8-4.7-3.9 0-8.3 2.7-8.3 7.1 0 3.9 3.9 5.9 7 7.1l3.5 1.4c7.1 2.8 12.3 6.7 12.3 15 0 9.1-6.9 15.5-15.8 15.5-8.1 0-14.3-5.9-15.4-13.9l6.3-1.3c-0.1 5.5 4.2 9.4 9.6 9.4 5.3 0 9.1-4.5 9.1-9.7 0-5.3-4.2-7.7-8.5-9.5l-3.4-1.4c-5.7-2.5-10.9-5.7-10.9-12.6 0-8.1 7.2-12.9 14.7-12.9 5.5 0 10.1 2.7 12.8 7.5zm43-3.8v14h17.2v5.7h-17.2v24.5h-6.2v-49.9h24v5.7zm50 45.3c-14.4 0-26.1-11.7-26.1-26 0-14.4 11.7-26 26.1-26 14.4 0 26 11.6 26 26 0 14.3-11.6 26-26 26zm19.8-26c0-11.2-8.9-20.2-19.8-20.2-11 0-19.9 9-19.9 20.2 0 11.1 8.9 20.1 19.9 20.1 10.9 0 19.8-9 19.8-20.1zm45.4 24.9h-7.5l-14.7-21.1h-2.5v21.1h-6.2v-49.9h7.5c4.4 0 9.1 0.1 13.1 2.3 4.1 2.5 6.5 7.2 6.5 11.9 0 7.2-4.7 13.1-11.9 14zm-24.7-26.3h1.9c6.4 0 13.2-1.1 13.2-9.1 0-7.8-7.4-8.9-13.5-8.9h-1.6zm82.5-3.5v-20.1h6.2v49.8h-6.2v-23.9h-23.7v23.9h-6.2v-49.8h6.2v20.1zm17.4-20.1h26.7v5.7h-20.5v13.9h19.9v5.7h-19.9v18.9h20.5v5.6h-26.7zm43.7 37.4l-5.7 12.5h-6.7l23.8-52 23.7 52h-6.7l-5.6-12.5zm11.4-25.9l-8.9 20.2h17.7zm36.4 32.7h15v5.7h-21.2v-49.9h6.2zm32.8 5.7h-6.2v-44.2h-11.8v-5.7h29.8v5.7h-11.8zm48.3-29.7v-20.1h6.2v49.8h-6.2v-23.9h-23.7v23.9h-6.2v-49.8h6.2v20.1zm74.9-10.6q0 0 0 0 0 0 0 0zm-2.9-2.1q-1.5-0.9-3.2-1.5-1.7-0.7-3.4-1-1.8-0.3-3.6-0.3c-11.1 0-19.6 9.3-19.6 20.4 0 10.9 8.4 20.2 19.5 20.2q1.8 0 3.6-0.4 1.8-0.3 3.5-1 1.7-0.6 3.2-1.6 1.6-0.9 2.9-2.2v7.4q-1.5 0.8-3.1 1.5-1.5 0.6-3.2 1.1-1.7 0.4-3.3 0.6-1.7 0.3-3.5 0.3c-14.1 0-25.9-11.3-25.9-25.7 0-14.8 11.8-26.3 26.5-26.3 4.3 0 8.7 1.1 12.5 3.4 0 0 0 7.2 0 7.2q-1.3-1.2-2.9-2.1zm19.6 29.9l-5.7 12.5h-6.6l23.7-51.9 23.7 51.9h-6.6l-5.7-12.5zm11.4-25.8l-8.8 20.1h17.6zm61.1 38.4h-7.5l-14.6-21.1h-2.6v21.1h-6.2v-49.9h7.5c4.4 0 9.2 0.1 13.1 2.3 4.2 2.5 6.6 7.2 6.6 11.9 0 7.2-4.8 13.1-12 14zm-24.7-26.2h2c6.3 0 13.2-1.2 13.2-9.2 0-7.8-7.4-8.9-13.5-8.9h-1.7c0 0 0 18.1 0 18.1zm31.9-23.7h26.7v5.7h-20.5v14h19.9v5.7h-19.9v18.8h20.5v5.7h-26.7zm64.1 49.9h-6.2v-49.9h7.1c15.3 0 20 5.3 20 14.4 0 10.5-8 14.6-17.4 14.6h-3.5c0 0 0 20.9 0 20.9zm0-26.5h1.9c6.4 0 13.2-1.2 13.2-9.1 0-7.8-7.4-8.8-13.5-8.8h-1.6c0 0 0 17.9 0 17.9zm59.6 26.5h-7.6l-14.6-21.1h-2.6v21.1h-6.2v-49.9h7.6c4.4 0 9.1 0.1 13.1 2.3 4.1 2.5 6.5 7.1 6.5 11.9 0 7.1-4.7 13.1-11.9 14zm-24.8-26.3h2c6.4 0 13.2-1.2 13.2-9.1 0-7.8-7.4-8.9-13.5-8.9h-1.6c0 0 0 18-0.1 18zm54.4 27.3c-14.4 0-26-11.6-26-26 0-14.3 11.6-26 26-26 14.4 0 26.1 11.7 26.1 26 0 14.4-11.7 26-26.1 26zm19.9-26c0-11.1-8.9-20.1-19.9-20.1-10.9 0-19.8 9-19.8 20.1 0 11.2 8.9 20.2 19.8 20.2 11 0 19.9-9 19.9-20.2zm20.6-19.2v14h17.2v5.7h-17.2v24.5h-6.2v-49.9h24v5.7zm27.4-5.7h26.7v5.7h-20.5v13.9h19.9v5.7h-19.9v18.9h20.5v5.7h-26.7zm58.7 9.4c-1.8-3.1-4.2-4.7-8-4.7-3.9 0-8.3 2.7-8.3 7.1 0 3.9 3.8 5.9 6.9 7.1l3.6 1.4c7 2.8 12.3 6.7 12.3 15 0 9.1-7 15.6-15.9 15.6-8 0-14.3-6-15.3-14l6.2-1.3c0 5.5 4.3 9.5 9.7 9.5 5.3 0 9.1-4.5 9.1-9.8 0-5.3-4.3-7.6-8.5-9.4l-3.5-1.5c-5.6-2.4-10.8-5.7-10.8-12.6 0-8.1 7.1-12.9 14.7-12.9 5.5 0 10 2.7 12.7 7.5zm37.7 0c-1.8-3.1-4.2-4.7-8-4.7-3.9 0-8.3 2.7-8.3 7.1 0 3.9 3.8 5.9 6.9 7.1l3.6 1.4c7.1 2.8 12.3 6.7 12.3 15 0 9.1-7 15.6-15.9 15.6-8 0-14.3-6-15.3-14l6.3-1.3c-0.1 5.5 4.2 9.5 9.6 9.5 5.3 0 9.1-4.5 9.1-9.8 0-5.3-4.2-7.6-8.5-9.4l-3.5-1.5c-5.6-2.4-10.8-5.7-10.8-12.6 0-8.1 7.2-12.9 14.7-12.9 5.5 0 10.1 2.7 12.8 7.5zm15.3-9.4h6.2v49.8h-6.2zm40.3 51c-14.4 0-26-11.7-26-26 0-14.4 11.6-26 26-26 14.4 0 26 11.6 26 26 0 14.3-11.6 26-26 26zm19.9-26c0-11.2-8.9-20.2-19.9-20.2-11 0-19.8 9-19.8 20.2 0 11.1 8.8 20.1 19.8 20.1 11 0 19.9-9 19.9-20.1zm13.8-27.4l37.3 39.3v-36.9h6.2v51.9l-37.3-39.2v37.2h-6.2zm61.7 39.7l-5.7 12.5h-6.7l23.8-51.9 23.7 51.9h-6.7l-5.6-12.5zm11.4-25.8l-8.9 20.1h17.7zm36.4 32.7h15.1v5.7h-21.3v-49.9h6.2zm43.5-34.7c-1.9-3.1-4.2-4.7-8-4.7-4 0-8.3 2.7-8.3 7.1 0 3.9 3.8 5.9 6.9 7.1l3.6 1.4c7 2.8 12.3 6.7 12.3 15 0 9.1-7 15.6-15.9 15.6-8 0-14.3-6-15.3-14l6.2-1.3c-0.1 5.5 4.3 9.5 9.6 9.5 5.4 0 9.2-4.5 9.2-9.8 0-5.3-4.3-7.6-8.6-9.4l-3.4-1.5c-5.7-2.4-10.8-5.7-10.8-12.6 0-8.1 7.1-12.9 14.6-12.9 5.6 0 10.1 2.7 12.8 7.5zm-1159.4-100.3c0 8.1 0.4 13.6 1.9 16 1.3 2.1 3.8 3 9 3.2l10.2 0.6v6.4q-3.9-0.1-7.7-0.2-3.9-0.2-7.8-0.2-3.8-0.1-7.7-0.2-3.9 0-7.7 0c-10.5 0-20.5 0.2-31.6 0.6v-6.4l10.2-0.6c5.1-0.2 7.7-1.1 9-3.2 1.5-2.4 1.9-7.9 1.9-16v-47.7c-2.6-0.2-8.3-0.4-17.7-0.4h-50c-9.4 0-15.2 0.2-17.7 0.4v47.7c0 8.1 0.4 13.6 1.9 16 1.3 2.1 3.9 3 9 3.2l10.2 0.6v6.4q-3.8-0.1-7.7-0.2-3.9-0.2-7.8-0.2-3.8-0.1-7.7-0.2-3.9 0-7.7 0c-10.5 0-20.5 0.2-31.6 0.6v-6.4l10.2-0.6c5.1-0.2 7.7-1.1 9-3.2 1.5-2.4 1.9-7.9 1.9-16v-96c0-8.1-0.4-13.6-1.9-16-1.3-2.1-3.9-3-9-3.2l-10.2-0.6v-6.4c11.1 0.4 21.1 0.6 31.6 0.6 9.8 0 19.8-0.2 30.9-0.6v6.4l-10.2 0.6c-5.1 0.2-7.7 1.1-9 3.2-1.5 2.4-1.9 7.9-1.9 16v38.1c2.5 0.2 8.3 0.4 17.7 0.4h50c9.4 0 15.1-0.2 17.7-0.4v-38.1c0-8.1-0.4-13.6-1.9-16-1.3-2.1-3.9-3-9-3.2l-10.2-0.6v-6.4c11.1 0.4 21.1 0.6 31.6 0.6 9.8 0 19.8-0.2 30.9-0.6v6.4l-10.2 0.6c-5.2 0.2-7.7 1.1-9 3.2-1.5 2.4-1.9 7.9-1.9 16zm43.9-71.6c0-6.5-0.4-11-1.6-12.8-1-1.7-3-2.4-7.1-2.6l-8.2-0.5v-5.1c4.7 0 9.5 0.1 14.3 0.3 4.8 0 9.8 0.2 14.5 0.2 14.9 0 30.6-0.5 40.4-0.5 7.6 0 15.3 0.1 22 0.5-1.9 7.5-2.7 17.2-2.7 26h-6v-11.2c0-2.2-0.2-4.1-1.6-4.6-9-3.4-22.5-3.5-33.4-3.5-4.7 0-9.6 0.1-14.4 1.3v45.7q2.5 0.1 5 0.2 2.4 0.1 4.9 0.2 2.5 0 5 0.1 2.4 0 4.9 0c10.4 0 16.3-0.7 18.1-1.9 0.9-0.7 1.2-2.2 1.4-4.5l0.9-8.9h5.1c-0.2 7.1-0.5 13.6-0.5 19.9 0 6.3 0.3 12.8 0.5 19h-5.1l-0.9-10.1c-0.2-2.3-0.5-3.8-1.4-4.3-1.8-1.4-7.7-2.1-18.1-2.1-8.2 0-14.5 0-19.8 0.6v47.8c4.8 1.2 9.7 1.4 14.4 1.4 14 0 31.4-0.5 34.5-2.2 2.5-1.4 4.7-8.9 5.9-19.2h6c-1.7 8.2-2.7 18.8-2.7 28-7.5 0.2-21 0.7-33.7 0.6-13.1-0.2-26.6-0.6-37.2-0.6-6.5 0-12.1 0.4-18.3 0.6v-5.2l6.2-0.5c4.1-0.3 6.1-0.8 7.1-2.5 1.2-1.9 1.6-6.4 1.6-12.9zm100.7 0c0-6.5-0.3-10.9-1.5-12.8-1-1.7-3.1-2.2-7.2-2.6l-7.5-0.5v-5.1c7.5 0.2 14.4 0.5 20.5 0.5 3.1 0 6.2-0.3 9.2-0.5l81.7 100.9h0.5v-79.9c0-6.5-0.4-10.9-1.6-12.8-1-1.7-3-2.2-7.1-2.6l-7.5-0.5v-5.1c6.8 0.2 13.6 0.5 19.8 0.5 6.8 0 13-0.3 20.5-0.5v5.1l-7.5 0.5c-4.1 0.4-6.2 0.9-7.2 2.6-1.2 1.9-1.6 6.3-1.6 12.8v94.4c0 2 0.4 4.3 0.6 6.3l-15.4-2.7-80.5-100h-0.3v78.8c0 6.5 0.3 10.9 1.5 12.8 1.1 1.7 3.1 2.2 7.2 2.6l7.5 0.5v5.1c-7.5-0.2-13.6-0.5-20.5-0.5-6.1 0-13 0.3-19.8 0.5v-5.1l7.5-0.5c4.1-0.4 6.2-0.9 7.2-2.6 1.2-1.9 1.5-6.3 1.5-12.8zm157.7 76.7c0 6.5 0.3 11 1.5 12.9 1 1.7 3.1 2.3 7.2 2.5l8.2 0.5v5.1q-6.3-0.2-12.5-0.3-6.3-0.2-12.6-0.2-6.2 0-12.5 0.2-6.2 0.1-12.5 0.3v-5.1l8.2-0.5c4.1-0.2 6.2-0.8 7.2-2.5 1.2-1.9 1.5-6.4 1.5-12.9v-76.7c0-6.5-0.3-11-1.5-12.8-1-1.8-3.1-2.3-7.2-2.6l-7-0.5v-5.1c9.1 0.1 19 0.5 29.1 0.5 10 0 19.9-0.4 29.8-0.5 27.4-0.6 34.6 13.3 34.6 25.6 0 18.6-16.8 29.7-33.4 33l38.8 50.6c2.6 3.4 6.3 4.1 10.4 4.4v5.1c-4.4-0.1-8.3-0.5-12.3-0.5-3.9 0-7.6 0.4-11.6 0.5-2.2-3.2-4.8-6.1-7-9.2l-31.4-42.2c-2.8-3.8-6-7-8.9-10.6l1-2.1c4.7 0.4 9.9 0.2 15.1-0.6 11.9-2.1 22.2-11.3 22.2-24 0-18.4-13.7-23.6-27-23.6-7.7 0-12.7 0.9-17.4 2.1zm127.7-37.8l17.6-27.8q2.5-4 4.9-8 2.4-4 4.7-8.1 2.3-4 4.5-8.2 2.2-4.1 4.4-8.2h13.6v2.5c-14.3 16.6-35 45.5-42 60.7-2 4.5-2.4 8.7-2.4 12.8v22.1c0 6.5 0.4 10.9 1.6 12.8 1 1.7 3 2.4 7.1 2.6l8.2 0.5v5.1q-3.1-0.1-6.2-0.2-3-0.1-6.1-0.2-3.1 0-6.2-0.1-3.1 0-6.2 0c-8.4 0-16.4 0.2-25.3 0.5v-5.1l8.2-0.5c4.1-0.2 6.1-0.9 7.2-2.6 1.2-1.9 1.5-6.3 1.5-12.8v-24.3c0-2.7-0.5-5.1-1.5-6.8l-21.2-37c-8.9-15.3-17.6-21.7-21.9-22.2l-4.9-0.5v-4.9l19.6-4.1c3.4-0.7 6 2.7 8.9 6.3 2.9 3.6 5.3 7 7.5 11.1zm172.7-54.1l-1.3-12.2c-0.7-5.7-1.5-7.9-9.4-12.8-6-3.6-15-5.1-23.3-5.1-14.9 0-31.6 10-31.6 31.2 0 14.5 8.6 23.5 35.2 26.5 30.2 3.2 49.2 10.7 49.2 35 0 36.5-32.7 54.1-64.5 54.1-15 0-29.5-4.7-36.6-8.2 1.7-11.1 1.7-22.6 1.5-32.6h6.9l1.7 14.3c1.1 8.9 17.9 17.1 34.8 17.1 19.2 0 38.2-11.8 38.2-32.9 0-20.3-15.8-26.1-37.6-28.7-33.5-3.8-46.7-14.3-46.7-36.5 0-33.1 29-48.3 54.6-48.3 17.1 0 29.9 5.6 38.7 9q-0.8 3.7-1.3 7.5-0.6 3.7-1 7.5-0.3 3.7-0.5 7.5-0.2 3.8-0.2 7.6c0 0-6.8 0-6.8 0zm130.5 106.6c-9.9 6-26.8 9.2-37.2 9.2-41 0-68.7-23.4-68.7-62.2 0-19.7 7.7-35.2 20.9-46 12.8-10.6 30.2-16.4 49.3-16.4 15.9 0 31.3 4.1 39.5 7-1.7 8-3.3 17.1-3.3 26h-5.2v-12.3c0-4.8-6.9-7.7-14.7-10.6-5.5-1.9-12.8-2.9-19.1-2.9-32.2 0-49.1 23.4-49.1 52.5 0 33.8 22.4 55.7 56.2 55.7 12.3 0 26.8-4.5 34.7-10.3l1.5 1.7zm130.9-14.7c0 6.5 0.3 11 1.5 12.8 1 1.8 3.1 2.4 7.2 2.6l8.2 0.5v5.1q-6.3-0.2-12.5-0.3-6.3-0.2-12.5-0.2-6.3 0-12.5 0.2-6.3 0.1-12.6 0.3v-5.1l8.2-0.5c4.1-0.2 6.2-0.8 7.2-2.6 1.2-1.8 1.5-6.3 1.5-12.8v-38.1c-2-0.2-6.6-0.3-14.1-0.3h-40c-7.5 0-12.1 0.1-14.2 0.3v38.1c0 6.5 0.4 11 1.6 12.8 1 1.8 3 2.4 7.1 2.6l8.2 0.5v5.1q-6.2-0.2-12.5-0.3-6.2-0.2-12.5-0.2-6.3 0-12.5 0.2-6.3 0.1-12.5 0.3v-5.1l8.2-0.5c4.1-0.2 6.1-0.8 7.2-2.6 1.2-1.8 1.5-6.3 1.5-12.8v-76.7c0-6.5-0.3-11-1.5-12.8-1.1-1.8-3.1-2.4-7.2-2.6l-8.2-0.5v-5.2c8.9 0.4 16.9 0.6 25.2 0.6 7.9 0 15.9-0.2 24.8-0.6v5.2l-8.2 0.5c-4.1 0.2-6.1 0.8-7.1 2.6-1.2 1.8-1.6 6.3-1.6 12.8v30.4c2.1 0.2 6.7 0.3 14.2 0.3h40c7.5 0 12.1-0.1 14.1-0.3v-30.4c0-6.5-0.3-11-1.5-12.8-1-1.8-3.1-2.4-7.2-2.6l-8.2-0.5v-5.2c8.9 0.4 16.9 0.6 25.3 0.6 7.9 0 15.9-0.2 24.8-0.6v5.2l-8.2 0.5c-4.1 0.2-6.2 0.8-7.2 2.6-1.2 1.8-1.5 6.3-1.5 12.8zm39.2-76.8c0-6.5-0.3-10.9-1.5-12.8-1-1.7-3.1-2.4-7.2-2.6l-8.2-0.5v-5.1c4.8 0 9.6 0.2 14.4 0.3 4.7 0 9.7 0.2 14.5 0.2 14.8 0 30.5-0.5 40.3-0.5 7.7 0 15.4 0.2 22 0.5-1.9 7.5-2.7 17.3-2.7 26h-6v-11.1c0-2.2-0.1-4.1-1.5-4.6-9.1-3.4-22.6-3.6-33.5-3.6-4.6 0-9.6 0.2-14.4 1.3v45.7q2.5 0.1 5 0.2 2.5 0.1 4.9 0.2 2.5 0.1 5 0.1 2.5 0 4.9 0c10.5 0 16.3-0.7 18.2-1.9 0.8-0.7 1.2-2.2 1.3-4.4l0.9-8.9h5.1c-0.2 7-0.5 13.5-0.5 19.8 0 6.3 0.3 12.8 0.5 19h-5.1l-0.9-10.1c-0.1-2.2-0.5-3.8-1.3-4.3-1.9-1.3-7.7-2-18.2-2-8.1 0-14.5 0-19.8 0.5v47.9c4.8 1.2 9.8 1.3 14.4 1.3 14 0 31.4-0.5 34.5-2.2 2.6-1.4 4.8-8.9 6-19.1h6c-1.8 8.2-2.8 18.8-2.8 28-7.5 0.1-21 0.7-33.6 0.5-13.2-0.2-26.7-0.5-37.3-0.5-6.5 0-12.1 0.3-18.3 0.5v-5.1l6.2-0.5c4.1-0.4 6.2-0.9 7.2-2.6 1.2-1.9 1.5-6.3 1.5-12.8 0 0 0-76.8 0-76.8zm118.5 76.8c0 6.5 0.4 10.9 1.6 12.8 1 1.7 3.1 2.4 7.2 2.6l8.1 0.5v5.1q-6.2-0.3-12.5-0.4-6.2-0.1-12.5-0.1-6.2 0-12.5 0.1-6.2 0.1-12.5 0.4v-5.1l8.2-0.5c4.1-0.2 6.1-0.9 7.2-2.6 1.2-1.9 1.5-6.3 1.5-12.8v-76.8c0-6.5-0.3-10.9-1.5-12.8-1.1-1.7-3.1-2.4-7.2-2.6l-8.2-0.5v-5.1c8.9 0.3 16.9 0.5 25.3 0.5q3.1 0 6.2 0 3.1-0.1 6.2-0.1 3.1-0.1 6.2-0.2 3.1-0.1 6.1-0.2v5.1l-8.1 0.5c-4.1 0.2-6.2 0.9-7.2 2.6-1.2 1.9-1.6 6.3-1.6 12.8zm37.7-76.7c0-6.5-0.3-11-1.5-12.8-1-1.8-3-2.3-7.1-2.6l-7.6-0.5v-5.1c7.6 0.1 14.4 0.5 20.6 0.5 3 0 6.1-0.4 9.2-0.5l81.6 100.8h0.5v-79.8c0-6.5-0.3-11-1.5-12.8-1-1.8-3.1-2.3-7.2-2.6l-7.5-0.5v-5.1c6.8 0.1 13.7 0.5 19.8 0.5 6.9 0 13-0.4 20.5-0.5v5.1l-7.5 0.5c-4.1 0.3-6.1 0.8-7.2 2.6-1.2 1.8-1.5 6.3-1.5 12.8v94.3c0 2.1 0.3 4.3 0.5 6.4l-15.4-2.8-80.4-100h-0.4v78.8c0 6.5 0.4 11 1.6 12.9 1 1.7 3 2.2 7.2 2.5l7.5 0.5v5.2c-7.5-0.2-13.7-0.6-20.5-0.6-6.2 0-13 0.4-19.9 0.6v-5.2l7.6-0.5c4.1-0.3 6.1-0.8 7.1-2.5 1.2-1.9 1.6-6.4 1.6-12.9 0 0 0-76.7-0.1-76.7z"/>
	</g>
	<g id="Clip-Path" clip-path="url(#cp2)">
		<path id="Layer" class="s1" d="m159.3 12v-11.4h-156.5v119.1c21.9 0 45.8-14.3 69.6-51.7 24-37.5 58.8-56 86.9-56z"/>
	</g>
	<g id="Clip-Path" clip-path="url(#cp3)">
		<path id="Layer" class="s2" d="m2.8 141.4v11.4h156.5v-119.1c-21.9 0-45.8 14.3-69.6 51.6-23.9 37.6-58.7 56.1-86.9 56.1z"/>
	</g>
	<g id="Clip-Path" clip-path="url(#cp4)">
		<path id="Layer" fill-rule="evenodd" class="s0" d="m1552.6 44.8c1.9 11.4-8.1 21.1-19.6 18.9q-2.2-0.5-4.2-1.5-2-1-3.6-2.5-1.6-1.6-2.8-3.5-1.2-1.9-1.8-4c-3.4-12.7 8.1-24.2 20.7-20.3q2.2 0.7 4.1 1.9 1.9 1.3 3.4 3 1.5 1.7 2.4 3.7 1 2 1.4 4.3zm-30.6 2.8c0 2.2 0.5 4.4 1.5 6.4 1 2 2.4 3.7 4.2 5.1 1.8 1.3 3.8 2.2 6 2.7 2.2 0.4 4.5 0.3 6.6-0.3q2-0.6 3.8-1.7 1.8-1.1 3.2-2.7 1.3-1.6 2.2-3.5 0.9-1.9 1.2-4c0.3-2 0.2-4.1-0.4-6.1-0.6-2-1.6-3.8-3-5.4-1.4-1.6-3.1-2.8-5-3.7-1.8-0.8-3.9-1.3-6-1.3-7.9 0-14.3 6.6-14.3 14.5zm13.9-9.6c3.1 0 7 0.4 7 4.5 0 2.9-2.5 4.4-5.1 4.8 2.1 0.3 3.3 3 4 4.7 0.3 0.8 0.9 2.2 1.4 2.7 0.5 0.5 1 0.6 1.8 0.6v0.8h-1.2c-0.9 0-2 0-2.8-0.6-0.8-0.6-1.6-2.5-1.9-3.4-0.4-1-1.1-2.9-1.9-3.7-0.7-0.8-1.9-0.6-2.9-0.6h-0.8v5.8c0 1.1 0.1 1.6 1.3 1.7h0.9v0.8h-6.9v-0.8h0.8c1.1 0 1.4-0.2 1.4-1.4v-13.7c0-1.2-0.6-1.3-1.4-1.3l-0.8-0.1v-0.8zm-2.4 8.8h1.3c2.8 0 5.6-0.6 5.6-4 0-2.7-1.7-3.9-4.3-3.9h-1.3c-1.3 0-1.3 0.9-1.3 2z"/>
	</g>
</svg>