<svg version="1.2" xmlns="http://www.w3.org/2000/svg" viewBox="0 0 1517 429" width="1517" height="429">
	<title>The Hershey Company_2022 Proxy Statement and 2021 Annual Report-3-pdf-svg</title>
	<defs>
		<clipPath clipPathUnits="userSpaceOnUse" id="cp1">
			<path d="m-2068.6-748.04h5656.96v7365.75h-5656.96z"/>
		</clipPath>
	</defs>
	<style>
		.s0 { fill: #939d9c } 
		.s1 { fill: #2d000d } 
	</style>
	<g id="Clip-Path: Page 1" clip-path="url(#cp1)">
		<g id="Page 1">
			<path id="Path 23" class="s0" d="m1332.7 180.3c0-24.3 17.2-43.8 44.8-53.8 32.4-11.4 111.9-16.2 138.5-49v56.2c-24.2 30.4-106.6 30.9-138.5 41.8-24.8 9.1-33.8 23.3-39.1 31-2.3 2.8-2.8 3.8-4.3 3.8-0.9 0-1.4-1.5-1.4-2.4z"/>
			<path id="Path 24" class="s1" d="m1272.7 421.5c-31.4 0-52.8-42.8-16.2-86.1 11.9-14.3 26.2-27.6 39.1-41.4 24.3-26.2 31.9-46.6 36.2-66.1 0.4-1 1.4-2.4 2.8-2.4 1.5 0 2.4 1.4 2.9 2.4 4.3 19.5 11.9 39.9 36.2 66.1 12.8 13.8 27.1 27.1 39 41.4 36.7 43.3 15.3 86.1-16.2 86.1z"/>
			<path id="Path 25" fill-rule="evenodd" class="s1" d="m1074.6 361.6v59.9h-130.9v-415.4h124.7v60.5h-53.3v100.4h51.4v59.9h-51.4v134.7zm-740 0v59.9h-130.9v-415.4h126.6v60.5h-55.2v100.4h51.4v59.9h-51.4v134.7zm-163.3-355.5v415.4h-70v-197h-30v197h-70.5v-415.4h70.5v158.5h30v-158.5zm740 0v415.4h-69.6v-197h-30v197h-70.4v-415.4h70.4v158.5h30v-158.5zm-279-5.7c52.9 0 79.5 25.2 79.5 74.7v62.4h-66.2v-61.4c0-8.1-4.7-13.3-12.8-13.3-6.2 0-13.4 3.3-13.4 13.3v30.9c0 24.3 5.8 35.2 18.1 50l17.2 19c13.8 15.7 30 33.3 40 48.1 16.6 24.7 19.5 41.4 19.5 66.1v67.1c0 49-43.3 71.4-84.3 71.4-50.5 0-81.4-27.6-81.4-72.4v-82.7h68.6v79.9c0 8.1 5.7 13.8 14.3 13.8 8 0 14.2-5.2 14.2-12.4v-61.8c0-16.2-5.7-25.3-14.7-36.7l-23.4-26.6c-11.9-12.9-23.8-25.7-33.8-40-14.7-21.4-22.8-39.5-22.8-72.8v-40.4c0-49.1 29-76.2 81.4-76.2zm-110.5 346.9c0 61.4 27.6 74.2 27.6 74.2h-86.6l-1-2.3c-7.1-13.8-8.1-31.9-8.1-48.1v-126.1c0-19-12.3-19-16.2-19h-11.4v195.5h-68.6v-415.4h104.8c37.1 0 61 27.2 61 69.5v61.9c0 28-10.5 47.5-30 58.5 18.5 11.4 28.5 29 28.5 52.8zm-64.3-262.2c0-11.4-7.1-16.6-20.4-16.6h-7.6v103.7c0.4 0 8 0 8 0 6.2 0 20-1.9 20-17.6zm800-79l-49.5 284.1v131.8h-71.4v-130.9l-50-285h70.9c0 0 16.7 114.7 22.4 154.2 5.7-39.5 21.4-154.2 21.4-154.2z"/>
		</g>
	</g>
</svg>