<svg version="1.2" xmlns="http://www.w3.org/2000/svg" viewBox="0 0 1559 927" width="1559" height="927">
	<title>2022 Scotia Howard Weil Energy Conference-1-pdf-svg</title>
	<defs>
		<clipPath clipPathUnits="userSpaceOnUse" id="cp1">
			<path d="m-11206-1069.62h13440v10076.4h-13440z"/>
		</clipPath>
		<clipPath clipPathUnits="userSpaceOnUse" id="cp2">
			<path d="m1774.61-95.57v1171.29h-2027.01v-1171.29"/>
		</clipPath>
	</defs>
	<style>
		.s0 { fill: #2e7d66 } 
	</style>
	<g id="Clip-Path: Page 1" clip-path="url(#cp1)">
		<g id="Page 1">
			<g id="Clip-Path: Mask" clip-path="url(#cp2)">
				<g id="Mask">
					<path id="Path 17" fill-rule="evenodd" class="s0" d="m189.1 788.9c224 61.6 420.9 79.3 578.6 79.3v57.9h-767.2v-925.6h767.2v62.5c-157.7 0-354.6 11.2-578.6 74.7-118.6 32.6-121.4 45.7-121.4 124.1v401.2c0 80.2 2.8 93.3 121.4 125.9zm1302-125.9v-401.2c0-78.4-3.8-91.5-121.4-124.1-223-63.5-421.8-74.7-578.6-74.7v-62.5h767.2v925.6h-767.2v-57.9c156.8 0 355.6-17.7 578.6-79.3 117.6-32.6 121.4-45.7 121.4-125.9zm-1031.4-366.7v334h-87.7v-125.9h-141.9v125.9h-87.7v-334h87.7v124.1h141.9v-124.1zm122.3 83v41.1h182v84h-182v41h182v84.9h-209.1c-45.7 0-60.7-11.2-60.7-68.1v-197.8c0-58.8 15-68.1 60.7-68.1h209.1v83zm511.4 109.2v73.7c0 56.9-13 68.1-60.6 68.1h-236.2v-84.9h211v-41h-150.3c-47.6 0-60.7 1.8-60.7-66.3v-73.7c0-56.9 13.1-68.1 60.7-68.1h227.7v83h-203.4v41.1h151.2c47.6 0 60.6 0.9 60.6 68.1zm324.8 0v73.7c0 56.9-13 68.1-60.6 68.1h-238v-84.9h211.8v-41h-151.2c-47.6 0-58.8 1.8-58.8-66.3v-73.7c0-56.9 13.1-68.1 58.8-68.1h229.6v83h-203.4v41.1h151.2c47.6 0 60.6 0.9 60.6 68.1z"/>
				</g>
			</g>
		</g>
	</g>
</svg>