<svg version="1.2" xmlns="http://www.w3.org/2000/svg" viewBox="0 0 1527 569" width="1527" height="569">
	<title>hilton-worldwide-svg</title>
	<style>
		.s0 { fill: #1d1d1d } 
	</style>
	<g id="Page-1">
		<g id="hilton-logo">
			<g id="Menu-2">
				<g id="white-framed-hilton">
					<g id="XMLID_18615_">
						<path id="XMLID_18626_" fill-rule="evenodd" class="s0" d="m0 0h1526.6v569h-1526.6zm26 542.9h1474.6v-516.8h-1474.6zm374.9-396.9v266.5l20.8 2.6v15.3h-103.2v-15.3l21.7-2.6v-121.3h-132.7v121.3l20.9 2.6v15.3h-102.4v-15.3l20.9-2.6v-266.5l-20.9-2.5v-15.4h102.4v15.4l-20.9 2.5v113.6h132.7v-113.6l-21.7-2.5v-15.4h103.2v15.4zm116.2 36.7c-18.2 0-33-15.3-33-34.2 0-18.8 14.8-34.1 33-34.1 18.2 0 32.9 15.3 32.9 34.1 0 18.9-14.7 34.2-32.9 34.2zm26 231.4l19.9 2.6v13.7h-95.3v-13.7l19.9-2.6v-181.9l-19.9-2.5v-13.7h76.3v198.1zm60.6 2.6l19.1-2.6v-278.4l-19.1-3.4v-13.6h76.3v295.4l19.1 2.6v13.7h-95.4zm262.7-201.6v20.5h-51.1v128.1c0 33.3 6.9 43.6 37.3 43.6 11.2 0 20.8 0 30.3-2.6v14.5c-27.7 9.4-51.1 13.7-70.2 13.7-44.2 0-53.8-19.6-53.8-57.2v-140.1h-39.8v-20.5h41.6v-44.4l55.5-16.2v60.6zm256.6 110.2c0 66.6-46 111.9-117.1 111.9-69.3 0-113.5-29.1-113.5-111.9 0-69.2 45.9-115.3 117-115.3 71.1-0.9 113.6 41 113.6 115.3zm-62.4-1.7c0-68.3-20.8-97.4-53.8-97.4-32.1 0-52.9 28.2-52.9 97.4 0 68.3 20.8 96.5 52.9 96.5 34.7 0 53.8-26.5 53.8-96.5zm332 93.1v13.6h-95.3v-13.6l19-2.6v-123c0-34.1-13-49.5-39-49.5-12.1 0-31.2 8.5-45.1 17.9v153.8l20 2.5v13.7h-96.3v-13.7l20-2.5v-180.2l-20-2.6v-15.4h76.3v29.9c23.4-18.8 46.9-34.1 78.9-34.1 42.5 0 61.6 24.7 61.6 73.4v129.8z"/>
					</g>
				</g>
			</g>
		</g>
	</g>
</svg>