<svg version="1.2" xmlns="http://www.w3.org/2000/svg" viewBox="0 0 1568 268" width="1568" height="268">
	<title>hologic_desktop2-svg</title>
	<style>
		.s0 { fill: #0f206c } 
	</style>
	<g id="Layer">
		<path id="Layer" class="s0" d="m209.3 5h-42c0 0 0 86.2 0 99.6-13.1 0-104.3 0-117.3 0 0-13.4 0-99.6 0-99.6h-50v258.4h50c0 0 0-100.6 0-114.5 13 0 104.2 0 117.3 0 0 13.7 0 114.5 0 114.5h50v-258.4z"/>
		<path id="Layer" fill-rule="evenodd" class="s0" d="m489.9 134.6c0 25.8-5.7 49.2-16.8 69.6-11.2 20.7-27.5 36.4-48.1 47.2-20.4 10.6-42.6 15.9-66.1 15.9-25.5 0-48.8-5.9-69-17.5-20.2-11.7-35.9-28-46.3-48.4-10.4-20-15.7-41.7-15.7-63.9 0-42.3 12.4-75.7 36.7-100 24.5-24.3 56.1-36.6 94.5-36.6 25.1 0 47.9 5.8 68.1 17 20.2 11.4 36.2 27.5 46.8 47.9 10.6 20.3 15.9 43.3 15.9 68.8zm-60.4-48.1c-6.3-13.5-15.5-23.5-28-30.9-12.4-7.3-26.5-11-42-11-22.4 0-41 7-57.1 21.2-15.5 13.9-23.5 38.2-23.5 72.1 0 26.9 7.6 48.4 22.7 63.5 15.3 15.3 34 22.8 57.3 22.8 23.7 0 42.6-7.5 57.7-23 15.1-15.3 22.7-37.8 22.7-66.6 0-18.5-3.5-34.7-9.8-48.1z"/>
		<path id="Layer" class="s0" d="m550.5 218.9c0-14.7 0-213.9 0-213.9h-50v258.4h176.3v-44.3c0.2-0.2-112.2-0.2-126.3-0.2z"/>
		<path id="Layer" fill-rule="evenodd" class="s0" d="m913.7 134.6c0 25.8-5.6 49.2-16.8 69.6-11.2 20.7-27.5 36.6-48.1 47.2-20.4 10.6-42.7 15.9-66.1 15.9-25.5 0-48.6-5.9-68.8-17.5-20.4-11.7-36.1-28-46.5-48.4-10.4-20-15.7-41.5-15.7-63.9 0-42.3 12.2-75.7 36.7-100 24.3-24.3 55.9-36.6 94.3-36.6 25.1 0 47.9 5.8 68.1 17 20.4 11.4 36.1 27.5 46.7 47.9 10.6 20.3 15.9 43.3 16.2 68.8zm-60.6-48.1c-6.4-13.5-15.6-23.5-28-30.9-12.4-7.3-26.5-11-42-11-22.5 0-41 7-57.2 21.2-15.5 13.9-23.4 38.2-23.4 72.1 0 27.4 7.3 48.2 22.6 63.5 15.3 15.3 34.1 22.8 57.4 22.8 23.6 0 42.6-7.5 57.7-23 15.1-15.3 22.6-37.8 22.6-66.6 0-18.5-3.4-34.7-9.7-48.1z"/>
		<path id="Layer" class="s0" d="m1054.8 123.8v44.3c0 0 62.9 0 75.5 0 0 9.6 0 27.8 0 33.3-6.5 4.9-15.3 9.6-26.9 14.1-13.1 4.9-26.7 7.5-40.2 7.5-15.7 0-30.8-3.3-44.7-9.8-13.6-6.3-23.6-15.9-30.8-29-7.1-13.2-10.8-30.2-10.8-50.4 0-16.3 3.1-31.6 9.2-45.7 3.5-7.8 8.3-15.1 14.7-21.6 6.1-6.4 14.5-11.7 24.7-15.8q15.6-6.1 37.3-6.1c11.8 0 22.9 2.1 32.4 5.7 9.2 3.7 16.6 8.6 21.3 14.5 5.1 6.4 9.3 15.1 12.8 26.6l2.3 7.1 45.7-12-2.1-7.8c-4.7-17.3-11.8-31.6-21-42.7-9.4-11.2-22.4-20-38.6-26.1-15.9-5.9-33.6-9-53.2-9-26.7 0-50.8 5.3-71.4 15.8-21 10.6-37.6 27.1-48.6 48.9-11 21.5-16.5 44.9-16.5 69.6 0 25.2 5.7 48.2 16.7 68.4 11.2 20.6 28.2 36.6 50.2 47.6 21.6 10.6 45.9 16.1 72.2 16.1 19.6 0 38.8-3.3 57.4-10 18.3-6.5 36.5-16.5 53.8-29.6l3.3-2.4v-101.5z"/>
		<path id="Layer" class="s0" d="m1241.7 5h-42v258.4h50v-258.4h-8"/>
		<path id="Layer" class="s0" d="m1459.6 161l-1.8 7.7c-4.3 18.4-12.2 32.5-24.1 41.7-11.8 9.3-26.1 13.8-43.4 13.8q-21.5 0-39.8-10.4c-12.1-6.7-20.6-16.7-26.3-30.6-6-14.3-9-31.4-9-51 0-14.9 2.4-29.6 7.5-43.7 4.9-13.5 13.1-24.1 24.9-32 11.9-8 27.2-12.1 45.3-12.1 15.5 0 28.4 3.5 38.4 10.6 9.8 7 17.7 18.6 23 34.5l2.3 6.8 48.5-10.9-2.4-8.1c-7.4-24.1-20.6-43.1-39.6-56.4-18.8-13.2-42.2-20-69.4-20-23.8 0-46.1 5.3-65.9 15.6-20.2 10.4-36.1 25.9-46.9 45.9-10.8 19.8-16.3 43.2-16.3 69.8 0 24.1 4.9 47.1 14.3 68.2 9.8 21.6 24 38.1 42.6 49.6 18.6 11.4 42.7 17.1 71.6 17.1 28.4 0 52.9-7.5 72.7-22.2 20-14.7 33.8-36.6 41.4-64.5l2.2-8z"/>
	</g>
	<g id="Layer">
		<path id="Layer" fill-rule="evenodd" class="s0" d="m1539.6 63.8c-16.3 0-27.7-12.2-27.7-28.2 0-16.9 12.8-28.1 27.7-28.1 14.9 0 27.6 11.2 27.6 28.1 0 17-12.9 28.2-27.6 28.2zm0-51.4c-12.2 0-21.8 9.6-21.8 23.2 0 12.9 8.4 23.3 21.8 23.3 12.1 0 21.6-9.6 21.6-23.3-0.2-13.6-9.5-23.2-21.6-23.2zm-10.8 39.4v-31.3h11.8c7.6 0 11.5 2.7 11.5 9 0 5.7-3.5 8-8.2 8.6l8.8 13.7h-5.9l-8.2-13.5h-4.9v13.5zm10.8-17.8c3.9 0 7.4-0.4 7.4-4.9 0-3.9-3.7-4.3-6.8-4.3h-6.1v9.2z"/>
	</g>
</svg>