<svg version="1.2" xmlns="http://www.w3.org/2000/svg" viewBox="0 0 1580 1132" width="1580" height="1132">
	<title>Host_Hotels_Resorts_Inc_Investor_Presentation-1-pdf-svg</title>
	<defs>
		<clipPath clipPathUnits="userSpaceOnUse" id="cp1">
			<path d="m-9505.03-615.93h12220.75v9163.89h-12220.75z"/>
		</clipPath>
	</defs>
	<style>
		.s0 { fill: #000000 } 
	</style>
	<g id="Clip-Path: Page 1" clip-path="url(#cp1)">
		<g id="Page 1">
			<path id="Path 2" fill-rule="evenodd" class="s0" d="m553.3 262.3l165.5 22.9v98.4l-165.5 78.1zm0-187.5l162.1-74.7h3.4v195.1l-165.5 65.4zm240.2 104.3v-103.5l163.8-74.6h3.4v198.5zm0 95.9l167.2-74.7v184.2l-167.2 77.2zm-770.6 801v29.7c0 5.9 0 19.5 8.5 22h-30.6c7.7-2.5 6-16.1 6-22v-62c0-7.6 1.7-18.7-6-22h30.6c-8.5 3.3-8.5 14.4-8.5 22v19.5h60.3v-19.5c0-7.6 0-18.7-8.5-22h32.2c-9.3 3.3-7.6 14.4-7.6 22v62c0 5.9-1.7 19.5 7.6 22h-32.2c8.5-2.5 8.5-16.1 8.5-22v-29.7zm158.2 55.1c-32.6 0-59-25.2-59-56.5 0-31.2 26.4-56.4 59-56.4 32.6 0 59 25.2 59 56.4 0 31.3-26.4 56.5-59 56.5zm41.2-57.3c0-24.6-18.4-44.5-41.2-44.5-22.7 0-41.1 19.9-41.1 44.5 0 24.7 18.4 44.6 41.1 44.6 22.8 0 41.2-19.9 41.2-44.6zm73.8 33.6c0 9.3 0 14.4 8.5 20.3h-32.2c7.6-2.5 7.6-16.1 7.6-22v-73h-14.4c-7.7 0-14.5 1.7-19.5 6.8h-0.9l5.9-19.5c3.4 0 5.1 0 6.8 1.7h64.5c2.6 0 6 0 7.7-1.7l-5.1 19.5c-2.6-6.8-9.4-6.8-14.4-6.8h-14.5zm74.7 6.8l20.4 3.4c10.2 0 21.2-3.4 28.8-10.2h1.7l-7.6 21.2h-67.9c8.5-3.4 8.5-16.1 8.5-22.9v-61.1c0-8.5 0-19.5-8.5-22.9h51.8c3.4 0 5.9 0 7.6-1.7v19.5c-4.2-5.9-11-5.9-18.7-5.9-5.1 0-11.8 0-16.1 0.8v29.7h27.2v16.1h-1.7c-1.7-5.1-8.5-3.4-14.5-3.4h-11zm113.7 3.4c10.2 0 19.5-3.4 28-11.8h0.9l-9.4 22.9h-66.1c8.4-3.4 8.4-16.2 8.4-22.9v-61.1c0-7.7 0-19.6-8.4-23h30.5c-7.6 3.4-5.9 15.3-5.9 23v71.2zm107.7-76.3c-6.7-6-17.8-11.1-25.4-11.1-10.2 0-21.2 3.4-21.2 14.5 0 22.9 54.3 22.9 54.3 53.4 0 16.1-17 32.3-43.3 32.3-9.3 0-19.5 0-28.9-5.1l-3.3-18.7c8.4 7.6 22.9 12.7 35.6 12.7 7.6 0 22.9-5.1 22.9-16.1 0-26.3-56.9-21.2-56.9-55.1 0-21.3 21.3-28.9 41.6-28.9 8.5 0 16.2 1.7 24.6 3.4zm174 86.5c-5.1 0-11 0-14.4-2.5-6.8-3.4-14.4-10.2-19.5-15.3-7.7 15.3-19.5 19.5-34 19.5-19.5 0-36.5-11-36.5-30.5 0-16.1 11.1-25.5 22.1-35.6-5.9-6-12.7-12.8-12.7-22.1 0-13.6 12.7-22.9 25.4-22.9 12.8 0 22.9 9.3 22.9 22.9 0 11-6.7 17.8-14.4 23.8 23.8 22.9 48.4 48.3 78.9 62.7zm-72.9-54.3c-7.7 6-14.5 14.5-14.5 23.8 0 14.4 10.2 22.9 22.9 22.9 9.4 0 17.9-6.8 23.8-14.4zm13.6-34c0-6.7-5.1-10.1-11.9-10.1-4.2 0-9.3 3.4-9.3 8.5 0 5.9 5.9 12.7 11 17.8 5.1-3.4 10.2-10.2 10.2-16.2zm154.4-17.8c22.1 0 34 11.1 34 25.5 0 14.4-13.6 26.3-26.3 29.7l24.6 28.8c5.9 7.7 16.1 16.2 25.4 22.1h-14.4c-9.3 0-14.4-0.9-19.5-7.6l-19.5-24.7-16.1-23.7c13.5-1.7 29.7-6.8 29.7-22.9 0-11-10.2-17.8-21.3-17.8-3.3 0-8.4 0-11 1.7v72.9c0 6-1.7 19.5 7.7 22.1h-32.3c8.5-2.6 8.5-16.1 8.5-22.1v-61.9c0-7.6 0-18.7-8.5-22.1zm91.7 91.7l21.2 3.4c11 0 22.9-3.4 30.5-9.4l-7.6 20.4h-67.9c9.3-2.6 7.6-16.1 7.6-22.1v-61.9c0-7.6 1.7-18.7-7.6-22.1h53.5c0.8 0 4.2 0 5.9-1.7h1.7v19.5h-1.7c-5.1-6.7-11-6.7-17.8-6.7-6 0-12.8 0-17.8 1.7v28.8h28v16.1c-3.4-4.2-10.2-2.5-14.5-2.5h-13.5zm135.7-73c-6.7-6.8-16.1-11-26.3-11-7.6 0-20.3 2.5-20.3 14.4 0 22.1 56 22.1 56 52.6 0 17-17.8 33.1-43.3 33.1-9.3 0-19.5 0-28.9-5.1l-5-19.5c9.3 8.5 22.9 12.7 35.6 12.7 9.3 0 22.1-4.2 22.1-16.1 0-25.5-54.4-21.2-54.4-55.2 0-20.3 21.3-28.8 39.9-28.8 8.5 0 16.2 1.7 24.6 3.4zm90 90.8c-32.8 0-59.4-25.4-59.4-56.9 0-31.4 26.6-56.8 59.4-56.8 32.9 0 59.4 25.4 59.4 56.8 0 31.5-26.5 56.9-59.4 56.9zm40.7-57.7c0-24.4-18-44.1-40.3-44.1-22.3 0-40.3 19.7-40.3 44.1 0 24.4 18 44.1 40.3 44.1 22.3 0 40.3-19.7 40.3-44.1zm77.3-52.6c20.3 0 32.2 11.9 32.2 26.3 0 14.4-11.9 25.4-26.3 28.8l24.6 28.9c6 8.5 17.8 16.1 25.5 22.9h-14.4c-8.5 0-14.5-1.7-19.6-8.5l-19.5-23.8-14.4-24.6c13.6-1.7 28-5.9 28-22 0-11.9-10.2-17.8-21.2-17.8-3.4 0-6.8 0-11.1 1.7v72.1c0 6.8 0 19.5 7.7 22.9h-30.6c8.5-3.4 6.8-16.1 6.8-22.9v-61.1c0-8.5 1.7-19.5-6.8-22.9zm101.9 85.7c0 9.3 0 14.4 9.3 21.2h-32.2c8.4-3.4 6.7-16.1 6.7-22.9v-72.1h-14.4c-6.8 0-15.3 0.8-19.5 5.9l4.2-19.5h1.7c1.7 0 3.4 0 6.8 1.7h64.5c1.7 0 5.1 0 6-1.7h1.7l-6 19.5c-1.7-5.9-8.5-5.9-14.4-5.9h-14.4zm113.7-66.2c-6-6.8-16.1-11.9-23.8-11.9-9.3 0-21.2 3.4-21.2 14.4 0 22.9 55.2 22.9 55.2 53.5 0 16.1-17.8 32.2-43.3 32.2-10.2 0-19.5 0-29.7-5.1l-4.3-18.6c9.4 7.6 22.1 12.7 34.8 12.7 10.2 0 24.7-5.1 24.7-16.1 0-26.3-56.9-21.2-56.9-55.2 0-21.2 21.2-28.8 40.7-28.8 7.7 0 17.8 1.7 23.8 3.4zm-1428.3-273.3v107c0 25.4-3.4 67.8 25.4 78.9v1.7h-109.4v-1.7c28.8-11.1 24.6-53.5 24.6-78.9v-221.5c0-25.5 4.2-69.6-24.6-80.6v-1.7h109.4v1.7c-28.8 11-25.4 55.1-25.4 80.6v73h211.3v-73c0-25.5 2.6-69.6-26.3-80.6v-1.7h111.2v1.7c-28.9 11-25.5 55.1-25.5 80.6v221.5c0 25.4-3.4 67.8 25.5 78.9v1.7h-111.2v-1.7c28.9-11.1 26.3-53.5 26.3-78.9v-107zm770.6-6.7c0 118.7-98.5 204.4-214.7 204.4-113.7 0-212.2-82.3-212.2-201.9 0-111.2 96.8-204.5 219-201.9 122.2 0 207.9 94.1 207.9 199.4zm-360.7-3.4c0 82.3 57.7 166.3 149.4 166.3 88.2 0 145.1-64.5 145.1-151.9 0-85.7-55.2-168-146.8-168-90 0-147.7 66.2-147.7 153.6zm655.2-116.3c-22.9-22.9-57.7-35.6-90-35.6-33.9 0-75.5 12.7-75.5 53.4 0 78.9 199.4 77.2 199.4 185 0 63.6-64.5 121.3-156.1 121.3-35.7 0-71.3-5-103.6-17.8l-17.8-72.1c35.7 30.5 82.3 48.4 127.3 48.4 34 0 84-19.6 84-60.3 0-91.6-199.4-75.5-199.4-200.2 0-72.2 73.8-100.2 146-100.2 29.7 0 58.5 3.4 85.7 11.9zm251.2 238.5c0 33.9 0 56.8 30.5 74.6v1.7h-114.5v-1.7c29.7-11 26.3-53.4 26.3-78.9v-262.2h-51.8c-25.5 0-51.8 6.8-69.6 24.6h-0.8l18.6-69.5h1.7c8.5 3.4 14.5 3.4 22.9 3.4h231.7c10.2 0 19.6 0 27.2-3.4h1.7l-18.7 69.5h-1.7c-8.5-21.2-30.5-24.6-50.1-24.6h-53.4zm155.7 189.2c-12.9 0-23.3-10.4-23.3-23.3 0-12.9 10.4-23.3 23.3-23.3 12.9 0 23.3 10.4 23.3 23.3 0 12.9-10.4 23.3-23.3 23.3zm20-23.3c0-11-8.8-19.9-19.6-19.9-10.8 0-19.5 8.9-19.5 19.9 0 11 8.7 20 19.5 20 10.8 0 19.6-9 19.6-20zm-23.8 14h-5.1v-26.3c3.4-1.7 5.1-1.7 7.6-1.7 5.1 0 6.8 1.7 8.5 1.7 1.7 1.7 3.4 3.4 3.4 6.8 0 3.4-3.4 4.2-6.8 5.9 3.4 0 5.1 1.7 5.1 6.8 1.7 3.4 1.7 5.1 1.7 6.8h-5.1c0-1.7 0-3.4-1.7-6.8q0-5.1-5.1-5.1h-2.5zm0-14.4h2.5c3.4 0 6.8-1.7 6.8-5.1 0-1.7-1.7-4.2-6.8-4.2h-2.5z"/>
		</g>
	</g>
</svg>