<svg version="1.2" xmlns="http://www.w3.org/2000/svg" viewBox="0 0 1574 399" width="1574" height="399">
	<title>logo (34)-svg</title>
	<style>
		.s0 { fill: #00abc8 } 
		.s1 { fill: #231f20 } 
	</style>
	<path id="Layer" class="s0" d="m185.7 74.3v98.7h107.3v-98.7h83.3c1.6 0 3.1 0.3 4.6 0.9 1.5 0.7 2.8 1.6 4 2.7 1.1 1.1 2 2.5 2.6 3.9 0.6 1.5 0.9 3.1 0.9 4.7v104.1h89.4v-138.5c0-6.8-1.3-13.5-3.9-19.8-2.7-6.3-6.5-12-11.3-16.9-4.8-4.8-10.5-8.6-16.8-11.2-6.3-2.6-13.1-3.9-19.9-3.9h-373.1c-6.8 0-13.6 1.3-19.9 3.9-6.3 2.6-12 6.4-16.8 11.2-4.8 4.9-8.6 10.6-11.2 16.9-2.7 6.3-4 13-4 19.8v138.5h89.5v-104.1c0-1.6 0.4-3.2 1-4.7 0.6-1.4 1.5-2.8 2.6-3.9 1.1-1.1 2.5-2 4-2.7 1.4-0.6 3-0.9 4.6-0.9z"/>
	<path id="Layer" class="s1" d="m293 324.8v-93.1h-107.3v93.1h-83.2c-1.6 0-3.2-0.4-4.7-1-1.4-0.6-2.7-1.5-3.9-2.6-1.1-1.2-2-2.5-2.6-4-0.6-1.4-0.9-3-0.9-4.6v-97.6h-89.5v132c0 6.8 1.3 13.5 4 19.8 2.6 6.3 6.4 12.1 11.2 16.9 4.8 4.8 10.5 8.6 16.8 11.2 6.3 2.7 13.1 4 19.9 4h373c6.9 0 13.6-1.3 19.9-4 6.3-2.6 12-6.4 16.8-11.2 4.9-4.8 8.7-10.6 11.3-16.9 2.6-6.3 3.9-13 3.9-19.8v-132h-89.3v97.6c0 1.6-0.3 3.2-0.9 4.7-0.6 1.5-1.5 2.8-2.6 3.9-1.2 1.2-2.5 2.1-4 2.7-1.5 0.6-3 0.9-4.6 0.9z"/>
	<path id="Layer" class="s1" d="m549.6 46.4h44.9v53.8h56.3v-53.8h44.9v145.8h-44.9v-54.5h-56.3v54.6h-44.9z"/>
	<path id="Layer" class="s1" d="m1202.5 46.4l-20.8 85.8h-0.5l-20.8-85.8h-63.8v145.8h44.9v-82.5l23.2 82.5h33.5l23.2-82.4v82.4h44.9v-145.8h-63.8z"/>
	<path id="Layer" class="s1" d="m1290.7 46.4h125.4v37.4h-80.5v18.2h73.5v34.6h-73.5v18.2h82.7v37.4h-127.6z"/>
	<path id="Layer" class="s1" d="m1483 83.8h-45.7v-37.4h136v37.4h-45.5v108.4h-44.9z"/>
	<path id="Layer" class="s1" d="m1034.9 46.4l-17.8 88.1-17.8-88.1h-42.6l-17.8 88.1-17.8-88.1h-44.1l33.2 145.8h54l13.8-71.7 13.7 71.7h54l33.3-145.8h-44.1z"/>
	<path id="Layer" fill-rule="evenodd" class="s1" d="m873.5 119.3c0.1 5-0.3 10.1-1.2 15-0.9 5-2.4 9.8-4.3 14.5-1.9 4.7-4.3 9.1-7.1 13.3-2.9 4.2-6.1 8-9.8 11.5q-22.8 22.3-57.7 22.2-34.9 0-57.6-22.4c-3.6-3.5-6.9-7.3-9.8-11.4-2.8-4.2-5.2-8.6-7.1-13.3-2-4.6-3.4-9.5-4.3-14.4-1-4.9-1.4-10-1.3-15-0.1-5 0.3-10.1 1.3-15 0.9-5 2.3-9.8 4.3-14.5 1.9-4.6 4.3-9.1 7.2-13.2 2.8-4.2 6.1-8 9.7-11.5 7.8-7.2 16.8-12.9 26.7-16.7 9.8-3.9 20.3-5.9 30.9-5.9 10.5 0 21 2 30.9 5.9 9.8 3.8 18.8 9.5 26.6 16.7 3.7 3.5 6.9 7.3 9.8 11.5 2.8 4.1 5.2 8.6 7.2 13.2 1.9 4.7 3.4 9.5 4.3 14.5 0.9 4.9 1.4 10 1.3 15zm-46.2-0.2q0-3.3-0.5-6.6-0.6-3.2-1.8-6.3-1.2-3.1-2.9-5.9-1.8-2.8-4.1-5.1c-3.1-3.3-7-6-11.2-7.7-4.2-1.8-8.7-2.7-13.3-2.7-4.6 0-9.1 1-13.3 2.9-4.2 1.8-8 4.5-11.1 7.8q-2.3 2.4-4.1 5.1-1.8 2.8-3 5.8-1.3 3.1-1.9 6.3-0.6 3.3-0.6 6.6-0.1 3.3 0.4 6.5 0.6 3.3 1.7 6.3 1.2 3.1 2.9 5.9 1.8 2.8 4 5.2 2.4 2.5 5.3 4.4 2.9 1.9 6.1 3.2 3.2 1.3 6.6 1.9 3.4 0.6 6.9 0.4 3.4 0.1 6.8-0.6 3.3-0.7 6.5-2.1 3.1-1.3 5.9-3.3 2.8-2 5.1-4.6 2.3-2.3 4.1-5 1.8-2.7 3-5.8 1.3-3 1.9-6.2 0.6-3.2 0.6-6.4z"/>
	<path id="Layer" fill-rule="evenodd" class="s1" d="m666.1 347h-36.3l-7.2-21.8h-39.5l-6.9 21.8h-36.1l40-116.4h46.8zm-63-90.2l-13.2 40.8h25.3z"/>
	<path id="Layer" class="s1" d="m677.1 347v-116.4h90.8v28.4h-55v15.3h43.5v28.6h-43.5v15.7h55v28.5z"/>
	<path id="Layer" fill-rule="evenodd" class="s1" d="m819.6 347h-36.7v-116.4h52.8c32.4 0 49.5 14.9 49.5 38.1 0.1 3.6-0.3 7.2-1.3 10.7-1 3.5-2.5 6.8-4.6 9.8-2 3-4.5 5.6-7.3 7.9-2.9 2.2-6.1 3.9-9.5 5.1l28.9 44.8h-40.8l-20.7-35.4-10.2 0.9zm11.9-60.6c11.2-1.1 15.6-5.4 15.6-14.9 0-8.6-5-12.9-18.2-12.9h-10.1v27.8z"/>
	<path id="Layer" class="s1" d="m1088.8 313.4c0-5.5-8.2-7.2-21.8-11.2-17.1-4.8-38.6-13-38.6-36.6 0-22.8 15.8-37.6 47.6-37.6q6.1-0.2 12.1 0.4 6 0.6 12 1.9 5.9 1.3 11.6 3.3 5.7 1.9 11.2 4.6l-5.8 30q-4.7-2.4-9.7-4.3-5-1.8-10.2-3.2-5.1-1.3-10.4-2.1-5.3-0.8-10.6-1.1c-7.1 0-11.2 1.5-11.2 6.2 0 5.4 11.2 8 22.7 11.2 18.4 5.2 37.8 13.2 37.8 35.5 0 23.3-17.5 39.3-51.2 39.3-19.2 0-37.2-4.6-47.8-10.4l5.6-30q4.9 2.6 10.2 4.5 5.2 2 10.6 3.3 5.4 1.4 11 2.1 5.5 0.8 11.1 0.9c8.3 0 13.8-1.8 13.8-6.7z"/>
	<path id="Layer" fill-rule="evenodd" class="s1" d="m1189.1 315.7h-9.3v31.3h-36.6v-116.4h48.4c33 0 51.7 16.7 51.7 41.7 0 27.9-18.6 43.4-54.2 43.4zm-0.3-57.2h-9.9v30.3l9.2-0.1c13.1-0.2 19.1-5.5 19.1-15.7-0.2-9.5-6.5-14.5-18.4-14.5z"/>
	<path id="Layer" fill-rule="evenodd" class="s1" d="m1360.5 347h-36.4l-7.2-21.8h-39.4l-6.9 21.8h-36.1l40-116.4h46.7zm-62.7-90.2l-13.2 40.8h25.3z"/>
	<path id="Layer" class="s1" d="m1454.7 266.3q-3.2-1.8-6.5-3.3-3.4-1.4-7-2.4-3.5-1-7.1-1.5-3.6-0.5-7.3-0.6c-17.7 0-28.7 11.5-28.7 30 0 18.4 9.9 30.5 28.7 30.5q3.9 0 7.8-0.6 3.9-0.5 7.6-1.6 3.8-1.1 7.4-2.7 3.6-1.6 6.9-3.7l8 31.5c-9 4.7-25.7 7.8-39.5 7.8-38.9 0-63.6-20.2-63.6-60.5 0-37.8 24.3-61.4 65.1-61.4q5.1 0 10.1 0.5 5 0.5 10 1.5 4.9 1.1 9.7 2.6 4.9 1.5 9.5 3.5z"/>
	<path id="Layer" class="s1" d="m1477 347v-116.4h90.7v28.4h-55.1v15.3h43.6v28.6h-43.6v15.7h55.1v28.5z"/>
	<path id="Layer" fill-rule="evenodd" class="s1" d="m1017.1 287.7q0.1 5.9-1 11.7-1.1 5.8-3.3 11.3-2.3 5.4-5.6 10.3-3.3 4.9-7.5 9c-6.1 5.5-13.2 9.9-20.8 12.9-7.7 2.9-15.9 4.4-24.1 4.4-8.2 0-16.4-1.5-24-4.4-7.7-3-14.7-7.4-20.8-12.9-5.6-5.5-10-12.1-13-19.3-3-7.3-4.6-15-4.6-22.9 0-7.8 1.6-15.6 4.6-22.8 3-7.2 7.4-13.8 13-19.3 6-5.6 13-10 20.7-13 7.7-3 15.8-4.5 24-4.5 8.3 0 16.4 1.5 24.1 4.5 7.6 3 14.7 7.4 20.7 13q4.3 4 7.6 8.9 3.3 4.8 5.6 10.3 2.2 5.4 3.4 11.2 1.1 5.8 1 11.6zm-36-0.1q0 0 0 0.1 0 0 0 0zm-0.4-4.9q-0.4-2.5-1.3-4.9-1-2.4-2.3-4.6-1.4-2.2-3.1-4-1.9-2-4.1-3.5-2.2-1.6-4.7-2.6-2.5-1.1-5.1-1.6-2.6-0.4-5.3-0.4-2.7 0-5.3 0.5-2.6 0.6-5.1 1.7-2.4 1-4.6 2.6-2.1 1.6-3.9 3.6c-2.3 2.4-4.1 5.3-5.4 8.4-1.2 3.2-1.9 6.5-1.9 9.9 0 3.4 0.6 6.7 1.7 9.9 1.2 3.1 3 6.1 5.3 8.6q1.8 1.9 4.1 3.4 2.2 1.5 4.7 2.5 2.5 1 5.2 1.5 2.6 0.5 5.3 0.4 2.7 0 5.3-0.5 2.6-0.6 5.1-1.6 2.4-1.1 4.6-2.6 2.2-1.6 4-3.6 1.7-1.8 3.1-3.9 1.3-2.1 2.3-4.4 0.9-2.4 1.4-4.9 0.4-2.4 0.4-4.8 0.1-2.6-0.4-5.1z"/>
</svg>