<svg version="1.2" xmlns="http://www.w3.org/2000/svg" viewBox="0 0 1498 1498" width="1498" height="1498">
	<title>HPQ-svg</title>
	<style>
		.s0 { fill: #000000 } 
	</style>
	<g id="g3017">
		<g id="g3061">
			<g id="g3021">
				<path id="path3023" class="s0" d="m749 1497.5c-7.4 0-14.9-0.1-22.2-0.3l152.9-420.4h210.5c37 0 77.6-28.5 90.2-63.2l165.9-455.8c27.2-74.6-15.5-135.7-95-135.7h-292l-245.1 673.4h-0.1l-138.9 381.7c-329.5-78.4-574.7-374.7-574.7-728.2 0-343.4 231.2-632.7 546.4-720.9l-143.3 394h-0.1l-238.3 654.7h158.7l202.6-556.3h119.3l-202.7 556.3h158.6l188.8-519c27.2-74.6-15.6-135.7-94.9-135.7h-133.3l153.1-420.8q16.7-0.8 33.6-0.8c413.4 0 748.5 335.1 748.5 748.5 0 413.4-335.1 748.5-748.5 748.5z"/>
			</g>
			<g id="g3025">
				<path id="path3027" class="s0" d="m1035 978h-119.2l166.9-457.9h119.2z"/>
			</g>
		</g>
	</g>
</svg>