<svg version="1.2" xmlns="http://www.w3.org/2000/svg" viewBox="0 0 1566 708" width="1566" height="708">
	<title>Hubbell-svg</title>
	<defs>
		<clipPath clipPathUnits="userSpaceOnUse" id="cp1">
			<path d="m-3112.49-8062.68h15786.34v10106.21h-15786.34z"/>
		</clipPath>
		<clipPath clipPathUnits="userSpaceOnUse" id="cp2">
			<path d="m-3112.49-8062.68h15786.34v10106.21h-15786.34z"/>
		</clipPath>
	</defs>
	<style>
		.s0 { fill: #ffdd00 } 
		.s1 { fill: #ffffff } 
		.s2 { fill: #000000 } 
	</style>
	<g id="layer1">
		<g id="g166">
			<g id="Clip-Path: g168" clip-path="url(#cp1)">
				<g id="g168">
					<g id="g174">
						<path id="path176" class="s0" d="m1448.6 0.9h-1331.3c-81.4 0-117.3 39.3-117.3 120.3v465.9c0 81 35.9 120.4 117.3 120.4h1331.3c81.5 0 117.3-39.4 117.3-120.4v-465.9c0-81-35.8-120.3-117.3-120.3z"/>
					</g>
					<g id="g178">
						<path id="path180" class="s1" d="m783 613.6c-406.5 0-712.9-111.5-712.9-259.4 0-148 306.4-259.5 712.9-259.5 406.4 0 712.9 111.5 712.9 259.5 0 147.9-306.5 259.4-712.9 259.4z"/>
					</g>
					<g id="g182">
						<path id="path184" fill-rule="evenodd" class="s2" d="m1480 354.2c0 141.3-299.7 247.9-697 247.9-397.3 0-697-106.6-697-247.9 0-141.4 299.7-247.9 697-247.9 397.3 0 697 106.5 697 247.9zm-9.4 0c0-104.2-183.3-190.8-446.6-224 117.9 23.1 210.4 65.1 263.3 117.9h-11.3c-67.3-61-193.1-107.8-352.4-127.3 109 19.6 191.6 67.1 236.3 127.3h-10.7c-53.5-64.3-154.2-114.1-289.1-130.9 83.1 17.5 142.1 69.7 172.5 130.9h-10.7c-38.5-71-114.4-117.2-198-132-1.3 0-2.6-0.1-3.9-0.1 46.5 19.2 76.6 89.7 85.2 132.1h-10.7c-16.8-78.3-66.8-130.1-108.6-132.4q-1.5 0-2.9 0c-0.9 0-1.8 0-2.8 0-41 2.3-91.9 54.1-108.7 132.4h-10.7c8.6-42.4 38.7-112.9 85.2-132.1-1.3 0-2.6 0.1-3.9 0.1-83.7 14.8-159.5 61-198 132h-10.7c30.4-61.2 89.3-113.4 172.5-130.9-134.9 16.8-235.6 66.6-289.1 130.9h-10.8c44.8-60.2 127.4-107.7 236.4-127.3-159.4 19.5-285.1 66.3-352.4 127.3h-11.3c52.9-52.8 145.4-94.8 263.2-117.9-263.2 33.2-446.5 119.8-446.5 224 0 104.1 183.3 190.7 446.5 223.9-117.8-23-210.3-65.1-263.2-117.8h11.3c67.3 60.9 193 107.8 352.4 127.3-109-19.7-191.6-67.2-236.4-127.3h10.8c53.5 64.3 154.2 114 289.1 130.8-83.2-17.4-142.1-69.7-172.5-130.8h10.7c38.5 70.9 114.3 117.2 198 131.9 1.3 0 2.6 0.1 3.9 0.1-46.5-19.2-76.6-89.7-85.2-132h10.7c16.8 78.3 67.7 130.1 108.7 132.3 1 0 1.9 0 2.8 0q1.4 0 2.9 0c41.8-2.3 91.8-54 108.6-132.3h10.7c-8.6 42.3-38.7 112.8-85.2 132 1.3 0 2.6-0.1 4-0.1 83.6-14.7 159.4-61 197.9-131.9h10.7c-30.4 61.1-89.4 113.4-172.5 130.8 134.9-16.8 235.6-66.5 289.1-130.8h10.7c-44.7 60.1-127.3 107.6-236.3 127.3 159.3-19.5 285.1-66.4 352.4-127.3h11.3c-52.9 52.7-145.4 94.8-263.2 117.8 263.2-33.2 446.5-119.8 446.5-223.9z"/>
					</g>
				</g>
			</g>
		</g>
		<g id="g186">
			<path id="path188" class="s2" d="m351.1 369.2v55.1h40.3v-140.6h-40.3v51h-85.1v-51h-40.3v140.6h40.3v-55.1"/>
		</g>
		<g id="g190">
			<g id="Clip-Path: g192" clip-path="url(#cp2)">
				<g id="g192">
					<g id="g198">
						<path id="path200" class="s2" d="m491.2 428.1c61.9 0 83-9.5 83-51.3v-93.1h-40.3v84.6c0 22-6.7 27.6-29.8 27.6h-25.8c-23.1 0-29.8-5.6-29.8-27.6v-84.6h-40.3v93.1c0 41.8 21.1 51.3 83 51.3z"/>
					</g>
					<g id="g202">
						<path id="path204" fill-rule="evenodd" class="s2" d="m591.3 283.7h107.5c28.2 0 43.1 11.6 43.1 37.2 0 17.2-8.2 29.2-18.3 33.1 15.7 3.8 22.4 14.4 22.4 31.1 0 34.3-15.3 39.2-47.2 39.2h-107.5zm40.1 83.3v27.8h63.7c17.6 0 17.6-27.8 0-27.8zm59.6-26.9c16.6 0 16.6-26 0-26h-59.6v26z"/>
					</g>
					<g id="g206">
						<path id="path208" fill-rule="evenodd" class="s2" d="m760.2 283.7h107.6c28.2 0 43.1 11.6 43.1 37.2 0 17.2-8.2 29.2-18.3 33.1 15.6 3.8 22.3 14.4 22.3 31.1 0 34.3-15.2 39.2-47.1 39.2h-107.6zm40.2 83.3v27.8h63.6c17.7 0 17.7-27.8 0-27.8zm59.7-26.9c16.5 0 16.5-26 0-26h-59.7v26z"/>
					</g>
				</g>
			</g>
		</g>
		<g id="g210">
			<path id="path212" class="s2" d="m930.6 424.3h140.5v-30.5h-99.5v-25.5h94.6v-28.6h-94.6v-23.9h97.2v-32.1h-138.2"/>
		</g>
		<g id="g214">
			<path id="path216" class="s2" d="m1084.7 283.7v140.6h133v-30.5h-92.7v-110.1"/>
		</g>
		<g id="g218">
			<path id="path220" class="s2" d="m1228.1 283.7v140.6h133.1v-30.5h-92.7v-110.1"/>
		</g>
		<g id="g222">
		</g>
	</g>
</svg>