<svg version="1.2" baseProfile="tiny-ps" xmlns="http://www.w3.org/2000/svg" viewBox="0 0 1580 326" width="1580" height="326">
	<title>Humana_logo-svg</title>
	<style>
		tspan { white-space:pre }
		.shp0 { fill: #4e8416 } 
	</style>
	<g id="layer1">
		<path id="path9738" fill-rule="evenodd" class="shp0" d="M489.22 77.66L489.22 309.75C485.17 311.1 436.59 324.6 388.02 324.6C327.3 324.6 289.51 301.66 289.51 230.14L289.51 77.66L338.09 77.66C342.14 77.66 346.19 81.71 346.19 87.11L346.19 230.14C346.19 265.22 356.98 277.37 389.37 277.37C404.21 277.37 419.05 274.67 432.55 271.97L432.55 87.11C432.55 81.71 436.59 77.66 441.99 77.66L489.22 77.66ZM1138.27 321.9L1138.27 88.46C1142.32 87.11 1190.9 73.61 1239.47 73.61C1300.19 73.61 1337.98 96.55 1337.98 168.07L1337.98 321.9L1289.4 321.9C1285.35 321.9 1281.3 317.85 1281.3 312.45L1281.3 168.07C1281.3 132.99 1270.51 120.84 1238.12 120.84C1223.28 120.84 1208.44 123.54 1194.94 126.24L1194.94 312.45C1194.94 317.85 1189.55 321.9 1185.5 321.9L1138.27 321.9ZM1088.34 87.11L1088.34 323.25C1086.99 323.25 1039.77 323.25 1039.77 323.25C1035.72 323.25 1031.67 319.2 1031.67 315.15L1031.67 300.31C1024.92 309.75 1000.63 325.95 977.69 325.95C931.82 325.95 888.64 298.96 888.64 218L888.64 181.56C888.64 107.35 927.77 73.61 991.19 73.61C1042.46 73.61 1089.69 87.11 1088.34 87.11ZM1033.02 124.89C1027.62 123.54 1014.13 122.19 991.19 122.19C962.85 122.19 945.31 135.68 945.31 182.91L945.31 216.65C945.31 258.48 958.8 278.72 991.19 277.37C1014.13 277.37 1022.22 271.97 1033.02 262.53L1033.02 124.89ZM1481.01 73.61C1532.29 73.61 1579.52 87.11 1579.52 87.11L1579.52 323.25C1578.17 323.25 1530.94 323.25 1530.94 323.25C1526.89 323.25 1522.84 319.2 1522.84 315.15L1522.84 300.31C1516.1 309.75 1491.81 325.95 1468.87 325.95C1421.64 325.95 1378.46 298.96 1378.46 218L1378.46 181.56C1378.46 107.35 1417.59 73.61 1481.01 73.61ZM1522.84 124.89C1517.44 123.54 1503.95 122.19 1481.01 122.19C1452.67 122.19 1435.13 134.33 1435.13 182.91L1435.13 216.65C1435.13 258.48 1448.63 277.37 1481.01 277.37C1503.95 277.37 1512.05 271.97 1522.84 262.53L1522.84 124.89ZM0.75 321.9C0.75 321.9 0.75 3.44 0.75 0.75L52.02 0.75C57.42 0.75 60.12 6.15 61.47 8.84L61.47 107.35C61.47 119.49 70.91 130.29 84.41 130.29L181.56 130.29L181.56 8.84C181.56 4.8 185.61 0.75 189.66 0.75L240.94 0.75C240.94 3.45 240.94 321.9 240.94 321.9C238.24 321.9 189.66 321.9 189.66 321.9C185.61 321.9 181.56 317.85 181.56 313.8L181.56 204.5C181.56 191.01 170.77 178.86 154.58 178.86L60.12 178.86L60.12 313.8C60.12 317.85 56.07 321.9 52.02 321.9C52.02 321.9 8.84 321.9 0.75 321.9ZM760.44 73.61C810.37 73.61 849.51 95.2 848.15 157.27L848.15 323.25C844.11 323.25 799.58 323.25 799.58 323.25C794.18 323.25 791.48 317.85 791.48 313.8L791.48 165.37C791.48 134.33 780.69 122.19 755.05 122.19C742.9 122.19 730.76 126.24 721.31 132.98L721.31 313.8C721.31 319.2 718.61 323.25 713.22 323.25L672.74 323.25C667.34 323.25 664.64 317.85 664.64 313.8L664.64 169.42C664.64 135.68 656.54 122.19 622.81 122.19C614.71 122.19 605.27 123.54 593.12 126.24L593.12 313.8C593.12 319.2 590.42 323.25 585.03 323.25L536.45 323.25L536.45 89.81C541.85 87.11 579.63 73.61 624.16 73.61C653.84 73.61 678.13 79.01 695.67 92.5C707.82 84.41 733.46 73.61 760.44 73.61L760.44 73.61Z" />
	</g>
</svg>