<svg version="1.2" xmlns="http://www.w3.org/2000/svg" viewBox="0 0 1494 296" width="1494" height="296">
	<title>lockup-svg</title>
	<style>
		.s0 { fill: #766d65 } 
		.s1 { fill: #5ba63c } 
	</style>
	<path id="Layer" fill-rule="evenodd" class="s0" d="m1009.7 93.6c-1.7-4.2-4.3-8.1-7.6-11.3-3.2-3.3-7.1-5.9-11.4-7.6-4.2-1.8-8.8-2.7-13.4-2.7h-77.9q-1.1 0.1-2.1 0.5-0.9 0.4-1.7 1.1-0.7 0.8-1.2 1.7-0.4 1-0.4 2.1v146.5h-0.5q0 0.7 0.3 1.3 0.2 0.7 0.7 1.2 0.5 0.4 1.1 0.7 0.6 0.2 1.3 0.2h41.9q0.7 0 1.3-0.2 0.7-0.3 1.1-0.7 0.5-0.5 0.8-1.2 0.2-0.6 0.2-1.3v-117.1h11.1c1.4 0 2.7 0.3 3.9 0.8 1.3 0.5 2.4 1.3 3.3 2.2 1 0.9 1.7 2 2.2 3.3 0.5 1.2 0.8 2.5 0.8 3.9v106.9q0 0.7 0.3 1.3 0.2 0.7 0.7 1.2 0.5 0.4 1.1 0.7 0.6 0.2 1.3 0.2h42.1q0.7 0 1.3-0.2 0.7-0.3 1.2-0.7 0.4-0.5 0.7-1.2 0.2-0.6 0.2-1.3v-116.8c0-4.7-0.9-9.2-2.7-13.5zm315.3-21.8q-3-0.6-6.1-1.1-3.1-0.4-6.3-0.7-3.1-0.3-6.2-0.5-3.2-0.1-6.3-0.1-3.1 0-6.3 0.2-3.1 0.2-6.2 0.5-3.1 0.3-6.3 0.7-3.1 0.4-6.1 1c-21.8 4.8-34.4 13-34.4 37.2v81.1c0 24.2 12.6 32.4 34.4 37.2q3 0.6 6.1 1.1 3.1 0.4 6.3 0.7 3.1 0.3 6.2 0.5 3.2 0.1 6.3 0.1 3.1 0 6.3-0.2 3.1-0.1 6.2-0.4 3.1-0.3 6.3-0.8 3.1-0.4 6.1-1c21.8-4.8 34.4-13 34.4-37.2v-80.9c-0.2-24.4-12.8-32.3-34.4-37.4zm-12.8 110.4c0 1.3-0.3 2.6-0.8 3.8-0.5 1.3-1.3 2.4-2.2 3.3-0.9 1-2.1 1.7-3.3 2.2-1.2 0.5-2.5 0.8-3.9 0.8h-4.1c-1.3 0-2.6-0.3-3.9-0.8-1.2-0.5-2.3-1.2-3.2-2.2-1-0.9-1.7-2-2.3-3.3-0.5-1.2-0.7-2.5-0.8-3.8v-65.2c0.1-1.4 0.3-2.7 0.8-3.9 0.6-1.2 1.3-2.4 2.3-3.3 0.9-0.9 2-1.7 3.2-2.2 1.3-0.5 2.6-0.8 3.9-0.8h4.1c1.4 0 2.7 0.3 3.9 0.8 1.2 0.5 2.4 1.3 3.3 2.2 0.9 0.9 1.7 2.1 2.2 3.3 0.5 1.2 0.8 2.5 0.8 3.9zm-86.7-110.4h-18.4v-28.5q0-0.7-0.2-1.3-0.3-0.6-0.8-1.1-0.4-0.5-1.1-0.7-0.6-0.3-1.3-0.3h-39.9q-0.7 0-1.3 0.3-0.7 0.2-1.1 0.7-0.5 0.5-0.8 1.1-0.2 0.6-0.2 1.3v148.8c0 4.6 0.9 9.1 2.7 13.4 1.8 4.2 4.3 8.1 7.6 11.3 3.3 3.3 7.1 5.9 11.4 7.6 4.2 1.8 8.8 2.7 13.4 2.7h30q0.7 0 1.3-0.3 0.7-0.2 1.1-0.7 0.5-0.5 0.8-1.1 0.2-0.6 0.2-1.3v-27.8q0-0.7-0.2-1.3-0.3-0.6-0.8-1.1-0.4-0.5-1.1-0.7-0.6-0.3-1.3-0.3h-8.2c-1.3 0-2.7-0.2-3.9-0.7-1.2-0.6-2.3-1.3-3.3-2.2-0.9-1-1.7-2.1-2.2-3.3-0.5-1.3-0.8-2.6-0.8-3.9v-68.6h18.4q0.7 0 1.3-0.2 0.7-0.3 1.1-0.7 0.5-0.5 0.8-1.2 0.2-0.6 0.2-1.3v-35.2q0-0.7-0.2-1.3-0.3-0.7-0.8-1.1-0.4-0.5-1.1-0.8-0.6-0.2-1.3-0.2zm-80.7 2.1q-0.2-0.6-0.7-1.1-0.5-0.5-1.1-0.7-0.6-0.3-1.3-0.3h-79.9c-4.6 0-9.1 0.9-13.4 2.6-4.2 1.8-8.1 4.4-11.4 7.6-3.2 3.3-5.8 7.1-7.6 11.4-1.8 4.2-2.7 8.8-2.7 13.4v85.3c0 4.6 0.9 9.1 2.7 13.4 1.8 4.2 4.4 8.1 7.6 11.3 3.3 3.3 7.2 5.9 11.4 7.6 4.3 1.8 8.8 2.7 13.4 2.7h34.7v20.5c0 1.1-0.2 2.2-0.7 3.2-0.4 1-1 1.9-1.7 2.6-0.8 0.8-1.7 1.4-2.7 1.8-1 0.4-2.1 0.6-3.2 0.6h-4.8c-1.1 0-2.2-0.2-3.2-0.6-1-0.4-1.9-1-2.7-1.8-0.7-0.7-1.3-1.6-1.7-2.6-0.5-1-0.7-2.1-0.7-3.2v-6.5q0.1-0.7-0.2-1.3-0.2-0.7-0.7-1.1-0.5-0.5-1.1-0.8-0.7-0.2-1.3-0.2h-41.9q-0.7 0-1.3 0.2-0.7 0.3-1.2 0.8-0.4 0.4-0.7 1.1-0.2 0.6-0.2 1.3v12.3c0 24.1 12.6 32.3 34.4 37.2q3 0.6 6.1 1.1 3.1 0.4 6.3 0.7 3.1 0.3 6.2 0.5 3.2 0.1 6.3 0.1 3.1 0 6.3-0.2 3.1-0.2 6.2-0.5 3.1-0.3 6.3-0.7 3.1-0.5 6.1-1c21.8-4.9 34.4-13.1 34.4-37.2v-178.2q0-0.7-0.3-1.3zm-48.3 118.6h-11.2c-1.3 0-2.6-0.2-3.9-0.7-1.2-0.6-2.3-1.3-3.2-2.2-1-1-1.7-2.1-2.3-3.3-0.5-1.3-0.7-2.6-0.8-3.9v-65.4c0.1-1.4 0.3-2.7 0.8-3.9 0.6-1.3 1.3-2.4 2.3-3.3 0.9-0.9 2-1.7 3.2-2.2 1.3-0.5 2.6-0.8 3.9-0.8h11.2zm361.5-120.5h-78q-1 0-2 0.4-1 0.4-1.7 1.2-0.8 0.7-1.2 1.7-0.4 1-0.4 2v146.6h-0.5q0 0.7 0.2 1.3 0.3 0.6 0.8 1.1 0.4 0.5 1.1 0.7 0.6 0.3 1.3 0.3h41.9q0.7 0 1.3-0.3 0.6-0.2 1.1-0.7 0.5-0.5 0.7-1.1 0.3-0.6 0.3-1.3v-117.1h11.1c1.3 0 2.7 0.3 3.9 0.8 1.2 0.5 2.3 1.2 3.3 2.2 0.9 0.9 1.7 2 2.2 3.3 0.5 1.2 0.8 2.5 0.8 3.8v107q0 0.7 0.2 1.3 0.3 0.6 0.7 1.1 0.5 0.5 1.2 0.7 0.6 0.3 1.3 0.3h42.1q0.7 0 1.3-0.3 0.6-0.2 1.1-0.7 0.5-0.5 0.7-1.1 0.3-0.6 0.3-1.3v-116.9c0-4.6-0.9-9.1-2.7-13.4-1.8-4.2-4.4-8.1-7.6-11.4-3.3-3.2-7.2-5.8-11.4-7.5-4.3-1.8-8.8-2.7-13.4-2.7zm-584.3-0.2h-43.1q-0.7 0-1.3 0.2-0.7 0.3-1.1 0.7-0.5 0.5-0.8 1.1-0.2 0.7-0.2 1.4v148.7q0 0.7 0.2 1.3 0.3 0.6 0.8 1.1 0.4 0.5 1.1 0.7 0.6 0.3 1.3 0.3h42.8q0.7 0 1.3-0.3 0.7-0.2 1.2-0.7 0.4-0.5 0.7-1.1 0.2-0.6 0.2-1.3h0.3v-148.7q0-0.7-0.3-1.4-0.2-0.6-0.7-1.1-0.5-0.4-1.1-0.7-0.6-0.2-1.3-0.2zm-65.2 0h-18.4v-28.5q0.1-0.7-0.2-1.3-0.3-0.7-0.7-1.1-0.5-0.5-1.1-0.8-0.7-0.2-1.3-0.2h-40q-0.7 0-1.3 0.2-0.6 0.3-1.1 0.8-0.5 0.4-0.8 1.1-0.2 0.6-0.2 1.3v148.7c0 4.6 0.9 9.2 2.7 13.4 1.8 4.3 4.4 8.2 7.6 11.4 3.3 3.3 7.2 5.8 11.4 7.6 4.3 1.7 8.8 2.6 13.4 2.6h30.1q0.6 0.1 1.3-0.2 0.6-0.2 1.1-0.7 0.4-0.5 0.7-1.1 0.3-0.7 0.2-1.3v-27.8q0-0.7-0.2-1.3-0.3-0.6-0.8-1.1-0.5-0.5-1.1-0.7-0.6-0.3-1.2-0.3h-8.3c-1.3 0-2.6-0.3-3.9-0.8-1.2-0.5-2.3-1.2-3.3-2.2-0.9-0.9-1.6-2-2.2-3.3-0.5-1.2-0.7-2.5-0.8-3.8v-68.6h18.4q0.7 0 1.4-0.2 0.6-0.3 1.1-0.8 0.4-0.5 0.7-1.1 0.2-0.6 0.2-1.3v-35.2q0-0.7-0.2-1.4-0.3-0.6-0.7-1.1-0.5-0.4-1.1-0.7-0.7-0.2-1.4-0.2zm-114.7 0.2h-78q-1.1 0-2 0.4-1 0.4-1.8 1.2-0.7 0.7-1.1 1.7-0.4 1-0.4 2v146.6h-0.5q0 0.7 0.2 1.3 0.3 0.6 0.8 1.1 0.4 0.5 1.1 0.7 0.6 0.3 1.3 0.3h41.9q0.6 0 1.3-0.3 0.6-0.2 1.1-0.7 0.5-0.5 0.7-1.1 0.3-0.6 0.3-1.3v-117.1h11.1c1.3 0 2.6 0.3 3.9 0.8 1.2 0.5 2.3 1.2 3.3 2.2 0.9 0.9 1.6 2 2.2 3.3 0.5 1.2 0.8 2.5 0.8 3.8v107q-0.1 0.7 0.2 1.3 0.3 0.6 0.7 1.1 0.5 0.5 1.1 0.7 0.7 0.3 1.4 0.3h42.1q0.7 0 1.3-0.3 0.6-0.2 1.1-0.7 0.5-0.5 0.7-1.1 0.3-0.6 0.3-1.3v-116.9c0-4.6-1-9.1-2.7-13.4-1.8-4.2-4.4-8.1-7.6-11.4-3.3-3.2-7.2-5.8-11.4-7.5-4.3-1.8-8.8-2.7-13.4-2.7zm-104.4-0.2h-41.9q-0.7 0-1.3 0.2-0.6 0.3-1.1 0.7-0.5 0.5-0.7 1.1-0.3 0.7-0.3 1.3v117.2h-11.1c-1.3 0-2.7-0.3-3.9-0.8-1.2-0.5-2.3-1.3-3.3-2.2-0.9-0.9-1.7-2.1-2.2-3.3-0.5-1.2-0.8-2.5-0.8-3.9v-106.9q0-0.7-0.2-1.4-0.3-0.6-0.8-1.1-0.4-0.4-1.1-0.7-0.6-0.2-1.3-0.2h-42.1q-0.7 0-1.3 0.2-0.6 0.3-1.1 0.7-0.5 0.5-0.8 1.1-0.2 0.7-0.2 1.4v116.8c0 4.6 0.9 9.2 2.7 13.4 1.8 4.3 4.4 8.2 7.6 11.4 3.3 3.3 7.1 5.8 11.4 7.6 4.3 1.7 8.8 2.6 13.4 2.6h78q1 0 2-0.4 1-0.4 1.7-1.1 0.8-0.8 1.2-1.7 0.4-1 0.4-2.1v-146.5h0.5q0-0.7-0.2-1.4-0.3-0.6-0.8-1.1-0.5-0.4-1.1-0.7-0.6-0.2-1.3-0.2zm-135.4-59.7h-46.2q-0.7 0-1.3 0.3-0.6 0.2-1.1 0.7-0.5 0.5-0.8 1.1-0.2 0.6-0.2 1.3v77.3h-37.3v-77.3q0-0.7-0.2-1.3-0.3-0.6-0.8-1.1-0.4-0.5-1.1-0.7-0.6-0.3-1.3-0.3h-46.2q-0.7 0-1.3 0.3-0.7 0.2-1.1 0.7-0.5 0.5-0.8 1.1-0.2 0.6-0.2 1.3v208.6q0 0.7 0.2 1.4 0.3 0.6 0.8 1.1 0.4 0.4 1.1 0.7 0.6 0.2 1.3 0.2h46.2q0.7 0 1.3-0.2 0.7-0.3 1.1-0.7 0.5-0.5 0.8-1.1 0.2-0.7 0.2-1.4v-84.5h37.3v84.5q0 0.7 0.2 1.4 0.3 0.6 0.8 1.1 0.5 0.4 1.1 0.7 0.6 0.2 1.3 0.2h46.2q0.7 0 1.4-0.2 0.6-0.3 1.1-0.7 0.4-0.5 0.7-1.1 0.2-0.7 0.2-1.4v-208.6q0-0.7-0.2-1.3-0.3-0.6-0.7-1.1-0.5-0.5-1.1-0.7-0.7-0.3-1.4-0.3z"/>
	<path id="Layer" fill-rule="evenodd" class="s1" d="m261.8 77.8v140.4q-0.2 1.3-0.6 2.4-0.4 1.2-1 2.2-0.7 1.1-1.6 1.9-0.9 0.9-1.9 1.5l-28.1 16.3v-189l28.1 16.3q1.1 0.6 1.9 1.5 0.9 0.8 1.6 1.9 0.7 1 1.1 2.2 0.4 1.1 0.5 2.4zm-78.8-50.5l33.2 18.9v203.6l-33.2 18.9v-104.8l-58 33.5v97.7l-32.9-19.1v-98.5l90.9-52.7zm-45.6 176.7l33.2-19.2v91.2l-33.2 19.2zm-12.4-111.9l-32.9 19.2v-91.2l32.9-19.2zm45.6 26.4l-91.1 52.7v97.5l-33-18.9v-203.3l33-19.2v104.8l57.9-33.4v-97.8l33.2 19.2zm-169.1-43.2q0.4-1.1 1-2.2 0.7-1 1.6-1.9 0.8-0.9 1.9-1.5l28.1-16.3v189l-28.1-16.2q-1.1-0.7-1.9-1.5-0.9-0.9-1.6-1.9-0.7-1.1-1.1-2.2-0.4-1.2-0.5-2.4v-140.5q0.1-1.2 0.6-2.4z"/>
</svg>