<svg version="1.2" xmlns="http://www.w3.org/2000/svg" viewBox="0 0 1547 623" width="1547" height="623">
	<title>footer-logo (4)-svg</title>
	<defs>
		<clipPath clipPathUnits="userSpaceOnUse" id="cp1">
			<path d="m0 0h1546.89v622.16h-1546.89z"/>
		</clipPath>
	</defs>
	<style>
		.s0 { fill: #15394b } 
	</style>
	<g id="Clip-Path" clip-path="url(#cp1)">
		<g id="Layer">
			<path id="Layer" fill-rule="evenodd" class="s0" d="m0 0h1546.9v622.2h-1546.9zm585.8 600.6h940.9v-577.7h-940.9zm-177.8-228.8v172.5h80.9v-465.8h-80.9v172.5h-51.6v120.8zm-155.5 172.5h80.9v-466.6h-80.9zm-75.4-294v-172.6h-80.9v466.6h80.9v-172.6h51.6v-121.4zm812.6-112.6h68.3v347.4h-68.3v-142.3h-149.3v142.3h-68.3v-347.4h68.3v137.7h149.3zm144.3 0h68.4v347.4h-68.4zm143.7 0h68.3v347.4h-68.3z"/>
		</g>
	</g>
</svg>