<svg version="1.2" xmlns="http://www.w3.org/2000/svg" viewBox="0 0 1550 289" width="1550" height="289">
	<title>logo</title>
	<style>
		.s0 { fill: #000000 } 
	</style>
	<path id="Layer" fill-rule="evenodd" class="s0" d="m0 0h89.9v289h-89.9zm535.3 161h86.8v58.8h223.2v69.2h-310zm-115.8 4.1h86.8v12.4c0 71.2-51.6 111.5-138.4 111.5h-241.8v-123.9h86.8v49.6h139.5c37.2 0 65.1-10.4 67.1-49.6zm-207.7-92.9v48.5h-86.8v-120.7h242.9c86.8 0 138.4 40.2 138.4 111.5v10.3h-86.8c-2-39.2-29.9-49.6-66.1-49.6zm410.2-5.1v53.6h-86.8v-120.7h310v67.1zm30 50.5h189.1v51.7h-189.1zm898 171.3h-116.8l-74.4-89.8-74.4 89.8h-176.7l-74.4-89.8-74.4 89.8h-113.7l111.6-123.9h154l85.8 95 84.7-95h155zm-436.1-168.2h-160.1l-108.5-120.8h113.6l74.4 89.8 75.5-89.8h175.6l74.4 89.8 74.4-89.8h113.7l-108.5 120.8h-159.1l-82.7-91.9z"/>
</svg>