<svg version="1.2" baseProfile="tiny-ps" xmlns="http://www.w3.org/2000/svg" viewBox="0 0 1640 626" width="1640" height="626">
	<title>idex corp-svg</title>
	<defs>
		<clipPath clipPathUnits="userSpaceOnUse" id="cp1">
			<path d="M0.67 625.07L1639.03 625.07L1639.03 0.4L0.67 0.4L0.67 625.07Z" />
		</clipPath>
		<clipPath clipPathUnits="userSpaceOnUse" id="cp2">
			<path d="M0.67 625.07L1639.03 625.07L1639.03 0.4L0.67 0.4L0.67 625.07Z" />
		</clipPath>
	</defs>
	<style>
		tspan { white-space:pre }
		.shp0 { fill: #0f76c1 } 
		.shp1 { fill: #2b2e34 } 
	</style>
	<g id="Symbols">
		<g id="tranparent-header">
			<g id="logo">
				<g id="Layer">
					<g id="Group-5">
						<g id="Clip-Path: Fill-2" clip-path="url(#cp1)">
							<path id="Fill-1" fill-rule="evenodd" class="shp0" d="M352.74 0.4L234.23 426.97L32.37 426.97L150.88 0.4L352.74 0.4ZM386.24 0.4L568.72 0.4C634.71 0.4 690.99 64.67 696.33 145.4C726.02 59.66 806 0.4 867.18 0.4L1293.85 0.4L1333.77 72.66L1408.84 0.4L1639.03 0.4L1413.67 217.34L1529.53 426.97L1325.11 427.05L1280.13 345.9L1195.9 426.97L823.71 426.97C766.89 426.97 694.25 369.54 683.49 279.75C646.41 367.81 579.36 426.97 503.83 426.97L267.74 426.97L386.24 0.4ZM917.52 143.79L1077.48 143.79L1064.55 190.33L513.35 190.33L503.81 224.69L1055 224.69L1041.49 273.32L892.85 273.32C896.82 292.1 919.78 308.18 933.34 307.86L1031.92 307.86L1010.89 383.49L1175.86 224.69L1288.63 224.69L1298.06 190.33L1194.3 190.33L1108.01 33.93L1085.73 114.07L966.07 113.63C936.46 113.63 917.52 136.9 917.52 143.79Z" />
						</g>
						<g id="Clip-Path: Fill-4" clip-path="url(#cp2)">
						</g>
					</g>
					<path id="Fill-4" fill-rule="evenodd" class="shp1" d="M95.92 534.41C97.08 517.89 88.12 509.44 74.61 509.44C45.61 509.44 30.34 540.04 28.54 565.75C27.25 584.15 34.75 600.27 55.3 600.27C70.97 600.27 83.92 587.71 87.42 573.63L115.7 573.63C101.57 610.98 81.11 625.07 53.19 625.07C17.18 625.07 -2.4 603.47 0.23 565.75C3.26 522.39 32.75 484.65 76.17 484.65C105.9 484.65 127.2 501.76 124.19 534.41L95.92 534.41ZM278.94 542.1C275.86 586.21 247.91 625.07 202.87 625.07C166.86 625.07 147.29 603.47 149.93 565.75C152.96 522.39 182.45 484.65 225.85 484.65C260.62 484.65 281.57 504.56 278.94 542.1ZM205 600.27C232.72 600.27 248.75 569.51 250.51 544.17C251.83 525.39 245.01 509.44 224.29 509.44C195.3 509.44 180.02 540.04 178.22 565.75C176.94 584.15 184.45 600.27 205 600.27ZM392.8 487.86C416.04 487.48 430.52 497.05 428.7 522.95C427.44 541.17 414.13 556.36 396.64 559L396.62 559.37C407 562.75 409.03 572.51 408.3 583.02C407.87 589.03 406.35 598.04 405.77 606.3C405.35 612.3 405.32 617.93 406.48 621.88L378.92 621.88C378.42 618.69 378.08 615.87 378.28 612.87C378.92 603.85 381.01 594.65 381.63 585.65C382.54 572.69 375.38 569.51 364.21 569.51L337.55 569.51L323.26 621.88L294.98 621.88L331.38 487.86L392.8 487.86ZM343.33 548.48L369.45 548.48C384.42 548.3 399.07 542.28 400.12 527.27C401.13 512.82 391.55 510.75 380.38 510.75L353.53 510.75L343.33 548.48ZM528.96 487.86C554.91 488.04 572.99 497.23 570.92 526.9C568.84 556.55 544.22 573.82 517.56 573.82L482.62 573.82L469.51 621.88L441.25 621.88L477.46 487.86L528.96 487.86ZM488.9 550.91L517.72 550.91C531.97 550.91 541.48 543.41 542.59 527.47C543.53 513.94 533.68 510.75 523.76 510.75L499.63 510.75L488.9 550.91ZM717.92 542.1C714.84 586.21 686.89 625.07 641.87 625.07C605.84 625.07 586.27 603.47 588.91 565.75C591.94 522.39 621.42 484.65 664.84 484.65C699.62 484.65 720.54 504.56 717.92 542.1ZM643.98 600.27C671.7 600.27 687.72 569.51 689.49 544.17C690.8 525.39 684 509.44 663.28 509.44C634.28 509.44 619.01 540.04 617.21 565.75C615.92 584.15 623.43 600.27 643.98 600.27ZM831.78 487.86C855.05 487.48 869.51 497.05 867.7 522.95C866.42 541.17 853.11 556.36 835.62 559L835.59 559.37C845.99 562.75 848.01 572.51 847.28 583.02C846.86 589.03 845.34 598.04 844.75 606.3C844.34 612.3 844.31 617.93 845.46 621.88L817.9 621.88C817.39 618.69 817.05 615.87 817.26 612.87C817.89 603.85 819.99 594.65 820.61 585.65C821.52 572.69 814.36 569.51 803.18 569.51L776.52 569.51L762.25 621.88L733.97 621.88L770.35 487.86L831.78 487.86ZM782.31 548.48L808.44 548.48C823.41 548.3 838.05 542.28 839.1 527.27C840.12 512.82 830.54 510.75 819.37 510.75L792.51 510.75L782.31 548.48ZM981.45 487.86L993.52 621.88L965.43 621.88L963.37 592.03L915.27 592.03L896.97 621.88L867.07 621.88L952.44 487.86L981.45 487.86ZM927.97 570.07L962.39 570.07L959.82 516.76L959.45 516.76L927.97 570.07ZM1028.01 512.63L1034.79 487.86L1142.15 487.86L1135.38 512.63L1096.83 512.63L1067.22 621.88L1038.76 621.88L1068.37 512.63L1028.01 512.63ZM1201.25 487.86L1164.67 621.88L1136.2 621.88L1172.78 487.86L1201.25 487.86ZM1346.08 542.1C1343 586.21 1315.05 625.07 1270.01 625.07C1233.99 625.07 1214.41 603.47 1217.05 565.75C1220.08 522.39 1249.55 484.65 1292.99 484.65C1327.74 484.65 1348.69 504.56 1346.08 542.1ZM1272.1 600.27C1299.84 600.27 1315.87 569.51 1317.64 544.17C1318.96 525.39 1312.14 509.44 1291.42 509.44C1262.4 509.44 1247.13 540.04 1245.33 565.75C1244.04 584.15 1251.58 600.27 1272.1 600.27ZM1427.86 487.86L1456.12 583.21L1456.48 583.21L1481.52 487.86L1507.47 487.86L1470.9 621.88L1442.61 621.88L1413.89 527.84L1413.52 527.84L1388.58 621.88L1362.09 621.88L1398.67 487.86L1427.86 487.86Z" />
				</g>
			</g>
		</g>
	</g>
</svg>