<svg version="1.2" xmlns="http://www.w3.org/2000/svg" viewBox="0 0 1510 1088" width="1510" height="1088">
	<title>iff-international-flavors-fragrances-seeklogo</title>
	<defs>
		<clipPath clipPathUnits="userSpaceOnUse" id="cp1">
			<path d="m-45-256h1600v1600h-1600z"/>
		</clipPath>
	</defs>
	<style>
		.s0 { fill: #007fc7 } 
	</style>
	<g id="Clip-Path: Page 1" clip-path="url(#cp1)">
		<g id="Page 1">
			<path id="Path 1" fill-rule="evenodd" class="s0" d="m59.4 440.7h190.3v646.5h-249.7v-1043.2h249.7v206.5c-105.1 0-190.3 85.2-190.3 190.2zm380.5 0c0-242.9 197-439.9 439.9-439.9v249.7c-105 0-190.2 85.2-190.2 190.2h190.2v249.7h-190.2v396.8h-249.7zm630.2 0.1c0-243 196.9-439.9 439.9-439.9v249.6c-105.1 0-190.2 85.2-190.2 190.3h190.2v249.7h-190.2v396.7h-249.7z"/>
		</g>
	</g>
</svg>