<svg version="1.2" baseProfile="tiny-ps" xmlns="http://www.w3.org/2000/svg" viewBox="0 0 1607 549" width="1607" height="549">
	<title>ITW-logo---dk-gray-svg</title>
	<style>
		tspan { white-space:pre }
		.shp0 { fill: #414141 } 
	</style>
	<g id="ITW-logo---dk-gray-NEW">
		<g id="Group-9">
			<path id="Fill-1" class="shp0" d="M175.95 1.01L0.01 548.93L27.94 548.93L203.92 1.01L175.95 1.01Z" />
			<path id="Fill-2" class="shp0" d="M220.38 1.01L46.06 548.93L72.33 548.93L248.33 1.01L220.38 1.01Z" />
			<path id="Fill-3" class="shp0" d="M264.76 1.01L90.48 548.93L116.75 548.93L292.71 1.01L264.76 1.01Z" />
			<path id="Fill-4" class="shp0" d="M309.19 1.01L134.87 548.93L161.16 548.93L337.14 1.01L309.19 1.01Z" />
			<path id="Fill-5" class="shp0" d="M363.43 1.01L328.93 108.3L501.59 108.3L361.79 548.93L524.6 548.93L666.04 108.3L807.47 108.3L842.02 1.01L363.43 1.01Z" />
			<g id="Group-8">
				<path id="Fill-6" fill-rule="evenodd" class="shp0" d="M1445.59 0.99L1606.73 0.99L1320.6 548.93L1167.66 548.93L1174.24 253.52L1174.24 232.09C1174.24 232.09 1175.87 220.52 1175.87 212.26C1177.53 200.69 1179.17 187.52 1179.17 187.52C1179.17 187.52 1172.58 202.35 1169.28 215.57C1164.34 227.12 1157.79 238.66 1157.79 238.66C1154.48 243.62 1146.26 258.47 1146.26 258.47L990.03 548.93L830.49 548.93L851.89 0.99L1016.36 0.99L994.96 240.31C994.96 240.31 993.3 251.88 993.3 260.14C993.3 260.14 991.68 271.66 988.41 286.54C986.75 299.76 980.18 324.5 980.18 324.5C980.18 324.5 986.75 303.02 991.68 291.49C999.9 274.95 1003.19 266.71 1008.13 255.19C1014.72 243.62 1021.27 228.78 1021.27 228.78C1024.55 223.83 1031.14 213.92 1031.14 213.92L1144.65 0.99L1312.37 0.99L1302.48 227.12L1302.48 240.31C1300.86 253.52 1300.86 271.66 1297.55 288.19C1295.93 304.67 1292.65 327.78 1292.65 327.78C1292.65 327.78 1297.55 316.24 1302.48 301.38C1307.44 288.19 1325.52 246.92 1325.52 246.92L1445.59 0.99ZM1563.99 25.78L1462.04 25.78L1282.78 395.45C1282.78 395.45 1281.14 398.76 1279.49 402.03C1276.21 407 1272.89 408.65 1271.23 405.34C1270.26 404.34 1270.46 402.15 1270.77 398.76C1270.98 396.53 1271.23 393.79 1271.23 390.52L1286.08 25.78L1161.07 25.78L1022.93 281.59L1013.08 299.76C1013.08 299.76 1001.53 322.83 990.03 342.64C980.18 362.45 963.71 395.45 960.44 402.03C957.16 408.65 950.57 407 952.23 402.03C952.23 398.76 952.23 390.52 955.5 372.34C957.16 354.19 960.44 326.14 963.71 304.67C965.37 283.23 970.31 238.66 971.96 212.26C975.24 184.23 981.83 108.28 981.83 96.71L988.41 25.78L876.56 25.78L856.82 522.55L975.24 522.55L990.03 496.12L999.9 477.96C999.9 477.96 1052.52 382.24 1073.92 344.29C1083.79 324.5 1121.61 253.52 1134.76 230.42C1146.26 207.31 1174.24 152.85 1179.17 144.59C1182.45 134.67 1193.97 114.9 1195.59 113.25C1197.25 109.92 1202.19 106.64 1202.19 119.85L1202.19 139.64L1193.97 522.55L1305.78 522.55L1563.99 25.78Z" />
			</g>
		</g>
	</g>
</svg>