<svg version="1.2" baseProfile="tiny-ps" xmlns="http://www.w3.org/2000/svg" viewBox="0 0 1634 389" width="1634" height="389">
	<title>illumina-full_logo-RGB-black-svg</title>
	<defs>
		<clipPath clipPathUnits="userSpaceOnUse" id="cp1">
			<path d="M8 2.41L572.97 2.41L572.97 388.85L8 388.85L8 2.41Z" />
		</clipPath>
		<clipPath clipPathUnits="userSpaceOnUse" id="cp2">
			<path d="M8 2.41L572.97 2.41L572.97 388.85L8 388.85L8 2.41Z" />
		</clipPath>
		<clipPath clipPathUnits="userSpaceOnUse" id="cp3">
			<path d="M8 2.41L572.97 2.41L572.97 388.85L8 388.85L8 2.41Z" />
		</clipPath>
		<clipPath clipPathUnits="userSpaceOnUse" id="cp4">
			<path d="M8 2.41L572.97 2.41L572.97 388.85L8 388.85L8 2.41Z" />
		</clipPath>
		<clipPath clipPathUnits="userSpaceOnUse" id="cp5">
			<path d="M0.15 30.91L1632.11 30.91L1632.11 388.71L0.15 388.71L0.15 30.91Z" />
		</clipPath>
		<clipPath clipPathUnits="userSpaceOnUse" id="cp6">
			<path d="M0.15 30.91L1632.11 30.91L1632.11 388.71L0.15 388.71L0.15 30.91Z" />
		</clipPath>
	</defs>
	<style>
		tspan { white-space:pre }
		.shp0 { fill: #0a0b09 } 
	</style>
	<g id="Page-1">
		<g id="Group-6">
			<g id="Clip-2">
			</g>
			<g id="Clip-Path: Fill-1" clip-path="url(#cp1)">
				<path id="Fill-1" class="shp0" d="M8 144.43L8.23 382.68L53.26 382.68L53.27 144.43L8 144.43" />
			</g>
			<g id="Clip-Path: Fill-3" clip-path="url(#cp2)">
				<path id="Fill-3" class="shp0" d="M128.59 2.41L128.59 382.68L174.14 382.68L174.14 2.41L128.59 2.41" />
			</g>
			<g id="Clip-Path: Fill-4" clip-path="url(#cp3)">
				<path id="Fill-4" class="shp0" d="M251.82 382.47L297.36 382.47L297.36 2.41L251.82 2.41L251.82 382.47Z" />
			</g>
			<g id="Clip-Path: Fill-5" clip-path="url(#cp4)">
				<path id="Fill-5" fill-rule="evenodd" class="shp0" d="M572.97 382.67L527.68 382.67L527.67 345.97L526.68 345.97C498.57 407.33 361.75 412.8 361.68 297.72L361.55 144.43L406.95 144.43L406.95 285.16C406.99 329.93 432.63 346.46 461.29 346.46C499.02 346.46 527.67 322.37 527.6 267.09L527.61 144.43L572.97 144.43L572.97 382.67Z" />
			</g>
		</g>
		<path id="Fill-7" fill-rule="evenodd" class="shp0" d="M631.09 144.43L673.39 144.43L673.4 181.62L674.36 181.62C678.91 167.55 708.07 138.39 750.82 138.39C786.01 138.39 810.16 153.49 825.22 182.64C840.88 153.49 872.05 138.39 900.68 138.39C974.08 138.39 991.23 190.67 991.33 243.94L991.33 382.68L946.05 382.68L946.06 249.99C946.01 213.77 938.41 180.61 894.67 180.61C850.91 180.61 833.87 210.28 833.91 252.5L833.9 382.68L788.62 382.68L788.62 258.01C788.57 212.78 782.03 180.61 738.29 180.61C705.59 180.61 676.43 205.25 676.47 259.02L676.47 382.68L631.09 382.68L631.09 144.43Z" />
		<path id="Fill-8" class="shp0" d="M1053.04 382.67L1098.55 382.67L1098.55 144.42L1053.04 144.42L1053.04 382.67Z" />
		<path id="Fill-9" fill-rule="evenodd" class="shp0" d="M1165.22 144.43L1210.46 144.43L1210.52 181.13L1211.5 181.13C1239.65 119.76 1376.35 114.35 1376.53 229.36L1376.53 382.68L1331.25 382.68L1331.24 241.95C1331.24 197.21 1305.52 180.61 1276.89 180.61C1239.18 180.61 1210.52 204.74 1210.56 260.03L1210.56 382.68L1165.22 382.68L1165.22 144.43Z" />
		<g id="Group-13">
			<g id="Clip-11">
			</g>
			<g id="Clip-Path: Fill-10" clip-path="url(#cp5)">
				<path id="Fill-10" fill-rule="evenodd" class="shp0" d="M1435.85 173.55C1496.17 116.78 1629.93 126.08 1629.98 217.81C1629.98 215.51 1628.85 355.15 1632.11 382.68L1591.89 382.68C1590.9 370.6 1590.34 358.54 1590.34 346.47L1589.32 346.47C1569.27 377.16 1542.12 388.71 1505.91 388.71C1461.61 388.71 1423.41 363.61 1423.35 317.32C1423.32 228.42 1542.33 234.91 1587.72 234.91L1587.72 224.84C1587.7 200.22 1569.61 174.6 1530.86 174.6C1496.14 174.6 1479.59 189.17 1462.98 201.74L1435.85 173.55ZM1629.98 217.81C1629.98 217.81 1629.98 217.81 1629.98 217.81C1629.98 217.81 1629.98 217.81 1629.98 217.81ZM1587.82 268.08C1547.25 268.08 1468.58 266 1468.6 313.81C1468.64 340.96 1488.78 352.51 1519.93 352.51C1570.29 352.51 1587.84 315.31 1587.82 283.17L1587.82 268.08Z" />
			</g>
			<g id="Clip-Path: Fill-12" clip-path="url(#cp6)">
				<path id="Fill-12" fill-rule="evenodd" class="shp0" d="M30.38 30.91C13.58 30.91 0 44.53 0 61.28C0 78.07 13.58 91.69 30.38 91.69C47.2 91.69 60.8 78.07 60.8 61.28C60.8 44.53 47.2 30.91 30.38 30.91Z" />
			</g>
		</g>
	</g>
</svg>