<svg version="1.2" xmlns="http://www.w3.org/2000/svg" viewBox="0 0 1587 345" width="1587" height="345">
	<title>Ingersoll-Rand-2022-Annual-Report-1-1-pdf-svg</title>
	<defs>
		<clipPath clipPathUnits="userSpaceOnUse" id="cp1">
			<path d="m-2887.38-965.94h7351.92v9292.8h-7351.92z"/>
		</clipPath>
	</defs>
	<style>
		.s0 { fill: #ff3818 } 
	</style>
	<g id="Clip-Path: Page 1" clip-path="url(#cp1)">
		<g id="Page 1">
			<path id="Path 19" fill-rule="evenodd" class="s0" d="m1569.3 279.1c-9.6 0-17.3-7.7-17.3-17.1 0-9.4 7.7-17.1 17.3-17.1 9.6 0 17.4 7.7 17.4 17.1 0 9.4-7.8 17.1-17.4 17.1zm13.6-17.4c0-7.8-6.2-14.1-13.9-14.1-7.6 0-13.8 6.3-13.8 14.1 0 7.8 6.2 14.1 13.8 14.1 7.7 0 13.9-6.3 13.9-14.1zm-17.4 9.8h-2.7v-19.5h7.6c4.3 0 6.5 1.6 6.5 5.4 0 3.8-2.2 5.4-4.9 5.4l5.4 8.7h-3.2l-4.9-8.1h-3.8zm3.8-11.4c2.2 0 4.9 0 4.9-3.3 0-2.1-2.2-2.7-4.3-2.7h-4.4v6zm-57.5 18.4l3.8-15.7q-6.5 8.7-14.1 13-7.5 4.3-16.2 4.3-15.2 0-20.6-10.8-6-11.4-1.6-29.8 3.7-19 15.7-31.9 12.4-13 28.7-13 4.3 0 7.6 1 3.8 1.1 6.5 2.7 3.3 2.2 6.5 6.5l9.8-44.4h22.2l-26 118.1zm13-60.7q-3.3-4.8-6.5-7-3.8-1.6-8.2-1.6-8.6 0-14.6 8.6-6.5 8.7-9.2 20.1-2.2 11.4 0 18.4 2.7 6.5 10.3 6.5 4.9 0 10.8-3.3 5.5-3.2 10.3-9.2zm-1088.1 50.4l4.3-20.6c46.7-42.2 71.6-93.1 62.4-140.2-16.8-81.3-131.8-118.6-257.6-82.4-24.9 7.1-48.2 16.8-69.9 28.2h-18.4c26.5-13.5 55.8-25.4 87.3-34.1 151.2-43.3 287.9-9.8 305.2 75.3 11.4 57.4-34.7 124-113.3 173.8zm-41.8 23.8q-40.6 20.3-87.8 34.1c-151.3 43.4-287.3 9.2-304.7-75.2-11.9-58 34.7-124 113.3-174.4l-4.3 20.6c-47.2 42.2-72.1 93.7-62.4 140.2 16.3 81.8 131.8 118.6 257 82.9 25-7.1 48.8-16.8 70.5-28.2zm-146.4-225.3h139.4c45 0 73.7 18.5 66.6 53.7-3.2 15.7-11.9 37.3-49.8 47.6 37.4 10.3 33 32.5 30.9 41.7l-14.7 68.8h-86.2l13.6-62.3c3.2-16.8-7.6-20.6-40.7-19.5l-16.8 81.8h-86.7zm68.8 83.9c34.2-0.5 43.9 2.2 49.9-25.4 4.3-21.1-15.2-20.1-40.1-20.6zm-94.9-83.9l-44.5 211.7h-92.1l45-211.7zm1146.7 211.7l17.9-81.8h21.7l-3.3 15.2q8.1-9.2 16.3-13 8.1-4.3 15.7-4.3 9.7 0 15.2 6.5 5.4 5.9 2.7 19.5l-13 57.9h-21.7l11.4-52.5q1.6-6.5 0.5-9.2-0.5-2.2-2.2-3.3-2.1-1.6-4.8-1.6-4.4 0-9.8 3.2-6 3.3-13.6 12l-11.3 51.4zm-36.9-8.7q-6 4.9-9.8 6.5-4.3 2.2-8.1 3.3-4.3 1.1-8.1 1.1-11.4 0-16.3-7.1-4.9-7-2.7-16.8 2.7-11.9 14.1-20 11.4-8.1 33.6-8.1h6l1.6-7.6q1.6-7.6-1.6-9.8-3.8-2.7-10.3-2.7-12.5 0-27.7 7.1l3.8-15.2q16.3-5.9 30.9-5.9 9.2 0 15.7 2.7 6.5 2.7 9.8 7.5 3.3 5.5 0.5 15.8l-7.6 36.2q-1.6 6.5 0 8.2 2.2 1 3.8 1 1.7 0 3.3 0l-2.2 12.5q-7.6 2.2-13 2.2-5.9 0-10.3-2.2-3.8-2.2-4.9-8.7zm6.5-28.7h-5.4q-10.8 0-16.8 4.4-6 3.8-7.6 9.2-1.1 4.8 1.6 8.1 2.8 2.7 7.1 2.7 3.8 0 8.1-1.6 4.4-2.2 9.2-6zm-142 37.4l23.9-110.5h41.7q12.5 0 18.4 3.3 6 3.2 8.2 9.7 2.7 6.5 1.1 14.6-2.2 9.8-9.8 18.4-7.6 8.7-19 13l25 51.5h-28.2l-17.4-45h-12.5l-10.3 45zm35.3-60.1h5.4q14.1 0 20.6-6.5 7.1-6 8.7-14.1 1.6-6.5-2.2-10.3-3.2-4.3-16.8-4.3h-8.1zm-111.7 60.6l26-118h21.7l-26 118zm-39.6 0l26-118h21.7l-26 118zm-73.8-3.2q-8.6-5.4-11.3-15.7-2.8-9.8 0-22.2 2.7-12.5 9.7-22.2 7.1-10.3 17.9-15.2 10.9-5.4 24.4-5.4 13 0 21.7 5.4 8.1 4.9 10.8 15.2 2.7 9.7 0 22.2-2.7 12.4-9.7 22.2-7.1 10.3-17.9 15.7-10.9 4.9-23.9 4.9-13.5 0-21.7-4.9zm40.7-17.4q6.5-8.1 9.2-20.5 2.7-12.5 0-20.6-3.2-8.7-12.4-8.7-9.3 0-15.8 8.7-6.5 8.1-9.2 20.6-3.2 12.4 0 20.5 2.7 8.7 11.9 8.7 9.8 0 16.3-8.7zm-125.8 1.7q14.7 7 26.6 7 6 0 10.3-2.7 4.3-2.7 5.4-6.5 0.6-3.8-1.6-6-2.2-2.7-7.6-4.8l-6.5-2.7q-10.9-4.9-15.2-10.3-3.8-5.4-2.2-14.6 2.2-10.3 12.5-17.4 9.8-7 26.6-7 10.3 0 23.3 2.7l-3.3 15.7q-12.4-4.9-21.1-4.9-7.1 0-10.9 2.7-3.7 2.2-4.8 6-0.6 2.7 1.1 4.9 1.6 2.1 7 4.8l6 2.2q14.6 6 17.9 11.9 3.8 5.4 2.1 13.6-2.1 10.2-13 18.4-10.8 7.6-27.6 7.6-14.7 0-28.8-4.4zm-58.5 19l17.9-82.3h21.7l-3.3 15.7q6-8.2 13.6-12.5 8.1-4.9 16.2-4.9 2.2 0 4.4 0l-4.4 20.1q-4.3-1.7-8.7-1.7-6.5 0-12.4 3.3-6 3.2-12 10.3l-11.3 52zm-12-2.7q-16.8 4.3-30.3 4.3-13.6 0-22.3-4.9-9.2-4.9-11.9-15.7-3.2-10.3-0.5-22.7 2.7-11.4 9.2-21.1 6.5-9.8 16.8-15.8 9.8-5.4 22.8-5.4 15.7 0 22.7 9.8 7.1 10.3 1.1 37.3h-50.4q-1.1 8.7 1.1 13.6 1.6 4.3 5.9 7.6 4.9 2.7 13.6 2.7 10.8 0 25.5-5.4zm-11.4-46.1q2.7-11.3 0-16.2-2.7-4.9-8.7-4.9-6.5 0-11.9 5.4-4.9 5.4-8.1 15.7zm-145.9 58q11.9 6.5 23.9 6.5 11.9 0 18.4-4.9 7.1-4.9 9.8-17.3l2.1-11.4q-4.8 8.1-13 13-7.6 4.9-17.3 4.9-9.2 0-15.2-4.9-6.5-4.3-8.1-14.1-1.7-9.7 0.5-21.6 4.3-18.5 16.3-30.9 11.9-12.5 28.7-12.5 4.3 0 7.6 1.1 3.2 1.1 6.5 2.7 2.7 2.2 6.5 6.5l4.3-8.1h19.6l-13.6 62.3q-5.4 24.9-12.5 33.5-6.5 8.2-17.3 13-10.9 4.4-23.3 4.4-14.1 0-29.3-6zm64-70.4q-3.3-5.4-7.1-7-3.8-1.6-7.6-1.6-8.1 0-14.6 7.5-6.5 7.6-9.2 20.6-2.7 10.8 0 17.3 2.7 6.5 9.7 6.5 5.5 0 10.9-3.2 5.4-3.3 11.4-9.8zm-156.2 61.2l17.9-81.7h22.2l-3.2 15.1q8.1-9.2 16.3-13.5 7.5-3.8 15.1-3.8 9.8 0 15.8 6.5 5.4 6 2.1 19.5l-12.4 57.9h-22.3l12-52.5q1-6.5 0.5-9.2-0.5-2.2-2.7-3.8-1.6-1.1-4.4-1.1-4.3 0-10.3 3.3-5.4 2.7-13 11.9l-11.4 51.4zm-40.1 0l23.9-110.4h23.3l-24.4 110.4z"/>
		</g>
	</g>
</svg>