<svg version="1.2" xmlns="http://www.w3.org/2000/svg" viewBox="0 0 1543 458" width="1543" height="458">
	<title>insulet-purple-svg</title>
	<style>
		.s0 { fill: #743dbc } 
	</style>
	<g id="Group_12739">
		<g id="Group_12732">
			<g id="Group_9994">
				<path id="Path_11070" class="s0" d="m0 2.3q2-0.3 3.9-0.5 2-0.2 4-0.4 1.9-0.2 3.9-0.3 2-0.1 4-0.1 4-0.2 7.9 0.3 4 0.6 7.8 1.9 3.7 1.3 7.2 3.4 3.4 2.1 6.4 4.8 2.7 2.9 4.7 6.4 2.1 3.4 3.5 7.2 1.3 3.7 1.9 7.7 0.5 4 0.3 8v407.3h-55.5z"/>
				<path id="Path_11071" class="s0" d="m110.9 150.8q1.3-0.1 2.7-0.2 1.3-0.1 2.7-0.2 1.3-0.1 2.6-0.1 1.4-0.1 2.7-0.1 3.7-0.2 7.4 0.3 3.6 0.4 7.2 1.5 3.5 1 6.8 2.6 3.3 1.7 6.3 3.8 2.8 2.2 5 4.9 2.2 2.6 3.9 5.7 1.6 3.1 2.5 6.5 1 3.3 1.3 6.8 4.5-4.5 9.6-8.5 5-4 10.5-7.5 5.4-3.4 11.2-6.3 5.7-2.8 11.8-5.1 6.6-2.4 13.4-4.3 6.8-1.9 13.7-3.1 7-1.2 14-1.8 7-0.6 14.1-0.5 8.2-0.4 16.4 0.5 8.3 0.9 16.2 3.1 8 2.1 15.6 5.5 7.5 3.4 14.5 7.8 6.1 4.4 11.3 9.9 5.3 5.4 9.4 11.7 4.2 6.3 7.1 13.2 3 7 4.6 14.3 1.4 7.2 2.3 14.4 1 7.2 1.5 14.5 0.6 7.2 0.7 14.5 0.2 7.3-0.1 14.6v178.8h-53.5v-176.9q0.2-5.5 0.1-10.9-0.2-5.5-0.6-10.9-0.5-5.5-1.3-10.9-0.8-5.4-2-10.7-1-4.1-2.8-7.9-1.8-3.7-4.3-7-2.6-3.4-5.7-6.1-3.1-2.8-6.7-4.9-4.6-2.2-9.5-3.9-4.8-1.6-9.9-2.7-5-1-10.1-1.4-5.1-0.4-10.2-0.2-5.2 0-10.4 0.3-5.1 0.4-10.2 1.2-5.1 0.8-10.2 2-5 1.2-9.9 2.8-3.9 1.3-7.7 3-3.8 1.6-7.3 3.7-3.5 2.1-6.8 4.6-3.3 2.5-6.3 5.4-2.2 2.1-4.1 4.6-1.8 2.5-3.1 5.3-1.3 2.8-2 5.8-0.7 2.9-0.9 6v209.7h-53.5z"/>
				<path id="Path_11072" class="s0" d="m590.9 221.4q-3.3-3.9-7.1-7.3-3.8-3.5-7.9-6.5-4.1-3-8.6-5.4-4.5-2.5-9.2-4.5-4.9-2.2-10.1-3.9-5.2-1.7-10.5-2.8-5.3-1.2-10.7-1.8-5.5-0.6-10.9-0.6-5.3-0.3-10.7 0.2-5.3 0.5-10.5 1.8-5.2 1.2-10.1 3.2-5 1.9-9.7 4.6c-3.6 2.4-6.8 5.4-9.2 9-2.5 3.6-4.2 7.7-5.2 11.9-0.9 4.3-0.9 8.7-0.1 13 0.8 4.3 2.4 8.4 4.8 12q1.7 2.3 3.7 4.4 2 2 4.3 3.7 2.3 1.8 4.8 3.2 2.4 1.5 5.1 2.6 4.7 2 9.5 3.7 4.8 1.8 9.7 3.3 4.9 1.6 9.9 2.9 4.9 1.3 9.9 2.3 7.5 1.6 14.8 3.7 7.3 2.1 14.5 4.7 7.1 2.6 14.1 5.7 6.9 3.1 13.7 6.7 4.7 2.6 9 5.9 4.3 3.2 8.2 7 3.8 3.8 7.1 8.1 3.3 4.2 5.9 8.9 2.5 4.9 4.4 10.1 1.9 5.2 3.2 10.6 1.2 5.3 1.8 10.8 0.5 5.5 0.4 11c0.2 6.5-0.4 13-1.7 19.4-1.4 6.3-3.4 12.5-6.2 18.3-2.8 5.9-6.3 11.4-10.4 16.5-4 5-8.7 9.6-13.9 13.5-5.9 4.4-12.2 8.3-18.8 11.7-6.6 3.3-13.5 6.1-20.6 8.2-7 2.2-14.3 3.8-21.6 4.7-7.4 0.9-14.8 1.2-22.2 0.9q-8.8 0.3-17.7-0.3-8.8-0.6-17.5-2.1-8.8-1.5-17.3-3.9-8.5-2.4-16.8-5.6-28.3-11.4-28.3-26.5 0-1.8 0.2-3.6 0.3-1.8 0.7-3.6 0.4-1.8 0.9-3.5 0.6-1.8 1.3-3.5 1.4-3 2.8-5.9 1.5-2.9 3.1-5.8 1.5-2.9 3.2-5.7 1.7-2.8 3.5-5.5 4.4 3.7 9.1 7.1 4.8 3.4 9.8 6.4 4.9 2.9 10.2 5.5 5.2 2.5 10.6 4.6 5.3 2 10.7 3.6 5.4 1.6 11 2.7 5.6 1 11.2 1.6 5.6 0.5 11.3 0.6 5.8 0.3 11.7-0.2 5.9-0.6 11.6-2.1 5.7-1.5 11.1-3.8 5.4-2.4 10.3-5.6c2.6-1.9 4.9-4.2 7-6.7 2-2.5 3.8-5.2 5.1-8.2 1.4-2.9 2.4-6 3-9.1 0.6-3.2 0.8-6.5 0.7-9.7q0.1-4.4-0.7-8.8-0.8-4.3-2.6-8.4-1.8-4-4.5-7.6-2.7-3.5-6.1-6.4-13.9-11.6-51.7-19.8-49.8-10.7-71.5-31.8c-3.6-3.6-6.9-7.6-9.7-11.9-2.8-4.3-5.2-8.9-7-13.7-1.9-4.7-3.3-9.7-4.1-14.8-0.8-5-1.2-10.2-0.9-15.3-0.2-5.9 0.3-11.9 1.6-17.7 1.3-5.8 3.2-11.4 5.9-16.7 2.6-5.4 5.9-10.4 9.7-14.9 3.8-4.5 8.2-8.6 13-12.1 5.5-4 11.4-7.5 17.5-10.5 6.1-3 12.5-5.4 19-7.4 6.6-2 13.2-3.4 20-4.2 6.8-0.9 13.6-1.1 20.4-0.9q5.4 0 10.8 0.3 5.4 0.3 10.8 0.9 5.3 0.5 10.7 1.4 5.3 0.9 10.5 2.1 4.3 0.9 8.6 2.2 4.2 1.2 8.3 2.7 4.1 1.6 8.1 3.4 4 1.9 7.8 4 21.4 12 21.4 24.6-0.4 4.6-1.3 9-1 4.5-2.5 8.8-1.5 4.3-3.6 8.4-2 4-4.5 7.8z"/>
				<path id="Path_11073" class="s0" d="m665.1 148.9q1.4-0.1 2.8-0.2 1.4-0.1 2.9-0.2 1.4-0.1 2.8-0.1 1.4-0.1 2.8-0.1 42.2 0 42.3 42.8v146.8q-0.2 5.1-0.1 10.3 0.2 5.1 0.6 10.2 0.5 5.2 1.3 10.3 0.8 5.1 1.9 10.1 0.8 3 2.1 5.9 1.3 2.8 3.1 5.4 1.7 2.6 3.9 4.8 2.2 2.2 4.8 4 2.2 1.6 4.5 2.9 2.3 1.4 4.7 2.5 2.4 1.2 4.9 2.1 2.5 0.9 5.1 1.6 3.3 0.8 6.6 1.4 3.3 0.6 6.7 0.9 3.4 0.4 6.7 0.5 3.4 0.1 6.8 0.1 4.9 0 9.7-0.4 4.9-0.4 9.7-1.3 4.8-1 9.5-2.3 4.7-1.4 9.2-3.3 3.9-1.5 7.6-3.4 3.8-1.9 7.3-4.2 3.5-2.2 6.8-4.8 3.3-2.6 6.3-5.5 2.3-1.9 4.1-4.2 1.9-2.2 3.3-4.8 1.4-2.6 2.2-5.4 0.9-2.9 1.1-5.8v-216.6q1.5-0.1 2.9-0.2 1.4-0.1 2.8-0.2 1.4-0.1 2.8-0.1 1.5-0.1 2.9-0.1 42.2 0 42.2 42.8v256.9h-53.6v-27.7q-32.1 37.2-93.9 37.2-5.6 0.1-11.2-0.3-5.6-0.3-11.2-1.1-5.6-0.8-11.1-2-5.5-1.3-10.9-2.9-4.5-1.4-8.7-3.3-4.3-1.9-8.3-4.3-3.9-2.5-7.6-5.4-3.6-2.9-6.9-6.2-3.2-3.6-6-7.5-2.8-3.9-5.2-8.1-2.3-4.2-4.1-8.7-1.7-4.5-3-9.1-1.7-7.5-3-15-1.2-7.6-2-15.2-0.7-7.6-1-15.3-0.2-7.6 0-15.3z"/>
				<path id="Path_11074" class="s0" d="m965.7 29.5q1.4-0.1 2.8-0.3 1.4-0.1 2.8-0.2 1.5 0 2.9-0.1 1.4 0 2.8 0 42.2 0 42.2 42.8v317.1q-0.1 3.1-0.1 6.1 0.1 3 0.4 6 0.4 3 0.9 6 0.6 2.9 1.4 5.9 0.6 1.5 1.5 2.9 0.8 1.3 2 2.5 1.1 1.2 2.5 2.1 1.3 0.9 2.8 1.6 2.3 0.8 4.6 1.4 2.3 0.6 4.7 0.9 2.4 0.4 4.8 0.5 2.4 0.1 4.8 0v22.7q-4.2 1.2-8.5 2.1-4.3 0.9-8.6 1.4-4.4 0.6-8.8 0.8-4.4 0.2-8.7 0.1-3.6 0.1-7.2-0.2-3.5-0.2-7-1-3.5-0.7-6.9-1.8-3.4-1.1-6.7-2.7-2.7-1.4-5.1-3.3-2.4-1.9-4.5-4.2-2-2.3-3.7-5-1.6-2.6-2.7-5.4-1.7-5-2.8-10.1-1.2-5.1-1.8-10.3-0.7-5.2-0.9-10.4-0.2-5.2 0.1-10.5z"/>
				<path id="Path_11075" fill-rule="evenodd" class="s0" d="m1127 310.1q1.9 49.1 25.5 75.6 23.7 26.4 67.8 26.4c7.8 0.4 15.6-0.2 23.3-1.6 7.7-1.4 15.2-3.7 22.4-6.8 7.2-3.1 14-7 20.3-11.6 6.3-4.6 12-9.9 17.2-15.9q1.8 2.3 3.5 4.6 1.7 2.3 3.2 4.7 1.6 2.4 3.1 4.9 1.4 2.5 2.8 5 1 1.8 1.9 3.7 0.8 1.8 1.4 3.8 0.7 1.9 1.1 3.9 0.4 2 0.6 4.1-0.4 3.3-1.5 6.4-1.1 3.1-2.9 5.9-1.8 2.8-4.2 5.1-2.4 2.3-5.3 4-34 25.2-92 25.2-69.3 0-106.5-40.9-37.1-41-37.2-119.1-0.3-10.5 0.7-21 0.9-10.6 3.1-20.9 2.2-10.3 5.6-20.4 3.4-10 8-19.5 4-8.1 9.1-15.6 5.1-7.4 11.3-14.1 6.2-6.6 13.2-12.3 7.1-5.7 14.9-10.3 7.9-4.5 16.3-8 8.4-3.5 17.3-5.8 8.8-2.3 17.8-3.4 9.1-1.1 18.2-1 8.5-0.3 17.1 0.6 8.5 0.9 16.8 2.9 8.3 2.1 16.2 5.2 8 3.1 15.4 7.3 6.8 4 12.8 9 6.1 4.9 11.3 10.7 5.3 5.8 9.6 12.4 4.3 6.5 7.6 13.6 3.7 7.9 6.4 16.3 2.8 8.3 4.5 16.9 1.8 8.5 2.6 17.3 0.9 8.7 0.7 17.5 0.1 4.4 0 8.8 0 4.4-0.3 8.8-0.2 4.4-0.6 8.8-0.4 4.4-1 8.8zm147.5-40.3q0-80.5-70-80.5c-5-0.2-10 0.1-15 1-4.9 0.8-9.8 2.2-14.4 4-4.7 1.9-9.1 4.3-13.3 7.1-4.1 2.8-8 6-11.5 9.6-3.6 4-6.8 8.3-9.7 12.9-2.8 4.6-5.3 9.4-7.2 14.4-2 5-3.6 10.2-4.6 15.5-1.1 5.3-1.7 10.7-1.8 16z"/>
				<path id="Path_11076" class="s0" d="m1377.4 61.4q1.4-0.1 2.8-0.3 1.4-0.1 2.8-0.1 1.4-0.1 2.9-0.2 1.4 0 2.8 0 42.2 0 42.2 42.8v48.5h93.9v45.3h-93.9v162.5q0 51.6 41 51.6 2.7 0 5.4-0.3 2.7-0.3 5.4-0.8 2.6-0.6 5.2-1.4 2.6-0.8 5.1-1.9 2.6-1.1 5.1-2.4 2.5-1.2 4.9-2.6 2.4-1.5 4.7-3 2.3-1.6 4.5-3.3 1.7-1.3 3.3-2.6 1.6-1.3 3.1-2.7 1.5-1.4 2.9-3 1.4-1.5 2.7-3.1 18.3 22.7 18.3 35.3-0.4 2.8-1.4 5.4-1 2.7-2.5 5.1-1.6 2.3-3.6 4.3-2.1 2-4.5 3.4-3.3 2.5-6.8 4.7-3.5 2.2-7.1 4-3.7 1.8-7.6 3.3-3.8 1.4-7.8 2.5-4.6 1.3-9.2 2.3-4.7 0.9-9.4 1.6-4.7 0.6-9.4 0.9-4.7 0.3-9.5 0.3-63 0-80-47.3-1.9-6.6-3.2-13.3-1.3-6.7-2.1-13.5-0.8-6.8-1.1-13.6-0.2-6.9 0.1-13.7z"/>
			</g>
		</g>
	</g>
</svg>