<svg version="1.2" xmlns="http://www.w3.org/2000/svg" viewBox="0 0 1532 320" width="1532" height="320"><style>.a{fill:#006963}.b{fill:#15191e}</style><path fill-rule="evenodd" class="a" d="m104.6 57.8c-15.5 17.9-38 28.1-61.7 28.1h-42.9v-81.8h151.2zm151.3 0c-15.5 17.9-38.1 28.1-61.7 28.1h-42.9v-81.8h151.3zm197.9 28.1h-151.3v-81.8h42.9c23.7 0 46.2 10.3 61.8 28.1zm-349.2 71.3c-15.5 17.9-38.1 28.2-61.8 28.2h-42.8v-81.9h151.2zm151.3 0c-15.6 17.9-38.1 28.2-61.8 28.2h-42.8v-81.9h151.2zm151.3 0c-15.6 17.9-38.1 28.2-61.8 28.2h-42.9v-81.9h151.3zm-302.5 99.4c-15.5 17.9-38.1 28.1-61.8 28.1h-42.8v-81.8h151.2zm151.3 0c-15.6 17.9-38.1 28.1-61.8 28.1h-42.8v-81.8h151.2z"/><path class="b" d="m1168.1 4.5h24.3v23h-24.3z"/><path fill-rule="evenodd" class="b" d="m719.2 265.8h9.6v18.1h-14.5c-8.5 0-16.1-6.6-16.1-15v-3.3h-1.1c-4 12-13.4 20.1-31.8 20.1-18.5 0-30.8-10.2-30.8-26.6 0-14.7 7.5-24.4 29.5-28.2 20.3-3.5 32.2-4.6 32.6-13 0.4-8.1-4.8-11.7-17.1-11.7-13.4 0-18.6 6.4-18.6 16.4h-22.6c0.7-17.8 15-33 41.5-33 26.4 0 39.4 11.6 39.4 29.7zm-22.6-30.3c-4.6 3.5-9.2 4.3-14.6 5.5l-9.7 2.4c-10.1 2.5-14.4 5.9-14.4 13.8 0 7.9 5.8 12 13.9 12 16.1 0 24.8-11.7 24.8-28.9 0 0 0-4.8 0-4.8z"/><path class="b" d="m531.9 4.5h25.4v125.1h-25.4z"/><path fill-rule="evenodd" class="b" d="m781.6 131.5q0 0 0 0 0.1 0 0.1 0zm0 0c-28.7 0-45.6-17.7-45.6-48.1 0-30.4 16.9-48 45.6-48 10.9 0 18.4 3 19.1 3.2 18.2 7 26.4 24.4 26.4 44.8q0 2.5-0.2 4.9h-67.2c1.4 15.6 9.4 24.8 21.9 24.8 10.9 0 18.6-5.7 21.3-15.1h23.7c-3.7 21.1-20.5 33.5-45 33.5zm-21.3-57.4h42.6c-2.2-11.9-9-20.5-21.3-20.5-12.4 0-19.1 8.6-21.3 20.5z"/><path fill-rule="evenodd" class="b" d="m1489.6 111.5h9.6v18.1h-14.5c-8.5 0-16.1-6.6-16.1-15v-3.3h-1.1c-4 12-13.4 20.1-31.8 20.1-18.5 0-30.8-10.2-30.8-26.6 0-14.7 7.4-24.4 29.5-28.2 20.3-3.5 32.2-4.6 32.6-13 0.4-8.1-4.8-11.7-17.1-11.7-13.4 0-18.6 6.4-18.6 16.4h-22.6c0.7-17.8 15-33 41.5-33 26.4 0 39.4 11.6 39.4 29.7zm-22.6-30.3c-4.6 3.5-9.2 4.3-14.6 5.5l-9.7 2.4c-10.1 2.5-14.4 5.9-14.4 13.8 0 7.9 5.8 12 13.9 12 16.1 0 24.8-11.7 24.8-28.9 0 0 0-4.8 0-4.8z"/><path class="b" d="m599.7 77.9c0-7.3 1.5-13 5.7-17.2q6.3-6.1 15.3-6.1c12.1 0 17.5 5.8 17.5 17.5v57.6h24.3v-61.4q0-15.9-9.1-24.6c-5.8-5.6-13.8-8.4-23.8-8.4-13.7 0-27 8.6-29.8 23.3h-1.1l-0.6-21.5h-22.6v92.5h24.3v-51.8z"/><path fill-rule="evenodd" class="b" d="m582.5 158.9c31.4 0 50 15.8 50 42.7 0 26.9-18.6 42.7-50.2 42.7h-25v39.8h-25.4v-125.2h50.6zm23.7 42.7c0-14.3-8.3-23-22.6-23h-26.3v46.1h26.3c14.1 0 22.6-8.7 22.6-23.1z"/><path class="b" d="m1507.7 4.5h24.3v125.1h-24.3z"/><path class="b" d="m705.6 0.5h-1.9l-16.4 19c-3.8 4.4-5.8 10.1-5.8 15.9v1.8h-13.3v16.7h13.4v46.6c0 18.7 11.5 31 31.1 31 7 0 14.6-1.7 20.1-4.3v-18c-3.3 1.8-7.9 2.9-12.4 2.9-9.2 0-14.8-5-14.8-13.6v-44.6h27.2v-16.7h-27.2z"/><path class="b" d="m975.7 197.3l-10.3 11.9h-1.1l-0.6-17.5h-21.9v92.4h24.2l-0.6-72.5h35.4v-21.8h-8.6c-6.3 0-12.3 2.7-16.5 7.5z"/><path fill-rule="evenodd" class="b" d="m1085.7 111.5h9.7v18.1h-14.6c-8.4 0-16.1-6.6-16.1-15v-3.3h-1.1c-4 12-13.3 20.1-31.8 20.1-18.4 0-30.8-10.2-30.8-26.6 0-14.7 7.5-24.4 29.6-28.2 20.3-3.5 32.2-4.6 32.5-13 0.4-8.1-4.8-11.7-17-11.7-13.5 0-18.7 6.4-18.7 16.4h-22.5c0.7-17.8 15-33 41.4-33 26.5 0 39.4 11.6 39.4 29.7zm-22.6-30.3c-4.5 3.5-9.1 4.3-14.6 5.5l-9.6 2.4c-10.2 2.5-14.4 5.9-14.4 13.8 0 7.9 5.8 12 13.9 12 16.1 0 24.7-11.7 24.7-28.9 0 0 0-4.8 0-4.8z"/><path fill-rule="evenodd" class="b" d="m1298.5 83.4c0 30.2-17.8 48.1-48 48.1-30.1 0-48.2-17.9-48.2-48.1 0-30.2 18.1-48.1 48.2-48.1 30.2 0 48 17.9 48 48.1zm-24.6 0c0-18-8.7-28.9-23.4-28.9-14.7 0-23.3 10.9-23.3 28.9 0 18.1 8.6 28.7 23.3 28.7 14.7 0 23.4-10.6 23.4-28.7z"/><path class="b" d="m1129.4 0.5h-1.9l-16.4 19c-3.8 4.4-5.8 10.1-5.8 15.9v1.8h-13.3v16.7h13.3v46.6c0 18.7 11.5 31 31.2 31 7 0 14.6-1.7 20.1-4.3v-18c-3.3 1.8-8 2.9-12.4 2.9-9.2 0-14.8-5-14.8-13.6v-44.6h27.2v-16.7h-27.2z"/><path class="b" d="m1168.1 37.2h24.3v92.4h-24.3z"/><path class="b" d="m1362.7 35.3c-13.7 0-27 8.6-29.8 23.3h-1.1l-0.6-21.5h-22.6v92.5h24.3v-51.8c0-7.3 1.5-13 5.6-17.1q6.3-6.2 15.3-6.2c12.2 0 17.6 5.9 17.6 17.6v57.5h24.3v-61.3q0-15.9-9.1-24.6c-5.8-5.6-13.8-8.4-23.9-8.4z"/><path class="b" d="m860.6 57.1h35.4v-21.8h-8.6c-6.4 0-12.4 2.8-16.5 7.5l-10.3 11.9h-1.1l-0.6-17.5h-21.9v92.4h24.2l-0.6-72.5z"/><path fill-rule="evenodd" class="b" d="m821.3 202.4c7.5 8.9 11.3 20.8 11.3 35.3q0 21.9-11.3 35.1-11.5 13.3-30.9 13.3c-11.9 0-22.7-7.4-27.4-18.8h-0.5v51.8h-24.3v-127.6h22.7l0.5 15.8h1.1c4.5-10.7 14.7-18 27.9-18q19.4 0 30.9 13.1zm-13.3 34.6c0-9.4-2.1-16.6-6.1-21.6-4.1-4.9-9.9-7.4-17.3-7.4-7.4 0-13.1 2.5-17.3 7.7-4 5.1-6.1 12.3-6.1 22q0 14.6 6.3 22.1c4 5.1 9.8 7.7 17.1 7.7q10.9 0 17.2-8.1c4.1-5.2 6.2-12.9 6.2-22.4z"/><path fill-rule="evenodd" class="b" d="m905.1 193c18.2 7 26.4 24.5 26.4 44.9q0 2.4-0.2 4.8h-67.2c1.4 15.7 9.4 24.8 21.9 24.8 10.9 0 18.6-5.7 21.3-15.1h23.7c-3.7 21.1-20.5 33.5-45 33.5-28.8 0-45.7-17.7-45.7-48 0-30.4 16.9-48.1 45.7-48.1 10.9 0 18.3 3 19 3.2zm2.4 35.5c-2.2-11.9-9-20.5-21.3-20.5-12.4 0-19.1 8.6-21.3 20.5z"/><path class="b" d="m967.7 72.1v57.5h24.3v-61.3q0-15.9-9.1-24.6c-5.8-5.6-13.8-8.4-23.8-8.4-13.7 0-27.1 8.6-29.8 23.3h-1.1l-0.6-21.5h-22.6v92.5h24.3v-51.8c0-7.3 1.4-13 5.6-17.1q6.3-6.2 15.3-6.2c12.1 0 17.5 5.9 17.5 17.6z"/><path class="a" d="m269.5 268.8h12.7v2h-5.3v14.1h-2.2v-14.1h-5.2zm33.1 0v16.2h-2.3v-14.5l-1.3 3.9-4.2 10.6h-2.2l-4.3-10.6-1.3-4v14.5h-2.2v-16.1h3.5l4.3 10.7 1 3.1 1.1-3.1 4.3-10.7h3.5z"/></svg>