<svg version="1.2" baseProfile="tiny-ps" xmlns="http://www.w3.org/2000/svg" viewBox="0 0 1785 1611" width="1785" height="1611">
	<title>28668_009_Print_BMK_Web-1-pdf-svg</title>
	<defs>
		<clipPath clipPathUnits="userSpaceOnUse" id="cp1">
			<path d="M-925.86 -1154.24L14258.28 -1154.24L14258.28 18622.17L-925.86 18622.17L-925.86 -1154.24Z" />
		</clipPath>
	</defs>
	<style>
		tspan { white-space:pre }
		.shp0 { fill: #2c2e35 } 
	</style>
	<g id="Clip-Path: Page 1" clip-path="url(#cp1)">
		<g id="Page 1">
			<path id="Path 47" fill-rule="evenodd" class="shp0" d="M1611.25 0L1611.25 870.62L1464.03 870.62L1464.03 147.15L147.21 147.15L147.21 1463.54L319.3 1463.54L319.3 1610.69L0 1610.69L0 0L1611.25 0ZM897.96 1232.88C871.36 1263.43 856.67 1306.89 856.67 1355.22C856.67 1457.18 920.12 1525.7 1014.56 1525.7C1061.41 1525.7 1092.33 1513.85 1117.58 1502.74L1124.31 1499.83L1141.59 1575.94L1137.45 1578.1C1111.84 1591.5 1060.24 1607.11 999.01 1607.11C927.59 1607.11 866.92 1583.41 823.52 1538.41C780.44 1493.79 757.66 1431.75 757.66 1359.04C757.66 1286.27 782.79 1220.9 828.46 1174.86C875.62 1127.33 940.98 1102.21 1017.52 1102.21C1070.48 1102.21 1116.22 1115.66 1139.3 1127.27L1143.81 1129.55L1120.73 1208.13L1114.06 1204.3C1096.78 1194.42 1065.98 1182.63 1017.52 1182.63C968.02 1182.63 926.66 1200.04 897.96 1232.88ZM1605.32 1329.72C1605.32 1345.28 1603.84 1357.62 1602.79 1366.63L1601.74 1375.89L1270.71 1375.89C1272.69 1425.77 1288.61 1464.41 1318 1490.76C1344.91 1514.9 1382.44 1527.61 1426.51 1527.61C1489.65 1527.61 1525.57 1516.13 1554.89 1503.72L1561.5 1500.88L1578.97 1574.21L1574.4 1576.31C1543.35 1590.38 1490.45 1607.11 1414.78 1607.11C1342.5 1607.11 1281.95 1583.59 1239.67 1539.15C1198.25 1495.58 1176.34 1434.35 1176.34 1361.94C1176.34 1289.79 1197.88 1224.24 1236.95 1177.33C1278.37 1127.51 1336.14 1101.16 1404.04 1101.16C1473.91 1101.16 1529.4 1129.37 1564.52 1182.57C1601.37 1238.37 1605.32 1304.11 1605.32 1329.72ZM1272.38 1302.19L1510.14 1302.19C1509.71 1281.7 1505.2 1235.29 1474.71 1204.24C1455.52 1184.73 1429.41 1174.86 1397.19 1174.86C1313.92 1174.86 1280.16 1251.89 1272.38 1302.19ZM1725.99 1106.1C1757.35 1106.1 1784.26 1130.48 1784.26 1163.5C1784.26 1196.89 1757.35 1221.27 1725.99 1221.27C1694.33 1221.27 1667.42 1196.89 1667.42 1163.5C1667.42 1130.48 1694.33 1106.1 1725.99 1106.1ZM1725.99 1115.42C1699.27 1115.42 1678.59 1136.03 1678.59 1163.5C1678.59 1191.65 1699.27 1211.95 1725.99 1211.95C1752.35 1211.95 1773.03 1191.65 1773.03 1163.5C1773.03 1136.03 1752.35 1115.42 1725.99 1115.42ZM1713.71 1196.89L1703.46 1196.89L1703.46 1130.48L1728.89 1130.48C1744.76 1130.48 1752.53 1136.34 1752.53 1149.43C1752.53 1161.34 1745.06 1166.46 1735.13 1167.7L1754.08 1196.89L1742.9 1196.89L1725.19 1168.07L1713.71 1168.07L1713.71 1196.89ZM1713.71 1159.67L1725.81 1159.67C1738.28 1159.67 1742.29 1156.09 1742.29 1148.81C1742.29 1142.39 1739.2 1138.87 1727.54 1138.87L1713.71 1138.87L1713.71 1159.67ZM582.24 1122.64L680.32 1122.64L680.32 1607.17L582.24 1607.17L582.24 1122.64Z" />
		</g>
	</g>
</svg>