<svg version="1.2" baseProfile="tiny-ps" xmlns="http://www.w3.org/2000/svg" viewBox="0 0 1668 449" width="1668" height="449">
	<title>2020 Annual Report-1-pdf-svg</title>
	<defs>
		<clipPath clipPathUnits="userSpaceOnUse" id="cp1">
			<path d="M-952.45 -865.53L10476.93 -865.53L10476.93 14021.62L-952.45 14021.62L-952.45 -865.53Z" />
		</clipPath>
	</defs>
	<style>
		tspan { white-space:pre }
		.shp0 { fill: #2c2e35 } 
	</style>
	<g id="Clip-Path: Page 1" clip-path="url(#cp1)">
		<g id="Page 1">
			<path id="Path 1" class="shp0" d="M0 444.11L29.54 444.11L29.54 177.15L0 177.15L0 444.11ZM353.46 177.15L353.46 203.02L412.92 203.02L412.92 444.11L442.46 444.11L442.46 203.02L501.82 203.02L501.82 177.15L353.46 177.15Z" />
			<path id="Path 3" fill-rule="evenodd" class="shp0" d="M694.9 177.15L723.96 177.15L723.96 364.68C723.96 413.44 706.25 448.44 650.07 448.44C595.71 448.44 577.24 415.36 577.24 366.6L577.24 177.15L607.16 177.15L607.16 364.29C607.16 393.82 615.44 422.86 650.84 422.86C686.24 422.86 694.9 398.53 694.9 364.29L694.9 177.15ZM933.78 177.15L1082.14 177.15L1082.14 203.02L1022.78 203.02L1022.78 444.11L993.24 444.11L993.24 203.02L933.78 203.02L933.78 177.15ZM1171.42 177.15L1200.85 177.15L1200.85 444.11L1171.42 444.11L1171.42 177.15ZM1428.19 177.15L1458.4 177.15L1389.61 444.11L1354.21 444.11L1288.11 177.15L1319.57 177.15L1349.11 303.71C1357.77 341.12 1367.97 387.47 1371.53 413.05L1372.3 413.05C1375.47 390.26 1388.46 341.5 1397.5 303.71L1428.19 177.15ZM1572.21 203.02L1572.21 289.95L1661.01 289.95L1661.01 315.92L1572.21 315.92L1572.21 418.15L1667.55 418.15L1667.55 444.11L1543.06 444.11L1543.06 177.15L1667.55 177.15L1667.55 203.02L1572.21 203.02ZM818.91 177.15L848.45 177.15L848.45 444.11L818.91 444.11L818.91 177.15ZM255.62 176.95L283.14 176.95L283.14 444.02L248.6 444.02C248.6 444.02 175.39 267.26 157.59 222.25C156.34 219.27 155.47 217.25 154.99 215.52C154.8 215.23 154.7 214.94 154.6 214.75L154.32 214.75C156.24 248.12 156.62 291.78 156.62 339.77L156.62 444.02L129.11 444.02L129.11 176.95L165.28 176.95C165.28 176.95 230.32 326.88 255.24 391.99C256.3 394.68 257.06 396.7 257.64 398.34L258.03 398.34C256.01 362.56 255.62 322.46 255.62 278.8L255.62 176.95ZM892.13 58.38C892.13 90.59 865.86 116.75 833.73 116.75C801.5 116.75 775.33 90.59 775.33 58.38C775.33 26.16 801.5 0 833.73 0C865.86 0 892.13 26.16 892.13 58.38ZM863.94 58.38C863.94 41.74 850.37 28.18 833.73 28.18C816.99 28.18 803.42 41.74 803.42 58.38C803.42 75.01 816.99 88.57 833.73 88.57C850.37 88.57 863.94 75.01 863.94 58.38Z" />
		</g>
	</g>
</svg>