<svg version="1.2" xmlns="http://www.w3.org/2000/svg" viewBox="0 0 1554 313" width="1554" height="313">
	<title>intuit-svg</title>
	<style>
		.s0 { fill: #236cff } 
	</style>
	<path id="Layer" class="s0" d="m797.3 6.1h77.4v165.5c0 41.2 28.5 68.6 65.8 68.6 37.4 0 65.8-27.6 65.8-68.6v-165.5h77.5v174.5c0 76-63 131.6-143.1 131.6-80 0-143-55.6-143-131.6zm493.6-0.1h262.4v70h-92.5v230.4h-77.5v-230.4h-92.4zm-127.6 0h77.5v300.4h-77.5zm-678.5 0h262.3v70h-92.3v230.4h-77.5v-230.4h-92.5zm-483.9 0h77.5v300.4h-77.5zm443.1 125.5l0.5 174.9h-77.5v-165.5c0-41.2-28.5-68.6-65.8-68.6-37.4 0-65.8 27.6-65.8 68.6v165.5h-77.5v-174.9c0-76 63-131.5 143.1-131.5 80.1 0 143 55.5 143 131.5z"/>
</svg>