<svg version="1.2" xmlns="http://www.w3.org/2000/svg" viewBox="0 0 1505 276" width="1505" height="276">
	<title>Logo (43)-svg</title>
	<style>
		.s0 { fill: #9fcc3b } 
		.s1 { fill: #04a54f } 
		.s2 { fill: #0c9347 } 
		.s3 { fill: #65bc46 } 
		.s4 { fill: #3cae49 } 
		.s5 { fill: #168241 } 
		.s6 { fill: #0b763c } 
		.s7 { fill: #231f20 } 
	</style>
	<g id="Layer">
		<path id="Layer" class="s0" d="m270.8 165.9c5.9 5.9 5.9 15.5 0 21.3l-83.4 83.5c-5.8 5.9-15.4 5.9-21.2 0l-28.1-28.1-28.1 28.1c-5.9 5.9-15.4 5.9-21.3 0l-83.3-83.4c-5.9-5.9-5.9-15.5 0-21.3l28-28.1-28-28.2c-5.9-5.8-5.9-15.4 0-21.3l83.3-83.4c5.9-5.9 15.4-5.9 21.3 0l28 28.1 28.1-28.1c5.9-5.9 15.4-5.9 21.3 0l83.4 83.4c5.8 5.9 5.8 15.5 0 21.3l-28.1 28.2z"/>
		<path id="Layer" class="s1" d="m138.1 242.6l-28.1 28.1c-5.9 5.9-15.4 5.9-21.3 0l-83.4-83.4c-5.8-5.9-5.8-15.5 0-21.3l28.1-28.1 31.8 31.8c3.7 3.7 9.1 5.2 14.1 4l30.2-7.3-7.2 30.2c-1.2 5.1 0.3 10.5 4 14.2z"/>
		<path id="Layer" class="s2" d="m159.7 137.8l-2 8.5c-1.4 5.6-5.7 9.8-11.1 11.2l-67.3 16.1c-5 1.3-10.4-0.3-14.1-4l-31.8-31.8 31.8-31.8c3.7-3.7 9.1-5.2 14.1-4l67.3 16.2c5.5 1.3 9.7 5.6 11.1 11.1z"/>
		<path id="Layer" class="s2" d="m138 116.2l8.6 2c5.5 1.3 9.7 5.6 11.1 11.1l16.1 67.3c1.2 5.1-0.3 10.5-4 14.2l-31.8 31.8-31.7-31.8c-3.7-3.7-5.2-9.1-4-14.2l16.1-67.3c1.4-5.5 5.7-9.8 11.1-11.1z"/>
		<path id="Layer" class="s3" d="m116.4 137.8l2-8.5c1.4-5.5 5.7-9.8 11.1-11.1l67.2-16.2c5.1-1.2 10.5 0.3 14.2 4l31.8 31.9-31.8 31.8c-3.7 3.7-9.1 5.2-14.2 4l-67.2-16.2c-5.5-1.3-9.7-5.6-11.1-11.1z"/>
		<path id="Layer" class="s3" d="m138 159.5l-8.5-2c-5.5-1.3-9.7-5.6-11.1-11.1l-16.1-67.3c-1.2-5.1 0.3-10.5 4-14.2l31.7-31.8 31.8 31.8c3.7 3.7 5.2 9.1 4 14.2l-16.1 67.2c-1.4 5.6-5.7 9.8-11.1 11.2z"/>
		<path id="Layer" class="s4" d="m116.4 137.9l2-8.6c1.4-5.5 5.7-9.8 11.1-11.1l37.1-8.9-8.9 37.1c-1.4 5.5-5.7 9.8-11.1 11.1l-8.6 2-8.5-2c-5.5-1.3-9.7-5.6-11.1-11.1z"/>
		<path id="Layer" class="s5" d="m138 159.5l-8.5-2c-5.5-1.4-9.7-5.7-11.1-11.2l-8.9-37 37.1 8.9c5.5 1.3 9.7 5.6 11.1 11.1l2 8.5-2 8.5c-1.4 5.6-5.7 9.8-11.1 11.2z"/>
		<path id="Layer" class="s5" d="m138 116.2l8.6 2c5.5 1.3 9.7 5.6 11.1 11.1l8.9 37.1-37.1-8.9c-5.5-1.3-9.7-5.6-11.1-11.1l-2-8.5 2-8.6c1.4-5.5 5.7-9.8 11.1-11.1z"/>
		<path id="Layer" class="s5" d="m159.7 137.9l-2 8.5c-1.4 5.5-5.7 9.8-11.1 11.1l-37.1 8.9 8.9-37.1c1.4-5.5 5.7-9.8 11.1-11.1l8.5-2 8.6 2c5.5 1.3 9.7 5.6 11.1 11.1z"/>
		<path id="Layer" class="s6" d="m159.7 137.9l-2 8.5c-1.4 5.5-5.6 9.8-11.1 11.1l-8.6 2-8.5-2c-5.5-1.3-9.7-5.6-11.1-11.1l-2-8.5 2-8.6c1.4-5.5 5.7-9.8 11.1-11.1l8.5-2 8.6 2c5.5 1.3 9.7 5.6 11.1 11.1z"/>
		<path id="Layer" class="s3" d="m1489.3 109.2h-3v-1.5h7.7v1.5h-3v8.1h-1.7z"/>
		<path id="Layer" class="s3" d="m1495.3 107.7h1.8l2.9 4.5 2.9-4.5h1.8v9.6h-1.7v-6.9l-3 4.5h-0.1l-2.9-4.5v6.9h-1.7z"/>
		<path id="Layer" class="s3" d="m361 85.2c0-5.4 4.5-8.9 10.3-8.9 5.8 0 10.3 3.5 10.3 8.9v0.9c0 5.4-4.5 9-10.3 9-5.9 0-10.3-3.6-10.3-9z"/>
		<path id="Layer" class="s7" d="m362.3 114.7c0-5.1 3.9-9.1 9-9.1 5.1 0 9.1 4 9.1 9.1v62.7c0 5.1-4 9-9.1 9-5 0-9-3.9-9-9z"/>
		<path id="Layer" class="s7" d="m398.3 114.7c0-5.1 3.8-9.1 8.9-9.1 5.1 0 9.2 4 9.2 9.1v3.9c5.1-7.4 12.4-13.8 24.7-13.8 17.8 0 28.1 12 28.1 30.3v42.3c0 5.1-3.9 8.9-9 8.9-5.1 0-9.1-3.8-9.1-8.9v-36.8c0-12.2-6.1-19.3-16.9-19.3-10.5 0-17.8 7.4-17.8 19.6v36.5c0 5.1-4.1 8.9-9.2 8.9-4.9 0-8.9-3.8-8.9-8.9z"/>
		<path id="Layer" class="s7" d="m515.4 187.1h-0.9c-4.9 0-8.2-3.1-10.3-7.9l-26.4-60.5c-0.4-1.3-1-2.8-1-4.5 0-4.5 4-8.7 9-8.7 4.9 0 7.5 2.9 9 6.6l20.3 52.5 20.7-52.8c1.3-3.1 3.7-6.3 8.5-6.3 5 0 8.9 3.8 8.9 8.7 0 1.7-0.6 3.5-1.1 4.4l-26.3 60.5c-2.1 4.7-5.4 8-10.4 8z"/>
		<path id="Layer" class="s3" d="m562 85.2c0-5.4 4.5-8.9 10.3-8.9 5.8 0 10.3 3.5 10.3 8.9v0.9c0 5.4-4.5 9-10.3 9-5.8 0-10.3-3.6-10.3-9z"/>
		<path id="Layer" class="s7" d="m563.4 114.7c0-5.1 3.8-9.1 8.9-9.1 5.1 0 9.2 4 9.2 9.1v62.7c0 5.1-4.1 9-9.2 9-4.9 0-8.9-3.9-8.9-9z"/>
		<path id="Layer" class="s7" d="m602.2 163.7v-41.7h-3c-4.3 0-7.8-3.4-7.8-7.8 0-4.3 3.5-7.8 7.8-7.8h3v-13.5c0-4.9 4.1-9 9.2-9 4.9 0 8.9 4.1 8.9 9v13.5h14.3c4.3 0 7.9 3.5 7.9 7.8 0 4.4-3.6 7.8-7.9 7.8h-14.3v38.9c0 7 3.6 9.8 9.8 9.8 2.1 0 3.8-0.4 4.5-0.4 4 0 7.6 3.3 7.6 7.5 0 3.3-2.3 6-4.8 7-3.9 1.4-7.7 2.1-12.4 2.1-13.3 0.1-22.8-5.8-22.8-23.2z"/>
		<path id="Layer" fill-rule="evenodd" class="s7" d="m648.5 162.8v-0.3c0-17.1 13.3-25.5 32.6-25.5 8.9 0 15.2 1.4 21.3 3.3v-1.9c0-11.3-6.9-17.3-19.6-17.3-6.9 0-12.6 1.2-17.5 3.2-1.1 0.3-2 0.4-2.9 0.4-4.2 0-7.6-3.3-7.6-7.5 0-3.3 2.2-6.1 4.9-7.2 7.5-2.8 15.1-4.6 25.5-4.6 11.8 0 20.6 3.1 26.2 8.8 5.8 5.7 8.5 14.1 8.5 24.4v39c0 4.9-3.9 8.7-8.8 8.7-5.3 0-8.9-3.6-8.9-7.7v-3c-5.3 6.5-13.6 11.6-25.7 11.6-14.8 0.1-28-8.5-28-24.4zm54.2-5.7v-5.4c-4.6-1.8-10.8-3.1-17.9-3.1-11.7 0-18.6 4.9-18.6 13.2v0.3c0 7.6 6.7 12 15.4 12 12 0 21.1-6.9 21.1-17z"/>
		<path id="Layer" class="s7" d="m738.9 163.7v-41.7h-3c-4.4 0-7.8-3.4-7.8-7.8 0-4.3 3.4-7.8 7.8-7.8h3v-13.5c0-4.9 4-9 9.1-9 4.9 0 9 4.1 9 9v13.5h14.2c4.3 0 8 3.5 8 7.8 0 4.4-3.6 7.8-8 7.8h-14.2v38.9c0 7 3.6 9.8 9.7 9.8 2.1 0 3.9-0.4 4.5-0.4 4 0 7.7 3.3 7.7 7.5 0 3.3-2.3 6-4.8 7-3.9 1.4-7.7 2.1-12.5 2.1-13.3 0.1-22.7-5.8-22.7-23.2z"/>
		<path id="Layer" class="s3" d="m788.4 85.2c0-5.4 4.5-8.9 10.3-8.9 5.9 0 10.4 3.5 10.4 8.9v0.9c0 5.4-4.5 9-10.4 9-5.8 0-10.3-3.6-10.3-9z"/>
		<path id="Layer" class="s7" d="m789.7 114.7c0-5.1 3.9-9.1 9-9.1 5.1 0 9.1 4 9.1 9.1v62.7c0 5.1-4 9-9.1 9-4.9 0-9-3.9-9-9z"/>
		<path id="Layer" fill-rule="evenodd" class="s7" d="m821 146.5v-0.3c0-22.7 17.9-41.4 42.2-41.4 24.3 0 42.1 18.5 42.1 41.1v0.3c0 22.5-18 41.2-42.4 41.2-24.1 0-41.9-18.4-41.9-40.9zm66.2 0v-0.3c0-14-10.1-25.5-24.3-25.5-14.5 0-23.8 11.4-23.8 25.2v0.3c0 13.8 10 25.3 24.1 25.3 14.7 0 24-11.4 24-25z"/>
		<path id="Layer" class="s7" d="m918.5 114.7c0-5.1 3.9-9.1 9-9.1 5.1 0 9.1 4 9.1 9.1v3.9c5.1-7.4 12.4-13.8 24.7-13.8 17.8 0 28.2 12 28.2 30.3v42.3c0 5.1-3.9 8.9-9 8.9-5.1 0-9.2-3.8-9.2-8.9v-36.8c0-12.2-6.1-19.3-16.9-19.3-10.5 0-17.8 7.4-17.8 19.6v36.5c0 5.1-4 8.9-9.1 8.9-5 0-9-3.8-9-8.9z"/>
		<path id="Layer" class="s3" d="m1021.6 84.5c0-5 3.9-9 9-9 5.1 0 9.1 4 9.1 9v34.1c5.1-7.3 12.4-13.8 24.7-13.8 17.8 0 28.1 12 28.1 30.3v42.3c0 5.1-3.8 8.9-8.9 8.9-5.1 0-9.2-3.8-9.2-8.9v-36.8c0-12.2-6.1-19.3-16.9-19.3-10.4 0-17.8 7.4-17.8 19.6v36.5c0 5.1-4 8.9-9.1 8.9-5 0-9-3.8-9-8.9z"/>
		<path id="Layer" fill-rule="evenodd" class="s3" d="m1104.9 146.5v-0.3c0-22.6 18-41.3 42.3-41.3 24.2 0 42 18.4 42 41v0.3c0 22.5-17.9 41.2-42.3 41.2-24.1 0-42-18.4-42-40.9zm66.2 0v-0.3c0-14-10-25.5-24.3-25.5-14.5 0-23.8 11.4-23.8 25.2v0.3c0 13.8 10 25.3 24.1 25.3 14.7 0 24-11.4 24-25z"/>
		<path id="Layer" class="s3" d="m1202.7 114.7c0-5.1 3.9-9.1 9-9.1 5.1 0 9.1 4 9.1 9.1v3.8c5.1-7.1 12-13.6 24.1-13.6 11.4 0 19.5 5.5 23.7 13.9 6.3-8.4 14.7-13.9 26.6-13.9 17.3 0 27.7 10.9 27.7 30.2v42.3c0 5.1-3.9 9-9 9-5.1 0-9.1-3.9-9.1-9v-36.8c0-12.5-5.8-19.3-16-19.3-9.9 0-16.9 6.9-16.9 19.6v36.5c0 5.1-4 8.9-9 8.9-5.1 0-9.1-3.8-9.1-8.9v-36.9c0-12.3-6-19.2-16-19.2-10 0-16.9 7.5-16.9 19.6v36.5c0 5.1-4 8.9-9.1 8.9-5 0-9-3.8-9-8.9v-62.7z"/>
		<path id="Layer" fill-rule="evenodd" class="s3" d="m1376.5 187.4c-22.9 0-40.6-16.6-40.6-41.1v-0.3c0-22.6 16-41.1 38.6-41.1 25.2 0 37.6 20.6 37.6 38.9 0 5.1-3.9 8.7-8.5 8.7h-49.6c2 12.9 11.1 20.1 22.8 20.1 7.6 0 13.6-2.7 18.7-6.9 1.3-1 2.5-1.7 4.6-1.7 4 0 7.2 3.2 7.2 7.4 0 2.2-1.1 4.1-2.4 5.5-7.1 6.4-16.1 10.5-28.4 10.5zm18-46.9c-1.2-11.7-8.1-20.8-20.1-20.8-11.1 0-18.8 8.5-20.5 20.8z"/>
		<path id="Layer" class="s3" d="m1422.4 177.6c-2-1-3.5-3.2-3.5-6.2 0-4.1 3.2-7.4 7.3-7.4 1.5 0 2.9 0.5 3.9 1.1 7.7 5.1 15.6 7.6 22.8 7.6 7.7 0 12.2-3.3 12.2-8.6v-0.3c0-6.1-8.4-8.2-17.6-11-11.7-3.3-24.7-8.1-24.7-23.3v-0.3c0-14.9 12.4-24.1 28.1-24.1 8.4 0 17.2 2.4 24.9 6.5 2.5 1.3 4.3 3.7 4.3 6.8 0 4.2-3.3 7.4-7.5 7.4-1.5 0-2.4-0.3-3.6-0.9-6.4-3.3-13-5.4-18.5-5.4-7.1 0-11.1 3.3-11.1 7.8v0.3c0 5.9 8.5 8.3 17.8 11.3 11.5 3.6 24.5 8.8 24.5 23v0.3c0 16.6-12.8 24.9-29.3 24.9-10 0-20.9-3.2-30-9.5z"/>
	</g>
</svg>