<svg version="1.2" baseProfile="tiny-ps" xmlns="http://www.w3.org/2000/svg" viewBox="0 0 1614 289" width="1614" height="289">
	<title>iqvia-logo-color (1)-svg</title>
	<style>
		tspan { white-space:pre }
		.shp0 { fill: #00aae7 } 
		.shp1 { fill: #004a7c } 
		.shp2 { fill: #668bb3 } 
	</style>
	<g id="Layer">
		<path id="Layer" fill-rule="evenodd" class="shp0" d="M835.7 126.27C838.4 177.84 811.4 224.15 769.55 248.45L778.46 265.46C782.51 273.15 779.54 282.61 771.85 286.65C764.15 290.7 754.7 287.74 750.65 280.04L740.66 261L740.52 261C730.67 263.84 720.41 265.73 709.75 266.27C636.44 270.05 573.53 213.49 569.75 140.18C565.84 66.88 622.4 4.1 695.7 0.19C769.14 -3.6 831.92 52.83 835.7 126.27ZM804.38 127.89C801.41 71.87 753.49 28.67 697.46 31.64C641.43 34.61 598.23 82.53 601.2 138.56C604.17 194.58 652.1 237.78 708.12 234.81C714.06 234.54 719.87 233.74 725.54 232.38L725.67 232.38L715.82 213.49C711.77 205.79 714.74 196.34 722.43 192.29C730.13 188.24 739.58 191.21 743.63 198.9L754.97 220.5C786.15 201.74 806.4 166.77 804.38 127.89Z" />
		<path id="Layer" class="shp0" d="M491.18 265.73C482.54 265.73 475.38 258.71 475.38 249.94L475.38 16.52C475.38 7.88 482.4 0.73 491.18 0.73C499.95 0.73 506.98 7.75 506.98 16.52L506.98 249.93C506.84 258.58 499.82 265.73 491.18 265.73Z" />
		<path id="Layer" class="shp1" d="M1238.13 265.73C1229.5 265.73 1222.34 258.71 1222.34 249.94L1222.34 16.52C1222.34 7.88 1229.36 0.73 1238.13 0.73C1246.78 0.73 1253.93 7.75 1253.93 16.52L1253.93 249.93C1253.93 258.58 1246.91 265.73 1238.13 265.73Z" />
		<path id="Layer" class="shp1" d="M1014.03 265.73L1014.03 265.73C1008.1 265.73 1002.83 262.49 1000.13 257.36L877.82 23.81C873.77 16.12 876.74 6.67 884.43 2.62C892.13 -1.44 901.58 1.54 905.63 9.23L1014.03 216.32L1124.6 9.1C1128.65 1.4 1138.23 -1.44 1145.93 2.62C1153.62 6.67 1156.46 16.25 1152.41 23.94L1027.8 257.36C1025.24 262.49 1019.84 265.73 1014.03 265.73Z" />
		<g id="Layer">
			<path id="Layer" class="shp1" d="M1513.13 212.68L1437.26 212.68C1428.62 212.68 1421.46 205.66 1421.46 196.88C1421.46 188.24 1428.48 181.09 1437.26 181.09L1513.13 181.09C1521.77 181.09 1528.92 188.11 1528.92 196.88C1528.79 205.65 1521.77 212.68 1513.13 212.68Z" />
			<path id="Layer" class="shp1" d="M1598.18 265.73C1592.51 265.73 1586.98 262.63 1584.28 257.23L1475.87 50.13L1365.31 257.36C1361.26 265.06 1351.67 267.89 1343.98 263.84C1336.28 259.79 1333.45 250.2 1337.5 242.51L1462.1 9.09C1464.8 3.96 1470.2 0.59 1476.01 0.72C1481.81 0.72 1487.21 3.96 1489.91 9.09L1612.09 242.51C1616.13 250.2 1613.17 259.65 1605.47 263.7C1603.17 265.06 1600.75 265.73 1598.18 265.73Z" />
		</g>
	</g>
	<g id="Layer">
		<path id="Layer" class="shp1" d="M384.13 221.86L306.9 221.86C301.51 231.71 295.3 240.62 288.28 248.59L384.13 248.59C391.55 248.59 397.49 242.51 397.49 235.22L397.49 235.22C397.63 227.93 391.55 221.86 384.13 221.86Z" />
		<path id="Layer" class="shp1" d="M384.13 170.82L325.4 170.82C323.51 180.14 321.08 189.05 317.97 197.56L384.26 197.56C391.68 197.56 397.63 191.48 397.63 184.19C397.63 176.9 391.55 170.82 384.13 170.82Z" />
		<path id="Layer" class="shp1" d="M384.13 119.8L328.64 119.8C328.91 123.98 329.05 128.16 329.05 132.49C329.05 137.21 328.91 141.93 328.51 146.66L384.13 146.66C391.55 146.66 397.49 140.59 397.49 133.29C397.63 125.87 391.55 119.8 384.13 119.8Z" />
		<path id="Layer" class="shp1" d="M384.13 68.76L318.38 68.76C321.35 77.27 323.78 86.31 325.54 95.5L384.13 95.5C391.55 95.5 397.49 89.42 397.49 82.13L397.49 82.13C397.63 74.84 391.55 68.76 384.13 68.76Z" />
		<path id="Layer" class="shp1" d="M384.13 17.74L289.63 17.74C296.51 25.7 302.59 34.75 307.85 44.46L384.26 44.46C391.69 44.46 397.63 38.39 397.63 31.1C397.63 23.81 391.55 17.74 384.13 17.74Z" />
		<path id="Layer" class="shp0" d="M128.84 235.36L128.84 235.36C128.84 227.93 134.91 221.99 142.21 221.99L89.56 221.99C82.13 221.99 76.19 228.07 76.19 235.36L76.19 235.36C76.19 242.78 82.26 248.72 89.56 248.72L142.34 248.72C134.91 248.72 128.84 242.64 128.84 235.36Z" />
		<path id="Layer" class="shp2" d="M306.9 221.86L142.21 221.86C134.78 221.86 128.84 227.93 128.84 235.22L128.84 235.22C128.84 242.64 134.92 248.58 142.21 248.58L288.28 248.58C295.3 240.75 301.5 231.71 306.9 221.86Z" />
		<path id="Layer" class="shp0" d="M91.44 187.16C89.69 178.52 96.31 170.96 104.54 170.96L51.75 170.96C44.33 170.96 38.39 177.03 38.39 184.33C38.39 191.62 44.46 197.69 51.75 197.69L104.94 197.69C98.6 197.69 92.8 193.37 91.44 187.16Z" />
		<path id="Layer" class="shp2" d="M325.4 170.82L104.54 170.82C96.3 170.82 89.69 178.52 91.44 187.02C92.79 193.24 98.6 197.55 104.94 197.55L317.84 197.55C320.94 189.05 323.51 180.14 325.4 170.82Z" />
		<path id="Layer" class="shp0" d="M53.78 136C52.02 127.36 58.64 119.8 66.88 119.8L14.09 119.8C6.67 119.8 0.73 125.87 0.73 133.16C0.73 140.59 6.8 146.52 14.09 146.52L67.28 146.52C60.94 146.66 55.13 142.34 53.78 136Z" />
		<path id="Layer" class="shp2" d="M53.78 136C55.13 142.21 60.94 146.52 67.28 146.52L328.51 146.52C328.78 141.8 329.05 137.21 329.05 132.35C329.05 128.03 328.91 123.84 328.64 119.66L66.88 119.66C58.64 119.8 52.02 127.49 53.78 136Z" />
		<path id="Layer" class="shp0" d="M72.14 82.13C72.14 74.7 78.22 68.76 85.5 68.76L32.86 68.76C25.43 68.76 19.49 74.84 19.49 82.13L19.49 82.13C19.49 89.56 25.56 95.5 32.86 95.5L85.64 95.5C78.22 95.5 72.14 89.56 72.14 82.13Z" />
		<path id="Layer" class="shp2" d="M318.38 68.76L85.64 68.76C78.22 68.76 72.27 74.84 72.27 82.13C72.27 89.56 78.35 95.5 85.64 95.5L325.67 95.5C323.91 86.31 321.49 77.27 318.38 68.76Z" />
		<path id="Layer" class="shp0" d="M169.48 33.94C167.72 25.3 174.33 17.74 182.57 17.74L129.78 17.74C122.36 17.74 116.42 23.81 116.42 31.1C116.42 38.39 122.5 44.46 129.78 44.46L182.98 44.46C176.63 44.46 170.82 40.14 169.48 33.94Z" />
		<path id="Layer" class="shp2" d="M289.63 17.74L182.57 17.74C174.34 17.74 167.72 25.43 169.48 33.94C170.82 40.14 176.63 44.46 182.98 44.46L307.71 44.46C302.59 34.75 296.38 25.7 289.63 17.74Z" />
	</g>
</svg>