<svg version="1.2" xmlns="http://www.w3.org/2000/svg" viewBox="0 0 1505 390" width="1505" height="390">
	<title>logo-iron-mountain-2-svg</title>
	<style>
		.s0 { opacity: .7;fill: #13487d } 
		.s1 { opacity: .7;fill: #1c75bc } 
		.s2 { opacity: .7;fill: #6dcff6 } 
		.s3 { fill: #000000 } 
	</style>
	<g id="Layer">
		<g id="Layer">
			<path id="Layer" class="s0" d="m176.2 103.3l87.3 142.2 88.1 142.2h-175.4-176.2l88.1-142.2z"/>
			<path id="Layer" class="s1" d="m309.7 0l88.1 194.2 88.1 193.5h-176.2-176.1l88.1-193.5z"/>
			<path id="Layer" class="s2" d="m242.6 55.6l88.1 166.1 88.1 166h-176.2-175.5l88.1-166z"/>
		</g>
		<g id="Layer">
			<path id="Layer" fill-rule="evenodd" class="s3" d="m527.8 55.6h10.1v123.5h-10.1zm147.3 123.4h-12.3v-0.7l-39.7-56.3h-41.2v57h-10.1v-123.4h54.9c23.8 0 38.3 13 38.3 33.2 0 18-10.9 29.6-29.6 32.5zm-93.2-66.5h44.1c18 0 28.1-8.6 28.1-23.8 0-15.1-10.1-23.8-28.1-23.8h-44.1zm168.3 67.9c-34 0-61.4-28.4-61.4-63.6 0-35.1 27.4-63.5 61.4-63.5 33.9 0 61.3 28.4 61.3 63.5 0 35.2-27.4 63.6-61.3 63.6zm50.5-63.2c0-29.8-22.7-53.8-50.9-53.8-28.1 0-50.9 24-50.9 53.8 0 29.7 22.8 53.8 50.9 53.8 28.2 0 50.9-24.1 50.9-53.8zm128.5-61.8h10.1v123.5h-8.6v-0.7l-80.9-104.7v105.4h-10.1v-123.5h8.7l80.8 104.7zm-300.3 208.7h10.1v122.8h-10.9v-106.2l-42.6 55.6h-6.5l-42.6-55.6v106.2h-10.1v-122.8h10.1l46.3 60.7zm98.9 124.9c-34 0-61.4-28.4-61.4-63.6 0-35.1 27.4-63.5 61.4-63.5 33.9 0 61.3 28.4 61.3 63.5 0 35.2-27.4 63.6-61.3 63.6zm50.5-63.2c0-29.8-22.7-53.8-50.9-53.8-28.1 0-50.9 24-50.9 53.8 0 29.7 22.8 53.8 50.9 53.8 28.2 0 50.9-24.1 50.9-53.8zm127.1 8.3v-70.8h10.1v70.8c0 33.9-19.5 54.9-49.8 54.9-31.1 0-49.8-21-49.8-54.9v-70.8h10.1v70.8c0 28.2 14.4 44.8 38.9 44.8 24.6 0 39-16.6 39-44.8zm129.3-70h10.1v122.7h-8.7l-80.8-104.7v104.7h-10.2v-122.7h8.7l80.9 104.7zm128.5 9.3h-43.3v113.4h-10.1v-113.4h-44.1v-9.3h97.5zm110.5 114h-10.9l-15.9-35.3h-67.1l-15.9 35.3h-10.8l0.7-1.4 55.6-122.8h9.4zm-59.9-110.4l-29.6 65h59.2zm81.6-13h10.1v123.4h-10.1zm133.5 0h10.9v122.8h-9.4l-80.2-104.7v104.7h-10.8v-122.8h9.4l80.1 104.7zm52.7 38.3c-12.7 0-23.1-10.3-23.1-23.1 0-12.8 10.4-23.1 23.1-23.1 12.8 0 23.1 10.3 23.1 23.1 0 12.8-10.3 23.1-23.1 23.1zm19.5-23.1c0-10.8-8.7-19.5-19.5-19.5-10.8 0-19.5 8.7-19.5 19.5 0 10.8 8.7 19.5 19.5 19.5 10.8 0 19.5-8.7 19.5-19.5zm-13.7 1.4l7.9 10.9h-5l-7.2-10.1h-5.8v10.1h-4.3v-24.6h10.8c5.1 0 7.9 2.9 7.9 7.2q0 4.4-4.3 6.5zm-10.1-4.3h6.5c2.2 0 3.6-0.7 3.6-2.9 0-2.2-2.2-2.9-3.6-2.9h-6.5z"/>
		</g>
	</g>
</svg>