<svg version="1.2" xmlns="http://www.w3.org/2000/svg" viewBox="0 0 1552 296" width="1552" height="296">
	<title>jack-henry-logo-pdf-svg</title>
	<defs>
		<clipPath clipPathUnits="userSpaceOnUse" id="cp1">
			<path d="m0 0h1552v296h-1552z"/>
		</clipPath>
		<linearGradient id="g1" x1="53" y1="11.1" x2="53" y2="56.2" gradientUnits="userSpaceOnUse">
			<stop offset="0" stop-color="#76dcfd"/>
			<stop offset="1" stop-color="#085ce5"/>
		</linearGradient>
	</defs>
	<style>
		.s0 { fill: #06185f } 
		.s1 { fill: url(#g1) } 
	</style>
	<g id="Clip-Path: Page 1" clip-path="url(#cp1)">
		<g id="Page 1">
			<path id="Path 1" fill-rule="evenodd" class="s0" d="m1349.6 295.5l28.6-66.8-71.4-150.5h53.4l43.1 91.7 39.1-91.7h52.7l-92.7 217.3zm-153.3-68.6v-148.7h50.2v16c13.4-11.4 29.5-18.4 51.8-18.4v47.2c-24.5 0.9-40 7.3-51.8 19v84.9zm-171.6 0v-148.7h50.3v10.2c12-9.5 25.4-14.8 41.5-14.8 38.2 0 64.2 26.1 64.2 68.4v84.9h-50.5v-76.9c0-21.2-10.9-31.3-27.3-31.3-9.3 0-19.3 5.2-27.9 15v93.2zm-171.8-74.5c0-45.1 31.9-77.5 80-77.5 43.7 0 76.9 29.7 76.9 74.4 0 5.5 0 11.4-0.9 16.9l0.3 0.9h-107.3c4 13.5 14.5 23.9 33.8 23.9 10.5 0 18.6-4 22.9-10.7h49.7c-7.2 30.7-36 49.9-73.2 49.9-49.3 0-82.2-32.4-82.2-77.8zm80-39.2c-17.1 0-27.9 9.8-31.7 24.8h61.5c-2.8-16.3-13.7-24.8-29.8-24.8zm-251.2 113.7v-226.9h50.3v88.4c12.1-9.5 25.4-14.8 41.6-14.8 38.1 0 64.2 26.1 64.2 68.4v84.9h-50.6v-76.9c0-21.2-10.8-31.3-27.3-31.3-9.3 0-19.2 5.2-27.9 15v93.2zm-231.8 0v-226.9h50.2v134l52.5-55.8h59.8l-57 60.7 62 88h-60.2l-35.9-51.5-21.2 22.4v29.1zm-174.5-74.5c0-45.1 34.8-77.5 82.3-77.5 41.5 0 73.4 26 76.8 64.3h-47.4c-2.5-13.5-14-22.3-29.4-22.3-21.5 0-34.5 15.3-34.5 35.5 0 20.2 13 35.9 34.5 35.9 15.4 0 26.9-8.9 29.4-22.4h47.4c-3.3 38.3-35.3 64.3-76.8 64.3-47.5 0-82.3-32.4-82.3-77.8zm-181.4 0c0-44.4 34.1-77.5 74.8-77.5 16.4 0 30.1 4.3 41.2 11.3v-8h50.3v148.7h-50.3v-8.3c-11.1 7.1-24.8 11.4-41.2 11.4-40.7 0-74.8-33.4-74.8-77.6zm121.4 23v-46c-9.3-10.7-20.1-14.1-31.4-14.1-20.4 0-35.3 16.6-35.3 37.1 0 20.6 14.9 36.8 35.3 36.8 11.2 0 22.1-3.1 31.4-13.8zm-215.4 74.8c22.3 0 27.9-5.9 27.9-23.7v-148.3h50.5v141.6c0 47.3-18.9 74.9-78.4 76.2z"/>
			<path id="Path 2" class="s1" d="m53 62.1c-17.4 0-31.4-13.9-31.4-31.1 0-17.1 14-31 31.4-31 17.4 0 31.4 13.9 31.4 31 0 17.2-14 31.1-31.4 31.1z"/>
			<path id="Path 3" class="s0" d="m1528.8 101.8v-24.1h5.6l3.7 9 2.2 6.1h0.3l2.2-6.1 3.6-9h5.6v24.1h-4.3v-10.6l0.5-8.2h-0.2l-5.8 15.1h-3.6l-5.7-15.1h-0.3l0.5 8.2v10.6zm-16.2 0v-19.9h-7.7v-4.2h20.2v4.2h-7.8v19.9z"/>
		</g>
	</g>
</svg>