<svg version="1.2" xmlns="http://www.w3.org/2000/svg" viewBox="0 0 1531 355" width="1531" height="355">
	<title>Jacobs_Engineering_Group_2019_logo-svg</title>
	<style>
		.s0 { fill: #000000 } 
	</style>
	<g id="layer1">
		<g id="g961">
		</g>
		<g id="g1633">
		</g>
		<g id="g7926">
			<g id="g3475">
				<path id="path3477" fill-rule="evenodd" class="s0" d="m1312.7 321.8l21.1-49.8c25.5 16.7 55.7 27.7 76.4 27.7 24.9 0 38.8-7.2 38.8-19.6 0-11.5-6.7-17.3-26.4-21.6l-29.2-6.2c-50-10.1-73.5-33.1-73.5-72.4 0-49.4 40.3-81.1 102.3-81.1 34 0 64.8 9.1 87.3 25.4l-21.6 49.4c-25-14.4-46.1-20.6-68.1-20.6-19.7 0-31.7 7.7-31.7 20.1 0 9.1 8.6 16.4 24.4 19.7l31.7 6.7c50.4 10.5 74.4 34.6 74.4 75.3 0 47.5-44.1 80.1-107.5 80.1-39.3-0.5-76.8-12.9-98.4-33.1zm-203-4.3c-0.5 11-1.5 21.1-2.4 30.7h-62.4c1.9-24.5 2.9-44.6 2.9-67.7v-279.5h66.2v134.8c15.4-23 40.3-37 73-37 60.4 0 107.4 49.4 107.4 128.1 0 81-51.8 128-109.8 128-29.8 0-57.1-12.5-74.9-37.4zm116.6-90.6c0-42.7-22.5-68.2-57.6-68.2-35 0-57.5 25.5-57.5 68.2 0 42.6 22.5 68 57.5 68 35.1 0 57.6-25.4 57.6-68zm-336.4 128c-69.6 0-125.8-57.2-125.8-128 0-70.8 56.2-128.1 125.8-128.1 69.5 0 125.7 57.3 125.7 128.1 0 70.8-56.2 128-125.7 128zm57.6-128c0-42.7-22.6-68.2-57.6-68.2-35.1 0-57.6 25.5-57.6 68.2 0 42.6 22.5 68 57.6 68 35 0 57.6-25.4 57.6-68zm-403.7 0c0-69.1 48.5-128.1 131.5-128.1 32.2 0 61 9.6 82.1 27.8l-26.4 52.3c-16.8-11-36.9-18.7-54.3-18.7-41.2 0-64.7 26.9-64.7 66.7 0 41.2 23.9 66.6 61.4 66.6 18.3 0 41.8-7.7 60-19.2l24 50.4c-20.6 18.7-54.7 30.2-87.8 30.2-77.8 0-125.8-49.4-125.8-128zm-89.7 94.9c-12 14.9-36 33.1-73.5 33.1-50.4 0-83.5-27.8-83.5-74.4 0-43.1 25.9-75.2 89.8-78.6l60.4-2.8v-10.1c0-24-15.3-36-38.9-36-23.9 0-37.8 10.1-41.7 25.9h-62.4c4.8-35.5 35.5-80.1 106.1-80.1 65.2 0 102.2 36.5 102.2 95.9v77.3c0 22.9 3.4 56.1 8.2 76.2h-62.4c-1.5-6.8-3.4-16.3-4.3-26.4zm-6.8-76.7l-47 2.4c-27.3 1.4-37.5 12.9-37.5 28.7 0 18.3 12.5 26.9 35.1 26.9 22.1 0 49.4-10.6 49.4-42.7zm-249.5-177.9h-66.7v-66.1h136.7v132.8h-70zm-197.8 164h69.6c3.8 33.1 25.4 56.6 62.9 56.6 39.8 0 65.3-26.8 65.3-68.1v-41.7h70v41.7c0 78.7-54.7 135.2-135.3 135.2-76.3 0-128.7-51.3-132.5-123.7z"/>
			</g>
			<g id="g3479">
				<path id="path3481" fill-rule="evenodd" class="s0" d="m1510.9 338.6c0-2 0.4-3.6 1.2-5.1 0.7-1.4 1.9-2.5 3.3-3.2 1.5-0.9 3.1-1.2 5.1-1.2 1.9 0 3.6 0.3 5 1.2q2.1 1.1 3.4 3.2 1.1 2.2 1.1 5.1 0 2.9-1.1 5.1-1.3 2.1-3.4 3.2c-1.4 0.8-3.1 1.2-5 1.2-2 0-3.6-0.4-5.1-1.2-1.4-0.7-2.6-1.8-3.3-3.2-0.8-1.5-1.2-3.2-1.2-5.1zm9.6 7.8c2.4 0 4.3-0.7 5.6-2 1.4-1.4 2-3.4 2-5.8 0-2.5-0.6-4.4-2-5.8-1.3-1.3-3.2-2-5.6-2-2.5 0-4.4 0.7-5.7 2-1.4 1.4-2 3.3-2 5.8 0 2.4 0.6 4.4 2 5.7 1.3 1.4 3.2 2.1 5.7 2.1zm-3.1-3.1v-9.4c0.6-0.1 1.1-0.1 1.6-0.1 0.5-0.1 0.9-0.1 1.3-0.1q3.9 0 3.9 3c0 1.3-0.6 2.2-1.8 2.7l2 3.9h-1.5l-1.8-3.6q-0.4 0.1-0.9 0-0.8 0-1.4 0v3.6zm2.8-8.3q-0.8 0-1.5 0v3.4q0.7 0.1 1.4 0.1 2.7 0 2.7-1.8c0-0.7-0.2-1.1-0.6-1.3q-0.6-0.4-2-0.4z"/>
			</g>
			<g id="g3487">
				<path id="path3489" fill-rule="evenodd" class="s0" d="m1510.9 338.6c0-2 0.4-3.6 1.2-5.1 0.7-1.4 1.9-2.5 3.3-3.2 1.5-0.9 3.1-1.2 5.1-1.2 1.9 0 3.6 0.3 5 1.2q2.1 1.1 3.4 3.2 1.1 2.2 1.1 5.1 0 2.9-1.1 5.1-1.3 2.1-3.4 3.2c-1.4 0.8-3.1 1.2-5 1.2-2 0-3.6-0.4-5.1-1.2-1.4-0.7-2.6-1.8-3.3-3.2-0.8-1.5-1.2-3.2-1.2-5.1zm9.6 7.8c2.4 0 4.3-0.7 5.6-2 1.4-1.4 2-3.4 2-5.8 0-2.5-0.6-4.4-2-5.8-1.3-1.3-3.2-2-5.6-2-2.5 0-4.4 0.7-5.7 2-1.4 1.4-2 3.3-2 5.8 0 2.4 0.6 4.4 2 5.7 1.3 1.4 3.2 2.1 5.7 2.1zm-3.1-3.1v-9.4c0.6-0.1 1.1-0.1 1.6-0.1 0.5-0.1 0.9-0.1 1.3-0.1q3.9 0 3.9 3c0 1.3-0.6 2.2-1.8 2.7l2 3.9h-1.5l-1.8-3.6q-0.4 0.1-0.9 0-0.8 0-1.4 0v3.6zm2.8-8.3q-0.8 0-1.5 0v3.4q0.7 0.1 1.4 0.1 2.7 0 2.7-1.8c0-0.7-0.2-1.1-0.6-1.3q-0.6-0.4-2-0.4z"/>
			</g>
		</g>
	</g>
</svg>