<svg version="1.2" xmlns="http://www.w3.org/2000/svg" viewBox="0 0 1547 395" width="1547" height="395">
	<title>J</title>
	<style>
		.s0 { fill: #000000 } 
		.s1 { fill: #ffdb00 } 
	</style>
	<g id="layer1">
		<g id="g3220">
			<path id="path3199" class="s0" d="m0 0h1464.7v394.4h-1464.7z"/>
			<path id="path3201" class="s1" d="m35 35h1394.5v324.2h-1394.5z"/>
			<path id="path3203" fill-rule="evenodd" class="s0" d="m1546.7 348.5c0 7.4-2.4 13.6-7.5 18.9-5.1 5.4-11.2 8.1-18.2 8.1-6.9 0-13-2.7-17.9-8.1-5-5-7.4-11.5-7.4-18.9 0-7.5 2.4-13.7 7.4-19 4.9-5.1 11-7.8 17.9-7.8 7.2 0 13.1 2.4 18.2 7.8 5.1 5.3 7.5 11.8 7.5 19zm-25.7-23c-6.1 0-11.2 2.1-15.5 6.7-4.2 4.2-6.4 9.9-6.4 16.3 0 6.4 2.2 12 6.4 16.5 4.3 4.6 9.4 6.7 15.5 6.7 6.2 0 11.2-2.1 15.5-6.7 4.3-4.8 6.4-10.1 6.4-16.5 0-6.4-2.1-11.8-6.4-16.3-4-4.6-9.3-6.7-15.5-6.7zm-10.1 8h9.9c3.4 0 6.1 0.5 7.7 1.1 2.9 1.3 4.3 3.7 4.3 7.5 0 2.6-0.8 4.5-2.7 5.8-1.1 0.6-2.4 1.1-4 1.4 2.1 0.2 3.7 1.3 4.8 2.9 1.1 1.6 1.6 2.9 1.6 4.6v4.2c0 0.8 0.3 1.4 0.3 1.6v0.3h-4.6v-0.5l-0.2-0.8v-2.4c0-3.5-0.8-5.7-2.7-6.7-1.1-0.8-2.9-1.1-5.6-1.1h-4v11.8h-4.8zm17.1 9.1c0-2.2-0.6-3.5-1.9-4.3-1.1-0.8-3.2-1.1-5.9-1.1h-4.2v10.7h4.5c1.9 0 3.5 0 4.5-0.5 1.9-0.8 2.7-2.4 3-4.8zm-162.1-37.2c-14.7 16.6-46.2 11-50.7 10.2h-946.5c-1.3 0-12.8 1.8-28.8-17.1-9.1-10.7-52.6-58-94.3-102.9h-59.8c-13.1 6.1-37.1-2.7-59.2-22.5-11.8-10.9-20.9-22.7-25.7-33.6h-0.2c-7.5-16.6-7.8-29.4-1.1-38.3 4.8-6.1 15.2-12.3 37.1-11.7h960.6c3.8-0.8 13.9-0.6 29.9 18.4 8.8 10.4 51 56.1 91.9 100.2h90.2v0.3c12.3-1.6 29.6 8.8 44.3 27.5 9.9 12.6 15.8 25.4 17.4 35.8 3.2 14.2 1.3 25.4-5.1 33.7zm-57.1-64.4c1.6 3.7 3.7 7.5 6.1 11.5h38.5c-1.9-3.5-4.3-7.2-7.2-11l-0.6-0.5zm18.2 39.8c-1.9-1.6-3.8-3.5-5.6-5.3h-39.5c1.6 1.8 3.2 3.7 4.8 5.3zm-35.8 4.6c0.8 0.8 1.6 1.8 2.4 2.6h43c-1.4-0.8-2.7-1.6-4-2.6zm25.9-14.7c-1.1-1.4-2.2-2.4-3.2-3.8-0.6-0.5-0.8-1-1.4-1.6h-40.3c1.9 1.9 3.5 3.5 5.1 5.4zm-8-10.2c-1.4-2.1-2.7-4-3.8-6.1h-42.9c1.8 2.1 3.7 4.2 5.6 6.1zm-3.8-37.1c-0.2 3.2 0.3 7.7 2.2 13.1h34.4c-15-16.3-29.4-22-34.2-18.2-1.3 1.1-2.1 2.7-2.4 5.1zm-5.9 19.7h-48c2.1 2.2 4.3 4.6 6.4 6.7h44.9c-1.1-2.1-2.2-4.5-3.3-6.7zm-1.3-4.5c-0.5-1.6-1.1-3.2-1.3-4.8h-53.7c1.3 1.6 3 3.2 4.3 4.8zm-70.5-21.4c3.7 4 7.5 7.8 10.9 11.8h57.4c-0.2-1.1-0.2-2.4-0.2-3.5 0-1.1 0.2-2.1 0.2-3.2 0.3-1.9 0.9-3.5 1.4-5.1zm-114-110.1h-937.4q4.4 4.8 11.2 12h937.1c-2.1-2.1-3.7-4-4.8-5.3-2.1-2.9-4.3-5.1-6.1-6.7zm-934.7 16.9h-20.9c2.4 1.8 5.1 4 7.5 6.1 1.3 1.1 2.7 2.4 4 3.7h18.7c-3.5-3.7-6.7-7.2-9.3-10.1zm-4.6-4.8c-2.1-2.2-4-4.3-5.6-5.9h-27.2c3.4 1.6 6.6 3.5 10.1 5.9zm-6.1-20.3c0.2 0 0.5 0.2 0.8 0.5l0.8 0.8c0.2 0.3 0.8 1.1 1.9 2.1h936.3c-5.9-4.2-9.1-4-9.1-4l-0.8 0.3zm-5.1 8.3h-37.1c1.6 0.3 3.2 0.8 4.8 1.3h33.7c-0.6-0.8-1.1-1.3-1.4-1.3zm-49.9-4.8h44.9c-1.9-1.1-4-1.9-7.3-2.4-20.2-2.7-31.5-0.8-37.6 2.4zm-6.1 5.1c0-0.3 0.5-0.3 0.8-0.3h-0.8zm1.3 26.2h47.3c-14.5-11.8-30.2-19.3-40.6-18.7-3.2 0.2-5.6 1-7 2.6-1.3 1.6-2.1 4.1-1.8 7 0.2 2.9 0.8 5.9 2.1 9.1zm13.9 21.6h53.4c-3.8-5.6-8.8-11.2-14.7-16.8h-50.5c3 5.6 7 11.2 11.8 16.8zm21.6 19.5h41.4c-1.1-4.2-2.9-9.3-6.4-14.7h-52.3c2.1 2.2 4.2 4.3 6.4 6.2 3.4 3.2 7.2 5.9 10.9 8.5zm7.5 4.6c15.2 8.8 28.3 11.2 32.8 6.1 1.4-1.3 1.9-3.5 1.9-5.9zm35.8-24h20.8c-5.3-5.9-10.7-11.5-15.5-16.8h-18.1q8 8.4 12.8 16.8zm2.6 4.8c2.7 5.1 4.6 10.2 5.1 14.7h31.2c-4.5-5.1-9-9.9-13.6-14.7zm146.9 120.5h937.1c-1.6-1.6-3.2-3.5-5.1-5.3h-142v-4.8h137.8c-1.6-1.6-3.5-3.5-5.1-5.4h-132.4v4h-0.3v-8.5h128.4c-1.9-2.2-3.7-4-5.6-6.2h-122.8v-4.5h118.3c-1.9-2.2-4-4.6-6.2-6.7h-112.1v-4.5h107.9c-1.4-1.6-3-3.2-4.3-4.8h-103.6v-4.6h99.3c-3.7-4.3-7.7-8.5-11.7-12.8h-87.3v-4.8h82.7c-3.2-3.5-6.4-6.7-9.3-10.2h-73.7v-4.5h69.1c-2.1-2.2-4-4.6-6.1-6.7h-63v-4.8h58.7c-1.8-2.2-3.7-4-5.6-6.2h-53.1v-4.5h48.9c-1.4-1.3-2.5-2.7-3.8-4h-45.1v-4.8h40.8c-1.8-2.2-3.7-4.3-5.6-6.2h-35.2v-4.8h31c-1.9-2.1-3.8-4.3-5.6-6.1h-25.4v-4.8h21.1c-1.9-2.2-3.8-4.3-5.6-6.2h-15.5v-4.5h10.9c-3.4-3.8-6.4-7.2-9-10.2h-936.9c2.9 3.2 6.1 6.7 9.3 10.2h136.7v4.5h-132.1c1.9 2.2 3.7 4 5.6 6.2h126.5v4.8h-122.2c1.8 2.1 3.7 4 5.6 6.1h116.4v4.8h-112.2c1.9 2.2 3.8 4 5.6 6.2h106.8v4.8h-102.2c1.3 1.3 2.4 2.7 3.7 4h98.5v4.5h-94.2c1.9 2.2 3.7 4 5.6 6.2h88.6v4.8h-84.3c2.1 2.1 4.2 4.5 6.4 6.7h77.9v4.5h-73.6c3.2 3.5 6.1 6.7 9.3 10.2h64.3v4.8h-60c4 4.3 8 8.5 11.7 12.8h48.3v4.6h-44c5.3 5.6 10.1 10.9 14.9 16h29.1v4.5h-24.8c3.2 3.8 6.2 7 9.1 10.2h15.7v4.8h-11.4c4 4.3 7.4 8.3 10.4 11.5zm-95.6-89.8c-1.3-1.3-2.9-2.9-4.3-4.5h-42.4c-0.6 1.6-1.6 3.2-2.7 4.5zm-45.7-11.5c0 0.8-0.2 1.3-0.2 2.1h37.4c-0.6-0.8-1.4-1.3-1.9-2.1zm150.8 112.2h937.7c-1.6-1.8-3.7-4-5.6-6.1h-937.4c2.1 2.7 4 4.5 5.3 6.1zm951 14.5c0 0-3.4-3.8-9-9.6h-937.7c10.2 10.4 16.3 9.8 17.1 9.8zm56.3-3.2h-45.4c1.9 1.4 4.3 2.2 8.3 3.2 6.7 1.6 25.6 3.5 37.1-3.2zm7.8-8.8c-2.7 0.8-5.4 1.1-8.3 0.8-2.4-0.3-4.8-0.8-7.5-1.9h-47.8c2.4 2.5 4 4.3 5.1 5.4h56.1c1-1.3 1.8-2.7 2.4-4.3zm0.8-19c-0.8-4.2-2.4-9-4.3-14.1-0.5-1.4-1.1-2.4-1.6-3.5h-38.2c1.1 1.3 1.9 2.7 3 4 12.2 15.5 25.3 23.5 33.1 24.3 2.4 0.3 4.2 0 5.6-1 1.8-1.6 2.6-5.1 2.4-9.7z"/>
			<path id="path3205" fill-rule="evenodd" class="s0" d="m505.7 263.5v-122.4h45.9c21.6 0 38.7 6.4 38.7 30.7 0 12.6-6.4 21.7-12.5 26.8 10.4 3.4 16 14.6 16 28 0 27.5-16.3 36.9-41.4 36.9zm31.5-51.1v22.8h13.9c7.7 0 13.6-2.2 13.6-11.3 0-10.7-7.5-11.5-17.4-11.5zm0-42.7v20.3h13.1c6.4 0 11-3.5 11-10.7 0-9.6-6.2-9.6-12.8-9.6zm147.3-28.6h31.5v41.4h29.9v-41.4h31.6v122.4h-31.6v-47.3h-29.9v47.6h-31.5zm115.4 0h31.5v73.2c0 12 1.9 22.4 14.9 22.4 11.2 0 14.7-9.1 14.7-22.4v-73.2h31.5v69.2c0 39.3-14.1 56.4-46.2 56.4-29.9 0-46.4-14.5-46.4-56.7zm174.9 66.8l-1.1-27.8v-39h30.2v122.4h-29.7l-34.2-66.5 1.1 27.7v38.8h-30.2v-122.4h29.7zm42.4-66.8h88.1v32.1h-28.3v90.3h-31.5v-90.3h-28.3zm-559.8 125.3c-9.2 0-16.6-7.4-16.6-16.6 0-9.1 7.4-16.5 16.6-16.5 9.1 0 16.5 7.4 16.5 16.5 0 9.2-7.4 16.6-16.5 16.6zm161.2 0c-9.1 0-16.5-7.4-16.5-16.6 0-9.1 7.4-16.5 16.5-16.5 9.2 0 16.6 7.4 16.6 16.5 0 9.2-7.4 16.6-16.6 16.6zm-244.5-38.2c9.6 11.7 18.9 11.7 24.3 10.1 6.1-1.8 8-6.6 8-16.5v-80.7h31.5v75.1c0 32.3-12 48.9-37.4 50.5-24.6 1.3-31.2-3.2-45.1-18.5z"/>
		</g>
	</g>
</svg>