<svg version="1.2" xmlns="http://www.w3.org/2000/svg" viewBox="0 0 1620 781" width="1620" height="781">
	<title>jms-logo-tagline-svg</title>
	<defs>
		<clipPath clipPathUnits="userSpaceOnUse" id="cp1">
			<path d="m1588.08 748.95h31.35v31.36h-31.35z"/>
		</clipPath>
	</defs>
	<style>
		.s0 { fill: #010202 } 
		.s1 { fill: #00a69d } 
		.s2 { fill: #8cc33d } 
		.s3 { fill: #ab3b65 } 
		.s4 { fill: #e71324 } 
		.s5 { fill: #d6de23 } 
		.s6 { fill: #00974a } 
		.s7 { fill: #6fbb43 } 
		.s8 { fill: #b7292f } 
	</style>
	<g id="logos/jms-logo-tagline">
		<g id="Group-94">
			<g id="Group-3">
				<g id="Clip-Path: Fill-1" clip-path="url(#cp1)">
				</g>
			</g>
			<path id="Fill-1" fill-rule="evenodd" class="s0" d="m1603.8 780.3c-8.7 0-15.7-7-15.7-15.7 0-8.6 7-15.6 15.7-15.6 8.6 0 15.6 7 15.6 15.6 0 8.7-7 15.7-15.6 15.7zm12.6-15.6c0-7-5.7-12.7-12.7-12.7-7 0-12.6 5.7-12.6 12.7 0 7 5.6 12.6 12.6 12.6 7 0 12.7-5.6 12.7-12.6zm-9 1.9c0.8 1.6 1.6 3.2 2.4 4.8 0.3 0.6-0.2 1.2-0.8 1.2h-2c-0.3 0-0.6-0.3-0.7-0.6l-2.2-5.2h-2.7v5c0 0.4-0.4 0.8-0.9 0.8h-1.6c-0.4 0-0.8-0.4-0.8-0.8v-14.3c0-0.5 0.4-0.9 0.8-0.9h6.5c2.7 0 5.4 1.9 5.4 5.2 0 3.1-2.1 4.3-3.4 4.8zm-0.1-4.8c0-1.2-0.8-2.1-2.1-2.1h-3.9v4.3h3.9c1.3 0 2.1-1 2.1-2.2z"/>
			<path id="Fill-6" fill-rule="evenodd" class="s0" d="m356.7 675.3v70.8c0 20.9-13.9 32.9-31.4 32.9-13 0-20.2-7.8-22.7-10.9-0.8-1.2-0.6-2.7 0.3-3.8l7.7-7.9c1.7-1.5 3.2-1.2 4.5 0.1 2 2.1 5 4.8 9.9 4.8 5.8 0 12-4.8 12-15.2v-70.8c0-1.5 1.2-2.9 2.8-2.9h14.1c1.6 0 2.8 1.4 2.8 2.9zm22.1 103.7c-6.8 0-12.3-5.5-12.3-12.4 0-6.8 5.5-12.3 12.3-12.3 6.8 0 12.4 5.5 12.4 12.3 0 6.9-5.6 12.4-12.4 12.4zm147-4.9c0.5 2.1-0.7 3.4-2.7 3.4h-13.6c-1.3 0-2.5-1.2-2.8-2.2l-8.8-56.9h-0.5l-26.2 59c-0.3 0.9-1.2 1.6-2.5 1.6h-2.7c-1.4 0-2.1-0.7-2.5-1.6l-26.5-59h-0.5l-8.7 56.9c-0.1 1-1.3 2.2-2.6 2.2h-13.5c-2 0-3.1-1.3-2.8-3.4l17.8-100.9c0.1-1.2 1-2.3 2.6-2.3h2.4c1.2 0 2.1 0.6 2.6 1.5l32.9 70.9h0.4l33-70.9c0.4-0.9 1.1-1.5 2.5-1.5h2.4c1.6 0 2.5 1.1 2.7 2.3zm24.7 4.9c-6.9 0-12.4-5.5-12.4-12.3 0-6.9 5.5-12.4 12.4-12.4 6.8 0 12.3 5.5 12.3 12.4 0 6.8-5.5 12.3-12.3 12.3zm125.1-29.7c0 15.5-13.3 29.7-34.4 29.7-18.9 0-29.9-8.8-32.9-11.7-1.4-1.3-2.1-2.1-0.8-4.5l5.4-9.3c1.2-2.1 3.7-2.1 5.1-1 0.7 0.4 12.9 9.3 22.6 9.3 7.8 0 13.6-5.1 13.6-11.6 0-7.6-6.4-12.9-19-18-14.1-5.7-28.1-14.7-28.1-32.4 0-13.4 9.9-28.9 33.6-28.9 15.3 0 27 7.9 30 10.1 1.5 0.9 1.9 3.5 0.9 5l-5.7 8.5c-1.2 1.8-3.5 3-5.3 1.8-1.2-0.7-12.5-8.2-20.8-8.2-8.5 0-13.1 5.7-13.1 10.5 0 7 5.5 11.8 17.6 16.8 14.5 5.8 31.3 14.6 31.3 33.9zm140 24.8c0.4 2.1-0.8 3.4-2.7 3.4h-13.7c-1.3 0-2.5-1.2-2.8-2.2l-8.8-56.9h-0.5l-26.1 59c-0.3 0.9-1.2 1.6-2.6 1.6h-2.7c-1.3 0-2.1-0.7-2.5-1.6l-26.5-59h-0.5l-8.6 56.9c-0.2 1-1.4 2.2-2.7 2.2h-13.5c-1.9 0-3.1-1.3-2.8-3.4l17.8-100.9c0.1-1.2 1-2.3 2.7-2.3h2.4c1.2 0 2.1 0.7 2.5 1.5l32.9 70.9h0.5l32.9-70.9c0.4-0.8 1.2-1.5 2.5-1.5h2.4c1.7 0 2.6 1.1 2.7 2.3zm108-98.8v62.5c0 22.8-18.1 41.3-41.7 41.3-23.5 0-41.6-18.5-41.6-41.3v-62.5c0-1.5 1.4-2.8 2.8-2.8h14.3c1.6 0 2.8 1.3 2.8 2.8v61.4c0 12.8 8.7 22.8 21.7 22.8 13 0 21.8-10 21.8-22.6v-61.6c0-1.5 1.2-2.8 2.9-2.8h14.2c1.5 0 2.8 1.3 2.8 2.8z"/>
			<path id="Fill-43" fill-rule="evenodd" class="s0" d="m302.9 764.3l7.7-7.9c1.7-1.5 3.2-1.2 4.5 0.1 2 2.1 5 4.8 9.9 4.8 5.8 0 12-4.8 12-15.1v-70.9c0-1.5 1.2-2.9 2.8-2.9h14.1c1.6 0 2.8 1.4 2.8 2.9v70.9c0 20.8-13.9 32.8-31.4 32.8-13 0-20.2-7.8-22.7-10.9-0.8-1.2-0.6-2.7 0.3-3.8zm75.9 14.7c-6.8 0-12.3-5.5-12.3-12.4 0-6.8 5.5-12.3 12.3-12.3 6.8 0 12.4 5.5 12.4 12.3 0 6.9-5.6 12.4-12.4 12.4zm47.9-105.8c0.1-1.2 1-2.3 2.6-2.3h2.4c1.2 0 2.1 0.6 2.6 1.5l32.9 70.9h0.4l33-70.9c0.4-0.9 1.2-1.5 2.5-1.5h2.4c1.6 0 2.5 1.1 2.7 2.3l17.6 100.9c0.5 2.1-0.7 3.4-2.7 3.4h-13.6c-1.3 0-2.5-1.2-2.8-2.2l-8.8-56.9h-0.5l-26.2 59c-0.3 0.9-1.2 1.6-2.5 1.6h-2.7c-1.4 0-2.1-0.7-2.5-1.6l-26.5-59h-0.5l-8.7 56.9c-0.1 1-1.3 2.2-2.6 2.2h-13.5c-2 0-3.1-1.3-2.8-3.4zm123.8 105.8c-6.8 0-12.3-5.5-12.3-12.4 0-6.8 5.5-12.4 12.3-12.4 6.8 0 12.3 5.6 12.3 12.4 0 6.9-5.5 12.4-12.3 12.4zm57.1-16.2l5.4-9.3c1.2-2.1 3.7-2.1 5-1.1 0.8 0.5 12.9 9.3 22.6 9.3 7.8 0 13.7-5.1 13.7-11.5 0-7.7-6.5-12.9-19.1-18-14-5.7-28.1-14.7-28.1-32.5 0-13.3 9.9-28.8 33.7-28.8 15.2 0 26.9 7.8 29.9 10.1 1.5 0.9 1.9 3.4 0.9 4.9l-5.7 8.6c-1.2 1.8-3.4 3-5.2 1.8-1.2-0.8-12.6-8.3-20.8-8.3-8.5 0-13.2 5.7-13.2 10.5 0 7.1 5.6 11.9 17.7 16.9 14.5 5.8 31.2 14.5 31.2 33.9 0 15.5-13.3 29.7-34.4 29.7-18.8 0-29.9-8.8-32.9-11.7-1.3-1.4-2.1-2.1-0.7-4.5zm108.8-89.6c0.2-1.2 1.1-2.3 2.7-2.3h2.4c1.2 0 2.1 0.6 2.6 1.5l32.9 70.9h0.4l32.9-70.9c0.5-0.9 1.2-1.5 2.6-1.5h2.4c1.6 0 2.5 1.1 2.7 2.3l17.6 100.9c0.5 2.1-0.7 3.4-2.7 3.4h-13.6c-1.3 0-2.5-1.2-2.8-2.2l-8.9-56.9h-0.4l-26.2 59c-0.3 0.9-1.2 1.6-2.5 1.6h-2.7c-1.4 0-2.1-0.7-2.6-1.6l-26.5-59h-0.4l-8.7 56.9c-0.1 1-1.3 2.2-2.7 2.2h-13.4c-2 0-3.2-1.3-2.9-3.4zm123.9 2.1c0-1.5 1.4-2.9 2.8-2.9h14.3c1.6 0 2.8 1.4 2.8 2.9v61.4c0 12.7 8.7 22.8 21.7 22.8 13 0 21.8-10.1 21.8-22.7v-61.5c0-1.5 1.2-2.9 2.9-2.9h14.2c1.5 0 2.8 1.4 2.8 2.9v62.4c0 22.8-18.1 41.3-41.7 41.3-23.5 0-41.6-18.5-41.6-41.3zm163.7-4.3c15.1 0 26 4.8 36.2 13.9 1.3 1.2 1.3 3 0.1 4.2l-9.1 9.5c-1.1 1.2-2.6 1.2-3.8 0-6.2-5.6-14.6-8.9-23-8.9-19.1 0-33.4 16.1-33.4 35 0 18.8 14.4 34.7 33.6 34.7 8.9 0 16.6-3.5 22.8-8.6 1.2-1 2.9-0.9 3.8 0l9.2 9.6c1.2 1.1 1 3-0.1 4.1-10.2 9.9-23 14.5-36.3 14.5-30 0-54.1-23.8-54.1-53.8 0-30.1 24.1-54.2 54.1-54.2zm66.6 5.1c0-2 1.5-3.6 3.6-3.6h13.2c1.9 0 3.6 1.6 3.6 3.6v40.5l37.7-42.6c0.5-0.8 1.5-1.5 2.8-1.5h15c2.8 0 4.3 3.1 2.3 5.4l-39 44.1 41.9 50.3c1.5 1.9 0.3 5.2-2.7 5.2h-16.3c-1.5 0-2.4-0.6-2.7-1l-39-48.4v45.8c0 2-1.7 3.6-3.6 3.6h-13.2c-2.1 0-3.6-1.6-3.6-3.6zm108.3-0.7c0-1.5 1.2-2.9 2.8-2.9h60.9c1.6 0 2.8 1.4 2.8 2.9v12.3c0 1.5-1.2 2.9-2.8 2.9h-44.3v24.6h37c1.4 0 2.8 1.3 2.8 2.8v12.5c0 1.6-1.4 2.8-2.8 2.8h-37v26.3h44.3c1.6 0 2.8 1.4 2.8 2.9v12.3c0 1.5-1.2 2.8-2.8 2.8h-60.9c-1.6 0-2.8-1.3-2.8-2.8zm96.1 0c0-1.5 1.2-2.9 2.9-2.9h42.8c17.9 0 32.6 14.4 32.6 32.3 0 13.8-9.2 25.1-22.2 30.3l20.5 38.2c1.1 1.9 0 4.3-2.5 4.3h-15.7c-1.4 0-2.1-0.7-2.4-1.3l-19.9-39.8h-16.6v38.3c0 1.5-1.4 2.8-2.9 2.8h-13.7c-1.7 0-2.9-1.3-2.9-2.8zm44 45c7.9 0 14.8-6.9 14.8-15.3 0-8-6.9-14.6-14.8-14.6h-24.4v29.9z"/>
			<path id="Fill-65" fill-rule="evenodd" class="s0" d="m1456.1 671.6c16 0 27.6 5.2 38.4 13.9 1.2 1.2 1.4 2.9 0.1 4.1l-4.3 4.1c-1.2 1.5-2.5 1.3-4.1-0.2-8.2-6.7-19.5-11.2-30.3-11.2-25 0-44.2 19.9-44.2 43.1 0 23 19.2 42.9 44.2 42.9 13.8 0 21.9-5.3 30.3-11.2 1.6-1.2 2.9-1.1 3.8-0.5l4.8 4c1.2 0.9 0.9 3-0.2 4.1-10.8 9.8-24.4 14.5-38.5 14.5-31.7 0-57.2-23.8-57.2-53.7 0-29.9 25.5-53.9 57.2-53.9zm89.2 80.6c-18.1 0-32.7-14-32.7-31.4 0-17.3 14.6-31.4 32.7-31.4 18.1 0 32.7 14.1 32.7 31.4 0 17.4-14.6 31.4-32.7 31.4zm22.4-31.3c0-11.9-10-21.6-22.4-21.6-12.4 0-22.4 9.7-22.4 21.6 0 12 10 21.6 22.4 21.6 12.4 0 22.4-9.6 22.4-21.6zm-50.4 48.7h57.3c0.9 0 1.7 0.8 1.7 1.7v5.3c0 0.9-0.8 1.6-1.7 1.6h-57.3c-0.9 0-1.7-0.7-1.7-1.6v-5.3c0-0.9 0.8-1.7 1.7-1.7z"/>
			<path id="Fill-71" fill-rule="evenodd" class="s0" d="m28.5 683.7h-25.4c-1.6 0-2.7-1.3-2.7-2.8v-4.2c0-1.5 1.1-2.8 2.7-2.8h61.9c1.6 0 2.8 1.3 2.8 2.8v4.2c0 1.5-1.2 2.8-2.8 2.8h-25.4v91c0 1.5-1.3 2.8-2.8 2.8h-5.5c-1.5 0-2.8-1.3-2.8-2.8zm56.2-7c0-1.5 1.3-2.8 2.8-2.8h5.7c1.6 0 2.8 1.3 2.8 2.8v43.9h59.2v-43.9c0-1.5 1.2-2.8 2.8-2.8h5.7c1.4 0 2.8 1.3 2.8 2.8v98.1c0 1.4-1.4 2.7-2.8 2.7h-5.7c-1.6 0-2.8-1.3-2.8-2.7v-44.4h-59.2v44.4c0 1.4-1.2 2.7-2.8 2.7h-5.7c-1.5 0-2.8-1.3-2.8-2.7zm110.2 0c0-1.5 1.2-2.8 2.8-2.8h57.5c1.6 0 2.8 1.3 2.8 2.8v4.2c0 1.5-1.2 2.8-2.8 2.8h-49v36.8h41.9c1.4 0 2.7 1.3 2.7 2.8v4.2c0 1.6-1.3 2.8-2.7 2.8h-41.9v37.4h49c1.6 0 2.8 1.3 2.8 2.8v4.2c0 1.5-1.2 2.8-2.8 2.8h-57.5c-1.6 0-2.8-1.3-2.8-2.8z"/>
			<path id="Fill-78" fill-rule="evenodd" class="s1" d="m848.4 244.4c-70.2-109.3 43.9-149.3 99.8-211.6 22.6 50.7 58.6 150.4-35.1 179.4-25.8 8.8-52.5 21.6-64.7 32.2z"/>
			<path id="Fill-80" fill-rule="evenodd" class="s2" d="m804.9 344.6c110.2-155.7 224.2-111.5 338.6-69.8-115.3 109.9-232.1 158.8-338.6 69.8z"/>
			<path id="Fill-82" fill-rule="evenodd" class="s3" d="m799.8 171.6c-97-40.9-95.8-112.8-70.4-171.5 0 0 130.7 32.9 70.4 171.5z"/>
			<path id="Fill-84" fill-rule="evenodd" class="s4" d="m763.1 455.7c1.3 73.2-43.8 77.1-111.3 39.1-67.5-38-137.6-86.9-135.7-137.5 0.6-14.5 5.1-27 12.2-38.2 8.6-14.6 24.2-34.3 52-53.2 29.2-19.9 56.4-28.3 73.5-31.4 27.9-5.8 49.3 2.9 67.8 24.6 32.3 37.9 40.8 154.9 41.5 196.6z"/>
			<path id="Fill-86" fill-rule="evenodd" class="s5" d="m928.6 356.3c-14.6 40.5-81 67-141.3 92.4-69.9 29.3-111.3 21.3-94.4-52.7 7-30.4 14.1-61.1 24.3-90.6 13.4-38.6 29.5-76.8 68-96.1 40.8-20.4 88.6-3.3 122.1 27.7 38.4 35.7 36 87.2 21.3 119.3z"/>
			<path id="Fill-88" fill-rule="evenodd" class="s6" d="m888.1 221.9c-16.7 7.2-31.5 15.3-39.7 22.5-10.3-16-16.6-30.5-19.7-43.8 20.7 1.2 41.3 9.1 59.4 21.3z"/>
			<path id="Fill-90" fill-rule="evenodd" class="s7" d="m928.6 356.3c-4.4 12.2-13.5 23.2-25.8 33.2-33.3-4-66.1-18.3-97.9-44.8 37-52.4 74.5-82.2 112.3-97 28 34.7 24.7 79.5 11.4 108.6z"/>
			<path id="Fill-92" fill-rule="evenodd" class="s8" d="m763.2 457.7c-55 17.4-85.1 3.3-70.3-61.7 7-30.4 14.1-61.1 24.3-90.6 4-11.3 8.1-22.6 13-33.4 25.2 46.7 32.3 146 32.9 183.7 0.1 0.7 0.1 1.3 0.1 2z"/>
		</g>
	</g>
</svg>