<svg version="1.2" xmlns="http://www.w3.org/2000/svg" viewBox="0 0 1577 148" width="1577" height="148">
	<title>JNJ_Logo_New-svg</title>
	<style>
		.s0 { fill: #eb1700 } 
	</style>
	<path id="Layer" fill-rule="evenodd" class="s0" d="m204.8 93.7c0 28.7-17.4 52.2-48.9 52.2-31.5 0-48.9-23.5-48.9-52.2 0-28.8 17.4-52.3 48.9-52.3 31.5 0 48.9 23.5 48.9 52.3zm-24.9 0c0-26.8-8.6-41.2-24-41.2-15.4 0-24.1 14.6-24.1 41.2 0 26.5 8.7 41.1 24.1 41.1 15.4 0 24-14.4 24-41.1zm226.3-18.7v68.9h-23.7v-68.7c0-11.9-4.8-19.7-17-19.7-12.2 0-19.8 8.6-19.8 23.5v64.9h-23.7v-100.5h23.7v12.7h1.2c4.6-8.2 12.8-14.7 27.6-14.7 20.8 0 31.7 12.9 31.7 33.6zm53.7-33.5c22.2 0 36 9.8 38.5 23.9l-20.1 6c-1-12.7-8.4-19.3-20.4-19.3-10.2 0-17.1 4.8-17.1 12.9 0 6.4 4.3 10.8 13.9 13.2l19.2 4.8c13.6 3.5 26.7 11.3 26.7 30.2 0 20.1-14.7 32.7-41.7 32.7-24.3 0-40.3-10.6-41.5-27.9l21.2-6c2.2 16.7 9.2 23.3 22.9 23.3 12.6 0 19.8-5.9 19.8-16.1 0-8.4-4.8-12.3-15.4-14.9l-20-5c-12.9-3.2-24.3-12.3-24.3-28.9 0-19.8 16.4-29 38.3-29zm148.2 52.3c0 28.7-17.4 52.2-48.9 52.2-31.4 0-48.8-23.5-48.8-52.2 0-28.8 17.4-52.3 48.8-52.3 31.5 0 48.9 23.5 48.9 52.3zm-24.8 0c0-26.8-8.6-41.2-24.1-41.2-15.4 0-24 14.6-24 41.2 0 26.5 8.6 41.1 24 41.1 15.5 0 24.1-14.4 24.1-41.1zm123-18.7v68.9h-23.6v-68.7c0-11.9-4.8-19.7-17.1-19.7-12.2 0-19.8 8.6-19.8 23.5v64.9h-23.6v-100.5h23.6v12.7h1.2c4.6-8.2 12.8-14.7 27.7-14.7 20.8 0 31.6 12.9 31.6 33.6zm368.5 18.7c0 28.7-17.4 52.2-48.9 52.2-31.4 0-48.9-23.5-48.9-52.2 0-28.8 17.5-52.3 48.9-52.3 31.5 0 48.9 23.5 48.9 52.3zm-24.8 0c0-26.8-8.6-41.2-24.1-41.2-15.4 0-24 14.6-24 41.2 0 26.5 8.6 41.1 24 41.1 15.5 0 24.1-14.4 24.1-41.1zm226.2-18.7v68.9h-23.6v-68.7c0-11.9-4.9-19.7-17.1-19.7-12.2 0-19.8 8.6-19.8 23.5v64.9h-23.7v-100.5h23.7v12.7h1.2c4.6-8.2 12.8-14.7 27.6-14.7 20.9 0 31.7 12.9 31.7 33.6zm53.7-33.5c22.2 0 36.1 9.8 38.5 23.9l-20.1 6c-1-12.7-8.4-19.3-20.4-19.3-10.2 0-17 4.8-17 12.9 0 6.4 4.2 10.8 13.8 13.2l19.2 4.8c13.7 3.5 26.7 11.3 26.7 30.2 0 20.1-14.6 32.7-41.7 32.7-24.2 0-40.3-10.6-41.5-27.9l21.3-6c2.2 16.7 9.2 23.3 22.8 23.3 12.6 0 19.9-5.9 19.9-16.1 0-8.4-4.9-12.3-15.5-14.9l-20-5c-12.8-3.2-24.3-12.3-24.3-28.9 0-19.8 16.5-29 38.3-29zm148.3 52.3c0 28.7-17.5 52.2-48.9 52.2-31.5 0-48.9-23.5-48.9-52.2 0-28.8 17.4-52.3 48.9-52.3 31.4 0 48.9 23.5 48.9 52.3zm-24.9 0c0-26.8-8.6-41.2-24-41.2-15.5 0-24.1 14.6-24.1 41.2 0 26.5 8.6 41.1 24.1 41.1 15.4 0 24-14.4 24-41.1zm123-18.7v68.9h-23.6v-68.7c0-11.9-4.8-19.7-17-19.7-12.2 0-19.9 8.6-19.9 23.5v64.9h-23.6v-100.5h23.6v12.7h1.2c4.7-8.2 12.9-14.7 27.7-14.7 20.8 0 31.6 12.9 31.6 33.6zm-1483.3 25.5c0 26.3-13.1 46.4-46.5 46.4-33.5 0-46.5-20.1-46.5-46.4v-8.6l24.8-6.3v19.3c0 18.3 6.5 29 21.7 29 15.2 0 21.6-10 21.6-26.9v-103.9h24.9zm149.5-44.6h1.2c4.6-8.2 12.8-14.6 27.6-14.6 20.8 0 31.7 12.8 31.7 33.5v68.9h-23.7v-68.7c0-11.8-4.8-19.7-17-19.7-12.2 0-19.8 8.7-19.8 23.5v64.9h-23.7v-140.6h23.7zm720.5 44.6c0 26.3-13 46.4-46.5 46.4-33.4 0-46.5-20.1-46.5-46.4v-8.7l24.9-6.2v19.3c0 18.3 6.4 28.9 21.6 28.9 15.2 0 21.7-10 21.7-26.9v-103.9h24.8zm149.5-44.5h1.2c4.6-8.2 12.8-14.7 27.6-14.7 20.9 0 31.7 12.9 31.7 33.6v68.9h-23.6v-68.7c0-11.9-4.9-19.7-17.1-19.7-12.2 0-19.8 8.6-19.8 23.5v64.9h-23.7v-140.7h23.7zm-327.6-56c24 0 37.7 12.1 37.7 27.3 0 10.7-6.5 18.3-21.7 26.6l0.4 0.8c6.2-2.4 15.7-4.9 24.1-4.9 16 0 26.2 10.3 26.2 25.6 0 12.2-6.2 26.3-17 39.2l25.6 28.3v1h-31.4l-12.1-13.1c-14.8 10.5-31.2 16.3-45.3 16.3-24.4 0-40.2-17.3-40.2-38 0-15.6 9-30.9 28.6-40.4l-0.2-0.4c-11.6-12.6-16-23.1-16-33.5 0-19.3 13.6-34.8 41.2-34.8zm49.9 86.2c0-16.3-10-25.7-26.2-25.7-5.7 0-12.5 1-19.5 3.8l39.3 43.4c4.4-6.8 6.4-14.2 6.4-21.5zm-31.7-56.2c0-12.5-7.2-19.3-18.8-19.3-11.6 0-19 6.6-19 18.2 0 6.3 2.1 11.5 9.8 19.9l8.6 9.7c13.8-6.2 19.4-17.1 19.4-28.5zm7.7 94.2l-45.3-49.7c-7.6 5.5-12.2 15.1-12.2 25.6 0 16.6 11.8 32.3 31 32.3 8.6 0 18-3.2 26.5-8.2z"/>
</svg>