<svg version="1.2" xmlns="http://www.w3.org/2000/svg" viewBox="0 0 1498 304" width="1498" height="304">
	<title>logos-cb-jpm-svg</title>
	<style>
		.s0 { fill: #503629 } 
	</style>
	<g id="Layer">
		<path id="Layer" class="s0" d="m163.2 184.9h0.5c9.6 0 17 7.3 17 16.9q0 6.8-5.1 11.9c-3.4 3.4-7.9 5.1-12.4 5.1-4.6 0-9.1-1.7-12.5-5.1-3.3-2.8-5-7.4-5-11.9 0-4.5 1.7-9 5-12.4 3.4-3.4 7.9-5.1 12.5-5.1m196.9-0.5q6.8 0 11.8 5c3.4 3.4 5.1 7.9 5.1 12.5 0 4.5-1.7 9-5.1 11.8-3.3 3.4-7.9 5.1-12.4 5.1-4.5 0-9-1.7-12.4-5.1-3.4-2.8-5.6-7.3-5.6-11.8v-0.6c0.5-9 8.4-16.4 17.5-16.4"/>
		<path id="Layer" fill-rule="evenodd" class="s0" d="m152.4 7.6h-29.3v141.7c0 53.7-25.4 69.5-73.4 69.5-40 0-49.1-15.3-49.1-35.6 0-4.5 2.3-19.2 16.4-19.2 14.1 0 15.2 9.6 15.2 25.4q0 1.7 0 3.4c1.2 10.2 10.2 17.5 20.4 16.4 27 0 39.5-12.5 39.5-55.9v-145.7h-28.3v-7.3h88.1zm224.6 53.6c0 35.6-18.7 62.1-85.2 62.1h-23.2v57.6c-0.5 4.5 0.6 9 2.3 13.5 1.7 4.6 5.6 7.9 10.7 9.6 5.6 1.7 11.3 2.3 17.5 2.3v6.8h-92v-6.8c5.7 0 11.3-1.1 16.4-2.8 4.5-1.2 8.4-5.1 10.7-9.6 2.3-6.8 2.8-13.6 2.3-20.3v-166h-25.4v-7.3h86.9c67.1 0 79 25.4 79 60.9zm-90.3 54.8c40.6 0 60.9-18.7 60.9-52.5 0-33.9-12.4-54.8-63.7-54.8h-15.8v106.1h17.4zm365.1 75.7c1.7 4.5 5.1 8.5 9.6 10.7 5.1 1.7 10.7 2.8 15.8 2.8v6.8h-84.1v-6.8c5.1 0 10.2-1.1 15.3-2.8 3.9-1.7 7.3-5.1 9-9.6q1.7-7.6 1.7-15.2v-146.2h-1.7l-73.9 181.7h-7.3c0-2.2-78.5-183.4-78.5-183.4h-3.4v142.2l0.6 15.3c0.6 3.9 1.7 7.3 3.9 10.7 2.9 3.4 6.3 5.6 10.8 6.8 3.4 1.1 6.7 1.7 10.7 1.7v6.7h-60.4v-6.7c4 0 8.5 0 12.4-1.2 4-1.1 7.4-3.3 9.6-6.7 1.7-3.4 3.4-6.8 3.4-10.8v-180h-26.5v-6.8h60.9c0.6 1.7 69.4 162 69.4 162 0.6 0.6 1.2 1.1 1.7 1.1 0.6 0 1.2-0.5 1.2-1.1l66.5-162h54.8v6.8h-23.2v171c-0.5 5.1 0 10.2 1.7 14.7z"/>
		<path id="Layer" fill-rule="evenodd" class="s0" d="m837.5 136.9c0 66.6-48 82.4-73.4 82.4-13 0-72.2-4.5-72.2-80.7 0-51.9 28.2-81.3 73.4-81.3 41.1 0 71.6 27.7 72.2 79.6zm-33.3-1.1c0-37.3-0.6-70-39.5-70-36.1 0-39 31.6-39 73.4 0 53.6 5.1 70.5 39 70.5 29.9 0 39.5-19.2 39.5-73.9zm176-39.5c-19.7 10.7-19.7-15.8-36.6-15.8-16.4 0-30.5 21.4-30.5 39.5v54.7c-1.1 7.4 0.6 15.3 3.4 22 2.8 5.1 7.9 7.4 19.2 7.4h3.9v9.6h-86.9v-9.6h4.5c10.2 0 17-2.8 19.8-7.9 2.8-6.8 3.9-14.1 3.4-21.5v-105.5h-28.3v-7.9h52.5c1.2 7.3 5.1 30.4 5.1 30.4h2.3c7.9-16.3 15.8-32.1 42.9-32.1 33.2 0 35.5 30.4 25.3 36.7zm335.2 84.1h5.1c-1.1 24.2-13.5 34.4-33.9 34.4-14.1 0.6-26.5-9-29.3-23.1-12.4 15.8-31 24.8-50.8 25.4-20.9 0.5-38.9-15.3-41.2-36.2-2.8-49.6 63.2-55.3 90.9-57.5v-26.6c0-7.9-1.7-15.2-6.2-22-5.7-6.8-14.7-10.2-23.2-9-7.3-1.2-15.2 1.7-20.8 6.7-4 5.1-6.8 11.3-6.8 18.1-1.7 11.3-6.8 15.8-15.3 15.8-3.3 0-6.7-1.1-9.5-3.4-2.9-2.8-4.6-6.7-4-10.7 0-9.6 5.1-19.2 13.6-24.3 14.6-9 31-13 47.9-11.8 22.6 0 38.4 4.5 46.3 12.4 7.9 8.5 11.8 20.3 10.7 31.6v83.6c0.6 8.4 3.4 13.5 13 13.5 5.6 0 12.4-5.6 13.5-16.9zm-58.7-48.6c-21.4 0-60.3 14.1-60.3 42.4q0 1.7 0 3.3c0.5 13.6 11.8 23.8 24.8 23.2 13.5-1.7 26-7.9 35-18.1q0-0.8 0-1.7zm240.9 72.3v9.6h-72.8v-9.6q6 0 11.9-3.4c3.9-2.3 6.2-6.2 6.8-10.7q0.8-9.3 0-18.6v-49.7c0.5-11.9-1.2-24.3-5.1-35.6-4-7.3-12.4-11.8-20.9-10.7-12.4-0.6-24.3 6.2-30.5 16.9-5 14.1-7.3 28.8-5.6 43.5v40.1c-1.1 7.3 0.6 14.6 3.9 21.4 4 4 9.6 6.8 15.3 6.2v9.6h-75.1v-9.6c4.5 0 9.1-0.5 13-2.2 4.5-1.2 7.9-5.1 9-9.6 1.2-6.2 1.7-11.9 1.7-18.1v-105h-23.7v-7.9h46.9l5.6 27.7h3.4c9.6-18.7 28.8-30 49.6-29.4 7.9 0 15.8 1.7 23.2 5.1 6.2 3.4 11.8 9 15.2 15.2q5.9 11.9 5.1 25.4v68.9c0 7.9 1.7 15.8 5.6 22.6 2.9 4.5 8.5 6.8 17.5 7.9zm-341.4-143.4c1.2 4.5 0 10.2-2.8 14.1-2.8 5.1-7.9 9.1-13.5 10.7-6.2 1.7-13 1.7-19.2 0 4.5 9.1 6.2 19.2 6.2 28.8 0 40.1-31 52.5-64.3 57.6-33.3 5.1-41.8 9-41.8 19.8 0 6.7 4.5 10.7 27.7 10.7 48.5 2.3 69.9-0.6 85.2 20.3 5 7.9 7.9 17 7.3 26.6 0 19.7-12.4 37.2-30.5 45.1-15.2 6.8-31.6 9.6-47.9 9-14.1 0-28.2-1.6-41.8-6.2-14.7-2.8-24.8-14.6-25.4-29.3-0.5-5.1 1.1-10.2 3.4-14.1 2.8-4 7.9-6.2 13-5.7h1.7c6.7 2.3 10.1 9.6 7.9 15.8-2.3 7.9 1.1 16.4 7.9 21.5 11.3 6.8 24.8 9.6 37.8 8.5 14.1 0.5 28.2-2.3 41.2-8.5 9.6-4 16.3-13.6 16.3-24.3 0.6-6.8-2.2-13-7.3-17.5-6.2-3.9-13-6.2-19.7-6.8-11.9-1.1-24.3-1.7-36.2-1.7-15.2 0.6-30.4-1.7-45.1-6.7-10.2-3.4-16.9-13-16.9-23.7 0-22.6 20.3-29.4 43.4-33.3 1.7 0 1.7-2.3 0-2.3-27.1-6.2-39.5-20.9-39.5-53.6q0-3.4 0-6.8c2.3-31.1 29.9-54.2 61-51.9 17.5-1.2 35.5 4.5 49.1 16.3 3.3 1.2 7.3 1.7 10.7 0.6 3.4-1.1 5.6-4.5 6.7-10.7 0.6-5.1 4-9.6 9.1-11.9 7.9-2.2 13.5 1.1 16.3 9.6zm-59.8 53.6c0-29.3-6.7-48.5-31.6-48.5-22 0-31.6 20.9-31.6 49.1 0 40.1 11.9 47.4 31.6 47.4 18.1 0 31.1-6.2 31.6-48z"/>
	</g>
</svg>