<svg version="1.2" xmlns="http://www.w3.org/2000/svg" viewBox="0 0 1519 415" width="1519" height="415">
	<title>juniper_black-rgb-header-svg</title>
	<style>
		.s0 { fill: #000000 } 
	</style>
	<g id="Layer">
		<g id="Layer">
			<g id="Layer">
				<g id="Layer">
					<path id="Layer" fill-rule="evenodd" class="s0" d="m745.3 332.8h9.3l47.9 66.1v-66.1h8.3v80.2h-7.8l-49.5-68.2v68.2h-8.2zm86 0h53v8.1h-44.6v26.6h43.5v8h-43.5v29.8h45v7.8h-53.4zm65.9 8.2v-8h68.9v8h-30.2v72.2h-8.7v-72.2zm79.2-8.2h8.9l21.1 66.3 21.6-66.3h7.4l21.5 66.3 21.3-66.3h8.3l-25.8 80.9h-7.6l-21.8-67-21.5 67h-7.4zm117.7 40.1c0-28.5 14.6-41.4 40.3-41.4 25.8 0 40.6 12.9 40.6 41.4 0 28.7-14.8 41.4-40.6 41.4-25.7 0.2-40.3-12.7-40.3-41.4zm72.2 0.2c0-21.8-10.1-33.4-31.9-33.4-21.7 0-31.7 11.6-31.7 33.4 0 21.7 10 33.6 31.7 33.6 21.8-0.2 31.9-11.9 31.9-33.6zm58.3 7.2h-24v32.7h-8.5v-80.2h34.6c18.6 0 27.1 7.4 27.1 23.4 0 13.9-6.6 22-20.5 23.9l19.4 32.9h-9.1zm2.6-7.8c11.4 0 18.4-3.4 18.4-16.1 0-12.4-6.8-15.6-18.8-15.6h-26.2v31.9h26.6zm69.5-1.9l-16.1 17.5v25.2h-8.2v-80.3h8.2v44.4l40.6-44.4h9.9l-28.7 31.3 32.7 48.8h-9.7zm45.4 34.4l4.5-6.6c9.7 6.1 19 8 28.7 8 16.7 0 23.9-4.6 23.9-15.6 0-11.4-9.5-13.1-23.9-15.6-17.3-3-28.9-5.9-28.9-22.2 0-15.4 9.9-21.5 28.9-21.5 12.7 0 21.6 2.7 27.9 7.2l-4.6 6.9c-5.8-3.8-14.4-6.3-23.5-6.3-14.4 0-20.5 4-20.5 13.5 0 10.1 8.5 12 22.6 14.8 17.6 3.2 30.2 5.7 30.2 23 0 15.8-10.1 23.7-32.1 23.7-12-0.2-22.8-2.6-33.2-9.3z"/>
				</g>
				<g id="Layer">
					<g id="Layer">
						<g id="Layer">
						</g>
						<path id="Layer" fill-rule="evenodd" class="s0" d="m1518.3 2.1v25.4c-8-1.1-16.9-1.5-26.8-1.5-93.2 0-91.1 43.1-91.1 96.9v175.1h-26.6v-175.1c0-71.4 4.9-121.8 117.7-121.8 9.7 0 18.6 0.4 26.8 1zm-822.4 118.7v177.2h-27.3v-177.6c0-51.1 0.6-94.2-93.2-94.2-93.1 0-91 43.1-91 96.9v175.1h-26.6v-175.3c0-71.4 4.8-121.8 117.6-121.8 113.5 0 120.5 50.6 120.5 119.7zm49.4-113.4h26v290.6h-26zm74.8 0h136c67.6 0 98.1 33.5 98.1 93.1 0 60-30.3 96.5-98.5 96.5h-109.6v100.9h-26zm136.5 163.7c47.1 0 70.3-22.8 70.3-69.3 0-46.2-25.1-68.2-71.6-68.2h-109.2v137.5zm128-19.4c0-85.8 24.5-151.7 134.1-151.7 113.5 0 117.3 76.1 116.7 156.5h-224.6c0.6 70.7 18.2 123.5 110.3 123.5 49 0 71.4-13.3 95.2-30.8l15 19.6c-26.6 19.7-58.1 35.1-110.2 35.1-115.2 0-136.5-66.5-136.5-152.2zm26.8-19.7h198.2c-2.8-58.1-6.4-107.5-91.1-107.5-81.5 0-103.9 44.2-107.1 107.5z"/>
						<g id="Layer">
							<path id="Layer" class="s0" d="m174.7 184.1v-177.1h27.2v177.8c0 51.1-0.4 94.2 93.2 94.2 93.1 0 91-43.1 91-97v-175h26.7v175c0 71.4-4.9 121.9-117.7 121.9-113.5 0-120.4-50.5-120.4-119.8zm-173.7 177v-25.1c3.2 0.2 6.5 0.2 10.1 0.2 93.2 0 91.1-43.1 91.1-96.9v-232.3h26.6v232.3c0 71.3-4.8 121.8-117.7 121.8-3.6 0-6.7 0-10.1 0z"/>
						</g>
					</g>
					<g id="Layer">
						<g id="Layer">
							<path id="Layer" fill-rule="evenodd" class="s0" d="m1458.7 299.4c-10.1 0-18.3-8.2-18.3-18.3 0-10.2 8.2-18.4 18.3-18.4 10.2 0 18.4 8.2 18.4 18.4 0 10.1-8.2 18.3-18.4 18.3zm16.1-18.3c0-8.9-7.2-16.1-16.1-16.1-8.8 0-16 7.2-16 16.1 0 8.8 7.2 16 16 16 8.9 0 16.1-7.2 16.1-16zm-14.8 2.3h-5.9v8h-2.8v-21.1h9.3c5.3 0 7.4 2.1 7.4 6.3 0 3.4-1.5 5.7-5 6.4l4.8 8.2h-2.9zm0.6-2.5c3 0 4.4-0.9 4.4-4 0-3-1.7-3.8-4.6-3.8h-6.6v7.6h6.8z"/>
						</g>
					</g>
				</g>
			</g>
		</g>
	</g>
</svg>