<svg version="1.2" xmlns="http://www.w3.org/2000/svg" viewBox="0 0 1599 560" width="1599" height="560">
	<title>Kellogg's-Logo-svg</title>
	<defs>
		<clipPath clipPathUnits="userSpaceOnUse" id="cp1">
			<path d="m-7987.71-596.25h10149.8v13135.04h-10149.8z"/>
		</clipPath>
	</defs>
	<style>
		.s0 { fill: #d31245 } 
	</style>
	<g id="Clip-Path" clip-path="url(#cp1)">
		<g id="Layer">
			<path id="Layer" fill-rule="evenodd" class="s0" d="m1531.3 186.5c18.2 0 31.7 8.5 31.7 27.3 0 13.6-10.8 16.5-26.7 16.5-15.8 0-21.6 9.3-20.9 26.7 0.2 6.6 3 21.4 3.3 39.9 0.9 56.9-21.4 109.5-92.8 109.5-36.1 0-58.2-22.9-58.2-47.2 0-4.9 0.5-9.2 1.7-13.4-33.8 26-66.8 48.7-89.8 60.9-31.5 54.8-79.7 151.7-157.7 151.7-36 0-48-24.2-48-38.1 0-22.8 11.9-51.7 65.4-83.9 20-12.1 59.2-30.1 91.8-43.6 6.1-8.2 10.1-17.5 12.6-23.6-18.1 13-31.5 19.5-53.9 19.5-15.2 0-30.3-6.4-38.1-20.1-18 15.2-45.3 33-90.9 52.2-55.1 100.1-95.9 138.3-154.3 138.3-34.7 0-49.4-21.2-49.4-39.2 0-33.6 29.1-62.9 59.3-81.3 31.9-19.4 82-37.4 99-42.1 9.3-9.4 15.1-22.7 19.4-31.4-16.3 15.3-41 27.4-59.8 27.4-18.7 0-44.3-13.7-44.3-43.2 0-29.6 26.6-70.1 56.8-93.8-18.6 2.1-25.8-0.4-40.6-5.6-3.4-1.2-8.3 0-9.6 5.1-10.3 40.3-54.8 152.6-134.1 152.6-23.8 0-42-15.8-47-35.7-18.9 19.8-42.8 38-74.2 38-34.3 0-54.2-30.4-57.3-49.9-26.5 20.9-60.2 44-94.2 44-28 0-54.8-13.4-65.7-38.9-25.8 22.2-58.6 42.5-101.4 42.5-31.7 0-54.1-16.1-59.4-25.9-22.9 8.1-40.5 8.8-43.6-5.4-3.5-15.6 11.5-23.2 33.2-30.7-0.3-1.8-0.5-6.9-0.5-8.4-0.5-82.5 74.9-142.2 122.9-142.2 18.8 0 37.8 12.5 37.8 40.6 0 56.6-59.7 94.5-85.9 109.6 1.9 3.3 10 11 21.1 11 18.2 0 40.3-5.4 69.9-32 7.3-57.6 33-121.2 72.5-175.3 39.6-54 94.7-95.1 133.6-95.1 18.3 0 28.5 8.6 27.9 26.6-2 61.1-101.2 184.6-158.2 236.5-0.7 11.6 6.5 26.4 27 26.4 14.7 0 28.4-2 62.2-31.3 10.1-54.8 38.6-127 84.8-186.9 37.6-48.6 98-111.6 141.1-111.6 17.1 0 27.3 10.5 26.5 31.3-3.5 87.5-119.4 210.4-180.5 265.6-1.7 17.2 4.9 38.9 28.2 38.9 10.7 0 20.1-7.1 27.9-14.4 6.7-62.6 73.9-132.3 124.2-132.3 15.3 0 20.1 8.7 19.1 16.5-1.2 9.3-17.4 15-26.1 23.4-8.6 8.3-45.9 50.1-49.7 81.1-2.3 18.9 6.7 21.2 14.9 21.2 23.8 0 56.2-66.4 62.3-103.3 0.9-5.1 4.6-13 9-17.8 5.5-6 12.1-10.1 16.3-11.5 4.6-1.5 13.4-3.3 25.3 1.8 8.9 3.7 19.7 9.3 40.6 9.3 26.3 0 41.2-8.9 72.2-22.3 22.8-9.9 38.9-0.3 39.2 13.6 0.2 8.7-5.5 10.7-11.9 14.2-27.4 14.6-59.2 46.3-73.4 76.5-15.7 33.9 6.7 36.8 28.2 19.4 21.6-17.3 27.7-34.7 34.8-48.3 7.3-13.7 24.6-49.7 49.1-62.7 25.2-13.3 49.8-7.4 32.5 38.2-14.9 39.2-43.4 76.9-76.5 123.8 29.3-12.5 52.5-31.7 65.3-44.7 12.5-59 101.6-136 167.6-136 20.5 0 20.8 12.1 20.8 14 0 5.7-4 12.4-14.4 16.5-66.8 26.4-104 74.3-104.2 98.4-0.1 7.9 4.9 11.4 12 11.4 39.2 0 65.6-82.1 93.3-99.1 25.4-15.6 43.9-5.9 38.1 19.4-5.5 24-41.8 75.3-56.9 99 54.1-34.8 113.5-95.7 142.5-119.8 31.7-26.4 57.1-49 85.1-48.9m-828.4 69.9c53.3-52.7 110.9-143.1 111.5-165.5 0.1-2.8-0.7-4.7-2.8-4.7-12.6 0-76.6 75.9-108.7 170.2zm-293.2-6.2c0-5.5-2.2-8.2-6.8-8.2-12.6 0-44.5 31-46.8 71.2 34.3-18.7 53.6-48.7 53.6-63zm125.4 19.4c53.2-52.7 94.7-128.6 95.1-145.2 0.1-3-0.9-4.9-3.3-4.9-18.3 0-63.8 64.7-91.8 150.1zm459.4 168.7c-28.4 10.4-82.6 39.3-82.6 63.7 0 3.9 2 6.6 6.1 6.6 19.2 0 64.3-50.4 76.5-70.3zm212.6 0c-28.4 10.4-77.5 43.8-77.5 65.3 0 3.9 1.5 6.3 5.5 6.3 16.2 0 57.3-46.1 72-71.6zm268.7-183.3c-22.7 18.4-47.1 45.6-78.3 70.3 2.5-0.4 4.6-0.6 6.6-0.6 14.6 0 18.6 9.3 18.6 17.6 0 11.5 5.2 12.4 8.6 12.4 26.4 0 39.9-43.5 44.5-99.7z"/>
			<path id="Layer" fill-rule="evenodd" class="s0" d="m1388.6 142.9c1.9-17.3 21.7-37.8 43.6-37.8 21.6 0 34 17.2 32.1 37.1-3.8 39.4-47.7 64.7-64 64.8-6.4 0.1-10.1-3.3-9.5-8.4 0.9-8.8 11.9-13.3 13-23.1 1-9.6-16.9-15.7-15.2-32.6zm-1124.3 309.9c4.5 0.3 5.3 4.5 4.6 7-5.4 16.6-27.3 22.9-43.9 22.9-17.9 0-62.5-15.1-62.5-63.4 0-59.1 31.2-101.5 36.5-136.5 2.8-19.4-2.5-29-11.1-33.6-8.3 15.9-47.7 89.2-54.8 101-17.8 29.5-47.7 89.1-92.3 89.1-21.2 0-40.7-14.1-40.7-40.2 0-39.9 47.4-65.1 105.3-127.7 39.9-43.1 65.7-80.7 65.7-94 0-4.1-1.5-5.5-3.7-5.5-6.6 0-23.5 14.8-30.8 21.6-18.8 17.3-57.2 86.6-96 86.6-19.9 0-29.4-17.1-29.4-30.7 0-30.6 23.9-54.2 122.9-105.3 55.6-28.7 101.4-60.4 107.3-64.5 29.1-20.1 59-8.2 34.7 23.7-20.2 26.6-74.5 115.4-74.5 115.4 14.1-2 28.4-2.4 57.7-27.9 37.7-32.8 71-71.6 126.3-151.3 20-28.9 54-48.6 74.8-33.5 20.9 15.1 17.9 45.4 2.8 69.2-15.1 23.8-132.7 132.6-212.1 164.6 20.9 21.4 18.4 58.8 12.6 81.9-5.8 22.9-20.2 71.3-20.2 93.6 0 20.3 6.6 37.1 20.6 37.8zm1318.8-274.1c9.3 0 15.3 6 15.3 15.3 0 9.3-6 15.3-15.3 15.3-9.4 0-15.3-6-15.3-15.3 0-9.4 5.9-15.4 15.3-15.3zm11.5 15.2c0-6.4-5.1-11.6-11.5-11.6-6.4 0-11.6 5.2-11.6 11.6 0 6.4 5.2 11.6 11.6 11.6 6.4 0 11.5-5.2 11.5-11.6zm-10.6-7.9c2.4 0 5.1 1.2 5.1 4.6 0 2.3-1.5 3.7-3.2 4.4 1.1 1.4 1.9 3.6 3.2 3.6h0.9c0.1 0.1 0.3 0.5 0.3 1.1 0 1.1-0.8 1.9-2.3 1.9-3 0-3.3-3.6-5.3-6.2h-1.8v5.8c-0.3 0.3-1.2 0.4-1.8 0.4-1 0-1.9-0.2-1.9-1.7v-13.7c0.4-0.1 1-0.2 1.8-0.2 0 0 5 0 5 0zm-3.1 2.9v3.8h2.3c1.6 0 2.5-0.8 2.5-2 0-1.2-0.8-1.8-2.1-1.8 0 0-2.6 0-2.7 0z"/>
		</g>
	</g>
</svg>