<svg version="1.2" xmlns="http://www.w3.org/2000/svg" viewBox="0 0 1589 368" width="1589" height="368">
	<title>kenvue-logo-black-rgb-svg</title>
	<style>
		.s0 { fill: #000000 } 
	</style>
	<g id="Layer">
		<path id="Layer" class="s0" d="m0 4.8v358.2h147.9v-179-179.2zm323.1 179.2l43.1-64.3c10.8-16.1 16.1-30.7 16.1-48.9 0-37.6-30.2-70.6-73-70.6-29.7 0-51.2 14.1-69.6 42.7l-91.7 141.1 91.7 141.2c18.4 28.6 39.9 42.6 69.6 42.6 42.8 0 73-32.9 73-70.5 0-18.2-5.3-32.8-16.1-48.9z"/>
		<path id="Layer" fill-rule="evenodd" class="s0" d="m851.7 181.7c0 6-0.5 10.4-1.2 15h-136.4c5.1 23.8 22.8 39 50.5 39 19.6 0 32.5-7.2 40.3-18.9h42.9c-13.6 30.7-43.8 53.5-83.9 53.5-53.5 0-88.7-39.9-88.7-88.1 0-47.1 37.3-88.6 88.9-88.6 55.1 0 87.6 43.4 87.6 88.1zm-137.4-15.7h98.4c-4.6-23-20.9-38.2-48.8-38.2-25.8 0-44 15-49.6 38.2zm-112.6 12.7l79 87.4v2.1h-50.7l-78.3-88.3 77.6-84h47.5v2.1zm-50-83v172.5h-39.2v-172.3zm1035.6 101h-136.4c5 23.8 22.8 39 50.4 39 19.6 0 32.5-7.1 40.4-18.9h42.8c-13.6 30.7-43.8 53.5-83.9 53.5-53.4 0-88.7-39.9-88.7-88.1 0-47 37.4-88.6 89-88.6 55.3 0 87.8 43.4 87.8 87.9 0 6-0.5 10.4-1.4 15.2zm-136-30.6h98.4c-4.4-23.1-20.9-38.3-48.8-38.3-25.8 0-44 15-49.6 38.3zm-103-70.4h39.2v100.3c0 39.9-31.3 74.1-79.7 74.1-47.5 0-77.5-32.1-77.5-74.1v-100.3h39.2v98c0 23.6 14.5 39.9 39.2 39.9 24.9 0 39.6-16.3 39.6-39.9zm-314.5 72.9v99.4h-39.2v-97.1c0-24.2-14.5-40.6-39.9-40.6-25.3 0-40.1 16.4-40.1 40.6v97.1h-39.1v-99.4c0-40.1 32.9-74.9 80.2-74.9 49.7 0 78.3 33.2 78.1 74.9zm141.2-72.9h40.4l-88.5 176.2h-1.9l-88.7-176.2h42l48.3 99.4z"/>
	</g>
</svg>