<svg version="1.2" xmlns="http://www.w3.org/2000/svg" viewBox="0 0 1548 459" width="1548" height="459">
	<title>KDP Proxy Statement 2022-1-pdf-svg</title>
	<defs>
		<clipPath clipPathUnits="userSpaceOnUse" id="cp1">
			<path d="m-773.43-3747.14h14584.69v9512.05h-14584.69z"/>
		</clipPath>
	</defs>
	<style>
		.s0 { fill: #3e3234 } 
		.s1 { fill: #964b3c } 
		.s2 { fill: #50d2f5 } 
		.s3 { fill: #75c447 } 
		.s4 { fill: #df2655 } 
	</style>
	<g id="Clip-Path: Page 1" clip-path="url(#cp1)">
		<g id="Page 1">
			<path id="Path 18" class="s0" d="m269.5 208.8l119.7 197.3h-114.2l-116-197.3 116-197.2h114.2z"/>
			<path id="Path 19" class="s1" d="m42 194.7c-17.1 0-31-13.9-31-31.1 0-17.1 13.9-31 31-31 17.2 0 31.1 13.9 31.1 31 0 17.2-13.9 31.1-31.1 31.1z"/>
			<path id="Path 20" class="s2" d="m105.6 194.7c-9.5 0-17.2-7.7-17.2-17.2 0-9.5 7.7-17.2 17.2-17.2 9.5 0 17.2 7.7 17.2 17.2 0 9.5-7.7 17.2-17.2 17.2z"/>
			<path id="Path 21" class="s3" d="m131.4 82.9c-17.8 48.5-7.4 64.5-7.4 64.5-37.4-6.2-97.6-48.6-97-91 0.6-29.4 21.5-54.6 51-55.9 58.3-3 61.3 60.2 53.4 82.4z"/>
			<path id="Path 22" class="s4" d="m81 419c-42.3 2.4-75.5-30.7-80.4-72.5-7.4-60.9 77.4-131.5 130.8-145 0 0-8.6 23.9 14.7 91.5 11 32.6 19.6 122.3-65.1 126z"/>
			<path id="Path 23" fill-rule="evenodd" class="s0" d="m1444.4 343.4c0 4.3 0 10.5-0.7 13.5h-89c3.7 14.2 13.5 20.9 28.3 20.9 7.3 0 15.9-3.1 22.7-7.4l19 31.4c-11.7 6.7-27 11-44.2 11-41.1 0-68.7-27.6-68.7-68.2 0-41.1 27.6-70 66.9-70 39.3 0 65.7 28.3 65.7 68.8zm-41.8-13.5c-3.1-12.9-11.7-19.7-23.3-19.7-13.5 0-20.9 6.8-24.6 19.7zm-403.3 13.5c0 4.3-0.6 9.8-1.2 12.9h-88.4c3.7 14.1 13.5 20.9 28.3 20.9 7.3 0 15.3-2.5 22.7-7.4l19 31.4q-18.4 11-44.2 11c-41.1 0-68.7-27.6-68.7-68.2 0-41.1 27-70 66.9-70 38.6 0 65 28.2 65.6 69.4zm-41.7-13.5q-5.5-20.3-23.9-20.3c-12.9 0-20.9 7.4-24 20.3zm-248-199.1c0 4.3 0 9.8-0.6 12.9h-89c3.7 14.1 14.1 20.9 28.3 20.9 7.9 0 15.9-2.5 23.3-7.4l18.4 31.4c-11.7 7.3-27 11-43.6 11-41.1 0-69.4-27-69.4-68.2 0-41.2 27.7-69.4 67.6-69.4 38.6 0 65 27.6 65 68.8zm-41.7-13.5c-3.1-12.9-11.7-20.3-23.3-20.3-12.9 0-20.9 7.4-24 20.3zm-248.6-106.3h43.6v183.1h-43.6zm301.4 128.4v-72.5h40.5v69.4c0 16 9.2 23.4 20.9 23.4 12.3 0 20.9-7.4 20.9-23.4v-69.4h40.5v73.1c0 39.4-27 57.8-61.4 57.8-33.8 0-61.4-18.4-61.4-58.4zm243.1-72.5h40.5v127.2h-40.5zm-281.1 209.5c6.1 0 11 1.3 14.7 1.9l-0.6 37.5c0 0-16.6 0-24 0-14.1 0-23.3 6.7-23.3 22.7v68.8h-40.5v-127.2h39.3v14.8c7.4-12.3 19-18.5 34.4-18.5zm864.9 1.9l-0.7 37.5c0 0-15.9 0-23.3 0-14.1 0-23.3 6.7-23.3 22.7v68.8h-40.5v-127.2h38.6v14.8c7.4-12.3 19.7-18.5 35-18.5 6.2 0 11.1 1.3 14.2 1.9zm-646.4-83.6h-40.5v-127.2h38.6v14.2c7.4-12.3 19.1-17.9 35-17.9 5.6 0 11.1 1.3 14.2 1.9l-0.7 37.5c0 0-16.5-0.7-23.3-0.7-14.7 0-23.3 7.4-23.3 23.4zm-34.4 90.9c0 35.7-23.9 59.6-68.1 59.6h-35v61.5h-43.6v-181.9h78c44.8 0 68.7 24.6 68.7 60.8zm-44.2 0c0-14.1-9.8-21.5-25.2-21.5h-33.7v42.4h33.7c15.4 0 25.2-7.3 25.2-20.9zm328.4 58.4c0 36.3-29.4 65.8-65.7 65.8-12.2 0-24.5-3.7-34.3-10.5v59.6h-40.6v-179.4h39.3v10.4c10.5-6.7 22.7-11 35.6-11 36.3 0 65.7 29.5 65.7 65.1zm-36.8 0.3c0-16.8-13.7-30.4-30.7-30.4-17 0-30.7 13.6-30.7 30.4 0 16.8 13.7 30.4 30.7 30.4 17 0 30.7-13.6 30.7-30.4zm188.4-0.3c0 36.3-28.8 65.8-65 65.8-12.9 0-24.6-3.7-35-10.5v59.6h-39.9v-179.4h38.6v10.4c10.5-6.7 22.8-11 36.3-11 36.2 0 65 29.5 65 65.1zm-36.8 0.3c0-16.8-13.6-30.4-30.4-30.4-16.8 0-30.4 13.6-30.4 30.4 0 16.8 13.6 30.4 30.4 30.4 16.8 0 30.4-13.6 30.4-30.4zm-785.7-241.8l53.4-91.5h52.8l-54.6 91.5 54.6 91.6h-52.8zm111.7 213.2c0 54.7-37.4 90.9-94.5 90.9h-77.4v-39.9h76.8c33.7 0 49.7-21.5 49.7-51 0-29.5-16-50.4-49.7-50.4h-33.8v81.7h-43v-122.2h77.4c57.1 0 94.5 36.2 94.5 90.9zm566-248.9v114.9c0 41.8-27.7 67-69.4 67-17.2 0-35-3.7-49.1-11l17.8-30.8q13.5 6.2 28.9 6.2c15.3 0 30-8 31.9-25.8-9.8 5.5-21.5 9.2-33.2 9.2-36.2 0-65.7-29.5-65.7-65.8 0-35.6 29.5-65.1 65.7-65.1 12.3 0 24 3.7 33.8 9.8v-8.6zm-39.9 63.6c0-16.8-13.6-30.4-30.4-30.4-16.8 0-30.4 13.6-30.4 30.4 0 16.9 13.6 30.5 30.4 30.5 16.8 0 30.4-13.6 30.4-30.5zm-133.5-78.3c-11.4 0-20.6-9.1-20.6-20.3 0-11.2 9.2-20.3 20.6-20.3 11.3 0 20.5 9.1 20.5 20.3 0 11.2-9.2 20.3-20.5 20.3z"/>
		</g>
	</g>
</svg>