<svg version="1.2" xmlns="http://www.w3.org/2000/svg" viewBox="0 0 1592 278" width="1592" height="278">
	<title>kb-logo-svg</title>
	<style>
		.s0 { fill: #b30000 } 
		.s1 { fill: #000000 } 
	</style>
	<path id="Layer" fill-rule="evenodd" class="s0" d="m1572.6 114.4c0 14.2-11.4 25.5-25.5 25.5h-13.8c-8.1 0-14.1 5.7-14.1 13.3 0 8.1 6.4 13.8 14.1 13.8h11.3v68.7h-50.9v-55.4c0-7.6-7.3-13.7-15-13.7-7.7 0-13.8 6.1-13.8 13.7v55.4h-51.3v-68.7h11.7c8.1 0 14.2-6.1 14.2-13.8 0-8-6.5-13.3-14.2-13.3h-129.1c-4 9.7-9.3 19.8-17.4 26.3-10.9 8.9-23.4 12.1-35.6 9.7l-2.4-0.4 0.4 2.4c1.6 13-2.8 25.5-12.1 36-11.8 12.9-30 21.4-47.8 21.4-17.4 0-36-8.1-47.7-21.4-8.9-10.1-12.9-24.3-11.7-36l0.4-2.4-2.5 0.4c-11.3 2.8-25.4-0.8-36.4-9.7-14.5-11.7-22.6-30.3-22.6-48.5 0-18.6 7.7-36.8 22.6-48.6 11-8.4 25.1-12.1 36.4-9.7l2.5 0.4-0.4-2.4c-1.6-11.7 2.8-25.9 11.7-36 11.7-13.3 30.3-21.4 47.7-21.4 17.8 0 36 8.1 47.8 21.4 9.3 10.9 13.7 23.1 12.1 36l-0.4 2.4 2-0.4c12.2-2.4 24.7 0.8 35.6 9.7 6.1 5.3 12.2 12.6 15.8 19.9h252.5c13.7 0 25.5 11.7 25.9 25.4zm-325.7 4.1c0-6.5-2.4-12.6-6.9-17-4.4-4.5-10.5-6.9-17-6.9-5.2 0-10.1 1.2-15 5.3l-8-7.7c3.2-5.3 4.8-9.7 4.8-14.6 0-6.4-2.4-12.5-6.9-16.9-4.8-4.5-10.9-6.9-17.4-6.9-6.4 0-12.5 2.4-17 6.9-4.4 4.4-6.8 10.5-6.8 16.9 0 5.7 2 11.4 4.4 14.6l-8.1 7.7c-3.6-2.9-8.5-5.3-14.1-5.3-6.5 0-12.6 2.4-17 6.9-4.9 4.4-7.3 10.5-7.3 17 0 6.4 2.8 12.9 7.3 17.4 4.4 4.8 10.5 6.8 17 6.8 4.4 0 9.3-1.6 14.1-4.4l8.1 7.7c-3.2 4-4.4 9.3-4.4 13.3 0 6.5 2.4 12.5 6.8 17 4.5 4.8 10.6 7.3 17 7.3 13.4 0 24.3-10.9 24.3-24.3 0-4.8-2-9.3-4.8-13.3l8-7.7c4.5 2.8 9.8 4.4 15 4.4 13.4 0 23.9-10.9 23.9-24.2z"/>
	<path id="Layer" fill-rule="evenodd" class="s1" d="m95.5 127.8l73.2 106.7h-57l-47.4-74-18.6 19.8v54.2h-45.7v-175.9h45.7v67.6l57.9-67.6h57zm191.8 53h-93.9c0.8 17.4 10.9 29.1 28.7 29.1 10.2 0 19.9-4.8 23.9-14.1h39.3c-7.7 29.5-34.8 42.4-63.6 42.4-41.6 0-70-25.1-70-67.9 0-39.2 31.6-67.1 69.2-67.1 45.7 0 68.4 34.3 66.4 77.6zm-41.7-23.5c-0.4-14.5-10.5-26.2-24.7-26.2-14.9 0-24.6 10.9-27.1 26.2zm128.3-50.5h42.9l-50.2 139.1c-10.1 27.9-25.1 31.5-53.4 31.5h-19.8v-33.9h14.5c9.3 0 16.6-5.3 16.6-14.2 0-6.9-8.1-26.7-10.5-33.5l-33.2-89h44.5l24.3 83.3h0.4zm1202.8 128.6c-8.5 0-15.4-6.9-15.4-15.4 0-8.5 6.9-15.3 15.4-15.3 8.5 0 15.4 6.8 15.4 15.3 0 8.5-6.9 15.4-15.4 15.4zm12.9-15.4c0-7.4-5.8-13.3-12.9-13.3-7.2 0-13 5.9-13 13.3 0 7.4 5.8 13.4 13 13.4 7.1 0 12.9-6 12.9-13.4zm-1012.6-40c0 41.6-30.8 54.6-68.4 54.6h-84.5v-175.9h82.1c30.3-0.4 63.5 7.3 63.5 44.1 0 15.7-9.3 28.7-23 35.5 18.6 5.3 30.3 21.9 30.3 41.7zm-107.2-52.2h35.6c7.7 0 18.6-4 18.6-16.6 0-12.9-8.9-16.9-18.6-16.9h-35.6zm61.5 50.1c0-15.4-10.9-20.6-24.7-20.6h-36.8v40.4h36.8c14.6 0 24.7-4.8 24.7-19.8zm431.7-23l52.5 79.6h-50.5l-31.2-51.3-10.9 10.5v40.8h-42.1v-175.9h42.1v90.6l38-42.5h48.6zm615.7 66.4l5.3 8h-2.4l-4.9-8h-3.6v8h-2.1v-17.8h6.9c4.1 0 5.7 1.7 5.7 4.9 0 2.8-2 4.4-4.9 4.9zm2.9-4.9c0-2.8-2.1-3.2-4.1-3.2h-4v6h2.8c2.4 0 5.3 0 5.3-2.8zm-868.2-70.4v56.2c0 11 0 22.7 4.8 32.8h-42.1c-1.6-4-2-8.1-2.4-12.1-10.9 11.3-26.7 15.7-42.1 15.7-24.6 0-43.7-12.5-43.7-38.8 0-41.6 45.4-38.4 74.5-44.5 6.9-1.2 10.9-4 10.9-11.7 0-9.7-11.7-13.3-20.2-13.3-11.8 0-19 5.2-21.1 16.1h-39.2c0.8-16.9 8.5-27.9 19.8-34.3 11.4-6.5 25.9-8.9 40.5-8.9 30.3 0 59.5 6.5 59.5 42.8zm-41.3 28.8c-6.1 3.6-16.6 4.4-25.9 6.8-9.7 2-17.4 6.1-17.4 16.2 0 10.5 8.1 14.6 17.4 14.6 20.2 0 26.7-11.4 25.9-37.6zm189.3-22.3v82.1h-42.1v-61.9c0-17.4 2.1-35.1-21-35.1-15.8 0-22.6 13.3-22.6 27.4v69.6h-42.1v-127.8h40.4v17.4h0.4c7.7-12.9 24.7-21 40.1-21 42.5 0 45.7 31.1 46.9 49.3z"/>
</svg>