<svg version="1.2" xmlns="http://www.w3.org/2000/svg" viewBox="0 0 1576 282" width="1576" height="282">
	<title>keysight-logo-svg</title>
	<style>
		.s0 { fill: #e90029 } 
		.s1 { fill: #000000 } 
	</style>
	<g id="KS-Horizontal-Logo-2021_RGB">
		<path id="Layer" class="s0" d="m333.7 145.5c-20.3 0-21.5 6.4-28.4 28.8-11 36.4-18.1 51.4-30.7 51.4-12.5 0-17.8-12.5-29.1-45.8-5.3-15.3-15.5-34.4-30-34.4-14.4 0-26.9 20.1-33.5 46.1-15 60.5-18.4 89.7-41.2 89.7-22.9 0-26-29.6-40.1-89.7-7.2-30.4-13.1-46.1-26.3-46.1-8.8 0-16.2 9-20.7 28.5-6.2 25.3-9.9 40.7-20.6 40.7-10.6 0-14.3-18.8-19-48.9q-0.4-3.2-1.5-6.2-1.1-3.1-3-5.7-1.8-2.7-4.3-4.8-2.4-2.2-5.3-3.6h30.4c14.4 0 21.8-11.6 26.8-32.7 8.4-35.9 14.7-68.6 33.8-68.6 19.1 0 26.6 39.8 33.2 66.8 4.4 17.9 11.8 34.5 26.2 34.5 14.5 0 25.6-23.8 30.2-43.8 3.8-16.3 12.5-100.9 41.6-100.9 29.1 0 34.8 64.7 43.8 100.6 10 41 16.2 44.2 23.1 44.2 6.9 0 11.3-4.4 15.4-20.1 7-26.7 12.7-49.3 24.2-49.3 11.6 0 15.1 22.3 21.9 49.2 4.2 16.6 10.4 20.1 13.1 20.1z"/>
		<path id="Layer" class="s1" d="m532.3 226.4l-77.2-89v89h-30.4v-182.4h30.4v79.3l71.6-79.3h38.8l-78.8 86.2 85.7 96.2h-40.1zm162.3-182.4v29.2h-77.2v42.9h68.8v29.1h-68.8v52h77.2v29.2h-107.5v-182.4h107.5zm47.9 0l45.9 72.4 45.4-72.4h35.3l-66 103.1v79.3h-30.2v-79.3l-67.3-103.1h36.9zm127 123.5h30c0 19.4 15.7 32.9 37.5 32.9 21.9 0 35-10.3 35-25.8 0-41-100.4-14.7-100.4-81.4 0-30.1 26-51.7 61.6-51.7 41.9 0 63.3 26.9 63.3 57.3h-31.3c-0.6-16.2-13.2-28.5-33.2-28.5-18.5 0-30.6 9-30.6 22.3 0 37.9 100.7 11.3 100.7 81.8 0 31.6-27.8 54.5-65.4 54.5-37.5 0-67.2-25.7-67.2-61.4zm151-123.5h30.4v182.4h-30.4zm228.7 97.4c0.3 11.7-1.8 23.3-6.2 34.1-4.3 10.8-10.9 20.6-19.2 28.8-8.2 8.2-18.1 14.6-29 18.9-10.9 4.2-22.5 6.1-34.1 5.7-12.3 0.1-24.4-2.3-35.8-7-11.3-4.7-21.6-11.7-30.2-20.4-8.6-8.8-15.3-19.2-19.8-30.7-4.4-11.4-6.5-23.7-6.2-35.9-0.3-12.3 1.8-24.5 6.3-36 4.4-11.4 11.2-21.8 19.8-30.5 8.5-8.8 18.8-15.7 30.1-20.4 11.4-4.6 23.5-7 35.8-6.8 40.9 0 77.8 27.8 84.4 59.8h-34.4c-6.9-17.9-28.4-30.1-50-30.1-8.2 0.1-16.3 1.8-23.9 5-7.5 3.3-14.3 8.1-19.9 14.1-5.7 5.9-10 13-12.9 20.7-2.8 7.7-4.1 15.9-3.7 24.2-0.3 8.4 1 16.8 4.1 24.6 3 7.9 7.5 15 13.4 21 5.9 6.1 12.9 10.8 20.7 14 7.8 3.2 16.1 4.7 24.5 4.6 6.6 0.1 13.1-0.9 19.2-3 6.2-2.2 12-5.4 17-9.6 5-4.1 9.3-9.2 12.6-14.8 3.2-5.7 5.5-11.9 6.6-18.4h-56.9v-29.4h86.6q0.3 2.2 0.6 4.4 0.2 2.1 0.4 4.3 0.2 2.2 0.2 4.4 0.1 2.2 0 4.4m167.2-97.4v182.3h-30.3v-79.9h-88.2v79.9h-30.4v-182.3h30.4v73h88.2v-73h30.3zm159.5 29.1h-56v153.2h-30.3v-153.2h-56v-29.1h142.3v29.1z"/>
	</g>
</svg>