<svg version="1.2" baseProfile="tiny-ps" xmlns="http://www.w3.org/2000/svg" viewBox="0 0 1600 201" width="1600" height="201">
	<title>Kimberly-Clark_logo-svg</title>
	<style>
		tspan { white-space:pre }
		.shp0 { fill: #0f059e } 
	</style>
	<g id="g105">
		<path id="path67" class="shp0" d="M1455.64 74.53L1455.97 74.53C1465.08 62.7 1475.7 60.68 1487.5 60.68L1485.31 90.93C1482.78 90.76 1480.25 90.76 1477.89 90.76C1454.46 90.76 1453.61 104.28 1452.77 120L1450.58 155.32L1413.99 155.32L1418.88 85.01C1419.55 76.56 1419.72 70.82 1419.38 60.51L1454.29 60.51L1455.64 74.53Z" />
		<path id="path65" class="shp0" d="M1269.99 155.32L1279.44 19.44L1314 19.44L1304.56 155.32L1269.99 155.32Z" />
		<path id="path63" class="shp0" d="M1214.01 15.89C1242 15.89 1270.5 28.06 1269.32 62.2L1230.87 62.2C1230.87 53.24 1225.65 43.1 1212.66 43.1C1199.68 43.1 1184.34 52.9 1181.64 80.96C1178.94 109.01 1182.48 130.48 1205.25 130.48C1224.97 130.48 1228.85 113.41 1229.19 110.2L1267.29 110.2C1267.29 125.41 1254.82 156.67 1203.05 156.67C1148.42 156.67 1138.81 116.79 1143.2 79.77C1147.07 48.68 1169.16 15.89 1214.01 15.89L1214.01 15.89Z" />
		<path id="path61" class="shp0" d="M1094.97 79.6L1140.67 79.6L1126 109.18L1080.3 109.18L1094.97 79.6Z" />
		<path id="path59" class="shp0" d="M1023.99 200.95L991.11 200.95L1012.35 156.84L977.62 60.51L1017.92 60.51L1033.43 119.32L1058.21 60.51L1091.43 60.51L1023.99 200.95Z" />
		<path id="path57" class="shp0" d="M512.75 60.51L512.75 73.35L513.09 73.35C523.54 59.49 538.04 58.31 546.98 58.31C559.8 58.31 573.12 65.41 575.64 75.04C582.89 63.72 595.88 58.14 610.21 57.8C630.78 57.8 645.11 70.99 643.76 91.94L639.21 155.32L603.13 155.32L607.01 99.72C607.51 90.76 606.84 80.45 594.87 80.45C577.5 80.45 578.17 99.89 578.01 101.07L574.46 155.32L538.04 155.32L542.09 99.72C542.26 90.42 541.08 80.45 529.61 80.45C511.23 80.45 511.74 99.89 511.74 101.07L508.03 155.49L470.6 155.49L477.17 60.68L512.75 60.51Z" />
		<path id="path55" class="shp0" d="M436.37 60.51L470.09 60.51L463.52 155.32L429.79 155.32L436.37 60.51Z" />
		<path id="path53" class="shp0" d="M382.92 19.44L335.54 79.77L377.69 155.32L425.24 155.32L377.86 77.75L427.77 19.44L382.92 19.44Z" />
		<path id="path51" class="shp0" d="M299.29 19.44L338.91 19.44L329.47 155.32L289.68 155.32L299.29 19.44Z" />
		<path id="path47" fill-rule="evenodd" class="shp0" d="M794.84 114.08C793.83 127.1 796.7 137.74 810.19 137.74C820.13 137.74 826.37 131.15 826.37 124.9L859.42 124.9C858.75 136.39 850.65 145.35 841.21 150.59C832.61 155.83 822.66 156.84 812.04 156.84C773.6 156.84 758.59 140.79 760.95 104.96C762.97 75.04 786.92 57.3 815.41 57.8C853.35 58.48 865.49 80.79 861.95 114.25L794.84 114.25L794.84 114.08ZM829.07 96.17C829.41 91.1 828.23 86.03 825.7 81.97C823.17 78.08 819.29 75.55 813.89 75.89C801.42 76.39 798.21 85.35 796.53 96L829.07 96L829.07 96.17Z" />
		<path id="path43" fill-rule="evenodd" class="shp0" d="M655.9 19.44L691.31 19.44L687.6 73.52L688.28 73.52C695.36 65.07 705.31 57.97 718.12 57.97C747.12 57.97 758.25 83.49 756.57 106.48C755.05 129.8 742.74 156.5 710.53 156.5C699.58 156.5 689.12 150.42 684.23 143.49L683.56 143.49L681.36 154.98L646.63 154.98L655.9 19.44ZM684.23 109.18C683.73 120.67 686.59 137.07 699.58 137.07C715.93 137.07 719.98 120.67 720.65 107.49C721.16 95.83 718.97 78.59 704.97 78.76C687.1 78.76 684.74 96.67 684.23 109.18Z" />
		<path id="path41" class="shp0" d="M934.12 155.32L943.56 19.44L978.12 19.44L968.68 155.32L934.12 155.32Z" />
		<path id="path39" class="shp0" d="M904.95 74.53L905.28 74.53C914.39 62.7 925.01 60.68 936.64 60.68L934.45 90.93C932.09 90.76 929.56 90.76 927.2 90.76C903.77 90.76 902.92 104.28 902.08 120L899.89 155.32L863.3 155.32L868.19 85.01C868.86 76.56 869.03 70.82 868.69 60.51L903.6 60.51L904.95 74.53Z" />
		<path id="path37" class="shp0" d="M1525.44 102.59L1559.16 60.51L1599.63 60.51L1563.21 100.56L1597.61 155.32L1553.77 155.32L1525.44 102.59Z" />
		<path id="path35" class="shp0" d="M1486.15 155.32L1495.6 19.44L1531.34 19.44L1521.9 155.32L1486.15 155.32Z" />
		<path id="path31" fill-rule="evenodd" class="shp0" d="M1372.51 143.66L1372.17 143.66C1364.58 150.76 1357.33 156 1343.51 156C1321.08 156 1311.81 143.32 1311.81 126.59C1311.81 107.83 1331.03 95.66 1365.26 95.66L1376.56 95.66C1377.06 87.38 1379.93 73.69 1365.93 73.69C1355.82 73.69 1353.46 83.32 1353.29 87.89L1320.75 87.89C1321.42 75.55 1326.82 67.27 1336.76 63.04C1346.88 58.48 1359.19 57.46 1369.64 57.46C1388.86 57.46 1412.3 67.1 1410.78 90.42L1408.09 135.89C1407.75 139.77 1407.75 144 1408.26 155.32L1374.53 155.32L1372.51 143.66ZM1357 137.24C1373.69 137.24 1374.7 121.69 1375.54 109.01C1367.96 109.01 1360.88 108.67 1355.82 111.04C1350.42 113.74 1346.37 118.14 1345.87 124.73C1345.53 131.83 1350.25 137.24 1357 137.24Z" />
		<path id="path29" class="shp0" d="M439.74 19.44L473.47 19.44L471.78 43.94L438.06 43.94L439.74 19.44Z" />
		<path id="path27" fill-rule="evenodd" class="shp0" d="M107.24 0C166.42 0 214.48 41.41 214.48 92.45C214.48 143.49 166.42 184.9 107.24 184.9C48.05 184.9 0 143.49 0 92.45C0 41.24 47.89 -0.17 107.24 0ZM87.34 20.28L87.34 78.08C82.79 67.6 72.67 58.31 62.39 52.06L19.05 52.06C33.05 62.53 55.31 78.93 55.31 92.11C55.31 98.7 47.38 99.89 42.83 99.89L15.51 99.89L15.51 131.32L58.34 131.32C67.95 131.32 81.78 127.77 87.34 113.07L87.34 155.15L127.13 155.15L127.13 113.07C132.7 127.94 146.52 131.32 156.14 131.32L198.96 131.32L198.96 99.89L171.65 99.89C167.1 99.89 159.17 98.53 159.17 92.11C159.17 78.93 181.43 62.53 195.42 52.06L152.09 52.06C141.8 58.31 131.69 67.6 127.13 78.08L127.13 20.28L87.34 20.28Z" />
	</g>
</svg>