<svg version="1.2" xmlns="http://www.w3.org/2000/svg" viewBox="0 0 1600 306" width="1600" height="306">
	<title>kimco-realty-seeklogo</title>
	<style>
		.s0 { fill: #013766 } 
	</style>
	<path id="Layer" class="s0" d="m308 6.7v46l-88.4 37.5-124.7-13v-46.1l124.7 13.1zm0 79.8v45.8l-88.5 37.7-170.5-18v-46.1l170.5 18.1zm0 79.6v46l-88.4 37.5-218.7-23.1v-45.8l218.7 22.9z"/>
	<g id="Layer">
		<path id="Layer" fill-rule="evenodd" class="s0" d="m531.8 95.3l91.1 119.2h-50.4l-69-91-29.3 30v61h-40.7v-210.2h40.7v99.2l94.1-99.2h51.7zm139.8-91h41v210.2h-41zm280.5 0h42.6v210.2h-41v-141.3l-61 91h-3.7l-60.5-90.5v140.8h-41v-210.2h42.6l61 94.7zm270.7 147.9l26.6 26.9-1.6 1.9c-5.3 5.8-10.9 10.9-16.8 15.4-5.8 4.5-12.5 8.5-19.2 11.7-6.6 3.2-14.3 5.9-22.3 7.5-8.3 1.8-17.3 2.6-26.9 2.6-15.2 0-29.6-2.9-42.7-8.5-12.7-5.6-24.2-13.3-33.8-22.9-9.6-9.6-17.3-21.3-22.6-34.3-5.6-13-8.3-27.4-8.3-42.3v-0.5c0-14.9 2.7-29 8-42.1 5.3-13 13.1-24.7 22.6-34.6 9.6-9.8 21.4-17.8 34.4-23.4 13.3-5.6 28-8.5 44-8.5 9.3 0 18.1 0.8 26.1 2.4 8 1.6 15.1 3.7 21.8 6.6q10 4.4 18.4 10.4c5.3 4 10.6 8.3 15.7 13.1l1.9 1.6-26.7 30.6-1.8-1.9c-8-7.5-16.5-13.6-25.6-18.1-8.5-4.3-18.9-6.7-30.1-6.7-9.3 0-18.1 1.9-26.1 5.6-8 3.8-14.9 8.6-20.8 14.9-5.9 6.2-10.4 13.6-13.6 22.1-3.2 8.3-4.8 17.6-4.8 27.2v0.5c0 9.6 1.6 18.9 4.8 27.4q4.8 12.8 13.6 22.4 8.8 9.5 20.8 15.1c8 3.7 16.8 5.6 26.1 5.6 12.2 0 22.6-2.4 31.2-6.9 8.8-4.8 17.5-11.2 26.1-19.2zm285.5-43.6v0.5c0 14.7-2.6 28.8-8 41.8-5.3 13-13 24.7-22.9 34.6-9.8 10.1-21.5 17.8-34.9 23.7-13.3 5.8-28.5 8.8-44.4 8.8-16.3 0-31.2-3-44.5-8.6-13.4-5.5-25.1-13.3-34.7-23.1-9.6-9.6-17.3-21.3-22.6-34.3-5.3-13.1-8-27.2-8-41.8v-0.5c0-14.7 2.7-28.8 8-41.8 5.3-13.1 13-24.8 22.9-34.6 9.9-9.9 21.6-17.8 34.9-23.7 13.3-5.8 28.2-8.8 44.5-8.8 16.2 0 31.2 3 44.5 8.5 13.3 5.6 25 13.3 34.6 23.2 9.6 9.8 17.3 21.3 22.6 34.3 5.4 13.1 8.3 27.2 8 41.8zm-82.5 65.7c8.2-3.7 15.1-8.5 21-14.9 5.6-6.1 10.4-13.6 13.6-22.1 3.4-8.2 5-17.5 5-27.1v-0.5c0-9.6-1.8-18.9-5-27.4-3.2-8.6-8-16-13.9-22.4-5.8-6.4-13-11.4-21.3-15.2-8-3.7-17.3-5.6-26.9-5.6-9.8 0-18.9 1.9-26.9 5.6-8.2 3.8-15.2 8.5-21 14.9-5.6 6.2-10.4 13.6-13.6 22.1-3.5 8.3-5.1 17.6-5.1 27.2v0.5c0 9.6 1.9 18.9 5.1 27.4 3.4 8.5 8 16 13.8 22.4 5.9 6.3 13.1 11.4 21.3 15.1 8 3.7 17.4 5.6 26.9 5.6 9.6 0 18.7-1.9 27-5.6zm117.2-163.4h-10.2v-6.6h27.7v6.6h-10.1v26.6h-7.4zm56.2-6.6v33.3h-7.2v-21.9l-9.3 14.4h-0.3l-9.3-14.1v21.6h-7.2v-33.3h8l8.8 14.1 8.7-14.1zm-491.4 256c5.8 0 10.1 1.6 13.3 4.5q4 4 4 10.4c0 3.7-0.8 6.6-2.7 9-1.9 2.4-4.3 4-6.9 5.1l11.2 16.2h-11.7l-9.9-14.6h-7.7v14.6h-9.9v-45.2zm-0.8 21.8c2.4 0 4.3-0.5 5.6-1.9 1.3-1 1.9-2.6 1.9-4.8 0-2.1-0.8-3.7-2.2-4.8-1.3-1-3.2-1.5-5.8-1.5h-9.9v13zm54.4-21.8h34.3v8.8h-24.5v9.3h21.6v8.7h-21.6v9.6h24.8v8.8h-34.6zm87.1-0.5h9.3l19.4 45.7h-10.3l-4.3-10.1h-19.4l-4.3 10.1h-10.1zm10.4 26.9l-6.2-14.6-6.1 14.6zm52.2-26.3h9.9v36.2h22.6v9h-32.5zm71.9 9.1h-13.8v-9.1h37.5v9.1h-13.8v36.1h-9.9zm73 18.4l-17.3-27.4h11.7l10.7 18.1 11.2-18.1h11.2l-17.3 27.1v18.1h-10.2z"/>
	</g>
</svg>