<svg version="1.2" xmlns="http://www.w3.org/2000/svg" viewBox="0 0 1567 349" width="1567" height="349">
	<title>klalo-svg</title>
	<style>
		.s0 { fill: #41007f } 
		.s1 { fill: #00a7e1 } 
		.s2 { fill: #ffffff } 
	</style>
	<g id="Layer">
		<g id="Layer">
			<path id="Layer" fill-rule="evenodd" class="s0" d="m758.1 347.5l151.9-325.1c1.5-3.3 3.5-6.4 5.9-9.1 2.4-2.7 5.1-5.1 8.2-7.1 3.1-2 6.4-3.5 9.9-4.5 3.5-1 7.1-1.6 10.8-1.5 3.6-0.1 7.2 0.5 10.7 1.5 3.5 1 6.8 2.5 9.9 4.5 3.1 2 5.9 4.4 8.2 7.1 2.4 2.7 4.4 5.8 5.9 9.1l151.9 325.1h-32.7l-146.1-312.4c-1.4-3.1-4.5-5-7.8-4.9q-1.3 0-2.5 0.3-1.1 0.3-2.2 1-1 0.6-1.8 1.6-0.9 0.9-1.4 2l-145.9 312.4zm-291-29.5c-1.2 0-2.4-0.2-3.5-0.7-1.1-0.4-2-1.1-2.9-1.9-0.8-0.9-1.4-1.9-1.9-3-0.4-1-0.6-2.2-0.6-3.4v-308.6h-29.6v308.6q0 3.8 0.7 7.5 0.7 3.7 2.2 7.2 1.4 3.5 3.5 6.7 2.1 3.2 4.8 5.8 2.7 2.7 5.8 4.8 3.2 2.1 6.7 3.6 3.5 1.5 7.2 2.2 3.8 0.7 7.6 0.7h234.6v-29.5c0 0-234.7 0-234.6 0zm-153.3 29.5h38.3l-147.4-188.1 124.6-159h-37.6l-247 315.4q-0.7 1-1.8 1.8-1 0.7-2.3 1.1-1.2 0.3-2.5 0.2-1.3 0-2.5-0.5-1.2-0.4-2.2-1.2-1-0.7-1.7-1.8-0.8-1-1.1-2.2-0.4-1.2-0.4-2.5v-310.3h-29.5v310.3c-0.1 3.9 0.5 7.8 1.7 11.6 1.1 3.7 2.9 7.2 5.2 10.4 2.2 3.2 5 6 8.1 8.3 3.2 2.3 6.7 4.1 10.4 5.3 4 1.4 8.2 2.1 12.5 2.1q4.3 0 8.4-0.9 4.2-1 8-2.9 3.8-1.9 7.1-4.5 3.3-2.7 5.9-6.1l117.9-150.7z"/>
		</g>
		<path id="Layer" fill-rule="evenodd" class="s1" d="m1218.4 0.4h347.9v347.1h-347.9z"/>
		<path id="Layer" fill-rule="evenodd" class="s2" d="m1540.2 190.3h-131.5v131.2h-32.7v-131.2h-131.5v-32.7h131.5v-131.2h32.7v131.2h131.5z"/>
	</g>
</svg>