<svg version="1.2" baseProfile="tiny-ps" xmlns="http://www.w3.org/2000/svg" viewBox="0 0 1570 267" width="1570" height="267">
	<title>KraftHeinz-svg</title>
	<style>
		tspan { white-space:pre }
		.shp0 { fill: #1d3c6d } 
		.shp1 { fill: #e32726 } 
	</style>
	<g id="layer1">
		<g id="g30">
			<path id="path32" class="shp0" d="M697.95 124.58C697.92 109.88 697.92 95.17 697.95 80.46C685.32 80.37 672.73 80.39 660.1 80.42C660.07 64.39 660.04 48.34 660.16 32.34C643.47 32.42 626.75 32.39 610.07 32.37L610.07 80.39L589.3 80.39C589.27 95.11 589.3 109.83 589.3 124.58L610.04 124.58L610.04 124.61L610.07 124.61C610.13 138.04 610.06 151.48 610.05 164.92L610.04 164.92C610.03 166.04 610.04 167.15 610.04 168.27C610.04 169.11 610.03 169.96 610.03 170.8L610.04 170.8C610.04 178.63 610.06 186.46 610.17 194.29C610.59 215.46 618.28 238.14 636.09 250.58C651.76 261.8 671.28 263.9 690.01 263.65C674.6 247.57 665.36 224.08 661.64 205.22L661.53 204.67L661.46 204.11C660.96 199.97 660.33 193.32 660.4 186.3C660.28 184.8 660.2 183.31 660.13 181.84C660.08 178.02 660.08 174.2 660.06 170.4C659.99 155.12 660.15 139.86 660.1 124.61C672.7 124.64 685.32 124.64 697.95 124.58Z" />
		</g>
		<g id="g34">
			<path id="path36" class="shp0" d="M579.94 46.13C579.85 31.39 579.85 16.66 579.94 1.92C555.23 -2.24 526.77 -0.6 506.96 16.51C489.25 32.45 485.76 57.8 486.4 80.43C486.23 80.43 486.06 80.43 485.9 80.43L485.9 80.43L464.75 80.43C464.78 95.15 464.78 109.89 464.75 124.62L483.03 124.62C484.19 124.61 485.36 124.61 486.52 124.61L486.52 124.62L486.62 124.62L486.62 148.77L486.54 148.77C486.58 184.92 486.59 221.09 486.52 257.24L509.78 257.24C518.97 257.24 528.17 257.24 537.36 257.21C537.34 220.52 537.32 183.84 537.37 147.16L537.37 147.16L537.37 124.57L571.28 124.57C571.25 109.83 571.25 95.12 571.28 80.4C571.28 80.4 538.01 80.4 537.12 80.4C537.57 70.45 536.43 58.56 544.6 51.2C554.44 42.92 568.16 45.61 579.94 46.13Z" />
		</g>
		<g id="g38">
			<path id="path40" fill-rule="evenodd" class="shp0" d="M395.8 247.94C373.63 263 341.95 264.79 320.15 248.15C296.92 231.16 292.44 195.62 308.13 172.12C317.85 157.36 334.89 148.92 352.09 146.8C366.6 143.86 381.2 147.29 395.58 149.11C394.1 139.98 390.53 129.88 380.96 126.58C360.39 118.88 337.74 123.58 316.97 128.1C317 111.99 316.91 95.89 317.03 79.82C349.31 74.64 384.77 71.24 415.03 86.31C436.19 96.74 444.61 121.39 445 143.62C445.61 181.49 445 219.36 445.31 257.23L431.03 257.23C426.75 257.23 422.48 257.23 418.2 257.23L395.62 257.23C395.68 254.88 395.76 250.25 395.8 247.94ZM393.52 218.97C395 207.63 395.1 196.17 393.95 184.8C381.29 182.28 367.36 180.07 355.43 186.38C343.74 192.38 342.35 210.72 353.13 218.34C364.94 227.34 380.65 222.95 393.52 218.97Z" />
		</g>
		<g id="g42">
			<path id="path44" class="shp0" d="M135.7 17.45C155.96 17.56 176.22 17.48 196.47 17.48C166.8 57.44 137.79 97.92 107.93 137.74C134.52 177.53 160.68 217.55 187.48 257.18C166.47 257.33 145.45 257.12 124.46 257.3C101.06 221.73 77.59 186.2 54.3 150.56C54.24 186.13 54.24 221.7 54.33 257.27C36.22 257.18 18.11 257.24 0 257.24C0.06 177.34 0.06 97.44 0 17.53C18.11 17.45 36.2 17.53 54.3 17.45C54.27 55.17 54.21 92.89 54.33 130.61C81.34 92.8 108.63 55.2 135.7 17.45Z" />
		</g>
		<g id="g46">
			<path id="path48" class="shp0" d="M200.08 80.97C217.13 80.89 234.2 80.97 251.29 80.89C251.22 92.16 251.2 103.44 251.01 114.7C259.29 96.01 277.18 83.85 297.04 80.64C297.07 97.38 297.29 114.15 296.83 130.88C275.06 133.49 252.68 149.75 251.89 173.28C251.29 201.23 251.77 229.26 251.74 257.25C234.51 257.25 217.28 257.25 200.08 257.21C200.11 198.45 200.11 139.71 200.08 80.97Z" />
		</g>
		<g id="g50">
			<path id="path52" fill-rule="evenodd" class="shp1" d="M1112 228.56C1103.43 240 1093.43 248.59 1080.58 255.74C1066.3 262.89 1050.58 264.32 1036.3 264.32C969.16 258.6 999.16 177.07 1003.44 165.63C1034.87 88.4 1102 85.53 1120.57 85.53C1150.57 88.4 1166.28 148.47 1054.87 175.64C1054.87 175.64 1037.72 217.13 1064.86 228.56C1073.43 231.43 1083.43 231.43 1092 228.56C1100.57 225.7 1102 224.27 1109.14 221.41C1109.14 221.41 1119.14 215.69 1112 228.56ZM1057.72 158.48C1063.43 158.48 1072.01 155.62 1080.58 152.76C1080.58 152.76 1102 109.85 1093.43 106.99C1076.29 98.41 1060.58 152.76 1057.72 158.48Z" />
		</g>
		<g id="g54">
			<path id="path56" class="shp1" d="M1369.11 237.15C1367.68 235.72 1364.82 235.72 1363.4 234.29C1354.82 228.56 1361.96 212.83 1363.4 204.25L1389.11 112.71C1390.53 106.99 1400.53 76.96 1360.53 82.67C1326.25 88.4 1301.97 109.85 1301.97 109.85C1304.83 101.27 1307.69 88.4 1301.97 85.53C1294.83 82.67 1253.41 95.55 1243.41 104.13C1240.55 104.13 1236.27 108.42 1240.55 112.71C1244.83 118.43 1246.27 122.72 1243.41 132.73C1237.7 149.9 1220.56 209.97 1216.27 221.42C1211.99 232.86 1206.27 254.31 1216.27 261.46C1223.41 267.19 1253.41 254.31 1257.7 251.45C1261.98 250.02 1266.26 247.16 1267.69 245.73C1273.41 240 1264.83 237.15 1273.41 207.11C1273.41 205.68 1283.41 175.64 1290.54 149.9C1296.26 128.44 1316.25 118.43 1323.4 117C1334.82 115.57 1331.97 125.59 1330.54 132.73C1320.54 164.2 1309.11 211.4 1304.83 222.84C1300.54 234.29 1293.4 257.17 1304.83 261.46C1314.82 268.62 1360.53 248.59 1364.82 245.73C1373.39 240 1373.39 237.15 1369.11 237.15Z" />
		</g>
		<g id="g58">
			<path id="path60" class="shp1" d="M1194.85 237.15C1191.99 235.72 1190.56 235.72 1189.13 234.29C1180.56 228.56 1186.27 212.83 1189.13 204.25L1216.27 112.71C1217.7 102.7 1223.41 89.83 1216.27 85.53C1207.7 82.67 1166.27 95.55 1156.28 104.13C1154.85 104.13 1150.56 108.42 1154.85 112.71C1159.14 118.43 1159.14 122.72 1156.28 132.73C1151.99 149.9 1131.99 211.4 1127.71 222.84C1123.43 234.29 1117.71 257.17 1130.56 261.46C1140.56 268.62 1183.42 250.02 1189.13 245.73C1199.13 241.43 1199.13 237.15 1194.85 237.15Z" />
		</g>
		<g id="g62">
			<path id="path64" class="shp1" d="M1186.27 64.08C1189.13 69.8 1214.84 58.36 1227.7 51.21C1229.13 49.78 1234.84 45.48 1236.27 41.19C1239.13 31.18 1240.56 26.89 1241.98 19.74C1243.41 16.88 1243.41 12.59 1239.13 11.15C1233.41 9.73 1199.13 14.02 1190.56 28.32C1187.7 34.04 1177.7 61.22 1186.27 64.08Z" />
		</g>
		<g id="g66">
			<path id="path68" class="shp1" d="M1569.08 164.2C1564.8 148.47 1539.08 144.18 1529.09 152.76C1523.37 158.48 1520.51 169.92 1521.94 172.79C1546.22 165.63 1550.51 187.09 1546.22 195.66C1537.65 208.54 1534.8 212.83 1523.37 212.83L1447.67 212.83C1446.24 211.4 1444.81 209.97 1447.67 207.11C1451.95 201.39 1526.22 99.84 1529.09 95.55C1530.51 92.69 1534.8 85.53 1524.8 85.53L1441.95 85.53C1433.39 85.53 1429.1 88.39 1421.96 95.55C1416.24 102.7 1409.1 124.15 1404.81 138.46C1404.81 138.46 1404.81 144.18 1413.39 137.03C1414.81 135.59 1417.67 129.87 1421.96 129.87L1471.95 129.87C1487.66 129.87 1404.81 208.54 1379.1 250.02C1374.82 257.17 1381.96 257.17 1386.25 257.17L1494.8 257.17C1521.94 257.17 1517.66 261.46 1531.94 241.43C1531.94 241.43 1576.21 184.23 1569.08 164.2Z" />
		</g>
		<g id="g70">
			<path id="path72" class="shp1" d="M972.02 212.83L1002.02 96.98C1022.01 26.89 1033.44 24.03 1040.58 16.88L993.45 16.88C976.31 16.88 963.45 41.19 960.59 56.93L940.59 129.87L897.75 129.87C897.75 129.87 923.45 36.9 926.31 26.89C927.74 22.6 927.74 16.88 919.17 16.88C917.74 16.88 827.75 14.02 799.18 24.03C786.33 28.32 767.76 39.76 762.05 56.93C757.76 66.94 752.05 85.53 764.91 119.86C766.34 124.15 769.19 127.02 770.62 128.45C774.9 131.3 812.04 125.59 810.61 125.59C813.47 125.59 814.9 124.15 812.04 118.43C809.18 111.28 800.62 98.41 799.18 85.53C793.47 35.47 829.18 28.32 834.89 26.89C843.46 25.46 850.61 25.46 859.17 26.89C862.04 26.89 869.17 28.32 870.6 31.19C873.46 36.9 869.17 46.92 866.32 58.36C863.46 66.94 839.18 155.62 832.04 179.93C827.75 198.53 809.18 238.58 790.62 244.3C786.33 245.73 780.62 245.73 774.9 244.3C769.19 242.87 763.47 240.01 759.19 237.15C747.76 225.7 740.62 202.82 739.19 185.66C737.76 164.2 742.05 148.47 737.76 148.47C730.31 148.47 705.42 158.32 695.33 165.58C695.31 165.59 695.29 165.59 695.28 165.61C691.18 168.54 690.92 169.1 690.92 169.1C690.71 169.31 690.55 169.51 690.44 169.7C687.8 174.2 687.98 190.2 689.2 199.96C693.49 221.42 704.92 245.73 722.05 257.17C767.76 288.64 847.75 231.43 856.32 225.7C869.17 214.26 877.75 198.53 880.6 187.09C884.89 172.79 892.03 148.47 892.03 148.47L934.88 148.47C934.88 148.47 917.74 212.83 913.46 228.56C909.17 241.43 906.31 262.89 917.74 261.46C960.59 261.46 977.74 245.73 979.16 244.3C980.59 242.87 980.59 240.01 979.16 238.58C976.31 237.15 966.31 227.13 972.02 212.83Z" />
		</g>
	</g>
</svg>