<svg version="1.2" xmlns="http://www.w3.org/2000/svg" viewBox="0 0 1593 440" width="1593" height="440">
	<title>l3 harris-svg</title>
	<style>
		.s0 { fill: #ff000a } 
		.s1 { fill: #000000 } 
	</style>
	<path id="Layer" fill-rule="evenodd" class="s0" d="m221.5 350.5h-102.2c-1 0-1.9 0-2.9-1l-82.3-63.2c-1-1-1.9-2-1.9-3l-32.2-102.2v-2.9l32.2-111c0-1 0.9-2 1.9-2.9l84.2-63.3c1-1 1.9-1 2.9-1h98.4c0.9 0 1.9 0 2.8 1l84.3 63.3c0.9 0.9 1.9 1.9 1.9 2.9l32.1 110v2.9l-31.2 103.2c0 1-0.9 2-1.9 3l-82.3 63.2c-1.9 1-2.9 1-3.8 1zm-97.5-10.7h84.2c-33.1-33.1-66.2-62.3-100.3-88.6 2.8 28.2 8.5 58.4 16.1 88.6zm-12.3-99.3c36.9 27.3 71 58.4 106.9 93.5q3.1-16.7 5.5-33.4 2.5-16.8 4.4-33.6 1.9-16.8 3.2-33.6 1.3-16.9 2.1-33.8c-45.4 9.7-88 24.3-122.1 40.9zm131.6-36c-1.9 40.9-6.7 83.7-14.2 127.5l68.1-51.6c-16.1-31.1-33.1-56.5-53.9-75.9zm-197.9 76.9l65.3 49.6c-6.6-28.2-11.3-56.4-14.2-83.7-19.8 10.7-36.9 22.4-51.1 34.1zm-31.2-90.6l25.6 81.8c14.2-11.7 31.2-23.3 51.1-34.1-25.6-17.5-50.2-34-76.7-47.7zm235.7 4.9c19.9 19.5 37.8 42.8 53 72.1l25.5-81.8c-25.5 0.9-52 4.8-78.5 9.7zm-145.8-71.1c-2.8 34.1-2.8 70.1 1 106.2 35-16.6 76.6-31.2 121.1-40.9-26.5-20.5-53.9-33.1-82.3-46.8-13.3-5.8-26.5-11.7-39.8-18.5zm-89.9 53.6q41.2 21.9 79.5 49.6c-2.8-35-2.8-69.1-0.9-103.2-30.3 14.6-56.8 33.1-78.6 53.6zm225.3-89.6c3.8 31.2 4.7 64.3 4.7 96.4 27.5-5.8 54.9-9.7 80.5-11.7-25.6-31.1-53-58.4-85.2-84.7zm-126.9 27.3c11.4 5.8 22.8 10.7 36 16.5 28.4 12.7 56.8 26.3 85.2 47.7 0-33.1-1-66.2-5.7-98.3-42.6 8.7-81.4 19.5-115.5 34.1zm-72.8-37l-23.7 82.7c19.9-17.5 44.5-33.1 71.9-46.7-18.9-10.7-34-22.4-48.2-36zm206.3 0.9c28.4 22.4 53.9 47.7 76.7 75l-22.8-80.8zm-122.1-66.2c-8.5 30.2-15.1 61.3-18.9 93.5 34.1-14.6 72-26.3 113.6-33.1-25.6-20.5-55.8-39-94.7-60.4zm-78.5 55.5c14.2 14.6 30.3 26.3 49.2 38 2.8-29.3 8.5-58.5 16.1-86.7 0 0-65.3 48.7-65.3 48.7zm182.7-50.6c3.7 16.5 6.6 34 9.4 51.6q6.4-1.1 12.7-2 6.4-1 12.8-1.7 6.4-0.7 12.8-1.3 6.4-0.5 12.8-0.9zm-86.1-7.8c32.2 18.5 59.6 36.1 83.3 53.6-2.8-17.5-5.7-36-10.4-53.6z"/>
	<path id="Layer" fill-rule="evenodd" class="s1" d="m481.8 354.4h-45.4v34.1h38.8v8.7h-38.8v40h-9.5v-91.6h54.9zm75.7 82.8h-10.4l-7.6-20.4h-37.8l-7.6 20.4h-10.4l33.1-91.5h7.6zm-53-29.2h33.1l-16.1-48.7zm120.2-52.6l-5.6 5.8c-5.7-4.8-11.4-7.7-20.9-7.7-12.3 0-18.9 6.8-18.9 17.5 0 4.8 0.9 7.8 3.8 10.7 2.8 1.9 6.6 3.9 11.3 4.9l10.5 1.9c8.5 1 12.3 2.9 16 6.8 4.8 3.9 7.6 10.7 7.6 17.5 0 15.6-12.3 26.3-30.3 26.3-13.2 0-21.7-3.9-30.3-11.6l6.7-6.9c7.5 7.8 14.2 9.8 24.6 9.8 13.2 0 20.8-5.9 20.8-16.6 0-4.8-0.9-8.7-4.7-11.7-2.9-2.9-5.7-3.9-11.4-4.8l-10.4-2c-6.6-1-12.3-2.9-16.1-6.8-4.7-3.9-6.6-9.7-6.6-17.5 0-15.6 10.4-25.3 28.4-25.3 10.4-1 18 2.9 25.5 9.7zm74.8-1h-25.5v82.8h-9.5v-82.8h-25.6v-8.7h60.6zm14.2 82.7h-11.4v-11.7h11.4zm112.6-82.7h-45.4v34.1h38.8v8.7h-38.8v39.9h-9.5v-91.5h54.9zm65.3 0c8.6 8.8 8.6 16.6 8.6 38 0 21.4-1 29.2-8.6 38-5.6 5.8-13.2 8.7-21.7 8.7-9.5 0-17.1-2.9-21.8-8.7-8.5-8.8-8.5-16.6-8.5-38 0-21.4 0.9-29.2 8.5-38 5.7-5.8 13.3-8.7 21.8-8.7 9.4-1 17 2.9 21.7 8.7zm-36.9 5.9c-5.7 5.8-6.6 12.6-6.6 31.1 0 18.5 0.9 25.3 6.6 31.2 3.8 3.9 9.5 6.8 15.2 6.8 5.7 0 11.3-2 15.1-6.8 5.7-5.9 6.6-12.7 6.6-31.2 0-18.5-0.9-25.3-6.6-31.1-3.8-3.9-9.4-6.9-15.1-6.9-5.7 0-11.4 3-15.2 6.9zm102.3-14.6c15.1 0 26.5 9.7 26.5 25.3 0 13.6-7.6 22.4-19 24.3l20.9 41.9h-11.4l-19.9-40.9h-21.8v40.9h-9.4v-91.5zm-24.6 8.7v33.1h23.6c10.4 0 18-5.8 18-16.5 0-10.7-7.6-16.6-18-16.6zm147.7 82.8h-8.5l-19.9-73-19.9 73h-8.5l-22.7-91.5h10.4l17 74 19.9-74h8.5l19.9 74 17-74h10.5zm101.2 0h-10.4l-7.6-20.5h-38.8l-7.6 20.5h-9.4l33.1-91.6h7.6zm-53-29.2h33.1l-16.1-48.7zm107-61.3c15.1 0 26.5 9.7 26.5 25.3 0 13.7-7.6 22.4-19 24.4l20.9 41.8h-11.4l-19.9-40.9h-21.7v40.9h-9.5v-91.5zm-24.6 8.8v33.1h23.7c10.4 0 17.9-5.9 17.9-16.6 0-10.7-7.5-16.5-17.9-16.5zm105-9.8c10.5 0 17.1 3 23.7 9.8 7.6 8.7 7.6 22.4 7.6 36 0 13.6 0 27.3-7.6 36-5.7 6.8-13.2 9.8-23.7 9.8h-30.2v-91.6zm-20.9 8.8v74h19c6.6 0 13.2-2 17-6.8 5.7-5.9 5.7-17.5 5.7-30.2 0-12.7 0-24.3-5.7-30.2-4.7-4.9-10.4-6.8-17-6.8zm79.5 82.7h-11.4v-11.6h11.4zm-464.8-348.6l61.5 172.3h-34l-9.5-30.1h-59.6l-10.4 30.1h-34.1l60.6-172.3zm8.5 113.9l-20.8-62.3-20.9 62.3zm171.3-14.6l37.9 74h-37.9l-33.1-69.1h-23.6v69.1h-33.2v-172.3h65.3c34.1 0 54 23.3 54 52.6 0 24.3-15.2 38.9-29.4 45.7zm-3.7-46.7c0-12.7-9.5-22.4-23.7-22.4h-31.2v45.8h31.2c14.2 0 23.7-9.8 23.7-23.4zm160.9 46.7l37.8 74h-37.8l-33.2-69.1h-23.6v69.1h-33.2v-172.3h65.4c34 0 53.9 23.3 53.9 52.6 0 24.3-14.2 38.9-29.3 45.7zm-3.8-46.7c0-12.7-9.5-22.4-23.7-22.4h-31.2v45.8h31.2c15.2 0 24.6-9.8 23.7-23.4zm71-52.6h33.1v172.3h-33.1zm172.2 85.7c8.5 8.8 13.3 21.4 13.3 37 0 33.1-27.5 52.6-62.5 52.6-25.5 0-44.5-5.8-61.5-22.4l20.8-21.4c10.4 10.7 24.6 14.6 40.7 14.6 18.9 0 29.4-7.8 29.4-21.4 0-5.9-1.9-10.7-4.8-14.6-2.8-3-6.6-4.9-15.1-5.9l-19.9-2.9c-14.2-1.9-24.6-6.8-32.2-14.6-7.6-7.8-12.3-19.5-12.3-34.1 0-31.1 21.8-52.6 58.7-52.6 22.7 0 39.8 5.9 53.9 20.5l-20.8 21.4c-10.4-10.7-23.6-11.7-34.1-11.7-17 0-25.5 9.8-25.5 21.4 0 3.9 0.9 8.8 4.7 12.7 2.9 2.9 8.5 5.8 15.2 6.8l19.8 2.9c15.2 0 24.7 4.9 32.2 11.7zm-848 37c0 34.1-24.7 51.6-53.1 51.6-23.6 0-46.3-11.7-52-37.9l29.3-12.7c0 15.6 10.4 22.4 22.7 22.4 13.3 0 22.8-8.8 22.8-24.4 0-14.6-8.6-23.3-23.7-23.3h-0.9v-27.3h0.9c15.1 0 20.8-9.7 20.8-21.4 0-14.6-9.4-22.4-20.8-22.4-11.4 0-19.9 7.8-20.8 20.4l-29.4-12.6c5.7-23.4 25.6-37 49.3-37 29.3 0 51.1 20.4 51.1 49.6 0 18.5-8.6 29.3-19 35.1 13.3 7.8 22.8 19.5 22.8 39.9zm123.9-122.7h33.2v172.4h-33.2v-72.1h-56.7v72.1h-33.2v-172.4h33.2v70.1h56.7zm-302.8 143.2h52v30.2h-85.2v-173.4h33.2zm1093.2-138.2v5.8h-10.4v34.1h-5.7v-34.1h-10.4v-5.8zm39.7 0v39.9h-5.6v-26.3l-8.6 18.5h-4.7l-8.5-18.5v26.3h-5.7v-39.9h5.7l11.3 24.3 10.5-24.3z"/>
</svg>