<svg version="1.2" xmlns="http://www.w3.org/2000/svg" viewBox="0 0 1592 423" width="1592" height="423">
	<title>Labcorp_Logo-svg</title>
	<defs>
		<clipPath clipPathUnits="userSpaceOnUse" id="cp1">
			<path d="m0 0.76h418.61v422.24h-418.61z"/>
		</clipPath>
	</defs>
	<style>
		.s0 { fill: #4cd5f7 } 
		.s1 { fill: #231f20 } 
		.s2 { fill: #2998e3 } 
		.s3 { fill: #3a5ce9 } 
	</style>
	<g id="Official-">
		<g id="BrandPage1">
			<g id="Labcorp_Logo_Horizontal_Color_RGB">
				<g id="Group-3">
					<g id="Clip-2">
					</g>
					<g id="Clip-Path: Fill-1" clip-path="url(#cp1)">
						<path id="Fill-1" fill-rule="evenodd" class="s0" d="m344.5 50.5c87.3 70.3 99.1 199.2 26.9 291.2-71.9 94.1-203.2 109.4-293.7 30.7-90.9-80.9-104-218.5-28.8-303.9 75.5-83.5 208.1-90.1 295.6-18z"/>
					</g>
				</g>
				<path id="Fill-4" class="s1" d="m507 62.7h44.4v236.3h-44.4z"/>
				<path id="Fill-5" fill-rule="evenodd" class="s1" d="m650.9 302.5c-48 0-80-39.1-80-84.4 0-45.4 32-84.5 80-84.5 17.5 0 32.1 6.1 41.5 15.2v-11.7h44.4v161.9h-44.4v-12c-9.4 9.4-24 15.5-41.5 15.5zm6.5-40.4c17.1 0 27.5-7.5 35-17.8v-52.8c-7.5-10-17.9-17.5-35-17.5-24 0-40.5 20.1-40.5 44.1 0 23.9 16.5 44 40.5 44z"/>
				<path id="Fill-6" fill-rule="evenodd" class="s1" d="m849.6 302.5c-17.2 0-32.1-6.1-41.5-15.5v12h-44.4v-236.3h44.4v86.1c9.4-9.1 24.3-15.2 41.5-15.2 47.9 0 80 39.1 80 84.5 0 45.3-32.1 84.4-80 84.4zm-6.5-40.4c24.3 0 40.8-20.1 40.8-44 0-24-16.5-44.1-40.8-44.1-17.2 0-27.5 7.5-35 17.5v52.8c7.5 10.3 17.8 17.8 35 17.8z"/>
				<path id="Fill-7" fill-rule="evenodd" class="s1" d="m1030 302.5c-47.9 0-85.9-35.6-85.9-84.4 0-48.9 38-84.5 85.9-84.5 33.7 0 62.9 18.7 76.8 46.6l-38.5 20.7c-6.5-14.9-20.5-25.9-38.3-25.9-23.3 0-41.1 18.1-41.1 43.1 0 24.9 17.8 43 41.1 43 17.8 0 31.8-11 38.3-25.9l38.5 20.7c-13.9 27.9-43.1 46.6-76.8 46.6z"/>
				<path id="Fill-8" fill-rule="evenodd" class="s1" d="m1201.1 302.5c-47.1 0-85.2-37.7-85.2-84.4 0-46.8 38.1-84.5 85.2-84.5 47.1 0 85.2 37.7 85.2 84.5 0 46.7-38.1 84.4-85.2 84.4zm40.2-84.4c0-23.9-18.1-43.1-40.4-43.1-22.3 0-40.3 19.2-40.3 43.1 0 23.8 18 43 40.3 43 22.3 0 40.4-19.2 40.4-43z"/>
				<path id="Fill-9" fill-rule="evenodd" class="s1" d="m1425.8 137.1h44.4v11.7c9.4-9.1 24.3-15.2 41.5-15.2 47.9 0 80 39.1 80 84.5 0 45.3-32.1 84.4-80 84.4-17.2 0-32.1-6.1-41.5-15.5v74.8h-44.4zm79.4 124.9c24.3 0 40.8-20 40.8-44 0-23.9-16.5-44-40.8-44-17.2 0-27.5 7.4-35 17.5v52.7c7.5 10.4 17.8 17.8 35 17.8z"/>
				<path id="Fill-10" fill-rule="evenodd" class="s1" d="m1406.4 138.1v42.5c0 0-35.3-12.3-56.4 18.2v100.2h-44.4v-161.9h44.4v19.4c5.5-11.6 20.7-21.3 37.6-21.3 8.1 0 15.2 1.6 18.8 2.9z"/>
				<path id="Fill-11" fill-rule="evenodd" class="s2" d="m341.4 71c64.2 51.7 72.9 146.7 19.8 214.5-53 69.2-149.6 82.4-216.3 24.4-67-59.5-76.6-162.8-21.2-225.6 55.6-61.5 153.2-66.4 217.7-13.3z"/>
				<path id="Fill-12" fill-rule="evenodd" class="s3" d="m335.8 90.5c48.7 39.3 55.3 111.5 15 163-40.1 52.6-113.4 61.2-164 17.1-50.7-45.2-58.1-122.2-16.1-170 42.2-46.8 116.2-50.5 165.1-10.1z"/>
			</g>
		</g>
	</g>
</svg>