<svg version="1.2" baseProfile="tiny-ps" xmlns="http://www.w3.org/2000/svg" viewBox="0 0 1630 551" width="1630" height="551">
	<title>Lam_Research_logo-svg</title>
	<style>
		tspan { white-space:pre }
		.shp0 { fill: #000000 } 
	</style>
	<g id="layer1">
		<path id="path4566" class="shp0" d="M203.63 266.44L555.48 547.82L203.63 318.77L482.24 547.82L203.63 371.09L409.01 547.82L203.63 423.45L335.77 547.82L1 547.82L314.67 4.32L628.34 547.82L203.63 266.44L203.63 266.44Z" />
		<path id="path4554" class="shp0" d="M885.96 381.79L656.54 381.79L656.54 365.02L660.53 364.46C672.04 363.89 684.45 361.66 690.65 346.55C695.96 333.7 695.08 309.1 695.08 294.55L695.08 88.79C695.08 51.89 698.18 22.27 662.3 18.35L656.54 17.78L656.54 1L782.34 1L782.34 17.78L776.56 18.35C764.18 19.47 750.89 20.59 744.24 36.24C738.48 49.65 739.37 73.71 739.37 88.79L739.37 306.3C739.37 316.94 739.37 335.94 743.78 344.89C749.56 357.74 767.28 360.54 777.45 360.54C835.47 360.54 878.88 313.57 909 255.42L921.4 262.7L885.96 381.79L885.96 381.79Z" />
		<path id="path4558" fill-rule="evenodd" class="shp0" d="M1162.23 367.25C1151.18 380.66 1131.69 386.81 1117.05 386.27C1095.37 385.7 1075.43 373.4 1068.79 346C1042.66 371.71 1018.74 386.27 985.52 386.27C954.53 386.27 917.77 365.01 917.77 320.28C917.77 282.26 936.37 264.36 961.6 250.39C985.09 236.97 1010.77 230.82 1036.01 227.46L1068.79 222.99L1068.79 182.74C1067.9 165.4 1065.69 150.85 1053.29 140.23C1041.77 130.73 1026.71 128.5 1013.42 128.5C999.69 128.5 970.9 136.88 970.9 158.14L970.9 165.4C970.9 183.84 965.16 198.94 948.33 198.94C937.7 198.94 927.51 188.32 927.51 174.34C927.51 150.85 947.89 130.17 963.39 121.78C981.97 111.72 1005.89 106.13 1025.82 105.56C1044.43 105.02 1068.79 112.83 1085.18 124.02C1109.1 140.23 1111.31 161.49 1111.31 192.79L1111.31 302.39C1111.31 325.88 1113.97 361.1 1135.67 361.1C1142.32 361.1 1148.52 357.18 1153.82 352.71L1162.23 367.25ZM1068.79 242.56C1035.13 246.47 962.5 258.21 962.5 313.58C962.5 342.08 981.55 358.86 1002.81 358.86C1026.71 358.86 1050.63 340.96 1068.79 321.39L1068.79 242.56Z" />
		<path id="path4562" class="shp0" d="M1242.32 310.78C1242.32 341.53 1246.31 362.22 1273.77 365.02L1278.64 365.02L1278.64 381.8L1165.71 381.8L1165.71 365.02C1195.81 361.67 1199.82 342.65 1199.82 310.78L1199.82 194.49C1199.82 163.17 1195.37 142.49 1167.46 140.24L1160.4 140.24L1160.4 123.47L1228.15 111.17L1242.32 111.17L1242.32 149.74C1261.81 123.47 1291.93 105.57 1325.59 105.57C1353.94 105.57 1373.85 115.64 1386.7 149.74C1408.85 125.14 1439.85 106.7 1467.76 105.57C1486.8 105.02 1507.62 113.4 1519.58 133.54C1529.32 149.74 1530.21 168.76 1530.21 187.78L1530.21 310.78C1530.21 340.99 1533.75 361.67 1563.87 365.02L1563.87 381.8L1451.37 381.8L1451.37 365.02L1454.91 365.02C1483.26 362.22 1487.69 343.77 1487.69 310.78L1487.69 200.08C1487.69 187.78 1487.69 174.36 1484.14 162.06C1478.83 145.27 1466.87 134.66 1452.71 134.66C1429.22 134.66 1405.75 152.56 1386.26 171.56L1386.26 310.78C1386.26 343.77 1390.7 362.22 1419.03 365.02L1422.58 365.02L1422.58 381.8L1307.43 381.8L1307.43 365.02L1310.98 365.02C1339.31 362.22 1343.75 343.77 1343.75 310.78L1343.75 198.39C1343.75 167.64 1341.98 134.66 1310.53 134.66C1284.82 134.66 1259.59 152.56 1242.32 171.56L1242.32 310.78L1242.32 310.78Z" />
		<path id="path4570" fill-rule="evenodd" class="shp0" d="M1564.37 110.37C1571.35 101.76 1581.73 96.72 1592.79 96.72C1600.88 96.72 1609.14 99.74 1615.68 105.05C1624.06 111.75 1629.21 122.48 1629.21 133.43C1629.21 142.88 1625.23 152.34 1618.34 159.27C1611.66 166.04 1602.5 169.91 1592.68 169.91C1582.9 169.91 1573.88 166.15 1566.9 159.27C1560.03 152.45 1556.2 143.3 1556.2 133.43C1556.2 125.03 1559.07 116.84 1564.37 110.37ZM1559.82 133.43C1559.82 151.61 1574.41 166.15 1592.68 166.15C1611.14 166.15 1625.44 151.08 1625.44 133.43C1625.44 115.14 1610.61 100.48 1592.68 100.48C1574.52 100.48 1559.82 115.14 1559.82 133.43ZM1594.49 111.54C1606.82 111.54 1612.83 115.99 1612.83 123.86C1612.83 129.49 1609.14 133.64 1601.73 135.45C1609.55 137.67 1612.19 142.45 1612.19 151.83L1612.19 153.99L1603.86 153.99C1603.75 143.2 1600.78 138.52 1592.15 138.52L1584.58 138.52L1584.58 153.99L1576.86 153.99L1576.86 111.54L1594.49 111.54ZM1584.58 118.33L1584.58 131.75L1592.04 131.75C1600.25 131.75 1604.3 129.18 1604.3 124.18C1604.3 119.82 1600.35 118.33 1592.79 118.33L1584.58 118.33Z" />
		<path id="path4526" class="shp0" d="M868.62 466.33L864.17 468.44C852.9 451.89 841.37 444.09 823.01 444.09C819.12 444.09 812.58 444.25 809.39 447.17C805.92 450.26 805.78 454.97 805.78 459.69L805.78 484.68L815.09 484.68C829.13 484.68 831.77 480.78 833.43 464.7L838.16 464.7L838.16 513.27L833.43 513.27C833.02 508.21 832.33 503.36 829.84 499.12C826.22 492.63 820.92 492.32 814.81 492.32L805.78 492.32L805.78 524.63C805.78 527.87 806.06 533.22 807.87 535.99C810.77 540.54 817.59 540.86 822.04 540.86C843.46 540.86 856.09 530.64 868.62 511L873.07 513.27L860.42 547.85L779.36 547.85L779.36 542.97L780.74 542.81C784.5 542.34 788.54 542.18 790.49 537.62C792.15 533.9 791.87 526.74 791.87 522.52L791.87 462.59C791.87 451.89 792.84 443.27 781.45 442.3L779.36 442.14L779.36 437.27L859.02 437.27L868.62 466.33L868.62 466.33Z" />
		<path id="path4522" fill-rule="evenodd" class="shp0" d="M746.41 530.8C750.73 537.78 754.76 541.52 762.13 542.97L762.13 547.85L738.9 547.85L707.91 495.56L688.44 495.56L688.44 522.36C688.44 533.56 687.61 542 699.28 542.97L702.21 542.97L702.21 547.85L661.19 547.85L661.19 542.97L663 542.81C666.9 542.49 671.06 542.18 673.15 537.62C674.82 533.72 674.53 526.74 674.53 522.36L674.53 462.59C674.53 451.39 675.51 443.11 663.83 442.3L661.19 442.14L661.19 437.27L716.52 437.27C732.52 437.27 749.74 442.95 749.74 465.68C749.74 482.57 737.52 492.64 724.18 494.11L746.41 530.8L746.41 530.8ZM727.22 484.2C732.52 479.96 735.16 473 735.16 465.52C735.16 447.17 721.25 443.43 708.32 443.43C704.28 443.43 695.53 443.93 691.91 446.36C688.58 448.63 688.44 451.39 688.44 455.45L688.44 488.74L709.29 488.74C715.55 488.74 721.8 488.58 727.22 484.2Z" />
		<path id="path4530" class="shp0" d="M974.7 466.65L970.25 468.6C962.33 453.98 951.21 442.63 935.49 442.63C926.74 442.63 915.19 447.99 915.19 459.83C915.19 472.82 927.71 476.06 936.2 478.51L950.37 482.41C965.52 486.63 981.38 491.82 981.38 514.08C981.38 537.62 961.91 550.61 943.69 550.61C933.26 550.61 922.01 547.35 913.93 539.57L911.31 547.85L906.15 547.85L897.12 510.66L902.27 508.71C909.5 526.58 924.22 542.49 942.17 542.49C954.4 542.49 967.61 534.38 967.61 518.46C967.61 504.16 956.89 501.73 947.17 498.8L931.75 494.42C925.48 492.48 917.14 489.71 911.86 485.67C905.74 481.27 901.42 473.16 901.42 464.7C901.42 455.61 905.32 447.33 911.57 441.8C918.11 436.29 926.03 434.5 933.97 434.5C942.72 434.5 952.32 436.93 959.55 443.11L961.22 437.26L966.21 437.26L974.7 466.65L974.7 466.65Z" />
		<path id="path4534" class="shp0" d="M1093.85 466.33L1089.4 468.44C1078.13 451.89 1066.6 444.09 1048.24 444.09C1044.34 444.09 1037.81 444.25 1034.62 447.17C1031.13 450.26 1031 454.97 1031 459.69L1031 484.68L1040.3 484.68C1054.35 484.68 1056.99 480.78 1058.66 464.7L1063.39 464.7L1063.39 513.27L1058.66 513.27C1058.25 508.21 1057.54 503.36 1055.06 499.12C1051.43 492.63 1046.15 492.32 1040.04 492.32L1031 492.32L1031 524.63C1031 527.87 1031.27 533.22 1033.08 535.99C1036 540.54 1042.82 540.86 1047.27 540.86C1068.67 540.86 1081.32 530.64 1093.85 511L1098.28 513.27L1085.64 547.85L1004.57 547.85L1004.57 542.97L1005.97 542.81C1009.72 542.34 1013.75 542.18 1015.71 537.62C1017.38 533.9 1017.09 526.74 1017.09 522.52L1017.09 462.59C1017.09 451.89 1018.07 443.27 1006.66 442.3L1004.57 442.14L1004.57 437.27L1084.24 437.27L1093.85 466.33L1093.85 466.33Z" />
		<path id="path4542" fill-rule="evenodd" class="shp0" d="M1317.82 530.8C1322.13 537.78 1326.17 541.52 1333.52 542.97L1333.52 547.85L1310.31 547.85L1279.3 495.56L1259.85 495.56L1259.85 522.36C1259.85 533.56 1259 542 1270.68 542.97L1273.6 542.97L1273.6 547.85L1232.58 547.85L1232.58 542.97L1234.41 542.81C1238.29 542.49 1242.47 542.18 1244.54 537.62C1246.21 533.72 1245.92 526.74 1245.92 522.36L1245.92 462.59C1245.92 451.39 1246.92 443.11 1235.22 442.3L1232.58 442.14L1232.58 437.27L1287.91 437.27C1303.9 437.27 1321.15 442.95 1321.15 465.68C1321.15 482.57 1308.91 492.64 1295.57 494.11L1317.82 530.8L1317.82 530.8ZM1280.69 488.74C1286.94 488.74 1293.21 488.58 1298.62 484.2C1303.9 479.96 1306.55 473 1306.55 465.52C1306.55 447.17 1292.64 443.43 1279.71 443.43C1275.69 443.43 1266.94 443.93 1263.3 446.36C1259.97 448.63 1259.85 451.39 1259.85 455.45L1259.85 488.74L1280.69 488.74Z" />
		<path id="path4538" fill-rule="evenodd" class="shp0" d="M1198.4 522.51C1201.87 532.58 1203.96 542.33 1214.94 542.99L1214.94 547.86L1175.88 547.86L1175.88 542.99C1180.45 542.33 1186.72 541.2 1186.72 534.85C1186.72 532.1 1185.46 528.36 1184.63 525.92L1178.37 506.76L1142.64 506.76L1138.74 518.93C1137.62 522.35 1135.55 528.68 1135.55 532.44C1135.55 540.54 1141.12 542.17 1147.78 542.99L1147.78 547.86L1110.52 547.86L1110.52 542.99L1112.06 542.65C1118.72 540.86 1121.08 538.93 1124.57 531.77C1127.76 525.12 1131.23 514.24 1133.6 506.94L1156.81 437.26L1169.75 437.26L1198.4 522.52L1198.4 522.51ZM1175.88 499.46L1160.02 451.23L1144.59 499.46L1175.88 499.46Z" />
		<path id="path4550" class="shp0" d="M1472.98 462.59C1472.98 451.89 1473.95 443.27 1462.69 442.3L1460.61 442.14L1460.61 437.26L1499.8 437.26L1499.8 442.14L1498.28 442.14C1494.4 442.46 1490.36 442.94 1488.41 447.49C1486.73 451.39 1486.89 458.37 1486.89 462.75L1486.89 485L1536.8 485L1536.8 462.75C1536.8 451.89 1537.77 443.27 1526.38 442.3L1524.29 442.14L1524.29 437.26L1563.21 437.26L1563.21 442.14L1561.81 442.14C1558.06 442.64 1554.04 443.11 1552.23 447.49C1550.42 451.39 1550.71 458.37 1550.71 462.59L1550.71 522.52C1550.71 533.22 1549.73 541.84 1561.12 542.81L1563.21 542.97L1563.21 547.85L1524.29 547.85L1524.29 542.97L1525.67 542.97C1529.43 542.65 1533.32 542 1535.27 537.62C1536.94 533.72 1536.8 526.74 1536.8 522.52L1536.8 491.82L1486.89 491.82L1486.89 522.52C1486.89 533.38 1486.04 541.84 1497.45 542.81L1499.8 542.97L1499.8 547.85L1460.61 547.85L1460.61 542.97L1461.99 542.97C1465.75 542.49 1469.63 542 1471.6 537.62C1473.26 533.72 1472.98 526.74 1472.98 522.52L1472.98 462.59L1472.98 462.59Z" />
		<path id="path4546" class="shp0" d="M1438.35 477.87L1433.91 477.87L1433.36 476.57C1430.15 469.43 1425.97 459.84 1421.26 453.83C1415.15 446.21 1407.23 442.63 1398.17 442.63C1387.47 442.63 1379.11 448.3 1373.56 458.55C1368.14 468.77 1366.48 481.61 1366.48 493.62C1366.48 504.83 1368.43 517.98 1374.25 527.23C1380.38 536.98 1390.54 542.49 1400.95 542.49C1415.15 542.49 1428.35 532.26 1435.29 518.14L1441.26 522.04C1432.1 540.72 1417.08 550.63 1398.74 550.63C1369.95 550.63 1349.79 526.27 1349.79 492.81C1349.79 461.79 1369.12 434.51 1396.51 434.51C1406.64 434.51 1416.53 438.08 1424.18 446.21L1427.23 438.73L1431.69 438.73L1438.36 477.87L1438.35 477.87Z" />
	</g>
</svg>