<svg version="1.2" xmlns="http://www.w3.org/2000/svg" viewBox="0 0 1537 307" width="1537" height="307">
	<title>icons (1)-svg</title>
	<style>
		.s0 { fill: #f06323 } 
		.s1 { fill: #163b64 } 
		.s2 { fill: #fcb717 } 
	</style>
	<path id="Layer" fill-rule="evenodd" class="s0" d="m259.2 291.2c0 7.6-5.7 15.2-16.4 15.2-5.7 0-13.6-2.2-13.6-6.3 0-2.2 1.3-3.7 3.2-3.7 0.9 0 1.8 0.5 3 1.2 1.7 1 4 2.3 7.5 2.3 5 0 8.5-3.4 8.5-8.4 0-4.4-4.1-5.8-9-7.5-6-2-12.8-4.3-12.8-12.9 0-6.1 5.8-12.5 14.4-12.5 5.9 0 12.1 2.4 12.1 6.1 0 1.9-1.4 3.3-3.2 3.3-1.3 0-2.2-0.6-3.1-1.2-1.3-0.8-2.8-1.7-6-1.7-3.8 0-6.4 2.3-6.4 5.6 0 3.9 4 5.3 8.6 6.9 5.9 2 13.2 4.6 13.2 13.6zm16.2-25.4v13.3h11.6c2.3 0 3.6 1.3 3.6 3.4 0 2.1-1.3 3.4-3.6 3.4h-11.6v13.3h12.9c2.2 0 3.6 1.3 3.6 3.4 0 2.1-1.4 3.4-3.6 3.4h-16.3c-2.4 0-3.9-1.4-3.9-3.8v-39.4c0-2.4 1.5-3.8 3.9-3.8h16.3c2.2 0 3.6 1.3 3.6 3.4 0 2.1-1.4 3.4-3.6 3.4 0 0-12.9 0-12.9 0zm34.2 0v13.3h11.6c2.2 0 3.6 1.3 3.6 3.4 0 2.1-1.4 3.4-3.6 3.4h-11.6v13.3h12.8c2.2 0 3.6 1.3 3.6 3.4 0 2.1-1.4 3.4-3.6 3.4h-16.3c-2.4 0-3.9-1.4-3.9-3.8v-39.4c0-2.4 1.5-3.8 3.9-3.8h16.3c2.2 0 3.6 1.3 3.6 3.4 0 2.1-1.4 3.4-3.6 3.4zm34.1-3.4v40.2c0 2.3-1.4 3.8-3.6 3.8-2.2 0-3.7-1.5-3.7-3.8v-40.2c0-2.3 1.5-3.8 3.7-3.8 2.2 0 3.6 1.5 3.6 3.8zm48.6 0v39.9c0 2.7-1.2 4.1-3.4 4.1-2.1 0-3.1-0.9-4.7-3.3l-21.8-31v30.5c0 2.3-1.5 3.8-3.7 3.8-2.2 0-3.7-1.5-3.7-3.8v-39.9c0-2.7 1.2-4.1 3.4-4.1 2.1 0 3.1 1 4.7 3.3l21.9 31v-30.5c0-2.3 1.4-3.8 3.6-3.8 2.2 0 3.7 1.5 3.7 3.8zm51 21.4c0 14.8-7.1 22.6-20.5 22.6-14.4 0-20.9-12.4-20.9-23.9 0-11.9 6.7-23.9 21.8-23.9 9.4 0 16.5 4.9 16.5 8.1q0 0.7-0.2 1.3-0.3 0.7-0.8 1.2-0.5 0.5-1.1 0.7-0.7 0.3-1.4 0.3c-1.3 0-2.4-0.8-3.8-1.7-2.1-1.5-4.7-3.4-9.6-3.4-9.5 0-13.7 8.7-13.7 17.4 0 8 3.7 17.4 13.9 17.4 9.1 0 12.4-7.8 12.4-12.8v-1.9h-7.1c-2.3 0-3.6-1.3-3.6-3.4 0-2.1 1.3-3.4 3.6-3.4h9.5c3.5 0 5 1.6 5 5.4zm61.3-9.7c0 8.4-6.9 15-15.6 15h-7.9v13.5c0 2.3-1.5 3.8-3.7 3.8-2.2 0-3.7-1.5-3.7-3.8v-39.8c0-2.4 1.5-3.8 3.9-3.8h11.2c9.3 0 15.8 6.2 15.8 15.1zm-16.2-8.6h-7.3v17.1h7.5c5 0 8.6-3.6 8.6-8.5 0-4.2-2.3-8.6-8.8-8.6zm43.8 40.9c-11.5 0-20.9-10.7-20.9-23.9 0-13.2 9.4-23.9 20.9-23.9 11.6 0 21 10.7 21 23.9 0 13.2-9.4 23.9-21 23.9zm13.3-23.9c0-9.6-5.9-17.4-13.2-17.4-7.4 0-13.3 7.8-13.3 17.4 0 9.6 5.9 17.4 13.3 17.4 7.3 0 13.2-7.8 13.2-17.4zm44.9 8.7c0 7.6-5.7 15.2-16.4 15.2-5.7 0-13.6-2.2-13.6-6.3 0-2.2 1.3-3.7 3.2-3.7 0.9 0 1.8 0.5 3 1.2 1.7 1 4 2.3 7.5 2.3 5 0 8.5-3.4 8.5-8.4 0-4.4-4.1-5.8-9-7.5-6-2-12.8-4.3-12.8-12.9 0-6.1 5.8-12.5 14.4-12.5 5.9 0 12.1 2.4 12.1 6.1q0 0.7-0.2 1.3-0.2 0.6-0.7 1-0.5 0.5-1.1 0.8-0.6 0.2-1.2 0.2c-1.3 0-2.2-0.6-3.1-1.2-1.3-0.8-2.8-1.7-6-1.7-3.8 0-6.4 2.3-6.4 5.6 0 3.9 4 5.3 8.6 6.9 5.9 2 13.2 4.6 13.2 13.6zm36.5 0c0 7.6-5.6 15.2-16.4 15.2-5.7 0-13.6-2.2-13.6-6.3 0-2.2 1.3-3.7 3.2-3.7 1 0 1.9 0.5 3 1.2 1.7 1 4 2.3 7.5 2.3 5 0 8.6-3.4 8.6-8.4 0-4.4-4.2-5.8-9.1-7.5-6-2-12.7-4.3-12.7-12.9 0-6.1 5.7-12.5 14.3-12.5 5.9 0 12.1 2.4 12.1 6.1 0 1.9-1.4 3.3-3.2 3.3-1.3 0-2.2-0.6-3.1-1.2-1.3-0.8-2.8-1.7-6-1.7-3.8 0-6.4 2.3-6.4 5.6 0 3.9 4 5.3 8.6 6.9 5.9 2 13.2 4.6 13.2 13.6zm16.6-28.8v40.2c0 2.3-1.4 3.8-3.6 3.8-2.2 0-3.7-1.5-3.7-3.8v-40.2c0-2.3 1.5-3.8 3.7-3.8 2.2 0 3.6 1.5 3.6 3.8zm42 29.5c0 8.3-6.6 14.1-15.9 14.1h-10.9c-2.4 0-3.9-1.4-3.9-3.8v-39.4c0-2.4 1.5-3.8 3.9-3.8h10c8.6 0 13.2 6 13.2 11.6 0 4.3-1.8 7.9-4.8 9.8 4.9 1.5 8.4 6.1 8.4 11.5zm-15.9-7.5h-7.4v15.2h7.2c5.1 0 8.7-3.2 8.7-7.7 0-4.5-3.4-7.5-8.5-7.5zm-1.8-6.2c4.1 0 6.8-2.6 6.8-6.5 0-4-2.4-6.2-6.6-6.2h-5.8v12.7zm34.5-15.8v40.2c0 2.3-1.5 3.8-3.7 3.8-2.2 0-3.7-1.5-3.7-3.8v-40.2c0-2.3 1.5-3.8 3.7-3.8 2.2 0 3.7 1.5 3.7 3.8zm33.5 40.2c0 2.1-1.3 3.4-3.6 3.4h-14.7c-2.4 0-3.9-1.4-3.9-3.8v-39.8c0-2.3 1.5-3.8 3.7-3.8 2.2 0 3.6 1.5 3.6 3.8v36.8h11.3c2.3 0 3.6 1.3 3.6 3.4zm15.7-40.2v40.2c0 2.3-1.5 3.8-3.7 3.8-2.1 0-3.6-1.5-3.6-3.8v-40.2c0-2.3 1.5-3.8 3.6-3.8 2.2 0 3.7 1.5 3.7 3.8zm39 0c0 2.1-1.3 3.4-3.6 3.4h-7.7v36.8c0 2.3-1.5 3.8-3.7 3.8-2.2 0-3.7-1.5-3.7-3.8v-36.8h-7.7c-2.2 0-3.6-1.3-3.6-3.4 0-2.1 1.4-3.4 3.6-3.4h22.8c2.3 0 3.6 1.3 3.6 3.4zm16.4 0v40.2c0 2.3-1.5 3.8-3.7 3.8-2.2 0-3.7-1.5-3.7-3.8v-40.2c0-2.3 1.5-3.8 3.7-3.8 2.2 0 3.7 1.5 3.7 3.8zm18.3 3.4v13.3h11.6c2.2 0 3.6 1.3 3.6 3.4 0 2.1-1.4 3.4-3.6 3.4h-11.6v13.3h12.8c2.3 0 3.6 1.3 3.6 3.4 0 2.1-1.3 3.4-3.6 3.4h-16.3c-2.4 0-3.8-1.4-3.8-3.8v-39.4c0-2.4 1.4-3.8 3.8-3.8h16.3c2.3 0 3.6 1.3 3.6 3.4 0 2.1-1.3 3.4-3.6 3.4zm54.4 25.4c0 7.6-5.6 15.2-16.4 15.2-5.7 0-13.6-2.2-13.6-6.3 0-2.2 1.3-3.7 3.3-3.7 0.9 0 1.8 0.5 2.9 1.2 1.7 1 4 2.3 7.5 2.3 5.1 0 8.6-3.4 8.6-8.4 0-4.4-4.2-5.8-9-7.5-6-2-12.8-4.3-12.8-12.9 0-6.1 5.8-12.5 14.4-12.5 5.8 0 12.1 2.4 12.1 6.1q0 0.7-0.3 1.3-0.2 0.6-0.7 1-0.4 0.5-1 0.8-0.6 0.2-1.3 0.2c-1.3 0-2.1-0.6-3.1-1.2-1.3-0.8-2.8-1.7-5.9-1.7-3.8 0-6.5 2.3-6.5 5.6 0 3.9 4 5.3 8.6 6.9 5.9 2 13.2 4.6 13.2 13.6zm37.9-28.8v40.2c0 2.3-1.5 3.8-3.7 3.8-2.2 0-3.6-1.5-3.6-3.8v-40.2c0-2.3 1.4-3.8 3.6-3.8 2.2 0 3.7 1.5 3.7 3.8zm48.6 0v39.9c0 2.7-1.2 4.1-3.4 4.1-2.1 0-3.1-0.9-4.7-3.3l-21.9-31v30.5c0 2.3-1.4 3.8-3.6 3.8-2.2 0-3.7-1.5-3.7-3.8v-39.9q0-4.1 3.4-4.1c2.1 0 3.1 1 4.7 3.3l21.8 31v-30.5c0-2.3 1.5-3.8 3.7-3.8 2.2 0 3.7 1.5 3.7 3.8zm63.7 11.7c0 8.4-6.8 15-15.5 15h-8v13.5c0 2.3-1.4 3.8-3.6 3.8-2.2 0-3.7-1.5-3.7-3.8v-39.8c0-2.4 1.5-3.8 3.9-3.8h11.2c9.2 0 15.7 6.2 15.7 15.1zm-16.2-8.6h-7.3v17.1h7.6c5 0 8.6-3.6 8.6-8.5 0-4.2-2.4-8.6-8.9-8.6zm43.6 40.9c-11.6 0-21-10.7-21-23.9 0-13.2 9.4-23.9 21-23.9 11.6 0 20.9 10.7 20.9 23.9 0 13.2-9.3 23.9-20.9 23.9zm13.2-23.9c0-9.6-5.9-17.4-13.2-17.4-7.3 0-13.3 7.8-13.3 17.4 0 9.6 6 17.4 13.3 17.4 7.3 0 13.2-7.8 13.2-17.4zm42.3-20.1c0 2.1-1.4 3.4-3.6 3.4h-7.8v36.8c0 2.3-1.5 3.8-3.7 3.8-2.2 0-3.6-1.5-3.6-3.8v-36.8h-7.8c-2.2 0-3.6-1.3-3.6-3.4 0-2.1 1.4-3.4 3.6-3.4h22.9c2.2 0 3.6 1.3 3.6 3.4zm42.1 38.1c0.4 1 0.7 2 0.7 2.8 0 1.8-1.5 3.1-3.5 3.1q-2.6 0-3.6-2.6l-2.8-7.6h-20.1l-2.7 7.6q-1 2.6-3.6 2.6c-2.1 0-3.5-1.3-3.5-3.1 0-0.8 0.3-1.8 0.7-2.8l0.1-0.3 14.2-37.6c1-2.7 2.6-4 4.9-4 2.2 0 3.9 1.3 4.8 4zm-19.2-32.4l-7.7 21.5h15.4c0 0-7.7-21.5-7.7-21.5zm52.9-5.8c0 2.2-1.3 3.5-3.6 3.5h-7.7v36.7c0 2.3-1.5 3.9-3.7 3.9-2.2 0-3.6-1.6-3.6-3.9v-36.7h-7.8c-2.2 0-3.6-1.3-3.6-3.5 0-2.1 1.4-3.4 3.6-3.4h22.8c2.3 0 3.6 1.3 3.6 3.4zm25 44.1c-11.6 0-20.9-10.7-20.9-24 0-13.2 9.3-23.9 20.9-23.9 11.6 0 21 10.7 21 23.9 0 13.3-9.4 24-21 24zm13.2-24c0-9.6-5.9-17.4-13.2-17.4-7.3 0-13.2 7.8-13.2 17.4 0 9.7 5.9 17.5 13.2 17.5 7.3 0 13.2-7.8 13.2-17.5zm24.4-16.6v13.2h11.6c2.2 0 3.6 1.3 3.6 3.4 0 2.2-1.4 3.5-3.6 3.5h-11.6v13.2h12.8c2.2 0 3.6 1.3 3.6 3.4 0 2.2-1.4 3.5-3.6 3.5h-16.3c-2.4 0-3.9-1.5-3.9-3.9v-39.3c0-2.4 1.5-3.9 3.9-3.9h16.3c2.2 0 3.6 1.3 3.6 3.4 0 2.2-1.4 3.5-3.6 3.5zm55.4 25.3c0 7.6-5.6 15.3-16.4 15.3-5.7 0-13.6-2.2-13.6-6.4 0-2.2 1.3-3.7 3.3-3.7 0.9 0 1.8 0.5 2.9 1.2 1.7 1 4.1 2.3 7.5 2.3 5 0 8.6-3.5 8.6-8.4 0-4.4-4.2-5.8-9-7.5-6-2.1-12.8-4.4-12.8-13 0-6.1 5.8-12.6 14.4-12.6 5.8 0 12.1 2.5 12.1 6.2q0 0.6-0.3 1.2-0.2 0.6-0.7 1.1-0.4 0.5-1.1 0.7-0.6 0.3-1.2 0.3c-1.3 0-2.2-0.6-3.1-1.2-1.3-0.8-2.8-1.8-5.9-1.8-3.8 0-6.5 2.4-6.5 5.7 0 3.9 4 5.3 8.6 6.9 5.9 2.1 13.2 4.6 13.2 13.7z"/>
	<path id="Layer" fill-rule="evenodd" class="s1" d="m1153 173.2c0 12.1-18.2 34-37.2 34-28.9 0-13.7-62-21.3-62-4.6 0-30.4 42.4-38.8 50.7-6.8 6.8-19 11.3-24.3 11.3-13.7 0-0.8-31 7.6-76.4-6.8 3.6-16.6 7.4-24.6 10-2.1 30.1-22.1 66.4-53 66.4-17.8 0-29.7-13.3-33.5-31.6-11.3 17-28.3 31.6-44 31.6-19 0-20.5-17.4-16-46.9-19.7 29.5-47.9 46.9-67.6 46.9q-0.9 0-1.6 0c-12.1 0-21.3-9-21.3-17.4 0-7.5 43.4 1.6 29.7-56.7-11.4 18.1-39.5 74.1-87.4 74.1-23.6 0-36.5-15.1-36.5-38.5 0-35.6 25.8-79.5 59.3-79.5 18.2 0 25.8 12.1 25.8 25.7 0 27.4-27.6 52.8-50.6 55.1 0.7 7.4 3 12.3 8.8 12.3 23.6 0 60.8-51.5 70.7-76.4 3.1-7.6 22.1-18.2 29.7-18.2 10.6 0 14.4 53 15.2 71.1q0 1.1-0.1 2.1c18-17.8 33.2-40.2 37.3-53.5q1.1-3.9 2.2-7.8 1.1-3.9 2.2-7.8 1.1-3.9 2.3-7.8 1.1-3.9 2.3-7.7c-5.4-0.4-10-0.7-13.5-0.7-14.5 0-19 4.5-19-1.5 0-9.1 8.3-18.2 25-18.2h13.5c0.9-3 1.8-5.8 2.5-8.3 3.8-12.1 21.3-21.2 31.9-21.2 3.8 0 5.4 2.3 3.8 6.8-1.2 4.6-3.6 12.7-6.5 22.7h5.8c28.9 0 38-12.8 38-3.8 0 10.6-6.1 28-28.9 28-5.7 0-13.4-0.5-21.8-1.2-11.9 40.6-25.8 91.3-17.7 91.3 6 0 19.8-17.7 31.3-38 9.5-23.8 28.5-43.7 44.7-43.7 6.8 0 10.6 4.5 10.6 12.1 9.1 0 19.4 3.3 24.1 16.9 10.6-6.1 24.1-14.7 30.7-18.4 6.8-3.8 18.2-6.9 24.3-6.9 12.9 0 6.8 22-2.3 56 8.4-9.8 17.7-24 25.1-31 7.2-6.7 22.1-9.8 28.1-9.8 17.5 0 3.8 68.8 17.5 68.8 6.1 0 17.5-12.8 17.5-3zm-434.6-22c20.8-1.2 36.8-37 23.3-37-5.8 0-19.5 15.5-23.3 37zm273.4-7.5c-12.1 0-19-11.4-15.2-25-14.4 10.6-28.1 60.6-6.8 60.6 11.4-0.1 22-24.3 22-35.6zm-480.4-26.5c0 58.3-41.1 90-68.4 90-13.7 0-26.7-8.5-29.3-38.3-11.6 22.4-33.6 38.3-47.5 38.3-14.5 0-20.6-10.6-13.7-52.9-9.1 14.3-20.5 31-34.2 44.6-6.1 6.1-19 8.3-24.3 8.3-9.9 0-6.1-16.6 3.8-62.8-9.2 16.7-27.4 42.4-41.1 56-4.6 4.6-14.4 6.8-20.5 6.8-9.9 0-6.9-9.8-0.8-49.1-16.7 26.4-33.4 49.1-54 49.1-12.9 0-22-9.1-16.7-34-6.1 13.6-22.8 34-39.5 34-16 0-26.6-11.3-26.6-31.7 0-39.4 26.6-88.6 66.9-88.6 14.4 0 25.8 8.4 25.8 23.5 0 4.5-6.8-1.5-17.5-1.5-26.6 0-50.9 64.3-35.7 64.3 14.5 0 28.9-34.1 38-53.7 3.8-7.6 22.8 5.3 22.8 12.8 0 14.4-12.1 38.6-4.5 38.6 7.6 0 29.6-33.3 44.1-60.5 3.8-7.6 18.2-15.9 25.8-15.9 8.4 0 6.1 21.9 2.3 58.3 9.9-12.1 26.6-43.9 38.7-51.5 6.1-3.8 15.3-9.1 21.3-9.1 10.7 0 6.9 35.6 3.1 60.6 11.4-19 21.3-34.1 26.6-38.6 3.8-3.1 13.7-11.4 20.5-11.4 16.7 0 0 65.9 7.6 65.9 8.4 0 28.9-32.6 33.5-53q0 0.1 0.1 0.1c6.2-32.8 17.2-66.7 23.4-83.3 5.3-11.4 21.3-18.2 30.4-18.2 7.6 0 9.2 3.8 5.4 12.9-13 31-47.2 147.5-24.4 147.5 19.8 0 28.9-65.1 10.7-65.1-9.9 0 4.6-17.4 24.3-17.4 18.2 0 23.6 12.9 23.6 25zm-418.9 65.8c0 12.9-58.6 24.2-73 24.2-19.8 0-20.5-14.3-17.5-37 6.9-45.4 16-93.8 32.7-152.1 2.3-7.6 22.8-16.6 30.4-16.6 7.6 0 9.9 2.2 8.4 9.8-5.3 28-22.8 85.5-33.5 133.1-3 12.1-5.3 24.2 4.6 24.2 9.9 0 26.6-0.7 35-0.7 6 0 12.9 7.6 12.9 15.1zm620.3-164.1c0 58.2-63.1 188.3-95 188.3-11.4 0-21.3-6.8-21.3-52.2-6.8 22.7-26.6 52.2-43.3 52.2-22.1 0-29.7-56.7-29.7-123.3 0-28.7 3.1-53.7 6.1-65.8 2.3-9.8 19-17.4 32.7-17.4 6.1 0 7.6 2.3 6.9 7.6-6.1 31-9.9 62.8-9.9 90 0 31-0.8 60.5 7.6 60.5 8.3 0 29.6-62 33.4-74.9 3.8-21.2 4.6-28 9.1-42.3 2.3-7.6 17.5-17.4 29.7-17.4 4.6 0 7.6 1.5 7.6 6 0 9.1-17.5 61.3-17.5 108.2 0 16.6 1.5 19.7 5.3 19.7 9.2 0 39.6-87 44.9-121.1 1.5-11.3 19-24.2 28.1-24.2 3.8 0 5.3 2.3 5.3 6.1zm436.4 114c-8.9 0-16.2-7.2-16.2-16.1 0-8.9 7.3-16.1 16.2-16.1 8.9 0 16.2 7.2 16.2 16.1 0 8.9-7.3 16.1-16.2 16.1zm13.6-16.1c0-7.4-6.1-13.5-13.6-13.5-7.5 0-13.6 6.1-13.6 13.5 0 7.5 6.1 13.5 13.6 13.5 7.5 0 13.6-6 13.6-13.5zm-10 1.4l3.6 7.1h-3.5l-3.4-6.8h-3.4v6.8h-3v-17.6h7.7c3.1 0 5.8 1.7 5.8 5.3 0 2.8-1.5 4.5-3.8 5.2zm-2.1-7.6h-4.6v5h4.6c1.6 0 2.8-0.7 2.8-2.5 0-1.6-1.2-2.5-2.8-2.5z"/>
	<path id="Layer" fill-rule="evenodd" class="s2" d="m1536.5 205.3c-4.5 0-9.9 0.4-14.6 0-2-0.1-4.3 0.1-6.2-0.1-2.5-0.3-5.1 0.4-7.5 0.1-2.6-0.3-6.9 0-9.3-0.2-1.5 0-3.2 0.2-4.7 0.1q-0.1 0-0.3 0-0.1 0-0.3 0-0.1 0-0.3 0-0.1 0-0.3 0c-5.6-0.4-11.1 0.4-17.2 0-0.2 0-0.3 0.1-0.6 0-1.8-0.2-3.9 0.2-5.9 0.2-3.7-0.1-7.5 0-11.5 0.2-1.9 0-3.9 0.2-5.8 0.1-4.7-0.3-9.3 0.1-14.3-0.2-4.9-0.2-10.2-0.2-15.2-0.2-0.3-0.8-0.5-1.5-0.6-2.9-0.1-2.7-0.5-6.9-0.3-7.9-0.1-0.6 0-1.5-0.1-2.4 0-1.5-0.2-3.1 0-4.7 0-0.5 0.3-1.1 0.3-1.7 0.7-3.9 0.9-7.9 1.5-11.8q0.2-1.4 0.5-2.8 0.2-1.4 0.6-2.8 0.4-1.4 0.8-2.7 0.4-1.4 0.9-2.7c1.7-4.6 3.4-9.1 5.8-13 1.8-2.6 3.4-5.1 5.4-7.5 0.6-0.7 1.4-1.4 1.9-2.3 0.3-0.3 1.6-1.5 1.8-1.9 1.1-0.9 3.1-3 3.3-3.2 1.4-1 2.4-1.8 3.6-2.7q1.8-1.4 3.6-2.7c1.8-0.8 3.3-1.6 5-2.4 1.6-0.7 3.2-1.5 5-2.2 0.5-0.3 1.6-0.8 1.6-0.8 0 0 2.3-1 3.4-1.5 3.1-0.7 6.4-1.2 9.6-1.8 7-0.7 14.9 0 20.9 1.7 1.6 0.5 2.8 0.6 4 1.2 0.2 0.1 0.3 0.2 0.4 0.3 0.6 0.3 1.3 0.6 2 1 0.2 0.1 0.4 0.3 0.6 0.4 0.5 0.2 0.8 0.4 1.3 0.6 0.6 0.3 1 0.5 1.6 0.8 0.4 0.2 1.5 0.8 1.7 1 0.2 0.1 0.4 0.3 0.7 0.4 1.2 0.8 2.6 1.8 3.8 2.6 0.8 0.6 1.4 1.4 2.2 1.9 0.7 0.6 0.9 0.8 2 1.7 0.3 0.6 0.4 0.8 0.7 1.2l0.3 0.3c0.1 0.1 0.7 1 0.9 1.3 0.5 0.6 0.9 0.9 1.4 1.6q0.6 0.8 1.2 1.7 0.5 0.9 1.1 1.9 0.6 0.9 1.1 1.8 0.6 0.9 1.1 1.9 0.1 0.2 0.2 0.3 0.1 0.2 0.3 0.4 0.1 0.1 0.2 0.3 0.1 0.2 0.2 0.4c0.2 0.3 0.5 1.4 0.7 1.7 1.7 3.8 3.4 7.4 4.5 11.9q0.1 0.4 0.1 0.9 0.1 0.4 0.3 0.8 0.1 0.5 0.2 0.9 0.1 0.5 0.3 0.9 0.3 1.4 0.6 2.8 0.3 1.4 0.6 2.7 0.2 1.4 0.5 2.8 0.3 1.4 0.6 2.8c0.1 0.9 0.1 1.9 0.3 2.7 0.5 3.6 0.7 7.3 1.1 10.9 0.1 1.2 0.2 2.9 0.3 3.6 0 4.3 1.2 8.5 0.4 12.3z"/>
	<path id="Layer" fill-rule="evenodd" class="s0" d="m1413.8 206.2c-1.7 0.1-3.8-0.2-5.3 0.1-1.2 0-2.5 0.1-3.9 0.1-8 0.2-16.7 0.1-24.5-0.1-1.6 0-3.4 0.2-4.7-0.1-0.5 0.1-1.1 0-1.6 0-1.9 0-4.4 0.1-6.1-0.2-1.9-0.3-3.9 0-5.8-0.1-5.9-0.4-10.7-0.3-16.7-0.5-0.1 0-0.3-0.1-0.4-0.1-0.3 0-0.5 0.1-0.9 0-1-0.1-2.3 0-3.4 0-3.2 0-6.7 0.1-10-0.1-3.3-0.2-6.5-0.1-9.5-0.4-2.1-0.1-4.5 0-6.7 0-1.8 0-3.8 0-5.7-0.2h-0.7c-3.6-0.3-6.6 0.1-10-0.3 0-4-0.3-7.5-0.5-11.4 0-1-0.2-2-0.2-2.9 0-0.7 0.2-1.4 0.2-2.1 0-2.1 0.2-3.8 0.5-5.8q0.4-2.3 0.8-4.6c0.1-0.7 0.4-1.4 0.6-2.2 0.1-0.4 0-0.8 0.1-1.2 0.1-0.3 0.3-0.6 0.4-0.9 0.1-0.4 0-0.8 0.1-1.1 0.1-0.3 0.3-0.6 0.4-0.9 0.1-0.6 0.1-1.2 0.3-1.8 0.4-1.4 1-3 1.4-4.6q0.4-1.7 0.7-3.3c0.8-3 2.3-5.9 3.4-8.7 0.5-0.9 0.7-1.8 1.3-2.7 1.9-3.1 4-6.2 6-9.2 0.1-0.1 0.3-0.6 0.4-0.6 0-0.1 0.7-0.9 0.9-1.2q1-1.3 1.9-2.6 1-1.3 2.1-2.5 1-1.3 2.1-2.5 1-1.2 2.1-2.4c1.9-1.5 3.9-2.5 5.9-3.7 1.9-1.2 3.8-2.5 5.8-3.7 2.6-1 5.5-1.7 8.3-2.5 3-0.6 6.1-0.9 9.3-1.2q0.5 0 0.9 0 0.4 0 0.8 0 0.5 0 0.9 0.1 0.4 0 0.8 0.1c1.1 0.1 2.5 0 3.4 0.2 0.9 0.1 1.8 0 2.7 0.1q0.4 0 0.8 0.1 0.4 0.1 0.8 0.2 0.4 0 0.7 0.2 0.4 0.1 0.8 0.2c1.3 0.4 3 0.9 4.4 1.3 0.6 0.2 1.1 0.5 1.6 0.7 0.6 0.2 1.3 0.3 1.8 0.5 0.3 0.1 0.8 0.4 1.1 0.5 3.2 1.1 5 2.1 7.3 3.2 1.3 0.8 2.6 1.5 3.7 2.4q0.9 0.6 1.8 1.2 0.9 0.6 1.8 1.3 0.8 0.6 1.6 1.4 0.9 0.7 1.7 1.4c1.1 0.9 1.9 2.1 3.1 3 0.8 1.2 1.9 2.1 2.5 3.5 0.9 1 1.5 2.4 2.5 3.4 0.1 0.3 0.4 0.8 0.5 1 1.5 2.1 2.5 3.9 3.9 6 1 2.6 1.8 5.4 2.9 7.8q0.2 0.7 0.3 1.4 0.2 0.8 0.4 1.5 0.3 0.7 0.5 1.3 0.2 0.7 0.5 1.4c0.2 1.9 0.8 3.5 1.3 5.3 0.8 2.8 1.2 5.8 2.1 8.6 0.5 4 1 7.6 1.3 11.7 0 1.6-0.1 3.6 0.2 4.6-0.1 2 0.1 4.4 0.2 5.7 0.1 2-0.1 4.5 0 6.9z"/>
	<path id="Layer" fill-rule="evenodd" class="s1" d="m1287.1 205c-4.3-0.2-8.3 0.3-12.7 0-2.3-0.2-4.4 0.1-6.6-0.1-1.3-0.1-2.7-0.2-3.8-0.1-0.3 0-1.4-0.1-2.3-0.1-1.6 0-3.1 0-4.9 0q-0.2 0-0.4 0c-4.7-0.2-9.5-0.2-14.6-0.2-1.6 0-3.2 0.1-4.6 0-2.1-0.3-4.3 0.1-6.4 0-4.6-0.2-9.3 0.1-14-0.1-3.6-0.1-7.3 0.2-11 0.2-12.8 0.3-25.9 0.5-38.1 0.8-0.3-2.6 0.3-5.1 0.5-7.6 0.3-2.7 0.4-5.3 0.7-8q0.1-1.3 0.2-2.6 0.1-1.3 0.3-2.6 0.1-1.2 0.3-2.5 0.2-1.3 0.4-2.6c0.6-3.2 1-6.3 2-9.1 0.7-3.5 2-6.6 3.4-9.5 0.3-0.7 1.2-3.1 2.7-5.8 1.3-2.4 2.8-4.8 4.3-7 0.5-0.6 1.1-1.1 1.5-1.6 0.5-0.9 1.3-1.9 2-2.8q0.4-0.6 0.9-1.2 0.4-0.6 0.9-1.1 0.5-0.6 0.9-1.2 0.5-0.5 1-1.1c0.3-0.3 0.9-0.7 1.2-1.1 0.4-0.3 1.8-2.1 2.3-2.6 1.7-1.5 1.6-1.6 6-4.8 4.3-3.2 7-4 10.8-5.7 3-0.8 5.9-1.6 9.2-2.3 4.4-0.3 8.4 0.1 12.2 0.4 0.6 0 1.1 0 1.6 0 2.3 0.3 4.7 1 7 1.5 1.7 0.4 3.7 0.8 5.4 1.3q0.7 0.2 1.3 0.4 0.7 0.3 1.3 0.5 0.7 0.3 1.3 0.5 0.7 0.3 1.3 0.6c1.4 0.7 2.6 1.2 3.8 1.9q0.9 0.4 1.8 0.9 0.9 0.6 1.7 1.1 0.8 0.6 1.7 1.2 0.8 0.6 1.6 1.2c1 0.8 3.6 3 4.6 4 1.2 1.9 2.9 3.4 4.2 5.2 1.3 1.8 2.3 3.8 3.7 5.6 0.5 1.2 1.1 2.2 1.8 3.2q0.1 0.4 0.3 0.8 0.2 0.3 0.4 0.7 0.2 0.4 0.4 0.7 0.2 0.4 0.4 0.7c1.1 2.2 2.1 4.4 3.2 6.5 0.7 2.2 1.5 4.3 2.3 6.4 0.5 2.1 1.2 3.8 1.5 6 0.8 2.6 1.3 5.4 1.9 8.2 0.3 2.5 0.6 5.9 0.8 7.9q0.1 0.5 0.1 0.9 0 0.5 0.1 0.9 0 0.5 0.1 0.9 0 0.5 0 0.9c0.2 4.1 0.3 7.6 0.1 11.4z"/>
</svg>