<svg version="1.2" xmlns="http://www.w3.org/2000/svg" viewBox="0 0 1594 387" width="1594" height="387">
	<title>logo (48)-svg</title>
	<style>
		.s0 { fill: #12034e } 
		.s1 { fill: #d3d2d2 } 
		.s2 { fill: #8d248a } 
	</style>
	<g id="Layer">
		<path id="Layer" fill-rule="evenodd" class="s0" d="m516.3 93.7l62-14.2v302.3h-62zm289 253.2c-19.8 25.2-52.6 39.7-84.8 39.7-62 0-111.6-41.3-111.6-105.5 0-64.2 49.6-105.5 111.6-105.5 58 0 94.5 41.3 94.5 105.5v19.3h-144.1c5.1 23.7 22.8 39 46.7 39 20.4 0 33.8-10.2 44.2-24.5zm-52.6-88.6c0.6-20.6-15.8-38.1-38.1-38.1-27.3 0-42.1 18.5-43.7 38.1zm349.1 123.3v-26.6h-0.8c-9.6 14.5-33.5 31.4-61.7 31.4-59.6 0-98.8-43-98.8-103.9 0-55.8 34.7-107.1 91.8-107.1 25.5 0 49.7 6.9 63.6 26.5h0.8v-108.2l62-14.2v302.1zm-49.6-151.5c-31.2 0-49.7 20.7-49.7 51.1 0 30.3 18.5 51 49.7 51 31.1 0 49.6-20.7 49.6-51 0-30.4-18.5-51.1-49.6-51.1zm244.4-54.5c62 0 111.7 41.4 111.7 105.6 0 64.1-49.7 105.5-111.7 105.5-62 0-111.6-41.4-111.6-105.5 0-64.2 49.6-105.6 111.6-105.6zm0 156.3c30.9 0 49.7-20.7 49.7-51 0-30.4-18.8-51-49.7-51-31.1 0-49.6 20.6-49.6 51 0 30.3 18.5 51 49.6 51zm251.5-92.1c-9.1-11.3-21.2-16.9-36-16.9-10.4 0-22.8 4.6-22.8 16.6 0 29.8 104.7 4.6 104.7 81.1 0 51.3-49.7 66.3-92.6 66.3-28.2 0-59-6.9-78.9-27.3l37.6-41.9c11.5 13.9 25.2 22 43.7 22 14 0 28.2-3.8 28.2-14.5 0-32.2-104.7-5.1-104.7-81.6 0-47.3 42.2-68 84.3-68 26.6 0 55.8 6.7 74.6 26.6zm-699.9-59.3h62v201.1h-62zm0.3-86.5h62v51.6h-62z"/>
		<path id="Layer" fill-rule="evenodd" class="s1" d="m211.5 229l-67.7-50.2 319.1-94.8zm-129.9-154.6l-16.6 46.2-65-48.4z"/>
		<path id="Layer" class="s0" d="m462.6 84l-381-9.6 26.8-74.4zm-397.7 36.5l78.9 58.3-111.9 33.3z"/>
		<path id="Layer" class="s2" d="m462.9 84l-319.1 94.8-78.9-58.2 16.9-46.2z"/>
	</g>
</svg>