<svg version="1.2" xmlns="http://www.w3.org/2000/svg" viewBox="0 0 1602 148" width="1602" height="148">
	<title>lennar-svg</title>
	<style>
		.s0 { fill: #235ca3 } 
	</style>
	<path id="Layer" fill-rule="evenodd" class="s0" d="m64.8 118.7h115.9v28.4h-180.7v-147.1h64.8zm157.5-118.7h180.7v28.3h-115.9v30.8h115.9v28.4h-115.9v31.2h115.9v28.4h-180.7zm423.1 0h59.3v147h-76.2l-114.6-98v98h-59.3v-147h73.5l117.3 97.6zm864.4 84.3l67.1 62.8h-79.4l-85.4-80.6h24.2c10.1 0 18.7-0.4 25.6-0.9 6.8-0.3 12.8-2 17.3-4 4.1-2 7.8-4.4 9.6-6.9 2.3-2.4 3.2-5.7 3.2-9.7 0-3.7-0.9-6.9-3.6-9.3-2.8-2.5-6.9-4.5-13.3-6.1-4.1-1.2-9.1-1.6-15-2-6-0.4-12.4-0.4-20.1-0.4h-39.7v119.9h-64.8v-147.1h125q4.8 0 9.5 0.1 4.7 0 9.5 0.1 4.7 0.1 9.4 0.3 4.8 0.1 9.5 0.3c11 1.2 21 3.3 30.1 6.5 9.2 3.7 16.9 7.7 22.4 13 5.5 5.2 8.2 12.1 8.2 19.8 0 10.9-4.1 19.9-12.8 26.8-8.2 6.9-20.5 12.5-36.5 17.4zm-303.5-84.3l91.3 147.1h-66.2l-17.3-30h-73.1l16.9-28.4h39.3l-26-44.5-60.3 102.9h-66.1l91.2-147.1zm-258.8 0h59.3v147.1h-76.2l-114.6-98.1v98.1h-59.3v-147.1h73.5l117.3 97.7zm628.9 6.8h9.6c3.2 0 6.4 1.3 6.4 4.9 0 1.6-0.9 3.6-2.7 4.1 1.8 0.4 2.7 2.4 2.7 4 0 0.8 0 3.3 0.9 3.6h-5c-0.5-0.3-0.5-2-0.5-2.4 0-1.6-0.4-3.2-2.7-3.2h-3.6v6.1h-5.1zm5.1 7.3h4.1c1.3 0 2.2-0.9 2.2-2.1 0-1.2-0.9-1.6-2.2-1.6h-4.1z"/>
	<path id="Layer" fill-rule="evenodd" class="s0" d="m1584.7 30.8c-9.6 0-17.4-6.9-17.4-15.4 0-8.5 7.8-15.4 17.4-15.4 9.5 0 17.3 6.9 17.3 15.4 0 8.5-7.8 15.4-17.3 15.4zm-0.1-2.6c8 0 14.4-5.7 14.4-12.8 0-7.1-6.4-12.8-14.4-12.8-7.9 0-14.3 5.8-14.3 12.8 0 7.1 6.4 12.8 14.3 12.8z"/>
</svg>