<svg version="1.2" baseProfile="tiny-ps" xmlns="http://www.w3.org/2000/svg" viewBox="0 0 1503 610" width="1503" height="610">
	<title>TheLindeGroup-Logo-svg</title>
	<style>
		tspan { white-space:pre }
		.shp0 { fill: #003867 } 
	</style>
	<g id="layer1">
		<path id="path26659" fill-rule="evenodd" class="shp0" d="M200.26 609.59C77.7 609.59 0.67 573.17 0.67 519.95C0.67 443.97 122.17 404.41 265.04 404.41C324.21 404.41 388.64 411.76 456.57 422.96C483.19 396 509.45 367.29 534.66 339.28C585.08 283.26 659.32 202.73 721.29 155.11C838.95 65.13 989.17 0 1147.79 0C1344.93 0 1502.85 66.53 1502.85 165.97C1502.85 223.04 1446.82 272.41 1346.68 276.26L1343.53 258.05C1364.54 248.25 1390.45 230.74 1390.45 176.82C1390.45 106.09 1310.96 35.72 1164.95 35.72C1024.53 35.72 944.35 101.54 854 195.38C806.73 244.4 755.96 305.32 709.74 352.94C675.07 388.3 637.96 420.86 599.44 449.92C757.71 481.79 925.09 518.9 1079.86 518.9C1239.18 518.9 1311.66 477.59 1348.78 443.27L1358.93 457.98C1319.02 539.91 1198.21 609.59 1043.79 609.59C845.95 609.59 669.47 553.91 514.7 507.35C406.5 572.12 294.45 609.59 200.26 609.59ZM401.95 474.78C333.32 456.58 269.59 443.97 210.41 443.97C148.08 443.97 98.71 470.58 98.71 511.9C98.71 550.76 135.48 573.87 200.96 573.87C268.19 573.87 336.47 532.21 401.95 474.78Z" />
	</g>
</svg>