<svg version="1.2" xmlns="http://www.w3.org/2000/svg" viewBox="0 0 1577 336" width="1577" height="336">
	<title>asia_logo-svg</title>
	<style>
		.s0 { fill: #ffffff } 
		.s1 { fill: #e1213a } 
		.s2 { fill: #010101 } 
	</style>
	<path id="Layer" class="s0" d="m18.1 18.1h1543.2v302.7h-1543.2z"/>
	<g id="Layer">
		<g id="Layer">
			<path id="Layer" class="s1" d="m111.1 92.6h50v106.9h70.2v42.8h-120.2z"/>
		</g>
		<g id="Layer">
			<path id="Layer" class="s1" d="m299.3 92.6h56l29 84 29.1-84h55l-60.7 150.7h-47.8z"/>
		</g>
		<g id="Layer">
			<path id="Layer" class="s1" d="m470.4 92.6h127.5v41h-78.5v15.2h73.1v36.2h-73.1v16.3h79.4v41h-128.6v-149.7z"/>
		</g>
		<g id="Layer">
			<path id="Layer" class="s2" d="m658.1 92.6h46.8l53.3 66v-66h49.5v149.5h-44.4l-55.5-68.9v68.9h-49.6v-149.5z"/>
		</g>
		<g id="Layer">
			<path id="Layer" fill-rule="evenodd" class="s2" d="m868.2 91.4h49.6l62.9 150.7h-54.2l-7.9-20h-52.3l-7.7 20h-53.5zm38.1 95.2l-13.7-36.4-13.7 36.4z"/>
		</g>
		<g id="Layer">
			<path id="Layer" class="s2" d="m989 134.9h-44.1v-42.3h138v42.3h-44v107.2h-50.1v-107.2z"/>
		</g>
		<g id="Layer">
			<path id="Layer" class="s2" d="m1090.5 92.6h50v149.5h-50z"/>
		</g>
		<g id="Layer">
			<path id="Layer" fill-rule="evenodd" class="s2" d="m1150.2 167.8v-0.4c0-43.5 35.7-78.1 81.9-78.1 46.1 0 81.3 34.3 81.3 77.6v0.5c0 43.4-35.7 78-81.8 78-46.2 0-81.4-34.3-81.4-77.6zm112.9 0v-0.4c0-17.8-12.2-33.8-31.5-33.8-19.1 0-31 15.8-31 33.3v0.5c0 17.7 12.1 33.7 31.5 33.7 19 0 31-15.8 31-33.3z"/>
		</g>
		<g id="Layer">
			<path id="Layer" class="s2" d="m1318.6 92.6h46.8l53.3 66v-66h49.5v149.5h-44.5l-55.6-68.9v68.9h-49.5z"/>
		</g>
	</g>
	<g id="Layer">
		<path id="Layer" fill-rule="evenodd" class="s1" d="m0 0h1576.4v336h-1576.4zm33.1 302.7h1510.2v-269.6h-1510.2z"/>
	</g>
	<g id="Layer">
		<g id="Layer">
			<path id="Layer" class="s2" d="m316.7 64c-0.5 0.9-1.8 4.2-1.8 4.2 0 0-0.6 1.3-1.6 2.4l-1.5 1.4-3 3.6-17.5 16.8-1.6 1.6-5.5 5.3c0 0-0.3 0.9-0.3 1.8v5.4c0 0 0.2 0.9-0.5 1.6-0.6 0.6-7.4 5.6-7.4 5.6 0 0-0.6 0.5-1.3 5.8l-6.3 47.9 2.1 76.2c3.6 19.7 3.3 22.8 2.6 23.4-0.8 0.7-5.2 1-7.6 1.2-1.9 0.1-6.3 0-7.7-0.5-1.3-0.5-0.5-3.7-0.5-3.7l0.6-1.8 2.5-6.5h-24.7c0 0-0.5-0.1-0.5-0.8 0-0.3 0.9-2.3 0.9-2.3 0.4-0.6 1-0.9 1-0.9l16.6-8.1-10.5-32.3-5.4-48.8-2.5-1c-0.6 0-0.6-0.6-0.6-0.6l-1.3-44.6c0-1-0.5-1.4-0.5-1.4 0 0-7.4-6-7.9-6.5-0.3-0.5-0.3-1.1-0.3-1.1 0 0 0-2.3 0-3.1 0-0.8-0.3-1.3-0.3-1.3l-4.1-3.9-13.9-12.4h-0.1l-8.4-7.6-1.5-1.5c-1.1-1.1-1.7-2.4-1.7-2.4l-1.7-6.4c0 0 3.3-5.7 3.9-6.8 0.7-1.2 1.8-0.2 1.8-0.2 0 0 3.2 2.4 5 3.6 1.8 1.1 1.6 2.4 1.6 3.2 0 0.8 0.5 5.2 0.5 5.2 0.2 1.7 1.1 2.4 1.1 2.4l22.8 16.9c5.2 3.1 11.3 6.8 11.3 6.8l8.2-0.6 0.3-7c0 0-3.3-0.8-4.2-1.3-1.2-0.8-1.4-2.4-1.4-2.4 0 0-0.8-8.4 1.8-16.9 1.6-5.2 5.6-10.4 9.5-9.6 0 0 7.7 1.2 11.1 5.7 0 0 1.2 1.1 1.5 3.7 0.3 1.1 0.3 1.8 0.5 2.3 0.3 0.8 0.5 1.4 0.8 2.5 0.3 0.9 0.8 1.5 1.3 2.1 0.5 0.5 1.3 1 1.3 1 0 0-1 0.7-2 0.7-1.1 0-1.6-0.7-1.6-0.7 0 0 0.2 0.7 0.5 1.5 0.3 0.8 0.6 1.3 1.4 1.9 0.9 0.7 1.7 1.1 1.7 1.1 0 0-1.3 1.2-2.1 1.2-0.4 0 0.3 0.6 0.6 1.1 0.7 0.6 2.3 1.6 2.3 1.6 0 0-0.5 0.7-1 1-0.5 0.3-1.3 0.6-2.1 0.6-1.1 0-2.4-0.8-2.4-0.8 0 0-0.2 1.2-0.2 1.8 0 0.6 0.5 1.8 0.5 1.8 0 0-1.3 0.3-2.1 0.1-0.6-0.1-1.6-1.1-2.3-1.4l-0.4 6 8.8-4.4 3.6-0.8 28.7-22.3c0.3-0.5 0.8-1.3 1-2.3 0 0 0.5-4.3 0.5-5.1 0-0.7-0.2-2.1 1.6-3.3 1.8-1.1 5-3.5 5-3.5 0 0 1-0.8 1.6 0.3 0.6 1.1 3.9 6.8 3.9 6.8 0 0 0.5 1.1-0.5 1.8z"/>
		</g>
	</g>
	<g id="Layer">
		<path id="Layer" fill-rule="evenodd" class="s2" d="m1504.4 115.8c-6.6 0-11.8-5.2-11.8-11.8 0-6.5 5.2-11.8 11.8-11.8 6.5 0 11.7 5.3 11.7 11.8 0 6.6-5.2 11.8-11.7 11.8zm10.3-12c0-5.8-4.7-10.4-10.4-10.4-5.8 0-10.4 4.6-10.4 10.4 0 5.8 4.6 10.4 10.4 10.4 5.7 0 10.4-4.6 10.4-10.4zm-15.2-6.6h5.5c1.6 0 3.1 0.5 3.9 1.3 0.6 0.7 1 1.7 1 2.8 0 1.9-1.2 3.2-2.8 3.9l3.1 4.5h-3.3l-2.7-4.1h-2.1v4.2h-2.6zm5.5 6.2c1.5 0 2.1-0.8 2.1-1.8 0-1.1-0.8-1.8-2.3-1.8h-2.7v3.6z"/>
	</g>
</svg>