<svg version="1.2" xmlns="http://www.w3.org/2000/svg" viewBox="0 0 1558 377" width="1558" height="377">
	<title>lm-logo-svg</title>
	<style>
		.s0 { fill: #003e69 } 
	</style>
	<path id="Layer" class="s0" d="m773.3 192.7l-20 42.5h-18.2l-1.9-42.5h-0.7l-8.8 42.5h-19.1l13.3-63.7h31.3l0.5 36.6h0.8l15.5-36.6h32.2l-13.2 63.7h-20.1l9.2-42.5h-0.8z"/>
	<path id="Layer" fill-rule="evenodd" class="s0" d="m842.8 171.6h29l4.4 63.7h-20.8l-0.3-11.3h-18.7l-5.1 11.3h-19.5zm12.6 39l-1.2-24.1h-0.8l-11.7 24.1z"/>
	<path id="Layer" class="s0" d="m1002.8 186.6h-13.9l3.1-15.1h48.7l-3.1 15.1h-14l-10.1 48.6h-20.8l10.1-48.6z"/>
	<path id="Layer" class="s0" d="m1123.7 171.5h28.2l6.2 38.1h0.6l8-38.1h19.7l-13.2 63.7h-28.2l-5.3-38.9h-0.7l-8.1 38.9h-20.4l13.2-63.7z"/>
	<path id="Layer" fill-rule="evenodd" class="s0" d="m917.6 171.4h30.7c15 0 20.3 8.3 20.3 16.3 0 2-0.4 4-1.2 5.9-0.7 1.9-1.8 3.7-3.2 5.2-1.4 1.5-3 2.7-4.9 3.6-1.8 0.9-3.8 1.5-5.8 1.7v0.9c1.3 0.1 2.5 0.5 3.6 1 1.1 0.6 2.1 1.4 2.9 2.4 0.8 1 1.4 2.1 1.8 3.3 0.4 1.2 0.5 2.5 0.4 3.7 0 4.3-0.9 8.7-0.9 14q0 0.7 0 1.4 0.1 0.7 0.1 1.5 0.1 0.7 0.2 1.4 0.1 0.7 0.2 1.4h-22.2q-0.1-0.5-0.2-0.9 0-0.5-0.1-1 0-0.4 0-0.9-0.1-0.4-0.1-0.9c0-5.3 1.5-9.1 1.5-14.9q0.1-1.1-0.2-2.1-0.4-1.1-1.2-1.8-0.7-0.8-1.8-1.2-1-0.3-2.1-0.1h-5.4l-4.9 23.8h-20.5zm20.8 26.6c5.9 0 8.4-2.9 8.4-6.8 0-3.1-1.8-4.7-6.1-4.7h-5.2l-2.4 11.5z"/>
	<path id="Layer" class="s0" d="m1067.1 171.5h20.8l-13.2 63.7h-20.9l13.3-63.7z"/>
	<path id="Layer" class="s0" d="m13.3 171.5h20.8l-10.1 48.7h20.3l-3 15h-41.3l13.3-63.7z"/>
	<path id="Layer" class="s0" d="m254.1 171.5h20.8l-5.7 27.4h0.6l18.4-27.4h22.2l-23.1 30.1 11.6 33.6h-22.2l-8.6-28.3h-0.6l-5.8 28.3h-20.9l13.3-63.7z"/>
	<path id="Layer" class="s0" d="m362 211.3h-12.3l-5 23.9h-20.9l13.3-63.7h20.8l-5 23.9h12.5l4.9-23.9h20.9l-13.3 63.7h-20.8l4.9-23.9z"/>
	<path id="Layer" class="s0" d="m508.4 171.5h43.8l-3.2 15.1h-22.9l-1.9 9.4h20.8l-3.2 14.9h-20.8l-1.9 9.3h24l-3.1 15h-44.8l13.2-63.7z"/>
	<path id="Layer" class="s0" d="m428.7 171.5h43.7l-3.1 15.1h-23l-1.9 9.4h20.8l-3.2 14.9h-20.7l-1.9 9.3h23.9l-3.1 15h-44.8l13.3-63.7z"/>
	<path id="Layer" fill-rule="evenodd" class="s0" d="m107.8 170.6c15.4 0 23.8 8.7 23.8 22.5 0 16.8-8.7 43-35.9 43-15.1 0-23.9-8.3-23.9-22.4 0-18.5 9.6-43.1 36-43.1zm-9.9 49.6c9.1 0 13-22.8 13-28q0.1-1.1-0.2-2.2-0.4-1.1-1.2-1.9-0.8-0.8-1.8-1.2-1.1-0.4-2.2-0.3c-9.4 0-13 23.1-13 27.9q-0.2 1.2 0.2 2.3 0.3 1 1.1 1.9 0.8 0.8 1.9 1.2 1.1 0.4 2.2 0.3z"/>
	<path id="Layer" fill-rule="evenodd" class="s0" d="m591.8 171.4h23.6c20.1 0 28.4 11.3 28.4 23.7 0 23.7-14.9 40-39.8 40h-25.4zm10.6 48.7h6.1c8.5 0 14.3-11.1 14.3-24.8 0-5-2.2-8.7-9.7-8.7h-3.7z"/>
	<path id="Layer" class="s0" d="m211.2 211.3c-0.5 3.6-1.7 7-3.5 10.2-1.8 3.1-4.2 5.9-7 8.1-2.8 2.3-6 4-9.5 5.1-3.4 1.1-7 1.6-10.6 1.4-15.4 0-23.9-8.7-23.9-22.4 0-16.1 8.2-43.1 36-43.1 12.7 0 22.9 4.8 22.6 18.3q-0.1 0.8-0.1 1.7-0.1 0.8-0.1 1.6-0.1 0.8-0.2 1.6-0.1 0.8-0.2 1.6h-19.4q0.1-0.5 0.2-1 0-0.5 0.1-1 0-0.5 0.1-1 0-0.5 0-1 0-1-0.3-1.9-0.4-1-1.1-1.7-0.8-0.7-1.7-1-1-0.3-2-0.2c-9.5 0-13 22.9-13 28q-0.1 1.1 0.2 2.2 0.4 1 1.1 1.8 0.8 0.9 1.8 1.3 1.1 0.4 2.2 0.3c3.2 0 6.2-2.5 8.7-8.7z"/>
	<path id="Layer" class="s0" d=""/>
	<path id="Layer" fill-rule="evenodd" class="s0" d="m1558 130.1c0 0-81.3 38-162.7 79.5-17.9 66.7-31 111.7-33 119.1l-0.3 1.2v-0.3q0 0.1 0 0.1 0 0 0 0 0 0.1 0 0.1 0 0 0 0c0.3-1.8 21.9-114.9 21.9-114.9-62.4 31.6-310 161.6-310 161.6l1.3-0.7 311.7-176.3 10-52.5-66.5-1.7c0 0-75.7 69-77.5 70.6l-0.2 0.2c0.8-0.9 22.9-26.3 65-71.1l-546.7-13.7 560.5-1.2c56.6-61 120.3-129.1 120.3-129.1 0 0-16.8 59.2-35.4 129.1h141.4m-195.8 199.8q0-0.1 0-0.1 0 0.1 0 0.1zm-15-199.7h53l11.2-58.4zm52.4 62.2l76.6-43.3-64.5-1.6c-4.2 15.5-7.7 29.5-12.1 44.9z"/>
</svg>