<svg version="1.2" xmlns="http://www.w3.org/2000/svg" viewBox="0 0 1539 1528" width="1539" height="1528">
	<title>Loews_Corp-svg</title>
	<style>
		.s0 { fill: #2e65b0 } 
	</style>
	<g id="Layer">
		<g id="Layer">
			<path id="Layer" class="s0" d="m1538.6 1000.5h-869.2v-825h25v800h844.2z"/>
		</g>
	</g>
	<g id="Layer">
		<path id="Layer" class="s0" d="m1450.9 913h-694v-825.3h25v800.2h669z"/>
	</g>
	<g id="Layer">
		<g id="Layer">
			<path id="Layer" class="s0" d="m1363.1 825.4h-518.5v-825.4h25v800.4h493.5z"/>
		</g>
		<g id="Layer">
			<path id="Layer" class="s0" d="m0 975.5h614.1v25h-614.1z"/>
		</g>
	</g>
	<g id="Layer">
		<path id="Layer" class="s0" d="m87.7 887.9h526.4v25.1h-526.4z"/>
	</g>
	<g id="Layer">
		<path id="Layer" class="s0" d="m175.5 800.4h438.6v25h-438.6z"/>
	</g>
	<g id="Layer">
		<g id="Layer">
			<path id="Layer" fill-rule="evenodd" class="s0" d="m1167.7 1527.6c-25.2 0-44.3-19.5-44.3-45.3v-0.2c0-22.4 16.7-45.6 44.5-45.6 25.2 0 44.1 19.4 44.2 45.1 0.2 0.3 0.1 0.5 0 0.7-0.1 22.3-16.7 45.3-44.4 45.3zm-445.9 0c-25.2 0-44.3-19.5-44.3-45.3v-0.2c0-22.4 16.7-45.6 44.5-45.6 25.1 0 44.1 19.4 44.2 45.1 0.2 0.3 0.1 0.5 0 0.7-0.1 22.3-16.7 45.3-44.4 45.3zm-309 0c-25.2 0-44.2-19.5-44.2-45.3v-0.2c0-22.4 16.6-45.6 44.4-45.6 25.2 0 44.1 19.4 44.2 45.1 0.2 0.3 0.1 0.5 0 0.7-0.1 22.3-16.7 45.3-44.4 45.3zm-102.2 0c-25 0-43.8-19.5-43.8-45.3v-0.2c0-25.6 19.3-45.6 44.1-45.6 15.6 0 24.9 5.6 34.1 14.1l0.6 0.5-5.6 5.7-0.5-0.5c-6.4-6.2-14.9-12.6-28.8-12.6-20.4 0-35.8 16.4-35.8 38.1v0.3c0 21.4 15.8 38.3 36 38.3 11.2 0 19.7-3.9 29.3-13.3l0.5-0.5 5.4 5.2-0.5 0.5c-7.7 7.6-17.9 15.3-35 15.3zm1006-1.5h-5.9l-0.2-0.2-59.8-75.5v75.7h-7.7v-88.1h7.2l0.2 0.2 58.6 73.9v-74.1h7.6c0 0 0 88.1 0 88.1zm-232.8-88.1h7.9v88.1h-7.9zm-59.7 88.2h-7.9v-80.8h-30.2v-7.4h68.4v7.4h-30.3c0 0 0 80.8 0 80.8zm-45.5 0h-8.7l-0.2-0.4-10.8-23.9h-50.3l-11 24.3h-8.3l0.5-1 40.6-87.8h7.1l0.2 0.5zm-110.8 0h-10l-0.2-0.3-27.4-35.7h-27.3v36h-7.9v-88.2h37.1c10.5 0 19.3 3.1 25 8.7 4.3 4.3 6.7 10.4 6.7 16.7v0.2c0 13.4-9.2 22.8-24.8 25.3zm-271.7 0h-7.9v-88.2h32.2c20 0 32.9 10.7 32.9 27.3v0.2c0 19.6-17.3 28.4-34.5 28.4h-22.7c0 0 0 32.3 0 32.3zm-39.9 0h-10l-0.2-0.3-27.4-35.6h-27.3v35.9h-7.9v-88.2h37.1c10.5 0 19.3 3.2 25 8.8 4.3 4.3 6.7 10.4 6.7 16.6v0.3c0 13.4-9.2 22.8-24.8 25.3zm611.5-82.4c-20.6 0-36.1 16.3-36.1 38v0.3c0 21.5 16 38.3 36.4 38.3 20.6 0 36.1-16.3 36.1-38.1v-0.2c0-21.5-16-38.3-36.4-38.3zm-445.9 0c-20.6 0-36.1 16.3-36.1 38v0.3c0 21.5 16 38.3 36.4 38.3 20.5 0 36.1-16.3 36.1-38.1v-0.2c0-21.5-16-38.3-36.4-38.3zm-309 0c-20.5 0-36.1 16.3-36.1 38v0.3c0 21.5 16 38.3 36.4 38.3 20.6 0 36.1-16.3 36.1-38.1v-0.2c0-21.5-16-38.3-36.4-38.3zm499.3 50.8h43.5l-21.7-47.7zm-316-8.2h23.1c15.7 0 26.3-8.3 26.3-20.6v-0.2c0-12.7-9.6-20.2-25.6-20.2h-23.8zm235.3-3.5c15 0 24.6-7.5 24.6-19.1v-0.3c0-11.4-9-18.2-24.2-18.2h-28.9v37.6zm-340.1 0h28.5c14.9 0 24.6-7.5 24.6-19.1v-0.3c0-11.4-9.1-18.2-24.2-18.2h-28.9z"/>
		</g>
		<path id="Layer" fill-rule="evenodd" class="s0" d="m174.8 1125h27.7v220h138.3v25.6h-166zm310.3 249.9c-74.8 0-125-58.6-125-126.3v-0.7c0-67.8 50.9-127.1 125.7-127.1 74.7 0 124.9 58.6 124.9 126.4 0.4 0.3 0.4 0.3 0 0.7 0 67.7-50.9 127-125.6 127zm96.8-126.3v-0.7c0-55.8-40.7-101.4-96.8-101.4-56.2 0-96.2 44.9-96.2 100.7v0.7c0 55.8 40.7 101.4 96.9 101.4 56.1 0 96.1-44.9 96.1-100.7zm82.6-123.6h177.5v25.3h-149.8v83.9h134.1v25.2h-134.1v86h151.6v25.3h-179.3zm445.7 247.4l-67.4-199.3-67.7 199.3h-23.2l-68.6-247.4h30.2l52 200.1 66.4-200.8h22.8l66.3 200.8 52.1-200.1h29.2l-68.6 247.4zm218.3-137.9c54.8 11.9 80.1 31.9 80.1 69.5v0.7c0 42.1-35.1 69.5-83.9 69.5-39 0-70.9-13-100.4-39.3l17.2-20.4c25.6 23.2 50.2 34.7 84.2 34.7 33 0 54.8-17.5 54.8-41.7v-0.7c0-22.8-12.3-35.8-63.9-46.7-56.5-12.3-82.5-30.5-82.5-70.9v-0.7c0-38.6 34.1-67 80.8-67 35.8 0 61.4 10.2 86.3 30.2l-16.2 21.4c-22.8-18.6-45.6-26.7-70.8-26.7-32 0-52.3 17.6-52.3 39.7v0.7c0 23.1 12.6 36.1 66.6 47.7z"/>
	</g>
</svg>