<svg version="1.2" baseProfile="tiny-ps" xmlns="http://www.w3.org/2000/svg" viewBox="0 0 1545 710" width="1545" height="710">
	<title>Lowes_Companies_Logo-svg</title>
	<style>
		tspan { white-space:pre }
		.shp0 { fill: #012169 } 
		.shp1 { fill: #ffffff } 
	</style>
	<g id="layer1">
		<path id="path5808" class="shp0" d="M772.51 0.3L373.69 171.12L124.92 171.12L124.92 240.8L0.3 240.8L0.3 709.18L1544.54 709.18L1544.54 240.8L1420 240.8L1420 171.12L1171.31 171.12L772.51 0.3Z" />
		<path id="path5812" class="shp1" d="M1140.77 295.69L1140.75 371.41L1189.74 371.49L1199.95 295.71L1140.77 295.69L1140.77 295.69Z" />
		<path id="path5824" fill-rule="evenodd" class="shp1" d="M1383.89 362.77C1383.89 350.44 1393.88 341.36 1405.71 341.36C1417.41 341.36 1427.43 350.44 1427.43 362.77C1427.43 375.18 1417.41 384.31 1405.71 384.31C1393.88 384.31 1383.89 375.18 1383.89 362.77ZM1405.71 380.72C1415.42 380.72 1423.08 373.13 1423.08 362.77C1423.08 352.6 1415.42 344.95 1405.71 344.95C1395.87 344.95 1388.21 352.6 1388.21 362.77C1388.21 373.13 1395.87 380.72 1405.71 380.72ZM1397.43 375.18L1397.43 350.44L1406.86 350.44C1412.68 350.44 1415.58 352.6 1415.58 357.49C1415.58 361.93 1412.83 363.85 1409.19 364.3L1416.22 375.18L1412.03 375.18L1405.5 364.46L1401.17 364.46L1401.17 375.18L1397.43 375.18ZM1411.68 357.21C1411.68 354.18 1408.87 353.62 1406.27 353.62L1401.17 353.62L1401.17 361.3L1405.67 361.3C1408.83 361.3 1411.68 361.06 1411.68 357.21Z" />
		<path id="path5828" class="shp1" d="M246.64 553.72L246.64 295.68L176.06 295.68L176.06 615.17L355.85 615.17L355.85 553.72L246.64 553.72Z" />
		<path id="path5832" class="shp1" d="M957.16 615.18L1125.17 615.18L1125.17 553.65L1028.09 553.65L1028.09 513.55L1125.17 513.55L1125.17 454.31L1028.09 454.31L1028.09 413.99L1125.17 413.99L1125.17 352.2L957.16 352.2L957.16 352.51L957.16 615.18Z" />
		<path id="path5834" fill-rule="evenodd" class="shp1" d="M587.88 581.6C587.88 600.13 572.84 615.18 554.28 615.18L417.95 615.18C399.41 615.18 384.38 600.13 384.38 581.6L384.38 385.8C384.38 367.24 399.41 352.21 417.95 352.21L554.28 352.21C572.84 352.21 587.88 367.24 587.88 385.8L587.88 581.6ZM517.17 414L455.09 414L455.09 553.39L517.17 553.39L517.17 414Z" />
		<path id="path5838" class="shp1" d="M846.09 352.22L846.09 553.72L803.48 553.72L803.48 352.22L741.4 352.22L741.4 553.72L698.79 553.72L698.79 352.22L628.08 352.22L628.08 581.58C628.08 600.14 643.11 615.19 661.67 615.19L745.25 615.19C759.33 615.19 772.44 605.46 772.44 591.38C772.44 605.46 785.55 615.19 799.63 615.19L883.23 615.19C901.77 615.19 916.8 600.14 916.8 581.58L916.8 352.22L846.09 352.22L846.09 352.22Z" />
		<path id="path5842" class="shp1" d="M1373.01 515.8L1373.03 515.82L1372.6 514.91C1372.32 514.35 1372.04 513.81 1371.75 513.25L1371.32 512.38C1360.14 489.96 1335.09 471.23 1294.77 455.09L1293.34 454.55C1285.36 451.41 1261.07 441.92 1258.37 426.48C1257.63 422.15 1259.39 415.36 1264.21 411.23C1269.29 406.06 1277.08 403.4 1287.35 403.4C1303.79 403.4 1322.48 410.13 1332.17 414.13C1352.57 422.58 1370.46 430.13 1370.63 430.24L1372.4 430.98L1372.4 373.58L1371.82 373.21C1371.43 372.95 1332.86 348.64 1293.91 343.06C1289.43 342.67 1285 342.5 1280.73 342.5C1244.87 342.5 1217.7 355.52 1200.01 381.21C1185.15 402.32 1183.51 435.73 1196.14 460.67C1212.38 488.85 1238.43 500.62 1263.63 512.02C1274.01 516.69 1284.76 521.58 1294.82 527.54L1294.92 527.61C1306.3 534.45 1312.09 544.89 1309.69 554.17C1307.21 563.8 1296.2 570.26 1282.29 570.26C1280.38 570.26 1278.46 570.16 1276.58 569.9L1275.91 569.81C1249.15 566.09 1194.9 545.89 1194.36 545.67L1192.63 545.02L1192.63 607.96L1193.52 608.26C1194.02 608.44 1246.53 625.83 1293.15 625.83L1293.16 625.83C1318.6 625.83 1337.81 620.7 1350.22 610.62C1350.53 610.41 1379.01 587.5 1380.27 548.55C1380.62 537.78 1378.17 526.75 1373 515.81" />
	</g>
</svg>