<svg version="1.2" xmlns="http://www.w3.org/2000/svg" viewBox="0 0 1575 303" width="1575" height="303">
	<title>lululemon-seeklogo</title>
	<style>
		.s0 { fill: #cf0a2c } 
		.s1 { fill: #ffffff } 
		.s2 { fill: #231f20 } 
	</style>
	<path id="Layer" class="s0" d="m208.8 11.5c18.3 7.6 34.9 18.7 49 32.8 14 14 25.1 30.7 32.7 49 7.6 18.4 11.5 38 11.5 57.9 0 61.1-36.8 116.3-93.2 139.7-56.4 23.4-121.3 10.5-164.5-32.8-43.2-43.2-56.1-108.2-32.8-164.7 23.4-56.5 78.4-93.4 139.5-93.4 19.8 0 39.4 3.9 57.8 11.5z"/>
	<path id="Layer" class="s1" d="m255 221.1c-12.1 18.2-27.7 27.8-44.9 27.8q-3-0.1-6.1-0.5-3-0.4-6-1.1-3-0.7-5.9-1.7-2.9-1.1-5.7-2.4-3.3-1.6-6.4-3.6-3.1-2.1-5.8-4.6-2.8-2.6-5.1-5.5-2.3-2.9-4.1-6.1-1.9-3.1-3.2-6.4-1.3-3.3-2-6.7-0.8-3.5-0.9-7.1-0.1-3.5 0.4-7 1-3.8 2.2-7.6 1.2-3.8 2.5-7.5 1.3-3.8 2.7-7.5 1.4-3.7 2.9-7.3c12.1-31.2 28.5-73.8 14.3-94.6-6-8.8-16.8-13.2-32.9-13.1-16.2 0-27.2 4.3-33 13.1-14.3 20.8 2.3 63.4 14.3 94.6q1.5 3.7 2.9 7.3 1.4 3.7 2.6 7.4 1.3 3.7 2.5 7.5 1.1 3.7 2.2 7.5 0.5 3.5 0.3 7-0.1 3.6-0.8 7.1-0.8 3.4-2.1 6.7-1.3 3.3-3.1 6.3-1.9 3.3-4.2 6.2-2.3 2.9-5 5.4-2.7 2.5-5.8 4.6-3.1 2.1-6.5 3.6-2.7 1.3-5.6 2.4-2.9 1-5.9 1.7-3 0.7-6 1.2-3.1 0.4-6.2 0.4c-17.1 0-32.6-9.6-44.4-27.7l-1.4-2.5q3 1.6 6.2 2.9 3.2 1.3 6.4 2.3 3.3 0.9 6.7 1.6 3.4 0.6 6.8 0.8 1.8 0 3.6-0.2 1.8-0.3 3.5-0.9 1.8-0.5 3.4-1.3 1.6-0.9 3.1-1.9c24.5-16.3 16.1-35.9-0.6-66.1q-2.8-4.6-5.3-9.4-2.6-4.9-4.8-9.8-2.2-5-4-10.1-1.9-5.2-3.4-10.4c-3.6-14.7-6.7-36.1 6-52.2q2.6-3.1 5.7-5.8 3.1-2.6 6.5-4.8 3.4-2.2 7.1-3.9 3.7-1.6 7.6-2.7 5.8-1.7 11.7-3 5.9-1.3 11.9-2.1 5.9-0.8 11.9-1.2 6.1-0.4 12.1-0.3h6.3q6.1-0.1 12.1 0.3 6 0.4 11.9 1.2 6 0.8 11.9 2.1 5.9 1.3 11.7 3 3.9 1.1 7.6 2.7 3.7 1.7 7.1 3.9 3.4 2.2 6.5 4.8 3.1 2.7 5.7 5.8c12.8 16.1 9.6 37.5 6.1 52.2q-1.5 5.2-3.4 10.4-1.9 5.1-4.1 10.1-2.3 4.9-4.8 9.8-2.6 4.8-5.4 9.4c-16.7 30.3-25.1 49.8-0.6 66.1q1.5 1 3.1 1.8 1.6 0.9 3.4 1.4 1.7 0.6 3.5 0.9 1.8 0.2 3.6 0.2 3.5-0.2 6.9-0.8 3.4-0.6 6.7-1.6 3.3-1 6.5-2.3 3.2-1.3 6.2-2.9z"/>
	<path id="Layer" class="s2" d="m433.6 247h-31.6v-206.1h31.7z"/>
	<path id="Layer" class="s2" d="m589.9 247h-31.8v-13.3q-3.6 3.9-7.9 7-4.3 3.1-9.2 5.3-4.9 2.1-10.1 3.1-5.2 1.1-10.5 1c-32 0-49.4-21.2-49.4-52.3v-91.7h31.7v86c0 17.2 8.2 28.7 26.3 28.7 3.3 0 6.6-0.5 9.7-1.5 3.2-1 6.2-2.6 8.8-4.6 2.6-2.1 4.9-4.5 6.7-7.3 1.8-2.8 3.1-5.9 3.9-9.1v-92.1h31.8z"/>
	<path id="Layer" class="s2" d="m629 40.9h31.6v206.1h-31.6z"/>
	<path id="Layer" class="s2" d="m816.7 247h-31.7v-13.3q-3.5 3.9-7.9 7-4.3 3.1-9.1 5.3-4.9 2.1-10.1 3.1-5.2 1.1-10.5 1c-32 0-49.4-21.2-49.4-52.3v-91.7h31.7v86c0 17.2 8.2 28.7 26.2 28.7 3.4 0 6.7-0.5 9.8-1.5 3.2-1 6.1-2.6 8.8-4.6 2.6-2.1 4.9-4.5 6.7-7.3 1.8-2.8 3.1-5.9 3.9-9.1v-92.1h31.7z"/>
	<path id="Layer" class="s2" d="m856.1 40.9h31.6v206.1h-31.6z"/>
	<path id="Layer" fill-rule="evenodd" class="s2" d="m1042.8 203.2c-4.8 27.9-25.3 46.9-59.3 46.9-39.2 0-66.4-29.8-66.4-73.2 0-42.2 27.5-73.9 65.8-73.9 39.6 0 61.1 28.2 61.1 69.4v11.5h-95.9c1 24.7 15.2 39.6 35.4 39.6 15.2 0 26.6-6.6 30.1-20.3zm-93.7-42.6h63.6c-0.2-17.2-10.1-31.1-29.4-31.1-17.4 0.2-30.4 11-34.2 31.1z"/>
	<path id="Layer" class="s2" d="m1218.8 103.2c28.6 0 45.8 20.4 45.8 52.4v91.7h-31.7v-86.7c0-17.2-7.6-28.7-22.9-28.7-3 0-5.9 0.4-8.7 1.4-2.8 1-5.4 2.5-7.7 4.4-2.3 1.9-4.2 4.2-5.7 6.8-1.5 2.6-2.5 5.4-2.9 8.4v94.1h-32.1v-86.4c0-17.2-7.6-28.7-22.9-28.7-3 0-5.9 0.4-8.7 1.4-2.8 1-5.4 2.5-7.7 4.4-2.3 1.9-4.2 4.2-5.7 6.8-1.5 2.6-2.5 5.4-2.9 8.4v94.1h-31.7v-140.8h31.7v11.5q3.2-3.7 7.2-6.5 4-2.8 8.5-4.7 4.5-1.9 9.3-2.7 4.8-0.8 9.7-0.6c3.6 0 7.2 0.4 10.7 1.2 3.5 0.8 6.9 2 10.1 3.7 3.2 1.6 6.3 3.6 9 5.9 2.7 2.4 5.2 5 7.3 7.9 2.5-3 5.4-5.8 8.6-8.2 3.1-2.4 6.6-4.4 10.2-6 3.6-1.6 7.4-2.8 11.3-3.6 3.9-0.7 7.9-1 11.9-0.9z"/>
	<path id="Layer" fill-rule="evenodd" class="s2" d="m1358.7 250.1c-36.9 0-66.8-32.8-66.8-73.4 0-40.6 29.9-73.5 66.8-73.5 36.9 0 66.8 32.9 66.8 73.5 0 40.6-29.9 73.4-66.8 73.4zm0-119.8c-22.9 0-35.1 19.7-35.1 46.3 0 26.6 12.3 46.3 35.1 46.3 22.7 0 35.1-19.7 35.1-46.3 0-26.6-12.3-46.3-35.1-46.3z"/>
	<path id="Layer" class="s2" d="m1454.7 106.2h31.7v13.3q3.6-3.9 8-7 4.4-3.1 9.4-5.2 4.9-2.1 10.2-3.1 5.2-1 10.6-1c32 0 49.7 21.3 49.7 52.4v91.7h-31.7v-86.7c0-17.2-8.5-28.7-26.5-28.7-3.4 0-6.7 0.5-9.9 1.5-3.1 1-6.1 2.6-8.8 4.6-2.6 2.1-4.9 4.5-6.8 7.3-1.8 2.8-3.2 5.9-4 9.1v92.6h-31.9z"/>
</svg>