<svg version="1.2" xmlns="http://www.w3.org/2000/svg" viewBox="0 0 1550 403" width="1550" height="403">
	<title>Logo_Lyondellbasell-svg</title>
	<style>
		.s0 { fill: #5a7584 } 
		.s1 { fill: #009edb } 
	</style>
	<g id="g12">
		<path id="path78" fill-rule="evenodd" class="s0" d="m1143.7 114.5v109.1c0 7.1-5.9 13.1-13 13.1h-65.4c-19.3 0-34.9-15.6-34.9-34.9v-21.8c0-19.3 15.6-34.8 34.9-34.8h52.4v-30.7c0-4.8-4-8.7-8.8-8.7h-64.1c-6.7 0-10.1-3.8-10.1-13.1 0-9.3 3.2-13.1 10.1-13.1 0.9 0 64.1 0.1 64.1 0.1 19.3 0 34.8 15.6 34.8 34.8zm-26 56.7h-52.4c-4.8 0-8.9 4-8.9 8.8v21.8c0 4.9 4.1 8.8 8.9 8.8h52.4c0 0 0-39.4 0-39.4zm-815.1-47.9v69.7c0 13-5.6 24.7-14.6 32.7-7.7 6.8-17.9 11-29 11h-26.1c-24.1 0-43.6-19.6-43.6-43.7v-69.7c0-24 19.5-43.6 43.6-43.6h26.1c24.1 0 43.6 19.6 43.6 43.6zm-87.3 69.3c0 10 8.1 18 18 18h25.3c9.9 0 18-8 18-18v-68.8c0-10-8.1-18-18-18h-25.3c-9.9 0-18 8-18 18zm-189.2-180.2v214.2c0 6.6-3.8 10-13 10-9.3 0-13.1-3.2-13.1-10v-214.2c0-6.7 3.8-10.1 13.1-10.1 9.2 0 13 3.2 13 10.1zm563.5 0v214.2c0 6.2-3.3 9.6-11.5 10-0.5 0-58.2 0-58.2 0-24.1 0-43.6-19.5-43.6-43.7v-69.6c0-24.1 19.5-43.7 43.6-43.7 0 0 34.6-0.1 43.6-0.1v-67.1c0-6.7 3.8-10.1 13.1-10.1 9.3 0 13 3.2 13 10.1zm-26.1 93.5h-43.6c-9.6 0-17.6 7.7-17.6 17.4v69.6c0 9.7 8 17.7 17.6 17.7l43.6-0.1zm225.5-93.5v214.2c0 6.6-3.8 10-13.1 10-9.3 0-13.1-3.1-13.1-10v-214.2c0-6.7 3.8-10 13.1-10 9.3 0 13.1 3.1 13.1 10zm761 0v214.2c0 6.6-3.8 10-13.1 10-9.2 0-13-3.1-13-10v-214.2c0-6.7 3.8-10 13-10 9.3 0 13.1 3.1 13.1 10zm-63.5 0v214.2c0 6.6-3.8 10-13.1 10-9.2 0-13-3.1-13-10v-214.2c0-6.7 3.8-10 13-10 9.3 0 13.1 3.1 13.1 10zm-633.9 0v214.2c0 6.6-3.7 10-13 10-9.3 0-13.1-3.1-13.1-10v-214.2c0-6.7 3.8-10 13.1-10 9.3 0 13 3.1 13 10zm151 110.9v69.6c0 24.2-19.5 43.7-43.6 43.7 0 0-57.8 0-58.2-0.1-8.2-0.3-11.6-3.7-11.6-9.9v-214.2c0-6.9 3.8-10 13.1-10 9.3 0 13 3.3 13 10v67.2c9.1 0 43.7 0 43.7 0 24.1 0 43.6 19.6 43.6 43.7zm-26 0c0-9.7-8-17.3-17.6-17.3l-43.7-0.1v104.6l43.7 0.1c9.6 0 17.6-8 17.6-17.7zm453 100.4c0 9.2-3.1 13-10 13h-68.6c-19.2 0-34.8-15.6-34.8-34.9v-87.3c0-18.9 15.6-34.8 34.8-34.8h43.7c19.3 0 34.9 15.9 34.9 34.8v43.7c0 7.6-5.4 13-13.1 13h-74.2v30.6c0 4.9 3.9 8.8 8.7 8.8 0 0 67.6 0 68.6 0 6.6 0 10 3.8 10 13.1zm-87.3-78.5h61.2v-30.7c0-4.5-4-8.5-8.8-8.5h-43.7c-4.8 0-8.7 4-8.7 8.5zm-143.2-30.6v17.6c0 4 3.1 7.6 7.1 8.5l52.4 9.6c16.2 2.9 27.8 17.9 27.8 34v17.6c0 19.3-15.6 34.9-34.9 34.9 0 0-68.3 0-68.5 0-6.6 0-10-3.8-10-13.1 0-9.3 3.1-13 10-13 1 0 68.5 0 68.5 0 4.9 0 8.8-3.9 8.8-8.8v-17.6c0-3.9-3.1-7.6-7-8.4l-52.5-9.7c-16.1-2.8-27.8-17.9-27.8-34v-17.6c0-19.2 15.6-34.8 34.9-34.8 0 0 68.3-0.1 68.5-0.1 6.6 0 10 3.8 10 13.1 0 9.3-3.1 13.1-10 13.1h-68.5c-4.9 0-8.8 3.9-8.8 8.7zm-754.3 67.8v44.3c0 6.7-3.7 10.1-13 10.1h-0.1c-9.2 0-13-3.1-13-10.1v-112.1c0-4.8-4-8.7-8.8-8.7h-43.5c-4.8 0-8.8 3.9-8.8 8.7v112.1c0 6.7-3.7 10.1-13 10.1-9.3 0-13.1-3.1-13.1-10.1 0-0.9 0.1-112.1 0.1-112.1 0-19.2 15.6-34.8 34.8-34.8h43.5c19.3 0 34.9 15.6 34.9 34.8 0 0 0 67.8 0 67.8zm287.1 41.3c0 9.3-3.1 13.1-10 13.1h-68.6c-19.2 0-34.8-15.6-34.8-34.9v-87.3c0-19 15.6-34.8 34.8-34.8h43.7c19.2 0 34.8 15.8 34.8 34.8v43.7c0 7.6-5.4 13-13 13h-74.3v30.6c0 4.9 4 8.8 8.8 8.8 0 0 67.6 0 68.6 0 6.6 0 10 3.7 10 13zm-87.4-78.5h61.3v-30.6c0-4.5-4-8.5-8.8-8.5h-43.7c-4.8 0-8.8 4-8.8 8.5zm-471.3-49.4l-60.2 170.2c-7.2 20.3-22.3 23.1-36 23.1h-11.2c-8.4 0-11.8-3.8-11.8-12.9 0-11.2 4.2-12.8 8.9-12.8h15c9.7 0 11.4-7.2 11.5-7.3l6.5-18.8-50.7-141.6c-1.1-3.1-2.3-11.6 8.8-14.8 8.5-2.4 14.9 2.5 16.7 7.8l38.8 109.1 38.6-109c1.8-5.2 7.2-9.9 16.4-7.8 10.5 2.4 9.8 11.7 8.7 14.8z"/>
		<path id="path90" fill-rule="evenodd" class="s1" d="m1486.6 390.5c0 6.6-3.8 10-13.1 10-9.3 0-13-3.1-13-10v-91.2c0-6.6 3.7-10 13-10 9.3 0 13.1 3.1 13.1 10zm63.3 0c0 6.6-3.8 10-13 10-9.3 0-13.1-3.1-13.1-10v-91.2c0-6.6 3.8-10 13.1-10 9.2 0 13 3.1 13 10zm-960.3 0c0 6.7-3.7 10.1-13 10.1-9.3 0-13.1-3.1-13.1-10.1 0-0.9 0-86.9 0-91.1 0-6.7 3.8-10.1 13.1-10.1 9.3 0 13 3.2 13 10.1 0 0 0 91.1 0 91.1zm326.9 0.1c0 6.6-3.8 10-13.1 10-9.2 0-13-3-13-10v-91.2c0-6.7 3.8-10.1 13-10.1 9.3 0 13.1 3.2 13.1 10.1zm-63.9-0.1c0 6.6-3.8 10-13.1 10-9.3 0-13-3.1-13-10v-91.2c0-6.6 3.7-10 13-10 9.3 0 13.1 3.1 13.1 10zm-63.8 0c0 6.7-3.7 10.1-13 10.1-9.3 0-13.1-3.1-13.1-10.1v-91.1c0-6.7 3.8-10.1 13.1-10.1 9.3 0 13 3.1 13 10.1zm-762.7 0c0 6.6-3.8 10-13.1 10-9.2 0-13-3.1-13-10v-91.2c0-6.7 3.8-10.1 13-10.1 9.3 0 13.1 3.2 13.1 10.1z"/>
	</g>
</svg>