<svg version="1.2" xmlns="http://www.w3.org/2000/svg" viewBox="0 0 1500 1137" width="1500" height="1137">
	<title>marathon-svg</title>
	<style>
		.s0 { fill: #ffffff } 
		.s1 { fill: #0033a1 } 
		.s2 { fill: #db0032 } 
		.s3 { fill: #000000 } 
	</style>
	<path id="holding_line_1_-1" class="s0" d="m1060.5 29.1c54 1.4 108 36.5 129.6 87.8l132.3 296.9 105.3 236.3c6.7 23 6.7 50 2.7 74.3l-78.3 288.9c-17.6 49.9-70.2 91.7-122.9 95.8h-992.2c-51.3-2.7-103.9-39.2-122.8-87.8l-10.8-31-40.5-149.9-31.1-117.4c-5.4-27-1.3-54 6.8-78.3l228.1-522.4c18.9-52.7 74.3-90.5 129.6-93.2z"/>
	<path id="Layer" fill-rule="evenodd" class="s0" d="m1232 1136.1h-996.4c-63.4-4-124.2-47.3-147.1-106.7l-12.2-35-72.9-267.3c-5.4-29.7-2.7-62.1 8.1-91.8l1.4-1.4 226.8-522.4c6.2-15.7 14.6-30.4 25-43.6 10.4-13.3 22.6-25 36.3-34.7 13.7-9.8 28.7-17.5 44.6-23 15.9-5.5 32.5-8.7 49.3-9.4h665.6c67.5 1.3 130.9 44.5 156.6 105.3l238.9 534.6c10.8 32.4 6.8 68.8 4.1 87.7v2.7l-78.3 291.6c-23 60.8-85.1 109.4-149.9 113.4zm-993.5-56.7h990.9c40.5-4.1 82.3-35.1 95.8-75.6l77-286.2c4-21.6 2.7-43.2-1.4-58.1l-236.3-531.9c-17.5-40.5-59.4-68.8-105.2-70.2h-662.9c-43.2 1.4-87.8 33.8-102.6 74.3v1.3l-228.2 522.5c-6.7 20.3-9.4 41.9-5.4 60.8l71.6 263.2 10.8 31c13.5 36.5 54 66.2 95.8 68.9z"/>
	<path id="blue_line_shield-2" class="s1" d="m1047 49.3c52.7 1.4 104 35.1 124.2 83.8l128.3 284.8 101.2 226.8c6.8 21.6 6.8 48.6 2.7 71.5l-75.6 278.1c-17.5 48.6-67.5 87.8-117.4 91.8h-954.5c-50-2.7-99.9-37.8-117.5-85l-9.4-28.4-40.5-144.4-31.1-110.7c-4-25.7-1.3-52.7 6.8-74.3l218.7-502.2c18.9-51.3 71.5-87.7 124.2-89.1h639.9z"/>
	<path id="white_inside_shield-3" class="s0" d="m1051 100.7c33.8 2.6 67.5 31 78.3 64.7l201.2 445.6c12.2 25.6 33.8 55.3 25.7 90.4l-10.8 45.9-60.8 224.1c-8.1 33.8-41.8 59.4-74.2 64.8h-942.4c-29.7 0-56.7-12.2-75.6-37.8-17.5-29.7-86.4-297-86.4-297-2.7-25.6 6.8-48.6 17.6-70.2l170.1-388.8 41.9-94.5c17.5-31 49.9-47.2 82.3-48.6z"/>
	<path id="BIG_M-4" fill-rule="evenodd" class="s2" d="m729.8 503l117.4-303.8h179.6l159.3 518.4h-220.1l-24.3-284.8-141.7 284.8h-139.1l-143.1-282.1-24.3 282.1h-218.7l153.9-518.4h179.5z"/>
	<path id="M-5" class="s1" d="m309.9 856.6l14.9-74.2h45.9l17.5 144.4h-35.1l-10.8-93.1c-5.4 31-10.8 62.1-14.9 93.1h-36.4l-16.2-93.1c-4 31-6.7 62.1-10.8 93.1h-35.1l20.3-145.8h45.8z"/>
	<path id="A-6" class="s1" d="m513.8 926.8h-36.5l-4-25.6h-33.8l-5.4 25.6h-36.4l31-145.8 54 0.1z"/>
	<path id="R-7" class="s1" d="m608.3 785.1c21.6 10.8 20.2 36.5 18.9 56.7-2.8 10.8-6.8 22.9-18.9 27v4.1l20.2 52.6h-35.1l-17.5-51.3c-2.7-1.3-6.8-1.3-9.5 0v51.3h-35.1v-144.5c1.4 0 56.7-4 77 4.1z"/>
	<path id="A__x23_2-8" class="s1" d="m755.4 926.8h-37.8l-4-25.6h-33.8l-5.4 25.6h-35.1l29.7-145.8 54 0.1z"/>
	<path id="T-9" class="s1" d="m845.9 812.1h-31.1v114.7h-35.1v-114.7h-31v-31.1h97.2z"/>
	<path id="H-10" class="s1" d="m894.5 839.1h31v-58h36.5v145.8h-36.5v-56.7h-31v56.7h-35.1v-145.9h35.1z"/>
	<path id="O_1_-11" class="s1" d="m1038.9 929.5c-20.3 0-36.5-5.4-45.9-18.9-8.1-13.5-10.8-29.7-10.8-58 0-29.7 5.4-55.4 21.6-63.5 16.2-8.1 24.3-9.4 33.7-9.4 9.5 0 18.9 0 33.8 9.4 16.2 8.1 21.6 33.8 21.6 63.5 0 29.7-1.4 45.9-10.8 58-6.8 13.5-23 18.9-43.2 18.9z"/>
	<path id="N-12" class="s1" d="m1188.8 874.2v-93.1h32.4v145.8h-47.3l-25.6-87.8v87.8h-31.1v-145.9h47.3z"/>
	<g id="Layer">
		<path id="inside_A-13" class="s0" d="m466.5 874.2h-23l12.2-62.1c5.4 18.9 8.1 40.5 10.8 62.1z"/>
		<path id="inside_R-14" class="s0" d="m588 813.5c5.4 6.7 6.8 17.5 4 25.6-2.7 2.7-2.7 6.8-8.1 6.8h-14.8v-35.1c-1.4 0 13.5-1.4 18.9 2.7z"/>
		<path id="inside_A_2nd-15" class="s0" d="m708.1 874.2h-22.9l12.1-62.1c4.1 18.9 6.8 40.5 10.8 62.1z"/>
		<path id="inside_O_1_-16" class="s0" d="m1038.9 899.8c-6.8 0-13.5-2.7-16.2-12.1-2.7-8.1-4.1-17.6-4.1-35.1 0-17.6 1.4-33.8 8.1-39.2 5.4-5.4 9.5-5.4 12.2-5.4 4 0 6.8 0 12.2 5.4 5.4 5.4 8.1 20.3 8.1 39.2 0 17.5-1.4 27-4.1 35.1-2.7 9.4-9.4 12.1-16.2 12.1z"/>
	</g>
	<g id="Layer">
		<path id="Layer" fill-rule="evenodd" class="s3" d="m1453.4 1087.5c-25.4 0-46-20.5-46-45.9 0-25.4 20.6-45.9 46-45.9 25.3 0 45.9 20.5 45.9 45.9 0 25.4-20.6 45.9-45.9 45.9zm0-8.1c20.2 0 36.4-16.2 36.4-37.8 0-21.6-16.2-37.8-36.4-37.8-5 0-9.9 1-14.5 2.9-4.6 1.9-8.8 4.7-12.3 8.2-3.5 3.5-6.3 7.6-8.2 12.2-1.9 4.6-2.8 9.5-2.8 14.5 1.3 21.6 17.5 37.8 37.8 37.8zm-9.5-10.8h-8.1v-52.7h20.3c12.1 0 18.9 4.1 18.9 14.9 0 9.4-5.4 13.5-13.5 14.8l14.8 23h-9.4l-13.5-23h-9.5zm9.5-29.7c6.7 0 12.1 0 12.1-8.1 0-6.7-5.4-8.1-12.1-8.1h-10.8v16.2z"/>
	</g>
</svg>