<svg version="1.2" xmlns="http://www.w3.org/2000/svg" viewBox="0 0 1570 436" width="1570" height="436">
	<title>marathon oil-svg</title>
	<style>
		.s0 { fill: #72cdf4 } 
		.s1 { fill: #00a4e4 } 
		.s2 { fill: #0081c5 } 
		.s3 { fill: #4d504f } 
	</style>
	<g id="Layer">
		<path id="Layer" fill-rule="evenodd" class="s0" d="m828.2 6.8c-62.2 41-76.6 158.6-77.6 166.9h-45.9c2.2-16 25-168.1 111.1-168.1q1.6 0 3.2 0.1 1.6 0.1 3.2 0.2 1.5 0.2 3.1 0.4 1.6 0.2 3.1 0.5"/>
		<path id="Layer" fill-rule="evenodd" class="s1" d="m854 3.5q4.9-1.2 9.9-1.8 4.9-0.7 10-0.7 5-0.1 10 0.4 5 0.5 9.9 1.6c-7.6 4.7-14.5 10.4-21.1 16.7q-2.1-2.3-4.3-4.4-2.3-2.2-4.6-4.2-2.4-2-4.8-3.9-2.5-1.9-5-3.7zm10.2 23.8q-2.1-2.2-4.3-4.3-2.3-2-4.8-3.9-2.4-1.9-5-3.5-2.6-1.7-5.3-3.1c-61.8 29.5-79.2 147.3-81 161.2h45.7c0.9-6.9 11.9-96.1 54.7-146.4z"/>
		<path id="Layer" fill-rule="evenodd" class="s2" d="m880.3 27.9q2.6-2.6 5.3-4.9 2.8-2.3 5.7-4.4 2.9-2.1 6-3.9 3.1-1.9 6.4-3.5c7.2 3.7 14 9.1 20.8 16.1q-3.3 3.9-6.3 8-3 4-5.8 8.3-2.8 4.2-5.3 8.6-2.6 4.4-4.8 8.9-2.4-4.4-5-8.7-2.5-4.2-5.3-8.4-2.7-4.2-5.7-8.2-2.9-4-6-7.9zm37.5-20.7q2.5 1.9 4.8 3.9 2.3 2 4.6 4.2 2.2 2.1 4.4 4.4c6.5-6.3 13.4-12 21-16.7q-4.9-1.1-9.9-1.6-5-0.5-10-0.5-5 0.1-10 0.7-5 0.7-9.9 1.9 2.6 1.8 5 3.7zm-22.5 66q-2.4-4.7-5-9.3-2.6-4.6-5.3-9-2.8-4.5-5.8-8.9-2.9-4.3-6.1-8.5c-37.1 45-48.8 122.8-50.6 136.2h45.9c0.5-4.7 6.6-54.5 26.9-100.5z"/>
		<path id="Layer" fill-rule="evenodd" class="s0" d="m1181.9 19.7c-1.7 13.4-13.3 91.1-50.4 136.2q-3.2-4.2-6.2-8.5-3-4.4-5.8-8.8-2.8-4.5-5.4-9.1-2.5-4.6-4.9-9.3c20.1-45.2 26.2-93.7 26.9-100.5zm-215 79.6q-3.5-8.2-7.4-16.2-3.9-7.9-8.3-15.7-4.4-7.8-9.3-15.2-4.8-7.5-10.1-14.7-3.2 4.1-6.3 8.4-3 4.3-5.8 8.8-2.7 4.4-5.2 9.1-2.5 4.6-4.6 9.4c3.4 6.8 6.7 13.8 9.9 20.9 31.2 68.3 56.2 93.7 92.3 93.7 4.9 0 9.7-0.5 14.3-1.5-20.5-14.8-38.9-41.8-59.5-87z"/>
		<path id="Layer" fill-rule="evenodd" class="s1" d="m1033.8 116.7q4.3 8.6 9.1 16.9 4.8 8.2 10.1 16.2 5.2 8 11 15.7c-6.8 6.6-14.2 11.8-22 15.5-21.7-11.2-40.6-37.3-63.2-86.9q-3.8-8.8-8.1-17.4-4.3-8.5-9.1-16.8-4.8-8.3-10-16.3-5.3-8-11.1-15.6c6.9-6.6 14.2-11.9 22-15.5 21.7 11.1 40.6 37.3 63.3 86.8q3.7 8.8 8 17.4zm18.1 73.7q4.9 1.1 9.9 1.6 5 0.5 10 0.5 5.1-0.1 10-0.7 5-0.7 9.9-1.9-2.5-1.7-5-3.6-2.4-1.9-4.8-4-2.3-2-4.6-4.1-2.2-2.2-4.3-4.4c-6.6 6.3-13.6 11.9-21.1 16.5zm143.1-170.6c-0.9 6.9-11.8 95.9-54.7 146.3q2.1 2.3 4.4 4.3 2.2 2.1 4.7 3.9 2.4 1.9 5 3.6 2.6 1.6 5.3 3.1c61.4-29.3 78.8-143.3 81.2-161.2z"/>
		<path id="Layer" fill-rule="evenodd" class="s2" d="m1080.1 166.1q3.2-3.9 6.2-7.9 3.1-4.1 5.8-8.3 2.8-4.2 5.3-8.6 2.6-4.4 4.8-8.9c7.4 13.1 14.6 24.1 22 33.2q-2.5 2.5-5.3 4.8-2.7 2.4-5.7 4.5-2.9 2.1-6 3.9-3.1 1.8-6.4 3.4-2.9-1.6-5.6-3.4-2.8-1.8-5.4-3.8-2.6-2-5.1-4.2-2.4-2.3-4.6-4.7zm51.7 7.7c-6.5 6.2-13.5 12-21.1 16.6q4.9 1.1 9.9 1.6 5 0.5 10.1 0.5 5-0.1 10-0.7 5-0.7 9.8-1.9c-6.3-4.3-12.6-9.7-18.7-16.1zm-47.1-74.5c-31.2-68.3-56.3-93.7-92.3-93.7-4.9 0-9.7 0.6-14.3 1.5 20.5 14.9 38.9 41.8 59.5 87q3.5 8.2 7.4 16.2 4 8 8.4 15.7 4.4 7.8 9.2 15.3 4.8 7.4 10.1 14.6 3.3-4.1 6.3-8.4 3-4.3 5.8-8.7 2.7-4.5 5.2-9.2 2.5-4.6 4.7-9.4c-3.5-6.6-6.8-13.7-10-20.9zm169.2-79.6c-0.9 8.4-15.7 126.1-77.7 167 4 0.7 8 1.1 12.4 1.1 86.4 0 109-152.1 111.1-168.1z"/>
		<path id="Layer" fill-rule="evenodd" class="s3" d="m1556.1 257.6l3.1 7.6h-3.2l-2.7-7h-4.4v7h-3v-17.1h7.4c2.1 0 3.4 0.4 4.4 1.3q0.4 0.3 0.7 0.8 0.3 0.4 0.5 0.9 0.2 0.5 0.2 1 0.1 0.5 0.1 1c0.1 3.2-2.1 4.1-3.1 4.5zm-0.1-4.5c0-1.3-0.9-2.5-3.1-2.5h-4v5.1h3.8c1.4 0 3.3-0.6 3.3-2.6z"/>
		<path id="Layer" fill-rule="evenodd" class="s3" d="m1569 256.6c0 4.4-1.7 8.5-4.8 11.6-3.1 3.1-7.2 4.8-11.6 4.8-4.4 0-8.5-1.7-11.6-4.8-3.1-3.1-4.8-7.2-4.9-11.6 0-9 7.4-16.3 16.4-16.3 9.2 0 16.6 7.3 16.5 16.3zm-2.9 0.1c0-7.5-6.1-13.4-13.6-13.4-3.8-0.4-7.6 0.8-10.5 3.3-2.9 2.6-4.5 6.2-4.5 10.1 0 3.8 1.6 7.5 4.5 10.1 2.9 2.5 6.7 3.7 10.5 3.3 7.5 0 13.6-6 13.6-13.4zm-1566.1-16.4h36l58.7 90.4 58.5-90.4h36v191.5h-33.8v-137.3l-60.7 90.2h-1.1l-60.3-89.7v136.8h-33.3zm310.5 191.5v-17.8c-2.9 3.3-6.1 6.4-9.7 9.1-3.5 2.6-7.4 4.9-11.4 6.7-4.1 1.8-8.3 3.1-12.7 3.9-4.3 0.9-8.8 1.2-13.2 1-27.4 0-51.7-15.6-51.7-44.6v-0.5c0-32 25.1-47.3 58.9-47.3 17.5 0 28.9 2.5 40.2 6v-2.8c0-19.9-12.7-30.8-35.8-30.8-16.2 0-28.3 3.5-41.5 9l-9.1-26.6c15.9-7.1 31.6-12 55.2-12 43 0 63.9 22.5 63.9 61v85.7c0 0-33 0-33.1 0zm0.9-60.5c-8.6-3.3-20.3-5.7-33.2-5.7-21 0-33.4 8.4-33.4 22.3v0.6c0 13.6 12.4 21.3 28.1 21.3 22 0 38.5-12.3 38.5-30.3 0 0 0-8.3 0-8.2zm57.5-84h33.2v32.6c9.1-21.6 25.9-36.4 51.4-35.3v35.1h-1.8c-29.2 0-49.6 18.7-49.6 57v55.1h-33.2zm183.6 144.5v-17.8c-2.9 3.4-6.1 6.4-9.7 9.1-3.6 2.6-7.4 4.9-11.5 6.7-4 1.8-8.3 3.1-12.6 3.9-4.4 0.9-8.8 1.2-13.3 1-27.5 0-51.7-15.6-51.7-44.6v-0.5c0-32 25.1-47.3 59-47.3 17.5 0 28.9 2.5 40.1 6v-2.8c0-19.9-12.6-30.8-35.7-30.8-16.3 0-28.4 3.5-41.6 9.1l-9-26.6c15.9-7.1 31.6-12 55.2-12 42.9 0 63.8 22.4 63.8 60.9v85.7zm0.9-60.5c-8.5-3.3-20.3-5.7-33.2-5.7-21 0-33.3 8.4-33.3 22.3v0.6c0 13.7 12.3 21.3 28 21.3 22 0 38.5-12.3 38.5-30.3 0 0 0-8.3 0-8.2zm61.2-55.5h-18.5v-28.5h18.5v-39.7h33.2v39.7h39.1v28.4h-39.1v70.8c0 12.9 6.7 18.1 17.9 18.1 7.4 0 14.1-1.7 20.6-4.9v27c-8.3 4.6-17.5 7.4-29.9 7.4-24.6 0-41.8-10.6-41.8-42.5zm90.4-75.6v0.1h-0.1zm33.2 0.1v69.5c9.4-13.6 22.9-25.5 45.4-25.5 32.8 0 51.7 21.9 51.7 55.5v92h-33.2v-82.2c0-22.3-11.3-35.2-31.2-35.2-19.2 0-32.7 13.4-32.7 35.9v81.5h-33.2v-191.5zm114.1 120v-0.5c0.1-10.1 2.1-20.1 6.1-29.4 3.9-9.2 9.7-17.6 16.9-24.7 7.2-7 15.8-12.5 25.1-16.2 9.4-3.6 19.4-5.4 29.5-5.2 44.5 0 77.2 33.6 77.2 74.9v0.6c0 41.1-32.9 75.2-77.7 75.2-10 0.3-20-1.4-29.3-5-9.3-3.7-17.8-9.1-25-16.1-7.2-6.9-12.9-15.3-16.8-24.5-3.9-9.2-5.9-19.1-6-29.1zm121.6 0v-0.5c0-25.4-18.5-46.5-44.5-46.5-26.8 0-43.8 20.8-43.8 45.9v0.6c0 25.2 18.5 46.5 44.3 46.5 26.9 0 44-21 44-46zm51.7-73h33.2v22.5c9.5-13.6 23-25.5 45.5-25.5 32.7 0 51.7 21.9 51.7 55.5v92h-33.2v-82.2c0-22.3-11.4-35.2-31.2-35.2-19.3 0-32.7 13.4-32.7 35.9v81.5h-33.2c0 0 0-144.5-0.1-144.5zm173.4 49.3v-0.6c0-53.9 41.9-98.9 101-98.9 59.2 0 100.5 44.6 100.5 98.4v0.5c0 53.9-41.9 99-101 99-59.1 0-100.5-44.6-100.5-98.4zm166 0v-0.6c0-37.2-27.2-68.1-65.6-68.1-38.1 0-64.8 30.5-64.8 67.6v0.5c0 37.2 27.2 68.1 65.4 68.1 38.3 0 65-30.4 65-67.5zm59.7-42.9h33.2v138h-33.2zm-1.4-53.5h35.7v31.3h-35.7c0 0.1 0-31.3 0-31.3zm62.9 0h33.2v191.5h-33.2z"/>
	</g>
</svg>