<svg version="1.2" xmlns="http://www.w3.org/2000/svg" viewBox="0 0 1565 457" width="1565" height="457">
	<title>martinmarie-svg</title>
	<style>
		.s0 { fill: #007dc6 } 
		.s1 { fill: #54565b } 
	</style>
	<path id="Layer" class="s0" d="m474.4 0l290.1 455.5h-103.7l-186.4-293.4-91.5 144.3-92.1-144.5-187.3 293.6h-103.5l290.7-455.4 92.1 143.9z"/>
	<path id="Layer" class="s1" d="m660.8 455.5l-94.3-148.4-91.8 144.4-91.8-145.1-94.8 149.1h-103.2l146.4-230.1 51.5-80.9 51.4 81 40.1 63.3 40.4-63.3 51.6-81.2 198.2 311.2z"/>
	<g id="Layer">
		<path id="Layer" class="s0" d="m1296.2 132.2l-14.3 22.5-14.2-22.5 14.2-22.5z"/>
		<path id="Layer" fill-rule="evenodd" class="s1" d="m961 133.5v144.9h-29.5v-80.2l-44.8 62.9-45-62.9v80.2h-29.3v-144.9h14.3l60 83 59.9-83zm167.2 48.9c7.6-10.5 19.3-17.4 35.1-17.6 2.1 0 4.7 0.4 7 1.2v31c0 0-7.8-1.6-13.8-1.6-20.5 0-28.3 14.6-28.3 29.1v53.9h-28.7v-111.6h28.7zm97.6 8v39.5c0 19.9 3.2 25.6 17.6 25.6 4.9 0 9.3-0.6 13.2-1v21.4c-1.3 0.4-9.9 4.1-25.9 4.1-18.7 0-33.7-11.7-33.7-35.1v-54.5h-15.8v-23.6h15.8v-43.4h28.8v43.4h31.2v23.6c0 0-31.2 0-31.2 0zm42-23.6h28.6v111.6h-28.6zm145.3 49.3v62.2h-28.5v-62.2c0-17.3-8.5-25.7-24.3-25.7-10 0-18.3 3.3-24.6 8.8v79.1h-28.6v-111.5h28.6v6.9c8.2-5.7 18.5-9 29.8-9 32.6 0 47.6 15.2 47.6 51.4zm-459.8 94.5v144.8h-7.6v-127.2l-62.4 102.7-62.6-102.7v127.2h-7.6v-144.8h5.1l65.1 106.4 65.1-106.4zm122.4 34.1v110.7h-7.2v-13.4c-10.9 8.7-25.9 14.2-43.8 14.2-32 0-57.4-25.7-57.4-56.9 0-31 25.4-56.7 57.4-56.7 17.1 0 33.3 5.8 43.8 14.8v-12.7c0 0 7.2 0 7.2 0zm-7.2 21.1c-10.3-10-25.5-16-43.1-16-28.2 0-51 22.2-51 49.5 0 27.5 22.8 49.7 51 49.7 18 0 33-5.7 43.1-15.6zm28.7 5.4c6.4-17.1 19.5-28.4 37.6-28.6 6 0 12.5 1.4 19.1 4.7l-1.8 7.2c-6.4-3.1-12.6-4.1-17.9-4.1-22 0-37 20.5-37 46.8v58.2h-7.3v-110.8h7.3c0 0 0 26.6 0 26.6zm74.7-50c-3.4 0-6.1-2.6-6.1-5.9 0-3.3 2.7-6 6.1-6 3.5 0 6.2 2.7 6.2 6 0 3.3-2.7 5.9-6.2 5.9zm-3.7 23.4h7.6v110.8h-7.6zm131.3 57.9h-101.9c1.7 27.1 23.4 46.4 49.1 46.4 16.6 0 32.6-6.1 42.5-18.6l5.8 4.5c-10.3 12.9-28 21.3-48.7 21.3-33.3 0-56.3-25.4-56.3-56.7 0-31.4 23-56.9 56.3-56.9 32.8 0 53.2 23.9 53.2 57.6zm-7.2-6.6c-1.5-27.1-18.5-46.4-46-46.4-27.7 0-47.4 20.3-48.7 46.4zm38.4-44.6v68.6c0 21 10.1 29 24.4 29 9.1 0 14.6-1 18.3-2.1v6.8c-3.9 1-10.4 2.5-19.7 2.5-16.8 0-30.6-10.9-30.6-32.1v-72.7h-20.3v-6.8h20.3v-44.1h7.6v44.1h43.1v6.8c0 0-43.1 0-43.1 0zm79.9 0v68.6c0 21 10 29 24.4 29 9 0 14.6-1 18.3-2.1v6.8c-3.9 1-10.5 2.5-19.7 2.5-16.9 0-30.6-10.9-30.6-32.1v-72.7h-20.3v-6.8h20.3v-44.1h7.6v44.1h43.1v6.8c0 0-43.1 0-43.1 0zm154-6.8v110.8h-7.2v-13.4c-10.9 8.6-25.9 14.2-43.8 14.2-32 0-57.5-25.7-57.5-56.9 0-31.1 25.5-56.7 57.5-56.7 17.1 0 33.3 5.7 43.8 14.8v-12.8c0 0 7.2 0 7.2 0zm-7.2 21.2c-10.3-10.1-25.5-16-43.1-16-28.2 0-51 22.1-51 49.5 0 27.5 22.8 49.7 51 49.7 18 0 33-5.8 43.1-15.6zm-468.8-199.1v111.6h-28.6v-8.3c-9.2 6.2-20.3 9.9-32.6 9.9-34.9 0-55.5-28.1-55.5-57.7 0-29.8 20.6-57.8 55.5-57.8 11.7 0 23.2 3.7 32.6 9.3v-7c0 0 28.6 0 28.6 0zm-28.6 33.3c-7-6-16.8-9.7-27.5-9.7-20.3 0-33 15.2-33 31.9 0 16.8 12.9 32 33 32 10.9 0 20.5-3.5 27.5-9.4z"/>
	</g>
</svg>