<svg version="1.2" xmlns="http://www.w3.org/2000/svg" viewBox="0 0 1535 373" width="1535" height="373">
	<title>masco-logo-svg</title>
	<style>
		.s0 { fill: #323e48 } 
	</style>
	<g id="01.Design-System">
		<g id="Homepage---Spacing@2x">
			<g id="Masco_432">
				<path id="Fill-1" fill-rule="evenodd" class="s0" d="m547 1l129.8 297.9c0 0 19.6 38.7 51.3 52.8 12.5 5.6 40.1 3.8 40.1 3.8 0 0 52.6-6.3 53.7-68.5 0.7-37.1-23.8-52.8-38.4-61.5-26.7-16.2-127.6-44.1-124.8-118.2 1.7-47.6 42.5-93.7 94.8-93.7 35 0 43.3 15.4 62.8 15.4 23.1 0 33.5-18.9 33.5-18.9l9.8 94.4h-9.8c0 0-20.9-79.7-96.3-79.7-54.4 0-54.2 49.6-54.4 55.2-1.4 37.1 40.7 56.1 87.9 73.4 55.2 20.3 89.3 64.4 90.7 102.1 1.4 37.8-33.1 107.7-117.9 110.9-48.8 1.8-64.9-19.3-95.6-14.4-18.3 3-26.5 21-26.5 21l-59.3-150.3h-115.1l-25.1 56.6c0 0-18.2 39.9-4.2 59.4 13.9 19.6 43.2 16.1 43.2 16.1v11.2h-195.3v-11.2c0 0 22.3 7 37.7-14 15.3-20.9 12.5-39.1 12.5-39.1v-258l-127 322.3-133.9-316.1-1.4 232.2c0 0 2.1 48.9 16 61.5 14 12.6 33.5 12.6 33.5 12.6v9.8h-119.3v-9.8c0 0 30.3 2.6 41.9-18.2 16-28.6 16.7-60.1 16.7-60.1v-207c0 0-3.2-19.2-9.8-26.5-11.1-12.6-37.6-15.4-37.6-15.4v-7h115.8l101.9 247.5 98.3-247.5h108.2v7c0 0-21.9 1.9-30.7 8.4-13.3 9.8-14 19.5-14 19.5v290.9l6.3-10.5c0 0 14-32.1 22.3-48.2 8.4-16.1 34.9-73.4 39.8-86 4.9-12.6 87.9-202.1 87.9-202.1zm27.2 210.5l-51.6-128.7-55.8 128.7zm591 93.7c-39.5 59.7-97.7 61.5-117.3 62.2-37.6 1.4-166-27.3-164.6-172 1.4-148.3 121.4-181.8 170.2-183.2 48.9-1.4 57.2 18.2 78.2 15.4 20.9-2.8 34.2-20.3 34.2-20.3l6.2 98.6h-6.9c0 0-21.7-83.9-109.6-83.2-99.8 0.8-107.5 131.2-108.1 173.4-0.7 45.4 13.3 161.2 103.9 158 99.1-3.5 117.9-94.4 117.9-94.4 0 0 23.1 4.2-4.1 45.5zm11.1-117.5c0-104.2 81.4-178.3 180-178.3 98.7 0 178.6 65.7 178.6 178.3 0 98.5-80.6 178.3-179.3 178.3-98.6 0-183.5-69.9-179.3-178.3zm179.3 166.4c71.2 0 115-72.9 115-166.4 0-93.5-36.1-169.2-114.3-167.8-73.2-0.7-115.8 74.3-115.8 167.8 0 93.5 40.5 165 115.1 166.4z"/>
			</g>
		</g>
	</g>
</svg>