<svg version="1.2" xmlns="http://www.w3.org/2000/svg" viewBox="0 0 1584 1361" width="1584" height="1361">
	<title>McCormick 2021 Annual Report - Bookmarked Interactive-1-pdf-svg</title>
	<defs>
		<clipPath clipPathUnits="userSpaceOnUse" id="cp1">
			<path d="m-1362-23547h20551v26601h-20551z"/>
		</clipPath>
	</defs>
	<style>
		.s0 { fill: #e41d37 } 
		.s1 { fill: #00539b } 
	</style>
	<g id="Clip-Path: Page 1" clip-path="url(#cp1)">
		<g id="Page 1">
			<path id="Path 7" class="s0" d="m1581.5 1089.1l-346.6 271.3-276.5-216.6v-318.3l421-329.8 199.2 156c-26.3 73.8-96.6 126.8-179.5 126.8-78.7 0-146-47.9-175.1-116v307.4c0 96.7 78.4 175.1 175.1 175.1 68.2 0 140.8-54.3 165.1-73.2z"/>
			<path id="Path 8" class="s1" d="m1224 149.6v394.4l-265.6 208v-451.6c0-64-51.9-115.8-115.8-115.8v1163.2h-265.7v-1047.4c0-64-51.7-115.8-115.7-115.8v1163.2h-265.2v-1021.4c0-63.9-51.8-115.7-115.7-115.7-21.8 0-47.8 6.8-62.5 18.3l-17.3-17.3 270-211.4 190.7 149.3 190.7-149.3 190.7 149.3 190.7-149.3z"/>
			<path id="Path 9" fill-rule="evenodd" class="s0" d="m1511.1 1360.4c-40 0-72.4-33.1-72.4-74 0-41 32.4-74.1 72.4-74.1 40 0 72.4 33.1 72.4 74.1 0 40.9-32.4 74-72.4 74zm57.6-74c0-32.9-25.8-59.5-57.6-59.5-31.9 0-57.7 26.6-57.7 59.5 0 32.9 25.8 59.5 57.7 59.5 31.8 0 57.6-26.6 57.6-59.5z"/>
			<path id="Path 10" fill-rule="evenodd" class="s0" d="m1528.3 1291.2l22.1 36.5h-17.8l-1-1.1-19.7-33.1h-13.6v34.2h-15.5v-84.9h32.3c18.4 0 29.8 9.8 29.8 25.8 0 10.9-5.9 19.1-16.6 22.6zm0.4-23.1c0-7.7-4.4-11.5-13.3-11.5h-17.1v22.9h17.1c9.1 0 13.3-3.5 13.3-11.4z"/>
		</g>
	</g>
</svg>