<svg version="1.2" xmlns="http://www.w3.org/2000/svg" viewBox="0 0 1616 221" width="1616" height="221">
	<title>mck_logo_blue-svg</title>
	<style>
		.s0 { fill: #005a8c } 
		.s1 { fill: #ef8200 } 
	</style>
	<path id="Layer" class="s0" d="m1616 4.2v211.2h-59.9c0 0-72.3-125.9-80.4-139.9v139.9h-47.9v-211.2h62.1l78.2 136.3v-136.3z"/>
	<path id="Layer" class="s0" d="m151.8 4.2h67.3v211.2h-47v-144.8c-7.5 24.3-45.9 144.8-45.9 144.8h-35.5c0 0-36.4-119.3-43.9-144.2v144.3h-46.8v-211.3h67.3c0 0 38 116.8 42.1 129.2 3.9-12.3 42.1-129.2 42.1-129.2"/>
	<path id="Layer" class="s0" d="m774.1 215.4h-156.4v-211.2h156.4v41h-105.5v39.3h96.7v40.9h-96.7v49.1h105.5v40.9z"/>
	<path id="Layer" class="s1" d="m262.1 177.3h114.7v38.1h-114.7z"/>
	<path id="Layer" class="s0" d="m593.1 4.2l-87.1 98.2c3.3 3.5 92.5 113 92.5 113h-67.3c0 0-58-83.2-66.5-93.2v93.3h-48.1v-211.3h48.1v80c8.3-9.3 64.8-80 64.8-80z"/>
	<path id="Layer" fill-rule="evenodd" class="s0" d="m1194.2 109.2c0-65 35.7-109.2 100.1-109.2 64.4 0 100.3 45 100.3 109.2 0 64.3-34.5 110.5-100 110.5-65.5 0-100.1-45.3-100.1-110.5m99.8 66c35.9 0 49.1-34 49.1-66 0-31.9-14.4-64.8-49.1-64.8-34.7 0-49 32.8-49 64.8 0 32.9 13.1 66 49 66z"/>
	<path id="Layer" class="s0" d="m908.6 87.5c32.1 8.3 70 20.2 70 63.3q0.1 6.1-1 12.2-1.1 6-3.4 11.7-2.3 5.7-5.7 10.8-3.4 5.2-7.7 9.5c-16 16.2-42.6 25-74.8 25-29.5 0-48-5.1-78.5-17.1l13.7-42.5q6.9 4.4 14.4 7.9 7.5 3.4 15.4 5.8 7.9 2.4 16 3.6 8.2 1.3 16.4 1.4c17.9 0 44.5-6 44.5-22.4 0-16.3-22-19.6-44-25.7-33.9-9.7-74.2-21.4-74.2-62.8 0-41.5 32.8-67.5 85.9-68.1q9.9 0.1 19.7 1 9.8 1 19.5 2.9 9.7 1.9 19.2 4.6 9.4 2.8 18.6 6.5l-10.4 43q-6-3.5-12.4-6.3-6.5-2.7-13.1-4.7-6.7-1.9-13.6-3-6.9-1.2-13.9-1.5c-14.6-1.1-33.2 1.4-41.3 8.8q-1.2 1-2.1 2.3-0.9 1.2-1.5 2.6-0.6 1.4-0.9 2.9-0.3 1.5-0.3 3.1c0.5 14.8 22.3 18.6 45.4 24.7"/>
	<path id="Layer" class="s0" d="m1100.2 87.6c32 8.3 70.1 20.2 70.1 63.2q0.1 6.2-1 12.2-1.1 6.1-3.4 11.8-2.3 5.7-5.7 10.8-3.4 5.1-7.7 9.5c-16 16.1-42.7 25-74.8 25-29.5 0-48.1-5.1-78.5-17.1l13.7-42.5q7 4.4 14.4 7.9 7.5 3.4 15.4 5.8 7.9 2.4 16.1 3.6 8.1 1.3 16.4 1.4c17.8 0 44.4-6 44.4-22.4 0-16.4-22-19.6-44-25.8-33.8-9.7-74.1-21.3-74.1-62.8 0-41.4 32.8-67.5 85.9-68q9.8 0.1 19.6 1 9.9 1 19.6 2.9 9.6 1.8 19.1 4.6 9.5 2.8 18.6 6.5l-10.3 42.9q-6-3.5-12.4-6.2-6.5-2.8-13.2-4.7-6.7-2-13.6-3.1-6.8-1.2-13.8-1.5c-14.6-1.1-33.1 1.4-41.4 8.8q-1.1 1.1-2 2.3-0.9 1.3-1.4 2.7-0.6 1.4-0.9 2.9-0.3 1.5-0.3 3c0.6 14.8 22.4 18.6 45.5 24.7"/>
	<path id="Layer" class="s0" d="m333.4 155.1c-50.6 0-82.8-28.9-82.8-77.4 0-48.4 32.2-77.5 82.8-77.5q6.4-0.1 12.6 0.5 6.3 0.6 12.5 1.8 6.2 1.3 12.2 3.1 6 1.9 11.8 4.5l-14.6 34q-2.9-1.7-5.9-2.9-3.1-1.3-6.3-2.2-3.2-0.9-6.5-1.3-3.2-0.4-6.5-0.4c-24.9 0-45.4 12.3-45.4 40.5 0 28.2 20.5 40.5 45.4 40.5q3.3 0.1 6.6-0.4 3.2-0.4 6.4-1.3 3.2-0.9 6.3-2.2 3-1.4 5.9-3.1l14.6 34.2q-5.8 2.5-11.8 4.4-6 1.9-12.2 3.1-6.2 1.2-12.5 1.8-6.3 0.5-12.6 0.4"/>
</svg>