<svg version="1.2" baseProfile="tiny-ps" xmlns="http://www.w3.org/2000/svg" viewBox="0 0 1902 313" width="1902" height="313">
	<title>Medtronic_logo-svg</title>
	<style>
		tspan { white-space:pre }
		.shp0 { fill: #224a87 } 
	</style>
	<g id="layer1">
		<path id="path11008" fill-rule="evenodd" class="shp0" d="M552.41 193.49C552.41 204.15 551.52 215.22 549.74 224.08L390.34 224.08C396.08 250.69 418.67 267.09 461.17 267.09C461.4 267.09 461.57 267.07 461.74 267.07C461.92 267.07 462.03 267.05 462.2 267.05C464.88 267.05 467.5 266.93 470.1 266.82C471.49 266.76 472.9 266.65 474.29 266.53C475.4 266.42 476.49 266.31 477.58 266.25C495.27 264.45 512.1 259.69 527.54 252.45C528.75 251.87 529.99 251.3 531.16 250.69L531.18 250.69C534.31 249.12 537.35 247.38 540.35 245.61L541.7 245.61L541.7 290.48C518.37 304.62 491.02 312.75 461.76 312.75L461.76 312.64C460.69 312.66 459.64 312.75 458.55 312.75C378.39 312.75 334.56 267.1 334.56 200.6C334.56 129.22 379.72 82.24 445.25 82.24C510.79 82.24 552.42 128.78 552.42 193.5M500.15 181.09C497.49 147.84 480.22 128.33 445.23 128.33C412.91 128.33 393 148.73 389.45 181.09L500.15 181.09ZM18.38 2.45L108.72 2.45L149.45 185.97L158.76 232.52L159.65 232.52L168.5 185.97L209.24 2.45L299.57 2.45L318.17 308.31L261.5 308.31L250.86 117.26L248.64 65.39L247.76 65.39L236.69 117.26L191.98 308.31L123.78 308.31L79.5 117.26L67.98 65.39L67.09 65.39L64.88 117.26L54.7 308.31L0.23 308.31L18.38 2.45ZM937.68 312.75C886.75 312.75 857.95 289.25 857.95 236.07L857.95 131.44L796.85 131.44L796.85 242.7C796.85 259.11 803.06 265.76 816.34 265.76C819.44 265.76 822.97 265.76 826.96 264.88L828.29 264.88L828.29 308.31C822.97 309.64 812.35 310.98 804.39 310.98C774.28 310.98 755.66 299.46 747.7 274.18C731.76 299.01 706.53 312.75 675.09 312.75C618.85 312.75 573.24 268.87 573.24 197.05C573.24 126.12 618.85 82.24 675.09 82.24C702.96 82.24 726.02 92.87 741.94 112.38L741.94 2.45L796.85 2.45L796.85 86.68L857.95 86.68L857.95 33.92L912.87 33.92L912.87 86.68L971.78 86.68L971.78 131.45L912.87 131.45L912.87 233.41C912.87 255.56 923.93 266.21 945.21 266.21C954.95 266.21 961.58 265.32 970.45 263.11L971.78 263.11L971.78 308.32C961.14 310.98 948.3 312.75 937.68 312.75L937.68 312.75ZM686.6 266.21C723.8 266.21 744.6 237.4 744.6 197.05C744.6 157.15 723.8 128.34 686.6 128.34C648.95 128.34 629.47 157.15 629.47 197.05C629.47 237.4 648.95 266.21 686.6 266.21ZM1051.03 308.32L996.12 308.32L996.12 86.68L1048.82 86.68L1048.82 127.01C1058.99 100.42 1076.71 84.02 1103.27 84.02C1111.69 84.02 1119.23 85.35 1124.97 87.55L1124.97 138.99L1124.09 138.99C1117.9 137.2 1111.25 136.31 1105.06 136.31C1069.64 136.31 1051.04 156.26 1051.04 192.17L1051.03 308.32ZM1242.34 312.75C1172.82 312.75 1125.86 262.22 1125.86 197.5C1125.86 132.78 1172.82 82.24 1242.34 82.24C1311.41 82.24 1358.36 132.78 1358.36 197.5C1358.36 262.22 1311.41 312.75 1242.34 312.75ZM1242.34 265.32C1281.74 265.32 1302.11 236.52 1302.11 197.5C1302.11 158.48 1281.74 129.67 1242.34 129.67C1203.81 129.67 1182.11 158.48 1182.11 197.5C1182.11 236.52 1203.81 265.32 1242.34 265.32ZM1442.62 308.32L1387.7 308.32L1387.7 86.68L1440.4 86.68L1440.4 122.15C1452.37 98.2 1473.63 82.24 1505.51 82.24C1565.29 82.24 1592.73 129.23 1592.73 182.43L1592.73 308.32L1537.84 308.32L1537.84 184.65C1537.84 149.18 1523.21 128.34 1491.77 128.34C1459.89 128.34 1442.62 150.51 1442.62 184.65L1442.62 308.32ZM1689.71 32.59C1689.71 50.33 1675.54 65.4 1656.96 65.4C1639.25 65.4 1624.61 50.33 1624.61 32.59C1624.61 14.86 1639.25 0.23 1656.96 0.23C1675.54 0.23 1689.71 14.86 1689.71 32.59ZM1720.28 308.32C1711.85 310.09 1702.12 311.42 1693.25 311.42C1651.2 311.42 1628.6 289.25 1628.6 248.48L1628.6 86.68L1683.96 86.68L1683.96 244.48C1683.96 259.11 1691.04 266.21 1706.11 266.21C1709.64 266.21 1714.07 265.75 1718.95 264.88L1720.28 264.88L1720.28 308.32ZM1842.48 82.24C1862.41 82.24 1885 87.13 1901.83 96.43L1901.83 145.19L1900.5 145.19C1883.23 135 1865.96 130.12 1846.47 130.12C1804.39 130.12 1781.82 158.93 1781.82 197.5C1781.82 236.07 1804.39 264.88 1846.47 264.88C1865.96 264.88 1883.23 260 1900.5 249.81L1901.83 249.81L1901.83 298.57C1885 307.89 1862.41 312.75 1842.48 312.75C1772.51 312.75 1725.58 262.22 1725.58 197.5C1725.58 132.78 1772.51 82.24 1842.48 82.24Z" />
	</g>
</svg>