<svg version="1.2" baseProfile="tiny-ps" xmlns="http://www.w3.org/2000/svg" viewBox="0 0 1535 449" width="1535" height="449">
	<title>site-logo-svg</title>
	<style>
		tspan { white-space:pre }
		.shp0 { fill: #231f20 } 
		.shp1 { fill: #007a73 } 
	</style>
	<g id="layer1">
		<g id="g14189">
			<path id="path14179" fill-rule="evenodd" class="shp0" d="M728.57 112.56L797.97 112.56L797.97 336.71L746.54 336.71L746.54 185.98L680.75 336.71L611.52 185.79L611.52 336.71L563.53 336.71L563.53 112.56L632.12 112.56L681.57 228.58L728.57 112.56ZM952.78 112.56L952.78 151.9L873.64 151.9L873.64 203.33L949.5 203.33L949.5 241.68L873.64 241.68L873.64 298.71L952.78 298.71L952.78 336.71L823.54 336.71L823.54 112.56L952.78 112.56ZM1324.22 123.8L1324.22 173.74C1306.14 156.42 1290.19 150.56 1266.63 151.9C1218.72 154.64 1193.96 189.71 1193.27 226.59C1192.26 282.09 1253.67 331.66 1324.22 282.2L1324.22 330.22C1232.54 374.88 1145.52 308.11 1145.52 224.68C1145.52 127.76 1257.97 84.52 1324.22 123.8ZM1345.36 114.72L1393 114.72L1393 336.71L1345.36 336.71L1345.36 114.72ZM1535.23 336.71L1480.6 336.71L1397.8 216.32L1469.12 115.21L1524.75 115.21L1452.77 216.51L1535.23 336.71ZM1063.25 112.56C1115.17 112.56 1136.61 154.34 1136.61 179.89C1136.61 205.47 1126.71 231.05 1096.22 242.59L1162.01 336.71L1108.42 336.71L1025.32 216.29L1025.32 336.71L975.05 336.71L975.05 112.56L1063.25 112.56ZM1025.32 215.26L1052.71 215.26C1071.66 215.26 1086.35 200.52 1086.35 183.2C1086.35 174.13 1084.37 149.86 1047.26 149.86L1025.32 149.86L1025.32 215.26Z" />
			<path id="path13366" fill-rule="evenodd" class="shp1" d="M336.46 112.57C336.46 50.66 286.34 0.49 224.47 0.49C162.62 0.49 112.47 50.66 112.47 112.57L336.46 112.57ZM112.47 336.72C112.47 274.83 162.62 224.64 224.47 224.64C162.62 224.64 112.47 174.47 112.47 112.57C50.62 112.57 0.48 162.75 0.48 224.64C0.48 286.56 50.62 336.72 112.47 336.72ZM112.47 336.72C112.47 398.64 162.62 448.81 224.47 448.81C286.34 448.81 336.46 398.64 336.46 336.72L112.47 336.72ZM224.47 224.64C286.34 224.64 336.46 274.83 336.46 336.72C398.32 336.72 448.47 286.56 448.47 224.64C448.47 162.75 398.32 112.57 336.46 112.57C336.46 174.47 286.34 224.64 224.47 224.64Z" />
		</g>
	</g>
</svg>