<svg version="1.2" xmlns="http://www.w3.org/2000/svg" viewBox="0 0 1518 327" width="1518" height="327">
	<title>MetLife_logo-svg</title>
	<defs>
		<clipPath clipPathUnits="userSpaceOnUse" id="cp1">
			<path d="m-130.78-75.34h1806.87v481.92h-1806.87z"/>
		</clipPath>
	</defs>
	<style>
		.s0 { fill: #231f20 } 
		.s1 { fill: #99d538 } 
		.s2 { fill: #239de0 } 
		.s3 { fill: #1563a9 } 
	</style>
	<g id="layer1">
		<g id="g74">
			<g id="Clip-Path: g76" clip-path="url(#cp1)">
				<g id="g76">
					<g id="g82">
						<path id="path84" fill-rule="evenodd" class="s0" d="m1514.4 257.6q-2.6 1.6-7.7 5.3-5.2 3.7-13.4 7.3-8.2 3.5-19.5 6.3-11.3 2.7-25.8 2.7-19.4 0-34.8-5.9-15.5-6-26.3-16.7-10.8-10.6-16.5-25.6-5.6-15-5.6-33.1 0-15.8 5.3-30.5 5.3-14.6 15.3-25.6 10-11 24.5-17.6 14.5-6.6 32.9-6.6 18.4 0 32.3 6.5 13.8 6.4 23.4 17.8 9.5 11.5 14.3 27.5 4.8 15.9 4.8 35v7.7h-107.7q0.4 12.3 10.8 21.5 10.5 9.2 28.9 9.2 18.1 0 29.4-5.4 11.2-5.3 16.4-9.2zm-40.6-75.1q0-4.9-2-9.9-1.9-5-5.8-9.2-3.8-4.1-9.6-6.9-5.9-2.7-13.9-2.7-8.1 0-14.2 2.7-6.1 2.8-10.2 6.9-4 4.2-6.1 9.2-2.1 5-2.1 9.9zm-473.7 79.7q-21.9 17.4-47.7 17.4-16.1 0-27.1-4.7-11-4.7-17.7-12.9-6.8-8.2-9.7-19.8-2.9-11.7-2.9-25.9v-57.1h-24v-36.4h24v-40.5h46.4v40.5h39v36.4h-39v59.7q0 11 4.4 17 4.3 5.9 13.7 5.9 7.1 0 12.2-2.4 5.2-2.4 9.7-5.6zm363.7-163.9q-4.9-3.5-10.7-5.5-5.8-1.9-11.9-1.9-9.7 0-15.5 6.1-5.8 6.1-5.8 17.4v8.4h35.8v36.5h-35.8v114.8h-46.1v-114.8h-24.5v-36.5h24.5v-7.7q0-16.2 5.3-27.8 5.3-11.6 14-19.2 8.8-7.5 19.9-11.3 11.1-3.7 22.7-3.7 12.3 0 24.9 3.6 12.5 3.5 22.8 12.2zm-184.4 24.6h46.4v151.3h-46.4zm-161.8-63.9h48.7v175.3h92.7v39.9h-141.4zm-160.8 198.7q-2.6 1.6-7.8 5.3-5.1 3.7-13.4 7.3-8.2 3.5-19.5 6.2-11.3 2.8-25.8 2.8-19.3 0-34.8-6-15.5-5.9-26.3-16.6-10.8-10.6-16.4-25.6-5.7-15-5.7-33.1 0-15.8 5.3-30.5 5.3-14.7 15.4-25.6 10-11 24.5-17.6 14.5-6.6 32.9-6.6 18.3 0 32.2 6.4 13.9 6.5 23.4 17.9 9.5 11.5 14.3 27.4 4.9 16 4.9 35.1v7.7h-107.7q0.3 12.2 10.8 21.4 10.4 9.2 28.8 9.2 18.1 0 29.4-5.3 11.3-5.3 16.4-9.2zm-40.6-75.1q0-4.9-1.9-9.9-2-5-5.8-9.2-3.9-4.2-9.7-6.9-5.8-2.8-13.9-2.8-8.1 0-14.2 2.8-6.1 2.7-10.1 6.9-4.1 4.2-6.2 9.2-2.1 5-2.1 9.9zm-342.1-123.6h46.1l56.1 101 54.8-101h46.5l10 215.2h-48.7l-6.2-140.7-44.5 83.9h-25.1l-47.1-82.9-5.5 139.7h-46.4zm728.7 46.5c-14.4 0-26.2-11.8-26.2-26.1 0-14.4 11.8-26.2 26.2-26.2 14.7 0 26.1 11.4 26.1 26.2 0 14.3-11.8 26.1-26.1 26.1z"/>
					</g>
					<g id="g86">
						<path id="path88" class="s1" d="m333.7 1.2c10.5-2.8 20.8 5.3 20.8 16.2v292.5c0 9.2-7.5 16.7-16.7 16.7h-105.7c2.4-15.1 3.7-30.6 3.7-46.4 0-65.3-21.7-125.6-58.2-173.9 38.3-50.8 92.9-88.4 156.1-105.1z"/>
					</g>
					<g id="g90">
						<path id="path92" class="s2" d="m17.3 326.6c-9.2 0-16.7-7.5-16.7-16.7v-292.5c0-10.9 10.3-19 20.8-16.2 63.2 16.7 117.8 54.3 156.2 105.1-36.6 48.3-58.3 108.6-58.3 173.9 0 15.8 1.3 31.3 3.8 46.4z"/>
					</g>
					<g id="g94">
						<path id="path96" class="s3" d="m235.8 280.2c0 15.8-1.3 31.3-3.7 46.4h-109c-2.5-15.1-3.7-30.6-3.7-46.4 0-65.3 21.6-125.6 58.2-173.9 36.5 48.3 58.2 108.6 58.2 173.9z"/>
					</g>
				</g>
			</g>
		</g>
	</g>
</svg>