<svg version="1.2" xmlns="http://www.w3.org/2000/svg" viewBox="0 0 1543 298" width="1543" height="298">
	<title>download (2)-svg</title>
	<style>
		.s0 { fill: #927239 } 
	</style>
	<g id="Layer">
		<path id="Layer" fill-rule="evenodd" class="s0" d="m450 202.4h-20.2v-72.4l-29.4 53.8h-11.8l-30.2-53.8v72.4h-20.2v-110.3h20.2l36.1 64 35.3-64h20.2zm121.1-2.5c-12.6 3.3-24.4 5-36.2 5-18.5 0-33.6-5.9-45.4-16.8-10.9-10.9-16.8-24.4-16.8-40.4 0-16.8 5.9-30.3 17.7-41.2 11.7-11 26-16 44.5-16 10.9 0 21 0.8 31.1 3.3l-2.5 17.7c-10.9-1.7-19.3-2.5-26.1-2.5-13.4 0-24.3 3.4-31.9 10.1-7.6 6.7-10.9 16-10.9 28.6 0 10.9 3.3 20.2 10.9 27.8 6.7 6.7 16.8 10.9 28.6 10.9 5.9 0 11.7-0.8 17.6-1.7v-37h19.4zm138.7 2.5h-20.2v-72.4l-30.3 53.9h-11.7l-29.5-53.9v72.4h-20.1v-110.2h20.1l36.2 63.9 35.3-63.9h20.2zm174.9 0h-26.1l-30.3-42.1h-26.9v42.1h-21v-110.3h57.2c10.1 0 19.3 3.4 26 10.1 6.8 6.7 10.1 14.3 10.1 24.4 0 6.8-1.6 13.5-5.9 18.5-4.2 5.9-9.2 10.1-15.9 12.7zm-32.8-75.8q0-7.6-5.1-12.6-5-5.1-12.6-5.1h-32.8v34.5h32.8q7.6 0 12.6-5c3.4-2.5 5.1-6.7 5.1-11.8zm129.5 75.8h-79.1v-110.3h79.1v18.5h-58.1v26.1h54.7v18.5h-54.7v29.5h58.1zm109.3-29.5c0 10.1-4.2 17.7-12.7 23.6-8.4 5.9-19.3 8.4-32.7 8.4-16.9 0-32-3.4-45.4-9.3l5-16.8c14.3 5.1 28.6 7.6 40.4 7.6 16.8 0 24.3-4.2 24.3-13.5 0-3.3-1.6-6.7-5.8-9.2-3.4-1.7-10.1-5.1-22.7-9.3-14.3-5-23.6-10.1-28.6-14.3-5.9-5.1-8.4-11.8-8.4-21 0-19.4 14.3-28.7 43.7-28.7 14.3 0 27.7 1.7 39.5 5.1l-3.4 16.8c-12.6-2.5-24.4-4.2-36.1-4.2-8.4 0-14.3 0.9-18.5 2.5-3.4 1.7-5.1 4.2-5.1 8.5 0 4.2 2.6 6.7 6.8 10.1 3.3 1.6 10.9 5 24.3 10.1 14.3 5 22.7 10.1 26.9 13.4 5.9 4.2 8.5 11 8.5 20.2zm124.4-25.2c0 16-5.1 29.4-16 40.4-10.9 10.9-23.5 16.8-39.5 16.8-16 0-28.6-5.9-39.5-16.8-10.9-11-16-24.4-16-40.4 0-16 5.1-29.5 16-40.4 10.9-11 23.5-16.9 39.5-16.9 16 0 28.6 5.9 39.5 16.9 10.9 10.9 16 24.4 16 40.4zm-21 0c0-11-3.4-20.2-9.3-27.8-5.9-7.6-14.3-10.9-25.2-10.9-10.1 0-18.5 3.3-24.4 10.9-5.9 7.6-9.2 16-9.2 27.8 0 10.9 3.3 20.2 9.2 26.9 5.9 7.6 14.3 11 25.2 11 10.1 0 18.5-3.4 25.3-11 5.8-6.7 8.4-16 8.4-26.9zm147.9 54.7h-26l-30.3-42.1h-26.9v42.1h-21v-110.3h57.2c10 0 19.3 3.4 26 10.1 6.7 6.8 10.1 14.3 10.1 24.4 0 6.8-1.7 13.5-5.9 18.6-4.2 5.8-9.2 10.1-16 12.6zm-32.7-75.8q0-7.5-5.1-12.6-5-5-12.6-5h-32.8v34.5h32.8q7.6 0 12.6-5.1c3.4-2.5 5.1-6.7 5.1-11.8zm131.1-16h-36.1v91.8h-21.1v-91.8h-36.9v-18.5h94.1zm102.6 62.3c0 10.1-4.2 17.7-12.6 23.6-8.4 5.9-19.4 8.4-32.8 8.4-16.8 0-32-3.4-45.4-9.3l5-16.8c14.3 5 28.6 7.6 40.4 7.6 16.8 0 24.4-4.2 24.4-13.5 0-3.4-1.7-6.7-5.9-9.3-3.4-1.6-10.1-5-22.7-9.2-14.3-5.1-23.6-10.1-28.6-14.3-5.9-5.1-8.4-11.8-8.4-21.1 0-19.3 14.3-28.6 43.7-28.6 14.3 0 27.8 1.7 39.5 5.1l-3.3 16.8c-12.7-2.5-24.4-4.2-36.2-4.2-8.4 0-14.3 0.8-18.5 2.5-3.4 1.7-5 4.2-5 8.4 0 4.2 2.5 6.8 6.7 10.1 3.4 1.7 10.9 5.1 24.4 10.1 14.3 5.1 22.7 10.1 26.9 13.5 5.9 4.2 8.4 10.9 8.4 20.2z"/>
		<path id="Layer" fill-rule="evenodd" class="s0" d="m68.3 128.3c-17.7 10.1-35.3 25.2-35.3 47.1v17.7c-13.5-20.2-17.7-44.6-17.7-70.7 14.3 8.4 34.5 12.6 53 5.9zm-12.6-41.2c9.2 5 19.3 9.2 31.1 10.1l4.2 8.4c-8.4-11-24.4-9.3-37-7.6-8.4 0-16.8 11.8-22.7 7.6-7.6 0.8-14.3-0.9-19.3-4.2 15.9 4.2 25.2-22.8 43.7-14.3zm-20.2 11.7c-2.5-4.2-11.8 1.7-10.9 5.1h5.9zm-34.5-85c10.9 2.5 21 8.4 28.6 19.3 5 13.5 1.7 23.6-10.9 28.7-5.9 0-11.8-1.7-17.7-3.4zm38.7 282.8c29.4-35.4 0.8-92.6 21-133.8 6.7-10.1 10.9-16.9 21-27l0.9 0.9c-11 13.4-20.2 26.1-21.9 42.9-1.7 42.1 63.9 67.3 30.3 111.1-1.7 2.5-4.2 5-5.9 6.7zm108.4-295.4h148v296.3h-148c44.6-34.5 73.2-87.6 73.2-148.2 0-60.6-28.6-114.4-73.2-148.1zm-147.9 173.4c25.2 37 66.4 69.8 31.9 117l-5.9 5.9h-25.2zm77.3-161.6c4.3 8.4 2.6 24.4-1.6 34.5l-31.1 3.3c1.6-16.8-9.3-30.3-23.6-38.7-5.9-2.5-13.4-5-20.2-5.9v-5h69.8c2.5 2.5 5.1 6.7 6.7 11.8zm27-12.7c13.4 5.1 21 11.8 31.9 20.2-16-4.2-31.1 1.7-43.7 11-0.9-9.3-0.9-21.1-7.6-30.3zm2.5 297.1h-10.9c11.8-18.5 19.3-42.9 8.4-64 18.5 1.7 34.5-5 45.4-20.2 1.7-3.3-1.7-5-4.2-7.5-13.4 5-27.7 11.7-43.7 9.2-10.1-8.4-26.1-14.3-29.4-28.6 2.5-12.6-0.9-29.5 11.7-37.9 0 0.9 0 1.7 0 3.4 9.3 1.7 18.5 7.6 27.8 5 8.4-9.2 20.2-12.6 29.4-21 3.4 4.2 9.3 1.7 13.5 2.5 20.1 19.4 22.7 48.8 19.3 76.6-2.5 43.8-33.6 67.3-67.3 82.5zm37-108.6c-4.2-0.8-2.5 5.1-6.7 6.8-8.4-1.7-19.3 14.3-23.5 0.8l-2.6 2.5c0 4.2-1.6 10.1 2.6 13.5 11.7-6.7 37-2.5 30.2-23.6zm1.7-45.4c-5.9-5.1-21.8 7.5-27.7 13.4 0 5.1-2.6 13.5 2.5 14.3 2.5-1.6 0.8-5.8 1.7-8.4 4.2-8.4 11.7-10.9 19.3-12.6l3.4 8.4 2.5-6.7c0.8-3.4 0-7.6-1.7-8.4zm25.2 103.5c14.3-33.7 20.2-85.9-8.4-115.3-5.9-7.6 1.7-21.9-11.7-25.3-3.4 4.2-5.9 16-13.5 11-7.6-5.1-16.8-5.9-25.2-9.3 10.1-2.5 28.6 5.9 35.3-6.7-0.8-3.4-2.5-8.4-6.7-9.3-8.4 3.4-6.8-3.3-11-7.5-10.1-2.6-23.5-3.4-28.5-14.4 6.7-3.3 10.9 6.8 15.9 11 4.2-1.7 1.7-5.9 2.5-9.3-9.2-8.4-20.1-16.8-30.2-22.7 5-8.4 19.3-19.4 33.6-20.2 37.8-2.5 66.4 40.4 75.7 72.4 8.4 32 11.7 111.1-27.8 145.6z"/>
	</g>
</svg>