<svg version="1.2" xmlns="http://www.w3.org/2000/svg" viewBox="0 0 1577 365" width="1577" height="365">
	<title>Microchip_logo-svg</title>
	<defs>
		<clipPath clipPathUnits="userSpaceOnUse" id="cp1">
			<path d="m0.4-1.13h1576.05v367h-1576.05z"/>
		</clipPath>
	</defs>
	<style>
		.s0 { fill: #231f20 } 
		.s1 { fill: #ffffff } 
		.s2 { fill: #ee2223 } 
	</style>
	<g id="layer1">
		<g id="g38">
			<g id="Clip-Path: g40" clip-path="url(#cp1)">
				<g id="g40">
					<g id="g46">
						<path id="path48" class="s0" d="m601.3 247.4l-9.2-115.7h-0.4l-35.6 92.3c-3.3 8.7-10.6 15.7-20.9 15.7-10.2 0-18.3-8.5-20.8-15.7l-34.9-91.2h-0.3l-10.1 114.6-34-0.1 17.4-163.1c1.1-9 8.5-19.2 18.6-19.2 15.3 0 21.5 9 24.6 18l39.3 99h0.4l39.4-99c3.5-9 9.4-18 24.6-18 10 0 17.4 10.2 18.6 21.3l17.2 161z"/>
					</g>
					<path id="path50" class="s0" d="m653.2 109.4h31.7v138h-31.7z"/>
					<path id="path52" class="s0" d="m1402.9 109.4h31.7v138h-31.7z"/>
					<g id="g54">
						<path id="path56" class="s0" d="m702.4 157.8c0-40.4 15.5-49.9 41.4-49.9h33.9c41 0 46.3-2.7 46.1 36.4l-74.3-0.2c-15.2 0-17.5 9.7-17.5 26.9v14.8c0 20 2.9 27.6 16.5 27.6h76.4c0 23.2-0.3 35.5-29.2 35.5h-51.9c-25.9 0-41.4-9.6-41.4-49.9z"/>
					</g>
					<g id="g58">
						<path id="path60" fill-rule="evenodd" class="s0" d="m946.5 193v0.4c8.5 2.3 15.7 7.8 15.7 30.5v23.4h-28.8v-16.5c0-14.5-2.9-19.3-11.8-19.3h-50.5v35.8h-28.8v-137.9h92.1c22.2 0 28.2 16.2 28.2 41v8.7c0 18.5-2.9 29.4-16.1 33.9zm-12-34.8c0-12.2-4.1-14.5-13.2-14.5h-50.2v33.5h52.8c7.8 0 10.6-4.5 10.6-14.4z"/>
					</g>
					<g id="g62">
						<path id="path64" fill-rule="evenodd" class="s0" d="m980 157.8c0-40.4 15.4-49.9 41.4-49.9h46.2c25.9 0 41.4 9.5 41.4 49.9v41.2c0 40.3-15.5 49.9-41.4 49.9h-46.2c-26 0-41.4-9.6-41.4-49.9zm29.5 28c0 20 2.9 27.6 16.5 27.6h36.9c13.6 0 16.5-7.6 16.5-27.6v-14.9c0-17.2-2.9-27.6-18.1-27.6h-33.7c-15.2 0-18.1 10.4-18.1 27.6z"/>
					</g>
					<g id="g66">
						<path id="path68" class="s0" d="m1264.2 109.4h28.8v49.2h60.7v-49.2h28.8v138h-28.8v-52.3h-60.7v52.3h-28.8z"/>
					</g>
					<g id="g70">
						<path id="path72" fill-rule="evenodd" class="s0" d="m1576.5 156.7v11.8c0 20.5-6.1 44.2-26.5 44.2h-67.8v34.7h-28.8v-138h89c27.4 0 34.1 20.2 34.1 47.3zm-29.6 1.7c0-9.4-3.2-14.7-11.9-14.7h-52.8v34.7h55.3c6.8 0 9.4-6.5 9.4-14.7z"/>
					</g>
					<g id="g74">
						<path id="path76" class="s0" d="m1124.6 158c0-40.4 15.5-49.9 41.4-49.9h33.9c41 0 46.2-2.7 45.9 36.4l-74.1-0.1c-15.2 0-17.5 9.6-17.5 26.8v14.8c0 20 2.9 27.6 16.5 27.6h76.4c0 23.2-0.3 35.5-29.2 35.5h-51.9c-25.9 0-41.4-9.5-41.4-49.9z"/>
					</g>
					<g id="g78">
						<path id="path80" class="s1" d="m382.3 206.6c-12.4 88.5-92.6 156.9-189.8 156.9-105.8 0-191.6-80.9-191.6-180.8 0-99.8 85.8-180.7 191.6-180.7 19.4 0 38.2 2.7 55.9 7.8z"/>
					</g>
					<g id="g82">
						<path id="path84" fill-rule="evenodd" class="s2" d="m385.4 197.2c-0.7 21.7-4.1 26.3-10.6 41.4l-0.1 0.6c0 0-64-101.5-98.1-155-4.7-7.5-18.9-23.1-34.7-0.7-14.4 20.4-32.7 46.2-32.7 46.2l116.3 183.7c-35.3 33-83 52.5-136.4 51.5-55.1-0.9-103.4-22.9-137.7-58.9 0 0 49.7-68.7 50.2-69.5 8.4-12.8-2.7-25.4-2.7-25.4l-37-58-54.7 76.7c-4.5-16-6.8-32.9-6.5-50.3 1.8-100.6 88.9-180.6 194.7-178.8 29.3 0.5 52.1 6.3 76.8 17.9zm-238.8-113.5c-4.8-7.4-19-23.1-34.8-0.6-14.3 20.4-32.7 46.2-32.7 46.2l98.5 154.9c0 0 14 29.8 32.9 4 3.2-4.3 34.1-49.5 34.1-49.5 0 0-63.9-101.5-98-155z"/>
					</g>
					<g id="g86">
						<path id="path88" fill-rule="evenodd" class="s0" d="m302.4 28.4c0-8.5 6.9-14.8 15-14.8 8.1 0 14.9 6.3 14.9 14.8 0 8.5-6.8 14.7-14.9 14.7-8.1 0-15-6.2-15-14.7zm15 12.3c6.7 0 12-5.3 12-12.3 0-7-5.3-12.3-12-12.3-6.7 0-12 5.3-12 12.3 0 7 5.3 12.3 12 12.3zm-3.1-3.8h-2.6v-17h6.5c4 0 6 1.5 6 4.8 0 3.1-1.9 4.4-4.4 4.7l4.9 7.5h-2.9l-4.5-7.4h-3zm3.1-9.6c2.2 0 4.1-0.1 4.1-2.7 0-2.1-1.9-2.5-3.7-2.5h-3.5v5.2z"/>
					</g>
				</g>
			</g>
		</g>
	</g>
</svg>