<svg version="1.2" baseProfile="tiny-ps" xmlns="http://www.w3.org/2000/svg" viewBox="0 0 1600 442" width="1600" height="442">
	<title>Micron_Technology_logo (1)-svg</title>
	<defs>
		<clipPath clipPathUnits="userSpaceOnUse" id="cp1">
			<path d="M-0.14 -0.36L-0.14 441.66L1600.33 441.66L1600.33 -0.36" />
		</clipPath>
		<clipPath clipPathUnits="userSpaceOnUse" id="cp2">
			<path d="M0 0L1600 0L1600 441.26L0 441.26L0 0L0 0Z" />
		</clipPath>
		<clipPath clipPathUnits="userSpaceOnUse" id="cp3">
			<path d="M-658.1 -593.97L7732.65 -593.97L7732.65 10272.82L-658.1 10272.82L-658.1 -593.97Z" />
		</clipPath>
	</defs>
	<style>
		tspan { white-space:pre }
		.shp0 { fill: #018dd6 } 
	</style>
	<g id="layer1">
		<g id="g7589">
			<g id="Clip-Path: g7591" clip-path="url(#cp1)">
				<g id="g7591">
					<g id="Clip-Path: g7597" clip-path="url(#cp2)">
						<g id="g7597">
							<g id="Clip-Path: g7603" clip-path="url(#cp3)">
								<g id="g7603">
									<g id="g7609">
										<path id="path7611" class="shp0" d="M764.16 348.94C691.24 348.94 625.8 307.49 625.8 249.54C625.8 191.55 691.24 150.06 764.68 150.06C796.61 150.06 826.43 158.13 858.86 176.23L836 205.62C815.22 195.56 790.75 189.54 764.68 189.54C733.81 189.54 698.16 206.84 698.16 249.54C698.16 292.21 733.29 309.5 764.68 309.5C790.75 309.5 815.75 304.27 837.03 294.99L859.93 326C832.8 340.52 799.79 348.94 764.16 348.94Z" />
									</g>
									<g id="g7613">
										<path id="path7615" fill-rule="evenodd" class="shp0" d="M1041.81 248.78C1041.81 190.8 1107.28 149.31 1180.72 149.31C1254.14 149.31 1319.61 190.8 1319.61 248.78C1319.61 306.73 1254.14 348.19 1180.72 348.19C1107.28 348.19 1041.81 306.73 1041.81 248.78ZM1180.72 188.78C1149.83 188.78 1114.2 206.07 1114.2 248.78C1114.2 291.45 1149.83 308.74 1180.72 308.74C1211.6 308.74 1247.25 291.45 1247.25 248.78C1247.25 206.07 1211.6 188.78 1180.72 188.78Z" />
									</g>
									<g id="g7617">
										<path id="path7619" class="shp0" d="M1349.17 343.39L1417.76 343.39L1417.76 225.01C1417.76 209.02 1430.17 190.21 1452.37 190.09C1467.87 190.21 1482.75 200.83 1482.75 214.3L1482.61 343.39L1551.38 343.39L1551.38 210.64C1551.38 175.68 1513.93 146.5 1469.24 146.5C1468.81 146.5 1468.38 146.55 1467.94 146.56C1467.5 146.55 1467.08 146.5 1466.65 146.5C1448.19 146.5 1430.66 151.89 1416.35 160.92C1416.23 160.41 1412.37 147.72 1349.17 147.72L1349.17 343.39Z" />
									</g>
									<path id="path7621" class="shp0" d="M525.63 343.39L592.82 343.39L592.82 154.17L525.63 154.17L525.63 343.39Z" />
									<g id="g7623">
										<path id="path7625" class="shp0" d="M891.97 343.39L959.19 343.39L959.19 228.64C959.19 210.52 980.46 196.01 1003.35 196.01C1014.54 196.01 1025.07 198.25 1033.91 202.17L1033.91 202.17L1033.91 152.41C1025.99 151.2 1017.43 150.54 1009.88 150.54C991.86 150.54 973.79 155.77 959 164.55C957.9 162.32 949.66 151.74 891.97 151.74L891.97 343.39Z" />
									</g>
									<g id="g7627">
										<path id="path7629" class="shp0" d="M397.44 267.97L397.42 343.4L466.23 343.4L466.23 205.67C446.3 226.25 423.31 247.21 397.44 267.97Z" />
									</g>
									<g id="g7631">
										<path id="path7633" class="shp0" d="M466.23 205.67C542.01 127.44 573.4 54.72 548.96 19.72C523.46 -16.84 444.23 -2.03 341.53 52.28C336.93 54.53 332.86 56.91 329.86 58.99C324.89 62.43 327.79 64.94 331.45 63.61C335.2 62.25 339.48 60.6 344.31 58.23C421.29 21.69 481.34 15.13 504.82 40.64C540.59 79.48 467.33 206.78 340.48 300.95C323.55 313.52 297.42 331.92 280.4 342.14C279.25 342.85 278.11 343.55 277 344.27C272.51 347.22 268.5 349.96 265.35 352.43C262.28 354.82 262.87 358.62 268.41 356.23C271.78 354.79 275.88 352.61 280.24 349.93C281.23 349.33 282.2 348.78 283.23 348.15C302.35 336.53 330.75 316.91 350.15 303.35C366.83 291.69 382.6 279.85 397.44 267.97C423.31 247.21 446.3 226.24 466.23 205.67Z" />
									</g>
									<g id="g7635">
										<path id="path7637" class="shp0" d="M128.45 441.66L197.26 441.66L197.26 370.29C216.08 359.17 235.12 346.97 253.83 334.19C258.04 331.3 261.77 328.42 264.47 325.95C268.93 321.87 265.71 319.77 262.27 321.59C258.73 323.45 254.55 325.98 250.02 328.86C143.73 396.9 71.97 417.66 45.46 381.65C22.44 350.4 60.17 289.97 128.45 221.73L128.45 380.13C147.83 373.55 170.72 363.05 197.25 348.29L197.24 201.32L212.37 233.55C228.96 269.15 259.07 290.43 297.35 290.43C335.62 290.43 365.72 269.15 382.31 233.55L397.45 201.32L397.44 238.82C422.06 214.92 443.08 191.06 459.02 167.98C461.01 165.13 460.83 162.73 459.75 160.09C449.14 137.93 426.56 122.66 400.32 122.66C374.36 122.66 351.82 137.73 341.02 159.52L312.23 220.64C309.25 226.6 303.77 229.9 297.35 229.9C290.95 229.9 285.44 226.6 282.46 220.64L253.67 159.52C248.19 148.44 239.66 139.11 229.2 132.61C250.26 115.88 270.72 100.94 290.88 88.7C295.46 85.92 299.22 83.13 302.38 80.71C305.49 78.33 304.92 74.53 299.37 76.86C295.99 78.28 291.62 80.43 287.25 83.09C266.65 95.58 245.61 108.35 225.48 122.11C223.04 123.77 220.63 125.45 218.21 127.12C210.81 124.24 202.78 122.66 194.37 122.66C157.9 122.66 128.45 152.15 128.45 188.65L128.45 197.73C31.25 284.47 -19.78 370.36 6.88 408.6C26.46 436.65 72.88 430.17 128.45 406.01L128.45 441.66Z" />
									</g>
									<g id="g7639">
										<path id="path7641" fill-rule="evenodd" class="shp0" d="M1581.35 152C1591.92 152 1600.34 160.6 1600.34 171.34C1600.34 182.27 1591.92 190.77 1581.27 190.77C1570.71 190.77 1562.13 182.27 1562.13 171.34C1562.13 160.6 1570.71 152 1581.27 152L1581.35 152ZM1565.82 171.34C1565.82 180.54 1572.77 187.75 1581.35 187.75C1589.95 187.85 1596.82 180.54 1596.82 171.43C1596.82 162.32 1589.95 155.02 1581.35 155.02L1581.27 155.02C1572.77 155.02 1565.82 162.32 1565.82 171.34ZM1577.67 182.61L1574.22 182.61L1574.22 161.03C1576.03 160.78 1577.75 160.52 1580.34 160.52C1583.6 160.52 1585.74 161.2 1587.03 162.15C1588.32 163.1 1589 164.55 1589 166.61C1589 169.45 1587.11 171.17 1584.8 171.87L1584.8 172.03C1586.69 172.37 1587.98 174.1 1588.4 177.27C1588.92 180.62 1589.43 181.92 1589.77 182.61L1586.17 182.61C1585.66 181.92 1585.14 179.95 1584.71 177.11C1584.21 174.35 1582.82 173.32 1580.07 173.32L1577.67 173.32L1577.67 182.61ZM1577.67 170.66L1580.16 170.66C1583 170.66 1585.4 169.63 1585.4 166.97C1585.4 165.07 1584.03 163.18 1580.16 163.18C1579.04 163.18 1578.27 163.26 1577.67 163.34L1577.67 170.66Z" />
									</g>
								</g>
							</g>
						</g>
					</g>
				</g>
			</g>
		</g>
	</g>
</svg>