<svg version="1.2" baseProfile="tiny-ps" xmlns="http://www.w3.org/2000/svg" viewBox="0 0 1537 344" width="1537" height="344">
	<title>Master Final R&amp;D Day 2021 Slides (09</title>
	<defs>
		<clipPath clipPathUnits="userSpaceOnUse" id="cp1">
			<path d="M-314.84 -1115.21L5180.58 -1115.21L5180.58 1973.06L-314.84 1973.06L-314.84 -1115.21Z" />
		</clipPath>
	</defs>
	<style>
		tspan { white-space:pre }
		.shp0 { fill: #2aace2 } 
		.shp1 { fill: #3fb4e5 } 
		.shp2 { fill: #4cb9e7 } 
		.shp3 { fill: #58bee9 } 
		.shp4 { fill: #65c3eb } 
		.shp5 { fill: #72c8ec } 
		.shp6 { fill: #7fcdee } 
		.shp7 { fill: #8cd2f0 } 
		.shp8 { fill: #98d7f1 } 
		.shp9 { fill: #a5dcf3 } 
		.shp10 { fill: #b2e1f5 } 
		.shp11 { fill: #bfe6f6 } 
		.shp12 { fill: #e31837 } 
	</style>
	<g id="Clip-Path: Page 1" clip-path="url(#cp1)">
		<g id="Page 1">
			<path id="Path 40" class="shp0" d="M1415.7 325.3L1393.78 325.3C1388.68 325.3 1385.99 328.5 1385.99 334.68C1385.99 340.62 1388.68 343.83 1393.78 343.83L1415.7 343.83L1415.93 343.83L1478.27 343.83C1483.59 343.83 1486.28 340.62 1486.28 334.68C1486.28 328.5 1483.59 325.3 1478.27 325.3L1415.93 325.3L1415.7 325.3Z" />
			<path id="Path 41" class="shp1" d="M1290.62 325.3L1268.93 325.3C1263.89 325.3 1260.97 328.5 1260.97 334.68C1260.97 340.62 1263.89 343.83 1268.93 343.83L1290.62 343.83L1290.85 343.83L1352.62 343.83C1357.94 343.83 1360.57 340.62 1360.57 334.68C1360.57 328.5 1357.94 325.3 1352.62 325.3L1290.85 325.3L1290.62 325.3Z" />
			<path id="Path 42" class="shp2" d="M1165.43 325.3L1143.68 325.3C1138.35 325.3 1135.95 328.5 1135.95 334.68C1135.95 340.62 1138.35 343.83 1143.68 343.83L1165.43 343.83L1165.66 343.83L1227.6 343.83C1232.92 343.83 1235.55 340.62 1235.55 334.68C1235.55 328.5 1232.92 325.3 1227.6 325.3L1165.66 325.3L1165.43 325.3Z" />
			<path id="Path 43" class="shp3" d="M1037.2 325.3L1015.45 325.3C1010.13 325.3 1007.49 328.5 1007.49 334.68C1007.49 340.62 1010.13 343.83 1015.45 343.83L1037.2 343.83L1099.14 343.83C1104.46 343.83 1107.1 340.62 1107.1 334.68C1107.1 328.5 1104.46 325.3 1099.14 325.3L1037.2 325.3Z" />
			<path id="Path 44" class="shp4" d="M912.18 325.3L890.43 325.3C885.11 325.3 882.47 328.5 882.47 334.68C882.47 340.62 885.11 343.83 890.43 343.83L912.18 343.83L974.12 343.83C979.44 343.83 982.08 340.62 982.08 334.68C982.08 328.5 979.44 325.3 974.12 325.3L912.18 325.3Z" />
			<path id="Path 45" class="shp5" d="M787.16 325.3L765.41 325.3C760.09 325.3 757.45 328.5 757.45 334.68C757.45 340.62 760.09 343.83 765.41 343.83L787.16 343.83L849.1 343.83C854.42 343.83 857.06 340.62 857.06 334.68C857.06 328.5 854.42 325.3 849.1 325.3L787.16 325.3Z" />
			<path id="Path 46" class="shp6" d="M658.71 325.3L636.95 325.3C631.63 325.3 629 328.5 629 334.68C629 340.62 631.63 343.83 636.95 343.83L658.71 343.83L658.99 343.83L720.64 343.83C726.2 343.83 728.6 340.62 728.6 334.68C728.6 328.5 726.2 325.3 720.64 325.3L658.99 325.3L658.71 325.3Z" />
			<path id="Path 47" class="shp7" d="M533.69 325.3L511.93 325.3C506.61 325.3 503.98 328.5 503.98 334.68C503.98 340.62 506.61 343.83 511.93 343.83L533.69 343.83L533.97 343.83L595.85 343.83C600.95 343.83 603.58 340.62 603.58 334.68C603.58 328.5 600.95 325.3 595.85 325.3L533.97 325.3L533.69 325.3Z" />
			<path id="Path 48" class="shp8" d="M408.66 325.3L386.91 325.3C381.59 325.3 378.95 328.5 378.95 334.68C378.95 340.62 381.59 343.83 386.91 343.83L408.66 343.83L408.95 343.83L470.6 343.83C475.93 343.83 478.56 340.62 478.56 334.68C478.56 328.5 475.93 325.3 470.6 325.3L408.95 325.3L408.66 325.3Z" />
			<path id="Path 49" class="shp9" d="M279.98 325.3L258.46 325.3C253.16 325.3 250.5 328.5 250.5 334.68C250.5 340.62 253.16 343.83 258.46 343.83L279.98 343.83L280.21 343.83L342.15 343.83C347.47 343.83 350.1 340.62 350.1 334.68C350.1 328.5 347.47 325.3 342.15 325.3L280.21 325.3L279.98 325.3Z" />
			<path id="Path 50" class="shp10" d="M154.67 325.3L132.81 325.3C127.45 325.3 124.79 328.5 124.79 334.68C124.79 340.62 127.45 343.83 132.81 343.83L154.67 343.83L154.9 343.83L217.07 343.83C222.42 343.83 225.08 340.62 225.08 334.68C225.08 328.5 222.42 325.3 217.07 325.3L154.9 325.3L154.67 325.3Z" />
			<path id="Path 51" class="shp11" d="M29.94 325.3L8.19 325.3C2.86 325.3 0.46 328.5 0.46 334.68C0.46 340.62 2.86 343.83 8.19 343.83L29.94 343.83L30.2 343.83L92.08 343.83C97.4 343.83 100.06 340.62 100.06 334.68C100.06 328.5 97.4 325.3 92.08 325.3L30.2 325.3L29.94 325.3Z" />
			<path id="Path 52" fill-rule="evenodd" class="shp12" d="M1.14 69.09L24.39 69.09L24.39 100.25C32.37 88.64 40.59 80.47 49.06 75.15C60.68 68.11 73.01 64.51 85.84 64.51C94.54 64.51 102.78 66.23 110.77 69.6C118.49 72.97 125.02 77.55 129.89 83.33C134.72 88.87 139.07 97.11 142.71 107.46C150.44 93.45 160.11 82.87 171.5 75.38C183.09 68.11 195.46 64.51 208.77 64.51C221.33 64.51 232.24 67.66 241.66 73.95C251.1 80.18 258.11 88.87 262.98 100.25C267.56 111.35 269.73 128.22 269.73 150.41L269.73 248.43L246.26 248.43L246.26 150.41C246.26 131.37 244.8 118.1 242.14 110.83C239.25 103.63 234.64 97.8 227.86 93.45C221.33 89.1 213.35 86.99 204.16 86.99C193.03 86.99 182.87 90.36 173.42 96.88C164.23 103.34 157.45 112.32 153.1 123.19C148.98 134.28 146.8 152.58 146.8 178.2L146.8 248.43L123.59 248.43L123.59 156.7C123.59 134.97 122.36 120.27 119.7 112.55C116.81 104.83 112.2 98.54 105.44 93.96C98.66 89.39 90.67 86.99 81.49 86.99C70.84 86.99 60.91 90.07 51.46 96.59C42.27 102.88 35.49 111.58 30.91 122.44C26.56 133.31 24.39 149.95 24.39 172.43L24.39 248.43L1.14 248.43L1.14 69.09ZM403.46 64.51C431.05 64.51 454.06 74.63 472.21 94.48C488.86 112.84 497.11 134.34 497.11 159.5C497.11 184.38 488.41 206.34 470.72 224.99C453.31 243.8 430.82 253.24 403.46 253.24C375.86 253.24 353.37 243.8 335.96 224.99C318.28 206.34 309.58 184.38 309.58 159.5C309.58 134.57 317.82 113.06 334.48 94.71C352.62 74.63 375.63 64.51 403.46 64.51ZM403.46 87.21C384.11 87.21 367.68 94.25 353.88 108.49C340.09 122.5 333.05 139.66 333.05 159.96C333.05 172.77 336.19 184.84 342.49 196.22C348.79 207.31 357.26 216.01 368.14 222.07C378.78 228.13 390.4 231.22 403.46 231.22C416.05 231.22 427.9 228.13 438.55 222.07C449.42 216.01 457.89 207.31 464.19 196.22C470.49 184.84 473.64 172.77 473.64 159.96C473.64 139.66 466.6 122.5 452.8 108.49C439 94.25 422.57 87.21 403.46 87.21ZM718.98 0L718.98 248.66L696.26 248.66L696.26 217.67C686.58 229.56 675.71 238.25 663.86 244.32C651.78 250.09 638.5 253.24 624.25 253.24C598.83 253.24 577.08 244.03 559.22 225.44C541.3 207.03 532.14 184.78 532.14 158.19C532.14 132.57 541.3 110.32 559.45 91.9C577.59 73.55 599.34 64.34 624.93 64.34C639.7 64.34 652.98 67.48 664.83 73.78C676.91 80.07 687.33 89.5 696.26 102.08L696.26 0L718.98 0ZM626.88 86.59C613.83 86.59 601.98 89.73 591.1 96.02C580.22 102.54 571.75 111.23 565.23 122.84C558.99 134.23 555.61 146.35 555.61 158.93C555.61 171.74 558.99 183.81 565.23 195.19C571.75 206.8 580.51 215.72 591.39 222.3C602.49 228.59 614.06 231.96 626.65 231.96C639.24 231.96 651.32 228.59 662.66 222.3C673.76 216.01 682.46 207.26 688.76 196.39C694.83 185.52 697.69 173.17 697.69 159.62C697.69 138.86 690.93 121.41 677.2 107.63C663.63 93.62 646.68 86.59 626.88 86.59ZM922.31 188.96L941.66 199.36C935.37 211.66 927.87 221.84 919.62 229.56C911.15 237.28 901.71 243.12 891.29 247.18C880.93 251.06 869.02 253.24 855.74 253.24C826.43 253.24 803.42 243.57 786.93 224.47C770.5 205.14 762.26 183.64 762.26 159.5C762.26 136.51 769.02 116.21 783.1 98.6C801.01 75.89 824.71 64.51 854.54 64.51C884.99 64.51 909.49 76.12 927.87 99.28C940.98 115.75 947.5 136.06 947.73 160.7L786.02 160.7C786.47 181.46 793 198.62 806.11 211.89C818.93 225.21 834.9 231.96 853.79 231.96C863.01 231.96 871.71 230.3 880.41 227.16C889.11 224.01 896.38 219.67 902.45 214.58C908.75 209.26 915.27 200.79 922.31 188.96ZM922.31 140.63C919.17 128.28 914.59 118.61 908.75 111.12C902.91 103.91 895.18 97.85 885.28 93.51C875.6 88.93 865.41 86.76 854.77 86.76C837.08 86.76 822.08 92.3 809.26 103.69C800.04 111.86 793 124.22 788.19 140.63L922.31 140.63ZM982.08 69.09L1005.55 69.09L1005.55 95.39C1012.53 85.04 1020.03 77.32 1027.76 72.23C1035.77 67.14 1043.73 64.51 1052.2 64.51C1058.73 64.51 1065.48 66.68 1072.75 70.57L1060.67 90.07C1055.81 87.9 1051.74 86.99 1048.59 86.99C1040.81 86.99 1033.31 90.07 1026.33 96.37C1019.06 102.66 1013.73 112.55 1009.9 125.82C1006.98 135.94 1005.55 156.7 1005.55 187.87L1005.55 248.43L982.08 248.43L982.08 69.09ZM1099.54 69.09L1122.55 69.09L1122.55 101.23C1131.71 88.87 1142.13 79.72 1153.29 73.66C1164.4 67.66 1176.76 64.51 1189.82 64.51C1203.38 64.51 1215.23 67.88 1225.65 74.63C1236.07 81.67 1243.8 90.82 1248.66 102.14C1253.76 113.75 1256.16 131.59 1256.16 156.24L1256.16 248.43L1233.15 248.43L1233.15 162.99C1233.15 142.23 1232.18 128.45 1230.52 121.47C1227.83 109.63 1222.73 100.71 1215 94.71C1207.5 88.87 1197.6 85.73 1185.24 85.73C1171.44 85.73 1158.85 90.36 1147.74 99.51C1136.58 108.95 1129.31 120.27 1125.93 133.77C1123.76 142.69 1122.55 159.1 1122.55 182.55L1122.55 248.43L1099.54 248.43L1099.54 69.09ZM1484.22 69.09L1484.22 248.66L1461.5 248.66L1461.5 217.72C1451.82 229.56 1440.94 238.25 1429.1 244.32C1417.02 250.09 1403.74 253.24 1389.48 253.24C1364.07 253.24 1342.31 244.03 1324.45 225.44C1306.54 207.09 1297.38 184.84 1297.38 158.24C1297.38 132.68 1306.54 110.43 1324.68 92.08C1342.83 73.72 1364.58 64.51 1390.17 64.51C1404.94 64.51 1418.22 67.66 1430.07 73.95C1442.15 80.24 1452.57 89.62 1461.5 102.2L1461.5 69.09L1484.22 69.09ZM1392.12 86.76C1379.29 86.76 1367.5 89.9 1356.34 96.19C1345.46 102.71 1336.99 111.41 1330.46 123.02C1324.22 134.34 1320.85 146.41 1320.85 158.99C1320.85 171.8 1324.22 183.87 1330.46 195.25C1336.99 206.86 1345.69 215.78 1356.62 222.3C1367.73 228.59 1379.29 231.96 1391.89 231.96C1404.48 231.96 1416.56 228.59 1427.89 222.3C1439 216.01 1447.7 207.31 1454 196.45C1460.06 185.58 1462.93 173.23 1462.93 159.73C1462.93 138.91 1456.17 121.53 1442.66 107.75C1428.87 93.73 1411.92 86.76 1392.12 86.76ZM1522.23 68.63C1524.75 68.63 1527.27 69.14 1529.56 70.12C1532.08 71.37 1533.85 73.37 1535.11 75.61C1536.6 77.84 1537.11 80.29 1537.11 83.04C1537.11 85.5 1536.6 88.02 1535.34 90.25C1533.85 92.48 1532.08 94.48 1529.79 95.74C1527.27 96.94 1524.98 97.45 1522.23 97.45C1519.71 97.45 1517.19 96.94 1514.9 95.74C1512.61 94.48 1510.84 92.48 1509.35 90.25C1508.09 88.02 1507.58 85.5 1507.58 83.04C1507.58 80.29 1508.09 77.84 1509.35 75.61C1510.84 73.37 1512.61 71.37 1514.9 70.12C1517.42 69.14 1519.94 68.63 1522.23 68.63ZM1522.23 70.63C1520.23 70.63 1518.17 71.09 1516.16 72.35C1514.16 73.37 1512.61 74.86 1511.64 76.81C1510.38 78.81 1509.87 80.81 1509.87 83.04C1509.87 85.04 1510.38 87.04 1511.64 88.99C1512.61 90.99 1514.16 92.48 1516.16 93.45C1518.17 94.71 1520.23 95.22 1522.23 95.22C1524.46 95.22 1526.52 94.71 1528.53 93.45C1530.53 92.48 1532.08 90.99 1533.05 88.99C1534.08 87.04 1534.82 85.04 1534.82 83.04C1534.82 80.81 1534.08 78.81 1533.05 76.81C1532.08 74.86 1530.3 73.37 1528.53 72.35C1526.52 71.09 1524.46 70.63 1522.23 70.63ZM1515.93 90.99L1515.93 75.32L1521.2 75.32C1523.2 75.32 1524.46 75.32 1525.49 75.61C1526.24 76.06 1527.04 76.58 1527.5 77.32C1528.01 78.06 1528.3 78.81 1528.3 79.55C1528.3 80.81 1527.78 81.78 1527.04 82.53C1526.01 83.27 1524.98 83.78 1523.49 84.01C1524.23 84.3 1524.46 84.53 1524.98 84.76C1525.49 85.5 1526.24 86.53 1527.27 88.02L1529.27 90.99L1526.01 90.99L1524.75 88.53C1523.49 86.53 1522.75 85.27 1521.94 84.76C1521.49 84.53 1520.69 84.3 1519.94 84.3L1518.45 84.3L1518.45 90.99L1515.93 90.99ZM1518.45 82.07L1521.49 82.07C1522.98 82.07 1524.01 82.07 1524.46 81.55C1525.26 81.04 1525.49 80.58 1525.49 79.84C1525.49 79.32 1525.26 78.81 1524.98 78.58C1524.75 78.06 1524.46 77.84 1524.01 77.55C1523.49 77.55 1522.46 77.32 1521.2 77.32L1518.45 77.32L1518.45 82.07Z" />
		</g>
	</g>
</svg>