<svg version="1.2" xmlns="http://www.w3.org/2000/svg" viewBox="0 0 1563 664" width="1563" height="664">
	<title>logo (66)-svg</title>
	<style>
		.s0 { fill: #e41d38 } 
		.s1 { fill: #231f20 } 
	</style>
	<g id="Layer">
		<path id="Layer" class="s0" d="m1015.7 70.9l-126.4 126.4q-2.4 2.6-5.3 4.6-2.9 2.1-6.1 3.5-3.2 1.4-6.7 2.2-3.4 0.7-6.9 0.8c-4.5 0-8.9-0.9-13-2.6-4.1-1.8-7.8-4.3-10.9-7.5-3.2-3.2-5.6-6.9-7.3-11-1.7-4.2-2.5-8.6-2.4-13v-68.2c-0.1 4.5 0.7 8.9 2.4 13.1 1.6 4.1 4.1 7.9 7.2 11.1 3.1 3.2 6.9 5.8 11 7.5 4.1 1.8 8.5 2.7 13 2.8q3.5-0.1 6.9-0.9 3.5-0.8 6.7-2.2 3.2-1.4 6.1-3.5 2.9-2 5.3-4.5l126.4-126.7zm-113.9 31.7c0.1-4.5-0.8-8.9-2.4-13.1-1.7-4.2-4.2-8-7.3-11.2-3.1-3.2-6.9-5.8-11-7.5-4.2-1.8-8.6-2.7-13.1-2.7q-3.5 0.1-7 0.9-3.4 0.7-6.6 2.2-3.2 1.4-6.1 3.4-2.9 2.1-5.3 4.6l-117.6 118.1q-2.5 2.6-5.4 4.6-2.9 2.1-6.2 3.5-3.3 1.4-6.7 2.1-3.5 0.8-7.1 0.8c-4.5 0-8.9-0.9-13-2.6-4.1-1.7-7.9-4.3-11.1-7.4-3.1-3.2-5.6-6.9-7.3-11.1-1.8-4.1-2.7-8.5-2.7-13v-68.1c0 4.5 0.8 9 2.5 13.1 1.7 4.2 4.2 8 7.4 11.2 3.2 3.2 6.9 5.8 11.1 7.5 4.1 1.8 8.6 2.7 13.1 2.7q3.5-0.1 7-0.8 3.4-0.8 6.6-2.2 3.2-1.5 6.1-3.5 2.9-2 5.3-4.6l118.2-118.4q2.4-2.6 5.2-4.6 2.9-2 6.1-3.4 3.2-1.5 6.6-2.3 3.4-0.7 6.9-0.8c4.5 0 8.9 0.9 13 2.7 4.1 1.8 7.8 4.3 10.9 7.5 3.2 3.2 5.6 7 7.3 11.1 1.6 4.2 2.5 8.6 2.4 13.1v68.2zm-163.9 0c0-4.4-0.8-8.9-2.5-13-1.6-4.1-4.1-7.9-7.2-11.1-3.1-3.2-6.8-5.8-10.9-7.5-4.1-1.8-8.5-2.7-13-2.8q-3.5 0.1-7 0.8-3.4 0.8-6.6 2.2-3.3 1.4-6.1 3.5-2.9 2-5.3 4.6l-129.2 129v-67.7l129.1-129.5q2.4-2.6 5.3-4.7 2.9-2 6.1-3.4 3.3-1.5 6.7-2.2 3.5-0.8 7-0.8c4.5 0 8.9 1 13 2.8 4.1 1.7 7.8 4.3 10.9 7.5 3.1 3.2 5.6 6.9 7.2 11.1 1.7 4.1 2.5 8.5 2.5 13z"/>
	</g>
	<g id="Layer">
		<path id="Layer" fill-rule="evenodd" class="s1" d="m1444.3 489.8v-8c21.4-0.9 28-1.8 28-7.2q-0.3-2.2-1-4.3-0.7-2.1-1.8-4.1-1.1-1.9-2.5-3.6-1.4-1.8-3.1-3.2l-63.9-75.9-9.3 8.5v65.3c0 20.6 12 21.5 30.7 24.1v8h-118.5v-7.6c18.7-1.8 30.7-3.6 30.7-24.1v-163.5c0-18.7-11.2-22.3-25.1-23.3-2.5 0.7-4.9 1.7-7.2 3-2.2 1.3-4.3 3-6.1 4.9-1.8 1.8-3.3 4-4.5 6.3-1.2 2.3-2.1 4.8-2.6 7.3l-70.7 202.7h-9.3l-59.5-158h-1.9l-64 158h-10.3l-74.7-202.7c-6.1-16.8-9.3-19.6-24.1-22.3v-8h103.2v8c-12.1 0.9-22.3 1.8-22.3 14.3q0 1.5 0.2 3 0.2 1.5 0.5 3 0.4 1.5 0.9 2.9 0.5 1.4 1.2 2.8l41.9 121.3 41.8-102.7-13.1-32.2c-3.2-8.2-8.4-11.6-25.1-12.5v-7.9h109.8v8c-14.9 0.9-25.1 1.8-25.1 13.4q0.3 2.4 0.7 4.8 0.5 2.4 1.1 4.7 0.5 2.4 1.3 4.7 0.7 2.3 1.5 4.5l38.2 112h1l38-114.6q0.8-1.7 1.4-3.4 0.6-1.7 1-3.6 0.3-1.8 0.4-3.6 0.2-1.8 0-3.7c0-14.3-12-14.3-24.1-15.2v-8h172.9v8c-18.7 1.8-30.7 2.7-30.7 31.3v71.9l76.3-73.1c9.3-9.4 12.1-12.5 12.1-18.7 0-8-3.7-9.8-29.8-11.6v-7.8h102.7v8c-37.4 2.7-54 18.7-113.5 76.8l107.9 127.7q1.5 1.9 3.4 3.3 1.9 1.4 4 2.4 2.2 0.9 4.6 1.3 2.3 0.4 4.7 0.2v8zm-1126.3 0h-116.3v-8c20.5-2.7 30.7-3.6 30.7-25.9v-168.8h-0.9l-87.4 202.7h-9.4l-87.3-198.2h-0.8v156.4c0 24.1 6.6 32.1 35.4 34v8h-82v-8.2c28-2.7 31.6-8 31.6-28v-158.7c0-17.8-5.6-22.3-30.7-24.1v-9.3h88.4l69.7 158.7 70.6-158.7h88.4v9.3c-19.5 1-31.6 1.8-31.6 31.3v148.2c0 26.8 8.4 28 31.6 31.3zm232.5-113.4c0.1 71.6-52.1 119.6-123.6 119.6-71.6 0-123.8-48-123.8-119.6 0-73.2 56-118.7 123.7-118.7 67.6 0 123.8 45.4 123.8 118.7zm-61.4 0c0-48.2-13.1-108.1-62.3-108.1-49.3 0-62.4 58.9-62.4 108.1 0 29.5 2.8 108.9 62.4 108.9 59.5 0 62.3-79.5 62.3-108.9zm546 113.8h-114.4v-8.4c22.3-1.8 28.8-1.8 28.8-13.5 0-9.3-11.2-34-16.8-44.6h-79q-2.4 5.3-4.6 10.7-2.1 5.3-4 10.8-1.9 5.5-3.5 11.1-1.6 5.5-2.9 11.2c0 12.5 16.7 13.3 28.9 14.3v8h-186.3v-8c18.6-1.8 31.6-3.6 31.6-24.1v-77.8h-84.3v77.4c0 20.5 13 22.3 31.7 24.1v8h-118.2v-7.6c18.7-2.7 29.8-4.5 29.8-24.1v-163.5c0-21.5-15.8-22.3-29.8-24.1v-8h118.2v8c-15.8 0.9-31.7 1.8-31.7 24.1v69.8h84.7v-69.8c0-22.3-15.8-23.3-31.6-24.1v-8h119.9v8c-15.8 0.9-31.7 2.7-31.7 24.1v163.1c0 17.8 10.3 23.2 24.2 23.2 9.4 0 20 0 36.3-38.3l78.1-184.8h9.4l79 176.8c16.4 36.4 21.4 48.2 38.2 47.3zm-107-79.5l-36.3-82.2-32.5 82.2zm606.1-49.4c-11.4 0.4-21.9-6.2-26.6-16.6-4.6-10.5-2.4-22.7 5.5-30.9 7.9-8.2 20.1-10.7 30.6-6.5 10.6 4.3 17.5 14.6 17.5 26 0.1 3.6-0.5 7.2-1.8 10.6-1.3 3.4-3.3 6.5-5.8 9.1-2.5 2.6-5.5 4.7-8.9 6.1-3.3 1.4-6.9 2.2-10.5 2.2zm0-52.2c-10-0.7-19.5 4.8-23.8 13.8-4.4 9.1-2.8 19.9 4.1 27.2 6.8 7.4 17.4 9.8 26.8 6.2 9.4-3.7 15.5-12.7 15.6-22.7 0-3.1-0.5-6.2-1.6-9.1-1.1-2.8-2.7-5.5-4.8-7.7-2.1-2.3-4.6-4.1-7.4-5.5-2.8-1.3-5.8-2-8.9-2.2zm-13 9.3h14.1c1.1-0.2 2.2-0.1 3.3 0.1 1.1 0.3 2.1 0.8 3 1.5 0.9 0.7 1.6 1.5 2.1 2.5 0.5 1 0.9 2.1 0.9 3.2q0 1.4-0.5 2.8-0.4 1.3-1.3 2.4-0.8 1.2-2 2-1.1 0.9-2.4 1.3l4.5 6.4q0.7 0.9 1.4 1.8 0.7 0.9 1.5 1.8 0.7 0.8 1.5 1.6 0.9 0.8 1.7 1.6v0.6h-5c-2.5 0-4.6-5.5-9.4-13h-4.1v7.9c0 3.5 0 3.5 4 3.8v1.2h-13.3v-1.1c4 0 3.9 0 3.9-3.8v-19.5c0-3.7 0-3.6-3.9-3.9 0 0 0-1.2 0-1.2zm9.3 15.1h3.5q1.3-0.1 2.5-0.7 1.1-0.6 1.9-1.7 0.8-1 1.1-2.3 0.3-1.3 0-2.6 0.2-1.2-0.2-2.4-0.3-1.1-1.1-2-0.8-0.9-2-1.4-1.1-0.4-2.3-0.4h-3.4zm-1178.6 253.4h8.7v64.4h-8.7zm40 0.1h1.4l0.2 1.1 37.4 48.5c0-0.8 0-1.6 0-2.3 0-0.6 0-1.4 0-2v-45.4h7.6v64.4h-4.6q-0.3 0.1-0.5 0.1-0.2 0-0.4 0-0.2 0-0.5 0-0.2 0-0.4-0.1-0.2-0.1-0.4-0.2-0.2-0.1-0.4-0.3-0.1-0.2-0.3-0.3-0.2-0.2-0.3-0.4l-37.3-48.5q0 1.1 0 2.2 0 1.1 0 2v45.9h-7.3v-64.4h5.8zm127.6 32.1q0.1 1.7-0.1 3.4-0.1 1.6-0.4 3.3-0.3 1.7-0.7 3.3-0.5 1.6-1.1 3.2-0.5 1.4-1.2 2.8-0.7 1.3-1.5 2.6-0.8 1.3-1.7 2.5-1 1.2-2 2.2-1.1 1.1-2.3 2.1-1.2 0.9-2.4 1.7-1.3 0.9-2.6 1.6-1.4 0.6-2.8 1.2-1.6 0.6-3.2 1-1.6 0.5-3.2 0.8-1.6 0.3-3.3 0.4-1.6 0.1-3.3 0.1h-24v-64.4h24.1q1.7 0 3.3 0.1 1.7 0.2 3.3 0.5 1.6 0.3 3.2 0.7 1.6 0.5 3.2 1 1.4 0.6 2.8 1.3 1.3 0.7 2.6 1.5 1.2 0.8 2.4 1.8 1.2 0.9 2.3 2 1 1.1 2 2.3 0.9 1.2 1.7 2.4 0.8 1.3 1.5 2.7 0.7 1.3 1.2 2.8 0.6 1.5 1 3.2 0.5 1.6 0.7 3.2 0.3 1.7 0.4 3.4 0.2 1.6 0.1 3.3zm-9.3 0q0-1.3 0-2.7-0.1-1.3-0.3-2.7-0.2-1.3-0.5-2.6-0.4-1.3-0.8-2.6-0.3-1.1-0.8-2.2-0.5-1-1.1-2-0.5-1-1.2-2-0.7-0.9-1.4-1.8-0.8-0.8-1.6-1.5-0.9-0.7-1.8-1.3-0.9-0.7-1.8-1.2-1-0.5-2-0.9-1.1-0.4-2.3-0.8-1.1-0.3-2.3-0.5-1.2-0.2-2.4-0.3-1.2-0.1-2.4-0.1h-15.1v50.1h15.3q1.2 0 2.4-0.1 1.2 0 2.4-0.3 1.1-0.2 2.3-0.5 1.1-0.3 2.3-0.7 1-0.5 1.9-1 1-0.5 1.9-1.1 0.9-0.6 1.8-1.4 0.8-0.7 1.5-1.5 0.8-0.8 1.5-1.8 0.7-0.9 1.2-1.9 0.6-1 1.1-2 0.5-1 0.8-2.1 0.4-1.3 0.8-2.6 0.3-1.3 0.5-2.6 0.3-1.3 0.4-2.6 0.1-1.4 0.1-2.7zm55.7 24.9q0.9 0.1 1.8 0 1-0.1 1.9-0.2 0.9-0.2 1.8-0.5 0.8-0.2 1.7-0.6 0.8-0.3 1.5-0.7 0.7-0.4 1.4-0.8 0.6-0.5 1.2-1.1 0.7-0.5 1.2-1.1 0.6-0.6 1.1-1.3 0.5-0.7 0.9-1.4 0.4-0.8 0.8-1.5 0.3-0.8 0.6-1.6 0.3-0.9 0.5-1.8 0.2-0.9 0.3-1.8 0.2-1 0.2-1.9 0.1-0.9 0.1-1.9v-39.2h8.7v39.2q0 1.4-0.1 2.7-0.1 1.3-0.3 2.6-0.3 1.3-0.6 2.6-0.3 1.3-0.8 2.5-0.4 1.1-0.9 2.2-0.6 1.1-1.2 2.2-0.6 1-1.4 2-0.7 0.9-1.5 1.8-0.9 0.9-1.8 1.7-1 0.8-2 1.4-1 0.7-2.1 1.3-1 0.6-2.2 1-2.5 1-5.2 1.5-2.7 0.5-5.5 0.5-2.7 0-5.4-0.5-2.7-0.5-5.2-1.5-1.2-0.4-2.3-1-1.1-0.6-2.1-1.3-1-0.6-2-1.4-0.9-0.8-1.8-1.7-0.8-0.9-1.6-1.8-0.7-1-1.3-2-0.7-1.1-1.2-2.2-0.6-1.1-1-2.2-0.4-1.2-0.8-2.5-0.3-1.3-0.5-2.6-0.3-1.3-0.4-2.6-0.1-1.3-0.1-2.7v-39.2h8.7v39.1q0 1 0.1 1.9 0 0.9 0.2 1.9 0.1 0.9 0.3 1.8 0.2 0.9 0.5 1.8 0.3 0.8 0.6 1.6 0.4 0.8 0.8 1.5 0.4 0.7 0.9 1.4 0.5 0.7 1.1 1.3 0.5 0.6 1.2 1.2 0.6 0.5 1.2 1 0.7 0.5 1.4 0.9 0.8 0.4 1.5 0.7 0.9 0.4 1.7 0.6 0.9 0.3 1.8 0.4 0.9 0.2 1.8 0.3 0.9 0.1 1.8 0zm83.3-46.6q-0.1 0.1-0.2 0.3-0.1 0.1-0.2 0.2-0.1 0.2-0.2 0.3-0.2 0.1-0.3 0.2-0.1 0-0.3 0.1-0.1 0-0.2 0-0.2 0-0.3 0-0.2-0.1-0.3-0.1-0.3-0.1-0.5-0.1-0.3-0.1-0.5-0.3-0.3-0.1-0.5-0.3-0.2-0.1-0.4-0.3l-2.6-1.7q-0.4-0.3-0.9-0.5-0.4-0.2-0.9-0.4-0.5-0.3-1-0.4-0.4-0.2-0.9-0.4-0.7-0.2-1.3-0.3-0.7-0.2-1.3-0.3-0.7-0.1-1.4-0.1-0.7-0.1-1.3 0-0.7-0.1-1.3 0-0.7 0-1.3 0.1-0.7 0.1-1.3 0.3-0.6 0.1-1.3 0.3-0.5 0.2-1 0.4-0.5 0.2-0.9 0.5-0.5 0.3-1 0.6-0.4 0.3-0.8 0.7-0.4 0.3-0.7 0.6-0.3 0.4-0.6 0.8-0.3 0.4-0.5 0.8-0.3 0.5-0.4 0.9-0.2 0.5-0.4 1-0.1 0.5-0.2 0.9-0.1 0.5-0.1 1-0.1 0.5-0.1 1 0 0.6 0.1 1.2 0 0.6 0.2 1.2 0.2 0.6 0.4 1.1 0.3 0.5 0.6 1 0.4 0.5 0.8 0.9 0.4 0.5 0.8 0.9 0.5 0.3 1 0.7 0.4 0.3 1 0.6 0.6 0.3 1.2 0.6 0.6 0.3 1.2 0.6 0.6 0.3 1.2 0.5 0.7 0.2 1.3 0.5l5.7 1.9q2.9 1 5.7 2.3 0.7 0.2 1.3 0.6 0.7 0.3 1.3 0.7 0.6 0.4 1.2 0.8 0.6 0.5 1.1 0.9 0.6 0.5 1.1 1.1 0.5 0.5 1 1.1 0.4 0.6 0.8 1.2 0.4 0.6 0.7 1.3 0.3 0.8 0.6 1.6 0.3 0.8 0.4 1.7 0.2 0.8 0.3 1.7 0 0.9 0 1.7 0 1-0.1 2-0.1 1.1-0.2 2.1-0.2 1-0.5 1.9-0.2 1-0.6 2-0.4 0.9-0.8 1.7-0.4 0.9-1 1.7-0.5 0.8-1.1 1.6-0.6 0.7-1.3 1.4-0.7 0.7-1.5 1.3-0.8 0.7-1.7 1.2-0.8 0.5-1.8 1-0.9 0.4-1.8 0.8-1.1 0.4-2.3 0.7-1.1 0.3-2.3 0.5-1.2 0.2-2.4 0.3-1.2 0.1-2.3 0.1-1.5 0-3-0.1-1.4-0.2-2.9-0.5-1.4-0.2-2.8-0.7-1.4-0.4-2.7-1-1.3-0.4-2.4-1-1.2-0.6-2.3-1.3-1.1-0.7-2.1-1.6-1.1-0.8-2-1.7l2.5-4.1q0.1-0.1 0.2-0.2 0.1-0.1 0.2-0.2 0.1-0.1 0.2-0.2 0.1-0.1 0.3-0.2 0.1-0.1 0.2-0.1 0.2 0 0.3 0 0.2 0 0.3 0 0.1 0 0.3 0.1 0.1-0.1 0.3-0.1 0.2 0 0.3 0 0.2 0 0.4 0 0.1 0 0.3 0.1l1.7 1.2 2.1 1.6q0.3 0.2 0.7 0.4 0.3 0.2 0.7 0.4 0.3 0.2 0.7 0.4 0.3 0.2 0.7 0.4 0.4 0.2 0.9 0.3 0.4 0.2 0.8 0.4 0.5 0.1 0.9 0.3 0.5 0.1 1 0.2 0.5 0.1 1.1 0.2 0.5 0.1 1.1 0.2 0.5 0 1.1 0 0.6 0.1 1.1 0.1 0.8-0.1 1.5-0.1 0.7-0.1 1.4-0.3 0.7-0.1 1.4-0.3 0.7-0.2 1.3-0.5 0.6-0.2 1.1-0.4 0.6-0.3 1.1-0.6 0.5-0.3 1-0.6 0.5-0.4 0.9-0.8 0.5-0.4 0.8-0.8 0.4-0.4 0.8-0.9 0.3-0.5 0.6-1 0.2-0.5 0.5-1 0.2-0.6 0.4-1.2 0.1-0.6 0.3-1.2 0.1-0.6 0.1-1.2 0.1-0.6 0.1-1.2 0-0.6-0.1-1.2 0-0.7-0.2-1.3-0.2-0.6-0.4-1.1-0.3-0.6-0.6-1.1-0.4-0.5-0.8-0.9-0.4-0.5-0.9-0.8-0.4-0.4-0.9-0.7-0.5-0.4-1.1-0.6-0.6-0.4-1.2-0.7-0.6-0.4-1.3-0.7-0.6-0.2-1.3-0.5-0.6-0.3-1.3-0.5l-5.7-1.7c-1.9-0.7-3.8-1.3-5.7-2.2q-0.6-0.3-1.2-0.6-0.6-0.4-1.2-0.8-0.6-0.3-1.2-0.8-0.5-0.4-1-0.9-0.6-0.5-1.1-1-0.5-0.6-0.9-1.2-0.5-0.6-0.8-1.3-0.4-0.6-0.7-1.3-0.7-1.7-1-3.4-0.3-1.8-0.3-3.5 0-1.8 0.3-3.5 0.3-1.8 1-3.4 0.3-0.8 0.7-1.6 0.4-0.8 0.9-1.5 0.5-0.7 1.1-1.4 0.5-0.6 1.1-1.2 0.7-0.6 1.5-1.2 0.7-0.5 1.5-1 0.8-0.4 1.7-0.8 0.8-0.4 1.7-0.7 1-0.4 2-0.6 1.1-0.3 2.1-0.5 1.1-0.2 2.2-0.3 1.1-0.1 2.2-0.1 1.3 0 2.6 0 1.2 0.1 2.5 0.3 1.3 0.2 2.6 0.5 1.2 0.3 2.4 0.7 1.1 0.4 2.2 1 1 0.5 2 1.1 1 0.6 1.9 1.4 0.9 0.7 1.8 1.5zm68.3-10.5v7.4h-20.8v57.1h-8.7v-57.1h-20.9v-7.4zm27.3 64.4h-8.7v-64.4h18.6q1.4 0 2.7 0 1.3 0.1 2.6 0.2 1.3 0.2 2.6 0.4 1.3 0.2 2.6 0.5 1 0.3 2 0.6 0.9 0.4 1.9 0.8 0.9 0.5 1.8 1 0.8 0.6 1.7 1.2 0.7 0.5 1.3 1.2 0.6 0.6 1.2 1.3 0.5 0.7 1 1.5 0.4 0.8 0.8 1.6 0.3 0.9 0.6 1.8 0.3 0.9 0.4 1.8 0.2 0.9 0.3 1.9 0.1 0.9 0.1 1.9 0 0.8-0.1 1.6-0.1 0.8-0.2 1.6-0.2 0.8-0.4 1.6-0.2 0.8-0.5 1.5-0.2 0.7-0.5 1.4-0.4 0.7-0.8 1.4-0.3 0.7-0.8 1.3-0.4 0.6-0.9 1.2-0.6 0.6-1.1 1.2-0.6 0.5-1.2 1.1-0.7 0.5-1.3 0.9-0.7 0.5-1.4 0.8-0.8 0.5-1.6 0.9-0.8 0.4-1.6 0.7-0.9 0.3-1.8 0.5-0.8 0.3-1.7 0.5 0.4 0.2 0.8 0.5 0.4 0.3 0.7 0.6 0.4 0.4 0.7 0.7 0.3 0.4 0.6 0.8l18.7 25.6h-8q-0.5 0-1-0.1-0.5-0.2-1-0.4-0.4-0.3-0.8-0.6-0.4-0.4-0.6-0.8l-16.6-22.6q-0.2-0.2-0.4-0.3-0.2-0.2-0.5-0.4-0.2-0.1-0.4-0.2-0.3-0.1-0.5-0.2-0.3-0.1-0.7-0.1-0.3-0.1-0.7-0.1-0.3 0-0.6 0.1-0.4 0-0.7 0.1h-6.6zm0-33.2zm9.2-0.1q0.8 0 1.7-0.1 0.8 0 1.6-0.2 0.9-0.1 1.7-0.3 0.8-0.1 1.6-0.4 0.6-0.2 1.2-0.5 0.6-0.2 1.2-0.6 0.5-0.3 1.1-0.7 0.5-0.4 1-0.8 0.5-0.4 0.9-0.9 0.4-0.4 0.8-0.9 0.4-0.5 0.7-1.1 0.3-0.5 0.6-1.1 0.2-0.6 0.4-1.2 0.2-0.7 0.4-1.3 0.1-0.7 0.2-1.3 0-0.7 0-1.3 0.1-1.3-0.1-2.5-0.2-1.2-0.7-2.3-0.5-1.2-1.2-2.1-0.8-1-1.7-1.8-1.3-0.8-2.6-1.4-1.4-0.6-2.8-1-1.5-0.3-3-0.5-1.4-0.1-2.9 0h-9.3v24.3zm47.3-31.2h8.7v64.4h-8.7zm73.8 7.1h-31v21.4h25.1v6.8h-25.1v21.8h31v7.1h-39.7v-64.4h39.7zm54.1 3.4q0 0.1-0.1 0.2-0.1 0.2-0.2 0.3-0.1 0.1-0.3 0.3-0.1 0.1-0.2 0.2-0.1 0-0.3 0-0.1 0.1-0.3 0.1-0.1 0-0.2-0.1-0.2 0-0.3 0-0.3-0.1-0.6-0.1-0.2-0.1-0.4-0.3-0.3-0.1-0.5-0.3-0.2-0.1-0.4-0.3l-2.6-1.7q-0.5-0.3-0.9-0.5-0.5-0.2-0.9-0.5-0.5-0.2-1-0.3-0.5-0.2-0.9-0.4-0.7-0.2-1.3-0.4-0.7-0.1-1.4-0.2-0.6-0.1-1.3-0.1-0.7-0.1-1.4 0-0.6-0.1-1.3 0-0.6 0-1.3 0.1-0.6 0.1-1.2 0.2-0.7 0.2-1.3 0.4-0.5 0.2-1 0.4-0.5 0.2-1 0.5-0.4 0.3-0.9 0.6-0.4 0.3-0.8 0.6-0.4 0.4-0.7 0.7-0.3 0.4-0.6 0.8-0.3 0.4-0.5 0.8-0.3 0.5-0.5 0.9-0.2 0.5-0.3 1-0.1 0.4-0.2 0.9-0.1 0.5-0.2 1 0 0.5 0 1 0 0.6 0 1.2 0.1 0.6 0.3 1.2 0.1 0.6 0.4 1.1 0.3 0.5 0.6 1 0.4 0.5 0.8 0.9 0.4 0.5 0.8 0.8 0.5 0.4 0.9 0.8 0.5 0.3 1 0.6 0.6 0.3 1.2 0.6 0.6 0.3 1.3 0.6 0.6 0.3 1.2 0.5 0.6 0.2 1.3 0.4l5.7 2c1.9 0.7 3.8 1.4 5.7 2.2q0.6 0.3 1.3 0.7 0.6 0.3 1.3 0.7 0.6 0.4 1.2 0.8 0.6 0.5 1.1 0.9 0.6 0.5 1.1 1 0.5 0.6 0.9 1.2 0.5 0.6 0.9 1.2 0.4 0.6 0.7 1.3 0.3 0.8 0.6 1.6 0.2 0.8 0.4 1.7 0.2 0.8 0.2 1.7 0.1 0.8 0.1 1.7 0 1-0.1 2-0.1 1-0.3 2-0.1 1-0.4 2-0.3 1-0.6 1.9-0.4 0.9-0.8 1.8-0.5 0.9-1 1.7-0.5 0.8-1.1 1.5-0.6 0.8-1.3 1.5-0.8 0.7-1.6 1.3-0.8 0.6-1.6 1.2-0.9 0.5-1.8 1-0.9 0.4-1.8 0.8-1.2 0.4-2.3 0.7-1.2 0.3-2.3 0.5-1.2 0.2-2.4 0.3-1.2 0.1-2.4 0.1-1.4 0-2.9-0.1-1.4-0.2-2.9-0.5-1.4-0.2-2.8-0.7-1.4-0.4-2.8-1-1.2-0.5-2.3-1.1-1.2-0.5-2.3-1.3-1.1-0.7-2.1-1.5-1-0.8-1.9-1.7l2.5-4.1q0.1-0.1 0.2-0.2 0.1-0.1 0.2-0.2 0.1-0.1 0.2-0.2 0.1-0.1 0.2-0.2 0.2-0.1 0.3-0.1 0.1 0 0.3 0 0.1 0 0.3 0 0.1 0 0.2 0.1 0.2-0.1 0.4-0.1 0.1 0 0.3 0 0.2 0 0.3 0 0.2 0 0.3 0.1l1.7 1.2 2.2 1.6q0.3 0.2 0.6 0.4 0.4 0.2 0.7 0.4 0.4 0.2 0.7 0.4 0.4 0.2 0.8 0.4 0.4 0.2 0.8 0.3 0.5 0.2 0.9 0.4 0.5 0.1 0.9 0.2 0.5 0.2 0.9 0.3 0.6 0.1 1.1 0.2 0.6 0.1 1.1 0.1 0.6 0.1 1.2 0.1 0.5 0.1 1.1 0 0.7 0 1.4-0.1 0.7 0 1.4-0.2 0.7-0.1 1.4-0.3 0.6-0.2 1.3-0.5 0.6-0.2 1.1-0.4 0.6-0.3 1.1-0.6 0.5-0.3 1-0.6 0.5-0.4 0.9-0.8 0.4-0.4 0.8-0.8 0.4-0.5 0.7-0.9 0.4-0.5 0.6-1 0.3-0.5 0.5-1 0.3-0.6 0.4-1.2 0.2-0.6 0.3-1.2 0.1-0.6 0.2-1.2 0.1-0.6 0.1-1.2 0-0.6 0-1.2 0-0.7-0.1-1.3-0.1-0.6-0.4-1.2-0.2-0.6-0.5-1.1-0.4-0.5-0.8-0.9-0.5-0.4-1-0.8-0.5-0.4-1-0.7-0.5-0.3-1.1-0.5-0.6-0.4-1.2-0.7-0.6-0.3-1.2-0.6-0.6-0.2-1.3-0.5-0.6-0.2-1.2-0.4l-5.7-1.8c-2-0.6-3.9-1.3-5.7-2.1q-0.7-0.3-1.3-0.7-0.7-0.3-1.3-0.7-0.6-0.5-1.2-0.9-0.5-0.5-1.1-1-0.5-0.5-1-1-0.5-0.6-1-1.2-0.4-0.6-0.8-1.3-0.3-0.6-0.6-1.3-0.7-1.7-1-3.4-0.4-1.8-0.4-3.5 0-1.8 0.4-3.5 0.3-1.8 1-3.4 0.3-0.8 0.7-1.6 0.4-0.8 0.9-1.5 0.5-0.7 1-1.4 0.6-0.6 1.2-1.2 0.7-0.6 1.4-1.2 0.7-0.5 1.5-0.9 0.7-0.5 1.5-0.9 0.8-0.4 1.7-0.7 1-0.4 2-0.7 1.1-0.2 2.1-0.4 1.1-0.2 2.2-0.3 1.1-0.1 2.2-0.1 1.2 0 2.5 0 1.3 0.1 2.6 0.3 1.3 0.2 2.5 0.5 1.3 0.3 2.5 0.7 1.1 0.4 2.2 1 1 0.5 2 1.1 1 0.6 1.9 1.3 0.9 0.8 1.8 1.6zm21.4 48.4q0-0.5 0-1 0.1-0.4 0.2-0.9 0.1-0.5 0.3-0.9 0.3-0.4 0.6-0.8 0.3-0.4 0.8-0.7 0.5-0.3 1-0.5 0.5-0.2 1-0.3 0.5 0 1.1 0 0.3 0 0.6 0 0.3 0 0.6 0.1 0.3 0 0.6 0.1 0.2 0.1 0.5 0.2 0.3 0.2 0.5 0.3 0.3 0.2 0.5 0.3 0.2 0.2 0.4 0.4 0.2 0.2 0.4 0.4 0.2 0.3 0.3 0.5 0.2 0.3 0.3 0.5 0.1 0.3 0.2 0.6 0.1 0.2 0.2 0.5 0.1 0.3 0.1 0.6 0 0.3 0 0.7 0 0.3 0 0.6 0 0.3-0.1 0.6 0 0.6 0 1.1-0.1 0.5-0.1 1-0.1 0.6-0.2 1.1-0.1 0.5-0.2 1-0.2 0.6-0.4 1.1-0.2 0.6-0.4 1.1-0.2 0.6-0.4 1.1-0.3 0.5-0.5 1-0.3 0.6-0.6 1.1-0.3 0.6-0.7 1.1-0.3 0.5-0.7 1-0.3 0.5-0.7 1-0.4 0.5-0.9 1-0.4 0.5-0.9 1-0.4 0.4-0.9 0.9-0.5 0.4-1 0.8l-0.4-1.3-0.5-0.5q0-0.1 0-0.2 0-0.1 0-0.1 0-0.1 0-0.2 0-0.1 0-0.2 0-0.1 0-0.1-0.1-0.1-0.1-0.2 0-0.1 0.1-0.2 0 0 0-0.1l0.5-0.6 1.1-1.3 1.4-2q0.2-0.2 0.3-0.5 0.2-0.3 0.4-0.6 0.1-0.3 0.3-0.6 0.1-0.3 0.3-0.6 0.1-0.3 0.3-0.7 0.1-0.3 0.2-0.7 0.1-0.3 0.2-0.7 0.1-0.3 0.1-0.7h-0.5q-0.6 0-1.1-0.1-0.5-0.1-1-0.3-0.5-0.2-1-0.5-0.4-0.3-0.8-0.7-0.3-0.4-0.6-0.9-0.2-0.4-0.4-1-0.2-0.5-0.2-1-0.1-0.5-0.1-1.1zm64.8-58.9h8.7v64.4h-8.7zm39.7 0.1h1.4l0.6 1 37.4 48.6c0-0.8 0-1.6 0-2.3 0-0.6 0-1.4 0-2v-45.4h7.6v64.4h-4.4q-0.2 0.1-0.4 0.1-0.2 0-0.4 0-0.2 0-0.4 0-0.2 0-0.5-0.1-0.2-0.1-0.3-0.2-0.2-0.2-0.4-0.3-0.2-0.2-0.4-0.3-0.1-0.2-0.3-0.4l-37.3-48.5q0 1.1 0 2.2 0 1.1 0 2v45.9h-7.6v-64.4h5.5zm117.3 51q0.2 0 0.4 0.1 0.1 0 0.3 0.1 0.2 0.1 0.3 0.2 0.2 0.1 0.3 0.2l3.4 3.7q-0.9 1.2-2 2.2-1.1 1-2.2 1.9-1.2 0.9-2.5 1.7-1.2 0.8-2.6 1.4-1.6 0.7-3.3 1.2-1.6 0.5-3.4 0.8-1.7 0.3-3.4 0.5-1.8 0.1-3.5 0-1.6 0.1-3.2-0.1-1.6-0.1-3.2-0.4-1.6-0.3-3.2-0.8-1.5-0.5-3-1.1-1.3-0.6-2.6-1.3-1.3-0.7-2.4-1.6-1.2-0.8-2.3-1.8-1.1-0.9-2-2-1.1-1.1-2-2.4-0.9-1.2-1.7-2.5-0.8-1.3-1.4-2.7-0.7-1.4-1.2-2.9-0.6-1.6-1-3.2-0.4-1.7-0.7-3.3-0.3-1.7-0.4-3.4-0.2-1.7-0.1-3.4-0.1-1.7 0.1-3.4 0.1-1.7 0.4-3.4 0.3-1.7 0.8-3.3 0.4-1.6 1-3.2 0.5-1.5 1.2-2.9 0.7-1.4 1.5-2.7 0.8-1.3 1.7-2.5 1-1.3 2-2.4 1.1-1.1 2.3-2.1 1.1-0.9 2.4-1.8 1.2-0.8 2.6-1.5 1.3-0.8 2.7-1.3 1.5-0.6 3.1-1.1 1.6-0.5 3.2-0.8 1.6-0.3 3.2-0.4 1.7-0.2 3.3-0.1 1.6-0.1 3.1 0.1 1.6 0.1 3.1 0.4 1.5 0.3 3 0.7 1.5 0.4 2.9 1 1.3 0.5 2.6 1.2 1.2 0.6 2.4 1.4 1.2 0.7 2.3 1.6 1.1 0.8 2.1 1.8l-2.9 4q-0.1 0.1-0.2 0.2 0 0.1-0.1 0.2-0.1 0.1-0.2 0.2-0.1 0.1-0.2 0.1-0.1 0.1-0.3 0.1-0.1 0-0.2 0-0.2 0-0.3 0-0.2 0-0.3-0.1-0.3 0-0.5-0.1-0.3 0-0.5-0.1-0.3-0.1-0.5-0.3-0.2-0.1-0.5-0.3-0.3-0.3-0.7-0.5-0.4-0.3-0.8-0.5-0.3-0.3-0.7-0.5-0.4-0.3-0.8-0.5-0.6-0.3-1.2-0.6-0.5-0.2-1.1-0.5-0.6-0.2-1.2-0.4-0.6-0.3-1.2-0.4-0.9-0.3-1.7-0.4-0.9-0.2-1.8-0.3-0.8-0.1-1.7-0.2-0.9 0-1.8 0-1.2 0-2.4 0.1-1.2 0.1-2.4 0.3-1.1 0.3-2.3 0.6-1.1 0.3-2.2 0.8-1 0.4-2 1-1 0.5-1.9 1.1-0.9 0.7-1.7 1.4-0.8 0.7-1.5 1.5-0.8 0.9-1.5 1.9-0.7 0.9-1.3 1.9-0.6 1-1 2.1-0.5 1.1-0.9 2.2-0.4 1.2-0.8 2.6-0.3 1.3-0.5 2.6-0.2 1.4-0.3 2.7-0.1 1.4-0.1 2.7 0 1.4 0.1 2.7 0.1 1.4 0.3 2.8 0.3 1.3 0.6 2.6 0.3 1.4 0.8 2.6 0.4 1.1 0.9 2.2 0.5 1.1 1.1 2.1 0.6 1 1.3 1.9 0.7 1 1.5 1.9 0.7 0.8 1.5 1.5 0.8 0.7 1.7 1.3 0.9 0.7 1.9 1.2 0.9 0.5 2 0.9 1 0.4 2.1 0.8 1.1 0.3 2.2 0.5 1.1 0.2 2.2 0.3 1.1 0.1 2.2 0.1 0.7 0 1.3 0.1 0.7 0 1.3 0 0.7 0 1.3 0 0.7-0.1 1.4-0.1 0.5-0.1 1-0.2 0.6-0.1 1.1-0.2 0.6-0.1 1.1-0.3 0.5-0.1 1-0.3 0.5-0.2 1-0.4 0.5-0.2 0.9-0.4 0.5-0.2 0.9-0.5 0.5-0.2 0.9-0.5 0.4-0.3 0.9-0.6 0.4-0.3 0.8-0.6 0.4-0.4 0.8-0.7 0.5-0.4 0.8-0.7 0.1-0.2 0.2-0.3 0.1-0.1 0.2-0.2 0.1-0.2 0.2-0.3 0.2-0.1 0.3-0.2zm20.6 8.4q0-0.6 0.1-1.1 0.1-0.6 0.3-1.1 0.2-0.5 0.5-1 0.3-0.5 0.7-0.9 0.2-0.2 0.4-0.3 0.2-0.2 0.4-0.4 0.3-0.1 0.5-0.2 0.2-0.2 0.5-0.3 0.5-0.2 1-0.3 0.6-0.1 1.2-0.1 0.5 0 1.1 0.1 0.5 0.1 1.1 0.3 0.2 0.1 0.4 0.3 0.3 0.1 0.5 0.3 0.2 0.1 0.4 0.3 0.2 0.1 0.4 0.3 0.2 0.2 0.4 0.4 0.1 0.2 0.3 0.4 0.1 0.2 0.2 0.5 0.2 0.2 0.3 0.4 0.2 0.5 0.3 1.1 0.1 0.5 0.1 1.1 0 0.6-0.1 1.1-0.1 0.6-0.3 1.1-0.2 0.3-0.3 0.5-0.1 0.2-0.3 0.5-0.1 0.2-0.3 0.4-0.2 0.2-0.4 0.4-0.1 0.2-0.4 0.3-0.2 0.2-0.4 0.4-0.2 0.1-0.4 0.3-0.3 0.1-0.5 0.2-0.6 0.2-1.1 0.3-0.6 0.1-1.1 0.1-0.6 0-1.1-0.1-0.6-0.1-1.1-0.3-0.3-0.1-0.5-0.2-0.2-0.2-0.5-0.3-0.2-0.2-0.4-0.3-0.2-0.2-0.4-0.4-0.2-0.2-0.4-0.4-0.1-0.2-0.3-0.4-0.1-0.3-0.3-0.5-0.1-0.2-0.2-0.5-0.1-0.2-0.1-0.5-0.1-0.2-0.1-0.5-0.1-0.3-0.1-0.5 0-0.3 0-0.5z"/>
	</g>
</svg>