<svg version="1.2" xmlns="http://www.w3.org/2000/svg" viewBox="0 0 1546 451" width="1546" height="451">
	<title>Molina_Healthcare_logo-svg</title>
	<style>
		.s0 { fill: #2b2e34 } 
		.s1 { fill: #009fab } 
	</style>
	<g id="Layer">
		<path id="Layer" fill-rule="evenodd" class="s0" d="m1524.8 185.2c-11.2 0-20.3-9.1-20.3-20.3 0-11.3 9.1-20.3 20.3-20.3 11.2 0 20.3 9 20.3 20.3 0 11.2-9.1 20.3-20.3 20.3zm17.9-20.3c0-10-8-18-17.9-18-9.9 0-18 8-18 18 0 9.9 8.1 18 18 18 9.9 0 17.9-8.1 17.9-18zm-8 11.2c-1 0-2-0.1-3-0.1-1 0-2 0.1-3.1 0.1-5.8-10.6-5.9-10.7-6.2-10.7-0.2 0-0.2 0.1-0.2 0.9 0 3.3 0.2 8.6 0.4 9.8-0.9-0.1-1.8-0.2-2.7-0.2-0.8 0-1.7 0.1-2.6 0.2 0-0.8 0.3-4.2 0.3-12.7 0-6.9-0.2-9.2-0.3-10.6 1.4 0 3 0.1 4.4 0.1 1 0 2.5-0.1 4.7-0.1 4 0 6.6 2.4 6.6 5.7 0 3.3-2.5 5.7-5.5 6.1zm-10.6-21.5h-1.7c-0.2 4.1-0.2 6.6-0.2 9.3 1.6 0 5.4 0 5.4-5 0-2.9-1.8-4.3-3.5-4.3z"/>
		<path id="Layer" class="s0" d="m591.8 202.7c-5.1 37.1-7.3 74.5-9.8 111.7-3.9-0.8-7.9-1.3-11.5-1.3-4 0-7.6 0.5-11.6 1.3 10.3-56.6 18.4-113.2 25.3-169.8 3.4 0.7 6.6 1.2 10.1 1.2 3.2 0 6.6-0.5 9.8-1.2 17.9 39.1 38.8 82.9 56.7 117.6 19.4-36.7 39.5-78.5 57.2-117.6 3.4 0.7 7.1 1.2 10.5 1.2 3.4 0 6.9-0.5 10.3-1.2 6.4 56.6 15 135.1 21.1 169.8-6.6-0.8-13.2-1.3-19.9-1.3-6.6 0-13.5 0.5-20.3 1.3-1.7-34.2-5.9-76.1-9.8-114.2h-0.5c-18.4 38.1-36.6 76-54.3 114.2-1.4-0.3-3.2-0.5-4.6-0.5-1.5 0-3.2 0.2-4.7 0.5-17.4-37.2-35.1-74.6-53.5-111.7"/>
		<path id="Layer" fill-rule="evenodd" class="s0" d="m871.3 141.4c52.1 0 93 28.5 93 87.8 0 48.7-39 88.4-93.7 88.4-51.8 0-93.5-26.6-93.5-88.1 0-48.5 37.3-88.1 94.2-88.1zm-0.7 14c-33.6 0-53.3 34-53.3 76.3 0 52.4 24.1 70.6 51.6 70.6 29.4 0 55.2-24.6 55.2-78.2 0-42.6-21.8-68.7-53.5-68.7z"/>
		<path id="Layer" class="s0" d="m994.8 212.7c0-27.5-0.5-46.5-2-68.1 5.4 0.5 12 1.2 20.1 1.2 8.1 0 14.7-0.7 20.1-1.2-1.4 21.6-1.9 40.6-1.9 68.1v33.5c0 18.2 0.2 36.9 0.5 49.7 18.4 0 37.3-1 56.1-3.2-0.4 3.5-0.9 5.9-0.9 11.1 0 5.2 0.5 7.6 0.9 10.5-8.8-0.2-20.3-1.2-42.9-1.2-40 0-46.6 0.8-52 1.2 1.5-21.6 2-40.5 2-68.1"/>
		<path id="Layer" class="s0" d="m1118.4 212.7c0-27.5-0.5-46.5-1.9-68.1 5.4 0.5 12 1.2 20.1 1.2 8.1 0 14.7-0.7 20.1-1.2-1.5 21.6-2 40.6-2 68.1v33.5c0 27.6 0.5 46.5 2 68.1-5.4-0.4-12-1.2-20.1-1.2-8.1 0-14.7 0.8-20.1 1.2 1.4-21.6 1.9-40.5 1.9-68.1"/>
		<path id="Layer" class="s0" d="m1200.2 144.6c3.6 0.7 7.3 1.2 11 1.2 3.7 0 7.4-0.5 11-1.2 35.4 39.1 70.5 78 106.5 117.1 0-39.1 0-106-1.7-117.1 3.7 0.7 7.4 1.2 11 1.2 3.7 0 7.4-0.5 11.1-1.2-3.9 71.6-3.9 104.3-3.9 169.7-3.5-0.7-6.7-1.2-10.1-1.2-3.4 0-6.6 0.5-9.5 1.2-33.7-39.8-69.5-79.7-107.3-119.5-0.5 18.4-0.5 38.9-0.5 57.3 0 39.4 0.8 53.2 1.5 62.2-3.9-0.7-7.9-1.2-11.5-1.2-3.7 0-7.6 0.5-11.3 1.2 1.2-7.1 4.9-70.5 4.9-120.8 0-22.1-1-37.1-1.2-48.9z"/>
		<path id="Layer" fill-rule="evenodd" class="s0" d="m1524.1 314.3c-7.9-0.4-14.7-1.2-21.6-1.2-6.9 0-14 0.8-20.9 1.2-5.1-16.7-10.8-33.6-16.9-50.4-10.6-0.2-20.9-0.5-31.4-0.5-8.6 0-17 0.3-25.5 0.5-6.7 16.8-12.1 33.5-16.7 50.4-4-0.4-7.6-1.2-11.6-1.2-3.9 0-7.6 0.8-12.2 1.2 12-27.2 48.8-114.8 69.9-170.9 3.2 0.5 6.1 1.2 9.3 1.2 3.2 0 6.2-0.7 9.4-1.2 20.8 56.1 49.5 130.9 68.2 170.9zm-65.1-64.9c-7.1-19.9-13.9-39.4-21.8-58.5-8.4 19.1-16 38.6-23.1 58.5z"/>
		<path id="Layer" class="s0" d="m626.6 399.7c-7.5-0.1-14.8-0.6-22.3-0.6-7.3 0-14.8 0.4-22.2 0.6v8.4c0 16.4 0.3 27.7 1.1 40.6-3.2-0.3-7.1-0.7-11.9-0.7-4.9 0-8.8 0.4-12 0.7 0.8-12.9 1.1-24.2 1.1-40.6v-20c0-16.4-0.3-27.7-1.1-40.6 3.2 0.3 7.1 0.7 12 0.7 4.8 0 8.7-0.4 11.9-0.7-0.8 12.8-1.1 24.1-1.1 40.4 5 0.1 12 0.2 22.4 0.2 10.3 0 16.5-0.1 22.1-0.2 0-16.3-0.3-27.6-1.2-40.4 3.2 0.3 7.1 0.7 12 0.7 4.8 0 8.8-0.4 12-0.7-0.9 12.9-1.2 24.2-1.2 40.6v20c0 16.4 0.3 27.7 1.2 40.6-3.2-0.3-7.2-0.7-12-0.7-4.9 0-8.8 0.4-12 0.7 0.9-12.9 1.2-24.2 1.2-40.6"/>
		<path id="Layer" class="s0" d="m682.9 388.1c0-16.4-0.3-27.7-1.2-40.6 8.6 0.2 17.4 0.8 26.1 0.8 14.3 0 26.6-0.3 30.5-0.8-0.3 1.8-0.6 3.5-0.6 6.2 0 3 0.3 4.4 0.6 6.6-11.1-0.8-28.6-1.8-33-1.8-0.8 10.7-0.8 21.3-0.8 32 12.8-0.3 22.1-0.6 33.2-1.2-0.6 3.4-0.7 4.7-0.7 6.6 0 1.6 0.3 2.9 0.7 6-11.1-0.9-22-1.3-33.2-1.3 0 6.2-0.1 12.5-0.1 18.8 0 6.1 0.1 12.4 0.4 18.3 11 0 22.3-0.6 33.5-1.9-0.3 2.1-0.6 3.5-0.6 6.6 0 3.1 0.3 4.6 0.6 6.3-5.2-0.1-12.1-0.7-25.6-0.7-23.8 0-27.8 0.4-31 0.7 0.9-12.9 1.2-24.2 1.2-40.6"/>
		<path id="Layer" fill-rule="evenodd" class="s0" d="m849.8 448.7c-4.7-0.3-8.8-0.7-12.9-0.7-4.1 0-8.3 0.4-12.4 0.7-3.1-10-6.4-20.1-10.1-30.1-6.3-0.1-12.4-0.2-18.7-0.2-5.2 0-10.1 0.1-15.2 0.2-4 10-7.2 20-10 30.1-2.3-0.3-4.5-0.7-6.9-0.7-2.3 0-4.5 0.4-7.3 0.7 7.2-16.3 29.1-68.5 41.7-101.9 1.9 0.3 3.7 0.7 5.6 0.7 1.9 0 3.6-0.4 5.5-0.7 12.5 33.4 29.6 78 40.7 101.9zm-38.8-38.7c-4.2-11.9-8.3-23.5-13-34.9-5 11.4-9.5 23-13.7 34.9z"/>
		<path id="Layer" class="s0" d="m874.8 388.1c0-16.4-0.3-27.7-1.2-40.6 3.3 0.3 7.2 0.8 12 0.8 4.9 0 8.8-0.5 12-0.8-0.8 12.9-1.1 24.2-1.1 40.6v20c0 10.8 0.1 22 0.3 29.6 10.9 0 22.2-0.6 33.5-1.9-0.3 2.1-0.6 3.5-0.6 6.6 0 3.1 0.3 4.6 0.6 6.3-5.3-0.1-12.2-0.7-25.6-0.7-23.9 0-27.8 0.4-31.1 0.7 0.9-12.9 1.2-24.2 1.2-40.6"/>
		<path id="Layer" class="s0" d="m964.4 371.4c0-5.6 0-10.8-0.5-12.9-5.7 0-18 0.9-26.8 1.9 0.5-2.2 0.8-4.2 0.8-6.4 0-2.2-0.3-4.3-0.8-6.5 13.4 0.5 19.9 0.7 38.1 0.7 18.1 0 24.7-0.2 37.1-0.7-0.4 2.2-0.7 4.3-0.7 6.5 0 2.2 0.3 4.2 0.7 6.4-7.9-1-20.2-1.9-26-1.9-0.3 2.1-0.3 7.3-0.3 12.9v36.7c0 16.4 0.3 27.7 1.2 40.6-3.2-0.3-7.2-0.7-12-0.7-4.9 0-8.8 0.4-12 0.7 0.9-12.9 1.2-24.2 1.2-40.6"/>
		<path id="Layer" class="s0" d="m1104.5 399.7c-7.5-0.1-14.8-0.6-22.2-0.6-7.4 0-14.8 0.4-22.3 0.6v8.4c0 16.4 0.3 27.7 1.2 40.6-3.2-0.3-7.2-0.7-12-0.7-4.8 0-8.8 0.4-12 0.7 0.9-12.9 1.2-24.2 1.2-40.6v-20c0-16.4-0.3-27.7-1.2-40.6 3.2 0.3 7.2 0.7 12 0.7 4.8 0 8.8-0.4 12-0.7-0.9 12.8-1.2 24.1-1.2 40.4 5 0.1 12 0.2 22.4 0.2 10.4 0 16.5-0.1 22.1-0.2 0-16.3-0.3-27.6-1.2-40.4 3.2 0.3 7.2 0.7 12 0.7 4.9 0 8.8-0.4 12-0.7-0.9 12.9-1.2 24.2-1.2 40.6v20c0 16.4 0.3 27.7 1.2 40.6-3.2-0.3-7.1-0.7-12-0.7-4.8 0-8.8 0.4-12 0.7 0.9-12.9 1.2-24.2 1.2-40.6"/>
		<path id="Layer" class="s0" d="m1241.3 431.7c-1.6 4.1-2.8 8.4-3.2 12.5-7.8 4.1-17.9 6.4-29.9 6.4-33.9 0-54-21.2-54-49 0-40.4 27.4-56 58.1-56 10.3 0 23.1 3.1 29.9 7.2-1.9 4.8-3 10-3.4 15h-2.1c-7.2-9.1-14.7-13.1-25.1-13.1-15.7 0-33.4 13.6-33.4 44.7 0 30.2 17.9 42.1 34.7 42.1 9.4 0 20.2-4.4 26.5-11"/>
		<path id="Layer" fill-rule="evenodd" class="s0" d="m1348.7 448.7c-4.7-0.3-8.8-0.7-12.9-0.7-4.1 0-8.4 0.4-12.5 0.7-3-10-6.4-20.1-10-30.1-6.3-0.1-12.5-0.2-18.8-0.2-5.1 0-10.1 0.1-15.2 0.2-3.9 10-7.2 20-9.9 30.1-2.4-0.3-4.6-0.7-6.9-0.7-2.3 0-4.5 0.4-7.3 0.7 7.2-16.3 29.1-68.5 41.7-101.9 1.9 0.3 3.6 0.7 5.5 0.7 1.9 0 3.7-0.4 5.6-0.7 12.4 33.4 29.5 78 40.7 101.9zm-38.8-38.7c-4.3-11.9-8.4-23.5-13-34.9-5 11.4-9.5 23-13.8 34.9z"/>
		<path id="Layer" fill-rule="evenodd" class="s0" d="m1396.7 402.1h-1.4v6c0 16.4 0.3 27.7 1.2 40.6-3.2-0.3-7.2-0.7-12-0.7-4.8 0-8.8 0.4-12 0.7 0.9-12.9 1.2-24.2 1.2-40.6v-20c0-16.4-0.3-27.7-1.2-40.6 3.2 0.3 7.2 0.7 12 0.7 5.3 0 11.6-0.7 21.5-0.7 14.8 0 20.2 1.3 25.3 5 5.9 4.2 9.5 10.7 9.5 19.4 0 14.2-8.2 23.3-22.6 26.9 9.3 16.6 20.5 33.3 31.1 49.9-4.4-0.3-8.8-0.7-13.1-0.7-4.4 0-9 0.4-13.4 0.7zm-0.9-46.2c-0.3 13.4-0.4 26.6-0.4 39.9 1.2 0.2 2.2 0.3 3.2 0.3 12.9 0 19.9-7.2 19.9-21 0-17.3-6.7-19.2-22.7-19.2z"/>
		<path id="Layer" class="s0" d="m1471.7 388.1c0-16.4-0.3-27.7-1.2-40.6 8.7 0.2 17.4 0.8 26.1 0.8 14.3 0 26.6-0.3 30.5-0.8-0.3 1.8-0.5 3.5-0.5 6.2 0 3 0.2 4.4 0.5 6.6-11.1-0.8-28.6-1.8-33-1.8-0.8 10.7-0.8 21.3-0.8 32 12.8-0.3 22.1-0.6 33.3-1.2-0.6 3.4-0.8 4.7-0.8 6.6 0 1.6 0.3 2.9 0.8 6-11.2-0.9-22.1-1.3-33.3-1.3 0 6.2-0.1 12.5-0.1 18.8 0 6.1 0.1 12.4 0.4 18.3 11 0 22.3-0.6 33.5-1.9-0.3 2.1-0.5 3.5-0.5 6.6 0 3.1 0.2 4.6 0.5 6.3-5.2-0.1-12.1-0.7-25.6-0.7-23.8 0-27.7 0.4-31 0.7 0.9-12.9 1.2-24.2 1.2-40.6"/>
		<path id="Layer" class="s1" d="m521.4 448.4h-156.1c0 0 0.2-223.4 0-245.8-0.5-43-53.4-58-53.4-58h104.7c31.6 0 104.6 13.2 104.6 71.8 0 24.1 0.2 232 0.2 232z"/>
		<path id="Layer" class="s1" d="m388.6 126c-32.8 0-59.3-27.9-59.3-62.4 0-34.6 26.5-62.5 59.3-62.5 32.8 0 59.3 27.9 59.3 62.5 0 34.5-26.5 62.4-59.3 62.4z"/>
		<path id="Layer" class="s1" d="m346.9 448.4h-155.9c0 0 0.3-223.4 0-245.7-0.5-43.1-53.3-58-53.3-58h104.5c31.6 0 104.6 13.1 104.6 71.7 0 24.1 0.1 232 0.1 232z"/>
		<path id="Layer" class="s1" d="m215.8 125.8c-32.8 0-59.3-27.9-59.3-62.4 0-34.6 26.5-62.5 59.3-62.5 32.8 0 59.3 27.9 59.3 62.5 0 34.5-26.5 62.4-59.3 62.4z"/>
		<path id="Layer" class="s1" d="m172.9 448.4h-132.5c0 0 0.3-145.5 0-162.3-0.4-32.3-40-43.5-40-43.5h93.9c23.7 0 78.5 9.9 78.5 53.9 0 18 0.1 151.9 0.1 151.9z"/>
		<path id="Layer" class="s1" d="m63.8 223.6c-24.6 0-44.4-20.9-44.4-46.8 0-25.9 19.8-46.8 44.4-46.8 24.6 0 44.5 20.9 44.5 46.8 0 25.9-19.9 46.8-44.5 46.8z"/>
	</g>
</svg>