<svg version="1.2" xmlns="http://www.w3.org/2000/svg" viewBox="0 0 1577 366" width="1577" height="366">
	<title>Molson_Coors_Beverage_Company_logo-svg</title>
	<style>
		.s0 { fill: #f8b000 } 
		.s1 { fill: #478aca } 
		.s2 { fill: #eb6823 } 
		.s3 { fill: #e1e6e8 } 
		.s4 { fill: #17213d } 
	</style>
	<g id="layer1">
		<g id="g712">
			<path id="path252" class="s0" d="m169.7 266.9c2.5-34.1-16.8-67.4-50.1-81.1-33.4-13.8-70.5-3.9-92.9 21.9-21.3-34.7-26.3-78.8-9.5-119.3 27.9-67.2 105-99.1 172.3-71.3 67.3 27.9 99.2 104.9 71.3 172.1-16.8 40.5-51.5 68.2-91.1 77.7z"/>
			<path id="path254" class="s1" d="m88.6 260.4c26.7 11.1 55 12.7 81.1 6.4-0.6 8.5-2.6 17.1-6 25.3-17.2 41.6-64.9 61.3-106.6 44.1-41.6-17.2-61.3-64.8-44.1-106.4 3.5-8.3 8.1-15.7 13.7-22.1 14 22.9 35.2 41.7 61.9 52.7z"/>
			<path id="path256" class="s2" d="m169.7 266.8c-26.1 6.3-54.4 4.7-81.1-6.4-26.7-11-47.9-29.8-61.9-52.7 22.4-25.8 59.5-35.7 92.9-21.9 33.3 13.7 52.6 47 50.1 81z"/>
			<path id="path258" fill-rule="evenodd" class="s3" d="m266.9 191.7c-6.7 16.1-16.4 30.6-28.3 42.9l0.1 0.1-87.7 88.1h-0.1c-16.5 16.7-39.2 26.1-62.7 26.1-11.2 0-22.6-2.1-33.5-6.7-21.8-9-38.7-25.9-47.7-47.6-4.7-11.3-6.6-23.2-6.5-35.1v-124.6c0.5-16.6 4.2-33.3 10.7-49 14.1-34.1 40.7-60.7 74.9-74.8 34.1-14.1 71.7-14.1 105.9 0 70.5 29.2 104.1 110.2 74.9 180.6zm-149.8 0.1c-28.5-11.8-60.8-5-82.2 16.7 13.8 20.5 33.1 36.4 56.2 45.9 23.1 9.6 47.9 12 72.2 7.2 0.3-30.4-17.8-58.1-46.2-69.8zm44.9 83.3c-25.6 4.3-51.7 1.4-75.9-8.6-24.3-10.1-44.8-26.4-59.8-47.6-8 11.6-13 26.5-13 42.5 0 9.5 2 19.1 5.8 28.2 7.6 18.5 22 32.9 40.6 40.6 18.5 7.6 38.9 7.7 57.4 0 32.8-13.7 42.8-42.7 44.9-55.1zm25-251.9c-30.9-12.8-65-12.8-95.9 0-31 12.8-55 36.8-67.9 67.7-14.1 34.3-12.3 73.3 4.9 106 16.5-15.6 38.1-23.9 60.2-23.9 11.3 0 22.8 2.2 33.8 6.7 32.3 13.4 53.3 44.2 54.3 78.5 35.2-11 64.2-37.2 78.4-71.5 26.5-63.8-4-137.1-67.8-163.5z"/>
			<path id="path260" fill-rule="evenodd" class="s4" d="m544.1 145.6l-13.5-86-51 79.7-50.9-79.7-13.6 86h-21.1l21-142.7 64.6 98.1 64.6-98.1 21.1 142.7zm132.3 2.1c-40.2 0-72.7-32.9-72.7-73.6 0-40.7 32.5-73.5 72.7-73.5 40.2 0 72.7 32.8 72.7 73.5 0 40.7-32.5 73.6-72.7 73.6zm51.3-73.6c0-29.6-22.9-53.6-51.3-53.6-28.3 0-51.2 24-51.2 53.6 0 29.7 22.9 53.6 51.2 53.6 28.4 0 51.3-23.9 51.3-53.6zm71.5-71.9h21.4v123.9h57.7v19.5h-79.1zm112.3 101.8h21.2c0.4 12.3 11.9 24.1 29.8 24.1 17.1 0 27.1-10.3 27.1-22.2 0-12.7-11.4-18.8-23.1-21.9l-18.3-4.5c-30.7-7.7-35.7-25.9-35.7-37.7 0-25.2 22.3-41.2 47.7-41.2 25.9 0 46.1 16.2 46.1 42.2h-21.2c0-13.5-10.7-22.7-25.5-22.7-13.5 0-25.6 8.2-25.6 21.3 0 4.5 1.5 14.1 19.6 18.7l18.1 4.6c24.2 6 39.4 19.1 39.4 40.1 0 24-19.6 42.9-48.6 42.9-30.6 0-51-20.6-51-43.7zm212.3 43.7c-40.2 0-72.7-32.9-72.7-73.6 0-40.6 32.5-73.5 72.7-73.5 40.2 0 72.7 32.9 72.7 73.5 0 40.7-32.5 73.6-72.7 73.6zm51.3-73.6c0-29.6-22.9-53.6-51.3-53.6-28.3 0-51.2 24-51.2 53.6 0 29.7 22.9 53.6 51.2 53.6 28.4 0 51.3-23.9 51.3-53.6zm186.9-71.4v142.7l-94.1-92.5v92.5h-21.3v-142.7l94.1 89.3v-89.3zm-968.7 273.2c0-40.5 32.2-73.4 72.9-73.4 22.7 0 42.5 10 55.2 25.8l-15.8 12.7c-9.2-11.5-23.4-18.5-39.2-18.5-29.2 0-51.7 23.9-51.7 53.4 0 29.4 22.3 53.5 51.7 53.5 15.8 0 30-7.3 39.2-18.5l15.8 12.7c-12.7 15.8-32.5 25.8-55.2 25.8-40.7 0-72.9-32.9-72.9-73.5zm240.9 73.5c-40.2 0-72.7-32.9-72.7-73.6 0-40.7 32.5-73.5 72.7-73.5 40.2 0 72.7 32.8 72.7 73.5 0 40.7-32.5 73.6-72.7 73.6zm51.3-73.5c0-29.7-22.9-53.6-51.3-53.6-28.3 0-51.3 23.9-51.3 53.6 0 29.6 23 53.5 51.3 53.5 28.4 0 51.3-23.9 51.3-53.5zm129.5 73.5c-40.2 0-72.7-32.9-72.7-73.6 0-40.7 32.5-73.5 72.7-73.5 40.2 0 72.7 32.8 72.7 73.5 0 40.7-32.5 73.6-72.7 73.6zm51.3-73.5c0-29.7-22.9-53.6-51.3-53.6-28.3 0-51.2 23.9-51.2 53.6 0 29.6 22.9 53.5 51.2 53.5 28.4 0 51.3-23.9 51.3-53.5zm109.4 17.9h-16.5v53.5h-21.4v-143.4h54.8c31.4 0 44.2 22.7 44.2 45.4 0 20.6-10.5 40.8-36.9 44.1l38.1 53.9h-25.6zm-16.5-18.7h28.1c19.9 0 28-10.6 28-25.8 0-15-9-25.8-22.9-25.8h-33.2zm120.1 30.6h21.2c0.4 12.3 11.9 24.2 29.8 24.2 17.1 0 27.1-10.4 27.1-22.3 0-12.7-11.5-18.7-23.1-21.9l-18.4-4.5c-30.6-7.8-35.6-25.9-35.6-37.7 0-25.2 22.3-41.3 47.7-41.3 25.8 0 46.1 16.3 46.1 42.3h-21.3c0-13.5-10.6-22.7-25.4-22.7-13.6 0-25.7 8.1-25.7 21.3 0 4.5 1.5 14.1 19.7 18.7l18.1 4.6c24.1 6 39.4 19.1 39.4 40.1 0 24-19.6 42.9-48.6 42.9-30.6 0-51-20.6-51-43.7zm205.4-62.6c0 11.5-8.2 18.9-18 18.9-4.9 0-10.2-2.1-12.6-6.2v5.5h-7.6v-55.9h7.6v25c2.4-4.1 7.5-6.1 12.6-6.1 9.9 0 18 7.3 18 18.8zm-7.7-0.1c0-6.8-4.9-11.5-11.2-11.5-5.6 0-11.6 4.3-11.6 11.5 0 7.3 5.5 11.8 11.6 11.8 6.3 0 11.2-5 11.2-11.8zm51 3.2h-28.9c1.1 5.9 5.4 8.8 11.3 8.8 4.2 0 8.2-1.8 10.2-5.1l6 3c-3.2 6-9.7 9.1-16.6 9.1-10.5 0-18.7-7.5-18.7-19 0-11.4 8.4-18.7 18.7-18.7 10.3 0 18.2 7.3 18.2 18.7 0 1-0.1 2.1-0.2 3.2zm-7.4-6.1c-0.7-5.6-4.9-8.8-10.5-8.8-5.6 0-9.8 2.8-10.9 8.8zm48.2-15l-15.1 36.2h-7.2l-15.1-36.2h8.1l10.6 26.3 10.5-26.3zm40.1 21.1h-28.9c1 5.9 5.3 8.8 11.3 8.8 4.1 0 8.1-1.8 10.1-5.1l6.1 3c-3.2 6-9.7 9.1-16.6 9.1-10.5 0-18.8-7.5-18.8-19 0-11.4 8.4-18.7 18.8-18.7 10.3 0 18.1 7.3 18.1 18.7 0 1-0.1 2.1-0.1 3.2zm-7.5-6.1c-0.7-5.6-4.9-8.8-10.5-8.8-5.6 0-9.7 2.8-10.8 8.8zm40.5-14.5l-1.3 7.2c-2-0.9-3.9-1.2-5.4-1.2-6.6 0-9.7 6.9-9.7 16.6v13.1h-7.6v-36.2h7.6v8.1c1.9-6.4 5.6-8.9 10.2-8.9 2.5 0 5.1 0.6 6.2 1.3zm41.4-0.5v36.2h-7.6v-5.5c-2.4 4.1-7.6 6.2-12.5 6.2-9.9 0-18-7.4-18-18.9 0-11.5 8.1-18.8 17.9-18.8 5.1 0 10.2 2 12.6 6.1v-5.3zm-7.7 17.9c0-7.2-6-11.5-11.6-11.5-6.2 0-11.2 4.7-11.2 11.5 0 6.8 5 11.8 11.2 11.8 6.2 0 11.6-4.5 11.6-11.8zm54.9-17.9v30.7c0 16.9-7.8 23.5-20 23.5-6.8 0-13.2-3.5-16.6-10l6.5-3.2c2 3.9 6.2 6.2 10.1 6.2 7.6 0 12.4-4.4 12.4-15.8v-0.5c-2.5 3.9-7.7 6-12.5 6-9.9 0-18-7.4-18-18.9 0-11.5 8.1-18.8 17.9-18.8 5.1 0 10.1 2 12.6 6v-5.2zm-7.7 17.9c0-7.2-6-11.5-11.6-11.5-6.2 0-11.2 4.7-11.2 11.5 0 6.8 5 11.8 11.2 11.8 6.2 0 11.6-4.5 11.6-11.8zm53.4 3.2h-28.9c1 5.9 5.3 8.8 11.3 8.8 4.1 0 8.1-1.8 10.1-5.1l6.1 3c-3.2 6-9.7 9.1-16.6 9.1-10.5 0-18.7-7.5-18.7-19 0-11.4 8.3-18.7 18.7-18.7 10.3 0 18.1 7.3 18.1 18.7 0 1 0 2.1-0.1 3.2zm-7.5-6.1c-0.7-5.6-4.8-8.8-10.4-8.8-5.6 0-9.8 2.8-10.9 8.8zm-322.2 89.2c0-11.5 9.1-18.9 19.6-18.9 5.9 0 10.9 2.4 14.1 6.2l-5 4.8c-2.1-2.4-5.3-3.9-9-3.9-6.7 0-12.1 4.9-12.1 11.8 0 6.9 5.4 11.7 12.1 11.7 3.7 0 6.9-1.5 9-3.8l5 4.7c-3.2 3.8-8.2 6.2-14.1 6.2-10.5 0-19.6-7.4-19.6-18.8zm38.7-0.1c0-11.5 8.7-18.8 19-18.8 10.3 0 19.1 7.3 19.1 18.8 0 11.4-8.8 19-19.1 19-10.3 0-19-7.6-19-19zm30.5 0c0-7-5.3-11.6-11.5-11.6-6.2 0-11.4 4.6-11.4 11.6 0 7 5.2 11.8 11.4 11.8 6.2 0 11.5-4.8 11.5-11.8zm73.8-2.5v20.7h-7.7v-20.1c0-6-3.1-9.5-8-9.5-5.2-0.1-8.6 3.6-9.1 9v20.6h-7.7v-20.2c0-6-3.1-9.4-7.6-9.4-4.7 0-9.5 2.9-9.5 10.2v19.4h-7.6v-36.2h7.6v5.7c1.6-4 6.4-6.5 11.3-6.5 5.2 0 9.7 2.7 11.8 7.3 3.3-6.1 8.9-7.3 12.5-7.3 9.1 0 14 6 14 16.3zm49 2.6c0 11.6-8.1 18.9-18 18.9-5.1 0-10.1-2-12.5-6.2v23h-7.6v-53.8h7.6v5.4c2.4-4.1 7.7-6.2 12.5-6.2 9.8 0 18 7.4 18 18.9zm-7.6 0.1c0-6.8-5-11.8-11.3-11.8-6.1 0-11.5 4.5-11.5 11.8 0 7.3 5.9 11.6 11.5 11.6 6.3 0 11.3-4.8 11.3-11.6zm52.5-18.2v36.2h-7.6v-5.4c-2.4 4.1-7.6 6.2-12.5 6.2-9.9 0-18-7.4-18-18.9 0-11.6 8.1-18.9 17.9-18.9 5.1 0 10.2 2.1 12.6 6.1v-5.3zm-7.7 18c0-7.3-6-11.6-11.5-11.6-6.3 0-11.3 4.8-11.3 11.6 0 6.7 5 11.8 11.3 11.8 6.1 0 11.5-4.5 11.5-11.8zm53-2.5v20.7h-7.7v-20.1c0-5.9-3.5-9.4-8.2-9.4-4.7 0-10.4 2.7-10.4 10.2v19.3h-7.7v-36.2h7.7v5.6c2-4.4 7.9-6.4 11.8-6.4 9.1 0 14.5 6 14.5 16.3zm42.7-15.5l-22.5 53.8h-8.1l7.8-19.2-14.4-34.6h8.2l10.4 25.2 10.4-25.2z"/>
		</g>
	</g>
</svg>