<svg version="1.2" baseProfile="tiny-ps" xmlns="http://www.w3.org/2000/svg" viewBox="0 0 1577 378" width="1577" height="378">
	<title>Mondelez_international_2012_logo-svg</title>
	<style>
		tspan { white-space:pre }
		.shp0 { fill: #e51636 } 
		.shp1 { fill: #472380 } 
	</style>
	<g id="layer1">
		<g id="g545">
			<path id="path386" class="shp0" d="M168.2 250.56C160.9 257.19 150.35 259.4 143.75 260.24C130.29 261.93 116.37 257.46 107.49 246.74C100.19 237.99 96.45 226.66 89.33 217.6C78.08 203.26 60.1 193.87 41.58 197.19C4.97 203.83 -11.64 246.55 9.06 276.19C38.64 318.54 105.17 311.2 139.32 281.86C149.95 272.74 159.88 262.59 168.2 250.56" />
			<path id="path388" class="shp0" d="M1408.72 250.55C1416.04 257.19 1426.56 259.4 1433.19 260.24C1446.64 261.93 1460.56 257.47 1469.44 246.75C1476.73 237.99 1480.49 226.66 1487.6 217.6C1498.86 203.26 1516.84 193.86 1535.35 197.19C1571.95 203.83 1588.56 246.55 1567.85 276.19C1538.28 318.53 1471.75 311.21 1437.62 281.87C1426.99 272.75 1417.04 262.59 1408.72 250.55" />
			<path id="path390" class="shp1" d="M1286.81 24.68C1285.89 24.65 1198.51 24.65 1197.7 24.68C1188.13 24.97 1180.21 33.84 1179.75 42.97C1179.27 52.67 1187.69 62.29 1197.7 62.77C1198.63 62.8 1286.01 62.8 1286.81 62.77C1296.39 62.48 1304.31 53.61 1304.76 44.48C1305.25 34.77 1296.83 25.17 1286.81 24.68Z" />
			<path id="path392" class="shp1" d="M730.3 214.7C729.08 209.64 728.43 204.66 728.08 199.64C728.02 192.39 728.02 182.21 728.02 172.84C728.93 140.49 734.97 83.58 691.12 83.58C661.51 83.58 643.96 108.52 638.99 116.67C638.28 93.94 620.36 77.45 592.98 77.45C575.51 77.45 565.14 91.36 565.14 91.36C565.14 91.36 582.18 97.27 582.18 120.18C582.36 136.58 582.15 216.45 582.18 216.79C582.85 230.94 592.73 244.21 610.41 244.21C628.08 244.21 639.05 230.62 639.05 216.76L639.05 145.93C641.52 134.35 648.03 122.53 657.85 122.53C670.58 122.53 671.29 136.7 671.35 136.7L671.29 205.27C671.35 207.5 671.64 209.64 672.02 211.74C672.65 215.31 673.73 218.64 675.28 221.69C682.08 235.5 697.1 244.51 717.29 244.51C734.75 244.51 745.13 230.61 745.13 230.61C745.13 230.61 734.88 226.99 730.3 214.7" />
			<path id="path394" class="shp1" d="M1151.8 214.7C1150.56 209.64 1149.9 204.66 1149.58 199.64L1149.63 29.93C1149.63 13.42 1136.26 0.04 1119.76 0.04C1103.27 0.04 1089.9 13.42 1089.9 29.93L1089.94 180.23C1090.08 193.77 1088.76 207.6 1095.14 220.04C1101.9 233.86 1118.6 244.51 1138.76 244.51C1156.27 244.51 1166.63 230.61 1166.63 230.61C1166.63 230.61 1156.4 226.99 1151.8 214.7" />
			<path id="path396" fill-rule="evenodd" class="shp1" d="M565.57 163.31C565.57 208.16 529.23 244.51 484.42 244.51C439.6 244.51 403.27 208.16 403.27 163.31C403.27 118.45 439.6 82.1 484.42 82.1C529.23 82.1 565.57 118.45 565.57 163.31ZM508.01 163.31C508.01 134.54 498.27 116.9 485.02 116.58L485.02 116.58C484.95 116.58 484.89 116.58 484.84 116.58C484.78 116.58 484.72 116.58 484.67 116.58L484.67 116.58C471.4 116.9 461.67 134.54 461.67 163.31C461.67 192.12 469.35 209.74 484.67 210.02L484.67 210.06C484.72 210.06 484.77 210.03 484.84 210.03C484.9 210.03 484.95 210.06 485.02 210.06L485.02 210.02C500.35 209.74 508.01 192.12 508.01 163.31Z" />
			<path id="path398" fill-rule="evenodd" class="shp1" d="M912.82 214.7C917.43 226.99 927.65 230.61 927.65 230.61C927.65 230.61 917.29 244.51 899.79 244.51C879.62 244.51 862.93 233.86 856.16 220.04C855.7 219.15 855.3 218.25 854.92 217.35C852.27 229.62 835.8 239.89 825.35 242.62C810.22 246.55 790.22 244.36 776.96 235.85C729.93 205.61 734.26 83.39 802.85 83.39C827.78 83.39 843.6 100.3 850.79 110.31L850.91 29.93C850.91 13.42 864.28 0.04 880.77 0.04C897.27 0.04 910.64 13.42 910.64 29.93L910.6 199.64C910.92 204.66 911.58 209.64 912.82 214.7M846.82 164.13C846.82 139.07 837.1 123.71 823.81 123.43L823.81 123.41C823.75 123.41 823.7 123.43 823.65 123.43C823.58 123.43 823.54 123.41 823.46 123.41L823.46 123.43C810.19 123.71 800.47 139.07 800.47 164.13C800.47 189.22 808.14 204.6 823.46 204.82L823.46 204.85C823.54 204.85 823.58 204.84 823.65 204.84C823.7 204.84 823.75 204.85 823.81 204.85L823.81 204.82C839.14 204.6 846.82 189.22 846.82 164.13Z" />
			<path id="path400" fill-rule="evenodd" class="shp1" d="M1068.21 194.26C1068.21 194.26 1065.25 244.51 1003.54 244.51C968.5 244.51 926.3 217.82 926.3 165.19C926.3 118.45 958.71 83.05 1003.08 83.05C1029.94 83.05 1075.26 96.28 1075.26 136.39C1075.26 176.52 1033.72 179.84 984.2 179.84C984.2 179.84 991.49 206.27 1025.47 206.27C1059.45 206.27 1068.21 194.26 1068.21 194.26ZM980.99 154.09C980.82 155.35 999.93 154.39 1001.14 154.13C1012.51 151.74 1020.68 143.13 1020.46 130.5C1020.25 118.53 1006.87 111.46 997.3 117.67C985.79 125.15 982.73 141.29 980.99 154.09L980.99 154.09Z" />
			<path id="path402" fill-rule="evenodd" class="shp1" d="M1307.14 194.26C1307.14 194.26 1304.18 244.51 1242.47 244.51C1207.44 244.51 1165.23 217.82 1165.23 165.19C1165.23 118.45 1197.64 83.05 1242.01 83.05C1268.87 83.05 1314.19 96.28 1314.19 136.39C1314.19 176.52 1272.65 179.84 1223.13 179.84C1223.13 179.84 1230.42 206.27 1264.4 206.27C1298.38 206.27 1307.14 194.26 1307.14 194.26ZM1219.92 154.09C1219.75 155.35 1238.87 154.39 1240.07 154.13C1251.44 151.74 1259.61 143.13 1259.39 130.5C1259.18 118.53 1245.8 111.46 1236.24 117.67C1224.72 125.15 1221.66 141.29 1219.92 154.09L1219.92 154.09Z" />
			<path id="path404" class="shp1" d="M1419.2 198.6L1385.17 198.6C1387.67 198.6 1412.85 177.36 1421.19 170.28C1443.06 151.72 1482.37 124.93 1470.91 90.23L1470.93 90.48C1468.83 82.21 1462.48 77.45 1462.48 77.45C1462.48 77.45 1460.1 84.19 1452.02 87.21C1448.71 88.01 1445.41 88.61 1442.12 88.81C1439.4 88.86 1347 88.81 1347 88.81C1334.51 88.79 1324.03 98.85 1323.86 110.71C1323.71 122.68 1333.6 132.28 1346.26 132.45L1400.17 132.79C1375.18 146.73 1345.34 163.25 1330.19 188.46C1321.54 202.94 1312.28 225.25 1315.8 242.36C1327.77 231.74 1359.2 221.46 1383.13 226.46C1392.08 228.33 1401.6 232.9 1409.35 237.75C1454.22 265.83 1481.18 210.9 1459.73 186.69C1459.73 186.69 1447.5 198.6 1419.2 198.6" />
			<path id="path406" class="shp1" d="M407.66 232.77C380.14 202.57 371.53 152.35 369.84 118.97C368.38 90.13 369.93 40.19 392.64 25.66C385.04 16.1 370.05 12.24 358.65 12.24C333.05 12.24 320.71 29.31 311.95 41.58C309.06 45.63 266.01 105.07 266.01 105.07C266.01 105.07 229.79 49.01 225.34 42.27C219.19 32.98 207.67 15.9 187.43 12.95C178.72 11.67 156.1 10.52 143.8 27.42C165.01 44.41 164.48 87.66 159.87 117.19C146.06 205.84 108.36 214 108.36 214C127.67 266.18 177.39 245.56 191.44 203.96C200.54 176.92 206.42 142.69 207.77 114.31L262.34 198.07C262.34 198.07 324.13 114.57 324.13 114.64C313.95 262.31 364.63 304.18 408.95 304.18C453.31 304.18 468.4 263.59 468.4 263.59C444.42 262.14 423.43 250.07 407.66 232.77" />
			<path id="path408" class="shp1" d="M546.07 280.8C546.6 282.97 546.88 285.1 547.02 287.25C547.03 287.9 546.98 364.5 547.02 365.42C547.21 371.86 553.16 377.17 559.28 377.47C565.79 377.8 572.23 372.14 572.55 365.42C572.58 364.54 572.55 295.55 572.55 295.55C572.49 289.76 573.06 283.84 570.33 278.52C567.43 272.6 560.28 268.04 551.65 268.04C544.16 268.04 539.72 274 539.72 274C539.72 274 544.1 275.54 546.07 280.8" />
			<path id="path410" class="shp1" d="M1355.37 364.73C1354.84 362.56 1354.56 360.43 1354.41 358.27C1354.41 357.63 1354.45 281.02 1354.42 280.11C1354.23 273.67 1348.28 268.36 1342.16 268.05C1335.65 267.73 1329.21 273.39 1328.89 280.11C1328.86 280.99 1328.89 349.97 1328.89 349.97C1328.95 355.76 1328.38 361.68 1331.11 367.01C1334.01 372.93 1341.15 377.48 1349.78 377.48C1357.28 377.48 1361.71 371.53 1361.71 371.53C1361.71 371.53 1357.34 369.98 1355.37 364.73" />
			<path id="path412" class="shp1" d="M893.45 307.7C880.18 307.7 872.32 318.87 870.1 322.53L870.02 322.58C870.02 318.89 870.01 315.97 870.01 315.82C869.81 309.39 863.86 304.58 857.75 304.28C851.25 303.95 844.81 309.11 844.48 315.82C844.46 316.69 844.46 364.72 844.48 365.37C844.68 371.8 850.63 377.11 856.75 377.41C863.24 377.74 869.68 372.08 870.01 365.37C870.02 364.88 870.03 349.2 870.02 335.7L870.13 335.63C871.23 330.45 874.14 325.15 878.55 325.15C884.25 325.15 884.56 331.5 884.59 331.5L884.54 365.37C884.73 371.8 890.68 377.11 896.8 377.41C903.3 377.73 909.73 372.08 910.06 365.37L910.03 347.67C910.03 329.47 911.92 307.62 893.45 307.7" />
			<path id="path414" class="shp1" d="M1219.73 307.7C1206.46 307.7 1198.6 318.87 1196.38 322.53L1196.3 322.58C1196.3 318.89 1196.29 315.97 1196.29 315.82C1196.09 309.39 1190.15 304.58 1184.03 304.28C1177.54 303.95 1171.09 309.11 1170.77 315.82C1170.74 316.69 1170.74 364.72 1170.77 365.37C1170.96 371.8 1176.91 377.11 1183.03 377.41C1189.52 377.74 1195.96 372.08 1196.29 365.37C1196.3 364.88 1196.31 349.2 1196.31 335.7L1196.41 335.63C1197.5 330.45 1200.42 325.15 1204.83 325.15C1210.53 325.15 1210.85 331.5 1210.87 331.5L1210.82 365.37C1211.01 371.8 1216.96 377.11 1223.08 377.41C1229.58 377.73 1236.01 372.08 1236.34 365.37L1236.31 347.67C1236.31 329.47 1238.2 307.62 1219.73 307.7" />
			<path id="path416" class="shp1" d="M634.29 307.7C621.02 307.7 613.16 318.87 610.94 322.53L610.86 322.58C610.86 318.89 610.85 315.97 610.85 315.82C610.65 309.39 604.71 304.58 598.59 304.28C592.09 303.95 585.64 309.11 585.32 315.82C585.3 316.69 585.3 364.72 585.32 365.37C585.52 371.8 591.47 377.11 597.59 377.41C604.08 377.74 610.52 372.08 610.85 365.37C610.86 364.88 610.87 349.2 610.86 335.7L610.97 335.63C612.06 330.45 614.98 325.15 619.39 325.15C625.09 325.15 625.41 331.5 625.43 331.5L625.38 365.37C625.57 371.8 631.52 377.11 637.64 377.41C644.14 377.73 650.57 372.08 650.9 365.37L650.86 347.67C650.86 329.47 652.76 307.62 634.29 307.7" />
			<path id="path418" fill-rule="evenodd" class="shp1" d="M1127.21 304.5C1147.28 304.5 1163.56 320.78 1163.56 340.88C1163.56 360.98 1147.28 377.25 1127.21 377.25C1107.13 377.25 1090.85 360.98 1090.85 340.88C1090.85 320.78 1107.13 304.5 1127.21 304.5ZM1137.77 340.88C1137.77 327.99 1133.41 320.09 1127.47 319.94L1127.47 319.94C1127.44 319.94 1127.41 319.94 1127.39 319.94C1127.35 319.94 1127.33 319.94 1127.32 319.94L1127.32 319.94C1121.36 320.09 1117.01 327.99 1117.01 340.88C1117.01 353.78 1120.45 361.67 1127.32 361.8L1127.32 361.82C1127.33 361.82 1127.35 361.81 1127.39 361.81C1127.41 361.81 1127.44 361.82 1127.47 361.82L1127.47 361.8C1134.33 361.67 1137.77 353.78 1137.77 340.88Z" />
			<path id="path420" fill-rule="evenodd" class="shp1" d="M991.44 314.94C991.46 315.56 991.47 363.71 991.44 364.63C991.1 371.66 984.35 377.58 977.54 377.24C972.07 376.97 966.75 372.87 965.18 367.49C962.61 371.67 956.96 374.94 953.13 375.94C946.35 377.7 937.39 376.72 931.44 372.91C910.37 359.36 912.32 304.6 943.05 304.6C954.22 304.6 961.3 312.18 964.53 316.66C964.53 316.47 964.59 315.43 964.6 314.94C964.94 307.91 971.68 301.98 978.5 302.32C984.9 302.64 991.23 308.21 991.44 314.94M962.75 340.77C962.75 329.55 958.39 322.67 952.44 322.54L952.44 322.53C952.42 322.53 952.39 322.54 952.37 322.54C952.33 322.54 952.32 322.53 952.28 322.53L952.28 322.54C946.33 322.67 941.98 329.55 941.98 340.77C941.98 352.01 945.42 358.9 952.28 359.01L952.28 359.02C952.32 359.02 952.33 359.02 952.37 359.02C952.39 359.02 952.42 359.02 952.44 359.02L952.44 359.01C959.3 358.9 962.75 352.01 962.75 340.77Z" />
			<path id="path422" fill-rule="evenodd" class="shp1" d="M1317.45 314.94C1317.47 315.56 1317.48 363.71 1317.45 364.63C1317.11 371.66 1310.37 377.58 1303.56 377.24C1298.1 376.97 1292.77 372.87 1291.2 367.49C1288.63 371.67 1282.98 374.94 1279.15 375.94C1272.37 377.7 1263.41 376.72 1257.46 372.91C1236.39 359.36 1238.34 304.6 1269.07 304.6C1280.23 304.6 1287.33 312.18 1290.54 316.66C1290.54 316.47 1290.61 315.43 1290.62 314.94C1290.96 307.91 1297.7 301.98 1304.51 302.32C1310.92 302.64 1317.25 308.21 1317.45 314.94M1278.46 359.01C1285.33 358.9 1288.77 352.01 1288.77 340.77C1288.77 329.55 1284.41 322.67 1278.46 322.54L1278.46 322.53C1278.43 322.53 1278.41 322.54 1278.39 322.54C1278.35 322.54 1278.34 322.53 1278.3 322.53L1278.3 322.54C1272.36 322.67 1268 329.55 1268 340.77C1268 352.01 1271.44 358.9 1278.3 359.01L1278.3 359.02C1278.34 359.02 1278.36 359.02 1278.39 359.02C1278.41 359.02 1278.43 359.02 1278.46 359.02L1278.46 359.01Z" />
			<path id="path424" class="shp1" d="M1082.84 321.79C1082.53 315.45 1077.55 310.47 1071.27 309.94C1070.89 309.9 1070.55 309.83 1070.19 309.83C1064.5 309.83 1057.35 314.74 1057.35 320.96L1057.38 344.52L1057.35 344.52C1057.43 351.86 1057.34 365.14 1057.35 365.29C1057.66 371.63 1062.64 376.61 1068.91 377.14C1069.29 377.19 1069.63 377.25 1070 377.25C1075.68 377.25 1082.84 372.34 1082.84 366.12L1082.81 346.44L1082.84 346.44C1082.75 339.09 1082.85 321.94 1082.84 321.79Z" />
			<path id="path426" class="shp1" d="M1082.74 289.94C1082.74 296.92 1077.08 302.59 1070.09 302.59C1063.1 302.59 1057.44 296.92 1057.44 289.94C1057.44 282.94 1063.1 277.27 1070.09 277.27C1077.08 277.27 1082.74 282.94 1082.74 289.94Z" />
			<path id="path428" class="shp1" d="M824.16 306.82C816.58 307.14 812.83 312.79 807.68 319.88C807.64 319.94 807.68 316.6 807.68 316.48C807.48 310.05 801.54 304.74 795.43 304.43C788.92 304.11 782.48 309.76 782.16 316.48L782.16 365.53L782.14 365.53C782.33 371.96 788.28 377.27 794.4 377.57C800.84 377.89 807.21 372.34 807.64 365.71L807.7 365.71L807.69 334.64C808.08 330.09 810.06 324.4 813.72 324.43C818.9 324.47 813.55 337.01 825.43 337.01C842.47 337.01 844.29 305.99 824.16 306.82" />
			<path id="path430" fill-rule="evenodd" class="shp1" d="M772.11 354.71C772.11 354.71 770.78 377.25 743.1 377.25C727.38 377.25 708.45 365.28 708.45 341.66C708.45 320.7 722.99 304.82 742.89 304.82C754.95 304.82 775.27 310.75 775.27 328.75C775.27 346.75 756.64 348.24 734.42 348.24C734.42 348.24 737.7 360.09 752.94 360.09C768.18 360.09 772.11 354.71 772.11 354.71ZM732.98 336.69C732.9 337.25 741.48 336.82 742.03 336.71C747.13 335.63 750.79 331.77 750.69 326.1C750.6 320.74 744.59 317.56 740.31 320.35C735.13 323.7 733.75 330.94 732.98 336.69L732.98 336.69Z" />
			<path id="path432" class="shp1" d="M706.9 363.81C706.9 363.81 700.27 377.25 688 377.25C677.9 377.25 665.47 368.33 664.95 355.41C664.95 355.29 664.88 336.71 664.84 321.17L661.41 321.17C659.62 321.17 656.45 320.1 656.45 315.43C656.45 310.76 660.01 309.77 661.78 309.77L664.81 309.77C664.79 304.34 664.79 300.61 664.8 300.38C665.12 293.68 671.55 288.04 678.03 288.36C684.13 288.67 690.22 293.96 690.41 300.38L690.41 309.77L701.22 309.77C702.71 309.77 706.18 310.75 706.18 315.5C706.18 320.26 702.71 321.17 700.84 321.17L690.41 321.17L690.41 349.7C690.41 358.96 698.38 363.76 706.94 363.79" />
			<path id="path434" class="shp1" d="M1048.4 363.81C1048.4 363.81 1041.76 377.25 1029.5 377.25C1019.4 377.25 1006.97 368.33 1006.45 355.41C1006.44 355.29 1006.38 336.71 1006.33 321.17L1002.91 321.17C1001.11 321.17 997.94 320.1 997.94 315.43C997.94 310.76 1001.51 309.77 1003.28 309.77L1006.3 309.77C1006.29 304.34 1006.28 300.61 1006.29 300.38C1006.62 293.68 1013.04 288.04 1019.52 288.36C1025.63 288.67 1031.71 293.96 1031.91 300.38L1031.91 309.77L1042.71 309.77C1044.21 309.77 1047.67 310.75 1047.67 315.5C1047.67 320.26 1044.21 321.17 1042.34 321.17L1031.91 321.17L1031.91 349.7C1031.91 358.96 1039.87 363.76 1048.43 363.79" />
		</g>
	</g>
</svg>