<svg version="1.2" xmlns="http://www.w3.org/2000/svg" viewBox="0 0 1514 442" width="1514" height="442">
	<title>Monolithic_Power_Systems_Logo-svg</title>
	<style>
		.s0 { fill: #1c4eff } 
	</style>
	<g id="layer1">
		<path id="path4208" fill-rule="evenodd" class="s0" d="m1221.9 111.8v42.7c0 10.8 8.3 19.6 18.4 19.6h185c24.3 0 46.3 10.5 62.2 27.4 14.9 16 24.5 37.7 25.6 61.8q0.1 2.3 0.1 4.6v80.1c0 51.9-39.4 94-88 94h-590.2v-103h527.9c10 0 18.3-8.8 18.3-19.5v-32c0-10.8-8.3-19.6-18.4-19.6h-182.6c-48.2 0-87.6-42.1-87.6-93.6v-80.7c0-51.5 39.4-93.6 87.6-93.6h247.2c46 0 80.9 37.4 80.9 83.5v8.7h-268c-10.1 0-18.4 8.8-18.4 19.6zm-612.7-27.5v357.5h-135.9v-320.5h-101.4v320.5h-135.9v-320.5h-104.9v320.5h-131.1v-347.7c0-46.3 36.8-94.1 81.8-94.1h445.6c45 0 81.8 37.9 81.8 84.3zm451.7 10v79.2c0 51.9-20.1 94.3-71.8 94.3h-206.1v174.2h-135.1v-385.7c0-31.1 25.2-56.3 56.2-56.3h285c51.7 0 71.8 42.5 71.8 94.3zm-132.5 18c0-10.8-8.8-19.6-19.5-19.6h-125.9v81.9h125.9c10.7 0 19.5-8.8 19.5-19.6z"/>
	</g>
</svg>