<svg version="1.2" baseProfile="tiny-ps" xmlns="http://www.w3.org/2000/svg" viewBox="0 0 1653 245" width="1653" height="245">
	<title>Morgan_Stanley_Logo-svg</title>
	<style>
		tspan { white-space:pre }
		.shp0 { fill: #000000 } 
	</style>
	<g id="Layer">
		<path id="Layer" class="shp0" d="M1600.68 157.29L1600.32 159.53L1599.92 157.29L1563.5 52.62L1542.67 52.62L1590.16 187.71L1590.16 188.8C1587.32 201.74 1579.22 217.6 1571.85 222.58C1565.38 226.99 1558.33 227.56 1552.9 227.56C1550.29 227.56 1544.75 226.63 1542.45 226.08L1542.45 242.36C1545.38 243.08 1552.33 244.39 1556.65 244.39C1566.78 244.39 1575.2 241.86 1582.37 236.64C1590.96 230.39 1600.58 214.19 1605.14 200.24L1652.5 52.6L1631.7 52.6L1600.68 157.29Z" />
		<path id="Layer" fill-rule="evenodd" class="shp0" d="M1528.36 124.62L1435.62 124.62C1435.65 139.19 1439.23 151.54 1446.02 160.36C1453.01 169.49 1463.12 174.3 1475.21 174.3C1496.34 174.3 1505.64 160.38 1509.76 151.2L1526.84 159.4C1520.59 174.48 1505.66 191.17 1475.21 191.17C1463.48 191.17 1446.47 188.42 1433.23 175.47C1420.65 163.21 1413.82 144.75 1413.82 120.6C1413.82 98.9 1419.15 80.99 1428.78 68.91C1433.63 62.77 1440.1 58.07 1447.12 54.9C1454.28 51.69 1462.49 50.05 1471.56 50.05C1488.98 50.05 1502.21 54.23 1511.58 62.86C1522.56 72.99 1528.36 89.44 1528.36 111.77L1528.36 124.62ZM1472.09 66.92C1449.44 66.92 1438.04 79.91 1436.19 107.78L1507.63 107.78C1507.55 79.89 1496.41 66.92 1472.09 66.92Z" />
		<path id="Layer" fill-rule="evenodd" class="shp0" d="M305.72 120.49C305.72 140.13 300.3 157.84 290.47 170.42C279.92 183.92 264.89 191.04 246.97 191.04C229.06 191.04 214.02 183.93 203.44 170.42C193.61 157.86 188.22 140.13 188.22 120.49C188.22 100.84 193.61 83.1 203.44 70.54C214.02 57.08 229.06 49.94 246.97 49.94C264.89 49.94 279.92 57.08 290.46 70.55C300.29 83.1 305.72 100.84 305.72 120.49ZM283.39 120.5C283.39 86.87 269.8 66.79 246.97 66.79C224.13 66.79 210.5 86.87 210.5 120.5C210.5 154.12 224.14 174.21 246.97 174.21C269.79 174.21 283.38 154.12 283.39 120.5Z" />
		<path id="Layer" class="shp0" d="M353.18 111.93C358.42 83.97 373.06 70.75 398.36 70.75L398.36 50.87C376.82 50.87 364.2 59.3 353.17 79.07L352.98 79.32L353.18 77.58L353.18 52.97L331.92 52.97L331.92 188.88L353.18 188.88L353.18 111.93Z" />
		<path id="Layer" class="shp0" d="M873.34 48.47C873.43 39.44 876.37 32.33 882.06 27.44C887.85 22.45 896.14 19.94 906.77 19.94C917.93 19.94 927.82 23.15 935.41 29.22C942.36 34.75 947.45 42.79 949.77 52.03L969.58 49.6C960.92 19.96 939.63 1.89 907.28 1.89C891.29 1.89 876.8 6.88 866.52 15.93C856.56 24.75 851.02 36.86 851.02 50.02C851.02 64.53 856.96 75.92 869.18 84.83C879.95 92.69 894.11 97.71 907.83 102.55C931.67 111.04 954.22 119.03 954.22 140.7C954.22 150.32 950.96 158.4 944.78 164.04C937.96 170.24 927.94 173.38 915 173.38C892.31 173.38 875.82 160.66 866.54 136.19L846.33 141.63C850.7 151.57 858.12 165.99 868.92 175.64C880.79 186.29 895.54 191.44 913.97 191.44C935.86 191.44 952.44 185.7 963.3 174.4C974.59 162.65 976.94 147.63 976.94 137.13C976.94 122.05 970.69 110.25 957.86 101.05C946.62 93 931.97 87.99 917.83 83.13C894.83 75.26 873.1 67.83 873.34 48.47Z" />
		<path id="Layer" class="shp0" d="M1010.57 69.38L990.17 69.38L990.17 52.53L1010.57 52.53L1010.57 8.06L1031.84 8.06L1031.84 52.54L1054.68 52.54L1054.68 69.38L1031.84 69.38L1031.84 162.27C1031.84 168.47 1033.29 174.2 1047.55 174.2C1049.9 174.2 1052.32 174.11 1054.68 173.97L1054.68 188.93C1054.68 188.93 1046.63 191.05 1040.57 191.05C1031 191.05 1023.76 189.51 1018.91 186.26C1014.41 183.18 1010.57 178.25 1010.57 169.86C1010.57 164.11 1010.57 69.38 1010.57 69.38Z" />
		<path id="Layer" class="shp0" d="M1376.97 162.27C1376.97 168.47 1378.95 174.2 1393.19 174.2C1395.55 174.2 1397.94 174.11 1400.34 173.97L1400.34 188.93C1400.34 188.93 1392.28 191.05 1386.22 191.05C1376.65 191.05 1369.4 189.51 1364.57 186.26C1360.05 183.18 1355.72 178.25 1355.72 169.86L1355.72 0L1377 0L1376.97 162.27Z" />
		<path id="Layer" class="shp0" d="M707.73 88C714.97 80.26 731.04 67.22 745.79 67.22C760.56 67.22 767.13 74.51 767.13 90.8L767.13 188.93L788.39 188.93L788.39 90.28C788.39 60.87 767.44 50.39 747.61 50.39C733.77 50.39 719.65 57.68 707.73 71.19L707.73 71.19L707.73 71.19L707.73 53.01L686.47 53.01L686.47 188.93L707.73 188.93L707.73 88Z" />
		<path id="Layer" fill-rule="evenodd" class="shp0" d="M585.57 191.58C575.07 191.27 565.43 187.92 558.46 181.33C550.97 174.16 545.24 164.13 545.24 152.35C545.24 135.77 553.69 123.72 567.12 115.08C579.49 107.12 596.31 102.84 621.64 100.01C626.24 99.53 628.02 98.89 628.69 98.04C629.11 97.51 629.06 96.09 629.06 96.09L629.04 91.2C629.04 75.35 619.91 67.3 601.83 67.3C578.91 67.3 570.5 82.11 568.11 88.53L550.97 79.58C557.04 68.38 571.43 50.46 601.57 50.46C614.15 50.46 625.76 53.72 634.14 59.68C644.32 66.85 649.71 77.82 649.71 91.39L649.79 100.05L649.79 165.72C649.79 171.56 652.9 173.77 657.63 174L657.63 188.43C653.71 189.39 644.51 190.08 638.94 187.1C633.03 183.97 630.34 179.62 629.78 172.1C622.65 183.05 607.91 192.26 585.57 191.58ZM629.65 114.94C627.17 116.38 622.32 117.28 619.75 117.51C582.73 121.58 565.92 130.92 567.57 153C568.59 166.22 578.43 174.14 588.42 174.7C606.55 175.72 628.66 161.26 629.65 149.37L629.65 114.94Z" />
		<path id="Layer" fill-rule="evenodd" class="shp0" d="M1115.7 191.58C1105.2 191.27 1095.57 187.92 1088.61 181.33C1081.1 174.16 1075.38 164.13 1075.38 152.35C1075.38 135.77 1083.82 123.72 1097.25 115.08C1109.64 107.12 1126.44 102.84 1151.77 100.01C1156.38 99.53 1158.15 98.89 1158.82 98.04C1159.24 97.51 1159.19 96.09 1159.19 96.09L1159.17 91.2C1159.17 75.35 1150.04 67.3 1131.96 67.3C1109.04 67.3 1100.62 82.11 1098.25 88.53L1081.09 79.58C1087.17 68.38 1101.56 50.46 1131.71 50.46C1144.29 50.46 1155.87 53.72 1164.27 59.68C1174.45 66.85 1179.83 77.82 1179.83 91.39L1179.92 100.05L1179.92 165.72C1179.92 171.56 1183.03 173.77 1187.76 174L1187.76 188.43C1183.84 189.39 1174.65 190.08 1169.07 187.1C1163.16 183.97 1160.46 179.62 1159.9 172.1C1152.78 183.05 1138.02 192.26 1115.7 191.58ZM1159.77 149.37L1159.77 114.94C1157.3 116.38 1152.45 117.28 1149.88 117.51C1112.86 121.58 1096.04 130.92 1097.71 153C1098.71 166.22 1108.56 174.14 1118.54 174.7C1136.67 175.72 1158.8 161.26 1159.77 149.37Z" />
		<path id="Layer" class="shp0" d="M80.37 152.54L35.34 4.42L0 4.42L0 188.88L21.26 188.88L21.26 20.18L21.72 20.8L72.23 188.88L88.74 188.88L139.25 20.8L139.72 20.18L139.72 188.88L160.98 188.88L160.98 4.42L125.59 4.42L80.61 152.54L80.49 153.32L80.37 152.54Z" />
		<path id="Layer" class="shp0" d="M1237.84 88C1245.07 80.26 1261.15 67.22 1275.92 67.22C1290.65 67.22 1297.24 74.51 1297.24 90.8L1297.24 188.93L1318.51 188.93L1318.51 90.28C1318.51 60.87 1297.56 50.39 1277.71 50.39C1263.87 50.39 1249.75 57.68 1237.83 71.19L1237.84 71.19L1237.83 71.19L1237.84 53.01L1216.59 53.01L1216.59 188.93L1237.84 188.93L1237.84 88Z" />
		<path id="Layer" fill-rule="evenodd" class="shp0" d="M518.99 52.87L518.99 193.42C518.99 223.49 501.05 244.3 463.38 244.3C449.53 244.3 433.42 241.56 423.51 237.31L423.51 218.91C435.26 224.41 449.71 227.5 465.98 227.5C482.73 227.5 498.3 216.44 498.3 198.32L498.3 172.49L497.25 173.01C488.91 183.69 476.75 191.02 463.38 191.02C440.45 191.02 406.55 173.29 406.55 120.65C406.55 66.44 440.45 50.28 464.41 50.28C480.57 50.28 490.74 57.06 498.54 67.21L503.07 52.87L518.99 52.87ZM498.29 84.68C488.35 72.35 477.96 67.13 465.97 67.13C442.54 67.13 428.83 85.19 428.83 119.59C428.83 160.51 444.09 174.16 465.97 174.16C477.17 174.16 492.78 165.03 498.29 149.37L498.29 84.68Z" />
	</g>
</svg>