<svg version="1.2" xmlns="http://www.w3.org/2000/svg" viewBox="0 0 1558 143" width="1558" height="143">
	<title>download (7)-svg</title>
	<style>
		.s0 { fill: #231f20 } 
		.s1 { fill: #000000 } 
	</style>
	<g id="Layer">
		<path id="Layer" fill-rule="evenodd" class="s0" d="m1517.9 102.3c-15.1 0-23.5-5-23.5-15.5q0-2.1 0.4-4.4l0.1-0.3h9.8l-0.1 0.4q-0.1 0.3-0.1 0.6-0.1 0.3-0.1 0.7-0.1 0.3-0.1 0.6 0 0.4 0 0.7c0 6.1 5.9 9.7 16 9.7 12.4 0 20.4-4.9 22.1-11.2 0.2-0.7 0.3-1.3 0.3-1.9 0.1-5.9-9.6-6.6-19.6-7.8-9.9-1.3-20.1-3.3-20.2-12.7q0-2 0.7-4.4c3.1-11.8 14.9-18.5 31.4-18.5 11.2 0.1 22.5 3.1 22.6 14.1q0 1.8-0.5 3.9v0.3h-9.8l0.1-0.4q0-0.2 0-0.5 0-0.2 0.1-0.4 0-0.2 0-0.5 0-0.2 0-0.4c0-6.6-7.1-8.6-16.1-8.6-8.5 0-16.7 4.3-18.4 10.7q-0.3 0.9-0.3 1.7c0.1 2.4 1.6 4.7 7.3 5.7l21.4 3.9c7.6 1.3 11.2 5.3 11.2 10.8q-0.1 2-0.6 4.2c-3.3 12.2-16.1 19.5-34 19.5q0 0-0.1 0zm-59.5-1.6l-22.9-50.9-13.6 50.9h-9.4l16.3-60.8h12.3l22.9 50.9 13.5-50.6 0.1-0.3h9.3l-16.3 60.8zm-51.2-39.5q0 1.1-0.1 2.3-0.1 1.2-0.3 2.3-0.1 1.2-0.4 2.3-0.2 1.2-0.5 2.3c-3.9 14.5-17.2 31.9-42.6 31.9-10 0-16.8-2.7-21-6.9-4.2-4.3-5.9-10-5.9-15.9q0-1.1 0.1-2.3 0.1-1.2 0.2-2.3 0.2-1.2 0.4-2.4 0.3-1.1 0.6-2.2c3.8-14.5 17.2-32 42.6-32 10 0 16.7 2.8 21 7 4.2 4.3 5.9 10 5.9 15.9zm-10 1.6c-0.1-10.4-7-16.9-18.8-17-14.4 0-27 9.9-30.9 24.6q-1.1 4-1.1 7.5c0 10.4 6.9 16.9 18.7 16.9 14.5 0 27.1-9.9 31-24.5q1.1-4 1.1-7.5zm-94.3 38l16.3-60.6v-0.2h9.4l-16.3 60.8zm-50 0l14.1-52.9h-25.5l2.2-7.9h60.3l-2.2 7.9h-25.5l-14.1 52.9zm-68.7 1.5c-13.5 0-22.5-6-22.5-18q0-3.7 1.2-8.2l9.7-36.2h9.3l-9.8 36.8q-0.2 0.7-0.4 1.5-0.2 0.7-0.3 1.5-0.1 0.7-0.1 1.5-0.1 0.7-0.1 1.5c0 7.7 4.9 12.1 14.9 12.1 12.2 0 20.9-6.9 23.9-18.3l9.7-36.3 0.1-0.3h9.4l-9.7 36.4c-4.7 17.3-18.8 26-35.2 26 0 0-0.1 0-0.1 0zm-89.6-1.6l16.2-60.5 0.1-0.3h9.3l-14.3 53.3h45.1l-2 7.5zm-49.4 1.7c-10.1 0-16.8-2.8-21-7-4.3-4.3-5.9-10-5.9-15.8 0-3.2 0.4-6.3 1.2-9.3 3.9-14.5 17.2-31.9 42.6-31.9 10 0 16.8 2.7 21 7 4.2 4.2 5.9 9.9 5.9 15.8 0 3.1-0.4 6.2-1.2 9.2-3.9 14.5-17.2 32-42.6 32q0 0 0 0zm1.8-7.5c14.4 0 27-9.9 31-24.6q0.2-0.9 0.4-1.9 0.2-0.9 0.3-1.8 0.2-1 0.2-1.9 0.1-0.9 0.1-1.9c0-10.4-6.9-16.9-18.7-16.9-14.4 0-27 9.9-31 24.5q-0.2 0.9-0.4 1.9-0.2 0.9-0.4 1.8-0.1 1-0.2 1.9 0 1 0 1.9c0 10.4 6.9 16.9 18.7 17zm-77.9 7.4c-15.1 0-23.6-5-23.6-15.5q0-2.1 0.5-4.5v-0.2h9.8v0.4q-0.1 0.3-0.2 0.6 0 0.3-0.1 0.7 0 0.3-0.1 0.6 0 0.3 0 0.7c0 6.1 6 9.7 16 9.7 12.4 0 20.5-4.9 22.2-11.2 0.1-0.7 0.2-1.3 0.2-1.9 0.2-5.9-9.6-6.6-19.6-7.8-9.9-1.3-20.1-3.2-20.1-12.7q0-2 0.6-4.4c3.2-11.8 15-18.5 31.4-18.5 11.3 0.1 22.6 3.1 22.6 14.1q0 1.8-0.4 3.9l-0.1 0.3h-9.8l0.1-0.4q0.1-1 0.2-1.8c-0.1-6.6-7.2-8.6-16.2-8.6-8.4 0-16.7 4.3-18.4 10.7q0 0.2-0.1 0.4 0 0.2-0.1 0.4 0 0.3 0 0.5 0 0.2 0 0.4c0 2.4 1.6 4.7 7.3 5.7l21.3 3.9c7.6 1.3 11.2 5.3 11.2 10.8q0 2-0.6 4.2c-3.3 12.2-16.1 19.5-34 19.5zm-59.2-1.9h-23.7l-2.6-10.4v-0.3h-28.6l-0.2 0.3-7 10.4h-20.1l40.5-60.2h28c0 0 13.7 60.2 13.7 60.2zm-29.7-24.9l-4-17.6-11.8 17.6 0.3 0.1h15.3c0 0 0.2-0.1 0.2-0.1zm-106.2-35h23l-11.1 43.5h37.4l-4.3 16.4h-60.5zm-55 61c-26.3 5.2-49.9-4.2-53.1-21.6-4-20.8 18.5-36.9 36.2-40.5 4.4-0.8 9.5-1.4 14.3-1.4 17.4 0 36.8 6.3 40.1 22.8 3.5 16.8-12.6 35.9-37.5 40.7zm12.7-38.8c-1.2-5.5-8.3-8.7-15.5-9.3-4.1-0.1-6.3 0.4-11.8 2.3-6.4 2.4-14.2 12.4-12.4 22.5 1.8 10.4 17.3 12.2 27.5 7-2 1 15.5-5.9 12.2-22.5zm-89.8 12.1c0 0-0.9 0.9-0.2 1.2 0.8 0.6 6.5 1.9 7 6.9 0.9 5.8-1.6 9.4-1.6 10.9 0 2 0 5 1.9 6.5h-24.1c0 0-4.4-0.7-4.1-5.4 0.4-4.2 0.5-8.3 0.5-8.3 0 0-0.3-4.5-6.7-3.8l-17.8-0.3-5.1 18h-22.2l17.1-60h57.2c0 0 16.6 1.2 14.8 15.6-1.4 14.3-16.7 18.7-16.7 18.7zm-7.3-15.7c0.4-4.9-4.4-4.6-4.4-4.6l-24.7-0.2-3 11.6h25.6c0 0 6.2-1.1 6.5-6.8zm-103.6 42.4c-26.5 5.2-50-4.2-53.4-21.6-3.9-20.8 18.6-36.9 36.4-40.5q1.8-0.3 3.6-0.6 1.7-0.2 3.5-0.4 1.8-0.2 3.5-0.3 1.8-0.1 3.6-0.1c17.5 0 36.9 6.3 40.2 22.8 3.5 16.8-12.7 35.9-37.4 40.7zm0.4-16.3q0 0-0.1 0 0.1 0 0.1 0zm-0.1 0c-1.5 0.8 15.7-6.2 12.1-22.5-1-5.5-8.2-8.9-15.3-8.9-3.5-0.5-7.3 0.3-11.7 1.9-6.5 2.4-14.3 12.4-12.6 22.5 1.6 10.4 17.3 12.2 27.5 7zm-125.5-45l74.4 0.3-4.4 19.3h-25.6l-10.5 40.6h-23.5l9.8-40.5h-25.2zm-48.1 61.3c-26.4 5.2-50-4.2-53.2-21.6-4-20.8 18.5-36.9 36.4-40.4 4.2-0.9 9.5-1.4 14.1-1.5 17.5 0 37 6.3 40.4 22.8 3.3 16.8-12.8 35.9-37.7 40.7zm0.6-16.3q-0.1 0-0.2 0.1 0-0.1 0.2-0.1zm-0.2 0.1c-0.7 0.4 15.6-6.7 12.2-22.6-0.9-5.5-8.2-8.9-15.5-8.9-3.3-0.5-7 0.4-11.6 1.9-6.4 2.4-14.3 12.4-12.5 22.5 1.7 10.4 17.1 12.2 27.4 7.1zm-165.8 15.2l17.5-60h30.3l7.6 25.5 22-25.7h32.1l-16.7 60-24.3 0.2 8.9-31.1-28 31.1h-12.1l-8.7-33.1-9.8 33.1z"/>
		<path id="Layer" fill-rule="evenodd" class="s1" d="m71.3 143c-39.4 0-71.3-32-71.3-71.5 0-39.5 31.9-71.5 71.3-71.5 39.5 0 71.3 32 71.3 71.5 0 39.5-31.8 71.5-71.3 71.5zm45.4-39l-25.9-84.5-19.1 65h-0.3l-19.5-65-26 84.5h6.5c0 0 1.2-13.7 6.5-22.5 2.9-4.8 6.9-10.1 13-10 4.2 0.1 8.2 3.8 12.7 10.1 2.7 3.9 6.9 15.9 6.9 15.9 0 0 4.2-12 6.9-15.9 4.7-6.3 8.1-10 12.4-10.1 6-0.1 10.5 5.2 13.3 10 5.3 8.8 6.1 22.5 6.1 22.5z"/>
	</g>
</svg>