<svg version="1.2" xmlns="http://www.w3.org/2000/svg" viewBox="0 0 1547 439" width="1547" height="439">
	<title>NASDAQ_Logo-svg</title>
	<defs>
		<clipPath clipPathUnits="userSpaceOnUse" id="cp1">
			<path d="m1395.48 160.36h150.76v240.55h-150.76z"/>
		</clipPath>
		<clipPath clipPathUnits="userSpaceOnUse" id="cp2">
			<path d="m251.81 0.16h270.87v330.59h-270.87z"/>
		</clipPath>
		<clipPath clipPathUnits="userSpaceOnUse" id="cp3">
			<path d="m-9.03 100.23h270.87v338.74h-270.87z"/>
		</clipPath>
	</defs>
	<style>
		.s0 { fill: #231f20 } 
		.s1 { fill: #0996c7 } 
	</style>
	<g id="Layer">
		<path id="Layer" fill-rule="evenodd" class="s0" d="m1147.7 334c-53.1 0-86.1-30.7-86.1-80.2c0-51.4 30.4-83.4 79.4-83.4h4.1c6.2 0 14.7 0.2 26.2 1.6v-62h34.7v218.4c0 0-32.9 5.6-58.3 5.6zm-0.4-136.4c-33.5 0-49.8 18.1-49.8 55.3c0 33.4 19.7 54.2 51.3 54.2c6.1 0 13-0.4 22.5-1.2v-106c-9.5-1.6-17.1-2.3-24-2.3zm-474 131.4l-93.6-163.1v163.1h-32.6v-206.5h45.6l93.6 161.7v-161.7h33v206.5zm298 3.2c-15.8 0-32.2-1.8-51.7-5.5l-2.2-0.4v-28.9l3.1 0.7c17.3 3.7 32.2 6.8 47.1 6.8c12 0 40-1.9 40-19.6c0-14.8-19.4-18.5-34.9-21.5l-1-0.2c-2.9-0.5-5.6-1.1-7.9-1.7c-22.9-5.9-47.2-14.8-47.2-45.3c0-29.8 23.6-46.9 64.8-46.9c19.7 0 34 2.1 45.6 3.9l5.6 0.8v28l-3-0.6c-13.1-2.4-28.3-4.8-43-4.8c-16.4 0-35.8 3-35.8 17.5c0 12.1 15.9 15.6 34.3 19.6c25.7 5.5 57.5 12.5 57.5 47.5c0 32.2-25.9 50.6-71.3 50.6zm331.9 0c-35.9 0-69-6.3-69-52c0-49.8 51.3-49.8 82-49.8c3 0 17.5 0.7 21.9 0.9c-0.1-27.9-0.4-34.6-40.9-34.6c-16.1 0-33.9 3.2-49.7 6l-3 0.5v-27.5l2-0.5c18.3-3.7 35.9-5.5 53.8-5.5c39.3 0 72.6 4 72.6 52.6v106.2l-2.4 0.3c-27.2 3-48.8 3.4-67.3 3.4zm12.1-77.2c-29.6 0-47.9 4.4-47.9 26c0 25.1 23.4 27.2 45.3 27.2c8.2 0 22.9-1.1 27.5-1.4v-50.9c-6.4-0.3-22.9-0.9-24.9-0.9zm-498 77.2c-35.9 0-69.1-6.3-69.1-52c0-49.8 51.3-49.8 82-49.8c3.1 0 17.5 0.7 21.9 0.9c0-27.9-0.4-34.6-40.9-34.6c-16.1 0-33.9 3.2-49.7 6l-3 0.5v-27.5l2.1-0.5q6.6-1.3 13.3-2.4q6.7-1 13.4-1.7q6.8-0.7 13.5-1q6.8-0.4 13.6-0.4c39.2 0 72.5 4 72.5 52.6v106.2l-2.4 0.3c-27.2 3-48.8 3.4-67.2 3.4zm12-77.2c-29.6 0-47.9 4.4-47.9 26c0 25.1 23.4 27.2 45.4 27.2c8.2 0 22.9-1.1 27.4-1.4v-50.9c-6.4-0.3-22.9-0.9-24.9-0.9z"/>
		<g id="Layer">
			<g id="Clip-Path" clip-path="url(#cp1)">
				<path id="Layer" fill-rule="evenodd" class="s0" d="m1510.8 399.2v-67.7c-13.5 1.8-20.7 1.8-26.5 1.8c-13.7 0-29-2.9-40.8-7.9c-26.4-11-42.1-38.9-42.1-74.6c0-17.8 4.3-50.5 33.4-68c14.6-8.8 31.9-12.5 57.8-12.5c9.3 0 21.9 0.7 34 1.4l19.6 1v210.8zm-20.7-201.6c-35.2 0-53 17.9-53 53.2c0 45.5 26.6 55 49 55c5.4 0 11.5 0 25.1-1.7v-105.6c-10.6-0.7-15.5-0.9-21.1-0.9z"/>
			</g>
		</g>
		<g id="Layer">
			<g id="Clip-Path" clip-path="url(#cp2)">
				<path id="Layer" class="s1" d="m515.7 0.2l-114.6 314.4c-3 8.4-11.1 14.4-20.6 14.4h-121.1v-0.1q3.1-0.3 6-1.5q2.8-1.1 5.3-3q2.4-1.9 4.2-4.4q1.9-2.5 2.9-5.4l114.6-314.4z"/>
			</g>
		</g>
		<path id="Layer" class="s1" d="m243.6 323.4c-2-0.6-3.8-1.5-5.5-2.6c-1.7-1.1-3.2-2.4-4.5-4c-1.3-1.5-2.3-3.2-3.1-5.1l-24.7-67.6l42-115.4c0.7-2.1 2.4-4.5 2.8-5.1c2.1-3 5-5.4 8.4-6.9c3.4-1.5 7.1-2.1 10.8-1.7c3.7 0.4 7.2 1.8 10.1 4c3 2.2 5.3 5.2 6.7 8.6l24.6 67.4l-42 115.4c-1 2.6-2.3 4.5-2.7 5.1c-3.8 5.3-9.9 8.8-17 8.8c-2 0-4-0.3-5.9-0.9z"/>
		<g id="Layer">
			<g id="Clip-Path" clip-path="url(#cp3)">
				<path id="Layer" class="s1" d="m258.5 110.1c-2.2 0.1-4.3 0.5-6.3 1.2c-2.1 0.7-4 1.8-5.8 3c-1.7 1.3-3.3 2.8-4.6 4.6c-1.3 1.7-2.3 3.6-3 5.7l-114.6 314.4h-123.3l114.5-314.5c3.1-8.4 11.2-14.4 20.7-14.4h122.4z"/>
			</g>
		</g>
	</g>
</svg>