<svg version="1.2" baseProfile="tiny-ps" xmlns="http://www.w3.org/2000/svg" viewBox="0 0 1524 412" width="1524" height="412">
	<title>Netflix_2015_logo-svg</title>
	<style>
		tspan { white-space:pre }
		.shp0 { fill: #d81f26 } 
	</style>
	<path id="Layer" fill-rule="evenodd" class="shp0" d="M209.55 385.08C186.63 389.11 163.3 390.31 139.17 393.53L65.56 178.07L65.56 402.77C42.63 405.18 21.72 408.4 0 411.62L0 0L61.14 0L144.8 233.55L144.8 0L209.55 0L209.55 385.08ZM422.33 149.53L422.33 213.85C393.77 213.85 360.39 213.85 336.25 215.05L336.25 310.72C374.06 308.31 411.87 305.09 450.08 303.89L450.08 365.79L271.9 379.86L271.9 0L450.08 0L450.08 64.32L336.25 64.32L336.25 150.74C361.19 150.74 399.4 149.53 422.33 149.53ZM622.63 64.32L622.63 360.17C600.91 360.17 579.19 360.17 558.28 360.97L558.28 64.32L491.51 64.32L491.51 0L689.4 0L689.4 64.32L622.63 64.32ZM882.06 146.32L882.06 210.63L793.97 210.63L793.97 356.55L730.82 356.55L730.82 0L910.62 0L910.62 64.32L793.97 64.32L793.97 146.32L882.06 146.32ZM1015.19 300.27C1051.8 301.07 1088.8 303.89 1124.6 305.9L1124.6 369.41C1067.08 365.79 1009.56 362.18 950.84 360.97L950.84 0L1015.19 0L1015.19 300.27ZM1178.9 373.83L1178.9 0L1242.04 0L1242.04 378.65C1221.13 376.25 1199.41 375.04 1178.9 373.83ZM1442.35 195.76L1524 411.62C1499.86 408.4 1475.73 403.98 1451.6 399.96L1405.35 280.98L1358.29 390.31C1334.96 386.29 1312.43 385.08 1289.11 381.87L1371.96 193.35L1297.15 0L1366.33 0L1408.56 108.13L1453.61 0L1524 0L1442.35 195.76Z" />
</svg>