<svg version="1.2" baseProfile="tiny-ps" xmlns="http://www.w3.org/2000/svg" viewBox="0 0 1500 373" width="1500" height="373">
	<title>News_Corp_logo_2013-svg</title>
	<defs>
		<clipPath clipPathUnits="userSpaceOnUse" id="cp1">
			<path d="M0.75 0.75L1499.25 0.75L1499.25 372.14L0.75 372.14L0.75 0.75Z" />
		</clipPath>
		<clipPath clipPathUnits="userSpaceOnUse" id="cp2">
			<path d="M0.6 372.14L1499.31 372.14L1499.31 -0.4L0.6 -0.4L0.6 372.14Z" />
		</clipPath>
	</defs>
	<style>
		tspan { white-space:pre }
		.shp0 { fill: #100f0d } 
	</style>
	<g id="layer1">
		<g id="g2993">
			<g id="g3011">
				<g id="Clip-Path: g3013" clip-path="url(#cp1)">
					<g id="g3013">
						<g id="g3019">
							<g id="Clip-Path: g3021" clip-path="url(#cp2)">
								<g id="g3021">
									<g id="g3027">
										<path id="path3029" fill-rule="evenodd" class="shp0" d="M1493.2 160.2C1502.18 167.8 1501.15 177.95 1490.21 184.92C1467.05 199.69 1435.74 215.08 1412.71 223.5C1392.69 230.82 1342.29 245.79 1324.08 240.88C1321.79 240.25 1313.56 237.99 1313.14 229.96C1312.42 216.32 1326.55 217.05 1339.19 204.41C1350.79 192.82 1351.44 189.54 1353.61 185.37C1318.71 185.37 1298.04 211.85 1275.05 262.97C1262.96 289.62 1245.91 338.86 1242.87 356.52C1240.54 370.01 1225.1 375.39 1214.81 370.18C1201.57 363.48 1214.15 338.27 1223.17 319.51C1245.08 273.96 1266.8 222.59 1279.28 199.88C1257.31 212.81 1181.89 254.76 1159.88 237.34C1144.19 224.91 1154.81 206.79 1163.06 191.68C1139.72 191.68 1122.22 178.95 1119.09 176.3C1090.02 219.97 1042.1 210.88 1031.16 204.54C1023.7 216.89 1006.33 241.08 978.26 242.73C956.33 243.98 954.62 221.83 955.22 217.41C933.39 227.52 867.03 262.47 835.45 235.98C809.51 214.23 819.68 168.32 855.66 110.02C896.16 44.38 932.77 28.4 954.51 40.23C984.88 56.77 973.32 102.48 954.78 131.24C951.06 137.02 947.04 142.72 940.54 144.95C938.6 145.61 932.23 147.1 927.8 142.74C923.71 139.46 918.17 132.34 922.5 119.28C922.5 119.28 927.66 120.38 940.91 98.64C941.46 97.66 942 96.66 942.56 95.59C950.27 80.74 946.56 72.34 942.77 68.55C936.64 62.42 919.26 61.71 880.91 122.29C855.04 162.42 843.65 202.49 857.2 213.5C875.62 228.47 954.4 193.98 966.04 180.69C971.41 174.56 982.67 154.46 1015.44 159.47C1026.03 161.09 1031.3 172.11 1033.3 178.08C1047.34 187.76 1084.46 187.56 1096.76 159.05C1098.49 153.13 1098.98 147.28 1097.16 141.5C1104.5 136.6 1118.78 134.8 1124.66 143.76C1136.63 162.01 1150.85 169.18 1170.89 165.76C1185.38 162.59 1193.23 163.04 1197.43 170.69C1200.12 175.59 1200.02 182.08 1196.23 187.42C1191.69 193.82 1178.01 209.86 1182.08 213.93C1187.09 218.93 1248.23 197.07 1294.95 155.94C1296.75 153.67 1298.4 148.18 1298.75 137.87C1309.34 134.1 1328.43 136.99 1330.74 146.97C1333.05 156.95 1327.32 165.25 1324.9 169.15C1345.74 158.67 1367.82 154.66 1380.28 163.81C1401.64 179.49 1370.9 208.57 1357.91 216.21C1398.04 208.34 1436.54 189.67 1465.41 166.14C1465.63 165.95 1465.86 165.76 1466.09 165.58C1466.38 165.25 1466.74 164.9 1467.23 164.5C1475.17 158.01 1473.56 155.09 1473.56 155.09C1473.56 155.09 1482.09 152.86 1489.89 157.88C1490.14 158.04 1490.32 158.19 1490.52 158.35C1491.41 158.86 1492.3 159.45 1493.2 160.2ZM1004.24 190.36C1003.4 190.78 997.28 194.19 981.74 205.26C976.88 210.86 978.57 215.78 982.84 215.78C995.07 215.78 1014.26 190.36 1004.24 190.36ZM706.39 108.85C738.38 106.48 742.33 121.35 740.12 127.86C736.69 137.98 729.19 143.45 714.09 138.95C707.02 136.85 685.58 134.99 681.15 144.21C671.46 164.31 698.15 188.35 717.2 210.36C721.05 214.8 724.18 222.84 721.14 230.13C718.89 235.6 711.19 243.91 699.73 242.63C684.89 240.97 644.74 235.66 629.83 234.95C620.19 234.63 615.13 232.69 612.58 229.15C609.58 225 613.11 216.36 616.55 211.89C619.98 207.43 624.82 203.38 630.64 202.58L629.38 203.44C629.38 203.44 629.38 203.46 629.38 203.5L630.64 202.58C630.64 202.58 633 206.04 641.61 208.76C644.99 209.64 648.46 210.41 651.94 211.05C652 211.06 652.07 211.07 652.13 211.08C667.36 213.87 682.54 214.4 689.51 212.93C686.99 210.19 678.13 200.12 668.44 188.3C653.34 169.24 647.66 152.28 654.86 136.18C663.56 116.72 687.01 110.28 706.39 108.85ZM637.49 182.89C630.95 186.55 617.83 189.47 617.18 189.6C588.14 195.39 578 188.62 572.89 189.48C567.66 189.48 558.1 200.69 553.18 206.53C547.26 213.54 523.53 242.97 504.63 242.97C481.97 242.97 476.09 209.09 476.09 209.09C476.09 209.09 452.96 242.75 430.41 242.75C411.63 242.75 405.4 210.24 403.44 201.17C398.8 204.01 347.11 240.34 302.94 242.05C247.34 244.21 236.92 215.59 235.26 199.9C223.43 201.29 215.05 199.43 209.76 196.48C202.44 192.41 197.68 184.77 201.28 175.9C203.53 170.35 206.29 167.22 212.7 165.57C212.7 165.57 212.59 168.49 219.42 170.27C224.55 171.6 234.17 171.54 238.22 170.23C257.07 118.48 296.25 108.3 319.86 108.3C330.83 108.3 344.66 113.81 345.72 129.05C346.5 140.31 337.65 151.81 324.26 162.2C311.63 171.98 292.12 184.24 262.85 194.98C264.04 202.78 269.98 220.62 303.94 218.82C333.02 217.28 365.25 196.47 381.4 184.63L381.4 184.63C381.4 184.63 396.49 173.15 398.69 165.11C398.83 163.62 398.62 162.12 397.9 160.67C397.9 160.67 405.75 156.48 413.3 157.93C430.66 161.28 428.42 180.46 428.42 180.46C428.42 192.6 431.19 208.34 438.4 208.34C444.24 208.34 455.74 192.05 470.05 175.38C474.83 169.81 476.35 157.93 485.49 157.33C496.47 156.59 500.72 164.42 500.72 174.07C500.72 195.3 502.88 211.62 508.55 211.62C515.24 211.62 529.87 192.99 536.38 184.89C549.15 168.98 553.31 161.74 563.62 161.74C572.85 161.74 578.72 168.01 593.32 167.25C608.83 166.45 614.05 161.77 618.54 159.05C623.92 155.8 635.97 155.2 642.06 162.5C648.16 169.81 645.11 178.63 637.49 182.89ZM267.48 164.35C277.52 160.64 291.59 155.38 305.56 146.31C310.66 143 316.44 136.9 313.73 134.19C309.92 128.88 278.38 142.04 267.48 164.35ZM253.68 51.36C215.05 101.12 169.57 192.83 153.74 232.76C149.63 242.88 143.25 245.91 132.29 242.89C120.58 239.65 118.99 236.88 119.53 220.81C116.81 197.03 109.5 184.45 105.94 154.63C103.61 139.34 102.18 118.3 102.3 101.29C86.75 130.51 69.31 163.83 56.22 189.68C55.71 191.05 55.04 192.54 54.09 194.24C53.43 195.42 52.79 196.57 52.18 197.68C49.04 203.97 46.22 209.67 43.86 214.57C35.92 233.09 39.63 236.14 39.63 236.14C39.63 236.14 38.17 239.07 37.1 240.64C31.59 248.81 20.41 251.36 7.65 246.57C-5.11 241.78 2.33 228.23 7.7 218.29C9.23 215.45 35.53 171.31 55.46 135.82C59.36 128.89 82.28 84.3 85.84 74.2C89.4 64.09 89.76 59.96 90.32 51.41C97.22 48.86 107.07 49.72 113.83 51.93C122.59 54.8 124.71 62.64 125.08 67.66C126.23 80.17 127.45 105.74 128.99 132.51C130.61 160.91 142.38 196.66 142.38 196.66C142.38 196.66 176.28 119.9 220.74 48.07C225.58 40.25 237.02 19.33 245.83 9.68C253.33 1.46 263.37 -3.17 274.44 5.12C277.77 7.62 279.53 14.16 277.5 19.53C273.07 31.22 257.72 46.16 253.68 51.36Z" />
									</g>
								</g>
							</g>
						</g>
					</g>
				</g>
			</g>
		</g>
	</g>
</svg>