<svg version="1.2" xmlns="http://www.w3.org/2000/svg" viewBox="0 0 1549 258" width="1549" height="258">
	<title>NISOURCE-INC-AR-Bookmarked-1-pdf-svg</title>

	<style>
		.s0 { fill: #006ba9 } 
		.s1 { fill: #ffffff } 
		.s2 { fill: none;stroke: #ffffff;stroke-width: 2 } 
		.s3 { fill: #ffffff;stroke: #ffffff;stroke-width: 2 } 
	</style>
	<g id="Clip-Path: Page 1" clip-path="url(#cp1)">
		<g id="Page 1">
			<path id="Path 2" fill-rule="evenodd" class="s0" d="m1526 98c-12.4 0-22.5-9.9-22.5-22.2 0-12.2 10.1-22.1 22.5-22.1 12.4 0 22.4 9.9 22.4 22.1 0 12.3-10 22.2-22.4 22.2zm16.3-22.2c0-9.1-7.3-16.5-16.3-16.5-9 0-16.3 7.4-16.3 16.5 0 9.2 7.3 16.6 16.3 16.6 9 0 16.3-7.4 16.3-16.6zm-20.4 11.5h-5.1v-24.5h11.2c2.6 0 5.1 0 6.6 1.6 2.6 1 3.1 4 3.1 6.1 0 4.5-2.5 6.6-6.6 7.1l5.6 9.7h-6.1l-5.1-9.7h-3.6zm6.6-14.8c2.6 0.5 3.6-0.5 3.6-2.5 0-2.6-2.6-2.6-5.1-2.6h-5.1v5.1zm-824.4 4.1c58.6 0 86.7 26 86.2 67.2l13.2-62.1h81.1l-21.4 99.3c-2.6 12.2 0 18.8 9.7 18.8 9.1 0 16.8-5.1 19.8-18.3l22.5-99.8h81l-35.7 167.5h-79l3.6-25.4h-1c-18.4 23.9-39.8 30.5-59.2 30.5-33.6 0-54.5-16.8-44.8-61.1l1.5-6.6c-17.3 41.2-56.6 67.7-115.2 67.7-68.4 0-94.9-35.6-83.6-89.1 11.2-53.5 53-88.6 121.3-88.6zm-28 132.4c13.2 0 21.4-10.2 28.5-43.8 7.1-33.6 3.1-43.8-10.2-43.8-12.7 0-20.9 10.2-28 43.8-7.2 33.6-3.6 43.8 9.7 43.8zm329.8-127.8h78.5l-1.5 18.3c14.8-14.8 27-19.8 37.2-19.8 6.6 0 13.8 0.5 20.4 4.5l-13.2 59.6c17.8-44.3 59.1-67.2 111.1-67.2 65.3 0 86.2 28.5 78.5 73.8h-74.4c3.6-20.8 3.6-32.6-10.7-32.6-13.3 0-21.4 7.2-30.6 50.5-8.2 38.7-3.1 44.8 9.2 44.8 13.2 0 18.8-9.7 25.5-31.1h74.4c-10.7 46.4-45.4 72.3-111.7 72.3-52.5 0-91.7-21.9-77.5-89.6q2.1-9.2 5.1-17.3c-10.2-4.1-17.8-7.1-31.6-7.1-15.3-0.6-23.9 11.7-28.5 34.6l-15.3 74.3h-80.6z"/>
			<path id="Path 3" fill-rule="evenodd" class="s0" d="m1496.9 196.3c-14.3 37.6-47.4 58.5-110.1 58.5-49 0-88.7-21.9-74.4-89.6 12.7-58.1 58.1-88.1 118.2-88.1 63.3 0 86.7 32.1 74 92.2l-2.6 11.7h-115.2l-1 4.6c-4.1 19.3 0.5 28 16.8 28 8.7 0 18.9-5.6 23.5-17.4m10.7-50.9l0.5-2c3.5-16.3-3.1-25-15.3-25-13.3 0-23.5 8.7-27 25l-0.6 2zm-925.3-69.7c2-13.8-5.1-18.9-17.3-18.9-15.3 0-23.5 6.6-25 14.3q-0.5 2.5-0.5 4.6l-87.7-1.1q3.5-12.7 10.7-23.4l96.3-48.4q9.2-0.5 19.4-0.5c59.7 0 100.4 18.4 89.2 73.4zm-131 4l89.7-1.5c1.6 4.1 5.6 6.1 11.8 8.1 17.3 5.7 49.4 12.3 71.8 22.5 27.6 12.7 36.2 34.1 30.1 63.1-10.7 51.4-52.5 76.9-108.6 82.5q-1-1.5-3.5-4.6c-13.3-17.3-35.7-45.8-58.2-74.8h33.7c-1.5 6.6-1.5 13.2 1 18.3 2.6 4.6 8.2 7.6 16.8 7.6 14.3 0 25-8.6 27.6-19.3 2-9.2-4.1-13.8-12.8-16.3l-63.7-20.4c-26-8.1-37.2-23.4-38.2-43.8l154.4 71.8 6.2 2.6c0 0 7.1 3-5.7-3.1-34.1-17.3-109.1-54-154.9-76.4q0.5-7.1 2-15.3 0-0.5 0.5-1zm-21.4 95.3l19.4 65.1c-19.9-11.7-29.6-32.5-23-65.1zm112.7 75.3l3.6 4.1q-12.3 1.5-25 1.5c-26.5 0-51.5-4-69.4-14.2-5.6-20.9-11.7-44.3-17.8-66.7h46.9zm11.7-246.5l-86.1 40.2c17.8-22.4 47.4-36.1 86.1-40.2zm-143.7 58l10.7-52.4h30l-39.7 52.9-2.1 3.1zm5.6 4.1l40.3-56h3.1l-9.2 42.7-32.6 15.3-4.1 2.6h-0.5zm30.1 4h-20.9l23.4-11.7zm-79.5-7.6l15.8 7.6h-17.3zm29 0.5l-22.9-28 5.1-24.9h4.6l13.7 52.4 1.6 3.1zm-28.1-5.1l3.6-16.8 19.9 25.9 3.5 3.6h-0.5l-4.1-2.5zm34.2 3.5l-15.3-50.9h29.6l-11.7 50.9-1.1 7.7zm41.3 22.4l-2 9.1c-7.7-3.5-13.8-6.6-18.9-9.1zm-45.9 9.1l-32.6 157.9h-38.2l19.9-92.2c20.9-28 40.2-53.4 49.9-66.2 0.5-0.5 1.6-2.5 2.1-3zm37.7 28l-7.1 34.6c-7.7-27-13.8-50.4-17.4-63.1 0-0.5-1-2.1-1-2.6l2 2.6zm-30-27l20.9 70.3-18.4 86.5h-40.8c12.8-54.5 30.1-129.3 36.2-156.8 0.5-1.5 0.5-5.6 1-6.6zm-57.1 55.5l10.2-47.4c13.3-6.1 24.5-11.2 32.2-14.8 1.5-1 3.5-2 4.5-2.5l-3.5 4.1zm91.7-51.5l-3.5 16.8c-8.2-10.7-15.3-19.8-20.4-25.9-0.5-1.1-3.1-3.1-3.6-4.1l4.6 2.5zm-77.5-14.2h22.9l-26 12.7zm-30.5 88.6l-56.1 78.4h-75l-14.8-111-23.9 111h-90.8l51.5-240.8h114.7l9.2 66.2-61.7 0.5-5.6 0.5 5.1 0.5c15.3 0 37.7 0.5 62.2 1l7.1 50.9 10.8-50.4c30 0.5 62.2 1 87.1 1l-5.1 22.5-141.2 69.7-4.6 2.6c0 0-7.6 3.5 5.1-2.1 30.6-13.7 93.3-42.7 139.7-64.1zm25.5-120.2l-79.5-37.2 1.5-5.6h67.8l15.3 19.4zm6.1-29.1l-11.2-13.7h14.3zm-87.2 227.1c13.3-17.3 33.1-43.8 53.5-70.8l-14.7 70.8zm75.9-175.2l-87.7 0.5 12.8-58 78.5 39.7z"/>
			<path id="Path 4" class="s1" d="m359 174.9l18.8 65.1q1.6 1.1 2.6 1.6c-5.6-20.9-11.7-44.3-17.9-66.7"/>
			<path id="Path 5" class="s2" d="m359 174.9l18.8 65.1q1.6 1.1 2.6 1.6c-5.6-20.9-11.7-44.3-17.9-66.7z"/>
			<path id="Path 6" class="s3" d="m482.9 3.2l-85.7 40.8q-3.1 3.5-5.6 7.1l96.9-48.4q-3.1 0.5-5.6 0.5z"/>
			<path id="Path 7" class="s3" d="m380.4 79.6l89.7-1.5q-1-1-1-2.5l-87.7-1.1q-0.5 2.6-1 5.1z"/>
			<path id="Path 8" class="s3" d="m532.8 172.3c-34.1-17.3-109.1-54-155-76.4q0 2.6 0 5.1l154.5 71.8 6.1 2.6c0 0 7.2 3-5.6-3.1z"/>
			<path id="Path 9" class="s3" d="m413.5 174.9h-4.1l61.7 75.3 4.1 4.1q-1-1.5-3.6-4.6c-13.2-17.3-35.7-45.8-58.1-74.8z"/>
			<path id="Path 10" class="s3" d="m339.1 88.8l2 3.1 23.5 28.5 1-6.1c-8.2-11.2-15.3-19.9-20.4-26.5-0.5-1-2.6-3.1-3.6-3.6l4.6 2.6 23 10.7 1.5-5.1c-7.7-4.1-14.3-7.2-19.4-9.7q-1-0.5-2-1c-1-0.5-5.1-1.6-5.6-2.1l5.6 0.5 23.9-0.5 1.1-5.1h-25l-6.1 0.5 5.6-2.5 29-14.3 1-6.1-32.1 15.3-4.1 2.6-1.5 0.5 0.5-0.5 3.6-4.6 40.3-56h-5.1l-39.8 52.9-2 3.1 1-3.6 10.7-52.4h-4.6l-11.7 50.9-1 7.6-1.6-7.6-15.3-50.9h-4.6l14.3 52.4 1 3.6-2-3.1-22.9-28-1.1 6.1 19.9 26 3.1 3.6h0.5-0.5l-4.1-2.6-22.4-10.2-1 5.1 15.2 7.7 5.7 2.5 6.1 2.5-6.7-0.5h-23.4l-1 5.1c10.2 0.5 18.8 0.5 25 0.5 1 0 5.1-0.5 5.6-0.5l-5.6 2.1-2.1 1-26 12.7-1.5 6.1c13.8-6.1 25-11.2 32.1-14.7 1.5-0.5 4.1-2.1 5.1-2.6l-3.6 4.1-43.3 60.6-2 9.2c20.9-28.1 40.2-53.5 49.9-66.2 0.5-1.1 1.6-2.6 2.1-3.1l-1.1 3.6-32.6 157.8h2.1c12.7-54.5 30-129.3 36.2-156.8 0.5-1.5 0.5-5.6 1-6.6l1 6.6 20.9 70.3 1.5-8.7c-7.1-27-13.2-50.4-16.8-63.1 0-0.6-1-2.1-1-3.1z"/>
			<path id="Path 11" class="s1" d="m292.7 23.1l-11.2-13.7h-5.1l15.3 19.3"/>
			<path id="Path 12" class="s2" d="m292.7 23.1l-11.2-13.7h-5.1l15.3 19.3z"/>
			<path id="Path 13" class="s1" d="m286.6 52.1l-79.6-37.1-0.5 2.5 79 39.2"/>
			<path id="Path 14" class="s2" d="m286.6 52.1l-79.6-37.1-0.5 2.5 79 39.2z"/>
			<path id="Path 15" class="s1" d="m205.5 250.2c13.3-17.3 33.7-43.8 54-70.8l1.6-7.6-56.6 78.4"/>
			<path id="Path 16" class="s2" d="m205.5 250.2c13.3-17.3 33.7-43.8 54-70.8l1.6-7.6-56.6 78.4z"/>
			<path id="Path 17" class="s1" d="m134.6 171.3l-5.1 3.1c0 0-7.1 3.5 5.1-2.1 30.6-14.2 93.8-43.3 140.2-64.7l1.1-5.6"/>
			<path id="Path 18" class="s2" d="m134.6 171.3l-5.1 3.1c0 0-7.1 3.5 5.1-2.1 30.6-14.2 93.8-43.3 140.2-64.7l1.1-5.6z"/>
			<path id="Path 19" class="s1" d="m175.4 75.6l-61.7 0.5-5.6 0.5h5.6c15.3 0.5 37.3 1 62.2 1.5"/>
			<path id="Path 20" class="s2" d="m175.4 75.6l-61.7 0.5-5.6 0.5h5.6c15.3 0.5 37.3 1 62.2 1.5z"/>
			<path id="Path 21" class="s1" d="m281.5 74.5l-87.2 1.1-0.5 2.5c30.1 0.5 61.7 1 86.6 1.5"/>
			<path id="Path 22" class="s2" d="m281.5 74.5l-87.2 1.1-0.5 2.5c30.1 0.5 61.7 1 86.6 1.5z"/>
		</g>
	</g>
</svg>