<svg version="1.2" baseProfile="tiny-ps" xmlns="http://www.w3.org/2000/svg" viewBox="0 0 1657 432" width="1657" height="432">
	<title>Nsheadlogo-svg</title>
	<style>
		tspan { white-space:pre }
		.shp0 { fill: #000000 } 
	</style>
	<g id="lettering">
		<path id="Layer" fill-rule="evenodd" class="shp0" d="M1632.7 323.93C1632.7 335.46 1623.67 344.79 1612.44 344.79C1601.2 344.79 1591.88 335.76 1591.88 323.93C1591.88 312.61 1601.13 303.36 1612.44 303.36C1623.67 303.36 1632.7 312.69 1632.7 323.93ZM1595.84 324.22C1595.84 334.07 1603.19 341.71 1612.44 341.71C1621.76 341.71 1629.03 334.07 1629.03 324.22C1629.03 314.3 1621.69 306.73 1612.44 306.73C1603.41 306.73 1595.84 314.6 1595.84 324.22ZM1608.47 336.05L1604.8 336.05L1604.8 312.91C1606.78 312.61 1608.47 312.32 1611.26 312.32C1614.64 312.32 1616.91 313.2 1618.31 314.01C1619.7 315.11 1620.29 316.58 1620.29 318.78C1620.29 321.87 1618.31 323.56 1615.81 324.44L1615.81 324.73C1617.8 325.03 1619.19 327.01 1619.78 330.39C1620.37 334.07 1620.88 335.46 1621.17 336.05L1617.21 336.05C1616.62 335.17 1616.11 333.26 1615.52 330.1C1614.93 327.31 1613.54 326.13 1610.45 326.13L1608.47 326.13L1608.47 336.05ZM1608.47 323.34L1611.04 323.34C1614.13 323.34 1616.69 322.24 1616.69 319.37C1616.69 317.39 1615.3 315.4 1611.04 315.4C1609.94 315.4 1609.06 315.4 1608.47 315.7L1608.47 323.34Z" />
		<path id="Layer" class="shp0" d="M1542.54 343.91L1568.46 343.91L1542.03 428.77L1506.2 428.77L1487.12 375.21L1470.16 428.77L1444.53 428.77L1471.04 343.91L1509.36 343.91L1526.76 394.09L1542.54 343.91Z" />
		<path id="Layer" fill-rule="evenodd" class="shp0" d="M1383.16 396.88L1373.32 428.69L1347.7 428.69L1374.2 343.62L1428.82 343.03C1449.09 343.03 1457.01 350.89 1451.95 366.39C1448.57 376.82 1442.11 383.58 1431.98 386.38C1438.44 386.67 1440.72 392.55 1439.03 403.86C1436.46 419.07 1435.36 427.22 1435.65 428.4L1408.34 428.4C1406.65 428.4 1406.65 423.04 1408.93 412.6C1411.5 401.88 1409.22 396.29 1401.59 396.29L1383.16 396.29L1383.16 396.88ZM1409.07 378.59C1415.24 378.59 1419.21 375.8 1420.89 370.14C1422.58 364.48 1420.31 361.69 1414.14 361.69L1394.17 361.69L1388.81 378.59L1409.07 378.59Z" />
		<path id="Layer" class="shp0" d="M1305.7 376.9L1347.11 376.9L1341.46 395.19L1300.12 395.19L1295.28 410.4L1341.46 410.4L1335.88 428.77L1264.08 428.77L1290.51 343.91L1362.31 343.91L1356.73 361.69L1310.55 361.69L1305.7 376.9Z" />
		<path id="Layer" class="shp0" d="M1183.25 343.91L1209.38 343.91L1199.03 376.9L1238.46 376.9L1248.59 343.91L1274.21 343.91L1247.71 428.77L1222.08 428.77L1232.51 395.19L1193.38 395.19L1182.95 428.77L1156.74 428.77L1183.25 343.91Z" />
		<path id="Layer" class="shp0" d="M1141.84 361.69L1120.7 428.77L1095.37 428.77L1116.22 361.69L1085.82 361.69L1091.4 343.91L1177.89 343.91L1172.23 361.69L1141.84 361.69Z" />
		<path id="Layer" class="shp0" d="M1013.73 429.87C1043.83 429.87 1063.58 415.25 1072.61 385.64L1085.53 343.62L1059.91 343.62L1046.4 386.74C1041.33 403.05 1032.3 411.28 1019.09 411.28C1005.58 411.28 1001.62 403.13 1006.68 386.74L1020.19 343.62L994.57 343.62L981.65 385.64C972.62 415.18 983.26 429.87 1013.73 429.87Z" />
		<path id="Layer" fill-rule="evenodd" class="shp0" d="M935.98 341.12C969.75 341.12 981.87 356.03 972.62 385.93C963.07 416.64 941.34 431.85 907.57 431.85C873.8 431.85 861.68 416.64 870.93 386.45C880.77 356.03 902.21 341.12 935.98 341.12ZM899.64 387.33C894.28 404.82 898.76 413.56 913.74 413.56C928.13 413.56 938.26 404.52 943.84 386.82C949.49 368.52 945.23 359.49 930.62 359.49C916.01 359.41 905.59 368.74 899.64 387.33Z" />
		<path id="Layer" class="shp0" d="M835.69 368.96L864.99 368.96C872.62 349.49 859.04 339.94 824.46 339.94C794.07 339.94 775.71 349.27 770.13 367.86C766.17 380.79 769.25 389.02 779.97 392.4C782.76 393.5 793.19 394.68 810.95 395.78C822.19 396.66 827.03 400.04 825.34 405.92C823.65 411.28 816.61 413.78 804.49 413.78C796.64 413.78 791.57 413.19 789.88 412.09C786.51 410.11 786.21 406.14 788.78 399.67L758.39 399.67C750.75 420.83 763.45 431.49 797 431.49C831.36 431.49 851.92 421.05 858.38 400.19C862.05 388.36 858.67 380.42 848.25 376.82C843.48 374.84 833.05 373.44 816.97 372.34C805.74 371.46 800.38 369.26 801.78 365.58C803.47 360.22 810.22 357.72 822.04 357.72C828.79 357.72 833.05 358.02 834.15 358.82C837.97 360 838.56 363.38 835.69 368.96Z" />
		<path id="Layer" class="shp0" d="M608.18 342.22L634.39 342.22L622.27 380.79L670.14 342.22L703.91 342.22L656.05 380.79L680.57 427.59L646.21 427.59L621.98 381.38L607.59 427.59L581.46 427.59L608.18 342.22Z" />
		<path id="Layer" class="shp0" d="M532.41 342.22L558.62 342.22L537.77 409.3L582.85 409.3L577.2 427.59L505.98 427.59L532.41 342.22Z" />
		<path id="Layer" fill-rule="evenodd" class="shp0" d="M473.31 339.94C506.79 339.94 518.68 355.15 509.36 385.35C500.04 415.54 478.67 430.75 445.12 430.75C411.35 430.75 399.24 415.84 408.49 385.93C418.1 355.15 439.47 339.94 473.31 339.94ZM437.27 386.16C431.61 404.16 436.16 412.9 450.77 412.9C465.68 412.9 475.81 403.86 481.76 385.57C487.41 367.57 482.64 358.82 467.66 358.82C452.98 358.82 442.85 368.16 437.27 386.16Z" />
		<path id="Layer" class="shp0" d="M417.81 342.22L411.86 360.51L365.69 360.51L360.62 376.9L403.2 376.9L397.25 395.19L354.75 395.19L344.91 427.59L318.7 427.59L345.42 342.22L417.81 342.22Z" />
		<path id="Layer" fill-rule="evenodd" class="shp0" d="M255.85 395.19L245.72 427.59L220.1 427.59L246.82 341.93L301.15 341.93C321.71 341.93 329.86 349.79 324.79 365.29C321.71 375.43 314.95 381.89 304.53 384.76C310.7 385.64 313.27 391.22 311.58 402.24C309.3 417.45 308.49 425.9 308.79 427.3L280.89 427.3C279.2 427.3 279.49 421.93 281.99 410.99C284.56 400.26 281.99 394.68 274.14 394.68L255.85 394.68L255.85 395.19ZM282.36 376.9C288.3 376.9 291.9 374.11 293.59 368.45C295.28 363.09 293 360.59 286.84 360.59L266.57 360.59L261.51 376.9L282.36 376.9Z" />
		<path id="Layer" fill-rule="evenodd" class="shp0" d="M186.04 339.94C219.81 339.94 231.92 355.15 222.67 385.35C213.35 415.47 191.69 430.75 157.92 430.75C124.15 430.75 112.03 415.84 121.28 385.93C130.53 355.15 152.26 339.94 186.04 339.94ZM149.7 386.16C144.04 404.16 148.81 412.9 163.79 412.9C178.18 412.9 188.31 403.86 194.19 385.57C199.84 367.57 195.29 358.82 180.68 358.82C165.77 358.82 155.35 368.16 149.7 386.16Z" />
		<path id="Layer" class="shp0" d="M98.16 342.22L124.37 342.22L97.64 427.59L62.4 427.59L43.24 373.52L26.36 427.59L0.22 427.59L26.94 342.22L64.97 342.22L82.45 392.4L98.16 342.22Z" />
	</g>
	<g id="mark">
		<path id="Layer" class="shp0" d="M544.23 62.96L129.14 62.96L114.24 105.5L457.53 105.5C476.1 99.55 531.31 83.83 583.44 82.95C583.44 82.95 552.46 74.2 521.77 69.72C521.99 69.72 530.72 66.64 544.23 62.96Z" />
		<path id="Layer" class="shp0" d="M64.97 247.81L50.29 290.64L304.9 290.64L397.84 253.98L372.44 247.81L64.97 247.81Z" />
		<path id="Layer" class="shp0" d="M808.38 17.27C810.66 15.87 820.79 7.13 828.13 0.07L800.53 0.07C800.82 6.54 801.41 15.28 801.92 17.85C802.51 22.04 805.01 19.54 808.38 17.27Z" />
		<path id="Layer" class="shp0" d="M86.34 186.1L71.43 228.64L372.73 228.64C393.29 219.31 418.91 208.07 424.27 205.79C434.7 201.31 467.95 192.27 467.95 192.27C467.95 192.27 461.79 189.48 452.46 186.1L86.34 186.1Z" />
		<path id="Layer" class="shp0" d="M734.89 9.99C763.31 17.04 771.24 19.84 771.24 19.84C771.24 19.84 781.95 14.18 794.36 0.37L151.16 0.37L136.26 42.91L623.45 42.91C611.04 39.82 593.35 34.75 584.83 28.51C584.83 28.51 631.01 21.45 660.01 22.33C690.99 23.44 723.96 28.51 723.96 28.51C723.96 28.51 707.07 11.31 685.63 7.35C685.34 7.13 705.6 2.64 734.89 9.99Z" />
		<path id="Layer" class="shp0" d="M93.09 167.22L418.91 167.22C440.06 156.49 482.86 136.8 536.89 124.68L107.77 124.68L93.09 167.22Z" />
		<path id="Layer" fill-rule="evenodd" class="shp0" d="M1504.22 83.68C1504.22 83.68 1503.63 74.13 1460.54 75.23C1460.54 75.23 1419.94 72.44 1418.54 87.06C1418.54 87.06 1407.31 105.13 1441.67 106.53C1441.67 106.53 1548.71 118.07 1563.61 123.72C1563.61 123.72 1636.81 143.19 1623.6 201.82C1623.6 201.82 1612.88 291.45 1513.18 299.61C1513.18 299.61 1439.91 305.85 1411.79 304.38C1383.67 302.91 1306.22 299.02 1300.57 295.05C1300.57 295.05 1257.47 293.95 1232.14 246.05L1216.65 290.57L1091.04 290.87L1091.33 290.28L1086.26 290.28L1013.88 147.38L964.32 289.98L728.58 290.57L754.5 217.32C755.89 212.55 757.58 210.27 764.04 206.6C770.79 202.92 771.31 206.08 773.58 207.18C775.86 208.29 797.81 217.62 809.63 215.93C819.76 224.67 863.37 248.91 884.81 252.59C886.72 269.27 894.35 272.06 894.35 272.06C900.3 276.24 919.98 273.16 927.61 266.69C932.97 266.18 941.12 263.31 945.38 258.54C949.64 253.98 945.97 245.02 949.05 239.07C952.13 233.12 957.49 232.02 958.08 228.34C958.67 224.96 961.16 224.96 951.03 214.82C921.44 185.22 876.15 115.35 872.48 109.98C869.1 104.62 873.36 100.36 869.69 95.07C866.02 89.78 860.14 89.19 857.87 85.52C855.3 82.14 833.64 52.53 818.15 41.8L818.74 39.01C828.06 29.17 832.54 10.87 834.52 0.15L1071.36 0.15L1142.87 145.03L1193.01 1.03L1318.63 1.03L1305.41 38.79C1314.73 30.86 1342.63 11.17 1398.65 5.51C1398.65 5.51 1506.2 -9.7 1601.13 17.63C1601.13 17.63 1642.54 31.37 1651.57 52.82C1651.57 52.82 1667.35 77 1644.23 108.59L1501.43 103.52C1501.43 103.52 1509.07 97.05 1504.22 83.68ZM1386.83 190.87C1386.83 190.87 1288.82 188.89 1270.83 138.2L1250.86 195.94L1382.94 201.6C1382.94 201.6 1380.66 205.57 1381.54 212.62C1381.54 212.62 1378.97 222.17 1400.41 228.12C1421.78 234.07 1453.05 229.89 1461.49 229C1461.49 229 1472.21 227.02 1478.38 217.98C1478.38 217.98 1487.41 204.47 1471.33 198.81C1471.33 198.81 1441.16 193.74 1386.83 190.87Z" />
	</g>
</svg>