<svg version="1.2" xmlns="http://www.w3.org/2000/svg" viewBox="0 0 1576 465" width="1576" height="465">
	<title>northern trust-svg</title>
	<style>
		.s0 { fill: #115740 } 
	</style>
	<path id="Layer" fill-rule="evenodd" class="s0" d="m662.6 228.8c-36.8 0-66.5-29.7-66.5-66.5 0-36.8 29.7-66.5 66.5-66.5 36.7 0 66.4 29.7 66.4 66.5 0 36.8-29.7 66.5-66.4 66.5zm46-65.8c0-6.1-1.2-12.1-3.5-17.7-2.3-5.6-5.7-10.6-10-14.9-4.2-4.3-9.3-7.7-14.9-10-5.6-2.3-11.6-3.5-17.6-3.4-6.1-0.1-12.1 1.1-17.7 3.4-5.6 2.3-10.7 5.7-14.9 10-4.3 4.3-7.7 9.4-10 15-2.3 5.6-3.5 11.6-3.5 17.6 0 6.1 1.2 12.1 3.5 17.7 2.3 5.6 5.7 10.6 10 14.9 4.2 4.3 9.3 7.7 14.9 10 5.6 2.3 11.6 3.5 17.7 3.4 25.5 0 46-21.1 46-46zm867.1-64.3v127.9h-16.8v-0.7l-70.2-87v87.7h-21.9v-127.9h16.8l70.2 87.7v-87.7zm-295.9 127.9h-95v-127.9h94.3v21.2h-72.3v32.1h69.4v20.5h-69.4v32.2h73c0 0 0 21.9 0 21.9zm-227.9 0h-21.9v-127.9h21.9v54.8h65v-54.8h21.9v127.9h-21.9v-52.6h-65c0 0 0 52.6 0 52.6zm-55.5-108.2h-40.9v108.2h-22.7v-108.2h-40.9v-19.7h104.5zm-452.2-19.8h21.9v128h-16.8l-70.1-87.8v87.8h-22.7v-128h17.6l70.1 87.8zm839.3 105.2c0 0-7.3-10.9-10.2-16.1-2.9-5.1-4.4-8-5.8-8.7h-25.6v46.7h-21.9v-127.9h59.1c31.5 0 45.3 19.8 45.3 40.2 0 21.2-12.4 33.6-32.1 38 1.5 3 13.2 20.5 13.2 20.5 5.8 8.8 12.4 12.4 20.4 12.4h8.8v19h-10.3c-18.9 0-27.7-5.8-40.9-24.1zm-41.6-45.3h38c17.5 0 23.4-9.5 23.4-19.7 0-11-7.4-20.5-23.4-20.5h-38zm-517.9 45.3c0 0-7.3-10.9-10.2-16.1-3-5.1-4.4-8-5.9-8.7h-25.6v46.7h-21.9v-127.9h59.2c31.4 0 45.3 19.8 45.3 40.2 0 21.2-12.4 33.6-32.2 38 1.5 3 13.2 20.5 13.2 20.5 5.8 8.8 12.4 12.4 20.5 12.4h8.7v19h-10.2c-19 0-28.5-5.8-40.9-24.1zm-41.7-45.3h38c17.6 0 23.4-9.5 23.4-19.7 0-11-7.3-20.5-23.4-20.5h-38zm223.6 127.9h105.2v19.7h-41.7v108.2h-21.9v-108.2h-41.6zm-24.9 91.4c-0.7 29.2-27.7 39.5-53.3 39.5-26.3 0-43.8-9.5-54.8-29.2l-0.7-0.8 16.8-11 0.7 0.8c10.3 17.5 28.5 20.4 38.7 20.4 7.3 0 31.5-1.4 31.5-19.7 0-11-9.5-16.8-31.5-19.7-24.1-3.7-49.6-9.5-49.6-38q-0.1-3.3 0.5-6.5 0.6-3.2 1.9-6.2 1.2-3 3-5.7 1.8-2.7 4.1-5c8.7-8.8 23.3-13.9 40.1-13.9 22.7 0 38 7.3 47.5 21.9l0.7 0.7-16.8 11-0.7-0.7c-5.8-8.8-17.5-13.9-30.7-13.9-17.5 0-28.4 7.3-28.4 18.3 0 10.9 11.6 14.6 29.9 17.5 27 3.7 51.9 11 51.1 40.2zm-160.7-16.8v-74.6h21.9v74.6c0 33.6-21.1 55.5-53.3 55.5h-2.2c-32.1-0.7-52.6-22.6-52.6-55.5v-74.6h21.9v74.6c0 21.2 11.7 34.3 31.5 35.1h2.1c19.8 0 32.2-13.9 32.2-35.1 0 0-1.5 0-1.5 0zm-161.4 31.4c0 0-7.3-10.9-10.2-16.1-3-5.1-4.4-8-5.9-8.7h-25.5v46.8h-22v-128h59.2c31.4 0 45.3 19.8 45.3 40.2 0 21.2-12.4 33.7-32.1 38 1.4 3 13.1 20.5 13.1 20.5 5.8 8.8 12.4 12.4 20.5 12.4h8.7v18.3h-10.2c-19 0-28.5-5.1-40.9-23.4zm-3.7-46c17.6 0 23.4-9.5 23.4-19.8 0-10.9-7.3-20.4-23.4-20.4h-38v40.9zm-198.6-59.9h105.1v19.7h-41.6v108.2h-21.9v-108.2h-41.6zm-116.2-48.2v3.6c0 31.5-8 62.2-24.8 89.2-16.1 27-38.8 48.2-66.5 62.9l-78.9 70.1-78.9-70.1c-27-13.9-50.4-35.9-66.5-62.2-16-27-24.8-57.7-24.8-89.1v-3.7l21.9 19c3.7 32.9 16.8 62.9 39.5 87 25.5 27.8 60.6 44.6 98.6 47.5h0.7v-121.3l21.2 26.3v95h0.7c38-2.9 73.1-19.7 98.6-47.5 22.7-24.1 35.8-54.8 39.5-87 0 0 19.7-19.7 19.7-19.7zm-141.7 173.2h-1.5q-6.5 1.1-13.1 1.6-6.6 0.6-13.2 0.6-6.6 0-13.2-0.6-6.6-0.5-13.1-1.6h-1.4l28.5 24.9zm97.1-341.4v21.2h-113.9v95.8l-21.2-26.4v-69.4h-114v-21.2h86.9l-0.7-0.7q-6.6-11-6.6-24.1c0-24.9 20.5-45.4 45.3-45.4 24.9 0 45.3 20.5 45.3 45.4q0 13.1-6.5 24.1l-0.8 0.7zm-99.3-24.8c0-3.3-0.6-6.6-1.9-9.6-1.2-3-3-5.8-5.3-8.1-2.3-2.3-5.1-4.1-8.1-5.4-3-1.2-6.3-1.8-9.6-1.8-3.2 0-6.5 0.6-9.5 1.8-3 1.3-5.8 3.1-8.1 5.4-2.3 2.3-4.1 5.1-5.4 8.1-1.2 3-1.8 6.3-1.8 9.6 0 3.2 0.6 6.5 1.8 9.5 1.3 3 3.1 5.8 5.4 8.1 2.3 2.3 5.1 4.1 8.1 5.4 3 1.2 6.3 1.8 9.5 1.8 13.2 0 24.1-11 24.9-24.8zm79.6 112.5h-24.1v81.2h-21.2v-81.2h-24.1v-21.2h69.4c0 0 0 21.2 0 21.2zm-159.3 19v119.2h24.2v20.4h-69.4v-20.4h24.1v-138.2h-24.1v-21.2h39.4l143.9 179.8h-27l-110.3-138.1c0 0-0.8-1.5-0.8-1.5z"/>
</svg>