<svg version="1.2" xmlns="http://www.w3.org/2000/svg" viewBox="0 0 1611 239" width="1611" height="239">
	<title>logo-ncl-black-svg</title>
	<style>
		.s0 { fill: #217aaa } 
		.s1 { fill: #fffffe } 
		.s2 { fill: #000000 } 
	</style>
	<g id="NCL-Logo-White">
		<g id="Layer">
			<g id="Layer">
				<path id="Fill-1" fill-rule="evenodd" class="s0" d="m274.6 198.1l-0.1 0.8c-0.3 0.6 0.1 1.2-2 3.8-8.6 9.9-45 44.1-100.8 34.7-45.6-7.8-65.5-31.3-113.6-28.1-33.6 2.2-58.1 24.8-58.1 24.8v-231.3h274.6c0 0 0 195.3 0 195.3z"/>
				<path id="Fill-3" fill-rule="evenodd" class="s1" d="m21.1 194.7c-1.7 0.7-0.3-2.8 0.2-3.7 1.8-2.7 4.2-4.2 4.2-4.2 20.6-14.7 66.2-19.8 103.4-8.2 39.9 12.5 85.6 26.8 120.4 2.5 0 0 2-1.3 3.1-2 1.3-0.9 2-0.9 2.1-0.2 0.6 2.1-0.3 4.2-4 7.2-4.1 3.5-2 2.2-9.9 7.2-14.8 9.5-34.4 17.2-69.2 11.8-44.3-6.8-61.8-24.2-108.6-21.5-19.4 1.1-27.6 3.6-36.8 8.4-1.5 0.7-3 1.8-4.9 2.7zm19.7-114.9v51.8h-17.8v-81.5h16.6l38.2 50.2v-50.2h17.7v81.5h-15.3zm108.1 53.2c-24 0-41.8-18.5-41.8-41.9v-0.2c0-23.2 17.4-42.2 42.5-42.2 15.3 0 24.5 5.2 32.1 12.6l-11.4 13.2c-6.3-5.8-12.7-9.2-20.9-9.2-13.7 0-23.6 11.4-23.6 25.3v0.3c0 13.9 9.7 25.6 23.6 25.6 9.4 0 15.1-3.8 21.5-9.6l11.4 11.5c-8.4 9-17.7 14.6-33.4 14.6zm45.3-82.9h17.9v65.2h40.7v16.3h-58.6z"/>
				<path id="Fill-7" fill-rule="evenodd" class="s2" d="m408.6 125.5l-59.6-78.2v78.2h-26.7v-123h24.9l57.7 75.7v-75.7h26.7v123zm130 2.1c-38 0-65.2-28.3-65.2-63.2v-0.4c0-35 27.6-63.6 65.6-63.6 37.9 0 65.2 28.3 65.2 63.3v0.3c0 35-27.6 63.6-65.6 63.6zm37.3-63.6c0-21.1-15.5-38.7-37.3-38.7-21.8 0-36.9 17.3-36.9 38.4v0.3c0 21.1 15.4 38.6 37.3 38.6 21.8 0 36.9-17.2 36.9-38.2zm141.3 61.4l-26.4-39.3h-21.2v39.3h-27.1v-122.9h56.3c29 0 46.4 15.2 46.4 40.6v0.3c0 19.9-10.7 32.3-26.4 38.1l30.1 43.9zm0.5-81c0-11.5-8.1-17.5-21.3-17.5h-26.9v35.3h27.5c13.1 0 20.7-7 20.7-17.4zm178.5 81.9l-27.7-80.5-27.8 80.5h-23.6l-42-123.9h29l25.5 83.3 27.6-83.6h23.2l27.6 83.6 25.5-83.3h28.3l-42 123.9zm98-123.9h92.9v24.1h-66v24.9h58v24.1h-58v25.8h66.8v24.1h-93.7zm189.5 125.1c-38.4 0-64.7-26.9-64.7-63.3v-0.3c0-35 27.2-63.6 64.5-63.6 22.2 0 35.5 6 48.4 16.9l-17.1 20.5c-9.5-7.9-17.9-12.5-32.2-12.5-19.7 0-35.3 17.4-35.3 38.3v0.4c0 22.5 15.5 39 37.3 39 9.8 0 18.6-2.5 25.4-7.4v-17.6h-27.2v-23.3h53.5v53.4c-12.7 10.7-30.1 19.5-52.6 19.5zm94.8-125.1h27.1v123h-27.1zm162.5 122.9l-13.8-27.5h-49.5l-11.2 27.5h-27.6l52.7-123.8h25l52.7 123.8zm-37.2-91.3l-16.4 39.9h32.7zm124.5 13.1v78.2h-26.7v-122.9h24.9l57.7 75.7v-75.7h26.7v122.9h-23zm-1175.3 184.7c-18.2 0-31.6-14-31.6-31.6v-0.2c0-17.5 13.2-31.8 32.1-31.8 11.6 0 18.5 3.8 24.3 9.5l-8.7 9.9c-4.7-4.3-9.5-7-15.7-7-10.4 0-17.8 8.7-17.8 19.2v0.2c0 10.5 7.3 19.3 17.8 19.3 7 0 11.3-2.8 16.2-7.2l8.6 8.7c-6.3 6.8-13.4 11-25.2 11zm82.2-1.1l-13.2-19.6h-10.7v19.6h-13.5v-61.5h28.1c14.6 0 23.3 7.7 23.3 20.3v0.2c0 9.9-5.4 16.2-13.2 19.1l15 21.9zm0.3-40.5c0-5.8-4.1-8.8-10.7-8.8h-13.4v17.7h13.7c6.6 0 10.4-3.5 10.4-8.7zm60.4 41.5c-16.6 0-26.7-9.3-26.7-27.4v-35.1h13.6v34.8c0 10 5 15.2 13.3 15.2 8.2 0 13.3-5 13.3-14.8v-35.2h13.5v34.7c0 18.6-10.5 27.8-27 27.8zm50.2-62.5h13.6v61.5h-13.6zm59.6 62.4c-9.3 0-18.7-3.3-26.1-9.9l8-9.5c5.5 4.5 11.3 7.4 18.4 7.4 5.5 0 8.9-2.2 8.9-5.8v-0.1c0-3.5-2.1-5.2-12.4-7.9-12.4-3.1-20.4-6.6-20.4-18.8v-0.2c0-11.1 8.9-18.5 21.5-18.5 9 0 16.6 2.8 22.9 7.8l-7.1 10.2c-5.4-3.8-10.8-6-16-6-5.2 0-7.9 2.3-7.9 5.3v0.2c0 4 2.7 5.4 13.3 8.1 12.5 3.2 19.5 7.7 19.5 18.4v0.2c0 12.2-9.3 19.1-22.6 19.1zm43.2-62.4h46.4v12h-33v12.5h29.1v12h-29.1v13h33.5v12h-46.9zm102.9 0h13.5v49.2h30.7v12.3h-44.2zm63.8 0h13.5v61.5h-13.5zm51.1 22.4v39.1h-13.4v-61.5h12.5l28.9 37.9v-37.9h13.3v61.5h-11.5zm64.9-22.4h46.4v12h-32.9v12.5h29v12h-29v13h33.4v12h-46.9zm89.9 31.2q-5.3 5.4-12.9 5.4-7.6 0-13-5.4-5.3-5.3-5.3-12.9 0-7.6 5.4-12.9 5.3-5.4 12.9-5.4 7.6 0 12.9 5.4 5.4 5.3 5.4 12.9c0 5-1.8 9.3-5.4 12.9zm-24-24q-4.6 4.6-4.6 11.1 0 6.5 4.5 11.2 4.6 4.6 11.2 4.6c4.3 0 8.2-2 11.1-4.6 3.2-3 4.6-6.8 4.6-11.2q0-6.5-4.6-11.1-4.6-4.7-11.1-4.7-6.5 0-11.1 4.7zm10.7 1q3.7 0 5.5 0.7 3.1 1.3 3.1 5.1 0 2.7-1.9 3.9c-0.8 0.5-1.7 0.8-3 1 1.6 0.3 2.8 0.9 3.5 2q1.1 1.6 1.1 3.1v1.5q0 0.6 0 1.4 0.1 0.8 0.2 1.1l0.1 0.2h-3.3q0-0.1 0-0.2-0.1-0.1-0.1-0.2l-0.1-0.6v-1.6q0-3.5-1.9-4.6-1.1-0.6-3.9-0.7h-2.8v7.9h-3.5v-20zm3.8 3.2q-1.4-0.8-4.3-0.8h-3v7.3h3.2q2.2 0 3.4-0.5 2-0.8 2-3.1c0-1.5-0.4-2.5-1.3-2.9z"/>
			</g>
		</g>
	</g>
</svg>