<svg version="1.2" xmlns="http://www.w3.org/2000/svg" viewBox="0 0 1637 185" width="1637" height="185">
	<title>download (5)-svg</title>
	<style>
		.s0 { fill: #056433 } 
	</style>
	<g id="icomoon-ignore">
	</g>
	<path id="Layer" class="s0" d="m582 3.8v162.4l-7.1 1.9c-1.6 0.5-41.6 11.2-126.1 10.9-83 0-124.5-10.4-126.2-10.8l-7.2-1.9v-162.5h53.8c0 0-0.2 104.7-0.3 120.2 25.4 2.6 51.6 3.9 79.9 3.9 39.3 0 66-2 79.6-3.4v-120.7h44.1c0 0 9.5 0 9.5 0z"/>
	<path id="Layer" class="s0" d="m644.1 20.6c1.7-0.4 43.2-10.8 125.6-10.8 82.4 0 124.1 10.4 125.9 10.8l7.2 1.9 0.3 39.1 0.1 12.8-11.9-3c-0.4-0.1-44.6-10.9-121.6-10.9-35.6 0-61.8 1.9-79.2 3.8v66.6c13.8 1.4 40.1 3.3 79.2 3.3 79.1 0 120.9-10.7 121.3-10.8l11.8-3.1v52.4l-7.4 1.8c-1.7 0.4-44.3 10.5-125.5 10.5-81.6-0.3-124.1-10.4-125.9-10.8l-7.4-1.8 0.3-149.9c0 0 7.2-1.9 7.2-1.9z"/>
	<path id="Layer" fill-rule="evenodd" class="s0" d="m970.5 21c1.7-0.5 41.6-11.2 126.2-11.2 82.8 0 124.3 10.4 126 10.8l7.3 1.9v150.2l-7.4 1.8c-1.8 0.4-44.4 10.5-125.9 10.5-82.5-0.3-124.2-10.4-125.9-10.8l-7.4-1.8v-149.5c0 0 7.1-1.9 7.1-1.9zm206.4 38.9v-0.2 0.2q0 0 0 0zm0 0c-17.9-2.3-44.4-4.6-80.5-4.6-44 0-71.2 3.2-80.2 4.4l-0.3 76.1c9.8 1.1 39.2 4.3 80.5 4.3 36.5 0 62.6-2.3 80.1-4.3z"/>
	<path id="Layer" class="s0" d="m206.1 10.9h59.1v171.3h-59c0 0-0.1-46.1-0.1-53.9-9.8-7.7-35.4-26-83-42.8-26.9-9.5-56.5-16.2-69.5-18.5v118h-53.4v-173.4l9.4-0.1c1.7 0 42.2 0.3 123.6 23.1 33 9.3 54.5 18.3 72.9 28.3 0-17.7 0-42.2 0-42.2 0 0 0-9.8 0-9.8z"/>
	<path id="Layer" fill-rule="evenodd" class="s0" d="m1278.4 21.4c1.8-0.5 44.4-11.6 126.8-11.6 82.3 0 124.5 11.1 126.2 11.6l5.4 1.4v85.8l-5.5 1.3c-0.8 0.2-15.3 3.8-42.9 6.7 31.4 12.3 47.2 23.6 48.1 24.2l3.1 2.3-0.2 41.9h-54.8c0 0 0-16 0.1-21-9.9-5.5-38.7-17.9-80.9-26.7-35.7-7.5-68-7.8-81.4-7.6v52.4h-49.4v-159.3c0 0 5.4-1.4 5.4-1.4zm208.8 38.6c-14.6-2.7-153.5-1.7-162.5-0.3v35.8c0 0 147.9 1.7 162.5-0.7z"/>
	<path id="Layer" fill-rule="evenodd" class="s0" d="m1612.5 47.5c-13.4 0-24.3-10.6-24.3-23.7 0-13.2 10.9-23.8 24.3-23.8 13.5 0 24.4 10.6 24.4 23.8 0 13.1-10.9 23.7-24.4 23.7zm19.5-23.7c0-10.4-8.7-18.9-19.5-18.9-10.7 0-19.4 8.5-19.4 18.9 0 10.4 8.7 18.8 19.4 18.8 10.8 0 19.5-8.4 19.5-18.8z"/>
	<path id="Layer" fill-rule="evenodd" class="s0" d="m1616.7 25.1q1.3 0.8 2.2 1.7 0.8 1 2.3 3.4l2.6 4h-5l-3-4.5q-1.7-2.4-2.2-3-0.6-0.6-1.3-0.9-0.7-0.2-2.1-0.2h-0.8v8.6h-4.2v-20.6h8.8q3.3 0 4.8 0.5 1.5 0.6 2.4 2 0.9 1.4 0.9 3.3 0 2.3-1.4 3.8-1.4 1.5-4.1 1.9c0 0 0.1 0 0.1 0zm-7.3-2.8h3q3 0 3.8-0.3 0.7-0.2 1.2-0.8 0.4-0.6 0.4-1.6 0-1-0.6-1.7-0.5-0.6-1.5-0.8-0.6 0-3.1 0h-3.2c0 0 0 5.2 0 5.2zm7.3 2.8q-0.1 0-0.1 0z"/>
</svg>