<svg version="1.2" xmlns="http://www.w3.org/2000/svg" viewBox="0 0 1548 586" width="1548" height="586">
	<title>nvr-inc-logo-pdf-svg</title>
	<defs>
		<clipPath clipPathUnits="userSpaceOnUse" id="cp1">
			<path d="m-26-507h1600v1600h-1600z"/>
		</clipPath>
	</defs>
	<style>
		.s0 { fill: #680632 } 
	</style>
	<g id="Clip-Path: Page 1" clip-path="url(#cp1)">
		<g id="Page 1">
			<path id="Path 1" fill-rule="evenodd" class="s0" d="m775.6 585.2q-330.9 0-661.8 0c-67.6-0.1-113.3-45.2-113.5-113.4q-0.6-178.6 0-357.3c0.2-67.6 46.3-113.5 114.1-113.5q659.6-0.3 1319.1 0c69.4 0 114.3 45.8 114.4 115.1q0.2 176.5 0 353c-0.1 72.6-44 116.1-117.2 116.1q-327.5 0-655.1 0zm-0.2-547.1c-201.5 0-402.9-0.1-604.4 0-52.2 0.1-70.6 18.5-70.6 69.9q0 184.2 0 368.4c0 54.7 17.8 72.4 72.6 72.4q601.1 0.1 1202.2 0c5.9 0 11.8 0.3 17.7-0.1 31.9-1.6 54.9-22.9 55-54.5 0.7-133.8 0.4-267.6 0.2-401.4-0.1-22.6-10.8-40.7-31.8-48.7-13.2-5-28.6-5.8-43.1-5.8-199.2-0.3-398.5-0.2-597.8-0.2z"/>
			<path id="Path 2" fill-rule="evenodd" class="s0" d="m1021.4 91.8c11.1-0.5 18.1-1.1 25.2-1.1 58.8-0.1 117.7-1.4 176.4 0.6 24.4 0.8 50.8 4 72.5 14.1 71.3 33.1 78.2 122.8 14.8 169.1-9.9 7.2-20.9 13.1-34.7 21.6 42.8 64.3 85.4 128.1 129.8 194.7-38.5 0.5-80 4.7-120.3-0.4-16.5-2.1-34.2-22-44.9-38-22.7-34.2-41.1-71.2-61.3-107-3.5-6.2-7.3-12.2-13.5-17.6 6.4 54.3-19.3 112 20 163.7h-164.4c26.1-24.6 24.1-55.1 23.9-85.9-0.6-80.9 0.1-161.8 0.5-242.7 0.1-25.2-1.9-49.6-24-71.1zm143.5 194.5c46.1-7.7 76.7-47.8 69.2-87.9-6.7-35.5-32.9-53.6-69.2-46.8zm-919-44.7c0 69.8-1.2 135.8 0.9 201.6 0.6 16.1 12.4 31.8 19.3 48.4h-115.2c38.6-43.5 24.2-95.6 25.9-144.9 1.6-46.3-0.1-92.7 0.5-139 0.6-41.6 1.2-82.9-41.1-116.8 48.8 0 89.6-0.6 130.4 0.6 6.1 0.2 13.1 8.3 17.9 14.3 55.7 68.3 111.1 137 166.6 205.5 5.9 7.3 11.9 14.5 20.1 24.5 1.5-7.4 3-11.3 3-15.2 0.2-50.8 1.9-101.6-0.7-152.2-1.3-25.3-10.7-50.1-16.7-75.8h109.5c-25.5 26.1-25.9 56.8-25.9 87.9 0.2 99.2 0.1 198.5 0.1 297.8v28.2c-58.7-13.2-109.3-32.8-146.1-79.1-43.9-55.2-87.8-110.4-131.8-165.6-4.9-6.2-10.1-12.2-16.7-20.2zm603.9 265.7c-28.9-12-54.9-21.7-80-33.5-28.8-13.7-45-38.8-56-67.9-32.9-88-66-176-99.6-263.7-6.5-16.9-15.8-32.6-24.4-49.9h131.7c34.7 97.9 69.2 195 106 298.6 7.9-23 13.9-39.9 19.7-57 20-58.3 39.7-116.7 59.9-175 8.5-24.2 8.7-46.2-18.3-65.9h108.3c-48.6 136.8-97.1 273.2-147.3 414.3z"/>
		</g>
	</g>
</svg>