<svg version="1.2" xmlns="http://www.w3.org/2000/svg" viewBox="0 0 1596 579" width="1596" height="579">
	<title>nxp semi-svg</title>
	<style>
		.s0 { fill: #7bb1db } 
		.s1 { fill: #958437 } 
		.s2 { fill: #739833 } 
		.s3 { fill: #c9d200 } 
		.s4 { fill: #ffb500 } 
	</style>
	<g id="nxp-logo">
		<path id="Layer" class="s0" d="m957.1 0v577.6l0.3 0.5h-32.7l-119.3-192.1-119.4 192.1h-32.4l-0.1-578.1h32.5l119.4 192.2 119.3-192.2h32.4"/>
		<path id="Layer" class="s1" d="m653.5 0l0.1 578.1h-177l176.7-289-176.7-289.1h176.9"/>
		<path id="Layer" class="s2" d="m1134.2 0l-176.8 289.1 176.7 289h-176.7l-0.3-0.5v-577.6h177.1"/>
		<path id="Layer" fill-rule="evenodd" class="s3" d="m1386.7 0c168.2 0 208.9 84.4 208.9 197.6v67.8c0 86.1-37.5 184.9-162.8 184.9h-298.7v128.2l-176.8-289 176.8-289.5zm43.5 204.8c0-39.1-18.8-61.3-72.3-61.3h-223.6v163.4h238.4c41.5 0 57.5-39.4 57.5-73.7z"/>
		<path id="Layer" class="s4" d="m653.3 289.1l-176.7 289-299.5-349.3 0.1 349.3h-177.2v-578.1h177l299.5 349.3v-349.3h0.1l176.7 289.1"/>
	</g>
</svg>