<svg version="1.2" xmlns="http://www.w3.org/2000/svg" viewBox="0 0 1547 1604" width="1547" height="1604">
	<title>Occidental-Petroleum-Logo-svg</title>
	<style>
		.s0 { fill: #005bab } 
		.s1 { fill: none;stroke: #f1eed3;stroke-linecap: square;stroke-width: 0 } 
		.s2 { fill: #ed1b2f } 
	</style>
	<g id="Layer">
		<path id="Layer" fill-rule="evenodd" class="s0" d="m474.2 1095.9c83.8 148.7 243.9 297.3 514.5 304.9 186.7 0 339.2-76.2 453.5-213.4 19.1-26.7 41.9-61 53.4-87.7h15.2c-123.5 295.7-405 499.5-721.8 503.2h-17.5c-137.2-3.9-263-30.5-385-99.2 0 0-240-110.5-354.4-404h445.9z"/>
		<path id="Layer" class="s1" d="m474.2 1095.9c83.8 148.7 243.9 297.3 514.5 304.9 186.7 0 339.2-76.2 453.5-213.4 19.1-26.7 41.9-61 53.4-87.7h15.2c-123.5 295.7-405 499.5-721.8 503.2m-17.5 0c-137.2-3.9-263-30.6-385-99.2 0 0-240-110.5-354.4-404h445.9"/>
		<path id="Layer" fill-rule="evenodd" class="s2" d="m699.1 627.1c30.4 45.7 53.3 76.2 72.4 106.7 22.8-34.3 38.1-57.2 72.4-106.7 53.3 0 118.1 0 171.5 0-49.6 64.7-99.1 133.4-133.4 175.3 45.7 61 87.6 118.2 133.4 175.3h-175.3c-22.9-34.3-42-64.8-68.6-102.9-19.1 30.5-49.6 72.4-72.4 102.9-57.2 0-122 0-171.5 0 41.9-57.1 87.6-118.1 133.3-175.3-41.9-53.4-95.2-118.2-133.3-175.3 49.5 0 95.2 0 171.5 0z"/>
		<path id="Layer" class="s1" d="m699.1 627.1c30.4 45.7 53.3 76.2 72.4 106.7 22.8-34.3 38.1-57.2 72.4-106.7 53.3 0 118.1 0 171.5 0-49.6 64.7-99.1 133.4-133.4 175.3 45.7 61 87.6 118.2 133.4 175.3h-175.3c-22.9-34.3-42-64.8-68.6-102.9-19.1 30.5-49.6 72.4-72.4 102.9-57.2 0-122 0-171.5 0 41.9-57.1 87.6-118.1 133.3-175.3-41.9-53.4-95.2-118.2-133.3-175.3 49.5 0 95.2 0 171.5 0z"/>
		<path id="Layer" fill-rule="evenodd" class="s2" d="m1301.2 730q40-51.5 80-102.9c53.4 0 114.3 0 163.9 0-68.6 87.6-144.8 182.9-171.5 217.2v133.4h-148.6v-133.4c-30.5-41.9-137.2-175.3-167.7-217.2h163.8z"/>
		<path id="Layer" class="s1" d="m1301.2 730q40-51.5 80-102.9c53.4 0 114.3 0 163.9 0-68.6 87.6-144.8 182.9-171.5 217.2v133.4h-148.6v-133.4c-30.5-41.9-137.2-175.3-167.7-217.2h163.8z"/>
		<path id="Layer" fill-rule="evenodd" class="s0" d="m1064.9 508.9c-80-144.9-240.1-293.5-510.7-305-190.5 0-339.1 80.1-453.5 213.5-19 26.7-41.9 61-57.1 87.7h-11.5c123.8-296.4 406.4-500.5 724.2-503.2q7.6-0.1 15.2 0c137.2 7.6 262.9 34.3 384.9 99.1 0 0 236.2 110.6 354.4 404.1h-449.7z"/>
		<path id="Layer" class="s1" d="m1064.9 508.9c-80-144.9-240.1-293.5-510.7-305-190.5 0-339.1 80.1-453.5 213.5-19 26.7-41.9 61-57.1 87.7h-11.5c123.8-296.4 406.4-500.5 724.2-503.2q7.6-0.1 15.2 0c137.2 7.6 262.9 34.3 384.9 99.1 0 0 236.2 110.6 354.4 404.1h-449.7"/>
		<path id="Layer" fill-rule="evenodd" class="s2" d="m382.7 977.7h-285.8c-64.8 0-95.3-45.7-95.3-80 0-95.3 0-129.6 0-194.4 11.5-57.2 61-76.2 95.3-76.2h285.9c91.4-3.9 91.4 76.2 91.4 76.2q0 68.6 0 194.4c0 0 7.6 80-91.5 80zm-232.4-175.3c0 15.2 0 7.6 0 34.3 0 0 0 38.1 38.1 38.1 19 0 38.1 0 53.3 0 22.9 0 34.3 0 53.4 0 26.7 0 34.3-11.4 34.3-38.1 0-22.9 3.8-61 3.8-68.6-3.8-22.9-19.1-38.1-38.1-38.1-68.6 0 0 0-53.4 0-15.2 0-34.3 0-53.3 0-38.1-3.8-38.1 34.3-38.1 34.3 0 26.6 0 30.5 0 38.1z"/>
		<path id="Layer" fill-rule="evenodd" class="s2" d="m382.7 977.7h-285.8c-64.8 0-95.3-45.7-95.3-80 0-95.3 0-129.6 0-194.4 11.5-57.2 61-76.2 95.3-76.2h285.9c91.4-3.9 91.4 76.2 91.4 76.2q0 68.6 0 194.4c0 0 7.6 80-91.5 80zm-232.4-175.3c0 15.2 0 7.6 0 34.3 0 0 0 38.1 38.1 38.1 19 0 38.1 0 53.3 0 22.9 0 34.3 0 53.4 0 26.7 0 34.3-11.4 34.3-38.1 0-22.9 3.8-61 3.8-68.6 0-22.9-19.1-38.1-38.1-38.1-68.6 0 0 0-53.4 0-15.2 0-34.3 0-53.3 0-38.1-3.8-38.1 34.3-38.1 34.3 0 26.6 0 30.5 0 38.1z"/>
		<path id="Layer" class="s1" d="m382.7 977.7h-285.8c-64.8 0-95.3-45.7-95.3-80 0-95.3 0-129.6 0-194.4 11.5-57.2 61-76.2 95.3-76.2h285.9c91.4-3.9 91.4 76.2 91.4 76.2q0 68.6 0 194.4c0 0 7.6 80-91.5 80zm-232.4-213.4c0 0 0-38.1 38.1-34.3 19 0 38.1 0 53.3 0 53.4 0-15.2 0 53.4 0 19 0 38.1 15.2 38.1 38.1 0 7.6-3.8 45.7-3.8 68.6 0 26.7-7.6 38.1-34.3 38.1-19.1 0-30.5 0-53.4 0-15.2 0-34.3 0-53.3 0-38.1 0-38.1-38.1-38.1-38.1 0-26.7 0-19.1 0-34.3 0-7.6 0-11.5 0-38.1z"/>
	</g>
</svg>