<svg version="1.2" xmlns="http://www.w3.org/2000/svg" viewBox="0 0 1582 188" width="1582" height="188">
	<title>omnicom-svg</title>
	<style>
		.s0 { fill: #ad342a } 
	</style>
	<path id="Layer" fill-rule="evenodd" class="s0" d="m0 76.5c0-47.2 36.4-76.5 76.4-76.5 44.6 0 76.4 34.7 76.4 74.9 0 40.2-31.8 74.9-76.7 74.9-45.7 0.3-76.1-35.8-76.1-73.3zm76.9 41.3c26.1 0 38.9-23.9 38.9-42.3 0-18.8-12.8-42.9-39.4-42.9-25.6 0-39.4 21.7-39.4 42.3 0 22 14.9 42.9 39.9 42.9zm94.6-78.7h30.2v11.7c0 0 1.9-4.1 6.5-7.6 4.6-4.1 12.2-7.6 23.7-7.6 7.3 0 16.8 1.9 24.7 10.3 2.4 2.4 4.6 5.1 6.5 8.9 2.2-3.2 4.6-6.5 7.9-9.5 6.5-5.7 15.2-10 26.6-10 7.7 0 19.9 1.9 28.6 10.8 10 10.9 11.7 18 11.7 42.1v59.2h-32.6v-57.8c0-4.6 0-10.3-2.2-15.2-1.9-5.2-6-8.7-14.4-8.7-9 0-13.6 4.1-15.5 8.9-2.5 4.9-2.5 10.4-2.5 13.6v59.2h-32.3v-58.9c0-3 0-8.7-1.9-13.6-2.2-5.1-6-9.2-14.4-9.2-9.3 0-13.9 4.3-16.1 9.5-2.4 5.1-2.4 11.1-2.4 14.4v57.5h-32.6zm219.9 0v11.7c3.8-5.2 10.6-15.2 29.9-15.2 36.7 0 40.2 29.6 40.2 44.2v67.9h-32.6v-59.5c0-11.9-2.5-22.5-17.1-22.5-16.1 0-18.5 11.7-18.5 22.8v58.9h-32.6v-108.3zm93.5-36.4h32.6v24.7h-32.6zm0 36.4h32.6v108.6h-32.6zm165.5 67c-5.7 24.7-27.4 44.8-56.8 44.8-32.9 0-58.2-25.8-58.2-58.1 0-31.7 24.8-57.5 57.4-57.5 28.8 0 52.2 19 57.6 45.6h-32.9c-3.5-7.3-10-15.2-23.6-15.2-7.6-0.3-14.2 2.4-18.8 7.6-4.6 5.1-7.1 12.2-7.1 19.8 0 15.7 10.4 27.4 25.9 27.4 13.6 0 19.8-7.9 23.6-14.4zm12.8-13.3c0-26.3 19-57.5 58.4-57.5 39.4 0 58.5 31.2 58.5 57.5 0 26.6-19.1 57.6-58.5 57.6-39.4 0-58.4-30.7-58.4-57.6zm84.8 0.3c0-15.2-11.7-27.4-26.1-27.4-14.4 0-26.1 12.2-26.1 27.4 0 15.2 11.7 27.4 26.1 27.4 14.4 0 26.1-12.2 26.1-27.4zm50.8-54h30.5v11.7c0 0 1.9-4.1 6.5-7.6 4.6-4.1 12.2-7.6 23.6-7.6 7.4 0 16.9 1.9 24.8 10.3 2.4 2.4 4.6 5.1 6.5 8.9 2.2-3.2 4.6-6.5 7.9-9.5 6.5-5.7 15.2-10 26.6-10 7.6 0 19.9 1.9 28.6 10.8 10 10.9 11.7 18 11.7 42.1v59.2h-32.7v-57.8c0-4.6 0-10.3-2.1-15.2-1.9-5.2-6-8.7-14.4-8.7-9 0-13.6 4.1-15.5 8.9-2.5 4.9-2.5 10.4-2.5 13.6v59.2h-32.6v-58.9c0-3 0-8.7-1.9-13.6-2.2-5.1-6-9.2-14.4-9.2-9.3 0-13.9 4.3-16 9.5-2.5 5.1-2.5 11.1-2.5 14.4v57.5h-32.6v-108.6h0.5zm311 1.1c-4.6-6.2-10.1-11.6-16.3-15.4-9.5-6.6-20.7-10.1-33.7-10.1-31.8 0-59.3 24.2-59.3 60.5 0 36.7 27.8 61.1 59.6 61.1 15.2 0 28.8-5.1 38.8-13 10.1-7.9 17.1-19 19.6-30.4h-72v-13.3h90.8c-0.3 8.4-2.2 19-6.6 27.9-12.5 27.2-41.6 43.2-70.6 43.2-42.5 0-75.9-32.6-75.9-75.2 0-43.4 34-74.6 75.9-74.6 29.3 0 56.5 16.3 67.9 40.1zm47.8 2.2h13.9v17.1c7.6-15.5 21.5-19.8 33.7-20.1v14.4h-1.3c-20.4 0-31.8 12.8-31.8 36.7v57.2h-14.5zm53.1 52.4c0-29.3 22-55.4 55.7-55.4 34 0 56 26.1 56 55.4 0 29.6-22 55.4-56 55.4-34 0-55.7-25.8-55.7-55.4zm97.5 0c0-23.3-18.6-42.1-41.6-42.1-22.9 0-41.5 18.8-41.5 42.1 0 23.3 18.6 42.1 41.5 42.1 23 0 41.6-18.8 41.6-42.1zm133 52.7h-13.9v-18.8c-5.7 13.9-20.1 22-38.9 21.8-32.9-0.6-44.3-22.8-44.3-48.6v-59.7h14.4v57c0 22.8 10.1 38 34 37.7 22-0.3 34.5-13.3 34.5-35v-59.5h14.4zm28-105h13.9v22c8.7-15.2 23.9-24.7 44-24.7 35.4 0 54.1 28.7 54.1 55.9 0 29.3-21.5 55.1-54.1 55.1-23.4 0-38.3-13.6-43.2-24.4v61.3h-14.4zm97.3 52.4c0-19.8-13.9-42.1-42.4-42.1-11.7 0-22 4.6-29.6 12.2-7.4 7.6-11.7 18.2-11.7 30.2 0 11.6 4.6 22.2 12.2 29.8 7.4 7.3 18 12 29.7 12 23.6 0 41.8-18 41.8-42.1z"/>
</svg>