<svg version="1.2" xmlns="http://www.w3.org/2000/svg" viewBox="0 0 1533 269" width="1533" height="269">
	<title>onsemi_logo_full_color-svg</title>
	<style>
		.s0 { fill: #da7f3a } 
		.s1 { fill: #3a4d54 } 
	</style>
	<g id="Layer">
		<path id="Layer" class="s0" d="m1434.6 1.7h39.3c-1.8 3.5-36.1 66.5-45.3 96.3 0-5 0-72.6 0-90.6 0-3.2 2.8-6 6-5.7z"/>
		<path id="Layer" fill-rule="evenodd" class="s1" d="m1022.1 134.1v5.6c0 2.5-2.1 4.3-4.2 4.3h-199.7c-2.5 0-4.6 2.1-4.3 4.6 2.5 18.8 10.7 35 23.8 49.2 15.9 17.3 35 25.8 58 25.8q23.4 0 42.5-12.7c12.8-8.1 23-19.8 30.1-34.7l1.4-3.2c0.7-1.4 2.1-2.5 3.9-2.5h38.6c2.8 0 5 2.9 3.9 5.7l-2.8 7.8q-13.8 37.2-45.7 60.5c-21.2 15.6-45.3 23.4-71.9 23.4-35.7 0-65.5-12.8-89.9-39-24.4-25.4-36.8-56.2-36.8-93 0-36.9 12-68 36.8-94.2 24.8-25.8 54.5-38.9 89.9-38.9 34.7 0 64.5 12.7 89.2 38.9 24.8 25.8 37.2 57 37.2 92.4zm-53.1-39.3c-5.7-11.3-13.1-21.2-23-29.7-14.9-12.4-31.9-18.4-50.6-18.4-18.8 0-35.4 6-50.3 18.4-9.6 8.5-17.4 18.4-23 29.7-1.4 2.8 0.3 6 3.5 6h139.9c2.8 0 4.9-3.2 3.5-6zm-224.5 95.9c0 11.3-2.8 22-8.1 31.9-5 9.2-12.4 17.3-22.7 24.7-19.1 13.9-41 20.6-65.4 20.6-24.1 0-46.1-7.1-65.2-20.6-10.3-7-17.7-15.2-22.7-24.7-5.3-9.6-8.1-20.2-8.1-31.9v-6c0-1.8 1.4-3.5 3.5-3.5h37.6c1.7 0 3.5 1.4 3.5 3.5v6c0 9.2 4.6 17.4 14.5 24.4 10.7 7.5 22.7 11 35.8 11 13.8 0 26.2-3.5 36.8-10.6 9.6-6.4 14.2-13.8 14.2-22.7 0-11.6-9.9-21.9-29.4-30.4-4.3-1.8-12.8-4.6-25.2-8.1-6.3-2.2-12.3-3.9-17.7-5.7l-14.5-5.7c-24-11.3-40-25.8-48.1-44.2-7.1-15.6-7.1-32.2 0-49.2 6.4-14.9 17.3-26.6 33.3-35.4q22.8-12.7 50.9-12.7c25.9 0 46.8 7 63.4 21.5 17.7 14.9 26.6 33 26.6 54.9v6.7c0 1.8-1.4 3.6-3.6 3.6h-38.6c-1.7 0-3.5-1.4-3.5-3.6v-6.7c0-9.9-3.9-17.7-12-24.1-9.2-6.7-20.2-10.2-32.3-10.2-9.2 0-17.7 1.7-25.8 4.9-7.1 3.2-12.4 7.5-15.2 12.8-6.4 12-3.9 22.3 7.1 31.1 9.9 8.2 25.8 15.2 47.4 21.3l20.5 6.7c3.9 1.4 9.2 3.5 15.6 6.4 3.5 1.4 6.4 2.8 9.2 4.6 2.8 1.4 5.3 3.1 7.8 4.9q15.4 11.2 22.3 24.4c5.3 9.2 7.8 19.5 8.1 30.1zm-217.3 73.3c0 2.1-1.8 3.9-3.9 3.9l-41.8-0.4c-2.1 0-3.9-1.7-3.9-3.9 0 0 0-117.8 0-140.1-0.4-22.3-8.8-46.4-19.8-56.7-13.1-12.7-27.6-20.5-49.6-21.2-29.4-0.7-49.2 20.9-49.2 20.9-12.4 12.4-19.8 33.3-19.8 55.9-0.4 29.4 0 118.2 0 141.9 0 2.2-1.8 3.9-3.9 3.9h-41.8c-2.1 0-3.9-1.7-3.9-3.9 0.4-23.3 0.4-147.2 0.4-148.6-0.4-20.6 3.9-54.2 35-84.3 20.9-19.8 48.9-30 83.2-30 34.4 0 62.3 10.2 83.2 30.4 31.9 30.4 35.4 63.3 35.1 84.2zm-261.3-128.4c0 26.1-5.7 48.8-17 69-11 20.1-26.9 35.7-46.8 47q-29.7 17-69 17-39.3 0-69-17c-19.9-11.3-35.8-26.9-47.1-47q-17-30.3-17-69c0-26.6 5.7-49.6 17-69.8 11.7-19.8 27.2-35.7 47.1-47.1q29.7-16.9 69-16.9c25.9 0 48.9 5.6 68.7 16.9 20.2 11.4 35.8 27.3 47.4 47.1 11.4 20.2 17 43.2 16.7 69.8zm-46.8-0.4c0-17.3-3.9-33.3-10.9-46.7-7.1-13.5-17.4-24.1-30.1-31.9q-19.7-11.7-44.6-11.7-25.5 0-44.6 11.7c-12.8 7.5-23.1 18.4-30.5 31.9-7.4 13.4-11 29-11 46.7 0 17.7 3.6 33.3 11 46.7 7.4 13.5 17.7 24.1 30.5 31.9q19.6 11.7 44.6 11.7 25.5 0 44.6-11.7c12.7-7.8 23-18.4 30.1-31.9 7-13.4 10.6-29 10.9-46.7zm1252.3 131.3h-37.5c-2.9 0-5-2.1-4.6-4.9 3.9-67.3 15.9-166.4 47.8-234.4 0.3-0.3 1-0.3 1 0.4v232.2c-0.3 3.9-3.2 6.7-6.7 6.7zm-67.6-164.9v159.2c0 3.6-2.9 6.8-6.8 6.8h-33.9c-3.6 0-6.8-2.9-6.8-6.8v-159.2q0-22.3-15.9-38.3c-10.3-10.2-23-15.5-37.9-15.5-14.9 0-27.6 5.3-37.9 15.9-10.6 10.3-15.9 23-15.9 37.9v159.2c0 3.6-2.8 6.8-6.7 6.8h-33.3c-3.6 0-6.7-2.9-6.7-6.8v-159.2c0-14.2-5.3-27.3-16-38.3-10.9-10.2-23.7-15.5-38.6-15.5-14.8 0-27.6 5.3-37.8 15.5q-16 17-16 38.3v159.2c0 3.6-2.8 6.8-6.7 6.8h-33.6c-3.6 0-6.8-2.9-6.8-6.8v-159.2q0-41.4 29.8-71.2c19.8-19.8 43.2-29.3 71.1-29.3 17.7 0 34.7 4.9 50.3 14.8 8.2 5.3 15.9 11.7 22.7 18.8 2.5 2.8 7.1 2.8 9.5 0 2.5-2.9 5.3-5.3 7.8-7.8 4.3-3.9 9.2-7.8 14.5-11.3 15.6-9.9 32.6-14.9 50.3-14.9 28.3 0 52.1 9.9 71.9 29.4 19.5 20.5 29.4 44.2 29.4 71.5zm93.8 166v-17.4h-6v-3.9h16.6v3.9h-6v17.4zm13.4 0v-21.6h6.8l3.9 13.1 3.9-13.1h6.7v21.6h-4.3v-17l-4.2 14.1h-4.3l-4.6-14.5v17.4z"/>
	</g>
</svg>