<svg version="1.2" xmlns="http://www.w3.org/2000/svg" viewBox="0 0 1665 508" width="1665" height="508">
	<title>ONEOK_Logo_-svg</title>
	<style>
		.s0 { fill: #00aeef } 
		.s1 { fill: #6d6f71 } 
	</style>
	<g id="layer1">
		<g id="g31561">
			<path id="path31563" class="s0" d="m243.8 9.3l17.3 18.7-36.2 0.2z"/>
		</g>
		<g id="g31565">
			<path id="path31567" class="s0" d="m210 42.4l16.1-1.4 39.5 21.5-75.5 0.2z"/>
		</g>
		<g id="g31569">
			<path id="path31571" class="s0" d="m219.7 74.8l48.5 17.3h-106l17.8-17.3z"/>
		</g>
		<g id="g31573">
			<path id="path31575" class="s0" d="m207.2 102.7l60.8 22.5h-139.1l19.4-18.7z"/>
		</g>
		<g id="g31577">
			<path id="path31579" class="s0" d="m197.9 135.9l71.2 21.3h-172.3l18.6-19z"/>
		</g>
		<g id="g31581">
			<path id="path31583" class="s0" d="m185.6 167.8l82.1 22.5h-204.1l18.2-19z"/>
		</g>
		<g id="g31585">
			<path id="path31587" class="s0" d="m182.3 199.5l82.1 21.3h-230.6l17.7-17.7z"/>
		</g>
		<g id="g31589">
			<path id="path31591" class="s0" d="m180.2 233.1l84.2 22h-264.4l14.7-15.4z"/>
		</g>
		<g id="g31593">
			<path id="path31595" class="s0" d="m183 264.6l80.9 21.3h-234.4l-15.6-14.3z"/>
		</g>
		<g id="g31597">
			<path id="path31599" class="s0" d="m188 298.9l71.4 18.9h-198.6l-13.8-14.2z"/>
		</g>
		<g id="g31601">
			<path id="path31603" class="s0" d="m190.1 330.8l72.7 21.3h-168l-16.5-15.4z"/>
		</g>
		<g id="g31605">
			<path id="path31607" class="s0" d="m196 362.7l65.6 18.9h-138.1l-15.4-16.5z"/>
		</g>
		<g id="g31609">
			<path id="path31611" class="s0" d="m204.3 395.8l53.5 20.2h-100.1l-19.6-21.3z"/>
		</g>
		<g id="g31613">
			<path id="path31615" class="s0" d="m210.2 425.4l43.1 20.4-64.8-0.2-19.9-20.2z"/>
		</g>
		<g id="g31617">
			<path id="path31619" class="s0" d="m222 458.6l24.5 18.9h-27.3l-18-18.9z"/>
		</g>
		<g id="g31621">
			<path id="path31623" class="s0" d="m250.4 486.9v20.2l-19.6-19.6z"/>
		</g>
		<g id="g31625">
			<path id="path31627" class="s0" d="m251.6 1l9.5 9.2h-9.5z"/>
		</g>
		<g id="g31629">
			<path id="path31631" class="s0" d="m282.8 30.3l9.7 10.7h-18.4l-8.3-10.7z"/>
		</g>
		<g id="g31633">
			<path id="path31635" class="s0" d="m314.3 63.5l7.3 7.3h-35l-16.3-7.1z"/>
		</g>
		<g id="g31637">
			<path id="path31639" class="s0" d="m342.2 92.1l7.8 7.8-50.1 2.6-22.5-9.7z"/>
		</g>
		<g id="g31641">
			<path id="path31643" class="s0" d="m376.8 126.1l8.2 8.5-79.9 2.2-26.5-10.4z"/>
		</g>
		<g id="g31645">
			<path id="path31647" class="s0" d="m406.8 158.1l10.4 9.5-100.1 1.8-38.5-11.3z"/>
		</g>
		<g id="g31649">
			<path id="path31651" class="s0" d="m439.2 190l9 9.5-125.6 3.5-42.8-11.8z"/>
		</g>
		<g id="g31653">
			<path id="path31655" class="s0" d="m471.6 222l9.7 9.4-155.7 3.6-48.2-13z"/>
		</g>
		<g id="g31657">
			<path id="path31659" class="s0" d="m500.9 253.9l-7.6 7.9-164.2 5.1-50.5-13z"/>
		</g>
		<g id="g31661">
			<path id="path31663" class="s0" d="m469 285.9l-8.6 8.2-142.6 4.8-39.2-13z"/>
		</g>
		<g id="g31665">
			<path id="path31667" class="s0" d="m439 317.8l-9 7.1-112.2 4.7-43.9-11.8z"/>
		</g>
		<g id="g31669">
			<path id="path31671" class="s0" d="m404.9 350.9l-7.1 7.1-90.6 3.5-33.1-10.3z"/>
		</g>
		<g id="g31673">
			<path id="path31675" class="s0" d="m370.6 385.2l-7.3 7.1-65.3 1.2-24.1-9.5z"/>
		</g>
		<g id="g31677">
			<path id="path31679" class="s0" d="m338.9 416.5l-8.7 8.9h-34.8l-25.1-9.4z"/>
		</g>
		<g id="g31681">
			<path id="path31683" class="s0" d="m309.8 446.7l-9 9.5h-17.2l-21.5-9.5z"/>
		</g>
		<g id="g31685">
			<path id="path31687" class="s0" d="m278.1 480.3l-9.9 9-10.6-9.4z"/>
		</g>
		<path id="path31699" fill-rule="evenodd" class="s1" d="m594.3 255.8c0-81.5 49.2-169.4 128.9-169.4 79.8 0 129 87.9 129 169.4 0 81.5-49.2 169.4-129 169.4-79.7 0-128.9-87.9-128.9-169.4zm57.5 0c0 63.3 22.2 152.7 71.4 152.7 49.3 0 71.5-89.4 71.5-152.7 0-63.3-22.2-152.8-71.5-152.8-49.2 0-71.4 89.5-71.4 152.8zm597.8 20.6c0-68 41.1-141.5 107.7-141.5 66.7 0 107.8 73.5 107.8 141.5 0 68-41.1 141.5-107.8 141.5-66.6 0-107.7-73.5-107.7-141.5zm48.3 0c0 52.8 18.6 127.2 59.4 127.2 40.9 0 59.4-74.4 59.4-127.2 0-52.9-18.5-127.3-59.4-127.3-40.8 0-59.4 74.4-59.4 127.3zm248.7 127.2c4.5 1.6 7.6 1.4 8 7.5 0 4.6-2.8 6.7-7.1 6.7-7.6 0-14.5-1.7-34.9-1.7-25.6 0-31.6 1.7-39.3 1.7-4.7 0-7.5-2.1-7.5-7.1 0-4.8 3-6.2 7.8-7.1 15.8-2.5 17.3-3.5 17.3-25.8v-204.3c0-10.7-2.7-13.4-9.2-14.2-8.5-0.8-14.7-2.9-14.7-7.1 0-4.3 3.9-7.1 9.7-7.1 5.1 0 9.8 1.7 38 1.7 23.5 0 28.6-1.7 35-1.7 6 0 8.4 0.9 8.4 5.4 0 6.1-1.7 8.4-13.9 8.8-7.5 0.4-9.1 2.1-9.1 9.9v88.8c24-31.8 40.5-52.7 51.1-66.8 11-14.6 15.2-21.3 15.2-24.9 0-3.9-1.9-6.2-8.8-7-10.7-1.2-14.1-2-14.7-6.5-0.5-4.9 3.9-7.7 9.7-7.7 9.4 0 15.4 1.7 30.7 1.7 15.8 0 24.2-1.7 29.8-1.7 4.8 0 7.2 1.7 7.2 6.7 0 3.6-3 5-12 7.1-8.4 1.6-14.1 5-23.8 15.9-9.7 11-23.2 29.5-47.2 61.2 35 76.9 51.1 116.8 61 138.5 7.5 16.6 9.8 23.8 25.7 30.5 2.7 1.1 5.2 2.3 5.2 5.7 0 6.2-3.6 7.1-9.2 7.1-5.1 0-9.4-1.7-33.3-1.7-23.4 0-32 1.7-35.4 1.7-4.8 0-7.9-2.1-7.9-7.5 0-4.9 4.3-6.7 8.4-6.7 8.3 0 10.7-3.5 10.7-8.7 0-2-0.7-4-5-13.4-4.2-9.4-11.9-25.8-25.6-56.5-10.9-24.5-16.4-37.8-19.5-44.9-0.1 0-3.1-7.3-4.1-7.3-0.5 0-8.2 8.6-8.2 11.6v104.1c0 8.5 1.3 11.5 11.5 15.1zm-465-244.3l-5.3-0.7c-4.2-0.7-7.6-1.5-7.6-6.8 0-6 4.9-6.7 13.5-6.7 3.8 0 13.6 1.7 67.8 1.7 44.7 0 64.8-1.7 77.2-1.7 8 0 10.9 2 10.9 9.2v54.2c0 5.7-1.8 8.8-5.8 8.8-3.8 0-5.4-0.7-7-4.4-1.4-3.3-3.2-9.2-8.1-20.1-11.4-25.2-22.9-33.5-55.3-33.5-20.6 0-21.4 1.8-21.4 10.4v86.6c0 5.1 0 6.5 10.3 6.5 35.5 0 36.4-0.4 43.7-15.6 3.5-7 5.1-11.9 6.5-15 1.5-3.3 3.1-5.2 6.6-5.2 4.8 0 6.2 3.2 6.2 8.8 0 9-1.7 23.5-1.7 36.7 0 16.2 1.7 27.3 1.7 35.8 0 7.4-0.7 13.1-7.2 13.1-3.9 0-5.8-2.9-7.2-6.9-1.4-4-2.6-9.9-4.9-17.4-5.7-18.9-6.8-20-36.4-20-17.5 0-17.6 0.6-17.6 6.5v81.5c0 30.3 4.7 38.5 32.9 38.5 27.6 0 40.8-11.5 51.8-41.1 4.3-11.3 6.3-17.4 7.8-20.7 1.7-3.6 3-4.4 5.7-4.4 5 0 5.8 2.6 5.8 11v60.6c0 6.8-2.5 8.8-11.3 8.8-11.6 0-32.1-1.7-75.5-1.7-48.3 0-60.6 1.7-81 1.7-8 0-10.2-2.3-10.2-6.2 0-5.5 1.9-7.1 8.3-8 18-3 21.5-6.5 21.5-18.5v-211.1c0-10-2.3-12.6-14.7-14.7zm-63.2 176q0 0 0 0zm0.6-7.4v-132.6c0-28.5-5-34-17.3-36-5.2-0.8-13.3 0.3-13.3-7.1 0-6.3 5.5-7.1 10.1-7.1 5.5 0 11.5 1.7 28.6 1.7 14.9 0 17.9-1.7 24.7-1.7 5.5 0 8 2.5 8 6.2 0 6.4-5.3 7.2-12.6 8-10.6 1.2-13.9 7.7-13.9 17.7v234.9c0 8.3-3.8 11.1-8.8 11.1-6.1 0-8.7-5.6-11.2-10.1l-113-203.4c-1.2-2.1-3.9-7.9-5.7-9.9-0.3 1.8-0.3 4.1-0.3 8.1v162.9c0 20.9 1.7 29.3 18.7 33 4.1 0.8 7.9 1.2 10.6 2 2.9 0.9 5.3 2.4 5.3 6 0 2.2-0.1 6.2-6.3 6.2-10.7 0-22.6-1.7-35.4-1.7-11.9 0-18.8 1.7-27.7 1.7-6.3 0-10.6-0.8-10.6-7.1 0-4.1 3.8-6.2 12.6-7.1 14.7-1.2 18.6-4.7 18.6-44.1v-184.2c0-13-2-13.5-13.6-16-9-2-13.3-3.4-13.3-8 0-3.9 3.1-6.2 9.3-6.2 4.2 0 7.7 1.3 25.5 1.3 14.6 0 18.8-1.3 22.6-1.3 3.5 0 5.7 2.2 8 5.9 2.3 3.7 5 9.4 9.3 17.3l84.8 157.8c1.6 2.9 3.2 6.3 5.3 8.8 0 0 0.4 0.4 0.4 0.4 0.9-1.4 0.6-6.6 0.6-7.4z"/>
	</g>
</svg>