<svg version="1.2" xmlns="http://www.w3.org/2000/svg" viewBox="0 0 1582 280" width="1582" height="280">
	<title>Paccar_Inc_logo-svg</title>
	<style>
		.s0 { fill: #000000 } 
	</style>
	<g id="layer1">
		<path id="path5097" fill-rule="evenodd" class="s0" d="m4362.9 4850.3c26.3 0 47.7 21.3 47.7 47.6 0 26.3-21.4 47.6-47.7 47.6h-26.9v30.4h-41.8v-125.6c0 0 68.7 0 68.7 0zm-11.7 63.4c9 0 16.2-7.2 16.2-16.1 0-9-7.2-16.2-16.2-16.2h-15.2v32.3z"/>
		<path id="path5097-0" fill-rule="evenodd" class="s0" d="m138.7 15.3c52.6 0 95.3 42.6 95.3 95.1 0 52.6-42.7 95.2-95.3 95.2h-53.9v60.9h-83.7v-251.2c0 0 137.6 0 137.6 0zm-23.4 126.9c17.8 0 32.3-14.5 32.3-32.4 0-17.8-14.5-32.3-32.3-32.3h-30.5v64.7z"/>
		<path id="path5101" fill-rule="evenodd" class="s0" d="m461 15.3v251.2h-82.4v-61.5h-78.9l-34 61.5h-94l138.8-251.2zm-82.4 47l-44.1 79.9h44.1z"/>
		<path id="path5105" fill-rule="evenodd" class="s0" d="m1099 15.3v251.2h-82.4v-61.5h-77.2c-22.8 42.6-67.8 71.5-119.5 71.5-43.4 0-82-20.3-106.8-52-24.8 31.7-63.4 52-106.8 52-74.7 0-135.3-60.5-135.3-135.1 0-74.7 60.6-135.2 135.3-135.2 35.9 0 68.5 13.9 92.7 36.6l-44.3 80.4c-7.4-19.5-26.2-33.4-48.4-33.4-28.5 0-51.6 23.1-51.6 51.6 0 28.4 23.1 51.5 51.6 51.5 19.8 0 36.9-11 45.6-27.3l13.4-24.2 35.8-65.1c3.5-6.3 7.6-12.4 12-18.1 24.8-31.6 63.4-52 106.8-52 35.8 0 68.4 13.9 92.6 36.6l-44.3 80.4c-7.4-19.5-26.2-33.4-48.3-33.4-28.5 0-51.7 23.1-51.7 51.6 0 28.4 23.2 51.5 51.7 51.5 19.7 0 36.9-11 45.6-27.3l83-150.3zm-81.5 47l-44.2 79.9h44.2z"/>
		<path id="path5109" fill-rule="evenodd" class="s0" d="m1270.6 266.5l-33.7-60.9h-27.6v60.9h-83.6v-251.2h137.5c49.7 0 89.9 40.2 89.9 89.8 0 30-14.7 56.6-37.4 72.9l49 88.5c0 0-94.1 0-94.1 0zm-30.8-124.3c17.9 0 32.4-14.5 32.4-32.4 0-17.8-14.5-32.3-32.4-32.3h-30.5v64.7z"/>
		<path id="path5111" class="s0" d="m1418.1 173.5h12.6v93h-12.6z"/>
		<path id="path5115" class="s0" d="m1509.3 266.5h-11.4v-41.7c0-11.8-3.4-17.7-14.5-17.7-6.5 0-17.9 4.1-17.9 22.5v36.9h-11.5v-67.7h10.8v9.5h0.3c2.4-3.6 8.8-11.5 20.5-11.5 10.5 0 23.7 4.3 23.7 23.6z"/>
		<path id="path5119" class="s0" d="m1570.2 221.5c-1.4-9-6.5-14.5-16.1-14.5-14.1 0-18.7 13.5-18.7 25.6 0 11.6 2.9 26 18.6 26 7.6 0 14.2-5.7 16.2-16.1h11c-1.1 10.8-7.8 25.9-27.6 25.9-19.1 0-30.4-14.4-30.4-33.9 0-21 10.2-37.7 32.6-37.7 17.8 0 24.5 13 25.4 24.7z"/>
	</g>
</svg>