<svg version="1.2" xmlns="http://www.w3.org/2000/svg" viewBox="0 0 1551 747" width="1551" height="747">
	<title>Packaging_Corporation_of_America_logo-svg</title>
	<style>
		.s0 { fill: #153471 } 
	</style>
	<g id="Layer">
		<path id="Layer" fill-rule="evenodd" class="s0" d="m312.3 0.6c97.4 0 181.2 62.5 212.3 149.6 54.8-89.5 153.4-149.3 265.6-149.3h276.1l0.6 171.1h-276.7c-77.2 0-139.8 62.2-139.8 139.6 0 76.2 62.6 139.4 139.8 139.4h224.7l265.5-448.9h173.3l-0.3 121.2 96.8-65.6v6.3l-388 296.3 388-263.3v6.3l-427.3 323.8 427.3-290.5v6.6l-465.5 348.9 465.5-315.9v6.6l-503.3 374.6 503.3-341.9v6.3l-96.5 71.1-0.3 331h-173.6v-186.5l-82.6 62.2-83.1 121.9h-323.9c-150.4 0-277.7-108.8-305.2-251.5-41.4 49.2-103.4 80.7-172.7 80.7h-139.4v170.5h-171.5v-620.6zm0 279c29.9 0 54.1-24.2 54.1-53.8 0-30-24.2-54.1-54.1-54.1h-139.4v107.9z"/>
		<path id="Layer" fill-rule="evenodd" class="s0" d="m42.8 685.9v13.6c0 19-5.4 23.5-19.9 23.5h-5.8v22.4h-16.3v-78.6h23.6c11.8 0 18.4 4.9 18.4 19.1zm-17.2-1.6c0-2.7-0.6-3.3-3.6-3.3h-4.9v27.8h4.9c2.4 0 3.6-1.2 3.6-5.7zm1426.3 61.1h-16.9l-1.9-18.8h-10.8l-2.1 18.8h-16.7l10.9-78.6h26.6zm-20.2-32.4l-4-35.3-3.9 35.3zm-119.5-2.1v0.3c7.3 1.8 11.2 3 11.2 12.7v21.5h-16.6v-22.4c0-3-1.3-4.5-5.9-4.8q-0.6 0-1.4 0h-2.7v27.2h-16.3v-78.6h20.3c16.4 0 21.9 3.4 22.6 16q0 0 0 0.1 0 1.2 0 2.6v9.4c0 12.1-4.2 14.8-11.2 16zm-5.4-24.8c0-3.9-1.5-6-4.8-6h-5.2v24.8h3.3q0.5 0 1-0.1c2.5-0.1 3.9-0.6 4.7-1.8q0.2-0.2 0.3-0.4 0.1-0.2 0.2-0.4 0.1-0.4 0.2-0.9 0-0.1 0.1-0.2 0.1-0.6 0.1-1.3 0-0.1 0.1-0.2 0-0.7 0-1.7zm-146.7 59.3h-16.9l-1.8-18.8h-10.9l-2.2 18.8h-16.6l10.9-78.6h26.6zm-20.2-32.4l-4-35.3-3.9 35.3zm-94.9-30.8v48.1c0 12.7-7.3 16-21.2 16-13.6 0-21.2-3.3-21.2-16v-48.1c0-13 7.6-16.3 21.2-16.3 13.9 0 21.2 3.3 21.2 16.3zm-17 0.9c0-3-1.2-3.6-4.2-3.6-3 0-4.3 0.6-4.3 3.6v45.9c0 3.1 1.3 4 4.3 4 3 0 4.2-0.9 4.2-4zm-442.8 27.9v0.3c7.6 1.8 11.2 3 11.2 12.7v21.4h-16.3v-22.3c0-3.1-1.3-4.6-6-4.8-0.4-0.1-0.8-0.1-1.2-0.1h-2.8v27.2h-16.3v-78.6h20.3c16.4 0 21.7 3.5 22.3 16.1q0 1.3 0 2.7v9.3c0 12.1-4.2 14.9-11.2 16.1zm-5.1-24.8c0-4-1.5-6.1-4.8-6.1h-5.2v24.8h3.4q0.4 0 0.9 0c2.5-0.1 4-0.7 4.8-1.9q0.1-0.2 0.2-0.4 0.1-0.1 0.2-0.4 0.1-0.4 0.2-0.9 0.1-0.1 0.1-0.2 0.1-0.5 0.1-1.2 0-0.1 0.1-0.2 0-0.8 0-1.7zm329.1-4v48.1c0 12.7-7.6 16-21.5 16-13.6 0-21.2-3.3-21.2-16v-48.1c0-13 7.6-16.3 21.2-16.3 13.9 0 21.5 3.3 21.5 16.3zm-17 0.9c0-3-1.2-3.6-4.5-3.6-3 0-4.3 0.6-4.3 3.6v46c0 3 1.3 3.9 4.3 3.9 3.3 0 4.5-0.9 4.5-3.9zm-92.8 62.3h-16.7l-2.1-18.8h-10.6l-2.1 18.8h-16.6l10.6-78.6h26.9zm-20-32.4l-3.9-35.3h-0.3l-3.6 35.3zm-44.8-2.1v0.3c7.3 1.8 11.2 3 11.2 12.7v21.5h-16.6v-22.4c0-3-1.3-4.5-5.9-4.8q-0.6 0-1.4 0h-2.7v27.2h-16.3v-78.6h20.2c16.5 0 22 3.4 22.7 16q0 0 0 0.1 0 1.2 0 2.6v9.4c0 12.1-4.5 14.8-11.2 16zm-5.4-24.8c0-3.9-1.5-6-4.8-6h-5.2v24.8h3.3q0.5 0 1-0.1c2.5-0.1 3.9-0.6 4.7-1.8q0.2-0.2 0.3-0.4 0.1-0.2 0.2-0.4 0.1-0.4 0.2-0.9 0-0.1 0.1-0.2 0.1-0.6 0.1-1.3 0-0.1 0-0.2 0.1-0.7 0.1-1.7zm-33.9-3.9v48.1c0 12.7-7.2 16-21.1 16-13.7 0-21.2-3.3-21.2-16v-48.1c0-13 7.5-16.3 21.2-16.3 13.9 0 21.1 3.3 21.1 16.3zm-16.9 0.9c0-3-1.2-3.6-4.2-3.6-3.1 0-4.3 0.6-4.3 3.6v45.9c0 3.1 1.2 4 4.3 4 3 0 4.2-0.9 4.2-4zm-32.1 2.8v13.6c0 19-5.1 23.6-19.9 23.6h-5.5v22.3h-16.3v-78.6h23.6c11.8 0 18.1 4.9 18.1 19.1zm-16.9-1.5c0-2.8-0.9-3.4-3.6-3.4h-4.9v27.8h4.9c2.4 0 3.6-1.2 3.6-5.7zm-83.2-2.1v48.1c0 12.7-7.5 16-21.1 16-14 0-21.2-3.3-21.2-16v-48.1c0-13 7.2-16.3 21.2-16.3 13.6 0 21.1 3.3 21.1 16.3zm-16.9 0.9c0-3-1.2-3.6-4.2-3.6-3.1 0-4.3 0.6-4.3 3.6v45.9c0 3.1 1.2 4 4.3 4 3 0 4.2-0.9 4.2-4zm-289.5 62.3h-16.6l-2.1-18.7h-10.6l-2.1 18.7h-16.6l10.8-78.6h26.7zm-20-32.3l-3.9-35.4h-0.3l-3.7 35.4zm-128.8 32.3h-16.6l-2.2-18.7h-10.5l-2.1 18.7h-16.7l10.6-78.6h26.9zm-20-32.3l-3.9-35.4h-0.3l-3.9 35.4zm308.2-30.8c0-13 7.2-16.4 21.2-16.4 12.9 0 21.1 2.5 21.1 18.5v7.8h-15.7v-8.1c0-3.7-1.2-4.6-5.4-4.6-3.1 0-4.3 0.9-4.3 4.9v45.6c0 1.8 1.2 3.1 4.6 3.1 3.9 0 5.1-1.3 5.1-2.8v-12.4h-5.1v-14.8h20.8v25.4c0 15.1-5.4 17.8-21.1 17.8-14 0-21.2-3.3-21.2-16zm689.5-1.2v19.4h13.4v14.2h-13.4v30.8h-16.3v-78.6h30.9v14.2zm163.6-14.2v78.6h-14.8l0.6-66.2h-0.3l-10.6 66.2h-18.8l-9-66.5h-0.3v66.5h-14.6v-78.6h25.7l8.2 62 8.2-62zm-1041.9 78.6h-17.6l-12.4-35v35h-16.3v-78.6h16.3v33.3l10.6-33.3h17.6l-14 37.5zm-70.4-51.7v-10.3c0-2.4-1.2-3.3-4-3.3-3 0-4.5 0.9-4.5 3.3v45.4c0 2.4 1.5 3.3 4.2 3.3 3.1 0 4.3-0.9 4.3-3.3v-12.4h16v11.8c0 13.9-4.8 18.1-18.8 18.1h-6c-12.4 0-16.6-6.6-16.6-16.9v-44.4c0-12.4 4.2-19.1 16.6-19.1h6c14.3 0 18.8 4.2 18.8 13.6v14.2zm150.3-1.5v-8.2c0-3.6-1.2-4.5-5.4-4.5-3.3 0-4.3 0.9-4.3 4.8v45.7c0 1.8 1 3 4.3 3 4.2 0 5.4-1.2 5.4-2.7v-12.4h-5.1v-14.8h20.8v25.4c0 15.1-5.4 17.8-21.1 17.8-13.9 0-21.5-3.3-21.5-16v-48.1c0-13 7.6-16.3 21.5-16.3 12.7 0 21.1 2.4 21.1 18.4v7.9zm24.2-25.4h16.4v78.6h-16.4zm76.6 0v78.6h-23.9l-12.1-61.4 0.9 61.4h-15.1v-78.6h23.9l12.1 61.4 0.3-0.3-1.3-61.1z"/>
		<path id="Layer" fill-rule="evenodd" class="s0" d="m379.1 682.2c0-13 7.3-16.3 21.2-16.3 13 0 21.2 2.4 21.2 18.4v7.9h-15.7v-8.2c0-3.6-1.3-4.5-5.5-4.5-3 0-4.2 0.9-4.2 4.8v45.7c0 1.8 1.2 3 4.5 3 3.9 0 5.2-1.2 5.2-2.7v-12.4h-5.2v-14.8h20.9v25.4c0 15.1-5.5 17.8-21.2 17.8-13.9 0-21.2-3.3-21.2-16zm101.7 11.5v-10.3c0-2.4-1.6-3.3-4.3-3.3-2.7 0-4.2 0.9-4.2 3.3v45.4c0 2.4 1.5 3.3 4.2 3.3 2.7 0 4.3-0.9 4.3-3.3v-12.4h15.7v11.8c0 13.9-4.8 18.1-18.8 18.1h-6c-12.1 0-16.6-6.6-16.6-16.9v-44.5c0-12.4 4.5-19 16.6-19h6c14.6 0 18.8 4.2 18.8 13.6v14.2zm355.3-26.9v14.2h-11.4v64.4h-16.4v-64.4h-11.5v-14.2zm5.5 0h16.3v78.6h-16.3zm125.5 0v78.6h-23.9l-11.8-61.4h-0.3l0.9 61.4h-15.1v-78.6h23.9l12.1 61.4 0.3-0.3-1.2-61.1zm306.3 64.4v14.2h-32.6v-78.6h31.4v14.2h-15.1v17.2h14.2v13.3h-14.2v19.7zm58.7-64.4h16.3v78.6h-16.3zm50.5 26.9v-10.3c0-2.4-1.5-3.3-4.3-3.3-3 0-4.5 0.9-4.5 3.3v45.4c0 2.4 1.5 3.3 4.2 3.3 3.1 0 4.6-0.9 4.6-3.3v-12.4h15.7v11.8c0 13.9-4.8 18.1-18.7 18.1h-6.1c-12.1 0-16.6-6.7-16.6-16.9v-44.5c0-12.4 4.5-19 16.6-19h6.1c14.2 0 18.7 4.2 18.7 13.6v14.2z"/>
	</g>
</svg>