<svg version="1.2" xmlns="http://www.w3.org/2000/svg" viewBox="0 0 1528 1050" width="1528" height="1050">
	<title>Paramount_Global-svg</title>
	<style>
		.s0 { fill: #000a3b } 
	</style>
	<g id="g904">
		<g id="g848">
			<path id="path842" class="s0" d="m759.3 523.3l-12.8 30.1c0 0-22.7-5-61.2 57.2-1.4 2.4-12.3-4.5-6.4-14.8l24.7-41.5c1-2.4-0.5-5.4-3.5-5.4l26.7-44.4c3.4-5.9 21.2-36.5 31.5-47.3l22.2-22.2c1.5-1 3.5 1 2.5 2.5l-25.2 52.7c-10.8 20.7-4.4 28.1-0.5 29.6 1.5 0.5 2.5 2.5 2 3.5z"/>
			<path id="path844" fill-rule="evenodd" class="s0" d="m1244.5 399.5c0 88.8-29.1 171.1-77.9 237.2-14.3-6.4-24.2-15.3-32.1-26.1-56.7-70.6-97.1-115.9-106.5-125.8-20.2-21.7-29.1-23.2-44.4-30.6-2.9-1.5-4.4-2.9-5.9-5.9l-77.4-135.6c-5.4-11.4-13.8-20.7-24.1-28.1l-19.3-13.3c-3.9-3-9.3-3-13.3 0l-15.8 11.3c-1.4 1-2.4 2-3.4 3.4l-36.5 50.8-17.7 13.9-122.3 155.3-11.4 4.9q-3.7 1.5-5.9 4.5l-74.4 95.2c-6.4 7.9-15.8 18.7-32.6 26.1-48.8-66.1-77.9-148.4-77.9-237.2 0-220.5 178.5-399.5 399.4-399.5 220.9 0 399.8 179 399.4 399.5zm-707.1 1l15.8-22.2-26.1 8.4-15.8-22.2v27.1l-26.1 8.4 26.1 8.4v27.1l15.8-22.2 26.1 8.4zm38 110.4l-22.2-15.7 8.4-26.2-22.2 15.8-22.2-15.8 8.4 26.2-22.2 15.7h27.1l8.4 26.2 8.4-26.2zm-2-222.4h-27.1l-8.4-26.1-8.4 26.1h-27.1l22.2 15.8-8.4 26.1 22.2-15.7 22.2 15.7-8.4-26.1zm22.7-71l26.1-8.4-26.1-8.4v-27.1l-15.8 22.2-26.1-8.4 15.8 22.2-15.8 22.2 26.1-8.4 15.8 22.2zm96.1-67.1l-22.2-15.8 8.4-26.1-22.2 15.8-22.2-15.8 8.4 26.1-22.2 15.8h27.2l8.3 26.2 8.4-26.2zm83.8-34.5l-15.7-22.2 15.7-22.2-26.1 8.4-15.8-22.2v27.1l-26.1 8.4 26.1 8.4v27.1l15.8-22.2zm104-49.8h-27.1l-8.4-26.1-8.3 26.1h-27.2l22.2 15.8-8.4 26.1 22.2-15.7 22.2 15.7-8.4-26.1zm102.6 26.1l-26.1-8.3v-27.2l-15.8 22.2-26.1-8.4 15.7 22.2-15.7 22.2 26.1-8.4 15.8 22.2v-27.1zm170.1 306.8l-15.8 22.2 26.1-8.4 15.8 22.2v-27.2l26.1-8.3-26.1-8.4v-27.1l-15.8 22.1-26.1-8.3zm-109-248.6h27.1l-22.2-15.8 8.4-26.1-22.2 15.8-22.1-15.8 8.3 26.1-22.1 15.8h27.1l8.4 26.1zm66 74l26.1 8.4-15.7-22.2 15.7-22.2-26.1 8.4-15.8-22.2v27.1l-26.1 8.4 26.1 8.4v27.1zm5.5 64.1l22.2 15.8-8.4 26.2 22.2-15.8 22.1 15.8-8.3-26.2 22.1-15.8h-27.1l-8.4-26.1-8.3 26.1zm72.9 222.5l-22.1-15.8 8.3-26.2-22.2 15.8-22.1-15.8 8.3 26.2-22.1 15.8h27.1l8.4 26.1 8.3-26.1z"/>
			<path id="path846" class="s0" d="m905.7 617.5l3.5 19.7h-70c-1.5-5.9-2.5-11.8-2.5-17.8 0-33 30.6-95.6 30.6-95.6l-9.9-4c-13.3-5.4-28.1-8.4-42.9-8.4h-38.4l41.4-96.1c2.9-6.5-2-13.8-8.9-13.8l44.9-104.1 9.3 6.4c6.9 4.9 12.9 11.8 16.8 19.7l0.5 0.5 94.7 166.2c0.9 1.5 2.9 0.5 2.9-1v-12.3c1.5 0.5 3 1.5 4.5 2 9.8 4.4 16.2 6.9 29 21.2 0.5 0 41.5 44.4 105.6 124.3 2.9 4.4 6.4 8.4 10.3 12.3-38 0-76.9-1-91.2-2l-16.3-27.1c-8.4-16.3-41.9-54.7-41.9-54.7-3.4-4-8.9 0-6.4 5.9l17.8 47.3c5.9 14.3 2.9 21.7 0.9 24.7-41.4-4-83.3-13.8-84.3-13.3z"/>
		</g>
		<g id="g854">
			<path id="path850" class="s0" d="m347.1 852.2c-14.3 4.5-29.1 7.9-43.9 9.4-29 102.6-97.6 187.4-209.5 187.4-5.9 0-10.8 0-16.3-0.5-47.3-4.4-78.4-28.6-77.4-70.5 0-14.3 5.4-24.7 18.3-24.7h0.5c7.8 0 14.7 6.9 14.3 14.8 0 4-2 11.9-2 17.3 0 27.6 15.8 47.8 45.8 52.7 5 0.5 9.9 1 14.8 1 143.5 0 147-236.7 254.4-320.5 5-3.5 9.4-6.9 14.3-9.9l3.5 3.9c-3 3-4.9 6.5-6.4 8.4-23.2 33.6-37.5 78.4-48.8 119.4l-2.5 7.4c56.2-4 103-51.8 103-107.5 0-66.6-53.2-91.8-118.3-91.8-28.6-0.5-56.7 4.5-83.8 14.8-57.2 21.2-112.4 70.1-112.4 143.1 0 35.5 16.3 69 55.7 69 35 0 54.7-26.6 53.2-59.7-0.4-3.9 2.5-11.8 13.9-11.8 13.8 0 13.3 11.8 13.3 11.8 0 42.4-35 66.6-79.4 66.6-36 0-60.7-12.8-74.5-33-8.8-13.8-13.8-30.6-13.3-47.9 0-19.7 4.5-39.4 13.3-56.7 32.1-65.6 119.8-108 215.5-108 89.7 0 164.7 34 164.7 105 0 61.2-58.7 96.2-110 110.5z"/>
			<path id="path852" fill-rule="evenodd" class="s0" d="m1501.8 823.1h25.7l-5.5 11.9h-26.1c-1.5 3.9-10.3 23.1-18.7 42.9-9.9 23.1-20.7 47.3-21.2 47.8-7.4 19.2-12.4 33.5-12.4 43.9 0 10.4 5 14.8 13.4 14.8 7.4-0.5 14.3-3 20.2-7.9 10.8-7.9 21.7-20.7 31-34l6.9 6.4c-10.3 14.8-22.2 30.6-37.4 40.9-10.9 7.4-23.2 11.9-36 11.9-19.3 0-33.1-11.4-33.1-34.6 0-8.8 1.5-16.7 4.5-25.1-12.3 16.7-35.5 38.9-58.7 38.9-15.3 0-22.2-9.8-22.2-22.2 0.5-9.3 3-18.7 6.9-27.1 4.5-10.3 10.4-23.2 18.8-40.4 8.8-18.8 18.7-37.5 18.7-44.4v-1c0-3-2.5-4.9-5.4-4.9-16.8 0-34.5 24.1-52.8 65.1l-32 72h-40l12.4-27.6c-14.3 17.2-29.1 31-48.4 31-16.7 0-20.2-11.3-20.2-23.1q0-6.7 1.5-13.4h-0.5c-15.8 21.2-37.5 36.5-53.7 36.5-16.3 0-24.2-9.8-24.2-24.1 0.5-9.4 3-18.3 6.9-26.7 5.9-13.8 13.8-30.5 21.2-45.8l6.4-13.3c-5.4 2.9-11.3 4.4-17.2 4.4-4.5 0.5-8.9-0.5-12.9-2.5-1.4 15.3-6.4 30.1-12.8 44.4-17.7 39.5-46.8 64.6-82.8 64.6-30.6 0-42.4-18.2-43.9-38.9v-5.5c-19.7 26.2-37 43.4-60.1 43.4-17.8 0-24.2-10.3-24.2-21.7 0.5-7.9 2.5-15.7 5.9-23.1l35.5-75.5c2-3.9 3-8.9 3.5-13.3 0-4.5-1.5-6.4-5.5-6.4-13.3 0-30.5 17.2-46.3 53.2l-37 83.4h-40.4l51.8-119.9c1.9-3.4 2.9-7.4 3.4-11.3v-1c-0.5-3-2.9-4.9-5.4-4.4-10.9 0-32.1 19.2-47.8 54.7l-36 81.9h-39.5l12.4-27.6c-16.3 19.7-29.6 30-45.9 30-14.8 0-22.2-10.8-22.2-23.6 0-3.5 0-6.4 0.5-9.4-10.8 13.3-30.1 33-50.8 33-19.7 0-29.6-11.8-29.1-31 0-22.7 13.4-50.3 32.6-76.5-8.4 5.5-17.3 9.4-25.7 9.4-10.3 0-14.3-5.4-14.3-12.8 0-7.4 6-15.3 6-18.3 0-1-0.5-1.4-2-1.4-4 0-18.3 14.3-30.6 42.4l-37.9 85.8h-38.5l12.3-28.1c-14.8 18.7-33.5 30.5-47.8 30.5-15.8 0-21.2-9.3-21.2-22.6 0.5-2.5 1-5.5 1.5-7.9-9.9 13.3-27.6 30.5-49.8 30.5-19.7 0-29.6-11.8-29.1-31 0-23.7 14.3-52.8 35-79.9 18.7-25.2 54.2-49.8 90.7-49.8 24.7 0 43.9 4.4 40.9 11.3l-40.4 91.7c-3.9 7.9-10.3 22.7-10.3 29.1 0 4 1.9 5.5 4.9 5.5 13.3 0 37.5-34.1 51.8-66.6l30.5-69.1h35.5l-10.3 25.2c12.3-14.3 29.6-28.1 43.8-28.1 7.4 0 10.4 3.9 10.4 9.4 0 12.3-13.3 28.1-13.3 33.5 0 1.5 1 2.9 3.4 2.9 5 0 14.8-5.4 28.1-16.7 18.8-16.3 44.9-28.6 70.1-28.6 24.6 0 43.8 4.4 40.9 11.3l-40.4 91.8c-2.5 6.4-9.4 21.7-9.4 28.1 0 3.9 2 5.4 4.9 5.4 12.8 0 36.5-32.1 50.8-64.6l30.6-69.1h36l-10.4 25.7c15.8-18.3 33.5-28.6 50.8-28.6 13.8 0 20.2 6.9 20.2 20.2 0 3 0 5.4-0.5 8.4 16.3-17.8 36.5-28.6 55.2-28.6 13.3 0 21.7 8.4 21.7 20.2 0 11.3-4.9 22.2-12.3 39.5l-26.1 55.2c-1.5 3.4-5.5 12.3-5.5 16.3 0 3.9 2 5.4 5 5.4 11.8 0 26.6-18.3 40.9-41.4 5.4-18.3 13.3-36 23.7-52.3 15.2-23.7 38.4-42.9 71.5-42.9 23.6 0 39.4 13.8 41.9 38.9 1.4 3 5.4 6 12.8 6 15.8 0 25.6-13.9 31.5-25.2l7.9-17.3h40l-34.6 75-16.7 37c-2.5 4.9-5.4 12.3-5.4 16.3v1.4c0 3 2.9 5 5.4 4.5 15.8 0 40.9-38.5 50.8-61.2l32-73h39.9l-33 75c0 0-17.7 42.4-19.2 45.4-1.5 2.9-2 5.4-2.5 8.4 0 3.4 1 5.4 4.5 5.4 15.2 0 39.9-40.5 52.2-64.6l30.1-69.1h37l-9.9 23.7c15.3-15.8 31.6-26.6 49.8-26.6 15.8 0 24.2 10.3 24.2 23.2 0 12.8-12.8 38.9-21.2 55.7-5.5 11.3-13.3 27.1-17.8 38-3.4 8.8-4.4 11.8-4.4 15.2 0 3 2 4.5 5.4 4.5 14.8 0 40.4-35 56.7-71l23.2-50.8h-19.3l5.5-11.9h18.2l15.3-35 8.9-20.7h39.4zm-1044.2 64.6l25.1-55.7c-19.7 0-38 13.8-52.3 33-20.2 27.6-36 62.2-36.4 81.4 0 7.4 3.9 9.4 9.3 9.4 15.3 0 35.5-26.2 54.3-68.1zm245 0l25.1-55.7c-19.7 0-37.9 13.8-52.2 33-20.2 27.6-36 62.2-36.5 81.4 0.5 7.4 4.4 9.4 9.9 9.4 15.7 0 35-25.2 53.7-68.1zm372.7-55.2c-7.9 0-14.8 5.9-25.1 20.2-22.2 31.1-38.5 76.4-40.4 95.7-1.5 11.3 0.9 18.7 10.3 18.7 6.9 0 14.3-3.9 23.2-16.3 22.2-30.5 40.9-82.3 41.9-103.5 0-8.4-2-14.8-9.9-14.8z"/>
		</g>
	</g>
</svg>