<svg version="1.2" xmlns="http://www.w3.org/2000/svg" viewBox="0 0 1550 595" width="1550" height="595">
	<title>Parker_Hannifin-svg</title>
	<style>
		.s0 { fill: #ffffff } 
		.s1 { fill: #000000 } 
	</style>
	<g id="Layer">
		<path id="Layer" class="s0" d="m0 0h1550v594.8h-1550z"/>
		<path id="Layer" fill-rule="evenodd" class="s1" d="m0 0h1550v594.8h-1550v-239.4h455.9v-70.9h-455.9zm956.7 191.2v309.2h87.9v-76.4l38.3 75.3h97.9l-65.4-111.3 60.8-104.5h-93.3l-39.4 74.1v-166.4zm486.3 92.3c-65.3 0-66.4 59.5-66.4 59.5v156.3h89v-142.7h50.6v-73.1zm-571.9 0c-65.3 0-66.4 59.5-66.4 59.5v156.3h88.9v-142.7h50.7v-73.1zm-265.6 73.1h95.7v79.7h-16.9v-64h-28.2c-15.8 0-79.8-7.9-79.8 60.6 0 76.5 79.8 66.4 79.8 66.4h132.7c0 0 0-90 0-156.3 0-64.1-70.8-59.5-70.8-59.5h-112.5zm-278.1 14.5v128.2h121.6v-56.3h29.2c0 0 116 5.7 116-124.7 0-132.8-91.1-130.4-118.2-130.4-27 0-148.6 0-148.6 0v80.9h144.1v102.3zm1032.2 43.8v-59.5c0 0 12.4-79.9-96.7-74.3-107-3.3-103.7 54-104.8 112.4 0 64.2 11.3 109.2 96.8 105.8 90 0 104.7 0 104.7 0v-70.8h-104.7v-78.7h14.7v65.2c0 0 90 0 90-0.1z"/>
	</g>
</svg>