<svg version="1.2" xmlns="http://www.w3.org/2000/svg" viewBox="0 0 1510 244" width="1510" height="244">
	<title>logo-paychex-svg</title>
	<style>
		.s0 { fill: #004b8d } 
	</style>
	<g id="Layer">
		<path id="Layer" fill-rule="evenodd" class="s0" d="m48.5 8.2h114.1c42.3 0 69.5 23.6 69.5 74.3 0 46.6-39.3 86.4-99.7 86.4h-47.7l-14.5 69.5h-70zm48.3 105.7h26.6c28.4 0 38-10.8 38-25.9 0-17.6-15.7-20.6-30.8-20.6h-24.1z"/>
		<path id="Layer" fill-rule="evenodd" class="s0" d="m299.7 8.2h70.1l35 230.2h-69.5l-3.6-32.6h-74.9l-17.5 32.6h-72.4zm-16.9 148h44l-8.4-68.8z"/>
		<path id="Layer" class="s0" d="m434.4 153.8l-49.5-145.6h71.2l21.8 85.8 56.1-85.8h83.4l-112.4 145-17.5 85.2h-70.6z"/>
		<path id="Layer" class="s0" d="m786.4 150.8c-4.2 23.6-22.3 93.1-118.3 93.1-67 0-99.1-43.5-99.1-105.2 0-74.3 46.5-136.5 125-136.5 51.4 0 97.3 22.3 98.5 91.2h-67.1c0.7-21.7-9.6-33.8-31.4-33.8-39.2 0-53.7 45.3-53.7 77.9 0 19.4 4.8 48.4 37.4 48.4 22.4 0 35.1-15.1 39.3-35.7z"/>
		<path id="Layer" class="s0" d="m827.5 8.2h71.3l-16.9 79.8h64.6l16.9-79.8h71.2l-48.3 230.2h-70.6l18.7-91.2h-64.6l-19.3 91.2h-70.7z"/>
		<path id="Layer" class="s0" d="m1053.4 8.2h190.2l-12.1 59.2h-119.6l-6 28.4h111.1l-11.5 55h-111.1l-6 28.4h122l-12.1 59.2h-193.3z"/>
		<path id="Layer" class="s0" d="m1292.5 116.4l-53.2-108.2h77.3l22.4 59.8 45.9-59.8h83.9l-96 108.2 56.2 122h-79.7l-25.4-64-53.8 64h-86.9z"/>
		<path id="Layer" fill-rule="evenodd" class="s0" d="m1492.4 36c-9.7 0-17.5-7.8-17.5-17.5 0-9.7 7.8-17.5 17.5-17.5 9.7 0 17.5 7.8 17.5 17.5 0 9.7-7.8 17.5-17.5 17.5zm14.5-17.5c0-8.4-6.5-15.1-14.5-15.1-8 0-14.5 6.7-14.5 15.1 0 8.4 6.5 15.1 14.5 15.1 8 0 14.5-6.7 14.5-15.1zm-21.2-9.7h7.3c4.8 0 7.2 1.8 7.2 6.1 0 3.6-2.4 5.4-5.4 5.4l6 9.1h-3.6l-5.4-9.1h-3.1v8.5h-3zm3 9h3.1c3 0 5.4-0.6 5.4-3.6 0-2.4-1.8-3-4.2-3h-4.3z"/>
	</g>
</svg>