<svg version="1.2" xmlns="http://www.w3.org/2000/svg" viewBox="0 0 1541 337" width="1541" height="337">
	<title>payccc-svg</title>
	<style>
		.s0 { fill: #00833e } 
		.s1 { fill: #0a0203 } 
	</style>
	<g id="Layer_2">
		<g id="Layer_2-2">
			<path id="Layer" class="s0" d="m21.5 0c-2.8 0-5.6 0.6-8.2 1.6-2.6 1.1-5 2.7-7 4.7-2 2-3.6 4.4-4.7 7-1 2.6-1.6 5.4-1.6 8.2v293.9c0 2.9 0.6 5.7 1.6 8.3 1.1 2.6 2.7 5 4.7 7 2 1.9 4.4 3.5 7 4.6 2.6 1.1 5.4 1.7 8.2 1.7h45.4c2.8 0 5.6-0.6 8.3-1.7 2.6-1.1 4.9-2.7 6.9-4.6 2-2 3.6-4.4 4.7-7 1.1-2.6 1.6-5.4 1.6-8.3v-205.4c0-2.8 0.6-5.6 1.7-8.3 1.1-2.6 2.7-4.9 4.7-6.9 2-2 4.3-3.6 6.9-4.7 2.7-1.1 5.5-1.6 8.3-1.6h117.1c2.8 0 5.6 0.5 8.2 1.6 2.6 1.1 5 2.7 7 4.7 2 2 3.6 4.3 4.7 6.9 1 2.7 1.6 5.5 1.6 8.3v116.7c0 2.8-0.6 5.6-1.6 8.2-1.1 2.6-2.7 5-4.7 7-2 2-4.4 3.6-7 4.7-2.6 1.1-5.4 1.6-8.2 1.6h-67.4c-2.9 0-5.7 0.6-8.3 1.7-2.6 1-5 2.6-7 4.6-2 2-3.5 4.4-4.6 7-1.1 2.6-1.7 5.4-1.7 8.2v45.4c0 2.8 0.6 5.6 1.7 8.2 1.1 2.7 2.6 5 4.6 7 2 2 4.4 3.6 7 4.7 2.6 1.1 5.4 1.6 8.3 1.6h156.1c2.8 0 5.6-0.5 8.2-1.6 2.6-1.1 5-2.7 7-4.7 2-2 3.6-4.3 4.7-7 1.1-2.6 1.6-5.4 1.6-8.2v-293.6c0-2.8-0.5-5.6-1.6-8.2-1.1-2.6-2.7-5-4.7-7-2-2-4.4-3.6-7-4.7-2.6-1-5.4-1.6-8.2-1.6z"/>
			<path id="Layer" fill-rule="evenodd" class="s1" d="m412.1 143.1h29.3v18.7h0.7c8.1-9.8 26.9-21.8 56.1-21.8 48 0 71.4 31.4 71.4 67 0 35.5-21.1 71.6-71.1 71.6-29.1 0-45.7-9.1-55.1-21.6h-0.6v72.7h-30.7zm79.5 16.6c-33.1 0-48.9 25.1-48.9 49.8 0 22.1 14.2 49.3 48.4 49.3 32.8 0 46.4-29.3 45.8-50.1 0.8-23.9-12.2-49-45.3-49zm115.8-7.2q6.4-3.1 13.1-5.5 6.6-2.4 13.6-3.9 6.9-1.6 13.9-2.4 7.1-0.8 14.1-0.8c47.4 0 66.6 18.7 66.6 54.7v54.9q-0.1 3.2-0.1 6.5 0.1 3.2 0.2 6.5 0.2 3.2 0.5 6.4 0.2 3.3 0.6 6.5h-28.5v-17.2h-0.7c-7.1 8.1-23.3 20.3-51.2 20.3-35.6 0-60.6-12.5-60.6-41.2 0-33.2 45.4-43.6 76.8-43.6 12.1 0 20.5 0 32.3 0.5 0-22.8-10.3-34.5-40.8-34.5q-6.3 0-12.6 0.8-6.3 0.9-12.4 2.6-6.1 1.7-11.8 4.2-5.8 2.6-11.2 5.9zm90.5 59.9c-6.5 0-13-0.5-19.5-0.5-16.5 0-57.4 2-57.4 25.4 0 14 16.9 21.5 30.8 21.5 30.2 0 46.1-15 46.1-34.8zm59 98.9q1.8 0.5 3.5 0.8 1.8 0.4 3.6 0.7 1.8 0.2 3.6 0.4 1.8 0.1 3.6 0.1c27.2 0 36.3-30 36.3-32.6q-0.5-1.9-1.1-3.7-0.6-1.8-1.4-3.5-0.7-1.8-1.6-3.5-0.8-1.7-1.7-3.3l-56.1-123.5h33.4l44.6 109.4h0.7l45.4-109.4h30.8l-61.2 135.2c-11.4 25.4-23.3 54.7-63.5 54.7q-2.7 0-5.3-0.2-2.6-0.1-5.2-0.3-2.6-0.2-5.2-0.6-2.5-0.3-5.1-0.8zm268.9-145.7q-4-1.4-8.1-2.4-4.1-1.1-8.3-1.8-4.1-0.7-8.3-1.1-4.2-0.4-8.4-0.4c-34.1 0-53.2 24.4-53.2 49.5 0 23.6 16.1 49.5 55.1 49.5q4.3 0 8.5-0.5 4.2-0.4 8.3-1.4 4.2-0.9 8.2-2.3 4-1.5 7.8-3.3l2.3 21.5q-4.7 1.5-9.4 2.6-4.7 1.1-9.6 1.8-4.8 0.6-9.6 0.9-4.9 0.3-9.7 0.1c-50 0-84.4-31.4-84.4-69.2 0-40.3 33.8-69.3 84.4-69.3q4.6 0 9.3 0.4 4.6 0.4 9.2 1.1 4.7 0.8 9.2 1.8 4.6 1 9 2.3zm101.6-25.6c50.3 0 84 29.1 84 69.3 0 37.7-34.4 69.3-84 69.3-49.7 0-84.4-31.4-84.4-69.3 0-40.1 33.7-69.3 84.4-69.3zm0 118.9c35.6 0 51.5-26 51.5-49.6-0.6-13.3-6.3-25.8-15.9-35-9.6-9.2-22.5-14.4-35.8-14.4-13.3 0-26.1 5.2-35.8 14.4-9.6 9.2-15.3 21.7-15.9 35 0 23.7 15.9 49.7 51.9 49.7zm113.8-115.6h28.6v19.2h0.7c11.6-15.3 28.2-22.3 52.5-22.3 19.1 0 38.3 7.8 47 25.7 11.3-19 36.3-25.9 51.2-25.9 42.2 0 57.4 21.8 57.4 50.6v85h-30.5v-78.9c0-16.1-4.8-36.8-29.5-36.8-31.1 0-43.4 24.4-43.4 49v66.7h-30.5v-78.9c0-16.1-4.9-36.8-29.6-36.8-31.1 0-43.4 24.4-43.4 49v66.7h-30.5zm254.4 23c0-9.1 5.4-17.4 13.7-20.9 8.4-3.6 18.1-1.7 24.6 4.7 6.5 6.4 8.4 16.1 5 24.5-3.5 8.4-11.7 13.9-20.8 13.9-2.9 0-5.8-0.6-8.6-1.7-2.7-1.1-5.1-2.7-7.2-4.8-2.1-2.1-3.7-4.5-4.9-7.2-1.1-2.7-1.7-5.6-1.8-8.5zm39.4 0c0.4-4.8-1.2-9.4-4.4-12.9-3.2-3.5-7.8-5.5-12.5-5.5-4.8 0-9.3 2-12.5 5.5-3.2 3.5-4.8 8.1-4.5 12.9-0.3 4.7 1.3 9.4 4.5 12.9 3.2 3.4 7.7 5.4 12.5 5.4 4.7 0 9.3-2 12.5-5.4 3.2-3.5 4.8-8.2 4.4-12.9zm-25.5-12.8h9.4c6.1 0 9.4 2.1 9.4 7.4q0.1 1.4-0.3 2.7-0.5 1.3-1.5 2.3-0.9 1-2.2 1.5-1.3 0.4-2.7 0.4l6.9 11.1h-5l-6.6-10.7h-2.8v10.7h-4.8zm4.8 10.8h4.1c2.8 0 5.4-0.4 5.4-3.8 0-3.5-2.8-3.5-5.4-3.5h-4.2z"/>
		</g>
	</g>
</svg>