<svg version="1.2" baseProfile="tiny-ps" xmlns="http://www.w3.org/2000/svg" viewBox="0 0 1619 395" width="1619" height="395">
	<title>PayPal-svg</title>
	<style>
		tspan { white-space:pre }
		.shp0 { fill: #253b80 } 
		.shp1 { fill: #179bd7 } 
		.shp2 { fill: #222d65 } 
	</style>
	<path id="Layer" fill-rule="evenodd" class="shp0" d="M670.5 111.21C682.09 124.82 685.93 144.26 681.92 169C673.03 225.56 638.98 254.09 579.98 254.09L551.62 254.09C545.51 254.09 540.28 258.55 539.34 264.61L529.57 326.53C528.61 332.59 523.4 337.04 517.27 337.04L474.51 337.04C469.91 337.04 466.4 332.95 467.12 328.42L503.35 98.85C504.3 92.8 509.52 88.35 515.65 88.35L605.22 88.35C635.19 88.35 657.77 96.26 670.5 111.21ZM611.2 147.25C603.32 138.03 588.06 138.03 571.88 138.03L565.69 138.03C562.02 138.03 558.88 140.7 558.32 144.33L548.83 204.32L562.35 204.32C586.09 204.32 610.65 204.32 615.55 172.2C617.34 160.91 615.9 152.74 611.2 147.25Z" />
	<path id="Layer" fill-rule="evenodd" class="shp0" d="M880.3 179.78L857.12 326.51C856.15 332.57 850.96 337.03 844.82 337.03L806.19 337.03C801.61 337.03 798.1 332.94 798.82 328.39L800.74 316.47C800.74 316.47 779.56 341.02 741.37 341.02C719.12 341.02 700.42 334.6 687.34 319.21C673.1 302.47 667.27 278.46 671.37 253.35C679.25 203.01 719.73 167.13 767.13 167.13C787.8 167.13 808.5 171.63 817.79 185.11L820.79 189.45L822.69 177.46C823.25 173.83 826.41 171.16 830.06 171.16L872.95 171.16C877.54 171.16 881.03 175.26 880.3 179.78ZM805.91 224.27C799.39 216.64 789.49 212.6 777.31 212.6C752.88 212.6 733.11 229.58 729.24 253.86C727.22 265.77 729.63 276.47 735.97 283.98C742.36 291.55 752.32 295.54 764.77 295.54C789.58 295.54 809.03 279.1 813.17 254.61C815.04 242.74 812.45 231.98 805.91 224.27Z" />
	<path id="Layer" class="shp0" d="M1101.39 171.16L1058.28 171.16C1054.17 171.16 1050.31 173.21 1047.98 176.62L988.53 264.15L963.33 180.04C961.75 174.78 956.89 171.16 951.39 171.16L909.03 171.16C903.89 171.16 900.31 176.19 901.95 181.03L949.42 320.3L904.79 383.28C901.28 388.24 904.82 395.06 910.88 395.06L953.93 395.06C958.02 395.06 961.84 393.07 964.16 389.72L1107.52 182.88C1110.95 177.93 1107.42 171.16 1101.39 171.16Z" />
	<path id="Layer" fill-rule="evenodd" class="shp1" d="M1309.35 111.21C1320.94 124.82 1324.8 144.26 1320.78 169C1311.88 225.56 1277.84 254.09 1218.83 254.09L1190.48 254.09C1184.37 254.09 1179.14 258.55 1178.2 264.61L1167.92 329.68C1167.25 333.92 1163.6 337.04 1159.33 337.04L1113.36 337.04C1108.79 337.04 1105.28 332.95 1106 328.42L1142.22 98.85C1143.18 92.8 1148.39 88.35 1154.51 88.35L1244.09 88.35C1274.07 88.35 1296.63 96.26 1309.35 111.21ZM1250.09 147.25C1242.2 138.03 1226.93 138.03 1210.77 138.03L1204.58 138.03C1200.9 138.03 1197.78 140.7 1197.22 144.33L1187.72 204.32L1201.22 204.32C1224.98 204.32 1249.54 204.32 1254.42 172.2C1256.22 160.91 1254.79 152.74 1250.09 147.25Z" />
	<path id="Layer" fill-rule="evenodd" class="shp1" d="M1519.21 179.78L1496.02 326.51C1495.06 332.57 1489.85 337.03 1483.73 337.03L1445.11 337.03C1440.51 337.03 1437 332.94 1437.72 328.39L1439.64 316.47C1439.64 316.47 1418.46 341.02 1380.27 341.02C1358.02 341.02 1339.34 334.6 1326.24 319.21C1312 302.47 1306.19 278.46 1310.28 253.35C1318.16 203.01 1358.63 167.13 1406.03 167.13C1426.7 167.13 1447.39 171.63 1456.68 185.11L1459.69 189.45L1461.59 177.46C1462.14 173.83 1465.27 171.16 1468.95 171.16L1511.81 171.16C1516.41 171.16 1519.92 175.26 1519.21 179.78ZM1444.77 224.27C1438.25 216.64 1428.35 212.6 1416.17 212.6C1391.74 212.6 1371.99 229.58 1368.1 253.86C1366.11 265.77 1368.5 276.47 1374.83 283.98C1381.23 291.55 1391.2 295.54 1403.63 295.54C1428.44 295.54 1447.91 279.1 1452.03 254.61C1453.93 242.74 1451.33 231.98 1444.77 224.27Z" />
	<path id="Layer" class="shp1" d="M1562.38 94.65L1525.62 328.42C1524.9 332.95 1528.41 337.04 1532.98 337.04L1569.94 337.04C1576.08 337.04 1581.29 332.59 1582.23 326.53L1618.49 96.96C1619.21 92.43 1615.7 88.34 1611.13 88.34L1569.74 88.34C1566.09 88.35 1562.94 91.02 1562.38 94.65Z" />
	<path id="Layer" class="shp0" d="M95.16 381.65L102.01 338.16L86.75 337.81L13.9 337.81L64.53 16.91C64.68 15.94 65.2 15.04 65.94 14.4C66.69 13.76 67.64 13.41 68.64 13.41L191.49 13.41C232.27 13.41 260.42 21.89 275.11 38.63C282 46.49 286.39 54.69 288.51 63.73C290.74 73.2 290.77 84.53 288.6 98.34L288.44 99.35L288.44 108.2L295.33 112.1C301.13 115.17 305.74 118.7 309.28 122.73C315.17 129.44 318.99 137.98 320.6 148.1C322.26 158.5 321.71 170.89 318.99 184.91C315.84 201.04 310.76 215.08 303.9 226.58C297.58 237.17 289.54 245.95 280 252.76C270.88 259.23 260.05 264.14 247.8 267.28C235.94 270.37 222.41 271.92 207.57 271.92L198.01 271.92C191.17 271.92 184.53 274.39 179.32 278.8C174.1 283.3 170.64 289.45 169.58 296.18L168.86 300.1L156.76 376.74L156.21 379.56C156.06 380.45 155.81 380.89 155.45 381.19C155.12 381.47 154.65 381.65 154.19 381.65L95.16 381.65Z" />
	<path id="Layer" class="shp1" d="M301.85 100.37L301.85 100.37L301.85 100.37C301.49 102.71 301.07 105.11 300.6 107.57C284.4 190.71 228.97 219.43 158.18 219.43L122.14 219.43C113.48 219.43 106.19 225.71 104.84 234.25L104.84 234.25L104.84 234.25L86.39 351.23L81.16 384.39C80.28 389.99 84.61 395.04 90.26 395.04L154.19 395.04C161.76 395.04 168.19 389.55 169.38 382.08L170.01 378.84L182.05 302.49L182.82 298.3C184 290.81 190.44 285.32 198.01 285.32L207.57 285.32C269.51 285.32 317.99 260.18 332.16 187.45C338.08 157.06 335.02 131.69 319.35 113.85C314.61 108.47 308.73 104.01 301.85 100.37Z" />
	<path id="Layer" class="shp2" d="M284.91 93.61C282.43 92.89 279.88 92.24 277.26 91.65C274.63 91.07 271.93 90.56 269.15 90.12C259.43 88.55 248.79 87.8 237.38 87.8L141.09 87.8C138.72 87.8 136.47 88.34 134.45 89.31C130.01 91.44 126.71 95.64 125.91 100.79L105.43 230.47L104.84 234.25C106.19 225.71 113.48 219.43 122.14 219.43L158.18 219.43C228.97 219.43 284.4 190.7 300.6 107.57C301.08 105.11 301.49 102.71 301.85 100.37C297.76 98.19 293.32 96.34 288.54 94.75C287.36 94.36 286.14 93.98 284.91 93.61Z" />
	<path id="Layer" class="shp0" d="M125.91 100.79C126.71 95.64 130.01 91.44 134.45 89.32C136.48 88.35 138.72 87.81 141.09 87.81L237.38 87.81C248.79 87.81 259.43 88.56 269.15 90.13C271.93 90.58 274.63 91.09 277.26 91.66C279.88 92.25 282.43 92.91 284.91 93.63C286.14 93.99 287.36 94.37 288.55 94.75C293.33 96.34 297.77 98.21 301.87 100.37C306.69 69.64 301.83 48.72 285.21 29.78C266.89 8.93 233.82 0 191.5 0L68.65 0C60.01 0 52.64 6.28 51.3 14.83L0.13 339.03C-0.88 345.44 4.07 351.23 10.54 351.23L86.39 351.23L105.43 230.47L125.91 100.79Z" />
</svg>