<svg version="1.2" baseProfile="tiny-ps" xmlns="http://www.w3.org/2000/svg" viewBox="0 0 1515 369" width="1515" height="369">
	<title>pentair-svg</title>
	<style>
		tspan { white-space:pre }
		.shp0 { fill: #09244f } 
		.shp1 { fill: #4f8309 } 
	</style>
	<path id="Layer" class="shp0" d="M291.12 182.56L98.42 0L98.42 137.09L147.28 90.93L147.28 183.93L148.66 183.93L199.59 138.47L199.59 230.09L148.66 183.93L147.28 183.93L147.28 276.24L98.42 230.09L98.42 368.56L291.12 182.56Z" />
	<path id="Layer" fill-rule="evenodd" class="shp0" d="M456.3 222.51L398.49 222.51L398.49 269.36L359.95 269.36L359.95 102.64L443.91 104.02C443.91 104.02 514.11 102.64 516.86 161.2C519.62 220.44 456.3 223.2 456.3 222.51ZM476.95 161.2C474.19 135.02 448.04 137.09 448.04 137.09L398.49 136.4L398.49 186.69L452.86 186.69C452.86 186.69 479.01 186.69 476.95 161.2ZM585 142.6L585 170.84L646.94 170.84L646.94 204.6L585 204.6L585 233.53L683.42 233.53L683.42 269.36L540.95 269.36L540.95 106.09L683.42 106.09L683.42 142.6L585 142.6ZM753.62 103.33L841.71 198.4L841.71 106.09L885.76 106.09L885.76 269.36L850.66 269.36L758.44 170.16L758.44 269.36L722.65 269.36L722.65 102.64L753.62 103.33ZM1090.85 103.33L1072.27 142.6L1015.15 142.6L1015.15 269.36L973.16 269.36L973.16 142.6L913.98 142.6L913.98 102.64L1090.85 103.33ZM1253.28 269.36L1216.8 270.04L1202.35 241.11L1114.94 241.11L1103.24 270.04L1060.57 270.04L1143.16 102.64L1174.82 103.33L1253.28 269.36ZM1189.27 212.18L1157.61 150.18L1128.71 212.18L1189.27 212.18ZM1273.92 106.09L1312.46 106.09L1312.46 269.36L1273.92 269.36L1273.92 106.09ZM1482.46 215.62L1514.12 269.36L1466.63 269.36L1441.16 222.51L1397.81 222.51L1397.81 269.36L1359.26 269.36L1359.26 102.64L1442.54 104.71C1442.54 104.71 1512.05 103.33 1514.81 161.89C1516.18 192.89 1499.66 208.04 1482.46 215.62ZM1474.89 161.2C1472.82 135.02 1446.67 137.09 1446.67 137.09L1397.81 136.4L1397.81 186.69L1450.8 186.69C1450.8 186.69 1477.64 186.69 1474.89 161.2Z" />
	<path id="Layer" class="shp1" d="M0 230.09L49.55 183.93L0 138.47L0 230.09ZM48.86 90.93L48.86 183.93L98.42 137.09L48.86 90.93ZM48.86 276.24L98.42 230.09L48.86 183.93L48.86 276.24ZM147.28 183.93L98.42 137.09L98.42 230.09L147.28 183.93Z" />
</svg>