<svg version="1.2" baseProfile="tiny-ps" xmlns="http://www.w3.org/2000/svg" viewBox="0 0 1574 364" width="1574" height="364">
	<title>PepsiCo_logo-svg</title>
	<style>
		tspan { white-space:pre }
		.shp0 { fill: #28458e } 
		.shp1 { fill: #0096d6 } 
		.shp2 { fill: #eb7b30 } 
		.shp3 { fill: #00984a } 
		.shp4 { fill: #df002c } 
	</style>
	<g id="Layer">
		<path id="Layer" fill-rule="evenodd" class="shp0" d="M347.72 199.3L464.17 199.3C504.18 199.3 518.99 219.3 518.99 254.66C518.99 285.11 504.59 308.67 464.58 308.67L404.14 308.67L404.14 358.03L347.72 358.03L347.72 199.3ZM404.14 269.99L440.56 269.99C454.76 269.99 460.17 265.1 460.17 253.54C460.17 241.54 454.77 236.64 440.56 236.64L404.14 236.64L404.14 269.99ZM537.6 199.3L689.46 199.3L689.46 237.97L594.02 237.97L594.02 259.32L682.66 259.32L682.66 298.01L594.02 298.01L594.02 319.35L689.46 319.35L689.46 358.03L537.6 358.03L537.6 199.3ZM713.07 199.3L829.52 199.3C869.54 199.3 884.35 219.3 884.35 254.66C884.35 285.11 869.94 308.67 829.92 308.67L769.49 308.67L769.49 358.03L713.07 358.03L713.07 199.3ZM769.49 269.99L805.91 269.99C820.12 269.99 825.52 265.1 825.52 253.54C825.52 241.54 820.12 236.64 805.91 236.64L769.49 236.64L769.49 269.99ZM938.96 290.67C911.36 285.99 899.96 268.21 899.96 245.98C899.96 204.85 936.18 193.74 982.58 193.74C1046.2 193.74 1072.42 212.19 1074.42 245.76L1008.79 245.76C1008.79 239.31 1005.39 235.3 1000.2 233.08C995.19 230.64 988.79 229.75 982.58 229.75C965.78 229.75 959.98 234.42 959.98 241.09C959.98 245.53 961.77 248.43 967.38 249.32L1034.8 260.43C1063.22 265.1 1080.83 279.77 1080.83 306.66C1080.83 345.36 1052.41 363.59 988.98 363.59C945.57 363.59 898.15 356.92 897.95 310.23L965.98 310.23C966.17 315.56 967.98 319.12 971.98 321.56C976.17 323.79 982.38 324.9 991.18 324.9C1008.79 324.9 1013.6 319.56 1013.6 312C1013.6 307.34 1010.99 302.67 1003.4 301.34L938.96 290.67ZM1099.23 199.3L1155.65 199.3L1155.65 358.03L1099.23 358.03L1099.23 199.3ZM1364.75 296.22C1361.15 317.12 1354.73 334.02 1340.73 345.57C1326.93 357.14 1305.31 363.59 1270.91 363.59C1236.69 363.59 1173.27 360.91 1173.27 278.67C1173.27 196.41 1236.69 193.74 1270.91 193.74C1304.91 193.74 1357.34 198.63 1364.75 261.55L1301.12 261.55C1299.52 250.2 1292.71 233.75 1270.91 233.75C1247.89 233.75 1233.28 246.42 1233.28 278.66C1233.28 310.9 1247.49 323.56 1268.1 323.56C1285.91 323.56 1296.52 315.34 1301.12 296.22L1364.75 296.22L1364.75 296.22ZM1476.19 193.74C1510.41 193.74 1573.84 196.41 1573.84 278.67C1573.84 360.91 1510.41 363.59 1476.19 363.59C1441.97 363.59 1378.54 360.91 1378.54 278.67C1378.54 196.41 1441.97 193.74 1476.19 193.74ZM1438.57 278.67C1438.57 310.9 1453.18 323.57 1476.2 323.57C1499.2 323.57 1513.81 310.91 1513.81 278.67C1513.81 246.43 1499.2 233.76 1476.2 233.76C1453.18 233.76 1438.57 246.42 1438.57 278.67ZM262.46 200.87C266.11 124.72 200.39 38.96 110.8 28.36L110.96 27.32C199.28 27.32 266.98 109.03 266.98 173.49C266.9 186.91 265.84 195.23 263.95 201.26L262.46 200.87ZM258.3 211.36C241.66 240.23 200.3 278.22 139.13 278.22C112.08 278.22 94.35 270.78 89.12 268.86L89.49 267.72C93.78 268.61 98.11 269.32 102.46 269.87C106.81 270.42 111.18 270.79 115.56 271C119.94 271.2 124.33 271.24 128.71 271.1C133.1 270.96 137.47 270.66 141.83 270.18C92.98 252.23 56.18 195.24 56.18 120.67C56.18 74.18 75.43 47.56 78.51 42.91L79.59 43.34C77.05 48.79 63.91 75.43 63.91 118.49C63.91 184.46 100.06 248.85 150.84 268.96C154.06 268.43 157.27 267.81 160.46 267.12C163.64 266.42 166.81 265.63 169.96 264.76C173.1 263.9 176.23 262.94 179.32 261.91C182.42 260.87 185.48 259.75 188.52 258.55C135.54 207.9 92.1 104.09 91.79 42.94L93.17 42.53C106.74 105.52 148.85 204.8 194.02 256.27C197.24 254.88 200.42 253.41 203.56 251.84C206.7 250.27 209.8 248.61 212.84 246.87C215.89 245.13 218.88 243.3 221.82 241.39C224.77 239.48 227.65 237.48 230.48 235.4C208.28 153.05 151.19 76.81 103.33 37.55L104.34 36.84C151.94 60.2 219.26 140.26 235.19 231.81C243.84 224.95 251.24 217.73 257.11 210.55L258.3 211.36Z" />
		<path id="Layer" fill-rule="evenodd" class="shp1" d="M133.01 0.41C151.78 0.41 165.83 8.16 165.83 22.77C165.83 50.54 117.5 86.26 65.49 86.26C43.08 86.26 32.26 76.26 32.26 64.44C32.26 33.86 86.63 0.41 133.01 0.41ZM151.52 21.91C151.52 16.44 147.11 4.75 124.12 4.75C88.85 4.75 43.36 32.87 43.36 56.62C43.36 67.4 52.33 73.93 68.95 73.93C106.54 73.93 151.52 45.32 151.52 21.91Z" />
		<path id="Layer" fill-rule="evenodd" class="shp2" d="M13.78 78.59C12.48 80.85 7.26 91.06 7.26 101.53C7.26 120.94 26.88 138.96 62.98 138.96C132.43 138.96 212.66 87.88 212.66 40.46C212.66 19.17 192.5 7.6 178.5 5.21L178.24 6.04C182.59 7.42 198.54 14.83 198.54 33.79C198.54 71.57 127.7 123.05 57.14 123.05C30.12 123.05 13.11 109.72 13.11 90.31C13.11 84.17 14.38 80.13 14.72 78.95L13.78 78.59Z" />
		<path id="Layer" fill-rule="evenodd" class="shp3" d="M241.29 44C243.2 45.45 254.64 54.98 254.64 72.99C254.64 134.42 158.33 194.82 73.18 194.82C22.41 194.82 -0.74 169.77 0.28 147.52L1.19 147.52C3.18 159.08 19.67 179.75 64.11 179.75C149.36 179.75 244.55 117.25 244.55 62.49C244.55 53.09 241.99 47.24 240.55 44.64L241.29 44Z" />
		<path id="Layer" fill-rule="evenodd" class="shp4" d="M273.48 101.35C273.88 102.66 275.96 108.54 275.96 117.75C275.96 186.08 178.49 244.58 93.72 244.58C50.1 244.58 27.31 223.4 22.5 214.8L23.28 214.23C35.35 224.78 59.13 232.8 86.88 232.8C161.74 232.8 273.45 175.88 272.46 101.6L273.48 101.35Z" />
	</g>
</svg>