<svg version="1.2" xmlns="http://www.w3.org/2000/svg" viewBox="0 0 1528 292" width="1528" height="292">
	<title>1Q_2023_Earnings_Deck_Final-1-pdf-svg</title>
	<defs>
		<clipPath clipPathUnits="userSpaceOnUse" id="cp1">
			<path d="m-272-342h5544v3114h-5544z"/>
		</clipPath>
	</defs>
	<style>
		.s0 { fill: #395775 } 
		.s1 { fill: #909496 } 
	</style>
	<g id="Clip-Path: Page 1" clip-path="url(#cp1)">
		<g id="Page 1">
			<path id="Path 13" fill-rule="evenodd" class="s0" d="m339 170.6l-0.6 0.9h-21.5l-94.5-116.8v89.1c0 19.3 3.4 20.5 11.4 22.1l0.9 0.6v4.1l-0.9 0.9h-31.7l-0.9-0.9v-4.1l0.9-0.6c8-1.6 11.4-2.8 11.4-22.1 0-6.2 0-90.7 0-90.7 0-16.7-2.2-18-10.5-19.2l-0.6-0.7v-4l0.6-0.9h23.7zm221.4-17.4c4.2 9.9 3.3 11.2 12.5 12.7l1 0.6v4.1l-1 0.9h-37.1l-1-0.9v-4.1l1-0.6c10.1-1.5 8.6-2.1 3.4-15.8-5.3-13.6-12.7-32.6-12.7-32.6h-51.9c0 0-8.3 19.9-13.5 32.6-5.5 13.7-6.1 14.3 4.3 15.8l0.6 0.6v4.1l-0.6 0.9h-29.5l-0.6-0.9v-4.1l0.6-0.6c9.6-1.5 10.1-2.8 14.1-12.4 4.1-9.9 53.2-125.2 53.2-125.2h6.7zm-82.3-44.3h45.5l-22.2-54.9zm216.9-54.3l-0.9-0.9-1.9-9.1c-9.8-7.4-28-10.2-36.3-10.2-41.4 0-52.5 33.2-52.5 60.9 0 31.7 16.4 71.1 58 71.1 9.5 0 31.1-5.8 37.6-13.6l2.5 2.2-4.7 10.8c-11.4 5-26.8 7.8-39.1 7.8-65.4 0-74-54.4-74-72.7 0-47.2 27.1-74 74.6-74 17.2 0 32.7 3.8 42.9 7.8l-2.5 19.9zm620.8 88.8l0.6 1 2.5 9.9c0 0 8.3 11.8 29.9 11.8 20 0 33-11.5 33-32.9 0-40.4-76.2-16.2-76.2-65.9 0-27.6 25.9-40.4 52.4-40.4 10.2 0 21.9 1.6 31.8 6.9l-2.4 19.9h-3.7l-1-1-1.9-9.6c-11.3-7.2-19.4-8.7-30.2-8.7-19.1 0-28 12.1-28 26.1 0 45.1 75.8 17.7 75.8 64.9 0 33.3-26.2 48.2-56.4 48.2-4 0-21.6 0-32.7-8.1l2.5-22.1zm-886.6-114.2v4.1l-0.6 0.6c-8.3 1.6-11.7 2.8-11.7 22.1l0.3 114.6-0.9 0.9h-7.7c0 0-74.3-93.2-91.8-114-17.5-20.8-17.2-22-27.3-23.6l-0.9-0.6v-4.1l0.9-0.9h28.8l90 113.7v-86c0-19.3-3.4-20.5-11.3-22.1l-0.9-0.6v-4.1l0.9-0.9h31.6zm618 116.2l-8.3 26.1h-2.8c0 0-33.2-107.9-41.2-134-8.4-26-9.9-29.7-20.9-31.3l-1-0.6v-4.1l1-0.9h43.3l0.9 0.9v4.1l-0.9 0.6c-7.4 1.6-11.1 1.6-5.8 19.6 5.2 17.6 35.7 119.6 35.7 119.6zm29.1-142.9h2.4l42.4 129c0 0 26.2-88.4 31.4-105.7 5.3-18 1.3-18-5.8-19.6l-0.9-0.6v-4.1l0.9-0.9h33.9l1 0.9v4.1l-1 0.6c-11.1 1.6-12.6 5.3-20.6 31.3-4.3 14.3-41.4 134-41.4 134h-3.1l-47.6-140.2zm201.3 25.9l2.5 2.4v17.7l-0.9 1h-2.8l-4.6-11.8h-56.2c0 0 0 27.6 0 54.9h50.3l0.9 1v7.1l-1.2 1h-50c0 30.4 0 60.5 0 60.5 26.5 0 56.5 0 56.5 0l4.9-11.7h2.8l0.9 0.9v17.7l-2.7 2.5h-87.8l-0.9-1v-4l0.9-0.6c8.7-1.6 8.7-2.5 8.7-21.8v-88.5c0-19.3 0-20.2-8.7-21.7l-0.9-0.7v-4l0.9-0.9zm-349.9 0l2.5 2.4v17.7l-0.6 1h-3.1l-4.6-11.8h-56c0 0 0 27.6 0 54.9h50.1l0.9 1v7.1l-1.2 1h-49.8c0 30.4 0 60.5 0 60.5 26.3 0 56.6 0 56.6 0l4.6-11.7h2.8l0.9 0.9v17.7l-2.4 2.5h-88.1l-0.9-1v-4l0.9-0.6c8.7-1.6 8.7-2.5 8.7-21.8v-88.5c0-19.3 0-20.2-8.7-21.7l-0.9-0.7v-4l0.9-0.9zm600.4 2.4v18.4h-3.7l-4.7-11.5h-41.1v106.5c0 19.3 1.6 20.2 10.5 21.8l0.6 0.6v4l-0.6 1h-37.8l-0.6-1v-4l0.6-0.6c8.3-1.6 10.5-2.5 10.5-21.8v-106.5h-41.1l-4.7 11.5h-3.7v-18.4l2.5-2.4h110.8zm-1365 113c0 19.3 1.6 20.5 10.6 22.1l0.6 0.6v4.1l-0.6 0.9h-37.6l-0.6-0.9v-4.1l0.6-0.6c8.4-1.6 10.6-2.5 10.6-21.7v-88.6c0-19.2-1.6-20.2-10.6-21.7l-0.6-0.7v-4l0.6-0.9h37.6l0.6 0.9v4l-0.6 0.7c-8.4 1.5-10.6 2.5-10.6 21.7zm656.2 7.5v17.7l-2.5 2.5h-87.3l-1-0.9v-4.1l1-0.6c8.6-1.6 8.6-2.5 8.6-21.7v-88.6c0-19.2 0-20.2-8.6-21.7l-1-0.7v-4l1-0.9h33.8l0.9 0.9v4l-0.9 0.7c-7.4 1.3-8.6 2.5-8.6 21.7v106.5c26.2 0 56.3 0 56.3 0l4.6-11.7h3.1zm-705.3-104.8c0 22.3-17.5 47.4-50.4 47.4-5.2 0-24.3 0-24.3 0l-0.9-0.9v-4.7l0.9-0.9c0 0 19.7 0 23.4 0 19.3 0 32.8-16.7 32.8-37.8 0-20.5-7.6-40.3-36.2-40.3-11 0-31 0-31 0v134.9c0 19.2 1.5 20.1 10.4 21.7l0.6 0.6v4l-0.6 1h-37.7l-0.7-1v-4l0.7-0.6c8.2-1.6 10.4-2.5 10.4-21.7v-116.3c0-19.2-1.5-20.2-10.4-21.7l-0.7-0.6v-4.1l0.7-0.9c0 0 53.4 0 67.5 0 24.9 0 45.5 13.9 45.5 45.9z"/>
			<path id="Path 14" fill-rule="evenodd" class="s1" d="m128.3 251.3v-4.4c0-5-2.5-7.2-4.9-7.2-4 0-5.3 2.2-5.3 6.5v29.7c0 4.4 1.3 6.6 5.3 6.6 3.6 0 4.9-2.2 4.9-6v-7.2h9.8v6.9c0 8.1-4.9 15-14.7 15-10.5 0-15.1-6.9-15.1-15v-30.2c0-8.2 4.6-15 15.1-15 9.8 0 14.7 7.5 14.7 15.9v4.4zm56.8 39.2h-9.6l10.5-58.1h12.3l10.5 58.1h-9.5l-1.6-13.1h-11.1zm3.1-21.7h8l-4-24.9zm67.1 21.7v-58.1h14.1c11.9 0 17.7 4.7 17.7 17.1 0 12.4-5.8 17.1-17.7 17.1h-4.3v23.9zm9.8-32h3.6c6.5 0 8.6-2.2 8.6-9 0-6.8-2.1-9-8.6-9h-3.6zm69.1-26.1h10.4v58.1h-10.4zm69.9 8.7h-9.6v-8.7h29.1v8.7h-9.6v49.4h-9.9zm68.1 49.4h-9.8l10.7-58.1h12.2l10.4 58.1h-9.5l-1.5-13h-11zm3.1-21.8h7.9l-3.9-24.9zm65.5 21.8v-58.1h9.8v49.4h15.8v8.7zm131.5-39.2v-4.4c0-5-2.5-7.2-4.9-7.2-4 0-5.3 2.2-5.3 6.6v29.6c0 4.4 1.3 6.6 5.3 6.6 3.6 0 4.9-2.2 4.9-6v-7.2h9.8v6.9c0 8.1-4.9 15-14.7 15-10.4 0-15.1-6.9-15.1-15v-30.2c0-8.2 4.7-15 15.1-15 9.8 0 14.7 7.5 14.7 15.9v4.4zm54.2-5.3c0-8.2 4.5-15 14.9-15 10.3 0 14.9 6.8 14.9 15v30.2c0 8.1-4.6 15-14.9 15-10.4 0-14.9-6.9-14.9-15zm9.7 29.9c0 4.4 1.3 6.6 5.2 6.6 3.9 0 5.2-2.2 5.2-6.6v-29.6c0-4.4-1.3-6.6-5.2-6.6-3.9 0-5.2 2.2-5.2 6.6zm77.7 14.5h-9.8v-58.1h13.8c11 0 16.5 4.7 16.5 17.1 0 9.3-3.4 13.1-6.7 14.6l8.2 26.4h-10.1l-7-24.2c-1.2 0.3-3.1 0.3-4.9 0.3zm0-32h3.3c5.6 0 7.4-2.2 7.4-9 0-6.8-1.8-9-7.4-9h-3.3zm71.9 32v-58.1h14.1c12.3 0 17.8 4.6 17.8 17 0 12.5-5.5 17.2-17.8 17.2h-4.3v23.9zm9.9-32h3.9c6.5 0 8.3-2.2 8.3-9.1 0-6.8-1.8-9-8.3-9h-3.9zm65.7-12.5c0-8.1 4.5-15 14.9-15 10.3 0 14.9 6.9 14.9 15v30.2c0 8.2-4.6 15-14.9 15-10.4 0-14.9-6.8-14.9-15zm9.7 30c0 4.3 1.2 6.5 5.2 6.5 3.9 0 5.2-2.2 5.2-6.5v-29.7c0-4.4-1.3-6.5-5.2-6.5-4 0-5.2 2.1-5.2 6.5zm78.4 14.6h-9.8v-58.1h13.8c11 0 16.5 4.7 16.5 17.1 0 9.3-3.7 13.1-6.7 14.6l8.2 26.4h-10.1l-7-24.2c-1.2 0.3-3.4 0.3-4.9 0.3zm0-32h3.3c5.6 0 7.4-2.2 7.4-9.1 0-6.8-1.8-9-7.4-9h-3.3zm77 32h-9.9l10.9-58.1h12.4l10.6 58.1h-9.6l-1.6-13h-11.2zm3.1-21.7h8.1l-4-24.9zm70.6-27.7h-9.6v-8.7h29.1v8.7h-9.6v49.4h-9.9zm67.3-8.7h9.7v58.1h-9.7zm58.9 13.6c0-8.1 5-15 15.4-15 10.7 0 15.8 6.9 15.8 15v30.2c0 8.2-5.1 15-15.8 15-10.4 0-15.4-6.8-15.4-15zm10.1 29.9c0 4.4 1.2 6.6 5.3 6.6 4.1 0 5.4-2.2 5.4-6.6v-29.6c0-4.4-1.3-6.6-5.4-6.6-4.1 0-5.3 2.2-5.3 6.6zm66.8 14.6v-58.1h9.3l12.2 33.3v-33.3h9v58.1h-8.7l-12.8-36.4v36.4z"/>
		</g>
	</g>
</svg>