<svg version="1.2" xmlns="http://www.w3.org/2000/svg" viewBox="0 0 1560 385" width="1560" height="385">
	<title>logo (39)-svg</title>
	<style>
		.s0 { fill: #241f21 } 
		.s1 { fill: #82a366 } 
	</style>
	<path id="Layer" class="s0" d="m47.8 183.9c0 21.5 3.7 30.1 17.1 38.5h-64.9c12.2-6.5 14.6-14 14.6-41.9v-132c0-27.9-2.5-35.4-14.6-41.9h31.5c10 0 10 0 36.9-0.3h10.3q5.5-0.3 11.1 0.1 5.6 0.4 11 1.4 5.5 1 10.9 2.7 5.3 1.6 10.4 3.9c4.8 2.1 9.3 4.9 13.3 8.2 4 3.4 7.5 7.3 10.5 11.7 2.9 4.3 5.2 9 6.9 14 1.6 5 2.5 10.2 2.7 15.4 0 33.9-32.8 61.5-72.8 61.5q-3 0.2-6-0.1-3.1-0.2-6.1-0.7-3-0.6-5.9-1.4-2.9-0.9-5.7-2.1 5.8-0.3 11.4-1.4 5.7-1.1 11.1-3.1 5.4-2 10.4-4.9 5.1-2.8 9.6-6.5c2.7-2.1 5.1-4.4 7.2-7.1 2.2-2.6 4-5.5 5.5-8.6 1.5-3 2.6-6.2 3.3-9.6 0.8-3.3 1.2-6.7 1.2-10.1 0-25.1-18.1-40.6-47.8-40.6q-2.9-0.1-5.9 0.1-2.9 0.1-5.8 0.5-2.9 0.3-5.7 0.9-2.9 0.5-5.7 1.3z"/>
	<path id="Layer" class="s0" d="m231.4 48.5c0-27.9-2.5-35.4-14.7-41.9h62.5c-12.2 6.5-14.7 14-14.7 41.9v132c0 27.9 2.5 35.4 14.7 41.9h-62.5c12.2-6.5 14.7-14 14.7-41.9z"/>
	<path id="Layer" fill-rule="evenodd" class="s0" d="m553 33.3c5.3 5.2 10 11 14.1 17.1 4.1 6.2 7.6 12.7 10.5 19.5 2.9 6.8 5 13.9 6.5 21.2 1.5 7.2 2.3 14.6 2.3 22 0 64-53.7 114.6-121.8 114.6-67.1 0-120.2-49.4-120.2-112.1 0-65.2 53.7-114.6 124.6-114.6 7.7 0 15.4 0.6 22.9 2 7.6 1.4 15 3.5 22.2 6.3 7.1 2.7 14 6.1 20.6 10.2 6.5 4 12.6 8.6 18.3 13.8zm-148.6 15.5c-3.7 4.2-7 8.7-9.9 13.5-2.9 4.8-5.3 9.9-7.3 15.1-1.9 5.2-3.4 10.7-4.3 16.2-1 5.5-1.4 11.1-1.3 16.7 0 6.3 0.6 12.7 1.8 18.9 1.1 6.2 2.9 12.3 5.1 18.3 2.3 5.9 5.1 11.6 8.4 17 3.3 5.5 7 10.6 11.2 15.3 3.6 4.1 7.7 7.7 12.1 10.8 4.4 3.2 9.1 5.8 14.1 8 5 2.1 10.1 3.6 15.5 4.6 5.3 1 10.7 1.4 16.1 1.2 49.3 0 83.1-35.1 83.1-86.1 0-5.8-0.4-11.7-1.3-17.5-1-5.7-2.4-11.4-4.3-17-1.9-5.5-4.3-10.9-7.1-16-2.9-5.2-6.1-10-9.8-14.6-3.7-4.6-7.9-8.8-12.6-12.4-4.6-3.7-9.7-6.8-15.1-9.3-5.4-2.4-11-4.3-16.8-5.4-5.8-1.2-11.7-1.7-17.6-1.5-5.6 0-11.1 0.6-16.5 1.6-5.4 1.1-10.7 2.6-15.9 4.7-5.1 2.1-10 4.6-14.6 7.6-4.7 3-9 6.5-13 10.3z"/>
	<path id="Layer" class="s0" d="m687.2 183.9c0 21.5 3.7 29.8 17.2 38.5h-58.7c14-9 17.4-16.8 17.4-38.5v-138.8c0-21.5-3.7-29.8-17.1-38.5h48.1q0.7 1.7 1.5 3.2 0.9 1.6 1.9 3.2 1 1.5 2.1 2.9 1.1 1.5 2.3 2.8l122.1 154.7v-128.3c0-21.7-3.8-29.5-17.6-38.5h59c-14 9-17.4 16.8-17.4 38.5v187.9q-6.9-2.3-13.3-5.7-6.4-3.4-12.2-7.8-5.8-4.4-10.8-9.7-5-5.3-9-11.3l-115.5-145.6z"/>
	<path id="Layer" class="s0" d="m981.4 194.8q5 0.9 10 1.5 5.1 0.7 10.2 1.1 5.1 0.4 10.1 0.6 5.1 0.2 10.2 0.2c5.7 0.4 11.4 0.3 17.1-0.3 5.7-0.6 11.3-1.7 16.8-3.3 5.5-1.6 10.8-3.6 15.9-6.2 5.1-2.5 10-5.5 14.6-8.8l-15.3 42.9h-137.4c12.2-6.6 14.7-14 14.7-42.3v-131.7c0-27.9-2.9-35.7-14.7-41.9h109.6q1.6 0.1 3.2 0 1.6 0 3.1-0.3 1.6-0.2 3.2-0.6 1.5-0.4 3-1v38.2c-10.6-10.2-19.1-13-40.3-13q-4.3-0.1-8.5 0-4.3 0-8.6 0.3-4.2 0.3-8.5 0.8-4.2 0.4-8.4 1.1v61.1h44q1.4 0.1 2.9 0.1 1.4-0.1 2.8-0.4 1.5-0.3 2.8-0.8 1.4-0.4 2.7-1v34.7c-5.3-6.8-11.5-9-25.9-9h-29.3z"/>
	<path id="Layer" class="s0" d="m1199 194.8q5 0.9 10.1 1.5 5 0.7 10.1 1.1 5.1 0.4 10.2 0.6 5.1 0.2 10.2 0.2c5.7 0.4 11.4 0.3 17.1-0.3 5.6-0.6 11.3-1.7 16.7-3.3 5.5-1.6 10.8-3.6 16-6.2 5.1-2.5 10-5.5 14.5-8.8l-15.3 42.9h-137.4c12.2-6.6 14.7-14 14.7-42.3v-131.7c0-27.9-2.8-35.7-14.7-41.9h109.7q1.5 0.1 3.1 0 1.6 0 3.2-0.3 1.6-0.2 3.1-0.6 1.5-0.4 3-1v38.2c-10.6-10.2-19-13-40.2-13q-4.3-0.1-8.6 0-4.3 0-8.5 0.3-4.3 0.3-8.5 0.8-4.3 0.4-8.5 1.1v61.1h44q1.5 0.1 2.9 0.1 1.5-0.1 2.9-0.4 1.4-0.3 2.8-0.8 1.4-0.4 2.7-1v34.7c-5.3-6.8-11.6-9-25.9-9h-29.4z"/>
	<path id="Layer" class="s0" d="m1412.9 180.5c0 27.9 2.5 35.4 14.6 41.9h-62.4c12.2-6.5 14.7-13.9 14.7-41.9v-132c0-27.9-2.5-35.4-14.7-41.9h47.8c2.8 0 8.1 0 15.3-0.3 5.6-0.3 10.3-0.3 14-0.3q6.4-0.5 12.8 0.1 6.4 0.6 12.6 2.2 6.2 1.7 12.1 4.3 5.9 2.6 11.3 6.1c3.3 2.4 6.3 5.2 8.9 8.3 2.7 3.1 5 6.5 6.9 10.1 1.9 3.6 3.3 7.5 4.3 11.4 1.1 4 1.6 8 1.7 12.1 0 25.2-22.1 48.5-53.4 56.2 49.4 65.9 74.4 91.9 100.6 105.6-20.3 1.6-23.8 1.9-30.3 1.9-18.7 0-28.7-6.2-50.9-32.6q-8.1-9.6-15.7-19.5-7.7-9.9-14.9-20.2-7.2-10.2-14-20.7-6.8-10.5-13.2-21.3c37.2-6.2 55-21.7 55-46.9 0-21.5-16.3-36.3-40-36.3q-2.9 0-5.8 0.2-2.9 0.1-5.8 0.4-2.9 0.3-5.8 0.8-2.9 0.5-5.7 1.1z"/>
	<path id="Layer" fill-rule="evenodd" class="s1" d="m1416.2 364.5q0 1.9-0.4 3.8-0.3 1.9-1.1 3.7-0.7 1.8-1.8 3.4-1.1 1.6-2.5 3-1.7 1.5-3.5 2.6-1.9 1.2-4 1.9-2 0.8-4.2 1.1-2.2 0.4-4.4 0.3-2.7-0.1-5.5-0.5-2.7-0.5-5.3-1.3-2.6-0.8-5.1-2-2.5-1.2-4.8-2.7l-0.2-0.1 0.1-0.3 4-10.3 0.3 0.2q1.8 1.4 3.8 2.5 2 1 4.2 1.8 2.1 0.8 4.4 1.2 2.2 0.4 4.5 0.5c7 0 9.5-4.2 9.5-8.2 0-4.3-1.8-7.2-12.1-11.5-10.8-4.6-15.7-10.4-15.7-18.8 0.2-2.7 0.8-5.4 2-7.8 1.2-2.4 2.9-4.5 4.9-6.3 2-1.7 4.4-3 7-3.8 2.6-0.8 5.3-1 7.9-0.7q2.2 0 4.4 0.3 2.2 0.3 4.3 0.9 2.1 0.6 4.1 1.5 2 0.9 3.8 2l0.2 0.2-0.1 0.2-3.7 10.2-0.3-0.2q-1.4-1.1-3-1.9-1.5-0.7-3.2-1.3-1.6-0.6-3.3-1-1.7-0.3-3.5-0.4c-7.1 0-9.7 4-9.7 7.8 0 4 2.7 6.5 11.1 10.2 12.5 5.4 16.9 10.6 16.9 19.8zm-111.4-47.3h40.4v10.8h-28.7v16.5h26v10.4h-26v17.6h28.7v10.7h-40.4zm-33.2 50.8l3.6 10-0.2 0.1q-2.4 1.5-5 2.7-2.6 1.1-5.3 1.9-2.7 0.8-5.5 1.2-2.8 0.4-5.6 0.4c-9.4 0.6-18.6-2.8-25.4-9.2-6.9-6.5-10.8-15.4-10.8-24.8 0-9.4 3.9-18.4 10.8-24.9 6.8-6.4 16-9.8 25.4-9.2q2.8 0 5.5 0.4 2.8 0.4 5.5 1.2 2.7 0.7 5.2 1.8 2.6 1.2 5 2.6l0.2 0.1-0.1 0.3-4 9.8-0.3-0.2q-1.9-1.2-4-2.1-2.1-0.9-4.3-1.5-2.1-0.6-4.4-1-2.2-0.3-4.5-0.4c-6.1 0.1-11.9 2.5-16.2 6.9-4.3 4.3-6.7 10.2-6.7 16.3 0.1 6.1 2.5 11.9 6.9 16.2 4.3 4.3 10.2 6.7 16.3 6.6q2.3 0 4.6-0.4 2.3-0.4 4.5-1 2.3-0.7 4.4-1.6 2.1-0.9 4.2-2.1zm-83.4-24.3c-0.5 2-1.4 3.8-2.5 5.5-1.1 1.7-2.5 3.2-4 4.5-1.6 1.3-3.4 2.3-5.2 3.1l17.2 26.5h-13.6l-0.1-0.2-14.2-23.4c-1.1 0.1-2.1 0.1-3.3 0.1-2.1 0-4.2-0.1-6.2-0.1v23.5h-11.8v-65.3h0.3q2.1-0.3 4.3-0.5 2.2-0.2 4.3-0.3 2.2-0.2 4.3-0.2 2.2-0.1 4.3-0.1c17 0 27.1 7.8 27.1 20.9q0 3.1-0.9 6zm-11.5-5.4c0-6.7-5.1-10.9-13.2-10.9q-0.9 0-1.8 0-0.9 0.1-1.8 0.1-0.9 0.1-1.8 0.2-0.9 0.1-1.8 0.2v21.8q0.7 0.1 1.5 0.1 0.8 0.1 1.5 0.1 0.8 0.1 1.6 0.1 0.7 0 1.5 0c9.2 0 14.3-4.2 14.3-11.7zm-78.2-21h11.8v40.6c0.3 3.6-0.2 7.2-1.4 10.5-1.2 3.4-3.2 6.5-5.7 9-2.6 2.5-5.6 4.4-9 5.6-3.4 1.3-7 1.7-10.5 1.4-3.6 0.3-7.2-0.1-10.5-1.3-3.4-1.2-6.4-3.2-9-5.7-2.5-2.5-4.4-5.6-5.6-9-1.2-3.3-1.6-6.9-1.2-10.5v-40.6h11.8v39.8c0 10.8 5 16.5 14.7 16.5 9.4 0 14.6-5.9 14.6-16.5zm-92.5 1.4c4.2 1.7 7.9 4.2 11 7.4 3.1 3.2 5.5 7.1 7.1 11.2 1.5 4.2 2.2 8.6 2 13.1 0.1 4.5-0.7 8.9-2.3 13.1-1.7 4.1-4.1 7.9-7.3 11.1-3.1 3.2-6.9 5.7-11 7.4-4.2 1.7-8.6 2.5-13.1 2.4-4.4 0.1-8.8-0.7-12.9-2.4-4.2-1.7-7.9-4.2-11-7.4-3.1-3.2-5.5-7-7.1-11.2-1.5-4.1-2.2-8.6-2-13-0.1-4.5 0.6-9 2.3-13.1 1.6-4.2 4.1-8 7.2-11.2 3.2-3.2 6.9-5.7 11.1-7.4 4.1-1.7 8.6-2.5 13.1-2.4 4.4-0.1 8.8 0.7 12.9 2.4zm-4.7 53.1c2.6-1.2 5-3 6.9-5.2 2-2.2 3.4-4.8 4.4-7.6 0.9-2.8 1.2-5.7 0.9-8.6 0.7-6-1.1-12-5.1-16.5-4-4.4-9.7-7-15.7-7-6 0-11.7 2.6-15.6 7-4 4.5-5.9 10.5-5.1 16.5-0.3 2.9 0 5.9 0.9 8.7 1 2.8 2.4 5.3 4.4 7.5 1.9 2.2 4.3 4 7 5.3 2.7 1.2 5.5 1.9 8.5 2 2.9-0.1 5.8-0.8 8.5-2.1zm-69.7-7.2q0.1 1.9-0.3 3.8-0.4 1.9-1.2 3.7-0.7 1.8-1.8 3.4-1.1 1.6-2.5 3-1.6 1.5-3.5 2.6-1.9 1.2-4 1.9-2 0.8-4.2 1.1-2.2 0.4-4.4 0.3-2.7-0.1-5.4-0.5-2.8-0.4-5.4-1.3-2.6-0.8-5.1-2-2.5-1.1-4.8-2.7l-0.2-0.1 0.1-0.2 4-10.4 0.3 0.2q1.8 1.4 3.9 2.5 2 1.1 4.1 1.8 2.1 0.8 4.4 1.2 2.2 0.4 4.5 0.5c7 0 9.6-4.2 9.6-8.2 0-4.3-1.8-7.1-12.2-11.5-10.8-4.6-15.6-10.4-15.6-18.8 0.1-2.7 0.8-5.3 1.9-7.8 1.2-2.4 2.9-4.5 4.9-6.3 2.1-1.7 4.4-3 7-3.8 2.6-0.8 5.3-1 7.9-0.7q2.2 0 4.4 0.3 2.2 0.3 4.3 0.9 2.1 0.6 4.1 1.5 2 0.9 3.8 2l0.2 0.2-0.1 0.2-3.7 10.2-0.3-0.2q-1.4-1-3-1.8-1.5-0.8-3.1-1.4-1.7-0.6-3.4-0.9-1.7-0.4-3.4-0.5c-7.2 0-9.8 4-9.8 7.8 0 4 2.7 6.5 11.2 10.2 12.4 5.4 16.8 10.6 16.8 19.8zm-111.4-47.3h40.5v10.8h-28.7v16.5h25.9v10.4h-25.9v17.6h28.7v10.7h-40.5zm-33.7 26.5c-0.6 1.9-1.4 3.8-2.6 5.5-1.1 1.7-2.4 3.2-4 4.5-1.6 1.2-3.3 2.3-5.2 3.1l17.3 26.4h-13.7l-0.1-0.1-14.1-23.4c-1.1 0.1-2.2 0.1-3.4 0.1-2 0-4.1-0.1-6.2-0.2v23.6h-11.7v-65.4h0.3q2.1-0.2 4.3-0.4 2.1-0.2 4.3-0.4 2.1-0.1 4.3-0.2 2.2 0 4.3 0c17 0 27.1 7.8 27.1 20.9q-0.1 3.1-0.9 6zm-11.5-5.5c0-6.6-5.1-10.8-13.3-10.8q-0.9 0-1.8 0-0.9 0-1.8 0.1-0.9 0-1.8 0.1-0.9 0.1-1.7 0.3v21.7q0.7 0.1 1.5 0.2 0.7 0.1 1.5 0.1 0.8 0 1.5 0.1 0.8 0 1.6 0c9.2-0.1 14.3-4.2 14.3-11.8zm-128.4 34.3h28.7v10.7h-40.5v-66h11.7zm-69.4-55.9l30.2 66.7h-12.4l-0.1-0.2-6.3-14.8h-25.4l-6.4 15h-12l0.1-0.5 30.3-66.4h1.9zm7.5 42.3l-8.8-20.7-8.8 20.7zm-69.6-15.1c-0.6 1.9-1.4 3.7-2.5 5.4-1.2 1.7-2.5 3.2-4.1 4.5-1.5 1.3-3.3 2.4-5.2 3.1l17.3 26.5h-13.7l-0.1-0.1-14.1-23.4c-1.1 0-2.2 0-3.3 0-2.1 0-4.2 0-6.3-0.1v23.5h-11.7v-65.3h0.3q2.1-0.3 4.3-0.5 2.1-0.2 4.3-0.3 2.1-0.1 4.3-0.2 2.1-0.1 4.3-0.1c17 0 27.1 7.8 27.1 20.9q0 3.1-0.9 6.1zm-11.5-5.5c0-6.7-5.1-10.8-13.3-10.8q-0.9-0.1-1.8 0-0.9 0-1.8 0-0.9 0.1-1.8 0.2-0.9 0.1-1.8 0.2v21.8q0.8 0.1 1.6 0.2 0.7 0 1.5 0.1 0.8 0 1.5 0 0.8 0 1.6 0c9.2 0 14.3-4.1 14.3-11.7zm-78.2-21h11.7v40.6c0.4 3.6-0.1 7.2-1.3 10.6-1.3 3.3-3.2 6.4-5.8 8.9-2.5 2.5-5.6 4.5-8.9 5.7-3.4 1.2-7 1.6-10.6 1.3-3.5 0.3-7.1-0.1-10.5-1.3-3.3-1.2-6.4-3.2-8.9-5.7-2.5-2.5-4.4-5.6-5.6-9-1.2-3.3-1.6-6.9-1.2-10.5v-40.6h11.8v39.8c0 10.8 5.2 16.5 14.6 16.5 9.4 0 14.6-5.9 14.6-16.5zm-122.9 0h53.3v10.8h-20.7v55.2h-11.8v-55.1h-20.8zm-44.7-0.7l30.2 66.7h-12.4l-0.1-0.2-6.2-14.8h-25.5l-6.3 14.9h-12.2l0.2-0.3 30.2-66.5h2zm7.4 42.3l-8.7-20.7-8.8 20.7zm-79.3-41.6h11.8v66.9l-1.6 0.4-0.1-0.1-40.5-42.6v41.4h-11.8v-66.8l2.2-0.4 0.2 0.1 39.8 42z"/>
</svg>