<svg version="1.2" xmlns="http://www.w3.org/2000/svg" viewBox="0 0 1595 469" width="1595" height="469">
	<title>pnc-logo-rev-svg</title>
	<style>
		.s0 { fill: #ffffff } 
		.s1 { fill: #f58025 } 
		.s2 { fill: #0069aa } 
	</style>
	<g id="Layer">
		<ellipse id="Layer" class="s0" cx="233.4" cy="233.3" rx="223.3" ry="223.3"/>
	</g>
	<path id="Layer" fill-rule="evenodd" class="s1" d="m433.2 468.3c-17.7 0-31.9-14.2-31.9-31.9 0-17.6 14.2-31.9 31.9-31.9 17.6 0 31.9 14.3 31.9 31.9 0 17.7-14.3 31.9-31.9 31.9zm25.2-31.9c0-13.9-11.3-25.2-25.2-25.2-14 0-25.2 11.3-25.2 25.2 0 14 11.2 25.2 25.2 25.2 13.9 0 25.2-11.2 25.2-25.2zm-30.3 3.4v16.8h-8.4v-37h15.1q10.1 0 10.1 10.1c0 3.4-1.7 8.4-6.7 8.4 1.7 0 6.7 0 6.7 6.7 0 1.7 1.7 8.4 1.7 10.1h-8.4c-1.7-1.7-1.7-5-1.7-6.7 0-5.1 1.7-8.4-5-8.4zm1.7-5.1h3.3c3.4 0 5.1-3.3 5.1-5q0-5-5.1-5h-3.3z"/>
	<path id="Layer" fill-rule="evenodd" class="s1" d="m233.4 466.6c-129.1 0-233.4-104.3-233.4-233.3 0-129 104.3-233.3 233.4-233.3 129 0 233.3 104.3 233.3 233.3 0 129-104.3 233.3-233.3 233.3zm172.9-189.6c-16.8 5-35.3 6.7-58.8 6.7h-157.8c-8.4 0-15.1-3.4-20.1-8.4l-23.5 41.9c-25.2 45.4-31.9 78.9-18.5 92.4 10.1 10 35.3 10 57.1-3.4l6.7-5c122.6-68.8 184.7-104.1 214.9-124.2zm-298.8 83.9c3.3-16.8 11.7-33.6 23.5-53.7l78.9-136c3.3-6.7 10-11.7 16.8-13.4l-23.5-42c-25.2-43.6-52.1-67.1-70.6-62.1-15.1 3.4-25.1 25.2-25.1 50.4 0 141 0 221.5 0 256.8zm330.7-127.6c3.4-13.4-10.1-33.6-31.9-47l-6.7-3.3c-120.9-70.5-183-105.8-214.9-122.6 10.1 11.8 21.8 26.9 33.6 47l78.9 137.7c5 8.4 5 15.1 3.3 21.8h48.7c52.1 0 84-11.8 89-33.6z"/>
	<path id="Layer" fill-rule="evenodd" class="s2" d="m884.8 161.1c0 97.4-122.6 97.4-181.3 97.4h-25.2v151.1h-62.1v-288.7c0-28.6-6.7-35.3-60.5-42h-3.3v-15.1h156.1c62.1 0 176.3 0 176.3 97.3zm-68.8 1.7c0-47-30.3-72.2-87.3-72.2-50.4 0-50.4 3.4-50.4 30.3v112.4h23.5c55.4 0 114.2-8.4 114.2-70.5zm424.7-99v345.8h-53.7c0 0-199.8-277-209.9-290.4v290.4h-40.2v-283.7c0-36.9-6.8-40.3-60.5-47h-3.3v-15.1h130.9c0 0 184.7 256.8 193.1 270.2v-270.2zm216.6-6.7c119.2 0 136 58.7 137.6 77.2v6.7h-68.8v-3.4c-6.7-31.8-30.2-48.6-72.2-48.6-62.1 0-99 47-99 124.2 0 115.8 50.3 172.9 152.7 172.9 23.5 0 52.1-3.4 82.3-11.8l5-1.7v28.6h-3.3c-28.6 6.7-58.8 13.4-119.2 13.4-129.3 0-186.4-95.7-186.4-189.7 0-110.8 57.1-167.8 171.3-167.8z"/>
</svg>