<svg version="1.2" xmlns="http://www.w3.org/2000/svg" viewBox="0 0 1547 190" width="1547" height="190">
	<title>poolcorp-logo-svg</title>
	<style>
		.s0 { fill: #221e1f } 
		.s1 { fill: #2f5c9c } 
	</style>
	<g id="Layer">
		<path id="Layer" fill-rule="evenodd" class="s0" d="m991.8 64.4l1.9-10.2c4.2-21.5-3.3-22.9-31.3-22.9-32.2 0-38.9 6-45.9 42.4l-7.6 41c-7 37.1-4.2 44.2 29.4 44.2 25.9 0 37.5-0.9 42.6-27.5l1.9-10.2h32l-2.3 12c-10 56.1-38.5 54-80.2 56.1-59.4 2.5-65.6-19-55.9-73.2l8.1-42.6c11.4-59.4 34.6-72.8 83.9-72.8 41.7 0 65.6 0.2 57.5 53.5l-1.9 10.2zm191.3 4.2l-9.5 50c-11.4 59.6-34.3 70.9-84.9 70.9-51.7 0-68.8-9.9-57-70.9l9.5-50c10.9-57.7 30.6-67.9 83.7-67.9 48 0.2 69.5 8.3 58.2 67.9zm-109.9 0l-9.5 50c-7 36.9-1.2 40.3 30.8 40.3 29.2 0 40.1-4.4 46.8-40.3l9.5-50c7.5-35-3.4-37.3-32.2-37.3-34.3 0-39.1 7.9-45.4 37.3zm153.2 57.9l-11.8 61.4h-32.2l35.4-185.6h85.3c36.4 1 48 13.7 39.9 55.6-5.4 27.6-10.5 47.5-39.7 52.2l-0.2 0.9c22.3 2.3 25.3 15.7 20.2 42.2l-6.7 34.7h-32l6.7-34.7c3-15.6-0.7-26.5-16-26.7zm48-30.3c23.6 0 30.3-5.1 35.7-32.5 5.1-26.2 1.6-31-21.4-31h-44.7l-11.8 63.5zm103.4-93.9h73.9c44.7 0 57.2 11.8 47.3 64-10 52.3-27.6 61.6-71.4 61.6h-42l-11.5 60.2h-32zm55.8 95c23-0.4 28.5-5.1 33.4-31.3 5.1-26.1 3-33.5-21.1-33.3h-41.9l-12.3 64.6z"/>
		<path id="Layer" fill-rule="evenodd" class="s1" d="m742.7 68.6l-9.8 50c-11.3 59.6-34.3 70.9-84.8 70.9-51.7 0-68.8-9.9-57-70.9l9.5-50c11.1-57.7 30.6-67.9 83.7-67.9 48.2 0.2 69.7 8.3 58.4 67.9zm-109.9 0l-9.5 50c-6.9 36.9-1.1 40.3 30.8 40.3 29.2 0 40.1-4.4 46.9-40.3l9.5-50c7.4-35-3.5-37.3-32-37.3-34.6 0-39.4 7.9-45.7 37.3zm148.3 89h78.2l-5.8 30.3h-110.1l35.4-185.6h32zm-476.3-155.2h74c44.7 0 57.2 11.8 47.2 63.9-9.9 52.4-27.5 61.7-71.3 61.7h-42l-11.6 60.2h-31.7zm55.8 95c23-0.5 28.5-5.1 33.4-31.3 5.1-26.2 3-33.6-21.1-33.3h-41.9l-12.3 64.6zm222.5-28.7l-9.5 50c-11.4 59.6-34.3 70.9-84.9 70.9-51.6 0-68.8-10-57-70.9l9.5-50c11.2-57.7 30.6-67.9 83.7-67.9 48 0.2 69.5 8.3 58.2 67.9zm-109.9 0l-9.5 50c-6.9 36.9-1.2 40.3 30.8 40.3 29.2 0 40.1-4.4 47.1-40.3l9.5-50c7.2-34.8-3.7-37.3-32.2-37.3-34.6 0-39.4 7.8-45.7 37.3z"/>
		<path id="Layer" class="s0" d="m257.1 57.9c-39.4 0-69.1 24.8-107.5 29-42.9 4.2-65.2-30.1-105.3-33.1-6.9-0.5-13.4-0.3-19.9 0.7l10.4-51.7h234.6m-35.9 186h-233l11.2-60.9c19-10.2 38.4-16.9 61.6-15.3 39.9 2.8 62.4 36.8 105 32.7 24.3-2.6 45.2-13.5 67-21.1"/>
		<path id="Layer" class="s1" d="m247.8 102.9c-22 8.8-43.1 21.1-67.6 24.1-42.7 4.6-61.2-19.3-104.8-29.9-21.8-5.3-42.2-1.6-61.6 10.2l6.4-33.4c10.5-3.2 21.6-4.8 33.6-3.9 39.9 3 61.5 41.7 104.1 37 34.3-4.1 61.9-26.8 95.3-31.5z"/>
		<g id="Layer">
			<path id="Layer" fill-rule="evenodd" class="s0" d="m1530.5 32.2c-8.9 0-16-7.1-16-16 0-8.8 7.1-16 16-16 8.8 0 16 7.2 16 16 0 8.9-7.2 16-16 16zm12.2-16c0-6.8-5.4-12.3-12.2-12.3-6.8 0-12.3 5.5-12.3 12.3 0 6.8 5.5 12.3 12.3 12.3 6.8 0 12.2-5.5 12.2-12.3zm-4.4 8.8h-4.1l-4-6.9h-3.2v6.9h-3.7v-17.1h8.6c3.9 0 6.7 0.7 6.7 5.3 0 3.3-1.6 4.4-4.7 4.6zm-6-9.9c1.9 0 3-0.5 3-2.6 0-2-2.1-2-3.9-2h-4.2v4.6z"/>
		</g>
	</g>
</svg>