<svg version="1.2" xmlns="http://www.w3.org/2000/svg" viewBox="0 0 1593 1234" width="1593" height="1234">
	<title>PPG_Logo-svg</title>
	<defs>
		<clipPath clipPathUnits="userSpaceOnUse" id="cp1">
			<path d="m1-0.01h1591.13v1233.83h-1591.13z"/>
		</clipPath>
	</defs>
	<style>
		.s0 { fill: #0272a6 } 
		.s1 { fill: #ffffff } 
	</style>
	<g id="layer1">
		<g id="Clip-Path: g82" clip-path="url(#cp1)">
			<g id="g82">
				<g id="g88">
					<rect id="path90" class="s0" x="1" y="0" width="1591.1" height="1233.8" rx="266"></rect>
				</g>
				<g id="g92">
					<path id="path94" fill-rule="evenodd" class="s1" d="m1239.2 515.2c-16.1 93.9-9.2 231.5 28.5 280.4 30 38.7 83.6 50.9 123.3 38.5v-140.7c0-40.2-16.1-66.4-48-77.5h174.1v308.9c-37.8 6.9-75.5 10.3-114.4 11.5-59.4 4.5-116.7-1.2-167-21.8-114.3-44.4-151.2-157.5-156.1-270.2-59.5 119.9-173 147.9-239.3 152.1-23.5 1.1-44-0.6-71.8-10.6l-86.1-85.9v342.7c0 40 16.1 67.2 47.9 78.2h-227.3v-510.3c-35.7 106.9-130.5 127.4-183.3 130.3 0 0-21.3 0.6-45.6-5.3l-55.1-55.1v173.2c0 40.2 16.2 67.9 48.1 78.9h-191.1v-630.7c0 0 66.4 0 116.7 0 138.7 0 268.3-13.3 310.3 110.1v-298.1c0 0 71.4 0 142.2 0 252.6-0.1 464.3-30.3 473 315.7 1.9-4.4 3.1-6.9 3.1-6.9 0 0 22.9-47 76.7-81.3 66.3-41.2 153.2-59.1 319.1-32.8v136.7c-51.3-42.6-116-62.1-179.6-43.3-49 14.5-89.2 66.4-98.3 113.3zm-860.3-8.3c0-151.9-102.4-135.5-124.9-132.9-21 2.4-35 15.7-35 35v226.8c0 0 19.1 20.1 65.3 20.1 32.1 0 94.6-6.9 94.6-149zm563-74.8c0-246.6-156.7-222.9-190.7-218.7-31.7 4-68.8 25.5-68.8 56.9v376.2c0 0 44.9 32.6 114.6 32.6 39.3 0 144.9-24.8 144.9-247z"/>
				</g>
			</g>
		</g>
	</g>
</svg>