<svg version="1.2" xmlns="http://www.w3.org/2000/svg" viewBox="0 0 1557 441" width="1557" height="441">
	<title>download (1)-svg</title>
	<defs>
		<linearGradient id="g1" x1="60.8" y1="375.7" x2="270.6" y2="12.3" gradientUnits="userSpaceOnUse">
			<stop offset="0" stop-color="#0072bc"/>
			<stop offset=".5" stop-color="#238fcf"/>
			<stop offset="1" stop-color="#00bed3"/>
		</linearGradient>
	</defs>
	<style>
		.s0 { fill: #4e4f53 } 
		.s1 { fill: url(#g1) } 
	</style>
	<path id="Layer" fill-rule="evenodd" class="s0" d="m1261.7 211.1c0 46.4-27 78.2-66.1 78.2-13.5 0-30.6-6.1-39.2-14.6v68.4h-29.3v-201.7h24.5l2.4 18.3c11-14.7 28.1-22 46.5-22 36.7 0 61.2 29.3 61.2 73.4zm-29.4 0c0-28.2-14.7-46.5-37.9-46.5-22.1 0-36.7 14.7-36.7 39.1v42.8c7.3 9.8 20.8 15.9 34.2 15.9 25.7 0 40.4-19.5 40.4-51.3zm-732.8-121.1c40.4 0 68.5 25.7 68.5 63.6 0 37.9-26.9 63.6-68.5 63.6h-40.4v68.5h-30.5v-195.7zm-40.4 101.5h35.5c26.9 0 42.8-13.5 42.8-37.9 0-24.5-15.9-37.9-42.8-37.9h-35.5zm215.3-48.9l-3.7 24.4c-6.1-1.2-12.2-2.4-15.9-2.4-24.4 0-37.9 14.6-37.9 42.8v77h-29.4v-143.1h24.5l2.4 18.4c8.6-13.5 23.3-20.8 40.4-20.8 7.4 0 13.5 1.2 19.6 3.7zm37.9-22.1c-10.2 0-18.4-8.2-18.4-18.3 0-10.1 8.2-18.3 18.4-18.3 10.1 0 18.4 8.2 18.4 18.3 0 10.1-8.3 18.3-18.4 18.3zm-15.9 165.1v-143h29.4v143zm193.3-94.1v92.9h-29.4v-89.3c0-19.5-12.2-31.8-31.8-31.8-20.8 0-36.7 15.9-36.7 40.4v80.7h-29.4v-143.1h24.5l2.4 18.4c11.1-13.5 28.2-22 46.5-22 33.1 0 55.1 22 53.9 53.8zm52.6 22c0 30.6 17.1 48.9 45.2 48.9 13.5 0 24.5-4.9 35.5-13.4l13.5 20.7c-12.3 11-33.1 18.4-52.6 18.4-42.9 0-71-29.4-71-74.6 0-42.8 30.6-74.6 72.2-74.6 18.3 0 37.9 7.3 51.4 18.3l-13.5 20.8c-11-8.5-24.5-13.4-36.7-13.4-25.7 0-44 19.5-44 48.9zm545.6 48.9l2.4 23.2c-4.9 1.3-11 2.5-17.1 2.5-23.2 0-36.7-12.2-36.7-35.5v-171.2h29.4v166.3c0 12.3 3.6 15.9 13.4 15.9 2.5 0 6.1-1.2 8.6-1.2zm-411.1-141.9c-10.2 0-18.4-8.2-18.4-18.3 0-10.1 8.2-18.3 18.4-18.3 10.2 0 18.4 8.2 18.4 18.3 0 10.1-8.2 18.3-18.4 18.3zm-15.9 165.1v-143h29.4v143zm311.9-86.8v-4.9c0-19.5-12.2-29.3-34.2-29.3-14.7 0-29.4 3.6-41.6 11l-8.6-23.3c17.2-8.5 38-13.4 55.1-13.4 35.5 0 57.5 19.6 57.5 52.6v62.3c0 7.4 2.4 11 9.8 11 2.4 0 4.9-1.2 7.3-1.2l2.5 22c-4.9 1.3-11.1 2.5-17.2 2.5-14.7 0-25.7-7.4-29.3-19.6-9.8 12.2-24.5 19.6-42.9 19.6-31.8 0-52.6-17.1-52.6-44 0-30.6 22.1-49 60-49 11 0 23.2 1.3 31.8 3.7zm-2.5 19.6c-9.7-1.2-17.1-2.5-28.1-2.5-20.8 0-34.2 9.8-34.2 25.7 0 14.7 9.7 23.2 26.9 23.2 22 0 35.4-13.4 35.4-36.6z"/>
	<path id="Layer" class="s1" d="m215.7 286.9v-57.5c42.8-7.3 66.1-31.8 66.1-68.5 0-42.8-30.6-70.9-75.9-70.9-48.9 0-85.6 39.1-85.6 92.9 0 55.1 39.1 97.9 95.4 102.8v155.3c-122.3-11-215.3-112.5-215.3-234.8 0-116.2 85.6-205.5 199.4-205.5 93 0 160.2 62.4 160.2 149.2 0 79.5-56.2 133.3-144.3 137z"/>
	<g id="Layer">
		<path id="Layer" fill-rule="evenodd" class="s0" d="m1527.1 137.7c-16.2 0-29.3-13.1-29.3-29.4 0-16.2 13.1-29.3 29.3-29.3 16.3 0 29.4 13.1 29.4 29.3 0 16.3-13.1 29.4-29.4 29.4zm24.5-29.4c0-13.5-11-24.4-24.5-24.4-13.5 0-24.4 10.9-24.4 24.4 0 13.6 10.9 24.5 24.4 24.5 13.5 0 24.5-10.9 24.5-24.5zm-22-15.9c7.3 0 12.2 4.9 12.2 11 0 4.9-2.4 8.6-7.3 9.8l8.5 12.3h-9.8l-7.3-12.3h-4.9v12.3h-7.3v-33.1zm-7.4 15.9h6.1c3.7 0 4.9-2.4 4.9-4.9 0-2.4-2.4-4.8-4.9-4.8h-6.1z"/>
	</g>
</svg>