<svg version="1.2" baseProfile="tiny-ps" xmlns="http://www.w3.org/2000/svg" viewBox="0 0 1720 1720" width="1720" height="1720">
	<title>P_G_Logo_RGB-svg</title>
	<defs>
		<radialGradient id="grd1" gradientUnits="userSpaceOnUse"  cx="364.775" cy="334.707" r="1606.082">
			<stop offset="0" stop-color="#00a1df"  />
			<stop offset="0.13" stop-color="#0092d7"  />
			<stop offset="0.37" stop-color="#006cc1"  />
			<stop offset="0.62" stop-color="#003da6"  />
			<stop offset="0.73" stop-color="#043799"  />
			<stop offset="0.93" stop-color="#102777"  />
			<stop offset="1" stop-color="#152169"  />
		</radialGradient>
		<radialGradient id="grd2" gradientUnits="userSpaceOnUse"  cx="247.854" cy="132.608" r="2662.991">
			<stop offset="0.02" stop-color="#ffffff"  />
			<stop offset="0.03" stop-color="#fbfeff"  />
			<stop offset="0.09" stop-color="#bae7f9"  />
			<stop offset="0.14" stop-color="#87d5f4"  />
			<stop offset="0.19" stop-color="#63c9f1"  />
			<stop offset="0.23" stop-color="#4cc1ef"  />
			<stop offset="0.26" stop-color="#44beee"  />
			<stop offset="0.28" stop-color="#37b8eb"  />
			<stop offset="0.35" stop-color="#19ace5"  />
			<stop offset="0.41" stop-color="#07a4e0"  />
			<stop offset="0.45" stop-color="#00a1df"  />
			<stop offset="0.79" stop-color="#0045ab"  />
			<stop offset="0.82" stop-color="#003da6"  />
			<stop offset="0.96" stop-color="#0059b6"  />
		</radialGradient>
		<clipPath clipPathUnits="userSpaceOnUse" id="cp1">
			<path d="" />
		</clipPath>
		<radialGradient id="grd3" gradientUnits="userSpaceOnUse"  cx="669.029" cy="692.2" r="1081.999">
			<stop offset="0.32" stop-color="#44beee" stop-opacity="0" />
			<stop offset="0.48" stop-color="#2b99d9" stop-opacity="0.27" />
			<stop offset="0.67" stop-color="#1476c6" stop-opacity="0.58" />
			<stop offset="0.82" stop-color="#0561ba" stop-opacity="0.84" />
			<stop offset="0.92" stop-color="#0059b6"  />
		</radialGradient>
	</defs>
	<style>
		tspan { white-space:pre }
		.shp0 { fill: url(#grd1) } 
		.shp1 { fill: url(#grd2) } 
		.shp2 { fill: url(#grd3) } 
		.shp3 { fill: #ffffff } 
	</style>
	<path id="Layer" class="shp0" d="M860 1720C384.42 1720 0 1335.58 0 860C0 384.42 384.42 0 860 0C1335.58 0 1720 384.42 1720 860C1720 1335.58 1335.58 1720 860 1720Z" />
	<path id="Layer" class="shp1" d="M228.38 859.76C228.38 465.83 477.06 129.96 826.08 0.72C366.93 18.63 0 396.32 0 860C0 1324.16 367.65 1702.32 827.51 1719.28C478.02 1590.28 228.38 1254.17 228.38 859.76Z" />
	<g id="Clip-Path" clip-path="url(#cp1)">
		<path id="Layer" class="shp2" d="M228.38 859.76C228.38 465.83 477.06 129.96 826.08 0.72C366.93 18.63 0 396.32 0 860C0 1324.16 367.65 1702.32 827.51 1719.28C478.02 1590.28 228.38 1254.17 228.38 859.76Z" />
	</g>
	<g id="Layer">
		<path id="Layer" fill-rule="evenodd" class="shp3" d="M845.43 778.06C777.58 945.76 553.51 915.42 553.27 915.42L504.53 1070.46C499.28 1090.29 513.85 1104.86 524.12 1106.77L337.79 1106.77C348.54 1104.14 368.61 1086.23 373.86 1069.27L508.12 640.46C511.94 629.71 515.04 612.27 495.93 599.13L726.22 599.13C795.74 599.13 902.52 637.36 845.43 778.06ZM640.22 638.55L565.69 876.24C565.69 876.24 666.98 903.96 712.61 769.7C756.32 641.89 688.72 638.55 664.35 638.55L640.22 638.55Z" />
		<path id="Layer" fill-rule="evenodd" class="shp3" d="M994.49 1107.01C981.59 1100.8 956.99 1077.63 947.67 1068.79C938.12 1075.72 883.89 1113.22 828.94 1114.18C778.3 1115.13 746.77 1096.74 728.13 1067.59C717.38 1050.63 713.8 1032 713.8 1015.28C713.8 995.93 718.58 979.21 721.92 971.56C748.2 910.88 822.02 891.29 849.73 881.02C849.73 881.02 853.55 879.59 855.7 878.63C855.46 875.77 855.22 870.99 855.22 864.54C855.22 838.02 860 779.49 897.74 743.9C908.49 734.11 929.76 720.73 954.84 715.95C986.13 710.22 1015.76 717.86 1034.63 736.49C1045.62 747.24 1051.59 761.58 1051.59 776.87L1051.59 778.78C1051.11 793.35 1044.9 815.81 1017.91 839.46C989.48 864.3 953.64 878.16 928.08 890.82C935.25 938.12 955.56 970.37 974.67 998.56C985.66 984.94 991.39 965.35 991.39 951.26C991.39 935.97 978.97 928.8 978.97 928.8L1043.94 928.8C1039.64 982.07 1015.99 1008.35 996.88 1029.13C1020.53 1056.13 1079.78 1094.11 1119.91 1107.01L994.49 1107.01ZM983.27 743.18C969.65 738.41 952.69 747.01 940.03 766.59C920.92 796.22 919.72 832.53 922.11 855.46C935.01 849.97 988.04 808.64 994.49 767.79C995.45 757.04 994.26 747.01 983.27 743.18ZM920.92 1041.08C896.07 1008.11 872.9 960.81 862.63 919.01C837.07 929.99 790.01 961.77 790.01 1005.01C789.77 1055.65 831.81 1065.44 857.13 1063.06C884.37 1060.43 913.51 1045.62 920.92 1041.08Z" />
		<path id="Layer" class="shp3" d="M1375.52 639.03C1450.06 621.11 1511.45 679.4 1516.94 683.46L1538.21 615.86C1508.82 607.02 1295.02 534.63 1143.8 707.11C1050.87 813.18 1028.18 1030.57 1145.95 1088.86C1272.08 1151.21 1411.36 1079.3 1421.63 1074.28L1479.2 890.82C1485.41 868.6 1499.51 854.27 1524.35 844.95L1324.16 844.95C1353.31 857.13 1351.16 879.11 1349.01 888.19L1291.43 1071.66C1283.79 1073.09 1122.78 1113.22 1212.84 831.57C1232.67 771.13 1286.89 660.29 1375.52 639.03Z" />
	</g>
</svg>