<svg version="1.2" baseProfile="tiny-ps" xmlns="http://www.w3.org/2000/svg" viewBox="0 0 1555 187" width="1555" height="187">
	<title>logo-progressive-svg</title>
	<style>
		tspan { white-space:pre }
		.shp0 { fill: #2d95e5 } 
	</style>
	<path id="Layer" fill-rule="evenodd" class="shp0" d="M763.41 134.25C763.41 134.48 753.19 159.85 749.78 167.87C749.2 169.3 748.64 170.75 748.13 172.21C747.61 173.67 747.13 175.14 746.69 176.62C746.24 178.1 745.83 179.59 745.45 181.09C745.08 182.59 744.73 184.1 744.43 185.62L700.34 185.62C700.34 185.62 708.69 162.33 719.18 139.86C723.58 130.54 724.33 123.47 721.53 118.84C720.96 118.06 720.31 117.34 719.58 116.7C718.85 116.06 718.05 115.5 717.2 115.03C716.35 114.57 715.45 114.2 714.52 113.93C713.58 113.66 712.62 113.5 711.65 113.44L688.35 113.44L655.2 185.55L611.73 185.55L698.3 1.95L781.94 1.95C790.15 1.95 800.95 5.08 806.47 13.89C810.15 19.84 812.74 30.48 804.29 47.89C804.22 48.09 795.71 66.48 790.19 77.84C783.44 91.78 771.48 99.63 754.79 101.37C761.4 105.45 771.82 113.68 763.41 134.25ZM754.72 61.62L762.32 45.71C764.53 40.98 765.01 37.35 763.68 35.17C763.42 34.82 763.12 34.5 762.78 34.21C762.45 33.93 762.09 33.68 761.7 33.48C761.31 33.27 760.9 33.11 760.48 32.99C760.06 32.88 759.62 32.81 759.18 32.79L726 32.79L703 82.77L733.32 82.77C740.85 82.77 746.51 78.83 750.19 71.07L754.72 61.62Z" />
	<path id="Layer" fill-rule="evenodd" class="shp0" d="M299.37 134.35C299.37 134.59 289.15 159.95 285.75 167.97C285.16 169.41 284.61 170.85 284.1 172.31C283.59 173.77 283.11 175.24 282.67 176.72C282.22 178.2 281.81 179.69 281.44 181.2C281.07 182.7 280.73 184.21 280.43 185.72L236.34 185.72C236.34 185.72 244.69 162.43 255.18 139.96C259.58 130.64 260.36 123.57 257.54 118.95C256.96 118.16 256.31 117.44 255.58 116.8C254.85 116.16 254.05 115.6 253.2 115.14C252.35 114.67 251.45 114.3 250.52 114.03C249.58 113.76 248.62 113.6 247.65 113.54L224.32 113.54L191.17 185.65L147.59 185.65L234.16 2.05L317.91 2.05C326.15 2.05 336.95 5.18 342.47 13.85C346.15 19.8 348.74 30.44 340.29 47.85C340.19 48.06 331.67 66.45 326.15 77.81C319.34 91.75 307.45 99.6 290.75 101.37C297.36 105.45 307.82 113.68 299.37 134.35ZM290.69 61.45L298.28 45.54C300.5 40.81 300.97 37.18 299.65 35C299.38 34.65 299.08 34.33 298.75 34.04C298.42 33.76 298.05 33.51 297.66 33.31C297.28 33.1 296.87 32.94 296.44 32.82C296.02 32.71 295.59 32.64 295.15 32.62L262.65 32.62L239 82.6L269.32 82.6C276.82 82.6 282.47 78.83 286.15 71.04L290.69 61.45Z" />
	<path id="Layer" fill-rule="evenodd" class="shp0" d="M479.98 79.47C467.24 106.64 455.24 132.27 446.59 150.23C433.68 177.09 417.22 186.5 383.8 186.16L350.44 186.16C334.19 186.16 301.01 178.34 323.19 131.76L345.27 85.32C355.73 63.59 364.75 44.55 370.17 32.99C380.26 11.47 395.93 1 418.14 1L470.95 1C492.89 1 510.13 15.14 494.9 47.72L479.98 79.47ZM446.66 32.42L422.81 32.42C416.95 32.42 412.45 34.25 408.12 43.43C401.75 56.9 370.61 123.88 363.19 139.86C358.08 150.97 364.89 151.89 368.3 151.89L387.44 151.89C397.02 151.89 401.07 149.68 407.24 136.69L451.53 42.55C455.24 34.69 451.19 32.21 446.66 32.42Z" />
	<path id="Layer" class="shp0" d="M567.33 83.72L552.89 114.32L575.78 114.32L562.9 142.1C559.16 150.16 556.6 151.79 547.78 151.79L525.02 151.79C518.21 151.79 515.82 148.39 519.91 139.75C525.09 128.81 565.97 43.6 565.97 43.6C570.6 33.91 573.36 32.45 580.52 32.45L604.03 32.45C609.72 32.45 612.78 35.07 608.97 42.65C608.12 44.32 598.75 64.75 598.75 64.75L640.21 65.06L649.65 44.83C663.45 15.25 651.11 1.41 622.56 1L577.52 1C572.19 0.86 566.86 1.5 561.71 2.91C556.56 4.32 551.65 6.47 547.13 9.3C542.61 12.13 538.53 15.61 535.02 19.62C531.51 23.63 528.61 28.14 526.42 32.99C518.21 50.44 479.47 131.76 479.47 131.76C465.29 161.51 473.51 186.16 512.28 186.16L546.89 186.16C574.56 186.44 588.15 182.12 600.79 154.51L633.06 83.96L567.33 83.72Z" />
	<path id="Layer" class="shp0" d="M1192.31 1.48L1105.64 185.35L1150.31 185.35L1237.53 1.48L1192.31 1.48L1192.31 1.48Z" />
	<path id="Layer" class="shp0" d="M1348.25 1.51L1247.1 163.49L1298.27 1.51L1251.43 1.51L1208.5 185.35L1268.94 185.35L1395.24 1.51L1348.25 1.51L1348.25 1.51Z" />
	<path id="Layer" class="shp0" d="M1002.27 121.56L998.52 53.56C998.08 45.37 1000.09 34.25 1015.12 34.25L1045.3 34.25L1060.8 1.48L1009.36 1.48C968.47 1.48 954.85 26.33 956.31 55.54C957.27 73.39 959.72 131.46 959.72 131.46C960.33 145.47 954.95 151.86 941.83 151.86L907.42 151.86L891.99 185.21L946.84 185.21C983.23 185.42 1004.66 161.72 1002.27 121.56Z" />
	<path id="Layer" class="shp0" d="M1101.38 53.63C1100.94 45.44 1102.95 34.32 1117.97 34.32L1148.16 34.32L1163.66 1.54L1112.22 1.54C1078.42 1.54 1057.23 19.97 1059.17 55.6C1060.16 73.45 1062.58 131.53 1062.58 131.53C1063.22 145.53 1057.84 151.93 1044.69 151.93L1011.16 151.93L995.73 185.28L1049.7 185.28C1089.7 185.28 1107.21 156.72 1105.1 121.43L1101.38 53.63Z" />
	<path id="Layer" class="shp0" d="M848.89 103.17L904.8 103.17L919.14 72.57L863.03 72.57L880.88 34.42L938.8 34.42L953.99 1.82L853.08 1.82L766.98 185.42L876.01 185.42L891.71 152.13L825.58 152.13L848.89 103.17Z" />
	<path id="Layer" class="shp0" d="M1324 185.38L1433.02 185.38L1448.86 152.13L1382.6 152.13L1405.9 103.17L1461.81 103.17L1476.15 72.57L1420.04 72.57L1437.89 34.42L1495.81 34.42L1510.97 1.82L1410.09 1.82L1324 185.38Z" />
	<path id="Layer" fill-rule="evenodd" class="shp0" d="M118.09 121.53C99.83 121.53 74.61 121.53 74.61 121.53L44.63 185.93L0 185.93L85.86 2.05L168.58 2.05C187.49 2.12 205.31 16.84 190.89 48.67C182.68 66.76 175.46 82.33 171.82 89.84C160.47 113.2 145.92 121.73 118.09 121.53ZM143.88 32.18L115.8 32.18L89.33 89.4L117.34 89.4C125.14 89.4 130.32 86 133.93 78.32C134.61 76.92 140.74 64.21 148.78 47.21C154.44 35.31 150.04 32.21 143.88 32.18Z" />
	<path id="Layer" fill-rule="evenodd" class="shp0" d="M1541.77 18.88L1546.81 26.6L1544.39 26.6L1539.59 18.88L1535.84 18.88L1535.84 26.6L1533.8 26.6L1533.8 9.87L1541.09 9.87C1541.44 9.85 1541.79 9.85 1542.14 9.87C1542.49 9.89 1542.84 9.93 1543.19 10C1543.53 10.07 1543.87 10.16 1544.21 10.28C1544.54 10.39 1544.86 10.53 1545.18 10.69C1545.48 10.88 1545.75 11.11 1545.99 11.37C1546.23 11.64 1546.43 11.93 1546.6 12.24C1546.76 12.56 1546.88 12.89 1546.96 13.24C1547.04 13.58 1547.07 13.94 1547.05 14.29C1547.05 17.59 1544.73 18.82 1541.77 18.88ZM1545.08 14.09C1545.08 11.51 1542.79 11.2 1540.71 11.2L1535.91 11.2L1535.91 17.29L1539.05 17.29C1541.33 17.29 1544.97 17.66 1545.08 14.09Z" />
	<path id="Layer" fill-rule="evenodd" class="shp0" d="M1539.39 3.28C1541.35 3.28 1543.29 3.67 1545.1 4.42C1546.92 5.17 1548.56 6.27 1549.95 7.66C1551.34 9.04 1552.44 10.69 1553.19 12.5C1553.95 14.31 1554.34 16.25 1554.34 18.2C1554.36 24.26 1550.71 29.73 1545.1 32.05C1539.5 34.38 1533.04 33.1 1528.75 28.82C1524.46 24.53 1523.18 18.09 1525.51 12.5C1527.84 6.9 1533.32 3.26 1539.39 3.28ZM1539.39 31.43C1541.13 31.44 1542.86 31.11 1544.47 30.45C1546.08 29.8 1547.55 28.83 1548.79 27.6C1550.02 26.37 1551 24.91 1551.67 23.31C1552.34 21.7 1552.68 19.98 1552.67 18.24C1552.67 12.93 1549.47 8.13 1544.56 6.09C1539.64 4.05 1533.98 5.16 1530.2 8.9C1526.42 12.64 1525.27 18.28 1527.28 23.2C1529.29 28.12 1534.06 31.35 1539.39 31.4L1539.39 31.43Z" />
</svg>