<svg version="1.2" baseProfile="tiny-ps" xmlns="http://www.w3.org/2000/svg" viewBox="0 0 1864 484" width="1864" height="484">
	<title>logo (2)-svg</title>
	<style>
		tspan { white-space:pre }
		.shp0 { fill: #23b2a9 } 
		.shp1 { fill: #71be45 } 
		.shp2 { fill: #2cb5e5 } 
		.shp3 { fill: #1b4d4a } 
	</style>
	<path id="Layer" class="shp0" d="M296.83 187.76C272.79 208.18 282.9 240.43 292.77 258.7C305.14 281.51 289.34 315.15 267.74 334.18C320.26 304.33 356.11 248.59 358.1 184.29C341.79 173.62 314.41 172.79 296.82 187.76L296.83 187.76Z" />
	<path id="Layer" class="shp1" d="M171.57 239.15C137.12 209.93 106.96 224.07 86.39 248.23C65.54 272.72 94.26 280.04 133.5 288.96C163.1 295.69 159.44 335.94 162.18 344.97C197.55 287.84 187.37 252.53 171.57 239.15L171.57 239.15Z" />
	<path id="Layer" class="shp2" d="M226.96 61.08C285.68 106.7 234.04 129.99 234.04 129.99C267.38 158.34 301.12 104.03 337.33 135.05C346.92 143.25 353.05 153.2 357.58 163.87C351.49 89.74 300.17 28.39 231.25 7.61C204.2 19.51 193.42 35.04 226.96 61.08L226.96 61.08Z" />
	<path id="Layer" class="shp3" d="M85.07 218.41C71.74 181.98 88.69 165.18 146.55 123.98C219.64 71.9 105.33 90.38 151.84 43.48C168.31 26.88 191.47 13.98 208.58 2.35C199.15 0.84 189.48 0 179.61 0C80.94 0 0.96 80.03 0.96 178.72C0.96 182.7 1.12 186.6 1.4 190.5C28.34 215.5 61.72 231.71 85.07 218.41L85.07 218.41Z" />
	<path id="Layer" fill-rule="evenodd" class="shp3" d="M450.92 79.63L525.61 79.63C556.12 79.63 583.18 79.63 599.49 103.04C606.57 113.55 610 128.56 610 141.18C610 151.45 607.89 161.44 603.67 170.12C587.63 203.28 553.46 204.04 528.19 204.6L497.43 204.6L497.43 265.39L450.88 265.39L450.88 79.63L450.92 79.63ZM497.48 113.83L497.48 170.12L525.33 170.12C542.67 170.12 563.72 169.6 563.72 140.9C563.72 113.79 540.33 113.79 526.92 113.79L497.47 113.79L497.48 113.83Z" />
	<path id="Layer" fill-rule="evenodd" class="shp3" d="M635.46 79.35L635.46 79.35L635.42 79.35L635.46 79.35ZM719.13 79.35C738.63 79.63 762.82 79.87 779.97 98.3C788.64 108.05 794.73 122.78 794.73 139.66C794.73 177.09 769.19 186.28 756.54 191.06L799.47 265.35L748.14 265.35L711.3 198.94L682.05 198.94L682.05 265.35L635.46 265.35L635.46 79.35L719.13 79.35ZM682.05 164.47L720.49 164.47C727.05 164.19 748.38 163.67 748.38 138.91C748.38 115.18 731.27 114.42 721.52 114.14L682.05 114.14L682.05 164.47Z" />
	<path id="Layer" fill-rule="evenodd" class="shp3" d="M908.45 270.64C849.56 270.64 816.14 225.38 816.14 171.71C816.14 121.47 847.97 73.86 907.65 73.86C918.67 73.86 930.25 75.45 941.55 79.39C998.33 99.14 1002.03 160.96 1002.03 173.58C1002.03 205.67 987.31 234.62 966.81 251.18C948.67 266.15 927.62 270.64 908.45 270.64L908.45 270.64ZM907.93 112.51C879.8 112.51 861.89 137.24 861.89 170.92C861.89 215.11 886.6 231.43 908.45 231.43C930.53 231.43 954.2 215.66 955.51 176.73C956.27 157.22 951.02 137.51 940.51 126.21C932.64 117.81 920.54 112.51 907.93 112.51Z" />
	<path id="Layer" fill-rule="evenodd" class="shp3" d="M1253.61 270.09C1197.07 270.09 1160.78 230.36 1160.78 172.47C1160.78 103.56 1208.37 74.85 1254.4 74.85C1306.44 74.85 1347.74 110.12 1347.74 170.6C1347.74 226.41 1315.12 270.09 1253.61 270.09L1253.61 270.09ZM1254.4 94.88C1207.61 94.88 1187.6 130.91 1187.6 172.75C1187.6 211.68 1206.78 250.62 1254.64 250.62C1304.61 250.62 1321.17 209.06 1320.89 170.92C1320.65 125.93 1297.25 94.88 1254.4 94.88L1254.4 94.88Z" />
	<path id="Layer" class="shp3" d="M1608.71 79.35L1608.71 265.35L1583.77 265.35L1583.77 79.35L1596.26 79.35L1608.71 79.35Z" />
	<path id="Layer" class="shp3" d="M1712.92 179.95C1686.1 174.42 1646.67 165.5 1646.67 127.08C1646.67 108.69 1656.66 97.11 1663.74 91.05C1680.29 76.84 1700.54 75.25 1713.44 75.25C1726.57 75.25 1746.58 76.56 1763.41 88.94C1781.79 102.36 1785.49 121.31 1787.32 132.62L1762.33 134.21C1762.06 128.44 1761.3 113.71 1747.33 103.44C1737.87 96.59 1726.05 94.48 1714.19 94.48C1691.83 94.48 1672.14 103.68 1672.14 123.7C1672.14 144.2 1692.67 148.94 1708.66 152.64L1729.19 157.9C1743.4 161.32 1751 162.92 1758.36 166.06C1786.25 177.65 1790.43 199.98 1790.43 212.36C1790.43 229.72 1783.34 246.04 1766.75 257.35C1748.89 269.45 1727.6 270.49 1716.26 270.49C1699.43 270.49 1641.86 267.86 1637.64 206.55L1664.18 203.12C1664.46 210.25 1665.21 226.53 1679.18 238.92C1689.68 248.11 1703.65 251.3 1717.3 251.3C1743.59 251.3 1763.57 238.4 1763.57 214.19C1763.57 192.61 1746.46 186.84 1728.36 183.14L1712.92 179.95L1712.92 179.95Z" />
	<path id="Layer" class="shp3" d="M1374.4 172.39C1374.4 113.67 1417.57 74.97 1471.21 74.97C1504.79 74.97 1527.94 89.66 1544.3 109.96L1525.68 121.83C1513.82 106.58 1493.81 95.83 1471.21 95.83C1430.03 95.83 1398.67 127.16 1398.67 172.35C1398.67 216.98 1429.99 248.87 1471.21 248.87C1493.77 248.87 1512.43 238.12 1522.02 228.52L1522.02 188.04L1468.74 188.04L1468.74 167.13L1545.17 167.13L1545.17 237.32C1527.67 257.07 1502 270.09 1471.25 270.09C1417.61 270.09 1374.4 230.87 1374.4 172.39L1374.4 172.39Z" />
	<path id="Layer" class="shp3" d="M1055.02 243.25L1152.11 243.25L1152.11 265.35L1030.32 265.35L1030.32 79.35L1055.02 79.35L1055.02 243.25Z" />
	<path id="Layer" fill-rule="evenodd" class="shp3" d="M1840.08 121.59C1827.47 121.55 1817.24 111.24 1817.28 98.62C1817.32 86 1827.63 75.77 1840.24 75.81C1852.85 75.85 1863.08 86.16 1863.04 98.78C1863 111.4 1852.69 121.63 1840.08 121.59ZM1840.2 79.35C1829.54 79.31 1820.86 87.95 1820.82 98.62C1820.78 109.29 1829.42 117.97 1840.08 118.01C1850.74 118.05 1859.42 109.41 1859.46 98.74C1859.5 88.11 1850.86 79.39 1840.2 79.35Z" />
	<path id="Layer" fill-rule="evenodd" class="shp3" d="M1839.52 85.6C1842.91 85.64 1845.21 85.64 1847.44 87.43C1849.03 88.74 1850.27 90.78 1850.27 93.72C1850.27 98.62 1846.69 100.29 1845.25 100.73L1850.94 111.12L1845.49 111.12L1840.44 101.64L1836.18 101.64L1836.18 111.12L1831.45 111.12L1831.45 85.6L1839.52 85.6ZM1836.14 97.74L1837.81 97.74C1839.44 97.74 1840.04 97.7 1840.96 97.66C1841.99 97.62 1845.45 97.46 1845.45 93.72C1845.45 93.16 1845.41 91.29 1843.42 90.3C1842.39 89.78 1841.19 89.74 1838.37 89.74L1836.14 89.74L1836.14 97.74Z" />
	<path id="Layer" fill-rule="evenodd" class="shp3" d="M476.39 448.76L464.33 481.81L449.05 481.81L490.15 373.88L505.11 373.88L544.39 481.81L529.27 481.81L517.49 448.76L476.39 448.76ZM497.44 391.75L480.92 436.7L513.19 436.7L497.44 391.75Z" />
	<path id="Layer" class="shp3" d="M556.6 373.68L568.97 373.68L568.97 416.95C576.61 408.83 583.93 407.48 590.82 407.48C606.69 407.48 612.98 416.36 615.13 423.36C616.52 427.94 616.52 432.68 616.52 439.89L616.52 481.77L604.15 481.77L604.15 443.71C604.15 434.23 604.15 428.74 601.24 424.28C598.18 419.86 593.28 418.15 588.55 418.15C580.75 418.15 572.36 422.45 569.89 433.59C568.97 437.58 568.97 441.4 568.97 446.73L568.97 481.73L556.6 481.73L556.6 373.68L556.6 373.68Z" />
	<path id="Layer" fill-rule="evenodd" class="shp3" d="M700.08 459.63C698.4 464.53 691.96 483.96 667.53 483.96C646.12 483.96 632.24 469.43 632.24 445.1C632.24 417.87 651.81 407.48 667.09 407.48C680.38 407.48 694.47 414.8 698.72 433C700.12 439.13 700.12 444.62 700.12 447.69L645.41 447.69C645.09 459.75 651.53 474.76 668.64 474.76C679.51 474.76 685.59 467.55 687.74 457.96L700.08 459.63L700.08 459.63ZM686.75 438.97C685.67 420.02 672.07 416.79 666.1 416.79C655.71 416.79 647 424.44 645.61 438.97L686.75 438.97Z" />
	<path id="Layer" fill-rule="evenodd" class="shp3" d="M758.88 438.69L758.88 436.86C758.88 429.37 758.88 416.83 742.69 416.83C727.25 416.83 727.25 428.14 727.25 431.96L714.4 431.21C714.72 428.62 715 424.64 717.3 420.34C721.6 412.37 730 407.48 742.21 407.48C748.94 407.48 757.65 409.15 763.3 413.61C771.26 420.02 771.26 428.3 771.1 437.93L771.1 461.34C771.26 468.23 771.26 471.73 776.31 471.73C777.82 471.73 779.21 471.42 780.29 470.98L780.29 481.53C778.3 482.01 776.15 482.76 772.65 482.76C767 482.76 761.35 480.93 760.12 472.05C756.46 475.87 749.09 483.84 735.37 483.84C721.32 483.84 710.9 475.44 710.9 463.17C710.9 459.35 711.97 455.53 714.12 452.31C718.26 446.17 725.9 441.28 747.42 439.61L758.88 438.69L758.88 438.69ZM724.35 462.82C724.35 468.63 728.92 473.53 737.95 473.53C746.35 473.53 753.55 470.14 757.05 462.66C758.88 458.68 759.04 457 759.04 446.45C754.31 447.25 747.86 448.17 740.1 449.84C726.65 452.74 724.35 457.8 724.35 462.82Z" />
	<path id="Layer" fill-rule="evenodd" class="shp3" d="M858.51 481.77L846.3 481.77L846.3 472.45C843.39 475.95 836.67 483.92 821.55 483.92C800.78 483.92 788.52 468.31 788.52 445.38C788.52 417.23 806.87 407.48 821.39 407.48C826.12 407.48 838.06 408.55 846.3 419.26L846.3 373.68L858.51 373.68L858.51 481.77ZM801.5 445.86C801.5 460.71 808.38 473.09 823.98 473.09C837.9 473.09 846.58 462.7 846.58 445.42C846.58 425.07 834.2 418.67 824.41 418.51C815.1 418.35 801.5 424 801.5 445.86Z" />
	<path id="Layer" fill-rule="evenodd" class="shp3" d="M916.4 446.33C916.4 430.29 924.36 407.48 952.33 407.48C976.17 407.48 987.19 425.99 987.03 445.7C986.83 467.59 973.86 483.96 951.85 483.96C926.95 483.96 916.4 465.28 916.4 446.33ZM972.94 435.62C970.2 421.41 960.89 417.27 952.61 417.27C936.26 417.27 929.69 429.97 929.69 446.49C929.69 461.62 935.98 474.16 951.7 474.16C972.03 474.16 973.54 453.06 973.7 445.74C973.86 441.12 973.38 437.77 972.94 435.62L972.94 435.62Z" />
	<path id="Layer" class="shp3" d="M1018.9 409.79L1032.5 409.79L1032.5 419.86L1018.9 419.86L1018.9 481.77L1007.12 481.77L1007.12 419.86L995.06 419.86L995.06 409.79L1007.12 409.79L1007.28 395.1C1007.44 388.97 1007.76 374.59 1025.94 374.59C1029.44 374.59 1032.51 375.19 1034.81 375.51L1034.81 384.98C1032.5 384.67 1029.76 384.39 1028.09 384.39C1019.06 384.39 1018.94 391.59 1018.94 397.25L1018.94 409.79L1018.9 409.79Z" />
	<path id="Layer" class="shp3" d="M1137.78 409.79L1154.89 463.29L1173.67 409.79L1186.52 409.79L1160.1 481.81L1149.4 481.81L1132.13 428.14L1114.55 481.81L1103.41 481.81L1078.34 409.79L1091.47 409.79L1109.49 463.29L1127.24 409.79L1137.78 409.79L1137.78 409.79Z" />
	<path id="Layer" class="shp3" d="M1198.42 373.68L1210.79 373.68L1210.79 416.95C1218.43 408.83 1225.75 407.48 1232.64 407.48C1248.51 407.48 1254.8 416.36 1256.95 423.36C1258.34 427.94 1258.34 432.68 1258.34 439.89L1258.34 481.77L1245.97 481.77L1245.97 443.71C1245.97 434.23 1245.97 428.74 1243.06 424.28C1240 419.86 1235.1 418.15 1230.37 418.15C1222.57 418.15 1214.18 422.45 1211.71 433.59C1210.79 437.58 1210.79 441.4 1210.79 446.73L1210.79 481.73L1198.42 481.73L1198.42 373.68L1198.42 373.68Z" />
	<path id="Layer" fill-rule="evenodd" class="shp3" d="M1320.97 438.69L1320.97 436.86C1320.97 429.37 1320.97 416.83 1304.77 416.83C1289.34 416.83 1289.34 428.14 1289.34 431.96L1276.48 431.21C1276.8 428.62 1277.08 424.64 1279.39 420.34C1283.69 412.37 1292.08 407.48 1304.3 407.48C1311.02 407.48 1319.73 409.15 1325.38 413.61C1333.34 420.02 1333.34 428.3 1333.18 437.93L1333.18 461.34C1333.34 468.23 1333.34 471.73 1338.39 471.73C1339.91 471.73 1341.3 471.42 1342.37 470.98L1342.37 481.53C1340.38 482.01 1338.23 482.76 1334.73 482.76C1329.08 482.76 1323.43 480.93 1322.2 472.05C1318.54 475.87 1311.22 483.84 1297.45 483.84C1283.41 483.84 1272.98 475.44 1272.98 463.17C1272.98 459.35 1274.06 455.53 1276.21 452.31C1280.34 446.17 1287.98 441.28 1309.51 439.61L1320.97 438.69L1320.97 438.69ZM1286.43 462.82C1286.43 468.63 1291.01 473.53 1300.04 473.53C1308.43 473.53 1315.64 470.14 1319.14 462.66C1320.97 458.68 1321.13 457 1321.13 446.45C1316.39 447.25 1309.99 448.17 1302.19 449.84C1288.74 452.74 1286.43 457.8 1286.43 462.82Z" />
	<path id="Layer" class="shp3" d="M1371.26 409.79L1384.39 409.79L1384.39 419.86L1371.26 419.86L1371.26 461.14C1371.26 469.7 1371.26 473.37 1376.47 473.37C1378.78 473.37 1381.96 472.45 1384.43 471.69L1384.43 481.77C1382.28 482.08 1377.27 483 1372.65 483C1358.61 483 1358.61 476.11 1358.73 466.64L1358.73 419.86L1347.27 419.86L1347.27 409.79L1358.73 409.79L1358.73 387.01L1371.26 387.01L1371.26 409.79L1371.26 409.79Z" />
	<path id="Layer" class="shp3" d="M1415.38 373.84L1415.38 381.8C1415.22 396.77 1413.23 403.5 1409.14 414.53L1401.94 414.53C1403.01 411.94 1406.23 403.22 1406.99 390.68L1400.26 390.68L1400.26 373.84L1415.38 373.84Z" />
	<path id="Layer" class="shp3" d="M1448.89 450C1437.27 447.25 1423.06 444.03 1423.06 429.06C1423.06 415.92 1434.2 407.64 1450.88 407.64C1464.64 407.64 1479.28 414.21 1481.75 431.17L1468.62 432.84C1468.46 428.42 1468.14 424.88 1463.41 421.21C1458.67 417.55 1453.18 416.91 1449.48 416.91C1440.01 416.91 1435.28 422.57 1435.28 427.46C1435.28 434.35 1443.08 436.5 1452.55 438.77L1459.43 440.44C1467.99 442.43 1483.42 446.1 1483.42 461.22C1483.42 473.01 1473.04 484 1453.18 484C1445.07 484 1436.67 482.32 1430.86 478.18C1428.56 476.51 1421.55 470.7 1420.16 458.6L1433.93 456.45C1433.77 459.67 1433.77 465.76 1439.26 470.5C1443.55 474.16 1448.89 474.64 1453.78 474.64C1464.48 474.64 1470.73 470.5 1470.73 462.7C1470.73 454.46 1464.48 452.9 1455.77 451.23L1448.89 450L1448.89 450Z" />
	<path id="Layer" class="shp3" d="M1551.06 409.79L1551.06 420.34C1557.79 408.55 1569.24 407.48 1573.54 407.48C1582.69 407.48 1593.71 412.06 1597.22 424C1598.45 428.3 1598.45 432.72 1598.45 438.85L1598.45 481.81L1586.39 481.81L1586.39 440.84C1586.39 433.52 1586.39 431.37 1585.64 428.9C1583.49 422.01 1576.76 418.94 1570.2 418.94C1564.87 418.94 1560.25 420.62 1556.43 424.44C1551.1 429.77 1551.1 435.31 1551.1 440.64L1551.1 481.77L1538.89 481.77L1538.89 409.75L1551.06 409.75L1551.06 409.79Z" />
	<path id="Layer" fill-rule="evenodd" class="shp3" d="M1682.64 459.63C1680.97 464.53 1674.52 483.96 1650.09 483.96C1628.69 483.96 1614.8 469.43 1614.8 445.1C1614.8 417.87 1634.38 407.48 1649.65 407.48C1662.94 407.48 1676.99 414.8 1681.29 433C1682.64 439.13 1682.64 444.62 1682.64 447.69L1627.93 447.69C1627.61 459.75 1634.06 474.76 1651.17 474.76C1662.03 474.76 1668.12 467.55 1670.27 457.96L1682.64 459.63L1682.64 459.63ZM1669.35 438.97C1668.28 420.02 1654.67 416.79 1648.74 416.79C1638.36 416.79 1629.64 424.44 1628.25 438.97L1669.35 438.97Z" />
	<path id="Layer" class="shp3" d="M1732.57 409.79L1746.34 409.79L1724.66 445.26L1746.34 481.81L1732.57 481.81L1717.29 456.13L1702.33 481.81L1688.45 481.81L1710.93 445.26L1689.68 409.79L1703.73 409.79L1718.09 434.55L1732.57 409.79L1732.57 409.79Z" />
	<path id="Layer" class="shp3" d="M1777.65 409.79L1790.78 409.79L1790.78 419.86L1777.65 419.86L1777.65 461.14C1777.65 469.7 1777.65 473.37 1782.87 473.37C1785.17 473.37 1788.36 472.45 1790.82 471.69L1790.82 481.77C1788.67 482.08 1783.66 483 1779.05 483C1765 483 1765 476.11 1765.12 466.64L1765.12 419.86L1753.66 419.86L1753.66 409.79L1765.12 409.79L1765.12 387.01L1777.65 387.01L1777.65 409.79L1777.65 409.79Z" />
</svg>