<svg version="1.2" xmlns="http://www.w3.org/2000/svg" viewBox="0 0 1603 625" width="1603" height="625">
	<title>PTC_logo-svg</title>
	<defs>
		<clipPath clipPathUnits="userSpaceOnUse" id="cp1">
			<path d="m0.43 0.87h1602.37v623.61h-1602.37z"/>
		</clipPath>
	</defs>
	<style>
		.s0 { fill: #656263 } 
		.s1 { fill: #6bc04b } 
	</style>
	<g id="Layer">
		<g id="Layer">
			<g id="Layer">
				<path id="Layer" class="s0" d="m540.8 157v138.3l-134.1 78.6-242-140.1 105.9-61.3 121.7 70 30.2-17.6-151.9-87.1-270.2 157.1v-137.9l270.2-156.1z"/>
			</g>
			<path id="Layer" class="s1" d="m134.5 251.5l241.9 140.2-105.8 61.2-121.7-70-30.3 17.6 152 87.2 270.1-157.3v138.4l-270.1 155.7-270.2-155.7v-138.7z"/>
			<g id="Clip-Path" clip-path="url(#cp1)">
				<g id="Layer">
					<g id="Layer">
						<path id="Layer" fill-rule="evenodd" class="s0" d="m811.4 206.1q36.4-53.5 108.8-53.5 65.6 0 106.4 45.7 40.7 44.9 40.7 111.2 0 66.3-40.7 111.2-40.8 45.7-109.5 45.7c-45.8 0-81-18.1-105.7-54.1v169.5h-45.6v-424.4h45.6zm102.7-12.1q-49.2 0-77.8 34-27.4 32.2-27.4 81.5 0 49.2 27.4 81.4 28.6 34.1 77.8 34.1c32.4 0 58.7-11.3 79-34.1q28.6-32.2 28.6-81.4 0-49.3-28.6-81.5c-20.3-22.7-46.6-34-79-34zm246.8 267.5v-263.8h-62v-40.2h62v-108.8h45.6v108.8h69.8v40.2h-69.8v263.8zm307.6-36.6q29.2 0 51.7-16.4 22.5-16.4 32.8-42.6h49.2q-13.9 45.1-51 72.4c-26 18.6-56.8 28-92.4 28q-66.9 0-108.8-45.6-40.7-44.4-40.8-111.3 0.1-66.9 40.8-111.2 41.9-45.6 108.8-45.6c35.6 0 66.4 9.3 92.4 27.9q37.1 27.4 51 72.4h-49.2q-10.3-26.2-32.8-42.6-22.5-16.4-51.7-16.4c-19.5 0-36 3.1-49.5 9.1q-20.4 9.1-34.4 24.9c-19.8 21.9-29.7 49.1-29.7 81.5 0 32.4 9.9 59.6 29.7 81.5q30.4 34 83.9 34z"/>
					</g>
				</g>
			</g>
		</g>
	</g>
</svg>