<svg version="1.2" xmlns="http://www.w3.org/2000/svg" viewBox="0 0 1524 460" width="1524" height="460">
	<title>pulte-group-logo-svg</title>
	<style>
		.s0 { fill: #eac463 } 
		.s1 { fill: #223555 } 
	</style>
	<g id="#eac463ff">
		<path id="Layer" class="s0" d="m991.7 11.3c40.8-14.3 86.6-13.9 127.3 1 37.9 13.7 71 40 93.2 73.7 23.8 35.9 34.6 80.2 30.1 123.1-17.6-7.1-35.3-13.9-52.9-20.9q0-30.6 0-61.3c-21.7 0-43.5 0-65.2 0 0 11.9 0 23.7 0 35.6-42.7-16.9-85.5-33.7-128.3-50.6-43.2 17.4-86.3 34.8-129.5 52.3 4.6-34.3 18.9-67.2 40.8-93.9 22-26.9 51.6-47.7 84.5-59z"/>
	</g>
	<g id="#223555ff">
		<path id="Layer" class="s1" d="m866.4 164.2c43.2-17.5 86.3-34.9 129.5-52.3 42.8 16.9 85.6 33.7 128.3 50.6 0-11.9 0-23.7 0-35.6 21.7 0 43.5 0 65.2 0q0 30.7 0 61.3c17.6 7 35.3 13.8 52.9 20.9 24.1 9.5 48.2 18.9 72.2 28.5 0 17.5 0 35 0 52.5-106.2-41.9-212.3-83.7-318.5-125.6-99.5 40.2-199 80.3-298.5 120.5q0-26.3 0-52.7c56.3-22.7 112.6-45.3 168.9-68.1z"/>
		<path id="Layer" fill-rule="evenodd" class="s1" d="m442.5 237.6c91.2-36.8 182.4-73.5 273.6-110.3 32.6 13.1 65.3 25.8 97.8 39-21.5 8.4-42.9 17.3-64.5 25.3-11.2-4.1-22.2-8.8-33.3-13.1q-136.8 55.1-273.6 110.1 0-25.5 0-51zm-246.5 4.6c83.3-33.4 166.6-67.1 249.9-100.7 31.4 12.5 62.9 24.9 94.2 37.5-21.2 8.6-42.6 16.9-63.9 25.4-10-4.1-20-8.1-30.1-12.1-83.4 33.5-166.8 67.2-250.2 100.7 0-16.9-0.2-33.9 0.1-50.8zm526.3 86.1c13.4-16.2 33.9-25.7 54.7-27.3 17.5-1.6 35.9 1.9 50.4 12.1 7.7 5.2 14.1 12 19.5 19.5-7.4 4.2-14.9 8.4-22.3 12.6-6.8-9.3-16.8-16.4-28.1-19.1-17.6-4.3-37.5 1.4-49.8 14.8-19.7 21.5-19.2 58.6 1.4 79.3 10.2 10.4 25.1 15.7 39.6 14.8 12.2-0.8 24.3-5.6 33.5-13.8-0.1-7.8-0.1-15.7-0.1-23.5-15.2 0-30.5 0-45.7 0q0-11.9 0-23.8 36.4 0 72.8 0c-0.1 19.1 0.1 38.2-0.1 57.4-10.4 12.1-24.7 20.8-40 24.9-18.9 5-39.6 3.8-57.6-3.9-13.9-6-26.1-16.2-34.1-29.1-9.5-15.1-13-33.4-11.5-51 1.2-15.9 7.1-31.6 17.4-43.9zm365.7-26.9c18.6-2.5 38.2 0.6 54.4 10.4 17.4 10.2 29.6 28.1 34 47.7 5 22.6 1.8 47.5-11.4 66.8-10.3 15.7-27.1 26.6-45.4 30.6-18.5 4-38.5 2.4-55.6-5.9-15.5-7.5-28.2-20.7-35-36.6-11.7-27.2-9-61 9.2-84.8 11.9-15.7 30.4-25.7 49.8-28.2zm0.9 24.5c-13.4 2.7-25.4 11.5-31.8 23.6-6.8 12.3-8.5 27-6.5 40.8 2 13.8 8.9 27.4 20.5 35.6 13 9.3 30.4 11.2 45.4 6.5 12.4-3.9 22.8-13.4 28.3-25 6.7-14.2 7.7-30.8 3.5-45.9-3.1-11.6-10.3-22.2-20.3-28.8-11.4-7.5-25.9-9.6-39.1-6.8zm-1088.1-22.9q36.5 0 73 0c9.5 0 19.2 0.8 28 4.7 11.9 4.9 21.4 15 25.8 27 4.4 12.4 4.5 26.5-0.1 38.9-4 10.9-12.4 20.1-22.9 25.1-8.2 4-17.4 5.8-26.5 5.7-12.5 0-25 0-37.4 0q0 25.9 0 51.9-20 0-39.9 0 0-76.7 0-153.3zm39.9 33.7q0 17 0 34 15.5 0 31 0c5 0.1 10.3-1.3 13.9-4.9 5.6-5.1 6.3-14.2 2.7-20.7-3.1-5.4-9.4-8.5-15.6-8.4q-16 0-32 0zm112.1-33.7c13.4 0 26.9 0 40.4 0 0 29.9 0 59.8 0 89.6 0.1 8.2 2 16.8 7.8 22.8 6.5 6.9 16.6 9 25.8 8.4 8.2-0.4 16.8-3.6 21.8-10.5 4.8-6.1 6.1-14.2 6.1-21.8q0-44.2 0-88.5 20.2 0 40.4 0c0 30.9 0.1 61.9 0 92.8-0.3 17-5.6 34.8-18.5 46.4-14.2 13-34.3 16.9-52.9 16.8-19.1 0-39.6-4.4-53.6-18.2-12.3-11.8-17.2-29.4-17.3-46.1-0.1-30.6 0-61.1 0-91.7zm174.2 0q19.8 0 39.6 0c-0.1 39.5 0 79 0 118.5q30.7 0 61.5 0 0 17.4 0 34.8-50.6 0-101.1 0-0.1-76.7 0-153.3zm94.1 0c41.8 0 83.5 0 125.3 0q-0.1 17.4-0.1 34.8-21.4 0-42.8 0 0 59.2 0 118.5-19.8-0.1-39.6 0c0-39.5 0-79 0-118.5-14.2 0-28.5 0-42.8 0 0-11.6 0-23.2 0-34.8zm148.3 0q56.1 0 112.3 0 0 16.9 0 33.7-36.4 0-72.7 0-0.1 12.6 0 25.1c23.7 0.1 47.4 0 71.1 0.1 0 11.2 0 22.4 0 33.7q-35.6-0.1-71.1 0-0.1 13.6 0 27.2 36.3 0 72.7 0 0 16.7 0 33.5-56.2-0.1-112.3 0 0-76.7 0-153.3zm310.9 0c22.5 0.1 45.1-0.1 67.7 0.1 13.7 0 27.9 4.6 37.4 14.8 10 10.3 13.6 25.5 12 39.5-0.9 10.3-5.3 20.5-13 27.6-6.2 6-14.3 9.6-22.7 11.3q18.8 29.9 37.3 59.9-15.6 0.1-31.3 0c-11.3-19-22.6-37.9-33.8-56.9q-13.2 0-26.3 0c-0.1 19 0 38 0 57q-13.7 0-27.3 0 0-76.7 0-153.3zm27.3 24.1q0 24.1 0 48.1c12.5 0 25 0 37.5 0 7.1 0 14.4-2.8 19.2-8.3 7-8 7.5-20.6 1.7-29.4-4.6-6.8-12.9-10.4-21-10.4q-18.7 0-37.4 0zm301.2-24.1c9.1 0 18.2 0 27.3 0 0 30.9 0 61.9 0 92.8 0.2 10.1 2.9 20.9 10.2 28.3 6.2 6.7 15.3 9.9 24.2 10.6 10.4 0.8 21.7-1 30.1-7.6 8-6.2 12.1-16.2 13.1-26.1 0.6-7 0.1-14.1 0.3-21.2q0-38.4 0-76.8 13.6 0 27.3 0c0 30.9-0.1 61.9 0 92.8 0.1 12.8-2.5 25.9-9.3 36.8-6.8 11.3-18.3 19.2-30.9 22.9-12.6 3.7-26 4.2-39.1 2.7-11.7-1.5-23.3-5.4-32.5-12.9-15.5-12.1-21.3-32.7-20.7-51.6 0-30.3 0-60.5 0-90.7zm169.4 0q27.9 0 55.9 0c7.2 0 14.4-0.1 21.4 0.9 11.5 1.7 22.5 7.3 29.7 16.4 12.3 15.3 13.6 37.9 4.5 55-5.8 10.7-16.2 18.6-27.8 21.7-9 2.7-18.5 2.3-27.8 2.3q-14.5 0-28.9 0 0 28.5 0 57-13.5 0-27 0 0-76.7 0-153.3zm27 24.1q0 24 0 48.1 18.8 0 37.5 0c7.4 0 15-3 19.8-8.8 7.2-8.6 7.1-22.4-0.2-30.8-4.8-5.7-12.3-8.5-19.6-8.5q-18.8 0-37.5 0zm103-20.9c7.7-2.8 16.7 4.5 14.9 12.6-0.8 9.1-13.4 12.8-19.5 6.5-6.3-5.5-3.6-17.2 4.6-19.1zm1.2 2.4c-6.8 1.6-8.4 11.8-2.6 15.6 5 4.1 13.2-0.1 13.2-6.5 0.8-5.6-5-10.9-10.6-9.1zm-2.2 2.8c3 0.2 6.7-1.1 9.1 1.3 1.1 1.5 0 3.4-1 4.6 0.9 1.9 1.4 4 2.1 6-4.7 1.4-3.1-5.2-7.2-5.1q-0.1 2.4-0.1 4.9c-0.8 0-2.2 0-3 0 0-3.9 0-7.8 0.1-11.7zm2.9 1.8c0 0.9 0.1 2.7 0.2 3.6 1.1-0.4 4.9-1.2 2.8-3-0.8-0.1-2.3-0.4-3-0.6z"/>
	</g>
</svg>