<svg version="1.2" xmlns="http://www.w3.org/2000/svg" viewBox="0 0 1607 368" width="1607" height="368">
	<title>Qorvo_logo_black-svg</title>
	<style>
		.s0 { fill: #010000 } 
	</style>
	<g id="#010000ff">
		<path id="Layer" class="s0" d="m130.3 1.5c24.4-2.3 49.5 1.7 71.9 11.7 27.7 12.2 51.3 33.5 66.2 59.8 12.4 21.4 18.9 46.2 18.8 71 0 28.1 0.1 56.3-0.1 84.5-0.2 13.8-10.4 26.7-23.8 30.1-13.5 3.8-29.1-2.4-36.1-14.7-2.9-4.9-4.5-10.6-4.5-16.3 0-27.9 0-55.7 0-83.6 0.1-14.3-3.8-28.5-11.2-40.7-9.1-15.1-23.4-27-39.9-33.2-16.1-6-34.2-6.5-50.6-1.5-16.4 4.9-31 15.4-40.9 29.3-9.3 12.8-14.5 28.5-14.7 44.3-0.2 8.6-0.1 17.2-0.1 25.8-0.1 6.2 0.2 12.5 1.4 18.6 3.4 18.5 13.8 35.5 28.6 47.1 13.5 10.6 30.6 16.7 47.9 16.8 13.4 0.1 26.8-0.5 40.1 1.9 36.3 5.7 70.2 26 92.1 55.5 5 7 10.6 14.2 11.5 23.1 1.9 13.8-6.3 28.3-19.3 33.5-10.8 4.8-24.2 2.9-33.3-4.8-4.1-3.2-6.7-7.7-9.6-11.9-13.8-19.6-37-32.1-61-32.9-12.2-0.3-24.5 0.4-36.6-1.1-31.9-3.7-62.3-18.5-84.8-41.3-25.4-25.4-40.6-60.6-41.4-96.5-0.1-11.2 0-22.5 0-33.7 0.1-31.5 11.2-62.8 30.9-87.4 23.8-30.1 60.2-49.9 98.5-53.4z"/>
		<path id="Layer" class="s0" d="m462.1 1.6c27.1-2.7 54.9 2.5 79.1 14.9 7 3.1 13.4 8.1 17 15 6.3 11.4 4.7 26.5-3.9 36.3-7.4 8.6-19.4 12.8-30.5 10.6-3.9-0.7-7.5-2.3-11-4.2-17.1-9.1-37.7-11.4-56.5-6.5-15.3 3.9-29.2 12.6-39.5 24.5-9.5 10.8-15.9 24.3-18.2 38.4-1.6 8.8-1 17.8-1.1 26.7 0.1 9.8-0.6 19.7 1.4 29.4 3.1 17.1 12.3 32.9 25.4 44.3 11.8 10.4 26.9 17.2 42.6 19 16.8 2 34.2-1.6 48.8-10.1 19.2-11 33.2-30.4 37.6-52.1 1.9-8.8 1.6-17.9 1.6-26.9-0.2-11.7 0.7-23.5-2.1-34.8-2-7.7-4.8-15.7-2.8-23.7 2.6-13.4 14.6-24.1 28.1-25.3 14.2-1.8 28.8 7.3 33.6 20.7 5.4 16 7.9 32.9 7.7 49.8-0.3 15.2 0.7 30.6-1.6 45.7-3.9 26.5-15.6 51.8-33.2 72-18.4 21.3-43.2 37-70.3 44.4-34.3 9.4-72.1 5.6-103.7-10.8-37.7-19.1-66-55.7-74.5-97.1-4.3-19-2.9-38.5-3.1-57.8-0.2-29.8 9.4-59.6 27-83.8 23.6-32.9 61.7-54.9 102.1-58.6z"/>
		<path id="Layer" class="s0" d="m800 1.6c32.8-3.4 66.7 4.7 94.1 23 33.5 21.9 57 58.5 62.5 98.1 1.7 14.6-8.1 29.3-22.1 33.6-13.7 4.7-30-1.3-37.4-13.8-4.5-6.7-4.4-15-7-22.4-6.7-21.8-23.4-40.1-44.4-48.8-17.5-7.4-37.5-8.1-55.5-2.2-16.3 5.4-30.7 16.3-40.3 30.6-8.9 12.9-13.6 28.6-13.5 44.3-0.1 46.5 0 93.1-0.1 139.6-0.1 14.4-11.2 27.6-25.3 30.4-14.1 3.3-29.7-4.2-35.8-17.3-2.6-5.2-3.5-11-3.3-16.7 0-40.3 0-80.6 0-120.9 0-11.6-0.4-23.3 1.3-34.8 4-29.9 17.9-58.4 39-80 23.1-23.9 54.7-39.3 87.8-42.7z"/>
		<path id="Layer" class="s0" d="m999.1 1.6c14.5-3.3 30.5 4.9 36.5 18.5 36.3 81.9 72.6 163.8 109 245.7 3.7 7.3 5.3 15.9 3.3 24-2.3 10.9-10.8 20.3-21.5 23.5-15.9 5.2-34.3-4-40.3-19.4q-53.4-120.4-106.8-240.8c-3.3-6.9-6.3-14.2-5.6-22 0.7-14 11.5-26.9 25.4-29.5z"/>
		<path id="Layer" class="s0" d="m1222.3 1.4c13-2.5 27.1 4 33.4 15.5 5.3 9 5.8 20.5 1.5 30-21.8 49.2-43.7 98.5-65.5 147.7-3 7.4-8.3 13.9-15.4 17.6-10.7 6-24.8 5.2-34.6-2.2-9.2-6.6-14.1-18.3-12.9-29.5 0.4-4.7 2.1-9.2 4.1-13.4 21.9-49.3 43.7-98.6 65.7-147.8 4.5-9.3 13.6-16 23.7-17.9z"/>
		<path id="Layer" class="s0" d="m1407.4 1.6c30.5-3.1 62.1 3.9 88.4 19.9 23.5 14.1 42.7 35.2 54.7 59.9 7.9 16.2 12.7 34 13.9 52 0.6 7.4 0.4 14.8 0.4 22.2-0.1 11.9 0.4 23.8-1.3 35.7-3.6 27.4-15.6 53.7-33.9 74.5-19 21.8-44.8 37.6-72.9 44.6-35.2 8.9-73.7 4-105.3-14-6.3-3.8-11.2-9.7-13.7-16.6-4.1-11.1-1.5-24.3 6.7-32.9 7.7-8.4 20.1-12 31.2-9.3 3.9 0.9 7.5 2.9 11.2 4.7 16.2 8.1 35.2 10.3 52.8 6.1 16.4-3.8 31.4-13 42.3-25.9 10.7-12.7 17.3-28.9 18.2-45.5 0.4-6.6 0.2-13.1 0.2-19.6-0.1-9.5 0.5-19-1.3-28.4-3-16.1-11.3-31.1-23.2-42.3-12-11.4-27.6-18.8-44-20.9-17-2.3-34.8 1.3-49.6 9.9-19.4 11.1-33.6 30.8-37.8 52.7-2 9.8-1.4 19.9-1.5 29.8 0.1 9-0.4 18 1.2 26.9 1.4 8.8 5.7 17.4 4 26.5-1.9 13.7-13.7 25.2-27.5 26.8-14.5 2.3-29.7-6.8-34.5-20.7-5.5-16.3-8-33.5-7.6-50.6 0.2-14.5-0.8-29 1.4-43.4 3.8-28.1 16.4-54.8 35.4-75.7 23.6-26.2 57-43.1 92.1-46.4z"/>
		<path id="Layer" class="s0" d="m1557.8 289.1c-2-0.9-1-4.2 1.1-3.9 5.7-0.1 11.3-0.2 16.9 0.1 2 0.1 2.3 3.2 0.6 3.9-2.3 0.5-4.6 0.2-6.9 0.3-0.1 6.9 0.1 13.8-0.1 20.7 0.2 2.9-4.8 2.9-4.6 0-0.2-6.9 0.1-13.8-0.1-20.8-2.3 0-4.7 0.3-6.9-0.3z"/>
		<path id="Layer" class="s0" d="m1582.1 287.1c0-2.5 4.1-2.9 4.9-0.5 2.6 5.2 4.7 10.6 7.2 15.8 2.4-5.3 4.5-10.6 7-15.8 0.7-2.4 4.8-2 4.8 0.6 0.2 7.7 0.1 15.4 0.1 23.1 0.2 2.3-3.5 2.9-4.2 0.8-0.4-5.4 0-10.7-0.2-16.1-1.9 4.1-3.5 8.4-5.6 12.4-0.7 1.6-3.4 1.6-4.1 0-2.1-3.9-3.6-8.2-5.6-12.3-0.2 5.3 0.2 10.5-0.2 15.7-0.3 2.4-4.5 1.9-4.2-0.5 0-7.7-0.1-15.5 0.1-23.2z"/>
	</g>
</svg>