<svg version="1.2" xmlns="http://www.w3.org/2000/svg" viewBox="0 0 1584 291" width="1584" height="291">
	<title>qualcom-svg</title>
	<style>
		.s0 { fill: #3253dc } 
	</style>
	<path id="Layer" fill-rule="evenodd" class="s0" d="m427.3 83.5c4.3 0 7.9 3.4 7.9 7.8v150.6c0 4.2-3.8 7.7-7.9 7.7h-20.4c-3.8 0-7.7-3.1-7.7-7.3v-13.9c-10.3 15.1-28.1 25.6-53.9 25.6-43.2 0-69.9-28.7-69.9-71.3v-91.8c0-4.2 3.8-7.6 7.9-7.6h20.4c4.2 0 7.6 3.4 7.6 7.6v85.9c0 27.7 14.6 46.1 43.3 46.1 28.1 0 44.6-19 44.6-45.7v-86.3c0-4.2 3.9-7.6 7.7-7.6h20.4m-174.7 43.4c0 46.7-23.3 85.7-58.2 107.7l17.7 46.3c2.5 6.7-1.4 10.1-6.6 10.1h-21.8c-5.1 0-7.9-2.4-9.3-6.3l-13.8-35.3c-10.9 3-22.4 4.6-34.3 4.6-69.9 0-126.3-54.1-126.3-126.9 0-72.5 56.4-126.9 126.3-126.9 69.9 0 126.3 54.4 126.3 126.7zm-38.8 0.2c0-52.5-36.4-92.7-87.5-92.7-51.1 0-87.5 40.2-87.5 92.7 0 52.6 36.4 92.8 87.5 92.8 7.7 0 15.1-0.8 22-2.7l-21-54.3c-2.4-6.7 1.6-10.1 6.9-10.1h20.8c6 0 8.9 3.2 10.3 6.6l15.9 41.5c20.2-16.8 32.6-43.1 32.6-73.8zm1368.8 114.2c1.8 4.2-0.4 8.3-5.5 8.3h-22.8c-4.2 0-7.7-2-9.1-6.3l-42.2-113.6-42.9 113.6c-1.8 4.5-4.8 6.3-9 6.3h-20.4c-4.3 0-7.3-1.8-9.1-6.3l-43.3-114.2-42.6 114.2c-1.8 4.3-4.9 6.3-9.1 6.3h-21.4c-4.3 0-7.3-2-9.1-6.3l-42.2-114.2-43.7 114.2c-1.8 4.5-4.8 6.3-9.1 6.3h-20.4c-4.2 0-7.2-1.8-9.1-6.3l-42.6-114.2-42.6 114.2c-1.4 4.3-4.9 6.3-9.1 6.3h-22.2c-5.3 0-7.3-4.3-5.5-8.3l57.8-151.2q2.7-6.6 9.1-6.6h24.8c4.3 0 7.3 2 9.1 6.6l41.6 110.4 41.3-110.4q2.7-6.6 9-6.6h24.5c4.2 0 7.3 2 9.1 6.6l40.8 110.4 40.8-110.4q2.7-6.6 9.1-6.6h24.7c4.2 0 7.2 2 9 6.6l41.5 110.4 40.4-110.4q2.7-6.6 9.1-6.6h24.8c4.3 0 7.3 2 9.1 6.6zm-949.6-149.7v150.3c0 4.3-3.4 7.7-7.7 7.7h-20.4c-4 0-7.8-3.4-7.8-7.7v-14.5c-11 15.5-30.6 26.7-54.8 26.7-44.7 0-83.4-35.4-83.4-87.9 0-52 38.5-87.6 83.6-87.6 23.8 0 44 11.2 54.3 26.7v-13.7c0-4.5 3.7-7.9 7.9-7.9h20.4c4.3 0 7.7 3.4 7.9 7.9zm-35.7 75c0-30.6-21.5-54-51-54-29.9 0-50.9 23.4-50.9 54 0 30.1 21.2 54.3 50.9 54.3 29.3 0 50.8-24 51-54.3zm271.3 59.6c4.4 5.4 0.6 9.7-1.8 11.5-14.2 10.7-33 16.6-53.4 16.6-51.5 0-85.8-37.8-85.8-87.5 0-49.8 34.3-87.9 85.8-87.9 20.4 0 39 5.8 53.4 16.5 2.4 1.8 5.8 5.5 1.8 11.5l-9.7 13.6c-3.8 5.2-8.3 3.8-12.1 1.4-9.1-5.5-19.8-10.1-32.2-10.1-30.1 0-50.1 24.2-50.1 55 0 30.7 20 54.7 50.1 54.7 12.6 0 22.5-4.8 31.6-10.1 3.8-2 7.8-3.8 12.1 1.8zm183.2-59.6c0 49.7-38.5 87.5-87 87.5-48.3 0-87.1-37.6-87.1-87.5 0-49.5 38.6-87.5 87.1-87.5 48.5 0 87.2 38.2 87 87.5zm-36.1 0.2c0-30.5-21.2-53.9-50.9-53.9-29.9 0-51 23.4-51 53.9 0 30.1 21.3 54 51 54 29.9 0 50.9-23.9 50.9-54zm-319-162c4.4 0 7.6 3.8 7.6 7.8v229.2c0 4.2-3 7.9-7.6 7.9h-20.5c-4.2 0-7.8-3.9-7.8-7.9v-229c0-4.2 3.8-7.8 7.8-7.8h20.5z"/>
</svg>