<svg version="1.2" xmlns="http://www.w3.org/2000/svg" viewBox="0 0 1606 173" width="1606" height="173">
	<title>REGENERON-logo-white-svg</title>
	<style>
		.s0 { fill: #275aa4 } 
	</style>
	<g id="Layer">
		<path id="Layer" fill-rule="evenodd" class="s0" d="m1421 6.9l46.3 118.2h0.5l24.3-118.2h34.3l-36 166.1h-37.4l-46.7-116.5h-0.5l-24.3 116.5h-35.1l36-166.1zm160.7-6.9q10.1 0 17.2 7.1 7.1 7.1 7.1 17.1 0 10.3-7.3 17.4-7.1 6.8-17 6.8-10.2 0-17.2-7-7-7-7-17.2 0-10.6 7.6-17.6 7.1-6.6 16.6-6.6zm0 4.1q-8.3 0-14.2 6.1-5.8 5.9-5.8 14 0 8.4 5.9 14.3 1.4 1.4 3 2.6 1.6 1.1 3.5 1.8 1.8 0.8 3.7 1.2 2 0.3 3.9 0.3 8.3 0 14.1-5.9 1.5-1.4 2.6-3.1 1.1-1.6 1.8-3.5 0.8-1.8 1.2-3.7 0.3-2 0.3-4 0-8.1-5.8-14-5.9-6.1-14.2-6.1zm-3.1 6.8q5 0 5.5 0 3.2 0.2 5.3 1.4 3.6 2 3.6 6.4 0 3.4-1.9 4.9-1.9 1.5-4.6 1.8 2.5 0.5 3.8 1.5 2.4 2 2.4 6.1v2.4q0 0.4 0 0.8 0.1 0.3 0.2 0.7l0.3 0.8h-6.8q-0.1-0.5-0.1-0.9-0.1-0.5-0.2-0.9 0-0.5-0.1-1 0-0.5 0-0.9-0.1-2.4-0.4-3.3-0.2-0.3-0.4-0.7-0.2-0.3-0.4-0.5-0.3-0.3-0.6-0.5-0.3-0.2-0.6-0.3-0.3-0.1-0.6-0.2-0.3 0-0.6-0.1-0.3 0-0.6-0.1-0.3 0-0.6 0l-1.6-0.1h-1.4v9.5h-7.1v-26.9h2.2zm1.3 4.8h-1.7v7.7h2.7q2.5 0 3.9-0.9 1.4-1 1.4-3.2 0-2.2-2.2-3.1-1.5-0.5-4.1-0.5zm-313-15.6c46.3 0 76.1 24.5 76.1 70.8 0 54.3-33.6 102.2-93.6 102.2-48 0-76-26.6-76-73.1 0-53.4 35.7-99.9 93.5-99.9zm-17 142.4c36.9 0 55.4-37.9 55.4-69.1 0-23.1-10.6-42.8-38.1-42.8-38.7 0-56.2 37.7-56.2 69.4 0 22.7 11.5 42.5 38.9 42.5zm-216.9-135.5h82.1c31.1-0.5 51.3 11.4 51.3 43.5 0 22.6-16.3 41.4-39.5 44.7v0.4c14.2 4.2 17.9 16.3 17.9 29.3 0 7.5-1.3 18.6-1.3 28.9 0 7.4 0.5 14.4 2.5 19.3h-36.9c-1-4-1.7-7.5-1.7-11.2 0-11.1 1.9-22.5 1.9-33.7 0-16.1-9.8-20-24.8-20h-35.6l-14.2 64.9h-37.9zm21.7 75.1h34.9c20-0.2 39.1-7.7 39.1-26.3 0-17.9-13-20.4-28-20.4h-35.9zm-178.5-75.2h127.6l-6.3 30.7h-90.8l-7.5 35.6h84l-6.1 28.4h-84l-8.7 40.7h92.3l-6.6 30.7h-129zm-179 0h38.6l46.2 118.2h0.5l24.3-118.2h34.3l-36 166.1h-37.4l-46.7-116.6h-0.5l-24.3 116.6h-35.1zm-153.1 0h127.5l-6.3 30.7h-90.8l-7.5 35.6h84l-6.1 28.3h-84l-8.6 40.8h92.2l-6.6 30.7h-128.9zm-91.1 145.2h-0.4c-11.1 14.8-26.8 20.8-42.3 20.8-46.9 0-74.4-26.6-74.4-73 0-53.5 35-100 91.5-100 39.2 0 71.2 18.1 71.2 58.6h-36.9c-0.9-19.9-13.6-28-34-28-37.8 0-55 37.7-55 69.4 0 22.6 11.3 42.5 38.1 42.5 27.9 0 40.1-14.6 46.4-35.6h-38.7l5.9-27.1h71.1l-19.2 89.3h-23.3zm-244.7-145.3h127.6l-6.3 30.7h-90.8l-7.5 35.6h84l-6.1 28.4h-84l-8.7 40.7h92.2l-6.5 30.7h-129zm-172 0h82.1c31.1-0.4 51.3 11.4 51.3 43.5 0 22.6-16.3 41.4-39.5 44.7v0.4c14.2 4.2 17.9 16.3 17.9 29.4 0 7.4-1.3 18.6-1.3 28.8 0 7.4 0.5 14.4 2.5 19.3h-36.9c-1-4-1.7-7.5-1.7-11.2 0-11.1 1.9-22.5 1.9-33.7 0-16-9.8-20-24.8-20h-35.6l-14.2 64.9h-37.9zm21.7 75.1h34.9c20-0.2 39.1-7.6 39.1-26.3 0-17.9-13-20.4-28-20.4h-35.9z"/>
	</g>
</svg>