<svg version="1.2" baseProfile="tiny-ps" xmlns="http://www.w3.org/2000/svg" viewBox="0 0 1588 653" width="1588" height="653">
	<title>regency-centers-svg</title>
	<style>
		tspan { white-space:pre }
		.shp0 { fill: #e6602c } 
		.shp1 { fill: #dc9b19 } 
	</style>
	<path id="Layer" fill-rule="evenodd" class="shp0" d="M99.25 258.65L99.25 287.92L9.98 287.92L9.98 258.65L35.23 258.65L35.23 29.22L9.98 29.22L9.98 0L133.55 0C212.56 0 234.56 39.36 234.56 79.27C234.56 112.35 217.36 143.88 176.33 151.71C200.32 156.06 205.78 166.54 214.93 189.25L235.88 258.65L261.47 258.65L261.47 287.92L205.5 287.92L176.44 195.81C163.54 168.24 144.13 163.94 111.82 163.94L73.67 163.94L73.67 258.65L99.25 258.65ZM73.89 134.73L118.38 134.73C168.01 134.73 194.64 116.37 194.64 83.24C194.64 46.14 168.17 29.27 118.38 29.27L73.67 29.27L73.89 134.73Z" />
	<path id="Layer" fill-rule="evenodd" class="shp0" d="M458.09 225.91C448.94 270.01 416.19 293.11 362.04 293.11C299.18 293.11 261.63 252.53 261.63 188.37C261.63 125.96 301.83 83.63 362.92 83.63C427.11 83.63 463.77 124.2 463.77 197.13L299.18 197.13C300.51 241.18 324.99 266.7 363.37 266.7C397.44 266.7 419.72 250.99 424.96 225.63L458.04 225.63M426.17 170.5C420.65 130.37 398.6 109.43 362.87 109.43C327.14 109.43 303.04 131.48 300.01 170.5L426.17 170.5Z" />
	<path id="Layer" fill-rule="evenodd" class="shp0" d="M915.31 225.91C906.15 270.01 873.4 293.11 819.25 293.11C756.4 293.11 718.85 252.53 718.85 188.37C718.85 125.96 758.99 83.63 820.14 83.63C884.32 83.63 920.98 124.2 920.98 197.13L756.51 197.13C757.83 241.23 782.26 266.98 820.69 266.98C854.65 266.7 876.98 251.21 882.22 225.91L915.31 225.91ZM883.44 170.78C878.2 130.65 855.87 109.7 820.14 109.7C784.41 109.7 760.31 131.75 757.28 170.78L883.44 170.78Z" />
	<path id="Layer" class="shp0" d="M934.22 262.84L953.9 262.84L953.9 116.21L934.33 116.21L934.33 90.02L987.98 90.02L987.98 124.47C1000.33 95.09 1027.68 84.78 1056.96 84.78C1105.26 84.78 1135.86 107.88 1135.86 156.45L1135.86 262.84L1153.62 262.84L1153.62 289.03L1082.98 289.03L1082.98 262.84L1100.35 262.84L1100.35 156.45C1100.35 126.35 1076.92 111.08 1048.08 111.08C1013.62 111.08 989.14 134.62 989.14 173.92L989.14 262.84L1008.1 262.84L1008.1 289.03L934.22 289.03L934.22 262.84Z" />
	<path id="Layer" fill-rule="evenodd" class="shp0" d="M581.22 290.96C523.82 290.96 486.05 250.16 486.05 187.48C486.05 124.2 523.16 83.57 582.98 83.57C614.41 83.57 639.5 97.41 652.51 126.79L652.51 88.86L710.74 88.86L710.74 115.05L686.59 115.05L686.59 273.92C686.59 336.32 654.72 365.6 586.62 365.6C528.12 365.6 500.16 348.12 497.52 305.78L532.92 305.78C537.71 330.21 553.43 339.41 584.86 339.41C633.33 339.41 651.02 320.61 651.02 273.92L651.02 250.16C637.07 276.68 620.92 291.18 581 291.18M587.17 112.02C548.58 111.8 523.82 139.91 523.82 187.48C523.82 234.18 549.07 263.56 588.39 263.56C626.98 263.56 649.59 233.4 649.59 188.03C649.59 142.67 625.39 111.8 587.39 111.8L587.17 112.02Z" />
	<path id="Layer" class="shp0" d="M1320.52 221.11C1316.17 248.18 1295.65 264.72 1265.38 264.72C1228.27 264.72 1203.79 236.77 1203.79 187.92C1203.79 139.08 1228.16 112.35 1265.71 112.02C1295.1 112.51 1315.34 128.94 1319.42 155.57L1352.5 155.57C1346 107.33 1316.5 83.9 1264.28 83.57L1263.62 83.57C1204.62 83.9 1166.46 124.36 1166.46 187.87C1166.46 252.92 1205.06 293.05 1264.67 293.05C1317.49 293.05 1347.37 269.51 1353.71 221.06L1320.63 221.06" />
	<path id="Layer" class="shp0" d="M1353.22 88.86L1434.93 88.86L1434.93 115.05L1413.43 115.05L1470.55 242.72L1527.35 115.05L1505.29 115.05L1505.29 88.86L1583.59 88.86L1583.59 115.05L1563.13 115.05L1472.65 317.64C1462.17 342.5 1448.44 361.74 1410.56 361.74C1408.85 361.68 1407.14 361.6 1405.43 361.48C1403.73 361.36 1402.02 361.21 1400.32 361.03C1398.62 360.84 1396.92 360.63 1395.23 360.38C1393.53 360.13 1391.84 359.85 1390.16 359.53L1390.16 331.2C1391.56 331.53 1392.96 331.82 1394.37 332.08C1395.78 332.34 1397.2 332.56 1398.62 332.74C1400.05 332.93 1401.47 333.07 1402.9 333.18C1404.33 333.29 1405.77 333.37 1407.2 333.4C1410.56 333.54 1413.93 333.17 1417.18 332.3C1420.43 331.42 1423.52 330.06 1426.36 328.25C1429.2 326.44 1431.74 324.21 1433.91 321.63C1436.07 319.06 1437.83 316.17 1439.13 313.06L1451.2 285.5L1374.01 114.61L1352.89 114.61L1352.89 88.86" />
	<path id="Layer" fill-rule="evenodd" class="shp1" d="M488.37 585.38C479.21 629.43 446.63 652.58 392.31 652.58C329.45 652.58 291.91 612.01 291.91 547.84C291.91 485.44 332.05 443.1 393.2 443.1C457.38 443.1 494.04 483.68 494.04 556.55L329.45 556.55C330.78 600.65 355.2 626.4 393.64 626.4C427.71 626.4 449.99 610.69 455.23 585.38L488.31 585.38M456.44 530.26C450.93 490.13 428.87 469.12 393.14 469.12C357.41 469.12 333.31 491.17 330.28 530.26L456.44 530.26Z" />
	<path id="Layer" class="shp1" d="M515.88 621.16L535.45 621.16L535.45 474.47L515.88 474.47L515.88 448.29L569.53 448.29L569.53 482.74C581.94 453.36 609.28 443.05 638.51 443.05C686.98 443.05 717.41 466.15 717.41 514.71L717.41 621.16L735.17 621.16L735.17 647.07L664.59 647.07L664.59 621.16L682.01 621.16L682.01 514.77C682.01 484.61 658.52 469.4 629.74 469.4C595.28 469.4 570.8 492.94 570.8 532.24L570.8 621.16L589.99 621.16L589.99 647.07L515.88 647.07L515.88 621.16Z" />
	<path id="Layer" fill-rule="evenodd" class="shp1" d="M1122.46 585.38C1113.25 629.48 1080.56 652.58 1026.41 652.58C963.55 652.58 926 612.01 926 547.84C926 485.44 966.14 443.1 1027.29 443.1C1091.47 443.1 1128.14 483.68 1128.14 556.55L963.5 556.55C964.82 600.65 989.25 626.4 1027.68 626.4C1061.75 626.4 1083.98 610.69 1089.21 585.38L1122.3 585.38M1090.43 530.26C1084.91 490.13 1062.86 469.12 1027.13 469.12C991.4 469.12 967.3 491.17 964.27 530.26L1090.43 530.26Z" />
	<path id="Layer" class="shp1" d="M1225.52 621.38L1225.52 647.57L1144.79 647.57L1144.79 621.38L1167.79 621.38L1167.79 474.75L1144.79 474.75L1144.79 448.62L1202.03 448.62L1202.03 481.69C1217.74 454.13 1237.81 443.1 1269.24 443.1C1291.3 443.1 1296.48 450.99 1297.64 451.32L1297.64 482.9C1293.72 483.23 1285.23 471.44 1266.26 471.44C1234.17 471.44 1203.41 499.83 1203.41 549.99L1203.41 621.66L1225.79 621.66" />
	<path id="Layer" class="shp1" d="M1588 613.06C1588 598.12 1579 584.65 1565.19 578.93C1551.39 573.22 1535.5 576.38 1524.93 586.94C1514.37 597.5 1511.21 613.39 1516.93 627.19C1522.64 640.99 1536.11 649.99 1551.06 649.99C1555.91 649.99 1560.71 649.04 1565.19 647.18C1569.68 645.32 1573.75 642.6 1577.18 639.17C1580.61 635.74 1583.33 631.67 1585.19 627.19C1587.04 622.71 1588 617.91 1588 613.06" />
	<path id="Layer" class="shp1" d="M1405.49 650.32C1451.53 650.32 1487.43 628.27 1487.43 590.95C1487.43 568.4 1476.4 538.53 1421.87 530.31C1416.9 529.54 1382.22 524.8 1378.47 524.03C1360.5 521.11 1348.81 512.12 1348.81 497.62C1348.81 483.12 1359.84 471.05 1388.34 471.05C1433.94 471.05 1442.76 491.56 1447.51 500.54L1475.57 500.54L1475.57 448.62L1447.51 448.62L1447.51 459.64C1438.08 454.85 1426.11 445.2 1385.97 445.2C1340.32 445.2 1313.46 470.78 1313.46 503.63C1313.46 526.29 1327.14 552.14 1370.42 558.43L1412.99 564.77C1439.35 568.63 1452.03 577.34 1452.03 593.98C1452.03 610.63 1433.72 622.98 1399.92 622.98C1353.11 622.98 1339.27 602.86 1339.27 586.98L1339.27 583.9L1310.93 583.9L1310.93 647.07L1339.32 647.07L1339.32 632.3C1348.04 638.19 1361.38 650.54 1405.49 650.54" />
	<path id="Layer" class="shp1" d="M266.21 552.47C259.87 616.92 212.84 651.7 142.04 651.7C57.62 651.7 0 597.46 0 508.37C0 419.29 57.57 364.22 139.5 364.22C202.41 364.22 227.17 393.43 233.24 399.44L233.24 378.99L263.4 378.99L263.4 467.19L231.58 467.19C228.72 446.02 212.17 395.2 141.76 395.2C81.11 395.2 42.51 435.39 42.51 504.95C42.51 579.98 82.93 616.7 144.46 616.7C186.04 616.7 216.92 599.28 227.17 552.42L266.16 552.42" />
	<path id="Layer" class="shp1" d="M883.38 585.38C881.78 605.84 874.56 626.4 845.33 626.4C818.59 626.4 808.83 609.25 808.83 585L808.83 475.52L889.22 475.52L889.22 449.33L809.38 449.33L809.38 389.3L773.98 402.86L773.98 449.39L743.33 449.39L743.33 475.57L774.37 475.57L774.37 585C774.37 627.11 799.24 652.64 845.72 652.64C904.66 652.64 916.13 612.67 916.52 585.44L883.44 585.44" />
</svg>