<svg version="1.2" xmlns="http://www.w3.org/2000/svg" viewBox="0 0 1666 280" width="1666" height="280">
	<title>header-logo-desktop-regions-standard-svg</title>
	<style>
		.s0 { fill: #88bb00 } 
		.s1 { fill: #558800 } 
	</style>
	<g id="Symbols">
		<g id="header-logo-desktop-regions-standard">
			<g id="Regions-Logo">
				<path id="pyramid" fill-rule="evenodd" class="s0" d="m0 274.9l104-140.5 63.3 140.5zm107.8-145.1l52.1-71.2 26.6 216.4zm94.9-129.9l39.6 53.4-39.6 221.6-39.4-221.8zm17.3 275l25.8-216.7 52.7 71.1zm19.6 0l62.3-141 104.4 141z"/>
				<g id="regions">
					<path id="R" fill-rule="evenodd" class="s1" d="m505.2 111c0-16.6-3.7-23-25.5-27.1v-5.7h95.8c55.8 0 78.3 22 78.3 49.6 0 20.3-11.8 38.9-40.7 47v0.7c22.4 5 44.1 68.2 62.4 86 5.1 5.1 9.6 7.1 18.2 8.5v5.8h-58.2c-22.1-25.7-36.5-70-52-85.2-9-8.7-15.9-9.1-33.8-9.1v60.8c0 17.6 7.2 25 25.8 27.7v5.8h-95.8v-5.8c16.6-1.4 25.5-9.5 25.5-25.3zm44.5 59.4c38.2 2.7 55.8-9.1 55.8-41.8 0-25.4-14.5-39.2-42-39.2h-13.8z"/>
					<path id="E" fill-rule="evenodd" class="s1" d="m825.7 223h-5c-1.9-13.3-8.9-19.6-21.6-19.6h-27.5v44.9c0 13.9 5.9 18.8 21.4 18.8h9c19.2 0 27.7-13.8 32.8-28.4h4.5l-2.9 37h-118.9v-4.4c17.4-3.6 19.8-8.9 19.8-24.5v-98.2c0-13.3-3.3-18.1-19.8-21.2v-4.4h117v33.9h-4.5c-5.1-19.6-10.9-25.3-28.2-25.3h-30.2v63.2h27.5c12.5 0 18.4-5.2 21.6-19.1h5z"/>
					<path id="G" fill-rule="evenodd" class="s1" d="m1014.4 268.7c-14.9 7.1-37 11-60.5 11-56.2 0-84.7-40-84.7-79.2 0-46.7 35.9-81.4 84.7-81.4 23.7 0 34.4 9.1 44.5 9.1 4.3 0 7.2-1.3 11.2-5.2h4.8v42.8h-4.8c-9.3-23.2-30.1-38.1-53.6-38.1-31.9 0-49.5 28.2-49.5 75.5 0 48.8 21.3 67.9 50.1 67.9 14.1 0 23.4-3.7 23.4-16.2v-22.8c0-9.9-4-16.4-15.9-18.8v-4.4h65.5v4.4c-11.5 3.2-15.2 8.9-15.2 23z"/>
					<path id="I" fill-rule="evenodd" class="s1" d="m1114.6 249.9c0 13.6 3.5 17.5 19.7 21.4v4.4h-73.8v-4.4c19.2-4.7 19.7-9.9 19.7-24.8v-97.7c0-13.5-3.5-17.5-19.7-21.4v-4.4h73.8v4.4c-18.7 4.2-19.7 9.9-19.7 24.6z"/>
					<path id="O" fill-rule="evenodd" class="s1" d="m1254.9 279.7c-46.9 0-84.9-35.9-84.9-80.3 0-44.4 38-80.3 84.9-80.3 46.9 0 84.9 35.9 84.9 80.3 0 44.4-38 80.3-84.9 80.3zm-0.1-152c-30.7 0-47.5 24.8-47.5 73.1 0 36.8 12.3 70.3 47.5 70.3 26.1 0 47.7-20.1 47.7-70.6 0-42.8-13.6-72.8-47.7-72.8z"/>
					<path id="N" fill-rule="evenodd" class="s1" d="m1515.4 277.6h-5.1l-112.2-124.1v93.5c0 16.8 5.1 21.5 22.9 24.3v4.5h-53.8v-4.5c16.8-2.6 20.8-11.5 20.5-26.4v-102.3c-11.9-12.1-14.4-13.9-20.8-15.2v-4.4h46.9l91.2 102.3v-68.7c0-18.5-3.2-25.5-19.7-29.2v-4.4h52.7v4.4c-17.8 1.1-22.6 11.5-22.6 25.1z"/>
					<path id="S" fill-rule="evenodd" class="s1" d="m1656.3 159.3h-4.5c-5.8-17.8-22.6-31.6-38.6-31.6-14.1 0-25.6 9.1-25.6 20.6 0 5.7 2.9 11.5 7.7 16.2 7.8 7.6 43.5 26.1 53.1 35.5 11.7 11.5 17 22 17 35.3 0 33.7-30.9 44.4-50.1 44.4-18.7 0-30.1-6-38.1-6-3.4 0-6.4 1.8-8 4.9h-4.5v-45.9h4.5c4.6 22.7 19.5 38.4 41.9 38.4 16.7 0 28.7-9.2 28.7-21.7 0-5-2.1-11.8-8-17.5-12-11.8-39.4-23-52.4-35.8-9.4-9.1-13.9-20.4-13.9-32.4 0-26.4 20.2-44.6 49-44.6 5.9 0 11.2 1 16 2 4.8 1.1 9.3 2.1 13.3 2.1 2.4 0 5.1-1.3 8-4.1h4.5z"/>
				</g>
			</g>
		</g>
	</g>
</svg>