<svg version="1.2" xmlns="http://www.w3.org/2000/svg" viewBox="0 0 1587 541" width="1587" height="541">
	<title>Republic_Services_logo-svg</title>
	<style>
		.s0 { fill: #d23252 } 
		.s1 { fill: #005583 } 
	</style>
	<g id="Layer">
		<path id="Layer" fill-rule="evenodd" class="s0" d="m346.3 95.7c-2.5 0.2-14.7 0.2-26.7 0.1-13-0.1-27.4-0.1-26.6 0 1.7 0.4 6 1.4 9.1 6.9 3.1 5.4 6.1 14.6 7.1 18.1l22.8 68.6h-62.5l-28.8-87-28.8 86.6-62.4-0.2 43.6-131.1c4-12.9 7.6-28 15.3-36.9 9.4-11.1 26.7-20.7 52.8-20.7 36.9 0 57.1 2 69.9 14.8 8.6 8.6 17.9 34.5 21.6 46.2 8.5 26.4 2.5 33.5-6.4 34.6zm-53.1-23.2c-3.3-9.9-21.4-63.4-21.4-63.4l-27.9 83.7c0 0 23.6 0.1 38 0 12.3-0.1 14.9-9.3 11.3-20.3z"/>
		<path id="Layer" fill-rule="evenodd" class="s0" d="m479.9 288.4c-1.1-2.4-4.8-13.9-8.4-25.4-4-12.4-8.3-26.2-8.2-25.3 0.1 1.7 0.4 6.2-3.8 10.8-4.2 4.6-12 10.3-15 12.4l-58.2 42.8-19.3-59.4c0 0 73.8-54.3 73.8-54.3l-91.2-0.6-19.2-59.5 138.2 1.1c13.6-0.2 29-1.5 39.9 3.1 13.3 5.5 27.9 18.9 36 43.8 11.4 35 15.7 54.9 7.4 71.1-5.5 10.8-27.2 27.7-37.3 34.8-22.4 16.1-31 12.8-34.7 4.6zm-39.1-98.4q0 0 0 0zm44.6 40.7c8.4-6.2 53.8-40 53.8-40l-88.3-0.6c0 0 7.2 22.5 11.7 36.1 4 11.8 13.6 11.3 22.8 4.5z"/>
		<path id="Layer" fill-rule="evenodd" class="s0" d="m337.8 474.9c2-1.7 11.8-8.8 21.6-15.8 10.5-7.5 22.3-16 21.4-15.6-1.5 0.7-5.7 2.3-11.3-0.3-5.7-2.6-13.5-8.2-16.5-10.3l-58.6-42.3 50.5-36.7 74.4 53.5-27.6-87 50.6-36.5 41.8 131.7c4.3 12.8 10.3 27.1 9.3 38.8-1.1 14.5-9.3 32.4-30.5 47.8-29.9 21.7-47.4 31.9-65.3 29.1-12-1.9-34.8-17.4-44.7-24.7-22.2-16.4-21.7-25.6-15.1-31.7zm56.6-12.5c8.4 6.1 54.6 38.7 54.6 38.7l-26.7-84.1c0 0-19.1 13.9-30.6 22.4-10 7.3-6.7 16.3 2.7 23z"/>
		<path id="Layer" fill-rule="evenodd" class="s0" d="m116.5 397.5c2.3 1.3 12 8.5 21.7 15.6 10.5 7.7 22.1 16.3 21.5 15.6-1.1-1.3-4-4.7-3.2-10.8 0.6-6.3 3.6-15.5 4.8-19l21.9-68.8 50.6 36.7-27.9 87.4 74.2-53.2 50.4 36.9-112.4 80.4c-10.8 8.1-22.5 18.2-34 20.9-14.1 3.3-33.7 1.1-54.9-14.4-29.9-21.6-45-35.1-47.8-53.1-2-12 5.7-38.4 9.7-50.1 8.7-26.2 17.6-28.5 25.4-24.1zm29.4 50c-3.1 9.8-19.9 63.8-19.9 63.8l71.7-51.3c0 0-19.1-14-30.7-22.3-10.1-7.3-17.6-1.2-21.1 9.8z"/>
		<path id="Layer" fill-rule="evenodd" class="s0" d="m121.8 163.2c-0.6 2.4-4.4 13.9-8.2 25.4-4.1 12.3-8.6 26-8.1 25.2 0.8-1.5 3.2-5.2 9.3-6.5 6-1.2 15.8-1.3 19.4-1.2l72.2-0.4-19.2 59.4c0 0-91.3 0.6-91.7 0.5l73.5 54.2-19.5 59.2-111.1-82c-11.2-7.8-24.4-15.8-30.5-25.9-7.5-12.3-11.5-31.7-3.3-56.6 11.4-35 19.5-53.6 35.7-61.9 10.8-5.5 38.3-6.4 50.6-6.3 27.7 0.3 32.6 8 30.9 16.9zm-26.3 102.4q0 0 0 0zm-12.2-59.2c-10.3 0.1-66.9 0.8-66.9 0.8l71 52.4c0 0 7.4-22.4 11.7-36.1 3.8-11.8-4.2-17.2-15.8-17.1z"/>
		<path id="Layer" fill-rule="evenodd" class="s1" d="m668.8 270.5l-7.6 41.9h-40.3l21.7-120.2h58.1c41.1 0 52.6 10.8 48.4 34.2-2.5 13.8-11 25.6-26 29.3 12.1 4.7 19.5 7.8 15.1 32-2.9 15.7-4.3 21 0.5 21l-0.7 3.7h-40.8c-0.5-2.7-0.2-10.4 1.7-21 2.8-15.8 1-20.9-17.7-20.9m-7.6-26.4h15.9c12.5 0 19.7-3 21.2-11.3 1.5-8.6-4.6-12.5-14-12.5h-18.8z"/>
		<path id="Layer" class="s1" d="m756.4 312.4l21.7-120.2h100.4l-5.1 28.1h-60l-3.1 17.1h50.8l-5.1 28.1h-50.7l-3.5 18.8h62.4l-5 28.1"/>
		<path id="Layer" fill-rule="evenodd" class="s1" d="m876.6 312.4l21.7-120.2h59.3c35.4 0 49.6 15.8 45.2 40.6-4.7 25.9-23.4 42.2-58.8 42.2h-20.3l-6.8 37.4m28.6-65.5c9.4 0 16.9-3.6 18.7-14 2-11.1-10.7-12.6-19.2-12.6h-11.4l-4.9 26.6z"/>
		<path id="Layer" class="s1" d="m1023.9 192.2h40.3l-12.9 72c-2.2 11.8-1.6 21.9 14.9 21.9 14.5 0 20.5-9 22.8-21.9l13-72h40.3l-12.2 68c-7 38.5-28.3 55.3-69.2 55.3-38.1 0-56.7-14.1-49.2-55.5"/>
		<path id="Layer" fill-rule="evenodd" class="s1" d="m1144.9 312.4l21.7-120.2h58.7c27.8 0 48.7 6.3 44.3 30.2-2.2 12.4-12 21.4-20.7 26.2 12.7 3.4 17.8 14.5 15.5 27.6-4.8 26.9-27.6 36.2-59.5 36.2m-3-92.1l-3.6 19.9h16.7c8 0 14.5-3.4 15.7-10.4 1.7-9.3-6.1-9.5-14.7-9.5zm-7.6 41.8l-4 22.2h17.6c9.9 0 17.8-1.9 19.4-11 1.9-10.5-7.4-11.2-20.1-11.2z"/>
		<path id="Layer" class="s1" d="m1278.5 312.4l21.8-120.2h40.3l-16.7 92.1h55.4l-5.1 28.1"/>
		<path id="Layer" class="s1" d="m1392.6 312.4l21.6-120.2h40.3l-21.6 120.2z"/>
		<path id="Layer" class="s1" d="m1548.1 238.1c1.1-12.6-5.7-19.7-18.3-19.7-14.2 0-24.9 11.9-29.1 35.1-3 16.8-2.1 32.6 18.4 32.6 13 0 20.8-8.8 24.3-20.3h38.8c-9.2 31.1-35.2 49.7-67.7 49.7-40.7 0-60.9-24.3-53.8-63.3 7-39 38.4-63.2 72.7-63.2 37.6 0 55.3 18.2 53 49.1"/>
		<path id="Layer" class="s1" d="m853 397c-0.8 4.2-0.4 12 13.5 12 7.6 0 16.3-1.7 18.1-9.6 1.2-5.8-4.1-7.4-11.8-9.2l-7.8-2c-11.8-2.7-23-5.4-19.5-21.8 1.8-8.4 9.6-23.1 34.4-23.1 23.4 0 26.4 15 24.5 24.2h-15.3c0.3-3.3 0.7-11.2-13.2-11.2-6.1 0-13.8 2.2-15.3 8.9-1.2 5.8 3.4 7.1 6.4 7.8l17.7 4.5c9.9 2.5 18.5 6.7 15.6 20-4.9 22.5-28.7 24.5-35.4 24.5-27.8 0-29.3-15.8-27.2-25"/>
		<path id="Layer" class="s1" d="m977 358.6h-40.5l-3.4 15.7h37.2l-2.9 13.1h-37.1l-4.3 19.3h42.3l-2.8 13.3h-58l16.2-74.6h56.2"/>
		<path id="Layer" fill-rule="evenodd" class="s1" d="m994.7 345.4h38.6c20.3 0 20.8 14.6 19.4 21-1.7 8.3-7.6 15.4-15.6 17.9 5.6 2.6 8.5 4.9 5.5 18.8-2.3 10.9-2.9 13.6 0.2 14.9l-0.4 2h-17.7c-0.3-3.6-0.1-7.4 1.6-15.1 2.2-10.2 2.4-14.1-9.4-14.1h-16.5l-6.3 29.2h-15.6m43.4-41.8c8.3 0 12.9-2.8 14.5-10.2 0.9-4 0.4-9.8-9-9.8h-19.9l-4.3 20z"/>
		<path id="Layer" class="s1" d="m1110.4 345.4h16.6l-42.2 74.6h-15.2l-9.5-74.6h17.1l4.1 56.5h0.2"/>
		<path id="Layer" class="s1" d="m1135.5 420h-15.9l16.2-74.6h16z"/>
		<path id="Layer" class="s1" d="m1210.1 369.8c-0.4-4.5-1-12.9-14.1-12.9-7.7 0-20.1 5-24.7 26-2.9 13.5-0.1 25.5 13.4 25.5 8.8 0 16.1-4.9 20-14h15.9c-6.7 16.2-20 27.6-39.1 27.6-20.4 0-32-13.4-26.4-39.2 5.7-26.1 24-39.4 43.7-39.4 22.8 0 28.7 15.4 27.2 26.4"/>
		<path id="Layer" class="s1" d="m1296.7 358.6h-40.5l-3.4 15.7h37.2l-2.9 13.1h-37.2l-4.2 19.3h42.3l-2.9 13.3h-57.9l16.2-74.6h56.2"/>
		<path id="Layer" class="s1" d="m1314.5 397c-0.8 4.2-0.4 12 13.5 12 7.6 0 16.4-1.7 18-9.6 1.3-5.8-4.1-7.4-11.7-9.2l-7.8-2c-11.8-2.7-23-5.4-19.5-21.8 1.9-8.4 9.6-23.1 34.3-23.1 23.4 0 26.5 15 24.6 24.2h-15.3c0.3-3.3 0.7-11.2-13.2-11.2-6.1 0-13.8 2.2-15.3 8.9-1.2 5.8 3.4 7.1 6.5 7.8l17.6 4.5c9.8 2.5 18.5 6.7 15.6 20-4.9 22.5-28.7 24.5-35.4 24.5-27.9 0-29.2-15.8-27.2-25"/>
	</g>
</svg>