<svg version="1.2" xmlns="http://www.w3.org/2000/svg" viewBox="0 0 1577 1146" width="1577" height="1146">
	<title>logo-resmed-color-svg</title>
	<style>
		.s0 { fill: #ed1b2f } 
		.s1 { fill: #e31e36 } 
		.s2 { fill: #da1f3d } 
		.s3 { fill: #d12244 } 
		.s4 { fill: #c9234a } 
		.s5 { fill: #c02550 } 
		.s6 { fill: #b72755 } 
		.s7 { fill: #ae275f } 
		.s8 { fill: #a52868 } 
		.s9 { fill: #9d2872 } 
		.s10 { fill: #94287b } 
		.s11 { fill: #009bdf } 
		.s12 { fill: #008fd5 } 
		.s13 { fill: #0083ca } 
		.s14 { fill: #0077c0 } 
		.s15 { fill: #006db7 } 
		.s16 { fill: #2062af } 
		.s17 { fill: #4156a6 } 
		.s18 { fill: #55489d } 
		.s19 { fill: #643695 } 
		.s20 { fill: #6f2c91 } 
		.s21 { fill: #822a85 } 
		.s22 { fill: #353535 } 
	</style>
	<g id="Layer">
		<ellipse id="Layer" class="s0" cx="1524" cy="461.5" rx="52.2" ry="52.1"/>
		<path id="Layer" class="s1" d="m1473.9 587.4c-8.3 8.9-19.8 14.2-32 14.8-12.1 0.6-24.1-3.6-33.2-11.6-9.2-8.1-14.9-19.4-15.8-31.6-1-12.6 3.1-25.2 11.5-34.7 8.4-9.5 20.3-15.3 33-15.9 12.7-0.6 25.1 4 34.3 12.6 9.3 8.7 14.7 20.8 14.9 33.5 0.2 12.2-4.3 24-12.7 32.9z"/>
		<path id="Layer" class="s2" d="m1377.3 655.2c-7.5 8.3-18 13.3-29.2 13.8-11.2 0.5-22.2-3.4-30.4-10.9-8.3-7.6-13.3-18.1-13.8-29.3-0.5-11.1 3.4-22.1 10.9-30.4 7.5-8.2 18.1-13.2 29.2-13.7 11.2-0.6 22.1 3.4 30.4 10.9 8.3 7.5 13.3 18 13.8 29.2 0.5 11.2-3.4 22.1-10.9 30.4z"/>
		<ellipse id="Layer" class="s3" cx="1245.9" cy="666.5" rx="38" ry="38"/>
		<path id="Layer" class="s4" d="m1171.3 695.6c-6.1 6.5-14.5 10.4-23.4 10.9-9 0.4-17.7-2.7-24.4-8.6-6.7-6-10.8-14.3-11.4-23.2-0.5-9.1 2.7-18 8.8-24.8 6.1-6.7 14.7-10.8 23.8-11.2 9.1-0.4 18 2.8 24.7 8.9 6.7 6.2 10.7 14.8 11.1 23.9 0.2 8.9-3.1 17.6-9.2 24.1z"/>
		<path id="Layer" class="s5" d="m1086.8 656.1c-1.4 3.8-3.5 7.3-6.2 10.3-2.7 3-6 5.4-9.6 7.2-3.7 1.7-7.6 2.7-11.7 2.9-17 0.8-31.4-12.3-32.2-29.3-0.5-8.3 2.3-16.4 7.8-22.5 5.5-6.1 13.2-9.8 21.5-10.2 8.2-0.4 16.2 2.5 22.3 8.1 6.1 5.6 9.6 13.4 9.9 21.6 0.2 4-0.4 8.1-1.8 11.9z"/>
		<circle id="Layer" class="s6" cx="986.9" cy="596.9" r="27.7"/>
		<path id="Layer" class="s7" d="m955 546.7c-1.1 3.1-2.8 5.9-5 8.3-2.2 2.4-4.8 4.4-7.8 5.8-3 1.4-6.2 2.2-9.4 2.4-3.3 0.1-6.6-0.4-9.7-1.5-3-1.1-5.9-2.8-8.3-5-2.4-2.2-4.4-4.8-5.8-7.8-1.4-3-2.2-6.2-2.3-9.5-0.2-3.2 0.3-6.5 1.4-9.6 1.1-3.1 2.8-5.9 5-8.3 2.2-2.4 4.9-4.4 7.8-5.8 3-1.4 6.2-2.2 9.5-2.4 3.2-0.1 6.5 0.4 9.6 1.5 3.1 1.1 5.9 2.8 8.3 5 2.5 2.2 4.4 4.9 5.8 7.8 1.4 3 2.2 6.2 2.4 9.5 0.1 3.2-0.4 6.5-1.5 9.6z"/>
		<path id="Layer" class="s8" d="m904.5 491.2c-4 4.3-9.5 6.8-15.3 7.1-5.8 0.3-11.5-1.7-15.9-5.6-4.3-3.8-7.1-9.2-7.5-15-0.3-6 1.8-11.8 5.8-16.2 4-4.4 9.6-7 15.5-7.3 6-0.3 11.8 1.8 16.2 5.8 4.4 4 7 9.6 7.3 15.5 0.1 5.9-2.1 11.5-6.1 15.7z"/>
		<path id="Layer" class="s9" d="m873.3 421.6c-0.9 2.5-2.2 4.8-4 6.8-1.8 2-4 3.5-6.4 4.7-2.3 1.1-4.9 1.7-7.6 1.9-8.2 0.4-15.7-4.2-19.2-11.6-3.5-7.3-2.2-16.1 3.3-22.2 5.5-6 14-8.1 21.7-5.4 7.7 2.8 13 9.9 13.4 18.1 0.1 2.6-0.3 5.2-1.2 7.7z"/>
		<path id="Layer" class="s10" d="m847.6 353.8c0 10.7-8.7 19.3-19.3 19.3-10.7-0.1-19.3-8.7-19.3-19.4 0-10.6 8.6-19.3 19.3-19.2 10.7 0 19.3 8.6 19.3 19.3z"/>
		<ellipse id="Layer" class="s11" cx="58.7" cy="363.1" rx="58.6" ry="58.6"/>
		<ellipse id="Layer" class="s12" cx="132.6" cy="245.9" rx="52.2" ry="52.1"/>
		<ellipse id="Layer" class="s13" cx="216.8" cy="150.7" rx="46.9" ry="47"/>
		<ellipse id="Layer" class="s14" cx="310.4" cy="80.6" rx="42.2" ry="42.3"/>
		<ellipse id="Layer" class="s15" cx="410.7" cy="40.9" rx="38" ry="38"/>
		<ellipse id="Layer" class="s16" cx="510.2" cy="34.4" rx="34.2" ry="34.2"/>
		<ellipse id="Layer" class="s17" cx="598.7" cy="61.8" rx="30.8" ry="30.8"/>
		<circle id="Layer" class="s18" cx="669.7" cy="110.6" r="27.7"/>
		<ellipse id="Layer" class="s19" cx="725" cy="169.2" rx="25" ry="24.9"/>
		<path id="Layer" class="s20" d="m747.2 223.2c1-2.8 2.6-5.3 4.5-7.5 2-2.2 4.4-4 7.1-5.2 2.7-1.3 5.6-2 8.5-2.1 9.1-0.4 17.5 4.7 21.4 12.9 3.8 8.2 2.3 17.9-3.8 24.6-6.1 6.7-15.6 9.1-24.2 6-8.5-3-14.3-10.9-14.8-20-0.1-3 0.3-5.9 1.3-8.7z"/>
		<circle id="Layer" class="s21" cx="802.3" cy="292.6" r="20.2"/>
		<g id="Layer">
			<path id="Layer" fill-rule="evenodd" class="s22" d="m269.4 986.2c-4.8 8.4-11.1 16.4-18.7 22.4-9.2 6.7-18.8 11.1-40.7 18.7l45.9 111.7h-76.6l-37.1-101h-49.1l-23 101h-69.9l63.8-281.6h124.1c5.9 0 11.5 0 17.5 0.4 8 0.7 26.3 2.4 44.6 15.1 12.4 8.7 31.2 27.5 31.2 66.2 0 8.5-1.2 28-12 47.1zm-63.8-65c-7.2-9.2-15.6-12.3-35.5-12.3h-47.5l-17.6 76.9h59.1c1.5 0 8.8-0.3 15.1-1.6 12.4-2.8 20.4-9.2 26.3-19.9 5.6-10.5 6-18.8 6-23.6 0.1-3.1 0.1-11.9-5.9-19.5zm445.2 77.8c-6-8.4-7.6-10.8-11.6-14.4-9.9-9.2-25.5-13.1-38.7-13.1-17.1 0-26.2 7.1-26.2 15.9 0 11.2 14.3 14.8 32.3 20 8.7 2.4 17.1 4.7 25.5 7.9 20.7 7.6 41.1 17.6 48.3 38.8 2.7 7.5 2.7 15.9 2.7 18.3 0 24.4-15.9 41.1-21.6 46.3-13.1 12.3-38.7 26.7-80.5 26.7-14.8 0-57-0.8-87.3-35.9-4.4-5.1-6.8-8-12.8-18.7l51.5-25.5c3.6 6.3 5.6 9.6 7.5 12 6.1 7.2 20.4 18.7 45.6 18.7q2.5 0 5-0.2 2.5-0.3 5-0.7 2.5-0.4 5-0.9 2.5-0.6 4.9-1.4c4.8-1.6 8.4-3.6 11.2-7.5q0.5-0.9 1-1.8 0.4-0.9 0.7-1.9 0.3-0.9 0.5-1.9 0.2-1 0.2-2 0-1-0.2-1.9-0.2-1-0.5-1.9-0.3-0.9-0.7-1.8-0.5-0.8-1-1.6c-4.9-6.8-13.5-9.2-27.9-13.6-40.7-12.8-58.3-18.8-70.6-38.7-2.3-4-8-14.4-8-27.1 0-6 1.2-17.2 9.2-29.5 11.2-17.6 35.9-35.6 82.2-35.6 47.4 0 71 17.6 84.6 33.1 3.5 4.4 6.3 8 11.5 17.2zm343.7 140h-65.3l50.3-217.9-105.3 217.9h-59l-8-221.1-48.2 221.1h-65.9l63.1-281.7h104l4.8 184.7 87.3-184.7h105.7zm451.8 0h-61.5l2.8-14.3c-3.2 2.3-6.3 4.4-9.5 6.8q-5.1 3.2-10.6 5.7-5.4 2.5-11.2 4.2-5.8 1.7-11.8 2.5-5.9 0.8-11.9 0.7c-23.6 0-37.1-9.5-44.3-15.5-13.1-10.9-29.1-30.8-29.1-71.1 0-13.6 2.4-47.9 23.2-80.6 27.9-43.9 66.6-50.7 86.1-50.7 7.1 0 27.5 0.8 44.6 13.6 6.8 5.1 11.6 12 13.2 14.3l21.9-97.2h61.9zm-37.2-140.4c-5.1-15.2-18.3-24.3-33.9-23.6q-2.9 0.2-5.7 0.8-2.9 0.5-5.6 1.5-2.8 0.9-5.4 2.3-2.5 1.3-4.9 3c-22.7 15.2-32.7 48.3-32.7 74.2 0 14 3.2 22 6.8 27.5 6.4 10.1 15.6 13.7 27.2 13.7 9.9 0 26.6-3.3 40.2-23.5 10.4-15.6 16.4-40.8 16.4-58.8 0-6.4-0.4-11.1-2.4-17.1zm-1075.1 48.6c-0.4 5.6-3.7 32.8 18.3 44.7 10 5.6 18.8 5.6 23.2 5.6 14.7 0 29.1-5.9 38.7-16 3.9-4.2 6.9-9.3 10.1-14.5l47.9 23.8q-4.8 7.7-10.1 14.7c-12.4 16-37.5 39.5-88.1 39.5-7.2 0-26-0.3-44.3-7.9-36.7-15.2-55.8-51.1-55.8-91 0-4.9 0-15.2 3.2-27.9 7.2-30 26.3-59.2 52.2-75.5 24.3-15.1 51.1-16.3 61.5-16.3 12.7 0 50.6 1.5 75.3 32.3 7.1 9.1 12.3 18.7 15.1 29.5 4 13.5 4 27.5 4 31.9 0 9.2-0.8 18.4-1.6 27.1zm8.1-38.7h88c0-1.2 0-9.5-1.9-15.5-3.2-8.4-13.9-23.6-37.1-23.6-16.3 0-25.5 7.6-30.3 11.6-7.2 6.4-11.2 11.2-18.7 27.5zm753.7 38.7c-0.4 5.6-3.6 32.8 18.4 44.7 9.9 5.6 18.7 5.6 23.1 5.6 14.7 0 29.1-5.9 38.6-16 3.9-4.2 6.9-9.3 10.1-14.5l47.8 23.8c-3.2 5.1-6.5 10-10 14.7-12.5 16-37.6 39.5-88.2 39.5-7.2 0-26-0.3-44.3-7.9-36.7-15.2-55.8-51.1-55.8-91 0-4.9 0-15.2 3.2-27.9 7.2-30 26.3-59.2 52.2-75.5 24.3-15.1 51.1-16.3 61.5-16.3 12.7 0 50.6 1.5 75.3 32.3q2.6 3.2 4.9 6.7 2.3 3.5 4.2 7.2 1.9 3.8 3.4 7.7 1.6 3.9 2.6 7.9c4 13.5 4 27.5 4 31.9 0 9.2-0.8 18.4-1.6 27.1zm7.9-38.7h88c0-1.2 0-9.5-1.9-15.5-3.2-8.4-14-23.6-37.1-23.6-16.4 0-25.5 7.6-30.3 11.6-7.2 6.4-11.2 11.2-18.7 27.5z"/>
		</g>
	</g>
</svg>