<svg version="1.2" xmlns="http://www.w3.org/2000/svg" viewBox="0 0 1586 520" width="1586" height="520">
	<title>revvity-logo-svg</title>
	<style>
		.s0 { fill: #000000 } 
	</style>
	<path id="Layer" fill-rule="evenodd" class="s0" d="m164 82.1v39.8h-62.9c-14.4 0-61.4 5.7-61.4 79.6v177h-39.7v-177c0-88.1 54.5-119.4 101.1-119.4zm222.4 136.3c0.1 12.2-7.1 51.4-49.1 51.4h-154.6c8 31.7 34.4 73.8 91.3 73.8 57.8 0 85.1-26 90-31.2l28.9 27.4c-9.7 10.2-46.7 43.6-118.9 43.6-91.2 0-133.8-79.7-133.8-133.5 0-76.1 55.7-133.5 129.6-133.5 77.6 0 116.6 65.4 116.6 102zm-204.8 11.6h155.7c2.7 0 9.3 0 9.4-11.5 0-17.2-23.6-62.3-76.9-62.3-39.6 0-79.6 25.2-88.2 73.8zm216.4-147.9c59.2 0 88.1 54 110.4 112.4l47.2 130.9c3.1 11.5 12.1 30.6 21 30.6 9.4 0 18.4-20.3 20.5-28.8l40.9-138h42l-44.6 148.7c-5.4 21-24.1 57.9-58.8 57.9-34.6 0-53.3-36.9-58.9-58.7l-46.5-128.6c-23.8-62.2-44.3-86.6-73.2-86.6h-22.3v-39.8zm259.1 0c66.8 0 101.8 28.3 124.5 101.2l43.1 143.1c2.7 10.5 11.7 29.6 20.7 29.6 9 0 17.9-19.1 20.5-28.9l43.1-143.6c22.9-73.1 57.8-101.4 124.7-101.4h110.1v-65.2l39.7-16.9v82.1h101.8c66.9 0 101.9 28.3 124.6 101.2l40.2 113.6 92-217.6h43.1l-142.7 337.3c-23.9 56.5-51.2 103.3-143.5 103.3h-44.2v-39.9h44.2c66.3 0 84.3-25.2 107-78.9l21.1-50-54.8-155.2c-18-57.6-37.5-74-87-74h-101.8v137.7c0 51.9 14.9 84 89.2 84h26.8v39.8h-26.8c-86.7 0-128.9-40.4-128.9-123.8v-137.7h-110.1c-49.5 0-69 16.4-86.7 73.3l-42.9 142.7c-5.4 21-24.1 57.9-58.7 57.9-34.7 0-53.4-36.9-59-58.7l-42.7-142.1c-17.7-56.7-37.2-73.1-86.6-73.1h-76.7v-39.8zm365.4 105.2h39.7v191.3h-39.7z"/>
</svg>