<svg version="1.2" xmlns="http://www.w3.org/2000/svg" viewBox="0 0 1610 222" width="1610" height="222">
	<title>Robert_Half_logo-svg</title>
	<style>
		.s0 { fill: #ffffff } 
		.s1 { fill: #a70925 } 
		.s2 { fill: #38322d } 
	</style>
	<g id="layer1">
		<g id="g10250">
			<path id="path9863" class="s0" d="m0.4 3.1h310.7v218h-310.7z"/>
			<path id="path9875" fill-rule="evenodd" class="s1" d="m311.1 3.1v218h-310.7v-218h141.6v169.5h39.2v-63.7c0-16.2 9.3-25.4 22.4-25.4 14.8 0 19.8 12 19.8 22.1v67h39.3v-68.9c0-36.9-17-55.7-48.8-55.7-12.3 0-24.6 4.9-32.7 14.7v-59.6zm-189 45.3c-1.3-0.1-2.7-0.1-4.3-0.1-13.1 0-23.5 6.5-30.5 14.3v-11h-38.5v121h39.2v-58.9c0-19.1 8.4-28.8 25-28.8 3.6 0 6.5 0.2 9.1 0.5z"/>
			<path id="path9879" fill-rule="evenodd" class="s2" d="m383.8 3.1h41.5c33.5 0 65.8 5.4 65.8 45.9 0 20.7-15.3 35.2-35 38.6v0.5c7.6 2.9 11.2 6.6 16.5 17l32.1 67.5h-27.7l-26-58.7c-7.5-16.5-15.5-16.5-28.4-16.5h-14.5v75.2h-24.3zm24.3 72.9h20.6c23.1 0 36.7-10.2 36.7-26.5 0-15.3-11.7-25-34-25h-23.3z"/>
			<path id="path9883" fill-rule="evenodd" class="s2" d="m569.5 175.5c-34 0-61.6-28.4-61.6-63.4 0-35.1 27.6-63.4 61.6-63.4 34.1 0 61.6 28.3 61.6 63.4 0 35-27.5 63.4-61.6 63.4zm37.9-63.4c0-25.1-16.9-45.4-37.9-45.4-20.9 0-37.8 20.3-37.8 45.4 0 25.1 16.9 45.3 37.8 45.3 21 0 37.9-20.2 37.9-45.3z"/>
			<path id="path9887" fill-rule="evenodd" class="s2" d="m654.6 3.2h22.4v65h0.4c6.9-11.2 19-19.5 40.1-19.5 35.2 0 52.3 28.7 52.3 61.2 0 33.3-15.5 65.6-52 65.6-21.6 0-35.4-10.9-41.3-20h-0.5v17.1h-21.4zm91.5 108.9c0-25.1-15.5-45.4-34.6-45.4-19.1 0-34.5 20.3-34.5 45.4 0 25.1 15.4 45.3 34.5 45.3 19.1 0 34.6-20.2 34.6-45.3z"/>
			<path id="path9891" fill-rule="evenodd" class="s2" d="m890 167.6c-8.6 3.1-18.3 7.9-38.3 7.9-42.9 0-62.7-26.1-62.7-65.6 0-35.8 22.6-61.2 56.8-61.2 40.4 0 53.4 29.4 53.4 68.4h-86.4c0 24 18.7 40.3 39.9 40.3 14.7 0 31.8-7.6 37.3-12.1zm-14.5-67.2c0-18.5-11-33.7-30.2-33.7-21.8 0-30.8 18.1-32.5 33.7z"/>
			<path id="path9895" class="s2" d="m1073.8 69.6h-32v66.2c0 14 8.5 21.6 18.7 21.6 6.9 0 11.9-2.1 15.2-4.2v19c-5 1.4-11.8 3.3-19 3.3-23 0-37.2-10.9-37.2-35.2v-70.7h-18.4v-18.1h18.4v-28l22.3-7.1v35.1h32z"/>
			<path id="path9899" class="s2" d="m1147.4 3.1h24.3v71h81.1v-71h24.3v169.5h-24.3v-77.2h-81.1v77.2h-24.3z"/>
			<path id="path9903" fill-rule="evenodd" class="s2" d="m1314.2 60.1c11.2-6.7 24.4-11.4 39.9-11.4 34.6 0 48.7 17.1 48.7 50.1v50.1c0 13.8 0.4 20.2 0.9 23.7h-20.9v-15.6h-0.5c-5.2 7.3-17.1 18.5-37.5 18.5-26.1 0-44.4-11.4-44.4-37.8 0-30.4 33.3-39.9 56.3-39.9 8.8 0 14.9 0 23.7 0.5 0-20.9-7.6-31.6-29.9-31.6-12.6 0-26.1 4.8-35.1 12.4zm66.2 54.8c-4.7 0-9.5-0.4-14.2-0.4-12.1 0-42.1 1.9-42.1 23.2 0 12.9 12.4 19.7 22.6 19.7 22.1 0 33.7-13.7 33.7-31.8z"/>
			<path id="path9907" class="s2" d="m1436.2 3.2h22.3v88.3 81.1h-22.3v-81.1z"/>
			<path id="path9911" class="s2" d="m1495.5 69.6h-17.1v-18.1h17.1v-2.5c0-29.4 7.6-48.6 40.6-48.6 5.7 0 10.4 0.7 14.9 1.4l-0.9 18c-2.6-0.9-6.9-1.4-10.7-1.4-19.2 0-21.6 12.4-21.6 28.7v4.4h32.1v18.1h-32.1v103h-22.3z"/>
			<path id="path9915" class="s2" d="m988.6 69.9c-3.7-1.3-7.6-1.7-11-1.7-19.9 0-33 19-33 49.3v55.1h-22.3v-121.1h20.9v18.8h0.4c6-12.6 18.8-21.6 31.6-21.6 6 0 9.3 0.6 13.4 1.4z"/>
			<path id="path9919" fill-rule="evenodd" class="s2" d="m1595.5 2.4q4.1 1.7 7.1 4.8 3.1 3 4.8 7.1 1.7 4.1 1.7 8.8 0 4.8-1.7 8.9-1.7 4.1-4.8 7.1-3 3-7.1 4.7-4.1 1.8-8.9 1.8-4.8 0-8.9-1.8-4.1-1.7-7.1-4.7-3-3-4.7-7.1-1.8-4.1-1.8-8.9 0-4.7 1.8-8.8 1.7-4.1 4.7-7.1 3-3.1 7.1-4.8 4.1-1.7 8.9-1.7 4.8 0 8.9 1.7zm-16.5 3q-3.4 1.5-6 4.1-2.5 2.6-3.9 6.1-1.5 3.5-1.5 7.5 0 4.1 1.5 7.6 1.4 3.5 3.9 6.1 2.6 2.6 6 4.1 3.5 1.5 7.6 1.5 4.1 0 7.5-1.5 3.5-1.5 6-4.1 2.6-2.6 4-6.1 1.5-3.5 1.5-7.6 0-4-1.5-7.5-1.4-3.5-4-6.1-2.5-2.6-6-4.1-3.4-1.5-7.5-1.5-4.1 0-7.6 1.5zm-0.6 30.7v-26h10q4.4 0 6.5 1.9 2 1.8 2 5.3 0 1.7-0.5 3-0.5 1.3-1.4 2.1-0.9 0.9-2.1 1.4-1.2 0.5-2.5 0.8l7.7 11.5h-3.7l-7.4-11.5h-5.3v11.5zm10.3-14.3q1.4-0.1 2.5-0.5 1.1-0.4 1.7-1.4 0.7-0.9 0.7-2.6c0-0.9-0.2-1.6-0.5-2.2q-0.5-0.9-1.4-1.4-0.9-0.5-2-0.7c-0.7-0.1-1.5-0.1-2.3-0.1h-5.8v9h4.2q1.4 0 2.9-0.1z"/>
		</g>
	</g>
</svg>