<svg version="1.2" xmlns="http://www.w3.org/2000/svg" viewBox="0 0 1595 812" width="1595" height="812">
	<title>logo-sm-svg</title>
	<defs>
		<clipPath clipPathUnits="userSpaceOnUse" id="cp1">
			<path d="m0 0h1594.92v812h-1594.92z"/>
		</clipPath>
	</defs>
	<style>
		.s0 { fill: #ce0e2d } 
		.s1 { fill: #ffffff } 
	</style>
	<g id="Clip-Path" clip-path="url(#cp1)">
		<g id="Layer">
			<path id="Layer" class="s0" d="m1594.9 406l-808.2 406-786.7-403.1v-2.9l786.7-406z"/>
			<path id="Layer" fill-rule="evenodd" class="s1" d="m788.2 736.2c-22.9 0-41.4-18.5-41.4-41.4 0-23 18.5-41.5 41.4-41.5 22.9 0 41.4 18.5 41.4 41.5 0 22.9-18.5 41.4-41.4 41.4zm32.8-41.4c0-19-14.7-34.3-32.8-34.3-18.2 0-32.9 15.3-32.9 34.3 0 18.9 14.7 34.3 32.9 34.3 18.1 0 32.8-15.4 32.8-34.3zm-25.7 2.8l12.9 21.5h-8.6l-12.8-20h-8.6v20h-7.2v-47.2h18.6c11.4 0 17.1 2.9 17.1 12.9 0 8.5-5.7 11.4-11.4 12.8zm-7.1-5.7c5.7 0 11.4 0 11.4-7.1 0-5.8-4.3-7.2-10-7.2h-10v14.3zm554-241.6c-2.8 21.5-25.7 55.8-81.4 54.3-69.9-1.4-87.1-48.6-87.1-48.6l35.7-20c0 0 11.5 28.6 52.9 31.5 28.5 2.8 47.1-30.1 17.1-40.1-30-10-101.4 2.9-102.8-61.4-1.4-38.6 44.3-67.2 81.4-64.4 61.4 4.3 78.5 44.4 78.5 44.4l-35.7 17.1c0 0-31.4-28.6-61.4-20-18.5 4.3-22.8 32.9 2.9 34.3 52.8 4.3 107.1 7.2 99.9 72.9zm-799.6 58.6c-52.1 0-94.2-46-94.2-102.9 0-56.9 42.1-102.9 94.2-102.9 52.1 0 94.3 46 94.3 102.9 0 56.9-42.2 102.9-94.3 102.9zm47.1-102.9c0-34-21-61.5-47.1-61.5-26 0-47.1 27.5-47.1 61.5 0 34 21.1 61.5 47.1 61.5 26.1 0 47.1-27.5 47.1-61.5zm-189.9 24.3l41.4 72.9-49.9-1.4-35.7-65.8-32.9 1.4 1.5 64.4h-41.4v-194.4h101.3c0 0 51.4 15.7 51.4 60 0 37.2-35.7 62.9-35.7 62.9zm-27.1-84.3h-45.7l1.4 54.3c0 0 30 2.8 47.2-1.5 12.8-12.8 25.7-31.4-2.9-52.8zm461.2 117.2h67.1v37.1h-112.8v-191.5h45.7zm81.4-154.4h47.1v190.1h-47.1zm-142.8 191.6h-112.8v-191.6h45.7v154.4h67.1zm339.8-191.5h40v190.1h-40l-62.8-102.9h-7.1v104.3h-45.7v-191.5h44.2l65.7 97.2h5.7z"/>
		</g>
	</g>
</svg>