<svg version="1.2" xmlns="http://www.w3.org/2000/svg" viewBox="0 0 1589 643" width="1589" height="643">
	<title>RoperLogo_2021_White-svg</title>
	<style>
		.s0 { fill: #173d6e } 
	</style>
	<g id="#fefefdff">
		<path id="Layer" class="s0" d="m0 8.5l0.4-7.7q89.6 0 179.2 0c15 0.1 30.1 1.4 44.8 4.3 22.7 4.5 45.2 13.6 61.7 30.2 14.8 14.6 23.3 34.5 26.3 54.8 2 10.7 0.4 21.7-1.6 32.3-3.5 16.3-10.4 32.7-23.1 43.9-3.8 3.7-8.6 6.1-12.9 9.1-23.2 16.5-46.4 33-69.5 49.5 39.2 48.7 78.4 97.5 117.5 146.2q-46.1 0-92.2 0-64.3-84-128.6-168c37.6-21.3 75.1-42.7 112.9-63.7 6.2-3.7 10.2-10.2 12.7-16.8 3.6-9.3 2.9-19.6 0.5-29.1-1.7-6.9-7.2-12.5-13.9-14.8-11.5-4-23.8-3.9-35.8-4.4-32.5-0.3-65.1-0.1-97.6-0.1 0 98.9 0 197.9 0 296.9-26.9 0-53.9 0.1-80.8 0z"/>
		<path id="Layer" fill-rule="evenodd" class="s0" d="m461.8 83.4c31.4-3 63.9 2.6 91.8 17.4 24.9 13 46 33.4 59.5 58.1 22.5 40.4 23.9 91.7 4.3 133.5-14.9 32.1-42.1 58-74.4 72-48.3 21.1-107.2 17.7-151.9-10.7-27.2-17.1-48.4-43.6-58.9-74.1-11.7-33.7-10.8-71.8 2.8-104.9 11.4-28 31.9-52.1 57.5-68.1 20.8-13.1 44.8-20.9 69.3-23.2zm2.1 69.6c-15.6 2.4-30.3 10.1-40.8 21.9-12.9 14.3-19.3 33.7-19.5 52.8-0.6 20.2 6.1 40.8 19.5 56.1 10.8 12.6 26.1 21.2 42.4 23.8 19.1 3 39.7-0.7 55.5-12 14.5-10.3 24.3-26.4 28.3-43.6 4.3-18.8 2.9-39.2-5.3-56.8-7-15.3-19.1-28.3-34.2-35.7-14.1-7.1-30.4-8.9-45.9-6.5zm351.6-68.4c24.6-4.1 50.3-1.8 73.9 6.2 30 10.1 56 31.3 71.8 58.7 11.4 19.3 17.9 41.1 20 63.3 2.6 28.1-1.1 57-12.7 82.9-12.4 28.6-34.8 52.8-62.7 66.8-21.5 10.8-45.6 15.7-69.5 15.4-29.2 0-58.8-8.4-82.1-26.2q0 52.3 0 104.6-40.2 0-80.5 0 0-184.2 0-368.3 40.3 0 80.5 0 0 13.3 0 26.7c16.9-15.7 38.5-26.2 61.3-30.1zm-0.4 68.4c-19.7 2.8-37.9 14.5-48.4 31.5-18.2 29.5-16.3 70.7 5.8 97.6 10.7 13.2 26.2 22.4 43 25.3 18.8 3.2 39.1-0.1 55.1-10.9 14.9-10.1 25.2-26.2 29.3-43.6 4.4-18 3.4-37.4-3.6-54.5-6.4-15.8-18.2-29.6-33.3-37.7-14.5-7.9-31.7-10.3-47.9-7.7zm285.1-50.3c35.2-19.7 77.8-24.7 116.9-15.9 34.7 7.8 66.7 28 87.6 56.9 22 29.7 31 68.1 26.5 104.7-74.8 0-149.7 0-224.5 0 3.8 17.6 13.4 34 27.7 45 25.1 19.9 63.5 20.3 89.1 1.2 7.8-5.8 14.2-13.4 19-21.8q28.2 25.2 56.5 50.5c-15.3 18.4-35.1 32.9-57.2 42.1-34.8 14.6-74.8 16.4-111 5.8-33.9-9.9-64.3-32.1-83.1-62.1-24.7-38.5-29-88.7-12.7-131.3 12-31.7 35.6-58.6 65.2-75.1zm40.6 58.9c-14 7.9-24.5 21.1-30.3 36q67.9 0 135.8 0c-8.1-19.6-24.6-35.7-45-42-19.8-6.3-42.4-4.4-60.5 6zm394.2-78.3c17.9-1.8 36.1 0.2 53.5 4.6-9.8 24.7-19.6 49.4-29.4 74.1-20-4.3-41.2-1.4-59.9 6.5-16.7 7.2-31.7 19.8-38.9 36.8-3.2 7.4-4.9 15.4-4.9 23.5q0 71.4 0 142.8-40.2 0-80.5 0 0-141.8 0-283.6 40.3 0 80.5 0 0 18.4 0 36.8c22.3-20.3 49.1-37.8 79.6-41.5z"/>
		<path id="Layer" fill-rule="evenodd" class="s0" d="m3.4 499.8q51.9 0 103.8 0 0 5.5 0 11-22.9 0-45.8 0 0 64.5 0 129-6.1 0-12.2 0c0-43 0-86 0-129q-22.9 0-45.8 0 0-5.5 0-11zm270.1 44.8c18.4-24 56.3-30.4 81.1-12.9 4.5 3.3 8.5 7.2 12 11.6q-4.5 2.8-9 5.7c-12.2-16.3-35.7-20.8-54-13.3-13.2 5-23.6 16.3-27.7 29.8-5.3 16.9-2.1 36.8 9.8 50.3 13.6 15.9 38 20.7 56.8 11.7 5.9-2.7 11.2-7 15.1-12.3q4.6 2.9 9.3 5.7c-8.3 10.3-19.9 18-32.9 20.4-19.9 3.7-41.8-2.1-56-16.7-20.7-20.8-22.4-57-4.5-80zm487.8-22c17.6-2.7 36.7 1.6 49.9 13.8 23.8 21.8 25.2 62.8 4.3 87-21.3 24.7-63.9 25.4-86.3 1.9-19.7-20.6-21.7-54.9-6.3-78.6 8.5-13.1 23-21.9 38.4-24.1zm1.3 10.3c-15.3 2.3-28.6 13.4-33.8 27.9-4.8 12.8-5.1 27.4-0.8 40.4 3.4 10 10.1 19 19.3 24.4 10.9 6.5 24.4 7.9 36.6 4.9 10.8-2.7 20.5-9.8 26.3-19.3 7.6-12.3 9.4-27.6 6.6-41.6-2.3-11.6-8.6-22.5-18.4-29.3-10.3-7.3-23.6-9.4-35.8-7.4zm273.3-10.4c17.5-2.5 36.5 1.9 49.6 14.3 23.9 22.3 24.8 64.2 2.6 88-21.9 23.7-64.1 23.5-85.8-0.4-18.7-20.4-20.6-53.4-6.2-76.7 8.6-13.8 23.7-23.1 39.8-25.2zm1.1 10.4c-13.1 1.8-25.1 10.1-31.4 21.8-6.4 11.4-7.9 25.2-5.8 38 2.1 12.5 8.8 24.7 19.6 31.8 19.8 13.3 50.3 8.8 63.6-11.7 8.5-12.4 10.6-28.3 7.8-42.9-2.3-11.6-8.5-22.6-18.3-29.5-10.1-7.3-23.3-9.5-35.5-7.5zm126.1 9.1c20.4-23.4 59.5-27 84-7.9 2.9 2.3 5.6 4.9 8.2 7.5q-4.3 3.4-8.5 6.8c-9.6-10.4-23.6-16.5-37.7-16.2-13 0.1-26.1 5.3-35.1 15-17.9 19-17.6 52.1 0.8 70.7 10.8 11.1 27.2 16.1 42.5 13.7 9.9-1.5 19.3-6.2 26.7-13q0-13.4 0-26.8c-13 0-26 0-38.9 0q-0.1-5.1 0-10.1 25.3 0 50.6 0c0 13.7 0 27.4 0 41.2-22.1 24.2-63.5 26-87.8 4.2-23.9-21-25.8-61.5-4.8-85.1zm343.1-7.1c9.1-10.3 23.7-13.8 37.1-12.9 13.9 0.6 27.7 6.2 37.3 16.4q-3.4 4-6.8 8.1c-8.1-9.5-20.5-14.2-32.8-14.5-8.6-0.3-17.8 1.9-24 8.1-4.9 4.6-7.2 12-4.8 18.3 2 5.1 6.9 8.1 11.7 10.2 10.2 4.2 21.2 5.9 31.6 9.3 9.5 3.1 19.5 7.6 24.6 16.5 6.8 12.5 3.8 30-7.6 38.8-9.5 7.4-22.1 9.3-33.8 9.1-16-0.1-32.5-6.1-43.1-18.4q3.6-4.1 7.2-8.3c9.9 10.9 24.6 17.2 39.3 16.6 8.3-0.3 17.3-2.2 23.4-8.2 7.5-7.3 8.3-21.3 0-28.4-7.5-6.3-17.5-8.2-26.8-10.7-10.8-2.7-22.5-5.1-31.3-12.5-10.8-9.2-10.5-27.3-1.2-37.5zm-1367.3-10.5q38.7 0 77.3 0 0 5.1 0 10.3-32.8 0-65.6 0 0 20.3 0 40.6 32.1 0.1 64.3 0.1 0 5.1 0 10.3-32.2 0-64.3 0 0 21.9 0 43.8 32.8 0 65.6 0 0 5.2 0 10.3-38.6 0.1-77.3 0 0-57.7 0-115.4zm272.3 0q5.8 0 11.6 0 0 25.5 0 50.9 37.5 0.1 75 0 0-25.4 0-50.9 5.7 0 11.4 0 0 57.7 0 115.4-5.7 0-11.4 0 0-27.1 0-54.3-37.5 0-75 0c0 18.1 0 36.2 0 54.3q-5.8 0-11.6 0 0-57.7 0-115.4zm154.1 0q5.8 0 11.6 0 37 48.2 74 96.4c0-32.1 0-64.3 0-96.4q5.8 0 11.6 0 0 57.7 0 115.4-5.7 0-11.3 0.1c-24.8-32.7-49.5-65.3-74.3-97.9 0 32.6 0 65.2 0 97.8q-5.8 0-11.6 0 0-57.7 0-115.4zm315.3 0q5.8 0 11.6 0 0 52.5 0 105.1 29 0 58.1 0 0 5.2 0 10.3-34.9 0.1-69.7 0 0-57.7 0-115.4zm428.2 0q5.8 0 11.6 0 0 57.7 0 115.4-5.8 0-11.6 0 0-57.7 0-115.4zm67.6 0q38.6 0 77.2 0 0 5.1 0 10.3-32.8 0-65.7 0 0 20.3 0 40.6 32.2 0.1 64.5 0.1-0.1 5.1 0 10.3c-21.5 0-43 0-64.5 0q0 21.9 0 43.8 32.9 0 65.7 0 0 5.2 0 10.3-38.6 0.1-77.2 0-0.1-57.7 0-115.4z"/>
	</g>
</svg>