<svg version="1.2" xmlns="http://www.w3.org/2000/svg" viewBox="0 0 1544 598" width="1544" height="598">
	<title>logo-ross-svg</title>
	<style>
		.s0 { fill: #0081c6 } 
	</style>
	<g id="Layer">
		<path id="Layer" class="s0" d="m396.5 83.2c38-49.3 98.6-83.2 166.4-83.2 115 0 207.5 93.5 207.5 207.6 0 115.1-92.5 207.5-207.5 207.5-115 0-207.5-93.5-207.5-207.5 0-20.6 2.1-30.9 6.2-52.4 4.1-19.6 22.6-30.9 41.1-30.9 22.6 0 46.2 20.6 40 52.4-2 10.3-4.1 20.6-4.1 30.9 0 69.8 55.5 124.3 124.3 124.3 68.8 1 124.3-54.5 124.3-124.3 0-69.9-55.5-124.4-124.3-124.4z"/>
		<g id="Layer">
			<path id="Layer" class="s0" d="m82.2 374c0 22.6-18.5 41.1-41.1 41.1-22.6 0-41.1-18.5-41.1-41.1v-207.5c0-22.6 18.5-41.1 41.1-41.1 22.6 0 41.1 18.5 41.1 41.1z"/>
			<path id="Layer" class="s0" d="m242.4 118.2c4.1-4.1 6.2-9.3 6.2-14.4 0-11.3-9.2-20.6-20.5-20.6h-187c-22.6 0-41.1-18.5-41.1-41.1 0-22.6 18.5-41.1 41.1-41.1h187c57.5 0 103.7 46.3 103.7 103.8 0 30.8-13.4 58.6-34.9 78.1l-99.7 99.7q-9.2 7.7-9.2 21.6c0 16.4 13.3 29.8 29.8 29.8h71.9c22.6 0 41.1 18.5 41.1 41.1 0 22.6-18.5 41.1-41.1 41.1h-71.9c-62.7 0-113-51.4-113-114.1 0-32.9 15.4-61.6 33.9-80.1z"/>
		</g>
		<path id="Layer" class="s0" d="m1215.1 201.4c-39-15.4-65.7-52.4-65.7-96.6 0-58.6 46.2-104.8 103.8-104.8h186.9c22.6 0 41.1 18.5 41.1 41.1 0 23.6-18.5 41.1-41.1 41.1h-186.9c-11.3 0-20.6 9.3-20.6 20.6 0 8.2 5.1 15.4 12.3 18.5l164.4 75c42.1 16.4 72.9 57.5 72.9 105.8 0 62.7-50.3 113-113 113h-177.7c-22.6 0-41.1-18.5-41.1-41.1 0-22.6 18.5-41.1 41.1-41.1h177.7c16.5 0 29.8-13.3 29.8-29.8 0-13.3-8.2-23.6-20.5-28.7z"/>
		<path id="Layer" class="s0" d="m859.8 201.4c-39.1-15.4-65.8-52.4-65.8-96.6 0-58.6 46.2-104.8 103.8-104.8h186.9c22.6 0 41.1 18.5 41.1 41.1 0 23.6-18.5 41.1-41.1 41.1h-186.9c-11.3 0-20.6 9.3-20.6 20.6 0 8.2 5.2 15.4 12.3 18.5l164.4 75c42.1 16.4 72.9 57.5 72.9 105.8 0 62.7-50.3 113-113 113h-177.7c-22.6 0-41.1-18.5-41.1-41.1 0-22.6 18.5-41.1 41.1-41.1h177.7c16.5 0 29.8-13.3 29.8-29.8 0-13.3-8.2-23.6-20.5-28.7z"/>
		<g id="Layer">
			<path id="Layer" class="s0" d="m24.7 570.3h15.4c20.5 0 37-16.4 37-37 0-20.5-16.5-37-37-37h-27.7c-7.2 0-12.4-5.1-12.4-12.3 0-7.2 5.2-12.3 12.4-12.3h27.7c33.9 0 61.6 27.7 61.6 61.6 0 33.9-27.7 61.7-61.6 61.7h-27.7c-7.2 0-12.4-5.2-12.4-12.4v-61.6c0-7.2 5.2-12.3 12.4-12.3 7.1 0 12.3 5.1 12.3 12.3z"/>
			<path id="Layer" class="s0" d="m252.7 570.3h54.4c7.2 0 12.4 5.1 12.4 12.3 0 7.2-5.2 12.4-12.4 12.4h-66.7c-7.2 0-12.3-5.2-12.3-12.4v-61.6c0-7.2 5.1-12.3 12.3-12.3h66.7c7.2 0 12.4 5.1 12.4 12.3 0 7.2-5.2 12.3-12.4 12.3h-54.4z"/>
			<path id="Layer" class="s0" d="m240.4 496.3c-7.2 0-12.3-5.1-12.3-12.3 0-7.2 5.1-12.3 12.3-12.3h66.7c7.2 0 12.4 5.1 12.4 12.3 0 7.2-5.2 12.3-12.4 12.3z"/>
			<path id="Layer" class="s0" d="m1190.5 570.3h54.4c7.2 0 12.4 5.1 12.4 12.3 0 7.2-5.2 12.4-12.4 12.4h-66.7c-7.2 0-12.4-5.2-12.4-12.4v-61.6c0-7.2 5.2-12.3 12.4-12.3h66.7c7.2 0 12.4 5.1 12.4 12.3 0 7.2-5.2 12.3-12.4 12.3h-54.4z"/>
			<path id="Layer" class="s0" d="m1178.2 496.3c-7.2 0-12.4-5.1-12.4-12.3 0-7.2 5.2-12.3 12.4-12.3h66.7c7.2 0 12.4 5.1 12.4 12.3 0 7.2-5.2 12.3-12.4 12.3z"/>
			<path id="Layer" class="s0" d="m644.1 496.3c-7.2 0-12.4-5.1-12.4-12.3 0-7.2 5.2-12.3 12.4-12.3h66.7c7.2 0 12.3 5.1 12.3 12.3 0 7.2-5.1 12.3-12.3 12.3z"/>
			<path id="Layer" class="s0" d="m1084.7 570.3h54.4c7.2 0 12.4 5.1 12.4 12.3 0 7.2-5.2 12.4-12.4 12.4h-66.7c-7.2 0-12.4-5.2-12.4-12.4v-98.6c0-7.2 5.2-12.3 12.4-12.3 7.2 0 12.3 5.1 12.3 12.3z"/>
			<path id="Layer" class="s0" d="m656.4 582.6c0 7.2-5.2 12.4-12.3 12.4-7.2 0-12.4-5.2-12.4-12.4v-61.6c0 2-1-12.3 12.4-12.3h66.7c7.2 0 12.3 5.1 12.3 12.3 0 7.2-5.1 12.3-12.3 12.3h-54.4z"/>
			<g id="Layer">
				<path id="Layer" class="s0" d="m139.7 582.6c0 7.2-5.1 12.4-12.3 12.4-7.2 0-12.3-5.2-12.3-12.4v-61.6c0-7.2 5.1-12.3 12.3-12.3 7.2 0 12.3 5.1 12.3 12.3z"/>
			</g>
			<g id="Layer">
				<path id="Layer" class="s0" d="m188 506.6c1-1 2.1-3.1 2.1-4.1 0-3.1-3.1-6.2-6.2-6.2h-55.5c-7.2 0-12.3-5.1-12.3-12.3 0-7.2 5.1-12.3 12.3-12.3h55.5c17.4 0 30.8 13.3 30.8 30.8 0 9.2-4.1 17.5-10.3 22.6l-29.8 29.8q-3 3.1-3 6.2c0 5.1 4.1 9.2 9.2 9.2h21.6c7.2 0 12.3 5.1 12.3 12.3 0 7.2-5.1 12.4-12.3 12.4h-21.6c-18.5 0-33.9-15.4-33.9-33.9 0-9.3 5.1-18.5 10.3-23.7z"/>
			</g>
			<g id="Layer">
				<path id="Layer" class="s0" d="m895.7 582.6c0 7.2-5.1 12.4-12.3 12.4-7.2 0-12.3-5.2-12.3-12.4v-61.6c0-7.2 5.1-12.3 12.3-12.3 7.2 0 12.3 5.1 12.3 12.3z"/>
			</g>
			<g id="Layer">
				<path id="Layer" class="s0" d="m944 506.6c1-1 2-3.1 2-4.1 0-3.1-3-6.2-6.1-6.2h-55.5c-7.2 0-12.3-5.1-12.3-12.3 0-7.2 5.1-12.3 12.3-12.3h55.5c17.4 0 30.8 14.3 30.8 30.8 0 9.2-4.1 17.5-10.3 22.6l-29.8 29.8q-3.1 3.1-3.1 6.2c0 5.1 4.2 9.2 9.3 9.2h21.6c7.2 0 12.3 5.1 12.3 12.3 0 7.2-5.1 12.4-12.3 12.4h-21.6c-18.5 0-33.9-15.4-33.9-33.9 0-9.3 5.1-18.5 10.3-23.7z"/>
			</g>
			<path id="Layer" class="s0" d="m353.4 531.3c-11.3-4.1-19.5-15.5-19.5-28.8 0-17.5 14.3-30.8 30.8-30.8h55.4c7.2 0 12.4 5.1 12.4 12.3 0 7.2-5.2 12.3-12.4 12.3h-55.4c-3.1 0-6.2 3.1-6.2 6.2 0 2 1 5.1 4.1 6.2l49.3 22.6c12.3 5.1 21.6 17.4 21.6 31.8 0 18.5-15.4 33.9-33.9 33.9h-52.4c-7.2 0-12.3-5.1-12.3-12.3 0-7.2 5.1-12.3 12.3-12.3h52.4c5.1 0 9.2-4.1 9.2-9.3 0-4.1-2-7.2-6.1-8.2z"/>
			<path id="Layer" class="s0" d="m466.4 531.3c-11.3-4.1-19.6-15.5-19.6-28.8 0-17.5 13.4-30.8 30.9-30.8h55.4c7.2 0 12.3 5.1 12.3 12.3 0 7.2-5.1 12.3-12.3 12.3h-55.4c-3.1 0-6.2 3.1-6.2 6.2 0 2 1 5.1 4.1 6.2l49.3 22.6c12.3 5.1 21.6 17.4 21.6 31.8 0 18.5-15.4 33.9-33.9 33.9h-52.4c-7.2 0-12.3-5.1-12.3-12.3 0-7.2 5.1-12.3 12.3-12.3h52.4c5.1 0 9.2-4.1 9.2-9.3 0-4.1-2-7.2-6.1-8.2z"/>
			<path id="Layer" class="s0" d="m1290.1 531.3c-11.3-4.1-19.5-15.5-19.5-28.8 0-17.5 14.4-30.8 30.8-30.8h55.5c7.2 0 12.3 5.1 12.3 12.3 0 7.2-5.1 12.3-12.3 12.3h-55.5c-3.1 0-6.1 3.1-6.1 6.2 0 2 1 5.1 4.1 6.2l49.3 22.6c12.3 5.1 21.5 17.4 21.5 31.8 0 18.5-15.4 33.9-33.8 33.9h-52.4c-7.2 0-12.4-5.1-12.4-12.3 0-7.2 5.2-12.3 12.4-12.3h52.4c5.1 0 9.2-4.1 9.2-9.3 0-4.1-2.1-7.2-6.2-8.2z"/>
			<path id="Layer" class="s0" d="m1403.1 531.3c-11.3-4.1-19.5-15.5-19.5-28.8 0-17.5 13.4-30.8 30.8-30.8h55.5c7.2 0 12.3 5.1 12.3 12.3 0 7.2-5.1 12.3-12.3 12.3h-55.5c-3.1 0-6.1 3.1-6.1 6.2 0 2 1 5.1 4.1 5.1l49.3 22.6c12.3 5.2 21.5 17.5 21.5 31.9 0 18.5-15.4 33.9-33.9 33.9h-52.3c-7.2 0-12.4-5.1-12.4-12.3 0-7.2 5.2-12.4 12.4-12.4h52.3c5.2 0 9.3-4.1 9.3-9.2 0-4.1-2.1-7.2-6.2-8.2z"/>
			<path id="Layer" class="s0" d="m746.8 496.3c11.3-14.4 29.8-24.6 49.3-24.6 33.9 0 61.6 27.7 61.6 61.6 0 33.9-27.7 61.7-61.6 61.7-33.9 0-61.7-27.8-61.7-61.7 0-6.1 1.1-9.2 2.1-15.4 1-6.2 7.2-9.2 12.3-9.2 7.2 0 13.4 6.1 12.3 15.4-2 3.1-2 6.1-2 9.2 0 20.6 16.4 37 37 37 20.5 0 36.9-16.4 36.9-37 0-20.5-16.4-37-36.9-37z"/>
		</g>
		<g id="Layer">
			<path id="Layer" fill-rule="evenodd" class="s0" d="m1535.6 513.8c-5.1 5.1-11.3 7.2-17.4 7.2-7.2 0-13.4-2.1-18.5-7.2-5.2-5.1-7.2-11.3-7.2-18.5 0-7.2 3.1-13.4 8.2-18.5 5.1-5.1 11.3-7.2 17.5-7.2 7.1 0 13.3 2.1 18.4 7.2 5.2 5.1 7.2 11.3 7.2 18.5-1 7.2-3 13.4-8.2 18.5zm-32.8-33.9c-4.2 4.1-6.2 9.2-6.2 14.4q0 9.2 6.2 15.4 6.1 6.1 15.4 6.1c6.1 0 10.2-2 14.3-6.1q6.2-6.2 6.2-15.4c0-6.2-2.1-10.3-6.2-14.4-4.1-4.1-9.2-6.2-14.3-6.2q-9.3 0-15.4 6.2zm3 1c2.1 0 4.1 0 8.2 0q4.7 0 6.2 0c2.1 0 4.1 1 5.1 1 2.1 1.1 4.2 4.1 4.2 7.2 0 2.1-1.1 4.1-2.1 5.2-1 1-3.1 2-5.1 2 2 0 3 1.1 4.1 2.1 2 1 2 3.1 2 6.1v5.2h-7.2c0-1 0-2.1 0-4.1q0-3.1 0-3.1c0-1-1-2.1-2-2.1-1 0-1 0-2.1 0h-4.1v10.3h-7.2zm14.4 6.2c-1 0-2-1.1-4.1-1.1h-2.1v8.3h3.1c2.1 0 3.1 0 4.1-1.1 1.1-1 1.1-2 1.1-3 0-2.1-1.1-3.1-2.1-3.1z"/>
		</g>
	</g>
</svg>