<svg version="1.2" xmlns="http://www.w3.org/2000/svg" viewBox="0 0 1535 385" width="1535" height="385">
	<title>royal-caribbean-logo-no-border-svg</title>
	<style>
		.s0 { fill: #0072ba } 
		.s1 { fill: #041556 } 
		.s2 { fill: #fdbb11 } 
		.s3 { fill: none } 
		.s4 { fill: #fefefe } 
	</style>
	<g id="logo-no-border">
		<path id="Fill-1_1_" class="s0" d="m0.9 5.8h1533.3v378.5h-1533.3z"/>
		<path id="Fill-2_1_" class="s1" d="m0.9 5.8h373.7v378.5h-373.7z"/>
		<path id="Fill-3_1_" class="s2" d="m374.6 268h1159.6v116.3h-1159.6z"/>
		<path id="Fill-8_1_" fill-rule="evenodd" class="s1" d="m753.2 295.6h12.9c9.8 0 19.7 1.9 19.7 13.8 0 5.9-5 10.8-10.9 11.8 2 1 3 2 5 4.9l9.8 20.7h-7.9l-7.9-17.7c-1.9-5-4.9-5-8.8-5h-5v22.7h-6.9zm6.9 22.7h6c6.9 0 10.8-3 10.8-7.9 0-4.9-3.9-7.9-9.9-7.9h-6.9z"/>
		<path id="Fill-10_1_" class="s1" d="m838 295.6h9.9l22.7 42.3v-42.3h7.9v52.2h-9.9l-22.7-42.4h-1v42.4h-6.9z"/>
		<path id="Fill-12_1_" fill-rule="evenodd" class="s1" d="m947.5 295.6h7.9l21.7 52.2h-7.9l-4.9-12.8h-24.7l-4.9 12.8h-7.9zm2.9 7.9l-9.8 25.6h20.7z"/>
		<path id="Fill-14_1_" class="s1" d="m1028.4 302.5h-15.8v-6.9h39.4v6.9h-15.8v45.3h-7.8z"/>
		<path id="Clip-17_1_" class="s3" d="m0.9 0.8h1533.3v377.6h-1533.3z"/>
		<path id="Fill-16_1_" class="s1" d="m1098.4 295.6h7.9v52.2h-7.9z"/>
		<path id="Fill-18_1_" fill-rule="evenodd" class="s1" d="m1181.2 348.8c-13.6 0-24.7-11.9-24.7-26.6 0-14.7 11.1-26.6 24.7-26.6 13.6 0 24.6 11.9 24.6 26.6 0 14.7-11 26.6-24.6 26.6zm16.8-27.6c0-11.5-7.5-20.7-16.8-20.7-9.3 0-16.8 9.2-16.8 20.7 0 11.4 7.5 20.7 16.8 20.7 9.3 0 16.8-9.3 16.8-20.7z"/>
		<path id="Fill-19_1_" class="s1" d="m1256.1 295.6h9.9l22.7 42.3v-42.3h6.9v52.2h-8.9l-23.7-42.4v42.4h-6.9z"/>
		<path id="Fill-20_1_" fill-rule="evenodd" class="s1" d="m1364.6 295.6h7.9l21.7 52.2h-7.9l-4.9-12.8h-24.7l-4.9 12.8h-7.9zm3.9 7.9l-9.8 25.6h20.7z"/>
		<path id="Fill-21_1_" class="s1" d="m1441.5 295.6h6.9v45.3h21.7v6.9h-28.6z"/>
		<path id="Fill-22_1_" class="s4" d="m188.2 54.1c13.8 12.8 28.6 26.6 41.4 40.4l-14.8 19.7v1l40.5 17.7 27.6-18.7-16.8-18.7v-1c16.8-11.9 31.6-23.7 47.3-34.5l-7.8 82.8h-234.7l-7.9-82.8c16.7 10.8 30.6 22.6 47.3 34.5v1l-16.7 18.7 27.6 18.7 40.4-17.7v-1l-14.8-19.7c11.8-13.8 27.6-27.6 41.4-40.4z"/>
		<path id="Fill-23_1_" class="s4" d="m303.6 157.6l-2 27.6h-86.8v94.6h42.4c9.9 0 19.8-9.9 17.8-16.8-2-9.8-10.9-15.7-18.7-20.7 1.9 0 30.5-21.7 44.3-30.5-1 5.9-9.8 83.8-10.8 84.7l-101.6 38.5h-2l-99.6-38.5c0-0.9-9.8-78.8-10.8-84.7 13.8 8.8 42.4 30.5 44.4 30.5-7.9 5-16.8 10.9-18.8 20.7-1.9 6.9 7.9 16.8 17.8 16.8h42.4v-94.6h-86.8l-2-27.6z"/>
		<path id="Fill-24_1_" fill-rule="evenodd" class="s4" d="m438.7 108.3c0-26.6-1-31.6-20.7-32.6v-2.9l42.4-1c44.3-1 47.3 20.7 47.3 28.6 0 14.8-8.9 23.6-21.7 28.6l1 1c13.8 23.6 30.6 54.2 59.2 60.1l-1 2.9c-18.8-0.9-32.6 0-42.4-10.8-11.9-11.8-20.7-27.6-24.7-35.5-6.9-14.8-12.8-10.8-25.6-12.8v28.6c0 19.7 0 22.7 24.6 26.6v3h-61.1v-3c20.7-3 20.7-7.9 21.7-26.6zm15.8 22.7c16.7 0 36.5-7.9 36.5-27.6 0-20.7-17.8-28.6-36.5-28.6z"/>
		<path id="Fill-25_1_" fill-rule="evenodd" class="s4" d="m571.3 193c-23.7 0-42.9-18.2-42.9-40.9 0-22.6 19.2-40.9 42.9-40.9 23.8 0 42.9 18.3 42.9 40.9 0 22.7-19.1 40.9-42.9 40.9zm0.5-76.8c-18.7 0-26.6 19.7-26.6 36.4 0 16.8 8.8 37.5 27.6 37.5 17.7 0 25.6-20.7 25.6-35.5 1-16.8-6.9-38.4-26.6-38.4z"/>
		<path id="Fill-26_1_" class="s4" d="m621.1 130c-3-7.9-3.9-9.9-12.8-10.9v-2.9h36.5v2.9c-12.9 1-9.9 8.9-5.9 17.8l16.7 45.3 10.9-31.5c7.9-22.7 8.8-29.6-4-30.6v-3h30.6v3c-7.9 1-9.9 3.9-13.8 10.8l-6.9 15.8-26.6 68c-6.9 16.8-10.9 21.7-17.8 21.7-4.9 0-8.9-3.9-8.9-8.9 0-3.9 2-6.9 5.9-7.8 2 0.9 6.9 4.9 8.9 4.9 4 0 6.9-9.9 7.9-11.8l5.9-13.8z"/>
		<path id="Fill-27_1_" fill-rule="evenodd" class="s4" d="m727.6 147.7c1-19.7-3.9-27.6-17.8-27.6-11.8 0-10.8 5.9-10.8 15.8l-7.9 1c-1 0-3.9 0-3.9-2 0-4.9 19.7-22.7 33.5-22.7 15.8 0 20.7 12.8 20.7 26.6v24.7c0 15.7-1 25.6 14.8 22.6v4q-10.4 2.9-17.8 2.9c-6.9 0-9.8-3.9-10.8-10.8-5.9 5.9-12.8 11.8-22.7 11.8-10.8 0-17.7-9.8-17.7-19.7 0-2.9 0-4.9 1-7.9zm-23.7 15.8c-1 2-1 4.9-1 6.9 0 7.9 3.9 13.8 11.8 13.8 5 0 9.9-3 12.9-6.9v-26.6z"/>
		<path id="Fill-28_1_" class="s4" d="m748.3 192.1v-4c11.8-1 13.8-3.9 13.8-15.8v-74.9c0-7.9 0-9.8-8.9-15.7v-3l19.8-7.9 1.9 1v99.6c0 14.7 1 15.7 13.8 17.7v3z"/>
		<path id="Fill-29_1_" fill-rule="evenodd" class="s4" d="m954.4 147.7c1-19.7-3.9-27.6-17.8-27.6-11.8 0-10.8 5.9-10.8 15.8l-7.9 1c-1 0-3.9 0-3.9-2 0-4.9 18.7-22.7 33.5-22.7 15.8 0 20.7 12.8 20.7 26.6v24.7c0 15.7-2 26.6 14.8 22.6v4q-10.4 2.9-17.8 2.9c-6.9 0-9.8-3.9-10.8-10.8-5.9 5.9-12.8 11.8-22.7 11.8-10.8 0-17.7-9.8-17.7-19.7 0-2.9 0-4.9 1-7.9zm-23.7 15.8c-1 2-1 4.9-1 6.9 0 7.9 3.9 13.8 11.8 13.8 5 0 9.9-3 12.9-6.9v-26.6z"/>
		<path id="Fill-30_1_" class="s4" d="m903.1 108.3h-2.9c-3-19.7-14.8-34.5-35.5-34.5-31.6 0-50.3 26.6-50.3 57.1 0 34.5 26.6 59.2 51.2 59.2 22.7 0 31.6-16.8 39.5-36.5l2 1c-2 10.8-5 21.7-9.9 31.5-10.8 6-23.7 7.9-35.5 7.9-36.5 0-69-21.7-69-61.1 0-31.5 24.6-63.1 70-63.1 12.8 0 26.6 3 38.4 9.9v28.6z"/>
		<path id="Fill-31_1_" fill-rule="evenodd" class="s4" d="m1370.5 147.7c1-19.7-3.9-27.6-17.7-27.6-11.9 0-10.9 5.9-10.9 15.8l-8.9 1c-0.9 0-3.9 0-3.9-2 0-4.9 19.7-22.7 33.5-22.7 15.8 0 20.7 12.8 20.7 26.6v24.7c0 15.7-2.9 25.6 13.8 24.6v3c-6.9 1.9-10.8 1.9-15.7 1.9-6.9 0-9.9-3.9-10.9-10.8-5.9 5.9-12.8 11.8-22.7 11.8-10.8 0-17.7-9.8-17.7-19.7 0-2.9 0-4.9 1-7.9zm-23.7 15.8c-1 2-1 4.9-1 6.9 0 7.9 4 13.8 11.9 13.8 4.9 0 9.8-3 12.8-6.9v-26.6z"/>
		<path id="Fill-32_1_" class="s4" d="m1002.7 171.4c0 14.7 1 15.7 17.8 17.7v3h-43.4v-4c11.8-1 12.8-3.9 12.8-17.7v-32.6c0-7.8 0-9.8-8.9-15.7v-2l20.7-7.9 2 1-1 20.7c4-8.9 13.8-21.7 24.7-21.7 4.9 0 8.8 3 8.8 7.9 0 4.9-4.9 8.9-8.8 10.8-3-1.9-6.9-5.9-10.9-5.9-14.8 1-13.8 25.7-13.8 27.6z"/>
		<path id="Fill-33_1_" class="s4" d="m1069.8 82.6c0 5-4 8.9-8.9 8.9-4.9 0-8.9-3.9-8.9-8.9 0-4.9 4-8.8 8.9-8.8 4.9 0 8.9 3.9 8.9 8.8zm-28.6 109.5v-3c12.8-2 13.8-3.9 13.8-17.7v-33.6c0-7.8 0-9.8-10.9-15.7v-2l22.7-7.9 2 1v58.2c0 14.7 1 15.7 13.8 17.7v3z"/>
		<path id="Fill-34_1_" fill-rule="evenodd" class="s4" d="m1088.5 96.4c0-7.8 0-9.8-8.9-15.7v-2l19.7-7.9 2 1v50.3c8.9-5 19.7-9.9 29.6-9.9 19.7 0 32.5 17.8 32.5 36.5 0 31.5-28.6 45.3-47.3 45.3-10.8 0-18.7-2.9-27.6-6.9 0 0 0-90.7 0-90.7zm13.8 59.2c0 16.7 2 32.5 21.7 32.5 9.9 0 25.6-7.9 25.6-32.5 0-21.7-13.8-34.5-30.5-34.5-5.9 0-10.9 2-15.8 3.9z"/>
		<path id="Fill-35_1_" fill-rule="evenodd" class="s4" d="m1172.3 96.4c0-7.8 0-9.8-8.9-15.7v-2l19.8-7.9 1.9 1v50.3c8.9-5 19.8-9.9 29.6-9.9 19.7 0 32.6 17.8 32.6 36.5 0 31.5-28.6 45.3-47.4 45.3-10.8 0-18.7-2.9-27.6-6.9 0 0 0-90.7 0-90.7zm13.8 59.2c0 16.7 2 32.5 21.7 32.5 9.9 0 25.7-7.9 25.7-32.5 0-21.7-13.8-34.5-30.6-34.5-5.9 0-10.9 2-15.8 3.9z"/>
		<path id="Fill-36_1_" fill-rule="evenodd" class="s4" d="m1270.9 146.7c-1 18.7 10.9 35.5 30.6 35.5 8.9 0 15.8-3.9 20.7-10.8l3 1.9c-6.9 11.9-18.8 20.7-32.6 20.7-21.7 0-36.5-17.7-36.5-39.4 0-22.7 15.8-42.4 39.5-42.4 15.8 0 26.6 9.9 26.6 25.6h-50.3zm34.5-13.8c-1.9-7.8-6.9-17.7-15.8-17.7-9.8 0-15.7 9.9-17.7 18.7z"/>
		<path id="Fill-37_1_" class="s4" d="m1405 137.8c0-7.8 0-9.8-8.8-15.7v-2l20.7-7.9 1.9 1-0.9 12.8c9.8-7.9 19.7-13.8 30.5-13.8 20.7 0 21.7 17.8 21.7 27.6v31.6c0 14.7 1 15.7 13.8 17.7v3h-40.4v-3c12.8-2 13.8-3.9 13.8-17.7v-20.7c0-12.9 1-29.6-20.7-29.6-6.9 0-11.8 2-17.8 7.9v42.4c0 14.7 1 15.7 13.8 17.7v3h-41.4v-3c12.8-1 13.8-3.9 13.8-17.7z"/>
		<path id="Fill-4_1_" class="s1" d="m439.7 295.6h6.9v52.2h-6.9z"/>
		<path id="Fill-5_1_" class="s1" d="m499.8 295.6h9.9l22.7 42.3v-42.3h7.8v52.2h-9.8l-23.7-42.4v42.4h-6.9z"/>
		<path id="Fill-6_1_" class="s1" d="m602.4 302.5h-15.8v-6.9h39.4v6.9h-15.7v45.3h-7.9z"/>
		<path id="Fill-7_1_" class="s1" d="m673.4 295.6h28.6v6.9h-21.7v14.7h19.7v6.9h-19.7v16.8h21.7v6.9h-28.6z"/>
	</g>
</svg>