<svg version="1.2" xmlns="http://www.w3.org/2000/svg" viewBox="0 0 1590 402" width="1590" height="402">
	<title>seagate-logo-text-svg</title>
	<style>
		.s0 { fill: #979e96 } 
		.s1 { fill: #6abf4b } 
	</style>
	<path id="Layer" fill-rule="evenodd" class="s0" d="m586.9 214.6c2.8 4.1 4.2 9.7 4.2 16.9 0 5.7-1 10.9-3.1 15.5-2.1 4.5-5 8.5-8.5 11.6-3.5 3.1-7.8 5.6-12.6 7.2-4.8 1.7-10 2.5-15.5 2.5-7.4 0-14.3-1.4-20.9-4.1-6.7-2.8-11.9-6.9-15.7-12.5l12.7-11.5c2.8 4.4 6.4 7.7 10.7 9.7q6.6 3.1 13.6 3.1c2.5 0 5.2-0.4 7.9-1.3 2.7-0.9 5.1-2.2 7.4-3.8 2.1-1.7 3.9-3.7 5.3-6.2 1.5-2.4 2.2-5.3 2.2-8.6q0-7-4.3-10.6c-2.8-2.3-6.3-4.4-10.4-6-4.1-1.6-8.7-3.3-13.6-4.7-4.9-1.5-9.5-3.7-13.6-6.4-4.2-2.8-7.6-6.3-10.4-10.9-2.9-4.6-4.3-10.6-4.3-18.4 0-3.5 0.9-7.2 2.3-11.2 1.5-3.8 3.8-7.5 6.9-10.8 3.1-3.3 7.1-6 12-8.2 4.8-2.2 10.8-3.3 17.7-3.3 6.2 0 12.3 0.9 17.9 2.7 5.8 1.8 10.8 5.5 15.2 10.9l-12.6 11.9c-1.9-3.2-4.7-5.7-8.2-7.6-3.5-1.8-7.6-2.8-12.2-2.8-4.2 0-7.9 0.6-10.7 1.7-3 1.2-5.2 2.7-6.9 4.6-1.7 1.9-3 3.8-3.7 6.1-0.7 2-1 4.1-1 5.9 0 5 1.4 8.9 4.3 11.6 2.8 2.8 6.3 4.9 10.4 6.6 4.1 1.8 8.6 3.3 13.6 4.6 4.9 1.3 9.4 3.2 13.5 5.6 4.1 2.3 7.7 5.6 10.4 10.2zm104.2 35.2h61.2v15.2h-76.7v-119.4h73.9v15.2h-58.4v35.5h54.3v15.2h-54.3zm194.6-104.2l49.1 119.3h-18.1l-11.5-29.4h-54.5l-11.3 29.4h-18.1l50.4-119.3zm13.7 75.7l-21.3-54.8h-0.3l-21.6 54.8zm168.4-7.9v-14.9h40.9v58.8c-2.7 1.7-6 3.4-9.5 4.7-3.5 1.3-7.2 2.3-11 3.4-3.8 0.9-7.7 1.6-11.6 2-3.8 0.5-7.6 0.8-11 0.8-9.8 0-18.4-1.6-26-5-7.7-3.4-14-8-19.3-13.7-5.2-5.8-9.3-12.6-12-20.1-2.6-7.5-4.1-15.6-4.1-24 0-8.8 1.5-17.1 4.4-24.8q4.5-11.4 12.3-19.8c5.2-5.6 11.5-10.1 18.8-13.3q11-4.9 24.2-4.9c10.6 0 19.2 1.4 25.8 4.2 6.7 2.8 12.3 6.4 16.8 11.3l-11 12.4c-4.8-4.7-9.9-8-15.1-9.9-5.4-1.9-10.9-2.8-16.7-2.8-6.6 0-12.5 1.3-17.8 3.8q-7.8 3.8-13.5 10.2c-3.9 4.3-6.7 9.3-8.8 15-2.1 5.8-3.1 12-3.1 18.5 0 6.7 1.1 13.1 3.4 18.8q3.4 8.6 9.3 15c4.1 4.3 8.8 7.7 14.1 10.1 5.4 2.5 11.3 3.7 17.7 3.7 5.4 0 10.6-0.6 15.5-1.7 5-1 9.2-2.5 12.6-4.5v-33.3zm180.5-67.8l49 119.3h-18.1l-11.4-29.4h-54.6l-11.3 29.4h-18.1l50.5-119.3zm13.7 75.7l-21.3-54.8h-0.3l-21.6 54.8zm83.9-75.7h89.2v15.2h-36.9v104.1h-15.4v-104.1h-36.9zm182.7 104.1h61.3v15.2h-76.8v-119.3h73.9v15.1h-58.4v35.6h54.3v15.1h-54.3z"/>
	<path id="Layer" fill-rule="evenodd" class="s1" d="m202.6 402c-4.8-18.9-9.5-37.4-14-55.6 5-2.5 9.1-4.4 14.4-7.2 22.4-9.8 44-21.3 64.1-35.6 25.1-17.9 48.6-37.9 69.1-61.5 16.1-18.4 29.3-38.9 37-62.9 5.1-15.9 7.6-32.3 5.3-49.1-1.8-14-6.7-26.7-14.4-38.3-9.2-14-21-24.7-35.6-32.4-18.2-9.6-37.6-13.1-57.6-12.5-17.8 0.7-35.1 4.7-51.8 11.2-30.8 11.7-59 28.5-86.2 47.6-7.9 5.6-15.2 11.9-21.4 19.4-3.4 4.1-6.1 8.7-7.2 14.2-1.9 9.1 3.1 16.2 12.1 16.6 6.2 0.3 11.9-2.2 17.4-4.9 17.1-8.4 32.5-19.7 48.3-30 13.2-8.6 26.3-16.8 40.7-22.9 14.2-5.8 28.8-9.1 44.1-6.4 16.7 2.9 30.1 11 38.3 27.1 5.7 11.2 6.2 23.1 3.1 35.2-3.4 13.8-11 25-20.2 35.2-12.4 14.2-26.8 25.9-42.8 35.7-16.7 10.1-33.2 20.6-50.3 30-20.1 10.9-41.3 18.8-63 25.4-18.3 5.4-36.8 7.9-55.7 6.2-15.8-1.5-30.8-6.4-44-15.8-11.8-8.7-20.6-20-26-34.2-8.2-21.8-7.7-44-2.5-66.4 5.9-25.4 18.2-47.2 33.3-67.5 11.6-15.7 25.1-29.4 39.3-41.9 20.2-17.8 41.9-33.9 64.9-47.4 7.8-4.6 15.8-9 23.2-13.3 2.5 5.6 5.1 10.9 7.6 16.4-6.9 3.8-13.7 7.5-20.4 11.3-28.8 16.7-55.1 36.8-78.5 61-12.7 13.1-23.6 27.9-31.7 44.5-8.6 17.4-13.1 36-11.1 55.7 2.2 21.5 11.8 38.2 30.9 48.1 11.3 5.8 23.5 7.6 36 7.3 17.3-0.4 33.5-5.4 49.6-11.5 23.9-9 46.2-21.3 68-35 12.7-8 25.4-16.3 36.2-27 5.6-5.8 11.3-11.5 14.3-19.6 5.2-14.2-2.2-26.4-16.7-27.9-7.9-0.7-15.1 2-22.1 5.3-18.5 9-35.1 21.3-52.4 32.3-13.1 8.6-26.6 16.8-41 22.7-10 4.1-20.5 6.6-31.3 5.3-18.7-2.2-30.4-17.7-28.4-37.1 1.5-15.3 8.7-27.9 18.3-39.1 10.8-12.4 23.2-22.5 36.6-31.4 20.7-13.7 41.4-26.8 63.9-37.2 25.9-12.1 52.4-21.7 81-24.4 20.6-1.9 41-0.7 61.2 4.8 17.8 4.8 34.2 12.6 48.8 24 14.7 11.3 26.5 25.3 35.4 41.8 8 15.1 12.5 31.1 14 48.2 1.4 18-0.6 35.7-5.7 52.8-4.8 16.8-11.4 32.8-20.3 47.7-12.5 20.8-27.2 39.7-44.3 56.6-17.3 17.2-34.9 34.2-54.7 48.3-25.7 18.6-52.5 35-81.5 47.5-7.8 3.7-15.4 7.1-23.6 10.6z"/>
</svg>