<svg version="1.2" xmlns="http://www.w3.org/2000/svg" viewBox="0 0 1508 259" width="1508" height="259">
	<title>see-sealedaircorplockup-01-svg</title>
	<defs>
		<clipPath clipPathUnits="userSpaceOnUse" id="cp1">
			<path d="m0 18.93h258.62v215.73h-258.62z"/>
		</clipPath>
		<clipPath clipPathUnits="userSpaceOnUse" id="cp2">
			<path d="m0 18.93h258.62v215.73h-258.62z"/>
		</clipPath>
		<clipPath clipPathUnits="userSpaceOnUse" id="cp3">
			<path d="m350.07 36.86h1157.93v181.45h-1157.93z"/>
		</clipPath>
		<clipPath clipPathUnits="userSpaceOnUse" id="cp4">
			<path d="m350.07 36.86h1157.93v181.45h-1157.93z"/>
		</clipPath>
	</defs>
	<style>
		.s0 { fill: #c9282d } 
		.s1 { fill: #028998 } 
		.s2 { fill: #99cfd6 } 
		.s3 { fill: #008996 } 
		.s4 { fill: none;stroke: #008996;stroke-width: 4.5 } 
	</style>
	<g id="SEE_Mark">
		<g id="Clip-Path" clip-path="url(#cp1)">
			<g id="Layer">
				<g id="Clip-Path" clip-path="url(#cp2)">
					<g id="Layer">
						<path id="Layer" class="s0" d="m223.9 151.4c-8.5 16.7-21.9 30.5-38.5 39.3-16.5 8.8-35.4 12.4-54.1 10.1-18.6-2.3-36.1-10.2-50-22.8 21.6 11.6 47.2 13.5 70.3 5.1 23.1-8.3 41.5-26.1 50.7-48.8 9.2-22.8 8.2-48.4-2.6-70.4-10.9-22-30.6-38.4-54.2-45 10.6 0.4 21.1 2.6 30.9 6.6 9.9 4 19 9.6 26.9 16.7 7.9 7.1 14.5 15.5 19.5 24.9 5.1 9.4 8.4 19.5 9.9 30.1 2.7 18.5-0.4 37.5-8.8 54.2z"/>
						<path id="Layer" class="s1" d="m85.9 46.2c-4.5 1.9-8.9 4.3-12.9 7.2-4.1 2.9-7.8 6.3-11.1 10-3.3 3.8-6.1 7.8-8.5 12.2 8.6-24.3 29.6-42.2 55-46.8 25.4-4.6 51.4 4.6 68.1 24.3 16.6 19.7 21.5 46.8 12.7 71.1-8.8 24.2-29.9 41.9-55.3 46.4q-2.7 0.5-5.5 0.7c16.6-4.3 30.8-14.9 39.7-29.4 8.9-14.6 11.9-32 8.2-48.7-3.6-16.7-13.5-31.4-27.7-40.9-14.2-9.5-31.5-13.2-48.4-10.3-4.9 0.8-9.7 2.2-14.3 4.2z"/>
						<path id="Layer" class="s1" d="m146.4 88.3v-2.9h-1.1v-0.4h2.7v0.4h-1.1v2.9h-0.5z"/>
						<path id="Layer" class="s1" d="m148.4 88.3v-3.3h0.7l0.8 2.3c0 0.2 0.1 0.4 0.1 0.5q0-0.1 0.1-0.1 0-0.1 0-0.2 0 0 0.1-0.1 0 0 0-0.1l0.8-2.3h0.6v3.3h-0.5v-2.8l-1 2.8h-0.4l-0.9-2.8v2.8z"/>
						<path id="Layer" fill-rule="evenodd" class="s1" d="m143.6 135.9q-0.1 0.8-0.3 1.6-0.3 0.8-0.7 1.5-0.4 0.8-0.9 1.4-0.6 0.7-1.2 1.2-0.2 0.2-0.5 0.4-0.3 0.2-0.6 0.4-0.3 0.2-0.6 0.3-0.2 0.2-0.6 0.3-0.2 0.1-0.4 0.2-0.2 0-0.4 0.1-0.2 0.1-0.4 0.1-0.2 0.1-0.4 0.1-0.2 0-0.5 0.1-0.2 0-0.4 0-0.2 0.1-0.5 0.1-0.2 0-0.4 0h-75.7q-0.5 0-0.9 0-0.5 0-0.9-0.1-0.5 0-0.9 0-0.5-0.1-0.9-0.1-0.4-0.1-0.8-0.2-0.3-0.1-0.7-0.3-0.3-0.2-0.7-0.4-0.3-0.2-0.6-0.5l-0.3-0.3q-0.1-0.1-0.2-0.1-0.1-0.1-0.2-0.2-0.1-0.1-0.1-0.2-0.1-0.1-0.2-0.2-0.1-0.1-0.1-0.2-0.1-0.1-0.2-0.2-0.1-0.1-0.1-0.2-0.1-0.1-0.1-0.2-0.2-0.2-0.3-0.5 0-0.2-0.1-0.4-0.1-0.2-0.2-0.4 0-0.3-0.1-0.5-0.1-0.5-0.1-0.9-0.1-0.4-0.1-0.9-0.1-0.4-0.1-0.9 0-0.5 0-0.9v-1.4c-0.1 0.3-0.1 0.5-0.1 0.7q0 0.2-0.1 0.4 0 0.1-0.1 0.3 0 0.2-0.1 0.4 0 0.2-0.1 0.4 0 0.1-0.1 0.3 0 0.2-0.1 0.4-0.1 0.1-0.2 0.3 0 0.2-0.1 0.3-0.1 0.4-0.3 0.7-0.2 0.3-0.4 0.6-0.2 0.3-0.4 0.6-0.2 0.3-0.4 0.6-0.4 0.7-1 1.2-0.5 0.6-1.1 1-0.7 0.5-1.4 0.8-0.7 0.4-1.4 0.6-0.6 0.1-1.2 0.2-0.6 0.2-1.2 0.2-0.7 0.1-1.3 0.2-0.6 0-1.2 0h-28.3q-0.1 0-0.2 0-0.1 0.1-0.2 0.1-0.1 0-0.2-0.1-0.1 0-0.3 0-0.2 0-0.4 0-0.2 0-0.4-0.1-0.3 0-0.5-0.1-0.2 0-0.4-0.1-0.4-0.1-0.8-0.3-1.2-0.5-2.2-1.3-1-0.9-1.8-2-0.7-1.1-1.1-2.3-0.3-1.3-0.3-2.6h32.9q0.3 0 0.6 0 0.3 0 0.7-0.1 0.3 0 0.6-0.1 0.3-0.1 0.6-0.2 0.1 0 0.1 0 0.1-0.1 0.2-0.1 0.1-0.1 0.2-0.1 0 0 0.1-0.1 0.3-0.2 0.5-0.3 0.2-0.2 0.4-0.5 0.2-0.2 0.4-0.4 0.2-0.3 0.3-0.5 0.2-0.2 0.3-0.4 0-0.3 0.1-0.5 0.1-0.2 0.2-0.4 0-0.3 0-0.5c0.1-0.1 0 0 0.1-0.3 0.1-0.4 0.1-0.8 0.1-0.9 0-0.1 0 0 0-0.3q0-0.4 0-0.7 0-0.2 0-0.4 0-0.3 0-0.5 0-0.2-0.1-0.4 0-0.2-0.1-0.4 0-0.3-0.1-0.5 0-0.3-0.1-0.5-0.1-0.2-0.3-0.4-0.1-0.2-0.2-0.4-0.1-0.2-0.2-0.3-0.1-0.1-0.2-0.2 0-0.1-0.1-0.2-0.1-0.1-0.2-0.2-0.1-0.1-0.1-0.1-0.1-0.1-0.2-0.1 0-0.1-0.1-0.1 0-0.1-0.1-0.1l-0.5-0.4q-0.1-0.1-0.2-0.1-0.1-0.1-0.1-0.1-0.1-0.1-0.2-0.1-0.1-0.1-0.2-0.1-0.3-0.2-0.6-0.3-0.3-0.2-0.6-0.3-0.3-0.1-0.6-0.2-0.3-0.1-0.6-0.2l-23.4-7.4q-0.1 0-0.3-0.1-0.1 0-0.3-0.1-0.1 0-0.2-0.1-0.2 0-0.3-0.1-0.3-0.1-0.5-0.2-0.3-0.1-0.5-0.2-0.2-0.1-0.5-0.2-0.2-0.1-0.5-0.3-0.2-0.1-0.5-0.3-0.3-0.1-0.5-0.3-0.3-0.1-0.6-0.3-0.2-0.2-0.5-0.4-0.2-0.1-0.5-0.4-0.3-0.2-0.5-0.4-0.3-0.2-0.5-0.5-0.2-0.3-0.4-0.5-0.3-0.3-0.5-0.6-0.3-0.3-0.5-0.6-0.2-0.3-0.4-0.6-0.2-0.4-0.3-0.7-0.3-0.8-0.5-1.5-0.1-0.2-0.2-0.4 0-0.2-0.1-0.4 0-0.1-0.1-0.3 0-0.2 0-0.4-0.1-0.3-0.2-0.6 0-0.2-0.1-0.5 0-0.3 0-0.6-0.1-0.3-0.1-0.6c0-0.2 0-0.4 0-0.6q0-0.4 0-0.7 0-1.1 0-2 0-0.4 0-0.7 0-0.3 0-0.7 0.1-0.3 0.1-0.6 0-0.4 0.1-0.7c0-0.5 0.1-1 0.2-1.5q0.1-0.8 0.2-1.5 0.2-0.7 0.5-1.4 0.3-0.8 0.7-1.4 0.4-0.7 0.9-1.3 0.5-0.6 1.1-1.1 0.4-0.4 0.8-0.7 0.4-0.3 0.9-0.6 0.4-0.3 0.9-0.6 0.5-0.2 1-0.4 0.2-0.1 0.3-0.1 0.2-0.1 0.4-0.2 0.1 0 0.3 0 0.1-0.1 0.3-0.1 0.6-0.2 1.2-0.2 0.6-0.1 1.2-0.2 0.6-0.1 1.2-0.1 0.6-0.1 1.2-0.1h75q0.1 0 0.3 0 0.1 0 0.3 0.1 0.1 0 0.3 0 0.1 0 0.3 0h0.3q0.1 0.1 0.3 0.1 0.1 0 0.3 0 0.1 0.1 0.2 0.1 0.2 0.1 0.3 0.1 0.6 0.2 1.1 0.4l0.2 0.1q0.2 0.1 0.3 0.2 0.1 0 0.2 0.1 0.2 0.1 0.3 0.2 0.1 0 0.2 0.1 0.1 0.1 0.3 0.2 0.1 0.1 0.2 0.2 0.1 0.1 0.2 0.1 0.1 0.1 0.2 0.2l0.2 0.2q0.2 0.2 0.4 0.4 0.2 0.2 0.4 0.5 0.2 0.2 0.4 0.4 0.1 0.3 0.3 0.5l0.1 0.2q0.1 0.1 0.2 0.2 0 0.2 0.1 0.3 0.1 0.1 0.1 0.3 0.1 0.1 0.1 0.3l0.2-0.5q0-0.2 0.1-0.4 0.1-0.2 0.2-0.3 0-0.2 0.1-0.4 0.1-0.2 0.2-0.4 0.1-0.1 0.2-0.3 0.1-0.2 0.2-0.3 0.1-0.2 0.2-0.3 0.1-0.2 0.3-0.3 0.3-0.4 0.7-0.7 0.4-0.3 0.8-0.6 0.4-0.2 0.9-0.4 0.5-0.2 1-0.3 0.4 0 0.9-0.1 0.5-0.1 0.9-0.1 0.5 0 0.9-0.1 0.5 0 1 0h29.1q0.1 0 0.2 0 0.1 0 0.3 0 0.1 0 0.2 0 0.1 0 0.3 0 0 0 0 0 0.1 0 0.1 0 0 0 0.1 0 0 0 0 0l0.7 0.1 0.3 0.1 0.6 0.2 0.3 0.1 0.7 0.2 0.2 0.2 0.6 0.3 0.3 0.2q0 0 0.1 0.1 0.1 0 0.2 0.1 0.1 0 0.2 0.1 0 0.1 0.1 0.1h0.1q0.1 0.1 0.2 0.2 0.1 0 0.2 0.1 0.1 0.1 0.2 0.2 0 0.1 0.1 0.2 0.1 0 0.2 0.1 0.1 0.1 0.2 0.2 0 0.1 0.1 0.2 0.1 0.1 0.2 0.2v0.1q0.1 0.1 0.1 0.2 0.1 0.1 0.2 0.2 0.1 0.1 0.2 0.3 0 0.1 0.1 0.2 0.2 0.4 0.4 0.7 0.2 0.4 0.3 0.8 0.2 0.3 0.3 0.7 0.1 0.4 0.1 0.8 0.1 0.5 0.1 0.9 0 0.3 0 0.6h-32.8c-0.2 0.1-0.5 0.1-0.7 0.1q-0.2 0-0.3 0.1-0.2 0-0.3 0.1-0.2 0-0.3 0.1-0.2 0.1-0.3 0.2l-0.3 0.2q0 0.1-0.1 0.1 0 0 0 0.1-0.1 0-0.1 0.1-0.1 0-0.1 0.1-0.1 0.1-0.2 0.2 0 0.1-0.1 0.3-0.1 0.1-0.1 0.3-0.1 0.1-0.1 0.2 0 0.2 0 0.4-0.1 0.2-0.1 0.4 0 0.2 0 0.4 0 0.2 0 0.3v12h26v8.9h-26v13.8q0 0.3 0 0.7 0.1 0.3 0.2 0.6 0.1 0.3 0.2 0.5 0.2 0.3 0.4 0.5 0.1 0 0.1 0 0 0 0 0.1 0 0 0.1 0 0 0 0 0 0.1 0.1 0.3 0.2 0.2 0.1 0.3 0.2 0.2 0 0.4 0.1 0.1 0 0.3 0 0.3 0.1 0.6 0.1 0.3 0 0.6 0 0.3 0.1 0.6 0.1 0.2 0 0.5 0h31.6q0 0.4 0 0.9zm-47.4-0.9v-41.5h-31q-0.2 0-0.3 0-0.2 0-0.4 0.1-0.2 0-0.4 0-0.2 0-0.4 0.1-0.2 0-0.4 0.1-0.2 0-0.4 0.1-0.2 0.1-0.3 0.2-0.2 0.1-0.4 0.3 0 0 0 0.1-0.1 0-0.1 0-0.1 0.1-0.1 0.1 0 0.1-0.1 0.1-0.1 0.1-0.1 0.3-0.1 0.1-0.2 0.2 0 0.2-0.1 0.3 0 0.2-0.1 0.3c-0.1 0.3-0.1 0.5-0.1 0.7 0 0.3 0 12.5 0 12.7h26.1v8.9h-26.1v13.8q0 0.3 0.1 0.5 0 0.2 0 0.4 0.1 0.3 0.2 0.5 0.1 0.2 0.2 0.4 0 0.1 0.1 0.1 0 0.1 0.1 0.2 0 0.1 0.1 0.1 0.1 0.1 0.1 0.2 0.1 0 0.1 0 0.1 0.1 0.1 0.1 0.1 0 0.1 0.1 0.1 0 0.1 0 0.1 0.1 0.2 0.1 0.2 0.1 0.3 0.1 0.1 0.1 0.2 0.1 0.1 0 0.2 0 0.1 0 0.1 0 0 0 0 0 0 0 0.1 0 0 0 0 0 0.3 0.1 0.6 0.1 0.3 0 0.6 0 0.3 0.1 0.6 0.1 0.2 0 0.5 0zm-57.9-22q1.5 0.5 2.8 0.9l1.2 0.5 1.1 0.5q0.5 0.3 1 0.6 0.3 0.2 0.6 0.4 0.3 0.2 0.6 0.4 0.3 0.2 0.6 0.4 0.3 0.3 0.6 0.5 0.1 0.1 0.2 0.2 0 0.1 0.1 0.1 0.1 0.1 0.2 0.2 0.1 0.1 0.1 0.2 0.3 0.2 0.5 0.5 0.2 0.2 0.4 0.5 0.1 0.3 0.3 0.6 0.2 0.3 0.3 0.6 0.2 0.3 0.4 0.7 0.1 0.3 0.2 0.6 0.1 0.3 0.2 0.6 0.1 0.3 0.2 0.6 0.1 0.3 0.2 0.6c0 0.3 0.2 0.5 0.2 0.8v-30.4h-33q-0.2 0-0.5 0-0.3 0-0.6 0.1-0.3 0-0.6 0-0.3 0-0.6 0.1-0.3 0-0.7 0.1-0.3 0.1-0.6 0.3-0.2 0.1-0.5 0.3-0.3 0.2-0.5 0.4-0.1 0.1-0.1 0.1-0.1 0.1-0.2 0.2 0 0-0.1 0.1 0 0.1-0.1 0.1-0.2 0.2-0.3 0.5-0.1 0.2-0.2 0.4-0.1 0.2-0.2 0.5-0.1 0.2-0.1 0.5-0.1 0.3-0.1 0.5 0 0.3-0.1 0.6 0 0.3 0 0.5 0 0.3 0 0.6 0 0.2 0 0.4 0 0.2 0 0.4 0.1 0.3 0.1 0.5 0 0.2 0.1 0.4 0 0.3 0.1 0.5 0.1 0.3 0.2 0.5 0.1 0.3 0.2 0.5 0.1 0.3 0.2 0.5 0.1 0.2 0.3 0.3 0.1 0.2 0.2 0.4 0.2 0.1 0.3 0.3 0.2 0.1 0.3 0.2 0.2 0.1 0.3 0.2 0.1 0.1 0.3 0.2 0.1 0.1 0.3 0.2 0.1 0.1 0.3 0.2 0.2 0.1 0.5 0.3 0.3 0.1 0.6 0.2 0.3 0.1 0.6 0.3 0.3 0.1 0.6 0.2z"/>
						<path id="Layer" class="s2" d="m255 153.3c-7.8 29.8-28 55-55.5 69.2-27.4 14.2-59.6 16.1-88.6 5.3-29-10.8-52-33.3-63.4-62.1 14.8 22.7 37.5 39.1 63.8 46 26.2 6.9 54.1 3.8 78.2-8.6 24-12.5 42.6-33.4 52.1-58.8 9.5-25.4 9.3-53.4-0.7-78.6 16.9 25.9 22 57.7 14.1 87.6z"/>
					</g>
				</g>
			</g>
		</g>
	</g>
	<g id="Corp_Logo">
		<g id="Clip-Path" clip-path="url(#cp3)">
			<g id="Layer">
				<g id="Clip-Path" clip-path="url(#cp4)">
					<g id="Layer">
						<path id="Layer" fill-rule="evenodd" class="s3" d="m1489.3 37.2q1.2 0 2.4 0.2 1.2 0.1 2.3 0.4 1.2 0.3 2.3 0.8 1.1 0.4 2.2 1 1.1 0.6 2.1 1.3 1 0.8 1.9 1.7 0.9 0.8 1.6 1.8 0.8 1 1.4 2.1 1.2 2.2 1.8 4.5 0.7 2.4 0.7 4.9 0 2.4-0.7 4.8-0.6 2.4-1.8 4.5-0.6 1.1-1.4 2.1-0.7 1-1.6 1.9-0.9 0.8-1.9 1.6-0.9 0.7-2 1.3-2.2 1.2-4.5 1.9-2.4 0.6-4.9 0.6-2.4 0-4.8-0.6-2.3-0.7-4.5-1.9-1-0.6-2-1.3-1-0.7-1.9-1.6-0.9-0.9-1.6-1.9-0.8-1-1.4-2.1-1.2-2.1-1.8-4.5-0.7-2.3-0.7-4.8 0-2.4 0.7-4.8 0.6-2.4 1.8-4.5 0.6-1.1 1.4-2.1 0.7-1 1.6-1.9 0.9-0.9 1.9-1.6 1-0.8 2.1-1.3 1.1-0.6 2.2-1.1 1.1-0.4 2.3-0.7 1.2-0.3 2.3-0.5 1.2-0.2 2.4-0.2m0 3.2q-1 0-2 0.1-1 0.1-1.9 0.4-1 0.2-1.9 0.6-1 0.4-1.8 0.9-1 0.5-1.8 1.1-0.8 0.6-1.6 1.3-0.7 0.8-1.3 1.6-0.7 0.8-1.2 1.7-1 1.8-1.5 3.8-0.6 2-0.6 4 0 2.1 0.6 4 0.5 2 1.5 3.8 0.5 0.9 1.2 1.7 0.6 0.9 1.3 1.6 0.7 0.7 1.6 1.3 0.8 0.7 1.7 1.2 1.8 1 3.8 1.5 1.9 0.5 4 0.5 2 0 4-0.5 2-0.5 3.7-1.5 0.9-0.5 1.8-1.2 0.8-0.6 1.5-1.3 0.8-0.7 1.4-1.6 0.6-0.8 1.1-1.7 1-1.8 1.6-3.8 0.5-1.9 0.5-4 0-2-0.5-4-0.6-2-1.6-3.8-0.5-0.9-1.1-1.7-0.6-0.8-1.4-1.6-0.7-0.7-1.6-1.3-0.8-0.6-1.7-1.1-0.9-0.5-1.8-0.9-1-0.4-1.9-0.6-1-0.3-2-0.4-1-0.1-2-0.1zm-8.2 25.9v-20.2h7q0.6 0 1.3 0 0.6 0 1.3 0.1 0.6 0.1 1.3 0.2 0.6 0.1 1.2 0.3 0.4 0.1 0.8 0.3 0.3 0.2 0.7 0.5 0.3 0.2 0.6 0.5 0.2 0.3 0.5 0.6 0.2 0.4 0.4 0.7 0.1 0.4 0.3 0.8 0.1 0.3 0.2 0.7 0 0.4 0 0.8 0 0.6-0.1 1.1-0.1 0.5-0.3 1-0.2 0.5-0.5 1-0.3 0.4-0.7 0.8-0.4 0.4-0.9 0.7-0.5 0.4-1 0.6-0.6 0.2-1.1 0.4-0.6 0.1-1.2 0.1 0.2 0.1 0.5 0.2 0.2 0.1 0.4 0.3 0.2 0.1 0.4 0.3 0.2 0.1 0.4 0.3 0.4 0.4 0.8 0.9 0.4 0.5 0.8 1 0.4 0.5 0.7 1 0.4 0.5 0.7 1.1l2.5 3.9h-4l-1.8-3.2q-0.3-0.6-0.7-1.2-0.4-0.7-0.8-1.2-0.4-0.6-0.9-1.2-0.5-0.5-1-1-0.3-0.2-0.6-0.4-0.3-0.1-0.6-0.2-0.4-0.1-0.7-0.1-0.4-0.1-0.7 0h-1.9v8.5zm3.2-11.3h4q0.5 0 1 0 0.5 0 1-0.1 0.5-0.1 1-0.3 0.5-0.2 0.9-0.5 0.4-0.3 0.7-0.8 0.2-0.5 0.3-1 0.1-0.5 0-1-0.2-0.6-0.5-1-0.1-0.2-0.2-0.3-0.2-0.2-0.4-0.3-0.1-0.2-0.3-0.3-0.2-0.1-0.4-0.2-0.4-0.1-0.9-0.2-0.4 0-0.8-0.1-0.4 0-0.8 0-0.4 0-0.9 0h-3.7zm-943.4 104.3v1.5q0 2.4 0.1 4.8 0.1 2.5 0.4 4.9 0.2 2.5 0.6 4.9 0.3 2.4 0.8 4.8c4.4 15.5 18 17.5 29.4 17.5h65.5c-1.2 5.3-5.9 20.3-20.3 20.3h-54.3c-14.2 0-30.2-1.3-41-16.7-8.9-12.9-9.6-31.4-9.6-49.4 0-25.9 1.2-44 15.8-56.6 14.7-12.6 38-12.6 50.6-12.6 15.7 0 32.2 0.6 44.7 8.6 13.1 8.5 18.8 21.9 18.8 43.4 0 6.6-0.3 14.2-5.9 19.7-3.3 3.3-7.6 4.8-13.8 4.8zm64.9-20.4c8.3 0 8.3-7.2 8.3-9.6q0.1-2.9-0.5-5.6-0.7-2.8-1.9-5.4-1.2-2.5-3-4.7-1.8-2.3-4-4c-8.3-6.6-19.6-6.6-27-6.6h-1.4c-7.4 0-19.9 0-28.7 9.6-6.2 7-6.4 14.4-6.6 22.9l-0.1 3.4zm-139.8-12.8c18.4 5.8 27.3 11.7 31.6 21.1 4.4 8.8 5.3 18.8 5.3 25.6 0 9.3-0.9 22.8-8.7 32.9-8.9 11.4-20 12.4-31.4 12.4h-85.3c-9.5 0-16.5-2.6-20.7-7.6-4.9-5.8-4.8-13.6-4.6-16.6h99.7c12.5 0 18.8-7.2 18.8-21.4 0-7.5-2.1-16.8-18.8-22l-72.1-22.7c-2.6-0.6-14.4-4.7-20.8-13.1-8-9.3-9-23.5-9-33.3 0-11 1.4-23.6 11.3-32.7 8.8-8.6 19.5-9.7 28.9-9.7h78.3c7.6 0 13.7 2.2 18 6.6 5.7 5.9 6.9 14.2 7.1 17.6h-91.6c-5.4 0-11 0.3-15.5 4.6-5.2 4.8-5.2 12.6-5.2 15.2 0 7.8 2.2 16.6 18.1 22l66.6 21.1zm298.9-32.6c6.2 6.2 9.7 17.3 9.7 31.3v71.6c0 2.9 0 11.6-5.1 16.6-4.4 4.4-11.2 5-17.9 5h-67.5c-6.4 0-15.1 0-22.5-6.4-10.1-8.9-11.4-24.1-11.4-36.3 0-10.9 0.8-23.4 11.1-32.4 8.1-7 16.8-7.6 24.3-7.6h61.5v-11.3q0.1-1.8-0.1-3.7-0.2-1.8-0.8-3.6-0.5-1.8-1.4-3.5-0.8-1.6-2-3.1c-4.6-5.9-11-6.6-16-6.6h-66.3c0.5-5.1 3.2-20.3 16.1-20.3h60.6c11.1 0 21.4 4.1 27.7 10.3zm-17.9 62.1h-52.3c-5.5 0-9.9 1.9-12.5 5.2-0.9 1.2-3.7 4.7-3.7 15.9 0 5 0.5 12.3 4.6 16.4q1.1 1.1 2.4 1.9 1.3 0.8 2.7 1.4 1.4 0.6 2.9 1 1.5 0.3 3.1 0.3h42.5c4.9 0 10.4-3.6 10.4-8.8zm710.4-72.7v20.3h-11.2c-8.7 0-19.6 1.2-27.3 10.2-6.5 7.6-7.4 18-7.4 28.1v57.6c0 15.9-11.8 19.2-21.7 19.2q-0.7 0-1.4 0-0.7-0.1-1.4-0.1-0.7-0.1-1.4-0.1-0.7-0.1-1.4-0.2v-84.5c0-12.5 1.5-28.3 13.8-38.9 11.8-10.4 28.7-11.6 40.4-11.6zm-592.9 76.4v1.4q0 2.5 0.1 4.9 0.1 2.5 0.3 4.9 0.3 2.4 0.6 4.9 0.4 2.4 0.9 4.8c4.4 15.5 18 17.5 29.3 17.5h65.6c-1.2 5.3-6 20.3-20.3 20.3h-54.4c-14.1 0-30.2-1.3-40.9-16.8-8.9-12.8-9.6-31.3-9.6-49.3 0-25.9 1.2-44 15.8-56.6 14.6-12.6 38-12.6 50.6-12.6 15.7 0 32.1 0.6 44.7 8.6 13 8.5 18.8 21.9 18.8 43.4 0 6.6-0.4 14.2-5.9 19.7-3.3 3.3-7.6 4.8-13.8 4.8zm64.9-20.4c8.3 0 8.3-7.2 8.3-9.6q0.1-2.9-0.6-5.6-0.6-2.8-1.8-5.4-1.2-2.5-3-4.8-1.8-2.2-4-3.9c-8.3-6.6-19.6-6.6-27-6.6h-1.4c-7.4 0-19.9 0-28.8 9.6-6.2 7-6.3 14.3-6.6 22.9l-0.1 3.4zm398.5 79.1h-32.8l-16.5-40.3-7.2-18.6c-29.4 14.7-73 16.3-86.5 16.4l-0.7 1.9-16.3 40.6h-32.8l67.9-161.5c6.4-15 13.1-19.6 28.6-19.6 14.9 0 22.2 5 28.4 19.6zm-64.5-79.2l-25.3-64.5c-1.6-4.5-3.5-8.6-6.6-8.6-3.2 0-5.1 4-6.7 8.5l-31.3 79.4c19.9-0.9 51.1-4.5 69.9-14.8zm-471.7-78.9c0.9-6.5 4.3-20.9 17.4-20.9h9.9v179h-27.3zm284.1-0.1c0.9-6.4 4.3-20.8 17.4-20.8h9.9v156.3c0 5.5-1.2 12.7-3.8 16.3-4.4 5.6-11.1 6.4-17.8 6.4h-54.5c-20.9 0-34.8-8.6-42.6-26.4-4.4-10.7-6.6-24.8-6.6-43.1 0-14.2 1.2-32.1 10.5-45.4 12.1-17.8 31.6-19.9 45-19.9h42.5v-23.4zm0.1 43.7h-36.5c-12.8 0-21.5 4.2-26.9 12.9-4.2 6.8-6.2 17.3-6.2 33.1 0 15.4 1.3 26 3.8 31.6 7.5 16.6 23.9 16.6 29.3 16.6h24.4q6.7 0 9.1-2.5c2.6-2.2 2.9-6.9 2.9-10.8zm289.3-15q0 0 0.1 0 0-0.1 0-0.1 0.1 0 0.1 0 0-0.1 0.1-0.1v129.6h-27.4v-113.8l0.7-0.2 0.2-0.1 1.2-0.4h0.2l1.3-0.5 1.4-0.6 1.4-0.5q1.8-0.8 3.5-1.7 1.8-0.8 3.5-1.8 1.7-0.9 3.3-2 1.7-1 3.3-2.1l1.1-0.8 1-0.8 1-0.7v-0.1l0.9-0.7 0.2-0.1 0.8-0.7 0.1-0.1q0.4-0.3 0.8-0.7l0.2-0.1 0.7-0.7 0.2-0.2zm-0.1-30.3v14.4l-0.2 0.2-0.2 0.2q-0.3 0.3-0.7 0.6l-0.2 0.2-0.7 0.6-0.2 0.2-0.8 0.7-0.1 0.1-0.9 0.7-0.1 0.1-1 0.7-1 0.8q-0.5 0.4-1.1 0.7-1.6 1.1-3.2 2.2-1.7 1-3.4 2-1.7 0.9-3.4 1.8-1.8 0.8-3.6 1.6l-1.3 0.6-1.4 0.6h-0.1l-1.3 0.5h-0.1l-1.3 0.4h-0.2q-0.3 0.1-0.6 0.2v-30.1z"/>
					</g>
				</g>
			</g>
		</g>
	</g>
	<path id="Layer" class="s4" d="m307.4 4v251"/>
</svg>