<svg version="1.2" xmlns="http://www.w3.org/2000/svg" viewBox="0 0 1604 328" width="1604" height="328">
	<title>sempra-svg</title>
	<style>
		.s0 { fill: #e40032 } 
		.s1 { fill: #001689 } 
	</style>
	<g id="Layer">
		<path id="Symbol" fill-rule="evenodd" class="s0" d="m328.1 164c0 90.4-73.6 164-164.1 164-32.3 0-63.7-9.5-90.7-27.5l-0.5-0.4 0.3-0.5c4.3-7.3 8.7-14.8 13.3-22.1l0.3-0.5 0.6 0.3c22.7 15.5 49.3 23.6 76.7 23.6 75.6 0 137-61.4 137-136.9 0-19.5-4.2-38.8-12.2-56.5-17.4 13.4-48.1 26.7-102.3 30.8 0 0-1-0.1-1.4 0.4 0 0.7 46.2 23 59.9 50.2 27.9 55.9-39 78.9-69.8 86.8-26.7 7-33.4 7-34.6 1.8-1.3-5.6 7.3-7.1 23.2-14.6 10.3-4.8 27-15.2 34.5-22.1 17.4-16.1 18.1-33.7-5.1-49.4-40.9-27.6-123.5 68.2-154.1 107.1-4.4 5.6-8.7 7-11.6 5.8-1.5-0.6-5.1-3.7-1-13.9 1-2.6 4.3-11.1 10.3-23-23.8-29.2-36.8-65.5-36.8-103.4 0-90.4 73.6-164 164-164 47.2 0 92.2 20.5 123.4 56.1l0.4 0.5-0.5 0.4c-7.2 5.5-14.7 10.1-22.4 13.8l-0.5 0.2-0.3-0.4c-26.2-28.1-61.7-43.5-100.1-43.5-75.5 0-136.9 61.4-136.9 136.9 0 28.1 8.5 55.1 24.3 77.8 19.4-30.7 51.2-69.1 99.2-94.5 0.5-0.3 1-0.4 1.3-0.8 0.6-0.7 0-1.5 0-1.5-8.8-13-16.1-26.3-17.3-33.8-9.3-57.4 83.5 31.3 175.6-38.1 0.3-0.3 0.9-0.6 1.5-0.1 0.5 0.4 0.3 1.6 0.2 1.9-0.3 1.1-1.3 5.4-4 10.6 13.2 24 20.2 51 20.2 78.5zm-153.8-79.2c-12.5 0-22.6-8.8-22.6-19.8 0-11 10.1-19.9 22.6-19.9 12.5 0 22.6 8.9 22.6 19.9 0 11-10.1 19.8-22.6 19.8z"/>
		<g id="Layer">
			<path id="Wordmark" fill-rule="evenodd" class="s1" d="m1035.1 66h79.8c45.4 0 74.8 26.4 74.8 67.3v0.6c0 41.6-31 68.5-79 68.5h-34.6v59.6h-41zm113 68.8v-0.6c0-19.7-13.8-31.4-36.9-31.4h-35.1v63.4h36c21.5 0 36-12.6 36-31.4zm153.3 63.6h-36.5v63.6h-41v-196h89.5c24.4 0 44.1 6.8 57 19.8 10.9 10.9 16.7 26.2 16.7 44.4v0.6c0 28.9-14.9 50.4-41.8 60.3l-1.6 0.7 48.1 70.2h-47.8zm44.1-65.3v-0.6c0-18.9-13.1-29.7-35.8-29.7h-44.8v59.7h45.7c21.5 0 34.9-11.3 34.9-29.4zm197.2 84.4h-85.8l-18.2 44.5h-41.6l84-197.4h38.5l84.1 197.4h-42.8zm-42.9-105.2l-28.4 69.3h56.8zm-1069.1 95.4c18.3 14.8 38 22 60.1 22 18.2 0 30-8.1 30-20.7v-0.6c0-12.6-8.8-18.3-41.1-26.5-38-9.7-64.8-19.7-64.8-59.5v-0.5c0-34.9 28-59.2 68.2-59.2 28.3 0 52.5 7.7 72 22.9l-21.2 29.9c-16.6-11.2-33.9-16.9-51.4-16.9-18.6 0-26.9 9.7-26.9 19.3v0.6c0 14.1 9.4 18.5 43.9 27.4 38.3 10 62 23.2 62 58.3v0.6c0 37.5-27.4 60.8-71.6 60.8-32.3 0-61.8-10.3-83.4-29zm168.9-141.5h147.2v36.1h-106.5v43.1h93.8v36.1h-93.8v44.5h108v36.2h-148.7zm345.9 63.1l-57.8 87.8-57.3-87v132.1h-40.2v-196h45l53 85.2 53-85.2h45.1v196h-40.8zm616.5-60.4h-8v-4.1h20.4v4.1h-8v21h-4.4zm17-4.1h4.7l7.7 11.9 7.6-11.9h4.8v25.1h-4.5v-18l-7.9 11.9h-0.1l-7.9-11.8v17.9h-4.4z"/>
		</g>
	</g>
</svg>