<svg version="1.2" baseProfile="tiny-ps" xmlns="http://www.w3.org/2000/svg" viewBox="0 0 1599 628" width="1599" height="628">
	<title>simon-property-seeklogo</title>
	<style>
		tspan { white-space:pre }
		.shp0 { fill: #000000 } 
	</style>
	<path id="Layer" class="shp0" d="M890.07 0.27L607.43 206.82L497.95 127.4L607.43 46.11L685.22 104.48L716.92 81.56L607.43 0.27L434.28 127.4L607.43 252.93L890.07 46.11L999.56 127.4L890.07 206.82L812.29 150.32L780.59 173.24L890.07 252.93L1063.23 127.4L890.07 0.27Z" />
	<g id="Layer">
		<path id="Layer" class="shp0" d="M236.62 433.1C201.19 415.51 164.16 404.85 127.13 404.85C102.36 404.85 82.91 408.32 70.66 413.65C56.54 418.98 51.21 427.77 51.21 438.43C51.21 449.1 58.4 457.89 72.52 461.36C83.18 464.82 98.9 466.69 122.07 468.55C155.64 470.42 178.55 472.02 189.2 473.88C219.3 477.35 242.21 486.14 256.33 496.8C270.45 507.46 277.64 523.19 277.64 542.65C277.64 569.03 266.99 588.49 244.08 602.61C221.17 616.74 187.6 623.94 145.25 623.94C83.45 623.94 33.9 609.81 0.33 583.42L23.24 553.31C62.13 576.23 102.63 588.75 146.85 588.75C175.08 588.75 197.99 585.29 213.98 576.49C228.09 569.3 236.89 558.9 236.89 544.78C236.89 528.79 226.23 518.39 206.78 513.06C196.13 509.6 167.89 507.73 123.67 504.27C83.18 500.8 54.68 495.47 38.96 488.27C19.51 479.48 10.72 463.49 10.72 440.57C10.72 417.65 21.38 400.05 42.42 385.66C60 376.87 90.11 371.54 129 371.54C182.01 371.54 226.23 383.8 261.39 406.98L236.62 433.1Z" />
		<path id="Layer" class="shp0" d="M333.85 376.6L374.34 376.6L374.34 620.47L333.85 620.47L333.85 376.6Z" />
		<path id="Layer" class="shp0" d="M785.91 620.47L745.16 620.47L745.16 420.84L743.56 420.84L618.09 579.69L492.62 420.84L491.02 420.84L491.02 620.47L450.26 620.47L450.26 376.6L501.41 376.6L618.09 523.19L734.77 376.6L785.91 376.6L785.91 620.47Z" />
		<path id="Layer" fill-rule="evenodd" class="shp0" d="M1160.19 498.4C1160.19 538.91 1144.21 570.9 1110.64 595.68C1082.41 617.01 1046.98 627.4 1003.02 627.4C960.67 627.4 923.64 616.74 895.4 595.68C861.84 570.9 845.85 539.18 845.85 498.4C845.85 459.49 861.84 427.77 895.4 402.99C925.5 381.66 960.67 369.4 1003.02 369.4C1045.38 369.4 1080.81 380.07 1109.04 402.99C1144.47 425.91 1160.19 459.49 1160.19 498.4ZM1117.84 498.4C1117.84 470.15 1105.58 447.23 1080.81 429.37C1061.36 413.38 1034.99 406.45 1004.89 406.45C971.32 406.45 943.08 415.25 921.77 432.84C900.46 450.43 890.07 471.75 890.07 498.14C890.07 526.39 900.73 547.71 921.77 565.3C943.08 582.89 971.32 590.09 1004.89 590.09C1040.32 590.09 1066.69 581.29 1088 565.3C1107.18 547.98 1117.84 525.06 1117.84 498.4Z" />
		<path id="Layer" class="shp0" d="M1458.81 376.6L1458.81 576.23L1271.54 376.6L1221.99 376.6L1221.99 620.47L1262.75 620.47L1262.75 420.84L1448.16 620.47L1499.3 620.47L1499.3 376.6L1458.81 376.6Z" />
	</g>
	<path id="Layer" fill-rule="evenodd" class="shp0" d="M1566.43 425.91C1548.85 425.91 1534.73 411.78 1534.73 394.19C1534.73 376.6 1548.85 362.47 1566.43 362.47C1584.02 362.47 1598.14 376.6 1598.14 394.19C1598.14 411.78 1584.02 425.91 1566.43 425.91ZM1566.43 365.94C1552.32 365.94 1540.06 378.2 1540.06 392.33C1540.06 406.45 1552.32 418.71 1566.43 418.71C1580.55 418.71 1592.81 406.45 1592.81 392.33C1593.07 378.2 1582.42 365.94 1566.43 365.94ZM1566.7 397.66L1561.37 397.66L1561.37 411.78L1556.05 411.78L1556.05 376.33L1568.3 376.33C1575.49 376.33 1578.96 381.66 1578.96 386.99C1578.96 392.33 1575.49 395.79 1570.16 397.66L1578.96 411.78L1573.63 411.78L1566.7 397.66ZM1561.11 390.99L1568.3 390.99C1573.63 390.99 1575.49 389.13 1575.49 385.66C1575.49 382.2 1571.76 380.33 1568.3 380.33L1561.11 380.33L1561.11 390.99Z" />
</svg>