<svg version="1.2" xmlns="http://www.w3.org/2000/svg" viewBox="0 0 1588 526" width="1588" height="526">
	<title>Skyworks-Vector-Logo-svg</title>
	<style>
		.s0 { fill: #002c55 } 
		.s1 { fill: #5487b2 } 
	</style>
	<g id="Layer_1-2">
		<g id="Layer">
			<path id="Layer" fill-rule="evenodd" class="s0" d="m597.1 406.1l-29.5 116.8h-31.6l-20.3-73-22.3 73h-31.1l-28.7-116.8h27.2l19.3 89 28.7-89h19.3l25.2 89 20.7-89c0 0 23.1 0 23.1 0zm97.6 119.7c-48.1 0-68.2-31.9-68.2-61.3 0-35.8 26.8-61.4 68.2-61.4 37.9 0 68.2 22.2 68.2 61.4 0 34-24.2 61.3-68.2 61.3zm0-102.7c-23.3 0-40 17.1-40 41.4 0 25.8 18.2 41.4 40 41.4 22.9 0 40.1-16.5 40.1-41.4 0-20.1-12.7-41.4-40.1-41.4zm192.3 99.8l-39.7-61.4h13.6c16.7 0 26.2-7.7 26.2-18.3 0-9.6-8-18.3-26.2-18.3h-25.6v98h-26.4v-116.8h55.1c35.1 0 50.2 18.4 50.2 37.1 0 24.7-22.6 31.3-27.6 32.9l31.2 46.8zm-867.2-35.1c3 4.1 12.7 17.7 37.7 17.7 18.5 0 25.6-6.8 25.6-14.7 0-7.8-8.7-11.9-21.8-14.5-2.7-0.5-10.6-2.1-12.9-2.6-16.4-3.2-42-9.1-42-36.1 0-22 19.5-34.8 49.2-34.8 37.4 0 51.7 21.1 52.9 22.6l-18.2 13.9c-2.4-3.2-11.7-16.5-35-16.5-12.1 0-21.9 4.2-21.9 12.1 0 10.2 13 12.5 22.2 14.3 3.5 0.7 10.2 2 15.1 3 21.1 4 40.1 15 40.1 36.6 0 23.8-22.9 36.8-53.1 36.8-39.5 0-54.2-19.6-56.7-22.7l18.7-15zm1104.2 0c3 4 12.7 17.7 37.7 17.7 18.5 0 25.7-6.9 25.7-14.8 0-7.9-8.8-11.9-21.9-14.5-2.7-0.5-10.6-2.1-12.9-2.6-16.3-3.2-42-9.1-42-36.1 0-22 19.5-34.8 49.2-34.8 37.4 0 51.7 21.1 52.9 22.6l-18.2 13.9c-2.5-3.2-11.7-16.5-35-16.5-12.1 0-21.9 4.2-21.9 12.1 0 10.2 13 12.5 22.2 14.3 3.5 0.7 10.2 2 15.1 3 21.1 4 40.1 15 40.1 36.6 0 23.8-22.9 36.8-53.1 36.8-39.5 0-54.1-19.6-56.7-22.7 0 0 18.7-15 18.8-15zm-93.4-27.4q0 0 0 0zm0 0c0 0 50.4 62.4 50.4 62.4h-31.2l-49.7-61.4 46.4-55.4h30zm-67.4-54.5h26.4v116.8h-26.4zm-741.3 54.5q0 0 0 0zm0 0c0 0 50.4 62.3 50.4 62.3h-31.2l-49.6-61.4 46.3-55.4h30zm-67.4-54.4h26.4v116.8h-26.4zm206.6 70.6v46.2h-26.1v-46.2l-47.5-70.6h30.8l31.1 49 31.8-49h26.7l-46.7 70.6zm879.1-37.2c-9.5 0-17.2-7.7-17.2-17.2 0-9.5 7.7-17.2 17.2-17.2 9.5 0 17.2 7.7 17.2 17.2 0 9.5-7.7 17.2-17.2 17.2zm14.6-17.3c0-8-6.5-14.5-14.6-14.5-8.1 0-14.6 6.5-14.6 14.5 0 8.1 6.5 14.6 14.6 14.6 8.1 0 14.6-6.5 14.6-14.6zm-21.2-8.9h7.8c1.6 0 2.8 0.2 3.6 0.5q1.2 0.5 2 1.7 0.7 1.2 0.7 2.6c0 1.3-0.4 2.3-1.2 3.2-0.9 0.9-2.1 1.4-3.8 1.7 0.6 0.3 1.1 0.6 1.5 0.8 0.6 0.6 1.3 1.5 1.9 2.4l3 4.8h-2.9l-2.4-3.7c-0.6-1.1-1.2-1.9-1.7-2.4q-0.6-0.8-1.1-1.2c-0.4-0.2-0.7-0.4-1.1-0.4q-0.4-0.1-1.3-0.1h-2.7v7.8h-2.3zm2.3 7.8h5c1.1 0 1.9-0.1 2.5-0.3 0.6-0.3 1.1-0.6 1.4-1.1 0.3-0.5 0.5-1 0.5-1.6 0-0.8-0.3-1.4-0.9-2q-0.9-0.8-2.9-0.8h-5.6z"/>
			<path id="Layer" class="s1" d="m1582.8 22.1c5.9-3 6.3-2.3 0.5 1 0 0-127.8 72.6-240.4 133.8l-9.6 35.6c18 13.4 29.8 22.3 29.8 22.3 3.2 2.3 2.6 3.2-0.7 1.1 0 0-12.2-8-30.7-20.3h-61.1c-13.8 7.4-28.4 15-43.3 22.6l-4.1 15.7q5.4 3.8 10.7 7.5c14.9 10.4 31 22 46.9 33.6h26c49.5-26 107-53.4 107-53.4 5.9-2.8 6.5-1.8 0.8 1.6 0 0-51.8 30.4-99.8 56.5l-4.5 16.7c40.1 29.4 72.7 53.9 72.7 53.9 4.3 3.1 3.7 4.1-0.7 1.1 0 0-35.3-23.1-77.4-51.5h-28.2c-14.4 7.4-29.1 14.8-42.7 21.6l-3.4 12.9h-22.7c-17.3 8.4-29 14-29 14-5.7 2.7-6.3 1.5-0.8-1.6 0 0 9.5-5.5 24.2-14l4.3-16.4h24.2c12.6-7.1 26.4-14.8 40-22.3l3.9-14.6c-15.6-10.7-31.3-21.4-45.7-31.5q-4.3-3.1-8.9-6.3h-38.5c-99.4 51-196.4 99.2-196.4 99.2-4.6 2.3-5 1.5-0.6-1.1 0 0 90.6-51.4 186.5-104.1l6.6-24.5c-50.5-36.6-97.9-72.2-97.9-72.2-3.8-2.8-3.1-3.7 0.8-1.1 0 0 53.4 35 107.2 71.6h31c14.1-7.6 27.5-14.9 40.9-22.1l9.1-34c-20.1-13.7-41-28-59.6-41.1-64.1-44.9-149.3-108.9-149.3-108.9-3.2-2.5-2.6-3.3 0.8-1.1 0 0 89.2 58.4 153.1 103.3 19.2 13.4 40.2 28.6 60.4 43.2h58.3c114.9-59.6 250.2-126.9 250.2-126.9"/>
		</g>
	</g>
</svg>