<svg version="1.2" xmlns="http://www.w3.org/2000/svg" viewBox="0 0 1561 298" width="1561" height="298">
	<title>snapon-svg</title>
	<style>
		.s0 { fill: #ff0000 } 
	</style>
	<g id="Layer">
		<g id="Layer">
			<path id="Layer" class="s0" d="m253.1 205.1c0 0-11.7 19.4-31.1 28.1-17.4 7.8-45.5 5.8-45.5 5.8h-176.5l36.8-62c0 0-0.9 2 6.8 4.9 8.8 3.9 12.6 1.9 12.6 1.9h77.6c0 0 12.6 0 19.4 4.9 5.8 3.8 1 1.9 8.7 9.6 4.9 4.9 16.5 9.7 29.1 8.8 14.5-2 25.2-11.7 25.2-11.7 0 0-19.4-4.8-30-9.6-7.8-3.9-7.8-11.7-3.9-22.3 5.8-14.6 10.6-13.6 14.5-14.6 3.9-1.9 10.7 2 10.7 2l20.3 7.7c0 0 0-3.8-4.8-11.6-6.8-9.7-4.8-8.7-12.6-14.5-8.7-5.8-19.4-4.9-28.1-2.9-7.8 1.9-16.5 12.6-24.3 18.4-3.8 2.9-12.6 1.9-12.6 1.9 0 0-60.1 1-66.9-1.9-6.8-2.9-7.7-7.8-8.7-12.6-1-9.7 7.8-21.3 7.8-21.3 0 0 40.7-70.8 45.5-77.5 8.8-13.6 12.6-18.4 32-29.1 15.5-9.7 44.6-6.8 44.6-6.8h174.6l-36.9 63c0 0-4.8-6.8-8.7-7.8-6.8-2.9-10.7-1.9-10.7-1.9h-121.2-10.6c0 0-9.7 0-14.6 3.9-4.8 3.9-7.7 9.7-7.7 9.7 0 0-7.8 8.7-5.9 15.5 2 6.7 6.8 4.8 6.8 4.8h112.5c0 0 16.5-2.9 23.3 15.5 5.8 14.5-12.6 42.6-12.6 42.6z"/>
			<path id="Layer" fill-rule="evenodd" class="s0" d="m425.6 75.3l-5.8 15.5c0 0 5.8-7.7 15.5-12.6 6.8-3.9 21.4-2.9 21.4-2.9h64c0 0 15.5-1 23.2 15.5 6.8 13.6-12.6 41.7-12.6 41.7 0 0-45.5 73.6-50.4 84.2-4.8 10.7-3.9 20.4-3.9 20.4h-97.9c0 0 6.8-1 18.4-15.5 6.8-7.8 60.1-96.9 65-106.6 5.8-11.6-6.8-10.6-6.8-10.6 0 0-15.5 0-31 0-10.7 0-18.5 9.7-18.5 9.7 0 0-60.1 98.8-63 110.4-2.9 11.6 1 12.6 1 12.6h-99.9c0 0 11.7-6.8 22.3-24.2 16.5-27.2 64-106.6 69.8-118.2 4.9-7.8 3.9-19.4 3.9-19.4 0 0 85.3 0 85.3 0zm579.8 96.9c0 0 9.7-20.4 18.5-26.2 12.6-8.7 26.1-8.7 26.1-8.7h118.3l-21.3 34.9zm349-96.9c0 0 0.1 0.4 0.1 1h-0.1zm0.1 1l85.3-0.1-4.9 15.5c0 0 5.8-7.7 15.5-12.5 6.8-3.9 21.4-3 21.4-3h63.9c0 0 15.6-0.9 23.3 15.5 5.8 13.6-12.6 41.7-12.6 41.7 0 0-45.6 73.6-50.4 84.3-4.9 10.6-3.9 20.3-3.9 20.3h-97.9c0 0 6.8-0.9 18.4-15.5 6.8-7.7 60.1-96.8 65-106.5 5.8-11.7-6.8-10.7-6.8-10.7 0 0-15.5 0-31 0-10.7 0-18.5 9.7-18.5 9.7 0 0-60.1 98.8-63 110.4-2.9 11.7 1 12.6 1 12.6h-99.9c0 0 11.7-6.8 22.3-24.2 15.5-27.1 63-106.6 68.9-118.2 4-7.2 4-16.4 3.9-19.4zm-722.4 160.9l6.8-17.5c0 0-14.5 11.6-27.1 15.5-8.8 2.9-13.6 2-13.6 2h-69.8c0 0-12.6 0.9-17.5-7.8-5.8-9.7-4.8-15.5-1.9-22.3 4.8-10.6 19.4-33.9 26.2-45.5 14.5-23.3 30-30 38.7-32.9 14.6-3.9 22.3-2.9 33-2.9 10.7 0 63 0 63 0 0 0 10.7 0 16.5-2 4.9-1.9 6.8-6.8 6.8-6.8l1.9-4.8c2-8.7-5.8-7.8-5.8-7.8h-87.2c0 0-5.9 0-13.6 1-7.8 1-14.6 4.9-14.6 4.9l21.4-35.9h159c0 0 15.5-1.9 23.2 15.5 5.9 13.6-12.6 42.6-12.6 42.6 0 0-46.5 73.7-50.4 84.3-4.8 10.7-3.9 20.4-3.9 20.4zm32-76.6h-29c0 0-8.8 0-17.5 2-5.8 0.9-23.3 32.9-22.3 37.7 1 3.9 6.8 3.9 6.8 3.9h30c0 0 7.8 0 11.7-4.8 7.7-7.8 22.3-33.9 22.3-33.9 0 0 0 1.9 0-2 1.9-3.8-2-2.9-2-2.9zm122.2 116.3c-4.8 10.6-3.9 20.3-3.9 20.3h-92.1c0 0 2.9-4.8 6.8-9.7 6.8-8.7 11.6-18.4 11.6-18.4 0 0 95.1-161.8 100.9-173.4 4.8-8.7 3.9-20.3 3.9-20.3h81.4v10.6c0 0 6.8-4.8 11.6-7.7 3.9-1.9 13.6-2.9 13.6-2.9h71.8c0 0 15.5-2 23.2 15.5 5.8 13.5-12.6 41.6-12.6 41.6l-42.6 73.7c0 0-10.7 15.5-25.2 24.2-17.5 9.7-36.9 8.7-36.9 8.7l-63-1c0 0-11.6-0.9-15.5-6.8-1.5-2.2-2.2-3.5-2.4-4.1zm30.6-49.7l0.5-0.7c0 0-0.8-0.4-0.5 0.7zm85.8-122.8c0 0-8.8-0.9-13.6 2.9-4.8 3.9-8.7 8.8-8.7 8.8l-44.6 73.6c0 0-4.9 5.8-2.9 10.6 1.9 4.9 8.7 2.9 8.7 2.9h29.1c0 0 3.9 1 9.7-1.9 5.8-2.9 11.6-11.6 11.6-11.6l42.7-70.7c0 0 4.8-4.9 1.9-10.7-1.9-3.9-7.7-3.9-7.7-3.9zm164.8 133.7c0 0-12.6 1-17.5-7.7-5.8-9.7-2.9-15.5-0.9-23.3l13.5-24.2h75.7c0 0-3 6.8-7.8 15.5-2.9 4.8 4.8 4.8 4.8 4.8h34c0 0 15.5 1 19.4-7.7 2.9-5.8 39.7-68.8 39.7-68.8 0 0 8.8-11.6 7.8-16.5-2-5.8-11.7-5.8-11.7-5.8h-23.2c0 0-12.6-0.9-15.5 3.9-4.9 6.8-11.7 16.5-11.7 16.5h-77.5l15.5-23.3c0 0 8.7-11.6 18.4-18.4 12.6-8.7 27.1-8.7 27.1-8.7h138.7c0 0 15.5-1.9 23.3 15.5 5.8 13.6-12.6 41.7-12.6 41.7l-43.7 73.6c0 0-11.6 15.5-24.2 23.2-17.5 10.7-36.9 8.8-36.9 8.8z"/>
		</g>
	</g>
</svg>