<svg version="1.2" xmlns="http://www.w3.org/2000/svg" viewBox="0 0 1584 321" width="1584" height="321">
	<title>SolarEdge_logo_header_new_0-svg</title>
	<style>
		.s0 { fill: #ee2837 } 
		.s1 { fill: #040606 } 
	</style>
	<g id="g10">
		<g id="g12">
			<g id="g14">
				<path id="path16" fill-rule="evenodd" class="s0" d="m1566.2 0.4c24.2 0 16.3 23 16.3 23l-41.2 119c-3.1-53.5-18.8-69.2-81-69.2-70.7 0-80.7 27.3-80.7 90 0 67.8 13.7 89.1 80.7 89.1 17 0 31.8-0.3 44-2.9l-16.8 48.6c-7.9 22.9-32.2 22.9-32.2 22.9h-129.8c23.3-9.5 31.7-30.1 31.7-70.9v-174.8h-42l1.7 26.3h-1.4c-10.7-23-30-28.3-54.7-28.3-65 0-67 41-67 94.7 0 51.4 7 84.4 67 84.4 21.4 0 43.7-4 54.7-27h1v33.4c0 30-7.6 37.3-43.3 37.3-23.7 0-32.7-3.6-32.7-27.7h-39.4c-1.5 29.8 8.2 45 24.7 52.6h-426.8c-24.2 0-16.3-22.9-16.3-22.9l40.9-118.1c2.4 54.5 19.1 72.4 80.3 72.4 50 0 81.7-2.6 81.7-57.7h-42c0 26-16.4 25.7-39.7 25.7-37.7 0-38.7-12-38.7-49.7h120.4c0-76.4-9.6-97.4-81.7-97.4-19.5 0-34.3 2.1-45.7 6.5l19.5-56.3c7.9-23 32.2-23 32.2-23h219.5v98.1h-1.7c-9-21.3-31.3-25.3-52.7-25.3-60 0-67 33-67 84.4 0 53.7 2 94.7 67 94.7 24.7 0 44.1-5.3 54.7-28.3h1.4l-1.7 26.3h42v-249.9zm-622.6 143.5h-78.3c0-31 2.3-38.7 38.6-38.7 34.4 0 39.7 2.7 39.7 38.7zm143.8 76.4c-38.3 0-37.3-23-37.3-62.7 0-44.1 8.3-52.4 37.3-52.4 36.4 0 41.4 15 41.4 52.4 0 41.7 1.6 62.7-41.4 62.7zm185.8 0c-37.3 0-37.3-23-37.3-62.7 0-44.1 8.3-52.4 37.3-52.4 36.4 0 42.1 15 42.1 52.4 0 41.7 0 62.7-42.1 62.7zm187.2-115.1c34.3 0 39.6 2.7 39.6 38.7h-78.3c0-31 2.3-38.7 38.7-38.7zm39.6 89.4c0 26-16.3 25.7-39.6 25.7-37.7 0-38.7-12-38.7-49.7h109.9l-8.3 24z"/>
			</g>
			<path id="path18" fill-rule="evenodd" class="s1" d="m113.4 122.9c0-21.1-11-21.1-33.4-21.1-22.3 0-37.7 0-37.7 23.1 0 17.3 4.7 18 41.4 19.7 41.3 2 78-1 78 55.7 0 47.4-37.3 52-81.7 52-47.7 0-79.7 0-79.7-57h42c0.7 25.3 6.7 28.3 37.7 28.3 25 0 39.7 0.7 39.7-23.3 0-15.4-1-23-43.4-23.7-64.4-1-76-9.7-76-54.4 0-48 34.7-49 79.7-49 34.4 0 75.4 0.6 75.4 49.7zm155.8-49.7c73 0 82.4 21.6 82.4 89.7 0 67.7-9.4 89.4-82.4 89.4-73.1 0-82.4-21.7-82.4-89.4 0-68.1 9.3-89.7 82.4-89.7zm-40.4 90.1c0 46.6 3 57 40.4 57 37.3 0 40.3-10.4 40.3-57 0-47.4-3-58.1-40.3-58.1-37.4 0-40.4 10.7-40.4 58.1zm158.5-163.2h42v250.2h-42zm198.1 228.2h-1c-8.4 23.4-34 24-54.4 24-39.7 0-65.4-8.3-65.4-55.7 0-42 22-53.7 65.4-53.7 21.4 0 42.4 0.3 52.4 20h1.3v-22.7c0-28.3-2.3-38.3-37.3-38.3-18.4 0-33.1 1.6-33.1 24.3h-42c0-51 35-53 75.1-53 56 0 79.3 8.7 79.3 67.4v109.7h-42zm-78.7-31.7c0 24.7 10 27.1 38.3 27.1 22.4 0 38.8-2 38.8-27.1 0-24.3-18.1-25-38.8-25-21.3 0-38.3 0-38.3 25zm157.8-121.4h41l-1 23h1.7c8.3-19.3 26.3-25 46.7-25 37 0 46 22 46 55v14.1h-39.4v-9.1c0-17.6-1.6-28-21.3-28-25 0-32.4 14.4-31.7 37.1v108h-42z"/>
		</g>
	</g>
</svg>