<svg version="1.2" xmlns="http://www.w3.org/2000/svg" viewBox="0 0 1558 230" width="1558" height="230">
	<title>Southwest_Airlines_logo_2014-svg</title>
	<defs>
		<linearGradient id="g1" x1="1391.4" y1="164.8" x2="1504.2" y2="164.8" gradientUnits="userSpaceOnUse">
			<stop offset="0" stop-color="#3656cc"/>
			<stop offset=".4" stop-color="#304cb2"/>
			<stop offset=".7" stop-color="#283b80"/>
		</linearGradient>
		<linearGradient id="g2" x1="1407.4" y1="75.7" x2="1534.8" y2="164.9" gradientUnits="userSpaceOnUse">
			<stop offset=".3" stop-color="#e61c23"/>
			<stop offset=".8" stop-color="#c3161c"/>
		</linearGradient>
		<linearGradient id="g3" x1="1486.4" y1="64.1" x2="1559.3" y2="115.1" gradientUnits="userSpaceOnUse">
			<stop offset="0" stop-color="#fdbc11"/>
			<stop offset=".3" stop-color="#fcb415"/>
			<stop offset=".8" stop-color="#f89e1c"/>
		</linearGradient>
	</defs>
	<style>
		.s0 { fill: #304cb2 } 
		.s1 { fill: #cccccc } 
		.s2 { fill: url(#g1) } 
		.s3 { fill: url(#g2) } 
		.s4 { fill: url(#g3) } 
	</style>
	<g id="Type">
		<g id="Layer">
			<path id="Layer" fill-rule="evenodd" class="s0" d="m428.4 73.7h44.6v143.8c-25.6 5.8-46.7 10.2-69.4 10.2-46.7 0-70-19-70-60.6v-93.4h43.8v88.3c0 15.3 5.1 23.4 28.4 23.4 8 0 16.1-0.8 22.6-2.2zm161.3 110.2l4.4 36.5c-12.4 3.7-23.3 6.6-36.5 6.6-43.8 0-48.9-30.7-48.9-57v-59.8h-21.9v-36.5h21.9v-43.8h43.8v43.8h36.5v37.2h-36.5v56.9c0 12.5 2.2 19.8 18.3 19.8 6.5 0 12.4-1.5 18.9-3.7zm-437.8-23.4c0 36.5-27.8 66.5-81.8 66.5-26.3 0-47.4-5.9-69.3-14.6l10.2-43.8c19.7 8.7 38.7 14.6 59.1 14.6 22.6 0 33.6-7.3 33.6-20.5 0-10.9-8.8-15.3-37.2-24.1-9.5-2.9-19-5.8-26.3-8.7-26.3-11-38-28.5-38-55.5 0-35.8 29.2-65.7 81.8-65.7 22.6 0 40.8 6.6 60.6 13.9l-9.5 42.3c-16.8-5.8-33.6-10.9-52.6-10.9-23.3 0-32.8 6.5-32.8 19.7 0 11.7 8 15.3 33.5 22.6 9.5 2.9 19 5.9 27.1 8.8 24.8 9.5 41.6 26.2 41.6 55.4zm590.4-35v101.5h-43.8v-96.4c0-16-6.6-22.6-23.4-22.6-10.9 0-19.7 2.9-27.7 5.8v113.2h-43.8v-226.3h43.8v72.3c9.5-3 23.3-6.6 37.9-6.6 38.7 0 57 19 57 59.1zm-420.4 20.4c0 49.7-35.8 81.8-80.3 81.8-44.5 0-80.3-32.8-80.3-81.8 0-48.9 35.8-80.2 80.3-80.2 44.5 0 80.3 30.6 80.3 80.2zm-46-0.7c0-24.8-14.6-37.9-34.3-37.9-19.7 0-34.3 13.1-34.3 37.9 0 24.8 15.3 38.7 34.3 38.7 19 0 34.3-13.1 34.3-38.7zm982.3 31.4c0 28.5-19.7 51.1-63.5 51.1-19.7 0-37.2-3.6-56.2-8.8l6.6-37.9c15.3 5.8 29.9 8.7 46 8.7 13.1 0 22.6-2.9 22.6-10.2 0-7.3-8-9.5-24.1-13.8-8-2.2-14.6-5.2-20.4-7.3-20.4-8.8-30.7-21.9-30.7-42.4 0-29.2 22.7-50.3 64.3-50.3 17.5 0 32.8 2.9 48.9 6.5l-7.3 38c-14.6-4.4-27.8-7.3-42.4-7.3-13.8 0-19.7 4.4-19.7 10.9 0 6.6 5.9 8.8 21.2 13.2 8 2.2 14.6 4.3 21.2 6.5 24.8 8.8 32.8 23.4 33.5 43.1zm-129.1-36.5c0 3.7-1.5 21.2-1.5 21.2h-98.5c1.4 16 12.4 27 38.7 27 17.5 0 32.1-5.1 46.7-11.7l6.5 36.5c-18.9 8-37.2 14.6-59.8 14.6-51.1 0-79.6-31.4-79.6-78.8 0-51.1 32.9-83.2 78.9-83.2 45.9 0 68.6 32.8 68.6 74.4zm-46-8c0-11-5.9-29.9-24.8-29.9-19 0-25.6 16.7-28.5 29.9zm281 52.5l5.1 36.5c-12.4 3.7-23.4 6.6-36.5 6.6-43.8 0-50.4-30.7-50.4-56.9v-59.9h-22.6v-37.2h22.6v-43.8h43.8v43.8h36.5v37.2h-36.5v56.9c0 12.5 2.2 19.8 18.3 19.8 6.5 0 12.4-1.5 19.7-3zm9.1-135.7c-10.7 0-19.4-8.8-19.4-19.7 0-10.9 8.7-19.8 19.4-19.8 10.7 0 19.3 8.9 19.3 19.8 0 10.9-8.6 19.7-19.3 19.7zm16.5-19.7c0-8.9-7.1-16.1-15.7-16.1-8.7 0-15.8 7.2-15.8 16.1 0 8.8 7.1 16 15.8 16 8.6 0 15.7-7.2 15.7-16zm-9.6 3.6l4.4 7.3h-5.1l-5.1-7.3c-0.7-1.5-1.5-2.2-2.9-2.2v9.5h-4.4v-22.6h7.3c4.4 0 7.3 2.9 7.3 6.5 0 3.7-2.2 5.2-5.8 5.9 0.7 0.7 1.4 1.4 4.3 2.9zm-2.9-8.8c0-1.4-0.7-2.9-3.6-2.9h-3v6.6h2.2c2.2 0 4.4-0.7 4.4-3.7zm-388.2 49.7l-54.8 153.3h-40.1l-27.7-83.2-27.8 83.2h-40.1l-54.8-153.3h47.5l27.7 83.9 28.5-83.9h37.9l27.8 83.9 27.7-83.9z"/>
		</g>
	</g>
	<g id="Layer">
		<g id="Layer">
			<path id="Layer" class="s1" d="m1557.4 117.5c0 40.9-38.6 80.3-85.3 111.7-46.7-32.1-85.4-71.6-85.4-111.7 0-33.6 19-52.6 48.9-52.6 15.3 0 27 5.1 36.5 10.2 9.5-5.1 21.9-10.2 36.5-10.2 29.1 0 48.8 19 48.8 52.6z"/>
			<path id="Layer" class="s2" d="m1391.8 107.3c16 13.1 62.7 50.3 111.6 91.2-10.2 8.8-21.1 17.5-32.1 24.8-36.5-25.5-80.2-64.2-80.2-105.1 0-4.4 0.7-8 0.7-10.9z"/>
			<path id="Layer" class="s3" d="m1512.2 190.5c-50.4-40.2-100.7-75.9-119-89.1 1.5-8 5.2-14.6 10.3-19.7 8-8 19.7-12.4 32.8-12.4 13.9 0 26.3 5.8 32.8 9.5 23.4 13.9 44.6 29.2 80.3 58.4-6.5 19-20.4 37.2-37.2 53.3z"/>
			<path id="Layer" class="s4" d="m1551.6 116.8c0 2.9 0 6.5-0.7 9.4-31.4-23.3-61.3-40.1-75.2-48.1 8-4.4 18.3-8.8 32.1-8.8 13.2 0 24.1 4.4 32.1 12.4 8.1 8 12.4 20.5 11.7 35.1z"/>
		</g>
	</g>
</svg>