<svg version="1.2" xmlns="http://www.w3.org/2000/svg" viewBox="0 0 1569 255" width="1569" height="255">
	<title>STERIS Annual Report 2022_ANNRPT22</title>
	<defs>
		<clipPath clipPathUnits="userSpaceOnUse" id="cp1">
			<path d="m-2017.3-537.6h4130.37v5319.46h-4130.37z"/>
		</clipPath>
	</defs>
	<style>
		.s0 { fill: #3f8edd } 
		.s1 { fill: #2c2e35 } 
	</style>
	<g id="Clip-Path: Page 1" clip-path="url(#cp1)">
		<g id="Page 1">
			<path id="Path 5" class="s0" d="m293.3 210.8c-1 0-20.3 0.4-24.9 0-8.3-0.3-15-2-22-3.6-12.6-3.3-18.3-9.3-26.6-12.3-6-2.3-17.6-6.3-44.5-5.6h-56.6c-26.9-0.7-38.6 3.3-44.9 5.6-8 3-13.9 9-26.2 12.3-7 1.6-13.7 3.3-22 3.6-4.7 0.4-23.9 0-24.9 0v-22.2c1 0 20.2 0 24.9-0.3 8.3-0.4 15-1.4 22-3.4 12.6-2.9 18.2-9.6 26.2-12.6 6.3-2.3 18-6.3 44.9-5.6h56.6c26.9-0.7 38.5 3.3 44.5 5.6 8.3 3 14 9.7 26.6 12.6 7 2 13.7 2.7 22 3.4 4.6 0.3 23.9 0.3 24.9 0.3zm-146.3-2.3l56.2 0.3c13.3 1.3 26.6 3.3 37.2 11 15 9.3 34 10.6 52.9 10.3v21.9c-20.6 0.3-41.9-1.4-57.5-13.6-11.3-6-24.6-7.7-38.3-8.3h-50.5-50.9c-13.3 0.6-26.6 2.3-38.2 8.3-15.3 12.2-37 13.9-57.2 13.6v-21.9c18.6 0.3 37.9-1 52.8-10.3 10.7-7.7 24-9.7 37.3-11zm0.6-208.2c16.3 1 32 2.7 44.6 12 12.6 7.6 27.9 9.6 43.6 9.9h57.5v21.9h-65.5c-12.3-1-23.9-3.3-33.9-8.9-13.3-9.7-30-13-46.9-13-17 0-33.6 3.3-46.9 13-10 5.6-21.6 7.9-33.9 8.9h-65.5v-21.9h57.2c15.9-0.3 30.9-2.3 43.9-9.9 12.6-9.3 28.2-11 44.5-12zm-1 41.2q5.7 0 11.3 0c14.3 1 28.6 2.6 40.3 9.6 12.9 10 29.2 12 46.2 12.3l48.5 0.3v21.6h-55.2c-11.6-0.7-22.6-2.6-32.9-7.3q-12.6-9.3-28.2-11.9c-9.7-2-19.7-2-30-2-10 0-19.9 0-29.6 2q-15.6 2.6-28.2 11.9c-10.4 4.7-21.3 6.6-33 7.3h-55.5v-21.6l48.9-0.3c16.9-0.3 33.2-2.3 46.2-12.3 11.6-7 25.6-8.6 39.9-9.6 4 0 7.7 0 11.3 0zm0 41.5c22 0 44.3-0.7 61.9 9.9 12.9 9.3 28.9 11.3 45.2 12h39.2v21.9c-14.9 0-29.2 0.7-43.9 0-14.9-1-28.9-3.6-40.5-12.3-12.3-7.3-27.3-8.6-42.3-9.3h-19.6-19.3c-14.9 0.7-29.9 2-42.2 9.3-11.6 8.7-25.6 11.3-40.6 12.3-14.6 0.7-28.9 0-44.2 0v-21.9h39.2c16.7-0.7 32.6-2.7 45.6-12 17.6-10.6 39.9-9.9 61.5-9.9zm32.3 42.2c13.6 1 26.6 2.3 37.9 8.6 20.6 14.9 49.5 12.3 76.1 12.9v22c-26.9 0-56.5 2.3-77.1-13.3-11.6-6.3-25.3-7.7-39.2-8.3h-59.6c-13.9 0.6-27.6 2-39.2 8.3-20.6 15.6-50.2 13.3-77.5 13.3v-22c26.9-0.6 55.9 2 76.5-12.9 11-6.3 24.3-7.6 37.9-8.6z"/>
			<path id="Path 6" fill-rule="evenodd" class="s1" d="m523.4 59.8c-6.6-10.3-21.9-26.9-46.8-27.3-23.3 0-44.6 20.9-35.6 50.5 6.3 19.9 51.5 38.2 69.8 52.5 8 6.3 16 12.6 20 18.6 10.6 15.9 11.9 28.5 8.9 46.8-3.3 22.9-30.6 55.1-69.8 53.8-39.6-1.4-62.2-25.3-62.2-25.3l1-43.5c0 0 8.7 28.3 28.3 43.9 13.6 10.9 29.9 12.9 42.5 10.3 13.3-2.7 20.3-9 25.7-15 10.6-12.3 13.3-38.5-1-52.8-14.7-14.3-30-18.6-51.9-32.5-21-13.3-34.9-26.6-38.3-49.5-3.3-22.6 6-38.5 10-43.8 4-5.3 19-25.6 54.9-26.3 35.9-0.6 51.9 18.3 51.9 18.3 0 0 0 21.3 0 26.2-0.4 5.4-0.7 11-0.7 11 0 0-2-9-6.7-15.9zm1027.6 0c-6.9-10.3-22.2-26.9-47.2-27.3-22.9 0-44.5 20.9-35.2 50.5 6.3 19.9 51.5 38.2 69.8 52.5 8 6.3 15.6 12.6 19.6 18.6 11 15.9 12 28.5 9.3 46.8-3.6 22.9-30.6 55.1-70.1 53.8-39.3-1.4-61.9-25.3-61.9-25.3l1-43.5c0 0 8.3 28.3 27.9 43.9 14 10.9 30.3 12.9 42.9 10.3 13-2.7 20.3-9 25.7-15 10.6-12.3 13.3-38.5-1.4-52.8-14.3-14.3-29.6-18.6-51.5-32.5-21.3-13.3-34.9-26.6-38.3-49.5-3.3-22.6 6-38.5 9.7-43.8 4.3-5.3 19.3-25.6 55.2-26.3 35.9-0.6 51.9 18.3 51.9 18.3 0 0 0 21.3-0.4 26.2 0 5.4-0.3 11-0.3 11 0 0-2.3-9-6.7-15.9zm-950.4-10c0 0-0.7-5.6-0.7-10.3-0.3-4.6 0.4-15.3 0.4-16.6h156.9c0 0 0.4 13.9 0.4 18.3 0 3.9-1 8.6-1 8.6 0 0-5.4-9-11.7-11.3-3-0.7-17.9-1.3-30.2-1.7-7.7 0-14.3-0.3-15.3-0.3-2.7 0-5 0.7-5 3.3 0 0-0.7 192.6-0.7 194.6 0 2 2 15 9.7 18.3h-49.6c0 0 9.6-4.3 10-18.3 0-13.6-0.4-193.6-0.4-194.6 0-1-0.3-2.6-2.9-3-4-0.3-42.9 0.4-47.3 1.7-6 1.3-12.3 10-12.6 11.3zm340.5-11c-19.6-2-66.1-1.6-68.5-1.3-3 0-3.6 3-4 4.3 0 0.7 0.4 71.7 0.4 74.1 0.3 2.6 2 3.6 3 3.6 1 0 44.2 0.4 59.2-1 4.3-0.3 8.6-6.6 8.6-6.6 2 13.9 0.3 29.9 0.3 29.9-3.6-3.7-6.6-7.7-10.3-7.7-22.9-1.3-52.5-0.3-57.5 0.4-3 0.3-3.3 3-3.3 6.3 0.6 23.2 0.6 69.7 0.6 92 0 2.9 4 2.9 4 2.9 22 4.4 57.9 2.7 72.5 1 18-2 27.3-18.9 27.3-18.9 0 19.3-7 34.5-7 34.5l-138.7 0.4c0 0 10-7.3 10.7-14 1.3-12.3 1.3-98.3 1.3-111.2 0-13-0.3-82.7-0.3-84 0-1 0.3-5-2.7-9.6-3.3-5.7-9.6-11-9.6-11h127.7c1 0 3.3 0.7 3.6 4 1 7.6-0.3 21.9-0.3 21.9 0 0-7-9-17-10z"/>
			<path id="Path 7" fill-rule="evenodd" class="s1" d="m1046.2 252.7c0 0 9-6 9.3-12.6 0-6.3-1-202.3-1-204.2 0-2.4 0.4-7.7-10.9-12.7 0 0 71.8-0.3 75.5-0.3 3.6 0 68.8 2.3 69.5 56.4 0.3 19.3-11.3 46.2-45.6 57.5 0 0-1.7 0.7-1.7 1.7 0 0.6 0.4 1.6 1 1.9 0.4 0.4 7.7 6 16.7 17.6 9.3 11.7 52.8 78.7 54.5 81.1 2.7 3 6 7.3 19.6 13.6 0 0-8.3 1.3-32.6 0.3-11.9-0.7-17.6-8.3-21.6-13.9-7-10-44.9-72.1-54.5-84.4-6.3-7.9-14.3-7.9-16.7-7.9-1.3-0.4-17.2-0.4-19.6-0.4-2.3-0.3-4.3 1.4-4.3 4.7 0 2.6 0.3 86.3 0.7 89 0 2 3.6 10.3 9.3 12.6zm36.9-124.9c0 1.4 0.7 5.3 2.7 5.7 1.6 0 23.2 1 33.9-1 12.3-2.7 41.5-16.6 39.9-54.8-0.7-15-6.3-38.9-40.3-42.8-14.9-2-28.6-1.4-32.2-1-3.7 0-4.3 2.6-4.3 5.3 0 3 0.3 88.6 0.3 88.6zm210.2 124.9c4-2 8.3-9 8.3-11.6 0-2.7 0.6-196 0-205.3-0.3-9.2-7.7-12.9-7.7-12.9h43.9c0 0-7.6 4-7.9 13.3-0.4 9.3-0.4 203.5 0 205.5 0.3 3 4.6 9 8.6 11z"/>
		</g>
	</g>
</svg>