<svg version="1.2" baseProfile="tiny-ps" xmlns="http://www.w3.org/2000/svg" viewBox="0 0 1702 428" width="1702" height="428">
	<title>Stryker_logo-svg</title>
	<style>
		tspan { white-space:pre }
		.shp0 { fill: #000000 } 
	</style>
	<g id="Layer">
		<path id="Layer" class="shp0" d="M437.28 299.01C416.96 299.01 403.77 293.7 403.61 276.76C403.77 266.93 403.61 148.16 403.61 148.16L488.43 148.16L488.43 86.09L403.61 86.09L403.61 0.64L341.7 0.64L341.7 86.09L127.17 86.09C127.17 86.09 39.69 82.36 39.69 170.51C39.69 258.39 127.17 254.66 127.17 254.66L231.11 254.66C249.29 254.66 253.08 269.66 253.08 276.81C253.08 283.72 249.22 299.07 231.11 299.07L0.53 299.07L0.53 361.12L230.18 361.12C230.18 361.12 319.05 365.01 319.05 276.62C319.05 190.76 230.18 192.57 230.18 192.57L126.73 192.57C108.63 192.64 104.72 177.32 104.75 170.38C104.81 163.39 108.51 148.23 126.73 148.16C145.19 148.23 341.79 148.16 341.79 148.16L341.75 276.76C341.75 276.76 334.3 361.12 422.75 361.12L488.43 361.12L488.43 299.01" />
		<path id="Layer" class="shp0" d="M651.17 210.02L713.29 210.02L713.29 169.35C713.29 82.41 627.4 86.09 627.4 86.09L511.89 86.09L511.89 361.09L574.75 361.09L574.68 150.36L627.1 150.29C643.02 150.36 651.17 159.4 651.17 177.29" />
		<path id="Layer" class="shp0" d="M1639.41 210.02L1701.49 210.02L1701.49 169.35C1701.49 82.41 1615.63 86.09 1615.63 86.09L1500.12 86.09L1500.12 361.09L1562.95 361.09L1562.88 150.36L1615.34 150.29C1631.25 150.36 1639.41 159.4 1639.41 177.29" />
		<path id="Layer" class="shp0" d="M708.82 365.4L708.82 427.38L786.88 427.38C791.11 427.7 816.39 428.09 837.35 414.16C867.16 396.37 881.74 350.95 885.1 339.48C889.06 325.71 960.98 86.09 960.98 86.09L892.39 86.09L838.42 281.03L784.34 86.09L715.78 86.09L792.09 339.41L794.06 345.8C796.95 355 792.87 365.31 783.31 365.4" />
		<path id="Layer" class="shp0" d="M1042.19 190.31L1042.19 0.64L980.17 0.64L980.17 361.09L1042.19 361.09L1042.19 283.75L1077.37 239.92L1145.6 361.09L1216.62 361.09L1121.59 191.83L1208.91 86.09L1128.14 86.09" />
		<path id="Layer" fill-rule="evenodd" class="shp0" d="M1472.67 246.98L1267.42 246.98C1271.47 275.75 1306.76 299.01 1338.84 299.01L1422.78 299.01L1422.78 361.05L1333.26 361.05C1256.96 361.09 1199.22 297.5 1199.19 222.65C1199.19 146.56 1251.91 86.09 1337.54 84.56C1417.18 84.56 1474.82 146.44 1474.89 222.49C1474.89 230.94 1474.13 238.97 1472.67 246.98ZM1407.62 192.84C1400.95 166.3 1369.91 144.53 1337.54 144.53C1305.14 144.53 1272.67 168.64 1267.42 192.84L1407.62 192.84Z" />
	</g>
</svg>