<svg version="1.2" xmlns="http://www.w3.org/2000/svg" viewBox="0 0 1595 341" width="1595" height="341">
	<title>logo_synchrony_dark-svg</title>
	<style>
		.s0 { fill: #fbc600 } 
		.s1 { fill: #3b3d44 } 
	</style>
	<path id="Layer" fill-rule="evenodd" class="s0" d="m259.2 170.5h-65.7v-170.5h65.7zm-259.2 170.5h65.7v-170.5h-65.7zm162.5-341h-65.8v341h65.8z"/>
	<path id="Layer" fill-rule="evenodd" class="s1" d="m596.6 95l-76.6 209h-22.1l19.9-59-63.7-150h21.9l53.4 123.9 45.7-123.9zm998 0l-76.6 209h-22.2l19.9-59-63.6-150h21.8l53.4 123.9 45.7-123.9zm-1142.2 108.2c0 26.5-23.5 45-57.3 45-36.2 0-60.3-18.7-63-48.7h22.5c2.3 13.5 11.3 28.9 40.6 28.9 21.4 0 35.1-9.5 35.1-24.7 0-16.6-8.6-20.5-36.6-25.4-29.7-5-56.5-12-56.5-43.6 0-24.1 23.2-41.6 55.1-41.6 32.1 0 52.2 14.6 56.7 41.2l0.5 2.9h-22.1l-0.1-0.8c-3.3-16.1-14.9-23.5-35.3-23.5-19.6 0-33.2 8.8-33.2 21.8 0 12.3 5.9 18.2 39.4 23.8 28.6 4.8 54.3 11.9 54.2 44.7zm687.3-110.4q1.7 0 3.4 0.1 1.7 0.1 3.3 0.2 1.7 0.2 3.4 0.4 1.7 0.2 3.3 0.5v21q-1.7-0.5-3.6-1-1.8-0.4-3.6-0.6-1.9-0.3-3.8-0.4-1.8-0.1-3.7-0.1c-29.1 0-44.3 21.5-44.3 42.8v90.1h-21.1v-150.8h21.1v16.4c10.3-10.5 26-18.6 45.6-18.6zm-261.6 97.6h21.9c-7.6 33.8-35.3 57.6-70.2 57.6-40.4 0-72.1-33.6-72.1-76.4v-2.1c0-43.5 31.2-76.4 72.6-76.4 32.4 0 57.8 19.4 67.5 48.9h-22.7c-8-17.9-24.3-29.1-44.9-29.1-29.6 0-51.2 23.8-51.2 56.6v2.1c0 32.6 21.5 56.3 51 56.3 23.7 0 41.8-14.8 48.1-37.5zm568-36.3v91.7h-21.1v-92c0-27.9-11.4-40.9-35.9-40.9-29.1 0-44.3 21.5-44.3 42.8v90.1h-21.1v-150.8h21.1v16.4c10.3-10.5 26-18.6 45.6-18.6 35.9 0 55.6 21.8 55.7 61.3zm-146.1 15.1v2.1c0 43.7-31.1 76.6-72.3 76.6-40.4 0-72.1-33.5-72.1-76.3v-2.1c0-43.6 31.2-76.4 72.6-76.4 41.6 0 71.8 32 71.8 76.1zm-21.4 2.1v-2.1c0-33.2-20.7-56.3-50.4-56.3-29.7 0-51.2 23.8-51.2 56.5v2.1c0 32.7 21.4 56.3 51 56.3 29.8 0 50.7-23.2 50.7-56.5zm-236.4-17.2v91.7h-21.1v-92c0-27.9-11.4-40.9-35.8-40.9-29.2 0-44.4 21.5-44.4 42.8v90.1h-21.1v-217.2h21.1v82.8c10.4-10.5 26.1-18.6 45.7-18.6 35.8 0 55.6 21.8 55.6 61.3zm-305.3 0v91.7h-21.1v-92c0-27.9-11.4-40.9-35.8-40.9-29.1 0-44.4 21.5-44.4 42.8v90.1h-21.1v-150.8h21.1v16.4c10.4-10.5 26.1-18.6 45.7-18.6 35.8 0 55.6 21.8 55.6 61.3z"/>
</svg>