<svg version="1.2" xmlns="http://www.w3.org/2000/svg" viewBox="0 0 1574 343" width="1574" height="343">
	<title>synopsys-logo-color-svg</title>
	<style>
		.s0 { fill: #5a2a82 } 
	</style>
	<g id="Layer_2">
		<g id="Layer_1-2">
			<path id="Layer" class="s0" d="m109.5 39.8c0-10.4-5.2-18.4-28.4-18.4-23.3 0-28.5 8-28.5 18.4v28.5q0 3.5 0.7 6.9 0.7 3.4 2.2 6.5 1.5 3.2 3.6 6 2.2 2.7 4.9 4.9l78.3 67.7q4 2.9 7.3 6.5 3.2 3.7 5.6 8 2.3 4.3 3.7 9 1.4 4.7 1.6 9.6v42.8c0 25.5-30 39.8-79.7 39.8-54.6-0.3-80.8-12.6-80.8-40v-36.9h49.5v35.6c0 12.8 9.8 20.3 31.5 20.3 20.3 0 30-7.5 30-20.3v-38c0-9.4-3.7-16.5-14.3-25.9l-72.7-63.4c-13.5-11.4-21-20.6-21-34.5v-32.6c0-26.6 27.8-39.8 78-39.8 55.6 0.1 78.1 13.2 78.1 38v34.4h-49.6z"/>
			<path id="Layer" fill-rule="evenodd" class="s0" d="m587.1 45.5c0-26.6 20.2-45.5 87.1-45.5 66.8 0 87 19.1 87 45.5v183.9c0 26.6-20.3 45.5-87.1 45.5-66.8 0-87-19.1-87-45.5zm49.5 182.9c0 15 6 25.5 37.5 25.5 31.5 0 37.5-10.3 37.5-25.3v-182c0-15-5.7-25.5-37.5-25.5-31.7 0-37.5 10.5-37.5 25.5z"/>
			<path id="Layer" fill-rule="evenodd" class="s0" d="m788.6 2.2h78.8c63.8 0 82.5 10.5 82.5 41.3v66.3c0 30.8-18.8 41.3-82.5 41.3h-29.3v121.9h-49.5zm73.5 127.9c22.5 0 38.3-3 38.3-17.1v-72.9c0-13.8-15.8-17-38.3-17h-24v107z"/>
			<path id="Layer" class="s0" d="m1073.6 39.4c0-10.6-5.3-18.4-28.5-18.4-23.2 0-28.5 7.8-28.5 18.4v28.4q0 3.5 0.7 6.9 0.8 3.4 2.2 6.6 1.5 3.1 3.7 5.9 2.1 2.7 4.8 5l78.8 67.4q3.9 2.9 7.1 6.6 3.2 3.6 5.6 7.9 2.3 4.3 3.6 9 1.4 4.7 1.7 9.5v42.7c0 25.6-30 39.9-79.7 39.9-54.8 0-81-12.4-81-39.9v-37h49.3v35.6c0 12.8 9.7 20.3 31.5 20.3 20.2 0 30-7.5 30-20.3v-37.9c0-9.3-3.7-16.5-14.3-25.8l-72.6-63.4c-13.5-11.3-21-20.6-21-34.4v-32.6c0-26.6 27.8-39.8 78.1-39.8 55.5 0 78 13.1 78 37.9v34.5h-49.5z"/>
			<path id="Layer" class="s0" d="m1439 39.4c0-10.6-5.2-18.4-28.5-18.4-23.2 0-28.4 7.8-28.4 18.4v28.4q-0.1 3.5 0.7 6.9 0.7 3.4 2.2 6.6 1.5 3.1 3.6 5.9 2.2 2.7 4.9 5l78.7 67.4q4 2.9 7.2 6.6 3.2 3.6 5.5 7.9 2.4 4.3 3.7 9 1.3 4.7 1.6 9.5v42.7c0 25.6-30 39.9-79.7 39.9-54.7 0-81-12.4-81-39.9v-37h49.5v35.6c0 12.8 9.8 20.3 31.6 20.3 20.3 0 30-7.5 30-20.3v-37.9c0-9.3-3.8-16.5-14.2-25.8l-73-63.4c-13.5-11.3-21-20.6-21-34.4v-32.6c0-26.5 27.8-39.8 78.1-39.8 55.5 0 78 13.1 78 37.9v34.5h-49.5z"/>
			<path id="Layer" class="s0" d="m313.8 2.3h49.6l-108.5 339.8h-49.6l108.5-339.8z"/>
			<path id="Layer" class="s0" d="m235.6 213.3l-67.1-210.5h49.6l42.2 132.8-24.7 77.7z"/>
			<path id="Layer" class="s0" d="m1277.3 2.3h49.5l-108.5 339.8h-49.6l108.6-339.8z"/>
			<path id="Layer" class="s0" d="m1199.3 212.7l-67.1-210.4h49.6l42.3 132.6-24.8 77.8z"/>
			<path id="Layer" class="s0" d="m507.4 273v-232.6c0-14.1-15.5-17.1-38.3-17.1h-40.7v249.7h-49.6v-270.7h95.2c63.8 0 82.6 10.5 82.6 41.2v229.5z"/>
			<path id="Layer" fill-rule="evenodd" class="s0" d="m1509.3 35.7c-0.2-13 7.5-24.7 19.4-29.7 12-5 25.7-2.4 34.9 6.7 9.2 9.1 12 22.8 7.2 34.7-4.9 12-16.6 19.8-29.5 19.9-4.2 0.1-8.4-0.7-12.3-2.2-3.9-1.6-7.4-3.9-10.4-6.9-3-2.9-5.3-6.4-6.9-10.3-1.7-3.9-2.5-8-2.4-12.2zm32 26.3c3.4 0 6.8-0.7 10-2 3.1-1.3 6-3.3 8.4-5.7 2.3-2.5 4.2-5.4 5.4-8.6 1.3-3.2 1.8-6.6 1.7-10 0-6.8-2.7-13.3-7.5-18.1-4.8-4.8-11.3-7.5-18.1-7.5-6.8 0-13.3 2.7-18.1 7.5-4.8 4.8-7.5 11.3-7.5 18.1-0.1 3.4 0.4 6.8 1.7 10 1.2 3.2 3.1 6.2 5.5 8.6 2.4 2.5 5.3 4.4 8.5 5.8 3.1 1.3 6.6 1.9 10 1.9zm-6.7-8.1h-5.7v-36.3h13.9c8.6 0 12.9 3.2 12.9 10.3 0.1 1.3-0.1 2.6-0.6 3.8-0.4 1.2-1.1 2.3-2 3.3-0.9 0.9-1.9 1.6-3.1 2.2-1.2 0.5-2.5 0.7-3.7 0.7l10.3 16h-6.1l-9.7-15.7h-6.3zm6.6-20.5c4.6 0 8.9-0.3 8.9-5.6 0-4.5-4.1-5.4-8-5.4h-7.5v11.4z"/>
		</g>
	</g>
</svg>