<svg version="1.2" xmlns="http://www.w3.org/2000/svg" viewBox="0 0 1556 602" width="1556" height="602">
	<title>Sysco-Logo-svg</title>
	<defs>
		<clipPath clipPathUnits="userSpaceOnUse" id="cp1">
			<path d="m-118.34-238h1822.3v883.77h-1822.3z"/>
		</clipPath>
	</defs>
	<style>
		.s0 { fill: #0081c6 } 
		.s1 { fill: #6db33f } 
	</style>
	<g id="layer1">
		<g id="g85">
			<g id="Clip-Path: g87" clip-path="url(#cp1)">
				<g id="g87">
					<g id="g93">
						<path id="path95" class="s0" d="m281.6 96.2c-30.1-12.9-71.7-22-105.3-22-32.8 0-75.3 14.2-75.3 65.4 0 81.6 209.6 47.3 209.6 205.1 0 103.2-82.9 142.3-179.5 142.3-52 0-75.3-6.8-122.6-18.2l-0.1-85c32.9 17.5 79.6 29 117.2 29 36.4 0 85-18.2 85-60.7 0-89.7-209.6-52.6-209.6-208.4 0-105.2 82.9-143.7 167.1-143.7 41.1 0 79.4 5.4 114.4 16.9z"/>
					</g>
					<g id="g109">
						<path id="path111" class="s0" d="m431.8 601.8h-81.8l170.2-463.4h90.4z"/>
					</g>
					<g id="g113">
						<path id="path115" class="s1" d="m242.2 127.4c68.7 5.7 142 33.8 172.4 94.9 29.1 58.3 9.2 135.5-23.3 192.3-0.6 1.3-1.7 1.5-2.1-0.2-8.8-48.1-21.2-95.8-45.6-144.7-27.2-54.7-64.9-101.3-102.7-139.6-1.6-1.5-1.1-2.8 1.3-2.7z"/>
					</g>
					<g id="g197">
						<path id="path99" fill-rule="evenodd" class="s0" d="m830.8 213.8c-27.3-9.2-52-14.5-84.6-14.5-23.9 0-52.5 8.5-52.5 37.4 0 53.7 155 19.6 155 141.4 0 78.6-71.2 110.1-143.7 110.1-33.9 0-68.5-5.9-101.1-14.5l5.4-72c27.9 13.8 57.2 22.3 87.7 22.3 22.7 0 58.5-8.5 58.5-41.3 0-66.1-154.9-20.9-154.9-142.8 0-72.6 64.5-104.7 134.3-104.7 41.9 0 69.2 6.5 97.1 12.4zm282.2 2c-15.9-7.2-33.2-12.5-60.5-12.5-55.2 0-90.4 43.2-90.4 106.8 0 62.2 29.9 110 92.4 110 25.3 0 53.2-9.2 68.5-15.7l4 72.7c-26 7.8-52.6 11.1-89.1 11.1-112.4 0-168.9-75.3-168.9-178.1 0-97.6 58.5-174.9 165.5-174.9 35.9 0 61.9 4 86.5 11.2zm202.9-80.6c101.8 0 179.5 67.5 179.5 178.8 0 96.9-65.8 174.2-179.5 174.2-113 0-178.9-77.3-178.9-174.2 0-111.3 77.9-178.8 178.9-178.8zm0 284.9c68.5 0 86.5-60.3 86.5-116.6 0-51.7-28-100.2-86.5-100.2-57.8 0-85.7 49.8-85.7 100.2 0 55.7 17.9 116.6 85.7 116.6zm177.9-277.5h-12.2v-4.4h29.7v4.4h-12.3v35.7h-5.2zm55.8 18.2c-0.3-5.6-0.6-12.4-0.6-17.4h-0.1c-1.5 4.7-3.1 9.8-5.1 15.3l-7.1 19.5h-3.9l-6.6-19.2c-1.9-5.6-3.5-10.8-4.6-15.6h-0.1c-0.1 5-0.4 11.8-0.8 17.8l-1 17.2h-5l2.8-40.2h6.6l6.9 19.5c1.6 4.9 3 9.4 4 13.5h0.1c1.1-4 2.5-8.5 4.3-13.5l7.2-19.5h6.6l2.5 40.2h-5.1z"/>
					</g>
				</g>
			</g>
		</g>
	</g>
</svg>