<svg version="1.2" baseProfile="tiny-ps" xmlns="http://www.w3.org/2000/svg" viewBox="0 0 1552 1552" width="1552" height="1552">
	<title>tmo-logo-v3-svg</title>
	<style>
		tspan { white-space:pre }
		.shp0 { fill: #e20074 } 
		.shp1 { fill: #ffffff } 
	</style>
	<g id="Page-1">
		<g id="tmo-logo-v2">
			<g id="Fläche">
				<path id="Rectangle" class="shp0" d="M0 0L1552 0L1552 1552L0 1552L0 0Z" />
			</g>
			<g id="Marke">
				<g id="Group">
					<path id="Path" class="shp1" d="M322.34 955.08L322.34 731.23L438.74 731.23L546.18 731.23L546.18 955.08L322.34 955.08Z" />
					<path id="Path" class="shp1" d="M1005.82 955.08L1005.82 731.23L1134.15 731.23L1229.66 731.23L1229.66 955.08L1005.82 955.08Z" />
					<path id="Path" class="shp1" d="M1217.72 223.85L334.28 223.85L322.34 614.83L382.03 623.78C393.97 507.38 423.82 423.82 471.57 367.11C522.31 310.4 593.94 277.57 686.46 274.58L686.46 1089.38C686.46 1161.02 677.51 1205.78 656.62 1226.68C638.71 1244.58 608.86 1256.52 567.08 1259.51C555.14 1259.51 534.25 1262.49 504.4 1262.49L504.4 1325.17L1050.58 1325.17L1050.58 1262.49C1020.74 1262.49 999.85 1262.49 987.91 1259.51C946.12 1256.52 916.28 1244.58 898.37 1226.68C877.48 1205.78 868.52 1158.03 868.52 1089.38L868.52 277.57C961.05 280.55 1032.68 310.4 1083.42 370.09C1134.15 426.8 1164 510.37 1172.95 626.77L1232.65 617.82L1217.72 223.85Z" />
				</g>
			</g>
		</g>
	</g>
</svg>