<svg version="1.2" xmlns="http://www.w3.org/2000/svg" viewBox="0 0 1504 226" width="1504" height="226">
	<title>T</title>
	<style>
		.s0 { fill: #000000 } 
	</style>
	<path id="Layer" fill-rule="evenodd" class="s0" d="m1168.5 192.7c1.9 5.7 10.8 5.3 16.5 6.9 2 3.7 1.8 3 3.9 9.4h-74.8c2.9-4.9 2.8-5.8 4.8-9.4 5.3-2.5 12.6-2.3 13.7-9.3v-117.2c11.5-2.2 23.9-3.4 35.9-5.6zm-1123.7 16.4l3.3-9.4c10.8-2.1 18.3-2.2 18.3-9v-171.2h-34.6c-15 0-16.1 12.2-20.9 34.9h-10l2.3-53.7h167.5l2.3 53.7h-10.1c-4.9-22.7-5.9-34.9-20.9-34.9h-34.5v171.2c0 6.8 7.4 6.9 18.2 9l3.3 9.4zm511.2-120.5c-1.6-5.2-9.4-6-16.8-7.3l-3.4-9.3h75.8l-3.3 9.3c-9.8 1.7-12.3 4.4-12.3 9.1 0 3.3 1.3 8.2 2.5 13.3 3.5 15 4 17.9 11.2 47.3l24.6-79.1h23.3l23.7 79.6c0 0 8.8-36 13.9-57.1 0.8-2.8 1.1-5 1.1-7 0-3.8-3.7-4.7-11.4-6.1l-3.3-9.4h56.4l-3.2 9.4c-8.7 1.5-15.5 2-18.7 12.4l-30.5 115.4h-23.2l-26-81.8-25 81.8h-22.3zm595.2-32c-10.9 0-19.7-8.8-19.7-19.6 0-10.9 8.8-19.7 19.7-19.7 10.8 0 19.6 8.8 19.6 19.7 0 10.8-8.8 19.6-19.6 19.6zm-975.1 154.1c-10.8 0-19.5-8.7-19.5-19.4 0-10.8 8.7-19.5 19.5-19.5 10.7 0 19.4 8.7 19.4 19.5 0 10.7-8.7 19.4-19.4 19.4zm230.8-70.3c-0.3-39.9 22-73.5 68.5-73.5 44.6 0 68.5 30.9 68.5 73.5 0 40.8-22.5 73.7-68.5 73.7-46 0-68.5-32.5-68.5-73.7zm96.9 0c0-40.7-7.2-60.2-28.4-60.2-24.9 0-28.4 28.4-28.4 60.2 0 43.2 8.3 60.3 28.4 60.3 20.5 0.1 28.4-18.2 28.4-60.3zm-78.3 82.3c-4 0.9-9.3 2.8-21.2 2.8-25 0-39.4-5.7-63.8-45.7-18-29.5-29.2-54.4-47.6-82.6h7.7c25.2 0 42.5-13.6 42.5-43.4 0-24-6.6-38.8-36.2-38.8h-18.8c-3.4 0-4.5 1.5-4.5 5v170.7c0 6.8 7.5 6.9 18.3 9l3.3 9.4h-84.1l3.2-9.4c10.8-2.1 18.3-2.2 18.3-9v-171.5c0-6.8-7.5-7-18.3-9l-3.2-9.5h108.5c38.3 0 56 17.7 56 46.3 0 41-30.4 52-45.4 56 13.3 13.7 61.8 97.3 61.8 97.3 4.3 7.4 10.1 14.2 22.5 14.2zm691.1-155.7l-8 50.6h-9.8c-1.9-13.9-6-21.7-14.6-21.7-9.6 0-14.5 7.3-17.3 11.4l0.1 83.4c0 6.8 7.4 6.9 18.2 9l3.2 9.4h-78.9l3.3-9.4c10.7-2.1 18.2-2.2 18.2-9v-91.4c0-6.2-2.5-9-6.2-9.8-6.1 5.6-29.4 20.8-52.8 20.8-6.5 0-12.4-0.8-14.2-1.1l-7.6-12h8.4c26.4 0 41.7-15.7 41.7-43.6 0-24-6.7-38.6-37.1-38.6h-17.7c-3.6 0-4.5 1.7-4.5 5v170.7c0 6.8 7.5 6.9 18.3 9l3.2 9.4h-84.1l3.3-9.4c10.7-2.1 18.2-2.2 18.2-9v-171.5c0-6.8-7.4-7-18.2-9l-3.3-9.4h108.6c38.9 0 55.9 18 55.9 47.3 0 11.6-3.4 21.8-6.2 26.4l30.2-8.3v26.4c9.8-12.8 27-26.6 49.7-25.6zm-302.7 129.1c13.7 0 24.9-6.7 28.5-8.9l1.1 9.8c-5.2 4.5-19.9 17.1-48 17.1-46.6 0-65.4-35.1-65.4-73.6 0-24.3 7.1-73.5 65.2-73.5 51.5 0 60.2 46.6 61.2 62.3l-7.9 7.4h-80.3c0 34.2 15.8 59.4 45.6 59.4zm-44.9-72.5h51.3c0-16.2-3.8-43.3-25.6-43.3-22.5 0-25.7 28.6-25.7 43.3zm628.7 72.5c13.7 0 24.9-6.7 28.5-8.9l1 9.8c-5.2 4.5-19.7 17.1-48 17.1-46.5 0-65.3-35.1-65.3-73.6 0-24.3 7.1-73.5 65.2-73.5 51.5 0 60.1 46.6 61.2 62.3l-7.9 7.4h-80.3c0 34.2 15.8 59.4 45.6 59.4zm-44.9-72.5h51.4c0-16.2-4-43.3-25.7-43.3-22.6 0-25.7 28.6-25.7 43.3zm-163.4 14.8c0-48.3 29.3-71.4 71.4-71.4 25 0 41.1 5.8 42.8 6.4l-7 44.1h-9.8c-3.4-24.6-10.8-37.2-28.4-37.2-23.2 0-30.7 27.2-30.7 54.7 0 34.1 18.4 61.1 49.2 61.1 12.2 0 24.8-6.4 28.9-8.9l1.1 9.8c-4.6 3.7-20.6 17-46.4 17-49.6 0-71.2-36.4-71.1-75.6zm287.2-46.3c-14.7 0-26.6-11.9-26.6-26.6 0-14.7 11.9-26.6 26.6-26.6 14.6 0 26.5 11.9 26.5 26.6 0 14.7-11.9 26.6-26.5 26.6zm22.5-26.6c0-12.7-10.1-22.9-22.5-22.9-12.5 0-22.6 10.2-22.6 22.9 0 12.7 10.1 22.9 22.6 22.9 12.4 0 22.5-10.2 22.5-22.9zm-8.2 14.7h-5.7q-0.8-1.1-1-3.8c-0.1-2.3-0.2-3.8-0.4-4.7-0.4-1.8-1.2-3-2.5-3.4-1-0.4-2.4-0.5-4.1-0.5h-7.7v12.4h-4.7v-29.3h14.3q4 0 6.2 1.3 3.9 2.3 3.9 6.9c0 3.2-1.4 5.4-4.4 6.9 1.3 0.5 2.2 1.3 2.9 2.5 0.4 0.7 0.6 1.7 0.8 3.1 0 0.2 0.1 1.3 0.3 3.2 0.2 2.4 0.6 3.9 1.1 4.3zm-6.4-20.8c0-2.1-0.9-3.4-2.7-4q-1.3-0.4-3.9-0.4h-8.3v9.1h7.2c2.7 0 4.6-0.3 5.6-0.8 1.4-0.8 2.1-2.1 2.1-3.9z"/>
</svg>