<svg version="1.2" xmlns="http://www.w3.org/2000/svg" viewBox="0 0 1550 1302" width="1550" height="1302">
	<title>Take-Two_Interactive_Logo-svg</title>
	<style>
		.s0 { fill: #000000 } 
	</style>
	<path id="Layer" fill-rule="evenodd" class="s0" d="m248.3 1259.5h-16.3v-13.2h47.8v13.2h-16.4v41.3h-15.1m65.6-54.9h14.6l23.2 55h-16.2l-3.9-9.9h-21.1l-3.9 9.9h-15.8zm13.2 33.3l-6.1-15.4-6.1 15.4zm45.5-33h15.1v22.2l18.9-22.2h17.8l-20.6 23.4 21.3 31.2h-18.1l-13.8-20.2-5.5 6v14.2h-15.1zm72.5 0h43.9v12.8h-28.9v8.4h26.2v11.9h-26.2v8.6h29.3v12.9h-44.3zm66 23.7h25.6v13h-25.6zm56.1-10.5h-16.3v-13.2h47.8v13.2h-16.4v41.3h-15.1zm50.1-13.2h16l9.5 31.6 10.5-31.8h13l10.5 31.8 9.5-31.6h15.7l-18.2 55h-13.2l-10.9-31.5-11 31.5h-13.2zm101.5 27.4v-0.1c0-15.7 12.7-28.4 29.5-28.4 16.9 0 29.3 12.5 29.3 28.2v0.2c0 15.6-12.6 28.3-29.5 28.3-16.8 0-29.3-12.5-29.3-28.2zm43.3 0v-0.1c0-8-5.6-14.8-14-14.8-8.3 0-13.8 6.7-13.8 14.6v0.2c0 7.8 5.7 14.7 14 14.7 8.3 0 13.8-6.7 13.8-14.6zm76.6-27.4h15.1v54.5h-15.1zm40.7 0h14.1l22.5 28.9v-28.9h14.9v54.6h-13.1l-23.4-29.9v29.9h-15zm90.2 13.3h-16.3v-13.3h47.8v13.3h-16.4v41.3h-15.1zm53.8-13.2h43.9v12.8h-29v8.3h26.2v11.9h-26.2v8.7h29.3v12.8h-44.2zm67.7 0h25.8c8.3 0 14.1 2.2 17.8 5.9 3.2 3.2 4.8 7.3 4.8 12.7v0.2c0 8.4-4.4 13.9-11.2 16.8l13 19h-17.4l-11-16.5h-6.7v16.5h-15.1zm25.2 26.2c5 0 8.1-2.5 8.1-6.4v-0.2c0-4.4-3.2-6.5-8.2-6.5h-10v13.1zm64.4-26.6h14.6l23.2 55h-16.2l-3.9-9.8h-21.1l-3.9 9.8h-15.9zm13.3 33.4l-6.1-15.4-6.2 15.4zm40.2-5.5v-0.2c0-15.9 12.2-28.4 28.7-28.4 11.2 0 18.4 4.7 23.2 11.3l-11.4 8.8c-3.1-3.8-6.7-6.4-11.9-6.4-7.7 0-13 6.6-13 14.5v0.2c0 8.2 5.3 14.6 13 14.6 5.7 0 9-2.7 12.3-6.6l11.4 8.1c-5.2 7.1-12.1 12.3-24.1 12.3-15.6 0-28.2-12-28.2-28.2zm87.8-14.2h-16.3v-13.3h47.8v13.3h-16.4v41.3h-15.1zm54.2-13.3h15.1v54.6h-15.1zm36.4 0h16.9l12.3 34.6 12.5-34.6h16.6l-22.2 55h-14zm79.2 0h43.9v12.8h-29v8.3h26.2v12h-26.2v8.6h29.4v12.9h-44.3z"/>
	<path id="Layer" class="s0" d="m1550 903l-13.2 283.6-881.2 1.1-0.3-265 393-295.9c70.8-60.9 155.1-131.9 155-233.2-0.1-67.5-42.3-121.5-113.2-121.4-108.1 0.2-138.3 111.6-143.3 201.1l-292.1-57.1c6-47.1 17.4-90.8 33.5-130.8l-93.2 0.1 1.1 900.6-345.8 0.4-1-900.6-249 0.3-0.3-285.2 838.4-1 0.1 93.7c75.1-52.5 169.2-81.3 276.6-81.5 231.3-0.2 427.2 124.4 427.5 374.3 0.2 124.9-57.1 217.8-148.2 298.9l-268.2 201.3-26.9 16.9"/>
</svg>