<svg version="1.2" xmlns="http://www.w3.org/2000/svg" viewBox="0 0 1528 338" width="1528" height="338">
	<title>Tapestry_logo-svg</title>
	<style>
		.s0 { fill: #000000 } 
	</style>
	<g id="layer1">
		<g id="g212">
			<path id="path196" class="s0" d="m142.5 203l9.4 19.8c-14.2 15.6-36.4 28.4-60.7 28.4-46.1 0-62.5-22.8-62.5-57.1v-108.9h-28.1v-27.4h30.3l13.9-57.2h39.9v57.2h58v27.4h-58v97.4c0 21.5 7.3 32.3 24.6 32.3 12.9 0 22.6-2.8 33.2-11.9z"/>
			<path id="path198" fill-rule="evenodd" class="s0" d="m1144.5 203l9.4 19.8c-14.2 15.6-36.4 28.4-60.7 28.4-46.1 0-62.5-22.8-62.5-57.1v-108.9h-28.1v-27.4h30.3l13.8-57.2h39.9v57.2h58v27.4h-58v97.4c0 21.5 7.4 32.3 24.7 32.3 12.9 0 22.6-2.8 33.2-11.9zm382.9-121.7c0 50.6-34 110.3-114.9 175.1-16 56.9-36.9 81.2-59.8 81.2-14.6 0-22.6-11.5-22.6-25.7 0-21.8 20.9-42.9 62.2-71l-27.4-131.1c-5.3-24.7-8.7-27.8-25-30.9v-21.2h72.3l27.1 145c42-45.5 58.3-88.8 56.6-118.2q-1.7 1.5-3.6 2.6-1.9 1.2-4 2-2.1 0.8-4.3 1.2-2.2 0.4-4.5 0.4c-13.5 0-23.9-11.1-23.9-25 0-17.3 15.3-31.2 34-31.2 23.5 0 37.8 18.1 37.8 46.8zm-1168.7 145v21.1h-63.5l-10.1-22.5c-11.8 15.9-32.6 26-56.2 26-38.6 0-61.5-22.9-61.5-54.1 0-39.6 33.3-63.5 112.5-58.3v-20.4c0-23.9-11.5-38.1-37.5-38.1q-2.5-0.1-5.1 0.1-2.5 0.2-5.1 0.6-2.5 0.4-5 1-2.5 0.6-4.9 1.4c4.5 3.8 7.3 9.7 7.3 17.7 0 14.9-11.5 24.9-25.7 24.9-15 0-25-11.1-25-25.6 0-29.9 34.7-45.8 78.8-45.8 51 0 77.8 27.4 77.8 66.6v77.7c0 20.1 5.9 25.3 23.2 27.7zm-78.7-65.8c-43.4-2.8-55.3 9.4-55.3 30.9 0 15.5 9.4 25.9 27.1 25.9 15.7 0 28.2-10.7 28.2-23.6zm307.6-13.2c0 62.1-40.6 102.7-95.1 102.7-18.8 0-33-4.2-44.1-10.4v66.6l30.5 6.2v20.1h-112.2v-20.1l25.4-5.9v-199.3c0-20.2-5.9-25.7-23.3-28.1v-21.2h75.8l-1.4 31.2c13.1-22.9 35.4-34 62.5-34 47.9 0 82 33.6 81.9 92.2zm-59 2.1c0-37.5-14.9-59.7-39.6-59.7-25.7 0-40.6 20.2-40.6 53.5v66.5q3.3 2.7 7 4.8 3.8 2 7.8 3.4 4.1 1.4 8.3 2 4.2 0.7 8.5 0.6c29.5 0 48.6-25 48.6-71.1zm797.3-65.6c0 15.3-11.1 28.1-27.1 28.1-2.8 0.1-5.6-0.4-8.2-1.3-2.7-0.9-5.1-2.2-7.3-3.9-2.2-1.7-4.1-3.8-5.6-6.2-1.5-2.3-2.6-4.9-3.2-7.6-13.9 7.6-22.9 24.6-22.9 47.8v80.5l30.5 6.2v20.2h-112.2v-20.2l25.4-5.9v-114.4c0-20.1-5.9-25.7-23.3-28.1v-21.2h74.7l-1.4 38.5c10.2-26.7 29.6-41.9 50-41.9 20.2 0 30.6 14.2 30.6 29.4zm-341.6 102c0 41.3-32.3 65.2-86.5 65.2-33 0-57.2-9.3-69.4-16.6v-47.5h19.1c8.4 25.3 21.9 37.8 51.7 37.8 21.9 0 35.1-9.4 35.1-24.7 0-16.9-15.9-18.3-45.1-24.2-29.9-5.9-63.5-13.6-63.5-58.6 0-39.6 29.1-62.8 80.2-62.8 21.8 0 45.8 4.5 62.4 11.1v46.1h-19.4c-6.3-20.8-20.5-30.8-44.5-30.8-18.7 0-28.8 9.7-28.8 22.1 0 17 15.9 18.4 45.1 24.3 29.9 5.9 63.6 13.5 63.6 58.6zm-191.4-31.4h-123.3c3.5 40.1 24.7 62.3 59.4 62.3 17 0 34-7.3 48.9-21.8l13.6 12.8c-16.3 24.9-42.4 43.3-82.7 43.3-61.1 0-98.3-40.2-98.3-96.4 0-59 37.2-100.2 98.3-100.2 70.2 0 92.4 55.5 84.1 100zm-54.3-24.4c-0.3-32.9-12.8-48.5-32.3-48.5-18.4 0-34.3 14.1-37.1 48.5z"/>
		</g>
	</g>
</svg>