<svg version="1.2" baseProfile="tiny-ps" xmlns="http://www.w3.org/2000/svg" viewBox="0 0 1313 1827" width="1313" height="1827">
	<title>target-svg</title>
	<style>
		tspan { white-space:pre }
		.shp0 { fill: #cc0000 } 
	</style>
	<g id="Layer">
		<path id="Layer" fill-rule="evenodd" class="shp0" d="M2.19 654.96C2.19 293.42 294.8 0.94 656.5 0.94C1018.2 0.94 1310.81 293.42 1310.81 654.96C1310.81 1016.49 1018.2 1308.97 656.5 1308.97C294.8 1311.01 2.19 1016.49 2.19 654.96ZM656.5 1091.65C898.31 1091.65 1093.38 896.66 1093.38 654.96C1093.38 413.25 898.31 218.27 656.5 218.27C414.69 218.27 219.62 413.25 219.62 654.96C219.62 896.66 414.69 1091.65 656.5 1091.65ZM873.93 654.96C873.93 774.79 776.39 872.29 656.5 872.29C536.61 872.29 439.07 774.79 439.07 654.96C439.07 535.12 536.61 437.63 656.5 437.63C776.39 437.63 873.93 535.12 873.93 654.96Z" />
		<path id="Layer" fill-rule="evenodd" class="shp0" d="M113.95 1394.28L113.95 1471.46L164.75 1471.46L164.75 1518.18L113.95 1518.18L113.95 1646.14C113.95 1670.51 120.05 1676.61 144.43 1676.61C152.56 1676.61 158.65 1676.61 166.78 1674.57L166.78 1729.41C152.56 1731.45 138.33 1731.45 124.11 1731.45C71.28 1731.45 42.83 1715.2 42.83 1668.48L42.83 1518.18L0.16 1518.18L0.16 1471.46L42.83 1471.46L42.83 1394.28L113.95 1394.28ZM439.07 1682.7L441.11 1682.7L441.11 1729.41C432.98 1733.48 422.82 1735.51 412.66 1735.51C380.14 1735.51 363.89 1725.35 357.79 1703.01C341.54 1723.32 311.06 1737.54 268.38 1737.54C215.55 1737.54 181.01 1711.13 181.01 1660.36C178.97 1640.05 187.1 1619.73 203.36 1605.52C219.62 1591.3 244 1585.21 286.67 1579.11C333.41 1573.02 351.7 1570.99 351.7 1546.61C351.7 1518.18 331.38 1512.09 306.99 1512.09C278.54 1512.09 262.29 1524.27 260.26 1550.68L189.13 1550.68C191.17 1493.81 237.9 1465.37 309.02 1465.37C384.21 1465.37 420.79 1489.74 420.79 1538.49L420.79 1662.39C420.79 1678.64 422.82 1682.7 439.07 1682.7ZM349.66 1629.89L349.66 1603.49C343.57 1609.58 331.38 1613.64 306.99 1615.67C270.42 1619.73 250.1 1627.86 250.1 1656.29C250.1 1676.61 262.29 1688.79 292.77 1688.79C331.38 1688.79 349.66 1668.48 349.66 1629.89ZM623.99 1532.4C615.86 1530.37 607.73 1530.37 599.6 1530.37C548.8 1530.37 530.51 1564.89 530.51 1613.64L530.51 1729.41L459.39 1729.41L459.39 1471.46L526.45 1471.46L526.45 1518.18C540.67 1485.68 573.19 1463.34 607.73 1463.34C613.83 1465.37 617.89 1465.37 623.99 1467.4L623.99 1532.4ZM810.93 1471.46L877.99 1471.46L877.99 1713.17C877.99 1780.19 839.38 1826.91 745.91 1826.91C686.98 1826.91 636.18 1796.44 632.12 1743.63L703.24 1743.63C709.33 1768.01 727.62 1778.16 756.07 1778.16C792.65 1778.16 812.97 1755.82 812.97 1715.2L812.97 1680.67C796.71 1707.07 766.23 1723.32 735.75 1721.29C662.6 1721.29 626.02 1668.48 626.02 1591.3C626.02 1526.3 664.63 1463.34 735.75 1463.34C764.2 1463.34 794.68 1479.59 810.93 1505.99L810.93 1471.46ZM810.93 1597.39C810.93 1560.83 800.77 1518.18 749.97 1518.18C713.4 1518.18 693.08 1548.65 693.08 1591.3C693.08 1633.95 709.33 1668.48 749.97 1668.48C788.58 1668.48 810.93 1638.01 810.93 1597.39ZM1154.35 1619.73L969.43 1619.73C971.46 1664.42 991.78 1684.73 1032.42 1684.73C1058.84 1684.73 1083.22 1668.48 1089.32 1652.23L1152.31 1652.23C1134.03 1711.13 1093.38 1739.57 1032.42 1739.57C951.14 1739.57 900.34 1682.7 900.34 1605.52C900.34 1526.3 953.18 1469.43 1032.42 1469.43C1109.64 1465.37 1154.35 1528.33 1154.35 1605.52L1154.35 1619.73ZM1026.33 1518.18C995.85 1516.15 969.43 1538.49 967.4 1568.96L967.4 1573.02L1083.22 1573.02C1077.13 1534.43 1058.84 1518.18 1026.33 1518.18ZM1260.01 1394.28L1260.01 1471.46L1310.81 1471.46L1310.81 1518.18L1260.01 1518.18L1260.01 1646.14C1260.01 1670.51 1266.11 1676.61 1290.49 1676.61C1298.62 1676.61 1304.72 1676.61 1312.84 1674.57L1312.84 1729.41C1298.62 1731.45 1284.4 1731.45 1270.17 1731.45C1217.34 1731.45 1188.89 1715.2 1188.89 1668.48L1188.89 1518.18L1146.22 1518.18L1146.22 1471.46L1188.89 1471.46L1188.89 1394.28L1260.01 1394.28Z" />
	</g>
</svg>