<svg version="1.2" xmlns="http://www.w3.org/2000/svg" viewBox="0 0 1588 453" width="1588" height="453">
	<title>targa-resources-seeklogo</title>
	<style>
		.s0 { fill: #243b6e } 
		.s1 { fill: #171617 } 
		.s2 { fill: #c21a1f } 
	</style>
	<g id="Layer">
		<path id="Layer" class="s0" d="m439 196.5q-18.4 0-36.9 0c-1.3-7.1-2.6-14-4.5-20.8-17.2-60.9-64.2-108.6-124.5-127.1-9-2.6-18.4-4.8-27.8-6.1-28.2-3.9-56.7-1.3-84 7.7-22 7.5-42.4 18.8-60.2 34.1-14.3 12-26.9 26.3-37 42.1-9.7 15.3-16.8 31.8-21.7 49-1.9 6.8-3.5 13.6-4.5 20.8h-36.6l-0.4-195.9h439.4v195.9z"/>
		<path id="Layer" fill-rule="evenodd" class="s1" d="m185.6 388.8c-55-11.7-100.7-49.9-121.5-102.2-10.3-26.2-13.9-54.8-10.3-83 7.7-62.2 49.5-115.1 108.2-136.8 20.1-7.2 41.5-10.7 62.9-10.4 33.3 1 65.4 12 92.6 31.1 17.8 12.7 32.8 28.6 44.4 46.7 17.8 28.2 26.9 61 25.9 94.4-0.6 16.5-3.5 33.1-8.7 49-7.1 21.7-18.8 41.5-34 58.3-14.6 16.2-31.8 29.2-51.2 38.9-14.3 7.2-29.5 12-45.4 14.6-20.7 3.9-42.1 3.6-62.9-0.6zm32.4-44.8c7.8 0.4 15.6 0.4 23.7-0.3 74.9-4.8 131.9-69.7 126.7-144.9-5.2-75.3-69.7-132-144.8-126.8-4.3 0.3-8.5 0.6-12.7 1.3-18.1 2.2-35.6 8.1-51.5 17.5-14.6 8.4-27.5 19.8-37.9 32.7-46.7 59-37 144.7 22 191.4 21.4 16.8 47.3 26.9 74.5 29.1zm-216.7 109v-197.8c11.6 0 23.3 0 35.3 0h1.6c16.5 100.5 111.5 168.3 211.9 151.8 56.7-9.5 106-44.8 132.9-96 9.1-17.5 15.5-36.4 18.8-55.8h38.9v4.5c0.3 63.6 0 126.8 0 190.4v2.9z"/>
		<path id="Layer" fill-rule="evenodd" class="s0" d="m876.2 293.5c-5.2-9.8-10.4-19.5-15.6-28.9-0.3-0.3-0.6-0.7-1-0.7-0.6 0-83.9 0-84.5 0l-16.2 29.6c-9.8 0-19.8-0.4-29.5 0-1.3 0-2.9 0-4.2-0.4l75.1-136.5h33.7l79.1 136.9zm-89.8-53.6h62.3l-32.5-56.7c-9.7 18.5-19.4 37-29.1 55.1-0.3 0.7-0.3 1.3-0.7 1.6zm434.6 55.8c-1.7 0-2.9 0-4.6-0.3-5.8-0.3-11.6-1.3-17.5-3.2-8.7-3-12-14-12-22.1 0-29.5-0.6-59.3 0.4-89.2 0.3-10 3.9-19.8 14.2-23 3.6-1.3 7.5-1.6 11.4-1.6 35.6 1.3 71.6 0 107.2 0 5.2 0 10.1 1 14.9 2.6 3.9 1.3 7.5 3.9 10.1 7.4 4.5 5.5 5.5 17.9 4.5 25l-31.7 6.2v-15.9h-98.6c0 0.3 0 0.9 0 1.3v85.3c31.8 0 63.9 0 95.6 0q1.5 0 3 0v-29.6h-51.2v-23.6h83.6c-0.4 20.7-0.4 41.5 0 62.6 0 5.8-3.3 11.3-8.5 14.2q-3.9 2.5-8.7 2.9c-13 1-25.6 0.7-38.6 1-24.6 0.3-48.9 0-73.5 0zm-137.7-2.9c-1.3-0.3-0.7 0.3-2-0.6-18.1-16.6-36-33.4-54.1-50-9.4 0-19.1-0.6-28.5-0.3 0.3 15.9 0.3 31.8 1 47.7 0 1.3 0 2.2 0 3.5h-34.7v-136.5c37.6 0 75.2-1 113.1 0.3q8.7 0.5 17.5 2.9c11.6 3.3 20.1 11.4 21 23.7 0.7 9.7 0.7 19.2 0.7 28.9 0.3 8.4-2.6 16.8-8.4 23-5.6 5.2-16.6 6.5-23.7 6.8q-7.8 0.5-15.6 0l57.4 51.3c0.3 0.3-0.3 0.6-0.3 0.9-14.9-1.3-29.2-1.3-43.4-1.6zm-86.6-75.6c20.8 0.4 41.5 1 61.9 0.4 6.5-0.4 14.6 0 20.1-3.9 3.3-2.3 4.9-6.2 4.9-10.1 0.3-4.2 0-8.1-0.7-12.3-1.6-9.1-11-11.7-19.1-11.7-22.3 0.7-45 0.4-67.1 1 0 12.3 0 24.6 0 36.6zm-387.5 77.5v-112.8h-63.2v-23.7h158.5v23.7q-30.7 0-61.3 0c-0.6 0-1.3 0-1.9 0.3v112.5zm941 0c-4.6-9.4-10.1-18.4-14.6-27.5-0.3-0.7-0.7-1-1-1.6-0.6-0.4-1-0.4-1.6-0.4-27.6 0.4-55.4 0-83 0-0.3 0-0.6 0-0.9 0.4q-7.8 14.6-15.6 29.1h-34l75.2-136.2h33.7c0.3 0.4 0.6 1 0.9 1.7 25.6 43.7 50.6 87.9 76.2 132 0.6 0.9 1.3 2.2 1.6 3.5zm-89.8-53.5h62.3l-32.4-56.7c-9.8 18.4-19.2 36.9-29.2 55.1 0 0.6-0.3 1.3-0.7 1.6z"/>
		<path id="Layer" class="s2" d="m210.3 290.2c-0.7-1-1-2.3-1.3-3.6-0.4-3.2 0.6-6.4 0.6-9.7-0.3-8.1-1.9-17.2-2.2-25.3-0.4-14.2 2.5-27.9 2.2-41.8-0.6-3.6-1.3-7.1-2.6-10.4 0-1 0-1.6 0.7-2.6l0.6-0.6 1.3-0.7c-3.2-3.9-2.9-6.1-2.6-11-3.5 1-6.8 2.6-10 4.5l0.3 3.6c-4.2 0.6-8.7-1.6-8.4-6.5 0-2.6 1-4.9 2.3-7.1 3.2-3.9 8.1-6.2 13.2-6.8 0.4-0.4 0.7-0.4 1-0.7 2.6-3.9 5.5-7.1 8.8-10.4 1.9-1.6 7.1 1.3 8.7 3 1.6-3 2.3-3 5.5-3.9 13.9-3.9 27.9-8.1 41.8-11.4 6.5-1 12.7-1.3 19.1-1.3 6.2 0.3 12.7 1 18.5 2.9q2.4 5.9 5.8 10.7c2 3.3-0.6 10.4-1.6 13.7-3.5 1.6-5.8 4.8-6.1 8.7-0.7 2-3.6 2-5.2 2.6-1.3 1-2 2.6-2.3 3.9-1.6 0.7-3.2 1.3-4.9 1.6-1.3 0.4-2.9 3.3-3.2 4.6q-6.8 3.4-13.6 7.7c-1.3 1-1.9 2.6-2.6 3.9-2.6 0.4-5.5 0.7-7.8 2-5.2 2.6-12.3 7.4-17.5 8.1 0.7 2.3 2 3.9 3.6 5.5 3.9 2.6 7.4 5.5 11 8.8 1.3 1.6 2.3 3.5 2.9 5.5 2-0.3 4.2-0.3 6.2 0.3 4.2 1.9 7.1 6.8 11.3 7.8 7.5 0.3 15.3 0.3 22.7-0.3 2.3-0.4 4.2-0.7 6.2-1.7 2.2-1.3 1.9-2.9 5.1-1.9 2 0.6 3.9-2.3 4.9-3.6 0.3-0.3 0.7-0.6 1.3-0.6 3.6-0.7 6.8-2.3 9.7-4.6 1.6-0.9 4.2-3.2 5.5-4.2 0-2.6 1-5.2 4.2-4.8 0.7 2.2 0.7 4.8 0 7.1-0.9 2.3-2.2 4.2-3.5 6.2-2.9 3.5-7.5 5.5-8.8 10.3-1.9 0.4-3.9 1-5.5 2.3-0.3 0-0.6 0.3-0.9 0.3q-2.5 0.5-4.9 0c-1 1.6-2 3.3-2.6 4.9-0.6 0.3-0.3 0.3-1.3 0.6-9.7 3-20.4 2.3-30.5 3.9q-0.9 0-1.9 0c-0.3-0.9-1.3-1.9-2.6-2.2-1.9-0.7-3.9-1.3-5.8-1.3q-1-2-2.9-3c-4.6-1.6-8.8-3.5-12.7-6.1-9.1-6.5-17.5-13.3-25.6-20.8-3.2 0.3-6.1 1-9 2-1.3 0-2.6 0-3.6-0.7-1.6-0.6-1.3-3.2-1.3-4.5 0-2 0.6-3.9 1.9-5.2 3-3.3 6.5-6.2 10.1-8.8q1.4-0.4 2.9 0l2.6 3.9c2.6-1.3 5.2-1.9 8.1-1.6 1.6-1.9 3.2-3.6 5.5-4.9 2.3-0.9 4.5-1.3 6.8-1.3 1.3-1.9 5.2-2.9 7.1-3.8 2-1 5.2-3.9 7.2-5.2 7.1-4.6 14.2-6.8 21-12.4 2.9-2.6 5.5-6.4 9.1-9.4 1.6-1.3 1.3-4.5 1-6.1-0.4-1.6-5.5-3.6-6.8-4.2l-1.3-2.3c-4.9-0.3-9.4-0.7-14.3-0.7-17.2 1-33.7 6.5-49.6 12.4-2.6 0.9-4.8 1.9-7.1 3.2-1.9 1.3-3.9 2.9-5.5 4.5 0.6 6.9-0.3 13.3-0.7 20.2 0.4 3.8 1.3 7.7 2.6 11.3-2.2 12-3.9 24.3-4.2 36.3 0 9.8 2.6 18.5 2 27.9-0.7 3.9-1.7 7.8-2.6 11.4 0 0.6-0.7 0.9-1 1.3-1.6 0.3-3.2 0-4.5 1.6q0.5-0.5 0-1zm-38.6-4.5c-1.3 0.3-2.6 0-3.6-1-0.6-0.7-0.9-1-1.3-1.6q-1.4-4.4-0.9-8.8c0.6-1 1.3-1.3 2.2-1.6-3.5-4.5-3.5-11-2.9-16.5 0.4-2 1-3.6 2.3-5.2 0-0.7 0-1.3 0-1.7-1-4.2-1.6-8.7-1.9-12.9 0-8.5 0.6-16.9 2.2-25.3 0.3-2 1.6-4.6 1.6-6.8 0.4-6.2-1.9-15.3-2.2-22.1-0.4-3.5 0-7.1 0.3-10.4 0-0.3-0.3-1.6-0.3-1.9-0.7 0-1.3 0.3-2 0.3-5.5 3.6-11.6 5.5-17.5 8.5-1.3 0.3-2.2 0.6-3.5 0.9-2.6-0.6-5.2-0.6-7.8 0.4q-4.9 2.9-9.7 4.8c-1 0-2 0-2.6-0.3-0.7-0.7-3.6-2.6-3.6-2.9-0.3-0.4-0.3-0.7-0.6-1-1-3.2 0-6.5 2.6-8.8 3.8-3.2 10.3-1.6 14.9-2.5 2.2-0.4 3.9-2.3 6.1-3 5.2-1.6 9.7-0.3 14.9-3.2 2.9-1.3 5.5-3.3 7.8-5.5 1.6-2 2.9-4.2 3.6-6.8 1.3-1.3 3.5-2 5.1-1 1.7 1.3 3.3 1.9 5.2 2.6 1.7 0.3 3.6 0.3 5.2 0 2.6-0.3 5.2-1.3 7.8-2.3 1.9-1 3.2-2.6 4.2-4.2 2.3 0.3 4.9 0.3 7.1-0.3 5.2-1.6 10.4-4.9 15.6-6.5 6.5-1.6 14.6-3.6 21.1-4.9 1.9-0.6 3.5-1.6 5.1-2.2 2.3-0.7 4.2-0.7 6.5 0 1.6 4.5-1.9 6.1-5.5 7.7-1.3 0.4-2.9 0.4-4.5 0l-0.4 2.3c-1.6-0.6-3.5-0.3-4.8 1-6.2 1.9-12.3 3.9-18.5 6.8q-2.4 1.5-3.9 3.9h-6.5l-0.9 1.9c-5.2 0.4-13.6 4.9-18.5 6.8-2.3 0.7-4.2 1-6.5 1.3-0.9 4.3-1.3 8.8-0.9 13.3-0.4 1.7-1 3-2 4.2-0.3 0.7-0.6 1.3-0.3 2 2.3 8.1 1.3 12.6 0 21.1-1.3 9.7-0.3 24.9-1 35.6-0.3 5.6-1.3 11.1-2.6 16.3 1 1.6 1.3 3.9 1 5.8-0.7 6.2-1.6 12-2 18.5-0.6 1.9-1.2 3.9-2.5 5.5 0.3-1 0-0.7-0.7-0.3z"/>
	</g>
</svg>