<svg version="1.2" xmlns="http://www.w3.org/2000/svg" viewBox="0 0 1488 782" width="1488" height="782">
	<title>TE_Connectivity_logo-svg</title>
	<style>
		.s0 { fill: #e98300 } 
		.s1 { fill: #ffffff } 
	</style>
	<path id="path3601" class="s0" d="m0.4 0.4h1487.1v781h-1487.1z"/>
	<path id="path3611" fill-rule="evenodd" class="s1" d="m634.8 285.5h-298.9c-24.2 0-43.9-19.7-43.9-43.9 0-24.2 19.7-43.9 43.9-43.9h298.9c24.3 0 43.9 19.7 43.9 43.9 0 24.2-19.6 43.9-43.9 43.9zm-58.6 219.6h-299c-24.2 0-43.8-19.7-43.8-43.9 0-24.2 19.6-43.9 43.8-43.9h299c24.2 0 43.9 19.7 43.9 44-0.1 24.2-19.7 43.8-43.9 43.8zm-418-185c8.2-8.2 19.4-12.8 31.1-12.8h298.8c24.3 0 43.9 19.7 43.9 43.9 0 24.2-19.6 43.9-43.9 43.9h-298.8c-11.7 0-22.9-4.7-31.1-12.9-8.3-8.3-12.9-19.5-12.9-31.1 0.1-11.7 4.7-22.8 12.9-31zm869.9-119.9l-18.1 68.8h-92.5l-62.6 233.4h-79.6l62.9-233.4h-92.4l18.6-68.8zm23.2 0.1h242.8l-18.1 66.5h-164.2l-14.5 52.8h147.4l-16.7 61h-147.1l-14.8 55h164.7l-17.7 66.8h-242.8l80.9-302.2c0 0 0.1 0.1 0.1 0.1zm-351 414.5c-5.8 0.5-11.5-1.5-15.7-5.5-4.3-4-6.6-9.6-6.4-15.4 0-7.4 3-14.6 8.3-19.8 5.3-5.2 12.6-8 20.1-7.8 7.7-0.5 15 3.4 18.9 10.1l-10.1 7.1c-1.9-3.8-5.9-6.2-10.1-6-8 1.1-13.7 8-13.3 16-0.3 2.6 0.5 5.2 2.2 7.1 1.7 2 4.2 3 6.8 3 3.8-0.2 7.4-1.8 10.1-4.5l6.7 8.5c-4.6 4.8-11 7.5-17.6 7.5zm47.7 0c-5.9 0.6-11.7-1.4-15.9-5.4-4.3-4-6.6-9.7-6.4-15.5 0.4-14.6 12.1-26.4 26.7-26.8 5.9-0.5 11.7 1.5 16 5.6 4.2 4.1 6.5 9.8 6.2 15.7-0.3 14.6-12.1 26.4-26.7 26.7zm0.6-11.1c7.5-1 13.1-7.4 13.1-15 0.2-2.7-0.8-5.4-2.8-7.4-1.9-1.9-4.6-2.9-7.3-2.7-7.6 1-13.4 7.5-13.3 15.2-0.1 2.7 0.9 5.4 2.8 7.3 2 2 4.7 3 7.4 2.8zm40.1-36.5h13.2l-1.2 5.7c3.3-3.5 7.8-5.5 12.5-5.7 3.6-0.4 7.1 0.8 9.7 3.2 2.6 2.4 4.1 5.8 4 9.4-0.1 3-0.6 6-1.4 8.8l-6.7 24.8h-13.2l6.8-25.3c0.4-1.4 0.6-2.8 0.6-4.2 0.1-1.7-0.6-3.3-1.8-4.4-1.3-1.1-2.9-1.6-4.6-1.3-5.2 0-9.6 4-10.1 9.2l-7 26.6h-13.1c0 0 12.3-46.8 12.3-46.8zm53.4 0h13.2l-1.4 5.7c3.3-3.5 7.8-5.5 12.6-5.7 3.7-0.5 7.4 0.7 10.1 3.2 2.7 2.6 4.1 6.2 4 9.9-0.2 2.8-0.7 5.6-1.5 8.3l-6.7 24.8h-13l6.7-25.3c0.4-1.4 0.6-2.8 0.6-4.2 0.1-1.7-0.5-3.3-1.8-4.4-1.2-1.1-2.9-1.6-4.5-1.3-5.3 0-9.7 4-10.2 9.2l-7.3 26.6h-13.1zm56.3 28.4h0.1q0-0.1 0-0.2zm0.1 0c0 2.6 1.1 5.1 3.1 6.8 2.1 1.8 4.8 2.6 7.5 2.1 3.7 0 7.2-1.3 10.1-3.6l6 8.1c-5 4.1-11.3 6.2-17.7 6.1-5.6 0.6-11.3-1.3-15.4-5.2-4.1-3.9-6.3-9.4-5.9-15.1 0-15.1 12.2-27.4 27.3-27.6 5-0.4 10 1.4 13.6 4.9 3.6 3.5 5.5 8.4 5.3 13.4-0.2 3.4-1 6.9-2.4 10.1zm1.5-8.4h20.2q0.2-1.6 0-3.1c0-2-0.7-3.9-2.2-5.2-1.5-1.3-3.4-1.9-5.4-1.6-6 0.3-11.3 4.3-13 10.2 0 0 0.4-0.3 0.4-0.3zm60.1 27.7c-5.6 0.2-11.1-2-15-6.1-4-4-6.1-9.5-5.8-15.2 0.1-14.9 12.2-27.1 27.2-27.2 7.7-0.5 15.1 3.4 18.9 10.2l-10.1 7c-1.9-3.8-5.8-6.1-10.1-6-7.9 1.1-13.7 8-13.2 16-0.4 2.6 0.4 5.2 2.1 7.1 1.8 2 4.2 3.1 6.8 3.1 3.9-0.3 7.5-1.8 10.1-4.6l6.7 8.5c-4.5 4.8-10.8 7.4-17.4 7.5zm39.9 0.3c0 0-0.2-0.5-0.2-0.5-2.8 0.5-5.6-0.2-7.8-2-2.3-1.7-3.7-4.3-3.9-7.1 0-1.9 0.3-3.9 0.8-5.8l5.5-21.3h-5.5l3-11.2h5.6l3.1-11.5h13.1l-3.2 11.9h10.6l-3.1 11.2h-10.8l-5.2 19.4q0 1 0 2.1c-0.2 1 0.1 2.1 0.9 2.8 0.8 0.7 2 0.9 3 0.5 2.3-0.1 4.6-0.6 6.7-1.6l-3.1 11.2c-3 1.3-6.2 2-9.5 1.9zm31.6-48h13.2l-12.4 47.2h-12.9zm4-16.3h13.7l-3.2 11.7h-13.7zm17 16.7h12.7l2.1 30.3 18.4-30.3h14.1l-30.4 46.5h-11.8zm56.1-0.4h13l-12.6 47h-13.1zm4.5-16h13.2l-3.1 11.6h-13.9zm24.9 63.7c0 0 0.3-0.3 0.3-0.3-2.8 0.4-5.6-0.4-7.8-2.2-2.2-1.8-3.5-4.4-3.7-7.3 0.1-1.9 0.4-3.9 0.9-5.7l5.6-21h-5.8l3-11.2h5.6l2.4-11h13.1l-3.1 11.8h10.8l-3 11.2h-10.9l-5.2 19.4q0 1.1 0 2.1c0 0.8 0.5 1.7 1.1 2.2 0.7 0.5 1.7 0.7 2.5 0.5 2.3-0.1 4.7-0.5 6.8-1.5l-3 11.1c-3 1.3-6.3 2-9.6 1.9zm16.2 9.3l7-9.5c1.5 1.1 3.2 1.7 5.1 1.9 2 0 4-1 5-2.9l-5.7-46.5h13.4l2.1 31.3 17.3-31.3h14.2l-28.7 47.7c-3.3 7.7-10.7 12.7-19 13-3.9 0-7.6-1.3-10.7-3.7z"/>
</svg>