<svg version="1.2" xmlns="http://www.w3.org/2000/svg" viewBox="0 0 1643 349" width="1643" height="349">
	<title>Teledyne_logo-svg</title>
	<style>
		.s0 { fill: #000000 } 
		.s1 { fill: #2c53a0 } 
	</style>
	<g id="Layer">
		<path id="Layer" fill-rule="evenodd" class="s0" d="m651.3 18.7h-25.8v-17.8h76v17.8h-25.7v101.9h-24.5zm67 102v-119.8h59.8v17.8h-35.3v31.7h34.1v17.8h-34.1v34.7h35.9v17.8zm80.5 0v-119.8h24.5v102h31.1v17.8zm73.2 0v-119.8h59.7v17.8h-35.2v31.7h34v17.8h-34v34.7h35.9v17.8zm80.3-119.8h32.2q23.1 0 32.9 9.2 9.8 9.1 9.8 30.5v33.5q0.1 27-8.6 36.8-8.7 9.8-32.8 9.8h-33.5zm24.5 101.7h6.4q11.6 0.1 15.5-4.7c2.7-3.1 4-9.2 4-18.2v-39.5q0-12.2-4.4-16.7c-3-3.1-8.4-4.6-16.3-4.6h-5.2zm81.6-26.8l-28-75h26.2l14.1 47.8 15.5-47.8h24.5l-27.8 74.1v45.7h-24.5zm84.1 44.7h-20.1v-119.8h36l20.7 101.1v-101.1h20.1v119.8h-35.9l-20.8-101.9zm78.8 0v-119.8h59.8v17.8h-35.3v31.7h34.1v17.8h-34.1v34.6h35.9v17.9zm-569.9 46.3h-25.8v-17.8h76v17.8h-25.7v102h-24.5zm67 101.9v-119.8h59.8v17.9h-35.3v31.6h34.1v17.8h-34.1v34.7h36v17.8zm151-40.7v3.5q0.4 21.1-7.8 30-8.1 9-27.5 9c-13.7 0-23.4-3.3-29-9.7-5.7-6.5-8.5-17.7-8.5-33.4v-36.9q0-23.9 8.5-33.6 8.4-9.7 29-9.7c11.9 0 20.8 3 26.5 9q8.1 8.5 8.1 25.2v5.9h-24.4v-3.5q0.2-9.4-2.4-14-2.5-4.7-7.8-4.7-6.8 0-9.9 5.3-3.1 5.3-3.1 17.3v37q0.1 15.6 2.9 21.7 2.8 6.1 10.1 6.1 5.6 0 8.4-5.2c1.8-3.5 2.7-8.7 2.6-15.8v-3.5c0 0 24.3 0 24.3 0zm19-79.1h24.5v49.5h23.3v-49.5h24.5v119.8h-24.5v-52.5h-23.3v52.5h-24.5zm116.1 119.7h-20.1v-119.7h36l20.7 101v-101h20.1v119.7h-35.9l-20.8-101.9zm115.3 1.8q-20.5 0-28.9-9.1-8.4-9.2-8.4-31.6v-49.3q0-16.7 9.3-25 9.3-8.3 28-8.3 18.6 0 27.9 8.3 9.4 8.3 9.3 25v49.3q0 22.4-8.3 31.6-8.4 9.1-28.9 9.1zm0-18q7.2 0 9.9-4.7 2.8-4.8 2.8-16.9v-49.4c0-5.3-1.1-9.4-3.2-12.2q-3.3-4.2-9.5-4.2-6.3 0-9.5 4.2-3.2 4.1-3.2 12.2v49.4q-0.1 12.1 2.8 16.9 2.7 4.7 9.9 4.7zm60 16.2v-119.7h24.5v101.9h31.1v17.8zm109.5 1.8q-20.4 0-28.8-9.1-8.4-9.2-8.3-31.6v-49.3q-0.1-16.7 9.2-25 9.3-8.3 28-8.3 18.6 0 27.9 8.3c6.3 5.5 9.3 13.9 9.3 25v49.3q0 22.4-8.4 31.6-8.3 9.1-28.9 9.1zm0-18q7.3 0 10-4.7 2.9-4.8 2.8-16.9v-49.4q0-8-3.2-12.2-3.3-4.2-9.6-4.2-6.2 0-9.4 4.2-3.2 4.1-3.2 12.2v49.4q-0.1 12.1 2.8 16.9 2.7 4.7 9.8 4.7zm95.7 18q-20.6 0-28.8-10.7-8.1-10.8-8.2-38v-28.4c0.1-16.3 3.1-28.1 9.3-35.4q9.3-10.8 30.1-10.8 18.2 0 27 8.8 8.9 8.8 8.3 26.5v3.5h-24.4v-3.5q0.2-8.7-2.9-13c-2-2.9-5.2-4.4-9.4-4.4q-7.6 0-10.5 6-3 5.8-3 21v28.3q0 19.6 2.8 25.9 2.9 6.2 11.7 6.2c2.3 0 6-0.6 11.2-1.9v-27.6h-11.3v-17.8h35.8v60.5q-4.7 1.2-9.3 2.1-4.7 0.8-9.5 1.4-4.7 0.6-9.4 0.9c-3.2 0.2-6.4 0.4-9.5 0.4zm58.8-121.5h24.5v119.7h-24.5zm46 119.7v-119.7h59.8v17.8h-35.3v31.7h34.1v17.8h-34.1v34.6h35.9v17.8zm126.7-82.6v-3.6q0.1-9.5-2.4-13.4-2.5-3.9-8.9-3.9-6.3 0-9.4 3.6-3.1 3.6-3.1 10.8 0 5.6 3.7 9.6 3.7 4 12.9 8.4 18.2 8.6 25.5 16.8c4.9 5.5 7.3 12.3 7.3 20.2q0 18.1-9.4 27-9.3 8.9-28.1 8.9c-13.7 0-23.4-2.6-29-8-5.7-5.3-8.5-14-8.5-26.2v-4.6h24.1v3.6q-0.2 8.6 3.2 13 3.3 4.2 10.2 4.3c4.4 0 7.8-1.3 10-4q3.3-3.9 3.3-11.7 0-5.9-4.1-10.1-4-4.3-14-9c-11.6-5.5-19.8-10.9-24.4-16.2q-7-8-7-19.7 0-17.4 9.4-26 9.4-8.7 28.2-8.7c12.8 0 22 2.7 27.2 8.1 5 5.1 7.5 13.3 7.4 24.6l0.1 2.6v3.6c0 0-24.2 0-24.2 0zm-956.7 117.9h8.7v43.2h-8.7zm62.1 43.1v-43.1h8.4l17.7 28.8v-28.8h8.1v43.1h-8.8l-17.4-28.1v28.1zm116-15.9l8.4 2.7q-1.9 7.1-6.5 10.5-4.5 3.5-11.4 3.5-8.6 0-14.1-5.9-5.5-5.9-5.5-16.1 0-10.8 5.5-16.7 5.6-6 14.6-6 8 0 12.9 4.7c2 1.8 3.4 4.5 4.4 7.9l-8.6 2.1q-0.2-0.8-0.5-1.5-0.2-0.8-0.7-1.4-0.4-0.7-0.9-1.3-0.5-0.6-1.1-1.1-0.6-0.5-1.3-0.9-0.7-0.3-1.5-0.6-0.7-0.2-1.5-0.4-0.8-0.1-1.6 0-4.8 0-7.8 3.4-3 3.4-3 11.2 0 8.1 3 11.6 2.9 3.5 7.6 3.5 0.8 0 1.6-0.1 0.8-0.2 1.6-0.4 0.8-0.3 1.5-0.7 0.7-0.5 1.3-1c1.7-1.5 2.8-3.8 3.6-7zm59.1-5.4q-0.1-6.6 1.9-11.1 1.5-3.3 4-5.9 2.6-2.6 5.6-3.9 4-1.7 9.3-1.7 9.5 0 15.3 5.9 5.7 5.9 5.7 16.5 0 10.5-5.7 16.4-5.7 5.8-15.2 5.9-9.6 0-15.3-5.9-5.7-5.9-5.6-16.2zm8.9-0.3q0 7.3 3.4 11.1 3.4 3.8 8.6 3.8 5.2 0 8.5-3.8 3.4-3.7 3.4-11.2 0-7.4-3.3-11.1-3.2-3.6-8.6-3.6-5.4 0-8.7 3.7-3.3 3.6-3.3 11.1zm84.6 21.6v-43.1h18.3q7 0 10.1 1.1 3.1 1.2 5 4.1 1.9 3 1.9 6.9 0 4.8-2.9 8-2.8 3.2-8.5 4 2.8 1.6 4.7 3.6 1.8 1.9 4.9 7l5.3 8.4h-10.4l-6.3-9.4q-3.4-5-4.6-6.3c-0.8-0.9-1.7-1.5-2.6-1.8q-1.4-0.5-4.4-0.5h-1.8v18zm8.8-24.9h6.4q6.2 0 7.8-0.5 0.4-0.1 0.7-0.3 0.4-0.2 0.7-0.4 0.3-0.3 0.6-0.6 0.2-0.2 0.5-0.6 0.2-0.3 0.4-0.7 0.1-0.4 0.2-0.8 0.1-0.4 0.2-0.8 0-0.5 0-0.9 0-2.2-1.1-3.5-1.2-1.3-3.3-1.7-0.8 0-1.6-0.1-0.8 0-1.6 0-0.8-0.1-1.6-0.1-0.8 0-1.6 0.1h-6.7zm79.6 24.9v-43.2h14q7.9 0 10.4 0.7c2.4 0.6 4.5 2 6.2 4.2q2.5 3.2 2.5 8.4 0 4-1.5 6.7-0.3 0.6-0.7 1.2-0.4 0.6-0.9 1.1-0.4 0.6-0.9 1-0.6 0.5-1.1 0.9-2.3 1.5-4.5 2.1-3.2 0.6-9.1 0.6h-5.7v16.3c0 0-8.7 0-8.7 0zm8.7-35.9v12.3h4.8q5.1 0 6.9-0.7 0.4-0.2 0.8-0.4 0.4-0.2 0.7-0.5 0.4-0.2 0.7-0.6 0.3-0.3 0.5-0.6 0.3-0.4 0.4-0.8 0.2-0.4 0.4-0.8 0.1-0.5 0.1-0.9 0.1-0.4 0.1-0.9 0-0.5-0.1-1-0.1-0.6-0.2-1.1-0.2-0.5-0.5-0.9-0.2-0.5-0.6-0.9-0.3-0.3-0.7-0.7-0.4-0.3-0.9-0.5-0.4-0.3-0.9-0.4-0.5-0.2-1-0.3-1.6-0.3-6.2-0.3c0 0-4.3 0-4.3 0zm74.7 14.6q0-6.6 1.9-11.1 1.5-3.3 4.1-5.9 2.5-2.7 5.5-3.9 1.1-0.5 2.3-0.8 1.1-0.3 2.3-0.5 1.2-0.3 2.4-0.3 1.1-0.1 2.3-0.1 9.6 0 15.3 5.9 5.7 5.9 5.7 16.4 0 10.5-5.7 16.4-5.7 5.9-15.2 5.9-9.6 0-15.3-5.9-5.6-5.8-5.6-16.1zm8.9-0.3q0 7.3 3.4 11.1 3.4 3.8 8.6 3.8 5.2 0 8.6-3.8 3.3-3.7 3.3-11.3 0-7.4-3.2-11-3.3-3.7-8.7-3.7-5.4 0-8.6 3.7-3.4 3.7-3.4 11.2zm84.6 21.6v-43.2h18.4q6.9 0 10 1.2 3.2 1.1 5 4.1 1.9 3 1.9 6.8 0 4.9-2.8 8-2.9 3.2-8.6 4 2.9 1.7 4.7 3.7 1.8 1.9 4.9 7l5.3 8.4h-10.4l-6.3-9.4q-3.4-5.1-4.6-6.4-0.3-0.3-0.6-0.5-0.3-0.3-0.6-0.5-0.3-0.2-0.7-0.4-0.3-0.2-0.7-0.4-1.4-0.4-4.4-0.4h-1.7v18zm8.7-24.9h6.4q6.3 0 7.8-0.6 0.4-0.1 0.7-0.3 0.4-0.1 0.7-0.4 0.3-0.2 0.6-0.5 0.3-0.3 0.5-0.6 0.2-0.4 0.4-0.8 0.1-0.3 0.3-0.7 0.1-0.5 0.1-0.9 0.1-0.4 0.1-0.8 0-0.5-0.1-1-0.1-0.4-0.2-0.9-0.1-0.4-0.4-0.9-0.2-0.4-0.5-0.7-0.3-0.4-0.7-0.7-0.4-0.3-0.8-0.5-0.4-0.2-0.9-0.3-0.4-0.2-0.9-0.2-0.8-0.1-1.6-0.1-0.8-0.1-1.6-0.1-0.8 0-1.6 0-0.8 0-1.5 0h-6.8zm118.5 24.9h-9.4l-3.8-9.8h-17.2l-3.6 9.8h-9.2l16.8-43.1h9.2zm-16-17.1l-6-16-5.8 16zm70.8 17.1v-35.9h-12.8v-7.3h34.3v7.3h-12.8v35.9zm72 0v-43.2h32v7.3h-23.3v9.6h21.7v7.3h-21.7v11.7h24.1v7.3zm85.1-43.2h15.9q5.3 0 8.2 0.8 3.8 1.1 6.5 4 2.7 2.8 4.1 7 1.4 4.1 1.4 10.2 0 5.3-1.3 9.2-0.4 1.1-0.8 2.1-0.5 1-1.1 2-0.6 0.9-1.3 1.8-0.7 0.9-1.4 1.7-0.7 0.6-1.4 1.1-0.7 0.6-1.5 1-0.8 0.4-1.6 0.8-0.8 0.3-1.6 0.6-2.9 0.9-7.8 0.9h-16.3c0 0 0-43.2 0-43.2zm8.7 7.3v28.6h6.5q3.6 0 5.2-0.4 0.5-0.1 1-0.3 0.5-0.2 0.9-0.4 0.4-0.2 0.9-0.5 0.4-0.3 0.7-0.6 1.4-1.3 2.3-4.2 0.9-2.9 0.9-7.9 0-5-0.9-7.7-0.1-0.5-0.4-1.1-0.2-0.6-0.6-1.1-0.3-0.5-0.6-1-0.4-0.5-0.9-0.9-0.4-0.4-0.8-0.8-0.5-0.3-1-0.5-0.5-0.3-1.1-0.5-0.5-0.2-1.1-0.3-1.8-0.4-7.1-0.4z"/>
		<path id="Layer" fill-rule="evenodd" class="s1" d="m171.7 122.2h-170.8l120.2-120.4h170.8zm142.7-120.3h170.8l120.2 120.3h-170.8zm-17.5 178.6l-120.8 120.9v-170.2l120.8-120.9zm12.5-170.3l120.8 121v170.2l-120.8-120.9z"/>
	</g>
</svg>