<svg version="1.2" xmlns="http://www.w3.org/2000/svg" viewBox="0 0 1432 216" width="1432" height="216">
	<title>Teradyne_logo_2014-svg</title>
	<style>
		.s0 { fill: #215299 } 
	</style>
	<path id="Layer" fill-rule="evenodd" class="s0" d="m61 39.7h-61v-39.7h166.4v39.7h-61v175h-44.4zm114.7-39.7h151.8v39.7h-107.4v45.9h98.5v36.8h-98.5v52.6h109.4v39.6h-153.8zm170.7 0h109.4c36.4 0 59.3 26.8 59.3 59.3 0 25.1-9.6 44.3-32.1 53.9v0.6c21.8 6 28.1 28.5 29.5 50.3 1 13.6 0.6 38.7 8.6 50.9h-44.8c-5.3-13.5-4.6-34.4-6.9-51.6-3-22.4-11.3-32.4-33.8-32.4h-44.5v84h-44.7zm44.7 97.3h49.1c19.9 0 30.8-8.9 30.8-30.8 0-20.8-10.9-29.7-30.8-29.7h-49.1zm211.5-97.3h45.8l75.9 214.7h-46.4l-15.3-48h-75.9l-15.9 48h-45.1zm-4.3 131.6h52.7l-25.5-78.7h-0.7zm217.2-131.6c52.7 0 92.1 34.7 92.1 106.1 0 62.2-30.2 108.5-92.1 108.5h-87.6v-214.6zm-43 174.9h39.7c25.9 0 50.8-16.8 50.8-64.5 0-43.3-14.3-71.1-58.7-71.1h-31.8zm188.2-44l-74.5-131h50.3l47.4 84.7 47.1-84.7h49.7l-75.2 132.4v82.3h-44.8zm126.7-131h44.4l84.8 143.9h0.7v-143.9h41.8v214.7h-44.8l-84.5-143.9h-0.7v143.9h-41.7zm190.6 0h151.8v39.7h-107.1v46h98.5v36.7h-98.5v52.6h109.4v39.7h-154.1z"/>
</svg>