<svg version="1.2" baseProfile="tiny-ps" xmlns="http://www.w3.org/2000/svg" viewBox="0 0 1278 1653" width="1278" height="1653">
	<title>Tesla_Motors-svg</title>
	<style>
		tspan { white-space:pre }
		.shp0 { fill: #e82127 } 
	</style>
	<g id="TESLA">
		<g id="g8">
			<path id="polyline10" class="shp0" d="M1091.4 1551.77L1091.4 1652.23L1123.61 1652.23L1123.61 1585.34L1240.85 1585.34L1240.85 1652.23L1273.05 1652.23L1273.05 1551.95L1091.4 1551.77" />
			<path id="path12" class="shp0" d="M1120.02 1519.28L1243.89 1519.28C1261.09 1515.86 1273.89 1500.67 1277.5 1485.98L1086.42 1485.98C1089.99 1500.68 1102.97 1515.86 1120.02 1519.28Z" />
		</g>
		<g id="g14">
			<path id="path16" class="shp0" d="M993.84 1652.29C1010.08 1645.4 1018.82 1633.49 1022.16 1619.56L877.68 1619.56L877.77 1486.07L845.39 1486.16L845.39 1652.29L993.84 1652.29" />
		</g>
		<g id="g18">
			<path id="path20" class="shp0" d="M604.54 1518.83L718.94 1518.83C736.18 1513.82 750.66 1500.68 754.19 1486.11L572.47 1486.11L572.47 1584.29L721.2 1584.29L721.2 1618.74L604.54 1618.83C586.26 1623.93 570.75 1636.21 563.02 1652.42L572.47 1652.25L753.16 1652.25L753.16 1551.65L604.54 1551.65L604.54 1518.83" />
		</g>
		<g id="g22">
			<path id="path24" class="shp0" d="M322.14 1519.14L445.96 1519.14C463.19 1515.71 475.99 1500.54 479.58 1485.84L288.52 1485.84C292.08 1500.54 305.08 1515.71 322.14 1519.14" />
			<path id="path26" class="shp0" d="M322.14 1584.8L445.96 1584.8C463.19 1581.41 475.99 1566.22 479.58 1551.51L288.52 1551.51C292.08 1566.23 305.08 1581.41 322.14 1584.8" />
			<path id="path28" class="shp0" d="M322.14 1652.27L445.96 1652.27C463.19 1648.85 475.99 1633.67 479.58 1618.98L288.52 1618.98C292.08 1633.67 305.08 1648.85 322.14 1652.27" />
		</g>
		<g id="g30">
			<path id="path32" class="shp0" d="M0 1486.24C3.72 1500.76 16.29 1515.6 33.54 1519.32L85.66 1519.32L88.32 1520.37L88.32 1651.9L120.87 1651.9L120.87 1520.37L123.82 1519.32L175.99 1519.32C193.43 1514.82 205.73 1500.76 209.39 1486.24L209.39 1485.92L0 1485.92L0 1486.24Z" />
		</g>
	</g>
	<g id="T">
		<path id="path35" class="shp0" d="M638.81 1157.59L801.44 242.9C956.46 242.9 1005.35 259.9 1012.41 329.29C1012.41 329.29 1116.4 290.51 1168.85 211.76C964.18 116.91 758.54 112.64 758.54 112.64L638.54 258.8L638.81 258.78L518.82 112.61C518.82 112.61 313.17 116.9 108.53 211.74C160.93 290.49 264.96 329.27 264.96 329.27C272.06 259.88 320.9 242.88 474.87 242.77L638.81 1157.59" />
		<path id="path37" class="shp0" d="M638.75 70.42C804.19 69.15 993.56 96.01 1187.42 180.51C1213.33 133.87 1219.99 113.26 1219.99 113.26C1008.08 29.41 809.62 0.72 638.73 0C467.84 0.72 269.39 29.42 57.5 113.26C57.5 113.26 66.96 138.65 90.05 180.51C283.87 96.01 473.28 69.15 638.73 70.42L638.75 70.42Z" />
	</g>
</svg>