<svg version="1.2" baseProfile="tiny-ps" xmlns="http://www.w3.org/2000/svg" viewBox="0 0 1668 208" width="1668" height="208">
	<title>ic-logo-svg</title>
	<style>
		tspan { white-space:pre }
		.shp0 { fill: #000000 } 
		.shp1 { fill: #cc0000 } 
	</style>
	<path id="Layer" fill-rule="evenodd" class="shp0" d="M318.98 51.51C299.91 51.51 294.01 51.99 286.41 61.6L284.21 60.27L291.3 39.46L382.61 39.46L389.69 60.27L387.5 61.6C381.26 51.86 372.66 51.51 355.11 51.51C348.69 51.51 347.17 52.71 347.17 57.6L347.17 138.78C347.17 147.4 351.56 148.71 355.78 150.07L355.78 152.94L318.3 152.94L318.3 150.07C322.53 148.72 326.91 147.37 326.91 138.78L326.91 57.6C326.91 52.71 325.39 51.52 318.98 51.51ZM369.61 66.33L437.1 66.33L444.18 85.74L441.99 87.24C434.4 79.18 429.16 76.62 419.21 76.62C417.86 76.62 403.68 76.62 403.68 76.62C397.95 76.62 396.6 78 396.6 82.23L396.6 102.65L418.69 102.65C427.3 102.65 428.64 100.45 430.01 95.38L433.37 95.38L433.37 119.67L430.01 119.67C428.64 114.61 427.3 112.56 418.69 112.56L396.59 112.56L396.59 136.85C396.59 142.47 397.94 142.6 403.67 142.6L421.91 142.6C431.69 142.6 439.12 140.46 446.2 131.13L448.41 132.64L440.32 152.94L369.61 152.94L369.61 150.06C375.19 148.71 378.05 147.37 378.05 138.77L378.05 80.53C378.05 72.1 375.17 70.75 369.61 69.24L369.61 66.33ZM447.22 69.16L447.22 66.3L488.21 66.3L488.21 69.16C482.63 70.03 478.93 73.08 484 80.5L496.09 98.65L509.47 78.83C513.18 73.3 511.31 69.74 504.91 69.24L504.91 66.36L535.81 66.36L535.81 69.24C530.75 70.77 526.52 72.28 521.45 79.54L502.27 106.64L526 140.34C528.73 144.12 530.78 146.32 533 147.73C535.88 145.79 538.49 142.37 541.36 135.27L568.36 66.38L587.6 66.38L615.78 140.31C617.63 145.24 621.51 148.74 625.73 150.1L625.73 152.98L589.27 152.98L589.27 150.1C596.2 149.09 597.05 145.57 594.68 138.97L590.96 128.88L555.5 128.88L551.65 138.97C548.62 147.06 551.32 149.09 557.22 150.1L557.22 152.98L497.99 152.98L497.99 150.1C503.06 149.4 508.98 147.24 503.41 139.3L488.35 117.61L474.05 139.93C469.83 146.48 472.53 148.86 478.78 150.04L478.78 152.91L446.03 152.91L446.03 150.04C451.78 148.68 455.49 147.51 461.72 138.75L482.16 109.72L460.55 79.2C455.83 72.44 452.95 70.75 447.22 69.16ZM559.2 119.19L587.47 119.19L573.6 81.38L559.2 119.19ZM633.68 152.94L629.44 152.96L622.52 127.14L624.73 125.62C633 135.18 643.12 143.5 658.98 143.5C670.3 143.5 677.2 138.94 677.2 130.35C677.2 124.09 673.66 120.51 663.71 118.36L648.86 114.99C632.32 111.27 624.73 103.33 624.73 90.71C624.73 74.17 638.39 65.07 655.94 65.07C665.72 65.07 671.45 68.26 675.17 70.29C676.87 70.29 677.71 68.28 677.71 66.41L681.76 66.41L688.17 88.71L685.97 90.22C678.88 82.06 669.08 76.15 656.61 76.15C645.46 76.15 640.41 80.37 640.41 86.78C640.41 92.29 643.28 94.87 652.22 96.9L667.91 100.45C685.13 104.32 694.07 110.91 694.07 127.11C694.07 144.33 679.75 154.44 659.32 154.44C647.18 154.44 640.57 150.57 636.71 148.7C635.03 148.7 633.68 151.57 633.68 152.94Z" />
	<path id="Layer" fill-rule="evenodd" class="shp0" d="M748.74 42.42L748.74 39.54L787.9 39.54L787.9 42.42C782.66 43.92 778.44 45.26 778.44 53.72L778.44 138.81C778.44 147.42 782.66 148.75 787.9 150.1L787.9 152.97L748.74 152.97L748.74 150.1C753.97 148.76 758.18 147.4 758.18 138.81L758.18 53.72C758.18 45.28 753.98 43.93 748.74 42.42ZM856.23 69.25L856.25 66.36L883.25 66.36L883.25 69.25C879.88 70.75 875.65 72.1 875.65 80.55L875.65 154.14L872.62 154.14L815.08 88.49L814.57 88.49L814.57 138.78C814.57 146.88 818.95 148.72 823.51 150.07L823.51 152.95L794.66 152.95L794.66 150.07C800.23 148.74 803.1 146.87 803.1 138.78L803.1 80.55C803.1 73.11 799.72 71.4 794.66 69.25L794.66 66.37L820.13 66.37L863.66 116L864.17 116L864.17 80.55C864.17 72.12 861.29 70.76 856.23 69.25ZM957.74 127.14C957.74 144.36 943.4 154.45 922.99 154.45C910.85 154.45 904.25 150.58 900.38 148.71C898.7 148.71 897.35 151.55 897.35 152.92L893.13 152.92L886.21 127.14L888.41 125.63C896.63 135.21 906.85 143.48 922.67 143.48C934.01 143.48 940.91 138.97 940.91 130.37C940.91 124.12 937.35 120.53 927.39 118.39L912.56 115.02C896.03 111.28 888.43 103.35 888.43 90.73C888.43 74.19 902.12 65.09 919.7 65.09C929.48 65.09 935.21 68.28 938.93 70.31C940.61 70.31 941.45 68.29 941.45 66.42L945.52 66.42L951.92 88.72L949.72 90.24C942.64 82.08 932.84 76.16 920.34 76.16C909.22 76.16 904.15 80.42 904.15 86.8C904.15 92.32 907.03 94.9 915.97 96.93L931.67 100.47C948.88 104.34 957.82 110.94 957.74 127.14ZM962.89 66.37L1031.77 66.37L1038.68 88.67L1036.48 90.18C1027.25 77.81 1024.01 76.68 1011.68 76.68C1007.45 76.68 1006.09 77.02 1006.09 82.24L1006.09 138.79C1006.09 147.45 1008.79 148.72 1015.55 150.08L1015.55 152.95L978.42 152.95L978.42 150.08C985.33 148.72 987.86 147.38 987.86 138.79L987.86 82.24C987.86 77.02 986.52 76.68 982.29 76.68C969.98 76.68 967.44 77.85 958.16 90.18L955.96 88.67L962.89 66.37ZM1135.03 149.2L1135.03 151.57C1132.16 153.07 1129.31 154.45 1122.2 154.45C1108.21 154.45 1100.78 147.21 1095.2 135.56C1088.45 121.38 1086.94 117.16 1076.47 117.16L1067.53 117.16L1067.53 138.78C1067.53 147.38 1071.07 148.71 1076.3 150.07L1076.3 152.94L1040.03 152.94L1040.03 150.07C1045.63 148.71 1048.49 147.37 1048.49 138.78L1048.49 80.53C1048.49 72.1 1045.65 70.74 1040.03 69.24L1040.03 66.35L1084.42 66.35C1106.18 66.35 1119.67 73.51 1119.67 90.33C1119.67 103 1111.21 110.75 1096.37 113.12L1096.37 113.62C1102.62 115.14 1108 118.87 1113.23 127.3C1119.98 138.28 1123.7 147.55 1135.03 149.2ZM1099.28 91.19C1099.28 81.07 1093.18 77.02 1082.72 77.02L1073.12 77.02C1068.88 77.02 1067.5 78.52 1067.5 84.1L1067.5 107.06L1082.36 107.06C1092.31 107.06 1099.23 101.83 1099.28 91.19ZM1190.02 69.25L1190.05 66.36L1218.58 66.36L1218.58 69.22C1213.36 70.43 1210.79 72.09 1210.79 80.53L1210.79 123.22C1210.79 147.37 1195.78 154.48 1174.69 154.48C1155.77 154.48 1135.7 147.71 1135.7 124.61L1135.7 80.55C1135.7 72.12 1132.32 70.09 1127.1 69.25L1127.1 66.37L1162.53 66.37L1162.53 69.25C1157.27 70.26 1154.07 72.12 1154.07 80.55L1154.07 123.25C1154.07 137.43 1160.16 143.68 1177.2 143.68C1193.23 143.68 1198.62 137.43 1198.62 123.25L1198.62 80.55C1198.62 72.12 1194.39 70.28 1190.02 69.25ZM1303.94 66.37L1334.48 66.37L1334.48 69.25C1328.92 70.75 1326.04 72.12 1326.04 80.55L1326.04 138.78C1326.04 147.4 1328.92 148.72 1334.48 150.07L1334.48 152.95L1299.05 152.95L1299.05 150.07C1303.27 148.87 1306.97 147.38 1306.97 138.78L1306.97 84.45L1276.6 154.31L1274.23 154.31L1243.02 84.45L1243.02 138.78C1243.02 146.36 1245.55 148.57 1251.28 150.07L1251.28 152.95L1223.77 152.95L1223.77 150.07C1229 148.37 1232.21 146.36 1232.21 138.78L1232.21 80.55C1232.21 72.12 1229.35 70.76 1223.77 69.25L1223.77 66.37L1254.8 66.37L1279.8 122.58L1303.94 66.37ZM1417.81 131.14L1420.01 132.66L1411.91 152.96L1341.2 152.96L1341.2 150.08C1346.78 148.74 1349.65 147.39 1349.65 138.79L1349.65 80.55C1349.65 72.12 1346.79 70.76 1341.2 69.25L1341.2 66.37L1408.7 66.37L1415.81 85.78L1413.64 87.3C1406.02 79.24 1400.79 76.7 1390.84 76.7C1389.49 76.7 1375.31 76.7 1375.31 76.7C1369.58 76.7 1368.23 78.07 1368.23 82.29L1368.23 102.7L1390.34 102.7C1398.95 102.7 1400.3 100.5 1401.64 95.44L1405.01 95.44L1405.01 119.73L1401.64 119.73C1400.3 114.66 1398.94 112.65 1390.34 112.65L1368.23 112.65L1368.23 136.93C1368.23 142.53 1369.58 142.66 1375.31 142.66L1393.54 142.66C1403.32 142.66 1410.74 140.47 1417.81 131.14ZM1483.65 69.25L1483.67 66.36L1510.66 66.36L1510.66 69.25C1507.29 70.75 1503.07 72.1 1503.07 80.55L1503.07 154.14L1500 154.14L1442.46 88.49L1441.96 88.49L1441.96 138.78C1441.96 146.88 1446.28 148.72 1450.9 150.07L1450.9 152.95L1422.04 152.95L1422.04 150.07C1427.62 148.74 1430.5 146.87 1430.5 138.78L1430.5 80.55C1430.5 73.11 1427.12 71.4 1422.04 69.25L1422.04 66.37L1447.54 66.37L1491.06 116L1491.59 116L1491.59 80.55C1491.59 72.12 1488.7 70.76 1483.65 69.25ZM1518.58 66.37L1587.49 66.37L1594.4 88.67L1592.21 90.18C1582.98 77.81 1579.75 76.68 1567.42 76.68C1563.18 76.68 1561.81 77.02 1561.81 82.24L1561.81 138.79C1561.81 147.45 1564.5 148.72 1571.27 150.08L1571.27 152.95L1534.13 152.95L1534.13 150.08C1541.04 148.72 1543.57 147.38 1543.57 138.79L1543.57 82.24C1543.57 77.02 1542.21 76.68 1537.99 76.68C1525.68 76.68 1523.14 77.85 1513.86 90.18L1511.66 88.67L1518.58 66.37ZM1667.99 127.14C1667.99 144.36 1653.58 154.45 1633.25 154.45C1621.17 154.45 1614.54 150.58 1610.67 148.71C1608.98 148.71 1607.62 151.55 1607.62 152.92L1603.37 152.92L1596.52 127.14L1598.72 125.63C1606.94 135.21 1617.14 143.48 1632.98 143.48C1644.34 143.48 1651.22 138.97 1651.22 130.37C1651.22 124.12 1647.59 120.53 1637.71 118.39L1622.88 115.02C1606.36 111.28 1598.75 103.35 1598.75 90.73C1598.75 74.19 1612.45 65.09 1630.03 65.09C1639.85 65.09 1645.59 68.28 1649.3 70.31C1650.97 70.31 1651.84 68.29 1651.84 66.42L1655.95 66.42L1662.3 88.72L1660.18 90.24C1653.07 82.08 1643.27 76.16 1630.79 76.16C1619.67 76.16 1614.62 80.42 1614.62 86.8C1614.62 92.32 1617.49 94.9 1626.42 96.93L1642.1 100.47C1659.31 104.34 1668.26 110.94 1667.99 127.14Z" />
	<path id="Layer" fill-rule="evenodd" class="shp1" d="M213.47 89.14L213.47 130.62C207.59 132.06 189.92 136.54 173.72 148.37C161.95 157.24 151.63 170.56 151.63 183.88C151.63 192.78 153.11 198.69 156.05 204.61C156.05 204.61 150.77 208.32 139.86 207.57C126.56 206.63 111.89 195.71 103.06 179.44C91.28 158.71 85.4 133.54 72.15 133.54C58.88 133.54 58.88 147 48.58 146.88C35.13 146.76 31.1 128.87 26.5 118.72C19.81 104 1.47 100.98 0 80.26L59.33 80.26L59.33 0.33L108.93 0.33L108.93 39.68L122.33 39.68L117.11 65.71L102.79 65.71L98 89.71L112.34 89.71L105.37 125.36C104.85 128.16 104.11 131.07 103.49 133.96C99.6 152.86 114.59 153.02 133.03 153.02L152.53 153.02L157.63 127.48C146.47 127.48 143 127.88 144.23 119.91C144.41 118.69 144.71 117.42 145.11 115.65L150.27 89.68L165.17 89.68L169.94 65.69L155.05 65.69L160.27 39.66L201.7 39.66L201.7 65.45C201.7 82.84 213.47 89.14 213.47 89.14ZM114.08 127.41L131.48 39.62L151.55 39.62L134.13 127.41L114.08 127.41ZM153.08 31.23L133.01 31.23L136.85 11.86L156.94 11.86L153.08 31.23Z" />
</svg>