<svg version="1.2" xmlns="http://www.w3.org/2000/svg" viewBox="0 0 1568 258" width="1568" height="258">
	<title>Textron-svg</title>
	<style>
		.s0 { fill: #004f85 } 
	</style>
	<g id="layer1">
		<path id="path12779" fill-rule="evenodd" class="s0" d="m216.6 249.7v-243.2h157.1v59.2h-77.5v32.7h77.5v59.4h-79.5v32.7h79.5v59.2zm157.1-243.2h85.7l42.9 61.2 44.9-61.2h253.3l42.6 59.2h-75.3v184h-79.7v-184h-63.4v-56.1l-81.5 115.5 87.8 124.6h-83.8l-46.9-63.4-44.9 63.4h-81.7l85.7-122.6zm469.5 0h118.4c39.5 0 65.4 16.8 77.5 50.1 12.3 33.4 3.5 61-26.4 82.8l75.5 110.4h-79.5l-81.8-116.7c23.1 4.2 36.7-5.6 40.7-29.6 4.1-23.8-7.4-35.8-34.4-35.8h-14.5v182.1h-75.5zm502.3 243.3v-243.3h69.3l73.6 106.1v-106.1h79.5v243.3h-63.3l-87.8-124.7v124.7zm-1169.7-243.3l40.9 59.2h-73.6v184.1h-79.5v-184.1h-63.3v-59.2zm892 122.6c0-35.4 12.6-65.8 37.8-91 25.1-25.2 55.4-37.9 90.8-37.9 35.4 0 65.7 12.7 90.9 37.9 25.2 25.2 37.8 55.6 37.8 91 0 35.5-12.6 65.8-37.8 91-25.2 25.3-55.5 37.9-90.9 37.9-35.4 0-65.7-12.6-90.8-37.9-25.2-25.2-37.8-55.5-37.8-91zm128.6 59.2q24.5 0 41.8-17.3c11.5-11.6 17.3-25.5 17.3-41.9 0-16.3-5.8-30.3-17.3-41.8-11.5-11.6-25.5-17.4-41.8-17.4-16.3 0-30.3 5.9-41.9 17.4-11.6 11.5-17.4 25.5-17.4 41.8q0 24.6 17.4 41.9 17.5 17.3 41.9 17.3z"/>
	</g>
</svg>