<svg version="1.2" xmlns="http://www.w3.org/2000/svg" viewBox="0 0 1506 306" width="1506" height="306">
	<title>travelers-logo-svg</title>
	<style>
		.s0 { fill: #f50002 } 
		.s1 { fill: #000000 } 
	</style>
	<g id="Layer">
		<g id="Layer">
			<path id="Layer" class="s0" d="m1162.6 114.6h-0.6c-0.6 0-1.1-0.5-1.1-1.1q0-0.3 0-0.5c41.7-95.3 152.7-138.6 247.8-96.9 43.3 19 77.8 53.6 96.8 96.9 0.2 0.5 0 1.2-0.6 1.4q-0.2 0.1-0.4 0.1h-0.5c-16.1-8.8-34.3-13.2-52.6-12.8-20.7-0.7-41.1 5.1-58.4 16.6q-0.3 0.1-0.7 0h-0.6c-35.8-22.2-81.1-22.2-116.9 0q-0.3 0.1-0.6 0h-0.6c-17.3-11.5-37.7-17.3-58.4-16.6-18.3-0.3-36.4 4.1-52.5 12.9z"/>
			<path id="Layer" class="s0" d="m1343.2 269.3c0.1 15.1-9.7 28.6-24.1 33.2-18.2 5.9-37.7-4.2-43.5-22.4-1-4.5 1.4-9 5.6-10.7 4.9-2 10.4 0.4 12.3 5.2 2.3 6.3 8.3 10.6 15 10.6 8.7 0 15.8-7.1 15.8-15.9v-154.1c0-0.5 0.4-0.8 0.9-0.9q3.9-0.2 7.8 0 4.7 0 9.3 0.6c0.4 0 0.8 0.4 0.8 0.9z"/>
			<path id="Layer" fill-rule="evenodd" class="s1" d="m262.4 303.3h-31.4l-20.4-66.2h-26l-7.2 66.2h-31.4l18.5-168.3h61.6c36.5 0 54 8.7 49.6 51.5-3.3 29.2-14.6 40.9-34.7 46.6zm-46-92.7c14.7 0 24.8-0.5 27.5-24.8 2.6-24.2-9.1-23.6-22.8-23.6h-28.3l-5.4 48.9z"/>
			<path id="Layer" fill-rule="evenodd" class="s1" d="m1087.7 303.3h-31.7l-20.3-66.2h-25.8l-7.3 66.2h-31.2l18.5-168.3h61.6c36.6 0 54 8.7 49.6 51.5-3.1 29.2-14.5 40.9-34.7 46.6zm-46.7-92.7c14.8 0 24.8-0.5 27.6-24.8 2.7-24.2-8.3-23.6-22.8-23.6h-27.8l-5.4 48.9z"/>
			<path id="Layer" class="s1" d="m429.7 135h33.1l22.9 123 48.3-123h32l-69.5 169.2h-32.4z"/>
			<path id="Layer" class="s1" d="m595 135h99.1l-3.1 28h-67l-4.3 40h54.5l-3.2 28.5h-54.5l-5 43.7h69.3l-3.2 28.1h-101z"/>
			<path id="Layer" class="s1" d="m855.9 135h99.2l-3.1 28h-67.2l-4.4 40h54.4l-3.1 28.5h-54.5l-4.8 43.7h69.5l-3 28.1h-101.5z"/>
			<path id="Layer" class="s1" d="m1113.7 300.3l4.4-27.5c15.4 2.8 31.1 4.5 46.9 5 21.1 0 27.1-3.6 28.9-20.7 1.7-15.6-0.8-17.6-24.8-25.2-37.7-12.2-46.2-18.4-42.4-53.3 3.7-33.6 21.1-45.5 59.3-45.5 15.5-0.1 31.1 1.4 46.3 4.6l-3.5 27.4c-15.3-2.4-30.7-3.8-46.1-4.2-17.1 0-22.8 4.4-24.3 18-1.8 15.9 1.2 17.4 24.1 24.8 36.1 12 47.4 18.2 43.5 53.3-4 36.8-21.1 48.3-64.8 48.3-16 0-31.9-1.7-47.5-5z"/>
			<path id="Layer" fill-rule="evenodd" class="s1" d="m312.2 303.3h-32l72.3-169.2h30.7l33.1 169.2h-33.1l-5.2-28.1h-54.2zm50.3-125.1l-27.7 70.7h38.8z"/>
			<path id="Layer" class="s1" d="m790.2 303.3h-79.6l18.1-168.3h31.9l-15.5 140.2h74.4c-4 17.7-11.7 28.1-29.3 28.1z"/>
			<path id="Layer" class="s1" d="m140.3 135c-3.8 17.8-11.6 28.2-29.5 28.2h-26.4l-15.2 140.4h-32.2l15.4-140.6h-52.3l3.1-28z"/>
		</g>
	</g>
</svg>