<svg version="1.2" xmlns="http://www.w3.org/2000/svg" viewBox="0 0 1529 691" width="1529" height="691">
	<title>Mosaic_Logo-svg</title>
	<style>
		.s0 { fill: #b84b16 } 
		.s1 { fill: #005953 } 
		.s2 { fill: #b2bb1e } 
		.s3 { fill: #c5a901 } 
		.s4 { fill: #000000 } 
	</style>
	<path id="Layer" class="s0" d="m1009.9 412.9c-33.4 37.5-81.5 105.5-81.5 105.5-241.1-72.3-406.8-106.8-406.8-106.8 0 0 103.1-58.8 108.9-58 239.9 33.3 379.4 59.3 379.4 59.3z"/>
	<path id="Layer" class="s1" d="m439.4 346.7c81.5-14.1 166.2 2.3 166.2 2.3 0 0-133.8 63.9-259.3 142.7 0 0-105.2-31.5-182.2-39.3 0 0 195.6-91.9 275.3-105.7z"/>
	<path id="Layer" class="s2" d="m727.6 484.6c0 0 78.1 21 185.9 57.4 0 0-68.4 101.1-92.9 149 0 0-68.4-39.6-197.6-96.4 0 0 27.5-29.3 104.6-110z"/>
	<path id="Layer" class="s3" d="m376 501.8c0 0 51.7-36.7 123.8-77.1 0 0 83 16.7 204.4 52.7l-108.5 104.9c0 0-63.7-26.7-117.6-46.2-53.9-19.5-102.1-34.3-102.1-34.3z"/>
	<path id="Layer" fill-rule="evenodd" class="s4" d="m378.3 341.7l-3.5 2.2-84.2 1.7-2.2-2.6 15.4-78.5 10.1-53.5 21.9-106.6-76.3 157.9-36.8 79.4-3.5 2.2-69.3 1.3-3-2.7-2.7-57.9-8.3-180.2-11.9 47-17.9 71.8-28.5 118.5-3.1 2.2c-32.9 0-42.1 0.5-72.3 1.7l-2.2-2.6 26.7-96.6 30.3-111.7 25.4-97.4 2.6-2.6c54.8 0 67.5 0 120.1-1.4l2.7 2.6 2.2 69.4 1.7 32 4.4 85.5 55.2-118.4c7-14.5 28.5-61 31.6-67.1l3.1-2.6c51.3 0 63.9 0 119.2-1.4l2.1 2.6-16.6 98.3-19.3 118.4zm253-46.1c-11.4 17.7-22.9 26.8-37.4 34.8l-2.6 1.1-3 0.3c-35.9-5.3-52-5.3-68.3-5.6-15.9-0.4-41.1-0.6-67.9 4.3l-2.6-0.2-1.9-0.9c-22.6-16.1-34.6-40.5-34.6-77.2 0-35.1 12.7-77.6 36.4-106.1 31-36.4 72.3-41.7 101.2-41.7 29.8 0 52.2 7 62.3 12.7 43.3 22.8 43.3 72.8 43.3 83.3 0 15.8-1.3 31.2-4.8 46-4.8 19.4-12.7 37.8-20.1 49.2zm-62.7-108.3c0-17.2-7-28.1-20.6-28.1-17.1 0-25.9 18.4-28.1 22.3-11 21.1-18.9 64.9-18.9 82.9 0 7.5 0 30.4 20.7 30.4 22.8 0 35-30.8 42.1-67.2 4.3-21 4.8-38.1 4.8-40.3zm78.8 136l15.9-55.3 3.9-1.3c7 7.9 25.4 29.4 60 29.4 13.6 0 30.7-4.5 30.7-18.1 0-11.7-10.5-17-27.1-25.4l-9.2-4.8c-20.2-11-43.8-24.2-43.8-60.5 0-19.8 7.8-38.6 21.4-53.5 15.8-17.1 43-29.4 84.6-29.4 35.5 0 54.4 7.9 78 17.9l2.2 4c-7.4 23.7-9.2 30.7-15.3 55.3l-4.4 0.8c-3.5-4.3-7-8.7-11.5-12.7-10-8.3-26.2-14-40.2-14-21.5 0-26.7 10.1-26.7 15.8 0 9.6 11.3 15.4 22.3 20.6l8.7 4.4c25 13.2 51.7 28.1 51.7 68.5 0 25.8-12.2 42.5-19.6 50.8-29.4 32.9-73.2 33.8-92.1 33.8-50 0-74.1-13.6-88.5-22zm464.2-128c-7.5 30.7-14.9 61.8-20.6 92.5-3.5 17.5-6.6 35.6-9.2 53.6l-2.7 2.6-81 1.7-2.2-2.7 3.5-20.1c-17.6 17.5-41.2 26.3-65.8 26.3-20.5 0-34.1-7.8-41.2-13.1-28.9-22-29.8-59.7-29.8-73.2 0-53.6 25.9-92.7 45.1-111.5 42.6-41.7 97.4-42.1 138.2-42.6h83.2l2.7 3.5zm-78.9-29c-13.6-0.4-31.6-0.8-47.4 12.4-12.2 10.5-29.7 37.3-29.7 76.3 0 22.4 10 35.5 27.6 35.5 9.6 0 16.2-4.4 22.8-9.2zm188 92.5c-9.2 43-10.6 52.2-15.3 83l-2.7 2.2-93.3 1.7-1.8-3.1c14.9-55.7 17.6-65.3 29.4-118l4.4-18.4c9.2-42.1 10.5-50.4 14.8-85.5l3.1-3.6c44.3-5.6 54.8-7.4 94.2-14.9l2.7 3.2-30.2 128.1zm40.2-186.4l-3.4 3.1-86.4 12.7-3.1-3.1 14.9-70.2 3.5-3.1 88.1-11.8 2.7 3.1zm167.9 201.8c-8.8 31.5-9.6 37.2-15.4 62.7l-3.5 3c-16.2 5.3-31.5 9.7-53.9 9.7-73.6 0-109.6-43.9-109.6-107.9 0-65.4 45.6-137.3 139-137.3 40.8 0 58.7 11.4 69.7 17.9l0.9 3.6-17.1 59.2-4.4 0.5c-10.5-13.2-22.4-20.7-39-20.7-29.8 0-57.9 27.6-57.9 74.2 0 24.5 11.8 48.6 44.7 48.6 21.1 0 33.3-8.7 42.1-15.3zm71.3-113.8c-15.8 0-28.6-12.7-28.6-28.6 0-15.8 12.8-28.6 28.6-28.6 15.8 0 28.6 12.8 28.6 28.6 0 15.9-12.8 28.6-28.6 28.6zm25.7-28.6c0-14.4-11.5-26.1-25.7-26.1-14.3 0-25.8 11.7-25.8 26.1 0 14.4 11.5 26.1 25.8 26.1 14.2 0 25.7-11.7 25.7-26.1zm-36.1-16.9h12.7c7.7 0 11 3.2 11 9.4 0 5.5-3.9 8.1-8.7 8.9l10.1 15.5h-3.2l-10.2-15.5h-8.8v15.5h-2.9c0 0 0-33.8 0-33.8zm2.9 15.7h7.2c5.1 0 10.7-0.5 10.7-6.4 0-5.2-4.5-6.8-8.6-6.8h-9.3c0 0 0 13.2 0 13.2z"/>
</svg>