<svg version="1.2" baseProfile="tiny-ps" xmlns="http://www.w3.org/2000/svg" viewBox="0 0 1608 944" width="1608" height="944">
	<title>tjx-logo-mobile-svg</title>
	<style>
		tspan { white-space:pre }
		.shp0 { fill: #9c1c26 } 
	</style>
	<g id="Layer">
		<path id="Layer" class="shp0" d="M636.52 196.27L414.64 196.27L413.07 943.61L220.7 943.61L220.7 197.85L0 196.27L0 2.75L636.52 2.75L636.52 196.27Z" />
		<path id="Layer" class="shp0" d="M1189.64 165.2L1302.15 4.33L1509.08 4.33L1302.15 341.41L1516.55 676.53L1306.08 676.53L1188.85 507.01L896.95 942.03L688.45 942.03L1079.49 342.2L863.9 4.33L1077.52 4.33L1189.64 165.2Z" />
		<path id="Layer" class="shp0" d="M845.02 580.95C830.07 715.47 741.16 838.98 620 898.37C564.53 924.73 503.55 942.03 435.89 941.25L435.89 754.02C537.38 750.87 619.6 685.58 650.29 597.47C655.4 589.21 656.19 575.84 658.55 566.01L660.12 0L845.81 0L845.02 580.95Z" />
		<path id="Layer" fill-rule="evenodd" class="shp0" d="M1555.1 114.07C1526.39 114.07 1502.78 90.86 1502.78 61.75C1502.39 33.04 1525.99 9.44 1555.1 9.44C1583.82 9.44 1607.43 33.04 1607.43 61.75C1607.43 90.86 1583.82 114.07 1555.1 114.07ZM1554.71 15.34C1529.53 15.34 1508.68 36.19 1508.68 61.75C1508.68 87.32 1529.53 108.17 1555.1 108.17C1580.68 108.17 1601.53 87.32 1601.53 61.75C1601.53 36.19 1580.68 15.34 1554.71 15.34ZM1535.43 31.47L1560.61 31.47C1569.66 31.47 1578.31 33.43 1579.1 46.41C1579.5 53.89 1577.13 56.64 1571.63 60.97C1577.53 64.51 1577.92 65.69 1578.71 75.52C1579.5 82.99 1578.31 84.17 1581.46 89.29L1572.81 89.29L1571.63 81.81C1570.45 75.13 1573.99 64.51 1561.79 64.51L1542.91 64.51L1542.91 89.29L1535.43 89.29L1535.43 31.47ZM1561.4 38.15L1542.91 37.76L1542.91 57.82L1561.4 57.82C1566.51 57.82 1571.23 56.64 1572.02 49.17C1573.2 39.33 1566.12 38.15 1561.4 38.15Z" />
	</g>
</svg>