<svg version="1.2" xmlns="http://www.w3.org/2000/svg" viewBox="0 0 1515 414" width="1515" height="414">
	<title>tsc-logo-svg</title>
	<style>
		.s0 { fill: #000000;stroke: #333333;stroke-width: 0 } 
		.s1 { fill: #d20000;stroke: #333333;stroke-width: 0 } 
		.s2 { fill: #ffffff;stroke: #333333;stroke-width: 0 } 
	</style>
	<path id="Layer" fill-rule="evenodd" class="s0" d="m1401.6 366.5h95.8v42.2h-95.8zm-935.9-281.9h-31.4v-79.4h148.1v79h-31.9v-38.6h-14.7v107h16.7v42.1h-89.4v-42.1h17.3v-107h-14.7zm203.9 110.1h-83v-42.1h14.8v-107h-14.8v-40.5h83c49 0 72.8 15 72.8 51.6 0.4 5-0.2 10-1.5 14.9-1.4 4.8-3.6 9.4-6.5 13.5-3 4.1-6.6 7.6-10.7 10.5-4.1 2.8-8.7 5-13.6 6.3 25.7 4.9 27.9 15.7 27.9 40.5v10.8h8.9l30.6-107h-13.6v-41.1h106.8v40.5h-13.8l27.1 107.5h9.9q-2.3-5.9-4-12.1-1.8-6.2-2.9-12.5-1.1-6.3-1.7-12.7-0.5-6.4-0.4-12.8c0-61.4 30.4-101.7 69.3-101.7q5.2-0.2 10.3 0.8 5.1 1 9.9 3.1 4.8 2 9.1 5.1 4.2 3.1 7.7 6.9v-12.1h30.9v73.7h-33.2v-1c0-22.6-7.5-34-20.9-34-16.7 0-22.6 18-22.6 55.9 0 35.5 5.9 52.4 22.9 52.4 11.7 0 19.7-9.8 21.9-28.3h36.1c0 48.1-24.7 74.7-67.5 74.7-6.4 0.1-12.8-0.8-19-2.5-6.2-1.7-12.1-4.3-17.5-7.7-5.4-3.5-10.3-7.6-14.6-12.4-4.2-4.9-7.7-10.3-10.4-16.1v34.9h-79.6v-41.6h16.8l-3.7-16.5h-43.5l-4.2 16.5h15.9v41.6h-114v-46.6c0-22-4.7-29.9-25.7-29.9h-5.1v34.1h15.1zm128.7-96h24.7l-8.3-36.5c-0.7-3.1-1.8-8.9-3-17.2q-0.4 2.1-0.8 4.3-0.4 2.2-0.8 4.4-0.5 2.1-1 4.3-0.6 2.1-1.2 4.2zm-143.8-16.1q0.8 0.1 1.6 0.1 0.8 0 1.6 0 0.8 0 1.6 0 0.8 0 1.6-0.1c18.2 0 26.7-5.5 26.7-18.5 0-13-9.3-18.7-29-18.7h-4.1zm-102.9 263.9c0 41.5-21.9 67.2-55.3 67.2-3.6 0.2-7.2-0.1-10.7-0.8-3.5-0.7-7-1.8-10.2-3.2-3.3-1.5-6.4-3.4-9.2-5.5-2.9-2.2-5.5-4.7-7.8-7.5v12.9h-24.6v-65.6h22.5c5.1 21.3 15 32.1 29.4 32.1 10.8 0 17.3-7.5 17.3-14.8 0-7.3-4.4-11.7-12.9-14.7l-15.1-5.1c-6.4-1.6-12.6-4.3-18.1-8.1-5.5-3.7-10.3-8.4-14.2-13.8-3.8-5.5-6.7-11.5-8.4-18-1.8-6.4-2.3-13.1-1.7-19.8 0-39.8 22.1-65.5 54.2-65.5q4.2-0.2 8.4 0.5 4.1 0.8 8 2.4 3.9 1.7 7.3 4.2 3.5 2.5 6.2 5.8v-8.7h25.8v60.3h-23.2c0-3.5-0.7-6.9-2.1-10.1-1.3-3.2-3.3-6.1-5.8-8.5-2.6-2.4-5.5-4.3-8.8-5.5-3.2-1.3-6.7-1.8-10.2-1.6-8.7 0-14.1 5.4-14.1 11.4 0 6.1 3.9 8.5 11 11.3l17.8 7.1c30.9 12.9 44.5 28.4 44.5 61.6zm957.5-64.3q0-0.1 0-0.2 0-0.2 0-0.3zm-59.2 66.2c-35.6 0-59.2-25.8-59.2-66.7 0-41 23.7-66.3 59.2-66.3 35.4 0 59.1 26.4 59.2 66.6-0.1 40.2-23.6 66.4-59.2 66.4zm12.7-63c0-25.7-1.6-38-12.8-38-11.2 0-12.9 10.5-12.9 32.5 0 24.7 2.2 36.2 12.9 36.2 10.7 0 12.8-9.2 12.8-30.2zm-825.7-64.9h58.6v41.4h-11.5v90.1c0 41.5-18.8 61.7-58.2 61.7-43.9 0-65.3-20.8-65.3-64.4v-87.4h-11.6v-41.4h75.5v41.1h-11.3v90.2c0 13.6 6.8 21.2 17.9 21.2 11 0 17.2-8.1 17.2-21v-90.1h-11.3zm433.4 114h38.6v74.4h-130.3v-41.5h12.8v-107h-11.2q0.6 2.4 1 4.7 0.5 2.4 0.8 4.8 0.2 2.4 0.4 4.9 0.1 2.4 0.1 4.8c0 40.4-21.4 61.8-62.9 61.8h-14.4v25.8h14.2v41.4h-80.3v-41.2h13.9v-107h-11.6q0.6 2.4 1 4.7 0.4 2.4 0.6 4.8 0.3 2.4 0.5 4.9 0.1 2.4 0.1 4.8c0 40.4-21.5 61.8-62.9 61.8h-13.9v25.8h14v41.4h-80.2v-41.2h13.9v-107h-13.9v-39.9h85.2c27.5 0 45.5 11.3 53.3 32.2v-32.2h85.6c28.4 0 46.8 12.1 54.1 34.5v-34.5h77.2v39.9h-12.9v107h26.5zm-277.3-54.6c0-12.9-7.4-19.4-22.4-19.4h-3.7v41.7h3.4c3.1 0.4 6.2 0.1 9-0.9 2.9-1 5.6-2.6 7.8-4.7 2.1-2.2 3.8-4.8 4.8-7.7 1.1-2.9 1.4-5.9 1.1-9zm138.5 0c0-12.9-7.3-19.4-22.4-19.4h-3.8v41.7h3.1c3 0.5 6.2 0.2 9.1-0.7 3-0.9 5.7-2.5 8-4.7 2.2-2.2 3.9-4.8 5-7.7 1-3 1.4-6.1 1-9.2zm247.5-59.4h57.7v39.7h-10.4l-38.6 70.8v36.5h17.8v41.9h-87.8v-41.5h18.1v-36.5l-41-70.8h-10.3v-40.1h79.6v39.7h-11.6l19.2 35.7 18.4-35.7h-11.1zm179.1 118.1h34.2c-0.9 48.3-23.8 74.8-64.3 74.8-42.7 0-70-37.4-70-95.5 0-61.3 28.7-101.8 65.5-101.8 3.4 0 6.7 0.3 10 1 3.3 0.7 6.4 1.8 9.5 3.2 3 1.4 5.9 3.2 8.5 5.3 2.6 2 5 4.4 7.1 7v-12.1h29.2v73.3h-31.7v-1c0-22.6-7-34.2-19.9-34.2-15.8 0-21.4 18.2-21.4 55.9 0 35.7 5.6 52.4 21.6 52.4 11 0 18.5-9.6 21.7-28.3zm-11.4-293.6h-14.7v-39.8h82.8c49.1 0 72.9 14.9 72.9 51.5 0.3 5-0.2 10.1-1.6 14.9-1.4 4.8-3.5 9.4-6.5 13.5-2.9 4.1-6.5 7.7-10.6 10.5-4.2 2.9-8.8 5-13.6 6.3 25.7 4.9 27.9 15.7 27.9 40.6v10.8h12.8v41.5h-65.9v-46.7c0-22-4.7-29.8-25.8-29.8h-5.1v34.1h15.2v42.4h-82.9v-42.2h14.7zm53 37q0.8 0.1 1.6 0.1 0.8 0 1.6 0 0.8 0 1.6 0 0.8 0 1.6-0.1c18.2 0 26.6-5.5 26.6-18.5 0-13-9.2-18.7-28.9-18.7h-4.1zm-146.2 115.9c-5.7 0.2-11.4-0.2-17-1.2-5.7-1.1-11.2-2.8-16.4-5.2-5.2-2.3-10.2-5.3-14.7-8.7-4.6-3.5-8.7-7.5-12.3-12-4-4.8-7.5-10-10.5-15.4-3-5.5-5.5-11.2-7.5-17.1-1.9-6-3.4-12-4.2-18.2-0.9-6.2-1.2-12.4-1-18.7q0-2.1 0.1-4.3 0.1-2.1 0.2-4.2 0.1-2.2 0.3-4.3 0.2-2.2 0.5-4.3h-26.9v-38.6h-14.7v107h16.7v42.1h-89.4v-42.1h17.3v-107h-14.8v38.6h-31.6v-79.1h148.4v54.5c2.2-8.5 5.8-16.5 10.6-23.7 4.8-7.3 10.9-13.7 17.8-19 7-5.3 14.7-9.4 23-12.1 8.3-2.7 17-4 25.8-3.8 52.2 0 85.2 38.6 85.2 99.9 0.2 6.2-0.2 12.4-1.1 18.5-0.9 6.1-2.3 12.1-4.2 18-1.9 5.8-4.4 11.5-7.3 16.9-2.9 5.5-6.2 10.7-10 15.5-3.7 4.7-7.9 8.9-12.6 12.5-4.7 3.7-9.8 6.8-15.2 9.2-5.4 2.5-11.1 4.3-16.9 5.4-5.8 1.1-11.8 1.6-17.7 1.3zm23.6-98.5c0-40-4-58.9-22.9-58.9-19 0-23.1 18.9-23.1 58.9 0 39.9 4.1 58.7 23.1 58.7 18.9 0 22.7-18.6 22.7-58.4zm237.8-81.1q0 1.6-0.3 3.1-0.3 1.6-0.9 3.1-0.7 1.4-1.6 2.7-0.9 1.3-2 2.4c-1.5 1.6-3.3 2.8-5.3 3.6-2 0.8-4.1 1.3-6.3 1.3-2.1 0-4.3-0.5-6.2-1.3-2-0.8-3.8-2-5.4-3.6q-1.1-1.1-2-2.4-0.9-1.3-1.5-2.8-0.6-1.5-0.9-3.1-0.3-1.5-0.3-3.1 0-1.6 0.3-3.2 0.3-1.6 0.9-3.1 0.6-1.6 1.5-2.9 0.9-1.4 2-2.5c2.4-2.3 5.3-3.8 8.5-4.4 3.1-0.6 6.4-0.2 9.4 1 2.9 1.3 5.5 3.3 7.3 6 1.8 2.7 2.7 5.9 2.8 9.1zm-3.5 0c0-1.7-0.3-3.4-1-4.9-0.6-1.6-1.6-3-2.8-4.2-1.2-1.2-2.6-2.2-4.2-2.8-1.5-0.7-3.2-1-4.9-1q-1.2 0-2.5 0.2-1.2 0.3-2.4 0.8-1.2 0.4-2.3 1.1-1 0.7-1.9 1.6-0.9 0.9-1.7 2-0.7 1.1-1.2 2.3-0.5 1.2-0.7 2.4-0.3 1.3-0.3 2.6 0 1.3 0.3 2.5 0.2 1.3 0.7 2.5 0.5 1.1 1.3 2.2 0.7 1.1 1.6 2 0.9 0.9 1.9 1.6 1.1 0.7 2.3 1.2 1.1 0.5 2.4 0.8 1.2 0.2 2.5 0.2c1.7 0 3.4-0.3 4.9-1 1.6-0.6 3-1.6 4.2-2.8 1.2-1.2 2.2-2.6 2.8-4.1 0.7-1.6 1-3.3 1-5zm-8.5 0.4q0.1 0 0.3 0l-0.2-0.4zm4 7.4h-6l-3.2-6.7v6.7h-5.6v-17.3h7.2c5.2 0 7.7 2 7.7 5.2q0.1 0.8-0.2 1.7-0.3 0.8-0.9 1.5-0.6 0.6-1.3 1-0.7 0.4-1.4 0.5zm-6.2-11.5c0-1.4-0.9-2-2.9-2h-0.8v4.1h1.2c1.6-0.3 2.5-1 2.5-2.1z"/>
	<path id="Layer" class="s1" d="m115.7 396l-115.7-378.4h424.7l-77.6 299.4-231.4 79z"/>
	<path id="Layer" fill-rule="evenodd" class="s2" d="m220.4 69.3h18.4v55.2h-25.8v-8.2c0-22.4-24-21.8-21.2-5.1 1.3 7.3 17.5 32.8 31.4 60.3 37.3 73.9-16.3 121.2-46.3 87.2l-5 7h-16.9v-60.3h26.6v15.1c-1.2 21.8 45.7 25.7 7-44.7q-3.8-6.2-7.3-12.5-3.5-6.2-6.8-12.7-3.2-6.4-6.1-13-2.9-6.6-5.5-13.3c-13.7-39.5 14.1-56.8 32.4-56.3q2.7-0.1 5.3 0.3 2.7 0.5 5.2 1.4 2.5 1 4.8 2.4 2.3 1.5 4.2 3.3zm122 173.5v18.7c0 34.1-22.5 51.5-40.1 51.5-26.5 0-50.9-14.7-48.5-114 2.7-114.7 62.9-90.1 64.3-82.8l4.9-6.2h18.2v54.8h-25.7v-9.9c-2.1-26.1-30.7-25.8-29.5 46.8 1.1 55.5 2.2 77.3 18.7 77.3 10.8 0 10.8-14.5 10.8-14.5v-21.7zm-286.6-210.4h93.1v52.9h-22.7v-17.2h-7.4v130.4l8.3 5v25.8h-49.8v-25.8l8.2-5v-130.4h-7.1v17.2h-22.6z"/>
</svg>