<svg version="1.2" xmlns="http://www.w3.org/2000/svg" viewBox="0 0 1624 316" width="1624" height="316">
	<title>transdigm-group-inc-vector-logo-svg</title>
	<style>
		.s0 { fill: #3b5b70 } 
		.s1 { fill: #bababa } 
	</style>
	<path id="Layer" fill-rule="evenodd" class="s0" d="m922.9 288.3l2.3-11.4h28.4l-7.3 34.6c-5.5 1.6-10.7 2.6-16.1 3.2-3.4 0.2-7.1 0.7-16.2 0.7-13.8 0-30.7-8.6-25-36.2 6-27.6 26.6-36.2 40.4-36.2 20 0 31.2 6 27.8 22.7h-15.9c1.9-8.9-3.3-11.8-11.4-11.8-13.3 0-21.6 9.7-25 25.3-3.4 15.6 1.1 25.3 14.1 25.3 6 0 10.1-0.8 14-1.6l3.1-14.6zm65.6 25.6h-14.8l14.8-69.4h29.4c12 0 23.2 3.9 20.3 18-1.8 9.1-9.1 14.9-17.9 17v0.2c11.2 1.3 9.6 8.4 8.8 18-0.2 4.4-1.3 12.5 0.5 16.4h-16.3c0-6.2 0.7-12.5 1.3-18.7 0.5-3.9 0.5-9.2-4.2-9.4h-15.9zm8.3-39.4h12.5c6.5 0 11.2-3.4 12.5-9.4 1.3-6.2-2.1-8.8-8.6-8.8h-12.5zm60.7 4.7c4.4-20.6 17.9-36.3 41.1-36.3 22.9 0 29.9 15.7 25.8 36.3-4.5 20.6-18 36.2-41.2 36.2-23.1 0-30.1-15.6-25.7-36.2zm15.6 0c-2.6 12-2.6 25.3 12 25.3 14.5 0 20.3-13.6 22.9-25.3 2.6-12 2.6-25.3-12-25.3-14.6 0-20.3 13.3-22.9 25.3zm143.4-34.7l-9.1 43.5c-3.9 18.5-19 27.4-35.9 27.4-16.9 0-28.1-8.9-24.2-27.4l9.1-43.5h14.8l-8.1 37.8c-2.6 11.7-4.1 22.4 10.5 22.4 14.5 0 17.4-10.7 20-22.4l8.1-37.8zm13 69.3l14.8-69.3h21.4c15.3 0 27.5 3.7 23.6 21.4-2.6 12.5-13 20.8-28.6 21.3h-10.9l-5.7 26.9h-14.6zm23.1-38.3c8.4-0.3 18.5 2.6 21.1-9.9 2.6-12.3-8.8-9.4-16.9-9.9zm89.5 38.3l14.6-69.3h15.1l-14.8 69.3zm69.2-57.6l-0.3 0.2-12.2 57.4h-13.8l14.6-69.3h22.1l14.8 54.4h0.3l11.7-54.4h13.8l-14.8 69.3h-21.1zm112.7 10.4q0 0.1 0 0.3zm-10.4-13.1c-10.7 0-16.7 15.7-18.8 25.3-2 9.7-2.6 25.6 7.8 25.6 8.9 0 14.6-6 16.2-13.3h15.9c-4.5 17.4-18.3 24-34.1 24-20.1 0-25.8-15.9-21.4-36.3 4.4-20.3 16.7-36.2 36.7-36.2 15.9 0 27.1 6.5 24 24h-15.9c1.5-7.2-1.7-13.1-10.4-13.1zm33 47.5h12.3l-2.6 12.8h-12.3z"/>
	<path id="Layer" class="s0" d="m7.8 4.5h168.7l-7.3 34.6h-62.2l-36.7 173.6h-44.8l37-173.6h-62l7.3-34.6"/>
	<path id="Layer" fill-rule="evenodd" class="s0" d="m189.2 212.7h-44.8l44.3-208.2h88.5c35.6 0.2 69.7 11.7 60.9 54.2-5.8 27.1-27.1 45.1-53.9 50.6v0.5c33.6 3.6 29.1 24.7 26.5 53.7-0.7 13.3-4.1 37.8 1.6 49.2h-49.2c0.3-18.5 2.1-37.2 4.2-56 1.3-11.5 1.8-27.4-12.8-27.9h-47.3zm25.2-118.3h37.5c19.8-0.3 33.3-10.2 37.2-28.7 3.9-18.5-6-26.3-25.5-26.6h-37.5zm98.7 118.3l119.4-208.2h53.1l28.1 208.2h-45l-5.7-44h-82.5l-25 44zm146-78.7l-9.6-88.9h-0.6l-49.4 88.9zm139.2-94.3l-0.8 0.8-36.7 172.2h-41.6l44.2-208.2h66.2l44.5 163.9 0.7-0.5 34.7-163.4h41.9l-44.3 208.2h-63.5z"/>
	<path id="Layer" class="s0" d="m873.2 63.9c2.8-21.1-6.3-31.5-27.9-31.5-16.4 0-34.9 8.6-38.8 26.8-4.6 22.4 14.9 25 31.8 29.5 29.9 8 74.7 16.9 65.8 58.9-10.9 51.6-59.8 69.6-104.3 69.6-47.7 0-77.3-18.5-64.8-70.9h45.5c-6.8 23.2 3.4 38.5 26.6 38.5 17.9 0 42.6-5.4 47.3-27.6 5.2-24.5-24.2-26.3-41.1-30.7-27.6-7.3-64.5-20.6-56.7-57.4 10.1-47.7 58.3-68.5 100.9-68.5 40.4 0 67.2 21.9 58.3 63.8h-42.6"/>
	<path id="Layer" fill-rule="evenodd" class="s1" d="m952.3 4.5h69.2c19.3 0.5 39.3 2.1 53.9 12.7 26.3 19.3 33 51.9 24.7 91.5-8.3 39.7-29.1 72.2-63.5 91.5-19 10.7-39.8 12-59.1 12.8h-69.2zm-10.2 183.5h42.2c29.2 0 47.1-11.7 57.8-23.7 16.1-18 23.7-36.3 27.6-55.8 4.1-19.3 4.7-37.8-3.9-55.8-5.5-11.7-18.8-23.7-47.7-23.7h-42.1z"/>
	<path id="Layer" class="s1" d="m1098.8 212.7l44.2-208.2h28.7l-44 208.2h-28.9m235.3-156.1c0-24.8-20.1-31.5-42.4-31.5-51.1 0-78.9 44.8-86.2 83.6-9.1 53.5 1 82.7 60.4 83.7 14 0 28.6-2.3 42.9-6.5l12.5-58.9h-47.3l5.2-24.8h76l-21.9 103c-25.5 7.3-50.5 12.2-74.2 12.2-29.4 0-52.6-3.6-71-24-18.8-20.3-19.5-54.9-13.3-84.4 4.7-21.6 16.9-45.4 31.5-64.1 25-31.8 58-44.3 93.7-44.3 35.1 0 70.8 16.1 63.7 56.3h-29.6m256.1-31.6h-0.6l-106.4 187.4h-27.1l-26.8-187.4h-0.5l-39.8 187.4h-28.9l44.2-208.2h51.6l23.7 171.7h0.5l95.2-171.7h48.2l-44.3 208.2h-28.9l39.9-187.4"/>
</svg>