<svg version="1.2" xmlns="http://www.w3.org/2000/svg" viewBox="0 0 1624 456" width="1624" height="456">
	<title>TraneTechnologieslogo-svg</title>
	<style>
		.s0 { fill: #000000 } 
		.s1 { fill: #6400ff } 
	</style>
	<path id="black-plate" fill-rule="evenodd" class="s0" d="m1082.1 455.4c-24 0-43.4-19.4-43.4-43.4 0-24 19.4-43.4 43.4-43.4 24 0 43.4 19.4 43.4 43.4 0 24-19.4 43.4-43.4 43.4zm34.5-43.1c0-19.1-15.4-34.6-34.5-34.6-19.1 0-34.6 15.5-34.6 34.6 0 19.1 15.5 34.6 34.6 34.6 19.1 0 34.5-15.5 34.5-34.6zm-944.6 41.3v-74.3h-31.2v-8.9h71.2v8.9h-31.2v74.3zm204.9-41.8c0-26.3 16.6-43.2 40.5-43.2 20.3 0 29.1 9.9 34.8 25.2l-8.5 2.4c-4.2-12.5-12.8-18.8-26.5-18.8-18.5 0-31.4 13.3-31.4 34.6 0 22.4 14 34.6 31.6 34.6 13.5 0 23.9-6.5 27.8-20l8.9 1.8c-4.7 16.4-16.9 27-36.7 27-23.6 0-40.2-17.9-40.5-43.6zm145.7 42.1h-8.8v-83.2h8.8v34.3h50.4v-34.6h8.9v83.2h-8.9v-40h-50.4zm412.3-0.3v-83.2h8.8v74.4h47.8v8.8zm582.6-20.5l8.6-3.7c4.1 11.2 12.7 16.7 24.1 16.7 12 0 20-5 20-13.8 0-8.1-4.7-12.2-21.5-17.4-17.7-5.2-28.4-9.9-28.4-24.5 0-12.7 11.2-22.1 27.6-22.1 16.3 0 25.7 8.1 30.1 18.8l-8 4.4c-4.7-9.9-12-14.1-22.1-14.1-10.9 0-17.4 5.2-17.4 12.3 0 9.1 5.9 11.9 22.6 17.1 17.1 5.2 27.2 10.9 27.2 25.2 0 13.8-12.2 23.4-30.3 23.4-16.4 0-27.8-8.5-32.5-22.3zm-1195.9-54.1h-44.4v29.1h41.8v8.9h-41.8v27.8h44.4v8.8h-53.2v-83.2h53.2zm327 74.6v-85l63.4 65.8v-63.7h8.8v85l-63.6-65.5v63.4zm177.9 1.9c-24 0-43.3-19.4-43.3-43.5 0-24 19.3-43.4 43.3-43.4 24 0 43.4 19.4 43.4 43.4 0 24.1-19.4 43.5-43.4 43.5zm34.6-43.2c0-19.1-15.5-34.6-34.6-34.6-19.1 0-34.5 15.5-34.5 34.6 0 19.1 15.4 34.6 34.5 34.6 19.1 0 34.6-15.5 34.6-34.6zm362.6 43.2c-24.4 0-44.2-19.5-44.2-43.5 0-23.9 19.8-43.4 44.2-43.4 14.8 0 28.3 7.3 36.6 19.3l-7.5 4.9c-6.5-9.6-17.4-15.3-29.1-15.3-19.2 0-35.1 15.6-35.1 34.5 0 19 15.9 34.6 35.1 34.6 17.9 0 29.3-10.1 31.2-26.5h-24.5v-8.8h33.8v4.4c0 23.9-16.1 39.8-40.5 39.8zm107.8-85.1h8.8v83.2h-8.8zm72.2-358.8h176.6v30.2h-176.6zm0 245.4h176.6v30.2h-176.6zm0.2-122.7h131.5v30.1h-131.5zm-121.8-122.7v286.5l-232.7-225.9v215.3h-30.1v-286.5l232.4 225.6v-215zm-836.9 275.6l-112.9-141.7h95c27.3 0 45.2-23.4 45.2-51.2 0-27.6-20-52.5-48-52.5h-131.7v-30.2h131.7c43.1 0 78.1 36.9 78.1 82.7 0 45.8-29.8 81.6-80.2 81.6h-27.6l89.4 111.3zm-274.3-275.6v275.6h-30.1v-245.4h-140.8v-30.2zm1427.8 360.9v15.3h-2.1v-15.3h-5.4v-2.1h13v2.1zm24.6 15.6h-2v-14.6l-5.2 14.6h-2.4l-5.2-14.6v14.6h-2v-17.4h3.3l5.2 14.8 5.2-14.8h3.1zm-159.7-9.1h-44.4v29.1h41.8v8.8h-41.8v27.9h44.4v8.8h-53.2v-83.2h53.2z"/>
	<path id="purple-uplift_1_" class="s1" d="m877.9 287.2l-126.5-226.7-126.5 226.7h-35.3l161.8-286.2 161.9 286.5h-35.4z"/>
</svg>