<svg version="1.2" xmlns="http://www.w3.org/2000/svg" viewBox="0 0 1546 347" width="1546" height="347">
	<title>TrimbleR-Horiz-RGB-Blue-svg</title>
	<style>
		.s0 { fill: #0063a3 } 
	</style>
	<path id="Layer" class="s0" d="m403.2 302.3v-215.1h-79.3v-48.3h217.2v48.6h-79.8v215.1z"/>
	<path id="Layer" class="s0" d="m493.7 302.3v-188.7h57.3v30.7h0.4c10.4-16 28.5-35.6 64.1-35.6h1.8v50.9c-2.2-0.4-12.2-1.1-15.7-1.1-4.9 0.1-9.8 0.7-14.6 1.9-4.8 1.2-9.4 2.9-13.8 5.2-4.3 2.2-8.4 5-12.2 8.1-3.7 3.2-7.1 6.9-10 10.8v118z"/>
	<path id="Layer" class="s0" d="m635.4 40.7h57.7v46h-57.7zm0.4 261.9v-190h56.9v189.8z"/>
	<path id="Layer" class="s0" d="m715.2 302.3v-189.7h57.3v29.9c11.4-15 32.4-33.8 62.5-33.8 31.7 0 46.6 13.1 52.1 33.8 11.4-14.6 32.7-33.8 62.5-33.8 38.4 0 55.5 24.3 55.5 58v135.6h-57.3v-120.3c0-17.1-4-26-20.7-26-14.2 0-25.7 7.9-38.2 18.9v127.4h-57.2v-120.3c0-17.1-4-26-20.9-26-14.2 0-25.6 7.9-38.4 18.9v127.4z"/>
	<path id="Layer" fill-rule="evenodd" class="s0" d="m1084.2 279.9v22.4h-57.4v-263.4h57.4v102.9c12.5-17.4 30.3-33.1 58.4-33.1 43.2 0 72.9 33.1 72.9 98.6 0 65.4-30.2 98.1-73.7 98.1-25.6 0-43.4-9.5-57.6-25.5zm74.1-72.3c0-31.6-11-51.6-36.7-51.6-14.6 0-27.7 8.9-37.4 18.5v70.2c12.5 11.7 22.8 17.3 38.2 17.3 23.7 0.1 35.8-19.8 35.8-54.4z"/>
	<path id="Layer" class="s0" d="m1233.3 38.9h57v263.4h-57z"/>
	<path id="Layer" fill-rule="evenodd" class="s0" d="m1308.1 207.6c0-73.7 56.2-98.9 95.4-98.9 39.2 0 87.3 19.7 87.3 105.7v8.5h-125.8c2.9 31.3 20.4 43.5 44.2 43.5q7.8-0.3 15.4-1.9 7.6-1.6 14.8-4.5 7.2-2.9 13.8-7 6.6-4.2 12.3-9.4l22.1 34.2c-22.1 18.9-49.5 28.5-82.6 28.5-49.6 0-96.9-25.2-96.9-98.7zm131.4-18.5c-2.8-26.7-14.9-39.5-36.3-39.5-17.8 0-33.2 11.8-37.4 39.5z"/>
	<path id="Layer" fill-rule="evenodd" class="s0" d="m1501.6 281.1c0-2.9 0.5-5.7 1.6-8.4 1.1-2.6 2.7-5 4.7-7.1 2-2 4.5-3.6 7.1-4.7 2.7-1 5.5-1.6 8.4-1.6 8.8 0 16.7 5.3 20 13.5 3.4 8.1 1.5 17.4-4.7 23.6-6.2 6.2-15.5 8.1-23.7 4.7-8.1-3.3-13.4-11.2-13.4-20zm39.5 0c-0.1-7.2-4.5-13.6-11.2-16.3-6.7-2.6-14.3-1-19.4 4.1-5 5.1-6.4 12.8-3.6 19.4 2.8 6.7 9.3 10.9 16.5 10.9 2.3 0 4.7-0.5 6.9-1.4 2.1-0.9 4.1-2.2 5.8-3.9 1.6-1.7 2.9-3.7 3.8-5.9 0.9-2.2 1.3-4.6 1.2-6.9zm-26.2-12.4h8.9c5.6 0 8.9 2.4 8.9 7.3q0.1 1.1-0.2 2.2-0.3 1.1-0.9 2-0.6 0.9-1.6 1.6-0.9 0.6-1.9 0.9l5.1 9.8h-5l-4.8-9.1h-3.7v9.1h-4.8zm8.6 11c3 0 4.6-0.9 4.6-3.4 0-2.6-1.6-3.5-4.7-3.5h-3.7v6.9z"/>
	<path id="Layer" class="s0" d="m37.7 279.3q8.2 6.6 17.3 11.7 9 5.2 18.8 9 9.7 3.7 19.9 5.9l-71.2 41.1v-81.9q7.1 7.7 15.2 14.2z"/>
	<path id="Layer" class="s0" d="m73.4 46.7q-9.7 3.8-18.7 9-8.9 5.1-17.1 11.6-8.1 6.5-15.1 14.1v-81.4l70.7 40.7q-10.1 2.3-19.8 6z"/>
	<path id="Layer" class="s0" d="m251.8 214.7q3.2-10 4.8-20.3 1.6-10.3 1.6-20.8 0.1-10.5-1.5-20.8-1.6-10.4-4.7-20.4l71.2 41.1z"/>
	<path id="Layer" class="s0" d="m88.4 55.8q9.7-2.5 19.7-3.6 10-1.1 20-0.9 10 0.3 19.9 2-4.8 0.1-9.5 0.9-4.8 0.9-9.4 2.4-4.5 1.5-8.8 3.7-4.3 2.2-8.3 5c-11.2-3.1-32.4-5.4-42.6-3.1q9.3-3.9 19-6.4z"/>
	<path id="Layer" class="s0" d="m79.5 202.4q4.4-6.8 9-13.3 4.7-6.6 9.7-12.9 4.9-6.3 10.2-12.3 5.3-6.1 10.8-11.9c20.2 17.5 50.5 24.6 74.8 13.6q2.1 5.4 3.8 11.1 1.8 5.6 3.2 11.3 1.4 5.7 2.4 11.5 1.1 5.8 1.7 11.6c-35.1 26.5-91.4 19.1-125.6-8.7z"/>
	<path id="Layer" class="s0" d="m53.4 218q-3.4 6.5-6.4 13.3-3.1 6.8-5.6 13.8-2.6 7-4.6 14.2c-10.8-10.7-19.4-23.3-25.5-37.2-6.2-13.8-9.6-28.7-10.3-43.8-0.6-15.2 1.6-30.3 6.5-44.6 4.9-14.3 12.5-27.6 22.3-39.1-9.6 34.6 0.9 79.6 31 110.4q-3.9 6.4-7.4 13z"/>
	<path id="Layer" class="s0" d="m129.5 142q4-3.7 8.2-7.2 4.2-3.6 8.6-6.9 4.3-3.4 8.8-6.6 4.5-3.2 9.1-6.2 3.6 4.2 7 8.7 3.4 4.4 6.4 9.1 3.1 4.7 5.8 9.6 2.7 4.9 5.1 10c-16.9 7.7-40.8 4.7-59-10.5z"/>
	<path id="Layer" class="s0" d="m157.3 88.7q-4.4-3.5-9.1-6.7-4.7-3.2-9.6-5.9-5-2.7-10.2-5c13.5-8.6 44.6-9.1 63.9 10.4q-3.5 1.4-7 3.1-3.4 1.6-6.7 3.5-3.3 1.8-6.5 3.8-3.2 2.1-6.3 4.3-4.1-3.9-8.5-7.5z"/>
	<path id="Layer" class="s0" d="m206.2 227.9q0.1 5-0.3 10-0.4 5-1.3 10-0.9 4.9-2.2 9.8-1.3 4.8-3.2 9.5c-10.4 8.5-22.2 15.3-34.9 19.9-12.6 4.7-26 7.2-39.5 7.5-13.5 0.2-26.9-1.7-39.8-5.9-12.8-4.1-24.9-10.4-35.7-18.5 2-10 7.5-29.1 22.5-55.1 35.6 28 92.9 37.5 134.4 12.8z"/>
	<path id="Layer" class="s0" d="m195.1 134.1q-2.8-4.8-5.8-9.4-3.1-4.6-6.4-9-3.3-4.4-6.8-8.7 2.8-2.2 5.7-4.2 3-2.1 6.1-3.9 3.1-1.8 6.4-3.4 3.2-1.6 6.5-3c10.1 13.7 12.8 37.5-0.5 51.3q-2.5-4.9-5.2-9.7z"/>
	<path id="Layer" class="s0" d="m218 198.5q-0.9-5.3-2.1-10.4-1.2-5.2-2.6-10.3-1.5-5.1-3.2-10.2-1.7-5-3.7-9.9c3.1-2.7 5.9-5.7 8.2-9 2.4-3.3 4.3-6.9 5.8-10.7 1.4-3.8 2.4-7.8 2.9-11.8 0.5-4.1 0.4-8.2-0.1-12.2 12.4 27 13 60.8-5.2 84.5z"/>
	<path id="Layer" class="s0" d="m116.2 81.6q5.2 1.9 10.2 4.3 5 2.5 9.7 5.3 4.7 2.9 9.1 6.2 4.5 3.4 8.6 7.1-4.6 3-9 6.3-4.4 3.2-8.6 6.6-4.3 3.3-8.4 6.9-4.2 3.5-8.2 7.2c-11.2-15.2-14.7-34.7-3.4-49.9z"/>
	<path id="Layer" class="s0" d="m229.4 205.6q4.1-6.3 7.1-13.2 3.1-6.9 5-14.2 1.8-7.3 2.5-14.9c0.6 7.6 0.5 15.2-0.3 22.7-0.7 7.5-2.2 15-4.4 22.2-2.2 7.3-5 14.3-8.5 21-3.4 6.8-7.5 13.2-12.1 19.1q0.5-3.8 0.8-7.6 0.4-3.9 0.6-7.7 0.2-3.9 0.2-7.7 0-3.9-0.2-7.8 5.1-5.5 9.3-11.9z"/>
	<path id="Layer" class="s0" d="m109.3 141.5q-5.7 5.9-11 12-5.4 6.1-10.4 12.4-5.1 6.3-9.9 12.9-4.7 6.6-9.2 13.3c-27.8-30.9-38.9-80.6-15-114.5q5.9-1.5 11.9-2.3 6.1-0.8 12.2-0.8 6.1-0.1 12.1 0.6 6.1 0.8 12 2.2c-12.5 19.5-6.9 46.6 7.3 64.2z"/>
</svg>