<svg version="1.2" xmlns="http://www.w3.org/2000/svg" viewBox="0 0 1569 552" width="1569" height="552">
	<title>Tyson_Foods_logo-svg</title>
	<style>
		.s0 { fill: #00205b } 
	</style>
	<g id="Layer">
		<path id="Layer" fill-rule="evenodd" class="s0" d="m930.4 415.3l-62.5-141.7h-22.1v-22.5h90.4v22.5h-27.7l41.1 104 41.1-104h-23.3v-22.5h66.3v22.5h-18.1l-57.5 135.9c-18.3 43.5-39 64-71.1 64-18.4 0-35.9-9.7-35.9-27.3 0-13.1 9.2-23.1 21.6-23.1 13.2 0 20.6 10.9 20.6 21 0 8.1-3.6 12.1-3.6 12.1 19.6-2.5 28.6-10.1 40.7-40.9zm504.3-130.1c15.5-28.3 38.7-37.8 63.4-37.8 28 0 44.7 19.5 44.7 52.3v90h25.6v22.5h-85v-22.5h22.2v-80c0-23.2-11.4-36.1-29.1-36.1-19.2 0-40.1 19.3-40.1 50v66.1h21.9v22.5h-84.6v-22.5h25.2v-116.1h-25.2v-22.5h61zm-153.9 130.8c-46.1 0-83.4-37.7-83.4-84.3 0-46.6 37.3-84.3 83.4-84.3 46.2 0 83.4 37.7 83.4 84.3 0 46.6-37.2 84.3-83.4 84.3zm42-84.3c0-36.9-18.8-66.7-42-66.7-23.1 0-41.9 29.8-41.9 66.7 0 36.9 18.8 66.7 41.9 66.7 23.2 0 42-29.8 42-66.7zm-175.4-61.6l4.9-22.7h20.1v53.7h-20.5c-10.6-19.3-23.7-38-47.1-38-15.3 0-25.5 9.6-25.5 22.3 0 15.5 14.6 22.1 43.2 29.7 35.9 9.5 56.7 20.8 56.7 50.1 0 24.8-20.6 50.8-58.7 50.8-24.8 0-41.1-11.1-51.7-24.8l-5.2 24.8h-19.7v-57.6h20.8c11.8 25.2 33.2 41.6 54.7 41.6 17.4 0 27.2-8.2 27.2-22.3 0-16.3-13.7-22.6-44.6-30.7-40.5-10.9-55.6-24.5-55.6-49.9 0-28.1 23.8-49.7 56.6-49.7 22.2 0 36.1 9.7 44.4 22.7zm-283.9-96.1v61.4h-17.7c-6.2-35-13.4-38.8-49.6-38.9h-27.7v193.3h47.3v22.5h-132.9v-22.5h47.3v-193.3h-27.8c-36.1 0.1-43.2 3.9-49.5 38.9h-17.7v-61.4zm-587 378c-152.6 0-276-123.3-276-275.9 0-152.6 123.4-275.9 276-275.9 152.6 0 276 123.3 276 275.9 0 152.6-123.4 275.9-276 275.9zm246.1-275.9c0-136.1-110-246.1-246.1-246.1-136.1 0-246.2 110-246.2 246.1 0 136.1 110.1 246.1 246.2 246.1 136.1 0 246.1-110 246.1-246.1zm-324.7 153.5v-26.6h58.2v-229h-35c-42.2 0-51.2 4.6-58.7 46h-20.9v-72.7h270v72.7h-21c-7.4-41.4-16.4-46-58.7-46h-34.9v229h58.2v26.6zm40.3-122.7h-30.2c-7.4 0-13.5 6.1-13.5 13.6h-18.9c0-6.3 1.8-12.2 4.9-17.1h-3.1c-9.4 0-17 7.7-17 17.1h-18.9c0-9.4 3.9-17.8 10.2-23.7-6.3-5.8-10.2-14.3-10.2-23.6h18.9c0 9.4 7.6 17.1 17 17.1h3.1c-3.1-5-4.9-10.8-4.9-17.1h18.9c0 7.5 6.1 13.6 13.5 13.6h30.2zm173.3-18.8v17.4c-11.5 0-21.2 7.3-24.8 17.5h-14.5v-16.1h-57.5v-20.2h57.5v-16.2h14.5c3.6 10.3 13.3 17.6 24.8 17.6zm111.1 234.1v26.7h-4.9v-21.7l-7.5 21.7h-4l-7.5-21.4v21.4h-4.9v-26.7h7.8l6.8 19.8 6.4-19.8zm-54.5 0h21.8v4.3h-8.3v22.4h-5.3v-22.4h-8.2z"/>
	</g>
</svg>