<svg version="1.2" xmlns="http://www.w3.org/2000/svg" viewBox="0 0 1549 626" width="1549" height="626">
	<title>ultanbb-svg</title>
	<style>
		.s0 { fill: #f47d39 } 
	</style>
	<g id="Layer">
		<g id="Layer">
			<g id="Layer">
				<path id="Layer" class="s0" d="m304.8 45.8c-1.8 42.7-1.8 96.8-1.8 145.4 0 89.9 1.2 110.1 18 132.2 16.8 22 48.3 34.4 88.9 34.4 47.1 0 84.3-23.6 97.2-58.1 4.6-12.4 7.6-29.8 7.6-76.2 0-73.5-0.6-147.2-5.2-220.5 8.2 1.2 44.8 1.2 53.6 0l-2 26.8c-2.8 48.5-4.6 164.8-5.8 221.7-1.2 66.7-20.8 97.1-59.3 120.9-27.4 16.9-66.2 24.1-97.7 24.1-69.7 0-153.4-21.3-166.2-108.8-1.4-8-1.4-24.8-1.4-29.8v-153.6c0-28.8-1.2-72.7-2.8-101.5 13.4 1.8 66.7 1.8 78.5 0z"/>
			</g>
		</g>
		<path id="Layer" fill-rule="evenodd" class="s0" d="m144.4 25.6c-78.7 56.3-120.1 133.2-120.1 222.3 0.4 160.8 255.7 335 626.7 335 128.4 0 253.4-15.2 376.7-52.5h6.4c-102.3 52.7-240.5 95.4-405.7 95.4-369.1 0-627.8-158.2-627.8-372.5 0-94.5 53.1-171.6 143.8-233.1zm470.6 427.9c0-12.8-0.4-21.6-1-31.6 2.8 0 25.2 0 32.2 0 14.7 0 24.7 5.2 24.7 17.8 0 12.4-12.3 17.8-19.9 18.8v0.2c7.4 0.2 21.9 5.2 21.9 19.1 0 16.4-13.9 22.8-28.5 22.8-6.6 0-27.8-0.2-30.6 0 0.6-10.2 1-18.8 1-31.6 0 0 0-15.5 0.2-15.5zm24.6-25.2c-3.6 0-4.2 0-6 0.4-0.2 5.6-0.6 12-0.6 16 0 4.2 0.2 7.8 0.2 11.6h5.6c7 0 14-4.8 14-14.4 0-7.6-3.4-13.6-13.2-13.6zm-1 34.4c-2.2 0-3.8 0-5.2 0 0 3.2-0.2 6.3-0.2 11.1 0 7 0.2 16 0.2 20 2.2 0 4.2 0.2 6.8 0.2 7.2 0 13.4-5.4 13.4-15.6 0.2-10.4-5.2-15.7-15-15.7zm156-9.2c0-12.8-0.2-21.6-1-31.6 7.4 0 44.3 0.2 47.5 0-0.2 1.4-0.2 8.2 0 10-9.2-0.8-24.7-0.8-28.3-0.8-0.6 8.4 0 16 0 24.2 10.7-0.2 18.7-0.4 27.9-0.8-0.4 2.6-0.4 7.4 0 9.8-9.2-0.6-18.6-1-27.9-1 0 4.7 0 9.7 0 14.5 0 4.8 0 8.8 0.2 13.2 9.1 0 18.7 0.6 28.1-0.6-0.2 1.8-0.2 8.8 0 10.2-4.4 0-44.7-0.2-47.5 0 0.8-10.2 1-18.8 1-31.6zm236.1 47.2c-4.2-0.2-18-0.2-21.2 0-2.8-7.6-5.6-15.6-8.8-23.2-5.2-0.2-24.1-0.2-28.3 0-3.6 7.6-6 15.6-8.6 23.4-1.8-0.2-9.4-0.2-11.8 0 5.8-12.6 24.2-53.5 34.9-79.3 1.6 0 7.6 0 9.4 0 10.6 25.8 25 60.7 34.4 79.1zm-32.6-30c-3.8-9.4-7-18.4-11-27.3-4.2 8.9-7.9 17.9-11.7 27.3zm129.6 1.6c0-12.4 0.4-18.6 0.4-26.7 0-12.2-0.4-19.8-0.6-23.6 3.4 0.2 6.8 0.4 10.2 0.4 3.2 0 6.8-0.2 10-0.4-1.6 14.8-1.8 26.8-1.8 39.9 0 28 8.8 32.6 24.5 32.6 19.6 0 21-19.8 21-41.2 0-10.3-0.4-20.7-1-31.3 2.2 0.2 4.4 0.4 6.4 0.4 2.2 0 4.2-0.2 6-0.4-0.8 6.6-1.4 23-1.4 42.9 0 26.4-12.4 37.4-36.2 37.4-20.9 0-37.5-8.6-37.5-30zm202.7-31.7c0-4.2 0.2-8-0.2-9.6-4.6 0-14.9 0-22.3 0.8 0.4-1.6 0.4-8.2 0-10 11 0.2 52.5 0.2 62.9 0-0.4 1.8-0.4 8.4 0 10-6.6-0.6-17.4-0.6-22.2-0.6 0 1.6 0 5.2 0 9.4v28.5c0 12.8 0.4 21.4 1 31.6-2.8-0.2-17.4-0.2-20.2 0 0.8-10.2 1-18.8 1-31.6zm187.8 15.6c6.6-8.6 13.2-23 18.6-34.1 2 0 9.6 0 11.8 0-5.6 8.5-18.2 30.3-25.8 44.7 0 3.6-0.2 6.4-0.2 10.2 0 7.6 0.2 15.4 1.2 24-3.4-0.2-17.4-0.2-20.8 0 0.6-7.2 1.6-15 1.6-22 0-3.6 0-7.2-0.2-10.6-8.8-15.4-22.7-40-26.5-46.3 3.8 0 18.3 0 21.7 0 5.8 11.1 15.2 28.9 18.6 34.1zm-868.1-298.2c0-24.8 0-30.2-1.6-80.3-0.8-11.8-1.8-62.5-2.6-73.1 14.8 2.8 66.5 2.2 80.9 0-4 84.9-5.8 155.6-5.8 242.1 0 39.3 1.2 75.9 1.8 106.6h10.6c16.8 0 100.7 0 134.8-5-2 6.2-2.2 34.2 0 41.6-29.7-1-79.7-3.2-111-3.2-37.4 0-68.8 1-111.3 3.4 0-8.8 4.2-139.2 4.2-153.4zm380.5 155c0 42.7 2.2 61.1 4.2 76.9-17-1.6-61.1-2.2-82.1 0 2.6-42.6 5.6-85.9 5.6-128.6l-0.4-156.8c0-20.8-0.6-40.4-1.4-62.4h-29c-5.1 0-60.9 1.2-90.8 3.8 1.8-6.4 3.2-37.9 1.4-44.7 45.9 2.8 109.2 2.8 154.2 2.8 48.1 0 100-1 155.6-3.8-1.8 9.8-2.4 36.9-0.4 45.9-34.4-3.4-75.7-4-115.9-4-0.4 20.4-1 41.6-1 63zm343.2 15.3l-24.4-59.5c-25-1-120.6-1-143.6 0-18.8 43.2-37.2 89.5-46.5 121.5-7.6-1-45.8-1-54.2 0l67.3-144.5c58.8-126.4 92.5-199.3 106.1-242.9h37.8c27.9 74.3 62.3 152.8 83.5 200 21.9 48.7 60.3 133 86.2 187.4-8.5-0.4-77.5-0.4-87.8 0zm-95.9-232l-59 137.7c20.6 0.6 40 1.6 60.2 1.6 11.6 0 29.1 0 53.5-1.6zm163-93.9c12.4 0 23 10 23 23.2 0 13.1-10.6 23.3-23 23.3-12.6 0-23.6-10-23.6-23.3-0.2-13.2 10.8-23.2 23.6-23.2zm0 42.9c10.6 0 19-8.6 19-19.9 0-11.2-8.4-19.8-19-19.8-11.2 0-19.2 8.6-19.2 19.8 0 11.3 8 19.9 19.2 19.9zm-9.2-33.3h10.4q9.6 0 9.6 7.8c0 4.8-3.2 7-7.2 7.4l7.8 11.9h-4.6l-7.2-11.7h-4.8v11.7h-4zm4 12h4.4c3.8 0 7.2-0.2 7.2-4.2 0-3.8-3.4-4.2-6.2-4.2h-5.4z"/>
	</g>
</svg>