<svg version="1.2" baseProfile="tiny-ps" xmlns="http://www.w3.org/2000/svg" viewBox="0 0 1561 1194" width="1561" height="1194">
	<title>download (1)-svg</title>
	<style>
		tspan { white-space:pre }
		.shp0 { fill: #00339a } 
		.shp1 { fill: #ffffff;stroke: #00339a;stroke-width: 0 } 
		.shp2 { fill: #cd0000 } 
		.shp3 { fill: #ffffff } 
		.shp4 { fill: #1b1818 } 
	</style>
	<path id="Layer" class="shp0" d="M984.9 3.28C918.09 40.4 842.33 60.05 765.48 60.05C688.62 60.05 612.86 40.4 546.05 3.28L540.16 0L365.49 186.26L371.38 191.94C405.66 225.79 424.66 271.21 424.66 319.25C424.66 366.41 406.75 409.65 387.98 455.29C365.49 509.44 342.56 565.34 342.56 637.4C342.56 714.7 376.63 787.86 435.79 838.3C506.31 898.35 580.11 903.15 639.06 907.08C692.55 910.58 734.91 913.42 758.27 953.38L765.48 965.82L772.68 953.38C796.04 913.42 838.4 910.58 891.89 907.08C951.06 903.15 1024.64 898.35 1095.38 838.3C1154.55 787.86 1188.61 714.7 1188.61 637.4C1188.61 565.34 1165.46 509.44 1143.19 455.29C1124.2 409.65 1106.51 366.41 1106.51 319.25C1106.51 270.99 1125.51 225.79 1159.79 191.94L1165.68 186.26L991.01 0L984.9 3.28Z" />
	<path id="Layer" class="shp1" d="M1129.22 471.88C1124.63 460.53 1120.05 449.61 1115.68 438.47L415.27 438.47C410.9 449.61 406.32 460.53 401.73 471.88C381.21 521.67 361.34 573.64 361.34 637.84C361.34 696.8 382.3 750.73 417.02 792.88L417.02 792.88C426.4 804.23 436.67 814.71 448.02 824.32C458.72 833.49 469.85 841.14 480.77 847.69C502.17 860.79 523.13 869.52 544.3 875.2C565.92 881.1 586.88 884.15 607.62 886.12C616.35 886.99 625.31 887.65 633.82 888.08C646.7 888.96 659.15 889.83 671.16 890.92L675.74 891.36C689.5 892.89 702.38 894.85 714.17 898.35C721.37 900.31 728.14 902.93 734.69 906.21C746.48 912.1 756.96 919.97 766.13 931.1C775.08 919.97 785.78 912.1 797.57 906.21C804.12 902.93 810.89 900.31 818.09 898.35C829.88 894.85 842.77 892.89 856.52 891.36L861.11 890.71C872.9 889.61 885.56 888.74 898.44 887.87C906.96 887.43 915.91 886.77 924.64 885.9C945.16 883.94 966.34 880.88 987.74 874.98C1008.7 869.09 1029.88 860.57 1051.27 847.47C1061.97 840.92 1073.11 833.06 1084.02 823.89C1095.16 814.28 1105.64 803.8 1115.03 792.44L1114.81 792.44C1149.52 750.3 1170.48 696.14 1170.48 637.4C1169.61 573.64 1149.74 521.67 1129.22 471.88Z" />
	<path id="Layer" class="shp2" d="M415.27 438.47C410.9 449.61 406.32 460.53 401.73 471.88C381.21 521.67 361.34 573.64 361.34 637.84C361.34 696.8 382.3 750.73 417.23 793.1L417.23 793.1L417.23 438.47L415.27 438.47Z" />
	<path id="Layer" class="shp2" d="M480.33 438.47L480.33 847.69C501.73 860.79 522.69 869.52 543.87 875.2L543.87 438.47L480.33 438.47L480.33 438.47Z" />
	<path id="Layer" class="shp2" d="M606.97 438.47L606.97 886.34C615.7 887.21 624.65 887.43 633.17 888.08C646.05 888.96 658.49 889.83 670.5 890.92L670.5 438.47L606.97 438.47Z" />
	<path id="Layer" class="shp2" d="M734.04 438.47L734.04 906.21C745.83 912.1 756.31 919.97 765.48 931.1C774.43 919.97 785.13 912.1 796.92 906.21L796.92 438.47L734.04 438.47Z" />
	<path id="Layer" class="shp2" d="M860.23 438.47L860.23 890.92C872.02 889.83 884.69 888.96 897.57 888.08C906.08 887.65 915.03 887.21 923.77 886.34L923.77 438.47L860.23 438.47Z" />
	<path id="Layer" class="shp2" d="M986.87 438.47L986.87 875.2C1007.83 869.31 1029.01 860.79 1050.4 847.69L1050.4 438.47L986.87 438.47Z" />
	<path id="Layer" class="shp2" d="M1115.46 438.47L1113.5 438.47L1113.5 792.88L1113.5 792.88C1148.21 750.73 1169.39 696.58 1169.39 637.62C1169.39 573.64 1149.53 521.67 1129 471.67C1124.42 460.53 1120.05 449.39 1115.46 438.47Z" />
	<path id="Layer" fill-rule="evenodd" class="shp3" d="M700.63 317.5C700.19 302.43 711.33 291.95 725.3 291.73C732.29 291.52 741.24 295.23 750.63 297.63L750.63 269.9C746.04 267.06 734.04 263.56 726.39 263.56C698.01 263.56 672.9 285.18 672.9 317.28C672.9 349.6 698.01 371.22 726.39 371.22C734.04 371.22 746.26 367.72 750.63 364.89L750.63 337.15C741.24 339.56 732.29 343.27 725.3 343.05C711.33 342.61 700.2 332.35 700.63 317.28L700.63 317.5L700.63 317.5Z" />
	<path id="Layer" class="shp3" d="M772.03 131.45L742.33 131.45L742.33 232.34L772.03 232.34L772.03 131.45L772.03 131.45Z" />
	<path id="Layer" class="shp3" d="M624.65 232.34L653.03 232.34L653.03 181.46L653.47 181.46L687.53 232.34L720.06 232.34L720.06 131.45L689.28 131.45L689.28 184.74L689.06 184.74L654.78 131.45L624.65 131.45L624.65 232.34L624.65 232.34Z" />
	<path id="Layer" class="shp3" d="M572.91 131.24L602.16 131.24L602.16 187.36C602.16 200.24 601.73 212.9 591.46 222.51C582.95 230.81 569.63 233.65 557.84 233.65C546.05 233.65 532.73 230.81 524.22 222.51C514.17 212.9 513.52 200.02 513.52 187.36L513.52 131.24L542.78 131.24L542.78 180.15C542.78 193.25 540.81 207.23 557.84 207.23C574.87 207.23 572.91 193.03 572.91 180.15L572.91 131.24L572.91 131.24Z" />
	<path id="Layer" fill-rule="evenodd" class="shp3" d="M841.68 129.05C871.37 129.05 895.17 152.85 895.17 182.12C895.17 211.38 871.15 235.18 841.68 235.18C812.2 235.18 788.18 211.38 788.18 182.12C788.18 152.85 812.2 129.05 841.68 129.05ZM816.57 182.12C816.57 195.87 827.92 207.01 841.89 207.01C855.87 207.01 867.22 195.87 867.22 182.12C867.22 168.14 855.87 157 841.89 157C827.92 157 816.57 168.36 816.57 182.12Z" />
	<path id="Layer" class="shp3" d="M912.63 232.34L941.23 232.34L941.23 181.46L941.45 181.46L975.73 232.34L1008.04 232.34L1008.04 131.45L977.48 131.45L977.48 184.74L977.04 184.74L942.76 131.45L912.63 131.45L912.63 232.34L912.63 232.34Z" />
	<path id="Layer" class="shp3" d="M943.85 265.53L914.16 265.53L914.16 366.63L943.85 366.63L943.85 265.53L943.85 265.53Z" />
	<path id="Layer" class="shp3" d="M893.86 288.24L893.86 265.53L825.3 265.53L825.3 366.63L855.21 366.63L855.21 331.48L893.86 331.48L893.86 307.67L855.21 307.67L855.21 288.24L893.86 288.24L893.86 288.24Z" />
	<path id="Layer" class="shp3" d="M802.81 265.53L773.12 265.53L773.12 366.63L802.81 366.63L802.81 265.53L802.81 265.53Z" />
	<path id="Layer" fill-rule="evenodd" class="shp3" d="M991.45 317.5C991.01 302.43 1002.15 291.95 1016.12 291.73C1023.11 291.52 1032.06 295.23 1041.45 297.63L1041.45 269.9C1036.86 267.06 1024.86 263.56 1017.21 263.56C988.83 263.56 963.72 285.18 963.72 317.28C963.72 349.6 988.83 371.22 1017.21 371.22C1024.86 371.22 1037.08 367.72 1041.45 364.89L1041.45 337.15C1032.06 339.56 1023.11 343.27 1016.12 343.05C1002.15 342.61 991.01 332.35 991.45 317.28L991.45 317.5L991.45 317.5Z" />
	<path id="Layer" fill-rule="evenodd" class="shp3" d="M591.03 366.63L562.86 366.63L599.33 265.75L632.73 265.75L669.19 366.63L641.03 366.63L634.91 349.16L597.14 349.16L591.03 366.63ZM615.92 293.92L605.22 326.24L626.4 326.24L615.92 293.92Z" />
	<path id="Layer" fill-rule="evenodd" class="shp3" d="M567.23 299.59C567.23 318.37 551.95 333.66 533.17 333.66L513.74 333.66L513.74 366.41L486.01 366.41L486.01 265.53L533.17 265.53C551.95 265.53 567.23 280.82 567.23 299.59ZM513.3 288.02L513.3 310.95L530.99 310.95C536.88 310.95 541.68 304.62 541.68 298.72C541.68 292.83 537.1 288.02 531.2 288.02L513.3 288.02Z" />
	<path id="Layer" fill-rule="evenodd" class="shp4" d="M0 1074.35L56.55 1074.35C75.32 1074.35 89.52 1088.32 89.52 1106.45C89.52 1113.65 87.77 1119.11 83.4 1125.88C91.7 1134.4 95.63 1143.13 95.63 1154.49C95.63 1175.45 78.82 1191.61 57.42 1191.61L0 1191.61L0 1074.35ZM57.42 1168.25C65.28 1168.25 72.05 1161.48 72.05 1153.62C72.05 1145.32 65.5 1139.2 56.11 1139.2L23.8 1139.2L23.8 1168.25L57.42 1168.25ZM56.77 1115.62C62.23 1115.62 65.94 1111.91 65.94 1106.45C65.94 1100.77 62.01 1097.93 55.02 1097.93L23.8 1097.93L23.8 1115.62L56.77 1115.62ZM134.49 1074.35L134.49 1145.54C134.49 1159.29 145.41 1170.43 158.51 1170.43C172.7 1170.43 182.53 1159.29 182.53 1143.35L182.53 1074.35L205.89 1074.35L205.89 1145.97C205.89 1172.61 184.71 1193.79 158.29 1193.79C131.44 1193.79 110.69 1172.39 110.69 1144.66L110.69 1074.35L134.49 1074.35ZM226.63 1074.35L250.43 1074.35L250.43 1191.61L226.63 1191.61L226.63 1074.35ZM273.35 1074.35L297.15 1074.35L297.15 1168.03L360.91 1168.03L360.91 1191.61L273.35 1191.61L273.35 1074.35ZM374.66 1191.61L374.66 1074.57L411.99 1074.57C443.65 1074.57 469.85 1100.99 469.85 1132.87C469.85 1165.41 443.65 1191.61 410.9 1191.61L374.66 1191.61ZM398.24 1168.46L411.56 1168.46C430.55 1168.46 446.49 1152.3 446.49 1133.09C446.49 1112.78 430.77 1098.15 408.94 1098.15L398.24 1098.15L398.24 1168.46ZM485.14 1074.35L508.93 1074.35L508.93 1191.61L485.14 1191.61L485.14 1074.35ZM530.11 1074.35L552.38 1074.35L602.16 1147.28L602.16 1074.35L625.74 1074.35L625.74 1191.61L603.69 1191.61L553.91 1118.68L553.91 1191.61L530.11 1191.61L530.11 1074.35ZM737.97 1131.56L737.97 1148.37C737.97 1173.05 717.01 1193.79 692.12 1193.79C664.39 1193.79 642.55 1167.15 642.55 1132.65C642.55 1097.93 663.73 1071.95 692.34 1071.95C711.77 1071.95 727.7 1082.87 735.35 1101.43L713.29 1109.72C708.93 1100.55 701.5 1095.31 692.34 1095.31C677.71 1095.31 666.35 1111.91 666.35 1133.09C666.35 1154.05 677.27 1169.99 692.12 1169.99C701.94 1169.99 708.49 1165.41 713.29 1155.14L696.48 1155.14L696.48 1131.56L737.97 1131.56ZM846.7 1074.35L868.97 1074.35L917.22 1191.61L892.11 1191.61L880.98 1164.97L834.91 1164.97L823.55 1191.61L797.79 1191.61L846.7 1074.35ZM857.61 1109.07L844.29 1141.17L871.15 1141.17L857.61 1109.07ZM928.35 1074.35L952.15 1074.35L983.15 1138.11L1014.59 1074.35L1038.17 1074.35L1038.17 1191.61L1014.59 1191.61L1014.59 1127.85L983.15 1191.61L952.15 1127.85L952.15 1191.61L928.35 1191.61L928.35 1074.35ZM1055.86 1074.35L1141.23 1074.35L1141.23 1097.71L1079.66 1097.71L1079.66 1117.15L1111.97 1117.15L1111.97 1140.73L1079.66 1140.73L1079.66 1168.03L1143.41 1168.03L1143.41 1191.61L1055.86 1191.61L1055.86 1074.35ZM1158.91 1074.35L1217.86 1074.35C1237.73 1074.35 1254.54 1091.6 1254.54 1111.91C1254.54 1125.66 1247.12 1137.89 1234.46 1145.1L1254.33 1191.61L1228.56 1191.61L1210.22 1149.68L1182.71 1149.68L1182.71 1191.61L1158.91 1191.61L1158.91 1074.35ZM1215.9 1126.1C1224.19 1126.1 1230.53 1119.77 1230.53 1111.69C1230.53 1103.61 1224.41 1097.93 1215.46 1097.93L1182.71 1097.93L1182.71 1126.1L1215.9 1126.1ZM1270.7 1074.35L1294.5 1074.35L1294.5 1191.61L1270.7 1191.61L1270.7 1074.35ZM1405.19 1168.68C1397.55 1183.31 1379.43 1193.79 1361.75 1193.79C1331.83 1193.79 1309.78 1167.81 1309.78 1132C1309.78 1097.28 1332.27 1071.51 1362.4 1071.51C1380.3 1071.51 1397.77 1081.77 1405.41 1096.62L1384.89 1108.63C1379.65 1100.12 1371.57 1095.31 1361.96 1095.31C1345.59 1095.31 1333.8 1110.82 1333.8 1132.87C1333.8 1155.14 1345.37 1169.99 1362.62 1169.99C1372.22 1169.99 1379.65 1165.41 1384.67 1156.89L1405.19 1168.68ZM1454.76 1074.35L1477.03 1074.35L1525.28 1191.61L1500.17 1191.61L1489.03 1164.97L1442.96 1164.97L1431.61 1191.61L1405.85 1191.61L1454.76 1074.35ZM1465.45 1109.07L1452.13 1141.17L1478.99 1141.17L1465.45 1109.07ZM1535.54 1064.74C1549.95 1064.74 1560.86 1075.88 1560.86 1090.29C1560.86 1104.7 1549.95 1115.62 1535.54 1115.62C1520.91 1115.62 1509.99 1104.7 1509.99 1090.29C1509.99 1075.66 1520.91 1064.74 1535.54 1064.74ZM1535.54 1112.56C1548.2 1112.56 1557.81 1102.95 1557.81 1090.29C1557.81 1077.62 1548.2 1068.02 1535.54 1068.02C1522.88 1068.02 1513.27 1077.62 1513.27 1090.29C1513.27 1102.95 1522.88 1112.34 1535.54 1112.56ZM1537.94 1076.1C1543.4 1076.1 1546.67 1079.15 1546.67 1084.18C1546.67 1088.11 1544.71 1090.94 1540.78 1092.69L1546.46 1103.83L1542.09 1103.83L1536.41 1092.69L1530.08 1092.69L1530.08 1103.83L1526.15 1103.83C1526.15 1103.83 1526.15 1076.97 1526.15 1076.1C1527.02 1076.1 1538.16 1076.1 1537.94 1076.1ZM1529.86 1088.98L1537.94 1088.98C1541 1088.98 1542.96 1087.23 1542.96 1084.39C1542.96 1081.56 1541 1079.81 1537.94 1079.81L1529.86 1079.81L1529.86 1088.98Z" />
</svg>