<svg version="1.2" xmlns="http://www.w3.org/2000/svg" viewBox="0 0 1599 290" width="1599" height="290">
	<title>United_Airlines_Logo-svg</title>
	<defs>
		<clipPath clipPathUnits="userSpaceOnUse" id="cp1">
			<path d="m-152.85-144.7h1870.31v579.29h-1870.31z"/>
		</clipPath>
	</defs>
	<style>
		.s0 { fill: #0033a0 } 
	</style>
	<g id="g10">
		<g id="g12">
			<g id="Clip-Path: g14" clip-path="url(#cp1)">
				<g id="g14">
					<g id="g20">
						<path id="path22" fill-rule="evenodd" class="s0" d="m1586.4 289.7c-6.6 0-12-5.3-12-11.9 0-6.6 5.4-12 12-12 6.6 0 11.9 5.4 11.9 12 0 6.6-5.3 11.9-11.9 11.9zm10.1-11.9c0-5.6-4.5-10.1-10.1-10.1-5.6 0-10.2 4.5-10.2 10.1 0 5.6 4.6 10.1 10.2 10.1 5.6 0 10.1-4.5 10.1-10.1z"/>
					</g>
					<g id="g24">
						<path id="path26" fill-rule="evenodd" class="s0" d="m1588.1 278.2l4 6h-2.2l-3.9-6h-2.3v6h-1.8v-13h5.7c2.4 0 4.6 0.6 4.6 3.4 0 2.6-1.8 3.5-4.1 3.6zm2.3-3.6c0-1.4-1.8-1.6-3.2-1.6h-3.5v3.4h2.3c1.5 0 4.4 0.3 4.4-1.8z"/>
					</g>
					<g id="g28">
						<path id="path30" class="s0" d="m1490.9 289.9c5.8-10.8 12.2-24.2 16.4-35.5q0 0 0 0c0.2 0.3 2.3 6 3.9 11.8 3.3-11.6 5.6-23.7 6.9-36.2-0.4-1.6-1.3-4.2-1.8-5.8 0 0 2.1-10.6 3-22.6q1.7 12.4 1.7 25.2c0 14.7-1.7 29.1-5.1 43.1-1.7 6.9-3.8 13.7-6.2 20z"/>
					</g>
					<g id="g32">
						<path id="path34" class="s0" d="m1480.8 273.6c-2.5-3.9-14.3-17.7-14.3-17.7 6.5-10.7 12.3-22.2 16.9-33.6 0 0 7.9 8.8 14.1 17.8 6.1-14.6 8.9-29.8 8.9-29.8-4.2-6.9-13.5-17.7-13.5-17.7 2-9.2 3.2-18.7 3.4-28.2 4.7 5.6 10.9 14.4 10.9 14.4q0 0 0-0.1c-1.1-17.2-10-32.9-12-36.2q-0.1-0.5-0.2-1.1c-1.2-6-3.3-12.7-4.4-16 10.1 14.8 16.5 31.4 16.5 31.4 4.1 10.7 6.6 24.2 6.6 38.9 0 7.8-1.6 48.4-32.6 94.2h-10.8c3.7-5.3 7.1-10.4 10.5-16.3z"/>
					</g>
					<g id="g36">
						<path id="path38" class="s0" d="m1386.6 289.9c-1.7-2-6.1-6.9-6.6-7.4 10.3-9.5 20-19.9 28.8-30.8l21.8 21.7c8.6-9.8 16.5-20.2 23.5-31.1 0 0-11.5-11-23.6-21.6 9.7-15.8 15.8-31.6 15.8-31.6 0.9 0.7 12.8 9.5 25 20.9 5.8-12.9 9.5-29.3 9.5-29.3-12.7-11.6-25.7-19.8-25.7-19.8 1.9-8.8 3.1-17.8 3.4-26.6 0 0 13.8 8.1 25.7 18.6 0.1-7.7-0.6-15.5-2.2-23.1-11.8-10.2-24.9-17.1-24.9-17.1-0.1 0-1.3-8.6-5.5-18.9q0 0 0.1 0c0.8 0.4 7.1 3.6 18.1 11.5-8.6-11.2-23.5-22.2-23.5-22.2-1.4-2.5-3-4.8-4.8-7.1 12.2 8.3 23.3 18.1 33.2 29.1 3.6 4.6 6.9 10.4 9.5 17.1q1.1 2.7 1.9 5.4c8.1 27.3 3.1 58.1-6 83.2-10.5 29-28.1 56.1-48.6 79.1z"/>
					</g>
					<g id="g40">
						<path id="path42" class="s0" d="m1353.9 289.9h-78.9v-8.3c24-11.4 38.3-22.3 38.3-22.3l20.2 28.8c0 0 15.7-9.8 31.4-22.8q0 0 0 0l-24.3-27.5q0 0 0 0c9.3-8.2 17.7-16.8 25.3-25.6 0 0 25.2 22.4 27.9 25 8-9 15.3-18.5 21.8-28.3-13.1-10.4-30.1-22.1-30.4-22.3 0 0 10.3-16.4 14.4-26.4 0 0 16.6 9 32.3 19.2 3.8-8.6 7-17.5 9.3-26.6-10.3-6.2-33.2-16.4-33.2-16.4 2-7.7 3.1-15.3 3.5-22.6 0 0 16.6 5.3 33.4 13.7 0.3-7-0.2-14-1.4-20.7-14.2-6.9-33.1-11.5-33.1-11.5-1-5.7-2.7-11.2-4.9-16.3 0 0 17.1 3.2 32.3 9.4-3.8-8.4-8.4-13.2-8.4-13.2-9.8-5.3-31.9-9.4-31.9-9.4-2.4-3-5.1-5.9-8-8.5 7 1 17.8 3.5 17.8 3.5-11.9-5.9-25.4-9.3-25.5-9.3-0.1 0-2.7-1.8-5.9-3.5 0 0 33.4 6.9 51.5 20.6 1.7 1.2 3.2 2.6 4.8 4.1 1.9 1.8 3.5 3.7 4.9 5.7 36.1 49.5 4.8 144.8-83.2 211.5z"/>
					</g>
					<g id="g44">
						<path id="path46" class="s0" d="m1377.5 181.1c-7.4 11.1-16.3 22.1-26.6 32.7-8.6 8.9-17.3 16.7-25.6 23.3-13 10.4-26.9 19.3-41.3 26.4q-4.5 2.4-9 4.6v-54.9q2.8-1.9 5.5-3.9c2.5 4.2 19.2 30.9 19.5 31.4 1.3-0.8 4.9-3.1 9.2-6.1 5-3.5 11-7.8 16.5-12.3q0.4-0.4 0.7-0.7l-25.5-29.2c2.6-2.6 11.3-11.2 18.1-19.3 1.6 1.2 22.8 17.7 31.3 25.3 6.8-7.3 12.9-14.9 18.3-22.6-11.7-7.7-36-21.6-36-21.6 4-6.4 7.5-12.8 10.3-19.2 0 0 28.4 11.1 39.9 16.8q4.6-9.3 7.7-18.5 0.4-1.4 0.9-2.8c-14.4-5.8-40-11.9-42.4-12.4 1.6-5.6 2.5-11 3-16.2 20.7 2.1 39.7 6.8 43.7 7.9 0.5-6 0.5-11.7-0.3-17.1-23.1-4.1-41.3-4.2-43.7-4.1q-0.8-6.2-2.9-11.7c0 0 20.6-1.8 42 0.7-1.1-2.2-2.5-4.8-3.9-6.8-1.1-1.6-3.6-4.6-3.6-4.6 0 0-18.1-1.4-39.2 1.7-2-2.8-4.2-5.2-6.5-7.2 0.5-0.1 16.3-3.8 35.5-3.8-5.2-3.6-10.7-6-10.7-6-14.9 0.3-30.5 4.4-31.7 4.7-4.2-2.5-7.5-3.5-8-3.6q0 0 0 0 0 0 0 0c1.2-0.4 12.7-3.9 21.1-4.8q0 0 0 0c-11.5-1.5-27.2 2.1-29 2.5-2.5-0.4-5.9-0.9-8.4-1.1 0 0 8.5-2.5 19.7-4.1 10.2-1.4 44.4-5.6 66.3 23.9 20.7 27.9 13.2 71.2-14.9 112.7z"/>
					</g>
					<g id="g48">
						<path id="path50" class="s0" d="m1293.5 186.2c-5.9 5.1-11.9 9.7-18 13.9q-0.2 0.2-0.5 0.3v-12.7c4.5-2.9 9-6.1 13.4-9.7l-13.4-15.6v-21.3q0 0 0.1 0c6.1 4.3 16.2 11.4 23.1 16.2q3.3 2.4 7 5.2c0 0 8.5-9 12.8-15.4v-0.1h-0.1c-9.8-5.5-35.6-16.7-35.6-16.7 2.2-3.5 4-7 5.5-10.6 5.5 1.2 26.6 6.3 40.5 10.5 2.4-4.8 4.5-9.7 6.1-14.7-20.8-3.9-43.8-4.7-43.8-4.7 1.2-4.2 1.3-8.7 1.3-8.7 1.3-0.1 32.6-1.8 45.8-1.1 0.5-4.1 0.6-8.1 0.3-11.7-22.2 0.6-46.3 6-46.3 6 0 0-0.3-2.7-1.5-6.2 25.6-8.2 45.5-10.5 45.5-10.5q-1.7-4.4-4.3-8c0 0-22.1 4.6-43 13.5q-0.1 0.1-0.3 0.2-1.3-2.3-2.9-4.2c0 0 19.5-10.2 39.9-15.9-2.1-1.7-4.6-3.1-7.1-4.3-18.7 6.4-35.7 17-35.9 17.2-0.2-0.2-1.9-1.5-3.7-2.6 0.9-0.6 13.9-9.9 31.4-17.3q-3.9-0.9-8.1-1.2c-11.8 5-26.5 16.7-26.5 16.7l-0.2-0.1v-4.6c5.2-4.2 12-8.7 17.8-12q-5.7 0.3-11.7 1.6-3.1 2.1-6.1 4.5v-6c1.2-0.5 3.4-1.2 6.5-2q2.3-0.5 4.6-0.9c0.6-0.1 1.1-0.1 1.7-0.2 20.1-2.9 37.5 1.2 47.9 13.1 22.8 26.2 3.9 80-42.2 120.1z"/>
					</g>
					<g id="g52">
						<path id="path54" class="s0" d="m1275 79.5q1.7 1 3.1 2.3c10.4 9.4 8.7 28.7-3.1 45.4z"/>
					</g>
					<g id="g56">
						<path id="path58" class="s0" d="m1275.2 48.3l-0.2 0.1v-48.4h289.6v289.9h-46.5c7-20.1 10.6-41.3 10.6-62.6 0-104.9-85-190.3-189.4-190.3-22 0-43.5 3.8-64.1 11.3z"/>
					</g>
					<g id="g60">
						<path id="path62" fill-rule="evenodd" class="s0" d="m1169.4 115.3q5 13.4 5 29.6 0 36.3-22.8 54.3-22.8 18.1-64.5 18.1h-78v-144.7h78q23.2 0 39.6 5.2 16.5 5.2 27.1 14.6 10.6 9.5 15.6 22.9zm-39.3 29.6q0-10.2-2.3-17.5-2.3-7.2-7.6-11.8-5.3-4.6-13.9-6.8-8.6-2.1-21.1-2.1h-34.1v76.4h34.1q12.1 0 20.7-1.9 8.6-1.9 14-6.4 5.4-4.4 7.8-11.8 2.4-7.3 2.4-18.1z"/>
					</g>
					<g id="g64">
						<path id="path66" class="s0" d="m843.1 184.7h97.7l-0.7 32.6h-139v-144.7h135.1l0.8 33h-93.9v23.9h79v28.3h-79z"/>
					</g>
					<g id="g68">
						<path id="path70" class="s0" d="m738.4 72.6l1 34.1h-55.3v110.6h-42.2v-110.6h-55.4l1.2-34.1z"/>
					</g>
					<path id="path72" class="s0" d="m479.8 72.6h42.8v144.7h-42.8z"/>
					<g id="g74">
						<path id="path76" class="s0" d="m361 72.6h38.2v144.7h-27.6l-85.2-80.9-11-11-0.5 0.2 0.3 15.6v76.1h-38.1v-144.7h34.7l78.2 76.6 11 11.1 0.4-0.3-0.4-15.5z"/>
					</g>
					<g id="g78">
						<path id="path80" class="s0" d="m120.9 72.6h41.8v81.2q0 33.7-20.4 50.1-20.5 16.4-60.4 16.4-39.7 0-60.8-16.4-21.1-16.5-21.1-50.1v-81.2h42v81.6q0 16.4 9.7 24.4 9.6 8 30.2 8 20.5 0 29.7-8 9.3-8 9.3-24.4z"/>
					</g>
				</g>
			</g>
		</g>
	</g>
</svg>