<svg version="1.2" baseProfile="tiny-ps" xmlns="http://www.w3.org/2000/svg" viewBox="0 0 1544 113" width="1544" height="113">
	<title>UnitedHealth_Group_logo-svg</title>
	<style>
		tspan { white-space:pre }
		.shp0 { fill: #1e3d6a } 
	</style>
	<g id="layer1">
		<g id="g1466">
			<path id="path1054" class="shp0" d="M1195.23 57.26C1207.11 57.26 1211.85 51.89 1211.85 41.64C1211.85 30.79 1206.35 25.72 1195.51 25.72L1179.69 25.72L1179.69 105.32C1179.69 107.79 1177.66 109.86 1175.16 109.86L1165.4 109.86C1162.94 109.86 1160.89 107.79 1160.89 105.32L1160.89 19.27C1160.89 16.79 1162.94 14.61 1165.4 14.61L1197.42 14.61C1217.06 14.61 1229.28 23.53 1229.28 41.64C1229.28 55.91 1220.23 62.77 1209.78 65.53L1230.39 104.09C1230.81 104.92 1231.21 105.75 1231.21 106.69C1231.21 108.35 1230.13 109.86 1228.6 109.86L1216.65 109.86C1215.27 109.86 1213.76 108.75 1213.08 107.24L1191.06 64.27C1190.51 63.21 1189.53 61.48 1189.53 59.85C1189.53 58.4 1190.23 57.26 1192.76 57.26L1195.23 57.26Z" />
			<path id="path1058" fill-rule="evenodd" class="shp0" d="M1286.45 111.87C1268.07 111.87 1244.62 105.56 1244.62 62.24C1244.62 19.2 1267.89 12.6 1286.45 12.6C1304.99 12.6 1328.27 19.2 1328.27 62.24C1328.27 104.74 1305.52 111.87 1286.45 111.87ZM1286.45 23.3C1266.71 23.3 1263.31 41.05 1263.31 62.24C1263.31 83.63 1266.92 101.18 1286.17 101.18C1305.06 101.18 1309.59 84.36 1309.59 62.24C1309.59 41.05 1305.9 23.3 1286.45 23.3Z" />
			<path id="path1062" class="shp0" d="M1382.25 111.87C1356.69 111.87 1346.25 97.46 1346.25 80.03L1346.25 19.27C1346.25 16.79 1348.31 14.61 1350.77 14.61L1360.38 14.61C1362.87 14.61 1364.94 16.79 1364.94 19.27L1364.94 81.12C1364.94 96.9 1372.53 101.18 1383.14 101.18C1397.09 101.18 1401.34 92.97 1401.34 81.12L1401.34 19.27C1401.34 16.79 1403.4 14.61 1405.86 14.61L1413.7 14.61C1416.17 14.61 1418.24 16.79 1418.24 19.27L1418.24 80.03C1418.24 100.2 1405.57 111.87 1382.25 111.87" />
			<path id="path1066" class="shp0" d="M1468.22 62.23L1472.93 62.23C1482.58 62.23 1490.12 57.32 1490.12 44.39C1490.12 30.23 1482.81 25.6 1472.48 25.6L1457.7 25.6L1457.7 105.33C1457.7 107.79 1455.9 109.85 1453.44 109.85L1443.95 109.85C1441.48 109.85 1439.44 107.79 1439.44 105.33L1439.44 19.27C1439.44 16.8 1441.48 14.61 1443.95 14.61L1478.29 14.61C1496.77 14.61 1507.55 25.87 1507.55 44.39C1507.55 61.14 1497.73 72.41 1478.26 72.41C1474.55 72.41 1470.91 72.04 1468.64 71.66C1464.72 71 1462.93 68.86 1462.93 66.64C1462.93 64.39 1464.7 62.23 1468.22 62.23" />
			<path id="path1070" class="shp0" d="M1007.81 109.86L998.74 109.86C996.13 109.86 994.06 107.79 994.06 105.18L994.06 67.21L957.28 67.21L957.28 105.18C957.28 107.79 955.22 109.86 952.6 109.86L943.54 109.86C940.93 109.86 938.87 107.79 938.87 105.18L938.87 19.27C938.87 16.8 940.93 14.61 943.41 14.61L952.74 14.61C955.22 14.61 957.28 16.8 957.28 19.27L957.28 53.8L994.06 53.8L994.06 19.27C994.06 16.8 996.13 14.61 998.6 14.61L1007.94 14.61C1010.42 14.61 1012.49 16.8 1012.49 19.27L1012.49 105.18C1012.49 107.79 1010.42 109.86 1007.81 109.86" />
			<path id="path1074" class="shp0" d="M40.18 111.5C10.94 111.5 0.5 95.04 0.5 75.47L0.5 7.46C0.5 4.68 2.85 2.12 5.69 2.12L13.96 2.12C16.78 2.12 19.15 4.68 19.15 7.46L19.15 77.41C19.15 95.11 28.95 99.87 40.59 99.87C56 99.87 62.03 92.03 62.03 77.41L62.03 7.46C62.03 4.68 64.4 2.12 67.22 2.12L74.49 2.12C77.33 2.12 79.67 4.68 79.67 7.46L79.67 75.47C79.67 98.1 65.91 111.5 40.18 111.5Z" />
			<path id="path1078" fill-rule="evenodd" class="shp0" d="M450.62 109.86L416.21 109.86C413.74 109.86 411.67 107.71 411.67 105.26L411.67 19.35C411.67 16.88 413.74 14.61 416.21 14.61L450.62 14.61C473.25 14.61 491.22 26.74 491.22 62.78C491.22 99.36 471.88 109.86 450.62 109.86ZM446.24 25.65L429.92 25.65L429.92 98.82L446.24 98.82C467.74 98.82 472.98 82.51 472.98 62.78C472.98 43.05 467.93 25.65 446.24 25.65Z" />
			<path id="path1082" class="shp0" d="M589.28 109.87L581.14 109.87C578.2 109.87 575.88 107.57 575.88 104.65L575.88 61.13L532.14 61.13L532.14 104.65C532.14 107.57 529.83 109.87 526.87 109.87L518.73 109.87C515.79 109.87 513.5 107.57 513.5 104.65L513.5 8.09C513.5 5.31 515.79 2.84 518.58 2.84L527.05 2.84C529.83 2.84 532.14 5.31 532.14 8.09L532.14 47.42L575.88 47.42L575.88 8.09C575.88 5.31 578.2 2.84 580.99 2.84L589.43 2.84C592.2 2.84 594.53 5.31 594.53 8.09L594.53 104.65C594.53 107.57 592.2 109.87 589.28 109.87" />
			<path id="path1086" class="shp0" d="M845.66 109.87L799.63 109.87C797.03 109.87 794.96 107.8 794.96 105.19L794.96 19.27C794.96 16.8 797.03 14.61 799.5 14.61L809.11 14.61C811.59 14.61 813.65 16.8 813.65 19.27L813.65 96.43L845.66 96.43C848.13 96.43 850.19 98.64 850.19 101.1L850.19 105.33C850.19 107.8 848.13 109.87 845.66 109.87Z" />
			<path id="path1090" class="shp0" d="M223.32 109.87L214 109.87C211.39 109.87 209.33 107.72 209.33 105.12L209.33 19.35C209.33 16.89 211.39 14.61 213.87 14.61L223.46 14.61C225.93 14.61 227.99 16.89 227.99 19.35L227.99 105.12C227.99 107.72 225.93 109.87 223.32 109.87" />
			<path id="path1094" class="shp0" d="M311.52 28.05L289.86 28.05L289.86 105.12C289.86 107.72 287.79 109.87 285.19 109.87L275.85 109.87C273.26 109.87 271.19 107.72 271.19 105.12L271.19 28.05L249.36 28.05C246.89 28.05 244.83 26.01 244.83 23.55L244.83 19.3C244.83 16.84 246.89 14.61 249.36 14.61L311.52 14.61C313.99 14.61 316.04 16.84 316.04 19.3L316.04 23.55C316.04 26.01 313.99 28.05 311.52 28.05Z" />
			<path id="path1098" class="shp0" d="M917.35 28.05L894.19 28.05L894.19 105.12C894.19 107.72 892.14 109.87 889.54 109.87L880.21 109.87C877.61 109.87 875.55 107.72 875.55 105.12L875.55 28.05L852.23 28.05C849.75 28.05 847.7 26.01 847.7 23.55L847.7 19.3C847.7 16.84 849.75 14.61 852.23 14.61L917.35 14.61C919.82 14.61 921.86 16.84 921.86 19.3L921.86 23.55C921.86 26.01 919.82 28.05 917.35 28.05Z" />
			<path id="path1102" class="shp0" d="M390.58 109.87L336.81 109.87C334.34 109.87 332.29 108.28 332.29 105.82L332.29 19.3C332.29 16.84 334.34 14.61 336.81 14.61L388.64 14.61C391.12 14.61 393.18 16.84 393.18 19.3L393.18 23.09C393.18 25.56 391.12 27.6 388.64 27.6L350.93 27.6L350.93 54L384.81 54C387.28 54 389.34 56.2 389.34 58.67L389.34 62.46C389.34 64.92 387.28 66.98 384.81 66.98L350.93 66.98L350.93 96.82L390.58 96.87C393.05 96.87 395.1 99.06 395.1 101.52L395.1 105.82C395.1 108.28 393.05 109.87 390.58 109.87" />
			<path id="path1106" class="shp0" d="M677.74 109.87L623.99 109.87C621.51 109.87 619.44 108.28 619.44 105.82L619.44 19.3C619.44 16.84 621.52 14.61 623.99 14.61L675.8 14.61C678.27 14.61 680.33 16.84 680.33 19.3L680.33 23.09C680.33 25.56 678.27 27.6 675.8 27.6L638.1 27.6L638.1 54L671.96 54C674.44 54 676.49 56.2 676.49 58.67L676.49 62.46C676.49 64.92 674.44 66.98 671.96 66.98L638.1 66.98L638.1 96.82L677.74 96.87C680.2 96.87 682.26 99.06 682.26 101.52L682.26 105.82C682.26 108.28 680.2 109.87 677.74 109.87" />
			<path id="path1110" class="shp0" d="M176.11 109.87L162.03 109.87C157.67 109.87 155.63 107.87 154.52 105.39C147.53 90.56 120.46 29.9 120.46 29.9L120.46 105.26C120.46 107.72 118.4 109.87 115.93 109.87L109.61 109.87C107.13 109.87 105.07 107.72 105.07 105.26L105.07 19.2C105.07 16.72 107.13 14.61 109.61 14.61L123.36 14.61C127.44 14.61 129.94 16.02 131.32 19.07C138.6 34.97 165.23 94.13 165.23 94.13L165.23 19.2C165.23 16.72 167.3 14.61 169.78 14.61L176.11 14.61C178.57 14.61 180.64 16.72 180.64 19.2L180.64 105.26C180.64 107.72 178.57 109.87 176.11 109.87" />
			<path id="path1114" class="shp0" d="M1135.53 106.77C1130.51 108.98 1122.66 112.22 1106.19 112.22C1079.32 112.22 1055.25 100.95 1055.25 56.35C1055.25 21.35 1070.07 0.49 1106.19 0.49C1122.85 0.49 1132.06 4.93 1134.23 5.84C1137.54 7.24 1137.77 7.92 1137.77 9.46C1137.77 10.2 1137.35 12.47 1137.25 13.03C1136.71 15.75 1135.96 20.19 1135.53 22.58C1135.3 23.91 1135.12 25.74 1133.09 25.74C1131.43 25.74 1129.99 23.81 1129.09 22.89C1127.67 21.44 1119.67 13.16 1106.19 13.16C1080.58 13.16 1076.23 37.7 1076.23 56.35C1076.23 82.11 1084.6 99.56 1106.19 99.56C1114.44 99.56 1118.77 98.23 1120.1 97.86L1120.1 62.56C1120.1 60.41 1121.36 59.74 1123.56 59.74L1135.41 59.74C1137.91 59.74 1138.77 60.75 1138.77 62.73L1138.77 101.35C1138.77 105.02 1138.55 105.44 1135.53 106.77" />
			<path id="path1118" fill-rule="evenodd" class="shp0" d="M777.16 103.82C777.42 104.79 777.69 105.46 777.69 106.42C777.69 108.48 776.34 109.86 774.26 109.86L765.3 109.86C761.11 109.86 759.29 107.93 758.49 105.46L752.86 87.62L718.13 87.62L712.74 105.46C711.78 108.34 709.39 109.86 706.11 109.86L699.95 109.86C698.31 109.86 696.64 108.48 696.64 106.57C696.64 105.75 696.93 105.19 697.21 104.36L724.53 18.99C725.52 16.11 727.45 14.61 730.96 14.61L743.07 14.61C746.49 14.61 748.81 16.11 749.78 18.99L777.16 103.82M749.03 75.92L735.65 28.72L721.46 75.92L749.03 75.92Z" />
			<path id="path1122" fill-rule="evenodd" class="shp0" d="M1529.67 12.6C1537.24 12.6 1543.38 18.75 1543.38 26.3C1543.38 33.85 1537.24 40 1529.67 40C1522.13 40 1515.97 33.85 1515.97 26.3C1515.97 18.75 1522.13 12.6 1529.67 12.6ZM1529.72 37.95C1536.03 37.95 1540.77 32.87 1540.77 26.3C1540.77 19.73 1536.03 14.65 1529.72 14.65C1523.33 14.65 1518.59 19.73 1518.59 26.3C1518.59 32.87 1523.33 37.95 1529.72 37.95ZM1524.44 18.25L1530.58 18.25C1534.28 18.25 1536.1 19.73 1536.1 22.77C1536.1 25.35 1534.46 27.2 1531.95 27.2L1536.52 34.31L1533.74 34.31L1529.26 27.2L1527.05 27.2L1527.05 34.31L1524.44 34.31L1524.44 18.25ZM1527.05 25.16L1530.17 25.16C1532.19 25.16 1533.47 24.74 1533.47 22.66C1533.47 20.83 1531.85 20.31 1530.17 20.31L1527.05 20.31L1527.05 25.16Z" />
		</g>
	</g>
</svg>