<svg version="1.2" xmlns="http://www.w3.org/2000/svg" viewBox="0 0 1506 666" width="1506" height="666">
	<title>UHS_logo-svg</title>
	<style>
		.s0 { fill: #8f3843 } 
	</style>
	<g id="Layer">
		<path id="Layer" class="s0" d="m1461.2 92.5c21.3 35.8 30.9 74.2 29.1 118.7h-70.5c0.9-53.2-18-109.9-71.2-130-44.5-17-96.8-17-143.9-6.5-39.3 10-78.1 43.1-88.6 83.3-11.8 44-9.2 98.1 24.4 132.6 16.6 17 36.7 27 57.2 35.2 48.4 18.8 101.6 26.7 148.7 50.2 26.7 17.9 34 47.1 33.2 77.2-1.7 32.3-20.9 63.2-51 77.6-47.2 20.9-103.9 20.1-156.7 10.9-36.6-8.7-76.3-34-87.6-72.4-5.7-18.3-6.6-40.9-5.3-60.2l69.8-0.4c2.2 10 1.7 23.6 3.9 34.9 2.2 16.2 17.5 31 32.3 36.2 34 8.7 69.8 11.3 103-0.4 7.8-4.4 15.7-12.3 17.4-21 2.2-11.8 1.3-24.8-7.4-33.6-17.4-12.6-39.3-15.7-59.8-21.3-71.1-15.7-152.7-42.3-184.1-118.2-29.2-78.5-15.2-174.9 48.5-232 71.1-60.2 172.3-61.9 260.4-38.8 39.3 12.6 77.2 41 98.2 78zm-1269.9-71.4l-0.1 411.2c1.7 8.7 3.5 17.8 12.2 23.9 17.4 10.1 45.4 11.4 61.5-0.8 7.9-7 11.8-15.7 12.2-25.8l0.6-408.5h190.1v152.4l-66.3 0.2-0.2-89.9h-57.3l-0.1 349.8c0.9 31.8-11.8 63.6-42.8 78.5-38.8 20.5-97.7 20.5-135.7-2.2-36.6-20.5-42.7-62.8-41-101.6l0.5-324.5h-56.3l-0.9 368.5c0 42.3 27.1 82 65 102.1 68.1 36.2 159.7 31.4 222.1-14.4 24.9-20.5 42.8-47.3 44.9-78.7h68.1c-3.5 67.2-52.4 128.8-113.9 155.9-61.5 27.4-140 30.5-206.3 11.7-61.5-16.1-126.1-69.7-141-134.3-8.3-32.3-5.6-69.8-6.5-100.7l1.3-372.8m742.6 207.7h85.6v-207.7c0 0 126.5 0.5 190.6 0l-0.2 391.1c-0.4 51.5 12.2 102.5 55 136.5 74.6 55.4 187.2 54.9 271.8 27.5 48-16.6 88.5-68.1 91.2-119.5 3.5-48.4-7.5-92-47.6-120.8-57.2-37.5-127.4-43.6-187.6-72.8-26.6-15.7-38.4-45.4-34.9-76.4 1.3-30.5 23.1-58 51.9-67.6 43.7-10 104.7-11.3 131.8 32.8 6.3 15.2 17.8 25.2 13.7 59.3h-67.8c-1.3-12.2-2.2-26.2-11.4-35.8-12.6-7-32.3-7.4-44 0.4-8.3 6.1-9.2 17.5-7.4 26.6 13 26.6 45.3 23.2 68.5 34.5 75.4 22.2 173.6 50.1 194.5 141.3 21.4 80.2-0.9 167-68.5 220.6-80.3 58.5-193.2 60.2-289.6 43.2-76-13.9-156.3-65.8-177.2-145.2-6.1-20.9-7.8-44-8.2-66.7l-0.2-346.3h-57v205h-220.4l-0.6-207.6h-56.4l0.1 206.7h-151.9l-0.1 55.9 151.8 0.2 0.5 229.9 56.1 0.1v-229.9h220.9v298.5l-67.6-0.5 0.2-235h-85.6v235.2h-189.5v-235.1h-153.6l0.3-180.8 153.2-0.2v-207.7h189.5"/>
		<path id="Layer" fill-rule="evenodd" class="s0" d="m1459 665.7c-18.5 0-33.5-15.2-33.5-34.1 0-18.9 15-34.2 33.5-34.2 18.5 0 33.4 15.3 33.4 34.2 0 18.9-14.9 34.1-33.4 34.1zm27.4-34.1c0-15.9-12.3-28.6-27.4-28.6-15.2 0-27.5 12.7-27.5 28.6 0 15.8 12.3 28.6 27.5 28.6 15.1 0 27.4-12.8 27.4-28.6zm-40.3-19.6h14.5c8.1 0 13 3.5 13 9.7 0 5.4-3 8.7-6.6 10.6l9.3 15.5-9.4 1.3-7.7-15h-4.1v14.5h-9zm9 16.6h3.2c4.6 0 6.1-3.5 6.1-6 0-3.8-2.7-5.2-5.7-5.2h-3.6z"/>
	</g>
</svg>