<svg version="1.2" baseProfile="tiny-ps" xmlns="http://www.w3.org/2000/svg" viewBox="0 0 1502 1787" width="1502" height="1787">
	<title>United_Parcel_Service_logo_2014-svg</title>
	<style>
		tspan { white-space:pre }
		.shp0 { fill: #301506 } 
		.shp1 { fill: #fab80a } 
	</style>
	<g id="Layer">
		<g id="Layer">
			<path id="Layer" fill-rule="evenodd" class="shp0" d="M39.19 533.03L45.69 1270.6L211.38 1475.31L708.45 1738.49L1319.21 1439.56L1445.91 1137.38L1432.91 159.36L971.59 146.36L490.78 224.34L52.21 477.78L39.19 533.03Z" />
			<path id="Layer" fill-rule="evenodd" class="shp1" d="M750.84 0.01C1040.49 0.01 1293.05 56.07 1501.68 166.65L1501.68 1050.53C1501.68 1236.52 1431.79 1392.09 1299.71 1500.38C1178.96 1599.44 794.98 1767.9 750.89 1787.09C704.38 1766.94 324.91 1601.05 202.21 1500.38C70.06 1392.04 0.19 1236.51 0.19 1050.53L0.19 166.65C208.79 56.09 461.34 0.02 750.87 0.02L750.84 0.01ZM1179.56 171.19C805.43 166.29 401.65 239.97 69.13 544.96L69.13 1050.56C69.13 1215.29 130.04 1352.79 245.75 1447.04C347.87 1530.36 662.22 1672.64 750.89 1711.74C838.38 1673.17 1151.95 1532.66 1255.93 1447.01C1372.33 1351.12 1432.66 1216.8 1432.66 1050.52L1432.66 185.25C1350.71 177.63 1265.93 172.3 1179.59 171.17L1179.56 171.19ZM770.45 574.07C926.3 574.07 1012.07 692.4 1012.07 882.82C1012.07 1073.61 928.77 1204.28 783.84 1204.28C757.03 1204.28 738.1 1200.68 725.06 1196.84L725.06 1471.87L594.4 1471.87L594.4 620.55C641.73 590 699.21 574.07 770.44 574.07L770.45 574.07ZM1216.89 574.07C1288.6 571.87 1337.22 598.85 1360.19 616.54L1360.19 730.1C1332.94 702.15 1288.79 676.87 1243.15 676.47C1206.16 676.14 1167.63 692.44 1166.35 738.86C1165.07 786.41 1203.54 805.19 1252.25 833.76C1361.4 897.91 1382.45 955.53 1379.99 1031.7C1377.5 1115.26 1319.86 1206.45 1190.79 1206.45C1139.22 1206.45 1088.17 1190.32 1047.26 1165.92L1047.26 1045.66C1080.62 1075.37 1130.45 1098.51 1172.13 1098.84C1220.04 1099.02 1251.52 1071.55 1250.42 1025.97C1249.43 984.98 1226.28 962.75 1168.81 929.01C1061.13 865.82 1041.87 813.85 1041.65 744.36C1041.1 638.82 1130.96 576.56 1216.89 574.07L1216.89 574.07ZM135.85 587.29L135.85 587.3L135.85 587.3L135.85 587.29ZM135.85 587.3L266.39 587.3L266.39 1003.72C266.39 1040.75 275.34 1095.64 335.19 1095.64C361.7 1095.64 382.78 1089.42 396.99 1079.68L396.99 587.3L527.36 587.3L527.36 1154.03C477.48 1187.95 410.51 1206.46 330.55 1206.46C201.33 1206.46 135.85 1136.37 135.85 997.94L135.85 587.3ZM771.32 679.29C753.6 679.29 735.61 683.46 725.02 688.73L725.02 1090.03C734.37 1093.54 749.74 1097.93 767.43 1097.93C842.59 1097.93 878.52 1028.94 878.52 886.14C878.52 739.79 847.1 679.28 771.32 679.28L771.32 679.29Z" />
		</g>
	</g>
</svg>