<svg version="1.2" xmlns="http://www.w3.org/2000/svg" viewBox="0 0 1555 280" width="1555" height="280">
	<title>U</title>
	<style>
		.s0 { fill: #d62a43 } 
		.s1 { fill: #ffffff } 
		.s2 { fill: #00458d } 
	</style>
	<path id="Layer" class="s0" d="m0 0h367.6v217.4l-183.8 62.6-183.8-62.6v-217.4"/>
	<path id="Layer" class="s1" d="m183.7 210.5h-56.2v-19.4h-0.6c-10.9 15.3-26.5 23.3-49.7 23.3-27.4 0-52.4-16.8-52.4-51.9v-104.9h58.3v80.1c0 17.7 2 30.1 19.1 30.1 10 0 23.2-5 23.2-29.5v-80.7h58.3z"/>
	<path id="Layer" class="s1" d="m292.3 102.1c-0.3-5-3-8.9-6.8-11.5-3.5-3-8.3-4.4-12.9-4.4-8.3 0-17.7 1.7-17.7 11.8 0 4.4 3.5 6.4 6.8 7.9 9.7 4.1 31.7 5.3 51.2 11.8 19.4 6.2 36.4 17.7 36.4 42.7 0 42.5-40.6 54-77.6 54-35.9 0-75.4-14.5-76.2-54h55.6c0.3 5.3 2.6 9.8 7 13.6 3 2.6 8.6 4.4 15.6 4.4 7.7 0 19.7-2.9 19.7-11.8 0-8.8-5-11.5-32-16.2-44.5-7.6-62.4-21.8-62.4-48 0-38.6 41.5-48.7 72.1-48.7 32.9 0 72.7 9.2 74.1 48.4 0 0-52.9 0-52.9 0z"/>
	<path id="Layer" fill-rule="evenodd" class="s2" d="m388.5 0.1h58.2v74.3h0.6c8.9-13 24.4-20.7 41.8-20.7 51.2 0 65 43.7 65 79.6 0 38.3-20.9 81.1-64.1 81.1-28.5 0-37.4-10.9-44.7-20.7h-0.6v16.8h-56.2zm81.8 96.1c-20.9 0-25.6 19.7-25.6 37.7 0 18.3 4.7 38 25.6 38 20.9 0 25.6-19.7 25.6-38 0-18-4.7-37.7-25.6-37.7z"/>
	<path id="Layer" fill-rule="evenodd" class="s2" d="m716.5 176.4c0 11.4 0.6 24.4 7.1 34.1h-59.4c-1.5-4.1-2.4-10.3-2.1-14.4h-0.6c-12.3 14.1-30.3 18.3-49.1 18.3-29.4 0-53.8-14.2-53.8-46.3 0-48.3 56.4-46.6 86.1-52.2 8-1.4 15.9-3.8 15.9-13.5 0-10.3-9.7-14.2-19.1-14.2-17.9 0-21.5 9.2-21.8 15.6h-54.1c1.8-43 42.4-50.1 78.6-50.1 72.9 0 72.3 30.4 72.3 59.9 0 0 0 62.8 0 62.8zm-55.9-34.5c-7 3.5-15 5.6-22.9 7.3-13 3-19.7 6.2-19.7 16.5 0 7.1 7.6 14.2 18.2 14.2 13.3 0 23.5-8 24.4-23.9z"/>
	<path id="Layer" class="s2" d="m737.4 57.6h56.2v19.4h0.6c10.8-15.3 26.4-23.3 49.7-23.3 27.3 0 52.3 16.8 52.3 51.9v104.9h-58.2v-80.1c0-17.7-2.1-30.1-19.1-30.1-10 0-23.3 5-23.3 29.5v80.7h-58.2c0 0 0-152.9 0-152.9z"/>
	<path id="Layer" class="s2" d="m1012.2 115.6c-0.6-6.2-2.6-11.1-6.5-14.4-3.5-3.2-8.5-5-14.7-5-22.4 0-25.6 19.4-25.6 38 0 18.6 3.2 37.7 25.6 37.7 12.6 0 21.5-10.3 22.7-22.4h55.6c-5.6 41.6-38.3 64.9-79.5 64.9-45.9 0-82.6-31.9-82.6-80.2 0-48.3 36.7-80.5 82.6-80.5 40 0 74.2 19.8 77.7 61.9z"/>
	<path id="Layer" fill-rule="evenodd" class="s2" d="m1161.6 214.4c-57.3 0-83.2-38.1-83.2-80.5 0-42.4 25.9-80.2 83.2-80.2 57.4 0 83.3 37.8 83.3 80.2 0 42.4-25.9 80.5-83.3 80.5zm0-118.2c-22 0-25 21.5-25 37.7 0 16.2 3 38 25 38 22.1 0 25-21.8 25-38 0-16.2-2.9-37.7-25-37.7z"/>
	<path id="Layer" class="s2" d="m1257.8 57.6h55.9v24.4h0.6c9.4-18.2 21.8-28.3 43-28.3 5.8 0 11.4 0.9 17 2.4v51.6c-5.8-2.1-11.2-3.9-22.9-3.9-23 0-35.3 13.6-35.3 46.3v60.4h-58.3c0 0 0-152.9 0-152.9z"/>
	<path id="Layer" fill-rule="evenodd" class="s2" d="m1389 57.6h56.2v16.8h0.6c7.3-9.7 16.2-20.7 44.7-20.7 43.3 0 64.1 42.8 64.1 81.1 0 35.9-13.8 79.6-65 79.6-17.3 0-32.9-7.7-41.8-20.7h-0.6v66.3h-58.2c0 0 0-202.4 0-202.4zm81.8 114.3c20.9 0 25.6-19.7 25.6-37.7 0-18.3-4.7-38-25.6-38-20.9 0-25.6 19.7-25.6 38 0 18 4.7 37.7 25.6 37.7z"/>
</svg>