<svg version="1.2" xmlns="http://www.w3.org/2000/svg" viewBox="0 0 1536 1145" width="1536" height="1145">
	<title>logo (4)-svg</title>
	<style>
		.s0 { fill: #0070ab } 
		.s1 { fill: #ffcf01 } 
	</style>
	<g id="Layer">
		<g id="Layer">
			<path id="Layer" fill-rule="evenodd" class="s0" d="m354.4 0.5h281.6l65.5 174.6 4.4 2.2 17.4 43.7c59 2.2 74.3 17.5 76.5 28.4 2.1 6.5 2.1 15.2-4.4 26.2-8.8-8.8-28.4-17.5-65.5-17.5 10.9 32.7 24 65.5 24 65.5-28.4 30.6-65.5 74.2-48 111.3 13.1 26.2 50.2 39.4 109.1 39.4 190 0 534.9-133.2 576.4-150.7q13.1-6.5 13.1-19.7c13.1 2.2 21.9 13.1 19.7 28.4 0 10.9-6.6 19.7-15.3 24.1-37.1 15.2-248.9 96-423.6 133.1l-74.2 183.4c0 0-189.9 0-216.1 0-43.7 0-65.5-2.2-96.1-69.8-15.3-35-67.7-170.3-122.3-303.5-82.9 26.2-189.9 63.3-253.2 96.1-4.4 2.1-8.8 4.3-13.1 4.3-15.3 0-26.2-10.9-26.2-26.2 0-2.2 0-4.3 2.1-8.7 4.4 2.2 6.6 4.4 13.1 4.4 4.4 0 6.6 0 11-2.2 74.2-39.3 203-80.8 253.2-96.1l-15.3-39.3 2.2-2.2zm469.4 207.4l76.5-207.4h281.6l-159.4 397.4c-91.7 21.8-170.3 34.9-218.3 34.9-30.6 0-48-6.5-52.4-17.4-8.7-24.1 52.4-80.8 58.9-87.4 32.8-32.7 43.7-63.3 32.8-93.9-4.4-10.9-10.9-17.4-19.7-26.2zm-469.4-207.4l91.7 227.1"/>
			<path id="Layer" fill-rule="evenodd" class="s1" d="m463.5 273.4c-82.9 26.2-189.9 63.3-255.4 98.2-4.4 2.2-8.8 4.4-13.1 4.4-15.3 0-26.2-10.9-26.2-26.2 0-10.9 6.5-19.7 15.3-21.8 74.2-35 179-72.1 259.8-96.1 8.7 10.9 15.2 26.2 19.6 41.5zm923.6 2.2c-4.4 0-8.8 0-13.1 2.2-248.9 106.9-602.6 183.3-620.1 135.3-8.7-21.8 59-83 59-83 30.5-30.5 48-63.3 34.9-98.2-15.3-39.3-85.2-56.8-146.3-56.8 4.4 8.8 10.9 26.2 17.5 50.3 2.2 0 2.2 0 2.2 0 50.2 2.1 69.8 13.1 74.2 26.2 6.5 13-8.7 30.5-15.3 37.1-4.4 4.3-28.4 32.7-28.4 32.7-24 26.2-67.7 74.2-45.8 115.7 65.5 126.7 617.9-76.4 692.1-109.1 8.7-4.4 15.3-13.1 15.3-24.1 0-15.2-11-28.3-26.2-28.3z"/>
		</g>
		<path id="Layer" fill-rule="evenodd" class="s0" d="m1535.5 1015.7c0 39.3-13.1 72.1-37.1 93.9-26.2 24-61.1 34.9-107 34.9-45.8 0-80.8-10.9-107-34.9-26.2-24-39.3-54.6-39.3-93.9 0-41.5 13.1-72 39.3-96.1 26.2-24 61.2-34.9 107-34.9 45.9 0 83 10.9 107 34.9 24 24.1 37.1 54.6 37.1 96.1zm-85.1 0c0-13.1-2.2-26.2-4.4-34.9-2.2-8.8-6.5-17.5-13.1-24-6.5-6.6-10.9-11-19.6-13.1-6.6-2.2-15.3-4.4-24.1-4.4-8.7 0-15.2 0-24 2.2-6.5 2.2-13.1 6.5-19.6 10.9-4.4 6.5-8.8 13.1-13.1 24-2.2 8.7-4.4 21.8-4.4 37.1 0 15.3 2.2 26.2 4.4 35 2.2 8.7 6.5 15.2 10.9 21.8 4.4 6.5 10.9 8.7 19.6 13.1 8.8 2.2 15.3 4.4 26.2 4.4 6.6 0 15.3-2.2 24.1-4.4 8.7-2.2 15.2-6.6 19.6-10.9 6.6-6.6 10.9-13.1 13.1-21.9 2.2-8.7 4.4-19.6 4.4-34.9zm-879.9-45.8v168.1h-87.3v-10.9c-39.3 24-102.7 13.1-109.2 13.1-37.1-4.4-65.5-35-65.5-74.3 0-30.5 17.5-54.6 43.7-67.7 2.1-2.1 28.3-15.2 89.5-15.2h48c0-13.1-4.4-28.4-15.3-35-26.2-17.4-128.8-2.2-128.8-2.2l19.7-54.5c24-4.4 50.2-6.6 69.8-6.6 48.1 0 83 6.6 107 21.8 17.5 15.3 28.4 35 28.4 63.4zm-83 61.1c-50.2 0-69.8 4.4-69.8 4.4-4.4 2.1-13.1 4.3-19.7 10.9-4.3 4.4-8.7 13.1-6.5 19.6 0 13.1 10.9 21.9 21.8 24 4.4 0 74.2 11 74.2-28.3zm-135.3-211.8l-124.5 318.8h-50.2c-30.6 0-56.8-19.7-67.7-45.9l-109.2-272.9h91.8l82.9 229.2 87.3-229.2zm310.1 0h34.9v270.7c0 26.2-21.8 48.1-48 48.1h-35v-270.8c0-26.2 21.9-48 48.1-48zm351.5 183.4c0 0 0 19.6 0 28.4h-196.5c0 10.9 4.4 58.9 89.5 58.9 10.9 0 34.9 2.2 98.3-8.7v54.6c-52.4 8.7-93.9 8.7-107 8.7-150.7 0-166-87.3-166-126.6 0-41.5 17.5-131 150.7-131 43.7 0 76.4 10.9 98.2 30.5 21.9 17.5 32.8 48.1 32.8 85.2zm-67.7-19.7c0-17.4-4.4-41.5-63.3-41.5-58.9 0.1-63.3 30.6-65.5 41.5zm222.7-93.8c34.9 0 61.1 6.5 61.1 6.5v61.1c-63.3-15.3-91.7 0-91.7 37.1v146.3h-82.9v-172.4c0-59 56.7-78.6 96-80.8 6.6 0 13.1 0 17.5 2.2z"/>
	</g>
</svg>