<svg version="1.2" xmlns="http://www.w3.org/2000/svg" viewBox="0 0 1674 419" width="1674" height="419">
	<title>logo (33)-svg</title>
	<defs>
		<linearGradient id="g1" x1=".2" y1="208.9" x2="333" y2="208.9" gradientUnits="userSpaceOnUse">
			<stop offset=".1" stop-color="#17629e"/>
			<stop offset=".3" stop-color="#0c79b4"/>
			<stop offset=".6" stop-color="#0098d2"/>
			<stop offset=".7" stop-color="#00a7e1"/>
		</linearGradient>
	</defs>
	<style>
		.s0 { fill: #000000 } 
		.s1 { fill: url(#g1) } 
	</style>
	<path id="Layer" class="s0" d="m47.8 384.4l173.3-47.3-186.5 80.9z"/>
	<path id="Layer" class="s1" d="m333.2 418h-31.9l-133-336.6-133.7 336.6h-34.6l168.3-418z"/>
	<path id="Layer" class="s0" d="m560.9 278.8l52.2-130.3h24.2l-76.4 185.9-76.4-185.4h24.2z"/>
	<path id="Layer" class="s0" d="m706.1 148.5h94.6v20.3h-72.6v56.7h70.4v20.3h-70.4v59.4h72.6v20.4h-94.6z"/>
	<path id="Layer" class="s0" d="m884.2 140.3l132 138.5v-130.3h22v183.1l-132-138.5v131.4h-22z"/>
	<path id="Layer" class="s0" d="m1175.1 325h-22v-156.2h-45v-20.3h112.1v20.3h-45.1z"/>
	<path id="Layer" fill-rule="evenodd" class="s0" d="m1419.9 325h-23.7l-20.3-43.9h-0.6l-0.5-1.7h-78.1l-0.6 1.7h-0.5l-20.4 43.9h-23.6l84.1-183.7zm-83.6-135.8l-30.8 69.9h61.1z"/>
	<path id="Layer" class="s0" d="m1557.9 182.1c-6.6-11-14.9-16.5-28.1-16.5-13.7 0-29.7 9.3-29.7 24.7 0 13.7 13.8 20.9 24.8 25.3l12.6 4.9c24.8 9.9 43.5 23.7 43.5 52.8 0 31.9-24.8 55.1-56.1 55.1-28.6 0-50.6-20.9-54.5-49.6l22-4.3c0 19.2 15.4 33.5 34.1 33.5 18.7 0 32.5-15.9 32.5-34.1 0-18.7-15.4-27-30.3-33.5l-12.1-5c-20.3-8.8-38.5-20.4-38.5-44.5 0-28.7 25.3-45.7 51.7-45.7 19.8 0 35.8 9.4 45.1 26.4z"/>
	<path id="Layer" fill-rule="evenodd" class="s0" d="m1648.3 198c-14.1 0-25.5-11.4-25.5-25.6 0-14.1 11.4-25.6 25.5-25.6 14.2 0 25.6 11.5 25.6 25.6 0 14.2-11.4 25.6-25.6 25.6zm22.3-25.8c0-12.5-10.1-22.6-22.5-22.6-12.5 0-22.6 10.1-22.6 22.6 0 12.4 10.1 22.5 22.6 22.5 12.4 0 22.5-10.1 22.5-22.5zm-9.9 14.8h-3.8l-8.3-12.6h-6.6v12.6h-3.3v-28h12.1c7.2 0 9.9 2.7 9.9 7.1 0 5.5-3.8 7.7-8.8 7.7zm-13.2-16c3.9 0 10.5 0.6 10.5-4.4 0-3.8-3.9-4.4-7.7-4.4h-8.3v8.8z"/>
</svg>