<svg version="1.2" xmlns="http://www.w3.org/2000/svg" viewBox="0 0 1547 461" width="1547" height="461">
	<title>verisk-logo1-svg</title>
	<style>
		.s0 { fill: #00358e } 
		.s1 { fill: #2a7de1 } 
	</style>
	<g id="Layer">
		<path id="Layer" fill-rule="evenodd" class="s0" d="m1108.3 168.4c1 0 1 1 1 2v39c0 1.1-1 2.1-2 2.1-5.2-2.1-17.5-6.2-35-5.1-10.2 0-20.5 2-29.7 5.1-1.1 0-1.1 1-1.1 2v143.8c0 1-1 2-2 2h-41.1c-1 0-2.1-1-2.1-2v-172.5c0-1 0-1 1.1-2.1 5.1-3 33.9-18.4 73.9-18.4 18.5 0 32.9 3 37 4.1zm-142.8 82.1v20.5c0 1.1-1 2.1-2 2.1h-128.4c-1.1 0-2.1 1-2.1 2 2.1 14.4 8.2 26.7 19.5 36 11.3 8.2 24.7 13.3 40.1 13.3 30.8 0 54.4-12.3 61.6-17.4 1.1-1.1 3.1 0 3.1 2v34.9c0 1.1 0 1.1-1 1.1-4.1 3-26.7 17.4-66.8 17.4-29.8 0-54.4-9.2-72.9-26.7-18.5-17.4-27.7-42.1-27.7-71.8 0-29.8 9.2-54.5 26.7-74 16.4-18.4 40-27.7 65.7-27.7 53.4 0 84.2 32.9 84.2 88.3zm-44.1-6.2c1 0 2-1 2-2-2-27.7-16.4-42.1-42.1-42.1-22.6 0-40.1 15.4-46.2 41.1 0 1 1 2 2 2zm430.4 59.6c0 18.4-7.2 33.8-20.5 44.1-12.4 9.3-29.8 14.4-51.4 14.4-34.9 0-54.4-12.3-58.5-15.4-1.1 0-1.1 0-1.1-1v-38c0-1.1 2.1-2.1 3.1-1.1 7.2 6.2 29.8 20.6 55.5 20.6 13.3 0 29.8-4.1 29.8-20.6 0-15.4-11.3-20.5-35-26.6-41-9.3-56.5-26.7-56.5-59.6 1.1-28.7 22.6-53.4 52.4-56.5 5.2-1 11.3-1 16.5-1 29.8 0 50.3 11.3 54.4 14.4 1 0 1 0 1 1v37c0 1-2 2-3 1-7.2-5.1-27.8-18.5-51.4-17.5-17.5 0-27.7 8.3-27.7 20.6 0 11.3 7.2 17.4 28.7 23.6 22.6 4.1 37 11.3 47.3 20.5 10.2 10.3 15.4 22.6 16.4 40.1zm-190-165.3c-15.4 0-27.8-12.4-27.8-27.7 0-15.4 12.4-27.8 27.8-27.8 15.3 0 27.7 12.4 27.7 27.8 0 15.3-12.4 27.7-27.7 27.7zm-22.6 217.6v-187.9c0-1 1-2 2-2h41.1c1.1 0 2.1 1 2.1 2v187.9c0 1.1-1 2.1-2.1 2.1h-41.1c-1 0-2-1-2-2.1zm324.6-100.6l82.1 100.6c1.1 1.1 1.1 3.1-1 3.1h-48.3l-1-1-68.8-85.2c-1-1.1-3.1-1.1-3.1 1v82.1c0 1.1-1 2.1-2 2.1h-41.1c-1.1 0-2.1-1-2.1-2.1v-252.5c0-1.1 1-2.1 2.1-2.1h41.1c1 0 2 1 2 2.1v133.4c0 1.1 2.1 2.1 3.1 1.1l65.7-70.9c0-1 1.1-1 1.1-1h49.3c1 0 2 2 1 3.1l-80.1 83.1q-1.6 1.6 0 3.1zm-696.4-153h45.2c2 0 3 2.1 2 3.1l-102.7 234.1c-13.4 30.8-57.5 30.8-70.9 0l-102.7-234.1c0-2 1-3.1 2.1-3.1h46.2l88.3 201.3c0 1 2.1 1 3.1 0l88.3-200.2c1.1-1.1 1.1-1.1 1.1-1.1zm-733.4 8.3c3.1-5.2 9.2-8.3 15.4-8.3h72.9c3.1 0 4.1 3.1 3.1 5.2l-19.5 44.1c-1.1 1-2.1 2.1-3.1 2.1h-84.2c-3.1 0-4.1-3.1-3.1-5.2 5.1-14.3 11.3-26.7 18.5-37.9zm64.7-59.6c-3.1 0-5.2-5.1-2.1-7.2 39.1-27.7 87.3-44.1 139.7-44.1 52.4 0 99.7 16.4 138.7 45.1 3.1 2.1 1 6.2-2.1 6.2zm63.7 360.4c1-1.1 2.1-2.1 3.1-2.1l206.5 1c3 0 5.1 4.1 2 6.2-39 27.7-87.3 44.1-138.7 44.1q-44.6 0-83.2-15.4c-2-1-3-3-2-5.1zm25.7-58.5l19.5-44.2c1-1 2-2 3.1-2l241.3 1c3.1 0 4.2 3.1 3.1 5.2-5.1 13.3-11.3 25.6-18.5 37.9-3 5.2-9.2 8.3-15.4 8.3l-229-1.1c-3.1 0-5.2-3.1-4.1-5.1zm281.4-144.8c1 7.2 1 14.4 1 22.6 0 7.2 0 15.4-1 22.6 0 2.1-2 3.1-4.1 3.1l-229.1-1c-3 0-4.1-3.1-3-5.2l12.3-28.7c5.1-10.3 15.4-17.5 26.7-17.5h193.1c2.1 1.1 4.1 3.1 4.1 4.1z"/>
		<path id="Layer" class="s1" d="m451.9 154h-213.6c-11.3 0-21.6 6.2-25.7 16.4l-94.5 214.6c-3.1 7.2-9.2 11.3-16.4 11.3-6.2 0-13.4-4.1-16.4-11.3-19.6-44.1-49.3-112.9-55.5-126.3 0-1-2.1-2-3.1-2h-21.6c-2 0-4.1-1.1-4.1-3.1-1-8.2-1-15.4-1-22.6 0-8.2 0-15.4 1-23.6 1.1-2.1 2.1-3.1 4.1-3.1h41.1c11.3 0 21.6 6.2 25.7 16.4l27.7 63.7c1.1 1 1.1 1 2.1 1 1 0 2 0 2-1l73-165.3c5.1-10.3 14.4-16.4 25.6-16.4h218.8c6.2 0 12.4 3 15.4 8.2 7.2 12.3 13.4 24.6 18.5 38 1.1 2-1 5.1-3.1 5.1z"/>
	</g>
</svg>