<svg version="1.2" baseProfile="tiny-ps" xmlns="http://www.w3.org/2000/svg" viewBox="0 0 1655 368" width="1655" height="368">
	<title>VZ_BIG</title>
	<style>
		tspan { white-space:pre }
		.shp0 { fill: #d52b1e } 
		.shp1 { fill: #000000 } 
	</style>
	<g id="Layer">
		<path id="Layer" class="shp0" d="M1618.48 0L1528.11 193.58L1494.12 120.23L1457.37 120.23L1513.25 240.21L1542.96 240.21L1654.99 0L1618.48 0Z" />
		<path id="Layer" fill-rule="evenodd" class="shp1" d="M1230.8 359.43L1230.54 120.23L1301.03 120.23L1301.03 153L1302.54 153C1319.66 127.29 1342.57 113.17 1375.3 113.17C1426.65 113.17 1458.37 150.48 1458.37 203.41L1458.37 359.43L1385.62 359.43L1385.62 217.27C1385.62 191.81 1372.53 174.17 1347.35 174.17C1321.17 174.17 1303.55 195.59 1303.55 226.09L1303.55 359.43L1230.8 359.43ZM1214.68 240.46C1214.68 312.04 1163.83 367.24 1087.8 367.24C1011.78 367.24 960.92 312.04 960.92 240.46C960.92 168.37 1011.78 113.68 1087.8 113.68C1163.83 113.68 1214.94 168.37 1214.68 240.46ZM1140.92 240.46C1140.92 196.1 1121.79 167.62 1087.3 167.62C1052.56 167.62 1034.43 196.1 1034.43 240.46C1034.43 284.32 1052.81 313.3 1087.3 313.3C1122.04 313.3 1141.17 284.32 1140.92 240.46ZM753.49 359.43L753.49 304.48L865.51 179.21L865.51 177.7L753.49 177.7L753.49 119.98L952.87 119.98L952.87 176.19L842.1 300.45L842.1 301.96L957.9 301.96L957.9 359.43L753.49 359.43ZM660.09 120.23L733.35 120.23L733.35 359.43L660.09 359.43L660.09 120.23ZM490.16 120.23L559.89 120.23L559.89 160.05L561.41 160.05C577.77 132.08 596.9 118.97 625.35 118.97C632.15 118.97 636.43 119.22 640.2 120.73L640.2 183.75L638.69 183.75C593.13 177.45 563.17 199.63 563.17 249.53L563.17 359.43L490.16 359.43L490.16 120.23ZM399.03 288.6L469.02 288.6C464.99 309.52 449.88 330.7 428.99 345.06C409.35 358.42 385.69 366.49 355.73 366.49C276.68 366.49 229.1 311.54 229.1 239.45C229.1 167.87 278.95 113.17 350.95 113.17C384.68 113.17 411.11 123.51 431.25 142.16C459.7 167.87 473.29 208.95 472.79 260.37L300.6 260.37C304.37 292.64 324.01 313.56 356.23 313.56C377.63 313.56 392.23 304.23 399.03 288.6ZM301.1 212.48L398.78 212.48C395.76 184.5 378.14 165.35 352.46 165.35C322.25 165.35 306.89 184.25 301.1 212.48ZM0.52 120.23L75.79 120.23L122.36 273.98L123.37 273.98L169.94 120.23L243.2 120.23L160.12 359.43L83.59 359.43L0.52 120.23ZM660.09 35.04L733.35 35.04L733.35 100.07L660.09 100.07L660.09 35.04Z" />
	</g>
</svg>