<svg version="1.2" xmlns="http://www.w3.org/2000/svg" viewBox="0 0 1546 484" width="1546" height="484">
	<title>Verisign_logo-svg</title>
	<defs>
		<linearGradient id="g1" x1="413.1" y1="71.3" x2="71.7" y2="412.7" gradientUnits="userSpaceOnUse">
			<stop offset="0" stop-color="#ffffff"/>
			<stop offset=".1" stop-color="#f9f9f9"/>
			<stop offset=".4" stop-color="#e9e9ea"/>
			<stop offset=".6" stop-color="#cecfcf"/>
			<stop offset=".8" stop-color="#a8aaab"/>
			<stop offset="1" stop-color="#898b8d"/>
		</linearGradient>
	</defs>
	<style>
		.s0 { fill: url(#g1) } 
		.s1 { mix-blend-mode: multiply;fill: #404041 } 
		.s2 { fill: #0064a4 } 
		.s3 { mix-blend-mode: multiply;fill: #929497 } 
		.s4 { fill: #ffffff } 
		.s5 { fill: #6d6e71 } 
	</style>
	<g id="Layer">
		<g id="Layer 1">
			<path id="Layer" class="s0" d="m483.8 242c0 97.7-58.9 185.9-149.1 223.2-90.2 37.4-194.1 16.8-263.1-52.4-69-69.1-89.7-173-52.3-263.3 37.4-90.3 125.5-149.2 223.1-149.1 31.7 0 63.1 6.3 92.4 18.4 29.2 12.2 55.8 30 78.3 52.4 22.4 22.4 40.1 49.1 52.3 78.4 12.1 29.3 18.4 60.7 18.4 92.4z"/>
			<g id="Layer" style="opacity: .1">
				<path id="Layer" class="s1" d="m6.3 191.6c3.5-16.5 8.8-32.7 15.7-48.1 6.9-15.5 15.4-30.1 25.3-43.8 10-13.7 21.4-26.3 34-37.5-41 46-62.9 106-61.2 167.6 1.7 61.7 27 120.4 70.6 164 43.5 43.6 102.2 68.9 163.8 70.7 61.6 1.7 121.5-20.2 167.5-61.2-32.6 36.4-75.5 62-122.9 73.5-47.5 11.5-97.4 8.3-143-9.2-45.6-17.4-84.9-48.4-112.6-88.7-27.6-40.3-42.4-88-42.4-136.9 0-16.9 1.7-33.8 5.2-50.4z"/>
			</g>
			<path id="Layer" class="s2" d="m438.5 242c0 79.4-47.7 151-121 181.3-73.3 30.4-157.7 13.6-213.8-42.5-56-56.1-72.8-140.6-42.5-213.9 30.4-73.4 101.9-121.2 181.2-121.2 25.8 0 51.3 5.1 75.1 15 23.8 9.8 45.4 24.3 63.6 42.5 18.2 18.2 32.6 39.9 42.5 63.7 9.9 23.8 14.9 49.3 14.9 75.1z"/>
			<g id="Layer" style="opacity: .1">
				<path id="Layer" class="s3" d="m434.3 282.9c-2.9 13.5-7.2 26.6-12.8 39.1-5.6 12.6-12.5 24.5-20.6 35.6-8.1 11.1-17.3 21.4-27.6 30.5 33.5-37.4 51.3-86.1 49.9-136.3-1.4-50.1-21.9-97.9-57.4-133.3-35.4-35.5-83.1-56.1-133.2-57.4-50.1-1.4-98.8 16.4-136.2 49.9 26.5-29.6 61.4-50.4 99.9-59.8 38.6-9.3 79.1-6.7 116.2 7.5 37.1 14.2 69 39.3 91.5 72 22.5 32.8 34.5 71.6 34.5 111.3 0 13.8-1.4 27.5-4.2 40.9z"/>
			</g>
			<path id="Layer" class="s4" d="m288.3 156.4h90.1l-43.5 75.6h-90.2z"/>
			<path id="Layer" class="s4" d="m109.9 156.4h89.5l87.8 152.1-44.8 77.6z"/>
			<path id="Layer" fill-rule="evenodd" class="s5" d="m639 187.1h36.3l-47.3 136.4h-34.8l-46.7-136.4h36.3l28.2 97zm47.6 0h100.8v26.5h-66.8v24.8h62.3v25.9h-62.3v32.5h72.8v26.8h-106.8zm130.6 0h61.3c14.3 0 32 0.4 44.6 13.9q2.7 3.1 4.7 6.7 2.1 3.6 3.4 7.5 1.4 3.9 2.1 8 0.6 4.1 0.6 8.2c0.2 4.2-0.3 8.5-1.5 12.6-1.2 4.1-3.1 7.9-5.7 11.3-2.5 3.4-5.6 6.4-9.2 8.7-3.5 2.4-7.5 4.1-11.6 5l31.6 54.5h-37.6l-27.2-48.5h-21.4v48.7h-34.1zm34.1 25.5v36.9h28.4c2.6 0.3 5.3 0.1 7.8-0.7 2.5-0.8 4.9-2.1 6.8-3.9 2-1.8 3.5-4 4.5-6.4 1-2.5 1.5-5.1 1.4-7.7 0-17.5-12.6-18.1-19.7-18.2zm142.4-25.5v136.3h-34v-136.3zm47.9 95.4q1.4 1.7 2.9 3.2 1.5 1.5 3.1 2.8 1.7 1.3 3.5 2.5 1.7 1.1 3.6 2.1 3 1.6 6.2 2.9 3.2 1.2 6.5 2 3.4 0.9 6.7 1.3 3.4 0.4 6.9 0.4c13.4 0 24.7-6.4 24.7-15.8 0-10.9-13.7-12.6-23.7-14-7.6-0.9-15.1-1.9-22.4-3.5-7.4-1.5-36.7-7.6-36.7-37.1 0-35.1 31.2-45.6 54.8-45.6 5.7 0 11.3 0.6 16.8 1.7 5.5 1.2 10.9 2.9 16 5.1 5.2 2.2 10.1 5 14.7 8.2 4.6 3.2 8.9 6.9 12.7 11l-24.7 17.9q-1.5-1.6-3.1-3.1-1.6-1.5-3.3-2.9-1.7-1.3-3.5-2.6-1.7-1.2-3.6-2.4-2.5-1.4-5.2-2.5-2.7-1.1-5.5-1.8-2.8-0.8-5.7-1.2-2.9-0.4-5.8-0.5c-13.5 0-20.3 7.8-20.3 14.4 0 10.4 11.6 11.9 17.4 12.7q5.3 0.6 10.5 1.4 5.3 0.8 10.5 1.9 5.2 1 10.4 2.3 5.2 1.2 10.3 2.7c3.5 1.1 6.8 2.7 9.7 4.9 3 2.2 5.6 4.8 7.7 7.8 2.1 3 3.7 6.3 4.7 9.9 1.1 3.5 1.5 7.1 1.4 10.8q0 4-0.7 7.8-0.8 3.9-2.1 7.6-1.4 3.7-3.4 7.1-2 3.4-4.6 6.4c-12.3 14.4-32 18.4-51.2 18.4-38.4 0-53.6-17.8-62.1-27.6zm157.6-95.5v136.4h-33.9v-136.4zm125.5 123.6q-4 4-8.7 7-4.6 3.1-9.8 5.2-5.2 2-10.7 2.9-5.5 1-11.1 0.8c-38.1 0-61.4-31-61.4-71.1 0-43.9 28.4-73.1 67.2-73.1 5.9 0 11.7 0.7 17.5 2.1 5.7 1.4 11.3 3.5 16.5 6.2 5.2 2.7 10.1 6.1 14.5 10 4.4 3.9 8.4 8.4 11.7 13.2l-25.9 15.7c-1.5-2.9-3.4-5.6-5.6-8-2.2-2.4-4.8-4.5-7.6-6.2-2.8-1.7-5.8-3-9-3.9-3.1-0.8-6.4-1.2-9.7-1.2-25.9 0-35.7 21.4-35.7 44.2q-0.3 4.6 0.3 9.3 0.6 4.6 2 9.1 1.4 4.4 3.6 8.6 2.2 4.1 5.1 7.8 2.4 2.4 5.3 4.2 2.9 1.9 6.1 3.2 3.1 1.3 6.5 1.9 3.4 0.6 6.8 0.6 2.5 0 4.9-0.3 2.5-0.3 4.8-1 2.4-0.7 4.7-1.7 2.2-1 4.3-2.3 2.5-1.7 4.5-3.9 2.1-2.2 3.5-4.9 1.5-2.6 2.2-5.5 0.8-2.9 0.8-6h-30.5v-25.9h59.3v75.8h-26.6zm54.5-123.7h33l29.5 50.2c10.8 19.2 14.1 25.4 20.5 37.4l-1.6-87.6h33.1v136.4h-33.5l-25.4-43.1q-3.3-5.1-6.4-10.4-3.1-5.3-6.1-10.6-3-5.3-5.9-10.8-2.8-5.4-5.5-10.9l1 85.8h-33.1zm151.9 30.1c-5.8 0-11-3.5-13.2-8.9-2.3-5.3-1.1-11.5 3-15.6 4-4.1 10.2-5.4 15.5-3.3 5.4 2.2 9 7.3 9.1 13.1 0 1.9-0.3 3.9-1 5.6-0.7 1.8-1.8 3.4-3.1 4.8-1.3 1.4-2.9 2.5-4.7 3.2-1.8 0.7-3.7 1.1-5.6 1.1zm0-27.2c-5.2-0.1-9.9 3-11.9 7.8-2 4.8-1 10.3 2.6 14.1 3.6 3.7 9.1 4.9 14 2.9 4.8-1.9 8-6.5 8.1-11.7 0.1-1.7-0.2-3.4-0.8-5.1-0.6-1.6-1.5-3-2.7-4.3-1.2-1.2-2.7-2.2-4.3-2.9-1.6-0.7-3.3-1-5-1zm2.7 21.7l-2.6-6.8h-2.3v6.8h-3.7v-18.1h5.9q0.6-0.1 1.1-0.1 0.6 0.1 1.2 0.2 0.5 0.1 1 0.3 0.6 0.1 1.1 0.4 0.6 0.4 1 0.9 0.5 0.6 0.8 1.2 0.3 0.7 0.5 1.4 0.1 0.7 0.1 1.4 0 0.7-0.2 1.5-0.1 0.7-0.6 1.4-0.4 0.6-1 1.1-0.6 0.5-1.3 0.8l3.2 7.5zm-2.5-14.7h-2.5v4.7h2.4c2 0 2.8-0.8 2.8-2.3 0-1.6-0.8-2.5-2.7-2.5z"/>
		</g>
	</g>
</svg>