<svg version="1.2" xmlns="http://www.w3.org/2000/svg" viewBox="0 0 1504 792" width="1504" height="792">
	<title>Vertex_logo-svg</title>
	<style>
		.s0 { fill: #3f125f } 
		.s1 { fill: #5a5c61 } 
	</style>
	<g id="layer1">
		<g id="g12463">
			<g id="g11938">
				<path id="path11940" class="s0" d="m516.8 381.8l229.7-381.7 229.7 381.7z"/>
			</g>
			<g id="g11942">
				<path id="path11944" class="s0" d="m1178.3 717.6l44.6 74.1h-952.7l44.6-74.1z"/>
			</g>
			<g id="g11946">
				<path id="path11948" class="s1" d="m266.6 438.1c-19.4 0-40.4 62.9-70.3 129.6-19.9 43.8-36 85.8-42.3 98.5-7.5-0.7-15-1.5-22.9-1.5-9 0-18.3 0.8-27.7 1.5-5.6-15.7-22.4-62.6-41.5-109.8-22.9-56.1-43.1-117.6-61.8-118.3v-3.4c19.1 0.8 37.8 1.5 56.5 1.5 13.5 0 27-0.7 40.1-1.5v3.4c-4.9 1.5-10.1 1.8-10.1 13.5 0 29.6 57.3 159.9 63.2 177.5 8.3-20.6 55.8-128.1 55.8-173.8 0-12.7-5.2-15.7-13.1-17.2v-3.4c12.7 0.8 25.9 1.5 38.9 1.5 11.6 0 23.6-0.7 35.2-1.5z"/>
			</g>
			<g id="g11950">
				<path id="path11952" class="s1" d="m478.9 609.3c-9 20.6-15.7 36.3-19.4 60.3-3.4-2.6-15-3.8-28.5-4.2-13.5-0.7-28.8-0.7-41.2-0.7h-44.1c-30 0-54 1.1-57.7 1.5v-3.4c18.3 0 18.3-31.8 18.3-112.4 0-86.5-0.3-110.5-18.3-112.3v-3.4c7.9 0 17.2 0.4 28.5 0.8 11.6 0.3 25 0.7 41.1 0.7h32.2c35.2 0 61.4-1.1 77.1-4.9-2.6 10.5-6.3 25.9-6.3 50.6v7.5h-7.9c0-34.5-28.4-39.7-67-39.7-7.9 0-15 0.7-21 2.2-2.9 24-2.9 73.8-2.9 83.2 4.8 0.4 10.4 1.1 21.3 1.1 40.8 0 45.7-9 47.2-27.3h7.8c-1.5 14.2-2.6 28.4-2.6 43.1 0 24.7 0 9.3 0.4 28.8h-8.3c0-19.9-7.8-30.7-44.5-30.7-9 0-16.5 0-21.3 0.3 0 12 0 71.2 1.1 95.9 8.2 0.4 16.4 1.5 25 1.5 59.6 0 71.9-18.7 84.3-41.9z"/>
			</g>
			<g id="g11954">
				<path id="path11956" fill-rule="evenodd" class="s1" d="m510.9 662.8c18.4-0.3 18.4-32.9 18.4-112.4 0-79.4 0-111.6-18.4-112.3v-3.4c7.1 0.4 15.4 0.8 23.2 1.1 7.9 0 15.8 0.4 21.7 0.4 11.3 0 24.4-1.1 39.4-2.6 14.6-1.1 31-2.3 47.9-2.3 10.5 0 71.5 0 71.5 55.5 0 44.2-44.6 59.2-65.5 62.9 7.8 9 29.9 42.7 54.2 73.4 21.4 27 31.1 39 41.6 39.7v3.4c-3.7-0.4-8.6-0.8-13.1-1.1-4.9-0.4-9.7-0.4-14.6-0.4-15.3 0-31.4 0.7-46.8 3-4.5-7.1-18.7-31.1-35.9-56.9-16.1-24-28.9-48-43.5-48-5.2 0-2.2 0-6.3 0.8 0 62.1 0 99.2 19.1 99.2v3.4c-15-1.1-31.9-1.5-46.4-1.5-15.8 0-31.9 0.4-46.5 1.5zm84.6-113.1c33.3 0 59.2-7.9 59.2-48.7 0-34.1-20.2-52.8-44.2-52.8-8.2 0-16.5 1.5-24.3 3-1.5 26.9-1.5 86.5-1.5 98.1 3 0 4.9 0.4 10.8 0.4z"/>
			</g>
			<g id="g11958">
				<path id="path11960" class="s1" d="m949.6 486.8c0-26.3-14.9-33.4-55.4-33.4-3.7 0-7.1 0.4-10.8 0.8-1.9 9.4-1.9 47.2-1.9 96.2 0 79.5 0 112.1 19.1 112.4v3.4c-14.6-1.1-30.7-1.5-46.4-1.5-15.8 0-31.8 0.4-46.4 1.5v-3.4c19.1-0.3 19.1-32.9 19.1-112.4 0-49 0-86.8-1.9-96.2-3.8-0.4-7.1-0.8-10.9-0.8-43.8 0-58.4 19.9-64 44.6l-9.4-2.2c4.9-16.5 9.4-40.1 9.4-64.5 2.3 1.5 14.6 2.3 30.7 2.7 16.1 0.7 35.9 0.7 52.4 0.7h40.8c44.9 0 76-0.4 91.7-3.4-2.2 10.9-5.9 26.6-5.9 58.5v7.1h-10.2z"/>
			</g>
			<g id="g11962">
				<path id="path11964" class="s1" d="m1183.3 609.3c-9 20.6-15.8 36.3-19.5 60.3-3.4-2.6-15-3.8-28.5-4.2-13.4-0.7-28.8-0.7-41.1-0.7h-44.2c-30 0-53.9 1.1-57.7 1.5v-3.4c18.4 0 18.4-31.8 18.4-112.4 0-86.5-0.4-110.5-18.4-112.3v-3.4c7.9 0 17.3 0.4 28.5 0.8 11.6 0.3 25.1 0.7 41.2 0.7h32.2c35.1 0 61.3-1.1 77.1-4.9-2.6 10.5-6.4 25.9-6.4 50.6v7.5h-7.8c0-34.5-28.5-39.7-67.1-39.7-7.8 0-14.9 0.7-20.9 2.2-3 24-3 73.8-3 83.2 4.8 0.4 10.5 1.1 21.3 1.1 40.8 0 45.7-9 47.2-27.3h7.9c-1.6 14.2-2.7 28.4-2.7 43.1 0 24.7 0 9.3 0.4 28.8h-8.2c0-19.9-7.9-30.7-44.6-30.7-9 0-16.5 0-21.3 0.3 0 12 0 71.2 1.1 95.9 8.2 0.4 16.5 1.5 25.1 1.5 59.5 0 71.9-18.7 84.2-41.9z"/>
			</g>
			<g id="g11966">
				<path id="path11968" class="s1" d="m1196.4 662.8c7.5 0 10.1-3 16.1-8.2 11.9-10.9 90.2-94.4 91.7-95.9-7.1-8.6-36.3-46.8-71.9-92.5-20.6-26.3-22.1-25.5-32.2-28.1v-3.4c19.1 0.8 38.2 1.5 57.3 1.5 16.1 0 33.3-0.7 49-1.5v3.4c-4.5 0.7-9.7 1.8-9.7 7.5 0 15.7 40.8 65.5 48.7 76.4 10.8-12.7 46-61.5 46-73.1 0-10.1-6.7-10.1-12.3-10.8v-3.4c13.4 0.4 26.9 1.5 40.8 1.5 12.3 0 25.4-0.7 37.4-1.5v3.4c-3.8 0.3-8.2 1.8-13.5 4.1-9 3.7-58 62.6-88.7 91.4 7.5 9 45.3 56.6 83.8 102.6 20.3 24.4 22.5 25.5 31.9 26.6v3.4c-20.3-1.5-40.8-1.5-61.1-1.5-15.3 0-31 0.7-46.4 1.5v-3.4c5.3 0 9.8-0.7 9.8-7.1 0-12-50.9-71.2-59.9-85.4-9.8 12-50.2 63.7-50.2 83.9 0 8.6 7.5 8.6 12.4 8.6v3.4c-12.8-0.8-25.1-1.5-37.8-1.5-13.9 0-27.8 0.7-41.2 1.5z"/>
			</g>
			<g id="g11970">
				<path id="path11972" fill-rule="evenodd" class="s1" d="m1489.2 460.1c-8.2 0-14.1-6.1-14.1-14.3 0-8.6 6.5-14.3 14.1-14.3 7.5 0 14 5.7 14 14.3 0 8.6-6.5 14.3-14 14.3zm0-26.1c-6.2 0-11 4.9-11 11.8 0 6.5 4.2 11.8 11 11.8 6.1 0 10.9-4.8 10.9-11.8 0-6.9-4.8-11.8-10.9-11.8zm-2.8 20h-2.7v-15.8h6c3.9 0 5.8 1.3 5.8 4.5 0 2.9-1.7 4.1-4.1 4.4l4.4 6.9h-2.9l-4.1-6.7h-2.4zm2.9-9c1.9 0 3.6-0.2 3.6-2.5 0-1.9-1.8-2.2-3.4-2.2h-3.1v4.7z"/>
			</g>
		</g>
	</g>
</svg>