<svg version="1.2" xmlns="http://www.w3.org/2000/svg" viewBox="0 0 1551 411" width="1551" height="411">
	<title>logo (20)-svg</title>
	<style>
		.s0 { fill: #2a276e } 
		.s1 { fill: #703e97 } 
		.s2 { fill: #f1cb14 } 
	</style>
	<path id="Layer" class="s0" d="m1497.1 116.8h-6.8c-0.4 0-0.8-0.4-0.8-0.9v-3.6c0-0.5 0.4-0.8 0.8-0.8q0 0 0 0h19.4c0.4 0 0.8 0.3 0.8 0.8q0 0 0 0v3.6c0 0.5-0.4 0.9-0.8 0.9h-6.8v24.8c0 0.4-0.4 0.8-0.8 0.8h-4.2c-0.4 0-0.8-0.4-0.8-0.8c0 0 0-24.8 0-24.8z" />
	<path id="Layer" class="s0" d="m1520.6 111.7c0-0.4 0.4-0.7 0.8-0.7h0.7c0.3 0 0.6 0.2 0.7 0.5l9.8 20.8h0.1l9.7-20.9c0.2-0.3 0.5-0.4 0.8-0.4h0.7c0.4 0 0.8 0.3 0.8 0.7l5.3 29.7c0.1 0.4-0.1 0.8-0.5 1q-0.2 0-0.3 0h-4.1c-0.4 0-0.7-0.3-0.8-0.7l-2.6-16.7h-0.1l-7.8 17.4c-0.1 0.3-0.4 0.5-0.7 0.5h-0.8c-0.4 0-0.7-0.2-0.8-0.5l-7.8-17.4h-0.1l-2.6 16.7c-0.1 0.4-0.4 0.7-0.8 0.7h-4c-0.4 0.1-0.8-0.2-0.9-0.7q0-0.1 0-0.3z" />
	<path id="Layer" class="s0" d="m1474.5 247.2c0 27.4-23.6 52.6-61.1 52.6c-33.5 0-53.2-15.7-58.5-20.7c-2.4-2.4-3.7-3.7-1.3-8l9.5-16.4q0.3-0.3 0.5-0.7c2.1-2.7 6-3.2 8.7-1.1c1.2 0.7 22.8 16.4 40 16.4c13.9 0 24.2-9 24.2-20.4c0-13.6-11.4-22.8-33.7-31.9c-25-10.1-50-26.1-50-57.4c0-23.7 17.5-51 59.8-51c27.1 0 47.9 13.8 53.2 17.8c2.7 2.1 3.4 5.9 1.6 8.8l-10.1 15.1c-2.2 3.2-6.1 5.4-9.3 3.2c-2.2-1.3-22.4-14.5-37-14.5c-15.1 0-23.4 10-23.4 18.6c0 12.4 9.9 20.9 31.4 29.7c25.8 10.4 55.6 25.8 55.5 59.9z" />
	<path id="Layer" class="s0" d="m1309.8 116.4v180.9h-29.8c-2.8-0.1-5-2.3-5.1-5.1v-180.9h29.8c2.8 0.1 5 2.3 5.1 5.1z" />
	<path id="Layer" fill-rule="evenodd" class="s0" d="m1234 297.2h-36.5c-1.8 0.1-3.5-0.8-4.3-2.4l-35.4-70.4h-29.5v72.9c0 0-29.5 0-29.5 0c-2.8 0-5-2.3-5-5.1v-180.9h81.1c31.7-0.2 57.7 25.4 57.9 57.1c0 24.6-16.2 44.4-39.3 53.7zm-35.8-128.2c0-14.1-12.2-25.8-26.3-25.8h-43.3v52.8h43.3c14.1 0 26.4-12.2 26.3-27z" />
	<path id="Layer" fill-rule="evenodd" class="s0" d="m940.6 297.3h-30.8c-4 0-5.9-1.7-7.7-5.3l-13-28.7h-79.5l-13 28.7c-1.2 3.3-4.3 5.4-7.7 5.3h-30.8l85.8-185.7c0.8-1.8 2.6-3 4.5-2.9h2.8c2-0.2 3.8 1 4.5 2.9zm-64.4-63.5l-26.6-58.5h-0.8l-26.1 58.5z" />
	<path id="Layer" class="s0" d="m1054.5 111.3c2.8 0 5.1 2.3 5 5.1v26.8h-45.7v154.1h-29.7c-2.8-0.1-5-2.3-5.1-5.1v-149h-40.7c-2.8 0-5-2.3-5-5v-26.9h121.2q0 0 0 0z" />
	<path id="Layer" class="s0" d="m731.8 116.4v180.9h-29.8c-2.7-0.1-4.9-2.3-5-5.1v-180.9h29.7c2.8 0.1 5 2.3 5.1 5.1z" />
	<path id="Layer" class="s0" d="m664 110.4l-85.6 185.8c-0.8 1.8-2.6 2.9-4.5 2.9h-2.7c-2 0-3.8-1.1-4.5-2.9l-85.3-185.8h34.8c1.9 0 3.7 1.2 4.5 3l51 114.2h1.8l51-114.2c0.8-1.8 2.6-3 4.6-3z" />
	<path id="Layer" class="s1" d="m287.9 290.4c0.2 0.2 0.2 0.5 0 0.8c-62.6 112-152.8 100.8-179.6 94c-3.1-0.8-6-2-8.6-3.7c-95-57-127.6-179-73.8-275.8c0.1-0.2 0.3-0.3 0.5-0.2c0.2 0 0.5 0.3 0.4 0.5c-21.2 105.6 118.9 294.2 260.3 184.4c0.2-0.2 0.5-0.2 0.8 0z" />
	<path id="Layer" class="s2" d="m238.1 92c0-0.2 0.2-0.5 0.5-0.5c128.4-1.9 163.7 81.8 171.3 108.4c0.8 3 1.3 6.1 1.2 9.2c-2 110.7-91.3 199.8-202.1 201.8c-0.2 0-0.5-0.1-0.5-0.4c-0.1-0.3 0.1-0.5 0.4-0.6c102-34.4 195.3-249.9 29.5-317.4c-0.1-0.1-0.3-0.3-0.3-0.5z" />
	<path id="Layer" class="s0" d="m91 234c-0.3 0.2-0.6 0.1-0.7-0.1c-65.9-110.2-11-182.6 8.3-202.4c2.1-2.3 4.6-4.2 7.3-5.7c97-53.6 219-20.9 276 74c0.2 0.3 0.2 0.6 0 0.8c-0.3 0.1-0.6 0.1-0.8-0.1c-80.8-71.2-314.4-44.2-289.9 133c0 0.2 0 0.4-0.2 0.5z" />
	<path id="Layer" fill-rule="evenodd" class="s0" d="m291.6 165.3c11.7 25 11.9 53.9 0.6 79.1q-0.3 0.6-0.6 1.3c-1.1 2.4-2.3 4.8-3.6 7.1q-0.3 0.5-0.7 1.1c-8.1 13.7-19.6 25.2-33.3 33.3c-45.2 26.8-103.6 11.9-130.3-33.3q-0.4-0.6-0.7-1.1c-1.2-2.3-2.5-4.7-3.6-7.1q-0.3-0.7-0.6-1.3c-11.3-25.2-11.1-54.1 0.6-79.1c0.1-0.4 0.3-0.7 0.5-1.1q1.8-3.7 3.8-7.1l0.8-1.3c7.8-12.8 18.6-23.5 31.4-31.4c44.8-27.4 103.3-13.3 130.7 31.4l0.8 1.3q2.1 3.4 3.8 7.1c0.2 0.4 0.4 0.7 0.5 1.1zm-9.7-1.1h-31.8l0.3 1.1c2.7 11.4 4.3 23.1 4.5 34.8h37.3c-0.7-12.1-4-24-9.6-34.8zm-35.4 44.3h-36.9v35.9h32.6c2.7-11.5 4.1-23.1 4.3-34.9c0-0.3 0-0.8 0-1zm-45.1 35.9v-35.9h-36.9q0 0.5 0 1c0.2 11.8 1.7 23.4 4.3 34.9zm-36.8-44.3h36.8v-35.9h-32q-0.1 0.5-0.3 1.1c-2.7 11.4-4.3 23.1-4.5 34.8zm45-35.9v35.9h36.9c-0.3-11.7-1.8-23.4-4.6-34.8q-0.1-0.6-0.3-1.1zm20.7-41.9q-0.2 0-0.3 0.1c-0.2 0.1-0.2 0.3 0 0.5c7.2 7.9 13.3 19.3 17.7 32.9h29c-11.2-16-27.6-27.9-46.4-33.5zm-20.3-3.2c-0.2 0-0.4 0.2-0.4 0.4v36.3h29.6c-6.6-20-17-33.8-29-36.7q-0.1 0-0.2 0zm-8.6 0.4q0 0 0-0.1c-0.1-0.2-0.3-0.4-0.5-0.3c-12 2.9-22.5 16.7-29.1 36.7h29.6zm-20.3 3c0-0.2-0.2-0.3-0.4-0.2c-18.8 5.6-35.1 17.4-46.4 33.5h29.1c4.3-13.6 10.4-25 17.7-32.9q0.1-0.2 0-0.4zm-62.2 77.6h37.3c0.3-11.7 1.9-23.4 4.6-34.9l0.2-1h-31.7l-0.7 1c-5.6 10.8-9 22.7-9.7 34.9zm-0.1 9.4c0.6 12.2 3.7 24 9.1 34.9h32.6c-2.6-11.5-4.1-23.1-4.3-34.9v-1h-37.3q0 0.5 0 1zm13.9 43.3c11.3 17.2 28.3 29.9 48.1 35.8q0.1 0.1 0.3 0c0.1-0.2 0.1-0.4 0-0.5c-7.5-8.2-13.7-20-18.1-34.2l-0.3-1.1zm68.7 0h-30.3c6.5 21.2 17.3 36.1 29.8 39q0 0.1 0.1 0.1c0.2-0.1 0.4-0.3 0.4-0.5zm8.7 39.1c12.5-3 23.3-17.9 29.8-39.1h-30.3v38.7q0 0 0.1 0.1c0 0.2 0.3 0.4 0.5 0.3zm68.2-39.1h-29.9l-0.3 1.1c-4.4 14.2-10.7 26-18.1 34.2q-0.2 0.2-0.1 0.4c0 0.1 0.2 0.2 0.4 0.2c19.8-5.9 36.8-18.6 48-35.9zm13.9-43.2c0-0.3 0-0.8 0-1.1h-37.3v1.1c-0.2 11.7-1.6 23.4-4.3 34.8h32.5c5.5-10.8 8.6-22.7 9.1-34.8z" />
</svg>