<svg version="1.2" xmlns="http://www.w3.org/2000/svg" viewBox="0 0 1597 500" width="1597" height="500">
	<title>logo-black (1)-svg</title>
	<style>
		.s0 { fill: #000000 } 
	</style>
	<g id="Layer_2">
		<g id="Layer_1-2">
			<path id="Layer" fill-rule="evenodd" class="s0" d="m0 7.6h117.2l126.8 339.6 126.2-339.6h114.7l-195.3 484.9h-94.3zm858.5 244.4v-1.7c-0.5-33.1 5.7-66 18.2-96.7 12.6-30.7 31.2-58.5 54.8-81.8 23.5-23.3 51.6-41.6 82.4-53.7 30.8-12.2 63.8-18 96.9-17.1 91.5 0 146 30.2 191.9 73.8l-67.6 78.1c-38.2-33.8-76.5-53.9-124.7-53.9-81.8 0-140.4 67.2-140.4 149.9v1.2c0 82.6 57.4 151.4 140.4 151.4 55.3 0 88.5-22 127.2-56.4l67.8 68.1c-12.2 14.1-25.9 26.8-41 37.9-15 11.1-31.2 20.4-48.3 27.8-17.1 7.4-35 12.9-53.4 16.3-18.3 3.4-37 4.7-55.6 3.9-32.7 0.7-65.2-5.2-95.6-17.4-30.3-12.1-58-30.3-81.2-53.4-23.2-23-41.5-50.5-53.8-80.8-12.4-30.3-18.5-62.8-18-95.5zm-88.8-237.3c0 0-46.4 4.6-46.4 68.5v333.7c0 64.4 46.7 68.5 46.7 68.5v7.1h-206.7v-7.1c0 0 46-4.1 46-68.5v-333.7c0-63.9-46-68.5-46-68.5v-7.1h206.7v8.1zm826.2 0c0 0-46 4.6-46 68.5v333.7c0 64.4 46.7 68.5 46.7 68.5v7.1h-206.7v-7.1c0 0 45.6-4.1 45.6-68.5v-333.7c0-63.9-45.6-68.5-45.6-68.5v-7h206.7v8.1z"/>
		</g>
	</g>
</svg>