<svg version="1.2" xmlns="http://www.w3.org/2000/svg" viewBox="0 0 1543 658" width="1543" height="658">
	<title>VMC-4Q-2022-Supplemental-Slides-1-pdf-svg</title>
	<defs>
		<clipPath clipPathUnits="userSpaceOnUse" id="cp1">
			<path d="m-265.16-371.47h11984.51v6744.9h-11984.51z"/>
		</clipPath>
	</defs>
	<style>
		.s0 { fill: #002169 } 
	</style>
	<g id="Clip-Path: Page 1" clip-path="url(#cp1)">
		<g id="Page 1">
			<path id="Path 12" fill-rule="evenodd" class="s0" d="m162.4 619.7h-25v-106.2l-23.7 106.2h-26.2l-23.1-106.2v106.2h-25v-127.4h38.7l23.1 100.5 23.1-100.5h38.1zm93-18.2c0 11.3 2.5 13.8 5 14.4v3.8h-26.2c-1.3-4.4-1.3-5.7-1.9-10.7-5.6 5.7-13.1 13.1-29.9 13.1-13.8 0-28.1-7.4-28.1-26.8 0-18.1 11.2-27.5 26.8-30l21.9-3.1c3.7-0.6 8.7-1.9 8.7-7.5 0-10-10-10.6-16.2-10.6-11.9 0-13.8 7.5-15 13.1h-23.1c2.5-28.7 22.5-32.5 41.2-32.5 13.1 0 36.8 3.8 36.8 26.9zm-23.7-26.9c-2.5 1.9-6.2 3.1-16.9 5-8.7 1.3-16.2 3.8-16.2 13.8 0 8.7 6.9 11.2 11.2 11.2 10.7 0 21.9-6.9 21.9-18.1zm68-48.7h15.6v17.5h-15.6v51.2c0 5 0.7 7.5 10.6 7.5q1.9 0 5-0.7v18.8q-6.2 0.6-11.8 0.6h-3.1c-21.3 0-25-8.1-25-20.6v-56.8h-12.5v-17.5h12.5v-25.6h24.3zm106.1 66.8c-6.2 21.9-24.9 29.3-41.2 29.3-26.2 0-46.1-12.4-46.1-50.5 0-11.3 3.7-46.9 44.9-46.9 18.1 0 43.7 8.8 43.7 51.2v4.4h-64.3c0.6 6.9 2.5 22.5 21.8 22.5 6.9 0 14.4-3.8 16.3-10zm-24.4-28.7c-1.2-15-11.2-19.4-19.3-19.4-11.3 0-17.5 7.5-18.7 19.4zm34.9-38.8h23.7v16.3c5.7-9.4 11.3-18.8 26.2-18.8q1.9 0 4.4 0.7v25c-1.9-0.7-4.4-0.7-6.8-0.7-19.4 0-22.5 12.5-22.5 23.1v48.7h-25zm63.1 1.3h24.3v93.1h-24.3zm0-33.8h24.3v22.5h-24.3zm119.8 108.7c0 10.6 2.5 13.1 5.6 14.3v3.8h-26.8c-1.3-4.4-1.9-6.3-2.5-11.3-5.6 5.7-13.1 13.8-30 13.8-14.3 0-28.7-8.1-28.7-27.5 0-18.1 11.9-27.5 27.5-29.3l21.8-3.8c4.4 0 8.8-1.9 8.8-6.9 0-10.6-10-11.2-16.3-11.2-12.5 0-14.3 7.5-14.9 13.1h-23.8c2.5-28.7 22.5-32.5 41.9-32.5 13.1 0 37.4 3.8 37.4 26.9zm-24.3-27.5c-2.5 1.9-6.3 3.8-16.9 5-8.7 1.9-16.2 4.4-16.2 14.4 0 8.1 6.2 11.2 11.2 11.2 10.6 0 21.9-7.5 21.9-18.7zm40.5-81.2h25v126.8h-25zm95.5 61.8c-1.2-5.6-3.1-11.9-16.8-11.9-13.1 0-15 5-15 8.8 0 15 58.7 4.3 58.7 38.7 0 26.9-26.9 31.8-41.2 31.8-21.2 0-44.3-7.4-45-32.4h25.6c0 8.1 4.4 13.7 20 13.7 13.1 0 15.6-6.2 15.6-9.4 0-15.6-58-3.7-58-38.7 0-13.7 8.7-31.2 38-31.2 18.1 0 40 4.4 41.9 30.6zm164.7-20.6c-1.8-7.5-6.2-21.2-28-21.2-12.5 0-31.3 8.1-31.3 43.7 0 22.5 9.4 43.1 31.3 43.1 14.9 0 24.9-8.2 28-23.8h26.3c-5 27.5-23.1 46.2-54.3 46.2-33.8 0-58.1-22.4-58.1-66.2 0-43.7 25.6-66.2 58.1-66.2 38 0 53 26.3 54.3 44.4zm82.4 88c-25.6 0-48.1-15.6-48.1-49.9 0-33.7 22.5-49.4 48.1-49.4 24.9 0 48 15.7 48 49.4 0 34.3-23.1 49.9-48 49.9zm0-78.6c-19.4 0-23.1 16.8-23.1 28.7 0 12.5 3.7 28.7 23.1 28.7 18.7 0 22.4-16.2 22.4-28.7 0-11.9-3.7-28.7-22.4-28.7zm192.8 76.1h-24.3v-56.2c0-14.3-6.3-18.7-13.7-18.7-12.5 0-16.9 8.1-16.9 19.4v55.5h-25v-56.2c0-7.5 0-18.7-15-18.7-11.2 0-14.9 8.1-14.9 18.1v56.8h-25v-93h23.7v13.7h0.6c3.2-6.2 10-16.2 26.3-16.2 13.7 0 19.9 5 26.2 15 3.7-4.4 10.6-15 25.6-15 18.1 0 32.4 10.6 32.4 31.2zm40-79.3h0.6c4.4-7.5 11.2-16.2 28.1-16.2 20.6 0 38.7 15.6 38.7 48.1 0 25.6-11.2 49.9-39.3 49.9-17.5 0-23.8-9.3-26.3-14.3h-0.6v48h-24.9v-129.2h23.7zm21.8 61.8c16.2 0 20.6-16.9 20.6-28.1 0-14.4-5.6-28.1-21.2-28.1-16.9 0-21.2 15-21.2 29.3 0 14.4 6.2 26.9 21.8 26.9zm133-0.6c0 11.2 2.5 13.7 5.6 14.3v3.8h-26.8c-1.3-4.4-1.9-5.6-2.5-10.6-5.7 5.6-13.2 13.1-30 13.1-14.4 0-28.7-7.5-28.7-26.9 0-18.1 11.8-27.5 27.4-30l21.9-3.1c4.4-0.6 8.7-1.8 8.7-7.5 0-10-10-10.6-16.2-10.6-12.5 0-14.4 7.5-15 13.1h-23.7c2.5-28.7 22.5-32.4 41.8-32.4 13.1 0 37.5 3.7 37.5 26.8zm-24.4-27.5c-2.5 1.9-6.2 3.8-16.8 5-8.8 1.9-16.3 4.4-16.3 14.4 0 8.1 6.3 11.2 11.3 11.2 10.6 0 21.8-7.5 21.8-18.7zm125.5 45.6h-24.4v-56.8c0-6.9-0.6-18.2-16.2-18.2-11.2 0-19.3 7.5-19.3 21.3v53.1h-25v-92.5h23.7v13.8h0.6c3.2-5.6 10-16.3 28.1-16.3 18.1 0 32.5 10.7 32.5 31.3zm63.7-1.3c-11.3 35-14.4 39.4-35.6 39.4-3.1 0-7.5 0-11.3-0.7v-19.3q1.9 0 5 0c8.8 0 13.8-1.3 16.3-13.8l-34.4-98.6h26.9l20 69.9h0.6l18.7-69.9h25.6zm-1072.4-274.8c0 27.4 8.8 38.7 26.2 38.7 18.1 0 26.9-11.3 26.9-38.1v-234.8h110.5v246c0 50-5 66.9-22.5 85-20 20.6-36.2 24.3-94.3 24.3h-40.5c-58.1 0-74.9-3.7-94.3-24.3-17.5-18.8-21.8-34.4-21.8-84.3v-246.7h109.8zm191.7-342.3h111.1v464h-111.1zm317 191.2h-36.2c-26.8 0.6-31.8 8.1-31.8 46.2v113c0 23.1 8.1 30 33.7 30h34.3v83h-100.4c-65.6 0-78.1-12.4-78.7-79.9v-219.2c0-42.5 19.4-56.2 78.7-56.2h100.4z"/>
			<path id="Path 13" fill-rule="evenodd" class="s0" d="m1131.2 106.9v38.1q-5.7-7.5-8.8-10.6c-18.7-24.4-28.1-28.7-65.5-28.7h-23.7c-45.6 0-61.8 20-61.8 76.8v191.1c0 76.2 13.7 92.4 76.7 92.4h21.9c33.7 0 43.1-5.6 61.2-39.9v38.7h109.8v-357.9zm-0.6 233c0 26.8-7.5 39.9-24.3 39.9-16.3 0-24.4-12.5-24.4-39.9v-110.6c0-28.1 8.1-40.6 24.4-40.6 16.8 0 24.3 12.5 24.3 40.6zm139.8-232.9v357.2h111.1v-234.2c0-28.7 8.1-41.2 25-41.2 16.8 0 26.2 13.1 26.2 40v235.4h109.9v-278.5c-0.7-65.6-15-80-82.4-80-43.1 0-60.6 8.1-78.7 38.7v-37.4zm-1142.3-106.2h-126c0 0-4.4 141.8 1.2 234.8 7.5 111.8 81.2 231.1 81.2 231.1h136l2.5 0.6c0 0 73.7-118.6 80.5-230.4 6.3-93.7 1.9-236.1 1.9-236.1h-126.1c0 0-1.2 229.2-2.5 253.6-4.3 74.9-24.3 109.3-24.3 109.3 0 0-20-31.9-24.4-107.5-1.2-24.3 0-255.4 0-255.4z"/>
		</g>
	</g>
</svg>