<svg version="1.2" xmlns="http://www.w3.org/2000/svg" viewBox="0 0 1585 541" width="1585" height="541">
	<title>Wabtec-Corporation-svg</title>
	<style>
		.s0 { fill: #231f20 } 
		.s1 { fill: #ed1c24 } 
	</style>
	<path id="Layer" fill-rule="evenodd" class="s0" d="m588.2 160.5h69.8l-9.7 124h0.6l44.6-124h80.8l-8.4 124h0.6l43-124h69.8l-84.5 197.2h-84.4l8.8-127.8h-0.5l-45.4 127.8h-84.5zm338.2 97.9c1.4-6.8-2.6-11-10.5-11-8 0-13.2 2.8-16.4 14.2h-54.7c10.1-36.8 45.6-44.8 80.3-44.8 52.5 0 65.9 16.7 59.1 48.7l-19.7 93h-57.8l1.1-13.1q-4.2 4.2-9.2 7.4-4.9 3.3-10.4 5.5-5.5 2.2-11.3 3.2-5.9 1-11.8 0.8c-27.9 0-44.3-15.2-38.6-42.3 7.2-33.8 37.4-47.7 88.8-47.7h7.9zm-8.7 39.4h-8.9c-17.5 0-22.8 7.2-24.7 15.9-1.8 8.7 2.2 14.2 12.3 14.2 11.4 0 16.6-7.3 19-18.6zm102.1-137.1h66.1l-15.4 72.6q4.4-4.1 9.6-7.3 5.2-3.2 10.8-5.4 5.7-2.1 11.7-3.2 6-1.1 12-1c29.8 0 52.2 19.1 41.2 71-10.3 49.1-39.6 74.4-72.8 74.4-3.8 0.4-7.7 0.2-11.4-0.5-3.8-0.8-7.4-2-10.8-3.8-3.4-1.8-6.5-4-9.2-6.6-2.8-2.7-5.2-5.7-7.1-9l-4.4 15.8h-62.2zm37.2 134.8q-0.7 3.3-1 6.6-0.4 3.3-0.5 6.6 0 3.4 0.2 6.7c1.1 4.1 3.4 7.4 10.7 7.4 14.2 0 19.1-15.2 23.1-33.8 4.5-21.8 5.1-33.8-8.5-33.8-1.8 0.1-3.7 0.4-5.5 1-1.7 0.7-3.4 1.5-4.9 2.7-1.5 1.1-2.8 2.4-3.9 3.9-1.1 1.5-2 3.2-2.6 5q-0.9 2.6-1.7 5.2-0.9 2.6-1.6 5.3-0.7 2.7-1.2 5.4-0.6 2.7-1 5.4-1 3.2-1.6 6.4zm121.1-34.6h-17.8l8.5-40.4h17.7l4.8-22.1 70.9-22.9-9.4 45h29.7l-8.5 40.4h-29.7l-8.9 42.2c-2.2 10.4 0 14 8.4 14q2.1 0 4.1 0 2.1-0.1 4.1-0.3 2.1-0.2 4.1-0.6 2.1-0.3 4.1-0.8l-8.5 40.5q-5.5 1.3-11.2 2.3-5.6 1-11.3 1.7-5.6 0.8-11.3 1.3-5.7 0.5-11.4 0.7c-25.4 0-47.8-8-41.3-38.6zm239.7 52.8c-11.5 31.2-38.9 48.1-90.2 48.1-40.2 0-72.3-18.1-60.6-73.6 10.1-47.2 47.2-71.8 96.4-71.8 47.4 0 67.5 22.2 62.7 63.4 12.5-41.5 48-63.1 93.5-63.1 53.3 0 70.4 23.3 64.4 60.4l-60.9-0.4c3.1-16.9 2.9-26.4-8.4-26.4-11.4 0-17.6 5.7-25.4 40.7-6.8 32-2.4 36.9 7.7 36.9 10.1 0 15.4-8 20.5-25.4h61.1c-8.4 38.3-37.2 59.6-91.5 59.6-39.4 0-69.9-15.3-65.2-61h-94.2l-1 4.1c-3.1 15.8 0.7 22.7 13.8 22.7 2.1-0.1 4.2-0.5 6.3-1.2 2-0.6 3.9-1.6 5.6-2.9 1.7-1.3 3.3-2.8 4.5-4.5 1.3-1.7 2.3-3.6 3-5.6zm-49.4-41.5l0.4-2c2.8-13.1-2.6-19.9-13-19.9-2.7 0-5.4 0.6-7.9 1.6-2.5 0.9-4.8 2.4-6.8 4.2-2 1.8-3.7 4-4.9 6.4-1.3 2.4-2 5-2.3 7.7v2zm-747.6 168.5c0.9-5.9-4.6-9.8-11-9.8-15.2 0-20.9 13.9-23.3 24.8-2.7 12.7-1.4 24.8 12 24.8q2.5 0.1 4.9-0.5 2.4-0.6 4.5-1.9 2.1-1.4 3.8-3.2 1.6-1.9 2.5-4.2h9c-1.1 2.6-2.6 5-4.4 7.2-1.9 2.1-4 4-6.4 5.5-2.4 1.5-5 2.6-7.8 3.3-2.7 0.7-5.5 1-8.4 0.9-18.2 0-22.3-14.9-18.6-32.2 3.3-15.1 13.6-32.8 33.8-32.1 11.8 0 19.4 6.1 18 16.9zm35.1 15c4.1-18.1 16-32.1 35.3-32.1 19.2 0 25.2 14.1 21.4 32.1-3.8 18-15.7 32.1-35 32.1-19.3 0-25.3-14.1-21.4-32.1zm23.2 24.8c16.1 0 21.6-11.6 24.5-24.8 3-13.2 2.2-24.8-13.9-24.8-16 0-21.7 11.6-24.5 24.8-2.7 12.7-2.1 24.8 13.9 24.8zm75.1-21.9l-6 27.9h-8.4l13.2-61.8h21.9c10.4 0 20.4 3.3 17.9 15.5q-0.6 2.8-1.9 5.3-1.4 2.6-3.4 4.6-2 2-4.5 3.4-2.6 1.3-5.4 1.8c6.8 1.8 7.3 5.8 6.8 12.6q-0.3 2.4-0.4 4.7-0.1 2.3-0.1 4.6 0 2.4 0.1 4.7 0.1 2.3 0.4 4.6h-9.1c0-3.6 0-7.7 0-11.4 0.5-5.1 1-10.7-0.6-13.6-1.6-2.9-5.1-2.9-8.5-2.9zm1.9-7.2h14.1c9.5-0.5 12.7-4.7 13.7-9.6 1-4.9-0.3-9.1-9.6-9.5h-14.5zm75.1-25.7h20.7c11.6-0.9 20.2 4.4 17.7 16.9-2.6 12.5-14 16.9-25.4 16.9h-11.6l-5.8 27.1h-8.4zm16.5 26.5c1.5 0.1 3-0.1 4.5-0.5 1.4-0.4 2.8-1.1 4-2 1.2-0.9 2.2-2 3-3.3 0.8-1.3 1.4-2.7 1.7-4.2 2.2-10.4-7.9-9.9-9-9.9h-13.4l-4.2 19.9zm83.4-28.5c19.1 0 25.2 14.1 21.3 32.1-3.9 18-15.8 32.1-35 32.1-19.3 0-25.2-14.1-21.4-32.1 3.9-18.1 15.9-32.1 35.1-32.1zm-12.2 56.9c15.6 0 21.7-11.6 24.6-24.8 2.8-13.2 2-24.8-14-24.8-16.1 0-21.8 11.6-24.5 24.8-2.7 12.8-1.7 24.8 13.9 24.8zm74.9-21.6l-5.9 27.9h-8.4l13-61.7h22.1c10.3 0 20.3 3.2 17.7 15.5q-0.5 2.7-1.9 5.2-1.3 2.4-3.3 4.4-1.9 2-4.4 3.3-2.4 1.3-5.1 1.9c7.1 1.7 7.2 5.7 6.6 12.6q-0.2 2.3-0.4 4.6-0.1 2.3-0.1 4.7 0 2.3 0.1 4.6 0.2 2.3 0.4 4.7h-9.2c0-3.7 0-7.7 0-11.4 0.4-5.2 1-10.8-0.6-13.7-1.6-2.8-5-2.8-8.4-2.8zm1.6-7.6h14.1c9.5-0.5 12.7-4.7 13.7-9.6 1-4.9-0.2-9.1-9.6-9.5h-14.2zm56 35.2l39.1-61.7h9.1l11.8 61.7h-9.3l-3.3-16.1h-28.6l-10.1 16.1zm23.4-23.4h23l-4.9-29.8zm86-31h-20.7l1.6-7.3h49.9l-1.6 7.3h-20.7l-11.5 54.4h-8.5zm47.7 54.3l13.1-61.7h8.5l-13.2 61.7zm84.1-63c19.3 0 25.2 14.2 21.4 32.2-3.8 18-15.9 32.1-35 32.1-19.2 0-25.2-14.1-21.3-32.1 3.8-18.1 15.7-32.2 34.9-32.2zm-12 56.9c16 0 21.5-11.5 24.5-24.7 2.9-13.2 2.1-24.8-14-24.8-16 0-21.7 11.6-24.5 24.8-2.4 12.7-2.1 24.7 14 24.7zm124.4-55.6l-13.1 61.7h-10.6l-20.1-52.4-11.1 52.4h-7.6l13.1-61.7h11.7l19.3 50.7 10.9-50.7z"/>
	<path id="Layer" class="s1" d="m470.3 118.2c40 60.8 54 135.1 38.8 206.2-15.1 71.2-58 133.4-119.2 172.7-61.2 39.3-135.6 52.5-206.5 36.6l6.7-31.7c-30.9-6.5-60.1-19.1-86-37-26-17.8-48.2-40.6-65.3-67.1-17.2-26.4-29-55.9-34.7-86.9-5.7-31-5.3-62.9 1.2-93.7l21.1 4.5c-18.4 86.4 17.1 175.5 89.9 225.5 72.7 50.1 168.5 51.3 242.6 3.2 74-48.1 111.8-136.2 95.7-223.1-16.1-86.9-82.9-155.5-169.3-173.9l11.2-52.8c71.3 14.4 133.9 56.7 173.8 117.5zm-254.8 19c-17.1 3.2-33.4 9.7-48 19.1-14.6 9.5-27.2 21.7-37.1 36.1-9.9 14.3-16.8 30.5-20.4 47.5l-52.6-11.2c15.6-73.5 74-130.3 147.8-144 73.8-13.7 148.7 18.4 189.6 81.4 41 63 40.1 144.4-2.4 206.5-42.4 62-117.9 92.4-191.5 76.9l4.6-21c21.1 4.5 42.9 4.7 64.2 0.8 21.2-4 41.5-12.1 59.6-23.8 18.1-11.8 33.7-27 46-44.8 12.2-17.8 20.8-37.9 25.3-59l-31.6-6.7c3.6-17 3.9-34.5 0.7-51.6-3.2-17.1-9.7-33.4-19.1-48-9.5-14.5-21.7-27.1-36-37-14.3-9.8-30.4-16.7-47.4-20.4-17-3.6-34.6-3.9-51.7-0.8zm96.4 161.4c6.1-14.3 7.9-30 5.1-45.3-2.8-15.3-10.1-29.3-20.9-40.5-10.8-11.1-24.7-18.8-39.8-22l-6.8 31.6c-11.9-2.5-24.4-0.2-34.6 6.4-10.3 6.7-17.5 17.1-20 29.1-2.5 11.9-0.2 24.4 6.4 34.7 6.7 10.2 17.1 17.4 29 20l-6.6 31.6-4.5 21c-46.6-9.9-79.8-51.4-79.2-99.1 0.7-47.7 34.9-88.3 81.7-97 46.9-8.7 93.4 17 111.1 61.3 17.6 44.3 1.6 94.9-38.4 120.9l-11.9-17.9c13-8.4 23.2-20.6 29.4-34.8z"/>
</svg>