<svg version="1.2" xmlns="http://www.w3.org/2000/svg" viewBox="0 0 1534 352" width="1534" height="352">
	<title>Walgreens_Boots_Alliance-svg</title>
	<style>
		.s0 { fill: #43beac } 
		.s1 { fill: #56aee1 } 
		.s2 { fill: #91aedb } 
		.s3 { fill: #8fc73e } 
		.s4 { fill: #232c64 } 
	</style>
	<g id="logo_main">
		<g id="logo">
			<path id="path2" fill-rule="evenodd" class="s0" d="m289.7 200.6c0.4-8.2 0.6-16.6 0.6-24.8 0-8.2-0.2-16.6-0.6-24.8 8.5 0.4 16.8 0.9 24.9 1.4 0.5 7.8 0.8 15.6 0.8 23.4 0 7.7-0.3 15.6-0.8 23.4-8 0.5-16.4 1-24.9 1.4zm-56.5 109.1c1.1-7.9 2-16.1 2.9-24.4 13.1-1.8 26-4.1 38.3-7.1-2.1 8.3-4.5 16.4-7.1 24.1-11 3-22.4 5.4-34.1 7.4zm-32 41.9c1-10.9 1.9-22.6 2.7-34.8 8.4-0.7 16.8-1.5 25-2.8-1.6 11.6-3.4 22.6-5.4 33-7.3 2.1-14.9 3.6-22.3 4.6zm-137-151c-8.5-0.4-16.9-0.9-24.9-1.4-0.5-7.8-0.8-15.7-0.8-23.4 0-7.8 0.3-15.6 0.8-23.4 8.1-0.5 16.4-1 24.9-1.4-0.4 8.2-0.6 16.6-0.6 24.8 0 8.2 0.2 16.6 0.6 24.8zm112.8 35.9c-9 0-17.9-0.1-26.8-0.3-0.3-9.6-0.5-19.4-0.6-29.4 9.2 0.1 18.4 0.2 27.4 0.2 9 0 18.2-0.1 27.3-0.2-0.1 10-0.3 19.8-0.6 29.4-8.9 0.2-17.8 0.3-26.7 0.3zm59-123.7c-9.4-0.4-19-0.9-28.7-1.1-0.4-15.2-0.9-30.2-1.6-44.6 9.1 0.6 18.1 1.3 27 2.5 1.4 14 2.5 28.6 3.3 43.2zm-156.5-39.5c2.1-8.3 4.5-16.4 7.1-24.1 10.9-2.9 22.4-5.4 34-7.3-1 7.9-2 16.1-2.8 24.4-13.2 1.8-26 4.2-38.3 7zm124.8 71.4c-9-0.1-18.2-0.1-27.3-0.1-9.2 0-18.4 0-27.4 0.1 0.1-9.9 0.3-19.7 0.6-29.3 8.9-0.2 17.8-0.3 26.8-0.3 8.9 0 17.8 0.1 26.7 0.3 0.3 9.6 0.5 19.4 0.6 29.3zm-149.7 146.8q-10.2-4.1-19.4-8.8c-6-8-11.4-16.4-16-25.2 8.7 4.2 18.1 8 28 11.4 2.2 7.7 4.7 15.3 7.4 22.6zm280.1-197.4c-8.7-4.2-18.1-8-28-11.4q-3.3-11.7-7.4-22.6 10.2 4 19.4 8.8c6 7.9 11.4 16.4 16 25.2z"/>
			<path id="path4" fill-rule="evenodd" class="s1" d="m315.3 227.7c1.3-8.3 2.1-16.6 2.8-25 12.2-0.8 23.8-1.7 34.8-2.7-1 7.5-2.5 15-4.5 22.3-10.4 1.9-21.5 3.8-33.1 5.4zm-35.9 45.5c3-12.3 5.3-25.2 7.1-38.3 8.3-0.9 16.5-1.9 24.4-2.9-1.9 11.7-4.3 23.1-7.3 34-7.7 2.6-15.8 5.1-24.2 7.2zm-73.7 11.3c0.7-14.4 1.2-29.4 1.6-44.6 9.7-0.3 19.3-0.6 28.7-1.1-0.8 14.7-2 29.2-3.3 43.2-8.9 1-17.9 1.9-27 2.5zm-91.8-49.7c-14.7-0.8-29.2-2-43.2-3.3-1.1-8.9-2-17.9-2.6-27 14.3 0.7 29.3 1.2 44.7 1.6 0.3 9.7 0.7 19.3 1.1 28.7zm38.8 116.8c-7.4-1-15-2.5-22.3-4.6-1.9-10.4-3.8-21.4-5.4-33 8.2 1.3 16.6 2.1 25 2.8 0.9 12.2 1.7 23.9 2.7 34.8zm158.3-232c-7.9-1.1-16.1-2-24.5-2.9-1.8-13.1-4.1-25.9-7-38.3 8.3 2.1 16.4 4.5 24.1 7.1 3 11 5.4 22.4 7.4 34.1zm-82.1-82.1c-8.2-1.2-16.6-2.1-25-2.7-0.8-12.2-1.7-23.9-2.7-34.8 7.4 1 15 2.5 22.3 4.5 1.9 10.4 3.8 21.5 5.4 33zm-227.9 114.1c1-7.5 2.5-15 4.5-22.3 10.4-1.9 21.5-3.8 33.1-5.4-1.3 8.2-2.1 16.6-2.8 25-12.2 0.8-23.9 1.7-34.8 2.7zm67.1-4.5c0.6-9.1 1.4-18.2 2.6-27 14-1.4 28.5-2.5 43.2-3.3-0.4 9.4-0.9 19-1.1 28.6-15.2 0.4-30.2 1-44.7 1.7zm133.7-84c-8.3-0.4-16.6-0.6-24.8-0.6-8.3 0-16.6 0.2-24.9 0.6 0.4-8.4 0.9-16.8 1.4-24.9 7.9-0.5 15.7-0.7 23.5-0.7 7.7 0 15.5 0.2 23.4 0.7 0.5 8.1 1 16.5 1.4 24.9zm-106.6 270.2c-8.8-4.6-17.3-9.9-25.3-15.9q-4.7-9.2-8.8-19.4c7.3 2.8 14.9 5.2 22.6 7.4q5.2 14.8 11.5 27.9zm197.6-279.8c-7.3-2.7-14.9-5.1-22.6-7.3-3.4-9.9-7.3-19.3-11.5-28 8.8 4.6 17.3 9.9 25.3 16 3 6.1 6.1 12.7 8.8 19.3z"/>
			<path id="path6" fill-rule="evenodd" class="s2" d="m74.4 273.1c-8.3-2.1-16.4-4.5-24.1-7.1-3-10.9-5.4-22.3-7.3-34 7.9 1 16.1 2 24.4 2.9 1.8 13.1 4.1 26 7 38.2zm71.5-70c-9.9-0.1-19.7-0.3-29.4-0.6-0.2-8.9-0.3-17.8-0.3-26.7 0-8.9 0.1-17.9 0.3-26.8 9.7-0.3 19.5-0.4 29.4-0.6-0.1 9.2-0.2 18.3-0.2 27.4 0 9 0.1 18.2 0.2 27.3zm31.1 111c-7.8 0-15.6-0.3-23.5-0.8-0.5-8.1-1-16.4-1.4-24.9 8.3 0.5 16.7 0.7 24.9 0.7 8.1 0 16.5-0.2 24.8-0.7-0.4 8.5-0.9 16.9-1.4 24.9-7.9 0.5-15.7 0.8-23.4 0.8zm108.8-167c-14.4-0.7-29.4-1.2-44.7-1.7-0.2-9.6-0.6-19.2-1.1-28.6 14.7 0.8 29.2 1.9 43.2 3.3 1.1 8.8 2 17.9 2.6 27zm-160.8-109.6c1.6-11.5 3.4-22.6 5.4-33 7.3-2 14.8-3.5 22.3-4.5-1 10.9-1.9 22.6-2.7 34.8-8.4 0.6-16.8 1.5-25 2.7zm174.3 254c2.8-7.3 5.2-14.9 7.4-22.6 9.9-3.4 19.3-7.2 28-11.4q-6.9 13.2-16 25.2c-6.2 3.1-12.7 6.1-19.4 8.8zm-280.1-197.4q6.9-13.3 16-25.2 9.2-4.8 19.4-8.8c-2.8 7.3-5.2 14.9-7.4 22.6q-14.8 5.1-28 11.4z"/>
			<path id="path8" fill-rule="evenodd" class="s3" d="m239.9 234.8c0.5-9.4 0.9-19 1.1-28.6 15.4-0.4 30.4-0.9 44.7-1.6-0.6 9.1-1.5 18.1-2.5 26.9-14 1.4-28.5 2.5-43.3 3.3zm-31.9-31.7c0.1-9.1 0.2-18.3 0.2-27.3 0-9.1-0.1-18.2-0.2-27.4 9.9 0.2 19.7 0.4 29.4 0.6 0.2 8.9 0.3 17.9 0.3 26.8 0 8.9-0.1 17.8-0.3 26.7-9.6 0.3-19.5 0.5-29.4 0.6zm-169.4 24.6c-11.6-1.6-22.7-3.4-33.1-5.4-2-7.3-3.5-14.8-4.5-22.3 11 1 22.6 1.9 34.8 2.7 0.6 8.4 1.5 16.8 2.8 25zm82 81.9c-11.7-1.9-23.1-4.3-34.1-7.3-2.6-7.7-5-15.7-7.1-24.1 12.4 3 25.2 5.3 38.4 7.1 0.8 8.2 1.8 16.5 2.8 24.3zm27.6-25.1c-9.1-0.5-18.1-1.4-27-2.5-1.3-14-2.5-28.5-3.3-43.2 9.4 0.4 19 0.8 28.7 1.1 0.3 15.2 0.9 30.2 1.6 44.6zm204.7-132.9c-11-1-22.6-1.9-34.8-2.7-0.7-8.4-1.5-16.8-2.8-25 11.6 1.6 22.7 3.4 33.1 5.4 2 7.3 3.5 14.8 4.5 22.3zm-78.4-78.2c-12.4-2.9-25.2-5.3-38.4-7-0.8-8.4-1.8-16.5-2.8-24.4 11.6 1.8 23 4.3 34 7.3 2.6 7.7 5 15.8 7.2 24.1zm-231.5 46.1c1.9-11.7 4.3-23.1 7.3-34 7.7-2.6 15.8-5.1 24.1-7.2-2.9 12.4-5.3 25.2-7 38.4-8.3 0.8-16.5 1.8-24.4 2.8zm74.9-6.7c0.8-14.7 2-29.2 3.3-43.2 8.9-1.1 17.9-1.9 27-2.5-0.7 14.3-1.2 29.3-1.6 44.6-9.7 0.3-19.3 0.7-28.7 1.1zm140.8 220.5c4.2-8.6 8-18 11.5-27.9q11.6-3.3 22.6-7.4-4.1 10.2-8.8 19.4c-8 6-16.5 11.3-25.3 15.9zm-197.6-279.8q4.1-10.1 8.8-19.3c8-6.1 16.5-11.4 25.3-16-4.2 8.7-8 18.1-11.5 28-7.7 2.2-15.3 4.7-22.6 7.3z"/>
		</g>
		<g id="text">
			<path id="path850" fill-rule="evenodd" class="s4" d="m470.2 184.9l10.5-51.2h11.7l-15.7 68h-11.3l-12.9-49.6-13.3 49.6h-11.3l-15.7-68h11.7l10.6 51.1 13-51.1h9.9zm59.9 16.8q-0.8-1.4-1.4-4.7-5.4 5.6-13.2 5.6-7.7 0-12.5-4.3-4.8-4.3-4.8-10.7 0-8.1 6-12.4 6-4.4 17.2-4.4h7v-3.3q0-3.9-2.2-6.2-2.2-2.4-6.7-2.4-3.9 0-6.4 1.9-2.4 2-2.4 4.9h-11.4q0-4.1 2.7-7.7 2.8-3.7 7.5-5.7 4.8-2.1 10.6-2.1 8.9 0 14.2 4.5 5.3 4.5 5.4 12.5v22.8q0 6.9 2 10.9v0.8zm-12.5-8.2q3.3 0 6.3-1.6 3-1.6 4.5-4.4v-9.5h-6.2q-6.3 0-9.4 2.2-3.2 2.2-3.2 6.2 0 3.3 2.1 5.2 2.2 1.9 5.9 1.9zm36.2-63.5h11.4v71.7h-11.4zm23.2 46.1q0-11.8 5.5-18.8 5.5-7 14.7-7 8.7 0 13.6 6l0.5-5.1h10.3v49q0 10-6.2 15.7-6.2 5.8-16.7 5.8-5.6 0-10.9-2.4-5.3-2.3-8.1-6l5.4-6.8q5.2 6.2 12.9 6.2 5.7 0 8.9-3.1 3.3-3 3.3-9v-3.4q-4.9 5.5-13.1 5.5-8.9 0-14.5-7.1-5.6-7-5.6-19.5zm11.3 1q0 7.6 3.1 12 3.1 4.3 8.6 4.3 6.9 0 10.2-5.8v-22.3q-3.2-5.7-10.1-5.7-5.6 0-8.7 4.4-3.1 4.5-3.1 13.1zm72.9-15.5q-2.3-0.4-4.7-0.4-7.8 0-10.5 6v34.6h-11.3v-50.6h10.8l0.3 5.7q4.1-6.6 11.4-6.6 2.4 0 4 0.6zm30 41.1q-10.8 0-17.5-6.7-6.7-6.8-6.7-18.2v-1.4q0-7.5 2.9-13.5 2.9-5.9 8.2-9.2 5.3-3.4 11.8-3.4 10.3 0 15.9 6.6 5.7 6.6 5.7 18.7v4.5h-33.1q0.6 6.3 4.2 9.9 3.7 3.7 9.3 3.7 7.8 0 12.7-6.3l6.1 5.8q-3 4.5-8.1 7.1-5.1 2.4-11.4 2.4zm-1.3-43.3q-4.7 0-7.6 3.3-2.9 3.3-3.7 9.1h21.7v-0.8q-0.4-5.7-3.1-8.6-2.6-3-7.3-3zm54.1 43.3q-10.8 0-17.5-6.7-6.7-6.8-6.7-18.2v-1.4q0-7.5 2.9-13.5 3-5.9 8.2-9.2 5.3-3.4 11.8-3.4 10.4 0 16 6.6 5.6 6.6 5.6 18.7v4.5h-33q0.5 6.3 4.1 9.9 3.7 3.7 9.3 3.7 7.8 0 12.7-6.3l6.1 5.8q-3 4.5-8.1 7.1-5.1 2.4-11.4 2.4zm-1.3-43.3q-4.7 0-7.6 3.3-2.8 3.3-3.6 9.1h21.6v-0.8q-0.4-5.7-3-8.6-2.7-3-7.4-3zm42.4-8.1l0.3 5.8q5.7-6.8 14.8-6.8 15.8 0 16.1 18.1v33.4h-11.4v-32.7q0-4.8-2.1-7.1-2.1-2.4-6.8-2.4-6.9 0-10.2 6.2v36h-11.4v-50.5zm72.5 36.8q0-3.1-2.5-4.6-2.5-1.6-8.3-2.8-5.8-1.3-9.7-3.1-8.5-4.1-8.5-11.9 0-6.6 5.5-11 5.6-4.4 14.1-4.4 9 0 14.6 4.5 5.6 4.5 5.6 11.7h-11.3q0-3.3-2.5-5.5-2.4-2.2-6.4-2.2-3.8 0-6.2 1.8-2.3 1.7-2.3 4.6 0 2.6 2.2 4.1 2.2 1.4 8.9 2.9 6.7 1.4 10.5 3.5 3.8 2 5.6 4.9 1.9 2.8 1.9 6.9 0 6.8-5.7 11-5.6 4.2-14.8 4.2-6.2 0-11.1-2.2-4.8-2.2-7.5-6.2-2.8-3.9-2.8-8.4h11.1q0.2 4 3 6.2 2.8 2.1 7.5 2.1 4.4 0 6.8-1.6 2.3-1.8 2.3-4.5zm48.9 13.7v-68h23.3q11.6 0 17.6 4.6 6 4.6 6 13.8 0 4.7-2.5 8.4-2.5 3.7-7.4 5.8 5.5 1.5 8.5 5.7 3.1 4.1 3.1 9.9 0 9.5-6.2 14.7-6.1 5.1-17.6 5.1zm11.9-30.7v21.3h13.1q5.6 0 8.7-2.8 3.1-2.7 3.1-7.6 0-10.6-10.8-10.9zm0-8.7h11.6q5.5 0 8.6-2.4 3.1-2.6 3.1-7.1 0-5.1-2.9-7.3-2.8-2.3-8.9-2.3h-11.5zm46.8 13.7q0-7.5 2.9-13.4 3-6 8.3-9.1 5.3-3.3 12.2-3.3 10.3 0 16.6 6.6 6.4 6.6 7 17.5v2.6q0 7.5-2.9 13.4-2.8 5.9-8.2 9.1-5.4 3.2-12.4 3.2-10.7 0-17.1-7.1-6.4-7.1-6.4-19zm11.3 1q0 7.8 3.3 12.2 3.2 4.4 8.9 4.4 5.8 0 9-4.4 3.2-4.5 3.2-13.2 0-7.6-3.3-12.1-3.3-4.5-9-4.5-5.5 0-8.8 4.4-3.3 4.4-3.3 13.2zm44.6-1q0-7.4 3-13.3 2.9-6 8.2-9.2 5.4-3.2 12.3-3.2 10.2 0 16.6 6.6 6.4 6.6 6.9 17.4l0.1 2.7q0 7.5-2.9 13.4-2.9 5.9-8.3 9.1-5.3 3.2-12.3 3.2-10.7 0-17.2-7.1-6.4-7.1-6.4-19zm11.4 1q0 7.8 3.2 12.2 3.2 4.4 9 4.4 5.7 0 8.9-4.5 3.2-4.5 3.2-13.1 0-7.7-3.3-12.2-3.3-4.4-8.9-4.4-5.6 0-8.8 4.4-3.3 4.4-3.3 13.2zm60.9-38.1v12.3h9v8.4h-9v28.2q0 2.9 1.2 4.2 1.1 1.3 4.1 1.3 1.9 0 3.9-0.5v8.8q-3.8 1.1-7.4 1.1-13.1 0-13.1-14.5v-28.6h-8.3v-8.4h8.3v-12.3zm47.4 49.1q0-3-2.6-4.6-2.4-1.6-8.2-2.8-5.8-1.2-9.7-3.1-8.5-4.1-8.5-11.9 0-6.6 5.5-11 5.5-4.3 14-4.3 9.1 0 14.7 4.4 5.6 4.5 5.6 11.7h-11.4q0-3.3-2.4-5.5-2.5-2.1-6.5-2.1-3.7 0-6.1 1.7-2.3 1.7-2.3 4.6 0 2.6 2.2 4.1 2.2 1.4 8.8 2.9 6.7 1.5 10.5 3.5 3.9 2 5.7 4.9 1.8 2.8 1.8 6.9 0 6.8-5.6 11.1-5.7 4.2-14.8 4.2-6.2 0-11.1-2.3-4.9-2.2-7.6-6.1-2.7-4-2.7-8.5h11q0.3 4 3.1 6.2 2.8 2.2 7.4 2.2 4.5 0 6.8-1.7 2.4-1.7 2.4-4.5zm87-2.1h-26.4l-5.5 15.8h-12.3l25.7-68h10.6l25.8 68h-12.4zm-23-9.5h19.7l-9.9-28.2zm49.8-46.4h11.3v71.7h-11.3zm25.9 0h11.3v71.8h-11.3zm25.9 21.2h11.3v50.5h-11.3zm-0.7-13.1q0-2.6 1.6-4.3 1.7-1.8 4.8-1.8 3 0 4.7 1.8 1.7 1.7 1.7 4.3 0 2.6-1.7 4.3-1.7 1.7-4.7 1.7-3.1 0-4.8-1.7-1.7-1.7-1.6-4.3zm56 63.7q-0.7-1.5-1.3-4.7-5.4 5.6-13.2 5.6-7.7 0-12.5-4.3-4.8-4.4-4.8-10.8 0-8 6-12.3 6-4.4 17.2-4.4h7v-3.3q0-3.9-2.2-6.3-2.2-2.3-6.7-2.3-3.9 0-6.4 1.9-2.5 1.9-2.5 4.9h-11.3q0-4.1 2.7-7.7 2.8-3.7 7.5-5.7 4.8-2.1 10.6-2.1 8.9 0 14.2 4.5 5.3 4.4 5.4 12.5v22.8q0 6.8 1.9 10.9v0.8zm-12.4-8.2q3.3 0 6.3-1.6 3-1.7 4.5-4.4v-9.5h-6.2q-6.3 0-9.5 2.2-3.1 2.1-3.1 6.2 0 3.2 2.1 5.2 2.2 1.9 5.9 1.9zm46-42.4l0.3 5.9q5.6-6.8 14.8-6.8 15.8 0 16 18.1v33.4h-11.3v-32.8q0-4.8-2.1-7.1-2.1-2.3-6.8-2.3-6.9 0-10.2 6.2v36h-11.4v-50.6zm64.9 42.5q4.3 0 7.1-2.5 2.8-2.5 3-6.1h10.7q-0.2 4.7-3 8.8-2.7 4.1-7.4 6.4-4.8 2.4-10.2 2.4-10.7 0-16.9-6.8-6.2-6.9-6.2-19v-1.2q0-11.5 6.2-18.4 6.2-7 16.8-7 9 0 14.7 5.3 5.7 5.2 6 13.8h-10.7q-0.2-4.4-3-7.2-2.8-2.8-7.1-2.8-5.5 0-8.5 4-3 4-3 12.1v1.9q0 8.2 2.9 12.2 3 4.1 8.6 4.1zm53.1 9q-10.8 0-17.6-6.8-6.6-6.8-6.6-18.1v-1.4q0-7.5 2.9-13.5 2.9-6 8.2-9.3 5.3-3.3 11.8-3.3 10.3 0 15.9 6.6 5.7 6.6 5.7 18.6v4.6h-33.1q0.5 6.3 4.2 9.9 3.7 3.7 9.2 3.7 7.8 0 12.7-6.3l6.2 5.8q-3.1 4.5-8.2 7-5 2.5-11.3 2.5zm-1.4-43.3q-4.7 0-7.6 3.3-2.8 3.3-3.6 9.1h21.6v-0.8q-0.3-5.7-3-8.6-2.7-3-7.4-3z"/>
		</g>
	</g>
</svg>