<svg version="1.2" baseProfile="tiny-ps" xmlns="http://www.w3.org/2000/svg" viewBox="0 0 1889 287" width="1889" height="287">
	<title>The_Walt_Disney_Company_Logo-svg</title>
	<style>
		tspan { white-space:pre }
		.shp0 { fill: #231f20 } 
	</style>
	<g id="layer1">
		<g id="g4483">
			<g id="g3352">
				<path id="path3354" class="shp0" d="M1297.83 148.86C1297.83 115.29 1316.63 97.14 1341.76 97.14C1365.02 97.14 1376.09 110 1380.56 128.28L1364.47 132.87C1360.68 119.62 1354.88 112.83 1341.63 112.83C1324.72 112.83 1314.86 125.97 1314.86 148.73C1314.86 172.57 1325 185.68 1341.9 185.68C1354.88 185.68 1362.17 179.19 1365.97 164.15L1382.05 167.82C1377.18 187.73 1364.87 201.13 1341.76 201.13C1316.08 201.13 1297.83 183.39 1297.83 148.86Z" />
			</g>
			<g id="g3356">
				<path id="path3358" fill-rule="evenodd" class="shp0" d="M1391.26 163.34C1391.26 136.81 1408.71 125.97 1426.26 125.97C1443.71 125.97 1461.29 136.81 1461.29 163.34C1461.29 189.62 1443.71 200.72 1426.26 200.72C1408.83 200.72 1391.26 189.62 1391.26 163.34ZM1444.52 163.34C1444.52 149.95 1438.85 140.2 1426.26 140.2C1414.24 140.2 1408.03 148.86 1408.03 163.34C1408.03 177.01 1413.57 186.77 1426.26 186.77C1438.3 186.77 1444.52 178.1 1444.52 163.34Z" />
			</g>
			<g id="g3360">
				<path id="path3362" class="shp0" d="M1472.99 199.23L1472.99 127.34L1489.61 127.34L1489.61 137.21C1495.17 131.11 1503.27 125.97 1514.23 125.97C1526.26 125.97 1530.98 130.71 1533.82 137.75C1539.5 131.52 1548.03 125.97 1558.96 125.97C1573.56 125.97 1579.93 134.78 1579.93 147.64L1579.93 199.23L1563.29 199.23L1563.29 151.83C1563.29 143.85 1561 140.2 1553.16 140.2C1546.38 140.2 1540.99 143.99 1534.77 149.54L1534.77 199.23L1518.15 199.23L1518.15 151.83C1518.15 143.85 1515.84 140.2 1508.01 140.2C1501.38 140.2 1495.84 143.99 1489.61 149.54L1489.61 199.23L1472.99 199.23Z" />
			</g>
			<g id="g3364">
				<path id="path3366" fill-rule="evenodd" class="shp0" d="M1595.25 226.31L1595.25 127.34L1611.88 127.34L1611.88 136.81C1616.62 131.11 1624.05 125.96 1634.73 125.96C1651.08 125.96 1663.11 138.3 1663.11 163.21C1663.11 188.14 1650.8 200.31 1632.42 200.31C1624.73 200.31 1617.15 197.19 1611.88 191.25L1611.88 226.31L1595.25 226.31ZM1629.32 140.2C1622.42 140.2 1615.8 144.53 1611.88 149.25L1611.88 178.1C1616.34 183.92 1622.82 187.04 1628.76 187.04C1641.35 187.04 1646.49 179.33 1646.49 163.34C1646.49 148.18 1640 140.2 1629.32 140.2Z" />
			</g>
			<g id="g3368">
				<path id="path3370" fill-rule="evenodd" class="shp0" d="M1670.47 181.9C1670.47 166.33 1683.71 155.89 1717.24 152.1L1717.24 149.95C1717.24 142.76 1713.46 139.65 1705.48 139.65C1695.48 139.65 1687.36 144.53 1681.29 149.39L1673.18 138.96C1680.88 131.92 1692.92 125.96 1707.77 125.96C1726.97 125.96 1733.6 135.19 1733.6 151.96L1733.6 181.62C1733.6 190.28 1734.15 195.57 1735.63 199.22L1718.87 199.22C1717.92 196.25 1717.24 194.08 1717.24 190.02C1709.95 197.47 1701.42 200.31 1690.74 200.31C1679.13 200.31 1670.47 193.81 1670.47 181.9ZM1717.24 163.34C1697.36 166.04 1686.83 170.93 1686.83 178.78C1686.83 184.46 1690.74 187.44 1696.83 187.44C1705.34 187.44 1711.98 184.2 1717.24 179.18L1717.24 163.34Z" />
			</g>
			<g id="g3372">
				<path id="path3374" class="shp0" d="M1748.59 199.23L1748.59 127.34L1765.23 127.34L1765.23 138.83C1770.64 132.61 1779.01 125.97 1790.91 125.97C1804.02 125.97 1812.14 132.74 1812.14 146.96L1812.14 199.23L1795.51 199.23L1795.51 151.71C1795.51 143.85 1792.27 139.79 1784.7 139.79C1777.39 139.79 1771.3 143.44 1765.23 149.14L1765.23 199.23L1748.59 199.23Z" />
			</g>
			<g id="g3376">
				<path id="path3378" class="shp0" d="M1816.16 224.95L1819.93 211.55C1821.97 212.09 1826.29 213.05 1832.1 213.05C1838.06 213.05 1841.16 210.73 1843.47 204.91L1845.49 199.63L1817.91 127.34L1835.21 127.34L1853.74 179.72L1854 179.72L1872.39 127.34L1888.88 127.34L1858.33 207.08C1853.6 219.67 1847.39 227.12 1833.19 227.12C1824.67 227.12 1819.67 225.9 1816.16 224.95Z" />
			</g>
			<g id="g3380">
				<path id="path3382" class="shp0" d="M30.81 199.07L30.81 114.57L0 114.57L0 98.86L78.54 98.86L78.54 114.57L47.71 114.57L47.71 199.07L30.81 199.07Z" />
			</g>
			<g id="g3384">
				<path id="path3386" class="shp0" d="M88.52 199.07L88.52 98.86L105.29 98.86L105.29 136.91C109.88 132.04 118.53 125.81 131.52 125.81C144.08 125.81 152.2 133.27 152.2 147.47L152.2 199.07L135.43 199.07L135.43 151.66C135.43 143.7 132.05 140.03 124.75 140.03C117.46 140.03 111.37 143.82 105.29 149.37L105.29 199.07L88.52 199.07Z" />
			</g>
			<g id="g3388">
				<path id="path3390" fill-rule="evenodd" class="shp0" d="M163.51 163.18C163.51 135.83 182.84 125.81 197.72 125.81C213.8 125.81 229.21 135.42 229.21 164.66L229.21 168.6L180.14 168.6C180.81 181.59 188.79 187.28 199.34 187.28C208.67 187.28 214.08 184.17 219.47 178.88L228.27 187.55C220.83 195.83 210.96 200.56 198.11 200.56C180.14 200.56 163.51 189.6 163.51 163.18ZM197.58 139.35C189.46 139.35 182.03 143.95 180.41 156.14L213.94 156.14C212.98 145.17 207.58 139.35 197.58 139.35Z" />
			</g>
			<g id="g3400">
				<path id="path3402" fill-rule="evenodd" class="shp0" d="M888.91 97.61C888.15 98.41 887.34 100.4 886.49 101.83C886.04 102.59 885.2 103.57 884.65 103.95C882.71 105.38 881.08 105.45 879.19 103.8C876.56 101.49 875.05 97.87 874.94 94.37C874.88 92.83 875.13 91.16 874.86 89.85C874.37 87.68 872.19 85.45 871.03 83.36C869.65 80.89 868.54 76.63 868.4 73.87C867.92 65.26 872.46 57.35 878.34 51.09C884.26 44.77 892.01 39.51 900.44 35.94C908.4 32.57 920.08 30.28 928.83 33.32C931.67 34.3 935.65 36.73 937.64 39.26C938.06 39.8 938.41 40.38 938.85 40.66C939.23 40.9 940.25 41 941.06 41.15C943.85 41.63 947.87 43.74 949.51 45.15C952.79 48.01 954.61 50.73 955.45 54.69C957.12 62.63 952.55 71.36 947.35 76.66C938.43 85.81 929.62 92.23 918.21 96.71C913.21 98.67 905.4 100.5 899.71 99.98C897.95 99.84 896.13 99.38 894.42 99.25C893.55 99.17 890.34 98.36 890 98.1C889.57 97.8 889.03 97.5 888.91 97.61ZM907.92 83.63C915.38 83.13 922.38 80.96 928.87 77.36C935.26 73.79 944.63 66.82 943.68 58.61C943.37 55.96 941.64 53.96 939.45 53.02C936.6 51.77 935.12 51.99 931.47 53.06C928.84 53.85 927.66 54.31 925.17 55.74C917.84 60 907.47 69.12 901.83 76.4C900.52 78.1 899.21 80.02 898.19 81.33C897.52 82.13 897.03 82.88 897.09 83.09C897.31 83.92 905 83.84 907.92 83.63ZM881.67 76.6C881.67 76.6 884.14 72.88 886.22 70.06C890 64.92 896.84 57.8 901.98 53.38C903.56 52.04 905.41 50.51 905.41 50.51C905.41 50.51 902.5 50.81 900.86 51.15C896.96 51.91 891.23 55.72 888.36 58.19C883.64 62.23 878.45 68.81 880.79 74.65C881.14 75.49 881.67 76.6 881.67 76.6ZM641.88 120.8C642.19 125.3 640.76 129.63 638.26 133.05C633.97 138.89 626.81 141.8 619.63 142.34C618.65 142.41 612.79 142.58 611.29 142.11C611.01 142.01 610.84 141.91 610.69 141.95C610.52 141.97 609.54 146.02 609.36 147.43C608.72 152.4 607.93 155.91 607.36 159.83C606.89 162.93 606.54 166.27 606.27 169.58C604.65 188.91 605.21 198.45 606.8 217.36C606.91 218.52 606.97 219.83 606.8 220.63C606.37 222.9 605 224.48 602.78 225.05C596.13 226.8 589.76 220.21 586.5 214.93C578.87 202.59 581.36 177.38 583.56 164.93C584.46 159.77 586.8 148.33 588.43 144.2C589.29 141.98 590.67 137.62 590.57 137.41C590.47 137.22 586.99 135.89 583.79 134.66C582.59 134.22 578.57 132.12 576.84 131.05C573.29 128.82 570.86 127 568.41 124.23C567.66 123.37 565.18 119.67 564.81 118.85C562.83 114.33 562.71 110.39 564.47 105.59C564.92 104.36 567.39 99.17 569.04 99.33C571.4 99.54 570.88 103.46 571.51 105.5C571.71 106.2 572.38 107.36 572.9 107.99C576.18 111.87 587.17 116.15 591.68 117.5C592.33 117.7 599.37 119.85 600.4 119.38C600.68 119.25 602.02 116.86 602.88 115.42C603.34 114.61 603.85 114.01 604.42 113.4C608.7 108.78 615.03 104.4 621.33 103.11C624.11 102.55 629.55 103.01 632.3 104.59C632.92 104.94 634.97 105.75 637.57 108.82C640.33 112.28 641.58 116.34 641.88 120.8ZM616.83 121.1C621.57 120.8 624.5 120.58 628.21 118.97C630.25 118.1 632.62 116.1 631.45 113.72C630.75 112.26 628.24 111.75 626.78 111.87C621.82 112.2 618.24 115.85 616.55 120.74C616.48 120.91 616.5 121.1 616.83 121.1ZM571.76 163.83C574.99 165.24 574.99 171.03 574.21 173.75C572.11 180.91 565.33 188.3 559.93 191.98C556.7 194.14 550.09 197.21 545.36 198.11C537.96 199.54 531.41 197.58 527.46 191.58C523.88 186.16 522.3 179.45 522.01 173.14C521.2 155.04 526.9 128.59 533.91 113.48C534.86 111.45 539.5 102 543.81 100.48C548.1 98.96 549.99 104 550.41 107.77C550.96 112.61 549.42 119.03 548.19 124.23C546.04 133.32 542.94 147.53 542.21 151.61C541.43 155.91 539.64 165.14 540.28 169.84C540.62 172.34 541.09 173.59 542.98 173.44C543.85 173.37 555.99 167.77 562.61 165.29C565.1 164.37 568.19 163.37 570.99 163.6C571.19 163.62 571.5 163.71 571.76 163.83ZM460.77 147.43C462.55 143.54 471.53 125.47 475.23 120.37C479.34 114.66 487.18 103.88 487.25 103.55C487.42 102.37 487.67 100.26 488.77 98.57C489.63 97.23 491.75 96.66 493.8 96.53C496.08 96.39 498.44 98.08 499.47 99.96C501.44 103.53 504.81 113.7 505.54 116.13C509.48 129.67 513.72 154.96 515.12 167.95C515.48 171.36 516.61 189.12 516.7 193.12C516.78 195.92 516.7 200.58 515.09 202.88C514.49 203.76 513.35 204.49 512.25 204.47C510.76 204.42 507.77 202.33 506.46 201.11C502.83 197.68 500.41 194.19 499.63 189.92C498.97 186.21 498.03 175.55 498.03 175.55L482.2 176.19L473.38 176.34C473.38 176.34 472.55 178.4 471.87 180.11C470.39 183.79 469.07 187.47 468.5 189.54C467.34 193.69 465.12 201.92 464.59 203.2C463.48 205.9 462.5 207.47 459.88 207.82C456.98 208.2 454.99 208.41 452.89 207.27C448.94 205.1 447.14 200.51 446.47 195.78C445.29 187.72 448.55 181.21 451.89 171.65C453.3 167.63 451.36 166.29 448.03 161.06C447.6 160.39 447.15 159.68 447.07 159.14C446.95 158.61 447.47 157.21 448.2 156.63C448.42 156.45 448.49 156.42 448.9 156.41L456.91 156.03C456.91 156.03 459.08 151.13 460.77 147.43ZM481.2 155.26C481.2 155.26 482.58 155.28 484.01 155.26C488.53 155.2 496.13 154.36 496.13 154.36C496.13 154.36 495.28 147.67 494.59 143.39C494.12 140.54 493.75 138.77 493.14 136.51C492.86 135.51 492.17 132.64 491.44 131.52C491.31 131.3 491.12 131.06 491.12 131.06C491.12 131.06 487.46 138.14 485.4 143.08C483.77 147 482.96 149.92 481.81 152.3C481.54 152.85 481.24 153.61 481.2 154.26C481.17 154.72 481.2 155.26 481.2 155.26ZM350.94 181.78C355.16 188.82 361.89 192.85 370.02 193.25C378.35 193.67 389.04 188.84 395.15 184.59C412.58 172.44 421.75 150.55 426.75 129.57C432.65 104.96 432.91 79.01 425.89 55.21C421.82 41.39 413.89 24.09 404.07 13.74C401.14 10.67 396.66 6.49 395.39 4.77C394.06 3 393.74 1.51 395.76 0.33C397.9 -0.91 402.59 1.65 404.93 3.06C416.39 10.04 423.89 16.99 430.68 26.98C432.39 29.51 439.27 40.85 440.53 43.22C448.24 57.79 452.19 70.48 454.3 86.56C456.97 107.02 455.27 130.26 448.19 150.77C445.1 159.77 440.33 169.04 435.37 176.85C434.19 178.68 426.95 188.43 426.06 189.39C423.57 192.01 417.42 197.35 414.55 199.67C400.18 211.22 384.65 218.79 367.61 216.7C358.24 215.55 350.54 212.43 343.03 206.32C340.16 203.95 335.29 199.02 333.35 195.5C332.08 193.25 330.51 190.51 330.31 190.48C330.08 190.42 329.25 190.99 328.34 191.63C327.55 192.18 324.17 193.75 322.38 194.41C310.69 198.78 297.61 197.75 286.87 190.77C279.08 185.72 272.49 176.12 269.57 167.42C265.28 154.51 264.93 141.14 266.68 127.41C269.67 104.11 278.05 82.03 290.53 62.49C298.41 50.18 308.63 38.02 320.82 29.3C322.19 28.3 329.63 23.97 331.15 23.27C333.9 21.97 337.56 20.78 339.68 23.04C340.78 24.22 340.74 25.17 339.93 26.71C338.63 29.11 335.32 32.37 333.49 34.32C331.91 36.04 322.93 47.07 321.07 49.65C319.04 52.4 309.9 66.12 308.7 68.22C297.17 88.22 288.02 119.9 288.9 144.47C289.09 149.54 289.83 156.85 290.97 161.62C292.51 168.04 296.33 176.73 302.06 180.79C308.09 185.08 313.68 184.83 320.9 181.96C322.82 181.18 325.55 179.95 325.55 179.95C325.55 179.95 323.45 174.55 322.07 170.49C318.29 159.22 316.77 141.24 318.16 128.86C319.31 118.71 321.57 110.94 326.15 102.89C329.8 96.43 334.71 90.09 340.85 84.85C346.77 79.8 356.22 75.39 364.54 75.17C371.45 75.01 378.61 78.02 382.24 84.31C388.54 95.26 388.94 112.54 387.17 123.92C384.5 141.14 375.6 157.3 362.76 168.26C358.15 172.18 349.22 178.83 349.22 178.83C349.22 178.83 350.19 180.52 350.94 181.78ZM365.88 95.85C365.53 93.43 365.04 91.61 363.89 89.77C362.64 87.74 361.67 86.47 359.69 86.17C357.25 85.81 355.9 87.47 354.38 89.87C352.36 93.12 350.34 99.15 349.15 102.96C347.44 108.38 346.71 111.71 345.79 117.87C344.26 127.98 342.73 145.18 344.36 156.88C344.67 158.9 345.17 161.85 345.17 161.85C345.17 161.85 347.6 159.11 349.38 157.19C350.14 156.36 353.75 150.95 354.07 150.39C354.7 149.3 356.37 146.44 356.6 145.86C356.96 145.23 359.56 139.63 360.02 138.32C360.89 135.81 362.16 131.94 363.14 128.86C365.43 121.76 365.03 119.13 366.51 111.25C366.68 110.35 366.83 103.82 366.66 103.82C366.59 103.8 366.51 103.82 366.51 103.82C366.51 103.82 366.31 98.7 365.88 95.85ZM900.45 115.63C904.45 117.16 906.1 120.87 907.08 124.94C909.37 134.4 910.35 155.3 910.72 163.5C911 169.63 911.15 175.7 911.41 181.77C911.62 186.91 912.03 193.75 910.97 198.58C910.58 200.31 909.42 202.31 907.76 203.36C905.86 204.57 901.54 204.66 899.17 204.17C893.31 202.96 891.4 199.19 890.58 193.39C888.59 179.55 889.54 152.38 890.72 140.92C891.09 137.15 892.53 125.02 894.5 119.94C895.17 118.21 896.61 114.76 899.11 115.25C899.45 115.31 899.99 115.47 900.45 115.63ZM876.73 157.02C876.35 159.63 874.38 165.65 874.07 166.39C872.48 170.04 870.92 173.06 869.26 176.04C866.41 181.17 859.66 189.29 855.64 192.76C840.73 205.67 817.64 213.03 797.82 215.45C784.39 217.08 768.94 216.83 754.69 214.2C749.8 213.29 742.51 211.62 742.51 211.62C742.51 211.62 742.53 214.54 742.29 216.6C742.18 217.53 741.47 220 741.08 220.8C740.03 222.94 738.34 224.05 735.87 224.51C732.89 225.09 729.72 225.26 726.96 224.09C722.44 222.17 720.81 217.92 720.03 213.05C719.38 209.12 718.71 202.31 718.71 202.31C718.71 202.31 715.33 200.71 712.51 199.3C703.83 195.01 695.59 189.84 688.39 184.49C686.4 183.02 677.82 175.81 675.92 174.01C670.61 168.99 665.83 163.95 662.2 157.51C659.37 152.48 658.56 148 660.7 142.67C663.68 135.24 674.31 129.63 681.6 126.43C686.96 124.07 703.57 118.63 710.48 117.63C713.74 117.16 718.8 116.26 719.11 116.05C719.24 115.96 719.33 115.88 719.42 115.77C719.58 115.54 719.85 108.17 719.79 105.48C719.73 102.83 721.75 85.45 722.4 81.78C722.75 79.78 724.25 72.12 725.79 70.12C726.79 68.77 728.56 68.86 730.01 69.77C737.93 74.69 740.33 91.81 740.92 100.52C741.28 105.82 741.45 113.8 741.45 113.8C741.45 113.8 750.54 113.54 756.13 113.68C761.56 113.82 767.54 114.68 773.19 115.58C780.41 116.72 794.48 119.8 802.54 123.9C809.19 127.27 815.41 132.96 817.42 138.98C819.29 144.5 819.01 148.31 816.16 153.29C812.96 158.92 806.89 163.08 800.74 163.43C798.91 163.55 792.02 162.63 789.91 160.99C789.07 160.32 789.12 159.14 789.72 158.34C789.95 158.05 793.16 156.36 795.07 155.35C796.02 154.83 796.81 154.27 797.54 153.6C799.13 152.19 800.54 150.66 800.39 148.87C800.17 146.54 797.71 145.1 795.36 144.17C784.34 139.8 762.35 136.15 751.7 135.52C747.54 135.27 741.63 135.06 741.63 135.06L742.88 193.86C742.88 193.86 747.77 194.8 751.63 195.43C753.85 195.76 763.22 196.61 765.71 196.67C784.68 197.17 805.85 195.48 823.26 187.23C830.9 183.63 837.92 179.15 843.22 173.09C850.23 165.03 853.89 154.05 852.92 142.57C851.85 130 843.03 115.13 836 106.06C817.41 82.1 785.53 62.4 757.5 50.86C728.86 39.07 700.57 32.27 670.18 31.14C662.35 30.86 645.26 31.26 636.64 33.65C635.39 34 634.16 34.42 633.01 34.66C632.1 34.88 630.69 35.48 630.29 35.79C630.08 35.99 629.86 36.21 629.86 36.21C629.86 36.21 630.39 36.51 630.9 36.73C631.81 37.14 635.67 37.36 637.66 37.73C639.43 38.06 641.3 39.02 642.02 40.33C642.72 41.57 642.82 42.54 641.98 43.58C640.02 45.98 632.65 45.55 629.42 45.05C626.05 44.5 621.86 43.48 621.08 40.54C620.2 37.08 621.82 33.69 623.6 30.54C627.17 24.27 632.26 21 639.75 18.96C650.35 16.04 663.75 13.99 673.78 13.61C696.47 12.76 717.93 16.72 739.91 23.42C752.48 27.22 768.97 33.61 781.01 39.43C789.65 43.6 803.29 51.29 810.95 56.32C813.36 57.91 827.5 68.31 829.69 70.14C834.27 73.89 840.27 79.28 844.59 83.59C852.98 91.92 863.42 104.68 868.5 114.81C869.71 117.25 870.67 119.64 872.23 122.44C872.77 123.4 875.1 129.17 875.48 130.84C875.86 132.49 876.42 134.91 876.5 135C876.62 135.89 877.68 140.83 877.6 142.75C878.1 147.29 876.92 155.89 876.73 157.02ZM704.08 137.3C696.49 138.11 682.22 140.58 674.01 143.54C671.53 144.4 666.51 146.51 666.07 149.04C665.63 151.69 667.25 153.74 669.07 155.89C670.12 157.12 676.07 162.84 677.73 164.24C684.72 170.07 698.88 179.09 709.33 183.47C712.9 184.96 718.83 187.09 718.83 187.09C718.83 187.09 718.39 170.17 718.48 153.52C718.51 144.71 718.71 136.02 718.71 136.02C718.71 136.02 710.04 136.63 704.08 137.3ZM976.26 147.14C983.21 148.09 990.01 149.34 995.22 151.67C1000.05 153.82 1002.89 156.52 1005.48 161.34C1009.41 168.66 1009.67 178.89 1006.12 186.65C1003.45 192.41 997.63 197.25 992.31 199.82C986.77 202.5 981.34 203.78 975.09 204.49C964.19 205.69 952.39 203.43 942.56 198.67C936.75 195.83 929.65 190.93 926.06 184.62C923.43 179.99 923.51 173.98 926.72 169.59C931.82 162.59 942.75 161.05 951 161.34C957.28 161.58 968.58 163.53 974.55 165.65C976.21 166.25 982.3 168.63 983.36 169.7C984.11 170.48 984.6 171.57 984.27 172.6C982.89 176.77 972.78 178.98 969.86 179.41C962.02 180.61 957.96 177.65 949.06 174.13C946.85 173.27 943.91 172.31 941.65 172.1C937.62 171.71 932.74 172.83 931.97 177.26C931.58 179.54 934.25 181.67 936.28 182.55C941.06 184.62 944.94 185.35 949.65 185.43C963.51 185.64 979.1 183.35 990.46 175.3C992.03 174.19 993.55 172.56 993.57 170.51C993.57 170.25 993.2 168.04 992.48 167.81C992.38 167.77 992.27 167.82 992.19 167.8C991.93 167.73 991.49 167.01 991.12 166.53C990.31 165.54 987.01 164.12 986.37 163.84C978.72 160.65 964.59 159.1 957.3 158.5C949.66 157.84 937.65 156.83 934.76 156.41C931.79 155.98 928.57 155.4 925.98 154.23C923.41 153.07 920.88 150.45 920.13 147.56C918.8 142.34 920.5 135.93 923.4 131.75C930.98 120.82 948.74 116.68 962.02 115.04C974.87 113.43 995.64 113.45 1008.26 120.17C1010.21 121.21 1011.22 122.18 1010.8 124.27C1009.98 128.19 1007.02 130.71 1003.47 131.82C999.74 133.01 992.01 133.47 988.61 133.68C973.4 134.54 955.01 134.09 940.52 138.06C939.39 138.38 937.43 138.89 936.78 139.61C934.52 142.08 941 142.78 942.39 143.08C942.8 143.16 942.89 143.18 943.31 143.22L975.34 147.02C975.76 147.06 975.87 147.08 976.26 147.14ZM1014.99 186.81C1014.01 170.45 1018.33 147.68 1023.82 132.34C1025.39 127.97 1027.64 120.84 1032.52 121.24C1035.88 121.54 1038.27 124.13 1040.16 126.79C1044.97 133.6 1051.3 142.81 1055.5 149.23C1060.19 156.42 1064.69 163.67 1069.12 170.22C1069.66 171.02 1070.18 171.79 1070.77 172.28C1071.58 172.93 1072.3 172.96 1072.63 172.36C1072.78 172.13 1072.49 163.86 1072.28 162.2C1071.94 159.56 1071.78 157.43 1071.48 155.15C1070.67 148.54 1068.56 139.23 1066.91 132.94C1065.09 125.89 1062.87 118.56 1061.21 111.74C1060.68 109.53 1060.19 107.29 1060.2 105.19C1060.22 102.14 1062.17 100.45 1065.35 101.59C1071.59 103.8 1079.88 117.38 1082.29 122.1C1083.11 123.69 1086.36 131.8 1087.09 134.07C1089.68 141.85 1091.25 149.23 1091.97 157.71C1092.66 165.96 1092.08 177.97 1088.6 186.09C1087.32 189.08 1084.7 193.1 1082.52 195.13C1079.1 198.31 1072.28 200.79 1067.58 198.1C1062.44 195.18 1054 180.53 1052.56 178.02C1047.66 169.45 1039.22 152.69 1037.92 150.81C1037.63 150.4 1037.26 150 1036.61 149.8C1036.11 149.66 1035.91 150.69 1035.78 151.36C1034.94 156.24 1034.37 179.07 1034.36 179.71C1034.22 183.55 1034.03 192.97 1032.92 197.61C1032.2 200.64 1031.47 203.13 1028.68 204.4C1026.71 205.29 1025.21 204.92 1022.81 204.03C1016.67 201.77 1015.27 191.84 1014.99 186.81ZM1104.98 200.09C1104.86 199.96 1102.65 196.65 1102.21 195.63C1101.83 194.75 1101.53 194.11 1101.25 193.37C1099.24 188.17 1099.3 183.05 1100.41 177.46C1101.44 172.25 1102.42 172.02 1105.09 164.86C1105.26 164.47 1105.34 164.14 1105.4 163.7C1105.51 162.72 1103.92 156.13 1103.83 154.01C1103.72 150.77 1106.23 148.48 1110.42 148.03C1110.81 148 1111.09 148 1111.37 147.92C1113.04 147.51 1114.12 144.3 1115.03 141.73C1116.31 138.11 1118.3 132.59 1118.3 132.59C1118.3 132.59 1113 131.37 1110.16 130.29C1106.99 129.09 1104.59 127.55 1103.16 124.63C1101.44 121.22 1102.57 119.33 1106.13 118.23C1107.43 117.81 1117.73 115.83 1120.98 115.37C1125.03 114.77 1128.85 114.26 1132.71 113.79C1136.07 113.38 1151.47 111.59 1156.37 111.72C1163.84 111.94 1168.69 115.02 1173.05 121.35C1175.4 124.73 1177.01 128.75 1173.46 130.93C1168.02 134.24 1150.38 134.49 1147.15 134.52C1142 134.58 1134.88 134.49 1134.88 134.49L1131.29 146.51C1131.29 146.51 1143.93 146.38 1151.03 146.35C1152.75 146.35 1154.48 146.44 1155.45 146.64C1159.07 147.45 1160.32 150.24 1160.47 154.26C1160.67 158.97 1159.78 161.13 1156.04 161.76C1154.11 162.07 1132.4 162.2 1129.46 162.55C1127.62 162.75 1125.68 163.04 1125.68 163.04C1125.68 163.04 1124.11 167.14 1122.75 171.28C1121.37 175.59 1120.2 179.99 1120.2 179.99C1120.2 179.99 1121.3 180.03 1122.21 180.03C1123.74 180.04 1125.29 179.82 1126.5 179.61C1133.12 178.4 1142.97 176.94 1151.05 175.67C1155.39 174.97 1157.57 174.66 1159.86 177.55C1161.83 180.1 1162.86 182.23 1163 185.32C1163.12 188.22 1160.91 190.14 1158.21 192.21C1149.68 198.74 1135.08 205.83 1124.21 207.05C1119.18 207.61 1117.96 207.05 1113.56 205.9C1112.72 205.69 1109.68 204.26 1109.71 204.11C1109.71 204.11 1108.06 203.01 1107.5 202.57C1106.83 202.07 1105.76 200.97 1104.98 200.09ZM1197.21 220.18C1194.97 227.23 1190.03 246.23 1188.89 252.13C1187.17 260.89 1182.27 283.84 1182.02 284.33C1181.68 284.99 1181.45 285.2 1180.62 285.73C1178.61 286.92 1177.8 286.53 1175.36 285.22C1172.19 283.55 1169.4 281.85 1167.02 278.7C1162.24 272.48 1163.38 260.78 1164.32 253.92C1167.6 229.9 1170.91 219.34 1180.04 195.44C1180.19 195.03 1180.19 194.94 1180 194.58C1177.16 188.51 1175.62 181.18 1175.62 175.26C1175.65 156.53 1186.39 137.99 1198.45 123.1C1199.36 121.97 1205.27 114.87 1207.96 115.01C1210.65 115.14 1211.09 118.29 1210.69 120.91C1209.34 129.57 1203.26 138.38 1199.1 145.68C1194.43 153.84 1193.41 157.19 1191.13 164.67C1190.76 165.84 1189.85 171.3 1189.89 172.01C1189.98 174.01 1190.42 176.55 1190.42 176.55C1190.42 176.55 1198.02 165.89 1203.04 159.31C1205.77 155.69 1207.74 153.31 1210.03 150.73C1212.34 148.12 1221.25 138.84 1223.82 136.39C1229.21 131.24 1231.6 129.09 1237.43 126.06C1242.05 123.67 1246.2 123.07 1250.71 126.06C1257.85 130.76 1260.96 140.7 1261.77 148.76C1262.71 158.4 1260.74 169.23 1256.5 177.48C1251.47 187.32 1244.6 194.41 1235.25 200.61C1225.7 206.95 1214.49 211.27 1203.5 211.01C1202.02 210.98 1200.28 210.89 1200.28 210.89C1200.28 210.89 1198.51 216.1 1197.21 220.18ZM1228.45 161.39C1223.84 167.98 1219.5 175.52 1215.35 181.36C1214.46 182.68 1211.78 187.38 1211.88 187.53C1212.06 187.87 1214.76 187.76 1217.52 187.3C1223.42 186.3 1231.43 182.16 1235.71 178.74C1242.23 173.5 1246.77 166.31 1248.92 157.89C1249.87 154.07 1250.35 146.05 1247.65 142.49C1247.12 141.8 1245.76 141.27 1244.72 142.16C1239.12 146.85 1231.9 156.42 1228.45 161.39Z" />
			</g>
		</g>
	</g>
</svg>