<svg version="1.2" xmlns="http://www.w3.org/2000/svg" viewBox="0 0 1599 385" width="1599" height="385">
	<title>Warner_Bros</title>
	<defs>
		<linearGradient id="g1" x1="25.3" y1="191" x2="372.7" y2="191" gradientUnits="userSpaceOnUse">
			<stop offset="0" stop-color="#4047ff"/>
			<stop offset="1" stop-color="#04006c"/>
		</linearGradient>
		<linearGradient id="g2" x1="0" y1="192.5" x2="398" y2="192.5" gradientUnits="userSpaceOnUse">
			<stop offset="0" stop-color="#ffc800"/>
			<stop offset="1" stop-color="#e9a600"/>
		</linearGradient>
		<linearGradient id="g3" x1="55.5" y1="192.1" x2="186.9" y2="192.1" gradientUnits="userSpaceOnUse">
			<stop offset="0" stop-color="#ffd100"/>
			<stop offset="1" stop-color="#fabb00"/>
		</linearGradient>
		<linearGradient id="g4" x1="211.3" y1="192.1" x2="327.2" y2="192.1" gradientUnits="userSpaceOnUse">
			<stop offset="0" stop-color="#f7b700"/>
			<stop offset="1" stop-color="#e9a600"/>
		</linearGradient>
	</defs>
	<style>
		.s0 { fill: #0d2096 } 
		.s1 { fill: url(#g1) } 
		.s2 { fill: url(#g2) } 
		.s3 { fill: url(#g3) } 
		.s4 { fill: url(#g4) } 
	</style>
	<g id="Layer">
		<g id="Layer">
			<path id="Layer" class="s0" d="m510.2 195.4l-46.6-112.6h21.7l26.5 67.6 29-70.8 28.9 70.8 26.5-67.6h20.9l-45.8 112.6-30.5-72.4z"/>
			<path id="Layer" fill-rule="evenodd" class="s0" d="m715.1 191.4h-20.9l-11.2-23.3h-45.8l-11.3 23.3h-20.9l55.5-112.6zm-70.7-38.6h32.1l-16-33.8z"/>
			<path id="Layer" fill-rule="evenodd" class="s0" d="m748.9 191.4h-20.1v-108.6h30.5c24.1 0 41 12.1 41 33.8 0 14.5-8 24.9-20.9 29.8l33.8 45h-23.3l-30.6-41.8h-9.6zm0-57.9h10.4c12.1 0 20.9-5.7 20.9-16.9 0-11.3-8-16.9-20.9-16.9h-10.4z"/>
			<path id="Layer" fill-rule="evenodd" class="s0" d="m1063.1 191.4h-20.1v-108.6h30.5c24.1 0 41 12.1 41 33.8 0 14.5-8.1 24.9-20.9 29.8l33.7 45h-22.5l-30.5-41.8h-9.6zm0-57.9h10.4c12.1 0 20.9-5.7 20.9-16.9 0-11.3-8-16.9-20.9-16.9h-10.4z"/>
			<path id="Layer" class="s0" d="m906.4 82.8h20.1v112.6l-76.4-73.2v69.2h-20.1v-112.6l76.4 73.2z"/>
			<path id="Layer" class="s0" d="m952.2 82.8h66.7v16.9h-46.6v28.2h43.3v16.9h-43.3v30.5h47.4v16.9h-66.7z"/>
			<path id="Layer" fill-rule="evenodd" class="s0" d="m1179.6 82.8h31.3c24.1 0 37 11.3 37 29 0 11.2-7.3 19.3-15.3 22.5 12 3.2 21.7 12.1 21.7 26.5 0 19.3-15.3 30.6-38.6 30.6h-36.1zm29.7 45.8c11.2 0 18.5-4.8 18.5-14.4 0-9.7-7.3-14.5-18.5-14.5h-10.5v28.9zm5.7 45.9c11.2 0 19.3-5.7 19.3-15.3 0-9.7-8.1-15.3-19.3-15.3h-15.3v30.6c-0.8 0 15.3 0 15.3 0z"/>
			<path id="Layer" fill-rule="evenodd" class="s0" d="m1295.3 191.4h-20.1v-108.6h30.5c24.1 0 41 12.1 41 33.8 0 14.5-8 24.9-20.9 29.8l33.8 45h-23.4l-30.5-41.8h-9.6zm0-57.9h10.4c12.1 0 20.9-5.7 20.9-16.9 0-11.3-8-16.9-20.9-16.9h-10.4z"/>
			<path id="Layer" fill-rule="evenodd" class="s0" d="m1420.6 192.2c-30.6 0-55.4-24.8-55.4-55.5 0-30.7 24.8-55.5 55.4-55.5 30.7 0 55.5 24.8 55.5 55.5 0 30.7-24.8 55.5-55.5 55.5zm35.4-55.5c0-20.4-15.8-37-35.4-37-19.5 0-35.3 16.6-35.3 37 0 20.5 15.8 37 35.3 37 19.6 0 35.4-16.5 35.4-37z"/>
			<path id="Layer" class="s0" d="m1523.5 176.1c11.2 0 19.3-4.8 19.3-13.7 0-7.2-4.9-10.4-11.3-13.6l-17.7-8.9c-11.2-5.6-21.7-12-21.7-28.1 0-19.3 15.3-31.4 35.4-31.4 12 0 23.3 4.8 28.9 10.5v20.9c-8-8.1-19.3-14.5-29.7-14.5-8.9 0-16.1 4-16.1 12.1 0 5.6 4 8.8 10.5 12l16.8 8.1c16.1 7.2 24.1 14.4 24.1 29.7 0 20.1-16.8 33-38.5 33-13.7 0-25.7-4.8-33-10.5v-20.9c8.9 8.9 20.1 15.3 33 15.3z"/>
			<path id="Layer" class="s0" d="m1599 179.3c0 7.3-5.6 12.1-12.1 12.1h-0.8c-7.2 0-12-5.6-12-12.1 0-7.2 5.6-12 12-12h0.8c6.5 0 12.1 5.6 12.1 12z"/>
		</g>
		<g id="Layer">
			<path id="Layer" fill-rule="evenodd" class="s0" d="m1147.4 336.1h-20.1v-108.5h30.6c24.1 0 40.9 12 40.9 33.8 0 14.4-8 24.9-20.8 29.7l33.7 45h-23.3l-30.5-41.8h-9.7zm0-57.9h10.5c12 0 20.9-5.6 20.9-16.9 0-11.2-8.1-16.8-20.9-16.8h-10.5z"/>
			<path id="Layer" class="s0" d="m1035.7 227.6h66.7v16.9h-47.4v28.1h43.4v16.9h-43.4v30.6h47.4v16.8h-66.7z"/>
			<path id="Layer" fill-rule="evenodd" class="s0" d="m854.1 337.8c-30.6-0.1-55.4-24.9-55.4-55.5 0-30.7 24.8-55.5 55.4-55.5 30.7 0 55.5 24.8 55.5 55.5 0 30.6-24.8 55.4-55.5 55.4zm36.2-55.5c0-20.4-15.8-37-35.4-37-19.5 0-35.3 16.6-35.3 37 0 20.5 15.8 37.1 35.3 37.1 19.6 0 35.4-16.6 35.4-37.1z"/>
			<path id="Layer" fill-rule="evenodd" class="s0" d="m497.4 227.6c30.5 0 55.4 23.3 55.4 53.9 0 30.5-24.9 53.8-55.4 53.8h-33.8v-107.7zm-13.6 16.9v75.6h12c21.7 0 37-16.9 37-37 0-20.9-15.3-37-37-37z"/>
			<path id="Layer" class="s0" d="m573.7 227.6h20.1v108.5h-20.1z"/>
			<path id="Layer" class="s0" d="m647.6 320.9c11.3 0 19.3-4.9 19.3-13.7 0-7.2-4.8-10.5-11.2-13.7l-17.7-8.8c-11.3-5.7-21.7-12.1-21.7-28.2 0-19.3 15.3-31.3 35.4-31.3 12 0 23.3 4.8 28.9 10.4v20.9c-8.1-8-19.3-14.4-29.8-14.4-8.8 0-16 4-16 12 0 5.6 4 8.9 10.4 12.1l16.9 8c16.1 7.3 24.1 14.5 24.1 29.8 0 20.1-16.9 32.9-38.6 32.9-13.6 0-25.7-4.8-32.9-10.4v-20.9c8.8 8.8 20.1 15.3 32.9 15.3z"/>
			<path id="Layer" class="s0" d="m783.4 307.2v23.3c-8 4.8-17.6 8.1-28.1 8.1-30.5 0-55.4-25-55.4-55.5 0-30.6 24.9-55.5 55.4-55.5 10.5 0 20.1 2.4 28.1 8v21.7c-6.4-7.2-16-11.2-27.3-11.2-20.9 0-36.1 16.1-36.1 37 0 20.9 16 37 36.1 37 11.3-0.8 20.9-5.7 27.3-12.9z"/>
			<path id="Layer" class="s0" d="m911.2 227.6h22.5l33.7 72.4 33.8-72.4h20.9l-55.5 112.6z"/>
			<path id="Layer" class="s0" d="m1247.9 336.1v-49l-40.2-59.5h22.5l28.1 41 28.1-41h22.5l-40.1 59.5v48.2z"/>
		</g>
	</g>
	<g id="Layer">
		<path id="Layer" class="s1" d="m372.8 125.4c-2.4 17.7-11.2 77.2-54.6 135.1-44.2 59.6-102.1 89.3-118.9 97.4-17.7-8.9-75.6-37.8-119.8-97.4-43.3-57.9-52.2-117.4-54.6-135.1l26.5-14.4v-20.1l26.5-14.5v-18.5c36.2-16.9 75.6-28.1 121.4-34.6 45.8 5.7 85.1 16.9 121.3 34.6v19.3l26.5 14.5v20.1z"/>
		<g id="Layer">
			<path id="Layer" fill-rule="evenodd" class="s2" d="m398.5 111.8l-2.4 16.1c-7.2 54.6-27.3 103.7-58.6 146.3-31.4 43.4-74.7 78.8-127.8 105.4l-10.4 4.8-10.5-4.8c-53-26.6-95.6-62-127.7-104.6-31.4-42.6-51.5-92.5-58.7-146.3l-2.4-16.1 28.1-15.3v-19.3l26.5-14.5v-20.1l12.9-6.4c38.6-17.7 80.3-29.8 128.6-36.2l3.2-0.8 2.4 0.8c49 6.4 90.8 18.5 128.5 36.2l12.9 7.2v20.1l26.5 13.7v19.3zm-51.4 0v-20.1l-26.5-14.5v-19.3c-36.2-17.7-75.6-28.9-121.4-34.6-45.8 6.5-85.1 17.7-121.3 34.6v18.5l-26.5 14.5v20.1l-26.5 14.5c2.4 17.7 11.2 77.2 54.6 135.1 44.2 59.5 102.1 88.4 119.7 97.3 16.9-8.1 74.8-37.8 119-97.3 43.4-57.9 52.2-117.4 54.6-135.1z"/>
		</g>
		<g id="Layer">
			<path id="Layer" class="s3" d="m186.4 65.9v251.7c-17.7-18.5-33.7-41.8-45-65.1l-23.3 13.7c-29.7-33-50.6-74-63.5-127.9 6.5-8 12.9-15.3 20.1-20.9 9.7 45 24.1 83.6 46.6 114.2l8.9-4.8c-14.5-39.4-23.3-82-26.5-130.3 9.6-6.4 18.4-10.5 26.5-14.5 2.4 53.1 12.8 106.2 29.7 148.8l1.6-0.8-1.6-159.2c9.6-2.4 17.7-4.1 26.5-4.9z"/>
		</g>
		<g id="Layer">
			<path id="Layer" fill-rule="evenodd" class="s4" d="m326.2 177.7c0 37.8-62.6 112.6-115.7 139.9v-251.7c12.9 0.8 25.7 2.5 37.8 5.7 20.9 5.6 35.3 13.6 45 19.3 16.1 10.4 26.5 21.7 26.5 34.5 0 9.7-1.6 16.9-11.2 27.4 12.8 5.6 19.2 13.7 17.6 24.9zm-88.4-10.4l33-17.7c16.9-8.9 21.7-17.7 21.7-23.3 0-16.1-41.8-29.8-54.7-29.8zm61.9 16.1c0-0.8 0.8-12.1-13.6-15.3-1.7 0.8-49.1 28.1-49.1 28.1v71.6c12.9-10.4 25.8-23.3 33-32.1 16.9-19.3 30.5-39.4 29.7-52.3z"/>
		</g>
	</g>
</svg>