<svg version="1.2" xmlns="http://www.w3.org/2000/svg" viewBox="0 0 1565 394" width="1565" height="394">
	<title>waters-logo-black-svg</title>
	<style>
		.s0 { fill: #000000 } 
	</style>
	<g id="Layer">
		<g id="Layer">
			<g id="Waters">
				<path id="Layer" class="s0" d="m0 13.7h38.4l100.5 296 107-309.7 111.5 307 96.8-293.3h37.5l-134.3 380.1-111.5-309.7-107 309.7z"/>
				<path id="Layer" fill-rule="evenodd" class="s0" d="m659 342.6c-15.6 32.9-46.7 50.3-86 50.3-69.4 0-116.9-48.5-116.9-120.6 0-72.2 47.5-121.6 113.3-121.6 41.1 0 72.2 16.5 88.6 49.4v-40.2h33.9v223.8h-33.9zm-82.2 22c49.3 0 83.2-33.9 83.2-96 0-55.7-32.9-88.6-82.3-88.6-49.3 0-83.2 34.7-83.2 94.1 0 58.5 30.2 90.5 82.3 90.5z"/>
				<path id="Layer" class="s0" d="m729.3 186.4v-26.5h44.8v-92.3h32.9v92.3h49.4v26.5h-49.4v197.3h-32.9v-197.3z"/>
				<path id="Layer" fill-rule="evenodd" class="s0" d="m905.7 272.3c0.9 58.4 34.8 93.2 83.2 93.2 36.6 0 62.1-18.3 81.3-54l31.1 15.6c-24.7 45.7-59.4 65.8-112.4 65.8-71.3 0-119.7-49.4-119.7-119.7 0-74.9 49.3-122.4 118.8-122.4 65.8 0 111.5 43.8 111.5 113.2q0 4.2 0 8.3zm77.7-90.5c-39.3 0-71.3 25.6-75.9 64.9h151.7c-2.7-42-30.1-64.9-75.8-64.9z"/>
				<path id="Layer" class="s0" d="m1249.4 151.7c9.1 0 19.2 1.8 28.3 4.5l-11 29.3c-8.2-2.8-16.4-3.7-22.8-3.7-37.5 0-74 36.6-74 91.4v110.5h-33.9v-223.8h33.9v44.8c24.6-37.5 45.7-53 79.5-53z"/>
				<path id="Layer" class="s0" d="m1310.6 327.1c11 25.6 31.1 37.4 60.3 37.4 29.3 0 46.6-14.6 46.6-36.5 0-31.1-30.1-35.6-68.5-50.3-39.3-14.6-58.5-32.8-58.5-61.2 0-37.4 32-64.8 78.6-64.8 39.3 0 68.5 16.4 81.3 45.6l-31 16.5c-8.3-21-26.5-32.9-52.1-32.9-23.8 0-40.2 14.6-40.2 32.9 0 21.9 20.1 31.1 58.5 42.9 43.8 13.7 68.5 28.4 68.5 69.5 0 40.2-32.9 67.6-88.7 67.6-42 0-73.1-19.2-85.9-49.4z"/>
			</g>
		</g>
		<g id="Layer">
			<path id="Layer" class="s0" d="m1465.1 150.8l41.1-0.1v7.4h-16.5v42.9h-9.1v-42.9h-16.4z"/>
			<path id="Layer" class="s0" d="m1511.7 150.8l12.8-0.1 13.7 40.2 13.7-40.2h12.8v51.2h-8.2v-39.3l-13.7 39.3h-7.4l-13.7-39.3v39.3h-8.2z"/>
		</g>
	</g>
</svg>