<svg version="1.2" baseProfile="tiny-ps" xmlns="http://www.w3.org/2000/svg" viewBox="0 0 1615 1616" width="1615" height="1616">
	<title>2019-annual-report-1-pdf-svg</title>
	<defs>
		<clipPath clipPathUnits="userSpaceOnUse" id="cp1">
			<path d="M-2121.72 -3175.94L3739.72 -3175.94L3739.72 4791.94L-2121.72 4791.94L-2121.72 -3175.94Z" />
		</clipPath>
	</defs>
	<style>
		tspan { white-space:pre }
		.shp0 { fill: #ff3818 } 
		.shp1 { fill: #ffffff } 
	</style>
	<g id="Clip-Path: Page 1" clip-path="url(#cp1)">
		<g id="Page 1">
			<path id="Path 44" class="shp0" d="M0 1615.73L1614.18 1615.73L1614.18 0.27L0 0.27L0 1615.73Z" />
			<path id="Path 46" fill-rule="evenodd" class="shp1" d="M1315.92 858.12C1237.11 858.12 1179.51 914.59 1179.51 994.17C1179.51 1074.16 1236.75 1130.28 1315.92 1130.28C1395.55 1130.28 1452.38 1074.16 1452.38 994.17C1452.38 914.59 1395.14 858.12 1315.92 858.12ZM1315.92 1096.9C1266.06 1096.9 1239.65 1059.45 1239.65 994.17C1239.65 929.3 1266.42 891.49 1315.92 891.49C1365.48 891.49 1392.24 929.3 1392.24 994.17C1392.24 1059.45 1365.84 1096.9 1315.92 1096.9ZM1040.15 1005.93C1040.15 1013.25 1041.22 1018.03 1044.17 1023.89L1087.83 1023.89L1087.83 1088.81C1073.53 1094.71 1059.18 1097.26 1044.53 1097.26C991.71 1097.26 964.24 1059.5 964.24 994.22C964.24 928.94 991.71 891.14 1041.63 891.14C1074.95 891.14 1094.39 907.62 1105.79 936.27L1109.81 946.55L1136.21 946.55L1136.21 880.86C1103.19 865.09 1073.53 858.12 1039.03 858.12C958.33 858.12 904.1 912.05 904.1 994.58C904.1 1077.46 956.86 1130.28 1039.03 1130.28C1071.65 1130.28 1105.43 1121.12 1141.71 1103.11L1141.71 988.68L1044.17 988.68C1041.22 994.58 1040.15 998.95 1040.15 1005.93ZM880.59 1094.71C863.7 1094.71 859.32 1085.15 857.08 1063.88L855.66 1050.29C852.35 1021.34 838.77 1002.62 805.39 1000.07L805.39 998.95C838.41 997.48 872.5 975.5 872.5 934.08C872.5 892.26 838.41 866.21 785.95 866.21L638.55 866.21L638.55 898.11L669.69 898.11L669.69 1091.05L619.06 1091.05L527.38 866.21L478.58 866.21L388.73 1091.05L363.08 1091.05L363.08 1122.95L460.27 1122.95L460.27 1091.05L429.48 1091.05L446.32 1045.15L541.67 1045.15L558.57 1091.05L528.5 1091.05L528.5 1122.95L759.19 1122.95L759.19 1091.05L724.33 1091.05L724.33 1012.9L744.53 1012.9C784.88 1012.9 796.94 1027.19 801.37 1064.23L802.84 1077.11C806.86 1111.2 824.11 1125.85 859.68 1125.85C869.95 1125.85 880.23 1125.14 888.27 1124.02C890.46 1120 891.58 1115.22 891.58 1109.01C891.58 1102.75 890.46 1097.97 888.27 1093.95C886.08 1094.3 883.49 1094.71 880.59 1094.71ZM458.08 1014.02L494 916.83L529.97 1014.02L458.08 1014.02ZM767.63 980.64L724.33 980.64L724.33 898.11L767.63 898.11C800.6 898.11 817.14 912.41 817.14 939.17C817.14 965.58 800.25 980.64 767.63 980.64ZM329.3 898.11C353.87 898.11 362.32 908.74 370.41 939.58L372.95 949.45L399.36 949.45L399.36 866.21L178.23 866.21L178.23 898.11L209.37 898.11L209.37 1091.05L178.23 1091.05L178.23 1122.95L300.7 1122.95L300.7 1091.05L264.02 1091.05L264.02 1016.2L339.58 1016.2C342.53 1009.94 343.65 1005.21 343.65 997.89C343.65 990.92 342.53 986.49 339.58 980.28L264.02 980.28L264.02 898.11L329.3 898.11ZM1443.58 662.28C1443.58 621.93 1419.01 594.05 1372.81 583.41L1326.2 572.78C1299.08 566.52 1287.73 555.89 1287.73 537.93C1287.73 516.3 1304.93 502.72 1338.67 502.72C1372.45 502.72 1392.24 514.83 1399.93 543.42L1403.23 555.89L1429.64 555.89L1429.64 492.44C1399.93 477.43 1368.38 469.7 1336.48 469.7C1273.79 469.7 1233.45 499.77 1233.45 548.2C1233.45 585.6 1256.9 613.13 1302.03 623L1348.59 633.28C1378.3 639.89 1389.29 651.59 1389.29 671.08C1389.29 694.89 1371.33 708.12 1335.41 708.12C1294.71 708.12 1273.79 691.94 1264.63 661.16L1259.85 645.39L1233.45 645.39L1233.45 717.28C1266.82 733.77 1298.72 741.09 1341.62 741.09C1403.23 741.09 1443.58 710.31 1443.58 662.28ZM1208.82 646.1L1182.46 646.1L1179.51 658.97C1172.19 691.59 1161.91 701.86 1137.69 701.86L1086.71 701.86L1086.71 508.98L1121.56 508.98L1121.56 477.07L1000.92 477.07L1000.92 508.98L1032.06 508.98L1032.06 701.86L1000.92 701.86L1000.92 733.77L1208.82 733.77L1208.82 646.1ZM977.77 646.1L951.36 646.1L948.46 658.97C941.09 691.59 930.86 701.86 906.64 701.86L855.66 701.86L855.66 508.98L890.51 508.98L890.51 477.07L769.82 477.07L769.82 508.98L801.01 508.98L801.01 701.86L769.82 701.86L769.82 733.77L977.77 733.77L977.77 646.1ZM282.39 733.77L335.91 547.44L388.01 733.77L439 733.77L503.16 508.98L553.78 508.98L553.78 701.86L522.64 701.86L522.64 733.77L743.06 733.77L743.06 646.1L716.65 646.1L713.7 658.97C706.37 691.59 695.74 701.86 671.88 701.86L608.43 701.86L608.43 622.29L682.15 622.29C685.11 616.03 686.17 611.3 686.17 603.92C686.17 597 685.11 592.57 682.15 586.36L608.43 586.36L608.43 508.98L669.33 508.98C693.91 508.98 702.3 519.61 710.39 550.39L712.99 560.31L739.4 560.31L739.4 477.07L428.36 477.07L428.36 508.98L464.28 508.98L422.1 664.11L369.65 477.07L316.83 477.07L265.49 663.7L222.6 508.98L257.05 508.98L257.05 477.07L137.53 477.07L137.53 508.98L166.84 508.98L231.4 733.77L282.39 733.77Z" />
		</g>
	</g>
</svg>