<svg version="1.2" xmlns="http://www.w3.org/2000/svg" viewBox="0 0 1600 400" width="1600" height="400">
	<title>welltower-logo-vector-svg</title>
	<style>
		.s0 { fill: #3797b6 } 
		.s1 { fill: #27628e } 
	</style>
	<g id="Layer">
		<path id="Layer" class="s0" d="m162.2 211.5l34.9 112.1 30.1-111.3h51.7l-57 184.5h-46.9l-35.1-112.3-36 112.3h-46.6l-56.5-184.5h52.7l29.6 111 34.4-111.8z"/>
		<g id="Layer">
			<path id="Layer" fill-rule="evenodd" class="s0" d="m283.4 305v-0.8c0-52.2 37.3-95.3 90.6-95.3 61.3 0 89.3 47.3 89.3 99.5 0 4-0.3 8.8-0.8 13.6h-127.6c5 23.7 21.5 35.9 44.7 35.9 17.6 0 30.1-5.6 44.5-18.9l29.8 26.4c-17 21.3-41.8 34.1-74.8 34.1-54.9 0-95.7-38.6-95.7-94.5zm129.5-15.5c-3.2-23.1-16.8-38.9-38.6-38.9-21.6 0-35.7 15.5-39.7 38.9z"/>
			<path id="Layer" class="s0" d="m491 82.7h51.9v312.8h-51.9z"/>
			<path id="Layer" class="s0" d="m584.7 0.1h52v395.4h-52z"/>
			<path id="Layer" class="s1" d="m684.6 343.6v-195.7h52v58h43.1v44.5h-43.1v84.6c0 12 5 17.9 16.7 17.9 9.6 0 18.2-2.4 25.6-6.4v41.8c-10.9 6.4-23.7 10.6-41 10.6-32-0.2-53.3-13-53.3-55.3z"/>
			<path id="Layer" fill-rule="evenodd" class="s1" d="m794.4 305v-0.8c0-52.8 42.3-95.3 99.6-95.3 56.7 0 98.8 42 98.8 94.7v0.8c0 52.7-42.3 95.3-99.6 95.3-56.7-0.2-98.8-42.3-98.8-94.7zm147 0v-0.8c0-26.9-19.4-50.6-48.2-50.6-29.8 0-47.4 22.9-47.4 49.8v0.8c0 26.8 19.4 50.5 48.2 50.5 29.6 0 47.4-22.9 47.4-49.7z"/>
			<path id="Layer" class="s1" d="m997.1 212.3h52.7l29.6 111 34.4-111.8h44.7l34.9 112.1 30.1-111.3h51.7l-57 184.5h-46.9l-35.1-112.3-36 112.3h-46.6z"/>
			<path id="Layer" fill-rule="evenodd" class="s1" d="m1279.7 305v-0.8c0-52.2 37.3-95.3 90.6-95.3 61.3 0 89.2 47.3 89.2 99.5 0 4-0.2 8.8-0.8 13.6h-127.6c5.1 23.7 21.6 35.9 44.8 35.9 17.3 0 30.1-5.6 44.5-18.9l29.8 26.4c-17 21.3-41.8 34.1-74.8 34.1-54.9 0-95.7-38.6-95.7-94.5zm129.2-15.5c-3.2-23.1-16.7-38.9-38.6-38.9-21.6 0-35.7 15.5-39.7 38.9z"/>
			<path id="Layer" class="s1" d="m1488.9 212.3h51.9v37c10.7-25.3 27.7-41.8 58.6-40.4v54.3h-2.7c-34.6 0-55.6 20.7-55.6 64.7v67.6h-52v-183.2z"/>
		</g>
	</g>
</svg>