<svg version="1.2" xmlns="http://www.w3.org/2000/svg" viewBox="0 0 1601 641" width="1601" height="641">
	<title>West_Pharmaceutical_Services_Logo-svg</title>
	<defs>
		<clipPath clipPathUnits="userSpaceOnUse" id="cp1">
			<path d="m-556.88 0.04h2715.18v640.71h-2715.18z"/>
		</clipPath>
	</defs>
	<style>
		.s0 { fill: #235492 } 
	</style>
	<g id="layer1">
		<g id="g9581">
			<g id="Clip-Path: g9583" clip-path="url(#cp1)">
				<g id="g9583">
					<g id="g9637">
						<path id="path9595" class="s0" d="m1268.2 581l48.1 2.3 38.5-1.8-56.1 59.2zm169.1-522.7l-55.1 2.7 56.6-60.9 30.3 59.8zm4.6 48.9l-108.4 5.2 44.4-46.9 30.4 1.5 63-3.1 24 47.5-51.8-2.5zm35.9 47.6l-193.3 9.3 44.6-47 126.9 6.1q-2.1-2.7-4.4-5.3l46-2.2 23.9 47.3-40.2-1.9q-1.7-3.2-3.5-6.3zm21.3 48.1l-263.3 12.6 44.6-47.1 209.4 10.1q-2-4.7-4.3-9.2l38.3-1.9 24 47.4-45.8-2.2q-1.3-4.9-2.9-9.7zm10.4 48.8l-322.5 15.5 44.6-47.2 275.2 13.2q-1.1-6-2.5-12l45.6-2.2 24 47.3-63.4-3q-0.3-5.9-1-11.6zm0.5 49.4l-372.1 17.9 45-47.5 328 15.7q0.1-4.2 0.1-8.4v-4.8l65.2-3.1 24.3 47.8-92-4.4q0.9-6.5 1.5-13.2zm-10.7 53.3l-337.8 16.2-24.2-47.7 366 17.5c1.1-4.4 2.1-8.8 3-13.3l93.6-4.5-45.1 47.7-60.1-2.9q2.5-6.4 4.6-13zm-24.9 54.1l-286.7 13.7-23.8-47.1 320.6 15.4q3.2-6.4 6.1-13l60.1-2.9-44.8 47.3-39-1.9c2.6-3.8 5.1-7.6 7.5-11.5zm-45.9 54.9l-214.7 10.3-23.9-47.2 262.3 12.6q4.5-5.3 8.6-10.8l40.9-1.9-44.8 47.2-38.3-1.8q5.1-4.1 9.9-8.4zm-103.3 57.7l-85.2 4.1-23.9-47.1 181.8 8.7q5-3.2 9.8-6.7l45.1-2.1-44.6 47.1zm-12.5 53.5l-46.6 2.3-24-47.3 83.3 4 78.2-3.8-44.5 47.1z"/>
					</g>
					<g id="g9649">
						<path id="path9591" fill-rule="evenodd" class="s0" d="m1010.6 114.1h109l-19 89.3h38.2l-15 70.8h-38.2l-28.8 135.4c-4.2 19.6-3.2 28.1 14.8 28.1 8.4 0 13.6-0.6 17.8-1.7l-15.4 72.5c-9.2 1.1-38.4 3.3-54.6 3.3-62.4 0-92.8-2.2-78.2-70.7l35.4-166.9h-33.1l15-70.8h33.2zm-256.3 295.5c-1.6 12.9-3.1 22.5-0.7 29.8 2.4 7.3 8.1 11.8 20.5 11.8 19.1 0 26.3-18 27.5-23.6 3.1-14.6 0.7-19.1-35.7-33.1-64.9-24.8-92.9-41.1-81.1-96.7 13-61.2 56.6-102.2 140.8-102.2 121.3 0 107.2 66.3 101.3 94.4h-92.1c1.6-7.9 2.4-16.9 0.1-21.9-2.7-5.7-8.3-8.5-20.1-8.5-11.2 0-23.9 3.9-27.4 20.8-3.1 14.6 10.3 20.2 71.1 43.3 28 10.6 62 25.3 48.3 89.9-16 75.2-78.9 101.7-146.3 101.7-79.2 0-118-20.8-101.7-105.7zm-398-303.4h105.6l-151.5 401.2h-120.2l23.6-269.7h-1.1l-89.3 269.7h-122.5l19.6-401.2h108.9l-34 284.3h1.1l95.8-284.3h98.9l-20.6 284.3h1.2zm135.6 306.8c-3.4 16.3-6.9 38.2 15.5 38.2 21.4 0 27.8-19.7 34.4-50.6h98.8c-8.8 41.6-26.2 70.2-51.3 88.2-25.2 18-57.9 26.4-94.9 26.4-120.2 0-117.4-74.1-99.1-160.1 18.1-85.4 46.8-159.5 167-159.5 124.1 0 108.8 77.5 88.6 172.4l-1.1 5.1h-149.4zm71.7-115.2c6.3-29.8 1.4-38.2-16.1-38.2-15.7 0-24.8 8.4-31.1 38.2l-4.3 22h47.1z"/>
					</g>
					<g id="g9657">
						<path id="path9655" class="s0" d="m1525.5 88.3h-7.6v-2.6h18.2v2.6h-7.5v20.2h-3.1zm13.2-2.5h4.2l7.2 19.1 7.2-19.1h4.1v22.8h-2.8v-19h-0.1l-7.1 19h-2.6l-7.1-19h-0.1v19h-2.9z"/>
					</g>
				</g>
			</g>
		</g>
	</g>
</svg>