<svg version="1.2" xmlns="http://www.w3.org/2000/svg" viewBox="0 0 1496 455" width="1496" height="455">
	<title>Western_Digital_logo-svg</title>
	<style>
		.s0 { fill: #53a5ff } 
		.s1 { fill: #ff0057 } 
		.s2 { fill: #a34eff } 
		.s3 { fill: #000000 } 
	</style>
	<g id="g141">
		<path id="path31" class="s0" d="m1399 0.8h41.7c10.2 0 18.3 7.9 18.3 18v41.2c0 15.9-19.8 23.9-30.8 12.3l-41.6-41.2c-11.7-10.8-3.7-30.3 12.4-30.3z"/>
		<path id="path33" class="s1" d="m1328.8 100.5c10.3 0 18.3 8 18.3 18.1v41.2c0 15.9-19 23.8-30.7 12.3l-13.2-13-21.9-21.7-1.4-1.5-5.2-5-59.2-58.6-3.6-3.6-0.8-0.7-21.9-21.7-16.1-15.9c-11.7-10.8-3.6-30.3 12.5-30.3h41.6c10.3 0 18.3 7.9 18.3 18v50.6c0.7 17.4 14.6 31.8 32.2 31.8h29.9z"/>
		<path id="path35" class="s2" d="m1440.7 100.5c10.2 0 18.3 8 18.3 18.1v41.2c0 15.9-19.1 23.8-30.8 12.3l-13.1-13-21.9-21.7-1.5-1.5-5.1-5-59.2-58.6-3.7-3.6-0.7-0.7-21.9-21.7-16.1-15.9c-11.7-10.8-3.7-30.3 12.4-30.3h41.7c10.2 0 18.2 7.9 18.2 18v50.6c0.8 17.4 14.7 31.8 32.2 31.8h30z"/>
		<path id="path37" fill-rule="evenodd" class="s3" d="m437 274.7h31.5v27.5h24.8v21.6h-24.8v53.5c0 9.4 5.8 15.9 15.3 15.9 5.1 0 8-0.7 8.8-0.7v18.8c-1.5 0.7-10.3 3.6-22 3.6-25.5 0-33.6-16.6-33.6-36.9zm292.4 40.5h0.8c2.1-3.6 9.5-16.6 31.4-16.6 27 0 39.5 17.3 39.5 39.7v73h-32.2v-65.7c0-11.6-5.9-21.7-19.7-21.7-12.5 0-19.8 8.7-19.8 21.7v65.7h-32.1v-109.1h31.4zm-42.4-15.9v24.6c-19 0-35.1 10.1-35.1 33.2v54.2h-32.2v-109.1h28.5v18.1h0.8c2.2-5.1 8.8-21 37.3-21zm-309.3 22.4c-9.5 0-14.6 3.6-14.6 8.7 0 7.2 8.1 9.4 16.1 11.5 3.7 0.8 8.1 2.2 12.4 3.7 16.9 5.7 31.5 14.4 31.5 34.7 0 23.8-22 34.6-47.5 34.6-33.7 0-45.4-18-47.6-23.1l22-11.5c2.2 3.6 9.5 12.2 24.1 12.2 11.7 0 18.3-4.3 18.3-10.1 0-6.5-6.6-8.7-15.4-11.5-4.4-1.5-8.8-2.9-13.9-4.4-16.1-5-30.7-14.4-30.7-33.9 0-21 19.8-33.3 43.2-33.3 32.1 0 42.4 15.9 45.3 20.2l-20.5 13.8c-2.2-2.9-7.3-11.6-22.7-11.6zm-156.4-67.2l-40.9 156.8h-39.5l-28.5-111.3-29.2 111.3h-41.7l-40.9-156.8h33.6l29.2 114.9 30-114.9h39.5l29.2 112 28.5-112zm100.7 111.3h-78c1.4 15.2 10.9 26 24.8 26 17.6 0 22.7-10.8 24.2-13.7l21.2 12.3c-3 6.5-15.4 24.5-46.1 24.5-35.1 0-56.3-25.3-56.3-57.8 0-32.5 21.2-57.8 54.8-57.8 37.3 0 54.9 28.9 54.9 57.8 0 0 0 8.1 0.5 8.7zm0.2 0q-0.1 0.1-0.2 0zm-32.1-21c-0.8-13-8.8-23.1-22.7-23.1-15.3 0-21.9 10.9-23.4 23.1zm315.7 21h-78.1c1.5 15.2 11 26 24.9 26 17.5 0 22.6-10.8 24.1-13.7l21.2 12.3c-3 6.5-15.4 24.5-46.1 24.5-35.1 0-56.3-25.3-56.3-57.8 0-32.5 21.2-57.8 54.9-57.8 37.2 0 54.8 28.9 54.8 57.8 0 0 0 8.1 0.6 8.7zm0.1 0q-0.1 0.1-0.1 0zm-32.9-21c-0.8-13-8.8-23.1-22.7-23.1-15.3 0-21.9 10.9-23.4 23.1zm669.6-70.1h31.4v27.5h24.9v21.7h-24.9v53.5c0 9.4 5.9 15.9 15.4 15.9 5.1 0 8-0.8 8.8-0.8v18.8c-1.5 0.8-10.3 3.6-22 3.6-25.6 0-33.6-16.6-33.6-36.8zm-247.1 57.8c0 54.9-29.9 78.8-80.4 78.8h-54.1v-156.9h54.1c49.7 0 80.4 23.9 80.4 78.1zm-35.1 0c0-24.6-6.5-52-47.5-52h-18.3v104.8h18.3c41.7 0 47.5-27.5 47.5-52.8zm465.7-78.1h32.9v156.9h-32.9zm-257.3 47.7v96.8c0 32.5-17.6 55.7-54.1 55.7-35.1 0-44.6-20.3-46.8-24.6 0 0 18.3-10.8 21.2-12.3 2.2 3.6 9.5 13 24.1 13 12.4 0 23.4-9.4 23.4-24.5v-12.3h-0.7c-1.5 2.9-8.8 15.1-30 15.1-33.6 0-46-26.7-46-54.9 0-27.4 12.4-54.9 46-54.9 20.5 0 27.8 11.6 30 15.2h0.7v-12.3zm-32.9 52c0-16.6-4.4-31.8-21.2-31.8-16.8 0-21.2 15.9-21.2 31.8 0 14.5 2.9 31.8 21.2 31.8 18.3 0 21.9-17.3 21.2-31.8zm268.3-12.3v69.4h-30.7v-10.8h-0.7c-1.5 2.1-9.5 14.4-31.5 14.4-20.4 0-35.8-14.4-35.8-35.4 0-25.3 21.2-36.8 53.4-36.8h13.9v-2.2c0-12.3-9.5-18.8-23.4-18.8-12.5 0-19.8 6.5-22.7 10.8l-18.3-13.7c3-4.3 13.9-19.5 43.2-19.5 27.7 0 52.6 12.3 52.6 42.6zm-32.2 19.5h-12.4c-16.1 0-22.7 6.5-22.7 15.9 0 8.7 6.6 14.5 16.1 14.5 13.9 0 19.8-10.8 19.8-23.9zm-359.7-59.2h32.9v109.1h-32.9zm16.1-15.2c-9.7 0-17.6-7.7-17.6-17.3 0-9.6 7.9-17.4 17.6-17.4 9.7 0 17.5 7.8 17.5 17.4 0 9.6-7.8 17.3-17.5 17.3zm160.8 15.2h32.9v109.1h-32.9zm16.1-15.1c-9.7 0-17.6-7.8-17.6-17.4 0-9.6 7.9-17.3 17.6-17.3 9.7 0 17.5 7.7 17.5 17.3 0 9.6-7.8 17.4-17.5 17.4zm272.6-120.7h8.1v1.4h-2.9v7.2h-2.2v-7.2h-3zm8.8 0h2.2l2.2 6.5 2.2-6.5h2.2v8.7h-1.5v-5.8l-2.2 5.8h-1.4l-2.2-5.8v5.8h-1.5z"/>
	</g>
</svg>