<svg version="1.2" xmlns="http://www.w3.org/2000/svg" viewBox="0 0 1589 346" width="1589" height="346">
	<title>logo-westrock-svg</title>
	<style>
		.s0 { fill: #ff8200 } 
		.s1 { fill: #0085ca } 
		.s2 { fill: #004b87 } 
	</style>
	<g id="Layer">
		<path id="Layer" class="s0" d="m177.3 148l177.2 25-177.2 25-177.3-25z"/>
		<path id="Layer" fill-rule="evenodd" class="s1" d="m177.3 230.7l177.2-36.3-177.2 77.8-177.3-77.8zm0-115.3l-177.3 36.2 177.3-77.4 177.3 77.4z"/>
		<path id="Layer" fill-rule="evenodd" class="s2" d="m177.3 307.1l177.2-91.3-177.2 130.2-177.3-130.5zm0-267.9l-177.3 91.3 177.3-130.5 177.3 130.5c0 0-177.3-91.3-177.3-91.3zm718.9 189c0 16.7-7.8 27.2-15.4 33.7-7.2 6.6-20 13.8-46 13.8-25.9 0-50.2-14.1-59.8-24.6l18.4-22.9c10.5 11.1 29.9 19 43.1 19 12.8 0 22.9-3.3 22.9-13.5 0-10.1-15.1-13.7-22.9-16-7.9-2.6-15.5-4.6-23-7.6-7.6-2.9-30.9-11.5-30.9-39 0-27.5 23.3-44.9 57.8-44.9 34.2 0 54.9 19.3 54.9 19.3l-14.5 23.6c-11.8-9.5-27.3-15.4-39.7-15.4-12.2 0-22.4 3-22.4 12.8 0 9.9 11.5 12.5 22.4 16.1 10.8 3.3 23 7.2 27.2 9.2 4.6 1.3 27.9 10.5 27.9 36.4zm62.8-136.8v37.4h38.1v27.2h-37.8v65.3c0 8.5 1.3 15.4 3.6 19 2.3 3.6 7.3 6.6 13.5 6.6q2.1-0.1 4.2-0.2 2.1-0.2 4.2-0.5 2.1-0.2 4.2-0.7 2.1-0.4 4.1-0.9l3.7 26.5c-6.9 2-20.1 4.6-31.3 4.6-12.8 0-23.9-2.6-32.5-10.8-8.8-8.5-11.1-20-11.1-36.7v-72.2h-20.4v-27.2h21v-37.4zm465.2 136.8l16.4 24.6c-3 3.2-19.4 22.9-57.8 22.9-38.5 0-71-25.6-71-74.7 0-49.2 35.5-74.8 72.3-74.8 36.8 0 53.5 21 55.5 23.6l-17.1 22.9c0 0-13.8-16-34.5-16-20.7 0-39.4 13.1-39.4 43.6 0 30.5 18.4 43.6 39.8 43.6 21.3 0 35.4-15.7 35.8-15.7zm105.4-42.7c0 0 58.5 87.3 58.5 87.3h-43.1l-40-60.4-15.8 15.4v45.3h-37.4v-197.4h37.4v111.1l51.9-57.7h44zm-861.3 24.3c1 24.6 16.4 37.7 39.4 37.7 23 0 39.8-11.8 43.1-14.7l12.8 22.6c0 0-19.1 20.3-60.8 20.3-41.7 0-71.9-26.9-71.9-74.8 0-47.8 30.8-74.7 71.9-74.7 40.7 0 64.7 29.8 64.7 72.1v11.5zm63.1-24.6c0-18.4-9.2-33.8-30.6-33.8-21.3 0-31.5 16.8-33.1 33.8zm570.2 15.7c0 46-29.5 74.8-72.9 74.8-43.7 0-72.9-28.5-72.9-74.8 0-46.2 29.5-74.7 72.9-74.7 43.7 0 72.9 28.5 72.9 74.7zm-38.1 0.1c0-25.8-15.5-46.6-34.8-46.6-19.3 0-34.8 20.8-34.8 46.6 0 25.7 15.5 46.5 34.8 46.5 19.3 0 34.8-20.8 34.8-46.5zm-797.6 74.7h-2.9l-57.8-199.7h38.1l34.8 112.5 45-93.5h3l44.6 93.5 34.8-112.5h38.8l-57.8 199.7h-3l-59.4-110.2c0 0-58.2 110.2-58.2 110.2zm694.2-2.6h-45.1l-61.4-75.8v75.8h-37.8v-197.1h58.2c0 0 37.1-2.3 56.5 13.1 10.2 8.2 21.3 25.3 21.3 47.6 0 22-11.1 39.3-21.3 47.5-8.6 6.6-20.1 10.5-33.2 12.2 0 0 62.7 76.7 62.8 76.7zm-79.9-104.9c9.5 0 16.4-1.4 22.7-5 1-0.3 14.1-7.5 14.1-25.5 0-27.9-20-32.8-36.5-32.8h-26.9v63.3c0 0 26.6 0 26.6 0z"/>
	</g>
</svg>