<svg version="1.2" xmlns="http://www.w3.org/2000/svg" viewBox="0 0 1578 301" width="1578" height="301">
	<title>Logo_Weyerhaeuser-svg</title>
	<style>
		.s0 { fill: #008147 } 
		.s1 { fill: #000000 } 
	</style>
	<g id="layer1">
		<g id="g2468">
			<g id="g2384">
				<path id="path2386" class="s0" d="m290.4 250.7c0 0-85.4 0-101.2 0-21.6 0-24.7-20.6-24.7-20.6l-9.5-55.5h4.5c-0.1 0 0.9 2.1 2.5 7 4.6 13.5 16.8 15.6 26.4 15.8 3.8 0 15 0 15 0l-58.2-100.3-58.3 100.3c3.7-0.1 12.2 0 12.2 0 22.3 0.4 27-10.4 28-12.5 1.4-3.1 3.9-10.3 3.9-10.3h4.5c0 0-6.4 40.9-10.2 58.1-4.4 19.2-25.6 17.9-25.6 17.9h-99.4l145.1-250.6z"/>
				<path id="path2388" class="s1" d="m536.3 110.5c-0.7-0.1-0.6-0.2-0.7-0.5-0.1-3.1-0.1-3.9-0.1-7 0-0.7 0.1-0.7 1-0.6 7.9 0.4 16.3 0.9 21.6 0.8 5.3-0.1 21.2-0.8 21.8-0.8 0.4-0.1 0.4 0.1 0.5 0.5 0 2.2-0.1 4-0.2 6.8 0 0.5-0.1 0.5-0.7 0.5-10.4 1.4-13.4 5.4-16.9 12.7-9.8 20.8-30.9 66.8-55.7 128.9-0.5 1.1-0.2 1.1-1.8 1.1-1.8 0-1.4 0.3-2.1-1.1-7.1-16-21.1-47.9-27.5-61.2-1.2-2.5-1-2.9-2.4 0-6.3 12.5-14.9 30.5-28 60.9-0.7 1.7-0.2 1.5-2.1 1.6-1.7 0-1.3 0.2-2-1.6-10.6-26-23.4-58-47.8-117.4-2.9-7.2-7-17.1-11.5-20.4-2.1-1.6-5-2.9-10-3.2-0.6 0-0.6-0.5-0.6-0.7-0.2-2.8-0.1-4.8 0-6.5 0-0.5 0.2-0.7 1-0.6 5.4 0.4 15.9 0.8 21.2 0.8 9.4-0.1 19.7-0.5 25.6-0.8 0.6-0.1 0.5 0.2 0.5 0.4 0.1 2.2 0.1 4.6 0 7.1 0 0.4-0.1 0.6-0.6 0.6-3.4-0.1-7.3 0.8-9.1 3.4-1.1 1.6-1.3 4.3-0.2 7.3 12.5 33.2 34.8 88.6 39 97.7 6.8-13.8 13.8-31.1 19.9-45.1-9.7-19.5-15.8-37.2-26.3-56.4-2.4-4.3-8.6-6.7-12.7-6.8-0.6 0-0.6-0.3-0.6-0.6 0-2.7-0.2-4.5 0.1-7.2 0-0.5 0.5-0.5 1-0.5 6.2 0.4 16.6 0.8 21.8 0.8 5.3 0 21-0.4 21.6-0.5 0.6 0 0.7 0.3 0.7 0.7 0.1 1.9 0.2 3.6 0.1 6.8q0 0.5-0.7 0.6c-2.5 0.1-6.3 0.5-8 3.2-1.1 1.6-1.3 3.1-0.4 5.5 4.9 14.1 13.3 31.2 13.6 31.2 0.3 0 9.9-21 13.7-32.4 1-2.9-1.5-7.2-8.7-7.9-0.7 0-0.6 0.1-0.6-0.2-0.2-2.9-0.2-5.6 0-7.4 0-0.5 0.2-0.6 0.7-0.6 0.5 0.1 16.3 0.8 21.7 0.7 5.8 0 9.9-0.2 16.3-0.5 0.6 0 0.5 0.4 0.5 0.6 0 2.8 0 4.7-0.1 6.9 0 0.6 0 0.7-0.6 0.7-8-0.5-12.2 2.3-14.1 5.5-7.4 12.6-18 36.1-22.9 49.1 7.7 17.2 15.9 36.5 23.8 53.6 5.8-12.2 12.5-28.1 18.3-41.2 8.5-19.3 19.3-46.6 21.7-53.3 2.3-6.7-0.2-10.6-2.4-11.8-2.4-1.3-5.6-1.9-9.6-2.2z"/>
				<path id="path2390" class="s1" d="m720.2 164.1c0.1-1.7-0.6-4-2.8-5.7-2.9-2.3-6.1-2-8.5-2.3-0.9-0.1-1.3 0.2-1.5-0.9-0.2-1.3 0.1-4.4 0.1-5.5 0.1-0.8 0.5-1 2.4-0.8 8.1 1.1 27.4 0.6 38.6-0.4 1.4-0.1 1.2 0.2 1.3 1.1 0.1 1.2 0.1 3.8 0 5.2-0.1 1-0.2 1.1-1.5 1.2-5 0.4-7.9 1.3-11.7 4.4-3.7 3.1-5.6 7.9-5.9 8.7-5.5 11.6-19.3 49.5-29.1 73.3-5.6 13.5-11.6 29.7-20.9 44.5-6.3 10.2-13 12.9-17.5 13.2-4.5 0.3-7.5-1.2-9.3-2.8-2-1.7-3.5-5.6-2.5-9.3 1-4.2 4-6.3 6.8-7.2 4.5-1.3 9-0.9 11.8-2.3 4.8-2.2 8.9-7.4 11.6-12.6 1.1-2 5.8-13.2 6.5-14.7 0.8-1.9 0.7-2.8 0.2-4.1-3.2-8.9-27.3-70.4-32.7-82.2-1.8-3.8-3-5.3-5.9-7.3-1.6-1-7.4-1.7-8.3-1.8-1 0-0.9 0.1-1-0.9-0.1-1-0.1-4-0.1-5.2 0.1-1.2 0.3-1.2 1.2-1.2 12.2 1.1 30.7 1.3 43.7 0.4 1.2-0.1 1.3-0.2 1.4 1.2 0.2 1.4 0.1 3.8 0.1 5.1 0 0.8-0.2 0.7-1.4 0.7-5 0.4-7.7 1.6-8.9 2.7-2.6 2.3-2.4 4.7-0.9 8.8 8.2 22 11.2 30.4 21.8 56 1 2.3 1.1 2.2 2-0.2 6.1-15.3 10.4-26.6 15-39.6 3.3-9.4 5.8-16.9 5.9-19.5z"/>
				<path id="path2392" class="s1" d="m871.5 168.7c2.6-3.9 12.7-20.7 28.8-20 3.2 0.1 8.7 1.3 9.1 5.7 0.4 4.3-2.4 15.5-7.9 13.9-9.9-2.8-19.4-4.2-25.9 4.3-1.9 2.5-4 7-4.2 16.1-0.2 4.7-0.1 27 0.2 46.7 0.1 6.2 4.4 7.6 5.7 8.1 2.4 1 7.1 0.7 9.4 0.9 0.5 0 0.7 0.2 0.8 0.7 0.2 2 0.2 4.2 0 5.9-0.1 0.3-0.2 0.5-1.2 0.4-2.4-0.1-8.8-0.8-22-0.9-12.5 0-22.3 1-25.2 1.2-0.6 0-0.9-0.1-1-0.5-0.3-1.6-0.3-3.6 0-6.1 0-0.3 0.2-0.4 0.8-0.5 2.1-0.2 8.5-0.2 12-2.8 1.9-1.4 3-3.2 3-6.3-0.1-17.1-0.1-31.4-0.1-50.5 0.1-3.8-0.9-12.6-2.2-15.2-2-3.8-6.9-3.7-10.4-4-0.8 0-1.1-0.1-1.1-0.7-0.1-1.5-0.1-3.1 0-4.3 0-0.9-0.3-0.9 0.9-1.4 9.7-3.9 18.1-7.8 25.6-12.3 0.8-0.5 1-0.7 1.5-0.4 0.5 0.2 1.4 0.7 2 1 0.5 0.3 0.5 0.4 0.6 1.3 0 0.8 0.1 17.2 0.4 19.6 0 0.6 0.2 0.5 0.4 0.1z"/>
				<path id="path2394" class="s1" d="m923.8 112.7c-2.1-3.4-6.5-3.4-9.5-3.5-1.3 0-1.5 0-1.4-1 0-1.4 0-3.2-0.1-4.3 0-0.7-0.1-0.9 1.4-1.4 11.4-4.2 19.2-8.6 25.2-12.1 1.3-0.8 1.2-0.9 2.1-0.5 0.9 0.5 1.7 0.9 2.9 1.4 1 0.5 0.9 0.5 0.6 2.4-0.8 6.7-0.8 10.1-1 16.5-0.3 11.4-0.6 30.1 0 50.1 0.2 4.3 0.8 3.4 3.2 2 5.3-3 15.5-9.7 23.2-12.6 2.2-0.8 4.5-1.6 7-1.5 14.2 0.2 23.1 4.7 29.1 12.4 7.3 9.4 5.1 27.7 5.2 38.3 0.2 10.6-0.8 28.1-0.7 33.3 0 5 1.5 7.5 3.3 9.4 1.8 1.9 6.3 2.2 9.9 2.5 1.6 0.2 1.5 0 1.6 1.6 0.1 1.9 0.1 3.3 0.1 4.6-0.1 1.2-0.3 1.1-2.3 0.9-6.8-0.8-14.8-1.3-21.7-1.2-5.6 0.1-13.7 0.1-22.1 0.7-1.6 0.1-2 0.4-2-1.2 0-1.6 0-3 0.1-4.5 0.1-1.3-0.1-1.6 1.5-1.6 2.6 0 9.2-0.4 11.4-2.2 2.7-2.2 2.8-9.4 2.8-9.4 0 0 0.9-17 0.4-44-0.1-6.6 0.7-16.1-7.9-23-11.5-9.1-27.2-1.2-28.5-0.5-4.4 2.3-9.8 5.9-12.3 8.3-1.2 1.2-1.3 1.8-1.5 4.2-0.5 6.4-0.6 25.3-0.2 58.3 0 4 2.7 5.8 3.5 6.4 2.6 2 7.9 2.1 10.7 2.2 1.3 0.1 1.5 0.1 1.5 1.6 0.1 1.4 0.1 3.1 0 4.8-0.1 1-0.3 0.9-2 0.8-8.9-0.7-13.8-0.8-22.6-0.9-9 0-15.8 0.6-23.1 1.2-1.2 0.2-1.5 0.1-1.5-0.8-0.1-1.6-0.1-3.3-0.1-5.3 0-0.9 0.2-1.3 1.7-1.3 3.9 0 9.8-0.4 11.8-3 1.4-1.7 2.1-4.2 2.3-5.7 0.2-2.9 0.1-49.8 0.3-111.1 0-6.9-0.8-9.1-2.3-11.3z"/>
				<path id="path2396" class="s1" d="m1295.4 235.7c-0.6-0.4-6 5.5-16.4 11.4-20.3 11.3-34.8 3.8-41.6-3.7-6.3-7.1-6.5-19.1-6.5-19.1 0 0-1.6-40.3-1.6-55.4 0-8.8-3.5-11.2-8.4-11.2-2.4 0-4.2 0-4.6-0.4-0.4-0.5-0.4-6.5 0-7.2 0.5-0.7 8.9-0.3 15.4-0.8 8-0.6 15-1.9 15.6-1.5 0.5 0.4 0.1 35.5 0.2 61.2 0.2 25.5 10 29 22.3 29.2 11.3 0.3 25.6-11.9 25.6-11.9 0 0 0.3-40.5 0.3-56.4 0-8.6-3.3-11.3-8.7-11.8-2.3-0.3-8.6-0.2-9-0.6-0.4-0.5-0.5-6.3 0-6.9 0.2-0.3 11.6-0.6 19.4-1.4 8.3-0.8 15.9-1.7 16.1-1.6 0.4 0.2-0.6 7-0.8 19.2-0.5 18.3 0 45.2 0.2 61.1 0.1 8.3 3.9 11.4 8.7 11.9 5.2 0.5 5.9 0.2 6.2 0.6 0.3 0.3 0.2 6.1-0.1 6.4-0.3 0.4-8.8 0.6-17.1 2.4-7.5 1.7-12.9 3.9-13.4 3.8-0.5-0.2-3.3-3.1-3.2-3.4 0.7-2.8 1.8-13.7 1.4-13.9z"/>
				<path id="path2398" class="s1" d="m1394.6 151.6c0.4 0.6 2.4 19.4 2 19.9-0.3 0.5-4.7 1.3-5.1 1-0.8-0.3-1.1-7.3-8.1-13.5-7.2-6.3-15.8-5.7-21.7-0.9-6.6 5.6-7.4 14.6-0.2 22.1 4.6 4.9 10.5 8.4 15.7 11.8 9.1 6 22 12.8 23.4 27.2 1.4 13.3-5.2 25-18.2 30.3-18.9 7.7-40.6-2-41-2.7-0.5-0.7-3.7-24.3-3.4-24.8 0.3-0.5 5.8-1 6.2-0.7 0.8 0.4 1.7 11.6 8.7 18 10.1 9.2 29.1 4.8 31.4-8.3 2.9-15.6-17.9-21.7-29.7-31.6-5.6-4.6-10.8-9.8-12.6-17.3-2.7-11 0-22.9 8.5-28.8 10.5-7.4 20.9-7.1 28.8-6.1 7.9 1.1 15.2 4.2 15.3 4.4z"/>
				<path id="path2400" class="s1" d="m1540.1 168.7c2.5-3.9 12.7-20.8 28.8-20.1 3.1 0.2 8.6 1.4 9.1 5.8 0.4 4.3-2.5 15.4-8 13.9-9.9-2.8-19.4-4.2-25.9 4.3-1.8 2.5-3.9 7-4.2 16-0.2 4.8 0 27.1 0.2 46.8 0.1 6.2 4.5 7.6 5.7 8.1 2.5 1 7.2 0.7 9.5 0.9 0.4 0 0.7 0.1 0.7 0.7 0.3 2 0.3 4.2 0 5.9-0.1 0.3-0.1 0.5-1.1 0.4-2.4-0.1-8.9-0.8-22-0.9-12.6 0-22.3 1-25.2 1.2-0.6 0-1-0.1-1-0.5-0.3-1.6-0.4-3.6-0.1-6.1 0.1-0.3 0.2-0.4 0.8-0.5 2.2-0.2 8.6-0.2 12.1-2.8 1.8-1.4 3-3.2 2.9-6.3 0-17.1-0.1-31.4 0-50.5 0-3.8-0.9-12.6-2.3-15.2-1.9-3.8-6.8-3.7-10.3-4-0.8 0-1.1-0.1-1.1-0.7-0.1-1.5-0.1-3.1 0-4.3 0-0.9-0.4-0.9 0.9-1.4 9.6-3.9 18-7.8 25.5-12.3 0.9-0.5 1-0.7 1.5-0.4 0.6 0.2 1.4 0.7 2 1 0.6 0.3 0.6 0.4 0.6 1.2 0.1 0.9 0.1 17.3 0.4 19.7 0.1 0.6 0.2 0.5 0.5 0.1z"/>
				<path id="path2402" fill-rule="evenodd" class="s1" d="m1453.5 188h-2.2c-9.5 0.1-17 0.2-17.3 0.7-1.7 2.2-1.5 21.6 4.8 31.1 8.6 13.1 21.2 18.9 35.4 18.4 10.6-0.4 20.2-7.8 20.2-7.8l3.9 5.4c-6 7.6-35.5 29.4-62.9 8.2-22.6-17.6-18.6-47.6-17.3-55.2 2.2-12.9 13.9-41 46-41 30.9 0 34.5 25.6 32.8 34.4-1.3 6.7-6.8 5.9-6.8 5.9 0 0-20.4-0.2-36.6-0.1zm-2.2-8.8h23.9c0 0 5.3 0.5 5-7.2-0.5-8.7-6.8-15.2-17.4-15.5-12.9-0.2-22.2 9.7-25.4 17.6-2.1 5.1-2.5 5 1.3 5.1h12.6z"/>
				<path id="path2404" fill-rule="evenodd" class="s1" d="m1105.9 215.9c-0.2 6.9-0.3 12.6-0.3 15.9 0 9.7 5.3 10.6 5.3 10.6 5 0.8 9.9-3.5 9.9-3.5l2.9 4.5c-16.6 12.8-25.2 10.8-29.7 7.3-4.8-3.5-4.5-11.3-5.5-11.7-0.9-0.3-14 14.3-29.6 14.4-18.2 0.1-23.7-13.8-23.9-23.6 0-4.7 1.3-11 8.1-16.2 8.8-6.8 44.5-16.1 45.7-18 0.8-1.4 0.8-10.6 0-20.2-1.2-13.4-10.2-17.8-17.9-16.5-5.7 1-14.2 6.8-15.8 9.2-1.1 1.6-1.7 5.2-1.8 6.6-0.1 1.9-1.1 3.3-2.5 3.8-2 0.8-7.3 2.7-8.1 2.8-3.3 0.7-4.3-0.4-3.5-4.3 0.9-3.7 1.7-5.6 3-7.6 0.2-0.4 1.2-1.8 2.9-2.9 7.8-5.4 27.9-17.8 30.9-18.7 5.4-1.4 13.8-0.8 22.3 5.6 5.4 4.1 8.6 13.3 8.6 22.5-0.2 12.3-0.6 26.6-0.9 38.1zm-17-1.6c0-5.6-0.1-10.5-0.3-10.7-0.4-0.4-3.3 0.5-11.7 3.5-4.3 1.5-14.4 5.6-17.4 8.2-4.6 4.2-7.8 9.5-4.1 18.7 2.8 7 11.1 8.1 17.7 6.2 6.3-1.8 14.1-8.5 15.3-10.4 0.2-0.4 0.4-7.2 0.4-13.8z"/>
				<path id="path2406" fill-rule="evenodd" class="s1" d="m1165 188h-2.3c-9.5 0.1-17 0.2-17.3 0.7-1.7 2.2-1.4 21.6 4.8 31.1 8.7 13.1 21.2 18.9 35.4 18.4 10.6-0.4 20.2-7.8 20.2-7.8l3.9 5.4c-6 7.6-35.5 29.4-62.9 8.2-22.6-17.6-18.5-47.6-17.3-55.2 2.2-12.9 13.9-41 46-41 30.9 0 34.6 25.6 32.8 34.4-1.3 6.7-6.8 5.9-6.8 5.9 0 0-20.4-0.2-36.5-0.1zm-2.3-8.8h23.9c0 0 5.4 0.5 5-7.2-0.4-8.7-6.8-15.2-17.4-15.5-12.8-0.2-22.1 9.7-25.4 17.6-2.1 5.1-2.5 5 1.3 5.1h12.6z"/>
				<path id="path2408" fill-rule="evenodd" class="s1" d="m784.9 188h-2.2c-9.5 0.1-17 0.2-17.3 0.7-1.7 2.2-1.5 21.6 4.8 31.1 8.6 13.1 21.2 18.9 35.4 18.4 10.6-0.4 20.2-7.8 20.2-7.8l3.9 5.4c-6 7.6-35.5 29.4-62.9 8.2-22.6-17.6-18.6-47.6-17.3-55.2 2.2-12.9 13.9-41 46-41 30.9 0 34.5 25.6 32.8 34.4-1.3 6.7-6.8 5.9-6.8 5.9 0 0-20.4-0.2-36.6-0.1zm-2.2-8.8h23.9c0 0 5.3 0.5 4.9-7.2-0.4-8.7-6.7-15.2-17.3-15.5-12.9-0.2-22.2 9.7-25.4 17.6-2.1 5.1-2.5 5 1.3 5.1h12.6z"/>
				<path id="path2410" fill-rule="evenodd" class="s1" d="m593.4 188h-2.2c-9.5 0.1-17 0.2-17.3 0.7-1.7 2.2-1.5 21.6 4.8 31.1 8.6 13.1 21.2 18.9 35.4 18.4 10.6-0.4 20.2-7.8 20.2-7.8l3.9 5.4c-6 7.6-35.5 29.4-62.9 8.2-22.6-17.6-18.6-47.6-17.3-55.2 2.2-12.9 13.9-41 46-41 30.9 0 34.5 25.6 32.8 34.4-1.3 6.7-6.8 5.9-6.8 5.9 0 0-20.4-0.2-36.6-0.1zm-2.2-8.8h23.9c0 0 5.4 0.5 5-7.2-0.4-8.7-6.8-15.2-17.4-15.5-12.8-0.2-22.2 9.7-25.4 17.6-2.1 5.1-2.5 5 1.3 5.1h12.6z"/>
			</g>
		</g>
	</g>
</svg>