<svg version="1.2" xmlns="http://www.w3.org/2000/svg" viewBox="0 0 1570 832" width="1570" height="832">
	<title>Williams_Companies_logo-svg</title>
	<style>
		.s0 { fill: #231f20 } 
		.s1 { fill: #1478c7 } 
	</style>
	<g id="layer1">
		<path id="path230" fill-rule="evenodd" class="s0" d="m367.8 209.9l-131.8 307-2 4.7h-72.4l0.1-7.9 3.2-180.8-78 184-2 4.7h-72.4l0.1-7.8 4-307 0.1-7.6h70.4l-0.3 8-5.9 168.3 74.3-171.7 2.1-4.6h73.3l-0.2 7.9-4.6 168.5 72.9-171.7 2.1-4.7h71.6c0 0-4.6 10.7-4.6 10.7zm75.6 84.6l-49 221-1.4 6.1h-68.4l51.1-230.5 1.3-6h68.5zm-60.8-34.6l2.1-9.4 10.9-49.3 1.3-6h68.5l-2.1 9.4-10.9 49.3-1.4 6zm185.2-51.3l-68 306.9-1.4 6.1h-68.4l70.1-316.4 1.4-6h68.4zm105.4 0l-68.1 307-1.3 6h-68.4l70.1-316.4 1.4-6h68.4zm84.2 85.9l-49 221.1-1.4 6h-68.4l51.1-230.4 1.4-6.1h68.4zm-60.8-34.5l2.1-9.4 10.9-49.3 1.4-6.1h68.4l-2.1 9.4-10.9 49.3-1.4 6.1zm236.8 223.7c-2.8 12.5-3.6 21.8-2.7 29.2l1.1 8.7h-68.2l0.4-8.1 0.2-5.3c-18.5 9.8-39.6 17.6-65.6 17.4-25 0-38.5-10.3-45.4-18.8-10.1-12.6-13.3-30-9.1-49 11.6-52.1 57-80.5 146.9-91.8l3-13.3c1.1-4.8 0.5-8.5-1.6-11.2-2.9-3.6-9.2-5.7-17.3-5.7-22.4 0-37.2 12.5-48.9 24.7l-5.2 5.5-5.6-5.1-28.2-25.8-5.3-4.9 4.5-5.7c20.2-25.2 63.1-44.2 97.5-43.3 33.3 0.7 54.3 8 66 23 12.4 15.8 14.5 39.8 6.5 75.6 0 0-23 103.9-23 103.9zm-53.8-66.2c-31.4 6-61.1 13.8-66.3 37-0.8 3.9-1.3 9.2 1.4 12.6 2.6 3.2 7.3 3.9 10.8 3.9 12.1 0 31.7-9.9 46.7-20.3zm425.1-60.6l-35.2 158.7-1.3 6.1h-68.4l2-9.4 34.2-154.1c1.6-7.2 1.4-12.4-0.6-15-2.2-2.9-7.7-3.8-12-4-9.2 0-26.1 8.2-42.5 20.5l-34.6 155.9-1.3 6.1h-68.4l2-9.4 34.2-154.1c1.6-7.2 1.4-12.4-0.6-15-2.3-2.9-7.8-3.8-12.1-4-9.2 0-26 8.2-42.4 20.5l-34.6 155.9-1.4 6.1h-68.4l2.1-9.4 49-221 1.4-6.1h63.7l-2.1 9.4-0.9 4.4c18.3-11.8 35.8-18 60.6-17.8 23.5 0 42 10.3 50.7 27.5 19.4-14.5 44.1-27.5 79.8-27.5 16.6 0 30.6 6.1 39.4 17.1 10.8 13.4 13.4 33.1 7.7 58.6zm92.8-5.5c-1.7 7.9 7.9 12.5 28.7 20.4 28.4 10.9 71.3 27.3 59.3 81.5-10.1 45.3-48.7 72.3-103.4 72.3-38.3 0-66.2-17-80.8-49.2l-2.8-6.1 5.7-3.6 41-26.2 7.2-4.6 3.8 7.6c9.5 18.8 21.4 27.5 37.6 27.5 14.9 0 27.1-7.8 29.5-18.9 1.9-8.2-8-13.1-29.4-21.5-29.6-11.7-70.2-27.8-58.8-79.2 10.7-48.2 56.6-70.2 94.8-70.2 34.1 0 62.1 13.6 76.8 37.3l3.9 6.1-45.3 33-6.3 4.6-4.5-6.4c-9.7-13.6-19.2-20-29.9-20-15.7 0-24.8 5.3-27.1 15.6z"/>
		<path id="path258" fill-rule="evenodd" class="s1" d="m614.5 557.5h107.4c-379.6 170.9-699.3 233-720.2 138.1-7.4-33.3 23-81.7 82-138.1h39.6c-27.2 29-42.1 55-41.2 75.6 3.4 77.5 225.8 50.3 496.8-60.6 12-4.9 23.8-9.9 35.6-15z"/>
		<path id="path260" fill-rule="evenodd" class="s1" d="m1266.6 248h-75.8c159.9-126.2 199.8-213 78.6-217.8-101.6-4.1-295.3 50.3-519.4 139.5l-16.2-8.6c367-155.3 666.9-207.1 686.9-113.9 9.8 45.6-49 118.1-154.1 200.8z"/>
		<path id="path262" fill-rule="evenodd" class="s1" d="m1401.1 248h-73.6c30-30.8 47-56.9 49.6-77 20.4-22.1 35.6-42.7 45.2-61.3 15.3 7.1 25.1 17.2 28.8 30.5 7.5 27-10.9 64.2-50 107.8z"/>
		<path id="path272" fill-rule="evenodd" class="s1" d="m1313.4 98.6c-3.9 8.5-9.3 17.7-16.3 27.5-100.4 0-278.9 49.5-478 127.8l-16-8.4c207.2-86.6 391.5-138.3 510.3-146.9z"/>
		<path id="path274" fill-rule="evenodd" class="s1" d="m934.8 557.5c-91.3 50.6-194.5 100.3-302.9 144.3-347.6 141.5-616.1 171.6-599.5 67.3 1-6.3 3.1-12.9 6.1-19.8 16.3 4.7 47.3 10 97.8 5.5 59.5 37.2 265.3-3.2 508.1-105 69.1-29 134.9-60.4 194.9-92.3z"/>
		<path id="path276" fill-rule="evenodd" class="s1" d="m151.8 661.4c-10-0.7-26-4.6-33.5-9.1 33.5-30 75.6-62.1 124.5-94.8h33c-54.3 37.2-96.9 72.8-124 103.9z"/>
		<path id="path278" fill-rule="evenodd" class="s0" d="m1535.7 525.3c-18.7 0-33.8-14.9-33.8-33.3 0-18.4 15.1-33.3 33.8-33.3 18.6 0 33.7 14.9 33.7 33.3 0 18.4-15.1 33.3-33.7 33.3zm27-33.3c0-15.4-12.1-27.8-27-27.8-15 0-27.1 12.4-27.1 27.8 0 15.4 12.1 27.8 27.1 27.8 14.9 0 27-12.4 27-27.8zm-34 19.2h-5.8v-38.4h14.6c9.1 0 13.6 3.3 13.6 10.9 0 6.9-4.3 9.9-10 10.6l11 16.9h-6.6l-10.1-16.6h-6.7zm7-21.7c4.9 0 9.3-0.3 9.3-6.2 0-4.8-4.3-5.7-8.4-5.7h-7.9v11.9z"/>
	</g>
</svg>