<svg version="1.2" xmlns="http://www.w3.org/2000/svg" viewBox="0 0 1655 535" width="1655" height="535">
	<title>Logo_Desktop-svg</title>
	<style>
		.s0 { fill: #7f35b2 } 
	</style>
	<path id="Layer" class="s0" d="m1655 106l-162.3 419.4h-136.7l-68.3-234.2l-68.9 234.2h-136.5l-120.1-312.8h-74.7v140.8c0 66.1 26.7 77 63.2 77q3.6 0 7.3-0.3q3.6-0.3 7.2-0.7q3.6-0.5 7.1-1.1q3.6-0.7 7.1-1.5l37.4 97.4q-10.9 2.7-21.9 4.7q-11.1 2-22.2 3.3q-11.2 1.4-22.4 2q-11.2 0.7-22.4 0.7c-125.2 0-178.6-51.2-178.6-170.9v-151.4h-57l-121 312.8h-136.6l-68.3-234.2l-69 234.2h-136.6l-160.8-419.4h154.9l80.9 253.4l77-253.4h106.8l77.9 253.4l80.4-253.4h171.4v-75.4l138.2-29.6v105h188.9l80.7 253.4l77.1-253.4h106.8l77.8 253.4l80.1-253.4z" />
</svg>