<svg version="1.2" xmlns="http://www.w3.org/2000/svg" viewBox="0 0 1595 472" width="1595" height="472">
	<title>WR-Berkley-Sustainability-Report-2021-Data-of-2020-FINAL (1)-1-2-pdf-svg-svg</title>
	<defs>
		<clipPath clipPathUnits="userSpaceOnUse" id="cp1">
			<path d="m-1631.34-336.81h4942.48v6389.69h-4942.48z"/>
		</clipPath>
	</defs>
	<style>
		.s0 { fill: #0c5740 } 
	</style>
	<g id="Clip-Path: Clip-Path: Page 1" clip-path="url(#cp1)">
		<g id="Clip-Path: Page 1">
			<g id="Page 1">
				<path id="Path 32" fill-rule="evenodd" class="s0" d="m282.3 225.9c6.8 77.9-50.5 146.4-128.5 153.3-77.9 6.9-146.5-50.4-153.4-128.3v-250.5l46.4-0.4v133.5c25.9-23.4 59.8-36.7 94.9-36.3 73.1 0 134.1 55.7 140.6 128.7zm-138.1 107.7c52.9-1.2 94.4-45.2 92.8-98-2-52-45.2-93.2-97.3-92.8-47.6 1.2-87.6 37.5-92.9 85.1q-1.2 10.5 0 21c5.3 48.4 46.1 84.7 94.9 84.7q1.2 0 2.5 0zm1313.9-141.2l51.7 151.7 52.1-151.7h29.5l-107 277.2h-27.5l41.6-97.3-70.3-179.9zm-190.6 92.4c0-53.2 15.4-96.4 78-96.4 62.2 0 70.2 43.2 70.2 96.4v11.7h-122.3c1.6 32.3 10.1 61.3 52.1 61.3 20.6 1.2 41.6-2.4 60.9-10.1v22.2c-19.3 7.7-40.3 11.7-60.9 10.9-63 0-78.4-42.7-78.4-96zm78.4-73.4c-43.2 0.4-50.9 30.7-52.1 64.1h96.1c0-32.6-1.6-63.7-44-64.1zm-109.5 169.4c-26.6 0-40.7-10.9-40.7-40.7v-240h25.4v243.2c0 12.9 4 16.5 15.3 16.5zm-152.2-112.5l89.7 108.9h-32.3l-72.7-94-23.5 22.2v71.8h-25.4v-277.1h25.4v175.1l83.6-82.7h34.8zm-93.3-53.7c-7.3-2-14.6-3.2-22.2-2.8-18.6-1.2-37.2 2.8-53.7 11.7v153.7h-25.9v-184.8h14.6l5.6 15.3c17.4-12.5 38-19.3 59.4-18.9q11.3 0 22.2 1.6zm-208.8-25.8c62.2 0 70.3 42.7 70.3 96v12.1h-122.4c1.6 31.9 10.1 61.3 52.1 61.3 20.6 1.2 41.6-2.4 61-10.5v22.2c-19.4 8.1-40.4 11.7-61 11.3-63 0-78.3-43.2-78.3-96.4 0.4-53.3 15.7-96 78.3-96zm-52.1 86.7h96.1c0-32.7-1.6-63.7-44.4-63.7-42.8 0-50.5 30.6-51.7 63.7zm-238.6-175.5h87.6c65 0 86.4 32.7 86.4 73.1 0.8 25-13.7 47.6-36.3 57.6 31.9 8.5 45.6 38.8 45.6 68.6 0 43.2-23.8 77.9-92.9 77.9h-90.4zm25 253.7h68.7c52.5 0 62.6-27.8 62.6-54.5 0-37.1-16.2-54.4-61.4-54.4h-69.9zm66.2-230.3h-66.2v98h69.5c41.6 0 52.1-25 52.1-48.4 0-24.2-8.5-49.6-55.4-49.6z"/>
				<path id="Path 33" fill-rule="evenodd" class="s0" d="m1486.4 471.6h-32.7l42.8-99.3-71.1-182.3h33.9l50.5 147.3 50.5-147.3h33.9l-0.8 3.2zm-26.3-4h23.5l104.9-273.1h-25l-53.3 156.1-53.3-156.1h-25l69.4 178.3v0.8zm-114.7-84.7c-71.8 0-79.9-56.1-79.9-98.4 0-42 8.1-98.4 79.9-98.4 66.7 0 72.3 48.8 72.3 98.4v14.1h-121.9c2.8 50 26.6 56.9 49.6 56.9 20.6 1.2 41.2-2.4 60.2-10.1l2.8-1.2v26.6l-1.2 0.8c-19.8 8.1-40.8 11.7-61.8 11.3zm0-192.4c-52.4 0-75.9 29-75.9 94 0 64.9 23.5 94 75.9 94 19.8 0.8 40-2.9 58.6-10.5v-17.4c-18.6 7.3-38.8 10.1-58.6 9.3-45.6 0-52.9-33.9-54.1-63.3v-2.4h122.4v-9.7c-0.4-49.6-5.7-94-68.3-94zm-107 192.4h-2c-29.1 0-42.8-13.7-42.8-43.2v-242h29.5v245.3c0 11.3 2.8 14.5 13.3 14.5h2zm-40.3-280.8v238c0 26.3 10.9 38 36.3 38.4v-17c-11.3-0.4-15.7-5.6-15.7-18.5v-241.3zm-416.4 280.8c-71.4 0-79.9-56.1-79.9-98.4 0-42 8.5-98.1 79.9-98.1 67.1 0 72.3 48.4 72.3 98.1v14.1h-121.9c3.2 50.4 26.6 57.3 49.6 57.3 20.6 0.8 41.2-2.5 60.2-10.5l3.2-1.2v27l-1.6 0.4c-19.4 8.1-40.4 11.7-61.8 11.3zm0-192.4c-52.1 0-75.5 29-75.5 94 0 64.9 23.4 94 75.5 94 20.2 0.8 40.4-2.9 59-10.1v-17.8c-18.6 7.3-38.8 10.5-59 9.3-45.2 0-52.5-33.9-53.7-63.3v-2.1h122v-10c0-49.7-5.3-94-68.3-94zm396.2 188.8h-38l-72.3-93.2-21 20.1v73.1h-29v-281.6h29v172.2l80.8-79.8h41.2l-82 78.2zm-35.5-4h26.2l-87.6-106.9 77.1-73.8h-28.6l-86.9 85.9v-178.3h-21v272.7h21v-70.2l25.9-24.2zm-225.3 4h-29.9v-189.2h18.1l4.9 14.6c17.4-12.1 37.5-18.2 58.5-18.2q11.4 0 22.7 2h1.6v28.7l-2.5-0.8q-10.9-3.3-21.8-2.9c-17.7-1.2-35.5 2.9-51.6 10.9zm-25.9-4.4h21.8v-152.9l1.2-0.4c16.6-9.3 35.6-13.3 54.5-12.1q10.1-0.4 19.8 2v-19.3q-9.7-1.7-19.8-1.7c-21 0-41.5 6.5-58.5 19l-2 1.6-6.1-16.9h-10.9zm-309.7 4.4h-92.5v-281.6h89.7c73.1 0 88.4 40.8 88.4 75.5 0.8 23.4-11.7 45.6-32.7 57.3 31.5 10.8 42 41.9 42 68.5 0 36.7-16.6 80.3-94.9 80.3zm-88.4-4.4h88.4c75.1 0 90.9-41.2 90.9-75.9 0-26.2-11.8-57.7-44.1-66.1l-6-1.6 5.6-2.5c21.8-9.6 36-31.8 35.2-55.6 0-46.8-29.1-71.4-84.4-71.4h-85.6zm91.6-19h-70.2v-113.7h71c45.3 0 63.8 16.5 63.8 56.8-0.4 38.4-21.4 56.9-64.6 56.9zm-66.6-4h66.6c53.7 0 59.8-30.3 59.8-52.9 0-37.9-16.6-52.4-59.4-52.4h-67zm873.8-74.2h-100.5v-2.4c0.8-32.3 8.1-65.8 53.7-65.8 45.6 0 46.8 36.7 46.8 65.8zm-96.5-4.1h92.1c0-33.9-4.1-59.7-42.4-59.7-40.8 0-48.5 28.3-49.7 59.7zm-467.6 4.1h-100.5v-2.1c1.2-32.6 8.5-66.1 54.1-66.1 45.6 0 46.8 36.7 46.8 66.1zm-96.1-4h91.7c0-33.9-3.7-59.7-42.4-59.7-40.8 0-48.1 27.8-49.3 59.7zm-146.6-50h-71.4v-102.5h68.2c51.3 0 57.3 29.9 57.3 52.1 0 41.5-29.4 50.4-54.1 50.4zm-67-4.5h67c33.6 0 50.1-15.7 50.1-45.9 0-42.4-28.3-47.6-52.9-47.6h-64.6zm-138.5-148.5h4.8v334.8h-4.8zm-234.6 150.9l-32.7-24.6h65.8z"/>
				<path id="Path 34" fill-rule="evenodd" class="s0" d="m201.1 196.9c0 0.4-1.6 4-3.2 8.8q-1.7 19.8-0.8 39.2c0 8-2.1 16.1-5.7 23.4-5.2 9.2-15.3 14.5-26.2 13.7h-13.4c-2.8 0.8-5.2 2.4-6.4 4.8-1.6-2.4-4.1-4-6.9-4.8h-13.3c-10.5 0.8-20.6-4.9-25.9-14.1-3.6-7.3-5.6-15.4-6-23.4q0.8-19.4-0.8-38.8-1.2-4.8-3.3-8.8 9.3 0.4 17.8 4.4c8.1 3.6 37.2 26.6 38.4 27.8 0 0 30.3-23.8 38.3-27.8 5.3-2.4 11.3-4 17.4-4.4zm-15.4 17.3q0.9-2 1.7-4c-3.3 0-6.5 0.8-9.3 2.8-3.3 2.4-4.9 6.1-4.9 9.7v26.6c0 0-0.8 6.1-6.4 6.1q-0.4 0-1.2 0c-4.1 0-6.9-3.7-6.5-7.7 0-6.5 2-9.3 5.2-9.3 2.1 0.4 4.1 1.6 5.7 3.2 0.4-3.6-0.4-7.6-2-10.8-2-3.3-5.7-4.9-9.7-4.5-3.2 0-12.5 2.8-12.1 19.8 0 16.9 10.5 25 20.2 25 9.3 0 20.2-7.3 19.8-25.8q-1.3-15.8 0-31.1zm-35.6 55.7c-0.4-2.8-2.4-5.3-4.8-6.9-1.2 0-4.9 5.3-4.9 7.3 0.8 3.6 2.4 7.2 4.5 10.1 2.8-2.9 4.4-6.5 5.2-10.5zm-5.6-24.6c0.4-17-8.9-20.2-12.6-20.2-3.6 0-7.2 1.6-9.2 4.8-1.7 3.3-2.5 7.3-2.1 11.3 1.7-2 3.7-3.2 5.7-3.2 3.2 0 5.2 2.4 5.2 9.3q0 0.4 0 0.8c0 4-3.6 7.3-7.6 6.9-5.7 0-6.5-6.5-6.5-6.5v-26.2c0-4-2-7.7-4.8-9.7-2.9-2-6.1-3.2-9.3-3.2q0.8 2 1.2 4.4 1.2 15.3 0 31.1c-0.4 18.1 10.5 25.8 19.8 25.8 9.7 0 20.2-8.5 20.2-25.4zm-20.2 4.4c1.2 0 2.4-1.2 2.4-2.8 0-1.2-1.2-2.4-2.4-2.4-1.6 0-2.9 1.2-2.4 2.4 0 1.6 0.8 2.8 2.4 2.8zm43.6-3.6c0-1.2-1.6-2.4-2.8-2-1.7 0.4-2.5 1.6-2.1 3.2q-0.4 0.4 0 0.8c0 1.2 1.7 2.4 2.9 2 1.6 0 2.4-1.6 2-2.8q0.4-0.8 0-1.2zm-43.2 24.6q0 0-0.4 0z"/>
			</g>
		</g>
	</g>
</svg>