<svg version="1.2" xmlns="http://www.w3.org/2000/svg" viewBox="0 0 1523 348" width="1523" height="348">
	<title>grainer-svg</title>
	<style>
		.s0 { fill: #c8102e } 
		.s1 { fill: #000000 } 
	</style>
	<g id="Layer">
		<path id="Layer" fill-rule="evenodd" class="s0" d="m1451.7 256.7l-14.8 91.2h-1148.3l14.7-91.2c0 0 1148.4 0 1148.4 0zm-1160.4 0l-14.8 91.2h-45.3l14.7-91.2zm-66.1 0l-14.8 91.2h-37l14.7-91.2zm-66.1 0l-14.7 91.2h-28.8l14.8-91.2zm-66.2 0l-14.7 91.2h-20.4l14.7-91.2zm-66.1 0l-14.7 91.2h-12.1l14.7-91.2z"/>
		<path id="Layer" fill-rule="evenodd" class="s1" d="m394.7 45.8c7.5 25.5-2.9 50.3-21.5 67.4-7.3 6.5-15.2 12.1-24.1 14.9l-2.9 0.8 21.2 36.6h19l-7.5 45.6h-50.8l-40.6-72.8-4.3 27.2h11.5l-7.5 45.6h-82.6l7.3-45.6h15.3l18.7-115.6h-15.1l6.9-43.2h101.3c23.4 1.6 48.6 15.1 55.7 39.1zm328.7-39.2l-6.8 43.2h-15.1l-18.9 115.7h15.2l-7.3 45.5-87.8 0.1 7.3-45.6h15.2l18.7-115.7h-15.1l7-43.2c0 0 87.6 0 87.6 0zm-682.2 30.6c29.5-33.3 76.4-45.9 117.9-30.4q1.6 0.6 3.2 1.3 1.6 0.8 3.2 1.6 1.5 0.9 3 1.9 1.4 1 2.8 2.1l3.4 4.2 1.8-11.3h42l-11.1 69.4h-47.8c-2.6-11.2-14.1-21.8-25.2-24.1-20.5-4.6-40.7 1.8-53.7 18.3-14.3 20-19.1 52.3-5.5 74.1 9.3 14.7 25.2 21.1 41.9 18.5 13-2.4 25.8-12.9 31.3-25.1l-53.2-0.1 6.7-41.4h112.2l-18.7 114.9h-43.2l2.9-17.2c-18.1 14.7-42.5 17.4-65.1 16.6-30.8-5.4-63.2-29.1-73.2-60.3-12-39.7-1.1-82.6 24.4-113zm1027.7-30.4c3.4 1.3 6.8 2.9 9.9 5.1l2.3 1.8 3.4 4.2 1.8-11.3h42.1l-11.2 69.4h-47.8c-2.6-11.2-14.1-21.8-25.2-24.1-20.5-4.6-40.7 1.8-53.7 18.3-14.3 20-19.1 52.3-5.6 74.1 9.4 14.7 25.3 21.1 42 18.5 12.3-2.3 24.3-11.6 30.3-23l1.1-2.1-53.3-0.1 6.6-41.4h112.3l-18.7 114.9h-43.2l2.9-17.2c-18.1 14.7-42.5 17.4-65.1 16.6-30.8-5.4-63.2-29.1-73.3-60.3-11.9-39.7-1-82.6 24.5-113 29.4-33.3 76.4-45.9 117.9-30.4zm-268.2-0.2l52.8 101.6 9.5-58.4h-15l6.9-43.2h84.7l-6.9 43.2h-15.2l-26.1 161.3h-45.6l-57.7-114.5-11 68.9h15.1l-7.3 45.6h-85.4l7.3-45.6h15l18.9-115.7h-15.2l6.9-43.2c0 0 68.3 0 68.3 0zm504.4 0l-10.3 64h-50.5l3.3-20.8h-37.9l-4.8 30h44.4l-7.9 49.2h-44.3l-6 36.5h40.2l4-25.8h51.9l-11.6 71.4h-161.3l7.4-45.6h15.3l18.9-115.7h-15.1l7-43.2zm114 0c23.4 1.6 48.7 15.1 55.8 39.1 7.5 25.6-2.9 50.4-21.5 67.4-7.4 6.5-15.2 12.1-24.1 14.9l-3 0.9 21.3 36.6h19l-7.5 45.6h-50.8l-40.6-72.9-4.3 27.3h11.5l-7.5 45.6h-82.6l7.3-45.6h15.3l18.7-115.7h-15.1l6.9-43.2c0 0 101.2 0 101.2 0zm-860.2 0l26.9 158.9h15.2l-7.4 45.6h-87.7l7.3-45.6h15.1l-2.1-16.9h-52.8l-7.6 16.9h15.3l-7.5 45.6h-85.3l7.4-45.6h15l59-115.7h-15.2l6.9-43.2zm941.5 160.7c2.9-0.1 5.7 0.5 8.4 1.6 2.7 1.1 5.1 2.7 7.1 4.7 2.1 2.1 3.6 4.5 4.7 7.2 1.1 2.6 1.6 5.5 1.6 8.4 0 2.8-0.6 5.7-1.7 8.3-1.1 2.7-2.7 5.1-4.7 7.1-2 2-4.4 3.6-7.1 4.7-2.7 1-5.5 1.6-8.4 1.5-2.8 0-5.7-0.5-8.3-1.6-2.6-1.1-5-2.7-7-4.7-2.1-2.1-3.6-4.5-4.7-7.1-1.1-2.7-1.6-5.5-1.6-8.4 0-12.5 10-21.7 21.7-21.7zm0.1 1.9c-11.2 0-19.8 8.9-19.8 19.8 0 11.2 8.9 19.9 19.7 19.9 11.2 0 19.8-8.8 19.8-19.8 0.1-2.6-0.4-5.2-1.4-7.6-0.9-2.4-2.4-4.6-4.2-6.5-1.9-1.8-4-3.3-6.5-4.3-2.4-1-5-1.5-7.6-1.5zm-0.5 6.1c3.2 0 4.7 0 6.4 0.6q0.9 0.4 1.7 1 0.8 0.7 1.3 1.5 0.6 0.8 0.9 1.8 0.2 0.9 0.2 1.9c0 3.8-2.7 6-6.1 6.6 3 1.1 3.9 2.7 4.4 6 0.6 3.4 0.8 5 1.6 6.9l0.4 1h-4.5c-0.6-1.2-0.9-2.5-1.1-3.8-0.2-0.6-0.6-3.6-0.7-4.3-0.7-3.6-2.6-4.4-5.8-4.6h-1.1-1.9v12.7h-4v-27.3zm0.7 3.1h-5v8.3h5.1c1.9 0 5.7-0.3 5.7-4.3q0-0.4-0.1-0.8-0.1-0.4-0.2-0.8-0.2-0.4-0.5-0.7-0.2-0.4-0.5-0.7c-0.8-0.7-1.8-0.9-3.4-1 0 0-1.1 0-1.1 0zm-983.8-120.9l-20.7 48.1h25c0 0-4.3-48.2-4.3-48.1zm-213.8-5.1h-1.7l-7.2 44.8c13.3-0.6 28.6 2.9 38.4-6.1 8.3-6.4 11.7-15.8 10.4-25.6-5.4-16.7-24.9-13-39.9-13.1zm1080.1 0h-1.6l-7.3 44.8c13.4-0.6 28.7 2.9 38.5-6.2 8.2-6.4 11.7-15.7 10.4-25.6-5.4-16.7-25-13-40-13zm-298.7-34.5v0.1h0.1zm-909.9 0v0.1h0.1z"/>
	</g>
</svg>