<svg version="1.2" xmlns="http://www.w3.org/2000/svg" viewBox="0 0 1614 711" width="1614" height="711">
	<title>Wynn_Resorts_new-svg</title>
	<style>
		.s0 { fill: #000000 } 
	</style>
	<g id="layer1">
		<g id="g5089">
			<path id="path4947" class="s0" d="m514.8 54.2c-5.7 20.9-22.9 40.9-35.5 59q-13.1 20.5-26.3 40.9c-36 50-22.6 44.8-61.8 95-33.3 42.6-56 61.6-79.9 84.1-58.1 54.8-105.1 61.9-116.1 60.5-18.4-5.7-41.1-1.4-38.2-29.9 0.3-2.8 2.1-15.8 2.8-18.8 0.7-3-1.8-8.5 0.7-8.7-16.6-3.8-71.8 35-89.3 45.4-23.3 13.7-37.4 11.5-47 5.7-64.5-41.7 18.4-124.7 44-166.8 5.7-8.1 8.2-10.8 11.4-15.7 7.6-12.4 61.7-68.6 62.6-24.9 0.2 10.8-7.2 20.3-12.4 29.2-12.1 20.4-28.5 43.4-45.9 60.2-16.5 15.9-41.2 36.5-46.8 59.3-1.6 6.3-0.8 15.5 6.3 17.6 14.4 4.3 35.7-10.8 42-15.6 6.4-4.9 24.5-18.4 36.5-26.1 21.1-13.4 42.3-29.2 61.5-45.9 15-13.2 25-34.2 43.7-41.6 1-0.2 1.9-0.6 2.8-0.8 0.9-0.2 1.8-0.3 2.7-0.4 5.2-0.5 10.7-0.1 14.5 3.1 1.3 2.8 2.6 5.6 3.9 8.3q-0.5 5.8-0.9 11.5c-9.4 26.4-75.3 92.2-60.7 121.4 4.7 9.6 31 0.3 36.2-3 69.6-44.7 141.8-110.9 202.6-224.7 14.1-26.2 33.1-49.5 44.5-76.1 5-11.6 3.7-32.1 1-45.6-1-7.5 12.6-11.9 13-10.3 20.2 1.3 33.3 34.6 28.1 53.7z"/>
			<path id="path4903" fill-rule="evenodd" class="s0" d="m1146 240.9v-48.8h12.2q7.4 0 11.8 3.6 4.3 3.7 4.3 9.9 0 4.3-2.1 7.4-2.2 3.1-6.2 4.6 2.4 1.6 4.7 4.2 2.2 2.7 6.3 9.3 2.5 4.2 4 6.3l2.6 3.5h-8.3l-2.1-3.3q-0.1-0.1-0.4-0.5l-1.4-2-2.1-3.5-2.4-3.9q-2.1-3-3.9-4.7-1.8-1.8-3.3-2.6-1.4-0.8-4.9-0.8h-1.8v21.3zm9.1-42.9h-2.1v15.4h2.7q5.3-0.1 7.2-0.9 2-1 3.1-2.8 1.1-1.8 1.1-4.1 0-2.3-1.3-4.2-1.2-1.9-3.4-2.6-2.2-0.8-7.3-0.8zm48.2-5.9h27.6v6.2h-20.6v14.9h19.9v6.3h-19.9v15.1h21.3v6.3h-28.3zm62.1 28.3l-5.3-3.2q-5-3.1-7.1-6.1-2.1-2.9-2.1-6.7 0-5.8 4-9.4 4-3.6 10.4-3.6 6.1 0 11.2 3.4v7.9q-5.3-5-11.4-5-3.4 0-5.6 1.6-2.2 1.6-2.2 4 0 2.2 1.6 4.1 1.7 1.9 5.2 4l5.4 3.2q8.9 5.4 8.9 13.6 0 5.9-3.9 9.5-3.9 3.7-10.2 3.7-7.3 0-13.2-4.5v-8.9q5.7 7.2 13.1 7.2 3.3 0 5.5-1.8 2.1-1.8 2.1-4.6 0-4.4-6.4-8.4zm58.9-29q11.3 0 18.8 7.1 7.6 7.2 7.6 18 0 10.8-7.6 17.8-7.6 7.1-19.2 7.1-11 0-18.3-7.1-7.4-7-7.3-17.7 0-10.9 7.3-18.1 7.4-7.1 18.7-7.1zm0.3 6.6q-8.3 0-13.7 5.2-5.4 5.3-5.4 13.4 0 7.9 5.4 13.2 5.4 5.2 13.5 5.2 8.2 0 13.7-5.3 5.4-5.4 5.4-13.3 0-7.8-5.4-13.1-5.5-5.3-13.5-5.3zm49.2 42.9v-48.8h12.2q7.4 0 11.8 3.6 4.3 3.7 4.3 9.9 0 4.3-2.1 7.4-2.2 3.1-6.2 4.6 2.4 1.6 4.7 4.2 2.2 2.7 6.3 9.3 2.5 4.2 4 6.3l2.6 3.5h-8.3l-2.1-3.3q-0.1-0.1-0.4-0.6l-1.4-1.9-2.2-3.5-2.3-3.9q-2.1-3-3.9-4.8-1.8-1.7-3.3-2.5-1.4-0.8-4.9-0.8h-1.8v21.3zm9.1-42.9h-2v15.3h2.6q5.3 0 7.2-0.8 2-1 3.1-2.8 1.1-1.8 1.1-4.1 0-2.3-1.2-4.2-1.2-1.9-3.5-2.6-2.1-0.8-7.3-0.8zm37.6-5.9h40.8v6.2h-17v42.6h-7.1v-42.6h-16.7zm73.7 28.3l-5.3-3.2q-5-3.1-7.1-6-2.1-3-2.1-6.8 0-5.8 4-9.4 4-3.6 10.4-3.6 6.1 0 11.2 3.4v8q-5.3-5-11.4-5-3.4-0.1-5.6 1.5-2.2 1.6-2.2 4.1 0 2.2 1.7 4.1 1.6 1.9 5.2 4l5.3 3.2q8.9 5.3 8.9 13.6 0 5.8-3.9 9.5-3.9 3.7-10.2 3.7-7.2 0-13.2-4.5v-8.9q5.7 7.2 13.1 7.2 3.3 0 5.5-1.8 2.2-1.8 2.2-4.6 0-4.4-6.5-8.5zm-455.4 179.5c-29.5 2.9-41.9-3.4-48.3-15.4-2.8-5.3-1.9-19.9 2.4-35.4 3.5-13-0.8-26.8-9.9-21.2-9.2 5.7-57.9 49.5-63.6 54.4-5.6 4.9-27.4 26-36.7 18.3-12-9.8-11.3-20.4-9.1-30.3 2.1-9.9 6.6-30 8.4-33.9 5-10.6 5.7-22.6-4.9-19.8-10.6 2.8-26.8 15.6-32.5 18.4-5.7 2.8-72 46.6-82.6 52.9-10.6 6.4-19.8 10.6-29 5-9.1-5.7-11.2-17-10.5-27.6 0.7-10.6 4.9-27.5 6.3-33.9 1.4-6.3 0-20.4-9.2-14.1-9.2 6.4-60.7 50.9-66.3 55.8-5.7 4.9-23.3 20.5-35.3 16.2-8.9-3.1-21.2-8.4-19.8-20.4 1.4-12 9.9-26.2 12.7-36.1 2.8-9.8 12-40.9-8.5-37.4-16.9 2.9-70.6 36.9-84.4 49.3-6.1 5.5-10.7 15-10 23.1 11.1 143.7-73.6 290.8-208.3 334-20.3 6.5-44.8 9.4-67.1 9-2.1-0.1-4.7-0.4-6.5-0.9-28.3 2.1-58.5-11.1-81.4-23.3-14.9-8-27.2-21.1-34.5-35.7-34.8-69 70-140 112.5-178.4q37-30.5 73.9-61c15.3-13.3 54.3-39.1 54.3-39.1 0 0 1.3-25.1 26.6-54.9 17.5-20.6 33.1-43.1 44-67 4.8-10.6 6.5-24.8 5.6-36.8 0-4.9 5-10.6 11.7-10.3 18.2 2.2 26.6 30 21 47.1-6.2 18.6-22.7 36-35 51.8-16.2 17.4-3.2 3.5-37.4 44.3-5.4 6.5-6.9 24.1 0.8 20.1 24.9-12.2 47.2-31 68.9-48.4 15.5-12.5 27-31.7 48.2-34.6 10.1-1.5 13.9 5.2 14.2 14.2 0 1.7 1.4 2.1 1.4 2.5 2.6-0.2 5.2-0.4 7.8-0.6 3-0.7 84.7-30.2 92.1-33.3 13.4-5.7 30.3-9.2 31.8-1.4 1.4 7.7 7.7 12.7 0 29.6-7.8 17-9.2 25.4-9.9 29.7-0.7 4.2-0.7 16.2 8.4 9.2 9.2-7.1 77.7-55.1 86.2-59.4 8.4-4.2 30.3-9.1 27.5 13.4-2.1 17.4-6.3 33.3-7.8 43.1-1.4 9.9-1.4 31.1 16.3 22.6 17.7-8.5 57.2-30.3 72-40.9 14.8-10.6 37.4-26.2 41.7-30.4 4.2-4.2 19-13.4 26.1-9.9 7 3.5 15.5 11.3 11.3 23.3-4.3 12-12 32.5-15.5 38.2-3.6 5.6 0.6 20.4 14.1 9.1 13.4-11.3 60-43 66.3-48.7 6.4-5.6 22.6-16.3 31.1-15.5 7.8 0.7 16.2 12.7 12 29.6-2.1 8.3-9.9 43.8-9.2 49.5 0.8 5.6 2.1 23.3 20.5 18.3 18.4-4.9 36-8.4 36-8.4 4.3-0.8 142.6-27.4 164.9-25.8 83 5.9 106.7 27.2 194.9 20.3 9.4-1.5 45.1-3.5 63.5 2.5 4 1.3 7.6 4.8 4.5 9.1-14.1 19.9-37 18.4-58.6 18.4-1.4 0-67.1-1.4-85.2-3.6-21.9-1.2-90-22.4-113.1-22.4-50.7-5.3-161 24.8-168.8 26.2 0 0-38.1 7.3-43 7.7zm-563.6-24.5c-1-5.1-2-10.1-3-15.2-1.2-4.3-11-0.9-11.6 0.8-13.6 10.4-49 25.1-66.4 27.6-8.8 1.3-16.3-1.6-23.9-1-22.4 16.7-44.8 33.4-67.2 50.1-37 28.4-71.9 59.3-105.7 92.9-24 23.9-51.7 46.3-56.8 80.4-1.7 11.3 6.4 29.4 14.4 34.8 37.8 25.8 75.4 24.7 126.3 20.7 3.3-0.1 26.5-6.6 33.1-9.1 98.7-35.6 131.8-100 146.9-199.9 4-27.1 13.8-53.1 13.9-82.1zm1066.5-12.3c1.2-4.5 9.7-8.5 16.4-7.2 14.7 2.7 21.3 9.3 23 18.5 1.4 7.4-1.7 10.4-3.3 16.2-1.2 4.4-9.7 8.4-16.4 7.2-14.7-2.8-19.9-9.7-23-18.6-2.5-7.1 1.7-10.4 3.3-16.1zm56.2 29.1c8.4 0 15.2 6.8 15.2 15.1 0 8.4-6.8 15.2-15.2 15.2-8.3 0-15.1-6.8-15.1-15.2 0-8.3 6.8-15.1 15.1-15.1zm0 27.6c6.9 0 12.5-5.6 12.5-12.5 0-6.9-5.6-12.4-12.5-12.4-6.8 0-12.4 5.5-12.4 12.4 0 6.9 5.6 12.5 12.4 12.5zm-5.8-21.2h6.7c4.1 0 6.1 1.8 6.1 5.2 0 3-1.8 4.5-4.1 4.7l4.5 7.4h-3.4l-4.3-7.1h-2.3v7.1h-3.2zm3.2 7.5h2.3c2 0 4.1-0.1 4.1-2.4 0-2.4-2.1-2.5-4.1-2.4h-2.3z"/>
		</g>
	</g>
</svg>