<svg version="1.2" xmlns="http://www.w3.org/2000/svg" viewBox="0 0 1575 307" width="1575" height="307">
	<title>XcelEnergy-svg</title>
	<style>
		.s0 { fill: #da1020 } 
		.s1 { fill: #000000 } 
	</style>
	<g id="logo">
		<g id="Layer">
			<g id="Layer">
				<path id="Layer" fill-rule="evenodd" class="s0" d="m306.4 221.6c-11.9 14.5-29.1 29.3-52.5 45.2-77.4 52.7-177.3 52.6-218.2-0.3-16.6-21.4-23-47.7-18.4-76 7.2-45.2 41.8-90.6 97.3-127.7 17.7-11.8 31-11.8 39-9.7 10.4 2.8 16.3 9.9 18.3 13.6v0.2c4 7.7 13.2 25.8-22.6 54.1-71 56.1-95.8 106.5-70 141.8 27.1 37 114.3 35.1 172.8-3.7 18.4-12.1 34.2-22.6 49.1-40.7 1.8-2.2 3.7-1.9 4.7-1 1.2 1 1.5 3 0.5 4.2z"/>
				<path id="Layer" fill-rule="evenodd" class="s0" d="m0.6 84.7c11.9-14.5 29.1-29.3 52.5-45.3 77.4-52.7 177.4-52.5 218.3 0.4 16.5 21.4 22.9 47.7 18.4 76-7.3 45.2-41.9 90.6-97.4 127.7-17.7 11.8-31 11.8-39 9.6-10.3-2.7-16.3-9.8-18.2-13.5l-0.1-0.2c-3.9-7.7-13.1-25.9 22.6-54.1 71-56.2 95.9-106.5 70-141.8-27-37-114.3-35.1-172.8 3.7-18.3 12.1-34.2 22.6-49.1 40.7-1.8 2.2-3.7 1.9-4.7 1-1.2-1-1.5-3.1-0.5-4.2z"/>
				<path id="Layer" class="s1" d="m453.5 136.1l-34.6-71.8h50.4l14.5 39.7 30-39.7h55.1l-62.7 71.8 36.5 80.8h-52.1l-16.7-42.8-34.8 42.8h-57z"/>
				<path id="Layer" fill-rule="evenodd" class="s1" d="m621.4 148.1c0.2-5.4-0.7-8.8-3-10.9-2.1-2.4-5.7-3.2-10.5-3.2-18.2 0-23 24.1-23 34.6 0 10.4 2.3 20.3 14.3 20.3 11.4 0 16.1-10.1 18.4-16.3h40.1c-7.2 31.7-27.3 47.1-58.9 47.1-46.4 0-55.7-30-55.7-50.7 0-37.8 24.3-65.8 66-65.8 30.4 0 53 13.9 52.4 44.9z"/>
				<path id="Layer" fill-rule="evenodd" class="s1" d="m780.9 184.6c-2.8 7.5-11 35.1-58.2 35.1-38.9 0-54.5-22-54.5-49 0-50.8 38.4-67.5 65.6-67.5 24.3 0 53.6 13.7 53.6 48.5 0 6-0.2 12.4-2.1 19.2h-78.1c0 11.8 4 21.6 17.1 21.6 9.1 0 14.4-4.1 16.5-7.9zm-32.9-35.7c0.2-1.1 0.4-2.6 0.4-3.6 0-8.3-5.2-15-15.8-15-11.2 0-18.6 6.9-21.7 18.6z"/>
				<path id="Layer" class="s1" d="m821.4 64.3h41.7l-31.2 152.6h-41.8z"/>
				<path id="Layer" class="s1" d="m915.8 64.3h103.8l-3.4 17.1h-83.7l-10.2 48.5h78.1l-3.4 17.1h-78.2l-11 52.8h84.8l-3.8 17.1h-104.8z"/>
				<path id="Layer" fill-rule="evenodd" class="s1" d="m1029.1 106.4h17.3l-3.4 16.7h0.4c9.1-12.4 23.9-19.3 38.9-19.3 20.4 0 30.4 9 30.4 28.4 0 4.8-1.3 13.1-3.2 21.6l-13.3 63.1h-17.9l13.9-64.6c0.8-4 2.5-13.2 2.5-17.1 0-10.4-8.4-15.3-19-15.3-9.9 0-20.2 5.5-27 12.8-6.3 5.5-9.7 14.3-12 23l-12.7 61.2h-17.9z"/>
				<path id="Layer" fill-rule="evenodd" class="s1" d="m1138.8 167.1c-0.4 3.2-0.6 6.4-0.6 9.6 0 17.1 13.7 26.7 28.3 26.7 15.6 0 26.3-7.5 31.4-21.1h17.9c-5.7 24.3-25.5 37.1-49.3 37.1-36.1 0-46.3-25.2-46.3-44.4 0-42.3 26.2-71.2 56.2-71.2 32 0 46.2 17.8 46.2 49 0 5.7-1.1 11.3-1.7 14.3zm65.8-16c1.3-15.6-5.7-31.2-25.5-31.2-21.1 0-32.5 14.1-37.8 31.2z"/>
				<path id="Layer" fill-rule="evenodd" class="s1" d="m1248.9 106.4h16.9l-5.3 23.7h0.5c8.4-15.2 21.3-26.3 39.6-26.3 2.1 0 4.3-0.4 6.4 0l-4.3 19.5c-1.7-0.2-3.5-0.2-5.2-0.2-4.5 0-6.6 0-10.8 1-9.9 2.6-17.5 9.2-23.2 18-4.9 7-7.4 17.5-9.1 25.8l-10.3 49h-17.9z"/>
				<path id="Layer" class="s1" d="m1412.6 261.5l25.3-44.7-19.2-110.5h19.2l12.7 87.8h0.4l45.8-87.8h19.6l-86.6 155.2z"/>
				<path id="Layer" fill-rule="evenodd" class="s1" d="m1296.5 266.5c2.2-5.5 5.4-11.6 6.9-16 30.5 0 59.1-9.2 69.6-49.2l-0.5-0.4c-7.8 11.7-20.2 16.8-33.9 16.8-27 0-41-19.4-41-45.7 0-32.7 21.3-68.2 56.8-68.2 15.8 0 31.4 8.6 34.6 22.5v0.4h0.4l3.4-20.3h16.9l-19.7 94.5c-13.3 57.7-57.7 65.6-93.5 65.6zm45.9-64.8c26.9 0 39.6-30.8 39.6-53 0-17.3-9-28.8-27.8-28.8-25.1 0-38.6 31.8-38.6 52.1 0 15.8 8.8 29.7 26.8 29.7z"/>
				<path id="Layer" fill-rule="evenodd" class="s1" d="m1573.7 118.8c-2.6 12.6-15 23-27.7 23-12.6 0-20.5-10.4-17.8-23 2.7-13.1 15.2-23.2 27.5-23.2 12.4 0 20.8 10.1 18 23.2zm-41.6 0c-2.2 10.4 4.5 18.9 14.8 18.9 10.5 0 20.7-8.6 22.9-18.9 2.2-10.7-4.5-19.2-14.9-19.2-10.2 0-20.5 8.3-22.8 19.2zm11-12.8h11.8c4.2 0 9.5 0 8.1 6.7-0.6 2.6-2.4 5.5-7.4 6.1l-0.1 0.1c4.8 0.1 4.5 2.5 4.5 5.1-0.4 5.7-0.4 5.9-0.3 7.5h-7.5c-0.1-1.6 0-3.2 0.4-5.9 0.2-3 0.3-4.1-2.8-4.1h-2.9l-2.1 10h-7.1zm4.8 11h2.7c2.3 0 4.7 0 5.3-3.2 0.7-3.1-2-3.1-4-3.1h-2.6z"/>
			</g>
		</g>
	</g>
</svg>