<svg version="1.2" xmlns="http://www.w3.org/2000/svg" viewBox="0 0 1563 553" width="1563" height="553">
	<title>xylem_tag_7704c-svg</title>
	<style>
		.s0 { fill: #0080aa } 
	</style>
	<path id="Layer" fill-rule="evenodd" class="s0" d="m1216.4 312.2v42.1h-23.6c-40.2 0-59.7-21-59.7-67.8v-73.6c0-22.9-7.2-46.6-36.2-46.6-29 0-38.3 23.6-38.3 46.6v141.4h-50.6v-141.4c0-22.9-10.1-46.6-39.7-46.6-29.6 0-39.3 23.6-39.3 46.6v141.4h-50.6v-142.9c0-56 35.9-90.4 89.4-90.4 27 0 49.6 9.6 65.2 26.4 15.7-16.9 38-26.4 65.1-26.4 49.4 0 84.4 31.8 84.4 90.4v75.8c0 17.3 7.9 25 22.6 25zm-425.6-25.8c-17.9 16.4-38.1 27.8-66.9 27.8-40.7 0-61-20.7-67.7-54h175.8c0 0 0.8-8.5 0.8-17.1 0-67.8-42.9-122.3-113.3-122.3-67.7 0-115.6 50.4-115.6 118.5 0 69.3 44.5 118.4 120 118.4 41.6 0 71.7-16 99.5-39.4zm-71.3-122.4c33.2 0 55.5 22.2 61.4 56.4h-124.9c7.2-33.4 29.1-56.4 63.5-56.4zm-222.4 120.5c0 49.3 20.3 69.7 62.1 69.7h22.8v-43.3h-10.8c-15.4 0-24-7.6-24-26.4v-283.7h-49.9zm-140.6 26.3h-1.7c-12.8 0-19.9-19.1-32.6-53.6l-21-58.1c-19.7-54.1-39.7-78.4-85.5-78.4-38.4 0-58.1 23.2-81.9 55.4l-17.3 23.3-55.8-75h-59.7l85.9 112.7-33.6 45c-17.2 23.1-27.8 30-42.4 30h-10.2v42.1h21.4c24.8 0 42-8.4 56.7-29.1l36.9-51.4 59 80.7h60.1l-89.4-118.2 22.4-29.6c20.2-27.2 29.9-40.1 47-40.1 18.2 0 27.2 16.9 42.6 56.1l25.6 65.4c14.6 38.1 29 66.4 55 66.4h3.4l-13.3 33.2c-10.3 26-20.1 42.1-47.1 42.1h-12v42.8h17.2c40.1 0 68.8-19.8 87.5-71.7l99.1-276.2h-53.6z"/>
	<path id="Layer" fill-rule="evenodd" class="s0" d="m511.7 536.8h46.1v12.9h-60.4v-103.5h14.4zm120.7-17.6h-54.9c0.1 2.8 0.8 5.6 2 8.2 1.2 2.6 2.9 4.9 5 6.8 2.1 2 4.5 3.5 7.1 4.5 2.7 1 5.5 1.6 8.4 1.5q3 0.1 5.9-0.6 2.9-0.7 5.6-2.1 2.6-1.3 4.8-3.3 2.3-2 3.9-4.5l9.7 7.7q-2.6 3.4-6 6.2-3.3 2.7-7.2 4.5-3.9 1.9-8.1 2.8-4.2 0.8-8.5 0.7c-21 0-36.5-14.6-36.5-36.4 0-21.7 15.5-36.6 35.8-36.6 20.3 0 33.2 13.8 33.2 35.9-0.2 1.5-0.2 3-0.2 4.7zm-13.7-10.2c-0.3-10.9-6.7-19.5-19.4-19.5-2.7-0.1-5.4 0.4-7.9 1.3-2.5 0.9-4.8 2.4-6.8 4.2-2 1.7-3.7 3.9-4.9 6.3-1.2 2.4-1.9 5-2.2 7.7zm65.4-17.2h-18.4v36c0 8.3 3 11.7 9.8 11.7q1 0 2.1-0.1 1-0.2 2-0.4 1-0.2 2-0.5 1-0.4 1.9-0.8l0.5 11.3q-1.4 0.4-2.9 0.8-1.4 0.3-2.9 0.6-1.5 0.2-2.9 0.3-1.5 0.2-3 0.1c-13 0-20.3-7.3-20.3-21.6v-37.5h-13.2v-11.3h13.2v-19.8h13.5v19.8h18.4zm21.3-8.9h-11.5l10.1-36.5h13.5zm49.5 15.2q-1.3-2-3-3.6-1.8-1.6-3.9-2.8-2.1-1.1-4.4-1.7-2.4-0.5-4.7-0.5c-6.3 0-12.9 2.5-12.9 9.1 0 5.8 5.3 8 15.8 10.3 13.1 2.9 23.2 8.3 23.2 20.5 0 16.3-13.5 22.3-27.6 22.3q-4 0.1-7.8-0.6-3.9-0.8-7.6-2.4-3.6-1.6-6.7-4-3.2-2.4-5.8-5.4l9.8-8.3q1.5 2.2 3.6 4 2 1.8 4.4 3 2.4 1.3 5 1.9 2.7 0.7 5.4 0.7c6.7 0 13.7-2.5 13.7-10.1 0-6.5-6.3-8.8-18.1-11.6-9.2-2.2-20.2-6.1-20.2-19.1 0-14.9 13-21.2 26.1-21.2 9.8 0 20.2 3.9 25.1 11.4zm111.9-32.6q-1.8-2.3-4-4.1-2.3-1.9-5-3.1-2.6-1.3-5.5-1.9-2.8-0.6-5.7-0.5c-9.4 0-20.3 5.1-20.3 16.9 0 11.7 9.5 14.3 21.2 18.1 13.8 4.3 30.4 9.6 30.4 30.2 0 21.5-17.4 31.4-35.8 31.4q-4.8 0.1-9.6-0.9-4.7-0.9-9.1-2.9-4.3-2-8.2-4.9-3.8-2.9-7-6.5l11.3-9.5q1.9 2.8 4.5 5 2.5 2.3 5.5 3.9 3 1.5 6.3 2.4 3.3 0.8 6.7 0.8c9.7 0 20.8-5.4 20.8-17.7 0-12.2-11.4-15.9-24.5-20-13.2-4.1-27-10.1-27-29.1 0-20.6 18.4-29.5 35.4-29.5q4.1-0.1 8.2 0.7 4 0.7 7.8 2.2 3.9 1.5 7.3 3.8 3.4 2.3 6.3 5.2zm60.3 86.1c-4.9 0.2-9.8-0.6-14.3-2.4-4.6-1.8-8.7-4.5-12.2-7.9-3.5-3.4-6.2-7.5-8-12.1-1.9-4.5-2.8-9.3-2.7-14.2 0-21.4 16.1-36.4 37.2-36.4 21 0 37.3 15 37.3 36.4 0.1 4.9-0.8 9.7-2.7 14.3-1.8 4.5-4.6 8.6-8.1 12-3.5 3.4-7.7 6.1-12.2 7.9-4.6 1.7-9.5 2.5-14.4 2.3zm0-61.6c-14.7 0-23 11.8-23 25 0 13.1 8.3 25.1 23 25.1 14.8 0 23.1-12 23.1-25.1 0-13.2-8.2-25.1-23.1-25.1zm64.5 59.8h-13.7v-110.6h13.7zm53.6 0h-14.9l-28.2-69.2h15.2l20.3 54.5h0.3l20.2-54.5h14.7zm101-30.4h-55c0.2 2.8 0.9 5.6 2.1 8.2 1.2 2.6 2.9 4.9 4.9 6.8 2.1 2 4.5 3.5 7.2 4.5 2.7 1.1 5.5 1.6 8.3 1.5q3 0.1 5.9-0.6 3-0.7 5.6-2 2.7-1.4 4.9-3.4 2.2-2 3.9-4.5l9.6 7.7q-2.6 3.5-5.9 6.2-3.4 2.7-7.2 4.6-3.9 1.8-8.2 2.7-4.2 0.9-8.5 0.7c-21 0-36.5-14.6-36.5-36.4 0-21.7 15.5-36.6 35.8-36.6 20.3 0 33.3 13.9 33.3 35.9q0 0.5 0 1.1 0 0.6-0.1 1.1 0 0.6-0.1 1.1 0 0.6-0.1 1.1zm-13.7-10.1c-0.3-10.9-6.7-19.6-19.4-19.6-2.7 0-5.4 0.5-7.9 1.4-2.5 0.9-4.8 2.3-6.8 4.1-2 1.8-3.7 4-4.9 6.4-1.2 2.4-1.9 5-2.2 7.7zm86.6 19.7h0.2l24.3-82.7h15.9l24.1 82.4h0.2l22.8-82.4h15.4l-30.4 103.4h-15.1l-25.1-83.1h-0.3l-25.1 83.1h-15l-30.4-103.4h15.7zm147.2-23.6c0-10.2-6.8-15.2-17.1-15.2q-2.7 0-5.4 0.5-2.7 0.5-5.2 1.6-2.6 1-4.8 2.5-2.3 1.5-4.3 3.4l-7.3-8.8q2.9-2.5 6.2-4.5 3.4-2 7-3.3 3.6-1.4 7.4-2 3.9-0.6 7.7-0.5c19.9 0 28.9 11.8 28.9 27v30.2q0 1.8 0 3.5 0.1 1.7 0.2 3.4 0.1 1.8 0.4 3.5 0.2 1.7 0.4 3.4h-12.3q-0.3-1.2-0.6-2.5-0.2-1.2-0.3-2.5-0.2-1.2-0.2-2.4-0.1-1.3-0.1-2.6h-0.5q-1.9 2.9-4.4 5.1-2.6 2.3-5.7 3.8-3 1.6-6.3 2.3-3.4 0.7-6.8 0.5c-10.9 0-25.1-5.4-25.1-21.3 0-20.9 24.8-23.4 48.2-23.4zm-3.4 11.8c-13.5 0-30.8 1.5-30.8 13.2 0 8.2 7.3 10.8 14.2 10.8 12.8 0 20-8.6 20-20.3v-3.6zm69.7-25.5h-18.4v36.1c0 8.3 2.9 11.7 9.8 11.7q1.1 0 2.1-0.1 1-0.2 2-0.4 1.1-0.2 2-0.5 1-0.4 2-0.8l0.4 11.3q-1.4 0.4-2.9 0.8-1.4 0.3-2.9 0.6-1.4 0.2-2.9 0.3-1.5 0.2-3 0.1c-13 0-20.2-7.2-20.2-21.6v-37.5h-13.3v-11.3h13.3v-19.8h13.5v19.8h18.5zm21.1 27.5c0.1 2.9 0.8 5.6 2 8.2 1.2 2.6 2.9 4.9 5 6.9 2.1 1.9 4.5 3.5 7.2 4.5 2.6 1 5.4 1.5 8.3 1.5q3 0 5.9-0.6 2.9-0.7 5.6-2.1 2.6-1.4 4.9-3.4 2.2-2 3.8-4.5l9.7 7.8q-2.6 3.4-6 6.1-3.3 2.8-7.2 4.6-3.9 1.9-8.1 2.7-4.2 0.9-8.5 0.7c-21 0-36.5-14.6-36.5-36.3 0-21.8 15.5-36.7 35.8-36.7 20.3 0 33.2 13.9 33.2 35.9-0.1 1.5-0.1 3.1-0.2 4.7zm41.3-10.1c-0.3-11-6.7-19.6-19.4-19.6-2.7 0-5.4 0.4-7.9 1.4-2.5 0.9-4.8 2.3-6.8 4.1-2 1.8-3.7 4-4.9 6.4-1.2 2.4-1.9 5-2.2 7.7zm27.3-28.5h13c0.3 3.4 0.6 8.8 0.6 11.7h0.4c1-2 2.2-3.9 3.6-5.5 1.5-1.7 3.2-3.2 5-4.3 1.9-1.2 3.9-2.2 6-2.8 2.2-0.6 4.4-0.9 6.6-0.9q0.7 0 1.3 0 0.7 0 1.4 0.1 0.7 0.1 1.4 0.2 0.6 0.1 1.3 0.3l-0.6 12.7q-0.8-0.2-1.5-0.4-0.8-0.1-1.6-0.2-0.8-0.1-1.6-0.1-0.8-0.1-1.6-0.1c-13.1 0-19.4 10.7-19.4 22.2v36.4h-13.7v-54.5c-0.2-3.7-0.3-10.4-0.7-14.9z"/>
</svg>