<svg version="1.2" xmlns="http://www.w3.org/2000/svg" viewBox="0 0 1523 275" width="1523" height="275">
	<title>Zimmer_Biomet_logo-svg</title>
	<style>
		.s0 { fill: #4f4c4d } 
		.s1 { fill: #1081c5 } 
	</style>
	<g id="layer1">
		<path id="path3434" fill-rule="evenodd" class="s0" d="m1476.3 86.7h-32.4v-11.1h78.3v11.1h-32.4v100.2h-13.5zm-111-11h64.9v11h-51.4v37.8h41.4v11.1h-41.4v40.3h54.2v11.1h-67.7zm-133.2 0h18.8l34.4 86.7 33.3-86.7h18.7v111.2h-13.5v-93.6l-36.9 93.6h-4.2l-38.2-93.6v93.6h-12.4zm-131.7 56.4v-1.3c0-31.6 22.1-56.5 54.8-56.5 32.7 0 54.3 24.9 54.3 56.2v1.3c0 31.4-21.6 56.6-54 56.6-32.8 0-55.1-25.2-55.1-56.3zm95.1-0.5v-1.2c0-24.9-14.6-45.2-40.3-45.2-25.8 0-40.8 19-40.8 45.5v1.2c0 27 17.9 45.3 41.1 45.3 24.8 0 40-18.7 40-45.6zm-131.9-55.9h13.5v111.3h-13.5zm-97.6 0h33.4c20.7 0 35.8 6.9 35.8 28.8v0.6c0 10.2-4 19.2-16.8 23.5 16.2 3.9 22.3 12.2 22.3 26.7v0.6c0 21-14.3 31.1-36.6 31.1h-38.1zm33.4 48.6c16.4 0 22.6-5.9 22.6-19.6v-0.6c0-12.7-7.3-17.8-22.9-17.8h-19.9v38zm4.4 52.1c16.2 0 23.6-7.1 23.6-20.7v-0.6c0-13.7-7.6-20.2-25.5-20.2h-22.7v41.5zm-176.8-100.7h33.5c21.3 0 38.9 8.7 38.9 31v0.6c0 18.4-12.3 27.4-27.6 30.4l34.1 49.3h-15.1l-33.2-48.4h-17.1v48.4h-13.5zm34.4 52.1c15.9 0 24.4-6.8 24.4-20.5v-0.6c0-15.1-9.3-20.1-24.4-20.1h-20.9v41.2zm-122.4-52.1h64.9v11.1h-51.4v37.8h41.4v11h-41.4v40.3h54.2v11.1h-67.7zm-133.3 0h18.9l34.4 86.7 33.3-86.7h18.7v111.3h-13.6v-93.7l-36.9 93.7h-4.2l-38.1-93.7v93.7h-12.5zm-133.2 0h18.9l34.4 86.7 33.3-86.7h18.7v111.3h-13.6v-93.7l-36.9 93.7h-4.2l-38.1-93.7v93.7h-12.5zm-42.3 0h13.6v111.2h-13.6zm-103 109.1l63-98h-57.4v-11.1h76.1v2.1l-61.3 97.7h60.4v11.5h-80.8z"/>
		<path id="path3438" fill-rule="evenodd" class="s1" d="m137.2 274.3c-75.8 0-137.1-61.2-137.1-137.1 0-75.8 61.3-137.1 137.1-137.1 75.9 0 137.2 61.3 137.2 137.1 0 75.9-61.3 137.1-137.2 137.1zm-92.9-49.2l92.6-175.8-0.9-0.1c-45.7 0-83.4 35.4-87.2 80.2v-83.9h177.6c-23-22.4-54.5-36.2-89.2-36.2-76.6 0-127.9 51.3-127.9 127.9 0 34.1 13.3 65 35 87.9zm2.3 2.3c23.1 23.3 55.2 37.8 90.6 37.8 70.7 0 128-57.3 128-128 0-34.8-14-66.4-36.5-89.5l-91.8 176.1c43.8-0.5 79.8-33.2 85.6-75.5v79.1z"/>
	</g>
</svg>