<svg version="1.2" xmlns="http://www.w3.org/2000/svg" viewBox="0 0 1596 185" width="1596" height="185">
	<title>logo_zionsbank_white-svg</title>
	<style>
		.s0 { fill: #323232 } 
	</style>
	<path id="Layer" class="s0" d="m160.4 15.8l-113.1 147h74.4c11.8 0 15.8-1.6 35.2-26h3.5c-3.5 8.6-12.8 29.4-16.8 47.6-8-4.3-13.3-5.9-24.5-5.9h-118.4l116-150.1h-87c-5.8 0-8.8 1.1-15.7 21.6h-3.2v-49.4c10.1 10.4 10.4 12.6 17.3 12.6 1.9 0 106.7-0.3 134.2-0.3z"/>
	<path id="Layer" fill-rule="evenodd" class="s0" d="m173.5 178.5v-3.5c26.1-6.4 26.6-7.7 26.6-15.7v-127.7c0-8.6-0.2-8.6-26.4-15.8v-3.4h80.8v3.4c-26.6 7.8-26.4 8-26.4 15.8v127.7c0 9.1 0 9.1 26.7 15.7v3.5zm172.8 1.9c-45.1-0.3-92.3-28.9-92.3-83.4 0-59.8 47.8-87 95.5-87 45.9 0 89.6 32.3 89.6 87.8-0.3 48.4-45.9 82.9-92.8 82.6zm2.1-155.8c-44-0.2-66.4 36.1-66.4 73.2 0 28.1 21.4 66.8 65.6 66.8 36 0 63.5-31 63.5-66.8 0-35.8-18.7-72.9-62.7-73.2zm272.6 7.5v146.7h-15.2l-122.4-119.7c-1.9-2.1-2.7-1.9-2.7-0.3v100.8c0 8 0 7.7 26.1 15.4v3.5h-68.5v-3.5c26.4-7.4 26.7-7.4 26.7-15.4v-147.2h13.8l124.3 122.3c1.3 1.3 2.1 0.3 2.1 0.3v-103.1c0-7.5 0.3-7.8-26.1-16.1v-3.4h68.3v3.7c-26.4 8-26.4 8.3-26.4 16zm81.6 151c-15.8 0.8-31.2-2.4-45.4-9.1l-1-44.4h3.2c8.5 25.7 12 26.7 16 29.4 2.6 1.6 13.6 8 25.3 8 15.5 0 29.6-8.8 29.3-24.3-0.5-34.4-77.3-36.8-77.3-83.9 0-30.4 28.3-48.8 58.7-48.8 12.2-0.3 24.2 1.6 35.7 5.6l-1.9 43.8h-3.2c-8.2-22.7-6.9-23.5-11.2-27-5.6-4.5-13-7-20.2-6.7-19.5 0.5-31 10.2-31 28.1 0 31.5 80 41.9 78.7 84.4-1.1 35.8-36.5 44.6-55.7 44.9zm225.8-4.6h-84v-3.5c26.4-9 26.4-9 26.4-15.7v-127.2c0-7.7-0.2-7.7-26.4-16v-3.5h84c17.6 0 44.3 14.5 44.3 37.4 0 15.8-11.7 35.3-30.1 38 22.4 4 40 21.9 40 43.8 0 36-26.4 46.7-54.2 46.7zm-1.6-78.3c-6.1-1.8-27.7-4.8-27.7 3.5v52.9c0 5.4 3.2 5.1 6.4 6.2 9.9 1.6 19.7 0.8 29.3-2.2 8.6-3.2 19.8-8.3 19.5-27-0.3-19.2-10.7-27.7-27.5-33.4zm-7.7-71.8c-8.3-0.5-20.3 0.5-20.3 6.4v44.3c0 4.6 0.6 4.6 4 4.9 9.9 1.3 24.8-4.1 24.8-4.1 13.9-6.9 18.2-16.8 18.2-27.2 0-13.4-11.8-23.5-26.7-24.3zm439.7-16v3.7c-26.4 8-26.4 8.3-26.4 16v146.7h-15.2l-122.4-119.4c-1.8-2.2-2.6-1.9-2.6-0.3v101c0 8 0 7.7 26.1 15.5v3.5h-130.7v-3.5c22.2-7.2 22.2-7.2 20-12 0 0-15.4-35.3-20.2-46h-51c0 1.1-17.8 44.1-18.4 45.4-1.6 4-1.6 5.4 19.5 12.8v3h-60.3v-3.8c22.4-7.2 22.7-7.2 26.2-14.9 0 0 26.9-67.1 57.6-147.5h15.7c30.4 83.9 56.5 147.2 56.5 147.2 3.2 7.2 3.8 8 18.2 12.8 1.3 0.3 2.4 0.6 3.7 0.6 1.9 0 4-0.6 5.9-1.1 15.2-4.5 15.4-5.6 15.4-12.3v-147.4h13.9l124 122.3c1.3 1.6 2.1 0.3 2.1 0.3v-103.1c0-7.5 0.3-7.8-26.1-16.1v-3.4zm-276.3 88.9c-6.4-15.5-11.7-32.3-18.6-54.5l-21.4 54.5zm405.9 68.4c-25.6-20.8-32.8-35.8-65.6-68.4-1.3-1.3-3.2-1.3-3.2 0.3v57.7c0 8.3 0.5 8.3 26.9 16v3.5h-81.8v-3.8c26.1-6.9 26.4-7.2 26.4-15.7v-128c0-7.5 0-7.7-26.2-15.7v-3.2h82.2l-0.6 3.7c-26.9 8-26.9 8-26.9 16v53.7c0 0.3 1.3 1.1 2.9-0.5l58.7-58.2c4.8-4.9 4.8-4.9-12-11.5v-3.2h63.5v3.2c-23.2 6.1-23.2 6.4-32.3 15.7l-54.9 54.3c34.4 28.3 64.8 82 105.3 92.7v2.9c-6.7 2.1-38.4 7.5-62.4-11.5zm101.3-18.7c3.8 3.7 5.6 8.6 5.6 13.9 0 5.1-1.8 10.1-5.6 13.6-3.7 3.8-8.5 5.9-13.8 5.9-10.7 0-19.5-8.8-19.5-19.5 0-5.3 2.1-10.2 5.9-13.9 3.4-3.7 8.5-5.6 13.6-5.6 5.3-0.3 10.1 1.9 13.8 5.6zm-1.6 1.6c-3.2-3.2-7.7-5.1-12.2-5.1-4.6 0-8.8 1.6-12 4.8-3.2 3.2-5.1 7.8-5.1 12.3 0 4.6 1.9 8.8 5.1 12.1 3.2 3.2 7.4 5 12 5 4.5 0 9-1.8 12.2-5 3.2-3.3 5.1-7.5 5.1-12.1 0-4.2-1.9-8.8-5.1-12zm-2.4 7c0 3.2-2.1 5.6-5.3 5.8l5.1 10.2h-4.3l-4.5-9.6h-4.8v9.6h-3.8v-22.5h8.3c6.1 0.3 9.3 2.2 9.3 6.5zm-13.8-3.8v7.8h4c4 0 6.1-0.8 6.1-3.8 0-2.9-1.9-4-6.1-4z"/>
</svg>