<svg version="1.2" xmlns="http://www.w3.org/2000/svg" viewBox="0 0 1508 568" width="1508" height="568">
	<title>zoetis-investors-svg</title>
	<style>
		.s0 { fill: #ff6400 } 
	</style>
	<g id="Layer">
		<g id="Layer">
			<g id="Layer">
				<path id="Layer" fill-rule="evenodd" class="s0" d="m607 420.7l35.7 49.9c-22.8 22.8-105.5 97-228 97-172.5 1.4-183.9-126.9-354.9-126.9h-51.3l-8.5-51.4 193.8-198.1h-149.6l11.4-61.4h246.5l-10 55.7-189.5 192.4c143.9 0 179.5 129.8 322 129.8 87 1.4 158.2-59.9 182.4-87zm-2.8-168.2c0 104.1-74.1 195.3-179.6 195.3-78.3 0-126.8-54.2-126.8-128.3 0-105.5 74.1-196.8 179.6-196.8 84 0 128.2 59.9 126.8 129.8zm-75.5 0c0-31.4-14.3-71.3-59.9-71.3-59.8 0-94 78.4-94 136.9 0 42.7 24.2 72.7 61.2 72.7 55.6 0 92.7-77 92.7-138.3z"/>
				<path id="Layer" fill-rule="evenodd" class="s0" d="m713.9 313.8c-1.4 11.4 1.4 31.3 8.6 44.2 12.8 19.9 34.2 31.3 64.1 31.3 35.6 0 62.7-8.5 85.5-19.9l8.5 54.2c-29.9 15.6-72.6 24.2-109.7 24.2-86.9 0-128.2-52.8-128.2-128.3 0-92.7 69.8-195.4 176.7-195.4 61.2 0 99.7 35.7 99.7 87 0 79.9-84.1 104.1-205.2 102.7zm10-57.1c76.9 1.5 125.4-9.9 125.4-47 0-18.5-15.7-31.4-39.9-31.4-47 0-78.4 41.4-85.5 78.4zm662.6-41.3c0 17.1 14.2 29.9 39.9 42.8 34.2 18.5 64.1 44.2 64.1 84.1 0 68.4-58.4 106.9-132.5 106.9-37.1 0-69.8-10-86.9-22.8l18.5-54.2c15.7 8.6 45.6 21.4 74.1 21.4 29.9-1.4 48.4-18.5 48.4-38.5 0-19.9-11.4-32.8-41.3-48.5-35.6-19.9-61.3-45.6-61.3-81.2 0-59.9 52.8-102.7 125.4-102.7 31.4 0 58.5 7.1 72.7 15.7l-18.5 54.2c-11.4-7.1-32.8-14.3-58.4-14.3-28.5 0-47.1 15.7-44.2 37.1zm-131.8-129.8c-23.3 0-42.1-19.1-42.1-42.7 0-23.7 18.8-42.8 42.1-42.8 23.2 0 42 19.1 42 42.8 0 23.6-18.8 42.7-42 42.7zm-52 44.2h74.1l-59.9 310.9h-74.1zm-101.2 250.9l-2.8 58.5c-15.7 2.8-32.8 7.1-48.5 7.1-68.4 0-98.3-37.1-86.9-95.5l32.8-164h-44.2l11.4-57h44.2l11.4-57.1 76.9-22.8-15.6 79.9h69.8l-11.4 57h-69.8l-31.4 159.7c-5.7 27.1 5.7 41.4 27.1 41.4 11.4 0 22.8-2.9 37-7.2z"/>
			</g>
		</g>
		<g id="Layer">
		</g>
	</g>
</svg>